<svg width="100" height="100" viewBox="0 0 100 100" fill="none" xmlns="http://www.w3.org/2000/svg">
<rect width="100" height="100" fill="url(#paint0_angular)"/>
<path d="M46.5576 55.4746V46.9785C46.5576 44.6836 46.2891 42.6654 45.752 40.9238C45.2148 39.166 44.4499 37.693 43.457 36.5049C42.4479 35.333 41.2272 34.446 39.7949 33.8438C38.3626 33.2415 36.7513 32.9404 34.9609 32.9404C33.1868 32.9404 31.5837 33.2415 30.1514 33.8438C28.7354 34.446 27.5309 35.333 26.5381 36.5049C25.529 37.693 24.7559 39.166 24.2188 40.9238C23.6816 42.6654 23.4131 44.6836 23.4131 46.9785V55.4746C23.4131 57.7695 23.6816 59.7959 24.2188 61.5537C24.7721 63.2952 25.5534 64.752 26.5625 65.9238C27.5553 67.112 28.7679 68.0072 30.2002 68.6094C31.6325 69.2116 33.2357 69.5127 35.0098 69.5127C36.8001 69.5127 38.4115 69.2116 39.8438 68.6094C41.276 68.0072 42.4886 67.112 43.4814 65.9238C44.4743 64.752 45.2311 63.2952 45.752 61.5537C46.2891 59.7959 46.5576 57.7695 46.5576 55.4746ZM30.249 52.5449C30.249 52.0404 30.249 51.6579 30.249 51.3975C30.249 51.137 30.249 50.6162 30.249 49.835V45.9043C30.249 44.5859 30.3467 43.4466 30.542 42.4863C30.7536 41.526 31.071 40.7448 31.4941 40.1426C31.8848 39.5729 32.3649 39.1497 32.9346 38.873C33.5205 38.5801 34.196 38.4336 34.9609 38.4336C35.6445 38.4336 36.2549 38.5475 36.792 38.7754C37.3454 38.987 37.8092 39.3206 38.1836 39.7764C38.6719 40.346 39.0381 41.111 39.2822 42.0713C39.5426 43.0153 39.6891 44.1546 39.7217 45.4893L30.249 52.5449ZM39.7217 56.5C39.7217 57.8184 39.6159 58.9658 39.4043 59.9424C39.209 60.9027 38.9079 61.6921 38.501 62.3105C38.1104 62.8965 37.6221 63.3359 37.0361 63.6289C36.4502 63.9056 35.7747 64.0439 35.0098 64.0439C34.1797 64.0439 33.4635 63.8812 32.8613 63.5557C32.2591 63.2301 31.7627 62.7337 31.3721 62.0664C31.0303 61.513 30.7617 60.8213 30.5664 59.9912C30.3874 59.1611 30.2816 58.209 30.249 57.1348L39.7217 50.1035C39.7217 50.5755 39.7217 50.9417 39.7217 51.2021C39.7217 51.4463 39.7217 51.8369 39.7217 52.374V56.5ZM70.0684 69V33.4531H69.7021L54.2236 39.0439V44.9521L63.208 41.7295V69H70.0684Z" fill="#E3E3E3"/>
<defs>
<radialGradient id="paint0_angular" cx="0" cy="0" r="1" gradientUnits="userSpaceOnUse" gradientTransform="translate(50 50) rotate(90) scale(50)">
<stop stop-color="#100F1B"/>
<stop offset="1" stop-color="#282757"/>
</radialGradient>
</defs>
</svg>
