<?xml version="1.0" encoding="UTF-8"?>
<svg width="100px" height="100px" viewBox="0 0 100 100" version="1.1" xmlns="http://www.w3.org/2000/svg" xmlns:xlink="http://www.w3.org/1999/xlink">
    <title>logo</title>
    <defs>
        <linearGradient x1="50%" y1="100%" x2="50%" y2="0.0633345633%" id="linearGradient-1">
            <stop stop-color="#01FFAC" stop-opacity="0.99486451" offset="0%"></stop>
            <stop stop-color="#CE07FF" stop-opacity="0.502157998" offset="99.9683277%"></stop>
        </linearGradient>
        <linearGradient x1="50%" y1="100%" x2="50%" y2="0.253097679%" id="linearGradient-2">
            <stop stop-color="#01FFAC" stop-opacity="0.503223339" offset="0%"></stop>
            <stop stop-color="#CE07FF" offset="99.9683277%"></stop>
        </linearGradient>
        <linearGradient x1="50%" y1="100%" x2="50%" y2="0.0316722973%" id="linearGradient-3">
            <stop stop-color="#01FFAC" stop-opacity="0.99486451" offset="0%"></stop>
            <stop stop-color="#CE07FF" stop-opacity="0.502458479" offset="100%"></stop>
        </linearGradient>
    </defs>
    <g id="logo备份" stroke="none" stroke-width="1" fill="none" fill-rule="evenodd">
        <rect fill="#000000" x="0" y="0" width="100" height="100"></rect>
        <g id="group" transform="translate(0.000000, -1.000000)">
            <path d="M53.2120437,15.0387766 L82.2518256,36.1460564 C85.0842495,38.2047759 86.2694324,41.8528555 85.1877903,45.1831711 L74.0942361,79.3396072 C73.0121933,82.6711567 69.9077934,84.9269207 66.4049319,84.9269207 L30.5124766,84.9269207 C27.009615,84.9269207 23.9052152,82.6711567 22.8231724,79.3396072 L11.7296181,45.1831711 C10.6479761,41.8528555 11.833159,38.2047759 14.6655829,36.1460564 L43.7053648,15.0387766 C46.5394871,12.9788227 50.3779214,12.9788227 53.2120437,15.0387766 Z M48.4876035,20.6426807 C31.0905056,20.6426807 16.9873713,34.7515925 16.9873713,52.1558173 C16.9873713,69.5600421 31.0905056,83.6689539 48.4876035,83.6689539 C65.8847014,83.6689539 79.9878358,69.5600421 79.9878358,52.1558173 C79.9878358,34.7515925 65.8847014,20.6426807 48.4876035,20.6426807 Z" id="形状结合" fill="url(#linearGradient-1)" opacity="0.599652"></path>
            <path d="M54.1753535,15.3278879 L83.2151354,36.4351677 C86.0475594,38.4938872 87.2327422,42.1419669 86.1511002,45.4722824 L75.0575459,79.6287185 C73.9755031,82.9602681 70.8711033,85.216032 67.3682417,85.216032 L31.4757865,85.216032 C27.9729249,85.216032 24.868525,82.9602681 23.7864822,79.6287185 L12.692928,45.4722824 C11.611286,42.1419669 12.7964688,38.4938872 15.6288928,36.4351677 L44.6686746,15.3278879 C47.5027969,13.267934 51.3412313,13.267934 54.1753535,15.3278879 Z M49.4509134,20.9317921 C32.0538155,20.9317921 17.9506811,35.0407039 17.9506811,52.4449287 C17.9506811,69.8491534 32.0538155,83.9580652 49.4509134,83.9580652 C66.8480113,83.9580652 80.9511456,69.8491534 80.9511456,52.4449287 C80.9511456,35.0407039 66.8480113,20.9317921 49.4509134,20.9317921 Z" id="形状结合" fill="url(#linearGradient-2)" transform="translate(49.422014, 49.500000) rotate(-345.000000) translate(-49.422014, -49.500000) "></path>
            <path d="M54.7533394,15.3278879 L83.7931213,36.4351677 C86.6255453,38.4938872 87.8107281,42.1419669 86.7290861,45.4722824 L75.6355318,79.6287185 C74.553489,82.9602681 71.4490892,85.216032 67.9462276,85.216032 L32.0537724,85.216032 C28.5509108,85.216032 25.446511,82.9602681 24.3644682,79.6287185 L13.2709139,45.4722824 C12.1892719,42.1419669 13.3744547,38.4938872 16.2068787,36.4351677 L45.2466606,15.3278879 C48.0807828,13.267934 51.9192172,13.267934 54.7533394,15.3278879 Z M50.0288993,20.9317921 C32.6318014,20.9317921 18.5286671,35.0407039 18.5286671,52.4449287 C18.5286671,69.8491534 32.6318014,83.9580652 50.0288993,83.9580652 C67.4259972,83.9580652 81.5291315,69.8491534 81.5291315,52.4449287 C81.5291315,35.0407039 67.4259972,20.9317921 50.0288993,20.9317921 Z" id="形状结合" fill="url(#linearGradient-3)" transform="translate(50.000000, 49.500000) rotate(-330.000000) translate(-50.000000, -49.500000) "></path>
        </g>
        <path d="M36.28125,58 L36.28125,56.2910156 L33.8789062,55.9980469 L33.8789062,43.78125 L28.6054688,44.7382812 L28.6054688,46.3691406 L31.0371094,46.3691406 L31.0371094,55.9980469 L28.6347656,56.2910156 L28.6347656,58 L36.28125,58 Z M44.1855469,58.2050781 C45.2402344,58.2050781 46.1614583,58.0455729 46.9492188,57.7265625 C47.7369792,57.4075521 48.3489583,56.9534505 48.7851562,56.3642578 C49.2213542,55.7750651 49.4394531,55.0768229 49.4394531,54.2695312 C49.4394531,53.1041667 49.0341797,52.1634115 48.2236328,51.4472656 C47.4130859,50.7311198 46.2233073,50.1549479 44.6542969,49.71875 C43.9251302,49.4778646 43.3538411,49.2516276 42.9404297,49.0400391 C42.5270182,48.8284505 42.2324219,48.6038411 42.0566406,48.3662109 C41.8808594,48.1285807 41.7929688,47.8502604 41.7929688,47.53125 C41.7929688,47.1601562 41.8938802,46.844401 42.0957031,46.5839844 C42.297526,46.3235677 42.5725911,46.125 42.9208984,45.9882812 C43.2692057,45.8515625 43.671224,45.7832031 44.1269531,45.7832031 C44.6608073,45.7832031 45.1376953,45.8417969 45.5576172,45.9589844 C45.9775391,46.0761719 46.3111979,46.2128906 46.5585938,46.3691406 L46.5585938,46.3691406 L46.9296875,48.3222656 L49.0683594,48.3222656 L49.0683594,45.1191406 C48.4563802,44.6308594 47.7288411,44.25 46.8857422,43.9765625 C46.0426432,43.703125 45.0742188,43.5729167 43.9804688,43.5859375 C42.9908854,43.5989583 42.1184896,43.7747396 41.3632812,44.1132812 C40.6080729,44.4518229 40.0172526,44.9156901 39.5908203,45.5048828 C39.164388,46.0940755 38.9511719,46.7727865 38.9511719,47.5410156 C38.9511719,48.3157552 39.1350911,48.9781901 39.5029297,49.5283203 C39.8707682,50.0784505 40.4241536,50.5504557 41.1630859,50.9443359 C41.9020182,51.3382161 42.8346354,51.7011719 43.9609375,52.0332031 C44.6119792,52.235026 45.1279297,52.444987 45.5087891,52.6630859 C45.8896484,52.8811849 46.1630859,53.1220703 46.3291016,53.3857422 C46.4951172,53.6494141 46.578125,53.9505208 46.578125,54.2890625 C46.578125,54.6471354 46.4853516,54.9580078 46.2998047,55.2216797 C46.1142578,55.4853516 45.8440755,55.6888021 45.4892578,55.8320312 C45.1344401,55.9752604 44.6998698,56.046875 44.1855469,56.046875 C43.5800781,56.046875 43.0201823,55.9703776 42.5058594,55.8173828 C41.9915365,55.664388 41.5878906,55.4641927 41.2949219,55.2167969 L41.2949219,55.2167969 L40.9921875,53.1953125 L38.7851562,53.1953125 L38.7851562,56.6328125 C39.6184896,57.2122396 40.4648438,57.6191406 41.3242188,57.8535156 C42.1835938,58.0878906 43.1373698,58.2050781 44.1855469,58.2050781 Z M56.6699219,58.2050781 C57.7050781,58.2050781 58.59375,57.9772135 59.3359375,57.5214844 C60.078125,57.0657552 60.6477865,56.4326172 61.0449219,55.6220703 C61.4420573,54.8115234 61.640625,53.8789062 61.640625,52.8242188 L61.640625,52.8242188 L61.640625,52.6191406 C61.640625,51.5644531 61.4420573,50.6334635 61.0449219,49.8261719 C60.6477865,49.0188802 60.078125,48.3857422 59.3359375,47.9267578 C58.59375,47.4677734 57.6985677,47.2382812 56.6503906,47.2382812 C55.6152344,47.2382812 54.7249349,47.4677734 53.9794922,47.9267578 C53.2340495,48.3857422 52.6627604,49.0205078 52.265625,49.8310547 C51.8684896,50.6416016 51.6699219,51.5709635 51.6699219,52.6191406 L51.6699219,52.6191406 L51.6699219,52.8242188 C51.6699219,53.8789062 51.8684896,54.8115234 52.265625,55.6220703 C52.6627604,56.4326172 53.2356771,57.0657552 53.984375,57.5214844 C54.7330729,57.9772135 55.6282552,58.2050781 56.6699219,58.2050781 Z M56.6699219,56.0175781 C56.1686198,56.0175781 55.7584635,55.8857422 55.4394531,55.6220703 C55.1204427,55.3583984 54.8876953,54.9856771 54.7412109,54.5039062 C54.5947266,54.0221354 54.5214844,53.4622396 54.5214844,52.8242188 L54.5214844,52.8242188 L54.5214844,52.6191406 C54.5214844,51.9941406 54.5947266,51.4423828 54.7412109,50.9638672 C54.8876953,50.4853516 55.1204427,50.1110026 55.4394531,49.8408203 C55.7584635,49.570638 56.1621094,49.4355469 56.6503906,49.4355469 C57.1516927,49.4355469 57.5602214,49.570638 57.8759766,49.8408203 C58.1917318,50.1110026 58.4244792,50.4853516 58.5742188,50.9638672 C58.7239583,51.4423828 58.7988281,51.9941406 58.7988281,52.6191406 L58.7988281,52.6191406 L58.7988281,52.8242188 C58.7988281,53.4622396 58.7239583,54.0205078 58.5742188,54.4990234 C58.4244792,54.9775391 58.1933594,55.3502604 57.8808594,55.6171875 C57.5683594,55.8841146 57.1647135,56.0175781 56.6699219,56.0175781 Z M69.1640625,58 L69.1640625,56.2910156 L67.7871094,55.9980469 L67.7871094,42.765625 L63.4121094,42.765625 L63.4121094,44.484375 L64.9355469,44.7773438 L64.9355469,55.9980469 L63.5585938,56.2910156 L63.5585938,58 L69.1640625,58 Z" id="1Sol" fill="#FFFFFF" fill-rule="nonzero"></path>
    </g>
</svg>
