<?xml version="1.0" standalone="no"?>
<!DOCTYPE svg PUBLIC "-//W3C//DTD SVG 20010904//EN"
 "http://www.w3.org/TR/2001/REC-SVG-20010904/DTD/svg10.dtd">
<svg version="1.0" xmlns="http://www.w3.org/2000/svg"
 width="300.000000pt" height="300.000000pt" viewBox="0 0 300.000000 300.000000"
 preserveAspectRatio="xMidYMid meet">
<metadata>
Created by potrace 1.10, written by Peter Selinger 2001-2011
</metadata>
<g transform="translate(0.000000,300.000000) scale(0.100000,-0.100000)"
fill="#000000" stroke="none">
<path d="M1434 2551 c-33 -18 -94 -71 -81 -71 4 0 -1 -9 -12 -21 -11 -12 -41
-58 -67 -102 -27 -45 -54 -88 -60 -95 -7 -6 -16 -21 -19 -32 -3 -11 -10 -20
-14 -20 -4 0 -13 -12 -20 -27 -7 -16 -29 -53 -49 -83 -20 -30 -37 -58 -38 -62
-1 -5 -2 -12 -3 -17 0 -6 -9 -8 -18 -7 -14 3 -18 -3 -19 -24 -1 -28 -10 -43
-52 -85 -13 -13 -21 -29 -17 -34 3 -6 2 -11 -4 -11 -5 0 -13 -10 -17 -22 -3
-12 -15 -30 -25 -41 -10 -11 -25 -34 -34 -51 -8 -17 -33 -56 -54 -86 -22 -30
-37 -58 -35 -62 3 -5 1 -8 -5 -8 -6 0 -18 -16 -27 -35 -9 -19 -20 -35 -24 -35
-4 0 -15 -16 -24 -35 -9 -19 -21 -35 -27 -35 -6 0 -8 -4 -4 -9 3 -5 -3 -17
-12 -27 -10 -9 -22 -26 -28 -38 -20 -38 -40 -71 -46 -76 -13 -12 -66 -98 -77
-125 -9 -24 -9 -41 1 -80 11 -45 16 -52 59 -72 l47 -23 878 3 c823 2 880 3
911 20 18 10 30 22 27 26 -3 5 1 11 9 14 23 9 29 63 12 98 -9 18 -16 38 -16
44 0 7 -23 43 -51 81 -28 38 -58 84 -67 102 -9 17 -19 32 -24 32 -4 0 -8 4 -8
10 0 5 -16 30 -35 56 -19 25 -35 52 -35 60 0 8 -4 14 -10 14 -5 0 -10 6 -10
14 0 8 -5 16 -11 18 -5 2 -11 11 -13 20 -1 10 -14 31 -29 48 -15 16 -27 34
-27 38 0 5 -13 26 -30 48 -16 21 -30 42 -30 47 0 4 -40 68 -90 142 -49 74 -90
137 -90 140 0 3 -8 15 -19 26 -10 11 -29 40 -41 64 -12 24 -31 53 -41 64 -11
11 -19 26 -19 34 0 8 -10 25 -22 39 -13 14 -32 42 -43 64 -11 21 -23 41 -26
44 -19 14 -76 110 -66 110 20 1 -84 39 -117 43 -17 2 -45 -3 -62 -12z m108
-25 c25 -11 48 -35 80 -83 48 -73 167 -258 183 -286 11 -18 287 -448 394 -612
114 -177 222 -349 237 -378 22 -42 14 -86 -19 -111 -28 -21 -32 -21 -913 -24
-802 -2 -889 -1 -920 14 -67 32 -60 94 28 230 36 54 102 158 148 229 79 124
133 209 205 320 53 82 90 139 95 150 3 6 30 48 61 95 31 47 87 135 125 196
147 235 157 249 195 261 47 15 62 15 101 -1z"/>
<path d="M1420 2475 c-7 -9 -11 -17 -9 -20 3 -2 10 5 17 15 14 24 10 26 -8 5z"/>
<path d="M1420 2237 c-40 -61 -93 -143 -119 -182 -25 -38 -48 -74 -50 -80 -2
-5 -25 -41 -51 -80 -70 -103 -324 -495 -391 -601 -24 -38 -46 -71 -50 -74 -7
-6 -29 -46 -29 -54 0 -3 344 -6 764 -6 601 0 766 3 772 13 4 6 4 9 -1 5 -6 -6
-105 123 -105 137 0 2 -28 47 -62 99 -35 52 -93 141 -130 198 -194 301 -268
414 -278 425 -5 7 -10 15 -10 18 0 3 -27 46 -61 96 -33 50 -75 115 -93 145
l-33 54 -73 -113z m116 -15 c-2 -2 9 -17 24 -33 15 -17 34 -43 41 -57 24 -46
75 -122 106 -156 7 -8 9 -17 5 -20 -3 -4 -1 -10 5 -14 6 -4 26 -32 44 -62 19
-31 42 -67 52 -80 77 -108 139 -215 129 -224 -4 -4 -2 -6 5 -4 11 3 103 -125
103 -142 0 -5 7 -11 16 -14 8 -3 12 -10 9 -16 -3 -5 -1 -10 6 -10 6 0 9 -8 6
-19 -3 -12 1 -18 12 -17 9 0 15 -5 14 -11 -2 -7 2 -13 7 -13 6 0 10 -5 10 -11
0 -6 16 -33 35 -59 19 -26 35 -53 35 -59 0 -11 -57 -12 -1000 -11 -223 0 -411
0 -419 0 -11 0 -11 3 0 16 17 21 37 54 45 76 3 9 12 19 20 22 8 3 14 12 14 21
0 19 36 56 46 47 4 -4 4 -2 0 5 -6 11 51 111 81 141 7 8 11 18 8 23 -4 5 -1 9
4 9 6 0 11 5 11 11 0 6 11 24 25 41 14 16 25 35 25 42 0 6 9 19 20 29 12 10
18 23 14 29 -5 7 -3 8 5 4 8 -5 14 0 18 13 3 12 10 21 15 21 5 0 6 5 2 11 -3
6 -2 14 3 18 5 3 28 37 52 75 24 38 52 79 62 90 10 11 22 29 25 40 4 12 14 26
23 33 9 7 13 13 9 13 -4 0 2 10 13 23 25 28 109 157 109 168 0 4 8 14 18 21 9
7 18 20 20 28 2 8 9 21 15 28 8 11 15 6 33 -24 13 -21 22 -40 20 -42z"/>
<path d="M1616 2237 c3 -10 9 -15 12 -12 3 3 0 11 -7 18 -10 9 -11 8 -5 -6z"/>
<path d="M1820 1913 c1 -14 30 -47 36 -41 3 4 -4 16 -15 27 -12 12 -21 18 -21
14z"/>
<path d="M2181 1494 c0 -11 3 -14 6 -6 3 7 2 16 -1 19 -3 4 -6 -2 -5 -13z"/>
<path d="M2255 1241 c-3 -5 -2 -12 3 -15 5 -3 9 1 9 9 0 17 -3 19 -12 6z"/>
<path d="M2401 1154 c0 -11 3 -14 6 -6 3 7 2 16 -1 19 -3 4 -6 -2 -5 -13z"/>
<path d="M544 895 c-12 -13 -25 -21 -27 -19 -2 2 -2 -10 1 -26 2 -17 0 -36 -6
-43 -8 -9 -6 -16 9 -25 11 -7 17 -17 14 -22 -3 -6 2 -10 12 -10 11 0 24 -5 29
-10 7 -7 316 -9 927 -8 l917 3 27 29 c38 41 38 87 -1 123 l-30 28 -924 1 -925
2 -23 -23z m1906 -70 c0 -12 -9 -31 -20 -43 l-21 -22 -923 0 -924 0 -15 31
c-13 28 -11 65 6 91 1 2 416 5 922 8 l920 5 28 -24 c15 -14 27 -34 27 -46z"/>
</g>
</svg>
