<svg width="717" height="716" viewBox="0 0 717 716" fill="none" xmlns="http://www.w3.org/2000/svg">
<rect width="717" height="716" rx="358" fill="white"/>
<path d="M517.103 380.248L514.649 407.381L510.328 434.328L504.151 460.977L503.914 461.738L503.627 462.488L503.296 463.214L502.911 463.93L502.477 464.617L501.993 465.278L501.469 465.915L500.901 466.518L500.294 467.086L499.647 467.624L498.961 468.123L498.245 468.582L497.499 469.002L482.439 476.329L466.904 482.803L450.95 488.398L434.64 493.099L418.038 496.876L401.205 499.725L384.209 501.631L367.415 502.53L367.114 502.584H358.552H349.989L349.693 502.53L332.894 501.631L315.898 499.725L299.07 496.876L282.463 493.099L266.158 488.398L250.199 482.803L234.664 476.329L219.604 469.002L218.863 468.582L218.142 468.123L217.456 467.624L216.814 467.086L216.202 466.518L215.634 465.915L215.11 465.278L214.626 464.617L214.192 463.93L213.807 463.214L213.476 462.488L213.189 461.738L212.952 460.977L206.775 434.328L202.454 407.381L200 380.248L199.428 353.03L200.736 325.832L203.921 298.762L208.973 271.92L209.165 271.184L209.402 270.453L209.605 269.95L209.689 269.737L210.024 269.041L210.409 268.365L215.945 259.857L222.083 251.694L228.803 243.907L236.072 236.53L239.148 233.789L243.859 229.592L252.135 223.128L260.855 217.154L269.995 211.707L279.51 206.804L289.357 202.468L299.499 198.72L309.888 195.57L320.49 193.032L331.245 191.121L342.123 189.837L353.066 189.2H358.552H364.038L374.98 189.837L385.858 191.121L396.618 193.032L407.215 195.57L417.609 198.72L427.746 202.468L437.593 206.804L447.108 211.707L456.248 217.154L464.968 223.128L473.244 229.592L477.955 233.789L481.031 236.53L488.3 243.907L495.02 251.694L501.158 259.857L506.699 268.365L507.079 269.041L507.415 269.737L507.503 269.95L507.701 270.453L507.943 271.184L508.135 271.92L513.182 298.762L516.372 325.832L517.675 353.03L517.103 380.248ZM578.994 326.341L578.733 324.01L578.328 321.709L577.775 319.427L577.078 317.186L576.234 314.993L575.251 312.855L574.136 310.776L572.891 308.771L571.523 306.841L570.027 304.999L568.417 303.251L566.704 301.602L564.882 300.061L562.966 298.629L560.966 297.315L558.132 295.691L557.401 295.212L556.71 294.693L556.048 294.131L555.421 293.533L554.838 292.901L554.295 292.229L553.801 291.528L553.347 290.797L552.942 290.042L552.586 289.267L552.28 288.472L550.108 282.828L547.56 277.337L544.641 272.019L541.377 266.893L537.773 261.985L533.847 257.314L529.605 252.904L525.082 248.776L520.293 244.934L519.675 244.445L519.083 243.922L518.525 243.369L518.006 242.786L517.513 242.174L517.058 241.537L516.643 240.875L510.585 231.301L503.894 222.121L496.62 213.371L488.784 205.085L480.409 197.303L471.546 190.049L462.223 183.358L452.475 177.26L442.348 171.769L431.879 166.92L421.11 162.723L410.088 159.202L398.855 156.368L387.458 154.23L375.943 152.798L364.354 152.082H358.552H352.749L341.16 152.798L329.645 154.23L318.248 156.368L307.015 159.202L295.998 162.723L285.224 166.92L274.755 171.769L264.628 177.26L254.88 183.358L245.557 190.049L236.694 197.303L228.324 205.085L220.488 213.371L213.209 222.121L206.523 231.301L200.46 240.875L200.045 241.537L199.59 242.174L199.102 242.786L198.578 243.369L198.025 243.922L197.438 244.445L196.815 244.934L192.021 248.776L187.498 252.904L183.266 257.314L179.335 261.985L175.726 266.893L172.462 272.019L169.543 277.337L167 282.828L164.823 288.472L164.521 289.267L164.161 290.042L163.756 290.797L163.307 291.528L162.808 292.229L162.27 292.901L161.682 293.533L161.06 294.131L160.398 294.693L159.702 295.212L158.976 295.691L156.137 297.315L154.137 298.629L152.221 300.061L150.399 301.602L148.691 303.251L147.076 304.999L145.585 306.841L144.212 308.771L142.968 310.776L141.852 312.855L140.874 314.993L140.029 317.186L139.328 319.427L138.775 321.709L138.37 324.01L138.109 326.341L138 328.676L138.035 331.017L142.987 437.838L143.116 439.463L143.348 441.083L143.679 442.687L144.108 444.263L144.637 445.813L145.269 447.329L145.99 448.81L146.804 450.237L147.708 451.62L149.619 454.178L151.683 456.622L153.9 458.938L156.26 461.121L158.749 463.16L161.361 465.051L164.818 467.249L165.514 467.752L166.181 468.3L166.808 468.883L167.395 469.505L167.943 470.157L168.457 470.843L168.911 471.559L169.331 472.3L169.701 473.06L173.568 482.596L177.651 491.123C180.688 496.585 249.058 546.941 249.058 546.941C249.058 546.941 284.552 563.133 358.552 563.133C432.551 563.133 468.045 546.941 468.045 546.941C468.045 546.941 536.415 496.585 539.452 491.123L543.54 482.596L547.407 473.06L547.772 472.3L548.192 471.559L548.651 470.843L549.16 470.157L549.708 469.505L550.3 468.883L550.927 468.3L551.589 467.752L552.285 467.249L555.742 465.051L558.354 463.16L560.843 461.121L563.203 458.938L565.42 456.622L567.484 454.178L569.395 451.62L570.299 450.237L571.114 448.81L571.834 447.329L572.466 445.813L572.995 444.263L573.424 442.687L573.76 441.083L573.992 439.463L574.116 437.838L579.068 331.017L579.108 328.676L578.994 326.341Z" fill="black"/>
<path d="M439.609 378.754H418.727C416.115 378.754 413.996 380.877 413.996 383.489V397.883C413.996 400.505 412.954 403.024 411.098 404.88L409.769 406.208C407.913 408.065 405.394 409.102 402.772 409.102H314.33C311.708 409.102 309.189 408.065 307.333 406.208L306.004 404.88C304.148 403.024 303.106 400.505 303.106 397.883V383.489C303.106 380.877 300.987 378.754 298.37 378.754H277.493C274.881 378.754 272.757 380.877 272.757 383.489V404.367C272.757 406.984 274.881 409.102 277.493 409.102H293.215C295.837 409.102 298.355 410.144 300.212 412.001C302.069 413.857 303.106 416.376 303.106 418.998V434.271C303.106 437.12 305.436 439.45 308.286 439.45H308.3H408.802H408.811C411.665 439.45 413.996 437.12 413.996 434.271V418.998C413.996 416.376 415.033 413.857 416.89 412.001C418.746 410.144 421.265 409.102 423.887 409.102H439.609C442.221 409.102 444.345 406.984 444.345 404.367V383.489C444.345 380.877 442.221 378.754 439.609 378.754Z" fill="black"/>
</svg>
