<svg width="100" height="100" viewBox="0 0 100 100" fill="none" xmlns="http://www.w3.org/2000/svg">
<path fill-rule="evenodd" clip-rule="evenodd" d="M50.5 13C71.2107 13 88 29.7893 88 50.5C88 60.0964 84.3954 68.8508 78.4663 75.4833L78.4668 75.4827L75.2692 72.2854C74.717 71.7332 74.0055 71.4373 73.2825 71.3979L73.1156 71.3933C72.3361 71.3933 71.5566 71.6907 70.9619 72.2854C69.8149 73.4324 69.774 75.2665 70.839 76.4626L70.9619 76.5928L74.0523 79.6828C67.6148 84.8848 59.4212 88 50.5 88C29.7893 88 13 71.2107 13 50.5C13 41.5788 16.1152 33.3852 21.3172 26.9477L23.966 29.5969C24.5608 30.1917 25.3402 30.489 26.1197 30.489L26.2867 30.4845C27.0096 30.445 27.7212 30.1492 28.2734 29.5969C29.4629 28.4075 29.4629 26.479 28.2734 25.2896L25.5173 22.5332L25.5167 22.5337C32.1492 16.6046 40.9036 13 50.5 13ZM51.2988 72.2159L51.1695 72.3379L43.6025 79.9049C42.4211 81.0863 42.4211 83.0018 43.6025 84.1832C44.1932 84.7739 44.9674 85.0693 45.7417 85.0693L45.9075 85.0648C46.6255 85.0256 47.3323 84.7317 47.8808 84.1832L55.4478 76.6162C56.6292 75.4348 56.6292 73.5194 55.4478 72.3379C54.8993 71.7894 54.1925 71.4956 53.4745 71.4564L53.3086 71.4519C52.5897 71.4519 51.8708 71.7066 51.2988 72.2159ZM59.485 61.57C57.4035 63.6515 57.3921 67.015 59.4596 69.0824C60.4668 70.0897 61.7816 70.6035 63.106 70.6249L63.3151 70.6242C64.6396 70.5938 65.958 70.0711 66.972 69.057C69.0536 66.9755 69.065 63.612 66.9975 61.5445C66.0432 60.5903 64.813 60.0789 63.5601 60.0095L63.3511 60.0021C61.957 59.9795 60.5525 60.5025 59.485 61.57ZM43.735 45.0585C42.588 46.2055 42.5471 48.0396 43.6121 49.2357L43.735 49.3659L51.1929 56.8238C51.7877 57.4186 52.5671 57.7159 53.3466 57.7159L53.5136 57.7114C54.2365 57.6719 54.9481 57.3761 55.5003 56.8238C56.6897 55.6344 56.6897 53.7059 55.5003 52.5165L48.0424 45.0585C47.4901 44.5063 46.7786 44.2104 46.0556 44.171L45.8887 44.1664C45.1092 44.1664 44.3297 44.4638 43.735 45.0585ZM32.2581 34.3431C30.1766 36.4246 30.1652 39.7881 32.2327 41.8556C33.2399 42.8628 34.5547 43.3766 35.8791 43.398L36.0882 43.3973C37.4127 43.3669 38.7311 42.8442 39.7451 41.8301C41.8267 39.7486 41.8381 36.3851 39.7706 34.3177C38.8164 33.3634 37.5861 32.8521 36.3332 32.7826L36.1242 32.7752C34.7302 32.7526 33.3256 33.2756 32.2581 34.3431ZM51.4838 17.5771L51.3545 17.6991L43.7875 25.2661C42.6061 26.4475 42.6061 28.363 43.7875 29.5444C44.3782 30.1351 45.1525 30.4305 45.9267 30.4305L46.0925 30.4259C46.8106 30.3868 47.5173 30.0929 48.0658 29.5444L55.6328 21.9774C56.8142 20.796 56.8142 18.8806 55.6328 17.6991C55.0843 17.1506 54.3775 16.8568 53.6595 16.8176L53.4936 16.8131C52.7747 16.8131 52.0558 17.0678 51.4838 17.5771Z" fill="#0054FF"/>
</svg>
