<svg id="e0fc32b1-903a-4208-9a70-1d4c871c8155" data-name="Layer 1" xmlns="http://www.w3.org/2000/svg" viewBox="0 0 100 100"><defs><style>.abe46612-a4d3-43ca-a4e7-a31b23449994{fill:#d7ccc8;}</style></defs><rect class="abe46612-a4d3-43ca-a4e7-a31b23449994" width="100" height="100"/><path d="M14.8,56.35v-12a2.71,2.71,0,0,1,.85-2,2.75,2.75,0,0,1,2-.85h9.07a2.79,2.79,0,0,1,2,.85,2.74,2.74,0,0,1,.84,2v12H26.88v-5H17.52v5Zm2.72-7.7h9.36V45a1.4,1.4,0,0,0-.08-.65,1.47,1.47,0,0,0-.64-.07H18.24a1.43,1.43,0,0,0-.65.07,1.47,1.47,0,0,0-.07.65Z"/><path d="M34.16,56.35V41.51h2.72v12.1H49v2.74Z"/><path d="M48.15,56.35V41.53H61.79v2.74H50.88v3.29h8.77v2.76H50.88v3.29H61.79v2.74Z"/><path d="M61.79,56.35V41.55H73.72a2.9,2.9,0,0,1,2.88,2.86v4a2.74,2.74,0,0,1-.84,2,2.81,2.81,0,0,1-2,.84h-.8l3.66,4.32v.77h-3l-4.26-5.09-4.86,0v5.06Zm3.43-7.82h7.92a1.66,1.66,0,0,0,.63-.06s.07-.26.07-.64V45a1.47,1.47,0,0,0-.07-.65,1.38,1.38,0,0,0-.63-.07H65.22c-.38,0-.6,0-.64.07a1.4,1.4,0,0,0-.08.65v2.84c0,.38,0,.6.08.64A1.65,1.65,0,0,0,65.22,48.53Z"/><path d="M80.88,56.35V41.53h2.69V56.35Z"/></svg>