<?xml version="1.0" encoding="UTF-8"?>
<svg width="100px" height="100px" viewBox="0 0 100 100" version="1.1" xmlns="http://www.w3.org/2000/svg" xmlns:xlink="http://www.w3.org/1999/xlink">
    <title>Slice</title>
    <g id="Page-1" stroke="none" stroke-width="1" fill="none" fill-rule="evenodd">
        <g id="Slice">
            <rect id="Rectangle" x="0" y="0" width="100" height="100"></rect>
            <circle id="Oval" fill="#161B25" fill-rule="nonzero" cx="50" cy="50" r="48"></circle>
            <path d="M44.4443636,13.6363636 L55.5556364,13.6363636 L55.5556364,27.5658182 C53.6232727,27.0450909 51.5912727,26.768 49.4952727,26.768 C47.7607273,26.768 46.0705455,26.9578182 44.4443636,27.3185455 L44.4443636,13.6363636 Z M37.7861818,29.9294545 L28.2152727,20.3585455 L20.3585455,28.2152727 L29.8058182,37.6625455 C31.8007273,34.4850909 34.5432727,31.8254545 37.7861818,29.9294545 Z M26.9309091,44.4443636 L13.6363636,44.4443636 L13.6363636,55.5556364 L26.9309091,55.5556364 C26.4945455,53.7752727 26.2625455,51.9149091 26.2625455,50 C26.2625455,48.0850909 26.4945455,46.2247273 26.9309091,44.4443636 Z M29.8058182,62.3374545 L20.3585455,71.7847273 L28.2152727,79.6414545 L37.7861818,70.0705455 C34.5425455,68.1738182 31.8,65.5141818 29.8058182,62.3374545 Z M44.4443636,72.6814545 L44.4443636,86.3636364 L55.5556364,86.3636364 L55.5556364,72.4341818 C53.6232727,72.9549091 51.5912727,73.232 49.4952727,73.232 C47.7607273,73.232 46.0705455,73.0421818 44.4443636,72.6814545 Z M61.8327273,69.6894545 L71.7847273,79.6414545 L79.6414545,71.7847273 L69.5658182,61.7083636 C67.6690909,64.952 65.0094545,67.6945455 61.8327273,69.6894545 Z M72.0589091,55.5556364 L86.3636364,55.5556364 L86.3636364,44.4443636 L72.0589091,44.4443636 C72.4952727,46.2247273 72.7272727,48.0850909 72.7272727,50 C72.7272727,51.9149091 72.4952727,53.7752727 72.0589091,55.5556364 Z M69.5650909,38.2909091 L79.6407273,28.2152727 L71.784,20.3585455 L61.832,30.3105455 C65.0094545,32.3054545 67.6690909,35.048 69.5650909,38.2909091 Z" id="Shape" fill="#B8B5F8" fill-rule="nonzero"></path>
        </g>
    </g>
</svg>