<svg width="100" height="100" viewBox="0 0 100 100" fill="none" xmlns="http://www.w3.org/2000/svg">
<path d="M85.6689 66.0766C86.4836 67.4473 87.0177 68.9663 87.24 70.5452C87.4624 72.1241 87.3686 73.7315 86.9641 75.2738C86.5596 76.8162 85.8525 78.2627 84.8839 79.5293C83.9153 80.7959 82.7045 81.8572 81.322 82.6517C79.9395 83.4461 78.4129 83.9577 76.8308 84.1568C75.2488 84.3559 73.643 84.2384 72.1068 83.8113C70.5706 83.3841 69.1346 82.6558 67.8824 81.6687C66.6302 80.6816 65.5868 79.4553 64.8128 78.0613L39.572 34.3613C38.0384 31.599 37.6531 28.3442 38.4995 25.3002C39.3459 22.2562 41.3559 19.6674 44.0953 18.0933C46.8348 16.5191 50.0835 16.086 53.1397 16.8875C56.1958 17.689 58.8139 19.6607 60.4282 22.3766L85.6689 66.0766Z" fill="#8CCAC3"/>
<path d="M35.1947 78.076C33.6035 80.8426 30.9785 82.8639 27.897 83.6951C24.8155 84.5262 21.5301 84.0993 18.7634 82.5081C15.9967 80.9169 13.9755 78.2918 13.1443 75.2103C12.3131 72.1288 12.7401 68.8434 14.3313 66.0767L39.572 22.3767C40.346 20.9827 41.3895 19.7564 42.6417 18.7693C43.8939 17.7822 45.3298 17.0538 46.8661 16.6267C48.4023 16.1996 50.0081 16.0821 51.5901 16.2812C53.1721 16.4803 54.6988 16.9919 56.0813 17.7863C57.4638 18.5807 58.6745 19.6421 59.6431 20.9087C60.6117 22.1753 61.3188 23.6218 61.7233 25.1642C62.1278 26.7065 62.2216 28.3139 61.9993 29.8928C61.7769 31.4717 61.2429 32.9907 60.4282 34.3613L35.1947 78.076Z" fill="#5A8892"/>
<path d="M60.3551 22.2307C60.2163 21.9968 60.0701 21.763 59.9167 21.5437C59.8363 21.4341 59.7705 21.3245 59.6901 21.2222C59.6098 21.1199 59.3832 20.8203 59.2225 20.6303C59.0617 20.4403 59.0325 20.3891 58.9301 20.2795C58.8278 20.1699 58.6305 19.9653 58.4771 19.8191C58.3236 19.673 58.214 19.5487 58.0678 19.4172L57.6586 19.0737C57.4832 18.9349 57.3151 18.7887 57.1325 18.6572C56.9498 18.5257 56.8767 18.4745 56.7451 18.3868C56.6136 18.2991 56.3359 18.1164 56.124 17.9922L55.9925 17.9045L55.7001 17.7584C55.4955 17.6487 55.2909 17.5391 55.0863 17.4441L54.5528 17.2103C54.3775 17.1445 54.2021 17.0714 54.0267 17.013C53.8209 16.9338 53.6111 16.8655 53.3982 16.8084L52.9232 16.6987C52.6967 16.6403 52.4701 16.5964 52.2436 16.5526L51.7759 16.4722C51.5567 16.4722 51.3375 16.4137 51.1109 16.3918H50.5921C50.3948 16.3918 50.1901 16.3918 49.9928 16.3918C49.7955 16.3918 49.5909 16.3918 49.3936 16.3918H48.8675C48.6482 16.3918 48.429 16.4357 48.2098 16.4722L47.7348 16.5526C47.5155 16.5964 47.289 16.6403 47.0698 16.6987L46.5875 16.8303L45.9663 17.0276L45.4328 17.2395L44.914 17.466C44.7021 17.561 44.4901 17.6707 44.2855 17.7803L44.0005 17.9264L43.8763 18.0068C43.6498 18.1384 43.4451 18.2772 43.2332 18.4234C43.0213 18.5695 42.9848 18.5841 42.8678 18.6718C42.7509 18.7595 42.4951 18.9641 42.3125 19.1176L41.9325 19.4318C41.779 19.5707 41.6328 19.7241 41.4867 19.8703C41.3405 20.0164 41.209 20.1407 41.0775 20.2868C40.9459 20.433 40.8509 20.5572 40.734 20.696C40.6171 20.8349 40.449 21.0395 40.3102 21.2222C40.1713 21.4049 40.1348 21.4853 40.0471 21.6168C39.9594 21.7484 39.7767 22.0187 39.6525 22.2307C38.5656 24.0613 37.9847 26.1479 37.9693 28.2769C37.9539 30.4058 38.5045 32.5006 39.5648 34.3468L50.0001 52.4114L60.4282 34.3468C61.4914 32.5021 62.045 30.4079 62.0321 28.2788C62.0193 26.1498 61.4405 24.0624 60.3551 22.2307Z" fill="#487387"/>
</svg>
