<svg width="100" height="100" viewBox="0 0 100 100" fill="none" xmlns="http://www.w3.org/2000/svg">
<g clip-path="url(#clip0)">
<g filter="url(#filter0_d)">
<path d="M69.9998 32.8L55.0998 24.2C51.9998 22.4 48.1998 22.4 45.1998 24.2L30.2998 32.8C27.1998 34.6 25.2998 37.9 25.2998 41.4V58.6C25.2998 62.1 27.1998 65.4 30.2998 67.2L45.1998 75.8C48.2998 77.6 52.0998 77.6 55.0998 75.8L69.9998 67.2C73.0998 65.4 74.9998 62.1 74.9998 58.6V41.4C74.9998 37.9 73.0998 34.6 69.9998 32.8Z" fill="white"/>
</g>
<path d="M53.0999 53.7001L50.0999 55.3L47.1999 53.7001C46.6999 53.4001 46.0999 53.6 45.7999 54.1C45.4999 54.6 45.6999 55.2 46.1999 55.5L49.0999 57.1V58.6C49.0999 59.2 49.4999 59.6 50.0999 59.6C50.6999 59.6 51.0999 59.2 51.0999 58.6V57L53.9999 55.5C54.4999 55.2 54.6999 54.6 54.3999 54.1C54.1999 53.6 53.5999 53.4001 53.0999 53.7001ZM57.5999 47.8C56.3999 47.8 55.3999 48.8 55.3999 50C55.3999 51.2 56.3999 52.2001 57.5999 52.2001C58.7999 52.2001 59.7999 51.2 59.7999 50C59.7999 48.8 58.7999 47.8 57.5999 47.8ZM42.5999 47.8C41.3999 47.8 40.3999 48.8 40.3999 50C40.3999 51.2 41.3999 52.2001 42.5999 52.2001C43.7999 52.2001 44.7999 51.2 44.7999 50C44.7999 48.8 43.7999 47.8 42.5999 47.8Z" fill="#BA28FF"/>
<path d="M60.8998 36.6C60.6998 36.6 60.4998 36.5 60.2998 36.6H60.1998C59.9998 36.6 59.7998 36.7 59.5998 36.7L50.0998 40.3L40.9998 36.7C40.6998 36.5 40.2998 36.5 39.9998 36.5C34.3998 36.7 29.7998 41.4 29.7998 47C29.7998 52 33.1998 56.1 37.8998 57.2C38.3998 63.6 43.7998 68.6 50.2998 68.6C56.8998 68.6 62.1998 63.5 62.6998 57.1C67.1998 55.9 70.3998 51.8 70.3998 47C70.3998 41.6 66.2998 37.1 60.8998 36.6ZM60.5998 53.5C59.4998 53.6 58.6998 54.5 58.7998 55.6V56.2C58.7998 60.9 54.9998 64.7 50.2998 64.7C45.5998 64.7 41.7998 60.9 41.7998 56.2V55.6C41.7998 55.1 41.6998 54.5 41.2998 54.1C40.8998 53.7 40.3998 53.5 39.8998 53.4C36.3998 53.2 33.6998 50.4 33.6998 46.9C33.6998 43.5 36.3998 40.7 39.6998 40.4L49.2998 44.2C49.7998 44.4 50.2998 44.4 50.6998 44.2L60.4998 40.4C63.7998 40.8 66.2998 43.6 66.2998 46.9C66.3998 50.4 63.8998 53.2 60.5998 53.5Z" fill="#BA28FF"/>
</g>
<defs>
<filter id="filter0_d" x="21.2998" y="22.85" width="57.7" height="62.3" filterUnits="userSpaceOnUse" color-interpolation-filters="sRGB">
<feFlood flood-opacity="0" result="BackgroundImageFix"/>
<feColorMatrix in="SourceAlpha" type="matrix" values="0 0 0 0 0 0 0 0 0 0 0 0 0 0 0 0 0 0 127 0"/>
<feOffset dy="4"/>
<feGaussianBlur stdDeviation="2"/>
<feColorMatrix type="matrix" values="0 0 0 0 0 0 0 0 0 0 0 0 0 0 0 0 0 0 0.25 0"/>
<feBlend mode="normal" in2="BackgroundImageFix" result="effect1_dropShadow"/>
<feBlend mode="normal" in="SourceGraphic" in2="effect1_dropShadow" result="shape"/>
</filter>
<clipPath id="clip0">
<rect width="64" height="64" fill="white" transform="translate(18 18)"/>
</clipPath>
</defs>
</svg>
