<?xml version="1.0" standalone="no"?>
<!DOCTYPE svg PUBLIC "-//W3C//DTD SVG 20010904//EN"
 "http://www.w3.org/TR/2001/REC-SVG-20010904/DTD/svg10.dtd">
<svg version="1.0" xmlns="http://www.w3.org/2000/svg"
 width="256.000000pt" height="275.000000pt" viewBox="0 0 256.000000 275.000000"
 preserveAspectRatio="xMidYMid meet">
<metadata>
Created by potrace 1.10, written by Peter Selinger 2001-2011
</metadata>
<g transform="translate(0.000000,275.000000) scale(0.100000,-0.100000)"
fill="#000000" stroke="none">
<path d="M1525 2494 c39 -15 136 -41 129 -34 -10 9 -112 40 -128 39 -7 0 -7
-2 -1 -5z"/>
<path d="M1356 2471 c-18 -7 -18 -8 -2 -14 10 -4 27 -7 39 -6 20 1 20 2 -3 10
-17 5 -8 7 30 3 30 -2 71 0 90 5 29 7 20 9 -50 9 -47 0 -94 -3 -104 -7z"/>
<path d="M1265 2460 c-8 -13 5 -13 25 0 13 8 13 10 -2 10 -9 0 -20 -4 -23 -10z"/>
<path d="M1530 2460 l-25 -8 25 -1 c14 0 32 4 40 9 13 9 13 10 0 9 -8 -1 -26
-5 -40 -9z"/>
<path d="M1320 2450 c8 -5 20 -10 25 -10 6 0 3 5 -5 10 -8 5 -19 10 -25 10 -5
0 -3 -5 5 -10z"/>
<path d="M1580 2450 c-8 -5 -10 -10 -5 -10 6 0 17 5 25 10 8 5 11 10 5 10 -5
0 -17 -5 -25 -10z"/>
<path d="M1195 2421 c-28 -16 -74 -50 -102 -76 -41 -36 -58 -45 -75 -40 -18 5
-20 4 -8 -4 11 -8 4 -10 -30 -7 -33 3 -37 2 -15 -3 l30 -8 -30 -5 c-17 -3 -12
-4 13 -2 32 3 42 0 42 -11 0 -8 5 -15 11 -15 5 0 7 -4 4 -10 -7 -12 62 -209
81 -231 16 -18 19 -33 5 -24 -6 3 -31 0 -56 -6 -34 -9 -43 -14 -33 -21 10 -8
10 -9 -1 -6 -10 3 -15 19 -16 46 -1 53 -10 61 -61 50 -36 -8 -42 -13 -53 -47
-15 -52 -13 -64 4 -21 l14 35 -2 -30 c-2 -31 -27 -53 -62 -56 -17 -1 -16 -2 5
-9 l25 -8 -27 -1 c-28 -1 -37 15 -19 35 16 18 40 104 29 104 -6 0 -5 7 4 18
14 15 58 145 58 169 0 5 -7 18 -15 29 -15 18 -15 18 -8 0 5 -14 3 -17 -7 -11
-9 5 -11 4 -6 -4 13 -20 -34 -153 -62 -176 -13 -11 -43 -38 -66 -59 -22 -22
-32 -32 -20 -23 31 25 41 20 14 -8 -12 -13 -26 -22 -31 -20 -14 9 -50 -47 -43
-68 4 -12 2 -17 -4 -13 -6 3 -14 1 -18 -5 -4 -7 -3 -9 3 -6 6 4 11 -4 11 -18
0 -14 -4 -22 -9 -19 -5 3 -6 -2 -2 -11 5 -13 7 -14 14 -3 7 10 9 10 9 -2 0 -8
9 0 20 18 11 18 20 36 20 40 0 4 -5 -1 -11 -11 -10 -17 -29 -15 -29 4 0 6 4 7
10 4 6 -4 7 1 3 11 -4 12 -3 15 5 10 7 -4 10 -2 6 7 -3 8 2 14 11 14 10 0 14
-6 10 -16 -3 -9 11 3 31 27 40 45 62 56 43 21 -9 -17 -8 -20 2 -14 9 6 11 3 6
-8 -8 -21 23 -31 66 -21 28 6 30 8 12 16 -17 7 -17 8 5 5 21 -3 26 1 27 17 1
56 4 64 25 70 31 8 42 -7 27 -35 l-12 -24 23 20 23 20 -12 -22 c-9 -18 -8 -23
9 -28 11 -4 34 -4 50 0 16 4 32 6 35 5 4 -1 21 10 40 24 18 14 40 26 47 26 10
0 9 -3 -2 -11 -11 -8 -9 -9 10 -3 14 4 40 10 58 15 44 10 48 15 33 42 -7 13
-11 39 -8 58 4 32 4 31 5 -8 1 -24 6 -43 11 -43 4 0 6 18 4 40 -3 32 0 42 14
47 10 3 34 19 54 35 l37 28 5 -23 c3 -12 4 -43 3 -68 l-2 -45 50 3 c89 5 120
10 147 23 26 12 50 48 48 73 0 7 -7 -1 -14 -18 -16 -34 -20 -19 -5 19 8 21 7
24 -7 19 -11 -5 -14 -3 -8 6 6 10 3 11 -14 2 -11 -7 -21 -8 -21 -4 0 4 -4 3
-8 -4 -5 -8 -13 -9 -22 -3 -12 8 -12 10 4 10 14 0 16 3 7 13 -6 8 -7 18 -3 22
4 5 -1 5 -11 2 -10 -4 -23 -7 -28 -7 -5 0 -9 -18 -9 -40 0 -36 3 -40 24 -40
39 0 78 18 70 32 -5 9 -4 10 4 3 6 -6 9 -20 6 -32 -5 -17 -18 -24 -63 -33 -31
-6 -72 -16 -91 -21 -23 -6 -38 -5 -45 3 -7 8 -7 9 1 5 19 -11 21 11 15 130
l-6 111 45 7 c25 3 60 9 78 12 27 4 32 2 32 -15 0 -11 -6 -20 -12 -19 -51 2
-58 -3 -58 -38 0 -33 1 -34 31 -28 30 6 32 5 27 -20 -3 -16 0 -28 8 -31 17 -7
24 3 23 33 -1 25 -2 25 -10 -4 -8 -29 -8 -29 -6 7 3 35 1 37 -23 32 l-25 -4
25 10 c24 11 24 12 6 26 -22 16 -14 19 12 5 15 -8 17 -4 17 28 0 35 -2 37 -30
34 -29 -2 -29 -2 -5 7 22 9 21 9 -9 5 -18 -3 -43 -6 -55 -6 -13 -1 -8 -5 14
-10 27 -6 19 -7 -30 -4 -49 2 -57 1 -35 -5 29 -9 29 -9 -7 -7 -20 2 -35 0 -32
-4 2 -4 1 -14 -2 -22 -5 -13 -10 -12 -40 5 -31 18 -42 20 -104 11 -40 -5 -71
-5 -73 0 -1 4 -14 -1 -29 -12 -30 -24 -46 -28 -29 -8 6 8 7 18 3 22 -4 5 1 5
10 2 10 -3 20 -2 24 4 3 6 13 8 21 5 8 -3 27 3 42 13 14 10 42 26 61 35 27 12
29 14 9 10 -16 -3 -30 -1 -35 7 -5 9 -2 10 10 6 11 -4 15 -3 10 4 -4 8 1 9 17
5 20 -6 21 -5 7 4 -13 8 -24 8 -37 0 -25 -13 -34 -13 -26 0 9 14 6 13 -50 -19z
m57 -5 c16 -11 14 -15 -21 -34 -21 -12 -41 -19 -44 -16 -3 3 -12 2 -19 -2 -7
-5 -20 -9 -28 -9 -8 0 -16 -6 -16 -12 -1 -7 -3 -15 -4 -18 -1 -3 -3 -9 -4 -14
0 -4 -18 -27 -39 -50 -21 -23 -37 -36 -35 -29 1 7 -3 23 -10 36 -7 12 -9 21
-5 20 5 -2 33 18 63 43 55 46 130 99 140 99 3 0 13 -7 22 -14z m115 -102 c15
-14 22 -23 15 -19 -12 6 -11 -16 4 -63 2 -8 -1 -10 -7 -6 -7 4 -10 1 -7 -7 7
-20 -21 -49 -40 -42 -10 4 -13 2 -8 -5 5 -8 1 -10 -10 -5 -12 5 -15 3 -9 -6 6
-10 3 -11 -14 -2 -23 13 -28 22 -9 19 6 -2 16 12 21 30 8 26 7 36 -8 52 -10
11 -22 20 -27 20 -14 0 -8 -243 6 -253 7 -6 4 -7 -7 -3 -9 3 -32 3 -49 -1 -27
-5 -29 -7 -13 -14 13 -5 15 -8 5 -8 -8 0 -21 3 -29 8 -10 7 -19 4 -29 -7 -7
-9 -11 -11 -7 -4 4 7 2 18 -3 25 -6 7 -18 35 -28 62 -32 97 -34 101 -44 85 -6
-9 -10 -10 -10 -3 0 6 5 15 10 18 6 4 7 11 4 17 -4 6 -10 5 -15 -3 -6 -10 -9
-11 -9 -1 0 19 97 115 109 107 6 -3 11 -11 11 -16 0 -6 -3 -8 -7 -6 -5 3 -8
-47 -8 -111 1 -65 -3 -123 -8 -129 -5 -7 -8 -13 -6 -14 49 -10 52 -1 47 155
-3 131 -10 120 83 131 37 5 65 3 80 -5 20 -10 22 -10 12 1 -7 7 -32 16 -55 20
l-43 6 37 2 c27 1 44 -6 65 -25z m-108 12 c-2 -2 -24 -6 -49 -9 -30 -4 -38 -3
-25 3 19 8 83 14 74 6z m273 -41 c-2 -14 -6 -25 -8 -25 -2 0 -4 11 -4 25 0 14
4 25 9 25 4 0 6 -11 3 -25z m-115 -7 c-3 -8 -6 -5 -6 6 -1 11 2 17 5 13 3 -3
4 -12 1 -19z m-240 -65 c-2 -16 -4 -5 -4 22 0 28 2 40 4 28 2 -13 2 -35 0 -50z
m220 35 c-3 -7 -5 -2 -5 12 0 14 2 19 5 13 2 -7 2 -19 0 -25z m-480 -20 c-3
-8 -6 -5 -6 6 -1 11 2 17 5 13 3 -3 4 -12 1 -19z m-13 -52 c-3 -15 -8 -25 -11
-23 -2 3 -1 17 3 31 3 15 8 25 11 23 2 -3 1 -17 -3 -31z m623 2 c-3 -7 -5 -2
-5 12 0 14 2 19 5 13 2 -7 2 -19 0 -25z m36 -25 c-7 -2 -21 -2 -30 0 -10 3 -4
5 12 5 17 0 24 -2 18 -5z m-695 -80 c-7 -9 -12 -24 -10 -35 2 -10 0 -18 -5
-18 -4 0 -8 -14 -9 -31 -1 -16 -7 -36 -13 -42 -10 -9 -10 -6 -2 16 19 51 12
52 -34 7 -25 -25 -55 -45 -66 -45 -11 0 -24 -7 -29 -15 -5 -8 -10 -10 -10 -4
0 14 39 63 40 50 0 -6 13 3 30 19 16 15 27 32 24 36 -3 5 15 23 41 41 25 17
45 39 46 47 0 11 2 12 6 3 3 -7 -1 -20 -9 -29z m705 20 c-7 -2 -21 -2 -30 0
-10 3 -4 5 12 5 17 0 24 -2 18 -5z m-60 -10 c-7 -2 -19 -2 -25 0 -7 3 -2 5 12
5 14 0 19 -2 13 -5z m-46 -9 c-3 -3 -12 -4 -19 -1 -8 3 -5 6 6 6 11 1 17 -2
13 -5z m-490 -40 c-3 -3 -12 -4 -19 -1 -8 3 -5 6 6 6 11 1 17 -2 13 -5z m147
-10 c3 -8 2 -12 -4 -9 -6 3 -10 10 -10 16 0 14 7 11 14 -7z m-7 -50 c-3 -3
-12 -4 -19 -1 -8 3 -5 6 6 6 11 1 17 -2 13 -5z m-419 -139 c-3 -3 -9 2 -12 12
-6 14 -5 15 5 6 7 -7 10 -15 7 -18z"/>
<path d="M1215 2411 c-3 -5 0 -13 6 -17 8 -5 9 -3 4 6 -6 10 -4 12 9 7 10 -4
15 -3 11 3 -8 13 -22 13 -30 1z"/>
<path d="M1186 2391 c-4 -5 -2 -12 3 -15 5 -4 12 -2 15 3 4 5 2 12 -3 15 -5 4
-12 2 -15 -3z"/>
<path d="M1076 2301 c-21 -21 -34 -41 -28 -44 5 -4 22 7 37 23 16 17 25 30 21
30 -5 0 -3 7 4 15 24 29 4 15 -34 -24z m24 6 c0 -2 -12 -14 -27 -28 l-28 -24
24 28 c23 25 31 32 31 24z"/>
<path d="M1349 2193 c-13 -16 -12 -17 4 -4 9 7 17 15 17 17 0 8 -8 3 -21 -13z"/>
<path d="M821 2037 c-6 -8 -7 -18 -3 -22 4 -5 -2 -5 -13 -1 -11 4 -16 4 -12 0
4 -4 -7 -23 -25 -43 -24 -25 -17 -21 24 14 32 26 55 52 52 57 -7 11 -10 10
-23 -5z"/>
<path d="M1430 2443 c0 -4 30 -9 67 -11 37 -2 65 -1 63 1 -10 9 -130 18 -130
10z"/>
<path d="M1596 2436 l-29 -13 50 -17 c27 -9 70 -31 94 -48 26 -19 37 -24 26
-12 -17 20 -14 34 6 34 6 0 7 -3 3 -7 -8 -9 55 -74 66 -67 10 6 11 -10 1 -19
-3 -4 -15 1 -26 10 -17 15 -16 12 3 -14 26 -35 32 -41 24 -20 -3 8 2 14 11 14
8 0 14 -5 13 -11 -4 -19 24 -76 34 -70 6 4 8 -3 4 -17 -6 -19 -5 -21 4 -7 12
19 3 51 -13 41 -6 -4 -8 0 -4 11 4 9 3 15 -2 12 -5 -3 -8 5 -8 19 0 16 4 22
11 18 6 -4 3 4 -6 17 -9 14 -21 24 -26 23 -5 -1 -24 14 -42 32 -40 42 -29 47
14 8 l31 -28 -30 33 c-35 38 -123 97 -132 88 -4 -3 -2 -6 3 -6 6 0 19 -6 29
-14 18 -13 17 -13 -8 -13 -15 0 -24 3 -21 8 3 5 -3 6 -12 2 -12 -4 -15 -3 -10
5 5 8 2 10 -9 5 -13 -5 -14 -7 -3 -14 16 -11 -2 -12 -27 -2 -15 5 -14 8 6 19
30 17 13 16 -25 0z m156 -45 c11 -11 11 -13 0 -7 -7 4 -19 3 -26 -4 -11 -8
-21 -6 -45 8 l-30 18 44 -1 c25 0 50 -7 57 -14z m34 -53 l29 -33 -32 29 c-18
17 -33 31 -33 33 0 8 8 1 36 -29z m64 -47 c0 -4 -6 -8 -14 -8 -8 0 -12 6 -9
14 5 13 23 9 23 -6z"/>
<path d="M1345 2430 c-25 -11 1 -11 35 0 20 6 21 8 5 8 -11 0 -29 -3 -40 -8z"/>
<path d="M1602 2340 c0 -14 2 -19 5 -12 2 6 2 18 0 25 -3 6 -5 1 -5 -13z"/>
<path d="M1830 2211 c0 -6 4 -13 10 -16 6 -3 7 1 4 9 -7 18 -14 21 -14 7z"/>
<path d="M948 2173 c-2 -27 -4 -36 -15 -63 -6 -14 -10 -26 -9 -27 1 -1 15 1
32 6 23 6 28 13 26 32 -1 13 -7 25 -12 27 -5 2 -7 9 -4 17 3 7 1 16 -5 20 -6
3 -12 -2 -13 -12z m8 -61 c-17 -16 -18 -16 -5 5 7 12 15 20 18 17 3 -2 -3 -12
-13 -22z"/>
<path d="M1911 2164 c0 -11 3 -14 6 -6 3 7 2 16 -1 19 -3 4 -6 -2 -5 -13z"/>
<path d="M1886 2155 c-9 -26 -7 -32 5 -12 6 10 9 21 6 23 -2 3 -7 -2 -11 -11z"/>
<path d="M1897 2126 c-4 -10 -7 -25 -6 -34 0 -11 4 -9 10 7 5 13 8 29 6 35 -2
5 -6 2 -10 -8z"/>
<path d="M1905 2070 c-4 -17 -5 -34 -2 -36 2 -3 7 10 11 27 3 18 4 34 2 36 -2
3 -7 -10 -11 -27z"/>
<path d="M1881 2044 c0 -11 3 -14 6 -6 3 7 2 16 -1 19 -3 4 -6 -2 -5 -13z"/>
<path d="M1917 2031 c-4 -18 -7 -45 -6 -60 1 -17 4 -11 10 19 5 25 8 52 6 60
-2 8 -6 0 -10 -19z"/>
<path d="M1951 1994 c0 -11 3 -14 6 -6 3 7 2 16 -1 19 -3 4 -6 -2 -5 -13z"/>
<path d="M1630 1985 c-48 -9 -58 -13 -40 -17 14 -3 4 -4 -23 -1 -53 4 -89 -10
-81 -32 4 -8 1 -28 -4 -44 -8 -22 -8 -29 1 -25 7 2 13 16 14 30 0 14 5 30 10
34 10 11 191 36 199 28 3 -4 3 -15 0 -25 -5 -15 -13 -18 -36 -15 l-30 4 0
-111 c0 -86 4 -117 16 -136 15 -23 15 -25 0 -25 -11 0 -14 5 -10 12 5 8 2 9
-10 5 -10 -4 -30 -8 -44 -8 -23 -1 -22 -3 8 -9 l35 -7 -36 -2 c-42 -1 -52 6
-40 28 5 9 7 66 4 128 l-6 111 -26 -9 c-15 -6 -27 -18 -28 -29 -1 -13 3 -17
13 -13 14 5 15 1 18 -169 1 -51 25 -67 83 -57 24 5 47 11 51 13 4 2 6 56 6
120 -1 94 1 116 13 116 8 0 11 5 8 10 -3 6 -13 10 -20 10 -11 0 -15 -23 -18
-107 l-3 -108 -2 113 c-2 120 1 127 49 102 16 -9 21 -7 29 15 13 33 12 57 -1
30 -8 -17 -9 -16 -5 8 5 38 -16 46 -94 32z m73 -12 c-13 -2 -35 -2 -50 0 -16
2 -5 4 22 4 28 0 40 -2 28 -4z m-150 -20 c-7 -2 -19 -2 -25 0 -7 3 -2 5 12 5
14 0 19 -2 13 -5z m164 -45 c-3 -8 -6 -5 -6 6 -1 11 2 17 5 13 3 -3 4 -12 1
-19z m-168 -50 c-2 -28 -2 -29 -6 -8 -3 14 -10 28 -17 32 -7 5 -5 8 7 8 13 0
17 -8 16 -32z"/>
<path d="M1892 1975 c0 -16 2 -22 5 -12 2 9 2 23 0 30 -3 6 -5 -1 -5 -18z"/>
<path d="M1926 1944 c-3 -26 -6 -150 -6 -275 0 -126 -3 -229 -7 -229 -5 0 -8
48 -7 107 0 102 0 103 -3 16 l-4 -92 -27 2 c-23 2 -27 -2 -25 -21 2 -13 -1
-21 -6 -18 -4 3 -6 -16 -4 -42 7 -104 8 -252 1 -252 -5 0 -8 -4 -8 -9 0 -13
39 -9 42 4 2 5 1 78 -2 160 -3 83 -5 151 -5 152 1 4 74 -23 81 -29 3 -4 6 -70
7 -149 l2 -142 50 -26 c28 -14 52 -27 53 -28 2 -1 1 -11 -3 -22 -6 -21 -7 -21
-55 4 -74 38 -150 64 -150 53 0 -7 -4 -7 -12 0 -7 6 -31 13 -53 17 -22 3 -51
8 -63 11 -15 3 -21 1 -17 -6 3 -5 -1 -10 -9 -10 -13 0 -14 4 -5 24 8 16 8 37
2 63 -8 36 -11 38 -48 39 -22 0 -45 -1 -52 -3 -16 -6 -28 -82 -14 -96 17 -17
13 -27 -11 -27 -19 0 -20 2 -8 10 11 7 4 9 -25 7 -22 -1 -44 -6 -48 -12 -5 -6
-7 -5 -5 3 2 8 8 13 13 13 6 0 14 7 18 15 16 28 88 288 83 300 -7 19 84 24 94
4 4 -8 29 -80 55 -160 26 -80 54 -152 63 -160 11 -11 13 -12 7 -1 -6 10 -4 12
5 6 8 -5 11 -3 8 6 -3 8 -11 13 -18 11 -10 -2 -11 0 -2 10 7 9 8 19 2 28 -6 8
-10 26 -10 39 0 18 -4 22 -17 16 -14 -5 -15 -4 -6 6 9 9 9 19 -2 46 -8 18 -11
33 -8 33 3 0 1 6 -5 13 -6 6 -11 17 -12 22 -4 15 -11 37 -22 68 -8 21 -13 25
-20 15 -7 -9 -8 -7 -5 9 3 15 1 20 -9 16 -8 -3 -16 1 -19 9 -4 9 -19 12 -53 8
l-47 -4 45 -7 45 -7 -52 1 c-46 2 -50 0 -37 -14 8 -8 14 -22 14 -29 0 -9 -5
-7 -16 6 -8 10 -13 14 -10 8 6 -12 -71 -284 -84 -297 -11 -12 -20 88 -17 196
1 49 -1 94 -5 100 -6 9 -8 9 -8 0 0 -7 -9 -9 -22 -5 -21 5 -21 6 -2 13 29 12
4 10 -40 -2 -30 -8 -36 -13 -25 -20 10 -7 8 -9 -10 -7 -20 3 -24 -2 -27 -27
-2 -22 -1 -26 6 -15 7 10 10 -16 10 -77 0 -56 -4 -93 -10 -93 -5 0 -10 -8 -10
-17 0 -16 2 -16 11 -3 12 17 10 5 -10 -58 -7 -23 -7 -30 1 -26 7 5 9 2 5 -9
-8 -22 13 -27 75 -19 52 6 52 6 18 13 -34 7 -34 7 10 8 25 0 59 3 75 6 25 4
27 4 10 -5 -15 -7 -9 -8 25 -4 55 8 63 12 56 30 -3 8 -1 14 5 14 6 0 7 5 4 10
-10 17 4 48 25 53 23 6 45 -25 36 -49 -3 -8 -1 -14 5 -14 5 0 9 -7 7 -17 -2
-10 7 -19 25 -24 15 -4 27 -3 27 2 0 5 15 8 33 8 l32 -1 -30 -7 -30 -7 37 -5
c20 -3 34 -1 32 3 -9 14 14 8 30 -8 14 -14 14 -18 1 -44 -8 -16 -25 -34 -36
-41 -15 -8 -20 -18 -16 -35 2 -14 1 -27 -3 -29 -10 -6 -18 73 -8 83 4 4 -1 8
-11 8 -16 0 -17 -4 -9 -29 6 -15 8 -41 4 -57 -7 -39 10 -47 40 -19 13 12 24
18 24 11 0 -17 -52 -54 -62 -44 -5 5 -16 27 -23 48 -8 22 -14 31 -15 22 0 -15
-11 -17 -76 -17 -42 0 -78 -2 -82 -5 -4 -5 136 -11 161 -7 4 0 7 -2 7 -7 0 -4
-40 -7 -90 -7 -50 0 -90 4 -90 9 0 6 -7 1 -16 -10 -15 -19 -16 -19 -10 1 5 17
3 16 -14 -5 -20 -24 -20 -34 -15 -185 4 -87 9 -163 12 -168 3 -4 -12 -5 -34
-2 -61 10 -65 13 -58 36 l7 21 -29 -21 c-16 -12 -39 -23 -51 -24 -21 -1 -32
-17 -13 -17 5 0 17 -3 27 -7 12 -4 15 -3 10 5 -5 8 -1 10 10 5 13 -5 15 -3 9
7 -5 8 -3 11 6 8 8 -3 13 -10 12 -17 -4 -15 41 -24 85 -17 28 5 34 4 22 -4
-13 -10 -13 -11 0 -7 8 2 14 12 14 21 -1 10 1 15 4 12 3 -3 12 0 20 7 13 10
14 9 7 -2 -5 -10 -4 -12 4 -7 8 5 11 57 9 182 l-3 174 67 0 c37 0 78 -4 92
-10 34 -13 60 -64 53 -107 -4 -23 -2 -31 5 -27 7 4 8 2 4 -5 -4 -6 -11 -9 -15
-7 -4 3 -13 1 -21 -4 -13 -8 -12 -12 5 -24 11 -8 22 -13 25 -11 3 2 7 -4 8
-13 1 -9 4 -35 8 -57 7 -49 -7 -89 -39 -109 -21 -14 -35 -14 -120 -2 -53 7
-97 10 -97 6 0 -16 27 -30 57 -30 17 0 44 -5 58 -12 21 -9 31 -9 46 0 10 7 22
12 26 12 5 0 1 -5 -7 -10 -12 -8 -11 -10 6 -10 27 0 70 34 89 70 22 43 18 139
-6 124 -5 -3 -6 2 -3 11 4 8 1 22 -6 30 -9 11 -9 22 1 50 11 28 11 42 0 71
-12 34 -12 37 17 67 31 33 82 111 82 124 0 5 -5 0 -11 -10 -10 -17 -29 -15
-29 4 0 6 4 7 10 4 6 -4 7 1 3 11 -4 12 -3 15 5 10 8 -5 10 -2 6 8 -4 11 0 14
16 11 13 -2 25 -7 29 -11 3 -4 -2 -4 -11 -1 -10 4 -18 2 -18 -3 0 -4 17 -14
38 -21 20 -6 54 -20 76 -31 22 -11 35 -14 30 -7 -5 9 -2 10 10 6 12 -5 19 1
26 19 12 32 12 56 -1 29 -7 -17 -8 -16 -6 9 2 26 -3 31 -39 44 l-41 15 -7 75
c-3 41 -7 93 -8 116 -1 23 -5 -6 -8 -64 l-6 -105 -1 125 c-1 69 2 116 6 106 7
-19 8 -19 13 2 4 12 3 20 -1 17 -4 -2 -9 46 -10 108 -1 61 -4 114 -7 117 -3 2
-4 -44 -2 -103 2 -59 0 -107 -4 -107 -5 0 -9 69 -10 153 l-2 152 -7 -140 c-4
-104 -6 -69 -5 133 1 149 1 272 0 272 -1 0 -4 -21 -8 -46z m-36 -484 c18 -12
2 -12 -25 0 -13 6 -15 9 -5 9 8 0 22 -4 30 -9z m-475 -16 c18 -5 20 -12 17
-92 -2 -48 1 -120 6 -159 l8 -73 -25 0 c-14 0 -37 -3 -50 -7 -23 -6 -23 -7 -5
-14 18 -7 18 -8 -2 -8 -14 -1 -24 7 -27 19 -3 11 -1 18 4 14 12 -7 12 -3 9
151 -1 80 -6 136 -14 144 -8 11 -8 13 0 8 7 -4 27 -4 45 0 28 5 30 7 14 14
-23 9 -9 11 20 3z m323 -69 c0 -5 -6 4 -13 20 -8 17 -14 37 -14 45 0 8 7 -1
14 -20 7 -19 13 -39 13 -45z m-288 -5 l-7 -65 -1 52 c-2 43 6 91 12 81 1 -2
-1 -32 -4 -68z m407 -77 c-2 -27 -3 -5 -3 47 0 52 1 74 3 48 2 -27 2 -69 0
-95z m-283 93 c-3 -15 -8 -25 -11 -23 -2 3 -1 17 3 31 3 15 8 25 11 23 2 -3 1
-17 -3 -31z m-106 -261 c-3 -3 -9 2 -12 12 -6 14 -5 15 5 6 7 -7 10 -15 7 -18z
m581 -26 c17 -5 20 -8 8 -8 -18 -1 -77 25 -77 35 0 2 10 -1 22 -7 12 -6 33
-15 47 -20z m-184 -30 c-13 -23 -14 -34 -5 -44 9 -11 7 -21 -10 -45 -12 -17
-25 -28 -29 -25 -5 2 -16 -4 -26 -15 -10 -11 -23 -20 -29 -20 -6 0 0 7 12 16
12 8 20 19 17 24 -3 4 11 32 30 61 20 29 34 58 31 66 -3 7 1 13 10 13 13 0 13
-4 -1 -31z m105 -9 c8 -5 11 -10 5 -10 -5 0 -17 5 -25 10 -8 5 -10 10 -5 10 6
0 17 -5 25 -10z m65 -38 c-3 -3 -11 0 -18 7 -9 10 -8 11 6 5 10 -3 15 -9 12
-12z m-477 -167 l-1 -40 -7 45 c-4 25 -8 36 -10 25 -1 -11 -1 -24 0 -30 7 -32
7 -144 -1 -139 -12 7 -11 -10 1 -22 8 -8 5 -18 -8 -34 -14 -18 -19 -19 -19 -7
0 9 4 14 9 11 4 -3 8 -1 8 5 0 5 -4 12 -9 15 -5 4 -2 24 7 47 13 35 14 42 1
50 -11 7 -11 9 0 9 11 0 11 3 1 14 -12 15 -10 67 5 99 12 28 25 1 23 -48z
m-47 13 c-4 -35 -6 -38 -9 -15 -3 26 3 57 10 57 2 0 1 -19 -1 -42z m279 -13
c0 -5 -5 -3 -10 5 -5 8 -10 20 -10 25 0 6 5 3 10 -5 5 -8 10 -19 10 -25z m7
-52 c-3 -10 -5 -4 -5 12 0 17 2 24 5 18 2 -7 2 -21 0 -30z m20 -180 c-3 -10
-5 -2 -5 17 0 19 2 27 5 18 2 -10 2 -26 0 -35z m-280 -25 c-3 -8 -6 -5 -6 6
-1 11 2 17 5 13 3 -3 4 -12 1 -19z m243 -53 c-13 -14 -27 -25 -32 -25 -9 0 42
49 51 50 3 0 -6 -11 -19 -25z m-317 8 c-7 -2 -19 -2 -25 0 -7 3 -2 5 12 5 14
0 19 -2 13 -5z m150 -20 c-7 -2 -21 -2 -30 0 -10 3 -4 5 12 5 17 0 24 -2 18
-5z m70 -10 c-7 -2 -19 -2 -25 0 -7 3 -2 5 12 5 14 0 19 -2 13 -5z"/>
<path d="M1846 1017 c4 -11 2 -17 -6 -15 -6 2 -18 -7 -27 -19 -13 -19 -13 -21
2 -19 25 4 50 45 36 59 -9 9 -11 8 -5 -6z m-13 -32 c-3 -9 -8 -14 -10 -11 -3
3 -2 9 2 15 9 16 15 13 8 -4z"/>
<path d="M1365 1925 c-26 -11 -27 -13 -10 -19 12 -3 8 -4 -8 -2 -24 3 -28 0
-24 -15 3 -11 2 -19 -1 -19 -9 0 -6 -279 2 -287 3 -4 6 -1 6 5 0 6 7 9 16 5
13 -5 13 -8 2 -15 -9 -6 -6 -7 9 -3 12 3 30 8 42 10 11 2 29 9 40 15 18 9 19
14 10 31 -6 13 -9 72 -7 160 4 160 -1 168 -77 134z m66 -150 c0 -105 4 -152
12 -158 7 -4 1 -5 -13 -2 -14 3 -37 1 -50 -5 -23 -9 -22 -10 10 -5 31 4 32 4
11 -5 -13 -6 -33 -7 -45 -3 -12 4 -23 6 -26 6 -3 -1 -3 60 0 135 l5 137 5
-135 6 -135 2 132 c1 91 -2 134 -10 139 -6 4 12 15 43 25 41 14 46 17 19 14
-27 -4 -31 -3 -15 4 44 21 46 14 46 -144z"/>
<path d="M1462 1918 c-13 -13 -17 -278 -4 -278 4 0 5 46 4 102 -3 60 1 118 8
141 12 43 10 53 -8 35z"/>
<path d="M1964 1805 c0 -55 1 -76 3 -47 2 29 2 74 0 100 -2 26 -3 2 -3 -53z"/>
<path d="M1206 1874 c-49 -18 -61 -29 -21 -20 22 5 26 4 15 -4 -8 -5 -21 -10
-28 -10 -7 0 -20 -7 -28 -15 -11 -10 -21 -12 -38 -5 -16 6 -39 4 -67 -5 -25
-8 -35 -14 -24 -15 20 -1 20 -1 0 -9 -11 -5 -22 -7 -25 -5 -6 3 -6 3 -11 -107
l-3 -76 -39 28 c-22 16 -46 29 -54 29 -7 0 -13 5 -13 11 0 7 10 9 28 5 21 -5
24 -4 12 4 -12 9 -10 10 10 8 22 -3 25 1 27 32 l1 35 -8 -35 -7 -35 -2 39 -1
39 -57 -6 c-43 -5 -52 -4 -34 4 38 15 19 20 -23 5 -20 -7 -49 -24 -62 -38 -28
-27 -58 -101 -43 -106 5 -2 9 -9 9 -16 0 -17 38 -50 78 -67 48 -21 39 -30 -25
-26 l-58 3 -2 -30 c-4 -47 18 -64 80 -60 49 3 50 2 12 -5 -33 -7 -35 -8 -12
-10 46 -2 119 20 113 34 -3 8 2 11 14 8 12 -3 20 2 24 15 10 29 32 46 42 31 4
-7 3 -9 -2 -6 -5 3 -10 -3 -10 -13 0 -11 5 -16 15 -12 9 3 12 1 7 -6 -4 -7 12
-6 46 4 58 18 81 32 72 45 -3 5 -2 9 3 9 4 0 6 22 5 50 -3 34 0 50 8 50 8 0
11 -13 8 -39 -2 -30 0 -38 12 -36 11 1 16 18 18 65 3 55 1 62 -13 56 -9 -3
-28 -9 -42 -12 -24 -6 -24 -9 -21 -74 l3 -68 -39 -12 c-21 -6 -45 -14 -55 -18
-14 -5 -14 -3 -3 11 10 12 13 49 10 150 l-3 134 45 14 46 14 -4 -62 -4 -62 42
16 42 17 -4 57 -3 57 38 13 c21 7 33 15 26 19 -6 4 -2 10 12 13 13 4 25 4 28
2 2 -3 0 -5 -6 -5 -14 0 -18 -267 -4 -284 8 -9 -2 -17 -39 -30 -28 -10 -47
-22 -44 -28 4 -6 -2 -8 -17 -4 -21 6 -21 5 -6 -4 13 -9 27 -8 55 1 20 7 40 13
44 14 25 1 31 32 32 168 0 80 -2 143 -6 140 -5 -2 -7 6 -5 19 3 28 -16 31 -67
12z m61 -146 c-2 -24 -4 -7 -4 37 0 44 2 63 4 43 2 -21 2 -57 0 -80z m-187 82
c-8 -5 -22 -9 -30 -9 -10 0 -8 3 5 9 27 12 43 12 25 0z m77 -52 c-2 -13 -4 -3
-4 22 0 25 2 35 4 23 2 -13 2 -33 0 -45z m-47 2 c-6 -37 -8 -40 -9 -13 -1 29
8 68 14 61 1 -2 -1 -23 -5 -48z m27 -12 c-3 -20 -4 -21 -11 -5 -5 9 -5 29 0
45 7 25 8 26 11 5 3 -13 3 -33 0 -45z m-140 -110 c-2 -24 -4 -5 -4 42 0 47 2
66 4 43 2 -24 2 -62 0 -85z m-77 87 c0 -19 -7 -26 -27 -30 -16 -4 -36 -10 -45
-16 -12 -6 -18 -6 -18 1 0 5 12 12 28 16 43 9 49 12 24 13 -60 2 -86 -51 -35
-70 15 -6 35 -8 45 -6 11 3 15 1 11 -6 -4 -6 0 -8 9 -4 10 3 24 -3 35 -15 10
-12 13 -19 8 -16 -7 4 -10 -13 -10 -48 1 -37 -4 -59 -14 -68 -16 -14 -20 -16
-42 -16 -5 0 -8 -4 -5 -9 4 -5 -4 -7 -16 -4 -14 3 -18 1 -11 -4 14 -10 -109
-9 -125 1 -19 12 -14 44 9 57 12 6 19 7 15 1 -13 -21 60 -30 95 -12 31 17 24
49 -16 66 -20 8 -41 14 -48 13 -28 -3 -38 3 -54 35 -20 42 -11 80 26 115 24
22 38 26 94 28 65 2 67 1 67 -22z m-33 -81 c-3 -3 -12 -4 -19 -1 -8 3 -5 6 6
6 11 1 17 -2 13 -5z m380 -26 c-3 -7 -5 -2 -5 12 0 14 2 19 5 13 2 -7 2 -19 0
-25z m-300 -70 c-3 -8 -6 -5 -6 6 -1 11 2 17 5 13 3 -3 4 -12 1 -19z m30 -30
c-2 -13 -4 -5 -4 17 -1 22 1 32 4 23 2 -10 2 -28 0 -40z m-177 32 c8 -5 11
-10 5 -10 -5 0 -17 5 -25 10 -8 5 -10 10 -5 10 6 0 17 -5 25 -10z m8 -57 c-10
-2 -28 -2 -40 0 -13 2 -5 4 17 4 22 1 32 -1 23 -4z"/>
<path d="M761 1705 c-38 -43 -39 -75 -5 -112 l26 -28 -21 29 c-12 16 -21 39
-21 51 0 27 35 73 64 85 15 6 17 9 5 9 -10 1 -31 -15 -48 -34z"/>
<path d="M919 1483 c-13 -16 -12 -17 4 -4 9 7 17 15 17 17 0 8 -8 3 -21 -13z"/>
<path d="M733 1471 c1 -14 9 -26 17 -28 10 -3 11 -2 4 4 -7 4 -14 17 -17 28
-5 16 -5 15 -4 -4z"/>
<path d="M1903 1835 c0 -33 2 -45 4 -27 2 18 2 45 0 60 -2 15 -4 0 -4 -33z"/>
<path d="M1943 1800 c0 -36 2 -50 4 -32 2 17 2 47 0 65 -2 17 -4 3 -4 -33z"/>
<path d="M657 1759 c3 -35 7 -66 9 -68 9 -10 3 105 -5 118 -6 9 -7 -9 -4 -50z"/>
<path d="M683 1750 c0 -30 2 -43 4 -27 2 15 2 39 0 55 -2 15 -4 2 -4 -28z"/>
<path d="M641 1714 c1 -38 5 -82 9 -99 5 -18 6 9 3 65 -7 112 -13 132 -12 34z"/>
<path d="M620 1682 c0 -17 -4 -41 -9 -54 -4 -13 -5 -32 -1 -43 5 -14 9 2 14
48 4 38 5 71 2 74 -3 4 -6 -8 -6 -25z"/>
<path d="M1962 1660 c0 -14 2 -19 5 -12 2 6 2 18 0 25 -3 6 -5 1 -5 -13z"/>
<path d="M672 1630 c0 -19 2 -27 5 -17 2 9 2 25 0 35 -3 9 -5 1 -5 -18z"/>
<path d="M629 1595 c-2 -22 -3 -52 -2 -66 0 -15 -5 -26 -13 -26 -9 0 -12 8 -8
26 3 14 -16 -17 -43 -70 l-48 -96 -45 -7 c-25 -4 -53 -10 -64 -13 -14 -4 -16
-2 -10 8 6 12 5 12 -9 0 -11 -9 -15 -22 -11 -40 5 -21 3 -23 -6 -11 -9 12 -10
10 -4 -10 9 -33 32 -77 43 -85 6 -3 8 -12 5 -19 -3 -9 10 -24 33 -40 21 -14
33 -26 27 -26 -6 0 -32 18 -57 40 -36 32 -46 37 -51 24 -18 -46 5 -82 78 -122
36 -21 55 -40 78 -82 16 -30 28 -45 25 -32 -3 12 0 22 6 22 8 0 7 4 -1 12 -16
16 -15 25 1 25 16 0 18 -12 19 -97 0 -60 1 -62 10 -30 5 19 8 54 6 77 -2 24 0
43 4 43 5 0 8 11 8 24 0 14 5 28 10 31 6 4 8 16 5 28 -4 14 3 8 19 -15 15 -21
31 -38 37 -38 6 0 7 5 3 12 -4 7 -3 8 5 4 6 -4 9 -12 5 -17 -10 -16 62 -39
123 -39 74 0 138 36 173 100 7 11 14 8 40 -17 18 -18 46 -33 68 -37 51 -8 85
-5 42 4 l-35 7 38 2 c20 0 37 -3 37 -8 0 -5 23 -1 52 9 41 14 55 26 70 54 12
23 14 36 7 36 -7 0 -9 9 -6 21 9 35 -10 7 -23 -33 -10 -34 -17 -39 -65 -53
-56 -17 -154 -17 -152 0 1 6 -5 9 -14 9 -9 -1 -16 6 -15 15 0 9 -4 15 -9 14
-7 -1 -9 20 -4 63 5 51 13 73 36 102 30 37 112 85 166 96 25 6 27 4 27 -29 0
-33 -2 -35 -32 -34 l-33 1 30 8 c26 7 27 8 7 9 -41 2 -93 -30 -108 -65 -34
-80 -3 -154 64 -154 43 0 99 30 99 53 0 14 -6 13 -38 -4 -72 -36 -109 -19
-109 50 0 40 39 84 77 87 51 3 73 21 72 57 l-2 32 -8 -35 -8 -35 2 41 c2 35 0
40 -15 36 -10 -2 -18 1 -18 7 0 6 -7 8 -17 4 -15 -6 -15 -7 3 -15 13 -6 9 -7
-14 -3 -52 8 -157 -57 -187 -115 -14 -27 -36 -33 -52 -15 -4 4 -2 5 5 1 25
-14 11 12 -15 30 -20 13 -50 19 -100 21 -85 2 -140 -16 -190 -63 -28 -27 -33
-38 -30 -66 2 -18 2 -25 0 -15 -2 9 -13 22 -24 27 -10 6 -19 17 -19 25 0 8 -8
19 -17 24 -23 13 -8 14 16 2 15 -9 17 -6 14 22 -2 30 -2 30 6 7 9 -24 9 -24
10 -2 1 12 -8 29 -18 38 -24 21 -17 49 34 141 20 36 33 68 30 71 -3 3 -5 -1
-5 -9 0 -11 -2 -11 -10 1 -5 8 -9 24 -9 35 0 20 0 20 9 0 8 -18 9 -18 8 5 0
14 -4 39 -8 55 -8 30 -8 29 -11 -10z m8 -104 c-26 -47 -77 -158 -77 -167 0 -7
6 -14 14 -17 8 -3 12 -15 9 -31 l-5 -25 -39 21 c-37 19 -69 19 -69 0 0 -14 90
-85 97 -78 11 11 32 -15 26 -31 -4 -10 -2 -14 3 -10 13 8 12 -73 -1 -93 -5 -8
-8 -23 -7 -32 2 -12 -3 -16 -17 -15 -12 1 -21 6 -21 12 0 5 -5 3 -10 -5 -5 -8
-7 -24 -5 -35 3 -11 -4 -2 -14 19 -13 26 -32 46 -58 59 -54 27 -93 67 -93 94
0 29 11 29 39 -1 43 -46 121 -68 121 -35 0 5 -24 32 -54 60 -30 29 -62 66 -70
83 -9 18 -16 24 -16 14 0 -9 25 -44 55 -76 30 -33 54 -68 54 -78 -1 -17 -2
-17 -6 1 -3 11 -28 44 -56 72 -45 47 -51 58 -52 98 -1 26 1 41 5 35 6 -9 9 -9
15 0 10 16 75 6 127 -21 22 -11 43 -18 46 -15 3 3 0 6 -6 6 -7 0 -19 15 -27
33 -9 18 -14 23 -11 11 3 -17 -1 -20 -16 -16 -11 2 -16 8 -11 11 5 3 25 40 45
82 31 66 38 75 62 75 14 0 25 -2 23 -5z m472 -150 c-25 -15 -58 -44 -73 -62
-15 -19 -23 -25 -18 -14 17 33 103 105 126 105 6 0 -10 -13 -35 -29z m33 -59
c-15 -15 -29 -26 -31 -25 -6 4 41 53 50 53 4 0 -4 -13 -19 -28z m-274 11 c-15
-2 -42 -2 -60 0 -18 2 -6 4 27 4 33 0 48 -2 33 -4z m-113 -13 c-27 -12 -43
-12 -25 0 8 5 22 9 30 9 10 0 8 -3 -5 -9z m181 -5 c10 -8 16 -15 11 -15 -4 0
0 -14 8 -30 17 -34 17 -139 0 -137 -5 1 -10 -5 -10 -13 -1 -22 -15 -41 -25
-35 -5 3 -23 -1 -41 -10 -22 -12 -51 -16 -104 -13 -40 2 -71 6 -69 10 4 6 -30
30 -46 32 -3 1 -3 7 -2 15 2 7 -1 10 -7 6 -7 -4 -8 0 -4 11 4 11 2 15 -4 11
-7 -4 -7 11 -2 45 5 29 6 54 4 57 -10 10 38 49 53 44 8 -4 13 -2 10 3 -11 16
166 26 212 11 l25 -8 -25 15 c-14 9 -20 15 -14 16 5 0 19 -7 30 -15z m-423
-15 c6 -23 -3 -26 -21 -8 -16 16 -15 28 2 28 7 0 16 -9 19 -20z m30 -15 c-3
-9 1 -23 8 -33 13 -15 12 -16 -3 -3 -18 14 -26 67 -8 56 5 -3 7 -12 3 -20z
m564 -62 c-3 -10 -5 -2 -5 17 0 19 2 27 5 18 2 -10 2 -26 0 -35z m153 -28 c0
-8 -59 -35 -77 -35 -10 1 -1 7 20 15 21 7 41 16 44 19 8 7 13 8 13 1z m-116
-34 c-2 -3 -12 3 -22 13 -16 17 -16 18 5 5 12 -7 20 -15 17 -18z m132 -26 c-9
-14 -21 -25 -26 -25 -6 0 -1 9 10 20 11 11 20 28 21 38 0 10 2 12 6 4 3 -7 -2
-24 -11 -37z m-56 -35 c-8 -5 -24 -9 -35 -9 -16 1 -16 2 5 9 35 11 48 11 30 0z
m-324 -35 c-11 -8 -25 -15 -30 -15 -6 1 0 7 14 15 32 19 40 18 16 0z m-51 -20
c6 -2 -15 -4 -45 -4 -30 0 -61 3 -68 8 -12 7 90 4 113 -4z"/>
<path d="M610 1481 c0 -7 -4 -10 -10 -6 -13 8 -51 -70 -43 -91 5 -13 3 -15 -7
-9 -10 6 -12 4 -7 -9 4 -10 7 -21 7 -24 1 -4 7 8 15 26 8 18 11 40 8 49 -4 11
-3 14 5 9 8 -5 10 -1 5 10 -4 12 -3 15 5 10 8 -5 10 -1 5 10 -4 11 -3 15 5 10
12 -7 28 12 18 21 -3 4 -6 1 -6 -6z"/>
<path d="M381 1153 c-1 -25 63 -79 106 -89 14 -4 26 -16 30 -31 l6 -26 13 24
c7 13 13 18 14 11 0 -7 4 -11 9 -8 5 4 11 3 14 -1 2 -5 2 -2 0 6 -2 7 5 20 14
27 15 11 13 12 -17 1 -19 -7 -38 -16 -42 -22 -5 -6 -8 -5 -8 2 0 7 -16 19 -36
28 -54 22 -92 53 -97 78 l-4 22 -2 -22z"/>
<path d="M664 1228 l-19 -23 23 19 c21 18 27 26 19 26 -2 0 -12 -10 -23 -22z"/>
<path d="M771 1236 c-51 -28 -64 -89 -31 -143 50 -83 164 -26 146 72 -13 65
-67 99 -115 71z m51 -23 c33 -10 43 -85 15 -120 -33 -43 -95 17 -82 79 5 21 4
28 -4 24 -16 -10 -13 0 5 19 10 9 23 13 33 9 9 -3 24 -8 33 -11z m33 7 c3 -6
-1 -7 -9 -4 -18 7 -21 14 -7 14 6 0 13 -4 16 -10z m-118 -72 c-3 -8 -6 -5 -6
6 -1 11 2 17 5 13 3 -3 4 -12 1 -19z m119 -66 c-17 -16 -18 -16 -5 5 7 12 15
20 18 17 3 -2 -3 -12 -13 -22z m-33 -19 c-7 -2 -21 -2 -30 0 -10 3 -4 5 12 5
17 0 24 -2 18 -5z"/>
<path d="M765 1210 c-3 -5 -2 -10 4 -10 5 0 13 5 16 10 3 6 2 10 -4 10 -5 0
-13 -4 -16 -10z"/>
<path d="M660 1550 c0 -11 2 -20 4 -20 2 0 6 9 9 20 3 11 1 20 -4 20 -5 0 -9
-9 -9 -20z"/>
<path d="M1616 1355 c-4 -20 -4 -40 0 -47 4 -7 3 -8 -4 -4 -7 4 -12 2 -12 -3
0 -6 15 -11 34 -11 l34 0 -10 35 c-6 19 -15 32 -19 30 -4 -3 -5 4 -2 15 3 11
1 20 -5 20 -5 0 -13 -16 -16 -35z"/>
<path d="M419 1369 c-10 -6 -7 -9 14 -9 29 0 35 5 14 13 -8 3 -20 1 -28 -4z"/>
<path d="M1742 965 c0 -16 2 -22 5 -12 2 9 2 23 0 30 -3 6 -5 -1 -5 -18z"/>
<path d="M605 915 c3 -38 0 -77 -5 -85 -7 -11 -8 -5 -5 20 l5 35 -14 -35 -13
-35 -11 45 c-7 34 -10 38 -11 17 -1 -38 44 -125 89 -168 20 -20 50 -62 66 -93
16 -32 36 -64 45 -72 15 -13 17 -13 23 1 3 9 2 13 -3 10 -5 -3 -12 -2 -15 3
-2 4 4 9 15 9 11 1 18 -4 17 -10 -8 -34 88 -147 124 -147 9 0 9 3 -2 10 -12 8
-11 10 5 10 12 0 26 5 33 12 9 9 12 9 12 0 0 -6 -7 -15 -15 -20 -14 -7 -12
-11 7 -27 13 -11 17 -13 11 -5 -19 21 -16 35 4 19 9 -8 26 -13 37 -11 15 2 17
0 8 -6 -11 -7 -10 -10 5 -14 27 -7 49 12 50 45 2 56 5 63 14 37 6 -19 7 -15 3
15 -10 74 -39 74 -39 0 0 -24 -3 -41 -7 -39 -4 3 -5 -1 -3 -8 4 -9 -3 -14 -17
-15 -24 -2 -48 13 -48 30 0 5 9 2 19 -7 19 -17 20 -17 30 3 6 11 11 28 10 38
0 10 -5 3 -10 -15 -8 -28 -12 -32 -25 -22 -8 7 -22 40 -32 73 l-19 60 -7 -34
c-5 -27 -9 -31 -16 -19 -8 13 -10 13 -10 -2 0 -9 -3 -24 -7 -34 -6 -16 -5 -16
14 1 11 11 23 27 26 35 4 12 6 11 6 -3 1 -10 -11 -30 -26 -45 -15 -15 -27 -30
-25 -34 3 -11 -16 -10 -23 1 -3 5 -1 13 5 16 8 5 7 11 -1 21 -6 7 -15 11 -20
8 -5 -3 -7 10 -5 27 5 43 -3 66 -16 47 -7 -9 -8 -5 -4 12 3 14 6 31 6 38 0 7
14 12 38 12 25 0 45 7 55 18 19 20 23 37 7 27 -7 -4 -7 2 0 19 8 21 7 24 -7
19 -9 -4 -14 -2 -11 3 4 5 -19 8 -52 7 -63 -1 -100 19 -100 57 0 36 27 50 86
46 51 -3 55 -2 61 22 11 44 -7 57 -78 55 -52 -1 -58 0 -29 7 28 6 25 7 -18 4
-65 -5 -117 -26 -142 -56 -23 -28 -27 -21 -40 73 l-9 64 4 -70z m136 -37 c-46
-13 -79 -36 -87 -60 -3 -11 -8 -17 -11 -14 -20 20 68 86 112 85 12 -1 6 -5
-14 -11z m167 -19 c4 -31 -19 -41 -72 -32 -49 8 -74 -10 -79 -55 l-4 -37 -1
37 c-3 50 30 73 91 65 28 -4 36 -3 22 3 -62 27 -125 -8 -125 -69 0 -58 34 -85
113 -87 l62 -1 -55 7 -55 7 60 -1 c60 -1 60 -1 60 -31 0 -29 -2 -30 -50 -35
-45 -4 -50 -8 -51 -30 -1 -14 -5 -34 -9 -44 -6 -14 -5 -17 4 -11 10 6 12 2 7
-16 l-7 -24 15 25 c14 24 14 24 13 -15 -1 -25 3 -40 11 -41 22 -3 23 -4 17
-15 -17 -26 -75 58 -74 107 1 67 -11 91 -52 104 -21 7 -48 24 -60 36 -13 13
-26 24 -30 24 -5 0 8 -16 28 -35 20 -19 40 -32 45 -29 6 4 5 -3 -1 -15 -13
-23 2 -66 19 -56 4 3 11 -1 14 -7 4 -9 5 -8 5 2 -1 8 0 26 1 40 2 21 3 20 10
-10 10 -40 10 -39 -19 -45 -19 -3 -27 5 -52 59 -16 35 -43 72 -60 85 -30 22
-69 77 -69 96 0 6 4 4 9 -4 7 -11 10 -9 16 9 7 22 7 21 21 -6 10 -19 11 -31 4
-38 -17 -17 -11 -29 7 -15 10 8 14 9 10 2 -4 -6 -2 -15 4 -19 8 -4 9 2 5 23
-11 47 30 89 101 103 31 7 71 10 90 7 22 -4 31 -2 27 5 -4 6 1 8 12 6 12 -2
20 -13 22 -29z m-114 -158 c-2 -3 -12 3 -22 13 -16 17 -16 18 5 5 12 -7 20
-15 17 -18z m-40 -68 c-2 -39 -3 -40 -14 -21 -10 16 -4 48 9 48 4 0 6 -12 5
-27z m312 -149 c-4 -14 -9 -24 -12 -21 -3 2 -2 17 2 31 3 15 9 25 11 22 3 -3
2 -17 -1 -32z m-101 -32 c-3 -3 -5 0 -5 7 0 8 -5 7 -16 -3 -8 -9 -23 -16 -32
-16 -11 1 -8 6 11 16 15 8 27 22 28 32 0 12 3 10 10 -7 5 -13 7 -26 4 -29z
m16 -39 c13 -16 12 -17 -3 -4 -10 7 -18 15 -18 17 0 8 8 3 21 -13z m79 9 c0
-5 -6 -16 -13 -26 -13 -17 -14 -18 -20 -2 -4 10 -3 15 3 11 6 -3 13 1 16 9 7
17 14 21 14 8z"/>
<path d="M892 860 c0 -14 2 -19 5 -12 2 6 2 18 0 25 -3 6 -5 1 -5 -13z"/>
<path d="M605 800 c-4 -6 -3 -16 3 -22 13 -13 23 4 13 21 -7 10 -10 10 -16 1z"/>
<path d="M858 653 c-61 -4 -72 -17 -47 -53 8 -12 9 -9 5 13 -6 27 -6 27 49 27
30 0 55 5 55 10 0 6 -1 9 -2 8 -2 -1 -29 -3 -60 -5z"/>
<path d="M1428 943 c18 -2 45 -2 60 0 15 2 0 4 -33 4 -33 0 -45 -2 -27 -4z"/>
<path d="M1288 933 c12 -2 30 -2 40 0 9 3 -1 5 -23 4 -22 0 -30 -2 -17 -4z"/>
<path d="M1387 924 c2 -6 -5 -14 -17 -17 -17 -4 -20 -2 -16 11 4 9 -3 6 -14
-8 -16 -21 -20 -40 -20 -116 0 -103 18 -164 49 -164 37 0 42 23 39 159 l-3
130 50 3 50 3 -61 5 c-43 4 -60 2 -57 -6z m-46 -61 c-4 -28 -6 -32 -9 -15 -3
22 3 52 11 52 1 0 1 -17 -2 -37z m40 -5 l2 -43 7 35 7 35 2 -32 c0 -17 -3 -34
-8 -38 -6 -3 -8 -15 -5 -28 12 -61 -23 -156 -40 -111 -3 8 -2 13 2 10 4 -2 7
37 5 87 -1 51 0 100 3 110 10 32 24 17 25 -25z"/>
<path d="M1245 920 c18 -9 18 -10 -5 -7 l-25 3 0 -105 c0 -115 -11 -193 -24
-172 -6 9 -10 6 -14 -10 -5 -18 -11 -21 -36 -16 -17 4 -60 9 -96 13 -48 5 -65
10 -61 20 3 7 6 59 6 116 2 82 -1 102 -12 100 -8 -2 -10 0 -3 6 15 15 112 24
120 12 4 -6 1 -9 -7 -8 -19 4 -25 -202 -6 -214 16 -10 76 -9 103 1 16 6 9 11
-33 21 l-53 12 3 109 c1 59 0 110 -3 114 -4 3 -33 2 -65 -2 l-59 -8 40 -6 40
-7 -45 1 c-40 2 -45 0 -46 -20 -1 -13 2 -23 7 -23 5 0 8 -46 7 -102 l-2 -103
-6 75 -6 75 -4 -55 c-2 -30 -2 -62 -1 -70 1 -8 2 -23 2 -32 0 -14 10 -18 47
-19 l47 -2 -40 -7 c-29 -5 -33 -8 -15 -9 14 -2 34 -4 45 -6 11 -2 46 -6 78
-10 l57 -6 -22 -32 c-12 -18 -26 -33 -30 -35 -4 -2 -8 -10 -8 -18 0 -8 -4 -14
-10 -14 -5 0 -10 -5 -10 -11 0 -8 5 -8 15 1 8 7 15 8 15 2 0 -5 -7 -15 -15
-22 -10 -9 -12 -16 -5 -25 6 -8 5 -16 -3 -26 -12 -13 38 28 74 63 15 14 16 18
3 29 -17 14 -18 30 -1 27 13 -3 13 4 2 37 -5 14 -4 16 2 7 8 -10 12 -10 22 2
9 11 9 16 0 22 -8 4 -9 3 -5 -4 4 -7 3 -12 -2 -12 -18 0 -19 12 -5 41 l14 29
26 -30 c23 -28 24 -32 10 -48 -17 -18 -17 -37 -2 -62 8 -13 7 -13 -8 -1 -9 7
-17 22 -17 32 0 11 -4 19 -9 19 -5 0 -8 -15 -7 -32 2 -27 6 -32 22 -30 19 3
19 2 0 -13 -11 -8 -15 -15 -9 -15 5 0 31 18 56 40 25 22 53 40 64 40 15 0 16
-2 3 -10 -25 -16 3 -10 30 6 14 8 17 13 7 10 -23 -7 -67 10 -67 27 0 7 -13 23
-30 35 l-29 22 -3 128 c-3 107 -5 126 -18 124 -10 -2 -12 0 -5 7 6 5 33 14 60
19 37 7 42 10 20 11 -16 1 -41 4 -55 6 -22 5 -23 4 -5 -5z m-152 -17 c-7 -2
-21 -2 -30 0 -10 3 -4 5 12 5 17 0 24 -2 18 -5z m-6 -185 c-2 -29 -3 -6 -3 52
0 58 1 81 3 53 2 -29 2 -77 0 -105z m150 100 c-2 -13 -4 -5 -4 17 -1 22 1 32
4 23 2 -10 2 -28 0 -40z m-79 -155 c-10 -2 -28 -2 -40 0 -13 2 -5 4 17 4 22 1
32 -1 23 -4z m134 -85 l20 -29 -23 -25 c-40 -42 -64 -10 -25 34 l19 22 -24 27
c-13 15 -16 21 -6 14 10 -8 27 -27 39 -43z m-109 21 c-6 -6 -21 -9 -34 -6 -22
4 -22 4 4 6 15 0 27 6 27 13 0 6 3 8 7 5 4 -4 2 -12 -4 -18z m-75 4 c-10 -2
-26 -2 -35 0 -10 3 -2 5 17 5 19 0 27 -2 18 -5z m76 -69 c3 -8 2 -12 -3 -9
-16 9 -24 -15 -10 -31 10 -12 7 -20 -16 -44 -29 -30 -58 -31 -32 -2 8 10 14
24 14 32 0 14 30 70 38 70 2 0 6 -7 9 -16z"/>
<path d="M1269 554 c-25 -30 -20 -48 6 -24 14 13 22 27 19 31 -7 12 -10 11
-25 -7z m21 2 c0 -2 -8 -10 -17 -17 -16 -13 -17 -12 -4 4 13 16 21 21 21 13z"/>
<path d="M1146 491 c-4 -5 -2 -12 3 -15 5 -4 12 -2 15 3 4 5 2 12 -3 15 -5 4
-12 2 -15 -3z"/>
<path d="M1129 443 c-13 -16 -12 -17 4 -4 16 13 21 21 13 21 -2 0 -10 -8 -17
-17z"/>
<path d="M1650 826 c0 -54 13 -66 36 -31 14 21 15 31 6 50 -19 42 -42 31 -42
-19z"/>
<path d="M1650 665 c0 -52 4 -67 16 -72 47 -18 75 76 35 116 -39 39 -51 28
-51 -44z"/>
<path d="M893 547 c-1 -41 15 -34 18 8 1 17 2 16 9 -5 8 -24 8 -24 9 -3 1 12
-7 26 -16 32 -16 8 -18 4 -20 -32z"/>
<path d="M864 529 c-3 -6 0 -18 9 -26 13 -13 14 -12 10 11 -6 29 -9 31 -19 15z"/>
<path d="M1083 415 c0 -8 4 -12 9 -9 5 3 6 10 3 15 -9 13 -12 11 -12 -6z"/>
</g>
</svg>
