<?xml version="1.0" encoding="UTF-8"?>
<svg xmlns="http://www.w3.org/2000/svg" xmlns:xlink="http://www.w3.org/1999/xlink" width="100px" height="100px" viewBox="0 0 100 100" version="1.1">
<defs>
<filter id="alpha" filterUnits="objectBoundingBox" x="0%" y="0%" width="100%" height="100%">
  <feColorMatrix type="matrix" in="SourceGraphic" values="0 0 0 0 1 0 0 0 0 1 0 0 0 0 1 0 0 0 1 0"/>
</filter>
<mask id="mask0">
  <g filter="url(#alpha)">
<rect x="0" y="0" width="100" height="100" style="fill:rgb(0%,0%,0%);fill-opacity:0.6;stroke:none;"/>
  </g>
</mask>
<linearGradient id="linear0" gradientUnits="userSpaceOnUse" x1="1547.1487" y1="60786.9062" x2="1547.1487" y2="-49859.625" >
<stop offset="0.06" style="stop-color:rgb(77.647059%,36.078431%,100%);stop-opacity:1;"/>
<stop offset="0.283" style="stop-color:rgb(61.568627%,54.901961%,100%);stop-opacity:1;"/>
<stop offset="0.5561" style="stop-color:rgb(40%,80%,100%);stop-opacity:1;"/>
<stop offset="0.647" style="stop-color:rgb(33.333333%,86.666667%,93.333333%);stop-opacity:1;"/>
<stop offset="0.8498" style="stop-color:rgb(20%,100%,80%);stop-opacity:1;"/>
</linearGradient>
<linearGradient id="linear1" gradientUnits="userSpaceOnUse" x1="1547.1487" y1="44980.4766" x2="1547.1487" y2="-34053.1914" >
<stop offset="0.06" style="stop-color:rgb(77.647059%,36.078431%,100%);stop-opacity:1;"/>
<stop offset="0.283" style="stop-color:rgb(61.568627%,54.901961%,100%);stop-opacity:1;"/>
<stop offset="0.5561" style="stop-color:rgb(40%,80%,100%);stop-opacity:1;"/>
<stop offset="0.647" style="stop-color:rgb(33.333333%,86.666667%,93.333333%);stop-opacity:1;"/>
<stop offset="0.8498" style="stop-color:rgb(20%,100%,80%);stop-opacity:1;"/>
</linearGradient>
<linearGradient id="linear2" gradientUnits="userSpaceOnUse" x1="1547.1487" y1="33690.1641" x2="1547.1487" y2="-22762.8828" >
<stop offset="0.06" style="stop-color:rgb(77.647059%,36.078431%,100%);stop-opacity:1;"/>
<stop offset="0.283" style="stop-color:rgb(61.568627%,54.901961%,100%);stop-opacity:1;"/>
<stop offset="0.5561" style="stop-color:rgb(40%,80%,100%);stop-opacity:1;"/>
<stop offset="0.647" style="stop-color:rgb(33.333333%,86.666667%,93.333333%);stop-opacity:1;"/>
<stop offset="0.8498" style="stop-color:rgb(20%,100%,80%);stop-opacity:1;"/>
</linearGradient>
<linearGradient id="linear3" gradientUnits="userSpaceOnUse" x1="1547.1487" y1="25625.6582" x2="1547.1487" y2="-14698.376" >
<stop offset="0.06" style="stop-color:rgb(77.647059%,36.078431%,100%);stop-opacity:1;"/>
<stop offset="0.283" style="stop-color:rgb(61.568627%,54.901961%,100%);stop-opacity:1;"/>
<stop offset="0.5561" style="stop-color:rgb(40%,80%,100%);stop-opacity:1;"/>
<stop offset="0.647" style="stop-color:rgb(33.333333%,86.666667%,93.333333%);stop-opacity:1;"/>
<stop offset="0.8498" style="stop-color:rgb(20%,100%,80%);stop-opacity:1;"/>
</linearGradient>
<linearGradient id="linear4" gradientUnits="userSpaceOnUse" x1="1547.1487" y1="19865.2969" x2="1547.1487" y2="-8938.0137" >
<stop offset="0.06" style="stop-color:rgb(77.647059%,36.078431%,100%);stop-opacity:1;"/>
<stop offset="0.283" style="stop-color:rgb(61.568627%,54.901961%,100%);stop-opacity:1;"/>
<stop offset="0.5561" style="stop-color:rgb(40%,80%,100%);stop-opacity:1;"/>
<stop offset="0.647" style="stop-color:rgb(33.333333%,86.666667%,93.333333%);stop-opacity:1;"/>
<stop offset="0.8498" style="stop-color:rgb(20%,100%,80%);stop-opacity:1;"/>
</linearGradient>
<linearGradient id="linear5" gradientUnits="userSpaceOnUse" x1="1547.1487" y1="15750.752" x2="1547.1487" y2="-4823.4697" >
<stop offset="0.06" style="stop-color:rgb(77.647059%,36.078431%,100%);stop-opacity:1;"/>
<stop offset="0.283" style="stop-color:rgb(61.568627%,54.901961%,100%);stop-opacity:1;"/>
<stop offset="0.5561" style="stop-color:rgb(40%,80%,100%);stop-opacity:1;"/>
<stop offset="0.647" style="stop-color:rgb(33.333333%,86.666667%,93.333333%);stop-opacity:1;"/>
<stop offset="0.8498" style="stop-color:rgb(20%,100%,80%);stop-opacity:1;"/>
</linearGradient>
<linearGradient id="linear6" gradientUnits="userSpaceOnUse" x1="1547.1487" y1="12811.792" x2="1547.1487" y2="-1884.5096" >
<stop offset="0.06" style="stop-color:rgb(77.647059%,36.078431%,100%);stop-opacity:1;"/>
<stop offset="0.283" style="stop-color:rgb(61.568627%,54.901961%,100%);stop-opacity:1;"/>
<stop offset="0.5561" style="stop-color:rgb(40%,80%,100%);stop-opacity:1;"/>
<stop offset="0.647" style="stop-color:rgb(33.333333%,86.666667%,93.333333%);stop-opacity:1;"/>
<stop offset="0.8498" style="stop-color:rgb(20%,100%,80%);stop-opacity:1;"/>
</linearGradient>
<clipPath id="clip1">
  <rect x="0" y="0" width="100" height="100"/>
</clipPath>
<g id="surface6" clip-path="url(#clip1)">
<path style="fill:none;stroke-width:1.5;stroke-linecap:butt;stroke-linejoin:miter;stroke:url(#linear0);stroke-miterlimit:10;" d="M -133553.03125 42485.878906 C -135659.171875 46285.640625 -129769.730469 50075.929688 -119172.011719 51735.609375 C -92445.601562 55921.148438 -50694.289062 60786.160156 1546.949219 60786.160156 C 25249.648438 60786.160156 70892.578125 59784.789062 122125.28125 51760.398438 C 132770.171875 50093.128906 138764.941406 46304.949219 136649.339844 42488.199219 L 100208.089844 -23255.519531 C 99098.410156 -25257.5 95854.050781 -27063.398438 91058.828125 -28348.261719 C 66685.769531 -34878.941406 42312.699219 -41409.699219 17939.628906 -47940.390625 C 8392.980469 -50498.390625 -5299.929688 -50498.351562 -14846.570312 -47940.359375 C -39219.570312 -41409.679688 -63592.460938 -34878.921875 -87964.730469 -28348.261719 C -92759.878906 -27063.378906 -96004.070312 -25257.488281 -97113.71875 -23255.53125 Z M -133553.03125 42485.878906 "/>
<path style="fill:none;stroke-width:1.5;stroke-linecap:butt;stroke-linejoin:miter;stroke:url(#linear1);stroke-miterlimit:10;" d="M -89736.761719 31908.101562 C -91159.820312 34622.210938 -87180.46875 37329.558594 -80019.851562 38515.050781 C -61961.46875 41504.71875 -33751.121094 44979.730469 1547.011719 44979.730469 C 17562.351562 44979.730469 48402.160156 44264.460938 83018.851562 38532.75 C 90211.339844 37341.839844 94261.859375 34636 92832.398438 31909.75 L 68209.929688 -15050.050781 C 67460.148438 -16480.03125 65268.019531 -17769.960938 62028 -18687.71875 C 45559.710938 -23352.480469 29091.421875 -28017.320312 12623.128906 -32682.101562 C 6172.691406 -34509.238281 -3079.269531 -34509.21875 -9529.710938 -32682.078125 C -25997.960938 -28017.308594 -42466.121094 -23352.480469 -58933.871094 -18687.71875 C -62173.828125 -17769.949219 -64365.851562 -16480.03125 -65115.621094 -15050.050781 Z M -89736.761719 31908.101562 "/>
<path style="fill:none;stroke-width:1.5;stroke-linecap:butt;stroke-linejoin:miter;stroke:url(#linear2);stroke-miterlimit:10;" d="M -60131.160156 24352.539062 C -61092.691406 26291.191406 -58403.941406 28225.011719 -53565.679688 29071.789062 C -41364.070312 31207.269531 -22303.019531 33689.421875 1547.070312 33689.421875 C 12368.238281 33689.421875 33205.960938 33178.519531 56595.609375 29084.441406 C 61455.398438 28233.789062 64192.238281 26301.050781 63226.390625 24353.71875 L 46589.578125 -9188.988281 C 46082.96875 -10210.410156 44601.800781 -11131.78125 42412.601562 -11787.328125 C 31285.378906 -15119.308594 20158.148438 -18451.328125 9030.929688 -21783.320312 C 4672.53125 -23088.421875 -1578.800781 -23088.398438 -5937.199219 -21783.300781 C -17064.390625 -18451.320312 -28191.53125 -15119.300781 -39318.390625 -11787.328125 C -41507.550781 -11131.78125 -42988.648438 -10210.410156 -43495.25 -9189 Z M -60131.160156 24352.539062 "/>
<path style="fill:none;stroke-width:1.5;stroke-linecap:butt;stroke-linejoin:miter;stroke:url(#linear3);stroke-miterlimit:10;" d="M -40127.390625 18955.710938 C -40777.070312 20340.460938 -38960.351562 21721.761719 -35691.261719 22326.601562 C -27446.929688 23851.941406 -14567.839844 25624.910156 1547.078125 25624.910156 C 8858.679688 25624.910156 22938.21875 25259.980469 38742.039062 22335.640625 C 42025.679688 21728.03125 43874.898438 20347.5 43222.289062 18956.558594 L 31981.21875 -5002.53125 C 31638.921875 -5732.109375 30638.121094 -6390.238281 29158.929688 -6858.480469 C 21640.539062 -9238.460938 14122.140625 -11618.480469 6603.75 -13998.46875 C 3658.878906 -14930.679688 -564.988281 -14930.671875 -3509.851562 -13998.460938 C -11028.21875 -11618.46875 -18546.558594 -9238.460938 -26064.710938 -6858.480469 C -27543.878906 -6390.230469 -28544.609375 -5732.109375 -28886.910156 -5002.53125 Z M -40127.390625 18955.710938 "/>
<path style="fill:none;stroke-width:1.5;stroke-linecap:butt;stroke-linejoin:miter;stroke:url(#linear4);stroke-miterlimit:10;" d="M -26611.320312 15100.828125 C -27050.289062 16089.941406 -25822.78125 17076.578125 -23613.929688 17508.609375 C -18043.441406 18598.140625 -9341.351562 19864.539062 1547.109375 19864.539062 C 6487.378906 19864.539062 16000.578125 19603.871094 26678.839844 17515.058594 C 28897.519531 17081.058594 30146.988281 16094.960938 29706.039062 15101.429688 L 22110.710938 -2012.191406 C 21879.421875 -2533.320312 21203.210938 -3003.410156 20203.761719 -3337.871094 C 15123.769531 -5037.859375 10043.769531 -6737.871094 4963.769531 -8437.859375 C 2974 -9103.730469 120.03125 -9103.71875 -1869.75 -8437.851562 C -6949.730469 -6737.859375 -12029.691406 -5037.851562 -17109.519531 -3337.871094 C -18108.960938 -3003.410156 -18785.128906 -2533.320312 -19016.410156 -2012.191406 Z M -26611.320312 15100.828125 "/>
<path style="fill:none;stroke-width:1.5;stroke-linecap:butt;stroke-linejoin:miter;stroke:url(#linear5);stroke-miterlimit:10;" d="M -17478.839844 12347.351562 C -17775.449219 13053.859375 -16946.039062 13758.601562 -15453.578125 14067.191406 C -11689.738281 14845.429688 -5809.949219 15750 1547.121094 15750 C 4885.140625 15750 11312.980469 15563.808594 18528.019531 14071.800781 C 20027.128906 13761.800781 20871.359375 13057.441406 20573.429688 12347.78125 L 15441.449219 123.761719 C 15285.171875 -248.480469 14828.28125 -584.261719 14152.96875 -823.160156 C 10720.539062 -2037.429688 7288.109375 -3251.730469 3855.679688 -4466.011719 C 2511.238281 -4941.628906 582.878906 -4941.621094 -761.558594 -4466 C -4193.980469 -3251.71875 -7626.378906 -2037.429688 -11058.699219 -823.160156 C -11733.988281 -584.261719 -12190.871094 -248.480469 -12347.140625 123.75 Z M -17478.839844 12347.351562 "/>
<path style="fill:none;stroke-width:1.5;stroke-linecap:butt;stroke-linejoin:miter;stroke:url(#linear6);stroke-miterlimit:10;" d="M -11308.25 10380.578125 C -11508.660156 10885.230469 -10948.25 11388.621094 -9939.828125 11609.039062 C -7396.691406 12164.921875 -3423.859375 12811.050781 1547.128906 12811.050781 C 3802.550781 12811.050781 8145.679688 12678.058594 13020.710938 11612.339844 C 14033.621094 11390.910156 14604.050781 10887.800781 14402.738281 10380.898438 L 10935.191406 1649.460938 C 10829.601562 1383.578125 10520.878906 1143.730469 10064.601562 973.089844 C 7745.390625 105.730469 5426.179688 -761.621094 3106.96875 -1628.96875 C 2198.558594 -1968.699219 895.621094 -1968.691406 -12.789062 -1628.96875 C -2331.988281 -761.628906 -4651.191406 105.71875 -6970.320312 973.058594 C -7426.601562 1143.710938 -7735.300781 1383.550781 -7840.890625 1649.429688 Z M -11308.25 10380.578125 "/>
</g>
<clipPath id="clip2">
  <path d="M 12 3 L 88 3 L 88 97 L 12 97 Z M 12 3 "/>
</clipPath>
<clipPath id="clip3">
  <path d="M 76.460938 37.710938 C 58.808594 44.039062 41.148438 50.371094 23.5 56.710938 C 20.628906 57.738281 17.710938 55.269531 18.261719 52.269531 C 19.890625 43.308594 21.53125 34.339844 23.160156 25.378906 C 23.328125 24.449219 23.820312 23.609375 24.558594 23.019531 C 32.210938 16.789062 39.859375 10.558594 47.511719 4.328125 C 48.96875 3.140625 51.058594 3.140625 52.519531 4.328125 C 60.210938 10.589844 67.910156 16.859375 75.601562 23.121094 C 76.25 23.648438 76.71875 24.378906 76.929688 25.199219 C 77.609375 27.800781 78.28125 30.390625 78.960938 32.988281 C 79.480469 34.96875 78.390625 37.019531 76.460938 37.710938 Z M 15.261719 69.988281 C 14.371094 74.53125 13.46875 79.078125 12.578125 83.621094 C 12.238281 85.351562 13.078125 87.101562 14.640625 87.898438 C 21.761719 91.570312 34.109375 96.558594 50.011719 96.558594 C 56.820312 96.558594 70.21875 95.648438 85.070312 88.058594 C 86.828125 87.160156 87.769531 85.199219 87.410156 83.261719 C 86.078125 76.140625 82.859375 58.898438 81.050781 49.210938 C 80.601562 46.808594 78.109375 45.378906 75.808594 46.210938 C 56.480469 53.148438 37.140625 60.078125 17.808594 67.019531 C 16.5 67.488281 15.53125 68.621094 15.261719 69.988281 Z M 15.261719 69.988281 "/>
</clipPath>
<linearGradient id="linear7" gradientUnits="userSpaceOnUse" x1="71.2959" y1="84.5568" x2="24.8748" y2="6.2431" >
<stop offset="0.06" style="stop-color:rgb(77.647059%,36.078431%,100%);stop-opacity:1;"/>
<stop offset="0.283" style="stop-color:rgb(61.568627%,54.901961%,100%);stop-opacity:1;"/>
<stop offset="0.5561" style="stop-color:rgb(40%,80%,100%);stop-opacity:1;"/>
<stop offset="0.647" style="stop-color:rgb(33.333333%,86.666667%,93.333333%);stop-opacity:1;"/>
<stop offset="0.8498" style="stop-color:rgb(20%,100%,80%);stop-opacity:1;"/>
</linearGradient>
</defs>
<g id="surface1">
<use xlink:href="#surface6" mask="url(#mask0)"/>
<g clip-path="url(#clip2)" clip-rule="nonzero">
<g clip-path="url(#clip3)" clip-rule="nonzero">
<path style=" stroke:none;fill-rule:nonzero;fill:url(#linear7);" d="M 12.949219 -0.371094 L 86.910156 -0.371094 C 91.210938 -0.371094 94.699219 0.148438 94.699219 0.800781 L 94.699219 104 C 94.699219 104.941406 87.609375 105.5 82.441406 104.960938 L 8.488281 97.191406 C 6.410156 96.96875 5.171875 96.609375 5.171875 96.230469 L 5.171875 0.789062 C 5.160156 0.148438 8.648438 -0.371094 12.949219 -0.371094 Z M 12.949219 -0.371094 "/>
</g>
</g>
</g>
</svg>
