<?xml version="1.0" standalone="no"?>
<!DOCTYPE svg PUBLIC "-//W3C//DTD SVG 20010904//EN"
 "http://www.w3.org/TR/2001/REC-SVG-20010904/DTD/svg10.dtd">
<svg version="1.0" xmlns="http://www.w3.org/2000/svg"
 width="300.000000pt" height="300.000000pt" viewBox="0 0 300.000000 300.000000"
 preserveAspectRatio="xMidYMid meet">
<metadata>
Created by potrace 1.10, written by Peter Selinger 2001-2011
</metadata>
<g transform="translate(0.000000,300.000000) scale(0.100000,-0.100000)"
fill="#000000" stroke="none">
<path d="M1343 2868 c5 -15 1 -16 -23 -11 -18 3 -30 1 -30 -5 0 -5 -9 -8 -19
-5 -11 3 -51 -2 -90 -11 -85 -19 -105 -20 -95 -3 4 7 3 9 -2 4 -5 -5 -9 -14
-9 -20 0 -7 -16 -13 -35 -13 -19 -1 -64 -11 -99 -23 -35 -11 -67 -19 -71 -16
-5 3 -11 1 -15 -5 -4 -6 5 -10 19 -10 35 0 33 -13 -4 -27 -16 -6 -30 -16 -30
-23 0 -16 62 21 67 42 3 9 20 19 41 23 21 3 45 9 56 12 13 3 16 1 11 -7 -5 -8
-2 -9 11 -2 36 18 69 30 99 36 17 3 41 9 54 12 19 6 22 4 16 -7 -6 -9 -2 -8
11 3 12 10 32 15 54 13 43 -3 62 3 53 19 -4 7 -1 6 9 -2 10 -8 23 -9 37 -4
l22 8 -22 19 c-19 17 -22 18 -16 3z"/>
<path d="M1397 2865 c-5 -11 0 -15 21 -15 15 0 41 -4 58 -9 19 -5 37 -5 48 1
13 7 21 6 29 -5 13 -15 151 -37 204 -32 20 2 34 -2 37 -11 3 -8 13 -13 23 -13
17 1 17 2 1 6 -21 5 -24 23 -5 23 21 1 -15 17 -53 24 -26 4 -31 3 -20 -5 11
-7 -1 -8 -45 -3 -33 4 -77 7 -97 6 -51 -3 -48 15 5 26 38 8 35 9 -33 8 -41 0
-96 3 -121 7 -38 6 -48 5 -52 -8z"/>
<path d="M1834 2825 c11 -8 16 -15 10 -15 -5 0 11 -11 35 -25 23 -14 48 -25
55 -25 15 0 99 -42 108 -55 4 -5 10 -6 14 -2 4 4 14 -2 21 -13 8 -11 18 -18
23 -15 8 5 28 -8 64 -40 6 -6 26 -17 45 -25 19 -8 53 -33 75 -57 22 -24 49
-43 59 -43 18 0 47 -22 47 -35 0 -4 -8 -4 -17 -1 -16 5 -16 4 0 -8 11 -8 24
-13 31 -10 24 9 144 -136 226 -275 9 -14 30 -48 48 -75 18 -28 32 -58 32 -68
0 -10 4 -26 10 -36 14 -25 60 -147 60 -159 0 -6 7 -16 15 -23 12 -10 13 -15 4
-20 -11 -7 -3 -40 29 -130 5 -13 3 -13 -10 -2 -11 9 -18 10 -23 2 -3 -5 -2
-10 4 -10 6 0 18 -11 27 -25 13 -20 14 -28 4 -40 -7 -9 -11 -36 -8 -69 1 -30
0 -52 -4 -49 -5 2 -8 -5 -8 -16 0 -11 4 -22 9 -25 11 -7 25 49 16 64 -3 5 -1
10 6 10 8 0 9 -12 4 -42 -4 -24 -8 -53 -8 -65 1 -13 -2 -21 -6 -19 -6 4 -10
-26 -11 -76 0 -16 -4 -28 -8 -28 -5 0 -7 -12 -4 -26 2 -14 8 -21 11 -15 4 6 7
-5 7 -25 l0 -35 -14 26 c-7 15 -15 25 -17 23 -2 -2 -5 -35 -6 -73 -2 -82 -6
-95 -27 -95 -8 0 -13 -3 -9 -6 3 -4 0 -13 -8 -21 -8 -8 -15 -30 -15 -48 0 -19
-4 -37 -10 -40 -5 -3 -10 -18 -10 -32 0 -16 -4 -23 -13 -20 -7 2 -18 -6 -24
-19 -8 -18 -8 -24 0 -25 7 0 1 -5 -13 -10 -17 -7 -21 -12 -12 -18 9 -5 4 -16
-18 -40 -20 -20 -30 -40 -28 -54 4 -27 -20 -57 -47 -58 -16 -1 -17 -2 -3 -6
16 -4 16 -6 -2 -25 -11 -12 -17 -26 -13 -32 3 -7 1 -6 -7 1 -10 9 -16 9 -26
-2 -8 -7 -14 -17 -14 -21 0 -4 -26 -33 -59 -63 -32 -31 -64 -66 -70 -79 -7
-12 -16 -20 -21 -17 -5 3 -19 -6 -32 -19 -24 -26 -177 -98 -236 -110 -18 -4
-30 -11 -27 -16 3 -5 -9 -7 -27 -4 -44 6 -194 -54 -191 -76 2 -11 -11 -19 -41
-26 -25 -5 -43 -7 -40 -3 2 4 -18 7 -45 6 -27 -1 -48 -6 -48 -12 2 -10 -7 -11
-148 -19 -58 -3 -72 -2 -50 5 17 5 36 7 43 4 7 -3 10 0 6 6 -3 6 -16 8 -27 5
-12 -3 -41 0 -65 6 -34 8 -49 8 -63 0 -22 -14 -32 -15 -25 -3 3 5 0 8 -7 8
-23 -3 -162 25 -182 36 -11 6 -26 10 -33 8 -8 -1 -22 5 -31 13 -14 13 -40 22
-73 25 -5 1 -8 6 -8 12 0 6 6 9 13 6 8 -3 14 1 14 8 0 11 -5 11 -19 4 -11 -6
-17 -17 -14 -25 6 -16 -2 -18 -23 -5 -13 8 -13 12 -1 28 12 15 12 16 0 6 -18
-16 -34 -17 -24 -1 4 7 3 8 -5 4 -6 -4 -24 0 -38 9 -19 13 -22 19 -12 25 7 5
17 6 23 3 5 -3 6 -1 2 5 -7 12 -48 1 -53 -14 -3 -11 102 -79 137 -89 14 -3 34
-10 45 -15 69 -31 112 -44 210 -64 80 -17 116 -21 132 -13 17 7 26 6 40 -8 15
-16 31 -17 148 -11 204 10 301 33 457 111 49 24 91 44 94 44 22 -1 151 59 186
87 24 18 51 34 61 34 10 0 20 6 23 14 3 8 11 14 17 12 7 -1 9 -1 5 1 -14 8 -9
23 7 23 8 0 15 5 15 11 0 10 36 48 82 85 7 6 27 28 43 48 17 21 38 45 48 54 9
9 17 22 17 29 0 7 4 13 9 13 5 0 16 17 26 38 9 20 24 42 32 49 8 6 16 23 17
36 0 14 4 23 7 21 7 -4 75 133 85 172 4 16 15 47 25 69 22 47 25 89 7 80 -7
-4 -6 -1 3 7 16 13 22 42 39 173 5 39 12 79 16 89 5 14 4 17 -4 12 -9 -5 -11
8 -7 53 4 39 0 87 -11 138 -9 43 -18 101 -19 128 -1 32 -6 49 -14 47 -7 -1 -9
6 -6 21 4 15 1 28 -10 37 -9 7 -30 43 -47 79 -17 36 -32 69 -35 74 -2 4 0 7 4
7 5 0 22 -24 38 -54 16 -30 33 -52 37 -50 4 3 1 16 -8 30 -9 13 -12 24 -6 24
6 0 13 -6 15 -12 4 -10 6 -10 6 -1 1 7 -8 17 -20 23 -12 7 -18 18 -15 26 3 8
-1 14 -10 14 -8 0 -13 4 -9 10 3 5 -2 18 -12 28 -25 25 -75 91 -97 127 -10 17
-36 53 -57 80 -20 28 -41 62 -44 78 -4 15 -11 27 -15 27 -5 0 -35 26 -67 58
-63 61 -112 98 -124 95 -5 -2 -20 13 -35 32 -30 40 -202 156 -257 174 -20 7
-37 17 -37 22 0 6 -5 7 -10 4 -6 -4 -16 -3 -23 2 -7 5 -33 17 -58 27 -26 9
-57 26 -70 36 -12 11 -27 20 -33 20 -6 0 -2 -7 8 -15z m1003 -1292 c-3 -10 -5
-2 -5 17 0 19 2 27 5 18 2 -10 2 -26 0 -35z m-207 -803 c0 -5 -2 -10 -4 -10
-3 0 -8 5 -11 10 -3 6 -1 10 4 10 6 0 11 -4 11 -10z m-672 -494 c-2 -1 -11 -7
-20 -15 -15 -11 -17 -10 -15 7 1 13 7 18 19 14 11 -2 17 -5 16 -6z m-68 -20
c0 -2 -9 -6 -20 -9 -11 -3 -18 -1 -14 4 5 9 34 13 34 5z"/>
<path d="M1388 2823 c7 -3 16 -2 19 1 4 3 -2 6 -13 5 -11 0 -14 -3 -6 -6z"/>
<path d="M814 2744 c-18 -14 -18 -15 4 -4 12 6 22 13 22 15 0 8 -5 6 -26 -11z"/>
<path d="M796 2684 c-9 -8 -16 -13 -16 -10 0 3 -13 0 -30 -5 -16 -6 -30 -15
-30 -20 0 -5 -6 -9 -14 -9 -22 0 -296 -259 -296 -280 0 -6 -6 -10 -13 -10 -11
0 -46 -40 -87 -100 -8 -12 -21 -29 -29 -37 -7 -8 -10 -17 -7 -21 4 -3 11 0 16
8 5 8 19 28 32 44 13 16 23 34 23 39 0 6 6 12 13 15 6 2 12 -1 12 -7 0 -6 4
-11 10 -11 5 0 7 6 4 14 -3 8 3 20 13 27 10 8 29 28 42 44 12 17 24 29 26 28
5 -2 65 53 65 60 0 3 16 21 35 40 19 19 35 33 35 31 0 -3 12 7 27 21 15 14 31
25 36 25 4 0 6 4 3 9 -9 14 106 83 118 71 6 -6 15 -10 21 -10 5 0 4 4 -4 9
-11 7 -10 12 8 22 22 14 28 29 12 29 -5 0 -17 -7 -25 -16z"/>
<path d="M815 2660 c4 -6 11 -8 16 -5 14 9 11 15 -7 15 -8 0 -12 -5 -9 -10z"/>
<path d="M1860 2590 c0 -5 5 -10 11 -10 5 0 7 5 4 10 -3 6 -8 10 -11 10 -2 0
-4 -4 -4 -10z"/>
<path d="M2230 2529 c0 -5 5 -7 10 -4 6 3 10 8 10 11 0 2 -4 4 -10 4 -5 0 -10
-5 -10 -11z"/>
<path d="M2130 2516 c0 -2 7 -6 15 -10 8 -3 15 -1 15 4 0 6 -7 10 -15 10 -8 0
-15 -2 -15 -4z"/>
<path d="M986 2421 c-4 -5 3 -7 14 -4 23 6 26 13 6 13 -8 0 -17 -4 -20 -9z"/>
<path d="M1054 2418 c-2 -3 2 -9 8 -11 7 -3 -32 -3 -87 -1 -99 4 -101 4 -169
-31 -38 -19 -75 -44 -83 -54 -7 -10 -32 -31 -57 -45 -48 -28 -114 -101 -151
-168 -59 -105 -66 -120 -67 -162 -1 -25 -6 -42 -10 -40 -7 5 -10 -3 -24 -81
-14 -72 0 -325 17 -325 5 0 9 -5 9 -11 0 -5 -6 -7 -12 -3 -10 6 -10 4 -2 -7 7
-8 15 -33 19 -56 4 -24 11 -46 17 -49 16 -10 18 1 4 27 -42 81 -54 418 -18
486 7 12 12 35 12 51 0 38 21 87 67 159 51 80 104 135 173 178 33 21 60 42 60
46 0 5 5 9 10 9 6 0 28 11 49 25 22 13 41 20 43 15 2 -5 20 -3 43 5 22 8 73
14 113 15 41 0 72 4 72 10 0 6 7 10 15 10 8 0 15 4 15 9 0 9 -60 9 -66 -1z
m-164 -33 c-7 -9 -15 -13 -19 -10 -3 3 1 10 9 15 21 14 24 12 10 -5z"/>
<path d="M1148 2423 c6 -2 18 -2 25 0 6 3 1 5 -13 5 -14 0 -19 -2 -12 -5z"/>
<path d="M360 2385 c-7 -9 -10 -18 -7 -21 3 -3 10 4 17 15 13 25 8 27 -10 6z"/>
<path d="M1114 2389 c-3 -5 3 -9 13 -10 58 -4 83 -8 127 -23 27 -9 60 -26 74
-36 13 -11 29 -20 35 -20 5 0 -10 16 -34 35 -24 19 -47 35 -51 35 -4 0 -19 5
-35 11 -36 14 -122 19 -129 8z"/>
<path d="M1870 2390 c0 -5 4 -10 9 -10 6 0 13 5 16 10 3 6 -1 10 -9 10 -9 0
-16 -4 -16 -10z"/>
<path d="M1750 2378 c-30 -6 -62 -16 -71 -24 -8 -8 -25 -14 -37 -14 -12 0 -22
-5 -22 -11 0 -7 -8 -18 -17 -25 -15 -11 -12 -11 20 -2 20 6 37 15 37 19 0 10
68 35 117 44 24 4 45 11 49 16 6 10 -1 10 -76 -3z"/>
<path d="M1904 2375 c-18 -14 -16 -15 21 -9 27 4 50 0 70 -10 17 -9 38 -16 48
-16 11 0 34 -7 53 -16 19 -9 37 -14 41 -10 6 6 -69 40 -105 47 -4 1 -27 8 -52
15 -56 17 -52 17 -76 -1z"/>
<path d="M1310 2370 c0 -6 7 -10 15 -10 8 0 15 2 15 4 0 2 -7 6 -15 10 -8 3
-15 1 -15 -4z"/>
<path d="M1660 2370 c-8 -5 -11 -12 -7 -16 4 -4 13 -2 19 4 15 15 7 24 -12 12z"/>
<path d="M925 2346 c-22 -7 -50 -16 -62 -21 -13 -4 -23 -13 -23 -20 0 -9 12
-8 48 4 26 9 53 20 60 24 7 5 12 3 12 -4 0 -8 4 -8 13 -2 35 27 233 -9 293
-54 17 -13 34 -23 37 -23 9 0 45 -30 75 -63 14 -15 32 -25 39 -23 7 3 17 -3
22 -12 6 -9 10 -12 10 -7 0 16 -22 40 -56 60 -18 11 -33 23 -33 27 0 5 -16 16
-35 25 -19 9 -31 21 -28 26 4 6 0 8 -10 4 -9 -3 -21 1 -29 11 -12 15 -11 16 4
4 11 -9 18 -10 23 -2 4 6 3 9 -2 8 -4 -1 -18 4 -31 11 -57 31 -262 48 -327 27z"/>
<path d="M2118 2353 c7 -3 16 -2 19 1 4 3 -2 6 -13 5 -11 0 -14 -3 -6 -6z"/>
<path d="M322 2323 c-12 -15 -22 -32 -22 -37 0 -5 11 5 25 24 14 19 25 35 25
37 0 8 -8 1 -28 -24z"/>
<path d="M1341 2347 c2 -1 14 -11 27 -21 12 -11 22 -16 22 -13 0 10 -31 37
-42 37 -6 0 -9 -1 -7 -3z"/>
<path d="M1831 2328 c-19 -5 -43 -7 -53 -5 -10 3 -16 1 -12 -4 3 -5 -1 -9 -8
-10 -28 -1 -64 -10 -91 -21 -22 -8 -25 -13 -15 -20 9 -7 6 -8 -9 -5 -13 3 -23
1 -23 -4 0 -5 -7 -9 -15 -9 -8 0 -15 -5 -15 -11 0 -6 -6 -9 -13 -6 -12 5 -85
-49 -76 -57 2 -2 63 25 134 60 141 68 240 93 303 74 18 -5 34 -5 37 0 5 8 -29
18 -85 24 -14 1 -40 -2 -59 -6z"/>
<path d="M1525 2307 c-11 -7 -22 -15 -25 -19 -3 -4 -17 -11 -30 -17 -24 -9
-24 -9 7 -8 17 1 29 5 26 10 -2 4 9 12 26 18 17 6 31 15 31 20 0 12 -10 11
-35 -4z"/>
<path d="M2156 2311 c-7 -10 0 -16 52 -42 17 -9 32 -14 32 -10 -1 13 -79 61
-84 52z"/>
<path d="M2240 2295 c7 -9 15 -13 17 -11 7 7 -7 26 -19 26 -6 0 -6 -6 2 -15z"/>
<path d="M1403 2282 c2 -12 6 -24 10 -28 3 -4 4 4 2 16 -6 30 -16 40 -12 12z"/>
<path d="M1555 2280 c-3 -5 1 -10 10 -10 9 0 13 5 10 10 -3 6 -8 10 -10 10 -2
0 -7 -4 -10 -10z"/>
<path d="M918 2273 c7 -3 16 -2 19 1 4 3 -2 6 -13 5 -11 0 -14 -3 -6 -6z"/>
<path d="M1965 2270 c3 -5 8 -10 11 -10 2 0 4 5 4 10 0 6 -5 10 -11 10 -5 0
-7 -4 -4 -10z"/>
<path d="M2283 2249 c9 -13 24 -34 33 -47 9 -12 13 -26 9 -30 -4 -4 -10 -1
-12 6 -3 6 -12 12 -20 12 -13 0 -13 -3 -3 -15 14 -17 36 -20 45 -5 9 15 -22
73 -47 89 -22 14 -22 14 -5 -10z"/>
<path d="M730 2250 c-24 -15 -7 -18 20 -3 14 7 18 13 10 13 -8 0 -22 -4 -30
-10z"/>
<path d="M1503 2248 c-18 -6 -33 -15 -33 -20 0 -11 33 -2 70 18 29 16 9 16
-37 2z"/>
<path d="M1217 2226 c20 -26 27 -28 17 -3 -3 8 -12 18 -20 21 -11 4 -10 0 3
-18z"/>
<path d="M2013 2238 c-2 -5 10 -8 26 -8 17 0 31 3 31 8 0 4 -12 7 -26 7 -14 0
-28 -3 -31 -7z"/>
<path d="M1437 2219 c7 -7 15 -10 18 -7 3 3 -2 9 -12 12 -14 6 -15 5 -6 -5z"/>
<path d="M1873 2223 c9 -2 25 -2 35 0 9 3 1 5 -18 5 -19 0 -27 -2 -17 -5z"/>
<path d="M2100 2220 c8 -5 20 -10 25 -10 6 0 3 5 -5 10 -8 5 -19 10 -25 10 -5
0 -3 -5 5 -10z"/>
<path d="M2155 2210 c-3 -6 1 -7 9 -4 9 3 16 2 16 -4 0 -6 15 -26 33 -44 53
-57 97 -116 97 -132 0 -9 5 -16 11 -16 6 0 8 -7 5 -16 -3 -8 -2 -13 3 -10 5 3
11 -2 14 -12 3 -9 15 -42 26 -72 12 -30 22 -74 23 -97 1 -27 5 -40 12 -36 8 4
8 2 1 -5 -7 -8 -8 -34 -1 -81 17 -123 -27 -246 -193 -536 -33 -59 -280 -315
-380 -395 -24 -19 -56 -46 -70 -60 -15 -14 -60 -47 -101 -75 -41 -27 -77 -53
-80 -56 -11 -13 -68 -38 -74 -32 -3 4 -6 1 -6 -5 0 -27 66 -5 108 35 7 7 18
13 23 13 5 0 15 5 22 10 7 6 37 29 67 51 65 47 189 159 318 286 52 51 98 93
103 93 5 0 14 11 19 25 5 14 14 25 19 25 5 0 24 26 43 58 18 31 38 66 45 77 7
11 15 27 19 35 4 8 10 17 13 20 13 11 46 81 83 175 47 118 55 187 46 368 -1
20 -6 37 -11 37 -5 0 -7 11 -5 25 3 13 1 22 -3 19 -8 -5 -14 17 -10 39 0 4 -3
7 -7 7 -4 0 -16 23 -27 50 -11 28 -22 50 -26 50 -4 0 -9 9 -12 20 -3 11 -1 18
4 14 5 -3 9 0 9 5 0 10 -14 15 -33 12 -4 -1 -7 5 -5 13 3 14 -117 136 -133
136 -4 0 -11 -4 -14 -10z"/>
<path d="M622 2175 c-17 -19 -18 -25 -7 -25 8 0 15 5 15 11 0 5 4 7 10 4 6 -4
7 1 3 11 -4 12 -3 15 5 10 7 -4 12 -2 12 3 0 18 -15 12 -38 -14z"/>
<path d="M1568 2163 c7 -3 16 -2 19 1 4 3 -2 6 -13 5 -11 0 -14 -3 -6 -6z"/>
<path d="M242 2130 c0 -14 2 -19 5 -12 2 6 2 18 0 25 -3 6 -5 1 -5 -13z"/>
<path d="M2330 2144 c0 -17 64 -98 68 -86 2 6 -5 20 -15 32 -47 56 -53 62 -53
54z"/>
<path d="M595 2130 c-3 -5 -1 -10 4 -10 6 0 11 5 11 10 0 6 -2 10 -4 10 -3 0
-8 -4 -11 -10z"/>
<path d="M565 2100 c-3 -6 1 -7 9 -4 18 7 21 14 7 14 -6 0 -13 -4 -16 -10z"/>
<path d="M1482 2096 c13 -14 28 -12 28 5 0 5 -9 9 -20 9 -17 0 -19 -2 -8 -14z"/>
<path d="M541 2074 c0 -11 3 -14 6 -6 3 7 2 16 -1 19 -3 4 -6 -2 -5 -13z"/>
<path d="M639 2063 c-13 -16 -12 -17 4 -4 9 7 17 15 17 17 0 8 -8 3 -21 -13z"/>
<path d="M207 2054 c-4 -4 -7 -14 -7 -23 0 -14 2 -14 10 -1 8 12 10 12 10 1 0
-8 3 -12 6 -8 3 3 2 13 -3 22 -5 8 -12 12 -16 9z"/>
<path d="M2405 2015 c4 -16 11 -31 16 -33 5 -2 9 -10 9 -18 0 -8 5 -14 10 -14
10 0 7 8 -28 70 l-14 25 7 -30z"/>
<path d="M2430 2034 c0 -7 7 -25 15 -40 12 -24 15 -26 15 -8 0 21 -29 68 -30
48z"/>
<path d="M190 2006 c0 -2 7 -7 16 -10 8 -3 12 -2 9 4 -6 10 -25 14 -25 6z"/>
<path d="M180 1975 c0 -8 9 -15 20 -15 11 0 20 2 20 5 0 2 -9 9 -20 15 -16 9
-20 8 -20 -5z"/>
<path d="M502 1935 c-6 -14 -8 -25 -3 -25 8 0 23 41 17 47 -1 2 -8 -8 -14 -22z"/>
<path d="M2453 1945 c-10 -11 -9 -23 4 -57 10 -27 17 -82 18 -150 2 -59 7
-112 11 -119 4 -8 3 -9 -4 -5 -11 7 -21 -21 -20 -54 1 -36 -21 -135 -30 -138
-6 -2 -8 -10 -5 -18 3 -8 0 -14 -6 -14 -6 0 -11 -9 -11 -20 0 -11 -8 -28 -17
-38 -10 -9 -19 -29 -21 -42 -2 -14 -12 -40 -23 -58 -10 -18 -19 -39 -19 -45 0
-7 6 -3 12 8 6 11 14 22 18 25 17 12 39 70 33 87 -3 10 -2 15 2 10 10 -9 58
101 82 186 23 84 23 281 1 358 -10 31 -14 66 -11 77 6 25 3 27 -14 7z"/>
<path d="M170 1941 c0 -6 4 -13 10 -16 6 -3 7 1 4 9 -7 18 -14 21 -14 7z"/>
<path d="M150 1906 c0 -8 9 -14 19 -13 15 1 17 4 9 14 -14 17 -28 16 -28 -1z"/>
<path d="M482 1870 c0 -14 2 -19 5 -12 2 6 2 18 0 25 -3 6 -5 1 -5 -13z"/>
<path d="M591 1844 c0 -11 3 -14 6 -6 3 7 2 16 -1 19 -3 4 -6 -2 -5 -13z"/>
<path d="M1686 1833 c-6 -14 -5 -15 5 -6 7 7 10 15 7 18 -3 3 -9 -2 -12 -12z"/>
<path d="M127 1824 c-9 -10 2 -24 18 -24 9 0 12 6 9 15 -6 16 -17 19 -27 9z"/>
<path d="M187 1811 c-4 -17 -3 -21 5 -13 5 5 8 16 6 23 -3 8 -7 3 -11 -10z"/>
<path d="M1075 1818 c-2 -7 -6 -68 -9 -136 -4 -68 -8 -129 -9 -135 -1 -6 15
-16 35 -21 32 -8 42 -6 72 15 32 21 36 29 36 67 0 29 -6 48 -20 62 -21 21 -26
40 -11 40 14 0 21 40 11 66 -15 38 -95 71 -105 42z m88 -59 c4 -16 -44 -69
-63 -69 -9 0 -12 99 -3 113 7 11 61 -24 66 -44z m-16 -75 c-3 -3 -12 -4 -19
-1 -8 3 -5 6 6 6 11 1 17 -2 13 -5z m25 -34 c20 -46 -9 -100 -56 -100 -23 0
-24 4 -28 61 l-3 60 40 -3 c24 -1 43 -8 47 -18z"/>
<path d="M1130 1761 c0 -6 4 -13 10 -16 6 -3 7 1 4 9 -7 18 -14 21 -14 7z"/>
<path d="M1225 1820 c-3 -5 -5 -77 -4 -160 l1 -150 68 0 c67 0 67 0 62 26 -4
24 -8 26 -56 22 l-51 -3 1 133 c0 123 -5 158 -21 132z m82 -286 c-3 -3 -12 -4
-19 -1 -8 3 -5 6 6 6 11 1 17 -2 13 -5z"/>
<path d="M1397 1810 c-43 -43 -62 -173 -32 -229 8 -16 28 -34 45 -41 16 -7 30
-16 30 -21 0 -5 5 -9 11 -9 6 0 9 6 7 12 -6 17 15 37 37 35 10 -1 20 5 22 13
4 13 3 13 -6 0 -15 -22 -23 -6 -11 24 15 40 12 143 -5 176 -15 30 -52 60 -70
59 -5 0 -18 -9 -28 -19z m43 -8 c0 -5 11 -21 23 -36 44 -51 30 -190 -21 -203
-40 -10 -89 70 -62 102 6 8 7 16 2 19 -12 7 -3 56 11 56 6 0 8 3 4 6 -8 9 21
64 33 64 6 0 10 -4 10 -8z"/>
<path d="M1595 1820 c-41 -16 -59 -48 -63 -116 -7 -111 37 -186 100 -171 28 7
53 48 45 71 -10 25 -25 19 -29 -11 -2 -22 -8 -28 -27 -28 -53 0 -86 109 -52
170 30 55 81 79 81 39 0 -8 5 -14 10 -14 6 0 10 8 10 19 0 31 -41 54 -75 41z"/>
<path d="M1800 1810 c0 -24 -27 -81 -44 -92 -22 -15 -26 -7 -21 41 4 32 2 52
-6 56 -21 14 -26 -16 -22 -138 4 -131 7 -147 23 -147 6 0 10 27 10 65 0 49 4
67 15 71 8 4 15 11 15 16 0 6 -11 3 -25 -6 -24 -16 -25 -16 -25 4 0 12 4 18
10 15 17 -10 69 27 81 59 16 41 17 68 1 74 -7 2 -12 -5 -12 -18z"/>
<path d="M115 1729 c-11 -17 1 -21 15 -4 8 9 8 15 2 15 -6 0 -14 -5 -17 -11z"/>
<path d="M2555 1720 c-3 -5 -2 -10 4 -10 5 0 13 5 16 10 3 6 2 10 -4 10 -5 0
-13 -4 -16 -10z"/>
<path d="M1780 1699 c0 -5 11 -21 25 -35 25 -25 32 -44 37 -97 5 -45 23 -30
21 18 -1 30 -9 55 -28 79 -27 35 -55 53 -55 35z"/>
<path d="M110 1685 c-7 -9 -8 -15 -2 -15 5 0 12 7 16 15 3 8 4 15 2 15 -2 0
-9 -7 -16 -15z"/>
<path d="M138 1671 c-25 -25 -26 -171 -2 -171 8 0 12 5 9 10 -14 23 -8 131 8
151 29 33 15 41 -15 10z"/>
<path d="M472 1630 c0 -30 3 -64 8 -75 7 -17 9 -16 9 10 0 17 -4 50 -8 75 l-8
45 -1 -55z"/>
<path d="M2811 1614 c0 -11 3 -14 6 -6 3 7 2 16 -1 19 -3 4 -6 -2 -5 -13z"/>
<path d="M92 1600 c0 -14 2 -19 5 -12 2 6 2 18 0 25 -3 6 -5 1 -5 -13z"/>
<path d="M92 1540 c0 -14 2 -19 5 -12 2 6 2 18 0 25 -3 6 -5 1 -5 -13z"/>
<path d="M451 1534 c0 -11 3 -14 6 -6 3 7 2 16 -1 19 -3 4 -6 -2 -5 -13z"/>
<path d="M1470 1530 c0 -5 7 -7 15 -4 8 4 15 8 15 10 0 2 -7 4 -15 4 -8 0 -15
-4 -15 -10z"/>
<path d="M1500 1480 c-9 -6 -10 -10 -3 -10 6 0 15 5 18 10 8 12 4 12 -15 0z"/>
<path d="M1653 1471 c-13 -9 5 -284 20 -293 18 -12 27 -9 27 7 0 8 -4 15 -8
15 -5 0 -8 10 -6 23 1 12 3 38 3 57 1 33 4 36 51 53 35 13 51 24 55 40 8 29
-9 73 -32 85 -24 12 -98 21 -110 13z m72 -26 c33 -7 45 -20 45 -51 0 -27 -18
-42 -57 -50 l-31 -6 6 48 c4 40 3 46 -11 41 -11 -4 -15 0 -14 14 1 12 7 17 17
15 8 -2 28 -7 45 -11z"/>
<path d="M126 1415 c4 -33 9 -64 13 -70 3 -5 7 -23 8 -40 6 -67 33 -146 47
-138 6 4 5 -1 -3 -10 -11 -14 -11 -17 0 -17 11 0 11 -2 -1 -10 -13 -8 -12 -10
2 -10 10 0 17 -5 15 -11 -1 -6 3 -13 10 -16 12 -4 11 7 -1 42 -17 43 -19 50
-22 60 -1 6 -9 33 -18 60 -19 61 -19 80 0 40 l14 -30 -6 35 c-4 19 -10 37 -14
40 -4 3 -11 20 -15 39 -4 19 -14 48 -21 65 -14 30 -14 28 -8 -29z"/>
<path d="M1166 1451 c-63 -38 -48 -117 27 -146 80 -30 106 -79 57 -105 -29
-16 -80 -1 -91 26 -9 26 -24 31 -32 11 -7 -18 12 -41 48 -59 38 -20 89 -5 117
33 17 23 18 29 6 50 -23 40 -40 54 -82 64 -44 11 -68 42 -58 77 6 25 45 43 69
33 12 -5 14 -9 6 -12 -7 -3 -13 -10 -13 -16 0 -6 7 -4 16 5 37 36 -21 69 -70
39z"/>
<path d="M1471 1454 c0 -11 3 -14 6 -6 3 7 2 16 -1 19 -3 4 -6 -2 -5 -13z"/>
<path d="M1516 1448 c-16 -26 -39 -103 -61 -201 -19 -87 -20 -85 11 -79 18 3
22 7 13 13 -11 6 -10 20 4 71 10 35 19 69 19 76 1 6 6 12 11 12 5 0 7 9 4 21
-6 23 10 79 24 79 7 0 49 -119 49 -140 0 -5 -8 -6 -19 -3 -10 3 -22 0 -26 -6
-9 -16 24 -26 44 -14 15 10 17 5 17 -48 0 -59 7 -80 23 -63 10 11 -10 152 -30
204 -17 47 -49 100 -60 100 -5 0 -15 -10 -23 -22z"/>
<path d="M2477 1438 c-24 -51 -21 -70 4 -24 11 21 18 43 16 49 -2 6 -11 -6
-20 -25z"/>
<path d="M1348 1453 c-50 -3 -68 -8 -68 -18 0 -8 5 -17 10 -20 6 -3 10 -2 10
3 0 11 66 21 92 14 10 -2 16 -8 13 -12 -9 -15 15 -22 30 -10 19 16 19 34 1 27
-10 -4 -13 -1 -9 9 3 7 1 13 -3 12 -5 -1 -39 -3 -76 -5z"/>
<path d="M1188 1413 c7 -3 16 -2 19 1 4 3 -2 6 -13 5 -11 0 -14 -3 -6 -6z"/>
<path d="M1348 1316 c-1 -58 -2 -114 -2 -123 -1 -10 7 -19 17 -21 16 -3 17 6
15 119 -2 87 -7 124 -15 127 -10 3 -13 -23 -15 -102z"/>
<path d="M1530 1405 c0 -8 2 -15 4 -15 2 0 6 7 10 15 3 8 1 15 -4 15 -6 0 -10
-7 -10 -15z"/>
<path d="M2497 1403 c-4 -3 -7 -13 -7 -22 1 -13 3 -13 11 2 11 19 8 33 -4 20z"/>
<path d="M482 1340 c0 -14 2 -19 5 -12 2 6 2 18 0 25 -3 6 -5 1 -5 -13z"/>
<path d="M1765 1313 c5 -15 4 -16 -6 -5 -20 19 -34 14 -16 -6 9 -10 23 -38 32
-62 8 -25 18 -51 20 -59 4 -10 9 -11 16 -4 12 12 1 56 -27 121 -15 33 -31 46
-19 15z"/>
<path d="M532 1300 c0 -14 2 -19 5 -12 2 6 2 18 0 25 -3 6 -5 1 -5 -13z"/>
<path d="M480 1294 c0 -8 5 -12 10 -9 6 4 8 11 5 16 -9 14 -15 11 -15 -7z"/>
<path d="M1501 1284 c0 -11 3 -14 6 -6 3 7 2 16 -1 19 -3 4 -6 -2 -5 -13z"/>
<path d="M2415 1274 c-9 -14 -15 -27 -13 -30 2 -2 12 10 22 26 21 37 15 40 -9
4z"/>
<path d="M1732 1270 c7 -10 14 -18 15 -16 6 6 -9 36 -18 36 -5 0 -4 -9 3 -20z"/>
<path d="M505 1251 c-3 -5 -1 -12 5 -16 5 -3 10 1 10 9 0 18 -6 21 -15 7z"/>
<path d="M514 1198 c9 -30 56 -98 68 -98 6 0 4 8 -5 18 -10 10 -17 23 -17 28
0 5 -12 23 -26 39 -14 17 -23 22 -20 13z"/>
<path d="M1282 1174 c-6 -11 -28 -20 -58 -25 l-49 -6 46 -2 c34 -1 50 4 64 19
10 11 16 23 13 26 -4 3 -11 -2 -16 -12z"/>
<path d="M2761 1174 c0 -11 3 -14 6 -6 3 7 2 16 -1 19 -3 4 -6 -2 -5 -13z"/>
<path d="M1655 1160 c3 -5 8 -10 11 -10 2 0 4 5 4 10 0 6 -5 10 -11 10 -5 0
-7 -4 -4 -10z"/>
<path d="M2300 1148 c-12 -22 -12 -22 6 -6 10 10 15 20 12 24 -4 3 -12 -5 -18
-18z"/>
<path d="M2760 1120 c-1 -8 -2 -19 -1 -24 1 -5 -4 -13 -11 -17 -10 -7 -10 -9
0 -9 16 0 25 23 19 47 -3 13 -5 14 -7 3z"/>
<path d="M2275 1109 c-4 -6 -5 -12 -2 -15 2 -3 7 2 10 11 7 17 1 20 -8 4z"/>
<path d="M612 1044 c18 -25 36 -48 40 -50 5 -3 8 -12 8 -20 0 -8 23 -38 51
-67 56 -57 56 -45 0 16 -20 21 -40 49 -46 61 -14 33 -69 106 -78 106 -5 0 7
-21 25 -46z"/>
<path d="M234 1030 c1 -21 6 -30 19 -30 9 0 17 5 17 11 0 5 -4 7 -10 4 -5 -3
-10 3 -10 14 0 11 -4 22 -9 25 -4 3 -8 -8 -7 -24z"/>
<path d="M241 979 c-1 -19 23 -42 33 -32 4 4 11 1 16 -7 7 -11 10 -11 10 -2 0
7 -11 17 -24 22 -13 5 -26 15 -29 22 -4 9 -6 8 -6 -3z"/>
<path d="M265 980 c3 -5 10 -10 16 -10 5 0 9 5 9 10 0 6 -7 10 -16 10 -8 0
-12 -4 -9 -10z"/>
<path d="M743 972 c1 -14 5 -18 11 -12 7 7 6 14 -1 21 -9 9 -12 7 -10 -9z"/>
<path d="M825 960 c3 -5 8 -10 11 -10 2 0 4 5 4 10 0 6 -5 10 -11 10 -5 0 -7
-4 -4 -10z"/>
<path d="M2210 959 c0 -5 5 -7 10 -4 6 3 10 8 10 11 0 2 -4 4 -10 4 -5 0 -10
-5 -10 -11z"/>
<path d="M2180 929 c0 -5 5 -7 10 -4 6 3 10 8 10 11 0 2 -4 4 -10 4 -5 0 -10
-5 -10 -11z"/>
<path d="M327 870 c3 -25 7 -47 9 -49 6 -7 34 21 34 33 0 6 -4 4 -10 -4 -7
-12 -10 -11 -15 5 -17 52 -24 58 -18 15z"/>
<path d="M2020 865 c-11 -13 -10 -14 4 -9 9 3 16 10 16 15 0 13 -6 11 -20 -6z"/>
<path d="M2077 873 c-10 -9 -9 -23 2 -23 5 0 11 7 15 15 5 15 -5 20 -17 8z"/>
<path d="M2165 869 c-4 -6 -5 -12 -2 -15 2 -3 7 2 10 11 7 17 1 20 -8 4z"/>
<path d="M800 861 c0 -5 8 -16 18 -23 11 -7 18 -23 17 -35 -1 -16 4 -23 16
-23 9 0 23 -1 31 -3 7 -2 3 1 -10 7 -12 6 -21 15 -18 21 2 7 -9 24 -25 39 -16
15 -29 23 -29 17z"/>
<path d="M702 825 c12 -14 24 -23 26 -20 6 6 -28 45 -39 45 -5 0 1 -11 13 -25z"/>
<path d="M2021 833 c-4 -8 -16 -15 -28 -15 -11 -1 -20 -8 -20 -15 0 -6 5 -9
10 -6 7 4 8 -1 3 -12 -5 -15 -4 -16 9 -5 13 11 13 15 3 22 -9 7 -7 8 7 6 16
-3 55 22 55 35 0 10 -32 2 -39 -10z"/>
<path d="M1938 783 c-23 -27 -33 -47 -20 -39 7 4 12 2 12 -3 0 -6 -5 -11 -11
-11 -5 0 -7 -4 -4 -10 3 -5 0 -10 -8 -10 -8 0 -22 -11 -31 -25 -9 -14 -21 -23
-25 -20 -5 2 -14 -2 -21 -11 -7 -8 -19 -13 -25 -10 -7 2 -12 -3 -11 -12 0 -9
-7 -18 -18 -20 -12 -3 -16 0 -11 8 6 9 2 9 -14 1 -25 -14 -28 -23 -4 -14 11 4
14 3 9 -5 -11 -18 18 -14 42 6 11 9 30 24 42 32 47 33 98 86 102 105 1 11 8
22 15 25 7 3 9 10 4 18 -6 10 -11 8 -23 -5z"/>
<path d="M395 780 c4 -6 11 -8 16 -5 14 9 11 15 -7 15 -8 0 -12 -5 -9 -10z"/>
<path d="M747 779 c7 -7 15 -10 18 -7 3 3 -2 9 -12 12 -14 6 -15 5 -6 -5z"/>
<path d="M420 757 c0 -10 8 -17 18 -17 9 0 13 4 7 8 -5 4 -13 11 -17 16 -5 5
-8 2 -8 -7z"/>
<path d="M2580 735 c0 -8 -10 -23 -22 -35 -21 -19 -15 -28 9 -12 12 8 29 62
19 62 -3 0 -6 -7 -6 -15z"/>
<path d="M780 735 c0 -5 10 -21 21 -35 13 -17 17 -18 10 -5 -17 33 -31 51 -31
40z"/>
<path d="M890 733 c0 -4 28 -30 63 -58 34 -27 64 -52 67 -56 3 -3 15 -12 28
-18 22 -12 23 -11 12 8 -6 12 -17 21 -24 21 -7 0 -23 11 -36 25 -12 13 -27 22
-31 19 -5 -3 -9 -2 -9 3 0 4 -16 21 -35 36 -19 15 -35 24 -35 20z"/>
<path d="M450 720 c0 -5 5 -10 11 -10 5 0 7 5 4 10 -3 6 -8 10 -11 10 -2 0 -4
-4 -4 -10z"/>
<path d="M1540 675 c-7 -8 -8 -15 -2 -15 5 0 15 7 22 15 7 8 8 15 2 15 -5 0
-15 -7 -22 -15z"/>
<path d="M835 660 c3 -5 8 -10 11 -10 2 0 4 5 4 10 0 6 -5 10 -11 10 -5 0 -7
-4 -4 -10z"/>
<path d="M480 650 c0 -7 24 -20 36 -20 13 0 1 19 -16 23 -11 3 -20 2 -20 -3z"/>
<path d="M916 625 c20 -19 39 -35 42 -35 3 0 -9 16 -28 35 -19 19 -38 35 -43
35 -4 0 8 -16 29 -35z"/>
<path d="M541 604 c0 -11 3 -14 6 -6 3 7 2 16 -1 19 -3 4 -6 -2 -5 -13z"/>
<path d="M1083 592 c0 -10 7 -22 16 -29 89 -69 381 -171 381 -134 0 5 12 12
28 14 15 2 0 4 -33 5 -89 0 -124 10 -254 68 -58 26 -98 50 -102 62 -10 25 -36
35 -36 14z"/>
<path d="M1190 600 c0 -5 5 -10 11 -10 5 0 7 5 4 10 -3 6 -8 10 -11 10 -2 0
-4 -4 -4 -10z"/>
<path d="M563 585 c0 -8 4 -15 9 -15 4 0 8 4 8 9 0 6 -4 12 -8 15 -5 3 -9 -1
-9 -9z"/>
<path d="M1703 557 c-18 -12 -32 -28 -33 -34 0 -9 5 -8 18 3 9 8 28 24 42 34
34 26 13 23 -27 -3z"/>
<path d="M590 561 c0 -6 4 -13 10 -16 6 -3 7 1 4 9 -7 18 -14 21 -14 7z"/>
<path d="M570 530 c0 -11 4 -20 9 -20 5 0 7 9 4 20 -3 11 -7 20 -9 20 -2 0 -4
-9 -4 -20z"/>
<path d="M1280 530 c0 -6 7 -10 15 -10 8 0 15 2 15 4 0 2 -7 6 -15 10 -8 3
-15 1 -15 -4z"/>
<path d="M1420 536 c0 -2 7 -7 16 -10 8 -3 12 -2 9 4 -6 10 -25 14 -25 6z"/>
<path d="M1355 520 c3 -5 13 -10 21 -10 8 0 12 5 9 10 -3 6 -13 10 -21 10 -8
0 -12 -4 -9 -10z"/>
<path d="M601 503 c-1 -14 5 -23 14 -23 8 0 15 5 15 11 0 5 -4 8 -9 4 -5 -3
-12 3 -14 12 -4 14 -5 13 -6 -4z"/>
<path d="M1640 509 c0 -5 5 -7 10 -4 6 3 10 8 10 11 0 2 -4 4 -10 4 -5 0 -10
-5 -10 -11z"/>
<path d="M1320 502 c0 -5 14 -12 31 -16 46 -9 71 -7 64 4 -3 5 -16 9 -28 8
-12 -1 -32 2 -44 6 -13 4 -23 3 -23 -2z"/>
<path d="M1610 485 c-11 -13 -10 -14 4 -9 9 3 16 10 16 15 0 13 -6 11 -20 -6z"/>
<path d="M657 461 c3 -10 11 -18 19 -17 21 3 30 16 11 16 -9 0 -17 5 -17 10 0
6 -4 10 -9 10 -5 0 -7 -9 -4 -19z"/>
<path d="M2255 439 c-4 -6 -4 -13 -1 -16 3 -4 6 -1 6 6 0 7 5 9 10 6 6 -3 10
-1 10 4 0 14 -17 14 -25 0z"/>
<path d="M2300 439 c0 -5 5 -7 10 -4 6 3 10 8 10 11 0 2 -4 4 -10 4 -5 0 -10
-5 -10 -11z"/>
<path d="M1630 420 c-13 -8 -13 -10 2 -10 9 0 20 5 23 10 8 13 -5 13 -25 0z"/>
<path d="M752 398 c5 -15 28 -23 28 -10 0 5 -7 13 -16 16 -10 4 -14 1 -12 -6z"/>
<path d="M785 382 c-10 -10 -5 -22 10 -22 7 0 18 -7 23 -17 9 -16 42 -13 42 4
-1 10 -68 42 -75 35z"/>
<path d="M2160 350 c-13 -11 -20 -20 -16 -20 4 0 19 9 33 20 14 11 21 20 16
20 -6 0 -20 -9 -33 -20z"/>
<path d="M1380 350 c0 -5 14 -10 32 -10 36 0 35 4 -4 14 -17 4 -28 2 -28 -4z"/>
<path d="M1755 200 c-13 -6 -15 -9 -5 -9 8 0 22 4 30 9 18 12 2 12 -25 0z"/>
</g>
</svg>
