<svg width="100" height="100" viewBox="0 0 100 100" fill="none" xmlns="http://www.w3.org/2000/svg">
<path fill-rule="evenodd" clip-rule="evenodd" d="M49.1593 15.625C30.6388 15.625 15.625 30.6388 15.625 49.1593C15.625 67.6797 30.6388 82.6935 49.1593 82.6935C67.6797 82.6935 82.6935 67.6797 82.6935 49.1593C82.6935 30.6388 67.6797 15.625 49.1593 15.625ZM9.375 49.1593C9.375 27.187 27.187 9.375 49.1593 9.375C71.1315 9.375 88.9435 27.187 88.9435 49.1593C88.9435 71.1315 71.1315 88.9435 49.1593 88.9435C27.187 88.9435 9.375 71.1315 9.375 49.1593Z" fill="#222326"/>
<path d="M56.0032 62.4065C55.8252 62.0505 55.6739 61.641 55.5494 61.1783C55.4247 60.7153 55.3179 60.2258 55.2289 59.7095C54.8194 60.1545 54.3477 60.573 53.8137 60.9645C53.2794 61.3563 52.6832 61.7035 52.0244 62.006C51.3837 62.2908 50.6714 62.5135 49.8882 62.6735C49.1049 62.8515 48.2594 62.9408 47.3514 62.9408C45.8739 62.9408 44.5119 62.727 43.2659 62.2998C42.0374 61.8725 40.9782 61.2763 40.0882 60.5108C39.1979 59.7453 38.5037 58.8373 38.0052 57.787C37.5067 56.7188 37.2577 55.5618 37.2577 54.3155C37.2577 51.2713 38.3879 48.9215 40.6489 47.2658C42.9277 45.5925 46.3189 44.7558 50.8229 44.7558H54.9619V43.0468C54.9619 41.658 54.5079 40.5633 53.5999 39.7623C52.6922 38.9433 51.3837 38.5338 49.6747 38.5338C48.1614 38.5338 47.0577 38.8633 46.3634 39.5218C45.6692 40.1628 45.3219 41.0263 45.3219 42.112H37.8984C37.8984 40.8838 38.1654 39.7178 38.6994 38.614C39.2514 37.5103 40.0437 36.54 41.0762 35.7033C42.1264 34.8665 43.3994 34.208 44.8947 33.7273C46.4079 33.2288 48.1347 32.9796 50.0752 32.9796C51.8197 32.9796 53.4397 33.1932 54.9352 33.6204C56.4484 34.0477 57.7567 34.6798 58.8604 35.5163C59.9642 36.353 60.8277 37.4123 61.4507 38.694C62.0739 39.958 62.3854 41.4268 62.3854 43.1V55.4905C62.3854 57.0393 62.4832 58.321 62.6792 59.3358C62.8749 60.3505 63.1597 61.2228 63.5337 61.9525V62.4065H56.0032ZM48.9269 57.1995C49.6747 57.1995 50.3689 57.1105 51.0097 56.9325C51.6507 56.7543 52.2292 56.523 52.7454 56.238C53.2617 55.9533 53.7067 55.6328 54.0807 55.2768C54.4544 54.903 54.7482 54.529 54.9619 54.1553V49.1885H51.1699C50.0129 49.1885 49.0249 49.3043 48.2059 49.5355C47.3869 49.7493 46.7194 50.0608 46.2032 50.4703C45.6869 50.8618 45.3042 51.3425 45.0549 51.9123C44.8057 52.464 44.6812 53.0693 44.6812 53.728C44.6812 54.725 45.0282 55.5528 45.7224 56.2115C46.4347 56.87 47.5027 57.1995 48.9269 57.1995Z" fill="#222326"/>
</svg>
