<?xml version="1.0" encoding="UTF-8"?>
<svg xmlns="http://www.w3.org/2000/svg" xmlns:xlink="http://www.w3.org/1999/xlink" width="98pt" height="23pt" viewBox="0 0 98 23" version="1.1">
<g id="surface1">
<path style=" stroke:none;fill-rule:evenodd;fill:rgb(60.392157%,12.941176%,91.764706%);fill-opacity:1;" d="M 17.53125 2.132812 C 17.503906 2.152344 17.46875 2.214844 17.453125 2.277344 C 17.441406 2.339844 17.410156 2.390625 17.394531 2.390625 C 17.375 2.390625 17.339844 2.453125 17.316406 2.527344 C 17.261719 2.695312 17.039062 3.132812 16.964844 3.214844 C 16.789062 3.417969 16.78125 3.550781 16.785156 7.023438 L 16.785156 10.324219 L 16.886719 10.160156 C 16.941406 10.070312 17.035156 9.894531 17.09375 9.769531 C 17.152344 9.644531 17.214844 9.53125 17.230469 9.523438 C 17.246094 9.511719 17.28125 9.429688 17.308594 9.347656 C 17.339844 9.261719 17.375 9.191406 17.394531 9.191406 C 17.410156 9.191406 17.4375 9.144531 17.453125 9.082031 C 17.515625 8.839844 17.761719 8.921875 17.761719 9.1875 C 17.761719 9.210938 17.777344 9.234375 17.796875 9.234375 C 17.816406 9.234375 17.855469 9.308594 17.886719 9.398438 C 17.914062 9.488281 17.953125 9.5625 17.96875 9.5625 C 17.988281 9.5625 18.011719 9.617188 18.027344 9.6875 C 18.042969 9.753906 18.066406 9.808594 18.085938 9.808594 C 18.101562 9.808594 18.136719 9.875 18.164062 9.953125 C 18.195312 10.035156 18.230469 10.097656 18.25 10.097656 C 18.265625 10.097656 18.304688 10.171875 18.335938 10.261719 C 18.363281 10.355469 18.402344 10.429688 18.417969 10.429688 C 18.4375 10.429688 18.460938 10.484375 18.476562 10.550781 C 18.492188 10.621094 18.519531 10.675781 18.539062 10.675781 C 18.558594 10.675781 18.597656 10.75 18.625 10.839844 C 18.652344 10.929688 18.6875 11.003906 18.703125 11.003906 C 18.722656 11.003906 18.75 11.0625 18.761719 11.128906 C 18.777344 11.195312 18.804688 11.253906 18.824219 11.253906 C 18.84375 11.253906 18.882812 11.320312 18.910156 11.40625 C 18.9375 11.492188 18.96875 11.570312 18.984375 11.582031 C 19.023438 11.617188 19.519531 12.636719 19.519531 12.6875 C 19.519531 12.714844 19.535156 12.738281 19.554688 12.738281 C 19.578125 12.738281 19.613281 12.800781 19.640625 12.878906 C 19.667969 12.960938 19.703125 13.023438 19.726562 13.023438 C 19.746094 13.023438 19.773438 13.070312 19.789062 13.128906 C 19.800781 13.183594 19.828125 13.230469 19.847656 13.230469 C 19.871094 13.230469 19.886719 13.253906 19.886719 13.28125 C 19.886719 13.347656 20.257812 14.113281 20.300781 14.132812 C 20.320312 14.136719 20.335938 14.167969 20.335938 14.191406 C 20.335938 14.253906 20.550781 14.691406 20.589844 14.707031 C 20.605469 14.714844 20.621094 14.742188 20.621094 14.769531 C 20.621094 14.820312 20.828125 15.257812 20.871094 15.292969 C 20.882812 15.304688 20.917969 15.382812 20.945312 15.46875 C 20.972656 15.550781 21.007812 15.621094 21.023438 15.621094 C 21.039062 15.621094 21.078125 15.6875 21.105469 15.765625 C 21.132812 15.84375 21.171875 15.910156 21.191406 15.910156 C 21.210938 15.910156 21.238281 15.964844 21.253906 16.035156 C 21.269531 16.101562 21.292969 16.15625 21.3125 16.15625 C 21.328125 16.15625 21.363281 16.230469 21.390625 16.324219 C 21.417969 16.414062 21.457031 16.488281 21.476562 16.488281 C 21.496094 16.488281 21.523438 16.539062 21.539062 16.601562 C 21.554688 16.664062 21.578125 16.722656 21.59375 16.734375 C 21.632812 16.765625 21.847656 17.210938 21.847656 17.265625 C 21.847656 17.289062 21.863281 17.3125 21.882812 17.3125 C 21.902344 17.3125 21.945312 17.382812 21.972656 17.464844 C 22 17.550781 22.03125 17.628906 22.046875 17.640625 C 22.058594 17.652344 22.125 17.777344 22.191406 17.917969 C 22.261719 18.0625 22.328125 18.175781 22.34375 18.175781 C 22.359375 18.175781 22.394531 18.25 22.421875 18.34375 C 22.449219 18.433594 22.484375 18.507812 22.5 18.507812 C 22.519531 18.507812 22.542969 18.554688 22.558594 18.609375 L 22.582031 18.714844 L 24.277344 18.714844 C 25.671875 18.714844 25.96875 18.703125 25.96875 18.65625 C 25.96875 18.566406 25.882812 18.34375 25.847656 18.34375 C 25.828125 18.34375 25.800781 18.285156 25.785156 18.21875 C 25.773438 18.152344 25.746094 18.09375 25.726562 18.09375 C 25.710938 18.09375 25.671875 18.019531 25.644531 17.929688 C 25.613281 17.839844 25.578125 17.765625 25.5625 17.765625 C 25.546875 17.765625 25.511719 17.691406 25.484375 17.601562 C 25.457031 17.507812 25.417969 17.433594 25.398438 17.433594 C 25.378906 17.433594 25.351562 17.378906 25.335938 17.3125 C 25.320312 17.242188 25.296875 17.1875 25.277344 17.1875 C 25.261719 17.1875 25.226562 17.113281 25.199219 17.023438 C 25.171875 16.933594 25.132812 16.859375 25.113281 16.859375 C 25.09375 16.859375 25.066406 16.804688 25.050781 16.734375 C 25.035156 16.667969 25.011719 16.609375 24.992188 16.609375 C 24.976562 16.609375 24.9375 16.535156 24.910156 16.445312 C 24.878906 16.355469 24.839844 16.28125 24.824219 16.28125 C 24.804688 16.28125 24.769531 16.214844 24.738281 16.136719 C 24.710938 16.058594 24.675781 15.992188 24.660156 15.992188 C 24.640625 15.992188 24.617188 15.9375 24.601562 15.871094 C 24.585938 15.800781 24.5625 15.746094 24.546875 15.746094 C 24.53125 15.746094 24.492188 15.675781 24.460938 15.589844 C 24.429688 15.507812 24.394531 15.425781 24.382812 15.414062 C 24.339844 15.382812 24.132812 14.945312 24.132812 14.890625 C 24.132812 14.863281 24.113281 14.839844 24.089844 14.839844 C 24.070312 14.839844 24.050781 14.8125 24.050781 14.78125 C 24.050781 14.746094 24.027344 14.695312 23.996094 14.664062 C 23.964844 14.632812 23.917969 14.535156 23.886719 14.445312 C 23.859375 14.355469 23.824219 14.273438 23.808594 14.261719 C 23.796875 14.25 23.695312 14.066406 23.585938 13.847656 C 23.339844 13.359375 23.261719 13.214844 23.230469 13.191406 C 23.214844 13.179688 23.183594 13.101562 23.15625 13.015625 C 23.128906 12.929688 23.089844 12.859375 23.070312 12.859375 C 23.050781 12.859375 23.023438 12.804688 23.007812 12.738281 C 22.996094 12.667969 22.96875 12.613281 22.953125 12.613281 C 22.933594 12.613281 22.898438 12.539062 22.871094 12.449219 C 22.84375 12.359375 22.804688 12.285156 22.785156 12.285156 C 22.761719 12.285156 22.742188 12.261719 22.742188 12.230469 C 22.742188 12.167969 22.53125 11.730469 22.488281 11.714844 C 22.472656 11.707031 22.457031 11.679688 22.457031 11.652344 C 22.457031 11.601562 22.25 11.164062 22.210938 11.128906 C 22.195312 11.117188 22.160156 11.039062 22.132812 10.953125 C 22.105469 10.867188 22.070312 10.800781 22.050781 10.800781 C 22.03125 10.800781 22.003906 10.742188 21.988281 10.675781 C 21.972656 10.609375 21.949219 10.550781 21.933594 10.550781 C 21.914062 10.550781 21.875 10.488281 21.847656 10.40625 C 21.816406 10.328125 21.777344 10.261719 21.761719 10.261719 C 21.75 10.261719 21.710938 10.1875 21.683594 10.097656 C 21.652344 10.007812 21.613281 9.933594 21.597656 9.933594 C 21.582031 9.933594 21.554688 9.878906 21.539062 9.808594 C 21.523438 9.742188 21.5 9.6875 21.480469 9.6875 C 21.464844 9.6875 21.425781 9.613281 21.398438 9.523438 C 21.367188 9.429688 21.328125 9.355469 21.3125 9.355469 C 21.292969 9.355469 21.269531 9.300781 21.253906 9.234375 C 21.238281 9.164062 21.210938 9.109375 21.191406 9.109375 C 21.171875 9.109375 21.132812 9.035156 21.105469 8.945312 C 21.078125 8.855469 21.042969 8.78125 21.03125 8.78125 C 21.015625 8.78125 20.976562 8.707031 20.949219 8.613281 C 20.917969 8.523438 20.878906 8.449219 20.863281 8.449219 C 20.847656 8.449219 20.820312 8.398438 20.804688 8.335938 C 20.789062 8.273438 20.765625 8.214844 20.75 8.203125 C 20.710938 8.171875 20.5 7.726562 20.5 7.671875 C 20.5 7.648438 20.480469 7.625 20.460938 7.625 C 20.441406 7.625 20.402344 7.5625 20.375 7.480469 C 20.351562 7.402344 20.3125 7.335938 20.292969 7.335938 C 20.273438 7.335938 20.242188 7.289062 20.230469 7.234375 C 20.214844 7.175781 20.191406 7.128906 20.171875 7.128906 C 20.15625 7.128906 20.117188 7.046875 20.089844 6.945312 C 20.0625 6.84375 20.027344 6.761719 20.011719 6.761719 C 19.996094 6.761719 19.933594 6.640625 19.867188 6.492188 C 19.800781 6.34375 19.734375 6.222656 19.714844 6.222656 C 19.695312 6.222656 19.679688 6.203125 19.679688 6.179688 C 19.679688 6.105469 19.464844 5.648438 19.429688 5.648438 C 19.410156 5.648438 19.394531 5.625 19.394531 5.597656 C 19.394531 5.542969 19.1875 5.105469 19.148438 5.070312 C 19.132812 5.058594 19.097656 4.980469 19.070312 4.894531 C 19.042969 4.808594 19.007812 4.738281 18.988281 4.738281 C 18.96875 4.738281 18.941406 4.683594 18.925781 4.613281 C 18.910156 4.542969 18.875 4.476562 18.84375 4.464844 C 18.8125 4.453125 18.777344 4.390625 18.761719 4.324219 C 18.746094 4.257812 18.722656 4.203125 18.703125 4.203125 C 18.6875 4.203125 18.652344 4.128906 18.625 4.039062 C 18.597656 3.949219 18.558594 3.875 18.539062 3.875 C 18.519531 3.875 18.492188 3.820312 18.476562 3.75 C 18.460938 3.683594 18.4375 3.628906 18.417969 3.628906 C 18.402344 3.628906 18.363281 3.554688 18.335938 3.460938 C 18.304688 3.371094 18.265625 3.296875 18.25 3.296875 C 18.230469 3.296875 18.207031 3.242188 18.191406 3.171875 C 18.175781 3.105469 18.148438 3.050781 18.132812 3.050781 C 18.117188 3.050781 18.078125 2.976562 18.046875 2.886719 C 18.019531 2.792969 17.980469 2.71875 17.964844 2.71875 C 17.953125 2.71875 17.917969 2.644531 17.890625 2.554688 C 17.863281 2.464844 17.824219 2.390625 17.804688 2.390625 C 17.785156 2.390625 17.757812 2.339844 17.742188 2.277344 C 17.71875 2.175781 17.65625 2.101562 17.597656 2.101562 C 17.585938 2.101562 17.558594 2.117188 17.53125 2.132812 M 17.230469 16.695312 C 17.230469 16.714844 17.195312 16.734375 17.148438 16.742188 C 17.027344 16.761719 17.015625 20.691406 17.136719 20.738281 C 17.328125 20.816406 18.253906 20.742188 18.285156 20.652344 C 18.292969 20.628906 18.332031 20.609375 18.371094 20.609375 C 18.410156 20.609375 18.488281 20.570312 18.539062 20.527344 C 18.589844 20.480469 18.652344 20.445312 18.675781 20.445312 C 18.726562 20.445312 18.890625 20.289062 19.121094 20.027344 C 19.214844 19.921875 19.394531 19.585938 19.394531 19.515625 C 19.394531 19.484375 19.414062 19.457031 19.441406 19.449219 C 19.464844 19.4375 19.492188 19.316406 19.507812 19.175781 C 19.519531 19.03125 19.546875 18.90625 19.566406 18.894531 C 19.609375 18.867188 19.609375 18.601562 19.566406 18.574219 C 19.546875 18.5625 19.519531 18.445312 19.503906 18.3125 C 19.492188 18.179688 19.441406 18 19.398438 17.910156 C 19.351562 17.820312 19.3125 17.722656 19.3125 17.695312 C 19.3125 17.664062 19.296875 17.640625 19.273438 17.640625 C 19.25 17.640625 19.234375 17.621094 19.234375 17.597656 C 19.234375 17.554688 18.792969 17.105469 18.652344 17.003906 C 18.535156 16.917969 18.414062 16.859375 18.355469 16.859375 C 18.320312 16.859375 18.292969 16.839844 18.292969 16.820312 C 18.292969 16.796875 18.183594 16.765625 18.046875 16.753906 C 17.914062 16.738281 17.804688 16.710938 17.804688 16.691406 C 17.804688 16.675781 17.675781 16.660156 17.515625 16.660156 C 17.359375 16.660156 17.230469 16.675781 17.230469 16.695312 "/>
<path style=" stroke:none;fill-rule:evenodd;fill:rgb(4.705882%,61.176471%,63.137255%);fill-opacity:1;" d="M 16.652344 3.863281 C 16.578125 4.015625 16.507812 4.152344 16.492188 4.164062 C 16.457031 4.195312 16.25 4.648438 16.25 4.695312 C 16.25 4.71875 16.234375 4.738281 16.214844 4.738281 C 16.191406 4.738281 16.152344 4.808594 16.125 4.894531 C 16.097656 4.980469 16.066406 5.058594 16.050781 5.070312 C 16.007812 5.105469 15.800781 5.542969 15.800781 5.597656 C 15.800781 5.625 15.785156 5.648438 15.761719 5.648438 C 15.742188 5.648438 15.710938 5.695312 15.695312 5.75 C 15.683594 5.804688 15.65625 5.851562 15.640625 5.851562 C 15.621094 5.851562 15.585938 5.9375 15.558594 6.039062 C 15.53125 6.140625 15.492188 6.222656 15.476562 6.222656 C 15.460938 6.222656 15.328125 6.460938 15.1875 6.75 C 15.042969 7.039062 14.910156 7.28125 14.894531 7.289062 C 14.878906 7.296875 14.863281 7.324219 14.863281 7.351562 C 14.863281 7.402344 14.65625 7.839844 14.613281 7.871094 C 14.601562 7.882812 14.5625 7.964844 14.535156 8.046875 C 14.503906 8.132812 14.46875 8.203125 14.453125 8.203125 C 14.4375 8.203125 14.40625 8.277344 14.378906 8.367188 C 14.351562 8.457031 14.3125 8.53125 14.292969 8.53125 C 14.273438 8.53125 14.246094 8.589844 14.230469 8.65625 C 14.214844 8.722656 14.1875 8.78125 14.167969 8.78125 C 14.148438 8.78125 14.121094 8.832031 14.109375 8.898438 C 14.09375 8.964844 14.046875 9.0625 14.003906 9.113281 C 13.960938 9.164062 13.925781 9.230469 13.925781 9.261719 C 13.925781 9.289062 13.90625 9.316406 13.882812 9.316406 C 13.863281 9.316406 13.832031 9.367188 13.816406 9.429688 C 13.800781 9.492188 13.730469 9.648438 13.652344 9.78125 C 13.578125 9.910156 13.503906 10.066406 13.492188 10.121094 C 13.476562 10.175781 13.453125 10.222656 13.4375 10.222656 C 13.417969 10.222656 13.382812 10.296875 13.351562 10.386719 C 13.324219 10.476562 13.285156 10.550781 13.265625 10.550781 C 13.25 10.550781 13.222656 10.609375 13.210938 10.675781 C 13.195312 10.742188 13.167969 10.800781 13.152344 10.800781 C 13.136719 10.800781 13.097656 10.867188 13.070312 10.953125 C 13.039062 11.039062 13.003906 11.117188 12.988281 11.128906 C 12.949219 11.160156 12.738281 11.605469 12.738281 11.65625 C 12.738281 11.679688 12.726562 11.707031 12.710938 11.714844 C 12.691406 11.71875 12.625 11.832031 12.5625 11.964844 C 12.496094 12.09375 12.429688 12.210938 12.410156 12.222656 C 12.394531 12.234375 12.355469 12.3125 12.328125 12.394531 C 12.300781 12.476562 12.261719 12.566406 12.242188 12.589844 C 12.179688 12.667969 11.269531 14.523438 11.269531 14.578125 C 11.269531 14.609375 11.25 14.632812 11.230469 14.632812 C 11.207031 14.632812 11.179688 14.679688 11.164062 14.734375 C 11.148438 14.792969 11.125 14.839844 11.105469 14.839844 C 11.085938 14.839844 11.058594 14.894531 11.046875 14.960938 C 11.03125 15.027344 10.988281 15.125 10.949219 15.175781 C 10.910156 15.230469 10.832031 15.363281 10.777344 15.476562 C 10.722656 15.589844 10.664062 15.691406 10.648438 15.699219 C 10.628906 15.703125 10.617188 15.730469 10.617188 15.753906 C 10.617188 15.800781 10.121094 16.828125 10.082031 16.859375 C 10.066406 16.871094 10.03125 16.949219 10 17.035156 C 9.972656 17.117188 9.933594 17.1875 9.917969 17.1875 C 9.902344 17.1875 9.878906 17.238281 9.863281 17.300781 C 9.847656 17.363281 9.820312 17.421875 9.804688 17.433594 C 9.789062 17.445312 9.695312 17.613281 9.597656 17.804688 C 9.503906 18 9.378906 18.242188 9.324219 18.347656 C 9.273438 18.453125 9.226562 18.558594 9.226562 18.585938 C 9.226562 18.609375 9.210938 18.628906 9.1875 18.628906 C 9.164062 18.628906 9.148438 18.648438 9.148438 18.671875 C 9.148438 18.699219 9.746094 18.710938 10.871094 18.710938 L 12.597656 18.710938 L 12.921875 18.042969 C 13.101562 17.675781 13.257812 17.363281 13.273438 17.351562 C 13.285156 17.339844 13.355469 17.203125 13.429688 17.042969 C 13.503906 16.886719 13.582031 16.726562 13.601562 16.695312 C 13.625 16.660156 13.652344 16.597656 13.664062 16.558594 C 13.679688 16.519531 13.703125 16.488281 13.726562 16.488281 C 13.746094 16.488281 13.761719 16.464844 13.761719 16.4375 C 13.761719 16.382812 14.128906 15.617188 14.171875 15.582031 C 14.1875 15.570312 14.222656 15.492188 14.253906 15.40625 C 14.285156 15.320312 14.320312 15.25 14.335938 15.25 C 14.355469 15.25 14.378906 15.195312 14.394531 15.128906 C 14.410156 15.058594 14.433594 15.003906 14.449219 15.003906 C 14.464844 15.003906 14.503906 14.933594 14.535156 14.851562 C 14.566406 14.765625 14.613281 14.671875 14.644531 14.640625 C 14.675781 14.609375 14.699219 14.558594 14.699219 14.527344 C 14.699219 14.496094 14.714844 14.46875 14.734375 14.46875 C 14.75 14.46875 14.789062 14.398438 14.820312 14.3125 C 14.851562 14.230469 14.925781 14.078125 14.988281 13.972656 C 15.050781 13.871094 15.113281 13.738281 15.128906 13.675781 C 15.144531 13.613281 15.171875 13.5625 15.191406 13.5625 C 15.210938 13.5625 15.246094 13.492188 15.273438 13.40625 C 15.300781 13.320312 15.335938 13.242188 15.347656 13.230469 C 15.390625 13.195312 15.597656 12.757812 15.597656 12.707031 C 15.597656 12.675781 15.613281 12.652344 15.628906 12.652344 C 15.664062 12.652344 15.882812 12.195312 15.882812 12.121094 C 15.882812 12.097656 15.902344 12.078125 15.921875 12.078125 C 15.941406 12.078125 15.972656 12.039062 15.988281 11.988281 C 16.003906 11.941406 16.074219 11.796875 16.148438 11.667969 C 16.222656 11.542969 16.296875 11.390625 16.3125 11.335938 C 16.332031 11.277344 16.355469 11.222656 16.371094 11.210938 C 16.386719 11.199219 16.511719 10.960938 16.652344 10.675781 C 16.792969 10.390625 16.878906 10.195312 16.84375 10.242188 C 16.789062 10.3125 16.78125 9.980469 16.792969 6.953125 C 16.796875 5.101562 16.800781 3.585938 16.792969 3.585938 C 16.789062 3.585938 16.726562 3.710938 16.652344 3.863281 M 16.625 16.882812 C 16.355469 17.019531 15.84375 17.457031 15.84375 17.554688 C 15.84375 17.574219 15.808594 17.628906 15.761719 17.683594 C 15.714844 17.734375 15.679688 17.8125 15.679688 17.855469 C 15.679688 17.894531 15.664062 17.929688 15.640625 17.929688 C 15.484375 17.929688 15.480469 19.4375 15.636719 19.535156 C 15.65625 19.546875 15.6875 19.609375 15.699219 19.671875 C 15.714844 19.730469 15.753906 19.804688 15.785156 19.828125 C 15.816406 19.855469 15.84375 19.898438 15.84375 19.921875 C 15.84375 19.988281 16.339844 20.445312 16.445312 20.472656 C 16.496094 20.484375 16.539062 20.507812 16.539062 20.523438 C 16.539062 20.558594 16.792969 20.675781 16.953125 20.714844 L 17.066406 20.742188 L 17.066406 18.738281 C 17.066406 16.4375 17.113281 16.640625 16.625 16.882812 "/>
<path style=" stroke:none;fill-rule:evenodd;fill:rgb(1.568627%,1.568627%,1.568627%);fill-opacity:1;" d="M 22.664062 3.648438 L 22.664062 5.195312 L 29.398438 5.195312 L 29.398438 18.796875 L 32.460938 18.796875 L 32.460938 5.195312 L 39.117188 5.195312 L 39.117188 2.101562 L 22.664062 2.101562 L 22.664062 3.648438 M 41.414062 8.222656 C 41.421875 12.667969 41.4375 14.355469 41.472656 14.375 C 41.496094 14.390625 41.53125 14.511719 41.546875 14.644531 C 41.5625 14.773438 41.585938 14.878906 41.605469 14.878906 C 41.621094 14.878906 41.660156 15 41.6875 15.148438 C 41.71875 15.296875 41.753906 15.414062 41.773438 15.414062 C 41.789062 15.414062 41.816406 15.46875 41.832031 15.527344 C 41.855469 15.636719 42.015625 15.992188 42.058594 16.035156 C 42.070312 16.046875 42.105469 16.109375 42.140625 16.179688 C 42.203125 16.308594 42.214844 16.324219 42.34375 16.480469 C 42.386719 16.535156 42.433594 16.613281 42.445312 16.652344 C 42.460938 16.695312 42.496094 16.738281 42.53125 16.75 C 42.5625 16.761719 42.589844 16.792969 42.589844 16.816406 C 42.589844 16.871094 43.304688 17.601562 43.355469 17.601562 C 43.375 17.601562 43.429688 17.648438 43.480469 17.703125 C 43.527344 17.761719 43.597656 17.804688 43.628906 17.804688 C 43.664062 17.804688 43.691406 17.824219 43.691406 17.847656 C 43.691406 17.871094 43.738281 17.910156 43.792969 17.929688 C 43.851562 17.953125 43.894531 17.988281 43.894531 18.007812 C 43.894531 18.03125 43.949219 18.058594 44.019531 18.074219 C 44.085938 18.089844 44.140625 18.117188 44.140625 18.136719 C 44.140625 18.15625 44.214844 18.195312 44.304688 18.222656 C 44.394531 18.25 44.46875 18.285156 44.46875 18.304688 C 44.46875 18.320312 44.558594 18.359375 44.671875 18.386719 C 44.785156 18.417969 44.875 18.453125 44.875 18.46875 C 44.875 18.484375 44.945312 18.511719 45.027344 18.527344 C 45.113281 18.542969 45.191406 18.570312 45.203125 18.589844 C 45.214844 18.609375 45.421875 18.648438 45.664062 18.679688 C 45.902344 18.707031 46.101562 18.746094 46.101562 18.761719 C 46.101562 18.78125 48.121094 18.796875 50.59375 18.796875 L 55.085938 18.796875 L 55.085938 15.703125 L 50.722656 15.703125 C 48.324219 15.703125 46.34375 15.6875 46.324219 15.667969 C 46.300781 15.652344 46.179688 15.613281 46.050781 15.585938 C 45.921875 15.554688 45.816406 15.519531 45.816406 15.503906 C 45.816406 15.488281 45.746094 15.449219 45.664062 15.417969 C 45.492188 15.355469 45.484375 15.347656 45.160156 15.042969 C 45.027344 14.914062 44.917969 14.789062 44.917969 14.761719 C 44.917969 14.734375 44.890625 14.703125 44.863281 14.691406 C 44.832031 14.679688 44.78125 14.605469 44.753906 14.527344 C 44.722656 14.449219 44.683594 14.386719 44.667969 14.386719 C 44.652344 14.386719 44.628906 14.320312 44.613281 14.242188 C 44.597656 14.167969 44.566406 14.09375 44.539062 14.085938 C 44.5 14.074219 44.484375 12.746094 44.476562 8.085938 L 44.464844 2.101562 L 41.402344 2.101562 L 41.414062 8.222656 M 64.65625 2.257812 C 64.613281 2.339844 64.566406 2.421875 64.554688 2.433594 C 64.539062 2.441406 64.507812 2.523438 64.480469 2.605469 C 64.449219 2.691406 64.414062 2.761719 64.394531 2.761719 C 64.375 2.761719 64.347656 2.816406 64.332031 2.886719 C 64.316406 2.953125 64.292969 3.007812 64.273438 3.007812 C 64.257812 3.007812 64.21875 3.082031 64.191406 3.171875 C 64.160156 3.265625 64.121094 3.339844 64.105469 3.339844 C 64.089844 3.339844 64.0625 3.394531 64.046875 3.460938 C 64.03125 3.53125 64.007812 3.585938 63.988281 3.585938 C 63.972656 3.585938 63.933594 3.660156 63.902344 3.75 C 63.875 3.839844 63.835938 3.914062 63.820312 3.914062 C 63.800781 3.914062 63.777344 3.96875 63.761719 4.035156 C 63.746094 4.101562 63.699219 4.199219 63.65625 4.25 C 63.613281 4.300781 63.578125 4.367188 63.578125 4.394531 C 63.578125 4.425781 63.5625 4.453125 63.539062 4.453125 C 63.519531 4.453125 63.480469 4.519531 63.453125 4.605469 C 63.425781 4.691406 63.390625 4.769531 63.378906 4.78125 C 63.335938 4.816406 63.128906 5.253906 63.128906 5.304688 C 63.128906 5.328125 63.113281 5.359375 63.097656 5.363281 C 63.058594 5.382812 62.84375 5.820312 62.84375 5.882812 C 62.84375 5.914062 62.824219 5.933594 62.804688 5.933594 C 62.78125 5.933594 62.742188 6.007812 62.714844 6.101562 C 62.6875 6.191406 62.652344 6.265625 62.636719 6.265625 C 62.617188 6.265625 62.59375 6.320312 62.578125 6.390625 C 62.5625 6.457031 62.535156 6.511719 62.515625 6.511719 C 62.496094 6.511719 62.457031 6.582031 62.429688 6.667969 C 62.402344 6.753906 62.371094 6.832031 62.355469 6.84375 C 62.292969 6.894531 61.660156 8.160156 61.660156 8.234375 C 61.660156 8.261719 61.640625 8.285156 61.617188 8.285156 C 61.597656 8.285156 61.566406 8.332031 61.550781 8.386719 C 61.539062 8.445312 61.511719 8.492188 61.496094 8.492188 C 61.480469 8.492188 61.445312 8.566406 61.417969 8.65625 C 61.390625 8.746094 61.351562 8.820312 61.332031 8.820312 C 61.3125 8.820312 61.285156 8.875 61.269531 8.945312 C 61.253906 9.011719 61.230469 9.066406 61.210938 9.066406 C 61.195312 9.066406 61.15625 9.140625 61.128906 9.234375 C 61.097656 9.324219 61.0625 9.398438 61.042969 9.398438 C 61.027344 9.398438 60.992188 9.480469 60.964844 9.582031 C 60.9375 9.683594 60.898438 9.769531 60.878906 9.769531 C 60.859375 9.769531 60.832031 9.816406 60.816406 9.871094 C 60.804688 9.929688 60.777344 9.976562 60.757812 9.976562 C 60.742188 9.976562 60.714844 10.027344 60.699219 10.09375 C 60.683594 10.160156 60.636719 10.257812 60.59375 10.308594 C 60.550781 10.359375 60.515625 10.425781 60.515625 10.457031 C 60.515625 10.484375 60.5 10.511719 60.480469 10.511719 C 60.460938 10.511719 60.421875 10.585938 60.390625 10.675781 C 60.363281 10.765625 60.324219 10.839844 60.308594 10.839844 C 60.289062 10.839844 60.265625 10.894531 60.25 10.964844 C 60.234375 11.03125 60.207031 11.085938 60.1875 11.085938 C 60.167969 11.085938 60.128906 11.160156 60.101562 11.253906 C 60.074219 11.34375 60.039062 11.417969 60.023438 11.417969 C 60.011719 11.417969 59.972656 11.492188 59.945312 11.582031 C 59.914062 11.671875 59.875 11.746094 59.859375 11.746094 C 59.839844 11.746094 59.816406 11.804688 59.800781 11.871094 C 59.785156 11.9375 59.757812 11.996094 59.738281 11.996094 C 59.71875 11.996094 59.679688 12.070312 59.652344 12.160156 C 59.625 12.25 59.589844 12.324219 59.574219 12.324219 C 59.554688 12.324219 59.53125 12.378906 59.515625 12.449219 C 59.5 12.515625 59.472656 12.570312 59.453125 12.570312 C 59.433594 12.570312 59.394531 12.644531 59.367188 12.738281 C 59.339844 12.828125 59.300781 12.902344 59.285156 12.902344 C 59.265625 12.902344 59.25 12.921875 59.25 12.945312 C 59.25 12.96875 59.179688 13.113281 59.089844 13.265625 C 59.003906 13.417969 58.917969 13.585938 58.902344 13.644531 C 58.886719 13.699219 58.859375 13.753906 58.84375 13.765625 C 58.804688 13.800781 58.597656 14.238281 58.597656 14.289062 C 58.597656 14.316406 58.582031 14.34375 58.5625 14.351562 C 58.542969 14.359375 58.410156 14.605469 58.269531 14.902344 C 58.125 15.195312 57.996094 15.445312 57.980469 15.457031 C 57.964844 15.46875 57.929688 15.550781 57.902344 15.640625 C 57.871094 15.730469 57.824219 15.832031 57.792969 15.859375 C 57.761719 15.890625 57.738281 15.941406 57.738281 15.976562 C 57.738281 16.007812 57.722656 16.035156 57.707031 16.035156 C 57.6875 16.035156 57.648438 16.097656 57.617188 16.179688 C 57.585938 16.257812 57.542969 16.324219 57.527344 16.324219 C 57.507812 16.324219 57.492188 16.34375 57.492188 16.371094 C 57.492188 16.421875 57.285156 16.867188 57.242188 16.898438 C 57.230469 16.910156 57.195312 16.988281 57.167969 17.074219 C 57.140625 17.160156 57.105469 17.230469 57.085938 17.230469 C 57.066406 17.230469 57.039062 17.285156 57.023438 17.351562 C 57.007812 17.421875 56.984375 17.476562 56.964844 17.476562 C 56.949219 17.476562 56.910156 17.550781 56.882812 17.640625 C 56.851562 17.730469 56.8125 17.804688 56.796875 17.804688 C 56.777344 17.804688 56.753906 17.863281 56.738281 17.929688 C 56.722656 18 56.699219 18.054688 56.683594 18.054688 C 56.664062 18.054688 56.628906 18.125 56.597656 18.207031 C 56.566406 18.292969 56.53125 18.371094 56.519531 18.382812 C 56.484375 18.410156 56.351562 18.65625 56.351562 18.6875 C 56.351562 18.769531 59.789062 18.710938 59.808594 18.628906 C 59.820312 18.585938 59.84375 18.546875 59.859375 18.546875 C 59.875 18.546875 59.914062 18.472656 59.945312 18.382812 C 59.972656 18.292969 60.007812 18.21875 60.023438 18.21875 C 60.039062 18.21875 60.074219 18.152344 60.105469 18.074219 C 60.136719 17.996094 60.175781 17.929688 60.191406 17.929688 C 60.210938 17.929688 60.234375 17.875 60.25 17.804688 C 60.265625 17.738281 60.292969 17.683594 60.3125 17.683594 C 60.328125 17.683594 60.367188 17.613281 60.394531 17.527344 C 60.421875 17.441406 60.457031 17.363281 60.46875 17.351562 C 60.511719 17.320312 60.71875 16.882812 60.71875 16.828125 C 60.71875 16.800781 60.734375 16.777344 60.753906 16.777344 C 60.773438 16.777344 60.8125 16.703125 60.839844 16.609375 C 60.871094 16.519531 60.910156 16.445312 60.925781 16.445312 C 60.945312 16.445312 60.96875 16.390625 60.984375 16.324219 C 61 16.253906 61.027344 16.199219 61.046875 16.199219 C 61.066406 16.199219 61.105469 16.125 61.132812 16.035156 C 61.160156 15.945312 61.195312 15.871094 61.214844 15.871094 C 61.234375 15.871094 61.25 15.84375 61.25 15.8125 C 61.25 15.78125 61.277344 15.734375 61.308594 15.707031 C 61.339844 15.679688 61.390625 15.589844 61.417969 15.503906 C 61.445312 15.421875 61.480469 15.34375 61.496094 15.332031 C 61.511719 15.320312 61.578125 15.203125 61.640625 15.066406 C 61.703125 14.929688 61.765625 14.808594 61.78125 14.796875 C 61.796875 14.785156 61.832031 14.703125 61.863281 14.613281 C 61.890625 14.523438 61.941406 14.425781 61.972656 14.394531 C 62 14.363281 62.027344 14.3125 62.027344 14.277344 C 62.027344 14.246094 62.042969 14.21875 62.0625 14.21875 C 62.082031 14.21875 62.121094 14.136719 62.148438 14.035156 C 62.175781 13.933594 62.214844 13.847656 62.234375 13.847656 C 62.253906 13.847656 62.28125 13.804688 62.296875 13.746094 C 62.308594 13.691406 62.332031 13.644531 62.351562 13.644531 C 62.367188 13.644531 62.402344 13.570312 62.429688 13.476562 C 62.457031 13.386719 62.496094 13.3125 62.515625 13.3125 C 62.535156 13.3125 62.5625 13.257812 62.578125 13.191406 C 62.59375 13.121094 62.621094 13.066406 62.636719 13.066406 C 62.65625 13.066406 62.683594 13.011719 62.699219 12.941406 C 62.714844 12.875 62.75 12.804688 62.777344 12.789062 C 62.808594 12.769531 62.851562 12.6875 62.878906 12.601562 C 62.90625 12.519531 62.945312 12.449219 62.964844 12.449219 C 62.984375 12.449219 63.011719 12.390625 63.027344 12.324219 C 63.039062 12.257812 63.066406 12.199219 63.085938 12.199219 C 63.101562 12.199219 63.140625 12.125 63.167969 12.035156 C 63.199219 11.945312 63.238281 11.871094 63.253906 11.871094 C 63.269531 11.871094 63.296875 11.816406 63.3125 11.746094 C 63.328125 11.679688 63.355469 11.625 63.375 11.625 C 63.394531 11.625 63.433594 11.550781 63.460938 11.457031 C 63.488281 11.367188 63.523438 11.292969 63.539062 11.292969 C 63.558594 11.292969 63.582031 11.238281 63.597656 11.171875 C 63.613281 11.101562 63.640625 11.046875 63.660156 11.046875 C 63.679688 11.046875 63.71875 10.972656 63.746094 10.882812 C 63.773438 10.789062 63.808594 10.714844 63.824219 10.714844 C 63.835938 10.714844 63.875 10.640625 63.902344 10.550781 C 63.933594 10.460938 63.972656 10.386719 63.988281 10.386719 C 64.007812 10.386719 64.03125 10.332031 64.046875 10.261719 C 64.0625 10.195312 64.089844 10.140625 64.105469 10.140625 C 64.125 10.140625 64.164062 10.078125 64.191406 10.003906 C 64.222656 9.933594 64.257812 9.863281 64.269531 9.851562 C 64.3125 9.8125 64.515625 9.378906 64.515625 9.324219 C 64.515625 9.296875 64.535156 9.273438 64.554688 9.273438 C 64.578125 9.273438 64.617188 9.199219 64.644531 9.109375 C 64.671875 9.019531 64.707031 8.945312 64.722656 8.945312 C 64.742188 8.945312 64.765625 8.910156 64.773438 8.871094 C 64.792969 8.804688 64.792969 8.804688 64.796875 8.871094 C 64.800781 8.910156 64.820312 8.945312 64.839844 8.945312 C 64.863281 8.945312 64.902344 9.007812 64.929688 9.089844 C 64.960938 9.167969 64.996094 9.234375 65.011719 9.234375 C 65.027344 9.234375 65.054688 9.289062 65.066406 9.355469 C 65.082031 9.425781 65.109375 9.480469 65.128906 9.480469 C 65.148438 9.480469 65.1875 9.550781 65.214844 9.636719 C 65.242188 9.71875 65.273438 9.796875 65.289062 9.808594 C 65.328125 9.84375 65.539062 10.28125 65.539062 10.332031 C 65.539062 10.359375 65.550781 10.386719 65.566406 10.394531 C 65.605469 10.410156 65.824219 10.851562 65.824219 10.914062 C 65.824219 10.9375 65.835938 10.964844 65.855469 10.972656 C 65.875 10.980469 65.984375 11.179688 66.101562 11.417969 C 66.320312 11.863281 66.398438 12 66.441406 12.035156 C 66.453125 12.046875 66.488281 12.125 66.515625 12.210938 C 66.542969 12.296875 66.582031 12.367188 66.601562 12.367188 C 66.625 12.367188 66.640625 12.386719 66.640625 12.417969 C 66.640625 12.480469 66.855469 12.917969 66.894531 12.9375 C 66.910156 12.941406 66.925781 12.972656 66.925781 12.996094 C 66.925781 13.050781 67.132812 13.488281 67.175781 13.519531 C 67.1875 13.53125 67.222656 13.609375 67.25 13.695312 C 67.277344 13.78125 67.316406 13.847656 67.335938 13.847656 C 67.351562 13.847656 67.378906 13.90625 67.394531 13.972656 C 67.410156 14.042969 67.4375 14.097656 67.453125 14.097656 C 67.46875 14.097656 67.507812 14.171875 67.539062 14.261719 C 67.566406 14.351562 67.605469 14.425781 67.625 14.425781 C 67.640625 14.425781 67.667969 14.484375 67.683594 14.554688 C 67.695312 14.621094 67.734375 14.6875 67.765625 14.699219 C 67.792969 14.710938 67.832031 14.777344 67.84375 14.84375 C 67.859375 14.910156 67.886719 14.960938 67.902344 14.960938 C 67.917969 14.960938 67.957031 15.035156 67.988281 15.128906 C 68.015625 15.21875 68.054688 15.292969 68.074219 15.292969 C 68.089844 15.292969 68.117188 15.347656 68.128906 15.414062 C 68.144531 15.484375 68.171875 15.539062 68.191406 15.539062 C 68.214844 15.539062 68.25 15.613281 68.277344 15.703125 C 68.304688 15.796875 68.339844 15.871094 68.359375 15.871094 C 68.375 15.871094 68.402344 15.925781 68.417969 15.992188 C 68.429688 16.0625 68.457031 16.117188 68.476562 16.117188 C 68.496094 16.117188 68.535156 16.1875 68.5625 16.269531 C 68.589844 16.355469 68.621094 16.433594 68.636719 16.445312 C 68.675781 16.480469 68.886719 16.925781 68.886719 16.976562 C 68.886719 17 68.902344 17.023438 68.921875 17.023438 C 68.945312 17.023438 68.984375 17.089844 69.007812 17.167969 C 69.035156 17.246094 69.070312 17.3125 69.09375 17.3125 C 69.113281 17.3125 69.140625 17.359375 69.15625 17.414062 C 69.167969 17.472656 69.195312 17.519531 69.210938 17.519531 C 69.230469 17.519531 69.265625 17.601562 69.292969 17.703125 C 69.324219 17.804688 69.359375 17.890625 69.371094 17.890625 C 69.386719 17.890625 69.453125 18.003906 69.515625 18.148438 C 69.582031 18.289062 69.644531 18.414062 69.660156 18.425781 C 69.675781 18.4375 69.707031 18.5 69.730469 18.570312 L 69.769531 18.691406 L 71.492188 18.703125 C 73.167969 18.714844 73.214844 18.710938 73.214844 18.632812 C 73.214844 18.589844 73.199219 18.550781 73.183594 18.542969 C 73.164062 18.535156 73.0625 18.351562 72.953125 18.136719 C 72.722656 17.671875 72.632812 17.503906 72.597656 17.476562 C 72.582031 17.464844 72.550781 17.386719 72.523438 17.300781 C 72.496094 17.214844 72.457031 17.148438 72.433594 17.148438 C 72.414062 17.148438 72.398438 17.125 72.398438 17.101562 C 72.398438 17.027344 72.179688 16.570312 72.144531 16.570312 C 72.125 16.570312 72.113281 16.546875 72.113281 16.519531 C 72.113281 16.464844 71.90625 16.027344 71.863281 15.992188 C 71.847656 15.980469 71.816406 15.902344 71.789062 15.816406 C 71.761719 15.734375 71.722656 15.664062 71.703125 15.664062 C 71.683594 15.664062 71.65625 15.605469 71.640625 15.539062 C 71.628906 15.472656 71.601562 15.414062 71.585938 15.414062 C 71.570312 15.414062 71.53125 15.351562 71.5 15.273438 C 71.46875 15.191406 71.429688 15.128906 71.417969 15.128906 C 71.402344 15.128906 71.367188 15.054688 71.339844 14.960938 C 71.3125 14.871094 71.277344 14.796875 71.253906 14.796875 C 71.234375 14.796875 71.207031 14.742188 71.191406 14.671875 C 71.179688 14.605469 71.152344 14.550781 71.136719 14.550781 C 71.117188 14.550781 71.078125 14.476562 71.050781 14.386719 C 71.019531 14.292969 70.980469 14.21875 70.964844 14.21875 C 70.949219 14.21875 70.921875 14.164062 70.90625 14.097656 C 70.890625 14.027344 70.867188 13.972656 70.847656 13.972656 C 70.832031 13.972656 70.792969 13.898438 70.765625 13.808594 C 70.734375 13.71875 70.695312 13.644531 70.679688 13.644531 C 70.664062 13.644531 70.636719 13.585938 70.621094 13.519531 C 70.605469 13.453125 70.578125 13.394531 70.558594 13.394531 C 70.539062 13.394531 70.503906 13.328125 70.476562 13.242188 C 70.449219 13.15625 70.414062 13.078125 70.402344 13.066406 C 70.359375 13.03125 70.152344 12.589844 70.152344 12.535156 C 70.152344 12.511719 70.136719 12.488281 70.117188 12.488281 C 70.101562 12.488281 70.0625 12.425781 70.035156 12.34375 C 70.007812 12.265625 69.964844 12.199219 69.945312 12.199219 C 69.921875 12.199219 69.90625 12.175781 69.90625 12.140625 C 69.90625 12.109375 69.882812 12.058594 69.851562 12.027344 C 69.820312 11.996094 69.773438 11.898438 69.742188 11.808594 C 69.714844 11.71875 69.664062 11.621094 69.636719 11.589844 C 69.605469 11.558594 69.578125 11.507812 69.578125 11.476562 C 69.578125 11.445312 69.5625 11.417969 69.539062 11.417969 C 69.515625 11.417969 69.5 11.394531 69.5 11.367188 C 69.5 11.300781 69.125 10.535156 69.082031 10.519531 C 69.066406 10.511719 69.050781 10.484375 69.050781 10.457031 C 69.050781 10.40625 68.839844 9.96875 68.800781 9.933594 C 68.789062 9.921875 68.757812 9.855469 68.734375 9.789062 C 68.710938 9.722656 68.640625 9.582031 68.585938 9.480469 C 68.527344 9.378906 68.457031 9.25 68.429688 9.191406 C 68.398438 9.136719 68.367188 9.078125 68.351562 9.066406 C 68.335938 9.058594 68.304688 8.976562 68.277344 8.894531 C 68.25 8.808594 68.210938 8.738281 68.191406 8.738281 C 68.171875 8.738281 68.144531 8.683594 68.128906 8.613281 C 68.117188 8.546875 68.089844 8.492188 68.074219 8.492188 C 68.054688 8.492188 68.015625 8.417969 67.988281 8.328125 C 67.957031 8.234375 67.917969 8.160156 67.902344 8.160156 C 67.886719 8.160156 67.859375 8.105469 67.84375 8.039062 C 67.828125 7.96875 67.804688 7.914062 67.785156 7.914062 C 67.769531 7.914062 67.730469 7.839844 67.703125 7.75 C 67.671875 7.660156 67.636719 7.585938 67.621094 7.585938 C 67.605469 7.585938 67.570312 7.511719 67.542969 7.417969 C 67.515625 7.328125 67.476562 7.253906 67.457031 7.253906 C 67.4375 7.253906 67.410156 7.199219 67.394531 7.128906 C 67.378906 7.0625 67.355469 7.007812 67.335938 7.007812 C 67.320312 7.007812 67.28125 6.933594 67.253906 6.84375 C 67.222656 6.75 67.183594 6.675781 67.167969 6.675781 C 67.152344 6.675781 67.125 6.621094 67.109375 6.554688 C 67.09375 6.484375 67.070312 6.429688 67.054688 6.429688 C 67.035156 6.429688 66.996094 6.367188 66.964844 6.285156 C 66.9375 6.207031 66.898438 6.140625 66.882812 6.140625 C 66.867188 6.140625 66.839844 6.09375 66.828125 6.039062 C 66.8125 5.980469 66.785156 5.933594 66.765625 5.933594 C 66.746094 5.933594 66.710938 5.851562 66.679688 5.75 C 66.652344 5.648438 66.613281 5.566406 66.59375 5.566406 C 66.578125 5.566406 66.539062 5.492188 66.511719 5.398438 C 66.484375 5.308594 66.449219 5.234375 66.433594 5.234375 C 66.414062 5.234375 66.390625 5.179688 66.375 5.109375 C 66.359375 5.042969 66.332031 4.988281 66.3125 4.988281 C 66.292969 4.988281 66.253906 4.914062 66.226562 4.824219 C 66.199219 4.730469 66.164062 4.65625 66.144531 4.65625 C 66.125 4.65625 66.109375 4.632812 66.109375 4.597656 C 66.109375 4.566406 66.085938 4.515625 66.054688 4.484375 C 66.023438 4.453125 65.976562 4.355469 65.945312 4.265625 C 65.917969 4.175781 65.867188 4.078125 65.835938 4.046875 C 65.808594 4.015625 65.78125 3.964844 65.78125 3.933594 C 65.78125 3.902344 65.765625 3.875 65.742188 3.875 C 65.71875 3.875 65.699219 3.851562 65.699219 3.820312 C 65.699219 3.792969 65.636719 3.648438 65.558594 3.503906 C 65.480469 3.355469 65.394531 3.1875 65.367188 3.132812 C 65.335938 3.074219 65.304688 3.019531 65.289062 3.007812 C 65.273438 2.996094 65.242188 2.917969 65.214844 2.832031 C 65.1875 2.75 65.148438 2.679688 65.128906 2.679688 C 65.109375 2.679688 65.082031 2.625 65.066406 2.554688 C 65.054688 2.488281 65.027344 2.433594 65.011719 2.433594 C 64.992188 2.433594 64.957031 2.359375 64.929688 2.265625 C 64.867188 2.050781 64.761719 2.046875 64.65625 2.257812 M 76.878906 2.152344 C 76.703125 2.175781 76.5625 2.207031 76.5625 2.226562 C 76.5625 2.242188 76.480469 2.269531 76.378906 2.285156 C 76.277344 2.300781 76.195312 2.328125 76.195312 2.347656 C 76.195312 2.367188 76.140625 2.390625 76.074219 2.40625 C 75.914062 2.4375 75.585938 2.589844 75.511719 2.664062 C 75.480469 2.695312 75.429688 2.71875 75.398438 2.71875 C 75.367188 2.71875 75.320312 2.746094 75.289062 2.773438 C 75.257812 2.804688 75.207031 2.847656 75.167969 2.867188 C 74.867188 3.042969 74.074219 3.851562 74.074219 3.984375 C 74.070312 4.007812 74.042969 4.042969 74.011719 4.054688 C 73.976562 4.066406 73.949219 4.105469 73.949219 4.136719 C 73.949219 4.167969 73.921875 4.207031 73.890625 4.21875 C 73.859375 4.230469 73.820312 4.296875 73.808594 4.367188 C 73.792969 4.4375 73.765625 4.492188 73.75 4.492188 C 73.707031 4.492188 73.5 5.003906 73.5 5.117188 C 73.5 5.15625 73.484375 5.191406 73.464844 5.199219 C 73.3125 5.265625 73.183594 6.972656 73.292969 7.5 C 73.320312 7.625 73.359375 7.824219 73.382812 7.945312 C 73.40625 8.0625 73.441406 8.160156 73.457031 8.160156 C 73.472656 8.160156 73.507812 8.261719 73.539062 8.386719 C 73.566406 8.511719 73.601562 8.613281 73.621094 8.613281 C 73.640625 8.613281 73.667969 8.660156 73.679688 8.71875 C 73.695312 8.773438 73.722656 8.820312 73.742188 8.820312 C 73.761719 8.820312 73.792969 8.878906 73.808594 8.945312 C 73.820312 9.015625 73.859375 9.082031 73.890625 9.097656 C 73.921875 9.109375 73.949219 9.144531 73.949219 9.175781 C 73.949219 9.210938 73.976562 9.246094 74.007812 9.257812 C 74.039062 9.269531 74.074219 9.320312 74.085938 9.371094 C 74.117188 9.5 74.65625 10.140625 74.730469 10.140625 C 74.75 10.140625 74.816406 10.195312 74.882812 10.261719 C 74.945312 10.332031 75.019531 10.386719 75.042969 10.386719 C 75.070312 10.386719 75.109375 10.421875 75.132812 10.464844 C 75.15625 10.507812 75.230469 10.558594 75.296875 10.574219 C 75.363281 10.585938 75.417969 10.617188 75.417969 10.636719 C 75.417969 10.691406 75.988281 10.957031 76.226562 11.011719 C 76.34375 11.039062 76.441406 11.074219 76.441406 11.09375 C 76.441406 11.109375 76.550781 11.136719 76.6875 11.152344 C 76.820312 11.167969 76.941406 11.199219 76.953125 11.21875 C 76.964844 11.238281 78.460938 11.253906 80.289062 11.253906 C 83.375 11.253906 84.082031 11.277344 84.269531 11.367188 C 84.308594 11.390625 84.433594 11.449219 84.546875 11.503906 C 85.328125 11.882812 85.808594 12.652344 85.800781 13.519531 C 85.800781 13.796875 85.78125 13.949219 85.734375 14.035156 C 85.699219 14.101562 85.667969 14.199219 85.667969 14.25 C 85.667969 14.296875 85.644531 14.363281 85.613281 14.394531 C 85.582031 14.425781 85.542969 14.492188 85.527344 14.539062 C 85.511719 14.589844 85.4375 14.699219 85.359375 14.785156 C 85.285156 14.871094 85.210938 14.972656 85.195312 15.015625 C 85.183594 15.054688 85.148438 15.085938 85.117188 15.085938 C 85.089844 15.085938 85.019531 15.132812 84.96875 15.1875 C 84.914062 15.246094 84.851562 15.292969 84.824219 15.292969 C 84.800781 15.292969 84.769531 15.316406 84.757812 15.351562 C 84.746094 15.382812 84.679688 15.421875 84.609375 15.4375 C 84.539062 15.449219 84.484375 15.476562 84.484375 15.496094 C 84.484375 15.511719 84.371094 15.550781 84.230469 15.578125 C 84.089844 15.605469 83.941406 15.644531 83.902344 15.664062 C 83.808594 15.71875 78.300781 15.71875 78.207031 15.664062 C 78.167969 15.644531 78.019531 15.605469 77.878906 15.578125 C 77.738281 15.550781 77.625 15.511719 77.625 15.496094 C 77.625 15.476562 77.566406 15.449219 77.5 15.4375 C 77.429688 15.421875 77.363281 15.382812 77.351562 15.351562 C 77.339844 15.316406 77.304688 15.292969 77.273438 15.292969 C 77.238281 15.292969 77.203125 15.265625 77.191406 15.234375 C 77.179688 15.203125 77.117188 15.15625 77.058594 15.128906 C 76.996094 15.105469 76.917969 15.03125 76.878906 14.972656 C 76.84375 14.910156 76.78125 14.820312 76.738281 14.777344 C 76.671875 14.707031 76.539062 14.472656 76.390625 14.167969 C 76.371094 14.125 76.335938 13.933594 76.308594 13.742188 L 76.265625 13.394531 L 73.253906 13.394531 L 73.257812 13.777344 C 73.257812 13.988281 73.277344 14.242188 73.300781 14.34375 C 73.324219 14.445312 73.359375 14.632812 73.382812 14.753906 C 73.402344 14.878906 73.4375 14.992188 73.457031 15.003906 C 73.476562 15.015625 73.503906 15.097656 73.519531 15.1875 C 73.550781 15.359375 73.703125 15.714844 73.753906 15.738281 C 73.773438 15.746094 73.785156 15.777344 73.785156 15.804688 C 73.785156 15.859375 73.980469 16.246094 74.023438 16.28125 C 74.039062 16.292969 74.078125 16.359375 74.113281 16.425781 C 74.144531 16.492188 74.195312 16.5625 74.226562 16.582031 C 74.253906 16.601562 74.277344 16.636719 74.277344 16.667969 C 74.277344 16.695312 74.328125 16.761719 74.398438 16.820312 C 74.464844 16.875 74.519531 16.9375 74.519531 16.957031 C 74.519531 17.003906 74.992188 17.476562 75.035156 17.476562 C 75.050781 17.476562 75.101562 17.515625 75.148438 17.5625 C 75.316406 17.726562 75.523438 17.890625 75.632812 17.941406 C 75.695312 17.96875 75.746094 18.003906 75.746094 18.019531 C 75.746094 18.035156 75.800781 18.058594 75.863281 18.074219 C 75.929688 18.089844 75.992188 18.125 76.003906 18.152344 C 76.015625 18.183594 76.089844 18.21875 76.171875 18.234375 C 76.25 18.25 76.316406 18.28125 76.316406 18.300781 C 76.316406 18.320312 76.410156 18.359375 76.523438 18.386719 C 76.632812 18.417969 76.726562 18.453125 76.726562 18.472656 C 76.726562 18.488281 76.8125 18.515625 76.917969 18.53125 C 77.027344 18.546875 77.125 18.574219 77.132812 18.589844 C 77.25 18.769531 84.859375 18.769531 84.972656 18.589844 C 84.984375 18.574219 85.074219 18.546875 85.167969 18.527344 C 85.265625 18.511719 85.339844 18.484375 85.339844 18.46875 C 85.339844 18.453125 85.441406 18.414062 85.566406 18.386719 C 85.691406 18.359375 85.789062 18.320312 85.789062 18.304688 C 85.789062 18.289062 85.863281 18.25 85.953125 18.21875 C 86.042969 18.1875 86.117188 18.152344 86.117188 18.136719 C 86.117188 18.125 86.167969 18.089844 86.230469 18.0625 C 86.4375 17.96875 86.566406 17.882812 86.566406 17.84375 C 86.566406 17.824219 86.59375 17.804688 86.628906 17.804688 C 86.664062 17.804688 86.703125 17.777344 86.714844 17.746094 C 86.726562 17.714844 86.773438 17.675781 86.820312 17.660156 C 86.929688 17.625 87.691406 16.855469 87.726562 16.746094 C 87.742188 16.699219 87.78125 16.648438 87.8125 16.636719 C 87.847656 16.625 87.875 16.585938 87.875 16.550781 C 87.875 16.515625 87.890625 16.488281 87.914062 16.488281 C 87.9375 16.488281 87.972656 16.441406 87.996094 16.382812 C 88.015625 16.328125 88.050781 16.28125 88.074219 16.28125 C 88.09375 16.28125 88.125 16.226562 88.136719 16.160156 C 88.152344 16.09375 88.1875 16.03125 88.21875 16.019531 C 88.25 16.007812 88.285156 15.941406 88.300781 15.871094 C 88.316406 15.800781 88.34375 15.746094 88.359375 15.746094 C 88.378906 15.746094 88.414062 15.644531 88.445312 15.519531 C 88.476562 15.394531 88.511719 15.292969 88.527344 15.292969 C 88.546875 15.292969 88.570312 15.222656 88.585938 15.136719 C 88.601562 15.050781 88.632812 14.972656 88.652344 14.960938 C 88.667969 14.949219 88.707031 14.742188 88.738281 14.496094 C 88.765625 14.253906 88.804688 14.054688 88.820312 14.054688 C 88.839844 14.054688 88.851562 13.796875 88.851562 13.476562 C 88.851562 13.121094 88.835938 12.902344 88.8125 12.902344 C 88.789062 12.902344 88.773438 12.835938 88.773438 12.757812 C 88.773438 12.535156 88.683594 11.996094 88.648438 11.996094 C 88.628906 11.996094 88.601562 11.910156 88.585938 11.808594 C 88.570312 11.707031 88.546875 11.625 88.53125 11.625 C 88.515625 11.625 88.480469 11.539062 88.453125 11.4375 C 88.425781 11.335938 88.386719 11.253906 88.363281 11.253906 C 88.339844 11.253906 88.324219 11.230469 88.324219 11.203125 C 88.324219 11.148438 88.117188 10.710938 88.074219 10.675781 C 88.058594 10.664062 88.023438 10.609375 87.996094 10.554688 C 87.9375 10.4375 87.882812 10.367188 87.78125 10.273438 C 87.742188 10.234375 87.710938 10.183594 87.710938 10.160156 C 87.707031 10.117188 86.964844 9.355469 86.921875 9.355469 C 86.90625 9.355469 86.859375 9.324219 86.816406 9.285156 C 86.683594 9.164062 86.628906 9.125 86.523438 9.066406 C 86.46875 9.039062 86.414062 9.003906 86.402344 8.988281 C 86.375 8.957031 86.183594 8.847656 85.953125 8.738281 C 85.851562 8.691406 85.707031 8.617188 85.628906 8.578125 C 85.550781 8.535156 85.421875 8.488281 85.34375 8.46875 C 85.265625 8.453125 85.171875 8.425781 85.140625 8.40625 C 84.839844 8.242188 84.53125 8.226562 80.878906 8.203125 C 78.359375 8.1875 77.328125 8.167969 77.304688 8.136719 C 77.289062 8.113281 77.203125 8.066406 77.113281 8.039062 C 77.023438 8.007812 76.9375 7.960938 76.917969 7.929688 C 76.898438 7.898438 76.867188 7.871094 76.847656 7.871094 C 76.804688 7.871094 76.601562 7.691406 76.601562 7.648438 C 76.601562 7.621094 76.4375 7.375 76.394531 7.335938 C 76.289062 7.242188 76.246094 6.609375 76.328125 6.257812 C 76.375 6.035156 76.402344 5.984375 76.53125 5.863281 C 76.570312 5.824219 76.601562 5.777344 76.601562 5.757812 C 76.601562 5.699219 76.78125 5.523438 76.839844 5.523438 C 76.867188 5.523438 76.902344 5.496094 76.914062 5.464844 C 76.925781 5.429688 76.992188 5.394531 77.054688 5.378906 C 77.121094 5.363281 77.175781 5.335938 77.175781 5.316406 C 77.175781 5.210938 77.710938 5.195312 81 5.195312 C 84.3125 5.195312 84.933594 5.214844 84.933594 5.320312 C 84.933594 5.339844 84.953125 5.359375 84.976562 5.359375 C 85.023438 5.359375 85.25 5.523438 85.40625 5.667969 C 85.453125 5.714844 85.507812 5.792969 85.523438 5.84375 C 85.539062 5.894531 85.566406 5.933594 85.585938 5.933594 C 85.605469 5.933594 85.644531 6.003906 85.671875 6.089844 C 85.695312 6.175781 85.734375 6.261719 85.753906 6.285156 C 85.773438 6.304688 85.789062 6.421875 85.789062 6.542969 L 85.789062 6.761719 L 88.851562 6.761719 L 88.851562 6.429688 C 88.851562 6.238281 88.835938 6.101562 88.8125 6.101562 C 88.789062 6.101562 88.773438 6.035156 88.773438 5.957031 C 88.773438 5.761719 88.679688 5.234375 88.644531 5.234375 C 88.628906 5.234375 88.605469 5.167969 88.589844 5.089844 C 88.574219 5.011719 88.550781 4.945312 88.53125 4.945312 C 88.515625 4.945312 88.476562 4.851562 88.449219 4.738281 C 88.421875 4.625 88.382812 4.535156 88.363281 4.535156 C 88.34375 4.535156 88.308594 4.484375 88.285156 4.421875 C 88.230469 4.289062 88.125 4.101562 88.035156 3.984375 C 87.8125 3.683594 87.144531 3.007812 87.074219 3.007812 C 87.042969 3.007812 87.015625 2.988281 87.015625 2.964844 C 87.015625 2.945312 86.96875 2.90625 86.914062 2.886719 C 86.859375 2.863281 86.8125 2.832031 86.8125 2.8125 C 86.8125 2.792969 86.746094 2.75 86.667969 2.71875 C 86.589844 2.6875 86.527344 2.652344 86.527344 2.636719 C 86.527344 2.617188 86.476562 2.59375 86.417969 2.578125 C 86.359375 2.5625 86.285156 2.523438 86.253906 2.492188 C 86.21875 2.457031 86.152344 2.433594 86.101562 2.433594 C 86.054688 2.433594 85.976562 2.40625 85.929688 2.375 C 85.886719 2.339844 85.773438 2.300781 85.6875 2.285156 C 85.597656 2.269531 85.515625 2.242188 85.503906 2.222656 C 85.425781 2.105469 77.757812 2.042969 76.878906 2.152344 "/>
</g>
</svg>
