<?xml version="1.0" standalone="no"?>
<!DOCTYPE svg PUBLIC "-//W3C//DTD SVG 20010904//EN"
 "http://www.w3.org/TR/2001/REC-SVG-20010904/DTD/svg10.dtd">
<svg version="1.0" xmlns="http://www.w3.org/2000/svg"
 width="100.000000pt" height="100.000000pt" viewBox="0 0 100.000000 100.000000"
 preserveAspectRatio="xMidYMid meet">

<g transform="translate(0.000000,100.000000) scale(0.100000,-0.100000)"
fill="#000000" stroke="none">
<path d="M0 500 l1 -500 359 0 c281 0 360 3 361 13 1 6 1 20 0 29 -3 28 9 21
20 -12 l11 -30 124 0 124 0 0 500 0 500 -40 0 -39 0 -3 -57 c-4 -78 -26 -83
-30 -6 l-3 58 -44 3 c-28 2 -47 -1 -52 -10 -7 -10 -9 -10 -9 0 0 8 -22 12 -75
12 -52 0 -75 -4 -75 -12 0 -9 -3 -9 -12 0 -7 7 -40 12 -78 12 -66 0 -66 0 -75
-32 -12 -39 -31 -35 -29 5 l2 27 -219 0 -219 0 0 -500z m217 383 c-3 -10 -5
-2 -5 17 0 19 2 27 5 18 2 -10 2 -26 0 -35z m-30 -60 c-2 -16 -4 -5 -4 22 0
28 2 40 4 28 2 -13 2 -35 0 -50z m453 28 c0 -22 -5 -41 -10 -43 -6 -2 -11 -29
-11 -61 -1 -31 -5 -60 -10 -63 -9 -5 -14 38 -10 89 2 17 -4 34 -13 40 -24 18
0 77 31 77 20 0 23 -5 23 -39z m-503 -48 c-2 -16 -4 -5 -4 22 0 28 2 40 4 28
2 -13 2 -35 0 -50z m413 20 c0 -34 -1 -35 -14 -17 -8 10 -10 21 -5 22 5 2 9
10 9 18 0 8 2 14 5 14 3 0 5 -17 5 -37z m140 5 c0 -21 -3 -29 -10 -22 -5 5 -7
19 -4 32 9 31 14 27 14 -10z m-626 7 c3 -8 1 -15 -4 -15 -6 0 -10 7 -10 15 0
8 2 15 4 15 2 0 6 -7 10 -15z m771 5 c-3 -5 -10 -10 -16 -10 -5 0 -9 5 -9 10
0 6 7 10 16 10 8 0 12 -4 9 -10z m125 -9 c0 -6 -4 -13 -10 -16 -5 -3 -10 1
-10 9 0 9 5 16 10 16 6 0 10 -4 10 -9z m-614 -88 c-11 -11 -17 4 -9 23 7 18 8
18 11 1 2 -10 1 -21 -2 -24z m381 -5 c-3 -7 -5 -2 -5 12 0 14 2 19 5 13 2 -7
2 -19 0 -25z m250 0 c-3 -7 -5 -2 -5 12 0 14 2 19 5 13 2 -7 2 -19 0 -25z
m-877 2 c0 -5 -4 -10 -10 -10 -5 0 -10 5 -10 10 0 6 5 10 10 10 6 0 10 -4 10
-10z m167 -47 c-3 -10 -5 -4 -5 12 0 17 2 24 5 18 2 -7 2 -21 0 -30z m218 -3
c3 -5 1 -10 -4 -10 -6 0 -11 5 -11 10 0 6 2 10 4 10 3 0 8 -4 11 -10z m315 0
c0 -5 -4 -10 -10 -10 -5 0 -10 5 -10 10 0 6 5 10 10 10 6 0 10 -4 10 -10z
m-632 -104 c4 -43 -7 -56 -50 -56 -24 0 -28 4 -28 30 0 27 3 30 30 30 17 0 30
5 30 10 0 6 -13 10 -30 10 -16 0 -30 5 -30 11 0 6 16 9 38 7 35 -3 37 -5 40
-42z m492 34 c0 -5 11 -10 24 -10 28 0 35 -15 26 -50 -5 -20 -12 -25 -35 -25
-29 0 -30 2 -33 48 -2 28 1 47 7 47 6 0 11 -4 11 -10z m79 -42 c-1 -55 -5 -50
-11 15 -2 20 0 37 4 37 4 0 7 -24 7 -52z m-481 -11 c3 -38 3 -38 -30 -35 -25
2 -34 8 -36 26 -3 18 2 22 25 23 l28 2 -27 4 c-39 6 -35 25 5 21 29 -3 32 -6
35 -41z m88 18 c3 -14 3 -33 -2 -42 -6 -14 -9 -11 -12 15 -2 24 -8 32 -23 32
-15 0 -19 -7 -19 -31 0 -17 -4 -28 -10 -24 -11 7 -14 58 -3 68 3 4 19 7 34 7
22 0 30 -6 35 -25z m84 15 c0 -5 -13 -10 -30 -10 -23 0 -30 -4 -30 -20 0 -16
7 -20 30 -20 17 0 30 -5 30 -11 0 -6 -14 -9 -32 -7 -26 2 -34 8 -36 26 -2 13
-1 30 2 38 6 16 66 20 66 4z m78 -33 c3 -38 3 -38 -30 -35 -25 2 -34 8 -36 26
-3 19 1 22 30 24 l33 1 -32 4 c-18 2 -33 9 -33 14 0 6 15 9 33 7 29 -3 32 -6
35 -41z m120 -1 c2 -22 -1 -36 -6 -32 -5 3 -7 17 -4 31 3 18 0 25 -12 25 -11
0 -16 -9 -16 -30 0 -16 -4 -30 -10 -30 -5 0 -10 14 -10 30 0 42 -27 40 -33 -2
-3 -28 -4 -27 -5 10 l-2 43 48 -3 c47 -3 47 -3 50 -42z m198 29 c4 -8 3 -26 0
-40 -5 -20 -13 -25 -36 -25 -32 0 -46 25 -35 60 8 24 62 28 71 5z m79 5 c4 -6
-8 -10 -27 -11 l-33 -1 30 -7 c21 -4 30 -12 30 -26 0 -22 -26 -31 -53 -19 -14
6 -11 9 13 14 23 6 25 8 8 9 -25 1 -37 16 -29 36 6 17 52 20 61 5z m-285 -161
c0 -22 -4 -38 -8 -35 -8 5 -4 76 4 76 2 0 4 -18 4 -41z m-145 15 c11 -12 19
-13 29 -5 17 14 35 -4 29 -30 -6 -23 -16 -24 -33 -4 -11 13 -14 13 -27 -1 -15
-15 -48 -16 -45 -1 1 4 2 18 2 32 0 29 21 33 45 9z m125 6 c0 -5 -8 -10 -17
-10 -11 0 -14 -3 -7 -8 8 -5 5 -13 -7 -26 -19 -19 -19 -19 -19 17 0 33 3 37
25 37 14 0 25 -4 25 -10z m140 -160 c0 -5 -4 -10 -10 -10 -5 0 -10 5 -10 10 0
6 5 10 10 10 6 0 10 -4 10 -10z m-3 -72 c-3 -8 -6 -5 -6 6 -1 11 2 17 5 13 3
-3 4 -12 1 -19z m-554 -35 c-13 -2 -33 -2 -45 0 -13 2 -3 4 22 4 25 0 35 -2
23 -4z m567 -63 c0 -5 -5 -10 -10 -10 -6 0 -8 -11 -4 -27 5 -22 4 -26 -6 -16
-14 13 -6 63 10 63 6 0 10 -4 10 -10z"/>
<path d="M115 560 c3 -5 13 -10 21 -10 8 0 14 5 14 10 0 6 -9 10 -21 10 -11 0
-17 -4 -14 -10z"/>
<path d="M660 570 c0 -13 7 -20 20 -20 13 0 20 7 20 20 0 13 -7 20 -20 20 -13
0 -20 -7 -20 -20z"/>
<path d="M208 553 c6 -2 18 -2 25 0 6 3 1 5 -13 5 -14 0 -19 -2 -12 -5z"/>
<path d="M468 553 c6 -2 18 -2 25 0 6 3 1 5 -13 5 -14 0 -19 -2 -12 -5z"/>
<path d="M770 570 c0 -13 7 -20 20 -20 13 0 20 7 20 20 0 13 -7 20 -20 20 -13
0 -20 -7 -20 -20z"/>
<path d="M440 435 c0 -9 5 -15 11 -13 6 2 11 8 11 13 0 5 -5 11 -11 13 -6 2
-11 -4 -11 -13z"/>
</g>
</svg>
