<svg width="100" height="100" viewBox="0 0 100 100" fill="none" xmlns="http://www.w3.org/2000/svg">
<path d="M50.5 12C29.2367 12 12 29.2366 12 50.5C12 71.7633 29.2367 89 50.5 89C71.7634 89 89 71.7633 89 50.5C89 29.2371 71.7629 12 50.5 12ZM66.3333 66.58L50.2467 75.8833V75.8866H50.24L34.1434 66.58V34.3867L34.16 34.3967L50.2334 25.1133L60.55 30.8699H60.5533V45.4032L55.5334 42.52V33.7667L50.24 30.75L39.16 37.1566V63.8433L50.24 70.2499L61.3199 63.8633L61.3732 52.8966L45.63 43.7633L50.6866 41.1032L66.3732 50.2499L66.3333 66.5833V66.58ZM53.2734 49.4533L57.15 51.6833L45.63 58.2432V45.0166L49.6767 47.4032V51.3733L53.2767 49.4533H53.2734Z" fill="#516FFA"/>
</svg>
