<?xml version="1.0" encoding="UTF-8"?>
<svg width="100px" height="100px" viewBox="0 0 100 100" version="1.1" xmlns="http://www.w3.org/2000/svg" xmlns:xlink="http://www.w3.org/1999/xlink">
    <title>Letter</title>
    <defs>
        <polygon id="path-1" points="0 0 10.4025974 0 10.4025974 9.45454545 0 9.45454545"></polygon>
        <polygon id="path-3" points="0 0 9.24675325 0 9.24675325 9.45454545 0 9.45454545"></polygon>
        <polygon id="path-5" points="0 0 9.24675325 0 9.24675325 9.45454545 0 9.45454545"></polygon>
        <polygon id="path-7" points="0 0 10.4025974 0 10.4025974 9.45454545 0 9.45454545"></polygon>
        <polygon id="path-9" points="0 0 9.24675325 0 9.24675325 13 0 13"></polygon>
        <polygon id="path-11" points="0 0 10.4025974 0 10.4025974 9.45454545 0 9.45454545"></polygon>
        <linearGradient x1="50%" y1="278.296274%" x2="50%" y2="-30.2013221%" id="linearGradient-13">
            <stop stop-color="#FF4398" offset="0%"></stop>
            <stop stop-color="#FA429A" offset="16%"></stop>
            <stop stop-color="#EC419F" offset="34%"></stop>
            <stop stop-color="#D53EA7" offset="54%"></stop>
            <stop stop-color="#B53AB2" offset="74%"></stop>
            <stop stop-color="#8B34C0" offset="95%"></stop>
            <stop stop-color="#8133C4" offset="100%"></stop>
        </linearGradient>
        <linearGradient x1="50%" y1="-36.8605002%" x2="50%" y2="120.108466%" id="linearGradient-14">
            <stop stop-color="#6078E9" offset="0%"></stop>
            <stop stop-color="#17E9D8" offset="100%"></stop>
        </linearGradient>
        <linearGradient x1="50%" y1="178.725904%" x2="50%" y2="-130.51506%" id="linearGradient-15">
            <stop stop-color="#FF4398" offset="0%"></stop>
            <stop stop-color="#FA429A" offset="16%"></stop>
            <stop stop-color="#EC419F" offset="34%"></stop>
            <stop stop-color="#D53EA7" offset="54%"></stop>
            <stop stop-color="#B53AB2" offset="74%"></stop>
            <stop stop-color="#8B34C0" offset="95%"></stop>
            <stop stop-color="#8133C4" offset="100%"></stop>
        </linearGradient>
        <linearGradient x1="50%" y1="-136.572459%" x2="50%" y2="20.0661455%" id="linearGradient-16">
            <stop stop-color="#6078E9" offset="0%"></stop>
            <stop stop-color="#17E9D8" offset="100%"></stop>
        </linearGradient>
        <linearGradient x1="50%" y1="-186.688722%" x2="50%" y2="-30.0030075%" id="linearGradient-17">
            <stop stop-color="#6078E9" offset="0%"></stop>
            <stop stop-color="#17E9D8" offset="100%"></stop>
        </linearGradient>
        <linearGradient x1="185.806731%" y1="117.758413%" x2="3.12109646%" y2="117.758413%" id="linearGradient-18">
            <stop stop-color="#6078E9" offset="0%"></stop>
            <stop stop-color="#17E9D8" offset="100%"></stop>
        </linearGradient>
        <linearGradient x1="50%" y1="-86.4644037%" x2="50%" y2="70.033043%" id="linearGradient-19">
            <stop stop-color="#6078E9" offset="0%"></stop>
            <stop stop-color="#17E9D8" offset="100%"></stop>
        </linearGradient>
        <linearGradient x1="68.1332408%" y1="117.738059%" x2="182.96669%" y2="117.738059%" id="linearGradient-20">
            <stop stop-color="#6078E9" offset="0%"></stop>
            <stop stop-color="#17E9D8" offset="100%"></stop>
        </linearGradient>
        <linearGradient x1="50%" y1="-286.430288%" x2="50%" y2="-129.885817%" id="linearGradient-21">
            <stop stop-color="#6078E9" offset="0%"></stop>
            <stop stop-color="#17E9D8" offset="100%"></stop>
        </linearGradient>
        <linearGradient x1="50%" y1="-236.430288%" x2="50%" y2="-79.8858173%" id="linearGradient-22">
            <stop stop-color="#6078E9" offset="0%"></stop>
            <stop stop-color="#17E9D8" offset="100%"></stop>
        </linearGradient>
        <linearGradient x1="85.9455239%" y1="50%" x2="1.27515614%" y2="50%" id="linearGradient-23">
            <stop stop-color="#FF6D43" offset="0%"></stop>
            <stop stop-color="#FF4398" offset="30%"></stop>
            <stop stop-color="#FA429A" offset="41%"></stop>
            <stop stop-color="#EC419F" offset="54%"></stop>
            <stop stop-color="#D53EA7" offset="68%"></stop>
            <stop stop-color="#B53AB2" offset="82%"></stop>
            <stop stop-color="#8B34C0" offset="97%"></stop>
            <stop stop-color="#8133C4" offset="100%"></stop>
        </linearGradient>
        <linearGradient x1="142.891649%" y1="295.965755%" x2="142.891649%" y2="-12.4391709%" id="linearGradient-24">
            <stop stop-color="#FF4398" offset="0%"></stop>
            <stop stop-color="#FA429A" offset="16%"></stop>
            <stop stop-color="#EC419F" offset="34%"></stop>
            <stop stop-color="#D53EA7" offset="54%"></stop>
            <stop stop-color="#B53AB2" offset="74%"></stop>
            <stop stop-color="#8B34C0" offset="95%"></stop>
            <stop stop-color="#8133C4" offset="100%"></stop>
        </linearGradient>
        <linearGradient x1="143.896059%" y1="35.7371601%" x2="143.896059%" y2="150.383686%" id="linearGradient-25">
            <stop stop-color="#6078E9" offset="0%"></stop>
            <stop stop-color="#17E9D8" offset="100%"></stop>
        </linearGradient>
        <linearGradient x1="143.407356%" y1="35.9114191%" x2="143.407356%" y2="150.247062%" id="linearGradient-26">
            <stop stop-color="#6078E9" offset="0%"></stop>
            <stop stop-color="#17E9D8" offset="100%"></stop>
        </linearGradient>
        <linearGradient x1="96.703678%" y1="-13.9152644%" x2="96.703678%" y2="100.111178%" id="linearGradient-27">
            <stop stop-color="#6078E9" offset="0%"></stop>
            <stop stop-color="#17E9D8" offset="100%"></stop>
        </linearGradient>
        <linearGradient x1="96.703678%" y1="-63.8960649%" x2="96.703678%" y2="50.096125%" id="linearGradient-28">
            <stop stop-color="#6078E9" offset="0%"></stop>
            <stop stop-color="#17E9D8" offset="100%"></stop>
        </linearGradient>
        <linearGradient x1="143.407356%" y1="-113.983764%" x2="143.407356%" y2="0.111244738%" id="linearGradient-29">
            <stop stop-color="#6078E9" offset="0%"></stop>
            <stop stop-color="#17E9D8" offset="100%"></stop>
        </linearGradient>
        <linearGradient x1="-15.625125%" y1="83.2932692%" x2="228.517415%" y2="-133.575721%" id="linearGradient-30">
            <stop stop-color="#6078E9" offset="0%"></stop>
            <stop stop-color="#6079E9" offset="0%"></stop>
            <stop stop-color="#39B5E0" offset="25%"></stop>
            <stop stop-color="#20DBDA" offset="43%"></stop>
            <stop stop-color="#17E9D8" offset="52%"></stop>
            <stop stop-color="#1BE3D9" offset="60%"></stop>
            <stop stop-color="#25D3DB" offset="70%"></stop>
            <stop stop-color="#36B8DF" offset="81%"></stop>
            <stop stop-color="#4E93E5" offset="92%"></stop>
            <stop stop-color="#6078E9" offset="100%"></stop>
        </linearGradient>
        <linearGradient x1="30.610687%" y1="101.798673%" x2="192.349063%" y2="29.9635095%" id="linearGradient-31">
            <stop stop-color="#6078E9" offset="0%"></stop>
            <stop stop-color="#6079E9" offset="0%"></stop>
            <stop stop-color="#39B5E0" offset="25%"></stop>
            <stop stop-color="#20DBDA" offset="43%"></stop>
            <stop stop-color="#17E9D8" offset="52%"></stop>
            <stop stop-color="#1BE3D9" offset="60%"></stop>
            <stop stop-color="#25D3DB" offset="70%"></stop>
            <stop stop-color="#36B8DF" offset="81%"></stop>
            <stop stop-color="#4E93E5" offset="92%"></stop>
            <stop stop-color="#6078E9" offset="100%"></stop>
        </linearGradient>
        <linearGradient x1="-14.6269951%" y1="121.811179%" x2="147.111381%" y2="50.0407707%" id="linearGradient-32">
            <stop stop-color="#6078E9" offset="0%"></stop>
            <stop stop-color="#6079E9" offset="0%"></stop>
            <stop stop-color="#39B5E0" offset="25%"></stop>
            <stop stop-color="#20DBDA" offset="43%"></stop>
            <stop stop-color="#17E9D8" offset="52%"></stop>
            <stop stop-color="#1BE3D9" offset="60%"></stop>
            <stop stop-color="#25D3DB" offset="70%"></stop>
            <stop stop-color="#36B8DF" offset="81%"></stop>
            <stop stop-color="#4E93E5" offset="92%"></stop>
            <stop stop-color="#6078E9" offset="100%"></stop>
        </linearGradient>
        <linearGradient x1="80.0288628%" y1="5.26839566%" x2="-15.8371739%" y2="68.5494572%" id="linearGradient-33">
            <stop stop-color="#FF4398" offset="35%"></stop>
            <stop stop-color="#E540A1" offset="48%"></stop>
            <stop stop-color="#8133C4" offset="100%"></stop>
        </linearGradient>
        <linearGradient x1="-18.0761246%" y1="50%" x2="88.299308%" y2="50%" id="linearGradient-34">
            <stop stop-color="#FF6A4A" offset="22%"></stop>
            <stop stop-color="#FF4398" offset="53%"></stop>
            <stop stop-color="#FA429A" offset="60%"></stop>
            <stop stop-color="#EC419F" offset="69%"></stop>
            <stop stop-color="#D53EA7" offset="78%"></stop>
            <stop stop-color="#B53AB2" offset="88%"></stop>
            <stop stop-color="#8B34C0" offset="98%"></stop>
            <stop stop-color="#8133C4" offset="100%"></stop>
        </linearGradient>
        <linearGradient x1="142.891649%" y1="395.256218%" x2="142.891649%" y2="87.5906503%" id="linearGradient-35">
            <stop stop-color="#FF4398" offset="0%"></stop>
            <stop stop-color="#FA429A" offset="16%"></stop>
            <stop stop-color="#EC419F" offset="34%"></stop>
            <stop stop-color="#D53EA7" offset="54%"></stop>
            <stop stop-color="#B53AB2" offset="74%"></stop>
            <stop stop-color="#8B34C0" offset="95%"></stop>
            <stop stop-color="#8133C4" offset="100%"></stop>
        </linearGradient>
        <linearGradient x1="-51.1573368%" y1="-147.971755%" x2="66.9699832%" y2="17.6893029%" id="linearGradient-36">
            <stop stop-color="#6078E9" offset="0%"></stop>
            <stop stop-color="#17E9D8" offset="100%"></stop>
        </linearGradient>
        <linearGradient x1="-0.139154636%" y1="4.51527976%" x2="78.3249261%" y2="59.5299893%" id="linearGradient-37">
            <stop stop-color="#6078E9" offset="0%"></stop>
            <stop stop-color="#17E9D8" offset="100%"></stop>
        </linearGradient>
        <linearGradient x1="34.0978487%" y1="28.5467175%" x2="112.359473%" y2="83.4363764%" id="linearGradient-38">
            <stop stop-color="#6078E9" offset="0%"></stop>
            <stop stop-color="#17E9D8" offset="100%"></stop>
        </linearGradient>
        <linearGradient x1="103.738588%" y1="69.2277644%" x2="221.914756%" y2="234.891827%" id="linearGradient-39">
            <stop stop-color="#6078E9" offset="0%"></stop>
            <stop stop-color="#17E9D8" offset="100%"></stop>
        </linearGradient>
        <linearGradient x1="51.9546792%" y1="46.63571%" x2="169.994278%" y2="211.800479%" id="linearGradient-40">
            <stop stop-color="#6078E9" offset="0%"></stop>
            <stop stop-color="#17E9D8" offset="100%"></stop>
        </linearGradient>
        <linearGradient x1="171.592092%" y1="117.555422%" x2="77.6413458%" y2="117.555422%" id="linearGradient-41">
            <stop stop-color="#6078E9" offset="0%"></stop>
            <stop stop-color="#17E9D8" offset="100%"></stop>
        </linearGradient>
    </defs>
    <g id="Letter" stroke="none" stroke-width="1" fill="none" fill-rule="evenodd">
        <g id="Group-2" transform="translate(5.000000, 6.000000)">
            <g id="Group-23" transform="translate(0.000000, 69.000000)">
                <path d="M3.89856069,10.206082 L5.86877602,10.206082 C6.53404354,10.206082 7.0039178,10.0827676 7.27607269,9.83855668 C7.54939064,9.5931368 7.68546808,9.26308937 7.68546808,8.84962336 C7.68546808,8.46517251 7.55055369,8.15688645 7.28072491,7.92234725 C7.01089613,7.68901702 6.5375327,7.57295638 5.86063464,7.57295638 L3.89856069,7.57295638 L3.89856069,10.206082 Z M3.89856069,5.09820515 L5.5791753,5.09820515 C6.18163784,5.09820515 6.60150073,4.99060727 6.83760092,4.77420255 C7.07253805,4.55900679 7.19116967,4.24709383 7.19116967,3.83846368 C7.19116967,3.46126662 7.07253805,3.16507021 6.83760092,2.95229238 C6.60150073,2.73951455 6.18977923,2.63312564 5.60476251,2.63312564 L3.89856069,2.63312564 L3.89856069,5.09820515 Z M0,0 L7.23420271,0 C8.43912779,0 9.36491964,0.309495025 10.0104152,0.930903004 C10.6559108,1.55110202 10.9792401,2.32000372 10.9792401,3.23639914 C10.9792401,4.00530085 10.7489552,4.66418674 10.2883854,5.21426579 C9.98017579,5.58058216 9.53123652,5.87073375 8.93924148,6.08230261 C9.83828307,6.30717009 10.5000614,6.69282991 10.9234135,7.24049103 C11.3467655,7.78694318 11.5584416,8.47363526 11.5584416,9.30177625 C11.5584416,9.97637869 11.4084075,10.5820701 11.1071762,11.1188506 C10.8047819,11.6580489 10.3930604,12.0836046 9.86968556,12.3967265 C9.54519318,12.5913699 9.05671004,12.7328187 8.40307308,12.8222822 C7.53310787,12.9407607 6.95506948,13 6.67128404,13 L0,13 L0,0 Z" id="Fill-1" fill="#FFFFFF"></path>
                <g id="Group-5" transform="translate(12.714286, 3.545455)">
                    <mask id="mask-2" fill="white">
                        <use xlink:href="#path-1"></use>
                    </mask>
                    <g id="Clip-4"></g>
                    <path d="M6.58367285,4.95725255 C6.1070321,5.12679082 5.61183599,5.27774955 5.09460539,5.40896753 C4.39182122,5.59592411 3.94765235,5.78055826 3.75977935,5.96286996 C3.56610781,6.14982654 3.46985189,6.36232999 3.46985189,6.60154152 C3.46985189,6.87326724 3.5649481,7.09622168 3.75630022,7.26924361 C3.94533293,7.44342676 4.224823,7.52935712 4.59361074,7.52935712 C4.97863441,7.52935712 5.33814446,7.43529822 5.66866177,7.24834163 C6.0014985,7.06138505 6.2369196,6.8326245 6.37492507,6.56322123 C6.51409026,6.29265673 6.58367285,5.94196798 6.58367285,5.51115498 L6.58367285,4.95725255 Z M3.58118403,3.13413554 L0.272531816,2.78576924 C0.396620771,2.20631995 0.576375798,1.7511213 0.811796899,1.41785087 C1.04837771,1.08690288 1.38701299,0.797758843 1.82886244,0.553902428 C2.14662294,0.378558054 2.58267385,0.241533973 3.13933458,0.145152628 C3.6948356,0.048771283 4.2955653,0 4.94152369,0 C5.97946401,0 6.8132954,0.0592222722 7.44301785,0.174183154 C8.0727403,0.291466477 8.59692916,0.534161671 9.01674413,0.903429957 C9.31131043,1.15889858 9.54441211,1.52119954 9.71372975,1.98917161 C9.8842071,2.45714369 9.96886592,2.90421378 9.96886592,3.3303819 L9.96886592,7.32498222 C9.96886592,7.75115033 9.99553924,8.08442077 10.0500456,8.32595474 C10.1033923,8.56748871 10.2216827,8.87521229 10.4025974,9.25028668 L7.1542501,9.25028668 C7.02320288,9.01688125 6.93854406,8.84037566 6.89795422,8.71728623 C6.85852408,8.59535802 6.81909395,8.40375655 6.77966381,8.14248182 C6.32505755,8.58026215 5.87509013,8.8926306 5.42628241,9.07958719 C4.81511532,9.32924971 4.10305347,9.45466158 3.29241628,9.45466158 C2.21388611,9.45466158 1.39629067,9.20499906 0.837310516,8.70567402 C0.279490075,8.20518775 0,7.58974061 0,6.85701015 C0,6.1695673 0.201789515,5.60521388 0.604208835,5.16162745 C1.00662815,4.71920224 1.75000217,4.38941547 2.83317118,4.17342836 C4.1308865,3.91215363 4.97283586,3.72984193 5.35901924,3.62417082 C5.74404291,3.51966092 6.15226078,3.38147562 6.58367285,3.21193735 C6.58367285,2.78576924 6.4955349,2.48733543 6.32041871,2.31663594 C6.14414281,2.14709767 5.83450028,2.06116732 5.39265083,2.06116732 C4.82555271,2.06116732 4.4010989,2.15174256 4.11696999,2.33405426 C3.8954654,2.47572322 3.71687009,2.74280406 3.58118403,3.13413554 L3.58118403,3.13413554 Z" id="Fill-3" fill="#FFFFFF" mask="url(#mask-2)"></path>
                </g>
                <g id="Group-8" transform="translate(24.272727, 3.545455)">
                    <mask id="mask-4" fill="white">
                        <use xlink:href="#path-3"></use>
                    </mask>
                    <g id="Clip-7"></g>
                    <path d="M0,6.73756988 L3.3085533,6.41358126 C3.44478128,6.8223411 3.6368404,7.11497599 3.88249741,7.29148592 C4.12815442,7.4668346 4.45532489,7.55508957 4.86512546,7.55508957 C5.31289119,7.55508957 5.65904425,7.45638336 5.90581789,7.25664843 C6.09564376,7.11033099 6.19167332,6.92569231 6.19167332,6.7050549 C6.19167332,6.45538624 6.06661157,6.26261882 5.81537144,6.12675262 C5.63447855,6.03036891 5.15768062,5.91076021 4.38162779,5.76908776 C3.22480659,5.55890159 2.41972157,5.36497292 1.96972259,5.18614049 C1.5197236,5.00730806 1.14007186,4.70538317 0.831883972,4.28036584 C0.522579461,3.8553485 0.368485518,3.36994619 0.368485518,2.82532015 C0.368485518,2.22959913 0.534862312,1.71632683 0.868732523,1.284342 C1.20148611,0.853518419 1.65930145,0.531852294 2.24441179,0.319343626 C2.8284055,0.106834959 3.6122747,0 4.59490274,0 C5.63224531,0 6.39713191,0.082448718 6.8917958,0.247346154 C7.38645969,0.41224359 7.7984935,0.667718491 8.12901384,1.01377086 C8.45953419,1.35982322 8.73310677,1.82780679 8.95196483,2.41888281 L5.79080574,2.74287144 C5.70817565,2.4537203 5.57194768,2.24005038 5.38100518,2.10418418 C5.11859883,1.921868 4.80259458,1.83129054 4.43075919,1.83129054 C4.05445732,1.83129054 3.77976811,1.89980426 3.6078082,2.04031546 C3.4358483,2.17850415 3.34986834,2.34688534 3.34986834,2.54545901 C3.34986834,2.76725768 3.45929737,2.93447761 3.67703882,3.04711882 C3.89589688,3.16092127 4.37157819,3.26311123 5.10296611,3.3536887 C6.21065591,3.48374865 7.03584014,3.66490358 7.57628557,3.89831474 C8.11673099,4.13056465 8.52988142,4.46268202 8.81685348,4.8935056 C9.10382553,5.32549043 9.24675325,5.798119 9.24675325,6.31487505 C9.24675325,6.8362761 9.09600917,7.34374215 8.79228778,7.83843446 C8.489683,8.33080427 8.01176845,8.72330661 7.35854412,9.0159415 C6.70643642,9.30857639 5.81760469,9.45489383 4.69316555,9.45489383 C3.10421133,9.45489383 1.97307245,9.21916017 1.29863229,8.7465316 C0.624192134,8.27622554 0.190942495,7.60618455 0,6.73756988" id="Fill-6" fill="#FFFFFF" mask="url(#mask-4)"></path>
                </g>
                <g id="Group-11" transform="translate(34.519481, 3.545455)">
                    <mask id="mask-6" fill="white">
                        <use xlink:href="#path-5"></use>
                    </mask>
                    <g id="Clip-10"></g>
                    <path d="M0,6.73756988 L3.3085533,6.41358126 C3.44478128,6.8223411 3.6368404,7.11497599 3.88249741,7.29148592 C4.12815442,7.4668346 4.45532489,7.55508957 4.86512546,7.55508957 C5.31289119,7.55508957 5.65904425,7.45638336 5.90581789,7.25664843 C6.09564376,7.11033099 6.19167332,6.92569231 6.19167332,6.7050549 C6.19167332,6.45538624 6.06661157,6.26261882 5.81537144,6.12675262 C5.63447855,6.03036891 5.156564,5.91076021 4.38162779,5.76908776 C3.22368997,5.55890159 2.41972157,5.36497292 1.96972259,5.18614049 C1.5197236,5.00730806 1.14007186,4.70538317 0.831883972,4.28036584 C0.522579461,3.8553485 0.368485518,3.36994619 0.368485518,2.82532015 C0.368485518,2.22959913 0.534862312,1.71632683 0.867615901,1.284342 C1.20148611,0.853518419 1.65930145,0.531852294 2.24441179,0.319343626 C2.8284055,0.106834959 3.6122747,0 4.59490274,0 C5.63224531,0 6.39713191,0.082448718 6.8917958,0.247346154 C7.38645969,0.41224359 7.7984935,0.667718491 8.12901384,1.01377086 C8.45953419,1.35982322 8.73310677,1.82780679 8.95196483,2.41888281 L5.79080574,2.74287144 C5.70817565,2.4537203 5.57194768,2.24005038 5.38100518,2.10418418 C5.11859883,1.921868 4.80259458,1.83129054 4.43075919,1.83129054 C4.05445732,1.83129054 3.77976811,1.89980426 3.6078082,2.04031546 C3.4358483,2.17850415 3.34986834,2.34688534 3.34986834,2.54545901 C3.34986834,2.76725768 3.45929737,2.93447761 3.67703882,3.04711882 C3.89589688,3.16092127 4.37046156,3.26311123 5.10296611,3.3536887 C6.21065591,3.48374865 7.03584014,3.66490358 7.57628557,3.89831474 C8.11673099,4.13056465 8.52988142,4.46268202 8.81685348,4.8935056 C9.10382553,5.32549043 9.24675325,5.798119 9.24675325,6.31487505 C9.24675325,6.8362761 9.09489255,7.34374215 8.79228778,7.83843446 C8.489683,8.33080427 8.01065183,8.72330661 7.35854412,9.0159415 C6.70643642,9.30857639 5.81760469,9.45489383 4.69316555,9.45489383 C3.10421133,9.45489383 1.97307245,9.21916017 1.29863229,8.7465316 C0.624192134,8.27622554 0.190942495,7.60618455 0,6.73756988" id="Fill-9" fill="#FFFFFF" mask="url(#mask-6)"></path>
                </g>
                <g id="Group-14" transform="translate(44.922078, 3.545455)">
                    <mask id="mask-8" fill="white">
                        <use xlink:href="#path-7"></use>
                    </mask>
                    <g id="Clip-13"></g>
                    <path d="M7.12449709,5.70659056 L10.4025974,6.08168798 C10.2224058,6.76917305 9.9255518,7.36375473 9.51319034,7.86543302 C9.10082888,8.3682726 8.57411509,8.75846683 7.93420404,9.03717699 C7.29313791,9.31472586 6.47765559,9.45524223 5.48891215,9.45524223 C4.53482094,9.45524223 3.74012996,9.36466143 3.1048392,9.1869837 C2.46954844,9.00814468 1.92319839,8.71782159 1.46578904,8.31833703 C1.00837969,7.91885246 0.649151648,7.44852907 0.389259974,6.90968942 C0.1293683,6.37084978 0,5.65665499 0,4.76478247 C0,3.83458731 0.157090078,3.06000532 0.473580384,2.44219779 C0.705750279,1.98813249 1.02108551,1.58168017 1.4230513,1.22051825 C1.82386201,0.860517624 2.23622347,0.592259093 2.66013567,0.41690395 C3.33123372,0.139355081 4.19291901,0 5.24403644,0 C6.71213563,0 7.83140244,0.263613361 8.60299194,0.792001376 C9.37342637,1.32038939 9.91515613,2.0926488 10.2258711,3.10877959 L6.98011283,3.54310293 C6.87962138,3.15755387 6.69365445,2.86606949 6.42567725,2.66981109 C6.15770006,2.47471398 5.79731694,2.37600413 5.34568296,2.37600413 C4.77507636,2.37600413 4.31304671,2.58155287 3.96074911,2.99265036 C3.60729643,3.40374785 3.4305701,4.02620054 3.4305701,4.85884715 C3.4305701,5.60207425 3.60614136,6.16530103 3.95612881,6.55085009 C4.30611627,6.93639915 4.75197487,7.12917367 5.2948597,7.12917367 C5.74649368,7.12917367 6.12651306,7.01304444 6.43376277,6.77962468 C6.74216756,6.54736621 6.97202731,6.18968817 7.12449709,5.70659056" id="Fill-12" fill="#FFFFFF" mask="url(#mask-8)"></path>
                </g>
                <path d="M65.7272727,12.7911122 L62.5974988,12.7911122 L62.5974988,11.2932919 C62.131625,11.9092735 61.6601382,12.3472257 61.1864063,12.6083354 C60.7115518,12.8694451 60.1278063,13 59.4362924,13 C58.514648,13 57.7905791,12.7092187 57.2663307,12.1252825 C56.7420824,11.542533 56.4805195,10.6440782 56.4805195,9.43110492 L56.4805195,3.54545455 L59.848282,3.54545455 L59.848282,8.62997284 C59.848282,9.21034853 59.9493149,9.62218976 60.1525032,9.8666834 C60.3556915,10.1099902 60.6408288,10.232237 61.0090375,10.232237 C61.4098012,10.232237 61.7375967,10.0696369 61.9924241,9.74443658 C62.2483741,9.4192363 62.376349,8.83530003 62.376349,7.99381462 L62.376349,3.54545455 L65.7272727,3.54545455 L65.7272727,12.7911122 Z" id="Fill-15" fill="#FFFFFF"></path>
                <g id="Group-19" transform="translate(68.194805, 0.000000)">
                    <mask id="mask-10" fill="white">
                        <use xlink:href="#path-9"></use>
                    </mask>
                    <g id="Clip-18"></g>
                    <path d="M3.2267653,8.13134899 C3.2267653,8.92831849 3.36265181,9.50522925 3.63442482,9.86446028 C3.90619784,10.2213123 4.25022796,10.3997383 4.6665152,10.3997383 C5.05152697,10.3997383 5.37506627,10.2236913 5.63497617,9.87159732 C5.89704301,9.51950334 6.02753719,8.92831849 6.02753719,8.0968533 C6.02753719,7.36292765 5.89919994,6.82527061 5.64360389,6.48269268 C5.38800784,6.14011474 5.07741011,5.96763627 4.71396763,5.96763627 C4.27611111,5.96763627 3.91913941,6.14725178 3.64197407,6.5041038 C3.36480874,6.86214532 3.2267653,7.40456039 3.2267653,8.13134899 L3.2267653,8.13134899 Z M0,-0.000118950672 L3.25049152,-0.000118950672 L3.25049152,4.43198309 C3.57187389,4.06085699 3.9374733,3.78132291 4.34621129,3.59457036 C4.75494927,3.40900731 5.20682583,3.31622579 5.70291943,3.31622579 C6.72638209,3.31622579 7.57189813,3.72065807 8.24162448,4.53309116 C8.91135084,5.34433475 9.24675325,6.50886183 9.24675325,8.0266724 C9.24675325,9.03894262 9.09361131,9.93107266 8.7884059,10.701873 C8.48212203,11.4726734 8.05828554,12.0472051 7.51797491,12.4278473 C6.97766428,12.8096789 6.3780381,13 5.71909639,13 C5.15398108,13 4.63739666,12.8655857 4.16826467,12.5991362 C3.81452837,12.3897831 3.4295166,11.9972458 3.01322936,11.4215246 L3.01322936,12.7906468 L0,12.7906468 L0,-0.000118950672 Z" id="Fill-17" fill="#FFFFFF" mask="url(#mask-10)"></path>
                </g>
                <g id="Group-22" transform="translate(78.597403, 3.545455)">
                    <mask id="mask-12" fill="white">
                        <use xlink:href="#path-11"></use>
                    </mask>
                    <g id="Clip-21"></g>
                    <path d="M6.90101149,3.92652232 C6.83298147,3.25642371 6.65425853,2.77678641 6.36484268,2.48644906 C6.07312072,2.19727306 5.69146077,2.05210439 5.21870977,2.05210439 C4.67101045,2.05210439 4.23400404,2.27043807 3.9065375,2.7082668 C3.69898828,2.98118391 3.56523434,3.38649485 3.50988788,3.92652232 L6.90101149,3.92652232 Z M10.402828,5.58725196 L3.50066347,5.58725196 C3.56292824,6.14353832 3.71282489,6.55814005 3.94920039,6.83105716 C4.28243219,7.22243191 4.71597945,7.41869996 5.25214826,7.41869996 C5.58999226,7.41869996 5.91169355,7.33392145 6.21609907,7.16320309 C6.40174032,7.0551976 6.60237123,6.8647363 6.81683875,6.59181919 L10.2079624,6.90770622 C9.68908931,7.8170428 9.06298251,8.46739847 8.33079499,8.86225726 C7.59745442,9.25711606 6.54587172,9.45454545 5.17604688,9.45454545 C3.98609803,9.45454545 3.04982045,9.28498844 2.36836718,8.94819712 C1.68576087,8.61024444 1.12076578,8.07370102 0.672228855,7.33856685 C0.223691935,6.60227133 0,5.73822738 0,4.74411229 C0,3.32958873 0.449689972,2.18565957 1.34906992,1.31116347 C2.24844986,0.436667374 3.49028601,0 5.07457837,0 C6.36023047,0 7.37491554,0.195106699 8.11863357,0.587642796 C8.86350465,0.979017543 9.42965279,1.5469174 9.8193841,2.29134236 C10.2079624,3.03460598 10.402828,4.00317138 10.402828,5.19587721 L10.402828,5.58725196 Z" id="Fill-20" fill="#FFFFFF" mask="url(#mask-12)"></path>
                </g>
            </g>
            <g id="basscube-logo" transform="translate(10.000000, 0.000000)">
                <polygon id="Path" fill="url(#linearGradient-13)" fill-rule="nonzero" points="17.0956949 24.4519745 8.2817785 29.5246694 17.0956949 34.5973642"></polygon>
                <polygon id="Path" fill="url(#linearGradient-14)" fill-rule="nonzero" points="25.8606791 39.6426226 34.6776538 34.5699278 25.9096113 29.5246694"></polygon>
                <polygon id="Path" fill="url(#linearGradient-15)" fill-rule="nonzero" points="17.0956949 34.5973642 8.2817785 39.6731076 17.0467627 44.718366"></polygon>
                <polygon id="Path" fill="url(#linearGradient-16)" fill-rule="nonzero" points="25.8606791 49.7819154 34.6776538 44.718366 25.8606791 39.6426226"></polygon>
                <polygon id="Path" fill="url(#linearGradient-17)" fill-rule="nonzero" points="34.6776538 44.718366 25.8606791 49.7819154 34.6776538 54.8546103 34.6776538 54.8546103"></polygon>
                <polygon id="Path" fill="url(#linearGradient-18)" fill-rule="nonzero" points="52.3054866 34.5699278 61.119403 29.4972329 52.3054866 24.424538 43.4915702 29.4972329"></polygon>
                <polygon id="Path" fill="url(#linearGradient-19)" fill-rule="nonzero" points="25.8606791 39.6426226 34.6776538 44.718366 34.6776538 44.718366 34.6776538 34.5699278"></polygon>
                <g id="Group" stroke-linecap="square" stroke-linejoin="round"></g>
                <polygon id="Path" fill="url(#linearGradient-20)" fill-rule="nonzero" points="34.6776538 44.718366 43.4915702 39.6426226 34.6776538 34.5699278"></polygon>
                <g id="Group" stroke-linecap="square" stroke-linejoin="round"></g>
                <polygon id="Path" fill="url(#linearGradient-21)" fill-rule="nonzero" points="34.6776538 54.8546103 25.8606791 59.9273051 34.6776538 65"></polygon>
                <polygon id="Path" fill="url(#linearGradient-22)" fill-rule="nonzero" points="25.8606791 59.9273051 34.6776538 54.8546103 25.8606791 49.7819154"></polygon>
                <polygon id="Path" fill="url(#linearGradient-23)" fill-rule="nonzero" points="17.0467627 44.7153175 8.23284628 49.7758184 17.0467627 54.8485133 25.8606791 49.7758184"></polygon>
                <polygon id="Path" fill="url(#linearGradient-24)" fill-rule="nonzero" points="17.0956949 34.5973642 8.2817785 29.5246694 8.23284628 29.5551543 8.23284628 39.6426226 8.2817785 39.6731076"></polygon>
                <g id="Group" stroke-linecap="square" stroke-linejoin="round"></g>
                <polygon id="Path" fill="url(#linearGradient-25)" fill-rule="nonzero" points="25.9096113 29.5246694 34.6776538 34.5699278 34.6776538 24.4794109"></polygon>
                <polygon id="Path" fill="url(#linearGradient-26)" fill-rule="nonzero" points="34.7235277 24.4519745 34.6776538 24.4794109 34.6776538 34.5699278 43.4915702 29.4972329"></polygon>
                <polygon id="Path" fill="url(#linearGradient-27)" fill-rule="nonzero" points="34.6776538 34.5699278 43.4915702 39.6426226 52.3054866 34.5699278 43.4915702 29.4972329"></polygon>
                <polygon id="Path" fill="url(#linearGradient-28)" fill-rule="nonzero" points="43.4915702 39.6426226 52.3054866 44.718366 61.119403 39.6426226 52.3054866 34.5699278"></polygon>
                <polygon id="Path" fill="url(#linearGradient-29)" fill-rule="nonzero" points="52.3054866 44.718366 61.119403 49.7819154 61.119403 39.6426226 61.119403 39.6426226"></polygon>
                <polygon id="Path" fill="url(#linearGradient-30)" fill-rule="nonzero" points="34.6776538 65 43.4915702 59.9273051 34.6776538 54.8546103"></polygon>
                <polygon id="Path" fill="url(#linearGradient-31)" fill-rule="nonzero" points="34.6776538 54.8546103 34.6776538 54.8546103 43.4915702 59.9273051 52.3054866 54.8546103 43.4915702 49.7819154"></polygon>
                <polygon id="Path" fill="url(#linearGradient-32)" fill-rule="nonzero" points="43.4915702 49.7819154 52.3054866 54.8546103 61.119403 49.7819154 52.3054866 44.718366"></polygon>
                <polygon id="Path" fill="url(#linearGradient-33)" fill-rule="nonzero" points="8.2817785 39.6731076 8.23284628 39.700544 8.23284628 49.7819154 17.0467627 44.718366"></polygon>
                <g id="Group" stroke-linecap="square" stroke-linejoin="round"></g>
                <polygon id="Path" fill="url(#linearGradient-34)" fill-rule="nonzero" points="25.9096113 19.3792796 17.0467627 14.2760998 8.23284628 19.3518432 17.0956949 24.4519745"></polygon>
                <polygon id="Path" fill="url(#linearGradient-35)" fill-rule="nonzero" points="17.0956949 24.4519745 8.23284628 19.3518432 8.23284628 29.4972329 8.2817785 29.5246694"></polygon>
                <polygon id="Path" fill="url(#linearGradient-36)" fill-rule="nonzero" points="61.119403 29.4972329 61.119403 29.4972329 61.119403 19.3518432 52.3054866 24.424538"></polygon>
                <polygon id="Path" fill="url(#linearGradient-37)" fill-rule="nonzero" points="52.3054866 24.424538 61.119403 19.3518432 52.3513605 14.3065847 43.5374441 19.3792796"></polygon>
                <polygon id="Path" fill="url(#linearGradient-38)" fill-rule="nonzero" points="43.5374441 19.3792796 52.3513605 14.3065847 43.5374441 9.23084138 34.7235277 14.3065847"></polygon>
                <polygon id="Path" fill="url(#linearGradient-39)" fill-rule="nonzero" points="34.6776538 4.13071006 25.8606791 9.20340493 34.6776538 14.2760998"></polygon>
                <polygon id="Path" fill="url(#linearGradient-40)" fill-rule="nonzero" points="34.7235277 14.3065847 43.5374441 9.23084138 34.6776538 4.13071006 34.6776538 14.2760998"></polygon>
                <polygon id="Path" fill="url(#linearGradient-41)" fill-rule="nonzero" points="25.9096113 19.3792796 34.6776538 14.3340212 34.6776538 14.2760998 25.8606791 9.20340493"></polygon>
            </g>
        </g>
    </g>
</svg>