<svg width="100" height="100" viewBox="0 0 100 100" fill="none" xmlns="http://www.w3.org/2000/svg">
<path d="M34.3533 43.923L50.0663 28.2026L66.055 43.923L75.152 34.8217L50.0663 10L25.2563 34.8217L34.3533 43.923Z" fill="#F3BA2F"/>
<path d="M9.54346 50.2657L18.6405 41.1644L27.7374 50.2657L18.6405 59.367L9.54346 50.2657Z" fill="#F3BA2F"/>
<path d="M34.3533 56.6081L50.0663 72.3285L66.055 56.6081L75.152 65.7094L50.0663 90.5311L25.2563 65.7094L34.3533 56.6081Z" fill="#F3BA2F"/>
<path d="M72.3955 50.2657L81.4925 41.1644L90.5895 50.2657L81.4925 59.367L72.3955 50.2657Z" fill="#F3BA2F"/>
<path d="M59.4392 50.2663L50.0665 41.165L43.4505 47.7842L42.6235 48.6115L40.6938 50.2663L49.7908 59.3676L59.4392 50.2663Z" fill="#F3BA2F"/>
</svg>
