<svg width="100" height="100" viewBox="0 0 100 100" fill="none" xmlns="http://www.w3.org/2000/svg">
<path d="M83.9192 15.3923C83.67 15.2832 57.8547 11.723 32.3373 28.3507C16.4974 38.6971 14.3975 53.8311 15.1223 63.9251C52.2366 59.7647 83.0769 16.5995 83.9192 15.3923ZM17.6405 75.1376C20.8291 80.8256 44.9427 93.7228 66.2888 75.9356C87.635 58.1485 85.8444 25.7863 83.9192 15.3923C83.246 16.8996 59.9431 68.6243 17.6405 75.1307" fill="#98E35D"/>
<path d="M84 15.39C83.7505 15.2875 57.9049 11.7143 32.3576 28.3709C16.4992 38.7351 14.3968 53.8955 15.1224 64C52.2803 59.8393 83.1567 16.5992 84 15.39Z" fill="#16B157"/>
</svg>
