<svg width="100" height="100" viewBox="0 0 100 100" fill="none" xmlns="http://www.w3.org/2000/svg">
<path d="M36.1216 33.4258C35.9045 33.9348 35.8209 34.4906 35.8786 35.0408C35.9363 35.591 36.1331 36.1177 36.4512 36.5706C36.769 37.0236 37.1972 37.3879 37.695 37.6296C38.1931 37.8713 38.7444 37.9819 39.2972 37.9514H40.4571L43.7163 26.506H38.1143L36.1216 33.4258Z" fill="#D62817"/>
<path d="M67.0442 30.9361C65.5379 27.9226 62.8863 26.4832 59.168 26.4832H52.2146L48.961 37.9961H53.8974C54.281 37.9349 54.6741 38.0025 55.0152 38.1881C55.3565 38.3737 55.6265 38.667 55.7836 39.0219C56.1316 40.1426 56.0976 41.3471 55.6866 42.4461C55.3642 43.7946 54.7083 45.0406 53.7788 46.0696C53.438 46.4321 53.0257 46.7202 52.5679 46.9155C52.1101 47.111 51.6168 47.2093 51.1193 47.2047C50.7141 47.2491 50.3055 47.1617 49.954 46.9561C49.6022 46.7502 49.3263 46.4363 49.1672 46.0616C48.8549 44.8635 48.9332 43.597 49.3907 42.4461L55.4534 21.0863C55.646 20.5331 55.7069 19.9427 55.6313 19.3619C55.5557 18.7811 55.3458 18.2259 55.0184 17.7402C54.685 17.2825 54.242 16.9157 53.73 16.6734C53.218 16.4311 52.6534 16.3211 52.088 16.3533H45.3556L37.3662 44.4578C32.9902 59.8419 48.4597 58.7001 48.4597 58.7001C48.4597 58.7001 62.5415 59.0124 67.1762 42.71C68.5409 37.9125 68.4966 33.9498 67.0442 30.9361Z" fill="#EC7000"/>
<path d="M67.1748 42.651C68.5399 37.8828 68.4953 33.9415 67.0402 30.9456C65.5339 27.9496 62.8826 26.5196 59.164 26.5196H53.9338L50.6802 37.9651H53.8934C54.2762 37.9039 54.6685 37.9707 55.0096 38.155C55.3504 38.3393 55.6212 38.6306 55.7795 38.9842C56.1278 40.098 56.0936 41.2961 55.6826 42.3882" fill="url(#paint0_linear)"/>
<path d="M34.328 67.1428H33.1376L31.0415 74.4715H33.3708L35.1413 68.2811C35.188 68.1479 35.2027 68.0058 35.1846 67.8658C35.1664 67.7259 35.1157 67.5923 35.0363 67.4756C34.9551 67.3656 34.8478 67.2777 34.7241 67.2198C34.6005 67.1615 34.4642 67.1351 34.328 67.1428Z" fill="#989898"/>
<path d="M35.9519 65.4923C35.8499 65.8154 35.6519 66.0999 35.3843 66.3079C35.117 66.516 34.7925 66.6378 34.4538 66.6573C34.3115 66.6645 34.1694 66.6359 34.0409 66.574C33.9125 66.5117 33.8019 66.4185 33.7188 66.3023C33.6361 66.1864 33.5838 66.0513 33.567 65.9097C33.5501 65.7682 33.5692 65.6245 33.6225 65.4923C33.7242 65.1691 33.9221 64.8847 34.1897 64.6769C34.4573 64.4691 34.7818 64.3478 35.1202 64.3294C35.2628 64.3217 35.4046 64.35 35.5334 64.4117C35.6618 64.4736 35.7727 64.5666 35.8555 64.6828C35.9385 64.7987 35.9906 64.9335 36.0074 65.0751C36.0243 65.2167 36.0053 65.3601 35.9519 65.4923Z" fill="#989898"/>
<path d="M45.4553 66.7441C44.997 66.7411 44.5424 66.8293 44.1186 67.004C43.9145 67.094 43.7206 67.2061 43.5406 67.3378L44.0753 65.4629C44.1218 65.3304 44.1365 65.1889 44.1183 65.0495C44.0999 64.9103 44.0494 64.7773 43.9703 64.6611C43.8899 64.5511 43.7834 64.463 43.6603 64.4047C43.5371 64.3462 43.4012 64.3198 43.2652 64.3273H42.1288L39.2334 74.4689H41.502L42.6176 70.5711C42.7364 70.0628 42.9904 69.596 43.3526 69.2202C43.4883 69.0773 43.6517 68.9641 43.8331 68.8871C44.0144 68.8105 44.2096 68.772 44.4067 68.7742C44.5627 68.7581 44.7195 68.7931 44.8541 68.8735C44.9885 68.9539 45.0934 69.0754 45.1532 69.2202C45.2903 69.6625 45.2766 70.1376 45.114 70.5711L43.9984 74.4689H46.2937L47.3863 70.6485C47.7223 69.7367 47.7111 68.7336 47.3551 67.8295C47.1831 67.4799 46.9101 67.1893 46.5717 66.9959C46.233 66.8026 45.8442 66.7147 45.4553 66.7441Z" fill="#989898"/>
<path d="M66.1068 66.7289C65.0353 66.7064 63.9819 67.0093 63.0859 67.5971C62.8933 67.3095 62.6284 67.0779 62.3175 66.9254C62.0069 66.7729 61.6613 66.7051 61.3159 66.7289C60.8576 66.7257 60.4031 66.8141 59.9792 66.9887C59.7289 67.099 59.4939 67.2414 59.28 67.4121C59.2495 67.2139 59.1459 67.0344 58.9894 66.9089C58.8326 66.7833 58.6347 66.7209 58.4347 66.7342H57.2982L55.0908 74.4622H57.3591L58.4761 70.5564C58.5952 70.0484 58.8492 69.5821 59.2113 69.2063C59.3467 69.0634 59.5102 68.9499 59.6916 68.8733C59.8729 68.7963 60.0684 68.7579 60.2652 68.76C60.4212 68.7443 60.578 68.7792 60.7126 68.8596C60.8472 68.94 60.9522 69.0615 61.0117 69.2063C61.149 69.6483 61.1351 70.1232 60.9725 70.5564L59.8555 74.4622H62.1527L63.2702 70.5564C63.3893 70.0484 63.6433 69.5821 64.0054 69.2063C64.1411 69.0637 64.3046 68.9502 64.4859 68.8735C64.6673 68.7966 64.8625 68.7581 65.0596 68.76C65.2156 68.7445 65.3726 68.7792 65.5072 68.8596C65.6418 68.94 65.7473 69.0615 65.8074 69.2063C65.9444 69.6483 65.9303 70.1235 65.7674 70.5564L64.6512 74.4622H66.9457L68.0397 70.6352C68.3757 69.7236 68.3645 68.7202 68.0084 67.8162C67.8367 67.4655 67.5638 67.1744 67.2248 66.9807C66.8856 66.7868 66.4962 66.699 66.1068 66.7289Z" fill="#989898"/>
<path d="M48.0334 71.1322L49.2941 66.7233H51.5886L50.3282 71.1322C49.9559 72.434 51.1797 72.4281 51.1797 72.4281C51.5581 72.4228 51.924 72.293 52.221 72.0587C52.5183 71.8245 52.7295 71.4987 52.8225 71.1322L54.0823 66.7233H56.3514L55.0911 71.1322C54.8173 72.106 54.2276 72.9615 53.4143 73.5637C52.6013 74.1663 51.6107 74.4812 50.5988 74.4593C50.5988 74.4593 47.0177 74.6932 48.0334 71.1322Z" fill="#989898"/>
<path d="M75.837 70.6392C76.1725 69.7274 76.1615 68.7242 75.8055 67.8202C75.6343 67.4705 75.3622 67.1805 75.0243 66.9866C74.6865 66.793 74.2984 66.7048 73.9101 66.7334C73.4517 66.7299 72.9972 66.8183 72.5733 66.9933C72.3687 67.083 72.1748 67.1952 71.9946 67.3271L72.5292 65.464C72.5755 65.3315 72.5901 65.1902 72.572 65.0511C72.5538 64.9119 72.5036 64.7789 72.4251 64.6625C72.3444 64.5524 72.2376 64.4643 72.1145 64.4061C71.9911 64.3478 71.8554 64.3211 71.7192 64.3286H70.583L68.6593 71.0566C67.6059 74.7391 71.3327 74.4633 71.3327 74.4633C71.3327 74.4633 74.7228 74.5402 75.837 70.6392ZM73.5645 70.5615C73.4368 71.093 73.1769 71.5833 72.8094 71.9877C72.6737 72.1308 72.5103 72.2443 72.3287 72.3213C72.1471 72.3982 71.9518 72.4369 71.7547 72.4348C71.5945 72.4521 71.4331 72.4179 71.2937 72.3373C71.1546 72.2564 71.0451 72.1327 70.9812 71.985C70.8576 71.5131 70.8886 71.0139 71.0702 70.5609C71.1893 70.0529 71.4433 69.5864 71.8055 69.2103C71.9411 69.0674 72.1049 68.9539 72.2862 68.8773C72.4676 68.8003 72.6631 68.7619 72.8602 68.764C73.0159 68.7485 73.1726 68.7832 73.307 68.8636C73.4413 68.944 73.5463 69.0656 73.6061 69.2103C73.7431 69.6526 73.7284 70.128 73.5645 70.5609V70.5615Z" fill="#989898"/>
<path d="M39.344 65.4651C39.3905 65.3326 39.4051 65.191 39.3867 65.0516C39.3686 64.9125 39.3181 64.7795 39.239 64.6633C39.1629 64.5551 39.0609 64.4678 38.9423 64.4095C38.8234 64.3511 38.692 64.3235 38.5598 64.3294H37.3735L34.9281 72.8979C34.5937 74.0789 35.1738 74.3789 35.7248 74.4229C36.1131 74.4542 36.5794 74.471 37.0372 74.471C37.3315 74.471 37.6141 74.4643 37.8529 74.4502L38.0874 74.4355L38.6119 72.6012H37.5874C37.3072 72.6012 37.3369 72.4989 37.3641 72.4009L38.4196 68.6935H38.7062C39.0286 68.6884 39.3402 68.5773 39.5932 68.3776C39.8696 68.1767 40.0707 67.8891 40.1639 67.5606L40.3397 66.9492H38.9188L39.344 65.4651Z" fill="#989898"/>
<path d="M31.323 70.6395C31.6585 69.7277 31.6473 68.7245 31.2915 67.8204C31.1201 67.4711 30.848 67.1808 30.5103 66.9871C30.1724 66.7935 29.7844 66.7051 29.396 66.7337C28.9376 66.7305 28.4831 66.8189 28.0593 66.9935C27.8548 67.0836 27.6608 67.1957 27.4805 67.3277L28.0152 65.4645C28.0614 65.332 28.076 65.1905 28.0579 65.0513C28.0398 64.9122 27.9895 64.7792 27.9109 64.663C27.8303 64.553 27.7236 64.4648 27.6004 64.4063C27.4771 64.3481 27.3413 64.3214 27.2051 64.3289H26.0689L24.1446 71.0569C23.0913 74.7397 26.8181 74.4638 26.8181 74.4638C26.8181 74.4638 30.2068 74.5405 31.323 70.6395ZM29.0505 70.562C28.9227 71.0932 28.663 71.5839 28.2952 71.9882C28.1598 72.1314 27.9962 72.2452 27.8147 72.3221C27.6331 72.3987 27.4377 72.4375 27.2405 72.4351C27.0805 72.4527 26.919 72.4182 26.7799 72.3376C26.6407 72.2566 26.5311 72.1332 26.4672 71.9856C26.3434 71.5134 26.3746 71.0142 26.5561 70.5612C26.6753 70.0532 26.9293 69.5866 27.2913 69.2106C27.427 69.0677 27.5907 68.9545 27.7721 68.8778C27.9536 68.8009 28.149 68.7624 28.346 68.7643C28.5018 68.7488 28.6585 68.7838 28.7929 68.8642C28.9272 68.9446 29.0321 69.0661 29.0919 69.2106C29.229 69.6529 29.2145 70.1283 29.0505 70.5612V70.562Z" fill="#989898"/>
<path d="M37.2186 82.6565C36.6399 83.1645 35.8904 83.4348 35.1204 83.4134C34.8106 83.4417 34.4984 83.3883 34.2156 83.259C33.9325 83.1295 33.6882 82.9281 33.507 82.6752C33.0185 81.9853 33.2437 81.1243 33.5418 79.9892C33.8398 78.8543 34.0652 77.9933 34.9167 77.3026C35.4716 76.8224 36.1831 76.5612 36.9171 76.5679C38.5968 76.5679 39.0163 77.6925 38.882 78.7996H37.268C37.2739 78.2892 37.0816 78.0432 36.5328 78.0432C36.2667 78.0451 36.012 78.1503 35.8223 78.3367C35.6217 78.537 35.4727 78.7614 35.1498 79.9918C34.8272 81.2223 34.8566 81.4581 34.9495 81.6566C35.0053 81.7524 35.0879 81.8304 35.1869 81.8806C35.286 81.9311 35.3977 81.9517 35.5082 81.9405C35.7937 81.9498 36.0731 81.855 36.2935 81.6734C36.5111 81.4854 36.6636 81.2335 36.7299 80.9539L36.7552 80.859H35.7916L36.1546 79.4782H38.7137L38.4683 80.4133C38.3193 81.2816 37.8783 82.0727 37.2186 82.6565Z" fill="#EC7000"/>
<path d="M38.6211 83.3565L40.3892 76.6223H40.8568C40.997 76.6154 41.1367 76.6432 41.2636 76.703C41.3905 76.7631 41.5005 76.8536 41.5836 76.9663C41.6669 77.0793 41.7208 77.211 41.7409 77.3499C41.7606 77.4888 41.7459 77.6303 41.6979 77.762L40.6178 81.8817H43.358L42.971 83.357L38.6211 83.3565Z" fill="#EC7000"/>
<path d="M47.95 82.6752C47.3926 83.1586 46.6774 83.4211 45.9394 83.4134C45.628 83.4422 45.3145 83.3896 45.0297 83.2601C44.745 83.1306 44.4993 82.9289 44.3166 82.6752C43.8282 81.9851 44.0546 81.124 44.3514 79.9892C44.6481 78.8543 44.8762 77.9933 45.7276 77.3023C46.2856 76.8205 47.0005 76.559 47.7382 76.5676C48.0491 76.5382 48.3624 76.5906 48.6471 76.7193C48.9315 76.8483 49.1775 77.0491 49.3602 77.3023C49.8495 77.9933 49.6235 78.8535 49.3255 79.9892C49.0274 81.1248 48.8015 81.9859 47.95 82.6752ZM47.9153 78.3333C47.8587 78.2355 47.7756 78.1559 47.6752 78.1041C47.575 78.052 47.4623 78.0299 47.3499 78.04C47.0815 78.0419 46.8243 78.1468 46.6312 78.3333C46.4309 78.5336 46.281 78.7579 45.9581 79.9884C45.6355 81.2188 45.6702 81.4354 45.765 81.6344C45.8203 81.7332 45.9026 81.8144 46.0022 81.8678C46.1018 81.9215 46.2151 81.9455 46.3278 81.937C46.5983 81.9322 46.8566 81.824 47.0497 81.6344C47.2503 81.4341 47.398 81.2183 47.7179 79.9884C48.0381 78.7587 48.0109 78.533 47.9153 78.3346V78.3333Z" fill="#EC7000"/>
<path d="M52.2149 83.3565H49.3716L51.1397 76.6223H53.8457C55.2038 76.6223 55.722 77.4065 55.4164 78.571C55.2452 79.1361 54.8641 79.6142 54.351 79.9069C54.5797 80.0653 54.7469 80.2976 54.8238 80.5647C54.9007 80.8321 54.8831 81.1176 54.7736 81.3732C54.6379 81.9461 54.3099 82.4551 53.8444 82.8159C53.3789 83.1768 52.8038 83.3675 52.2149 83.3565ZM53.3551 78.1068H52.3527L52.0646 79.2034H53.0672C53.2328 79.2117 53.396 79.1612 53.5282 79.0611C53.6604 78.9609 53.753 78.8175 53.7896 78.6559C53.8591 78.3912 53.7958 78.1073 53.3551 78.1073V78.1068ZM52.7598 80.6884H51.6776L51.3667 81.8702H52.4502C52.6238 81.8718 52.7926 81.8133 52.928 81.7049C53.0634 81.5965 53.1572 81.4445 53.1935 81.2749C53.267 80.9918 53.2002 80.6892 52.7598 80.6892V80.6884Z" fill="#EC7000"/>
<path d="M58.8339 83.3565L58.7944 82.3544H56.7852L56.2005 83.3565H54.5195L58.6636 76.6223H59.902L60.5107 83.3565H58.8339ZM58.6561 79.1754L57.5974 80.9723H58.7335L58.6561 79.1754Z" fill="#EC7000"/>
<path d="M60.9927 83.3565L62.7605 76.6223H63.2332C63.3724 76.6154 63.511 76.6426 63.6368 76.7022C63.7628 76.7618 63.8721 76.8515 63.9549 76.9637C64.0377 77.0756 64.0913 77.2064 64.1111 77.3443C64.1309 77.4821 64.1165 77.6226 64.0686 77.7534L62.9851 81.8817H65.7296L65.3426 83.357L60.9927 83.3565Z" fill="#EC7000"/>
<path d="M30.2764 80.5327H24.266C23.9123 80.5327 23.7364 80.2456 23.8718 79.8909C23.9452 79.7119 24.067 79.557 24.2234 79.4435C24.3798 79.33 24.5647 79.2627 24.7572 79.2491H30.7676C31.1213 79.2491 31.2972 79.5362 31.1618 79.8909C31.0883 80.0698 30.9665 80.2247 30.8101 80.338C30.6537 80.4515 30.4689 80.5188 30.2764 80.5327Z" fill="#EC7000"/>
<path d="M75.0657 80.5327H69.1862C68.8401 80.5327 68.6681 80.2456 68.8005 79.8909C68.8724 79.7119 68.9915 79.557 69.1445 79.4435C69.2976 79.33 69.4784 79.2627 69.6667 79.2491H75.5465C75.8923 79.2491 76.0643 79.5362 75.9319 79.8909C75.86 80.0698 75.7409 80.2247 75.5879 80.338C75.4348 80.4515 75.254 80.5188 75.0657 80.5327Z" fill="#EC7000"/>
<defs>
<linearGradient id="paint0_linear" x1="64.5465" y1="35.9564" x2="60.6765" y2="29.7147" gradientUnits="userSpaceOnUse">
<stop stop-color="#D62616" stop-opacity="0"/>
<stop offset="1" stop-color="#D62616"/>
</linearGradient>
</defs>
</svg>
