<svg width="100" height="100" viewBox="0 0 100 100" fill="none" xmlns="http://www.w3.org/2000/svg">
<path d="M50 74C50 36.6666 50 18 50 18C39.0002 18 28 36.6666 17 74H50Z" fill="url(#paint0_linear)"/>
<path d="M83 74C83 30 83 8 83 8C67.6667 8 52.3333 30 37 74H83Z" fill="url(#paint1_linear)"/>
<path fill-rule="evenodd" clip-rule="evenodd" d="M17 92.7242V77.1236H21.6952C24.8047 77.1236 27.0493 78.141 27.0493 80.9601C27.0493 82.444 26.2462 83.864 24.887 84.3305V84.4363C26.6169 84.8179 27.873 86.026 27.873 88.1457C27.873 91.2406 25.4225 92.7242 22.0658 92.7242H17ZM19.3888 83.6308H21.4275C23.7338 83.6308 24.7017 82.7408 24.7017 81.2782C24.7017 79.6459 23.6309 79.0314 21.4892 79.0314H19.3888V83.6308ZM19.3888 90.7954H21.7981C24.1663 90.7954 25.5254 89.9264 25.5254 88.0186C25.5254 86.2592 24.2075 85.4963 21.7981 85.4963H19.3888V90.7954ZM30.5296 92.7242V81.0662H32.8771V92.7242H30.5296ZM31.7031 78.883C30.8383 78.883 30.1999 78.2894 30.1999 77.4413C30.1999 76.5723 30.8383 76 31.7031 76C32.568 76 33.2271 76.5723 33.2271 77.4413C33.2271 78.2894 32.568 78.883 31.7031 78.883ZM40.2493 93C37.6956 93 36.8105 91.3677 36.8105 88.909V83.0163H35.163V81.0662H36.8514V77.8442H39.1786V81.0662H42.1232V83.0163H39.1786V88.9303C39.1786 90.329 39.6522 91.0496 40.8258 91.0496C41.2171 91.0496 41.7113 90.9225 42.041 90.7741L42.4733 92.5758C41.8348 92.7881 41.0729 93 40.2493 93ZM44.8005 92.7242V77.1236H47.7972L50.839 85.0085C51.2222 86.0473 51.56 87.1073 51.9432 88.167H52.0559C52.4387 87.1073 52.7542 86.0473 53.1374 85.0085L56.1342 77.1236H59.1536V92.7242H56.7201V85.0085C56.7201 83.6098 56.9229 81.5959 57.0579 80.1759H56.9679L55.6386 83.7792L52.7542 91.2193H51.1321L48.2254 83.7792L46.9185 80.1759H46.8284C46.9408 81.5959 47.1436 83.6098 47.1436 85.0085V92.7242H44.8005ZM65.1254 93C63.1692 93 61.7895 91.6858 61.7895 89.6296C61.7895 87.1283 63.8486 85.8353 68.5646 85.3053C68.544 83.9489 68.0701 82.7617 66.4023 82.7617C65.2077 82.7617 64.0957 83.313 63.1279 83.9489L62.2424 82.2956C63.4163 81.5324 65.0019 80.7695 66.8142 80.7695C69.6353 80.7695 70.9328 82.6133 70.9328 85.7083V92.7242H68.9969C68.8672 91.9934 68.7989 91.6062 68.7911 91.5622C67.7613 92.4738 66.4845 93 65.1254 93ZM65.3796 91.0451C66.3965 91.0451 67.6138 90.2322 68.6469 89.3632V87.0713C65.0943 87.483 63.5277 88.2801 63.5277 89.5943C63.5277 90.7389 64.3625 91.0451 65.3796 91.0451ZM72.8067 92.7455L76.472 86.6621L73.0741 81.0872H75.6278L76.9869 83.4401C77.3166 84.076 77.6872 84.7331 78.0579 85.3902H78.1401C78.4488 84.7331 78.7786 84.076 79.0873 83.4401L80.2818 81.0872H82.7529L79.355 86.9376L83 92.7455H80.426L78.9434 90.2867C78.5724 89.5874 78.1814 88.8664 77.7695 88.2092H77.6666C77.3166 88.8664 76.9662 89.5661 76.6162 90.2867L75.2984 92.7455H72.8067Z" fill="#818181"/>
<defs>
<linearGradient id="paint0_linear" x1="33.5" y1="18" x2="33.5" y2="74" gradientUnits="userSpaceOnUse">
<stop stop-color="#96D9FD"/>
<stop offset="1" stop-color="#329EFC"/>
</linearGradient>
<linearGradient id="paint1_linear" x1="60" y1="8" x2="60" y2="74" gradientUnits="userSpaceOnUse">
<stop stop-color="#61C7FF"/>
<stop offset="1" stop-color="#0087FD"/>
</linearGradient>
</defs>
</svg>
