<?xml version="1.0" encoding="UTF-8"?>
<svg width="100px" height="100px" viewBox="0 0 100 100" version="1.1" xmlns="http://www.w3.org/2000/svg" xmlns:xlink="http://www.w3.org/1999/xlink">
    <title>bitpie.com</title>
    <defs>
        <rect id="path-1" x="0" y="0" width="100" height="100" rx="30"></rect>
        <linearGradient x1="52.5457501%" y1="100%" x2="52.5457504%" y2="0%" id="linearGradient-3">
            <stop stop-color="#1E3DA0" offset="0%"></stop>
            <stop stop-color="#3750DE" offset="100%"></stop>
        </linearGradient>
        <linearGradient x1="50%" y1="100%" x2="50%" y2="0%" id="linearGradient-4">
            <stop stop-color="#1E3DA0" offset="0%"></stop>
            <stop stop-color="#3750DE" offset="100%"></stop>
        </linearGradient>
        <path d="M33.0788986,56.1693511 C33.0788986,59.2019388 30.6205006,61.6603368 27.587913,61.6603368 C24.5553253,61.6603368 22.0969273,59.2019388 22.0969273,56.1693511 L22.0963503,52.8746632 L18.802336,52.8747598 C15.7697483,52.8747598 13.3113503,50.4163618 13.3113503,47.3837741 C13.3113503,44.3511865 15.7697483,41.8927885 18.802336,41.8927885 L22.0963503,41.8926632 L22.0963503,33.1066632 L18.802336,33.1072115 C15.7697483,33.1072115 13.3113503,30.6488135 13.3113503,27.6162259 C13.3113503,24.5836382 15.7697483,22.1252402 18.802336,22.1252402 L22.0963503,22.1246632 L22.0969273,18.8306489 C22.0969273,15.7980612 24.5553253,13.3396632 27.587913,13.3396632 C30.6205006,13.3396632 33.0788986,15.7980612 33.0788986,18.8306489 L33.0783503,22.1246632 L41.8643503,22.1246632 L41.8644756,18.8306489 C41.8644756,15.7980612 44.3228736,13.3396632 47.3554612,13.3396632 C50.3880489,13.3396632 52.8464469,15.7980612 52.8464469,18.8306489 L52.8463503,22.1246632 L56.1410383,22.1252402 C59.1736259,22.1252402 61.6320239,24.5836382 61.6320239,27.6162259 C61.6320239,30.6488135 59.1736259,33.1072115 56.1410383,33.1072115 L52.8463503,33.1066632 L52.8463503,41.8926632 L56.1410383,41.8927885 C59.1736259,41.8927885 61.6320239,44.3511865 61.6320239,47.3837741 C61.6320239,50.4163618 59.1736259,52.8747598 56.1410383,52.8747598 L52.8463503,52.8746632 L52.8464469,56.1693511 C52.8464469,59.2019388 50.3880489,61.6603368 47.3554612,61.6603368 C44.3228736,61.6603368 41.8644756,59.2019388 41.8644756,56.1693511 L41.8643503,52.8746632 L33.0783503,52.8746632 L33.0788986,56.1693511 Z M33.0783503,41.8926632 L41.8643503,41.8926632 L41.8643503,33.1066632 L33.0783503,33.1066632 L33.0783503,41.8926632 Z" id="path-5"></path>
        <filter x="-95.2%" y="-43.5%" width="269.7%" height="273.8%" filterUnits="objectBoundingBox" id="filter-6">
            <feOffset dx="-5" dy="22" in="SourceAlpha" result="shadowOffsetOuter1"></feOffset>
            <feGaussianBlur stdDeviation="10" in="shadowOffsetOuter1" result="shadowBlurOuter1"></feGaussianBlur>
            <feColorMatrix values="0 0 0 0 0.127020501   0 0 0 0 0.296556776   0 0 0 0 0.678013393  0 0 0 0.286062047 0" type="matrix" in="shadowBlurOuter1"></feColorMatrix>
        </filter>
        <linearGradient x1="50%" y1="0%" x2="50%" y2="100%" id="linearGradient-7">
            <stop stop-color="#1D3BA3" stop-opacity="0" offset="0%"></stop>
            <stop stop-color="#173793" stop-opacity="0.652938179" offset="100%"></stop>
        </linearGradient>
    </defs>
    <g id="logo" stroke="none" stroke-width="1" fill="none" fill-rule="evenodd">
        <g id="bitpie.com">
            <mask id="mask-2" fill="white">
                <use xlink:href="#path-1"></use>
            </mask>
            <use id="蒙版" fill="#FFFFFF" xlink:href="#path-1"></use>
            <g id="logo_标准" mask="url(#mask-2)">
                <polygon id="Combined-Shape" fill="url(#linearGradient-3)" points="0 0 100 0 100 100 0 100"></polygon>
                <g id="分组" transform="translate(12.500000, 12.500000)">
                    <circle id="Oval-5" fill="#FFFFFF" cx="37.4716871" cy="37.5" r="37.3387023"></circle>
                    <g id="Combined-Shape" transform="translate(37.471687, 37.500000) rotate(-30.000000) translate(-37.471687, -37.500000) ">
                        <use fill="black" fill-opacity="1" filter="url(#filter-6)" xlink:href="#path-5"></use>
                        <use fill="url(#linearGradient-4)" fill-rule="evenodd" xlink:href="#path-5"></use>
                    </g>
                </g>
                <path d="M50,0 C77.6142375,0 100,22.3857625 100,50 C100,77.6142375 77.6142375,100 50,100 C22.3857625,100 0,77.6142375 0,50 C0,22.3857625 22.3857625,0 50,0 Z M50,12.5 C29.2893219,12.5 12.5,29.2893219 12.5,50 C12.5,70.7106781 29.2893219,87.5 50,87.5 C70.7106781,87.5 87.5,70.7106781 87.5,50 C87.5,29.2893219 70.7106781,12.5 50,12.5 Z" id="Combined-Shape" fill="url(#linearGradient-7)"></path>
            </g>
            <polygon id="矩形" fill="#F46100" mask="url(#mask-2)" transform="translate(79.933594, 20.066406) rotate(-90.000000) translate(-79.933594, -20.066406) " points="100 -1.17239551e-13 100 40.1328125 59.8671875 40.1328125"></polygon>
            <path d="M74.7534319,20.0162174 C74.698196,19.5411886 74.6650544,18.9998767 74.6650544,18.3480931 L74.6650544,16.934054 L76.410509,16.934054 C78.553662,16.934054 79.8130406,15.7630528 79.8130406,13.7966546 C79.8130406,11.8744452 78.6088979,10.824963 76.4215561,10.824963 L74.0022236,10.824963 C73.5308772,10.824963 73.1970068,10.8200532 72.8729562,10.8102335 L72.7111582,10.8049145 C72.6030504,10.8010957 72.4936697,10.7967314 72.378288,10.7918215 C72.4445711,11.311039 72.4666655,11.8081621 72.4666655,12.4047099 L72.4666655,18.3812346 C72.4666655,19.0330183 72.4445711,19.5301414 72.378288,20.0162174 L74.7534319,20.0162174 Z M76.3110843,15.0560332 L74.6650544,15.0560332 L74.6650544,12.7029838 L76.3110843,12.7029838 C77.1064813,12.7029838 77.5373214,13.1006823 77.5373214,13.8629377 C77.5373214,14.6251932 77.084387,15.0560332 76.3110843,15.0560332 Z M83.1824307,20.0162174 C83.119304,19.5322456 83.0962577,19.138455 83.0942059,18.4531266 L83.0940533,16.5363555 L84.2208657,16.5363555 C84.5743755,16.5363555 84.850555,16.6247329 85.0825458,16.8346293 C85.3587253,17.0776673 85.4912915,17.3317525 85.8448012,18.2928572 C86.1872638,19.2097732 86.31983,19.6627076 86.3861131,20.0162174 L88.9711534,20.0162174 C88.6949739,19.4307168 88.5624077,19.1545373 88.4408887,18.8452162 C88.0015706,17.7908527 87.829703,17.3749195 87.68131,17.0484709 L87.6580391,16.9975899 L87.6349449,16.9477161 C87.6310987,16.939461 87.627251,16.9312279 87.6233973,16.9230068 C87.2698876,16.1386569 87.0158024,15.8845718 86.4523962,15.7078169 C86.993708,15.531062 87.2256988,15.409543 87.5018783,15.1554579 C87.9327184,14.7467122 88.153662,14.1280701 88.153662,13.3437202 C88.153662,11.7529262 87.115227,10.824963 85.3255838,10.824963 L82.4533168,10.824963 C81.7021085,10.824963 81.2933628,10.8139159 80.8072869,10.7918215 C80.8735699,11.3220862 80.8956643,11.7308319 80.8956643,12.4157571 L80.8956643,18.3591403 C80.8956643,19.1766316 80.8735699,19.5080471 80.8072869,20.0162174 L83.1824307,20.0162174 Z M84.8174134,14.6472876 L83.0940533,14.6472876 L83.0940533,12.6808894 L84.8284606,12.6808894 C85.5133858,12.6808894 85.8668956,13.0012576 85.8668956,13.6198998 C85.8668956,14.2495891 85.4691971,14.6472876 84.8174134,14.6472876 Z M94.0639037,20.2261138 C96.7483686,20.2261138 98.5269647,18.2928572 98.5269647,15.3764015 C98.5269647,12.4820401 96.7925573,10.6261138 94.0749508,10.6261138 C91.3573444,10.6261138 89.6118899,12.4930873 89.6118899,15.409543 C89.6118899,18.3370459 91.3573444,20.2261138 94.0639037,20.2261138 Z M94.0749508,18.3149515 C92.7271948,18.3149515 91.8986563,17.1991863 91.8986563,15.3984958 C91.8986563,13.6198998 92.7271948,12.5262289 94.0749508,12.5262289 C95.4116597,12.5262289 96.2291511,13.6088526 96.2291511,15.3984958 C96.2291511,17.2102335 95.4116597,18.3149515 94.0749508,18.3149515 Z" id="PRO" fill="#FFFFFF" fill-rule="nonzero" mask="url(#mask-2)" transform="translate(85.452626, 15.426114) rotate(-315.000000) translate(-85.452626, -15.426114) "></path>
        </g>
    </g>
</svg>