<?xml version="1.0" encoding="UTF-8"?>
<svg width="512px" height="512px" viewBox="0 0 512 512" version="1.1" xmlns="http://www.w3.org/2000/svg" xmlns:xlink="http://www.w3.org/1999/xlink">
    <title>logo_5</title>
    <defs>
        <rect id="path-1" x="0" y="0" width="512" height="512" rx="110"></rect>
        <linearGradient x1="52.5457501%" y1="100%" x2="52.5457504%" y2="0%" id="linearGradient-3">
            <stop stop-color="#1E3DA0" offset="0%"></stop>
            <stop stop-color="#3750DE" offset="100%"></stop>
        </linearGradient>
        <linearGradient x1="50%" y1="100%" x2="50%" y2="0%" id="linearGradient-4">
            <stop stop-color="#1E3DA0" offset="0%"></stop>
            <stop stop-color="#3750DE" offset="100%"></stop>
        </linearGradient>
        <path d="M169.363961,287.700924 C169.363961,303.164897 156.827934,315.700924 141.363961,315.700924 L141.136268,315.700924 C125.672295,315.700924 113.136268,303.164897 113.136268,287.700924 L113.136114,270.718076 L96.1541137,270.71877 C80.6901407,270.71877 68.1541137,258.182743 68.1541137,242.71877 L68.1541137,242.491077 C68.1541137,227.027104 80.6901407,214.491077 96.1541137,214.491077 L113.136114,214.491076 L113.136114,169.508076 L96.1541137,169.508923 C80.6901407,169.508923 68.1541137,156.972896 68.1541137,141.508923 L68.1541137,141.28123 C68.1541137,125.817257 80.6901407,113.28123 96.1541137,113.28123 L113.136114,113.281076 L113.136268,96.2990757 C113.136268,80.8351027 125.672295,68.2990757 141.136268,68.2990757 L141.363961,68.2990757 C156.827934,68.2990757 169.363961,80.8351027 169.363961,96.2990757 L169.363114,113.281076 L214.346114,113.281076 L214.346115,96.2990757 C214.346115,80.8351027 226.882142,68.2990757 242.346115,68.2990757 L242.573808,68.2990757 C258.037781,68.2990757 270.573808,80.8351027 270.573808,96.2990757 L270.573114,113.281076 L287.555962,113.28123 C303.019935,113.28123 315.555962,125.817257 315.555962,141.28123 L315.555962,141.508923 C315.555962,156.972896 303.019935,169.508923 287.555962,169.508923 L270.573114,169.508076 L270.573114,214.491076 L287.555962,214.491077 C303.019935,214.491077 315.555962,227.027104 315.555962,242.491077 L315.555962,242.71877 C315.555962,258.182743 303.019935,270.71877 287.555962,270.71877 L270.573114,270.718076 L270.573808,287.700924 C270.573808,303.164897 258.037781,315.700924 242.573808,315.700924 L242.346115,315.700924 C226.882142,315.700924 214.346115,303.164897 214.346115,287.700924 L214.346114,270.718076 L169.363114,270.718076 L169.363961,287.700924 Z M169.363114,214.491076 L214.346114,214.491076 L214.346114,169.508076 L169.363114,169.508076 L169.363114,214.491076 Z" id="path-5"></path>
        <filter x="-18.6%" y="-8.5%" width="133.1%" height="134.0%" filterUnits="objectBoundingBox" id="filter-6">
            <feOffset dx="-5" dy="22" in="SourceAlpha" result="shadowOffsetOuter1"></feOffset>
            <feGaussianBlur stdDeviation="10" in="shadowOffsetOuter1" result="shadowBlurOuter1"></feGaussianBlur>
            <feColorMatrix values="0 0 0 0 0.127020501   0 0 0 0 0.296556776   0 0 0 0 0.678013393  0 0 0 0.286062047 0" type="matrix" in="shadowBlurOuter1"></feColorMatrix>
        </filter>
        <linearGradient x1="50%" y1="0%" x2="50%" y2="100%" id="linearGradient-7">
            <stop stop-color="#1D3BA3" stop-opacity="0" offset="0%"></stop>
            <stop stop-color="#173793" stop-opacity="0.652938179" offset="100%"></stop>
        </linearGradient>
    </defs>
    <g id="logo" stroke="none" stroke-width="1" fill="none" fill-rule="evenodd">
        <g id="logo_5">
            <mask id="mask-2" fill="white">
                <use xlink:href="#path-1"></use>
            </mask>
            <use id="蒙版" fill="#FFFFFF" xlink:href="#path-1"></use>
            <g id="logo_标准" mask="url(#mask-2)">
                <polygon id="Combined-Shape" fill="url(#linearGradient-3)" points="0 0 512 0 512 512 0 512"></polygon>
                <g id="分组" transform="translate(64.000000, 64.000000)">
                    <circle id="Oval-5" fill="#FFFFFF" cx="191.855038" cy="192" r="191.174156"></circle>
                    <g id="Combined-Shape" transform="translate(191.855038, 192.000000) rotate(-30.000000) translate(-191.855038, -192.000000) ">
                        <use fill="black" fill-opacity="1" filter="url(#filter-6)" xlink:href="#path-5"></use>
                        <use fill="url(#linearGradient-4)" fill-rule="evenodd" xlink:href="#path-5"></use>
                    </g>
                </g>
                <path d="M256,0 C397.384896,0 512,114.615104 512,256 C512,397.384896 397.384896,512 256,512 C114.615104,512 0,397.384896 0,256 C0,114.615104 114.615104,0 256,0 Z M256,64 C149.961328,64 64,149.961328 64,256 C64,362.038672 149.961328,448 256,448 C362.038672,448 448,362.038672 448,256 C448,149.961328 362.038672,64 256,64 Z" id="Combined-Shape" fill="url(#linearGradient-7)"></path>
            </g>
            <polygon id="矩形" fill="#F46100" mask="url(#mask-2)" transform="translate(419.500000, 92.500000) rotate(-90.000000) translate(-419.500000, -92.500000) " points="512 -3.46597751e-14 512 185 327 185"></polygon>
            <text id="PRO" mask="url(#mask-2)" transform="translate(450.328427, 70.035534) rotate(-315.000000) translate(-450.328427, -70.035534) " font-family="HiraKakuStd-W8, Hiragino Kaku Gothic Std" font-size="50" font-weight="600" fill="#FFFFFF">
                <tspan x="388.328427" y="89.0355339">PRO</tspan>
            </text>
        </g>
    </g>
</svg>