<?xml version="1.0" standalone="no"?>
<!DOCTYPE svg PUBLIC "-//W3C//DTD SVG 20010904//EN"
 "http://www.w3.org/TR/2001/REC-SVG-20010904/DTD/svg10.dtd">
<svg version="1.0" xmlns="http://www.w3.org/2000/svg"
 width="400.000000pt" height="400.000000pt" viewBox="0 0 400.000000 400.000000"
 preserveAspectRatio="xMidYMid meet">

<g transform="translate(0.000000,400.000000) scale(0.100000,-0.100000)"
fill="#000000" stroke="none">
<path d="M0 2000 l0 -2000 2000 0 2000 0 0 2000 0 2000 -2000 0 -2000 0 0
-2000z m2516 1499 c239 -89 390 -238 461 -454 37 -116 43 -279 14 -396 -54
-216 -181 -374 -376 -469 -139 -67 -167 -70 -755 -70 l-521 0 -24 -25 c-35
-34 -35 -96 0 -130 l24 -25 836 0 c935 0 909 2 1060 -71 177 -85 296 -220 362
-413 26 -75 28 -92 27 -231 0 -137 -3 -157 -27 -225 -39 -108 -101 -206 -177
-280 -78 -76 -151 -122 -263 -164 l-82 -31 -1252 -3 -1253 -2 0 52 c1 255 182
489 426 552 54 14 177 16 1007 16 l945 0 31 26 c41 34 43 89 5 125 l-26 24
-856 5 -857 5 -80 28 c-162 57 -289 155 -377 292 -137 213 -155 455 -50 677
91 193 225 313 427 385 l80 28 545 5 545 5 28 26 c43 41 38 87 -16 141 -1 1
-330 5 -732 8 l-730 5 -65 26 c-73 28 -150 74 -150 89 0 6 5 9 11 8 6 -2 12 6
14 17 3 36 16 65 26 59 5 -3 8 -2 7 3 -4 15 23 83 33 83 6 0 8 4 5 9 -3 4 3
16 14 26 11 10 17 21 15 25 -3 4 2 11 11 14 9 3 14 13 10 21 -3 8 -1 17 4 20
6 4 10 15 10 26 0 10 5 19 10 19 6 0 10 8 10 18 1 26 27 55 42 46 11 -6 11 -5
0 8 -11 14 -10 20 8 38 13 13 20 29 17 41 -5 19 10 19 761 17 l767 -3 71 -26z"/>
</g>
</svg>
