<?xml version="1.0" standalone="no"?>
<!DOCTYPE svg PUBLIC "-//W3C//DTD SVG 20010904//EN"
 "http://www.w3.org/TR/2001/REC-SVG-20010904/DTD/svg10.dtd">
<svg version="1.0" xmlns="http://www.w3.org/2000/svg"
 width="400.000000pt" height="400.000000pt" viewBox="0 0 400.000000 400.000000"
 preserveAspectRatio="xMidYMid meet">

<g transform="translate(0.000000,400.000000) scale(0.100000,-0.100000)"
fill="#000000" stroke="none">
<path d="M1318 3074 c-13 -12 -10 -1252 2 -1275 10 -18 25 -19 335 -19 318 0
325 0 335 21 8 14 10 132 8 392 -4 350 -5 376 -26 437 -64 193 -216 346 -411
413 -84 29 -228 48 -243 31z"/>
<path d="M2140 2485 c-8 -10 -11 -72 -8 -232 3 -214 3 -219 30 -274 40 -80
159 -182 191 -162 6 3 7 1 4 -4 -13 -21 85 -33 271 -33 154 0 192 3 202 15 6
8 9 19 5 25 -4 6 -1 9 7 8 21 -5 12 55 -24 165 -34 102 -133 265 -157 259 -7
-1 -10 2 -7 7 17 27 -226 193 -256 175 -6 -4 -8 -3 -5 3 7 11 -33 25 -136 48
-85 19 -101 19 -117 0z"/>
</g>
</svg>
