<svg id="svg" version="1.1" xmlns="http://www.w3.org/2000/svg" xmlns:xlink="http://www.w3.org/1999/xlink" width="400" height="400" viewBox="0, 0, 400,400"><g id="svgg"><path id="path0" d="M69.500 47.096 L 45.200 47.206 45.200 55.179 C 45.200 60.064,45.355 63.249,45.600 63.400 C 45.820 63.536,46.000 64.322,46.000 65.147 C 46.000 65.972,46.264 66.996,46.587 67.424 C 46.910 67.851,47.182 68.830,47.192 69.600 C 47.202 70.370,47.657 71.783,48.205 72.741 C 48.752 73.698,49.200 74.744,49.200 75.065 C 49.200 75.869,52.430 82.423,53.295 83.375 C 53.683 83.802,54.000 84.286,54.000 84.451 C 54.000 84.616,54.720 85.583,55.600 86.600 C 56.480 87.617,57.200 88.595,57.200 88.775 C 57.200 89.227,64.679 96.800,65.125 96.800 C 65.324 96.800,66.278 97.478,67.244 98.307 C 68.210 99.136,69.540 100.072,70.200 100.387 C 70.860 100.702,71.940 101.343,72.600 101.811 C 74.478 103.143,77.594 104.663,80.000 105.418 C 81.210 105.798,82.560 106.260,83.000 106.444 C 85.290 107.401,87.572 107.989,89.020 107.994 C 89.911 107.997,90.865 108.225,91.140 108.500 C 91.534 108.894,106.389 109.047,161.520 109.223 C 199.954 109.345,231.940 109.598,232.600 109.785 C 234.364 110.285,236.701 111.858,236.978 112.732 C 237.112 113.151,237.576 113.816,238.010 114.209 C 238.666 114.803,238.800 115.445,238.800 117.999 L 238.800 121.075 236.449 123.485 C 233.258 126.756,237.531 126.509,179.800 126.768 C 147.289 126.914,127.978 127.145,127.600 127.391 C 127.270 127.606,126.010 127.907,124.800 128.059 C 121.892 128.426,118.793 129.118,118.243 129.523 C 117.999 129.703,116.810 130.088,115.600 130.380 C 114.390 130.672,112.511 131.336,111.425 131.856 C 110.339 132.375,109.256 132.800,109.019 132.800 C 107.490 132.800,95.479 140.228,93.222 142.570 C 92.463 143.356,91.640 144.000,91.391 144.000 C 90.579 144.000,82.030 153.414,80.584 155.900 C 80.168 156.615,79.686 157.200,79.514 157.200 C 79.341 157.200,79.200 157.408,79.200 157.662 C 79.200 157.916,78.771 158.687,78.247 159.373 C 77.035 160.963,72.000 170.985,72.000 171.808 C 72.000 172.149,71.731 172.838,71.403 173.340 C 70.112 175.310,68.427 181.797,68.115 186.000 C 68.025 187.210,67.692 188.767,67.376 189.460 C 66.534 191.303,66.556 204.922,67.402 206.546 C 67.731 207.176,68.000 208.632,68.000 209.782 C 68.000 214.022,71.203 223.984,74.628 230.400 C 74.922 230.950,75.645 232.300,76.235 233.400 C 76.825 234.500,77.733 235.909,78.254 236.531 C 78.774 237.153,79.200 237.918,79.200 238.231 C 79.200 238.544,79.341 238.800,79.514 238.800 C 79.686 238.800,80.165 239.385,80.577 240.100 C 80.989 240.815,82.198 242.334,83.263 243.476 C 84.328 244.618,85.201 245.698,85.202 245.876 C 85.206 246.392,89.623 250.839,91.181 251.896 C 91.962 252.426,93.233 253.430,94.006 254.129 C 95.580 255.552,99.143 257.985,101.062 258.948 C 101.756 259.296,102.568 259.811,102.866 260.091 C 103.619 260.800,108.555 263.200,109.261 263.200 C 109.579 263.200,110.011 263.356,110.220 263.546 C 110.706 263.989,115.490 265.714,118.600 266.567 C 119.920 266.930,121.553 267.400,122.228 267.613 C 122.904 267.826,124.277 268.000,125.280 268.000 C 126.282 268.000,127.799 268.295,128.651 268.656 C 130.067 269.256,133.698 269.290,170.800 269.050 C 217.270 268.750,218.400 268.709,218.400 267.343 C 218.400 266.771,218.636 266.400,219.000 266.400 C 219.355 266.400,219.601 266.032,219.602 265.500 C 219.606 263.891,220.424 261.600,220.994 261.600 C 221.350 261.600,221.651 260.931,221.829 259.749 C 222.028 258.421,222.318 257.842,222.853 257.702 C 223.319 257.580,223.600 257.148,223.600 256.553 C 223.600 256.029,223.780 255.600,224.000 255.600 C 224.220 255.600,224.400 255.330,224.400 255.000 C 224.400 254.670,224.670 254.400,225.000 254.400 C 225.369 254.400,225.600 254.025,225.600 253.424 C 225.600 252.887,225.780 252.336,226.000 252.200 C 226.220 252.064,226.400 251.423,226.400 250.776 C 226.400 249.997,226.603 249.600,227.000 249.600 C 227.359 249.600,227.600 249.231,227.600 248.680 C 227.600 247.427,228.487 245.607,229.100 245.603 C 229.408 245.601,229.600 245.041,229.600 244.147 C 229.600 243.238,229.875 242.452,230.335 242.047 C 230.739 241.691,231.187 240.805,231.330 240.077 C 231.598 238.709,232.423 237.600,233.171 237.600 C 233.407 237.600,233.600 237.150,233.600 236.600 C 233.600 236.050,233.780 235.600,234.000 235.600 C 234.220 235.600,234.400 235.352,234.400 235.049 C 234.400 234.746,234.670 234.274,235.000 234.000 C 235.345 233.714,235.600 232.842,235.600 231.951 C 235.600 230.563,235.705 230.400,236.600 230.400 C 237.476 230.400,237.600 230.227,237.600 229.000 C 237.600 228.230,237.780 227.600,238.000 227.600 C 238.220 227.600,238.400 227.330,238.400 227.000 C 238.400 226.670,238.670 226.400,239.000 226.400 C 239.419 226.400,239.600 225.978,239.600 225.000 C 239.600 224.230,239.780 223.600,240.000 223.600 C 240.220 223.600,240.400 223.352,240.400 223.049 C 240.400 222.746,240.670 222.274,241.000 222.000 C 241.330 221.726,241.600 221.074,241.600 220.551 C 241.600 220.028,241.780 219.600,242.000 219.600 C 242.220 219.600,242.400 219.172,242.400 218.649 C 242.400 218.126,242.670 217.474,243.000 217.200 C 243.330 216.926,243.600 216.490,243.600 216.231 C 243.600 215.353,244.597 213.606,245.100 213.603 C 245.375 213.601,245.600 213.186,245.600 212.680 C 245.600 211.427,246.487 209.607,247.100 209.603 C 247.375 209.601,247.600 209.176,247.600 208.659 C 247.600 207.297,245.750 207.246,186.400 206.949 C 130.397 206.668,134.108 206.846,131.582 204.321 C 128.032 200.770,128.003 195.379,131.514 191.764 C 134.045 189.158,130.528 189.325,187.024 189.126 C 232.680 188.965,238.723 188.873,239.604 188.325 C 240.152 187.984,241.590 187.671,242.800 187.630 C 244.010 187.588,245.171 187.385,245.380 187.177 C 245.589 186.970,246.399 186.794,247.180 186.787 C 247.961 186.780,248.949 186.510,249.376 186.187 C 249.804 185.864,250.652 185.600,251.262 185.600 C 251.872 185.600,253.178 185.150,254.163 184.600 C 255.148 184.050,256.241 183.600,256.591 183.600 C 257.710 183.600,260.400 181.643,260.400 180.829 C 260.400 180.593,260.850 180.400,261.400 180.400 C 262.200 180.400,262.400 180.200,262.400 179.400 C 262.400 178.778,262.627 178.400,263.000 178.400 C 263.419 178.400,263.600 177.978,263.600 177.000 C 263.600 176.230,263.780 175.600,264.000 175.600 C 264.220 175.600,264.400 175.150,264.400 174.600 C 264.400 173.978,264.627 173.600,265.000 173.600 C 265.373 173.600,265.600 173.222,265.600 172.600 C 265.600 172.050,265.780 171.600,266.000 171.600 C 266.220 171.600,266.400 171.352,266.400 171.049 C 266.400 170.746,266.670 170.274,267.000 170.000 C 267.330 169.726,267.600 169.110,267.600 168.631 C 267.600 167.419,268.498 165.607,269.100 165.603 C 269.375 165.601,269.600 165.150,269.600 164.600 C 269.600 164.050,269.780 163.600,270.000 163.600 C 270.220 163.600,270.400 163.172,270.400 162.649 C 270.400 162.126,270.670 161.474,271.000 161.200 C 271.330 160.926,271.600 160.454,271.600 160.151 C 271.600 159.848,271.759 159.600,271.953 159.600 C 272.148 159.600,272.404 159.227,272.524 158.770 C 272.643 158.314,273.114 157.843,273.570 157.724 C 274.267 157.541,274.400 157.194,274.400 155.553 C 274.400 154.122,274.554 153.600,274.975 153.600 C 275.331 153.600,275.597 153.105,275.675 152.300 C 275.761 151.408,276.083 150.876,276.700 150.605 C 277.369 150.312,277.600 149.875,277.600 148.905 C 277.600 148.187,277.780 147.600,278.000 147.600 C 278.220 147.600,278.400 147.172,278.400 146.649 C 278.400 146.126,278.670 145.474,279.000 145.200 C 279.330 144.926,279.600 144.454,279.600 144.151 C 279.600 143.848,279.780 143.600,280.000 143.600 C 280.220 143.600,280.400 142.880,280.400 142.000 C 280.400 141.120,280.593 140.400,280.829 140.400 C 281.382 140.400,282.400 139.382,282.400 138.829 C 282.400 138.593,282.670 138.400,283.000 138.400 C 283.446 138.400,283.600 137.930,283.600 136.571 C 283.600 134.809,284.240 133.600,285.171 133.600 C 285.407 133.600,285.600 132.943,285.600 132.140 C 285.600 130.998,285.904 130.385,287.000 129.321 C 287.977 128.373,288.400 127.605,288.400 126.781 C 288.400 125.998,288.602 125.600,289.000 125.600 C 289.432 125.600,289.600 125.158,289.600 124.024 C 289.600 123.157,289.780 122.336,290.000 122.200 C 290.220 122.064,290.400 121.603,290.400 121.176 C 290.400 120.749,290.649 120.400,290.953 120.400 C 291.258 120.400,291.604 120.027,291.724 119.570 C 291.843 119.114,292.314 118.643,292.770 118.524 C 293.404 118.358,293.600 117.986,293.600 116.953 C 293.600 116.209,293.780 115.600,294.000 115.600 C 294.220 115.600,294.400 115.352,294.400 115.049 C 294.400 114.746,294.670 114.274,295.000 114.000 C 295.330 113.726,295.600 113.074,295.600 112.551 C 295.600 112.028,295.780 111.600,296.000 111.600 C 296.220 111.600,296.400 111.150,296.400 110.600 C 296.400 109.978,296.627 109.600,297.000 109.600 C 297.421 109.600,297.600 109.175,297.600 108.171 C 297.600 106.774,298.317 105.600,299.171 105.600 C 299.749 105.600,299.718 103.878,299.130 103.290 C 298.871 103.031,298.503 101.870,298.313 100.710 C 297.616 96.461,297.505 95.988,297.156 95.773 C 296.960 95.652,296.794 95.068,296.787 94.476 C 296.780 93.884,296.510 93.051,296.187 92.624 C 295.864 92.196,295.600 91.516,295.600 91.112 C 295.600 90.138,291.404 81.467,290.616 80.813 C 290.277 80.532,290.000 80.082,290.000 79.812 C 290.000 79.543,289.629 78.894,289.175 78.371 C 288.721 77.848,287.968 76.740,287.501 75.910 C 287.035 75.079,286.509 74.400,286.334 74.400 C 286.159 74.400,285.669 73.725,285.244 72.900 C 284.115 70.710,274.828 61.920,271.477 59.871 C 270.821 59.470,270.027 58.885,269.714 58.571 C 269.400 58.257,268.942 58.000,268.697 58.000 C 268.452 58.000,267.880 57.652,267.426 57.227 C 266.435 56.300,257.909 52.000,257.061 52.000 C 256.733 52.000,255.955 51.744,255.332 51.430 C 254.710 51.117,253.390 50.646,252.400 50.385 C 251.410 50.123,250.240 49.754,249.800 49.565 C 247.477 48.568,245.185 48.011,243.380 48.006 C 242.269 48.003,241.135 47.775,240.860 47.500 C 240.372 47.012,140.060 46.775,69.500 47.096 M105.600 287.198 C 104.390 287.388,102.545 287.736,101.500 287.972 C 100.455 288.207,98.835 288.561,97.900 288.757 C 94.517 289.468,84.061 294.345,80.404 296.918 C 78.315 298.388,68.658 308.018,67.909 309.379 C 67.629 309.887,66.752 311.276,65.959 312.467 C 63.957 315.474,62.000 319.051,62.000 319.704 C 62.000 320.004,61.550 321.183,61.000 322.323 C 60.450 323.463,60.000 324.669,60.000 325.003 C 60.000 325.338,59.826 325.923,59.613 326.305 C 58.945 327.505,58.000 331.983,58.000 333.952 C 58.000 334.991,57.804 336.036,57.564 336.276 C 56.843 336.997,56.560 347.829,57.241 348.651 C 57.815 349.345,164.755 349.247,174.700 348.543 L 178.400 348.282 178.400 346.941 C 178.400 346.016,178.586 345.600,179.000 345.600 C 179.373 345.600,179.600 345.222,179.600 344.600 C 179.600 344.050,179.780 343.600,180.000 343.600 C 180.220 343.600,180.400 343.330,180.400 343.000 C 180.400 342.670,180.670 342.400,181.000 342.400 C 181.373 342.400,181.600 342.022,181.600 341.400 C 181.600 340.850,181.780 340.400,182.000 340.400 C 182.220 340.400,182.400 339.770,182.400 339.000 C 182.400 338.022,182.581 337.600,183.000 337.600 C 183.373 337.600,183.600 337.222,183.600 336.600 C 183.600 336.050,183.780 335.600,184.000 335.600 C 184.220 335.600,184.400 335.330,184.400 335.000 C 184.400 334.670,184.670 334.400,185.000 334.400 C 185.369 334.400,185.600 334.025,185.600 333.424 C 185.600 332.887,185.780 332.336,186.000 332.200 C 186.220 332.064,186.400 331.423,186.400 330.776 C 186.400 329.997,186.603 329.600,187.000 329.600 C 187.373 329.600,187.600 329.222,187.600 328.600 C 187.600 328.050,187.780 327.600,188.000 327.600 C 188.220 327.600,188.400 327.150,188.400 326.600 C 188.400 325.978,188.627 325.600,189.000 325.600 C 189.373 325.600,189.600 325.222,189.600 324.600 C 189.600 324.050,189.780 323.600,190.000 323.600 C 190.220 323.600,190.400 323.330,190.400 323.000 C 190.400 322.670,190.670 322.400,191.000 322.400 C 191.373 322.400,191.600 322.022,191.600 321.400 C 191.600 320.850,191.780 320.400,192.000 320.400 C 192.220 320.400,192.400 319.972,192.400 319.449 C 192.400 318.926,192.670 318.274,193.000 318.000 C 193.330 317.726,193.600 317.074,193.600 316.551 C 193.600 316.028,193.780 315.600,194.000 315.600 C 194.220 315.600,194.400 315.150,194.400 314.600 C 194.400 313.978,194.627 313.600,195.000 313.600 C 195.330 313.600,195.600 313.330,195.600 313.000 C 195.600 312.670,195.780 312.400,196.000 312.400 C 196.220 312.400,196.400 311.950,196.400 311.400 C 196.400 310.778,196.627 310.400,197.000 310.400 C 197.419 310.400,197.600 309.978,197.600 309.000 C 197.600 308.230,197.780 307.600,198.000 307.600 C 198.220 307.600,198.400 307.330,198.400 307.000 C 198.400 306.670,198.670 306.400,199.000 306.400 C 199.446 306.400,199.600 305.930,199.600 304.571 C 199.600 302.884,200.233 301.605,201.071 301.597 C 201.542 301.592,202.400 299.606,202.400 298.520 C 202.400 298.014,202.625 297.599,202.900 297.597 C 203.502 297.593,204.400 295.781,204.400 294.569 C 204.400 294.090,204.670 293.474,205.000 293.200 C 205.330 292.926,205.600 292.454,205.600 292.151 C 205.600 291.848,205.780 291.600,206.000 291.600 C 206.220 291.600,206.400 291.330,206.400 291.000 C 206.400 290.670,206.593 290.400,206.829 290.400 C 207.515 290.400,208.400 289.324,208.400 288.490 C 208.400 287.779,207.960 287.703,202.500 287.464 C 193.066 287.051,108.024 286.817,105.600 287.198 " stroke="none" fill="#f6737b" fill-rule="evenodd"></path><path id="path1" d="M290.002 79.742 C 290.001 79.930,290.450 80.619,291.000 81.273 C 291.550 81.927,291.994 82.313,291.986 82.131 C 291.966 81.677,290.004 79.315,290.002 79.742 M292.070 83.100 C 293.422 86.075,294.472 88.062,294.616 87.918 C 294.839 87.695,292.499 82.800,292.170 82.800 C 292.040 82.800,291.995 82.935,292.070 83.100 M294.978 89.034 C 295.151 89.455,295.437 90.407,295.615 91.149 C 295.793 91.891,296.132 92.692,296.369 92.929 C 296.606 93.166,296.800 93.853,296.800 94.456 C 296.800 95.059,296.960 95.652,297.156 95.773 C 297.505 95.988,297.616 96.461,298.313 100.710 C 298.503 101.870,298.871 103.031,299.130 103.290 C 299.718 103.878,299.749 105.600,299.171 105.600 C 298.317 105.600,297.600 106.774,297.600 108.171 C 297.600 109.175,297.421 109.600,297.000 109.600 C 296.627 109.600,296.400 109.978,296.400 110.600 C 296.400 111.150,296.220 111.600,296.000 111.600 C 295.780 111.600,295.600 112.028,295.600 112.551 C 295.600 113.074,295.330 113.726,295.000 114.000 C 294.670 114.274,294.400 114.746,294.400 115.049 C 294.400 115.352,294.220 115.600,294.000 115.600 C 293.780 115.600,293.600 116.209,293.600 116.953 C 293.600 117.986,293.404 118.358,292.770 118.524 C 292.314 118.643,291.843 119.114,291.724 119.570 C 291.604 120.027,291.258 120.400,290.953 120.400 C 290.649 120.400,290.400 120.749,290.400 121.176 C 290.400 121.603,290.220 122.064,290.000 122.200 C 289.780 122.336,289.600 123.157,289.600 124.024 C 289.600 125.158,289.432 125.600,289.000 125.600 C 288.602 125.600,288.400 125.998,288.400 126.781 C 288.400 127.605,287.977 128.373,287.000 129.321 C 285.904 130.385,285.600 130.998,285.600 132.140 C 285.600 132.943,285.407 133.600,285.171 133.600 C 284.240 133.600,283.600 134.809,283.600 136.571 C 283.600 137.930,283.446 138.400,283.000 138.400 C 282.670 138.400,282.400 138.593,282.400 138.829 C 282.400 139.382,281.382 140.400,280.829 140.400 C 280.593 140.400,280.400 141.120,280.400 142.000 C 280.400 142.880,280.220 143.600,280.000 143.600 C 279.780 143.600,279.600 143.848,279.600 144.151 C 279.600 144.454,279.330 144.926,279.000 145.200 C 278.670 145.474,278.400 146.126,278.400 146.649 C 278.400 147.172,278.220 147.600,278.000 147.600 C 277.780 147.600,277.600 148.187,277.600 148.905 C 277.600 149.875,277.369 150.312,276.700 150.605 C 276.083 150.876,275.761 151.408,275.675 152.300 C 275.597 153.105,275.331 153.600,274.975 153.600 C 274.554 153.600,274.400 154.122,274.400 155.553 C 274.400 157.194,274.267 157.541,273.570 157.724 C 273.114 157.843,272.643 158.314,272.524 158.770 C 272.404 159.227,272.148 159.600,271.953 159.600 C 271.759 159.600,271.600 159.848,271.600 160.151 C 271.600 160.454,271.330 160.926,271.000 161.200 C 270.670 161.474,270.400 162.126,270.400 162.649 C 270.400 163.172,270.220 163.600,270.000 163.600 C 269.780 163.600,269.600 164.050,269.600 164.600 C 269.600 165.150,269.375 165.601,269.100 165.603 C 268.498 165.607,267.600 167.419,267.600 168.631 C 267.600 169.110,267.330 169.726,267.000 170.000 C 266.670 170.274,266.400 170.746,266.400 171.049 C 266.400 171.352,266.220 171.600,266.000 171.600 C 265.780 171.600,265.600 172.050,265.600 172.600 C 265.600 173.222,265.373 173.600,265.000 173.600 C 264.627 173.600,264.400 173.978,264.400 174.600 C 264.400 175.150,264.220 175.600,264.000 175.600 C 263.780 175.600,263.600 176.230,263.600 177.000 C 263.600 177.978,263.419 178.400,263.000 178.400 C 262.627 178.400,262.400 178.778,262.400 179.400 C 262.400 180.200,262.200 180.400,261.400 180.400 C 260.850 180.400,260.400 180.593,260.400 180.829 C 260.400 181.643,257.710 183.600,256.591 183.600 C 256.241 183.600,255.148 184.050,254.163 184.600 C 253.178 185.150,251.872 185.600,251.262 185.600 C 250.652 185.600,249.804 185.864,249.376 186.187 C 248.949 186.510,247.961 186.780,247.180 186.787 C 246.399 186.794,245.589 186.969,245.380 187.175 C 245.171 187.381,244.280 187.624,243.400 187.716 C 242.130 187.848,242.171 187.860,243.600 187.775 C 246.179 187.622,249.663 186.897,250.146 186.414 C 250.374 186.186,251.065 186.000,251.682 186.000 C 252.299 186.000,253.737 185.550,254.877 185.000 C 256.017 184.450,257.165 184.000,257.427 184.000 C 258.068 184.000,265.874 180.033,267.462 178.900 C 268.156 178.405,268.889 178.000,269.092 178.000 C 269.295 178.000,269.883 177.550,270.400 177.000 C 270.917 176.450,271.501 176.000,271.698 176.000 C 271.895 176.000,272.910 175.280,273.954 174.400 C 274.998 173.520,275.997 172.800,276.175 172.800 C 276.586 172.800,285.200 164.078,285.200 163.662 C 285.200 163.491,285.567 162.957,286.016 162.475 C 288.599 159.702,296.000 147.104,296.000 145.480 C 296.000 145.156,296.269 144.376,296.598 143.746 C 296.926 143.116,297.196 142.296,297.198 141.924 C 297.199 141.552,297.380 141.136,297.600 141.000 C 297.820 140.864,298.000 140.259,298.000 139.656 C 298.000 139.053,298.186 138.374,298.414 138.146 C 298.805 137.755,299.221 135.963,299.979 131.400 C 300.162 130.300,300.524 128.713,300.782 127.873 C 301.411 125.832,301.203 107.969,300.541 107.161 C 300.289 106.852,299.989 105.700,299.875 104.600 C 299.583 101.782,298.933 98.621,298.464 97.744 C 298.246 97.335,297.757 95.920,297.378 94.600 C 297.000 93.280,296.556 92.020,296.391 91.800 C 296.227 91.580,295.968 90.817,295.815 90.105 C 295.663 89.392,295.342 88.688,295.101 88.539 C 294.807 88.357,294.767 88.519,294.978 89.034 M239.776 188.187 C 239.349 188.510,239.180 188.775,239.400 188.775 C 239.620 188.775,240.149 188.510,240.576 188.187 C 241.004 187.864,241.173 187.600,240.953 187.600 C 240.733 187.600,240.204 187.864,239.776 188.187 M224.123 189.099 C 226.720 189.169,230.860 189.168,233.323 189.098 C 235.785 189.028,233.660 188.971,228.600 188.972 C 223.540 188.972,221.525 189.029,224.123 189.099 M227.000 207.221 C 250.057 207.576,247.600 207.412,247.600 208.600 C 247.600 209.150,247.375 209.601,247.100 209.603 C 246.487 209.607,245.600 211.427,245.600 212.680 C 245.600 213.186,245.375 213.601,245.100 213.603 C 244.597 213.606,243.600 215.353,243.600 216.231 C 243.600 216.490,243.330 216.926,243.000 217.200 C 242.670 217.474,242.400 218.126,242.400 218.649 C 242.400 219.172,242.220 219.600,242.000 219.600 C 241.780 219.600,241.600 220.028,241.600 220.551 C 241.600 221.074,241.330 221.726,241.000 222.000 C 240.670 222.274,240.400 222.746,240.400 223.049 C 240.400 223.352,240.220 223.600,240.000 223.600 C 239.780 223.600,239.600 224.230,239.600 225.000 C 239.600 225.978,239.419 226.400,239.000 226.400 C 238.670 226.400,238.400 226.670,238.400 227.000 C 238.400 227.330,238.220 227.600,238.000 227.600 C 237.780 227.600,237.600 228.230,237.600 229.000 C 237.600 230.227,237.476 230.400,236.600 230.400 C 235.705 230.400,235.600 230.563,235.600 231.951 C 235.600 232.842,235.345 233.714,235.000 234.000 C 234.670 234.274,234.400 234.746,234.400 235.049 C 234.400 235.352,234.220 235.600,234.000 235.600 C 233.780 235.600,233.600 236.050,233.600 236.600 C 233.600 237.150,233.407 237.600,233.171 237.600 C 232.423 237.600,231.598 238.709,231.330 240.077 C 231.187 240.805,230.739 241.691,230.335 242.047 C 229.875 242.452,229.600 243.238,229.600 244.147 C 229.600 245.041,229.408 245.601,229.100 245.603 C 228.487 245.607,227.600 247.427,227.600 248.680 C 227.600 249.231,227.359 249.600,227.000 249.600 C 226.603 249.600,226.400 249.997,226.400 250.776 C 226.400 251.423,226.220 252.064,226.000 252.200 C 225.780 252.336,225.600 252.887,225.600 253.424 C 225.600 254.025,225.369 254.400,225.000 254.400 C 224.670 254.400,224.400 254.670,224.400 255.000 C 224.400 255.330,224.220 255.600,224.000 255.600 C 223.780 255.600,223.600 256.029,223.600 256.553 C 223.600 257.148,223.319 257.580,222.853 257.702 C 222.318 257.842,222.028 258.421,221.829 259.749 C 221.651 260.931,221.350 261.600,220.994 261.600 C 220.424 261.600,219.606 263.891,219.602 265.500 C 219.601 266.032,219.355 266.400,219.000 266.400 C 218.627 266.400,218.400 266.778,218.400 267.400 C 218.400 267.950,218.355 268.426,218.300 268.458 C 218.245 268.489,209.560 268.634,199.000 268.779 C 185.236 268.969,196.029 269.066,237.116 269.122 C 294.363 269.200,294.434 269.201,296.068 270.035 C 303.031 273.587,302.782 283.255,295.651 286.236 C 294.513 286.712,284.609 286.812,232.251 286.877 C 191.827 286.928,176.055 287.048,187.000 287.221 C 196.240 287.368,204.835 287.513,206.100 287.544 C 208.142 287.594,208.400 287.693,208.400 288.429 C 208.400 289.314,207.534 290.400,206.829 290.400 C 206.593 290.400,206.400 290.670,206.400 291.000 C 206.400 291.330,206.220 291.600,206.000 291.600 C 205.780 291.600,205.600 291.848,205.600 292.151 C 205.600 292.454,205.330 292.926,205.000 293.200 C 204.670 293.474,204.400 294.090,204.400 294.569 C 204.400 295.781,203.502 297.593,202.900 297.597 C 202.625 297.599,202.400 298.014,202.400 298.520 C 202.400 299.606,201.542 301.592,201.071 301.597 C 200.233 301.605,199.600 302.884,199.600 304.571 C 199.600 305.930,199.446 306.400,199.000 306.400 C 198.670 306.400,198.400 306.670,198.400 307.000 C 198.400 307.330,198.220 307.600,198.000 307.600 C 197.780 307.600,197.600 308.230,197.600 309.000 C 197.600 309.978,197.419 310.400,197.000 310.400 C 196.627 310.400,196.400 310.778,196.400 311.400 C 196.400 311.950,196.220 312.400,196.000 312.400 C 195.780 312.400,195.600 312.670,195.600 313.000 C 195.600 313.330,195.330 313.600,195.000 313.600 C 194.627 313.600,194.400 313.978,194.400 314.600 C 194.400 315.150,194.220 315.600,194.000 315.600 C 193.780 315.600,193.600 316.028,193.600 316.551 C 193.600 317.074,193.330 317.726,193.000 318.000 C 192.670 318.274,192.400 318.926,192.400 319.449 C 192.400 319.972,192.220 320.400,192.000 320.400 C 191.780 320.400,191.600 320.850,191.600 321.400 C 191.600 322.022,191.373 322.400,191.000 322.400 C 190.670 322.400,190.400 322.670,190.400 323.000 C 190.400 323.330,190.220 323.600,190.000 323.600 C 189.780 323.600,189.600 324.050,189.600 324.600 C 189.600 325.222,189.373 325.600,189.000 325.600 C 188.627 325.600,188.400 325.978,188.400 326.600 C 188.400 327.150,188.220 327.600,188.000 327.600 C 187.780 327.600,187.600 328.050,187.600 328.600 C 187.600 329.222,187.373 329.600,187.000 329.600 C 186.603 329.600,186.400 329.997,186.400 330.776 C 186.400 331.423,186.220 332.064,186.000 332.200 C 185.780 332.336,185.600 332.887,185.600 333.424 C 185.600 334.025,185.369 334.400,185.000 334.400 C 184.670 334.400,184.400 334.670,184.400 335.000 C 184.400 335.330,184.220 335.600,184.000 335.600 C 183.780 335.600,183.600 336.050,183.600 336.600 C 183.600 337.222,183.373 337.600,183.000 337.600 C 182.581 337.600,182.400 338.022,182.400 339.000 C 182.400 339.770,182.220 340.400,182.000 340.400 C 181.780 340.400,181.600 340.850,181.600 341.400 C 181.600 342.022,181.373 342.400,181.000 342.400 C 180.670 342.400,180.400 342.670,180.400 343.000 C 180.400 343.330,180.220 343.600,180.000 343.600 C 179.780 343.600,179.600 344.050,179.600 344.600 C 179.600 345.222,179.373 345.600,179.000 345.600 C 178.581 345.600,178.400 346.022,178.400 347.000 C 178.400 347.823,178.194 348.424,177.900 348.457 C 177.625 348.489,168.850 348.634,158.400 348.781 C 147.950 348.927,176.120 349.026,221.000 349.000 C 293.750 348.959,302.925 348.886,305.600 348.322 C 308.763 347.655,313.652 346.263,315.000 345.646 C 315.440 345.445,316.824 344.979,318.077 344.610 C 321.014 343.746,327.922 340.216,331.308 337.850 C 332.763 336.832,334.080 336.000,334.233 336.000 C 335.444 336.000,346.607 324.760,349.528 320.600 C 353.803 314.512,357.676 307.387,358.771 303.600 C 359.057 302.610,359.453 301.440,359.652 301.000 C 360.310 299.539,361.678 294.644,362.334 291.400 C 363.258 286.833,363.249 269.165,362.321 264.600 C 361.598 261.042,360.070 255.618,359.617 255.000 C 359.456 254.780,359.087 253.700,358.797 252.600 C 357.840 248.965,353.386 240.710,349.400 235.182 C 347.045 231.916,338.446 222.800,337.720 222.800 C 337.517 222.800,336.957 222.433,336.475 221.984 C 333.797 219.489,322.604 212.800,321.107 212.800 C 320.827 212.800,319.299 212.170,317.711 211.400 C 316.124 210.630,314.316 210.000,313.693 210.000 C 313.070 210.000,312.374 209.814,312.146 209.586 C 311.758 209.198,310.126 208.817,305.400 208.013 C 304.300 207.826,302.680 207.480,301.800 207.246 C 300.704 206.954,285.958 206.841,255.000 206.887 C 220.691 206.939,213.944 207.019,227.000 207.221 " stroke="none" fill="#ed8d16" fill-rule="evenodd"></path><path id="path2" d="M0.000 200.000 L 0.000 400.000 200.000 400.000 L 400.000 400.000 400.000 200.000 L 400.000 0.000 200.000 0.000 L 0.000 0.000 0.000 200.000 M240.200 46.400 C 240.336 46.620,241.292 46.808,242.324 46.818 C 243.356 46.827,244.920 47.095,245.800 47.412 C 246.680 47.729,247.794 47.991,248.276 47.994 C 248.758 47.997,249.264 48.180,249.400 48.400 C 249.536 48.620,250.142 48.800,250.747 48.800 C 251.352 48.800,252.196 49.064,252.624 49.387 C 253.051 49.710,253.884 49.980,254.476 49.987 C 255.068 49.994,255.664 50.180,255.800 50.400 C 255.936 50.620,256.352 50.800,256.724 50.801 C 257.404 50.802,263.470 53.761,264.180 54.438 C 264.389 54.637,264.802 54.800,265.097 54.800 C 265.392 54.800,265.851 54.988,266.117 55.218 C 266.383 55.448,268.220 56.706,270.200 58.014 C 276.960 62.480,288.400 73.493,288.400 75.535 C 288.400 75.754,288.541 75.993,288.713 76.067 C 289.111 76.236,292.400 81.183,292.400 81.612 C 292.400 81.789,292.535 81.993,292.700 82.067 C 292.990 82.196,294.019 84.232,296.100 88.800 C 297.621 92.138,298.000 93.169,298.000 93.970 C 298.000 94.373,298.270 94.926,298.600 95.200 C 298.930 95.474,299.200 96.295,299.200 97.025 C 299.200 97.755,299.380 98.464,299.600 98.600 C 299.820 98.736,300.000 99.394,300.000 100.063 C 300.000 100.732,300.258 101.846,300.574 102.540 C 302.089 105.864,302.222 131.206,300.734 133.063 C 300.530 133.318,300.183 134.488,299.962 135.663 C 299.741 136.838,299.456 138.340,299.330 139.000 C 299.203 139.660,298.954 140.384,298.776 140.610 C 298.597 140.835,298.161 141.915,297.806 143.010 C 297.452 144.104,296.697 145.990,296.129 147.200 C 293.838 152.087,292.990 153.809,292.782 154.000 C 292.662 154.110,291.544 155.820,290.297 157.800 C 289.049 159.780,287.584 161.909,287.041 162.531 C 286.498 163.154,285.456 164.409,284.726 165.321 C 279.756 171.535,269.030 179.703,261.200 183.237 C 260.210 183.684,258.877 184.308,258.239 184.625 C 257.600 184.941,256.781 185.200,256.419 185.200 C 256.056 185.200,255.589 185.355,255.380 185.544 C 255.171 185.733,254.010 186.205,252.800 186.592 C 251.590 186.980,250.287 187.455,249.905 187.648 C 249.523 187.842,248.651 188.000,247.966 188.000 C 247.281 188.000,246.154 188.260,245.460 188.577 C 243.231 189.597,239.838 189.676,187.000 189.940 L 135.000 190.200 133.664 191.153 C 129.333 194.242,128.619 199.587,132.024 203.441 C 134.281 205.997,126.992 205.775,218.200 206.058 C 301.288 206.316,305.876 206.387,307.379 207.440 C 307.818 207.748,308.759 208.000,309.470 208.000 C 310.181 208.000,311.176 208.157,311.681 208.349 C 312.187 208.541,313.320 208.921,314.200 209.195 C 315.695 209.659,316.838 210.104,319.800 211.374 C 320.460 211.656,321.540 212.114,322.200 212.391 C 326.079 214.016,334.014 218.845,337.376 221.627 C 339.400 223.302,347.343 231.325,348.600 232.965 C 352.341 237.843,356.535 244.862,358.541 249.600 C 358.867 250.370,359.347 251.720,359.607 252.600 C 359.867 253.480,360.332 254.710,360.640 255.332 C 360.948 255.955,361.200 256.813,361.200 257.238 C 361.200 257.663,361.360 258.323,361.557 258.705 C 362.306 260.166,363.200 263.945,363.200 265.655 C 363.200 266.637,363.386 267.626,363.614 267.854 C 364.600 268.840,363.665 290.995,362.486 294.600 C 362.270 295.260,361.871 296.610,361.599 297.600 C 361.327 298.590,360.871 299.940,360.587 300.600 C 360.303 301.260,359.851 302.610,359.583 303.600 C 358.933 306.004,355.123 313.753,354.359 314.226 C 354.161 314.347,354.000 314.714,354.000 315.040 C 354.000 315.367,353.819 315.851,353.599 316.117 C 353.378 316.383,352.537 317.590,351.730 318.800 C 348.614 323.473,342.853 329.910,339.179 332.824 C 337.761 333.949,336.420 335.079,336.200 335.335 C 335.980 335.591,334.630 336.561,333.200 337.492 C 331.770 338.422,330.354 339.394,330.053 339.652 C 329.157 340.418,319.347 345.200,318.671 345.200 C 318.328 345.200,317.936 345.380,317.800 345.600 C 317.664 345.820,317.068 346.006,316.476 346.013 C 315.884 346.020,315.051 346.290,314.624 346.613 C 314.196 346.936,313.429 347.200,312.918 347.200 C 312.407 347.200,311.677 347.363,311.295 347.563 C 310.327 348.067,307.444 348.824,304.600 349.320 C 302.968 349.604,262.845 349.748,179.200 349.769 L 56.200 349.800 56.256 343.600 C 56.317 336.813,56.797 331.885,57.529 330.526 C 57.788 330.046,58.000 329.111,58.000 328.450 C 58.000 327.788,58.180 327.136,58.400 327.000 C 58.620 326.864,58.800 326.234,58.800 325.600 C 58.800 324.966,58.966 324.345,59.169 324.219 C 59.372 324.094,59.665 323.414,59.820 322.709 C 59.975 322.003,60.239 321.150,60.407 320.813 C 60.574 320.476,61.046 319.480,61.456 318.600 C 61.865 317.720,62.335 316.940,62.500 316.867 C 62.665 316.793,62.800 316.461,62.800 316.128 C 62.800 315.796,63.205 314.956,63.700 314.263 C 64.195 313.570,64.938 312.373,65.350 311.602 C 65.763 310.831,66.214 310.110,66.353 310.000 C 66.492 309.890,67.234 308.956,68.003 307.925 C 69.267 306.230,77.051 298.374,78.433 297.400 C 78.745 297.180,79.664 296.505,80.474 295.900 C 81.284 295.295,82.124 294.800,82.340 294.800 C 82.556 294.800,82.793 294.660,82.867 294.490 C 83.105 293.936,93.773 288.793,94.676 288.796 C 95.158 288.798,95.664 288.620,95.800 288.400 C 95.936 288.180,96.594 288.000,97.263 288.000 C 97.932 288.000,99.046 287.743,99.740 287.429 C 102.172 286.327,105.346 286.283,199.800 286.043 C 289.052 285.815,295.075 285.757,296.200 285.108 C 301.858 281.846,301.843 274.195,296.172 270.938 L 294.600 270.035 211.724 270.017 C 156.923 270.006,128.763 269.864,128.600 269.600 C 128.464 269.380,127.304 269.200,126.022 269.200 C 124.733 269.200,123.180 268.933,122.546 268.602 C 121.916 268.274,120.826 268.004,120.124 268.002 C 119.422 268.001,118.736 267.820,118.600 267.600 C 118.464 267.380,117.868 267.194,117.276 267.187 C 116.684 267.180,115.851 266.910,115.424 266.587 C 114.996 266.264,114.242 266.000,113.747 266.000 C 113.252 266.000,112.736 265.820,112.600 265.600 C 112.464 265.380,111.935 265.200,111.425 265.200 C 110.915 265.200,110.274 264.930,110.000 264.600 C 109.726 264.270,109.275 264.000,108.997 264.000 C 108.575 264.000,104.731 262.123,101.011 260.100 C 99.999 259.550,94.583 255.691,92.169 253.800 C 87.657 250.266,78.000 239.255,78.000 237.644 C 78.000 237.400,77.833 237.200,77.629 237.200 C 77.425 237.200,77.009 236.705,76.704 236.100 C 76.398 235.495,75.547 233.920,74.811 232.600 C 74.075 231.280,73.342 229.930,73.181 229.600 C 71.465 226.067,70.800 224.482,70.800 223.918 C 70.800 223.549,70.620 223.136,70.400 223.000 C 70.180 222.864,69.999 222.448,69.998 222.076 C 69.996 221.704,69.726 220.884,69.398 220.254 C 69.069 219.624,68.800 218.690,68.800 218.178 C 68.800 217.666,68.620 217.136,68.400 217.000 C 68.180 216.864,67.999 216.178,67.998 215.476 C 67.996 214.774,67.726 213.684,67.398 213.054 C 67.038 212.364,66.800 210.822,66.800 209.178 C 66.800 207.676,66.620 206.336,66.400 206.200 C 66.155 206.049,66.000 202.870,66.000 198.000 C 66.000 193.130,66.155 189.951,66.400 189.800 C 66.620 189.664,66.806 188.348,66.813 186.876 C 66.821 185.160,67.036 183.922,67.413 183.424 C 67.736 182.996,68.000 181.882,68.000 180.947 C 68.000 180.012,68.180 179.136,68.400 179.000 C 68.620 178.864,68.800 178.334,68.800 177.822 C 68.800 177.310,69.069 176.376,69.398 175.746 C 69.726 175.116,69.996 174.296,69.998 173.924 C 69.999 173.552,70.180 173.136,70.400 173.000 C 70.620 172.864,70.800 172.437,70.800 172.051 C 70.800 171.665,71.993 169.021,73.451 166.175 C 77.269 158.719,77.224 158.800,77.629 158.800 C 77.833 158.800,78.000 158.600,78.000 158.356 C 78.000 157.835,81.550 152.882,83.352 150.888 C 90.529 142.950,96.834 138.000,105.346 133.619 C 107.077 132.729,108.720 132.000,108.997 132.000 C 109.275 132.000,109.726 131.730,110.000 131.400 C 110.274 131.070,110.915 130.800,111.425 130.800 C 111.935 130.800,112.464 130.620,112.600 130.400 C 112.736 130.180,113.252 130.000,113.747 130.000 C 114.242 130.000,114.996 129.736,115.424 129.413 C 115.851 129.090,116.684 128.820,117.276 128.813 C 117.868 128.806,118.464 128.620,118.600 128.400 C 118.736 128.180,119.422 127.999,120.124 127.998 C 120.826 127.996,121.916 127.726,122.546 127.398 C 123.176 127.069,124.650 126.800,125.822 126.800 C 126.994 126.800,128.064 126.620,128.200 126.400 C 128.363 126.137,145.907 125.999,179.524 125.998 C 224.050 125.995,230.747 125.918,231.746 125.398 C 232.376 125.069,233.186 124.795,233.546 124.788 C 234.254 124.776,236.800 122.637,236.800 122.055 C 236.800 121.858,237.070 121.474,237.400 121.200 C 237.825 120.847,238.000 119.914,238.000 118.000 C 238.000 116.086,237.825 115.153,237.400 114.800 C 237.070 114.526,236.800 114.137,236.800 113.934 C 236.800 113.223,235.369 112.043,233.395 111.126 L 231.400 110.200 161.800 109.959 C 94.572 109.726,89.493 109.628,86.200 108.503 C 85.540 108.278,84.190 107.877,83.200 107.612 C 78.061 106.236,65.641 99.402,64.867 97.524 C 64.793 97.346,64.523 97.198,64.267 97.195 C 63.692 97.188,57.392 90.791,55.803 88.600 C 55.164 87.720,54.541 86.910,54.417 86.800 C 53.834 86.281,50.312 80.345,49.137 77.900 C 48.951 77.515,48.620 76.842,48.400 76.405 C 48.180 75.968,48.000 75.353,48.000 75.038 C 48.000 74.723,47.700 73.865,47.332 73.132 C 46.088 70.650,46.000 70.412,45.986 69.505 C 45.978 69.007,45.714 68.150,45.400 67.600 C 45.086 67.050,44.822 65.846,44.814 64.924 C 44.806 64.002,44.620 63.136,44.400 63.000 C 43.953 62.724,43.826 46.708,44.267 46.267 C 44.718 45.815,239.921 45.948,240.200 46.400 " stroke="none" fill="#040404" fill-rule="evenodd"></path><path id="path3" d="M44.667 46.667 C 44.147 47.186,44.383 60.920,44.957 63.600 C 45.763 67.358,47.200 72.514,47.574 72.991 C 47.751 73.216,48.122 74.101,48.398 74.957 C 52.159 86.625,67.456 102.057,78.800 105.627 C 79.350 105.800,80.970 106.372,82.400 106.898 C 83.830 107.423,85.990 108.056,87.200 108.303 C 88.410 108.551,90.480 108.980,91.800 109.258 C 93.690 109.655,108.601 109.735,162.001 109.636 C 234.839 109.501,231.788 109.427,235.104 111.417 C 238.026 113.172,239.520 118.974,237.728 121.611 L 237.055 122.600 237.928 121.838 C 239.168 120.755,239.227 115.310,238.010 114.209 C 237.576 113.816,237.112 113.151,236.978 112.732 C 236.701 111.858,234.364 110.285,232.600 109.785 C 231.940 109.598,199.954 109.345,161.520 109.223 C 106.389 109.047,91.534 108.894,91.140 108.500 C 90.865 108.225,89.911 107.997,89.020 107.994 C 87.572 107.989,85.290 107.401,83.000 106.444 C 82.560 106.260,81.210 105.798,80.000 105.418 C 77.594 104.663,74.478 103.143,72.600 101.811 C 71.940 101.343,70.860 100.702,70.200 100.387 C 69.540 100.072,68.210 99.136,67.244 98.307 C 66.278 97.478,65.324 96.800,65.125 96.800 C 64.679 96.800,57.200 89.227,57.200 88.775 C 57.200 88.595,56.480 87.617,55.600 86.600 C 54.720 85.583,54.000 84.616,54.000 84.451 C 54.000 84.286,53.683 83.802,53.295 83.375 C 52.430 82.423,49.200 75.869,49.200 75.065 C 49.200 74.744,48.752 73.698,48.205 72.741 C 47.657 71.783,47.202 70.370,47.192 69.600 C 47.182 68.830,46.910 67.851,46.587 67.424 C 46.264 66.996,46.000 65.972,46.000 65.147 C 46.000 64.322,45.820 63.536,45.600 63.400 C 45.355 63.249,45.200 60.079,45.200 55.225 L 45.200 47.298 93.700 47.018 C 164.170 46.612,240.221 46.861,240.860 47.500 C 241.155 47.795,242.270 47.978,243.580 47.948 L 245.800 47.895 243.600 47.581 C 242.390 47.408,240.771 47.071,240.003 46.833 C 238.450 46.352,45.146 46.187,44.667 46.667 M246.400 48.370 C 246.730 48.600,247.243 48.791,247.540 48.794 C 247.836 48.797,248.646 49.047,249.340 49.348 C 250.033 49.650,251.410 50.113,252.400 50.378 C 253.390 50.643,254.710 51.117,255.332 51.430 C 255.955 51.744,256.737 52.000,257.070 52.000 C 257.402 52.000,259.119 52.728,260.885 53.619 C 262.651 54.509,264.171 55.162,264.264 55.069 C 264.504 54.829,257.895 51.600,257.165 51.600 C 256.832 51.600,256.389 51.443,256.180 51.251 C 255.971 51.060,254.720 50.595,253.400 50.218 C 252.080 49.842,250.459 49.303,249.798 49.020 C 248.110 48.299,245.612 47.820,246.400 48.370 M265.354 55.724 C 265.768 55.986,266.604 56.605,267.211 57.100 C 267.819 57.595,268.487 58.000,268.696 58.000 C 268.905 58.000,269.599 58.450,270.238 59.000 C 270.877 59.549,271.524 59.999,271.676 60.000 C 271.827 60.000,272.783 60.720,273.800 61.600 C 274.817 62.480,275.783 63.200,275.948 63.200 C 276.474 63.200,284.067 70.943,285.036 72.466 C 285.548 73.273,286.143 74.041,286.358 74.174 C 286.573 74.307,287.584 75.672,288.605 77.208 C 290.413 79.927,291.313 80.907,290.350 79.106 C 289.887 78.241,289.318 77.455,285.710 72.692 C 283.610 69.920,278.336 64.546,276.200 63.002 C 275.320 62.366,274.420 61.639,274.200 61.386 C 273.619 60.717,265.307 55.196,264.924 55.224 C 264.746 55.236,264.939 55.461,265.354 55.724 M297.048 93.500 C 297.192 94.105,297.466 94.903,297.655 95.274 C 297.845 95.644,298.000 96.309,298.000 96.750 C 298.000 97.192,298.161 97.652,298.357 97.774 C 298.714 97.994,298.492 96.840,297.612 93.900 C 297.094 92.171,296.656 91.860,297.048 93.500 M299.079 100.000 C 299.204 100.990,299.450 102.070,299.627 102.400 C 299.804 102.731,299.846 102.193,299.721 101.200 C 299.596 100.210,299.350 99.130,299.173 98.800 C 298.996 98.469,298.954 99.007,299.079 100.000 M300.046 104.876 C 300.021 105.908,300.142 106.841,300.316 106.948 C 300.490 107.056,300.570 106.482,300.493 105.672 C 300.259 103.198,300.095 102.907,300.046 104.876 M301.365 117.800 C 301.366 121.760,301.426 123.326,301.498 121.280 C 301.571 119.234,301.571 115.994,301.498 114.080 C 301.424 112.166,301.365 113.840,301.365 117.800 M235.400 124.100 C 234.960 124.539,234.060 125.139,233.400 125.433 C 232.482 125.843,232.388 125.972,233.000 125.983 C 233.782 125.998,236.746 123.795,236.383 123.468 C 236.283 123.378,235.840 123.662,235.400 124.100 M179.600 126.435 C 147.900 126.584,127.357 126.831,126.000 127.080 C 121.364 127.929,113.445 130.271,110.200 131.753 C 103.656 134.740,102.961 135.122,97.471 138.752 C 84.375 147.411,74.311 161.413,68.974 178.400 C 68.663 179.390,68.407 180.707,68.404 181.326 C 68.402 181.946,68.192 182.841,67.938 183.316 C 66.708 185.614,66.154 202.255,67.090 208.800 C 67.826 213.952,69.772 220.966,71.569 224.946 C 75.346 233.314,78.076 237.890,82.873 243.893 C 85.020 246.581,89.202 250.968,89.195 250.527 C 89.193 250.347,88.293 249.312,87.195 248.226 C 86.098 247.140,85.200 246.095,85.200 245.902 C 85.200 245.710,84.328 244.618,83.263 243.476 C 82.198 242.334,80.989 240.815,80.577 240.100 C 80.165 239.385,79.686 238.800,79.514 238.800 C 79.341 238.800,79.200 238.544,79.200 238.231 C 79.200 237.918,78.774 237.153,78.254 236.531 C 77.733 235.909,76.825 234.500,76.235 233.400 C 75.645 232.300,74.922 230.950,74.628 230.400 C 71.203 223.984,68.000 214.022,68.000 209.782 C 68.000 208.632,67.731 207.176,67.402 206.546 C 66.556 204.922,66.534 191.303,67.376 189.460 C 67.692 188.767,68.025 187.210,68.115 186.000 C 68.427 181.797,70.112 175.310,71.403 173.340 C 71.731 172.838,72.000 172.149,72.000 171.808 C 72.000 170.985,77.035 160.963,78.247 159.373 C 78.771 158.687,79.200 157.916,79.200 157.662 C 79.200 157.408,79.341 157.200,79.514 157.200 C 79.686 157.200,80.168 156.615,80.584 155.900 C 82.030 153.414,90.579 144.000,91.391 144.000 C 91.640 144.000,92.463 143.356,93.222 142.570 C 95.479 140.228,107.490 132.800,109.019 132.800 C 109.256 132.800,110.339 132.375,111.425 131.856 C 112.511 131.336,114.390 130.672,115.600 130.380 C 116.810 130.088,117.999 129.703,118.243 129.523 C 118.762 129.141,121.691 128.468,124.800 128.018 C 126.010 127.842,127.629 127.497,128.397 127.249 C 129.401 126.927,144.063 126.798,180.397 126.794 C 212.376 126.790,231.221 126.645,231.600 126.400 C 232.133 126.055,232.133 126.022,231.600 126.102 C 231.270 126.152,207.870 126.302,179.600 126.435 M300.249 129.415 C 300.112 129.773,300.024 130.726,300.053 131.533 C 300.101 132.844,300.138 132.787,300.395 131.000 C 300.703 128.871,300.655 128.358,300.249 129.415 M299.434 134.100 C 298.949 136.509,298.836 137.761,299.154 137.200 C 299.341 136.870,299.591 135.835,299.709 134.900 C 299.935 133.114,299.744 132.559,299.434 134.100 M289.196 158.097 C 288.026 159.856,287.936 160.182,288.946 159.000 C 289.837 157.957,290.237 157.200,289.896 157.200 C 289.839 157.200,289.524 157.604,289.196 158.097 M270.370 177.063 L 269.400 178.127 270.700 177.188 C 272.052 176.212,272.225 176.000,271.670 176.000 C 271.488 176.000,270.903 176.479,270.370 177.063 M254.000 185.400 C 253.450 185.714,253.180 185.972,253.400 185.972 C 253.620 185.972,254.250 185.714,254.800 185.400 C 255.350 185.086,255.620 184.828,255.400 184.828 C 255.180 184.828,254.550 185.086,254.000 185.400 M250.252 186.316 C 250.144 186.490,250.673 186.561,251.428 186.473 C 252.183 186.385,252.800 186.242,252.800 186.156 C 252.800 185.855,250.445 186.003,250.252 186.316 M247.307 187.176 C 246.377 187.328,245.507 187.560,245.374 187.692 C 245.027 188.040,248.486 187.557,249.200 187.159 C 249.873 186.783,249.707 186.785,247.307 187.176 M240.262 188.300 C 240.160 188.465,240.914 188.546,241.938 188.480 C 244.859 188.293,245.214 188.097,242.724 188.046 C 241.472 188.021,240.364 188.135,240.262 188.300 M186.400 189.197 C 130.706 189.417,133.939 189.267,131.536 191.741 C 127.295 196.108,128.282 202.701,133.669 205.985 C 134.996 206.795,135.238 206.797,214.600 206.700 L 294.200 206.604 214.600 206.402 C 140.135 206.213,134.918 206.155,133.736 205.508 C 127.854 202.290,128.057 193.452,134.084 190.361 C 135.519 189.625,137.265 189.599,186.484 189.560 C 214.488 189.538,237.850 189.376,238.400 189.200 C 239.113 188.972,239.170 188.896,238.600 188.937 C 238.160 188.968,214.670 189.085,186.400 189.197 M304.300 207.882 C 304.795 207.978,305.605 207.978,306.100 207.882 C 306.595 207.787,306.190 207.709,305.200 207.709 C 304.210 207.709,303.805 207.787,304.300 207.882 M89.832 251.328 C 89.935 251.588,90.530 252.160,91.157 252.600 C 91.783 253.040,93.684 254.453,95.382 255.741 C 98.654 258.223,103.200 260.962,103.200 260.452 C 103.200 260.284,102.435 259.730,101.500 259.221 C 98.897 257.803,95.567 255.540,94.006 254.129 C 92.135 252.439,89.600 250.737,89.832 251.328 M103.633 260.957 C 104.163 261.456,106.925 262.808,107.086 262.648 C 107.191 262.542,106.547 262.083,105.655 261.628 C 104.185 260.878,103.204 260.553,103.633 260.957 M109.567 263.813 C 112.162 265.011,115.246 266.087,115.463 265.870 C 115.549 265.784,114.490 265.307,113.110 264.809 C 111.729 264.311,110.420 263.770,110.200 263.607 C 109.980 263.444,109.260 263.198,108.600 263.062 C 107.831 262.902,108.178 263.172,109.567 263.813 M116.115 266.226 C 116.516 266.655,123.005 268.343,126.400 268.901 C 128.180 269.194,155.166 269.341,212.000 269.368 L 295.000 269.407 212.000 269.203 C 158.269 269.072,128.788 268.860,128.400 268.604 C 128.070 268.386,126.630 268.092,125.200 267.951 C 123.770 267.809,121.520 267.392,120.200 267.024 C 116.600 266.019,115.768 265.857,116.115 266.226 M104.800 286.828 C 102.452 287.123,99.583 287.787,96.172 288.826 C 95.496 289.032,94.729 289.200,94.468 289.200 C 91.061 289.200,78.677 297.376,72.580 303.651 C 68.610 307.736,67.540 308.996,66.201 311.156 C 65.982 311.510,65.430 312.340,64.976 313.000 C 62.713 316.289,59.587 323.821,58.420 328.800 C 56.695 336.156,55.767 346.685,56.643 348.967 C 56.863 349.542,66.103 349.591,157.943 349.501 L 259.000 349.402 158.440 349.300 C 79.352 349.220,57.753 349.093,57.285 348.704 C 56.561 348.104,56.806 337.034,57.560 336.280 C 57.802 336.038,58.000 334.991,58.000 333.952 C 58.000 331.983,58.945 327.505,59.613 326.305 C 59.826 325.923,60.000 325.338,60.000 325.003 C 60.000 324.669,60.450 323.463,61.000 322.323 C 61.550 321.183,62.000 320.004,62.000 319.704 C 62.000 319.051,63.957 315.474,65.959 312.467 C 66.752 311.276,67.629 309.887,67.909 309.379 C 68.658 308.018,78.315 298.388,80.404 296.918 C 82.274 295.602,92.363 290.483,94.800 289.614 C 96.165 289.127,97.824 288.735,101.315 288.076 C 102.258 287.898,103.293 287.583,103.615 287.376 C 103.972 287.147,133.173 286.920,178.600 286.794 L 253.000 286.588 180.200 286.545 C 140.160 286.521,106.230 286.648,104.800 286.828 M255.907 286.690 C 256.626 286.779,257.706 286.777,258.307 286.686 C 258.908 286.595,258.320 286.522,257.000 286.524 C 255.680 286.526,255.188 286.601,255.907 286.690 " stroke="none" fill="#7c2c64" fill-rule="evenodd"></path><path id="path4" d="M44.267 46.267 C 43.897 46.636,43.929 62.709,44.300 62.939 C 44.465 63.041,44.600 59.407,44.600 54.862 L 44.600 46.600 142.462 46.600 C 196.286 46.600,240.240 46.465,240.138 46.300 C 239.909 45.929,44.637 45.896,44.267 46.267 M241.400 47.133 C 242.644 47.677,247.174 48.053,246.261 47.536 C 245.855 47.306,244.415 47.042,243.061 46.950 C 241.442 46.840,240.874 46.902,241.400 47.133 M248.600 48.645 C 249.480 48.980,250.740 49.408,251.400 49.597 C 255.051 50.638,255.835 50.907,256.180 51.237 C 256.389 51.437,256.846 51.600,257.196 51.600 C 258.839 51.600,272.530 59.482,274.200 61.389 C 274.420 61.640,275.320 62.366,276.200 63.002 C 284.612 69.083,294.412 83.637,298.015 95.400 C 298.284 96.280,298.738 97.630,299.023 98.400 C 299.307 99.170,299.662 100.520,299.811 101.400 C 300.239 103.931,300.736 106.817,301.155 109.200 C 301.661 112.079,301.681 123.084,301.186 126.400 C 300.782 129.104,300.254 132.121,299.643 135.200 C 298.642 140.251,293.466 152.531,290.944 155.838 C 290.425 156.519,290.000 157.201,290.000 157.355 C 290.000 157.508,289.235 158.644,288.300 159.879 C 287.365 161.113,286.022 162.893,285.315 163.835 C 282.439 167.668,276.664 172.909,270.846 176.966 C 266.936 179.693,266.599 179.895,262.559 181.955 C 258.241 184.157,257.595 184.414,250.200 186.885 C 248.562 187.432,245.940 187.946,242.600 188.375 C 241.060 188.572,239.171 188.929,238.403 189.167 C 237.431 189.468,221.543 189.600,186.287 189.600 C 137.220 189.600,135.520 189.625,134.084 190.361 C 127.913 193.526,127.869 202.472,134.008 205.604 C 135.510 206.371,137.039 206.386,216.269 206.438 C 260.671 206.467,298.080 206.633,299.400 206.807 C 300.720 206.981,302.880 207.255,304.200 207.416 C 305.520 207.577,306.960 207.898,307.400 208.128 C 307.840 208.359,308.920 208.679,309.800 208.840 C 313.121 209.448,315.883 210.317,318.371 211.538 C 319.785 212.232,321.135 212.801,321.371 212.802 C 322.698 212.807,329.872 217.015,335.581 221.137 C 340.878 224.961,350.600 235.690,352.452 239.755 C 352.714 240.330,353.053 240.800,353.205 240.800 C 353.613 240.800,358.177 250.303,358.777 252.400 C 359.060 253.390,359.453 254.560,359.652 255.000 C 360.232 256.288,361.647 261.230,362.057 263.400 C 362.264 264.500,362.618 266.300,362.844 267.400 C 363.382 270.024,363.103 287.334,362.463 291.048 C 361.020 299.429,356.385 310.566,351.135 318.265 C 350.511 319.181,350.000 320.126,350.000 320.365 C 350.000 320.604,349.846 320.800,349.658 320.800 C 349.470 320.800,348.586 321.835,347.695 323.100 C 345.614 326.051,335.237 336.000,334.239 336.000 C 334.115 336.000,332.563 336.983,330.789 338.184 C 325.569 341.718,318.851 344.743,312.048 346.622 C 310.865 346.949,309.697 347.340,309.454 347.490 C 306.642 349.228,296.124 349.371,160.510 349.513 L 56.821 349.621 56.559 348.580 C 56.415 348.007,56.380 345.109,56.481 342.140 C 56.586 339.039,56.518 337.003,56.321 337.355 C 56.133 337.692,56.028 340.630,56.089 343.884 L 56.200 349.800 179.200 349.769 C 262.845 349.748,302.968 349.604,304.600 349.320 C 307.444 348.824,310.327 348.067,311.295 347.563 C 311.677 347.363,312.407 347.200,312.918 347.200 C 313.429 347.200,314.196 346.936,314.624 346.613 C 315.051 346.290,315.884 346.020,316.476 346.013 C 317.068 346.006,317.664 345.820,317.800 345.600 C 317.936 345.380,318.328 345.200,318.671 345.200 C 319.347 345.200,329.157 340.418,330.053 339.652 C 330.354 339.394,331.770 338.422,333.200 337.492 C 334.630 336.561,335.980 335.591,336.200 335.335 C 336.420 335.079,337.761 333.949,339.179 332.824 C 342.853 329.910,348.614 323.473,351.730 318.800 C 352.537 317.590,353.378 316.383,353.599 316.117 C 353.819 315.851,354.000 315.367,354.000 315.040 C 354.000 314.714,354.161 314.347,354.359 314.226 C 355.123 313.753,358.933 306.004,359.583 303.600 C 359.851 302.610,360.303 301.260,360.587 300.600 C 360.871 299.940,361.327 298.590,361.599 297.600 C 361.871 296.610,362.270 295.260,362.486 294.600 C 363.665 290.995,364.600 268.840,363.614 267.854 C 363.386 267.626,363.200 266.637,363.200 265.655 C 363.200 263.945,362.306 260.166,361.557 258.705 C 361.360 258.323,361.200 257.663,361.200 257.238 C 361.200 256.813,360.948 255.955,360.640 255.332 C 360.332 254.710,359.867 253.480,359.607 252.600 C 358.339 248.314,355.056 242.181,350.400 235.403 C 346.717 230.041,338.823 222.407,332.800 218.382 C 328.730 215.663,325.064 213.591,322.200 212.391 C 321.540 212.114,320.460 211.656,319.800 211.374 C 316.838 210.104,315.695 209.659,314.200 209.195 C 313.320 208.921,312.187 208.541,311.681 208.349 C 311.176 208.157,310.181 208.000,309.470 208.000 C 308.759 208.000,307.818 207.748,307.379 207.440 C 305.876 206.387,301.288 206.316,218.200 206.058 C 145.252 205.832,134.880 205.726,134.024 205.200 C 128.703 201.930,128.521 194.821,133.664 191.153 L 135.000 190.200 187.000 189.940 C 239.838 189.676,243.231 189.597,245.460 188.577 C 246.154 188.260,247.281 188.000,247.966 188.000 C 248.651 188.000,249.523 187.842,249.905 187.648 C 250.287 187.455,251.590 186.980,252.800 186.592 C 254.010 186.205,255.171 185.733,255.380 185.544 C 255.589 185.355,256.056 185.200,256.419 185.200 C 256.781 185.200,257.600 184.941,258.239 184.625 C 258.877 184.308,260.210 183.684,261.200 183.237 C 269.030 179.703,279.756 171.535,284.726 165.321 C 285.456 164.409,286.498 163.154,287.041 162.531 C 287.584 161.909,289.049 159.780,290.297 157.800 C 291.544 155.820,292.662 154.110,292.782 154.000 C 292.990 153.809,293.838 152.087,296.129 147.200 C 296.697 145.990,297.452 144.104,297.806 143.010 C 298.161 141.915,298.597 140.835,298.776 140.610 C 298.954 140.384,299.203 139.660,299.330 139.000 C 299.456 138.340,299.741 136.838,299.962 135.663 C 300.183 134.488,300.530 133.318,300.734 133.063 C 302.222 131.206,302.089 105.864,300.574 102.540 C 300.258 101.846,300.000 100.732,300.000 100.063 C 300.000 99.394,299.820 98.736,299.600 98.600 C 299.380 98.464,299.200 97.755,299.200 97.025 C 299.200 96.295,298.930 95.474,298.600 95.200 C 298.270 94.926,298.000 94.373,298.000 93.970 C 298.000 93.169,297.621 92.138,296.100 88.800 C 294.019 84.232,292.990 82.196,292.700 82.067 C 292.535 81.993,292.400 81.789,292.400 81.612 C 292.400 81.183,289.111 76.236,288.713 76.067 C 288.541 75.993,288.400 75.754,288.400 75.535 C 288.400 73.493,276.960 62.480,270.200 58.014 C 268.220 56.706,266.383 55.448,266.117 55.218 C 265.851 54.988,265.392 54.800,265.097 54.800 C 264.802 54.800,264.389 54.637,264.180 54.438 C 263.470 53.761,257.404 50.802,256.724 50.801 C 256.352 50.800,255.936 50.620,255.800 50.400 C 255.664 50.180,255.068 49.994,254.476 49.987 C 253.884 49.980,253.051 49.710,252.624 49.387 C 252.196 49.064,251.352 48.800,250.747 48.800 C 250.142 48.800,249.536 48.620,249.400 48.400 C 249.264 48.180,248.668 48.008,248.076 48.018 C 247.124 48.033,247.184 48.105,248.600 48.645 M44.869 65.000 C 44.846 65.880,45.086 67.050,45.400 67.600 C 45.714 68.150,45.978 69.084,45.986 69.676 C 45.994 70.268,46.187 70.868,46.416 71.010 C 46.872 71.292,46.693 70.206,45.786 67.200 C 45.488 66.210,45.168 64.950,45.076 64.400 C 44.970 63.766,44.894 63.985,44.869 65.000 M46.802 72.024 C 46.801 72.366,47.064 72.996,47.387 73.424 C 48.151 74.434,48.159 73.996,47.402 72.546 C 47.074 71.916,46.804 71.681,46.802 72.024 M48.028 75.076 C 48.013 75.558,48.180 76.064,48.400 76.200 C 48.873 76.492,48.873 76.101,48.400 75.000 C 48.069 74.229,48.055 74.231,48.028 75.076 M48.800 77.088 C 48.800 77.572,50.363 80.400,50.631 80.400 C 50.840 80.400,49.950 78.374,49.318 77.411 C 49.033 76.977,48.800 76.832,48.800 77.088 M50.807 80.910 C 50.800 81.233,53.985 86.450,54.403 86.800 C 54.535 86.910,55.164 87.720,55.803 88.600 C 57.160 90.472,63.654 97.187,64.115 97.195 C 64.288 97.198,63.012 95.805,61.281 94.100 C 58.027 90.897,55.964 88.333,52.707 83.442 C 51.667 81.879,50.812 80.739,50.807 80.910 M64.807 97.516 C 64.814 97.856,70.551 102.000,71.014 102.000 C 71.192 102.000,71.667 102.299,72.071 102.664 C 72.475 103.030,72.890 103.243,72.994 103.139 C 73.098 103.035,72.449 102.511,71.551 101.975 C 70.653 101.439,68.767 100.152,67.359 99.116 C 65.952 98.080,64.803 97.360,64.807 97.516 M76.143 104.708 C 76.275 104.921,76.972 105.319,77.691 105.591 C 78.411 105.863,79.540 106.316,80.200 106.598 C 82.066 107.395,84.442 108.092,84.634 107.899 C 84.730 107.803,83.952 107.434,82.904 107.080 C 79.535 105.939,77.492 105.170,76.688 104.740 C 76.235 104.498,76.005 104.484,76.143 104.708 M86.746 108.580 C 87.486 108.921,88.836 109.176,89.746 109.147 L 91.400 109.093 89.600 108.810 C 88.610 108.654,87.260 108.399,86.600 108.244 C 85.426 107.967,85.429 107.974,86.746 108.580 M92.008 109.613 C 92.549 109.956,96.751 110.189,96.367 109.855 C 96.275 109.776,95.123 109.604,93.808 109.475 C 92.254 109.321,91.623 109.370,92.008 109.613 M174.800 109.997 L 231.400 110.200 233.700 111.278 C 234.965 111.871,236.000 112.546,236.000 112.778 C 236.000 113.010,236.174 113.200,236.387 113.200 C 237.097 113.200,236.390 112.167,235.199 111.463 C 231.953 109.546,233.925 109.603,174.200 109.701 L 118.200 109.793 174.800 109.997 M236.813 113.851 C 236.806 114.099,237.070 114.526,237.400 114.800 C 237.825 115.153,238.000 116.086,238.000 118.000 C 238.000 119.914,237.825 120.847,237.400 121.200 C 237.070 121.474,236.800 121.858,236.800 122.055 C 236.800 122.637,234.254 124.776,233.546 124.788 C 233.186 124.795,232.376 125.069,231.746 125.398 C 230.747 125.918,224.050 125.995,179.524 125.998 C 151.432 125.999,128.364 126.135,128.262 126.300 C 127.868 126.937,230.023 126.447,232.200 125.802 C 236.169 124.625,238.394 121.804,238.397 117.944 C 238.400 115.682,236.875 111.744,236.813 113.851 M122.400 127.433 C 121.850 127.739,120.826 127.991,120.124 127.994 C 119.422 127.997,118.738 128.177,118.604 128.394 C 118.319 128.855,120.136 128.589,122.800 127.780 C 123.790 127.479,125.320 127.166,126.200 127.084 C 127.444 126.968,127.310 126.928,125.600 126.906 C 124.390 126.891,122.950 127.128,122.400 127.433 M115.424 129.413 C 114.996 129.736,114.242 130.000,113.747 130.000 C 113.252 130.000,112.732 130.187,112.590 130.416 C 112.299 130.887,114.101 130.546,115.377 129.890 C 115.804 129.670,116.614 129.350,117.177 129.179 L 118.200 128.869 117.200 128.847 C 116.650 128.835,115.851 129.090,115.424 129.413 M110.000 131.400 C 109.726 131.730,109.175 132.000,108.775 132.000 C 108.375 132.000,107.943 132.168,107.816 132.374 C 107.521 132.851,109.389 132.307,111.000 131.446 C 112.021 130.901,112.073 130.805,111.349 130.802 C 110.881 130.801,110.274 131.070,110.000 131.400 M105.100 133.627 C 104.275 134.063,103.600 134.501,103.600 134.601 C 103.600 134.835,105.562 133.992,106.589 133.318 C 107.794 132.527,106.790 132.735,105.100 133.627 M102.207 135.189 C 102.074 135.403,101.389 135.854,100.683 136.190 C 99.977 136.527,98.860 137.252,98.200 137.801 C 97.279 138.567,97.559 138.479,99.400 137.422 C 102.350 135.729,103.551 134.841,102.924 134.818 C 102.662 134.808,102.339 134.975,102.207 135.189 M95.400 139.835 L 94.200 140.866 95.500 140.006 C 96.215 139.533,96.800 139.068,96.800 138.973 C 96.800 138.673,96.631 138.778,95.400 139.835 M92.000 142.451 C 90.918 143.436,90.679 143.770,91.400 143.288 C 92.520 142.540,94.324 140.792,93.962 140.806 C 93.873 140.810,92.990 141.550,92.000 142.451 M83.352 150.942 C 81.717 152.681,78.000 157.800,78.000 158.313 C 78.000 158.534,77.730 158.818,77.400 158.945 C 77.070 159.071,76.800 159.371,76.800 159.611 C 76.800 160.409,77.515 159.622,79.629 156.497 C 80.780 154.794,82.415 152.639,83.261 151.709 C 84.607 150.230,85.051 149.581,84.700 149.607 C 84.645 149.611,84.039 150.212,83.352 150.942 M76.180 160.832 C 74.975 162.783,70.800 171.488,70.800 172.051 C 70.800 172.437,70.620 172.864,70.400 173.000 C 70.180 173.136,69.999 173.552,69.998 173.924 C 69.996 174.296,69.726 175.116,69.398 175.746 C 69.069 176.376,68.806 177.276,68.814 177.746 C 68.828 178.533,69.465 177.002,71.039 172.400 C 71.677 170.536,75.784 162.188,76.505 161.290 C 76.730 161.010,76.816 160.683,76.697 160.564 C 76.578 160.444,76.345 160.565,76.180 160.832 M68.267 179.067 C 68.120 179.213,68.000 180.079,68.000 180.990 C 68.000 181.901,67.736 182.996,67.413 183.424 C 67.023 183.939,66.840 185.074,66.870 186.800 L 66.914 189.400 67.184 186.800 C 67.333 185.370,67.644 183.840,67.875 183.400 C 68.232 182.719,68.865 178.800,68.618 178.800 C 68.571 178.800,68.413 178.920,68.267 179.067 M66.267 189.867 C 65.897 190.236,65.929 205.909,66.300 206.138 C 66.465 206.240,66.600 202.561,66.600 197.962 C 66.600 193.363,66.585 189.600,66.567 189.600 C 66.548 189.600,66.413 189.720,66.267 189.867 M66.857 209.254 C 66.819 211.022,67.012 212.291,67.435 213.054 L 68.069 214.200 67.780 213.000 C 67.620 212.340,67.360 210.630,67.202 209.200 L 66.914 206.600 66.857 209.254 M68.000 215.510 C 68.000 216.193,68.177 216.862,68.394 216.996 C 68.640 217.148,68.694 216.745,68.537 215.920 C 68.200 214.151,68.000 213.999,68.000 215.510 M68.818 218.254 C 68.808 218.724,69.069 219.624,69.398 220.254 C 69.726 220.884,69.996 221.704,69.998 222.076 C 69.999 222.448,70.166 222.855,70.369 222.981 C 70.764 223.225,70.406 221.728,69.416 219.000 C 69.039 217.961,68.829 217.699,68.818 218.254 M70.812 223.994 C 70.802 224.493,71.486 226.111,73.181 229.600 C 73.929 231.138,76.135 235.040,76.449 235.380 C 77.180 236.172,76.741 235.189,75.003 232.146 C 74.015 230.416,73.205 228.876,73.203 228.724 C 73.197 228.131,70.823 223.436,70.812 223.994 M76.800 236.389 C 76.800 236.629,77.070 236.929,77.400 237.055 C 77.730 237.182,78.000 237.466,78.000 237.687 C 78.000 238.246,81.700 243.277,83.397 245.024 C 85.356 247.041,85.147 246.472,83.010 243.968 C 82.026 242.815,80.398 240.647,79.394 239.149 C 77.542 236.389,76.800 235.599,76.800 236.389 M85.400 247.600 C 85.798 248.040,86.304 248.400,86.523 248.400 C 86.743 248.400,86.507 248.040,86.000 247.600 C 85.493 247.160,84.987 246.800,84.877 246.800 C 84.766 246.800,85.002 247.160,85.400 247.600 M87.400 249.600 C 87.798 250.040,88.304 250.400,88.523 250.400 C 88.743 250.400,88.507 250.040,88.000 249.600 C 87.493 249.160,86.987 248.800,86.877 248.800 C 86.766 248.800,87.002 249.160,87.400 249.600 M89.678 251.700 C 91.920 253.728,99.156 259.092,101.011 260.100 C 104.731 262.123,108.575 264.000,108.997 264.000 C 109.275 264.000,109.726 264.270,110.000 264.600 C 110.274 264.930,110.915 265.200,111.425 265.200 C 111.935 265.200,112.464 265.380,112.600 265.600 C 112.736 265.820,113.252 266.000,113.747 266.000 C 114.242 266.000,114.996 266.264,115.424 266.587 C 115.851 266.910,116.684 267.180,117.276 267.187 C 117.868 267.194,118.464 267.380,118.600 267.600 C 118.736 267.820,119.422 268.001,120.124 268.002 C 120.826 268.004,121.916 268.274,122.546 268.602 C 123.180 268.933,124.733 269.200,126.022 269.200 C 127.304 269.200,128.464 269.380,128.600 269.600 C 128.763 269.864,156.923 270.006,211.724 270.017 L 294.600 270.035 296.172 270.938 C 301.988 274.278,301.848 282.047,295.916 285.209 C 294.450 285.990,293.278 286.000,199.916 286.028 C 147.932 286.044,105.093 286.179,104.717 286.328 C 104.341 286.478,147.001 286.597,199.517 286.593 C 287.908 286.587,295.089 286.537,296.200 285.920 C 302.371 282.489,302.916 275.180,297.320 270.912 L 295.862 269.800 212.431 269.563 C 157.260 269.406,128.119 269.184,126.400 268.906 C 123.148 268.381,117.408 266.903,115.740 266.161 C 115.046 265.852,114.300 265.600,114.081 265.600 C 113.692 265.600,109.166 263.755,106.400 262.468 C 103.480 261.109,98.223 257.899,95.305 255.692 C 93.638 254.431,91.807 253.047,91.237 252.615 C 90.667 252.183,90.056 251.598,89.880 251.315 C 89.704 251.032,89.363 250.800,89.122 250.800 C 88.881 250.800,89.131 251.205,89.678 251.700 M99.600 287.433 C 99.050 287.739,98.026 287.991,97.324 287.994 C 96.622 287.997,95.936 288.180,95.800 288.400 C 95.664 288.620,95.178 288.800,94.719 288.800 C 93.764 288.800,86.202 292.335,86.506 292.640 C 86.617 292.750,88.393 292.036,90.454 291.053 C 92.514 290.069,94.920 289.084,95.800 288.864 C 96.680 288.644,98.480 288.183,99.800 287.841 C 101.120 287.498,102.560 287.145,103.000 287.055 C 103.440 286.966,103.080 286.890,102.200 286.886 C 101.320 286.882,100.150 287.128,99.600 287.433 M84.109 293.554 C 83.398 293.909,82.813 294.339,82.809 294.508 C 82.804 294.678,83.520 294.449,84.400 294.000 C 85.280 293.551,86.000 293.097,86.000 292.992 C 86.000 292.703,85.533 292.842,84.109 293.554 M80.969 295.513 C 80.512 295.891,79.612 296.560,78.969 297.000 C 77.208 298.205,69.595 305.790,68.003 307.925 C 67.234 308.956,66.492 309.890,66.353 310.000 C 66.214 310.110,65.763 310.831,65.350 311.602 C 64.938 312.373,64.181 313.590,63.669 314.308 C 63.156 315.025,62.802 315.806,62.881 316.043 C 62.960 316.280,63.286 315.963,63.604 315.337 C 63.923 314.712,64.548 313.660,64.993 313.000 C 65.438 312.340,65.982 311.510,66.201 311.156 C 67.548 308.982,68.630 307.716,72.779 303.462 C 75.321 300.857,78.525 297.916,79.900 296.927 C 81.275 295.939,82.400 295.056,82.400 294.965 C 82.400 294.613,81.763 294.857,80.969 295.513 M61.473 318.510 C 61.073 319.440,60.601 320.476,60.424 320.813 C 60.247 321.150,59.975 322.003,59.820 322.709 C 59.665 323.414,59.372 324.094,59.169 324.219 C 58.966 324.345,58.806 324.932,58.814 325.524 C 58.829 326.597,59.009 326.206,61.058 320.652 C 61.372 319.800,61.897 318.585,62.225 317.952 C 62.552 317.318,62.681 316.805,62.510 316.810 C 62.340 316.816,61.873 317.581,61.473 318.510 M58.267 327.067 C 58.120 327.213,58.000 327.821,58.000 328.418 C 58.000 329.014,57.730 330.149,57.400 330.938 C 57.070 331.728,56.821 333.325,56.847 334.487 L 56.894 336.600 57.248 334.400 C 57.444 333.190,57.885 331.058,58.230 329.662 C 58.831 327.228,58.841 326.492,58.267 327.067 " stroke="none" fill="#5e2b2f" fill-rule="evenodd"></path></g></svg>