<svg width="100" height="100" viewBox="0 0 100 100" fill="none" xmlns="http://www.w3.org/2000/svg">
<path d="M15 19C15 16.7909 16.8435 15 19.1177 15H80.8824C83.1565 15 85 16.7909 85 19V81C85 83.2091 83.1565 85 80.8824 85H19.1177C16.8435 85 15 83.2091 15 81V19Z" fill="black"/>
<path fill-rule="evenodd" clip-rule="evenodd" d="M80.8824 16.5H19.1177C17.6963 16.5 16.5441 17.6193 16.5441 19V81C16.5441 82.3807 17.6963 83.5 19.1177 83.5H80.8824C82.3037 83.5 83.4559 82.3807 83.4559 81V19C83.4559 17.6193 82.3037 16.5 80.8824 16.5ZM19.1177 15C16.8435 15 15 16.7909 15 19V81C15 83.2091 16.8435 85 19.1177 85H80.8824C83.1565 85 85 83.2091 85 81V19C85 16.7909 83.1565 15 80.8824 15H19.1177Z" fill="#ABABAB"/>
<path d="M51.7402 29.1692C60.2458 29.1692 65.2191 34.0629 65.2191 40.9161C65.2191 45.5661 62.4493 48.8692 58.544 50.2911C63.646 51.5161 66.6056 55.9161 66.6056 60.7536C66.6056 67.6067 60.9985 72.5629 52.8115 72.5629H37.1934V29.1692H51.7402ZM51.0486 48.1223C56.0252 48.1223 58.9847 45.2473 58.9847 41.2098C58.9847 37.1098 55.8997 34.4161 50.7977 34.4161H43.3634V48.1223H51.0486ZM51.93 67.2848C56.9066 67.2848 60.294 64.5911 60.294 60.3723C60.294 56.2098 57.5854 53.2723 52.1713 53.2723H43.3634V67.2848H51.93Z" fill="white"/>
</svg>
