<svg id="svg" version="1.1" xmlns="http://www.w3.org/2000/svg" xmlns:xlink="http://www.w3.org/1999/xlink" width="400" height="82.96296296296296" viewBox="0, 0, 400,82.96296296296296"><g id="svgg"><path id="path0" d="M0.000 26.083 L 0.000 52.167 0.500 52.167 C 0.775 52.167,1.000 52.241,1.000 52.333 C 1.000 52.608,26.754 52.546,26.983 52.270 C 27.082 52.151,27.114 52.003,27.054 51.943 C 26.994 51.883,27.030 51.833,27.134 51.833 C 27.238 51.833,27.289 51.740,27.247 51.625 C 27.122 51.286,27.387 51.029,27.919 50.971 C 28.868 50.868,28.817 51.783,28.823 34.968 L 28.828 19.354 28.392 19.010 C 28.152 18.821,27.815 18.667,27.644 18.667 C 27.361 18.667,27.331 18.504,27.313 16.833 C 27.301 15.825,27.276 14.944,27.256 14.875 C 27.127 14.415,26.937 14.234,26.551 14.202 C 25.998 14.156,26.046 14.231,25.944 13.250 C 25.789 11.751,25.651 11.486,24.971 11.382 C 24.503 11.310,24.539 11.370,24.439 10.498 C 24.392 10.087,24.349 9.731,24.344 9.708 C 24.338 9.685,24.224 9.667,24.091 9.667 C 23.750 9.667,23.023 8.901,22.901 8.412 C 22.844 8.187,22.723 8.049,22.631 8.105 C 22.530 8.168,22.505 8.079,22.569 7.878 C 22.637 7.664,22.570 7.465,22.379 7.315 C 22.120 7.112,22.104 7.116,22.250 7.341 C 22.342 7.483,22.285 7.456,22.125 7.281 C 21.965 7.106,21.833 7.023,21.833 7.096 C 21.833 7.170,21.680 7.064,21.491 6.863 C 21.303 6.661,21.195 6.422,21.251 6.331 C 21.307 6.241,21.266 6.167,21.159 6.167 C 21.052 6.167,21.003 6.067,21.050 5.944 C 21.097 5.822,21.048 5.714,20.942 5.704 C 20.409 5.654,20.095 5.535,20.037 5.360 C 20.001 5.254,19.832 5.167,19.661 5.167 C 19.278 5.167,18.500 4.469,18.500 4.125 C 18.500 3.864,18.029 3.673,17.375 3.669 C 17.165 3.668,16.989 3.557,16.975 3.417 C 16.961 3.279,16.942 3.073,16.933 2.958 C 16.902 2.568,16.399 2.360,15.199 2.242 C 14.127 2.136,14.000 2.086,13.997 1.770 C 13.992 1.067,13.739 0.920,12.381 0.833 C 11.192 0.757,11.079 0.719,11.030 0.375 L 10.977 0.000 5.488 0.000 L 0.000 0.000 0.000 26.083 M30.813 21.917 C 30.801 21.962,30.781 22.056,30.768 22.125 C 30.755 22.194,30.677 22.363,30.594 22.500 C 30.500 22.654,30.579 22.630,30.801 22.436 C 30.998 22.263,31.119 22.057,31.070 21.978 C 30.971 21.818,30.845 21.788,30.813 21.917 M30.372 37.667 C 30.372 37.987,30.406 38.119,30.448 37.958 C 30.490 37.798,30.490 37.535,30.448 37.375 C 30.406 37.215,30.372 37.346,30.372 37.667 " stroke="none" fill="#1c2c74" fill-rule="evenodd"></path><path id="path1" d="M31.282 40.942 C 31.591 41.414,31.833 41.448,31.833 41.019 C 31.833 40.820,31.687 40.677,31.430 40.628 C 31.041 40.554,31.036 40.566,31.282 40.942 M61.500 43.333 C 61.500 43.556,61.611 43.667,61.833 43.667 C 62.211 43.667,62.260 43.494,61.967 43.200 C 61.673 42.906,61.500 42.956,61.500 43.333 M30.375 52.459 L 0.000 52.501 0.000 58.353 L 0.000 64.206 0.375 64.134 C 0.697 64.072,0.751 64.135,0.757 64.573 C 0.767 65.283,0.933 66.257,1.088 66.508 C 1.176 66.650,1.151 66.677,1.010 66.589 C 0.866 66.500,0.820 66.557,0.862 66.772 C 0.895 66.943,1.033 67.093,1.169 67.106 C 1.305 67.118,1.473 67.146,1.542 67.168 C 1.610 67.190,1.735 67.218,1.819 67.229 C 2.104 67.268,2.169 67.446,2.258 68.432 C 2.393 69.921,2.914 70.678,3.336 69.996 C 3.490 69.746,3.754 70.421,3.686 70.889 C 3.628 71.282,4.122 71.655,4.708 71.661 C 5.148 71.666,5.262 71.952,5.152 72.773 C 5.125 72.976,5.586 73.162,6.125 73.164 C 6.655 73.167,6.667 73.182,6.667 73.917 C 6.667 74.329,6.723 74.658,6.792 74.647 C 7.792 74.489,8.167 74.671,8.167 75.316 C 8.167 76.019,8.342 76.167,9.180 76.167 C 9.626 76.167,9.667 76.216,9.667 76.754 C 9.667 77.374,10.058 77.667,10.886 77.667 C 11.196 77.666,11.250 77.760,11.250 78.292 C 11.250 78.703,11.321 78.902,11.458 78.875 C 11.573 78.852,11.667 78.913,11.667 79.011 C 11.667 79.110,11.903 79.165,12.204 79.136 C 12.686 79.089,12.751 79.135,12.830 79.582 C 12.953 80.267,13.738 80.612,15.265 80.653 C 15.643 80.663,15.830 80.776,15.967 81.077 C 16.279 81.763,17.308 82.167,18.743 82.167 C 19.889 82.167,20.000 82.196,20.000 82.500 C 20.000 82.830,20.111 82.833,30.333 82.833 C 40.556 82.833,40.667 82.830,40.667 82.500 C 40.667 82.193,40.781 82.166,42.125 82.157 C 44.975 82.138,45.016 82.126,45.083 81.333 C 45.140 80.666,45.096 80.692,46.254 80.658 C 47.486 80.622,48.026 80.510,47.906 80.316 C 47.855 80.234,47.902 80.167,48.011 80.167 C 48.141 80.167,48.174 79.997,48.108 79.667 C 48.012 79.183,48.029 79.167,48.624 79.167 C 49.668 79.167,50.670 78.690,50.780 78.140 C 50.862 77.732,50.953 77.667,51.438 77.667 C 51.747 77.667,52.000 77.592,52.000 77.500 C 52.000 77.408,52.091 77.352,52.202 77.375 C 52.313 77.398,52.475 77.139,52.563 76.800 C 52.704 76.250,52.785 76.178,53.312 76.133 C 53.869 76.086,53.906 76.046,53.966 75.417 C 54.043 74.610,53.965 74.688,54.755 74.627 C 55.388 74.579,55.412 74.555,55.461 73.922 C 55.521 73.139,55.490 73.177,56.097 73.131 C 56.583 73.094,57.026 72.804,56.983 72.551 C 56.873 71.899,57.035 71.520,57.494 71.360 C 57.811 71.250,58.027 71.035,58.096 70.761 C 58.155 70.526,58.270 70.333,58.351 70.333 C 58.433 70.333,58.491 70.277,58.480 70.208 C 58.352 69.399,58.525 68.704,58.834 68.785 C 59.018 68.833,59.269 68.789,59.391 68.688 C 59.514 68.586,59.663 68.552,59.724 68.613 C 59.784 68.673,59.844 68.616,59.856 68.486 C 59.934 67.680,59.956 67.325,59.977 66.547 C 59.995 65.848,60.049 65.696,60.250 65.773 C 60.387 65.826,60.500 65.799,60.500 65.713 C 60.500 65.627,60.669 65.563,60.875 65.570 C 61.136 65.579,61.257 65.482,61.274 65.250 C 61.287 65.067,61.315 64.860,61.336 64.792 C 61.420 64.520,61.459 63.943,61.479 62.678 C 61.501 61.314,61.590 61.162,62.417 61.084 C 62.508 61.075,62.565 60.978,62.542 60.867 C 62.519 60.757,62.562 60.667,62.639 60.667 C 62.842 60.667,62.851 60.547,62.914 57.083 C 62.959 54.573,62.798 51.635,62.681 52.833 C 62.660 53.040,62.618 53.034,62.438 52.796 C 62.297 52.610,62.013 52.516,61.636 52.530 C 61.315 52.542,60.984 52.522,60.901 52.484 C 60.818 52.447,47.081 52.436,30.375 52.459 M62.512 60.478 C 62.420 60.649,62.377 60.821,62.415 60.860 C 62.454 60.898,62.349 60.940,62.183 60.953 C 61.906 60.974,61.910 60.942,62.232 60.574 C 62.656 60.090,62.734 60.063,62.512 60.478 " stroke="none" fill="#acdcf5" fill-rule="evenodd"></path><path id="path2" d="M18.514 4.217 C 18.552 4.245,18.808 4.406,19.083 4.576 L 19.583 4.885 19.266 4.526 C 19.091 4.328,18.835 4.167,18.696 4.167 C 18.558 4.167,18.476 4.189,18.514 4.217 M23.417 8.937 C 23.692 9.205,23.946 9.405,23.982 9.382 C 24.095 9.312,23.627 8.823,23.264 8.633 C 23.028 8.510,23.077 8.607,23.417 8.937 M31.167 21.667 C 31.348 21.784,31.357 21.829,31.198 21.831 C 31.079 21.832,31.020 21.898,31.070 21.978 C 31.119 22.057,31.008 22.259,30.824 22.426 C 30.639 22.592,30.528 22.831,30.576 22.956 C 30.624 23.082,30.592 23.140,30.505 23.086 C 30.406 23.026,30.353 26.088,30.364 31.244 C 30.373 35.785,30.433 39.500,30.497 39.500 C 30.561 39.500,30.600 39.722,30.584 39.993 C 30.567 40.273,30.650 40.522,30.777 40.571 C 30.900 40.618,31.000 40.591,31.000 40.510 C 31.000 40.430,31.187 40.451,31.415 40.557 C 31.803 40.737,31.833 40.838,31.861 42.083 C 31.905 44.056,31.906 44.066,32.052 44.292 C 32.126 44.406,32.133 44.587,32.067 44.692 C 31.994 44.812,32.022 44.840,32.141 44.766 C 32.247 44.701,32.333 44.720,32.333 44.809 C 32.333 44.898,32.522 44.950,32.753 44.925 C 33.086 44.888,33.191 44.967,33.267 45.314 C 33.517 46.455,33.591 46.562,34.177 46.629 C 34.874 46.709,34.810 46.638,34.860 47.381 C 34.901 47.993,34.910 48.000,35.617 48.000 C 36.264 48.000,36.335 48.040,36.354 48.417 C 36.366 48.646,36.394 48.908,36.417 49.000 C 36.440 49.092,36.468 49.242,36.479 49.333 C 36.491 49.425,36.830 49.500,37.234 49.500 C 37.887 49.500,37.959 49.537,37.882 49.833 C 37.830 50.033,37.877 50.167,37.998 50.167 C 38.111 50.167,38.162 50.272,38.113 50.400 C 37.982 50.741,38.180 50.863,38.475 50.624 C 38.685 50.454,38.705 50.459,38.588 50.653 C 38.482 50.830,38.514 50.863,38.717 50.786 C 38.867 50.728,39.025 50.738,39.068 50.808 C 39.111 50.878,39.841 50.956,40.689 50.980 C 42.234 51.025,43.010 51.345,42.444 51.705 C 42.301 51.796,42.304 51.829,42.458 51.831 C 42.573 51.832,42.667 51.913,42.667 52.010 C 42.667 52.107,42.580 52.133,42.474 52.067 C 42.358 51.995,42.327 52.022,42.396 52.134 C 42.459 52.235,42.621 52.277,42.755 52.225 C 42.890 52.173,43.000 52.211,43.000 52.310 C 43.000 52.579,60.948 52.551,61.117 52.282 C 61.259 52.054,61.351 51.711,61.383 51.292 C 61.398 51.095,61.545 51.000,61.832 51.000 C 62.925 51.000,62.979 50.824,62.959 47.323 C 62.949 45.578,62.878 44.111,62.801 44.064 C 62.724 44.016,62.704 43.907,62.757 43.822 C 62.810 43.736,62.552 43.667,62.177 43.667 L 61.500 43.667 61.476 42.125 C 61.463 41.277,61.448 40.396,61.444 40.167 C 61.432 39.639,60.839 39.153,60.360 39.278 C 60.020 39.367,59.998 39.311,59.972 38.269 C 59.957 37.663,59.938 37.035,59.931 36.875 C 59.914 36.534,59.598 36.361,58.958 36.345 C 58.516 36.334,58.499 36.300,58.475 35.375 C 58.431 33.735,58.297 33.357,57.788 33.444 C 57.241 33.538,57.020 33.315,56.974 32.620 C 56.949 32.259,56.842 31.991,56.716 31.979 C 56.597 31.968,56.425 31.940,56.333 31.917 C 56.242 31.894,56.017 31.866,55.833 31.854 C 55.606 31.840,55.499 31.714,55.498 31.458 C 55.492 30.552,55.327 30.333,54.647 30.333 C 54.020 30.333,54.000 30.316,54.000 29.756 C 54.000 29.143,53.668 28.833,53.011 28.833 C 52.778 28.833,52.667 28.726,52.667 28.500 C 52.667 27.966,52.655 27.930,52.395 27.643 C 52.259 27.493,52.021 27.402,51.866 27.443 C 51.441 27.553,50.993 27.140,50.929 26.580 C 50.897 26.307,50.863 26.055,50.852 26.021 C 50.842 25.987,50.721 26.053,50.583 26.167 C 50.446 26.281,50.333 26.301,50.333 26.211 C 50.333 26.121,49.871 25.999,49.305 25.940 C 48.102 25.814,48.149 25.844,48.131 25.192 C 48.114 24.589,47.676 24.430,46.125 24.464 L 45.167 24.484 45.167 23.816 C 45.167 23.412,45.101 23.188,45.000 23.250 C 44.908 23.307,44.833 23.274,44.833 23.177 C 44.833 23.064,44.243 23.000,43.217 23.000 C 41.959 23.000,41.644 22.956,41.800 22.800 C 41.910 22.690,42.000 22.525,42.000 22.433 C 42.000 22.340,41.913 22.353,41.802 22.464 C 41.510 22.757,40.923 22.210,41.188 21.891 C 41.315 21.738,41.318 21.667,41.197 21.667 C 41.099 21.667,40.973 21.742,40.916 21.835 C 40.851 21.939,40.722 21.912,40.571 21.762 C 40.268 21.458,31.833 21.367,31.833 21.668 C 31.833 21.791,31.736 21.793,31.511 21.673 C 31.104 21.455,30.832 21.450,31.167 21.667 M62.230 60.577 C 61.978 60.864,61.936 61.004,62.084 61.061 C 62.375 61.172,62.661 60.845,62.542 60.536 C 62.472 60.353,62.507 60.318,62.664 60.415 C 62.811 60.506,62.845 60.487,62.766 60.359 C 62.615 60.115,62.645 60.103,62.230 60.577 " stroke="none" fill="#3484c4" fill-rule="evenodd"></path><path id="path3" d="M11.875 0.782 C 12.035 0.823,12.298 0.823,12.458 0.782 C 12.619 0.740,12.487 0.705,12.167 0.705 C 11.846 0.705,11.715 0.740,11.875 0.782 M16.083 2.287 C 16.267 2.330,16.512 2.444,16.629 2.540 C 16.746 2.636,16.890 2.666,16.948 2.607 C 17.121 2.435,16.914 2.323,16.312 2.264 C 16.003 2.233,15.900 2.244,16.083 2.287 M18.756 4.159 C 18.942 4.234,19.205 4.432,19.339 4.598 C 19.573 4.888,19.566 4.889,19.171 4.617 C 18.554 4.192,18.389 4.275,18.904 4.753 C 19.360 5.176,19.667 5.175,19.667 4.750 C 19.667 4.471,19.026 3.996,18.671 4.011 C 18.502 4.018,18.531 4.067,18.756 4.159 M20.037 5.360 C 20.095 5.535,20.409 5.654,20.942 5.704 C 21.048 5.714,21.097 5.822,21.050 5.944 C 21.003 6.067,21.052 6.167,21.159 6.167 C 21.266 6.167,21.307 6.241,21.251 6.331 C 21.195 6.422,21.303 6.661,21.491 6.863 C 21.680 7.064,21.833 7.170,21.833 7.096 C 21.833 7.023,21.965 7.106,22.125 7.281 C 22.285 7.456,22.342 7.483,22.250 7.341 C 22.104 7.116,22.120 7.112,22.379 7.315 C 22.575 7.469,22.639 7.665,22.568 7.899 C 22.488 8.167,22.510 8.205,22.661 8.062 C 23.017 7.725,22.806 6.911,22.375 6.956 C 22.169 6.978,22.000 6.922,22.000 6.831 C 22.000 6.741,21.896 6.667,21.769 6.667 C 21.635 6.667,21.490 6.416,21.426 6.076 C 21.347 5.654,21.196 5.439,20.897 5.326 C 20.330 5.110,19.958 5.125,20.037 5.360 M22.833 8.346 C 22.833 8.431,22.913 8.500,23.010 8.500 C 23.107 8.500,23.143 8.570,23.090 8.656 C 22.985 8.826,23.749 9.667,24.008 9.667 C 24.213 9.667,24.210 9.393,24.001 9.002 C 23.816 8.657,22.833 8.105,22.833 8.346 M23.751 9.001 C 24.177 9.472,23.996 9.516,23.548 9.050 C 23.345 8.839,23.239 8.667,23.313 8.667 C 23.388 8.667,23.585 8.817,23.751 9.001 M24.516 11.239 C 24.564 11.287,24.760 11.350,24.952 11.379 C 25.358 11.441,25.862 11.819,25.759 11.985 C 25.720 12.048,25.758 12.208,25.842 12.341 C 25.961 12.529,25.995 12.497,25.997 12.197 C 26.002 11.526,25.734 11.239,25.061 11.194 C 24.713 11.171,24.468 11.191,24.516 11.239 M211.071 15.655 C 208.904 15.750,207.500 16.208,207.500 16.822 C 207.500 16.904,206.240 16.997,204.700 17.028 C 201.667 17.088,201.083 17.246,200.970 18.038 C 200.921 18.388,200.814 18.423,199.583 18.500 C 197.989 18.600,197.833 18.682,197.833 19.427 C 197.833 19.995,197.827 20.000,197.083 20.000 L 196.333 20.000 196.333 20.750 L 196.333 21.500 195.239 21.500 C 193.856 21.500,193.558 21.661,193.420 22.483 C 193.334 22.987,193.204 23.180,192.850 23.327 C 192.325 23.544,191.833 24.501,191.833 25.306 C 191.833 25.761,191.775 25.833,191.406 25.833 C 190.546 25.833,190.333 26.093,190.333 27.143 C 190.333 28.154,189.918 28.833,189.300 28.833 C 188.953 28.833,188.838 29.327,188.836 30.844 C 188.833 32.050,188.812 32.120,188.333 32.474 C 188.058 32.677,187.833 32.947,187.833 33.074 C 187.833 33.202,187.740 33.337,187.625 33.375 C 187.462 33.429,187.417 35.187,187.417 41.417 C 187.417 47.646,187.462 49.404,187.625 49.458 C 187.740 49.497,187.833 49.632,187.833 49.759 C 187.833 49.886,188.058 50.156,188.333 50.360 C 188.812 50.713,188.833 50.784,188.836 51.990 C 188.838 53.530,188.952 54.000,189.324 54.000 C 189.909 54.000,190.333 54.708,190.333 55.686 C 190.333 56.742,190.520 57.000,191.283 57.000 C 191.790 57.000,191.833 57.042,191.833 57.527 C 191.833 58.332,192.325 59.289,192.850 59.507 C 193.204 59.653,193.334 59.847,193.420 60.351 C 193.558 61.172,193.856 61.333,195.239 61.333 L 196.333 61.333 196.333 62.083 L 196.333 62.833 197.083 62.833 C 197.827 62.833,197.833 62.838,197.833 63.407 C 197.833 64.151,197.989 64.234,199.583 64.333 C 200.814 64.410,200.921 64.446,200.970 64.796 C 201.082 65.582,201.673 65.745,204.624 65.806 C 207.503 65.865,207.865 65.973,208.211 66.875 C 208.350 67.238,209.612 67.332,214.167 67.320 C 219.473 67.305,219.693 67.272,219.885 66.458 L 220.033 65.833 222.794 65.833 C 225.893 65.833,226.662 65.649,227.005 64.822 C 227.184 64.389,227.256 64.365,228.528 64.307 C 229.968 64.241,230.333 64.021,230.333 63.218 C 230.333 62.873,230.411 62.833,231.083 62.833 L 231.833 62.833 231.833 62.083 L 231.833 61.333 232.792 61.331 C 234.181 61.327,234.547 61.090,234.716 60.080 C 234.866 59.184,235.331 58.548,235.896 58.467 C 236.184 58.426,236.260 58.284,236.301 57.708 C 236.350 57.031,236.376 57.000,236.893 57.000 C 237.700 57.000,237.833 56.758,237.833 55.300 L 237.833 54.000 238.383 54.000 C 239.260 54.000,239.333 53.813,239.333 51.560 L 239.333 49.520 239.958 49.468 L 240.583 49.417 240.583 41.417 L 240.583 33.417 239.958 33.365 L 239.333 33.313 239.333 31.273 C 239.333 29.021,239.260 28.833,238.383 28.833 L 237.833 28.833 237.833 27.680 C 237.833 26.178,237.757 26.018,236.982 25.894 C 236.358 25.795,236.333 25.766,236.333 25.149 C 236.333 24.609,236.269 24.490,235.932 24.406 C 235.303 24.248,234.867 23.655,234.716 22.753 C 234.547 21.745,234.181 21.506,232.801 21.502 L 231.852 21.500 231.801 20.792 C 231.750 20.087,231.747 20.083,231.042 20.032 C 230.433 19.988,230.333 19.928,230.333 19.606 C 230.333 18.813,229.964 18.592,228.528 18.527 C 227.256 18.469,227.184 18.445,227.005 18.011 C 226.660 17.179,225.899 17.000,222.710 17.000 L 219.866 17.000 219.691 16.499 C 219.595 16.224,219.344 15.934,219.133 15.857 C 218.606 15.662,213.718 15.539,211.071 15.655 M268.809 15.662 L 266.534 15.765 265.786 16.378 L 265.038 16.991 262.563 17.037 C 260.341 17.079,260.082 17.114,260.030 17.381 C 259.894 18.094,259.205 18.500,258.117 18.509 C 256.633 18.523,255.964 18.792,255.776 19.450 C 255.640 19.926,255.549 19.988,254.937 20.033 C 254.257 20.083,254.249 20.091,254.199 20.792 L 254.148 21.500 253.407 21.500 L 252.667 21.500 252.667 22.250 L 252.667 23.000 251.917 23.000 L 251.167 23.000 251.167 23.740 L 251.167 24.481 250.458 24.532 L 249.750 24.583 249.702 25.958 L 249.653 27.333 249.174 27.333 C 248.220 27.333,248.167 27.418,248.167 28.918 L 248.167 30.300 247.542 30.448 C 246.676 30.653,246.706 30.263,246.706 41.417 C 246.706 52.570,246.676 52.181,247.542 52.385 L 248.167 52.533 248.167 53.915 C 248.167 55.416,248.220 55.500,249.174 55.500 L 249.653 55.500 249.702 56.875 L 249.750 58.250 250.458 58.407 C 251.140 58.558,251.167 58.588,251.167 59.199 L 251.167 59.833 251.917 59.833 L 252.667 59.833 252.667 60.583 L 252.667 61.333 253.407 61.333 L 254.148 61.333 254.199 62.042 C 254.249 62.743,254.257 62.751,254.937 62.800 C 255.549 62.845,255.640 62.908,255.776 63.384 C 255.964 64.041,256.633 64.310,258.117 64.324 C 259.206 64.334,259.894 64.740,260.030 65.453 C 260.081 65.718,260.359 65.759,262.590 65.833 C 265.206 65.920,265.743 66.079,266.036 66.850 C 266.181 67.232,267.523 67.335,272.233 67.324 C 277.362 67.311,277.567 67.279,277.635 66.456 L 277.687 65.833 280.413 65.833 C 283.654 65.833,283.667 65.830,283.667 64.989 L 283.667 64.346 285.125 64.298 L 286.583 64.250 286.635 63.542 L 286.686 62.833 287.811 62.833 C 289.092 62.833,289.456 62.639,289.531 61.917 C 289.578 61.470,289.654 61.408,290.250 61.333 C 290.880 61.255,290.925 61.211,291.065 60.542 C 291.196 59.917,291.268 59.833,291.670 59.833 C 292.323 59.833,292.504 59.517,292.616 58.181 C 292.707 57.093,292.745 57.000,293.094 57.000 C 293.943 57.000,294.000 56.894,294.000 55.326 L 294.000 53.854 294.538 53.802 C 295.463 53.712,295.514 53.429,295.463 48.713 C 295.418 44.590,295.409 44.501,295.037 44.129 L 294.658 43.750 287.620 43.750 C 278.719 43.750,279.336 43.530,279.334 46.708 L 279.333 48.167 278.583 48.167 L 277.833 48.167 277.833 49.159 C 277.833 50.479,277.440 50.902,276.065 51.064 C 275.022 51.187,274.840 51.331,274.836 52.042 L 274.833 52.500 271.847 52.500 L 268.860 52.500 268.753 52.012 C 268.614 51.383,268.415 51.237,267.502 51.098 C 266.413 50.931,266.001 50.474,265.997 49.429 C 265.994 48.370,265.889 48.207,265.165 48.139 L 264.583 48.083 264.540 41.458 L 264.496 34.833 265.048 34.833 C 265.792 34.833,266.000 34.577,266.000 33.660 C 266.000 33.004,266.061 32.859,266.402 32.704 C 266.623 32.603,266.852 32.370,266.911 32.186 C 266.989 31.939,267.222 31.821,267.800 31.736 C 268.669 31.608,268.827 31.463,268.831 30.792 L 268.833 30.333 271.833 30.333 L 274.833 30.333 274.833 30.982 C 274.833 31.684,275.010 31.833,275.837 31.833 C 276.267 31.833,276.318 31.894,276.365 32.458 C 276.414 33.045,276.460 33.093,277.125 33.240 L 277.833 33.397 277.833 35.369 C 277.833 37.499,278.173 38.487,278.994 38.748 C 279.181 38.807,279.333 38.926,279.333 39.013 C 279.333 39.110,282.423 39.153,287.375 39.127 L 295.417 39.083 295.461 34.708 C 295.486 32.302,295.441 30.333,295.363 30.333 C 295.284 30.333,295.134 30.144,295.029 29.913 C 294.924 29.682,294.649 29.422,294.419 29.334 C 294.014 29.180,294.000 29.124,294.000 27.666 C 294.000 26.603,293.938 26.137,293.792 26.092 C 293.677 26.057,293.388 25.985,293.149 25.933 C 292.768 25.851,292.701 25.734,292.614 24.999 C 292.473 23.807,292.180 23.290,291.542 23.107 C 291.135 22.990,291.000 22.857,291.000 22.573 C 291.000 21.895,290.810 21.667,290.158 21.563 C 289.644 21.480,289.486 21.365,289.349 20.974 C 289.148 20.397,288.329 20.000,287.339 20.000 C 286.707 20.000,286.667 19.971,286.667 19.514 C 286.667 18.551,286.586 18.500,285.066 18.500 L 283.667 18.500 283.667 17.923 C 283.667 17.077,283.385 17.000,280.282 17.000 L 277.542 17.000 277.445 16.515 C 277.280 15.691,274.424 15.409,268.809 15.662 M371.500 15.660 C 369.285 15.769,368.746 15.936,368.498 16.590 C 368.345 16.992,368.343 16.992,365.381 17.038 L 362.418 17.083 362.269 17.792 L 362.119 18.500 360.866 18.500 C 359.356 18.500,358.438 18.846,358.158 19.520 C 357.993 19.919,357.860 19.990,357.192 20.033 L 356.417 20.083 356.365 20.792 L 356.314 21.500 355.574 21.500 L 354.833 21.500 354.833 22.250 L 354.833 23.000 354.083 23.000 L 353.333 23.000 353.333 23.740 L 353.333 24.481 352.625 24.532 C 351.920 24.583,351.916 24.587,351.865 25.292 C 351.818 25.949,351.780 26.000,351.334 26.000 C 350.710 26.000,350.616 26.169,350.417 27.667 C 350.259 28.849,350.226 28.919,349.804 28.968 C 349.040 29.057,348.962 29.324,348.871 32.169 C 348.787 34.809,348.783 34.833,348.405 34.833 C 347.502 34.833,347.233 37.768,347.484 44.881 C 347.589 47.846,347.634 47.992,348.435 47.997 C 348.774 48.000,348.789 48.093,348.871 50.665 C 348.962 53.509,349.040 53.777,349.804 53.865 C 350.226 53.914,350.259 53.984,350.417 55.167 C 350.617 56.668,350.709 56.833,351.343 56.833 C 351.800 56.833,351.833 56.877,351.833 57.467 C 351.833 58.244,352.068 58.500,352.783 58.500 C 353.314 58.500,353.333 58.524,353.333 59.167 L 353.333 59.833 354.083 59.833 L 354.833 59.833 354.833 60.583 L 354.833 61.333 355.574 61.333 L 356.314 61.333 356.365 62.042 L 356.417 62.750 357.192 62.800 C 357.860 62.843,357.993 62.914,358.158 63.313 C 358.438 63.987,359.356 64.333,360.866 64.333 L 362.119 64.333 362.269 65.042 L 362.418 65.750 365.297 65.796 L 368.177 65.841 368.275 66.334 C 368.459 67.254,368.433 67.250,374.317 67.250 C 380.316 67.250,380.867 67.170,381.095 66.261 L 381.203 65.833 383.841 65.833 C 386.979 65.833,387.333 65.742,387.333 64.927 L 387.333 64.346 388.792 64.298 L 390.250 64.250 390.300 63.563 L 390.350 62.877 391.506 62.794 C 392.821 62.700,393.167 62.496,393.167 61.813 C 393.167 61.357,393.203 61.333,393.899 61.333 C 394.690 61.333,394.833 61.180,394.833 60.330 C 394.833 59.900,394.894 59.848,395.458 59.802 C 396.045 59.753,396.093 59.707,396.240 59.042 C 396.377 58.423,396.454 58.333,396.845 58.333 C 397.482 58.333,397.644 58.049,397.768 56.714 L 397.878 55.535 398.503 55.436 C 399.233 55.319,399.328 55.101,399.331 53.542 C 399.333 52.612,399.369 52.500,399.667 52.500 C 399.997 52.500,400.000 52.389,400.000 41.417 C 400.000 30.444,399.997 30.333,399.667 30.333 C 399.375 30.333,399.333 30.222,399.333 29.438 C 399.333 27.815,399.209 27.511,398.499 27.397 L 397.873 27.297 397.756 26.107 C 397.622 24.755,397.478 24.500,396.845 24.500 C 396.454 24.500,396.377 24.410,396.240 23.792 C 396.093 23.126,396.045 23.080,395.458 23.032 C 394.894 22.985,394.833 22.934,394.833 22.504 C 394.833 21.653,394.690 21.500,393.899 21.500 C 393.203 21.500,393.167 21.476,393.167 21.020 C 393.167 20.338,392.821 20.133,391.506 20.039 L 390.350 19.956 390.300 19.270 L 390.250 18.583 388.792 18.535 L 387.333 18.487 387.333 17.906 C 387.333 17.085,386.989 17.001,383.614 16.995 L 380.750 16.989 380.168 16.404 C 379.847 16.082,379.435 15.790,379.251 15.754 C 378.578 15.621,373.525 15.561,371.500 15.660 M89.958 17.178 C 89.624 17.375,89.497 66.474,89.830 67.000 C 89.968 67.219,92.113 67.255,107.202 67.292 C 126.222 67.338,125.891 67.354,126.322 66.375 L 126.560 65.833 128.012 65.833 C 129.591 65.833,129.667 65.787,129.667 64.820 L 129.667 64.333 130.896 64.333 C 132.237 64.333,132.391 64.245,132.577 63.375 C 132.674 62.925,132.770 62.833,133.147 62.833 C 133.761 62.833,134.000 62.550,134.000 61.821 C 134.000 61.276,134.054 61.197,134.491 61.110 C 135.196 60.969,135.386 60.475,135.490 58.500 C 135.579 56.839,135.603 56.747,135.962 56.696 C 136.776 56.581,136.917 56.017,136.917 52.877 C 136.917 49.737,136.898 49.674,135.963 49.669 L 135.510 49.667 135.463 47.458 L 135.417 45.250 134.708 45.199 L 134.000 45.148 134.000 44.407 L 134.000 43.667 133.343 43.667 C 132.689 43.667,132.686 43.663,132.635 42.958 C 132.584 42.253,132.580 42.250,131.875 42.199 C 131.244 42.153,131.167 42.102,131.167 41.729 C 131.167 41.500,131.089 41.166,130.994 40.989 C 130.845 40.711,130.878 40.667,131.233 40.667 C 132.109 40.667,132.500 40.385,132.500 39.754 C 132.500 39.216,132.541 39.167,132.988 39.167 C 133.791 39.167,134.000 38.803,134.000 37.405 C 134.000 36.195,134.010 36.167,134.417 36.167 C 135.463 36.167,135.500 35.982,135.500 30.761 C 135.500 26.144,135.491 26.020,135.161 25.915 C 134.375 25.665,134.000 25.045,134.000 23.992 L 134.000 23.000 133.333 23.000 C 132.690 23.000,132.667 22.981,132.667 22.448 C 132.667 21.049,131.622 20.000,130.230 20.000 C 129.724 20.000,129.667 19.953,129.667 19.532 C 129.667 18.688,129.383 18.515,127.917 18.463 C 126.608 18.418,126.582 18.408,126.532 17.971 C 126.424 17.038,127.381 17.086,108.099 17.044 C 96.040 17.018,90.155 17.061,89.958 17.178 M143.208 17.110 C 143.043 17.177,143.000 22.332,143.000 42.101 L 143.000 67.008 143.428 67.171 C 144.245 67.482,183.926 67.383,184.240 67.070 C 184.474 66.836,184.499 65.995,184.460 59.695 L 184.417 52.583 172.542 52.541 L 160.668 52.498 160.626 34.791 L 160.583 17.083 152.000 17.054 C 147.279 17.038,143.323 17.063,143.208 17.110 M300.076 17.208 C 300.032 17.323,300.016 20.642,300.040 24.583 L 300.083 31.750 307.458 31.793 L 314.833 31.837 314.833 49.423 L 314.833 67.008 315.273 67.175 C 315.808 67.379,332.238 67.317,332.445 67.111 C 332.521 67.035,332.603 59.066,332.627 49.403 L 332.671 31.833 340.004 31.833 L 347.337 31.833 347.293 24.458 L 347.250 17.083 323.703 17.041 C 304.954 17.007,300.140 17.041,300.076 17.208 M27.726 18.671 C 27.988 18.750,28.344 18.943,28.518 19.100 C 28.818 19.371,28.833 19.368,28.833 19.044 C 28.833 18.649,28.524 18.494,27.778 18.514 L 27.250 18.529 27.726 18.671 M41.264 21.811 C 41.215 21.890,41.315 22.083,41.487 22.239 C 41.737 22.464,41.826 22.477,41.927 22.303 C 41.996 22.182,41.992 22.139,41.917 22.207 C 41.744 22.364,41.306 22.012,41.428 21.814 C 41.479 21.733,41.482 21.667,41.436 21.667 C 41.391 21.667,41.313 21.732,41.264 21.811 M115.896 30.744 C 116.122 30.970,116.332 31.289,116.363 31.453 C 116.405 31.672,116.605 31.763,117.126 31.801 L 117.833 31.852 117.833 33.343 L 117.833 34.833 117.083 34.833 L 116.333 34.833 116.333 35.500 L 116.333 36.167 111.833 36.167 L 107.333 36.167 107.333 33.250 L 107.333 30.333 111.409 30.333 L 115.485 30.333 115.896 30.744 M214.304 30.796 C 214.398 31.458,215.039 31.711,216.844 31.798 L 218.500 31.878 218.500 32.406 C 218.500 33.074,218.760 33.333,219.428 33.333 L 219.955 33.333 220.039 34.498 C 220.133 35.821,220.337 36.167,221.020 36.167 L 221.500 36.167 221.500 42.167 L 221.500 48.167 220.913 48.167 C 220.193 48.167,220.000 48.555,220.000 50.001 L 220.000 50.981 219.292 51.032 C 218.589 51.083,218.583 51.089,218.533 51.779 L 218.482 52.474 216.283 52.573 C 213.553 52.696,213.114 52.696,210.384 52.573 L 208.185 52.474 208.134 51.779 C 208.084 51.089,208.078 51.083,207.375 51.032 L 206.667 50.981 206.667 49.837 C 206.667 48.299,206.599 48.167,205.816 48.167 L 205.167 48.167 205.167 42.167 L 205.167 36.167 205.744 36.167 C 206.489 36.167,206.667 35.834,206.667 34.437 L 206.667 33.352 207.375 33.301 C 208.076 33.251,208.084 33.243,208.134 32.563 L 208.184 31.876 209.884 31.800 C 211.829 31.713,212.248 31.551,212.392 30.830 C 212.530 30.140,214.206 30.109,214.304 30.796 M377.000 30.821 C 377.000 31.623,377.364 31.833,378.752 31.833 L 379.980 31.833 380.032 32.458 C 380.080 33.045,380.126 33.093,380.792 33.240 C 381.469 33.391,381.500 33.424,381.500 34.014 C 381.500 34.683,381.686 34.833,382.514 34.833 L 383.000 34.833 383.004 36.875 C 383.010 39.834,383.213 40.491,384.125 40.497 C 384.681 40.501,384.714 43.910,384.160 44.085 C 383.335 44.347,383.000 45.332,383.000 47.497 C 383.000 49.462,382.993 49.500,382.625 49.502 C 381.718 49.508,381.500 49.673,381.500 50.353 C 381.500 50.974,381.478 51.000,380.950 51.000 C 380.255 51.000,380.000 51.255,380.000 51.950 L 380.000 52.500 378.292 52.517 C 375.969 52.539,375.774 52.606,375.651 53.423 L 375.552 54.083 375.421 53.536 C 375.237 52.770,374.839 52.618,372.792 52.532 C 371.101 52.461,371.000 52.437,370.997 52.104 C 370.994 51.565,370.763 51.311,370.168 51.189 C 369.736 51.101,369.587 50.960,369.438 50.497 C 369.296 50.059,369.119 49.878,368.716 49.759 C 368.243 49.620,368.177 49.526,368.133 48.928 C 368.094 48.401,368.010 48.242,367.750 48.203 C 367.567 48.176,367.248 48.118,367.042 48.074 L 366.667 47.994 366.667 42.090 L 366.667 36.186 367.375 36.135 L 368.083 36.083 368.133 35.308 C 368.177 34.640,368.247 34.507,368.647 34.342 C 368.931 34.224,369.221 33.899,369.397 33.500 C 369.554 33.143,369.834 32.803,370.018 32.744 C 370.203 32.686,370.431 32.467,370.526 32.259 C 370.682 31.918,370.848 31.871,372.209 31.783 C 373.817 31.679,373.993 31.581,373.997 30.792 L 374.000 30.333 375.500 30.333 L 377.000 30.333 377.000 30.821 M117.833 48.750 L 117.833 49.500 118.583 49.500 L 119.333 49.500 119.333 50.315 C 119.333 51.113,119.322 51.132,118.753 51.238 C 118.278 51.327,118.148 51.444,118.035 51.876 C 117.921 52.320,117.793 52.427,117.248 52.541 C 116.513 52.693,116.340 52.884,116.336 53.542 L 116.333 54.000 111.833 54.000 L 107.333 54.000 107.333 51.000 L 107.333 48.000 112.583 48.000 L 117.833 48.000 117.833 48.750 M27.042 52.042 C 27.065 52.156,26.971 52.226,26.833 52.196 C 26.643 52.156,26.629 52.190,26.777 52.340 C 26.884 52.449,27.052 52.487,27.152 52.426 C 27.380 52.285,27.391 51.833,27.167 51.833 C 27.075 51.833,27.019 51.927,27.042 52.042 M0.000 52.333 C 0.000 52.425,0.225 52.500,0.500 52.500 C 0.775 52.500,1.000 52.425,1.000 52.333 C 1.000 52.242,0.775 52.167,0.500 52.167 C 0.225 52.167,0.000 52.242,0.000 52.333 " stroke="none" fill="#040404" fill-rule="evenodd"></path><path id="path4" d="" stroke="none" fill="#601440" fill-rule="evenodd"></path></g></svg>