<?xml version="1.0" standalone="no"?>
<!DOCTYPE svg PUBLIC "-//W3C//DTD SVG 20010904//EN"
 "http://www.w3.org/TR/2001/REC-SVG-20010904/DTD/svg10.dtd">
<svg version="1.0" xmlns="http://www.w3.org/2000/svg"
 width="300.000000pt" height="96.000000pt" viewBox="0 0 300.000000 96.000000"
 preserveAspectRatio="xMidYMid meet">
<metadata>
Created by potrace 1.10, written by Peter Selinger 2001-2011
</metadata>
<g transform="translate(0.000000,96.000000) scale(0.100000,-0.100000)"
fill="#000000" stroke="none">
<path d="M412 816 l-72 -41 0 -52 c0 -29 2 -53 5 -53 2 0 34 18 70 40 l66 41
120 -68 119 -68 -2 -134 -3 -134 -115 -67 -116 -67 -116 66 -117 66 -3 187 -3
188 -43 -26 -42 -25 0 -187 0 -187 161 -93 c89 -51 164 -92 169 -90 4 2 77 44
163 93 l157 90 -3 188 -2 188 -161 93 -160 93 -72 -41z m94 5 c9 -9 224 -131
231 -131 1 0 14 -10 28 -22 25 -21 25 -23 25 -190 0 -92 -3 -168 -8 -168 -4 0
-17 7 -29 15 -21 14 -22 22 -19 148 1 72 1 137 -2 144 -4 12 -157 107 -224
139 -37 17 -37 17 -77 -9 -46 -30 -57 -33 -64 -14 -7 19 12 39 68 69 58 31 58
31 71 19z m-280 -202 c8 -243 6 -280 -12 -295 -18 -13 -18 -14 6 -9 24 5 61
-10 155 -65 102 -60 106 -61 145 -38 133 78 202 110 225 104 14 -4 25 -10 25
-14 0 -7 -59 -42 -179 -107 -31 -17 -67 -38 -80 -47 -23 -16 -52 -12 -71 11
-3 3 -35 22 -72 41 -38 19 -68 38 -68 41 0 4 -10 9 -23 13 -13 3 -36 17 -53
31 -16 14 -33 25 -37 25 -12 0 -6 333 6 348 18 23 32 6 33 -39z"/>
<path d="M412 607 l-72 -42 0 -82 0 -82 68 -41 c38 -22 71 -40 74 -40 4 0 38
18 77 41 l71 41 0 82 0 82 -32 17 c-18 8 -51 27 -73 41 l-41 25 -72 -42z m127
-14 c68 -40 71 -44 71 -118 l0 -66 -65 37 c-44 24 -70 33 -78 27 -6 -5 -34
-22 -60 -37 l-48 -28 2 69 c2 65 4 69 37 92 35 24 83 51 91 51 2 0 25 -12 50
-27z m-9 -151 c3 -4 14 -12 24 -18 32 -17 29 -29 -13 -52 -50 -28 -65 -28
-118 4 -48 28 -46 36 17 67 33 16 77 15 90 -1z"/>
<path d="M900 480 l0 -151 44 2 c25 2 43 6 40 10 -2 4 -20 5 -39 2 l-35 -6 0
142 0 141 25 0 c23 0 25 -4 25 -46 0 -40 2 -45 18 -39 9 4 33 11 52 15 32 7
33 8 7 9 -16 0 -37 -4 -48 -9 -17 -10 -19 -7 -19 35 0 45 0 45 -35 45 l-35 0
0 -150z"/>
<path d="M1168 623 l32 -4 0 -139 0 -139 -32 -4 -33 -4 36 -1 c36 -2 37 -1 41
41 5 45 0 224 -7 245 -3 7 -19 11 -37 10 l-33 -1 33 -4z"/>
<path d="M1670 559 l0 -70 -26 28 -26 28 21 -29 c12 -16 21 -33 21 -37 0 -15
-57 -10 -70 6 -7 8 -22 14 -34 14 -21 -2 -21 -2 1 -6 12 -2 27 -11 33 -19 7
-8 28 -14 46 -14 27 0 34 -4 34 -20 0 -16 -7 -20 -34 -20 -18 0 -39 -6 -46
-14 -6 -8 -21 -17 -33 -19 -22 -4 -22 -4 -1 -6 12 0 27 6 34 14 17 20 66 19
74 -1 3 -9 6 -27 6 -40 0 -21 5 -24 35 -24 34 0 35 1 35 41 0 24 4 38 10 34 6
-3 7 1 4 9 -12 31 -24 15 -24 -29 0 -41 -2 -45 -25 -45 -26 0 -27 2 -27 100 0
179 0 180 27 180 24 0 25 -2 25 -77 l1 -78 33 38 c25 28 41 37 65 37 l32 0
-36 -44 -36 -45 35 -53 36 -53 -32 -3 c-18 -2 -34 1 -36 6 -1 5 -10 18 -18 28
-13 16 -13 14 1 -13 14 -29 20 -33 55 -33 22 0 40 3 40 8 0 4 -16 31 -36 60
l-35 53 41 49 42 50 -44 0 c-36 0 -47 -5 -70 -32 l-27 -33 -1 73 0 72 -35 0
-35 0 0 -71z"/>
<path d="M2670 591 c0 -23 -5 -41 -12 -44 -8 -2 -7 -3 2 -3 10 1 16 14 18 39
3 32 7 37 28 37 21 0 24 -5 24 -35 0 -22 6 -38 15 -41 8 -4 15 -15 15 -25 0
-10 -7 -19 -15 -19 -12 0 -15 -16 -15 -80 0 -79 0 -80 -25 -80 -25 0 -25 1
-25 80 0 71 -2 80 -18 80 -10 0 -29 11 -42 25 -13 14 -27 25 -31 25 -4 0 7
-15 24 -33 18 -18 38 -31 45 -29 9 3 12 -17 12 -77 l0 -81 35 0 35 0 0 80 c0
64 3 80 15 80 10 0 15 10 15 30 0 20 -5 30 -15 30 -11 0 -15 11 -15 40 0 39
-1 40 -35 40 -34 0 -35 -1 -35 -39z"/>
<path d="M1143 560 c0 -30 2 -43 4 -27 2 15 2 39 0 55 -2 15 -4 2 -4 -28z"/>
<path d="M1263 540 c-18 -11 -33 -22 -33 -25 0 -2 15 4 33 15 17 11 50 20 71
20 32 0 45 -7 76 -39 l38 -39 10 23 c16 35 67 58 116 52 26 -4 35 -2 25 4 -36
23 -113 0 -143 -42 l-14 -21 -11 21 c-27 50 -112 65 -168 31z"/>
<path d="M1910 544 c-32 -23 -49 -45 -49 -64 0 -9 4 -6 9 6 4 12 21 31 37 43
22 18 36 21 68 17 22 -3 57 -6 78 -6 l37 1 0 -101 0 -101 -37 1 c-21 0 -56 -3
-79 -6 -34 -5 -45 -2 -72 21 -18 15 -32 34 -33 43 0 10 -3 12 -5 5 -8 -18 24
-60 56 -73 17 -7 44 -10 62 -6 18 4 52 6 76 6 32 -1 42 3 42 15 0 14 4 13 26
-4 17 -13 40 -21 63 -20 35 1 35 2 -8 9 -29 4 -51 15 -64 31 l-19 24 26 3 c15
2 34 -2 41 -8 19 -16 45 -5 44 17 -1 17 -2 17 -6 1 -5 -19 -33 -25 -33 -8 0 6
-16 10 -35 10 l-35 0 2 52 c0 40 6 57 24 75 31 31 87 31 117 1 l22 -23 22 23
c12 12 18 22 14 22 -5 0 -14 -7 -21 -15 -11 -13 -15 -12 -37 5 -33 26 -83 25
-117 -1 -22 -17 -26 -18 -26 -4 0 12 -10 16 -42 16 -24 -1 -61 2 -83 5 -29 4
-47 0 -65 -12z"/>
<path d="M2354 550 c23 -4 48 -18 59 -31 l19 -24 -26 -3 c-15 -2 -34 2 -42 9
-12 10 -17 10 -27 0 -9 -10 -8 -11 6 -6 10 4 17 2 17 -4 0 -6 16 -11 35 -11
26 0 33 -4 29 -14 -5 -13 -11 -13 -46 0 -23 8 -43 12 -45 10 -3 -3 82 -36 93
-36 1 0 5 13 9 30 4 16 20 41 37 55 16 14 25 25 21 25 -5 0 -20 -11 -32 -24
l-22 -23 -29 28 c-21 21 -37 29 -62 28 l-33 -1 39 -8z"/>
<path d="M2523 553 c9 -2 25 -2 35 0 9 3 1 5 -18 5 -19 0 -27 -2 -17 -5z"/>
<path d="M1101 521 c25 -25 29 -37 29 -81 0 -44 -4 -56 -29 -81 -16 -16 -26
-29 -21 -29 4 0 20 14 34 31 20 24 26 41 26 79 0 38 -6 55 -26 79 -14 17 -30
31 -34 31 -5 0 5 -13 21 -29z"/>
<path d="M2167 503 c-15 -14 -5 -25 43 -45 35 -15 52 -28 56 -44 5 -18 13 -24
33 -24 15 0 32 -5 39 -12 8 -8 15 -8 27 2 19 16 5 34 -35 44 -17 4 -14 1 9
-10 25 -11 31 -18 22 -27 -8 -8 -14 -8 -23 1 -7 7 -22 12 -34 12 -12 0 -25 7
-28 16 -9 24 -8 27 11 20 16 -6 16 -6 0 12 -9 10 -17 24 -17 30 0 7 -13 12
-29 12 -17 0 -33 5 -36 10 -7 11 -28 13 -38 3z m33 -13 c0 -5 14 -10 30 -10
17 0 30 -2 30 -4 0 -2 3 -11 6 -20 5 -12 -4 -11 -45 6 -50 22 -66 38 -36 38 8
0 15 -4 15 -10z"/>
<path d="M980 480 c-11 -11 -20 -29 -20 -40 0 -25 34 -60 59 -60 11 0 27 7 35
16 23 22 20 30 -4 9 -24 -22 -66 -13 -75 15 -17 53 36 89 78 54 l22 -19 -19
23 c-24 27 -50 28 -76 2z"/>
<path d="M1298 489 c-10 -5 -18 -15 -18 -20 0 -6 7 -3 16 5 22 22 50 20 68 -6
9 -12 16 -18 16 -12 0 15 -34 44 -51 44 -8 0 -22 -5 -31 -11z"/>
<path d="M1977 493 c13 -2 30 -14 38 -26 8 -12 15 -17 15 -11 0 18 -35 44 -56
43 -15 -1 -15 -3 3 -6z"/>
<path d="M2502 488 c-22 -22 -13 -28 38 -28 28 0 50 4 50 8 0 11 -22 32 -34
32 -5 0 -1 -7 10 -15 18 -13 16 -14 -26 -14 -42 0 -44 1 -26 14 11 8 15 15 10
15 -6 0 -15 -5 -22 -12z"/>
<path d="M1510 471 c-14 -27 -13 -44 5 -67 14 -18 14 -17 4 9 -9 20 -9 33 -1
52 14 29 7 34 -8 6z"/>
<path d="M1932 478 c-18 -18 -15 -64 6 -79 14 -11 15 -11 5 1 -16 18 -17 62
-1 78 7 7 10 12 7 12 -3 0 -10 -5 -17 -12z"/>
<path d="M2652 445 c0 -16 2 -22 5 -12 2 9 2 23 0 30 -3 6 -5 -1 -5 -18z"/>
<path d="M1852 440 c0 -14 2 -19 5 -12 2 6 2 18 0 25 -3 6 -5 1 -5 -13z"/>
<path d="M2110 444 c0 -7 71 -36 76 -31 2 2 -14 11 -36 20 -22 8 -40 13 -40
11z"/>
<path d="M1361 407 c-13 -21 -12 -21 5 -5 10 10 16 20 13 22 -3 3 -11 -5 -18
-17z"/>
<path d="M2013 410 c-7 -10 -23 -20 -35 -23 -21 -4 -21 -4 -2 -6 20 -1 62 34
53 44 -3 2 -10 -4 -16 -15z"/>
<path d="M1280 412 c0 -15 38 -35 53 -28 8 3 7 5 -2 5 -8 1 -23 8 -33 18 -10
9 -18 11 -18 5z"/>
<path d="M2491 413 c-1 -7 10 -20 23 -28 19 -13 29 -14 45 -5 12 6 21 13 21
16 0 2 -9 0 -20 -6 -22 -12 -54 0 -63 22 -4 10 -6 10 -6 1z"/>
<path d="M2537 413 c18 -2 50 -2 70 0 21 2 7 4 -32 4 -38 0 -55 -2 -38 -4z"/>
<path d="M1409 368 c-20 -21 -32 -38 -28 -38 4 0 20 13 35 29 27 29 28 29 41
11 8 -11 24 -25 36 -31 18 -9 18 -7 -4 13 -15 12 -31 30 -35 39 -8 13 -15 9
-45 -23z"/>
<path d="M2598 393 c6 -2 18 -2 25 0 6 3 1 5 -13 5 -14 0 -19 -2 -12 -5z"/>
<path d="M2619 367 c-18 -21 -39 -32 -70 -37 l-44 -7 38 -2 c30 -1 45 6 75 33
20 19 35 36 32 39 -3 2 -17 -10 -31 -26z"/>
<path d="M2764 386 c-13 -33 0 -51 39 -54 l37 -3 -2 38 c-1 37 -1 37 -5 6 -4
-29 -8 -33 -34 -33 -24 0 -29 4 -29 24 0 19 6 26 28 29 l27 4 -28 2 c-16 0
-30 -5 -33 -13z"/>
<path d="M1229 373 c12 -24 49 -48 59 -39 3 3 0 6 -7 6 -6 0 -24 12 -38 28
-21 22 -24 23 -14 5z"/>
<path d="M2431 383 c0 -9 58 -57 63 -52 2 2 -12 17 -31 32 -18 16 -33 25 -32
20z"/>
<path d="M1627 355 c-15 -14 -24 -25 -19 -25 5 0 19 11 32 25 30 32 23 32 -13
0z"/>
<path d="M2245 350 c-17 -18 -17 -20 -2 -14 9 3 17 10 17 16 0 5 12 0 26 -11
17 -13 40 -21 63 -20 l36 2 -42 6 c-23 4 -51 15 -61 24 -18 16 -20 16 -37 -3z"/>
<path d="M2406 345 c-11 -8 -15 -15 -9 -15 6 0 16 7 23 15 16 19 11 19 -14 0z"/>
<path d="M1013 323 c9 -2 25 -2 35 0 9 3 1 5 -18 5 -19 0 -27 -2 -17 -5z"/>
<path d="M1313 323 c9 -2 25 -2 35 0 9 3 1 5 -18 5 -19 0 -27 -2 -17 -5z"/>
<path d="M1538 323 c12 -2 30 -2 40 0 9 3 -1 5 -23 4 -22 0 -30 -2 -17 -4z"/>
</g>
</svg>
