<?xml version="1.0" encoding="utf-8"?>
<!-- Generator: Adobe Illustrator 25.0.1, SVG Export Plug-In . SVG Version: 6.00 Build 0)  -->
<svg version="1.1" id="Layer_1" xmlns="http://www.w3.org/2000/svg" xmlns:xlink="http://www.w3.org/1999/xlink" x="0px" y="0px"
	 viewBox="0 0 708.92 1021.22" style="enable-background:new 0 0 708.92 1021.22;" xml:space="preserve">
<style type="text/css">
	.st0{fill:#FC6020;}
</style>
<path class="st0" d="M692.96,561.88c13.6,43.71,18.54,89.09,14.7,134.89c-3.84,45.8-16.28,89.73-36.97,130.56
	c-21.43,42.3-50.79,79.38-87.28,110.22c-36.49,30.84-77.94,53.62-123.22,67.7c-34.14,10.62-69.3,15.96-104.89,15.96
	c-9.98,0-19.98-0.42-30.01-1.26c-45.8-3.84-89.73-16.28-130.56-36.97c-42.3-21.43-79.38-50.79-110.22-87.28
	C27.54,828.29-2.42,742.69,0.15,654.67c2.59-88.43,37.77-170.94,99.05-232.33c32.99-33.05,127.26-112.4,184.92-160.38
	c-0.39-3.03-0.6-6.12-0.6-9.26c0-39.41,31.95-71.36,71.36-71.36c39.41,0,71.36,31.95,71.36,71.36s-31.95,71.36-71.36,71.36
	c-7.79,0-15.29-1.25-22.32-3.56C275.83,367.71,183.59,445.33,152.97,476c-98.3,98.47-102.88,261.29-10.43,370.67
	c54.91,64.97,133.5,98.43,212.56,98.43c63.43,0,127.15-21.52,179.27-65.57c117.09-98.97,131.83-274.74,32.86-391.83
	c-16.07-19.01-34.5-35.73-54.8-49.7c-10.51-7.24-17.17-18.68-18.26-31.4c-1.09-12.7,3.51-25.1,12.62-34.01
	c31.19-30.49,48.36-71.3,48.36-114.9v-6.82c0-96.44-78.46-174.91-174.91-174.91H232.09c-37.51,0-68.02,30.51-68.02,68.02v115.33
	L88.1,324.66V143.99c0-19.42,3.81-38.28,11.33-56.06c7.25-17.15,17.63-32.54,30.84-45.76c13.21-13.21,28.61-23.59,45.76-30.84
	C193.81,3.81,212.67,0,232.09,0h148.16c33.85,0,66.71,6.64,97.66,19.73c29.88,12.64,56.7,30.72,79.73,53.75
	c23.03,23.03,41.11,49.85,53.75,79.73c13.09,30.95,19.73,63.81,19.73,97.66v6.82c0,32.4-6.44,63.82-19.15,93.38
	c-7.21,16.77-16.23,32.5-26.98,47.05c14.44,12.37,27.9,25.93,40.26,40.55C656.1,475.15,678.87,516.61,692.96,561.88 M297.6,531.61
	c18.17-7.68,37.44-11.58,57.29-11.58c19.85,0,39.12,3.9,57.29,11.58c17.53,7.41,33.26,18.02,46.76,31.52
	c13.5,13.5,24.11,29.23,31.52,46.76c7.68,18.17,11.58,37.44,11.58,57.29s-3.9,39.12-11.58,57.29
	c-7.41,17.53-18.02,33.26-31.52,46.76c-13.5,13.5-29.23,24.11-46.76,31.52c-18.17,7.68-37.44,11.58-57.29,11.58
	c-19.85,0-39.12-3.9-57.29-11.58c-17.53-7.41-33.26-18.02-46.76-31.52c-13.5-13.5-24.11-29.23-31.52-46.76
	c-7.68-18.17-11.58-37.44-11.58-57.29s3.9-39.12,11.58-57.29c7.41-17.53,18.02-33.26,31.52-46.76
	C264.34,549.63,280.07,539.03,297.6,531.61 M426.07,667.19c0-39.25-31.93-71.18-71.18-71.18s-71.18,31.93-71.18,71.18
	s31.93,71.18,71.18,71.18S426.07,706.44,426.07,667.19"/>
</svg>
