<svg width="100" height="100" viewBox="0 0 100 100" fill="none" xmlns="http://www.w3.org/2000/svg">
<path d="M84.7098 50.8672L50.7432 84.6978C50.3386 85.1007 49.6702 85.1007 49.2656 84.6978L15.299 50.8672C15.1055 50.6745 15 50.4117 15 50.1314C15.0176 50.0438 15.0176 49.9562 15 49.8686C15 49.5883 15.1055 49.3255 15.299 49.1328L49.2656 15.3022C49.6702 14.8993 50.3386 14.8993 50.7432 15.3022L84.7098 49.1328C85.0967 49.6408 85.0967 50.3592 84.7098 50.8672ZM82.3527 49.9912L50.0044 17.7725L17.6561 49.9912L50.0044 82.21L82.3527 49.9912Z" fill="url(#paint0_linear)"/>
<path d="M36 49.4825C36.018 42.3493 41.6504 36.443 48.9383 35.8997V34.1822C48.8663 33.6038 49.2802 33.078 49.874 33.0079C50.4679 32.9378 51.0077 33.3409 51.0797 33.9193C51.0977 34.0069 51.0977 34.0945 51.0797 34.1822V35.9173C58.3676 36.4781 63.982 42.3844 64 49.5C64 49.5351 64 49.5876 64 49.6402C64 49.6928 64 49.7278 64 49.7629C63.982 56.8785 58.3676 62.7848 51.0797 63.3456V65.0807C51.0077 65.6591 50.4679 66.0622 49.874 65.9921C49.3882 65.922 49.0103 65.5539 48.9383 65.0807V63.3632C41.6504 62.8199 36 56.896 36 49.7629C36 49.7278 36 49.6753 36 49.6402C36 49.6052 36 49.5351 36 49.4825ZM51.0977 48.501H61.8046C61.1928 43.0329 56.7121 38.7565 51.0977 38.2482V48.501ZM51.0977 50.8495V60.9796C56.6581 60.4714 61.1208 56.2476 61.7866 50.8495H51.0977ZM61.8046 48.6938V50.534C61.8406 50.2361 61.8406 49.9206 61.8586 49.6227C61.8586 49.3072 61.8406 49.0093 61.8046 48.6938ZM48.9383 60.9796V38.2307C42.4961 38.7214 37.6735 44.2071 38.1774 50.4815C38.6273 56.1074 43.1979 60.5415 48.9383 60.9796Z" fill="url(#paint1_linear)"/>
<defs>
<linearGradient id="paint0_linear" x1="15" y1="49.9966" x2="85.0018" y2="49.9966" gradientUnits="userSpaceOnUse">
<stop stop-color="#C5E2BC"/>
<stop offset="0.35" stop-color="#B5DDC2"/>
<stop offset="1" stop-color="#8ED0D0"/>
</linearGradient>
<linearGradient id="paint1_linear" x1="36.0036" y1="49.4802" x2="64.0018" y2="49.4802" gradientUnits="userSpaceOnUse">
<stop stop-color="#C5E2BC"/>
<stop offset="0.35" stop-color="#B5DDC2"/>
<stop offset="1" stop-color="#8ED0D0"/>
</linearGradient>
</defs>
</svg>
