<svg width="100" height="100" viewBox="0 0 100 100" fill="none" xmlns="http://www.w3.org/2000/svg">
<path d="M22 39.4946V61.5054H30.4966C35.3867 61.5054 38.2596 59.1559 38.2596 55.4771C38.2596 52.6331 36.9148 50.9946 33.9502 50.3454V50.2836C36.4869 49.3253 37.74 47.6868 37.74 45.1519C37.74 41.7823 35.2338 39.4946 29.8242 39.4946H22ZM26.4928 43.2043H29.8853C32.3609 43.2043 33.4306 44.0081 33.4306 45.832C33.4306 47.7177 32.2998 48.5524 29.6713 48.5524H26.4928V43.2043ZM26.4928 52.1384H29.7019C32.5748 52.1384 33.7057 53.0349 33.7057 55.0134C33.7057 56.8683 32.6054 57.7648 29.8242 57.7648H26.4928V52.1384Z" fill="black"/>
<path d="M47.6544 39C42.8866 39 39.6163 41.6586 39.6163 45.5228C39.6163 50.3454 43.345 51.3347 47.4405 52.3858C50.5273 53.1895 51.9332 53.5605 51.9332 55.5081C51.9332 57.2392 50.4662 58.3212 48.174 58.3212C45.3927 58.3212 43.9563 56.9301 43.9563 54.2715H39.3107C39.3107 59.2796 42.7032 62 48.1128 62C53.1863 62 56.6094 59.2177 56.6094 55.0444C56.6094 50.2527 53.0641 49.1707 48.9686 48.1505C45.5455 47.2849 44.2313 46.7285 44.2313 45.0282C44.2313 43.6062 45.5761 42.6169 47.5627 42.6169C50.0383 42.6169 51.3525 43.9462 51.3525 46.2339H55.9064C55.9064 41.504 53.0946 39 47.6544 39Z" fill="black"/>
<path d="M78 61.5054V39.4946H73.6906V47.9651C73.6906 51.1492 73.7823 54.3333 73.9351 57.5175H73.874C72.6515 54.457 71.2761 51.3656 69.9008 48.4288L65.6831 39.4946H59.2954V61.5054H63.6048V53.0349C63.6048 49.8508 63.5131 46.6667 63.3603 43.4825H63.4214C64.6439 46.543 66.0193 49.6344 67.3946 52.5712L71.6123 61.5054H78Z" fill="black"/>
</svg>
