<svg width="100" height="100" viewBox="0 0 100 100" fill="none" xmlns="http://www.w3.org/2000/svg">
<path opacity="0.95" fill-rule="evenodd" clip-rule="evenodd" d="M27 35.243H40.8498V58.6215C40.8498 60.5171 41.4119 62.37 42.465 63.9461C43.5181 65.5222 45.015 66.7506 46.7662 67.476C48.5175 68.2014 50.4445 68.3912 52.3037 68.0214C54.1628 67.6516 55.8705 66.7388 57.2109 65.3985C58.5512 64.0581 59.464 62.3504 59.8338 60.4913C60.2036 58.6321 60.0138 56.7051 59.2884 54.9538C58.563 53.2026 57.3346 51.7058 55.7585 50.6526C54.1824 49.5995 52.3294 49.0374 50.4339 49.0374H44.243V35.1876H50.3785C56.5828 35.2059 62.527 37.6825 66.9089 42.0748C71.2909 46.4672 73.7533 52.4172 73.757 58.6215C73.7387 64.8163 71.2698 70.7521 66.8894 75.1324C62.509 79.5128 56.5732 81.9817 50.3785 82C44.1837 81.9817 38.2479 79.5128 33.8676 75.1324C29.4872 70.7521 27.0183 64.8163 27 58.6215V35.243ZM40.8498 31.8498H27V18H33.9249C35.7615 18 37.5229 18.7296 38.8216 20.0283C40.1202 21.3269 40.8498 23.0883 40.8498 24.9249V31.8498Z" fill="url(#paint0_linear)"/>
<defs>
<linearGradient id="paint0_linear" x1="66.8875" y1="75.1305" x2="18.0669" y2="26.3099" gradientUnits="userSpaceOnUse">
<stop stop-color="#1EB8D1" stop-opacity="0.95"/>
<stop offset="0.13" stop-color="#22B9DF" stop-opacity="0.97"/>
<stop offset="0.36" stop-color="#2ABAFF"/>
<stop offset="0.64" stop-color="#1DDAF0"/>
<stop offset="1" stop-color="#0EFFE0"/>
</linearGradient>
</defs>
</svg>
