<svg id="Слой_1" data-name="Слой 1" xmlns="http://www.w3.org/2000/svg" xmlns:xlink="http://www.w3.org/1999/xlink" viewBox="0 0 120 120"><defs><style>.cls-1{fill:url(#Безымянный_градиент);}.cls-2{fill:url(#Безымянный_градиент_2);}</style><linearGradient id="Безымянный_градиент" x1="71.74" y1="76.23" x2="79.22" y2="74.85" gradientTransform="matrix(1, 0, 0, -1, 0, 122)" gradientUnits="userSpaceOnUse"><stop offset="0" stop-color="#49f886"/><stop offset="1" stop-color="#21756a"/></linearGradient><linearGradient id="Безымянный_градиент_2" x1="20.41" y1="71.1" x2="120.33" y2="52.96" xlink:href="#Безымянный_градиент"/></defs><path d="M60,120A60,60,0,1,0,0,60,60,60,0,0,0,60,120Z"/><path class="cls-1" d="M78.31,44.77v5.1l-7.19-7.1Z"/><path class="cls-2" d="M100.94,41.42l-3.47,2.31a38,38,0,0,1-29.6,59A37.24,37.24,0,0,1,40,92.27,38.13,38.13,0,0,1,66.13,26.69h24l-6.72,6.62v37.3a2.32,2.32,0,0,1-.05.61c-.21,1-1,4.1-3.29,5.49a6.47,6.47,0,0,1-5.33.31,5.31,5.31,0,0,1-3.64-2.75c-1.22-2.48-.22-6.14.3-7.36l.52-1.26L59.33,52.05c-.26-.31-3.47-4.18,1.17-9.41l-3.12-2.79c-5.72,6.45-3.29,12.64-1.17,15L67.13,66.56c-.61,2-1.39,6,.26,9.46a9.24,9.24,0,0,0,6.24,4.92c3.34,1,6.24.7,8.63-.78,3.64-2.23,4.94-6.5,5.29-8.24a8.79,8.79,0,0,0,.21-1.48V34.92l7.41-7.32V22.81H67.78V11H65.35C35.92,11,12,35.4,12,64.51h4.16a49.11,49.11,0,0,1,46.9-49.15v7.58A42.15,42.15,0,0,0,37.18,95.36,41.52,41.52,0,0,0,66.09,107c.65,0,1.34,0,2,0A42.28,42.28,0,0,0,108,66.69,41.86,41.86,0,0,0,100.94,41.42Z"/></svg>