<svg width="100" height="100" viewBox="0 0 100 100" fill="none" xmlns="http://www.w3.org/2000/svg">
<path d="M49.5 2L92 25.7501V73.2501L70.75 85.125L49.5 97L7 73.2501V25.7501L49.5 2Z" fill="white"/>
<path d="M49.4999 7L87 28.2502V70.7503L49.4999 92L12 70.7503V28.2502L49.4999 7Z" fill="#5985E3"/>
<path d="M49 46.9679L86.991 28L87 70.6363L49.1725 92L49 46.9679Z" fill="#386DE6"/>
<path fill-rule="evenodd" clip-rule="evenodd" d="M49.4957 16.285L78.522 32.5483L86.9913 28.2877L49.524 7L49.4957 7.01627L49.467 7L12 28.2877L12.021 28.298L12.0141 70.7293L20.2508 75.4152L20.2523 75.1681V75.3752L49.5373 92V91.9734L87 70.7417V65.9828V61.1818L49.5373 82.4439V82.4398L20.3042 65.8749L20.49 32.5475L20.4798 32.5423L49.4957 16.285Z" fill="#17181A"/>
</svg>
