<svg width="100" height="100" viewBox="0 0 100 100" fill="none" xmlns="http://www.w3.org/2000/svg">
<path d="M73.6438 15.0676C72.2056 15.2335 70.6883 15.7005 69.2563 16.4193C65.2831 18.4101 62.1144 22.0475 59.1467 28.0258C57.7086 30.9259 56.5752 33.9243 55.8927 36.6155L55.6977 37.3958L54.808 37.8567C53.248 38.6738 51.8342 39.6262 50.0609 41.0517C47.1664 43.3865 44.8508 45.795 42.6448 48.7627C42.1939 49.371 41.7978 49.8933 41.7734 49.924C41.743 49.9547 41.3956 49.924 40.9691 49.8625C40.0428 49.7212 37.3798 49.7028 36.3195 49.8318C32.0722 50.3418 28.1783 51.6075 23.5105 53.9915C20.1406 55.7119 17.9713 57.2418 15.8445 59.3923C13.1755 62.0835 11.585 65.0634 11.1158 68.24C11.0122 68.9343 11.0122 71.0111 11.1158 71.6808C11.5911 74.7836 12.8647 77.4994 14.9061 79.7359C17.307 82.3779 20.8475 83.8341 25.2289 83.9816C30.2989 84.1475 36.8497 82.1875 42.8886 78.6914C46.7764 76.4426 49.4942 73.9603 51.3894 70.9128C51.6941 70.4212 51.7916 70.3168 51.9866 70.243C54.9786 69.1555 57.1236 68.0188 59.4636 66.2923C61.7792 64.578 63.5403 62.9129 66.642 59.4967C67.4098 58.6488 67.5439 58.4583 67.5866 58.1819C67.6231 57.9852 67.6475 57.9545 67.7572 57.9791C68.3361 58.0958 70.2313 58.1143 71.0661 58.0098C73.4061 57.721 75.6242 56.7625 77.818 55.0913C80.7613 52.8425 83.4973 49.1191 85.4352 44.7075C88.348 38.0717 89.4509 32.4804 88.8172 27.522C88.6588 26.2502 88.5003 25.5436 88.1469 24.4499C87.6655 22.9814 86.9281 21.5559 86.0263 20.3455C85.5388 19.7004 84.2591 18.4162 83.6192 17.937C82.2603 16.9232 80.1702 15.9401 78.3603 15.467C76.7759 15.0553 75.0331 14.9079 73.6438 15.0676ZM76.3859 23.9092C78.5675 24.4376 79.9934 26.2256 80.3469 28.886C80.4383 29.5496 80.4383 31.2639 80.3469 31.9889C79.9873 34.9627 78.927 38.4404 77.4158 41.5924C76.2884 43.9518 75.3988 45.3834 74.1922 46.7535C73.8144 47.1898 72.62 48.2712 72.5713 48.222C72.5652 48.2159 72.6505 47.8411 72.7663 47.3864C73.0405 46.305 73.1502 45.6168 73.1989 44.6461C73.2964 42.5386 72.7541 40.6031 71.645 39.0609C70.2252 37.1071 68.2569 35.8659 65.9534 35.4911C65.8255 35.4727 65.7219 35.4358 65.7219 35.4051C65.7219 35.3805 65.9413 34.7968 66.2033 34.1025C67.7938 29.9429 69.1953 27.5036 71.0295 25.7217C72.5225 24.2717 73.5341 23.8047 75.1672 23.7924C75.673 23.7863 76.0142 23.8232 76.3859 23.9092ZM64.7834 44.2037C65.3684 44.8181 65.4172 45.07 65.3014 46.7597L65.2648 47.3434L65.1064 47.0976C64.8505 46.7105 64.6494 46.2804 64.5153 45.8319C64.4422 45.6046 64.3447 45.3342 64.2898 45.2298C64.2106 45.0823 64.0888 44.1975 64.0766 43.706C64.0766 43.5708 64.4117 43.8104 64.7834 44.2037ZM56.5142 47.6137C56.9469 50.2005 57.8427 52.1973 59.2625 53.7273L59.7683 54.268L59.6159 54.4339C59.5367 54.526 59.098 55.0114 58.647 55.5214C56.7336 57.6842 55.2041 59.1711 53.638 60.3999C53.4064 60.5781 53.2114 60.7133 53.1992 60.701C53.1931 60.6887 53.1261 60.4675 53.053 60.1972C52.5167 58.2126 51.4747 56.3632 49.8903 54.5813L49.3784 54.0099L49.8538 53.4201C51.0298 51.97 52.663 50.2128 54.0645 48.8979C55.07 47.964 56.3558 46.8211 56.3802 46.8457C56.3863 46.8518 56.4472 47.2021 56.5142 47.6137ZM37.977 58.6673C37.9588 58.7963 37.8856 59.2817 37.8125 59.7548C37.5627 61.4199 37.5505 63.7977 37.782 65.1679C37.9953 66.4152 38.428 67.5641 38.9947 68.3567C39.3055 68.7868 39.9758 69.4627 40.3658 69.7146L40.6278 69.8928L40.4572 70.0341C39.7808 70.5871 37.6053 71.8221 35.765 72.6884C33.102 73.9419 30.8169 74.6976 28.3367 75.1339C27.4653 75.2813 27.2155 75.3059 25.9906 75.3059C24.8816 75.3059 24.522 75.2813 24.1138 75.1953C22.4197 74.8144 21.2741 74.0955 20.5245 72.9281C19.9395 72.0126 19.708 71.2384 19.708 70.1632C19.708 68.3936 20.3417 67.1279 22.1455 65.3215C23.8761 63.5888 25.9723 62.2432 29.068 60.8792C32.773 59.251 35.2592 58.5567 37.8064 58.4461C38.0075 58.4399 38.0136 58.4399 37.977 58.6673ZM44.863 62.661C44.8447 62.7225 44.8325 62.6856 44.8325 62.5873C44.8325 62.4828 44.8447 62.4398 44.863 62.4767C44.8752 62.5197 44.8752 62.6057 44.863 62.661Z" fill="black"/>
</svg>
