<svg id="svg" version="1.1" xmlns="http://www.w3.org/2000/svg" xmlns:xlink="http://www.w3.org/1999/xlink" width="400" height="400" viewBox="0, 0, 400,400"><g id="svgg"><path id="path0" d="M348.271 7.862 C 348.122 8.011,348.000 10.694,348.000 13.824 C 348.000 20.591,348.653 20.000,341.177 20.000 L 335.620 20.000 335.510 26.500 L 335.400 33.000 329.905 33.111 C 323.463 33.242,324.050 32.627,323.899 39.400 L 323.800 43.800 317.100 43.910 L 310.400 44.019 310.400 50.530 C 310.400 58.577,310.916 58.000,303.720 58.000 L 298.000 58.000 297.994 63.700 C 297.986 70.958,298.606 70.357,290.983 70.489 L 284.600 70.600 284.517 75.600 C 284.471 78.350,284.426 80.915,284.417 81.300 C 284.402 81.930,283.872 82.001,279.100 82.005 C 271.305 82.013,272.000 81.383,272.000 88.439 C 272.000 95.462,272.784 94.758,264.800 94.903 L 259.400 95.000 259.200 107.600 L 259.000 120.200 199.600 120.200 L 140.200 120.200 140.000 108.200 L 139.800 96.200 133.828 96.089 C 126.335 95.950,126.846 96.439,126.710 89.260 L 126.600 83.400 120.305 83.290 C 112.884 83.160,113.641 83.972,113.497 76.000 L 113.400 70.600 107.617 70.489 C 100.671 70.355,101.214 70.947,101.206 63.500 L 101.200 57.600 95.480 57.600 C 88.353 57.600,88.800 58.033,88.800 51.120 L 88.800 45.600 82.610 45.600 L 76.420 45.600 76.310 39.100 L 76.200 32.600 70.600 32.493 C 63.608 32.360,64.000 32.773,64.000 25.524 L 64.000 20.000 58.300 19.995 C 50.102 19.987,50.842 20.586,50.711 13.856 L 50.600 8.200 35.600 8.200 L 20.600 8.200 20.498 54.492 L 20.397 100.784 21.298 100.993 C 21.794 101.108,24.180 101.247,26.600 101.301 L 31.000 101.400 31.200 133.200 L 31.400 165.000 36.400 165.000 L 41.400 165.000 41.400 97.400 L 41.400 29.800 47.370 29.689 C 54.537 29.556,53.986 29.022,53.994 36.100 L 54.000 41.600 60.190 41.600 L 66.380 41.600 66.490 47.900 L 66.600 54.200 72.600 54.400 L 78.600 54.600 78.800 61.000 L 79.000 67.400 84.773 67.511 C 92.051 67.652,91.600 67.222,91.600 74.006 C 91.600 80.563,90.959 80.000,98.422 80.000 L 103.979 80.000 104.090 86.100 L 104.200 92.200 109.800 92.400 L 115.400 92.600 115.504 111.870 C 115.598 129.384,115.548 131.152,114.958 131.270 C 114.601 131.341,112.619 131.343,110.554 131.273 L 106.800 131.145 106.800 125.205 C 106.800 117.222,107.602 118.000,99.367 118.000 L 92.420 118.000 92.310 111.700 L 92.200 105.400 86.100 105.290 L 80.000 105.179 80.000 99.363 C 80.000 91.489,80.472 92.000,73.196 92.000 L 67.220 92.000 67.110 85.700 L 67.000 79.400 60.552 79.290 L 54.104 79.181 53.852 80.440 C 53.532 82.041,53.529 128.696,53.849 129.890 C 54.080 130.751,54.273 130.783,59.944 130.890 L 65.800 131.000 66.014 143.600 C 66.132 150.530,66.267 156.245,66.314 156.300 C 66.361 156.355,69.190 156.400,72.600 156.400 L 78.800 156.400 78.800 162.820 C 78.800 167.809,78.937 169.504,79.414 170.427 C 79.875 171.319,79.999 172.632,79.914 175.707 L 79.800 179.800 67.400 179.800 L 55.000 179.800 54.800 174.200 L 54.600 168.600 49.000 168.600 L 43.400 168.600 43.293 179.291 L 43.187 189.981 44.093 190.194 C 44.592 190.311,47.700 190.450,51.000 190.503 L 57.000 190.600 57.110 196.689 L 57.221 202.778 62.910 202.889 L 68.600 203.000 68.704 222.100 L 68.808 241.200 74.924 241.200 C 79.148 241.200,81.189 241.349,81.520 241.680 C 81.883 242.043,82.000 248.229,82.000 267.070 L 82.000 291.980 88.300 292.090 L 94.600 292.200 94.800 298.000 L 95.000 303.800 100.716 304.000 C 105.203 304.157,106.513 304.329,106.810 304.800 C 107.033 305.154,107.190 313.053,107.194 324.100 L 107.200 342.800 113.386 342.800 C 120.862 342.800,120.400 342.356,120.400 349.534 L 120.400 354.720 125.539 354.860 C 129.132 354.958,130.877 355.165,131.339 355.549 C 131.750 355.890,132.000 355.932,132.000 355.660 C 132.000 355.420,131.415 355.071,130.700 354.886 L 129.400 354.550 129.290 348.075 L 129.180 341.600 133.562 341.600 C 139.225 341.600,139.200 341.623,139.200 336.371 L 139.200 332.400 145.520 332.400 C 153.273 332.400,152.800 332.780,152.800 326.563 C 152.800 320.990,152.658 321.200,156.433 321.200 C 158.400 321.200,158.809 321.082,158.854 320.500 C 158.884 320.115,158.947 318.341,158.995 316.559 C 159.097 312.695,159.241 312.400,161.019 312.400 L 162.391 312.400 162.495 296.500 L 162.600 280.600 163.997 280.467 C 166.046 280.273,165.987 280.827,165.994 261.708 L 166.000 244.015 166.946 243.778 C 167.467 243.647,168.142 243.575,168.446 243.618 C 169.978 243.831,169.982 243.808,170.092 234.700 L 170.200 225.800 171.894 225.677 L 173.587 225.555 173.694 214.477 L 173.800 203.400 175.885 203.280 L 177.969 203.159 178.085 199.680 L 178.200 196.200 182.585 196.086 C 185.476 196.010,187.076 195.806,187.279 195.486 C 187.449 195.219,187.591 178.215,187.594 157.700 L 187.600 120.400 200.400 120.400 L 213.200 120.400 213.206 157.700 C 213.209 178.215,213.351 195.219,213.521 195.486 C 213.724 195.806,215.324 196.010,218.215 196.086 L 222.600 196.200 222.715 199.680 L 222.831 203.159 224.915 203.280 L 227.000 203.400 227.200 214.400 L 227.400 225.400 229.000 225.600 L 230.600 225.800 230.708 234.700 C 230.789 241.392,230.937 243.611,231.308 243.644 C 231.578 243.669,232.195 243.657,232.678 243.619 C 235.320 243.408,235.200 242.516,235.200 262.390 L 235.200 280.352 236.700 280.476 L 238.200 280.600 238.305 296.500 L 238.409 312.400 239.791 312.400 C 241.671 312.400,242.046 313.266,241.964 317.418 C 241.885 321.432,241.853 321.382,244.402 321.247 C 248.058 321.053,248.000 320.967,248.000 326.547 C 248.000 332.779,247.531 332.400,255.237 332.400 C 262.557 332.400,262.000 331.989,262.000 337.390 C 262.000 341.825,261.708 341.600,267.451 341.600 L 271.636 341.600 271.518 348.416 L 271.400 355.231 274.400 355.116 L 277.400 355.000 277.512 349.427 C 277.654 342.313,277.115 342.800,284.845 342.800 L 291.192 342.800 291.296 323.700 L 291.400 304.600 297.690 304.490 L 303.979 304.380 304.090 298.290 L 304.200 292.200 310.600 292.091 L 317.000 291.981 316.884 267.691 C 316.820 254.331,316.874 242.815,317.002 242.100 L 317.236 240.800 322.585 240.800 C 325.527 240.800,328.224 240.689,328.578 240.553 C 329.157 240.331,329.218 238.498,329.188 222.291 C 329.160 207.858,329.257 204.210,329.677 203.944 C 329.965 203.762,333.030 203.609,336.490 203.606 L 342.780 203.600 342.890 197.300 L 343.000 191.000 349.000 190.800 L 355.000 190.600 355.000 179.600 L 355.000 168.600 349.000 168.600 L 343.000 168.600 342.800 174.200 L 342.600 179.800 330.200 179.800 L 317.800 179.800 317.687 175.359 C 317.596 171.762,317.691 170.822,318.187 170.410 C 318.693 169.991,318.800 168.726,318.800 163.161 L 318.800 156.420 325.100 156.310 L 331.400 156.200 331.600 143.600 L 331.800 131.000 337.800 130.800 L 343.800 130.600 343.800 105.000 L 343.800 79.400 337.200 79.400 L 330.600 79.400 330.490 85.700 L 330.380 92.000 324.404 92.000 C 317.141 92.000,317.600 91.517,317.600 99.166 C 317.600 105.800,318.334 105.157,310.600 105.302 L 305.400 105.400 305.290 111.691 L 305.180 117.982 298.090 118.091 L 291.000 118.200 290.800 124.702 C 290.690 128.277,290.465 131.202,290.300 131.202 C 290.135 131.201,288.198 131.200,285.996 131.200 L 281.992 131.200 282.096 111.900 L 282.200 92.600 287.800 92.400 L 293.400 92.200 293.510 86.100 L 293.621 80.000 299.178 80.000 C 306.636 80.000,305.999 80.555,306.006 74.057 C 306.014 67.102,305.467 67.644,312.617 67.511 L 318.600 67.400 318.800 61.000 L 319.000 54.600 325.100 54.490 L 331.200 54.379 331.200 47.990 L 331.200 41.600 337.400 41.600 C 340.810 41.600,343.627 41.555,343.661 41.500 C 343.694 41.445,343.829 38.790,343.961 35.600 L 344.200 29.800 350.200 29.800 L 356.200 29.800 356.200 97.400 L 356.200 165.000 361.698 165.111 L 367.195 165.223 367.298 134.111 L 367.400 103.000 373.400 102.800 L 379.400 102.600 379.400 55.200 L 379.400 7.800 363.971 7.695 C 355.486 7.638,348.421 7.713,348.271 7.862 M66.289 79.923 C 66.632 80.141,66.811 82.085,66.889 86.417 L 67.000 92.600 73.000 92.800 L 79.000 93.000 79.200 99.200 L 79.400 105.400 85.495 105.510 C 92.693 105.641,91.960 104.810,92.103 113.000 L 92.200 118.600 99.100 118.709 L 106.000 118.819 106.000 137.367 C 106.000 153.911,105.932 155.941,105.367 156.157 C 105.019 156.291,101.959 156.400,98.567 156.400 L 92.400 156.400 92.400 162.724 C 92.400 170.993,92.885 170.452,85.597 170.312 L 79.800 170.200 79.694 163.400 C 79.564 155.010,80.106 155.600,72.529 155.600 L 66.811 155.600 66.706 143.100 L 66.600 130.600 60.600 130.400 L 54.600 130.200 54.497 105.225 C 54.416 85.511,54.500 80.184,54.897 79.932 C 55.545 79.520,65.644 79.513,66.289 79.923 M343.120 80.080 C 343.629 80.589,343.857 128.464,343.357 129.767 C 343.151 130.305,342.221 130.400,337.163 130.400 L 331.211 130.400 331.106 142.900 L 331.000 155.400 325.000 155.600 C 317.333 155.856,318.000 155.130,318.000 163.216 C 318.000 171.226,318.728 170.487,311.000 170.315 L 305.800 170.200 305.703 164.200 C 305.563 155.506,306.343 156.401,298.892 156.394 C 295.432 156.391,292.400 156.256,292.155 156.094 C 291.534 155.683,291.162 140.566,291.476 128.500 L 291.728 118.800 298.188 118.800 C 306.549 118.800,305.960 119.322,306.094 111.800 L 306.200 105.800 312.200 105.600 L 318.200 105.400 318.400 99.200 L 318.600 93.000 324.600 92.800 L 330.600 92.600 330.711 86.417 C 330.789 82.085,330.968 80.141,331.311 79.923 C 332.139 79.397,342.575 79.535,343.120 80.080 M143.357 232.233 C 143.491 232.581,143.600 235.281,143.600 238.233 L 143.600 243.600 149.551 243.600 C 156.965 243.600,156.451 243.048,156.311 250.854 L 156.200 257.000 150.110 257.110 L 144.021 257.221 143.910 263.310 L 143.800 269.400 130.800 269.400 L 117.800 269.400 117.690 263.300 L 117.579 257.200 112.022 257.200 C 104.521 257.200,105.200 257.860,105.200 250.567 L 105.200 244.420 111.500 244.310 L 117.800 244.200 117.904 238.400 C 117.961 235.210,118.091 232.375,118.192 232.100 C 118.500 231.258,143.033 231.387,143.357 232.233 M278.447 236.700 C 278.473 239.505,278.610 242.340,278.751 243.000 L 279.006 244.200 285.203 244.400 L 291.400 244.600 291.512 250.397 C 291.651 257.626,292.076 257.200,284.724 257.200 L 279.200 257.200 279.200 262.767 C 279.200 265.829,279.091 268.619,278.957 268.967 C 278.743 269.526,277.204 269.600,265.768 269.600 L 252.821 269.600 252.710 263.500 L 252.600 257.400 246.600 257.200 L 240.600 257.000 240.600 250.400 L 240.600 243.800 246.900 243.690 L 253.200 243.580 253.200 237.857 C 253.200 234.709,253.320 232.013,253.467 231.867 C 253.613 231.720,259.283 231.600,266.067 231.600 L 278.400 231.600 278.447 236.700 M133.100 244.698 C 134.915 244.772,137.885 244.772,139.700 244.698 C 141.515 244.623,140.030 244.563,136.400 244.563 C 132.770 244.563,131.285 244.623,133.100 244.698 M260.210 244.694 L 266.422 244.820 266.311 250.510 L 266.200 256.200 260.000 256.416 L 253.800 256.632 259.851 256.716 C 267.345 256.820,266.855 257.289,266.712 250.145 L 266.600 244.600 260.300 244.584 L 253.999 244.569 260.210 244.694 M130.262 256.500 C 130.364 256.665,133.126 256.800,136.400 256.800 C 139.674 256.800,142.436 256.665,142.538 256.500 C 142.640 256.335,139.878 256.200,136.400 256.200 C 132.922 256.200,130.160 256.335,130.262 256.500 M183.062 285.900 C 182.960 286.065,190.132 286.200,199.000 286.200 C 207.868 286.200,215.040 286.065,214.938 285.900 C 214.836 285.735,207.664 285.600,199.000 285.600 C 190.336 285.600,183.164 285.735,183.062 285.900 M182.479 290.820 C 182.377 296.275,182.040 296.019,189.180 295.916 L 195.000 295.833 189.000 295.616 L 183.000 295.400 182.779 291.000 L 182.558 286.600 182.479 290.820 M209.227 295.500 C 205.822 295.572,203.238 295.802,202.927 296.060 C 202.497 296.417,202.418 302.527,202.496 329.149 L 202.593 361.800 202.796 329.000 L 203.000 296.200 208.792 296.088 C 211.977 296.027,214.758 295.802,214.972 295.588 C 215.185 295.375,215.279 295.240,215.180 295.288 C 215.081 295.337,212.402 295.432,209.227 295.500 M266.080 355.680 C 265.755 356.005,265.600 357.873,265.600 361.469 L 265.600 366.779 259.700 366.906 L 253.800 367.034 259.800 367.017 L 265.800 367.000 266.000 361.400 L 266.200 355.800 268.600 355.567 L 271.000 355.334 268.780 355.267 C 267.498 355.228,266.357 355.403,266.080 355.680 M189.867 361.867 C 189.720 362.013,189.603 362.328,189.606 362.567 C 189.610 362.840,189.724 362.824,189.916 362.523 C 190.083 362.260,191.295 361.979,192.610 361.898 L 195.000 361.751 192.567 361.676 C 191.228 361.634,190.013 361.720,189.867 361.867 M204.300 361.889 C 205.015 361.978,206.185 361.978,206.900 361.889 C 207.615 361.801,207.030 361.728,205.600 361.728 C 204.170 361.728,203.585 361.801,204.300 361.889 M208.054 364.876 C 208.025 366.348,208.135 367.636,208.300 367.739 C 208.465 367.841,208.548 366.997,208.484 365.862 C 208.294 362.453,208.112 362.037,208.054 364.876 M132.350 366.911 C 132.522 367.082,135.348 367.172,138.631 367.110 L 144.600 366.997 138.319 366.799 C 134.864 366.689,132.178 366.740,132.350 366.911 M144.962 373.400 C 144.962 376.920,145.024 378.306,145.098 376.481 C 145.172 374.656,145.172 371.776,145.097 370.081 C 145.022 368.386,144.961 369.880,144.962 373.400 M195.412 368.500 C 195.300 368.995,195.162 370.300,195.105 371.400 L 195.000 373.400 188.520 373.510 L 182.039 373.620 181.920 375.910 L 181.800 378.200 169.900 378.306 L 158.000 378.412 158.000 385.606 L 158.000 392.800 198.757 392.800 C 235.553 392.800,239.538 392.739,239.757 392.167 C 240.115 391.236,240.041 379.484,239.674 378.906 C 239.440 378.537,236.433 378.386,227.780 378.306 L 216.200 378.200 216.000 376.000 L 215.800 373.800 209.200 373.600 L 202.600 373.400 202.482 370.500 L 202.365 367.600 198.990 367.600 C 195.817 367.600,195.603 367.654,195.412 368.500 M221.703 372.000 C 221.843 372.515,223.496 372.601,233.433 372.610 L 245.000 372.619 233.620 372.503 C 225.161 372.417,222.149 372.261,221.889 371.894 C 221.634 371.534,221.583 371.562,221.703 372.000 M164.600 372.400 L 153.000 372.618 164.476 372.709 C 171.795 372.767,176.042 372.655,176.200 372.400 C 176.336 372.180,176.392 372.041,176.324 372.091 C 176.256 372.141,170.980 372.280,164.600 372.400 M152.140 376.000 C 152.140 377.870,152.209 378.635,152.293 377.700 C 152.377 376.765,152.377 375.235,152.293 374.300 C 152.209 373.365,152.140 374.130,152.140 376.000 M146.900 379.891 C 147.725 379.978,149.075 379.978,149.900 379.891 C 150.725 379.805,150.050 379.734,148.400 379.734 C 146.750 379.734,146.075 379.805,146.900 379.891 " stroke="none" fill="#d39a5b" fill-rule="evenodd"></path><path id="path1" d="M54.897 79.932 C 54.500 80.184,54.416 85.511,54.497 105.225 L 54.600 130.200 60.600 130.400 L 66.600 130.600 66.706 143.100 L 66.811 155.600 72.529 155.600 C 80.106 155.600,79.564 155.010,79.694 163.400 L 79.800 170.200 85.597 170.312 C 92.885 170.452,92.400 170.993,92.400 162.724 L 92.400 156.400 98.567 156.400 C 101.959 156.400,105.019 156.291,105.367 156.157 C 105.932 155.941,106.000 153.911,106.000 137.367 L 106.000 118.819 99.100 118.709 L 92.200 118.600 92.103 113.000 C 91.960 104.810,92.693 105.641,85.495 105.510 L 79.400 105.400 79.200 99.200 L 79.000 93.000 73.000 92.800 L 67.000 92.600 66.889 86.417 C 66.811 82.085,66.632 80.141,66.289 79.923 C 65.644 79.513,55.545 79.520,54.897 79.932 M331.311 79.923 C 330.968 80.141,330.789 82.085,330.711 86.417 L 330.600 92.600 324.600 92.800 L 318.600 93.000 318.400 99.200 L 318.200 105.400 312.200 105.600 L 306.200 105.800 306.094 111.800 C 305.960 119.322,306.549 118.800,298.188 118.800 L 291.728 118.800 291.476 128.500 C 291.162 140.566,291.534 155.683,292.155 156.094 C 292.400 156.256,295.432 156.391,298.892 156.394 C 306.343 156.401,305.563 155.506,305.703 164.200 L 305.800 170.200 311.000 170.315 C 318.728 170.487,318.000 171.226,318.000 163.216 C 318.000 155.130,317.333 155.856,325.000 155.600 L 331.000 155.400 331.106 142.900 L 331.211 130.400 337.163 130.400 C 342.221 130.400,343.151 130.305,343.357 129.767 C 343.857 128.464,343.629 80.589,343.120 80.080 C 342.575 79.535,332.139 79.397,331.311 79.923 M187.594 157.700 C 187.591 178.215,187.449 195.219,187.279 195.486 C 187.076 195.806,185.476 196.010,182.585 196.086 L 178.200 196.200 178.085 199.680 L 177.969 203.159 175.885 203.280 L 173.800 203.400 173.694 214.477 L 173.587 225.555 171.894 225.677 L 170.200 225.800 170.092 234.700 C 169.982 243.808,169.978 243.831,168.446 243.618 C 168.142 243.575,167.467 243.647,166.946 243.778 L 166.000 244.015 165.994 261.708 C 165.987 280.827,166.046 280.273,163.997 280.467 L 162.600 280.600 162.495 296.500 L 162.391 312.400 161.019 312.400 C 159.241 312.400,159.097 312.695,158.995 316.559 C 158.947 318.341,158.884 320.115,158.854 320.500 C 158.809 321.082,158.400 321.200,156.433 321.200 C 152.658 321.200,152.800 320.990,152.800 326.563 C 152.800 332.780,153.273 332.400,145.520 332.400 L 139.200 332.400 139.200 336.371 C 139.200 341.623,139.225 341.600,133.562 341.600 L 129.180 341.600 129.290 348.075 L 129.400 354.550 130.689 354.884 L 131.978 355.217 132.089 360.909 L 132.200 366.600 137.800 366.697 C 146.028 366.840,145.200 366.089,145.200 373.408 L 145.200 379.600 148.600 379.600 L 152.000 379.600 152.000 376.200 C 152.000 374.330,152.045 372.764,152.100 372.721 C 152.155 372.677,157.600 372.542,164.200 372.421 L 176.200 372.200 176.321 370.100 L 176.442 368.000 182.521 367.994 C 189.776 367.987,189.528 368.104,189.680 364.589 L 189.800 361.800 192.500 361.682 L 195.200 361.563 195.200 328.782 L 195.200 296.000 189.280 296.000 C 182.079 296.000,182.400 296.234,182.400 290.996 C 182.400 285.020,180.655 285.571,199.200 285.695 L 215.000 285.800 215.000 290.800 L 215.000 295.800 209.000 296.000 L 203.000 296.200 202.898 328.900 L 202.795 361.600 205.390 361.600 C 208.337 361.600,208.306 361.561,208.496 365.600 L 208.600 367.800 215.000 368.000 L 221.400 368.200 221.510 369.400 C 221.570 370.060,221.708 371.005,221.817 371.500 L 222.015 372.400 233.308 372.406 C 246.646 372.413,245.539 372.001,245.684 377.014 L 245.800 381.000 249.400 381.000 L 253.000 381.000 253.110 374.217 C 253.241 366.136,252.620 366.814,259.900 366.806 L 265.600 366.800 265.600 361.449 C 265.600 355.263,265.581 355.299,269.014 355.123 L 271.400 355.000 271.510 348.300 L 271.619 341.600 267.442 341.600 C 261.709 341.600,262.000 341.825,262.000 337.390 C 262.000 331.989,262.557 332.400,255.237 332.400 C 247.531 332.400,248.000 332.779,248.000 326.547 C 248.000 320.967,248.058 321.053,244.402 321.247 C 241.853 321.382,241.885 321.432,241.964 317.418 C 242.046 313.266,241.671 312.400,239.791 312.400 L 238.409 312.400 238.305 296.500 L 238.200 280.600 236.700 280.476 L 235.200 280.352 235.200 262.390 C 235.200 242.516,235.320 243.408,232.678 243.619 C 232.195 243.657,231.578 243.669,231.308 243.644 C 230.937 243.611,230.789 241.392,230.708 234.700 L 230.600 225.800 229.000 225.600 L 227.400 225.400 227.200 214.400 L 227.000 203.400 224.915 203.280 L 222.831 203.159 222.715 199.680 L 222.600 196.200 218.215 196.086 C 215.324 196.010,213.724 195.806,213.521 195.486 C 213.351 195.219,213.209 178.215,213.206 157.700 L 213.200 120.400 200.400 120.400 L 187.600 120.400 187.594 157.700 M130.089 250.500 L 130.200 256.200 136.400 256.200 L 142.600 256.200 142.711 250.500 L 142.822 244.800 136.400 244.800 L 129.978 244.800 130.089 250.500 M254.000 250.610 L 254.000 256.421 260.100 256.310 L 266.200 256.200 266.311 250.500 L 266.422 244.800 260.211 244.800 L 254.000 244.800 254.000 250.610 " stroke="none" fill="#fbfbfa" fill-rule="evenodd"></path><path id="path2" d="M14.300 1.757 C 13.406 2.435,13.190 106.230,14.080 107.120 C 14.403 107.443,16.231 107.600,19.680 107.600 L 24.800 107.600 24.800 139.600 L 24.800 171.600 30.594 171.600 L 36.388 171.600 36.494 183.900 L 36.600 196.200 43.600 196.409 L 50.600 196.618 44.499 196.809 C 36.550 197.058,36.358 197.761,44.199 197.911 L 50.000 198.021 50.000 202.778 C 50.000 209.323,49.479 208.800,55.999 208.800 L 61.513 208.800 61.767 209.812 C 61.907 210.368,62.006 218.936,61.988 228.851 C 61.948 250.337,61.043 247.969,69.300 247.987 L 75.200 248.000 75.200 272.150 C 75.200 285.433,75.313 296.863,75.450 297.550 L 75.700 298.800 81.850 298.800 L 88.000 298.800 88.000 304.029 C 88.000 310.761,87.616 310.400,94.771 310.400 L 100.400 310.400 100.400 329.786 C 100.400 348.122,100.439 349.193,101.128 349.561 C 101.528 349.776,104.498 349.987,107.728 350.032 L 113.600 350.113 113.600 355.657 L 113.600 361.200 119.600 361.200 L 125.600 361.200 125.600 366.720 C 125.600 370.296,125.776 372.620,126.100 373.317 L 126.600 374.394 132.689 374.397 L 138.779 374.400 138.889 380.300 L 139.000 386.200 145.100 386.310 L 151.200 386.421 151.200 392.558 L 151.200 398.695 152.700 398.943 C 154.641 399.264,244.932 399.278,245.767 398.957 C 246.301 398.753,246.400 397.873,246.400 393.357 L 246.400 388.000 252.429 388.000 C 260.157 388.000,259.592 388.618,259.632 380.129 C 259.649 376.428,259.754 373.625,259.865 373.900 C 260.139 374.579,271.200 374.623,271.200 373.944 C 271.200 373.693,271.515 373.258,271.899 372.977 C 272.483 372.550,272.623 371.666,272.742 367.633 L 272.884 362.800 277.815 362.800 C 282.395 362.800,282.764 362.743,283.000 362.000 C 283.140 361.560,283.493 361.200,283.784 361.200 C 284.634 361.200,284.800 360.222,284.800 355.210 C 284.800 349.573,284.271 350.000,291.259 350.000 C 298.842 350.000,298.000 352.473,298.000 330.196 L 298.000 311.221 304.100 311.110 L 310.200 311.000 310.310 304.900 L 310.421 298.800 316.588 298.800 C 324.943 298.800,324.000 302.194,324.000 272.122 L 324.000 247.222 329.700 247.111 L 335.400 247.000 335.504 228.700 L 335.608 210.400 342.204 210.400 C 348.765 210.400,348.800 210.395,348.841 209.500 C 348.864 209.005,348.848 206.400,348.806 203.711 L 348.729 198.822 354.432 198.711 C 362.657 198.551,362.729 197.669,354.530 197.499 L 348.600 197.377 355.038 197.288 C 363.629 197.170,362.800 198.624,362.800 183.680 L 362.800 171.623 368.300 171.511 L 373.800 171.400 373.902 140.800 L 374.004 110.200 379.602 110.321 C 384.525 110.428,385.200 110.365,385.200 109.800 C 385.200 109.235,384.525 109.172,379.599 109.279 C 376.519 109.346,373.999 109.265,373.999 109.100 C 374.000 108.935,376.791 108.800,380.201 108.800 L 386.403 108.800 386.301 55.100 L 386.200 1.400 364.100 1.297 L 342.000 1.193 342.000 6.997 L 342.000 12.800 336.029 12.800 L 330.058 12.800 329.229 13.854 C 328.484 14.801,328.400 15.451,328.400 20.242 L 328.400 25.575 323.500 25.688 C 320.513 25.756,318.628 25.956,318.672 26.200 C 318.711 26.420,318.486 26.744,318.172 26.920 C 317.720 27.172,317.600 28.372,317.600 32.620 L 317.600 38.000 310.600 38.000 L 303.600 38.000 303.600 44.600 L 303.600 51.200 297.971 51.200 C 290.780 51.200,291.200 50.780,291.200 57.971 L 291.200 63.600 284.862 63.600 C 276.708 63.600,277.110 63.241,277.277 70.357 L 277.400 75.601 271.871 75.601 C 264.762 75.600,265.200 75.129,265.200 82.771 L 265.200 88.800 259.000 88.800 L 252.800 88.800 252.800 101.200 L 252.800 113.600 199.600 113.600 L 146.400 113.600 146.400 101.600 L 146.400 89.600 139.800 89.600 L 133.200 89.600 133.200 83.200 L 133.200 76.800 126.610 76.800 L 120.020 76.800 119.910 70.300 L 119.800 63.800 113.700 63.690 L 107.600 63.579 107.600 57.436 C 107.600 50.161,108.279 50.814,100.700 50.805 L 95.600 50.800 95.600 45.344 C 95.600 38.470,95.980 38.830,88.700 38.813 L 83.200 38.800 83.200 32.643 C 83.200 25.337,83.882 26.000,76.367 26.000 L 70.800 26.000 70.800 19.814 C 70.800 12.294,71.332 12.800,63.426 12.800 L 57.600 12.800 57.600 7.861 C 57.600 0.425,60.160 1.197,35.553 1.213 C 19.097 1.223,14.860 1.331,14.300 1.757 M379.771 7.429 C 380.457 8.114,380.757 101.619,380.077 102.689 C 379.862 103.027,377.995 103.211,373.983 103.289 L 368.200 103.400 368.098 134.490 L 367.995 165.579 361.898 165.690 L 355.800 165.800 355.600 178.600 L 355.400 191.400 349.300 191.510 L 343.200 191.621 343.200 197.810 C 343.200 202.478,343.077 204.008,342.700 204.033 C 342.425 204.051,339.585 204.105,336.390 204.154 C 333.194 204.202,330.359 204.378,330.090 204.545 C 329.715 204.776,329.600 209.108,329.600 222.981 C 329.600 239.147,329.531 241.141,328.967 241.357 C 328.619 241.491,325.919 241.600,322.967 241.600 L 317.600 241.600 317.600 267.000 L 317.600 292.400 311.480 292.400 C 303.881 292.400,304.400 291.911,304.400 299.070 L 304.400 304.779 298.300 304.890 L 292.200 305.000 292.096 323.764 C 292.024 336.807,291.856 342.691,291.547 343.064 C 291.209 343.471,289.574 343.600,284.762 343.600 L 278.421 343.600 278.311 349.500 L 278.200 355.400 272.400 355.800 L 266.600 356.200 266.400 361.800 L 266.200 367.400 260.100 367.510 L 254.000 367.621 254.000 374.396 C 254.000 382.330,254.197 382.000,249.459 382.000 C 245.045 382.000,245.200 382.161,245.200 377.600 C 245.200 372.757,246.444 373.200,232.847 373.200 C 220.524 373.200,220.800 373.261,220.800 370.520 L 220.800 368.800 214.974 368.800 C 207.635 368.800,207.600 368.783,207.600 365.186 L 207.600 362.400 205.280 362.400 C 204.004 362.400,202.744 362.184,202.480 361.920 C 201.971 361.411,201.741 297.142,202.243 295.833 C 202.450 295.294,203.398 295.200,208.656 295.200 L 214.827 295.200 214.714 290.900 L 214.600 286.600 199.000 286.600 L 183.400 286.600 183.286 290.900 L 183.173 295.200 189.172 295.200 C 194.695 295.200,195.205 295.262,195.586 295.974 C 196.250 297.214,196.152 361.375,195.486 361.928 C 195.204 362.163,193.899 362.410,192.586 362.477 L 190.200 362.600 190.083 365.458 C 189.941 368.938,190.284 368.787,182.521 368.795 L 176.842 368.800 176.721 370.900 L 176.600 373.000 164.800 373.200 L 153.000 373.400 152.881 376.382 C 152.725 380.283,152.601 380.400,148.631 380.400 C 144.277 380.400,144.400 380.600,144.400 373.520 L 144.400 367.600 138.280 367.600 C 130.696 367.600,131.200 368.061,131.200 361.120 L 131.200 355.600 125.900 355.594 C 119.151 355.586,119.646 356.067,119.512 349.384 L 119.400 343.800 113.800 343.703 C 110.720 343.649,107.795 343.511,107.300 343.395 L 106.400 343.185 106.400 324.003 L 106.400 304.821 100.500 304.711 L 94.600 304.600 94.489 298.940 C 94.353 291.990,94.847 292.450,87.372 292.311 L 81.400 292.200 81.297 267.100 L 81.194 242.000 75.277 242.000 C 71.208 242.000,69.210 241.850,68.880 241.520 C 68.520 241.160,68.400 236.353,68.400 222.347 C 68.400 204.884,68.354 203.641,67.700 203.462 C 67.315 203.357,64.788 203.278,62.085 203.287 C 56.102 203.307,56.640 203.915,56.400 196.868 L 56.200 191.000 49.600 190.800 L 43.000 190.600 42.894 178.100 L 42.789 165.600 36.794 165.600 L 30.800 165.600 30.800 134.233 C 30.800 116.981,30.691 102.581,30.557 102.233 C 30.353 101.701,29.495 101.600,25.204 101.600 C 20.242 101.600,20.086 101.574,19.852 100.700 C 19.350 98.825,19.572 8.588,20.080 8.080 C 20.588 7.572,49.679 7.348,50.967 7.843 C 51.502 8.048,51.600 8.944,51.600 13.643 L 51.600 19.200 57.700 19.206 C 65.389 19.214,64.755 18.631,64.889 25.817 L 65.000 31.800 70.800 32.000 L 76.600 32.200 76.710 38.700 L 76.820 45.200 82.967 45.200 C 90.240 45.200,89.600 44.579,89.600 51.633 L 89.600 56.800 95.167 56.800 C 102.682 56.800,102.000 56.137,102.000 63.443 L 102.000 69.600 107.426 69.600 C 114.854 69.600,114.400 69.160,114.400 76.371 C 114.400 83.451,113.760 82.852,121.250 82.777 C 128.172 82.707,127.600 82.127,127.600 89.224 L 127.600 95.200 133.571 95.200 C 141.555 95.200,140.800 93.860,140.800 108.030 L 140.800 119.603 199.700 119.501 L 258.600 119.400 258.800 106.800 L 259.000 94.200 264.400 94.103 C 272.347 93.959,271.559 94.652,271.689 87.695 L 271.800 81.800 277.000 81.702 C 284.712 81.557,284.000 82.151,284.000 75.872 C 284.000 69.170,283.515 69.600,291.069 69.600 L 297.179 69.600 297.289 63.700 L 297.400 57.800 303.295 57.689 C 310.277 57.558,309.563 58.437,309.703 49.800 L 309.800 43.800 316.383 43.690 C 324.181 43.559,323.586 44.054,323.594 37.700 L 323.600 32.800 328.976 32.800 C 335.473 32.800,334.948 33.407,335.200 25.600 L 335.400 19.400 341.500 19.290 L 347.600 19.179 347.600 13.223 C 347.600 8.832,347.731 7.214,348.100 7.065 C 349.568 6.473,379.155 6.812,379.771 7.429 M119.073 232.261 C 118.923 232.411,118.800 235.091,118.800 238.218 C 118.800 245.219,119.295 244.749,111.772 244.889 L 105.800 245.000 105.800 250.600 L 105.800 256.200 111.900 256.310 L 118.000 256.421 118.006 262.310 C 118.014 270.026,116.514 269.231,130.827 269.106 L 143.000 269.000 143.200 263.000 L 143.400 257.000 148.600 256.902 C 156.385 256.756,155.641 257.446,155.511 250.490 L 155.400 244.600 149.300 244.490 L 143.200 244.379 143.200 250.799 L 143.200 257.219 136.500 257.110 L 129.800 257.000 129.689 250.630 C 129.557 242.970,128.913 243.614,136.711 243.606 L 142.822 243.600 142.711 237.900 L 142.600 232.200 130.973 232.094 C 124.578 232.036,119.223 232.111,119.073 232.261 M254.000 237.800 L 254.000 243.600 260.120 243.600 C 267.729 243.600,267.202 243.094,267.194 250.380 C 267.186 257.845,267.814 257.243,260.170 257.111 L 253.800 257.000 253.690 250.690 L 253.580 244.380 247.290 244.490 L 241.000 244.600 240.888 250.145 C 240.745 257.248,240.305 256.800,247.439 256.800 L 253.179 256.800 253.290 262.900 L 253.400 269.000 265.691 269.106 L 277.982 269.212 278.193 268.306 C 278.310 267.808,278.449 264.970,278.503 262.000 L 278.600 256.600 284.600 256.400 L 290.600 256.200 290.600 250.600 L 290.600 245.000 284.400 244.800 L 278.200 244.600 278.089 238.617 C 278.011 234.445,277.830 232.539,277.489 232.323 C 277.220 232.152,271.825 232.009,265.500 232.006 L 254.000 232.000 254.000 237.800 M202.730 367.315 C 202.965 367.599,203.212 368.994,203.279 370.415 L 203.400 373.000 209.900 373.110 L 216.400 373.220 216.400 375.161 C 216.400 378.047,216.088 377.975,229.033 378.094 L 240.600 378.200 240.710 385.147 C 240.785 389.932,240.677 392.267,240.361 392.647 C 239.841 393.273,158.671 393.487,157.690 392.864 C 157.302 392.618,157.207 390.839,157.290 385.371 L 157.400 378.200 169.200 378.000 L 181.000 377.800 181.200 375.600 L 181.400 373.400 187.900 373.290 C 192.678 373.209,194.410 373.050,194.437 372.690 C 194.457 372.421,194.446 371.476,194.412 370.591 C 194.281 367.168,194.701 366.800,198.741 366.800 C 201.158 366.800,202.439 366.966,202.730 367.315 " stroke="none" fill="#0b0907" fill-rule="evenodd"></path><path id="path3" d="M41.322 30.260 C 41.182 30.623,41.188 55.598,41.334 85.760 C 41.480 115.922,41.599 146.225,41.600 153.100 C 41.600 163.944,41.679 165.600,42.200 165.600 C 42.618 165.600,42.800 166.021,42.800 166.989 L 42.800 168.379 48.700 168.489 L 54.600 168.600 54.800 174.200 L 55.000 179.800 67.400 179.800 L 79.800 179.800 79.914 175.688 C 80.003 172.497,79.891 171.379,79.414 170.699 C 78.921 169.995,78.800 168.499,78.800 163.121 L 78.800 156.420 72.500 156.310 L 66.200 156.200 66.094 143.706 L 65.989 131.212 65.094 131.004 C 64.602 130.889,61.860 130.751,59.000 130.698 L 53.800 130.600 53.704 105.400 C 53.646 89.949,53.756 79.968,53.990 79.600 C 54.302 79.109,55.499 79.000,60.600 79.000 C 68.142 79.000,67.586 78.435,67.594 86.100 L 67.600 92.000 73.557 92.000 C 80.641 92.000,80.000 91.300,80.000 99.033 L 80.000 104.800 85.567 104.800 C 93.092 104.800,92.400 104.108,92.400 111.634 L 92.400 117.982 99.500 118.091 L 106.600 118.200 106.710 124.673 L 106.820 131.146 110.564 131.273 C 112.623 131.343,114.601 131.341,114.958 131.270 C 115.548 131.152,115.598 129.384,115.504 111.870 L 115.400 92.600 109.800 92.400 L 104.200 92.200 104.090 86.100 L 103.979 80.000 98.422 80.000 C 90.959 80.000,91.600 80.563,91.600 74.006 C 91.600 67.222,92.051 67.652,84.773 67.511 L 79.000 67.400 78.800 61.000 L 78.600 54.600 72.600 54.400 L 66.600 54.200 66.490 47.900 L 66.380 41.600 60.190 41.600 L 54.000 41.600 54.000 36.233 C 54.000 33.281,53.891 30.581,53.757 30.233 C 53.385 29.262,41.695 29.287,41.322 30.260 M344.277 29.856 C 344.125 30.009,343.998 32.308,343.995 34.967 C 343.986 42.239,344.626 41.600,337.353 41.600 L 331.200 41.600 331.200 47.990 L 331.200 54.379 325.100 54.490 L 319.000 54.600 318.800 61.000 L 318.600 67.400 312.617 67.511 C 305.467 67.644,306.014 67.102,306.006 74.057 C 305.999 80.555,306.636 80.000,299.178 80.000 L 293.621 80.000 293.510 86.100 L 293.400 92.200 287.800 92.400 L 282.200 92.600 282.096 111.900 L 281.992 131.200 285.996 131.200 C 288.198 131.200,290.135 131.201,290.300 131.202 C 290.465 131.202,290.690 128.277,290.800 124.702 L 291.000 118.200 298.000 118.000 L 305.000 117.800 305.106 111.800 C 305.239 104.348,304.788 104.800,312.076 104.800 L 317.600 104.800 317.600 98.880 C 317.600 91.494,317.094 92.000,324.480 92.000 L 330.400 92.000 330.400 85.814 C 330.400 78.327,329.935 78.800,337.297 78.800 C 344.889 78.800,344.026 75.355,343.904 105.200 L 343.800 130.600 338.140 130.711 C 334.080 130.790,332.357 130.969,332.046 131.345 C 331.760 131.689,331.576 136.025,331.506 144.034 L 331.400 156.200 325.200 156.400 L 319.000 156.600 318.894 163.400 C 318.808 168.933,318.675 170.285,318.180 170.654 C 317.688 171.022,317.594 171.936,317.686 175.454 L 317.800 179.800 330.200 179.800 L 342.600 179.800 342.800 174.200 L 343.000 168.600 349.269 168.490 L 355.538 168.380 355.783 165.890 C 355.918 164.520,356.067 133.340,356.114 96.600 L 356.200 29.800 350.377 29.690 C 347.174 29.629,344.429 29.704,344.277 29.856 " stroke="none" fill="#9c5404" fill-rule="evenodd"></path><path id="path4" d="M348.100 7.065 C 347.731 7.214,347.600 8.832,347.600 13.223 L 347.600 19.179 341.500 19.290 L 335.400 19.400 335.200 25.600 C 334.948 33.407,335.473 32.800,328.976 32.800 L 323.600 32.800 323.594 37.700 C 323.586 44.054,324.181 43.559,316.383 43.690 L 309.800 43.800 309.703 49.800 C 309.563 58.437,310.277 57.558,303.295 57.689 L 297.400 57.800 297.289 63.700 L 297.179 69.600 291.069 69.600 C 283.515 69.600,284.000 69.170,284.000 75.872 C 284.000 82.151,284.712 81.557,277.000 81.702 L 271.800 81.800 271.689 87.695 C 271.559 94.652,272.347 93.959,264.400 94.103 L 259.000 94.200 258.800 106.800 L 258.600 119.400 199.700 119.501 L 140.800 119.603 140.800 108.030 C 140.800 93.860,141.555 95.200,133.571 95.200 L 127.600 95.200 127.600 89.224 C 127.600 82.127,128.172 82.707,121.250 82.777 C 113.760 82.852,114.400 83.451,114.400 76.371 C 114.400 69.160,114.854 69.600,107.426 69.600 L 102.000 69.600 102.000 63.443 C 102.000 56.137,102.682 56.800,95.167 56.800 L 89.600 56.800 89.600 51.633 C 89.600 44.579,90.240 45.200,82.967 45.200 L 76.820 45.200 76.710 38.700 L 76.600 32.200 70.800 32.000 L 65.000 31.800 64.889 25.817 C 64.755 18.631,65.389 19.214,57.700 19.206 L 51.600 19.200 51.600 13.643 C 51.600 8.944,51.502 8.048,50.967 7.843 C 49.679 7.348,20.588 7.572,20.080 8.080 C 19.572 8.588,19.350 98.825,19.852 100.700 C 20.086 101.574,20.242 101.600,25.204 101.600 C 29.495 101.600,30.353 101.701,30.557 102.233 C 30.691 102.581,30.800 116.981,30.800 134.233 L 30.800 165.600 36.200 165.600 C 39.170 165.600,41.600 165.465,41.600 165.300 C 41.601 165.135,39.306 165.000,36.500 165.000 L 31.400 165.000 31.200 133.200 L 31.000 101.400 26.600 101.301 C 24.180 101.247,21.794 101.108,21.298 100.993 L 20.397 100.784 20.498 54.492 L 20.600 8.200 35.600 8.200 L 50.600 8.200 50.711 13.856 C 50.842 20.586,50.102 19.987,58.300 19.995 L 64.000 20.000 64.000 25.524 C 64.000 32.773,63.608 32.360,70.600 32.493 L 76.200 32.600 76.310 39.100 L 76.420 45.600 82.610 45.600 L 88.800 45.600 88.800 51.120 C 88.800 58.033,88.353 57.600,95.480 57.600 L 101.200 57.600 101.206 63.500 C 101.214 70.947,100.671 70.355,107.617 70.489 L 113.400 70.600 113.497 76.000 C 113.641 83.972,112.884 83.160,120.305 83.290 L 126.600 83.400 126.710 89.260 C 126.846 96.439,126.335 95.950,133.828 96.089 L 139.800 96.200 140.000 108.200 L 140.200 120.200 199.600 120.200 L 259.000 120.200 259.200 107.600 L 259.400 95.000 264.800 94.903 C 272.784 94.758,272.000 95.462,272.000 88.439 C 272.000 81.383,271.305 82.013,279.100 82.005 C 283.872 82.001,284.402 81.930,284.417 81.300 C 284.426 80.915,284.471 78.350,284.517 75.600 L 284.600 70.600 290.983 70.489 C 298.606 70.357,297.986 70.958,297.994 63.700 L 298.000 58.000 303.720 58.000 C 310.916 58.000,310.400 58.577,310.400 50.530 L 310.400 44.019 317.100 43.910 L 323.800 43.800 323.899 39.400 C 324.050 32.627,323.463 33.242,329.905 33.111 L 335.400 33.000 335.510 26.500 L 335.620 20.000 341.310 19.994 C 348.517 19.986,347.955 20.518,348.089 13.583 L 348.200 7.800 363.800 7.800 L 379.400 7.800 379.400 55.200 L 379.400 102.600 373.400 102.800 L 367.400 103.000 367.298 134.121 L 367.195 165.242 361.597 165.121 C 358.518 165.054,355.999 165.135,355.999 165.300 C 356.000 165.465,358.699 165.600,361.998 165.600 L 367.995 165.600 368.098 134.500 L 368.200 103.400 373.983 103.289 C 377.995 103.211,379.862 103.027,380.077 102.689 C 380.757 101.619,380.457 8.114,379.771 7.429 C 379.155 6.812,349.568 6.473,348.100 7.065 M57.682 79.096 C 59.158 79.173,61.678 79.173,63.282 79.097 C 64.887 79.021,63.680 78.958,60.600 78.958 C 57.520 78.957,56.207 79.019,57.682 79.096 M334.300 79.097 C 335.895 79.173,338.505 79.173,340.100 79.097 C 341.695 79.021,340.390 78.959,337.200 78.959 C 334.010 78.959,332.705 79.021,334.300 79.097 M67.361 86.000 C 67.361 89.410,67.422 90.805,67.497 89.100 C 67.572 87.395,67.572 84.605,67.497 82.900 C 67.422 81.195,67.361 82.590,67.361 86.000 M82.918 105.098 C 84.633 105.173,87.333 105.172,88.918 105.097 C 90.503 105.021,89.100 104.959,85.800 104.960 C 82.500 104.961,81.203 105.022,82.918 105.098 M308.900 105.097 C 310.385 105.174,312.815 105.174,314.300 105.097 C 315.785 105.020,314.570 104.957,311.600 104.957 C 308.630 104.957,307.415 105.020,308.900 105.097 M42.894 179.500 L 43.000 190.600 49.600 190.800 L 56.200 191.000 56.400 196.868 C 56.640 203.915,56.102 203.307,62.085 203.287 C 64.788 203.278,67.315 203.357,67.700 203.462 C 68.354 203.641,68.400 204.884,68.400 222.347 C 68.400 236.353,68.520 241.160,68.880 241.520 C 69.210 241.850,71.208 242.000,75.277 242.000 L 81.194 242.000 81.297 267.100 L 81.400 292.200 87.372 292.311 C 94.847 292.450,94.353 291.990,94.489 298.940 L 94.600 304.600 100.500 304.711 L 106.400 304.821 106.400 324.003 L 106.400 343.185 107.300 343.395 C 107.795 343.511,110.720 343.649,113.800 343.703 L 119.400 343.800 119.512 349.384 C 119.646 356.067,119.151 355.586,125.900 355.594 L 131.200 355.600 131.200 361.120 C 131.200 368.061,130.696 367.600,138.280 367.600 L 144.400 367.600 144.400 373.520 C 144.400 380.600,144.277 380.400,148.631 380.400 C 152.601 380.400,152.725 380.283,152.881 376.382 L 153.000 373.400 164.800 373.200 L 176.600 373.000 176.721 370.900 L 176.842 368.800 182.521 368.795 C 190.284 368.787,189.941 368.938,190.083 365.458 L 190.200 362.600 192.586 362.477 C 193.899 362.410,195.204 362.163,195.486 361.928 C 196.152 361.375,196.250 297.214,195.586 295.974 C 195.205 295.262,194.695 295.200,189.172 295.200 L 183.173 295.200 183.286 290.900 L 183.400 286.600 199.000 286.600 L 214.600 286.600 214.714 290.900 L 214.827 295.200 208.656 295.200 C 203.398 295.200,202.450 295.294,202.243 295.833 C 201.741 297.142,201.971 361.411,202.480 361.920 C 202.744 362.184,204.004 362.400,205.280 362.400 L 207.600 362.400 207.600 365.186 C 207.600 368.783,207.635 368.800,214.974 368.800 L 220.800 368.800 220.800 370.520 C 220.800 373.261,220.524 373.200,232.847 373.200 C 246.444 373.200,245.200 372.757,245.200 377.600 C 245.200 382.161,245.045 382.000,249.459 382.000 C 254.197 382.000,254.000 382.330,254.000 374.396 L 254.000 367.621 260.100 367.510 L 266.200 367.400 266.400 361.800 L 266.600 356.200 272.400 355.800 L 278.200 355.400 278.311 349.500 L 278.421 343.600 284.762 343.600 C 289.574 343.600,291.209 343.471,291.547 343.064 C 291.856 342.691,292.024 336.807,292.096 323.764 L 292.200 305.000 298.300 304.890 L 304.400 304.779 304.400 299.070 C 304.400 291.911,303.881 292.400,311.480 292.400 L 317.600 292.400 317.600 267.000 L 317.600 241.600 322.967 241.600 C 325.919 241.600,328.619 241.491,328.967 241.357 C 329.531 241.141,329.600 239.147,329.600 222.981 C 329.600 209.108,329.715 204.776,330.090 204.545 C 330.359 204.378,333.194 204.202,336.390 204.154 C 339.585 204.105,342.425 204.051,342.700 204.033 C 343.077 204.008,343.200 202.478,343.200 197.810 L 343.200 191.621 349.300 191.510 L 355.400 191.400 355.506 179.900 C 355.565 173.575,355.475 168.400,355.306 168.400 C 355.138 168.400,355.000 173.395,355.000 179.500 L 355.000 190.600 349.000 190.800 L 343.000 191.000 342.890 197.300 L 342.780 203.600 336.490 203.606 C 333.030 203.609,329.965 203.762,329.677 203.944 C 329.257 204.210,329.160 207.858,329.188 222.291 C 329.218 238.498,329.157 240.331,328.578 240.553 C 328.224 240.689,325.527 240.800,322.585 240.800 L 317.236 240.800 317.002 242.100 C 316.874 242.815,316.820 254.331,316.884 267.691 L 317.000 291.981 310.600 292.091 L 304.200 292.200 304.090 298.290 L 303.979 304.380 297.690 304.490 L 291.400 304.600 291.296 323.700 L 291.192 342.800 284.845 342.800 C 277.115 342.800,277.654 342.313,277.512 349.427 L 277.400 355.000 272.800 355.285 C 270.270 355.442,267.750 355.622,267.200 355.685 L 266.200 355.800 266.000 361.400 L 265.800 367.000 259.817 367.111 C 252.612 367.245,253.214 366.554,253.206 374.700 L 253.200 381.200 249.400 381.200 L 245.600 381.200 245.594 377.500 C 245.585 372.380,246.730 372.829,233.380 372.706 L 221.800 372.600 221.679 370.732 C 221.510 368.107,221.325 368.036,214.372 367.911 L 208.200 367.800 208.082 364.900 L 207.965 362.000 205.815 362.000 C 204.633 362.000,203.381 361.891,203.033 361.757 C 202.158 361.421,202.054 296.785,202.927 296.060 C 203.240 295.801,205.804 295.578,209.227 295.511 L 215.000 295.400 215.000 290.800 L 215.000 286.200 199.000 286.200 L 183.000 286.200 183.000 290.800 L 183.000 295.400 188.773 295.511 C 191.948 295.573,194.738 295.782,194.973 295.977 C 195.272 296.226,195.340 306.111,195.200 329.066 L 195.000 361.800 192.610 361.923 C 189.774 362.068,189.614 362.258,189.606 365.490 L 189.600 367.980 183.100 368.090 L 176.600 368.200 176.400 370.400 L 176.200 372.600 164.300 372.706 L 152.400 372.812 152.400 375.992 C 152.400 379.755,152.159 380.000,148.459 380.000 C 144.593 380.000,144.800 380.376,144.800 373.367 L 144.800 367.220 138.500 367.110 L 132.200 367.000 132.089 361.540 C 131.950 354.708,132.279 355.044,125.539 354.860 L 120.400 354.720 120.400 349.534 C 120.400 342.356,120.862 342.800,113.386 342.800 L 107.200 342.800 107.194 324.100 C 107.190 313.053,107.033 305.154,106.810 304.800 C 106.513 304.329,105.203 304.157,100.716 304.000 L 95.000 303.800 94.800 298.000 L 94.600 292.200 88.300 292.090 L 82.000 291.980 82.000 267.070 C 82.000 248.229,81.883 242.043,81.520 241.680 C 81.189 241.349,79.148 241.200,74.924 241.200 L 68.808 241.200 68.704 222.100 L 68.600 203.000 62.910 202.889 L 57.221 202.778 57.110 196.689 L 57.000 190.600 51.000 190.503 C 47.700 190.450,44.589 190.310,44.087 190.192 L 43.175 189.978 43.287 179.189 C 43.349 173.255,43.262 168.400,43.094 168.400 C 42.925 168.400,42.835 173.395,42.894 179.500 M118.192 232.100 C 118.091 232.375,117.961 235.210,117.904 238.400 L 117.800 244.200 111.500 244.310 L 105.200 244.420 105.200 250.567 C 105.200 257.860,104.521 257.200,112.022 257.200 L 117.579 257.200 117.690 263.300 L 117.800 269.400 130.800 269.400 L 143.800 269.400 143.910 263.310 L 144.021 257.221 150.110 257.110 L 156.200 257.000 156.311 250.854 C 156.451 243.048,156.965 243.600,149.551 243.600 L 143.600 243.600 143.600 238.233 C 143.600 235.281,143.491 232.581,143.357 232.233 C 143.033 231.387,118.500 231.258,118.192 232.100 M253.467 231.867 C 253.320 232.013,253.200 234.709,253.200 237.857 L 253.200 243.580 246.900 243.690 L 240.600 243.800 240.600 250.400 L 240.600 257.000 246.600 257.200 L 252.600 257.400 252.710 263.500 L 252.821 269.600 265.768 269.600 C 277.204 269.600,278.743 269.526,278.957 268.967 C 279.091 268.619,279.200 265.829,279.200 262.767 L 279.200 257.200 284.724 257.200 C 292.076 257.200,291.651 257.626,291.512 250.397 L 291.400 244.600 285.203 244.400 L 279.006 244.200 278.751 243.000 C 278.610 242.340,278.473 239.505,278.447 236.700 L 278.400 231.600 266.067 231.600 C 259.283 231.600,253.613 231.720,253.467 231.867 M142.711 237.900 L 142.822 243.600 136.711 243.606 C 128.913 243.614,129.557 242.970,129.689 250.630 L 129.800 257.000 136.500 257.110 L 143.200 257.219 143.200 250.799 L 143.200 244.379 149.300 244.490 L 155.400 244.600 155.511 250.490 C 155.641 257.446,156.385 256.756,148.600 256.902 L 143.400 257.000 143.200 263.000 L 143.000 269.000 130.827 269.106 C 116.514 269.231,118.014 270.026,118.006 262.310 L 118.000 256.421 111.900 256.310 L 105.800 256.200 105.800 250.600 L 105.800 245.000 111.772 244.889 C 119.295 244.749,118.800 245.219,118.800 238.218 C 118.800 235.091,118.923 232.411,119.073 232.261 C 119.223 232.111,124.578 232.036,130.973 232.094 L 142.600 232.200 142.711 237.900 M277.489 232.323 C 277.830 232.539,278.011 234.445,278.089 238.617 L 278.200 244.600 284.400 244.800 L 290.600 245.000 290.600 250.600 L 290.600 256.200 284.600 256.400 L 278.600 256.600 278.503 262.000 C 278.449 264.970,278.310 267.808,278.193 268.306 L 277.982 269.212 265.691 269.106 L 253.400 269.000 253.290 262.900 L 253.179 256.800 247.439 256.800 C 240.305 256.800,240.745 257.248,240.888 250.145 L 241.000 244.600 247.290 244.490 L 253.580 244.380 253.690 250.690 L 253.800 257.000 260.170 257.111 C 267.814 257.243,267.186 257.845,267.194 250.380 C 267.202 243.094,267.729 243.600,260.120 243.600 L 254.000 243.600 254.000 237.800 L 254.000 232.000 265.500 232.006 C 271.825 232.009,277.220 232.152,277.489 232.323 M142.710 250.500 L 142.600 256.600 136.400 256.600 L 130.200 256.600 130.090 250.500 L 129.979 244.400 136.400 244.400 L 142.821 244.400 142.710 250.500 M266.712 250.145 C 266.855 257.264,267.326 256.800,259.951 256.800 L 254.000 256.800 254.000 250.590 L 254.000 244.380 260.300 244.490 L 266.600 244.600 266.712 250.145 M194.765 367.891 C 194.537 368.491,194.379 369.706,194.412 370.591 C 194.446 371.476,194.457 372.421,194.437 372.690 C 194.410 373.050,192.678 373.209,187.900 373.290 L 181.400 373.400 181.200 375.600 L 181.000 377.800 169.200 378.000 L 157.400 378.200 157.290 385.371 C 157.207 390.839,157.302 392.618,157.690 392.864 C 158.671 393.487,239.841 393.273,240.361 392.647 C 240.677 392.267,240.785 389.932,240.710 385.147 L 240.600 378.200 229.033 378.094 C 216.088 377.975,216.400 378.047,216.400 375.161 L 216.400 373.220 209.900 373.110 L 203.400 373.000 203.279 370.415 C 203.114 366.911,202.975 366.800,198.741 366.800 C 195.232 366.800,195.174 366.816,194.765 367.891 M202.482 370.500 L 202.600 373.400 209.200 373.600 L 215.800 373.800 216.000 376.000 L 216.200 378.200 227.780 378.306 C 236.433 378.386,239.440 378.537,239.674 378.906 C 240.041 379.484,240.115 391.236,239.757 392.167 C 239.538 392.739,235.553 392.800,198.757 392.800 L 158.000 392.800 158.000 385.606 L 158.000 378.412 169.900 378.306 L 181.800 378.200 181.920 375.910 L 182.039 373.620 188.520 373.510 L 195.000 373.400 195.105 371.400 C 195.310 367.467,195.174 367.600,198.990 367.600 L 202.365 367.600 202.482 370.500 " stroke="none" fill="#876746" fill-rule="evenodd"></path></g></svg>