<?xml version="1.0" encoding="UTF-8" standalone="no"?>
<svg
   xmlns:dc="http://purl.org/dc/elements/1.1/"
   xmlns:cc="http://creativecommons.org/ns#"
   xmlns:rdf="http://www.w3.org/1999/02/22-rdf-syntax-ns#"
   xmlns:svg="http://www.w3.org/2000/svg"
   xmlns="http://www.w3.org/2000/svg"
   xmlns:xlink="http://www.w3.org/1999/xlink"
   width="100"
   height="100"
   viewBox="0 0 100 100"
   version="1.1"
   id="svg8">
  <defs
     id="defs2">
    <linearGradient
       id="linearGradient12">
      <stop
         style="stop-color:#d53ae8;stop-opacity:1"
         offset="0"
         id="stop8" />
      <stop
         style="stop-color:#00febe;stop-opacity:1"
         offset="1"
         id="stop10" />
    </linearGradient>
    <linearGradient
       xlink:href="#linearGradient12"
       id="linearGradient14"
       x1="593.3689"
       y1="104.75898"
       x2="485.05164"
       y2="213.07623"
       gradientUnits="userSpaceOnUse"
       gradientTransform="matrix(0.73818662,0,0,0.73818883,-313.03791,-37.237226)" />
  </defs>
  <metadata
     id="metadata5">
    <rdf:RDF>
      <cc:Work
         rdf:about="">
        <dc:format>image/svg+xml</dc:format>
        <dc:type
           rdf:resource="http://purl.org/dc/dcmitype/StillImage" />
        <dc:title></dc:title>
      </cc:Work>
    </rdf:RDF>
  </metadata>
  <g
     id="layer1"
     transform="translate(-37.419631,-26.836309)">
    <path
       style="fill:url(#linearGradient14);fill-opacity:1;stroke-width:0.195551"
       d="m 84.988113,126.57882 c -0.84249,-0.36774 -1.809859,-1.55229 -1.971131,-2.41356 -0.096,-0.51281 0.08731,-1.98966 0.60147,-4.84864 0.406752,-2.26118 0.78066,-4.21879 0.830932,-4.35016 0.0714,-0.18671 -3.949898,-0.25096 -18.438463,-0.29367 l -18.529848,-0.0548 -1.562947,-0.53325 c -2.204778,-0.75227 -3.836916,-1.78851 -5.379484,-3.41548 -1.988861,-2.09767 -3.119011,-4.73729 -3.119011,-7.28485 0,-2.7995 2.929619,-4.729205 5.377379,-3.542056 1.028367,0.498776 1.974488,1.664466 2.161495,2.663206 l 0.123968,0.66198 h 2.41715 2.417149 l 0.05219,-28.430403 0.0522,-28.43043 0.451759,-1.120532 c 0.971039,-2.40839 2.877835,-4.303419 5.316075,-5.283163 0.95433,-0.383482 1.50848,-0.438047 5.123924,-0.504529 l 4.053899,-0.07453 v -4.686807 c 0,-3.787487 0.0582,-4.825927 0.302362,-5.411852 1.306887,-3.13375 5.512304,-3.13375 6.819222,0 0.166299,0.398774 0.302362,1.052644 0.302362,1.453039 v 0.727998 l 1.921283,-1.891144 c 2.661035,-2.619314 3.988974,-3.149529 5.795765,-2.31408 1.847998,0.854499 2.694986,2.873953 1.952306,4.654776 -0.171213,0.410373 -1.662337,2.108421 -3.561167,4.055206 l -3.266748,3.349213 21.486184,0.09785 21.486222,0.09785 1.07006,0.438497 c 2.45823,1.007335 4.35199,2.893327 5.31349,5.291675 0.43364,1.081622 0.4514,1.356752 0.51213,7.922302 0.034,3.74098 0.0797,6.80177 0.10054,6.80177 0.0189,0 1.88356,0.528488 4.13981,1.174409 2.25629,0.645929 4.40136,1.089332 4.74378,1.174409 1.93995,0.481942 3.65895,1.984683 3.28323,3.991132 -0.19994,1.068797 -1.08317,1.979818 -6.7571,6.97118 l -5.3726,4.726329 -0.0975,14.909821 c -0.0975,14.883934 -0.0983,14.911624 -0.53537,15.981834 -1.00482,2.46127 -2.88317,4.35531 -5.28176,5.32601 -1.11107,0.44965 -1.18484,0.45301 -11.13108,0.50988 -7.65842,0.0438 -10.013131,0.11301 -10.01487,0.29367 -9.83e-4,0.13002 0.320126,2.08797 0.713869,4.35111 0.844459,4.852 0.819329,5.26616 -0.39284,6.4806 -0.893631,0.8953 -1.785209,1.18594 -2.960418,0.96507 -0.849558,-0.15949 -2.013149,-1.15503 -2.380787,-2.03649 -0.151559,-0.36321 -0.627809,-2.65326 -1.058599,-5.08906 -0.430753,-2.43579 -0.80115,-4.44668 -0.823101,-4.46868 -0.02268,-0.0227 -0.374173,1.8263 -0.783039,4.10732 -0.408721,2.28102 -0.870348,4.55029 -1.025838,5.04287 -0.625852,1.9829 -2.705149,3.03092 -4.477969,2.25699 z M 109.33837,66.778485 c 2.39069,-0.909819 4.51848,-3.030107 5.4733,-5.45393 0.63314,-1.60724 0.63314,-4.744229 0,-6.351481 -0.95055,-2.413009 -3.05011,-4.511569 -5.4733,-5.470647 -1.57262,-0.62242 -4.72576,-0.62242 -6.29833,0 -3.368569,1.333259 -5.708688,4.450288 -5.976958,7.961318 -0.331465,4.3394 2.541458,8.38882 6.802138,9.587361 1.44189,0.4056 4.02975,0.2767 5.47315,-0.272621 z m -4.42271,-5.574958 c -0.82481,-0.360075 -1.80876,-1.54625 -1.96213,-2.365462 -0.22035,-1.17741 0.0695,-2.070649 0.96325,-2.965951 1.40706,-1.409718 3.13778,-1.409718 4.54485,0 1.31146,1.31393 1.39411,3.016282 0.21203,4.36526 -1.02651,1.171321 -2.44973,1.537232 -3.75788,0.966153 z"
       id="path36" />
  </g>
</svg>
