<svg width="100" height="100" viewBox="0 0 100 100" fill="none" xmlns="http://www.w3.org/2000/svg">
<g clip-path="url(#clip0)">
<path d="M81.4736 59.0069C80.9527 58.7662 80.3889 58.6295 79.8144 58.6045C79.2398 58.5795 78.666 58.6668 78.1257 58.8614C77.5854 59.0559 77.0894 59.3539 76.666 59.7382C76.2426 60.1225 75.9002 60.5856 75.6584 61.1009C73.1257 66.4824 68.8283 70.8624 63.4616 73.5321C58.095 76.2019 51.9731 77.0052 46.0867 75.8121C40.2002 74.619 34.8937 71.4992 31.0258 66.9577C27.158 62.4161 24.955 56.7186 24.7736 50.787C24.5921 44.8554 26.4427 39.0369 30.0259 34.2731C33.6091 29.5092 38.7153 26.0788 44.518 24.5369C50.3208 22.995 56.4806 23.4319 62.0007 25.7769C67.5207 28.1218 72.0781 32.2376 74.9351 37.4583C75.2068 37.9608 75.5764 38.4052 76.0226 38.7661C76.4689 39.127 76.983 39.3972 77.5354 39.5611C78.0878 39.725 78.6676 39.7794 79.2414 39.7212C79.8152 39.663 80.3716 39.4933 80.8787 39.2219C81.3859 38.9505 81.8336 38.5828 82.1963 38.1398C82.5589 37.6969 82.8293 37.1875 82.9918 36.6409C83.1544 36.0944 83.2059 35.5215 83.1434 34.9553C83.0808 34.389 82.9056 33.8406 82.6276 33.3415C79.5864 27.7924 75.0828 23.1583 69.5933 19.9296C64.1039 16.7009 57.8328 14.9976 51.4435 15C31.8981 15 16 30.7 16 50.002C16 69.304 31.8981 85.0041 51.4435 85.0041C58.1953 84.9877 64.8031 83.0748 70.4953 79.4888C76.1875 75.9027 80.7291 70.7914 83.5899 64.7517C84.0791 63.7125 84.131 62.5242 83.7343 61.4473C83.3376 60.3704 82.5246 59.4928 81.4736 59.0069Z" fill="#3AB03E"/>
<path d="M49.5517 38.4493C48.2047 38.6986 46.9727 39.3639 46.0331 40.3491C45.0935 41.3344 44.495 42.5888 44.3238 43.9316C44.1923 44.98 44.3311 46.0442 44.7274 47.0254C45.1237 48.0066 45.7645 48.873 46.5906 49.5442V61.6687H55.1526V49.532C56.4124 48.5068 57.2242 47.0421 57.4194 45.4416C57.9222 41.048 54.0399 37.6394 49.5517 38.4493Z" fill="#3AB03E"/>
</g>
<defs>
<clipPath id="clip0">
<rect width="68" height="70" fill="white" transform="translate(16 15)"/>
</clipPath>
</defs>
</svg>
