<svg width="100" height="100" viewBox="0 0 100 100" fill="none" xmlns="http://www.w3.org/2000/svg">
<path d="M34.8704 61.3355C35.9429 58.5483 37.8735 56.2974 40.5548 54.9039L45.0592 57.4765C46.8826 58.5483 46.4535 61.3355 44.8448 62.1928L35.7285 67.4455C35.1922 67.767 34.5487 67.5526 34.3342 67.0165C34.2269 66.9094 34.2269 66.8022 34.2269 66.5878C34.0124 64.8728 34.2269 63.0505 34.8704 61.3355Z" fill="#FA4B29"/>
<path d="M49.1344 49.33C49.1344 47.7222 48.3838 46.3285 47.0968 45.4711L22 31C22.3217 39.2539 26.719 46.7574 33.7976 51.045L44.9516 57.4767C46.7748 58.5485 46.3459 61.3357 44.7372 62.193L47.5257 60.5852C48.3838 60.0493 48.9201 59.0846 48.9201 58.1198V54.7967C49.0272 54.7967 49.1344 49.33 49.1344 49.33Z" fill="#FA9F29"/>
<path opacity="0.2" d="M44.9518 57.4765L40.4473 54.9039C40.4473 54.9039 43.2357 57.262 44.4155 58.5483C45.4881 59.7274 44.7373 62.1928 44.7373 62.1928C46.4534 61.3355 46.7751 58.4411 44.9518 57.4765Z" fill="black"/>
<path d="M64.7935 39.3611C63.7209 42.1481 61.7904 44.3992 59.1091 45.7926L54.6046 43.22C52.7813 42.1481 53.2102 39.3611 54.8191 38.5035L64.0426 33.251C64.5789 32.9295 65.2224 33.1438 65.437 33.6798C65.5441 33.787 65.5441 33.8942 65.5441 34.1086C65.7587 35.9309 65.4369 37.6459 64.7935 39.3611Z" fill="#FA4B29"/>
<path d="M50.6362 51.4739C50.6362 53.0817 51.3871 54.4752 52.6741 55.3328L77.7708 69.6967C77.5562 61.4428 73.0517 53.9393 65.9732 49.6515L54.8191 43.22C52.9958 42.148 53.4247 39.3611 55.0336 38.5035L52.2451 40.1113C51.3871 40.6474 50.8508 41.6122 50.8508 42.5767V45.8998C50.7436 45.8998 50.6362 51.4739 50.6362 51.4739Z" fill="#FA9F29"/>
<path opacity="0.2" d="M54.7116 43.22L59.2162 45.7926C59.2162 45.7926 56.4277 43.3272 55.2479 42.148C54.1753 40.9689 54.9262 38.5035 54.9262 38.5035C53.3173 39.3611 52.9955 42.2552 54.7116 43.22Z" fill="black"/>
</svg>
