<?xml version="1.0" standalone="no"?>
<!DOCTYPE svg PUBLIC "-//W3C//DTD SVG 20010904//EN"
 "http://www.w3.org/TR/2001/REC-SVG-20010904/DTD/svg10.dtd">
<svg version="1.0" xmlns="http://www.w3.org/2000/svg"
 width="300.000000pt" height="300.000000pt" viewBox="0 0 300.000000 300.000000"
 preserveAspectRatio="xMidYMid meet">
<metadata>
Created by potrace 1.10, written by Peter Selinger 2001-2011
</metadata>
<g transform="translate(0.000000,300.000000) scale(0.100000,-0.100000)"
fill="#000000" stroke="none">
<path d="M1378 2725 c-1 -2 -47 -11 -101 -20 -167 -28 -338 -99 -495 -203 -31
-20 -103 -82 -160 -137 -172 -165 -290 -368 -350 -598 -24 -93 -26 -119 -27
-297 0 -130 4 -213 13 -250 68 -279 165 -463 340 -644 64 -66 185 -166 201
-166 6 0 11 -4 11 -9 0 -19 308 -160 334 -153 4 2 13 -2 20 -7 6 -5 28 -12 50
-15 21 -4 41 -8 45 -10 15 -9 151 -21 241 -21 105 0 219 11 256 25 13 5 24 7
24 5 0 -2 12 0 28 6 15 6 51 17 81 25 64 17 231 93 231 105 0 5 6 9 13 9 27 0
163 106 256 199 124 124 214 257 272 403 30 76 40 103 40 105 0 2 5 17 11 35
43 138 59 344 38 504 -22 181 -91 372 -186 520 -68 107 -74 114 -184 224 -180
181 -407 301 -655 346 -78 14 -337 29 -347 19z m307 -40 c272 -44 492 -156
687 -347 207 -204 328 -462 359 -768 27 -258 -38 -535 -178 -757 -189 -302
-471 -497 -823 -570 -115 -23 -344 -24 -461 0 -590 118 -1009 626 -1009 1222
0 387 183 750 495 985 51 38 96 70 99 70 3 0 27 13 53 28 211 124 523 179 778
137z"/>
<path d="M1445 2573 c-200 -10 -405 -78 -578 -194 -81 -55 -241 -217 -295
-299 -125 -191 -185 -388 -185 -610 1 -194 36 -348 118 -510 143 -284 404
-496 712 -577 139 -36 358 -43 493 -15 462 96 806 448 886 907 22 124 14 337
-16 455 -82 314 -300 584 -588 729 -157 79 -365 122 -547 114z m316 -60 c57
-14 121 -34 141 -44 21 -11 41 -19 46 -19 15 0 162 -86 202 -117 40 -31 195
-185 225 -223 11 -14 36 -52 55 -85 105 -177 150 -338 154 -545 5 -216 -47
-412 -151 -577 -18 -29 -33 -54 -33 -57 0 -11 -45 -62 -135 -152 -168 -170
-359 -267 -610 -311 -44 -8 -274 -8 -315 0 -19 4 -48 9 -65 12 -119 21 -306
105 -420 188 -179 130 -344 356 -390 537 -1 3 -5 12 -8 20 -41 95 -59 374 -33
509 35 180 94 318 196 456 44 59 161 180 203 210 16 11 38 28 50 39 45 37 254
131 352 157 88 23 120 27 266 27 145 1 178 -2 270 -25z"/>
<path d="M1444 2171 c-54 -40 -125 -133 -169 -220 -20 -39 -38 -71 -41 -71 -2
0 -27 12 -55 26 -65 32 -177 61 -274 70 -107 10 -115 1 -115 -120 1 -50 8
-127 16 -171 9 -44 18 -92 21 -107 5 -25 2 -28 -23 -28 -43 -1 -153 -41 -218
-80 -71 -43 -146 -112 -146 -135 0 -43 80 -155 174 -243 144 -134 330 -187
523 -148 l80 16 44 -25 c24 -14 82 -50 129 -80 47 -30 95 -54 107 -55 12 0 81
36 153 80 l131 81 74 -16 c148 -30 302 -6 429 69 102 59 276 260 276 317 0 25
-75 95 -152 142 -64 38 -171 77 -214 77 -29 0 -30 17 -9 105 8 33 18 108 21
167 6 93 5 111 -11 134 -17 26 -19 27 -94 21 -94 -8 -212 -37 -286 -72 -31
-15 -57 -25 -59 -24 -1 2 -9 19 -16 38 -40 100 -194 281 -239 281 -9 0 -35
-13 -57 -29z m101 -31 c54 -43 121 -132 161 -215 18 -40 34 -77 34 -83 0 -5
30 5 68 24 79 40 186 69 296 79 l79 8 -6 -124 c-5 -108 -27 -227 -52 -291 -6
-16 -1 -18 37 -18 92 0 212 -50 316 -132 l62 -50 -22 -40 c-35 -61 -122 -163
-180 -209 -109 -86 -211 -120 -358 -120 -52 0 -119 7 -147 14 l-53 14 -136
-83 c-75 -46 -140 -84 -145 -84 -5 0 -70 38 -145 83 l-135 84 -52 -14 c-80
-21 -239 -18 -317 6 -133 41 -249 133 -343 270 l-50 75 49 43 c91 79 239 143
332 143 38 0 43 2 37 18 -27 61 -47 171 -52 285 l-6 127 26 0 c107 0 306 -51
372 -95 20 -15 38 -25 39 -23 2 2 10 23 19 48 29 77 89 172 150 232 31 32 63
58 71 58 7 0 30 -13 51 -30z"/>
<path d="M1445 2053 c-31 -32 -64 -83 -97 -151 -49 -100 -50 -103 -32 -123 18
-20 18 -20 34 -1 8 10 43 42 78 72 74 63 74 63 173 -28 60 -55 67 -59 82 -45
13 14 14 20 1 56 -24 68 -85 169 -132 219 -25 27 -48 48 -52 48 -5 0 -29 -21
-55 -47z m102 -38 c40 -48 102 -160 103 -184 0 -10 -12 -4 -32 16 -65 60 -107
85 -131 79 -13 -3 -51 -31 -85 -62 -34 -30 -62 -50 -62 -44 0 41 133 240 160
240 5 0 26 -20 47 -45z"/>
<path d="M881 1793 c4 -54 14 -127 24 -162 32 -125 105 -248 184 -310 l41 -33
-6 45 c-11 79 44 224 128 336 l40 53 -23 24 c-66 64 -209 122 -344 140 l-50 6
6 -99z m145 37 c83 -21 163 -57 202 -90 l24 -20 -47 -70 c-52 -78 -90 -164
-106 -242 l-12 -53 -34 40 c-77 89 -143 271 -143 398 0 67 -2 67 116 37z"/>
<path d="M2010 1875 c-118 -24 -234 -78 -284 -134 -17 -19 -16 -22 27 -83 90
-126 141 -273 119 -338 -6 -16 -7 -30 -3 -30 5 0 36 28 70 63 106 106 166 254
180 443 l6 94 -25 -1 c-14 0 -54 -7 -90 -14z m77 -102 c-12 -148 -62 -281
-137 -369 l-39 -45 -7 28 c-22 100 -64 197 -120 276 -19 26 -34 51 -34 56 0
12 85 66 137 86 54 21 139 42 177 44 l29 1 -6 -77z"/>
<path d="M1437 1783 c-184 -167 -295 -390 -243 -490 46 -91 249 -144 412 -110
134 29 198 75 211 151 7 46 -27 154 -74 236 -38 65 -219 260 -241 260 -7 0
-36 -21 -65 -47z m152 -70 c133 -134 190 -239 191 -349 0 -34 -5 -67 -12 -76
-16 -19 -78 -62 -78 -53 0 3 -8 2 -17 -4 -16 -9 -19 -2 -28 62 l-10 72 30 31
c34 34 65 75 65 85 0 13 -26 27 -65 33 -91 15 -92 15 -105 55 -17 52 -51 94
-70 86 -8 -3 -28 -30 -45 -61 -31 -58 -48 -73 -81 -73 -55 0 -104 -20 -104
-42 0 -4 23 -32 50 -61 49 -51 50 -55 44 -98 -9 -72 -15 -90 -30 -90 -22 0
-92 47 -104 69 -27 51 2 167 68 271 40 62 191 220 211 220 7 0 48 -35 90 -77z
m-55 -142 l35 -69 71 -7 c38 -4 70 -10 70 -13 0 -4 -23 -30 -51 -58 l-51 -52
11 -67 c7 -37 10 -69 7 -72 -2 -3 -32 10 -66 28 l-62 33 -65 -33 c-35 -19 -65
-32 -67 -30 -2 2 2 36 10 74 l13 70 -55 54 c-30 29 -54 55 -52 56 2 1 35 6 73
11 l70 9 35 67 c19 38 36 68 37 68 2 0 18 -31 37 -69z m-29 -311 c-3 -6 1 -7
9 -4 9 3 16 2 16 -4 0 -5 14 -16 32 -25 l31 -15 -54 -7 c-30 -3 -71 -2 -93 2
l-38 8 28 15 c16 8 35 21 42 28 16 14 36 16 27 2z"/>
<path d="M1435 1431 c-12 -5 8 -8 52 -7 40 1 76 5 79 9 10 10 -106 7 -131 -2z"/>
<path d="M800 1460 c-66 -12 -126 -38 -203 -87 l-67 -45 17 -31 c35 -61 165
-183 232 -217 160 -80 315 -77 529 12 l72 30 -108 37 c-160 55 -261 133 -346
269 -28 46 -36 47 -126 32z m165 -134 c56 -70 166 -151 250 -183 l69 -26 -39
-17 c-70 -30 -148 -43 -240 -43 -147 2 -254 51 -360 164 -77 84 -81 93 -47
117 57 40 139 75 207 87 l70 13 25 -30 c14 -17 43 -54 65 -82z"/>
<path d="M2050 1395 c-85 -122 -184 -192 -348 -245 l-83 -27 58 -26 c309 -137
565 -81 744 162 l47 65 -41 31 c-63 48 -142 85 -216 101 -105 22 -104 23 -161
-61z m186 21 c49 -13 127 -51 167 -81 28 -20 14 -48 -62 -124 -109 -111 -216
-156 -366 -154 -80 1 -188 23 -235 48 -24 13 -24 14 -5 20 11 4 57 24 101 46
97 48 174 115 229 198 38 57 42 60 80 61 22 0 63 -6 91 -14z"/>
<path d="M1408 1078 c-34 -21 -75 -40 -90 -43 -15 -4 -28 -10 -27 -13 0 -4 47
-35 105 -69 l104 -62 95 59 c52 33 99 60 105 60 21 0 9 18 -17 25 -16 3 -57
23 -93 42 -35 20 -77 37 -92 37 -16 1 -55 -15 -90 -36z m173 -32 l61 -34 -69
-41 c-38 -23 -72 -41 -76 -41 -9 0 -138 82 -134 86 15 15 117 63 134 63 13 1
50 -14 84 -33z"/>
</g>
</svg>
