<svg width="100" height="100" viewBox="0 0 100 100" fill="none" xmlns="http://www.w3.org/2000/svg">
<path d="M67.4 78H29C27.9 78 27 77.1 27 76C27 74.9 27.9 74 29 74H66.6L84.6 56.6C85 56.2 85.2 55.7 85.2 55.1C85.2 54.5 84.9 53.9 84.5 53.5C84 53.1 83.5 52.9 82.9 53H82.7C82.4 53 82.2 53.1 81.9 53.3L65 63.7C64.7 63.9 64.3 64 64 64H41C39.9 64 39 63.1 39 62C39 60.9 39.9 60 41 60H63.4L79.8 49.9C80.6 49.5 81.3 49.2 82.1 49.1H82.3C84 48.9 85.8 49.4 87.1 50.6C88.4 51.8 89.2 53.4 89.2 55.2C89.2 56.8 88.5 58.4 87.3 59.6L68.8 77.4C68.4 77.8 67.9 78 67.4 78Z" fill="black"/>
<path d="M63.9 63C63.5 63 63.1 62.9 62.7 62.6C61.8 61.9 61.6 60.7 62.3 59.8C63 58.9 63.1 57.7 62.6 56.6C62.1 55.6 61.1 54.9 59.9 54.9L29 55C27.9 55 27 54.1 27 53C27 51.9 27.9 51 29 51H59.9C62.6 51 65 52.5 66.2 54.9C67.4 57.3 67.1 60.1 65.5 62.2C65.1 62.7 64.5 63 63.9 63Z" fill="black"/>
<path d="M29 80H13C11.9 80 11 79.1 11 78V50C11 48.9 11.9 48 13 48H29C30.1 48 31 48.9 31 50V78C31 79.1 30.1 80 29 80ZM15 76H27V52H15V76Z" fill="black"/>
<path d="M46 47H38C36.9 47 36 46.1 36 45C36 43.9 36.9 43 38 43H46C47.1 43 48 43.9 48 45C48 46.1 47.1 47 46 47Z" fill="black"/>
<path d="M46 39H38C36.9 39 36 38.1 36 37C36 35.9 36.9 35 38 35H46C47.1 35 48 35.9 48 37C48 38.1 47.1 39 46 39Z" fill="black"/>
<path d="M62 47H54C52.9 47 52 46.1 52 45C52 43.9 52.9 43 54 43H62C63.1 43 64 43.9 64 45C64 46.1 63.1 47 62 47Z" fill="black"/>
<path d="M62 39H54C52.9 39 52 38.1 52 37C52 35.9 52.9 35 54 35H62C63.1 35 64 35.9 64 37C64 38.1 63.1 39 62 39Z" fill="black"/>
<path d="M62 31H54C52.9 31 52 30.1 52 29C52 27.9 52.9 27 54 27H62C63.1 27 64 27.9 64 29C64 30.1 63.1 31 62 31Z" fill="black"/>
<path d="M62 23H54C52.9 23 52 22.1 52 21C52 19.9 52.9 19 54 19H62C63.1 19 64 19.9 64 21C64 22.1 63.1 23 62 23Z" fill="black"/>
<path d="M78 47H70C68.9 47 68 46.1 68 45C68 43.9 68.9 43 70 43H78C79.1 43 80 43.9 80 45C80 46.1 79.1 47 78 47Z" fill="black"/>
<path d="M78 39H70C68.9 39 68 38.1 68 37C68 35.9 68.9 35 70 35H78C79.1 35 80 35.9 80 37C80 38.1 79.1 39 78 39Z" fill="black"/>
<path d="M78 31H70C68.9 31 68 30.1 68 29C68 27.9 68.9 27 70 27H78C79.1 27 80 27.9 80 29C80 30.1 79.1 31 78 31Z" fill="black"/>
<path d="M21 68C19.9 68 19 68.9 19 70C19 71.1 19.9 72 21 72C22.1 72 23 71.1 23 70C23 68.9 22.1 68 21 68Z" fill="black"/>
</svg>
