<svg id="Capa_1" data-name="Capa 1" xmlns="http://www.w3.org/2000/svg" viewBox="0 0 100 100"><defs><style>.cls-1{fill:#e8520e;}.cls-2,.cls-3,.cls-4{fill:#f7a900;}.cls-3{font-size:31.42px;font-family:KCRagsakRegular, KC Ragsak;}.cls-4{font-size:6.51px;font-family:MADESunflower, MADE Sunflower;}.cls-5{letter-spacing:-0.01em;}.cls-6{letter-spacing:-0.01em;}.cls-7{letter-spacing:-0.02em;}.cls-8{letter-spacing:-0.01em;}.cls-9{letter-spacing:0em;}.cls-10{letter-spacing:-0.05em;}</style></defs><path class="cls-1" d="M16.69,35.71c1,1.18,3.12,4.47-.29,9.06-2,2.64-9.35,2.56-12,2.43a.83.83,0,0,1-.76-1C5.57,37.92,3.38,35,3.38,31c0-8.15,4.17-9,6.5-8.69s3.95,1.7,7.07.23a.54.54,0,0,1,.72.71l-3.28,7.38a.78.78,0,0,1-1.07.37l-.51-.27a.79.79,0,0,1-.4-.86c.22-1.07.36-3.28-2.21-3.28-3.4,0-4.21,5.86-2.28,8.51A14.66,14.66,0,0,1,11,42a.81.81,0,0,0,1.08.68c1.56-.55,4.22-2.07,2.89-5.89a.79.79,0,0,1,.32-.91l.44-.28A.78.78,0,0,1,16.69,35.71Z"/><path class="cls-1" d="M33,26.44a9.19,9.19,0,0,1,.31,4.17c-.3,2.26-1.6,3.19-3.09,4a.33.33,0,0,0,.15.62c2,.14,3,1.25,2.6,4.13A19.16,19.16,0,0,0,33,46.15a.81.81,0,0,1-.8,1H28.31a.81.81,0,0,1-.77-1.08c.42-1.24,1.47-5.69.69-7.24s-2-1.58-2.63-1.08A2,2,0,0,0,25,40a21.49,21.49,0,0,1,1,6.35.82.82,0,0,1-.82.78H19.64a.81.81,0,0,1-.79-1c1.93-8.23-.26-11.19-.26-15.13,0-8.15,4.18-9,6.51-8.69s4,2,7.37.22a.54.54,0,0,1,.79.58A7.89,7.89,0,0,0,33,26.44ZM28,28.5a2.5,2.5,0,0,0-2-1.8c-.19,0-.38,0-.54-.05a2.75,2.75,0,0,0-1.24.17C22,27.71,22,31.15,23,35.24c.08.32.16.62.23.88a.49.49,0,0,0,.9.09,16.36,16.36,0,0,1,3.06-4.07A3.86,3.86,0,0,0,28,28.5Z"/><path class="cls-1" d="M47.72,30.11c0,3.17,1.68,5.42,1.68,9.2,0,7.77-4.18,8.29-6.51,8s-4.13-1.39-7.09-.23a.81.81,0,0,1-1.06-1l3.09-8.64A.81.81,0,0,1,39,36.94l.37.19a.83.83,0,0,1,.41.92c-.25,1.13-.41,3.52,2.44,4.12a4.55,4.55,0,0,0,.88,0,1.67,1.67,0,0,0,1.59-1.33v0c.32-1.77-.45-4.62-4.57-5.43-3.37-.66-5.42-1.31-5.42-6.25a19.6,19.6,0,0,1,1.15-6.1.82.82,0,0,1,.77-.55h2.63a.82.82,0,0,1,.81.9c-.6,6.2.38,8.45,1.15,9.26a1,1,0,0,0,1.39,0c.81-.86,2-3.19,1.31-9.23a.81.81,0,0,1,.81-.91H48.1a.81.81,0,0,1,.76,1.12A17.41,17.41,0,0,0,47.72,30.11Z"/><path class="cls-1" d="M64.9,30.61c-.39,6.39-5.3,5.45-7.41,8.29a1.21,1.21,0,0,0,.16,1.61,16,16,0,0,1,2.63,2.64,6.82,6.82,0,0,1,1.21,3.09.81.81,0,0,1-.81.9H51.24a.82.82,0,0,1-.79-1C52.38,37.9,50.2,34.94,50.2,31c0-8.15,4.17-9,6.5-8.69a13.82,13.82,0,0,1,3,1,4.11,4.11,0,0,0,2.1.27A11.38,11.38,0,0,0,64,22.53a.54.54,0,0,1,.77.61,7.26,7.26,0,0,0-.21,1.34C64.56,26.48,65.08,27.72,64.9,30.61Zm-6.62-3.75a4,4,0,0,0-1.87-.22c-2.81.45-2.9,4.13-1.83,8.6.09.36.19.69.29,1a.49.49,0,0,0,.9,0c1.49-3.24,3.36-4,4-5.55C60,29.85,60.1,27.71,58.28,26.86Z"/><path class="cls-1" d="M79.67,23.35a10.51,10.51,0,0,0-.48,3.27,32.29,32.29,0,0,0,.3,3.62.79.79,0,0,1-.79.89h-.49a.8.8,0,0,1-.79-.74c0-.11,0-.22,0-.3a3.66,3.66,0,0,0-1.16-2.78,1.53,1.53,0,0,0-2.43.9c-.34,1.44-.17,3.84,1.4,7.38,2.81,6.3,2.82,9.5,2.91,10.67a.83.83,0,0,1-.82.88H69a.83.83,0,0,1-.79-1.07c.62-2,1.21-4.5,1.86-10.81a30.81,30.81,0,0,1,1.35-6.78,1.12,1.12,0,0,0-1.75-1.22A4.91,4.91,0,0,0,68,30a4,4,0,0,0-.08.48.78.78,0,0,1-.78.69h-.59a.79.79,0,0,1-.79-.89,30.09,30.09,0,0,0,.3-3.62,10.88,10.88,0,0,0-.47-3.27.78.78,0,0,1,.74-1H78.92A.79.79,0,0,1,79.67,23.35Z"/><path class="cls-1" d="M95,38.47c0,8.09-3.69,8.62-7.15,8.62l-6.51,0a.81.81,0,0,1-.8-1c1.93-8.16-.25-11.09-.25-15,0-8.09,4.67-8.62,8-8.62l5.62,0a.81.81,0,0,1,.8,1C92.79,31.63,95,34.57,95,38.47Zm-5.32-3.61c0-4.47-.91-8.1-2-8.1s-2,3.63-2,8.1.91,8.11,2,8.11S89.65,39.34,89.65,34.86Z"/><g id="PAPAYA"><path class="cls-2" d="M16.55,56.69c-.35,5.72-4.74,4.89-6.64,7.43a1.09,1.09,0,0,0,.14,1.44,14.24,14.24,0,0,1,2.36,2.36A6.14,6.14,0,0,1,13.5,70.7a.73.73,0,0,1-.73.8H4.32a.74.74,0,0,1-.72-.91c1.73-7.37-.22-10-.22-13.55,0-7.3,3.74-8,5.82-7.78a12.22,12.22,0,0,1,2.68.9,3.63,3.63,0,0,0,1.88.24,9.65,9.65,0,0,0,2-.95.49.49,0,0,1,.69.55,7.13,7.13,0,0,0-.19,1.2C16.24,53,16.72,54.11,16.55,56.69Zm-5.93-3.36a3.64,3.64,0,0,0-1.68-.2c-2.51.41-2.59,3.7-1.63,7.71.08.32.16.62.26.9a.43.43,0,0,0,.8,0c4.78-2.51,8-5.83,5-7.64C13.57,53.34,12.25,54.09,10.62,53.33Z"/><path class="cls-2" d="M25.44,54.23c0,3.5,2.87,10.24,3.09,16.53a.73.73,0,0,1-.74.74H24a.55.55,0,0,1-.51-.76,4.34,4.34,0,0,0-.17-3.86,1.61,1.61,0,0,0-2.74,0,4.34,4.34,0,0,0-.17,3.86.55.55,0,0,1-.52.76H16.1a.72.72,0,0,1-.73-.74c.17-6.08,2.43-10.1,2.43-13.6,0-7.25,3-7.72,3-7.72h4.53a.7.7,0,0,1,.66.94A11,11,0,0,0,25.44,54.23Zm-2,6.15a22.28,22.28,0,0,0-1-5.88.52.52,0,0,0-1,0,22.7,22.7,0,0,0-1,5.88,1.31,1.31,0,0,0,1.32,1.39h.36A1.3,1.3,0,0,0,23.44,60.38Z"/><path class="cls-2" d="M42.27,56.69c-.35,5.72-4.75,4.89-6.65,7.43a1.09,1.09,0,0,0,.14,1.44,14.24,14.24,0,0,1,2.36,2.36,6.14,6.14,0,0,1,1.09,2.78.73.73,0,0,1-.73.8H30a.74.74,0,0,1-.72-.91c1.73-7.37-.22-10-.22-13.55,0-7.3,3.74-8,5.83-7.78a12.32,12.32,0,0,1,2.67.9,3.63,3.63,0,0,0,1.88.24,9.65,9.65,0,0,0,2-.95.49.49,0,0,1,.69.55A7.13,7.13,0,0,0,42,51.2C42,53,42.43,54.11,42.27,56.69Zm-5.94-3.36a3.63,3.63,0,0,0-1.68-.2c-2.51.41-2.59,3.7-1.63,7.71.08.32.16.62.26.9a.43.43,0,0,0,.8,0c1.34-2.89,3-3.55,3.55-5C37.82,56,38,54.09,36.33,53.33Z"/><path class="cls-2" d="M51.15,54.23c0,3.5,2.87,10.24,3.09,16.53a.73.73,0,0,1-.74.74H49.72a.55.55,0,0,1-.52-.76A4.34,4.34,0,0,0,49,66.88a1.61,1.61,0,0,0-2.74,0,4.34,4.34,0,0,0-.17,3.86.55.55,0,0,1-.52.76H41.81a.72.72,0,0,1-.73-.74c.18-6.08,2.43-10.1,2.43-13.6,0-7.25,3-7.72,3-7.72h4.53a.7.7,0,0,1,.66.94A11.22,11.22,0,0,0,51.15,54.23Zm-2,6.15a21.86,21.86,0,0,0-1-5.88.52.52,0,0,0-1,0,22.7,22.7,0,0,0-1,5.88,1.31,1.31,0,0,0,1.32,1.39h.36A1.3,1.3,0,0,0,49.15,60.38Z"/><path class="cls-2" d="M67,56.24c0,2.85,1.5,4.86,1.5,8.25,0,7-3.74,7.42-5.83,7.15s-3.7-1.25-6.35-.2a.73.73,0,0,1-.95-.94l2.76-7.74a.74.74,0,0,1,1-.4l.33.18a.75.75,0,0,1,.37.82c-.23,1-.38,3.15,2.18,3.69a3.21,3.21,0,0,0,.79,0,1.5,1.5,0,0,0,1.43-1.19v0c.29-1.59-.4-4.14-4.1-4.87-3-.59-4.85-1.18-4.85-5.59a17.9,17.9,0,0,1,1-5.47.73.73,0,0,1,.69-.49h2.36a.72.72,0,0,1,.72.8c-.53,5.56.35,7.57,1,8.3a.86.86,0,0,0,1.25,0c.72-.77,1.82-2.86,1.17-8.27a.74.74,0,0,1,.73-.82h3a.73.73,0,0,1,.67,1A15.58,15.58,0,0,0,67,56.24Z"/><path class="cls-2" d="M78.54,54.23c0,3.5,2.87,10.24,3.09,16.53a.73.73,0,0,1-.74.74H77.11a.55.55,0,0,1-.52-.76,4.34,4.34,0,0,0-.17-3.86,1.61,1.61,0,0,0-2.74,0,4.34,4.34,0,0,0-.17,3.86.55.55,0,0,1-.52.76H69.2a.73.73,0,0,1-.73-.74c.18-6.08,2.43-10.1,2.43-13.6,0-7.25,3-7.72,3-7.72h4.53a.7.7,0,0,1,.66.94A11.22,11.22,0,0,0,78.54,54.23Zm-2,6.15a22.37,22.37,0,0,0-1-5.88.53.53,0,0,0-1,0,22.37,22.37,0,0,0-1,5.88,1.3,1.3,0,0,0,1.31,1.39h.36A1.3,1.3,0,0,0,76.54,60.38Z"/></g><text class="cls-3" transform="translate(82.32 71.5)">S</text><text class="cls-4" transform="translate(37.74 78.49)"><tspan class="cls-5">B</tspan><tspan x="4.48" y="0">y A</tspan><tspan class="cls-6" x="14.22" y="0">l</tspan><tspan x="16.52" y="0">eja</tspan><tspan class="cls-7" x="25.66" y="0">n</tspan><tspan x="30.21" y="0">d</tspan><tspan class="cls-8" x="34.24" y="0">r</tspan><tspan x="37.62" y="0">o </tspan><tspan class="cls-8" x="42.35" y="0">G</tspan><tspan class="cls-9" x="47.14" y="0">l</tspan><tspan class="cls-10" x="49.51" y="0">a</tspan><tspan class="cls-8" x="52.94" y="0">t</tspan><tspan class="cls-9" x="55.29" y="0">t</tspan></text></svg>