<svg width="100" height="100" viewBox="0 0 100 100" fill="none" xmlns="http://www.w3.org/2000/svg">
<path d="M50 8L14 28.75V70.25L50 91L86 70.25V28.75L50 8ZM50 8L14 28.75V70.25L50 91L86 70.25V28.75L50 8Z" fill="white"/>
<path d="M64.2124 74.7891H59.0902L52.9579 69.1693V66.2873L59.3066 60.2352V50.6528L67.6032 45.2491L77.0541 52.3819L64.2124 74.7891ZM43.002 59.6589L43.9399 50.6528L40.8377 42.5833H59.1623L56.1323 50.6528L56.998 59.6589H43.002ZM47.1864 69.1693L41.0541 74.8611H35.8597L22.9459 52.3819L32.4689 45.3212L40.8377 50.6528V60.2352L47.1864 66.2873V69.1693V69.1693ZM35.7876 25.9401H64.1403L67.5311 40.3498H32.4689L35.7876 25.9401V25.9401ZM50 8L14 28.75V70.25L50 91L86 70.25V28.75L50 8V8Z" fill="#03316C"/>
</svg>
