<svg xmlns="http://www.w3.org/2000/svg" width="100" height="100" viewBox="-15.8 -1.5 100 100">
  <defs>
    <style>
      .a, .b, .c, .d {
        fill: none;
        stroke-linecap: round;
        stroke-linejoin: round;
        stroke-width: 1.25px;
      }

      .a {
        stroke: #f15a29;
      }

      .b {
        stroke: #fff;
      }

      .c {
        stroke: #ed1c24;
      }

      .d {
        stroke: #27aae1;
      }
    </style>
  </defs>
  <title>logo-small</title>
  <g>
    <polyline class="a" points="27.83 74.52 27.83 83.01 21.14 86.08 21.14 90.91 40.77 96.28 50.1 92.12 50.1 87.51 35.07 83.34 35.07 76.43"/>
    <polyline class="a" points="27.83 83.01 27.83 85.75 31.89 86.85 35.07 85.75 35.07 83.34"/>
    <polyline class="a" points="21.14 86.08 40.99 91.68 50.1 87.51"/>
    <line class="a" x1="31.89" y1="86.85" x2="31.89" y2="75.61"/>
    <line class="a" x1="40.77" y1="96.29" x2="40.72" y2="91.62"/>
  </g>
  <g>
    <polyline class="a" points="43.2 74.11 43.19 75.99 36.49 78.84 36.49 83.73 36.49 83.75 49.98 87.56 50.1 87.59 56.02 89.27 65.46 85.09 65.46 80.38 50.65 76.1 50.65 70.71"/>
    <polyline class="a" points="36.49 78.84 56.02 84.44 65.46 80.38"/>
    <polyline class="a" points="43.19 75.99 43.19 78.4 47.3 79.69 50.65 78.29 50.65 76.1"/>
    <line class="a" x1="47.28" y1="79.3" x2="47.27" y2="72.25"/>
    <line class="a" x1="56.02" y1="84.44" x2="56.02" y2="89.26"/>
  </g>
  <g>
    <path class="b" d="M32,16.4v28l15.61,4.41V67.53l-2.42,1.2-20.4-5.26V58.64l-3.77-.93.15-14.1,3.07-1.54-8.12-2,3.51-1.65-4.28-1.2V58.53L20,59.85v5l6.91,1.79v4.9l15.69,4.24,4.06,1.09,3.18.86h0l1.87.51V21.92ZM47.64,29.9l-4.06-1.21.05-4.5,4,1.21Z" transform="translate(-14.76 -1.3)"/>
    <polygon class="b" points="49.75 17.51 43.93 20.21 39.73 19.22 36.94 20.62 17.27 15.1 19.91 13.87 15.98 12.8 33.86 4.46 33.86 13.13 49.75 17.51"/>
    <polyline class="b" points="15.98 12.8 15.98 28.93 0.62 35.95"/>
    <polyline class="b" points="62.28 25.28 62.28 25.18 62.28 11.81 62.27 11.81 62.27 11.81 61.4 11.53 58.74 10.68 61.4 9.18 56.27 7.65 56.27 7.65"/>
    <polyline class="b" points="56.24 5.34 56.24 5.12 40.12 0.62 33.86 3.48"/>
    <polyline class="b" points="36.94 76.98 39.9 75.62 39.9 75.62 43.2 74.11 47.28 72.25 50.65 70.7 62.61 65.24 62.61 63.13 62.61 45.72"/>
    <polyline class="b" points="62.37 11.77 62.27 11.81 62.27 11.81 56.35 14.53 56.35 14.53"/>
    <polyline class="b" points="39.9 75.62 39.9 75.62 39.92 70.59 43.93 71.6 43.93 20.21"/>
    <line class="b" x1="62.61" y1="63.13" x2="43.93" y2="71.6"/>
    <polyline class="b" points="6.44 42.31 30.13 48.8 32.88 47.54"/>
    <line class="b" x1="61.4" y1="11.53" x2="61.4" y2="9.18"/>
  </g>
  <g>
    <polyline class="c" points="63.92 37.83 63.92 45.22 62.61 45.72 57.67 47.6 49.66 45.3 49.66 35.4"/>
    <line class="c" x1="57.67" y1="47.6" x2="57.75" y2="37.98"/>
  </g>
  <g>
    <polygon class="a" points="67.87 26.84 61.72 29.89 49.77 26.73 56.46 23.44 67.87 26.84"/>
    <polygon class="a" points="67.87 26.84 67.76 36.03 61.78 38.83 49.66 35.4 49.77 26.73 61.72 29.89 67.87 26.84"/>
    <line class="a" x1="61.7" y1="38.77" x2="61.73" y2="30.02"/>
  </g>
  <polygon class="d" points="32.88 24.1 32.88 28.6 28.82 27.39 28.87 22.89 32.88 24.1"/>
  <g>
    <polygon class="c" points="56.35 14.53 49.75 17.51 33.86 13.13 33.86 3.48 49.93 8.04 50.18 8.11 56.24 5.12 56.24 5.34 56.24 7.64 56.27 7.65 56.35 14.53"/>
    <polygon class="c" points="40.12 0.62 56.24 5.12 50.18 8.11 49.93 8.04 33.86 3.48 40.12 0.62"/>
    <polygon class="c" points="56.27 7.65 56.24 7.64 56.24 5.34 56.27 7.65"/>
    <line class="c" x1="49.93" y1="8.03" x2="49.88" y2="17.38"/>
  </g>
</svg>
