<?xml version="1.0" standalone="no"?>
<!DOCTYPE svg PUBLIC "-//W3C//DTD SVG 20010904//EN"
 "http://www.w3.org/TR/2001/REC-SVG-20010904/DTD/svg10.dtd">
<svg version="1.0" xmlns="http://www.w3.org/2000/svg"
 width="300.000000pt" height="300.000000pt" viewBox="0 0 300.000000 300.000000"
 preserveAspectRatio="xMidYMid meet">
<metadata>
Created by potrace 1.10, written by Peter Selinger 2001-2011
</metadata>
<g transform="translate(0.000000,300.000000) scale(0.100000,-0.100000)"
fill="#000000" stroke="none">
<path d="M1378 2626 c-23 -19 -56 -46 -73 -59 -16 -13 -41 -30 -54 -37 -14 -7
-34 -22 -45 -32 -12 -11 -37 -30 -56 -43 -62 -39 -62 -38 -60 -229 l1 -176
-26 0 c-17 0 -28 7 -34 23 -17 45 -143 129 -163 109 -6 -6 -26 -8 -46 -5 -32
4 -45 -1 -101 -44 -35 -26 -72 -53 -82 -59 -11 -6 -16 -14 -12 -17 3 -4 -2 -7
-12 -7 -10 0 -26 -10 -36 -22 -11 -11 -19 -19 -19 -16 0 3 -20 -13 -45 -36
l-44 -41 -2 -204 c-2 -190 -4 -207 -23 -236 -19 -28 -21 -44 -20 -178 1 -136
3 -150 23 -173 11 -13 21 -31 21 -38 0 -15 112 -106 130 -106 6 0 10 -4 10 -8
0 -5 16 -16 35 -25 19 -9 35 -22 35 -27 0 -6 5 -8 10 -5 6 3 10 1 10 -4 0 -6
5 -11 10 -11 6 0 19 -9 31 -21 13 -13 27 -18 40 -14 12 4 36 4 55 1 33 -7 43
-18 79 -94 9 -18 26 -37 38 -43 12 -5 40 -23 62 -39 22 -17 78 -56 125 -87 47
-31 88 -61 92 -67 4 -6 8 -7 8 -3 0 5 7 1 17 -8 14 -15 63 -49 112 -80 9 -5
20 -16 24 -23 5 -7 12 -10 18 -7 5 4 12 -1 15 -9 3 -9 12 -16 20 -16 8 0 14
-5 14 -12 0 -6 3 -9 6 -5 3 3 17 -5 31 -19 23 -23 81 -35 68 -14 -4 6 1 7 10
3 10 -3 21 0 25 7 7 11 16 11 44 3 20 -6 36 -7 36 -2 0 5 7 9 16 9 8 0 12 5 9
10 -4 6 5 10 20 10 16 0 38 13 58 33 18 17 45 39 61 47 29 15 86 66 86 76 0 7
-31 -15 -41 -29 -8 -11 -47 -34 -71 -43 -10 -3 -18 -13 -18 -21 0 -8 -6 -13
-12 -10 -20 7 -10 68 14 94 11 12 25 20 31 16 6 -3 7 -1 3 5 -4 7 -3 12 2 12
4 0 18 9 30 20 12 12 22 19 22 16 0 -3 19 13 43 34 l42 40 5 -43 c6 -50 20
-28 20 31 0 59 -9 80 -31 75 -26 -7 -24 5 6 28 20 17 23 24 15 44 -5 14 -7 31
-4 39 3 7 -8 33 -25 57 -16 24 -27 46 -24 49 2 3 9 -3 14 -12 5 -9 32 -29 59
-44 28 -15 50 -31 50 -35 0 -4 8 -10 19 -14 10 -3 29 -15 42 -26 20 -17 61
-21 107 -10 1 1 2 8 2 17 0 14 1 14 16 0 22 -22 41 -20 68 9 14 15 26 21 32
15 11 -11 64 33 64 53 0 8 -4 7 -11 -3 -7 -11 -9 -2 -5 34 6 52 6 53 35 70 10
6 43 30 72 54 87 68 93 73 104 68 10 -3 11 12 7 68 -1 12 -7 16 -17 12 -22 -8
-18 14 6 35 16 14 19 22 11 32 -6 7 -9 23 -5 36 4 16 0 27 -16 37 -11 8 -21
23 -21 33 0 10 -9 26 -20 36 -11 10 -20 26 -20 35 0 18 -47 59 -118 104 -28
17 -42 32 -38 41 3 9 -6 22 -20 32 -14 10 -33 26 -42 36 -9 9 -22 17 -29 17
-7 0 -13 5 -13 12 0 6 -3 9 -6 5 -8 -8 -47 32 -61 66 -7 15 -17 27 -23 27 -5
0 -10 10 -10 23 0 14 -15 33 -40 51 -22 17 -40 36 -40 44 0 13 -50 67 -70 74
-4 2 -10 10 -12 18 -4 18 -54 70 -68 70 -5 0 -10 9 -10 20 0 11 -10 29 -23 40
-21 19 -23 28 -22 120 1 55 -2 100 -6 100 -4 0 -7 -49 -8 -110 -2 -100 0 -110
19 -122 24 -15 25 -24 4 -32 -10 -4 -21 0 -28 10 -11 14 -16 14 -48 1 -20 -9
-39 -13 -42 -9 -3 3 -6 -2 -6 -12 0 -10 -5 -14 -11 -11 -7 5 -5 13 6 25 9 10
18 25 19 34 1 8 10 24 21 35 20 23 23 75 5 96 -15 18 -62 25 -79 12 -17 -15
-41 -18 -41 -6 0 19 30 68 47 78 10 5 15 13 11 17 -4 4 -19 -1 -34 -10 -33
-22 -40 -15 -19 17 15 24 15 26 -14 46 -16 12 -41 21 -56 21 -14 0 -33 7 -41
15 -13 13 -13 17 5 36 l20 22 37 -22 c29 -17 39 -19 51 -9 9 8 17 8 21 2 4 -6
25 -22 46 -37 27 -18 43 -23 52 -17 25 21 66 -19 45 -44 -7 -8 -4 -12 10 -13
26 -2 25 27 -2 61 -15 19 -30 27 -48 26 -40 -3 -44 -2 -73 25 -20 18 -35 24
-54 21 -23 -5 -55 13 -54 29 0 3 0 10 0 15 0 6 -30 30 -67 54 -52 33 -73 42
-89 36 -11 -5 -27 -4 -35 1 -21 13 -23 12 -71 -25z m72 -7 c0 -14 21 -11 39 5
14 13 24 9 79 -26 34 -23 62 -46 62 -53 0 -6 -16 -17 -36 -23 -29 -9 -39 -8
-50 2 -7 8 -10 17 -6 20 3 4 -1 4 -11 0 -10 -3 -17 -1 -17 6 0 6 -5 8 -10 5
-6 -3 -13 1 -16 10 -6 13 -9 12 -23 -7 -17 -25 -33 -140 -17 -131 5 4 7 -1 3
-11 -4 -10 -7 -36 -7 -59 -1 -37 -5 -45 -35 -64 -19 -12 -44 -20 -57 -17 -13
2 -16 1 -8 -2 8 -4 18 -11 21 -17 7 -10 59 20 59 34 0 21 46 6 73 -23 17 -18
27 -27 23 -21 -5 8 -2 11 7 7 19 -7 16 -27 -6 -52 -9 -10 -17 -29 -17 -42 l0
-23 -22 20 c-13 11 -29 18 -36 16 -7 -3 -37 7 -66 21 -30 15 -60 24 -68 21 -7
-3 -22 1 -32 8 -18 13 -17 16 22 54 45 43 48 68 3 27 -14 -13 -34 -27 -43 -30
-30 -9 -21 -49 16 -78 42 -31 46 -32 46 -6 0 17 8 14 58 -24 50 -39 57 -42 60
-25 3 15 7 17 23 9 17 -10 19 -23 19 -149 0 -136 0 -139 25 -155 13 -9 22 -22
19 -29 -5 -14 22 -43 59 -62 13 -6 21 -18 19 -29 -2 -10 5 -24 15 -32 40 -32
64 -46 69 -41 9 8 -44 59 -55 52 -6 -3 -11 -2 -11 4 0 5 20 24 45 41 25 17 45
35 45 40 0 6 4 9 8 7 9 -2 162 109 225 165 l42 37 32 -25 c17 -13 36 -24 42
-24 6 0 11 -7 11 -16 0 -11 -11 -15 -47 -14 -65 1 -83 -2 -77 -12 3 -4 -5 -12
-18 -17 -13 -5 -32 -18 -43 -28 -11 -11 -34 -28 -49 -39 -47 -30 -106 -86
-106 -100 0 -7 -12 -35 -26 -61 l-27 -47 34 -28 c34 -29 59 -36 59 -17 0 5 5
7 10 4 6 -3 10 -3 10 2 0 4 -16 19 -35 32 -23 15 -35 32 -35 46 0 33 29 40 54
14 l21 -21 -23 12 c-33 16 -38 6 -7 -14 22 -15 27 -15 40 -2 16 15 8 27 -27
39 -11 4 -18 17 -18 31 0 26 12 37 140 134 41 31 78 60 81 65 4 5 16 4 28 -2
11 -7 21 -8 21 -4 0 4 5 2 12 -5 7 -7 18 -12 24 -12 20 0 83 -44 80 -55 -1 -5
-12 -15 -24 -21 -12 -6 -30 -20 -41 -32 -10 -12 -23 -22 -29 -22 -6 0 -12 -3
-14 -7 -6 -15 -121 -103 -133 -103 -7 0 -15 -7 -19 -15 -3 -8 -12 -15 -21 -15
-18 0 -18 2 -3 35 16 36 197 170 210 157 8 -8 15 -6 24 3 20 20 17 27 -6 15
-16 -9 -20 -8 -20 5 0 22 -4 20 -67 -31 -31 -25 -80 -62 -110 -82 -40 -26 -53
-41 -50 -54 3 -11 -4 -25 -19 -37 -15 -12 -22 -25 -18 -34 3 -10 -3 -21 -15
-29 -27 -16 -29 -68 -3 -68 15 0 15 2 2 10 -15 10 -11 15 45 57 6 5 28 22 50
38 21 17 49 37 61 45 45 31 179 135 185 144 10 13 59 -2 59 -19 0 -8 -7 -15
-15 -15 -8 0 -15 -7 -15 -15 0 -9 9 -15 22 -15 12 0 30 -7 40 -17 10 -9 45
-33 79 -53 l60 -38 -22 -16 c-13 -9 -21 -16 -19 -17 28 -4 44 -12 94 -45 32
-22 69 -46 82 -55 22 -14 23 -18 9 -29 -18 -15 -20 -34 -2 -27 7 3 24 -3 37
-13 l23 -18 -22 -11 c-22 -12 -21 -34 2 -25 7 2 21 -2 32 -10 19 -14 19 -15 1
-35 -16 -18 -17 -21 -3 -21 39 0 21 -25 -69 -92 -53 -40 -106 -80 -118 -88
-13 -8 -39 -28 -59 -44 l-37 -30 0 -98 0 -99 -22 15 c-19 14 -21 24 -20 111 0
52 -3 95 -7 95 -23 0 -31 -31 -31 -124 0 -98 0 -99 -20 -81 -19 18 -20 17 -20
-4 0 -20 -5 -18 -62 22 -35 24 -132 92 -216 151 -84 59 -161 114 -171 124 -27
25 -60 49 -108 80 -30 18 -43 34 -43 49 0 12 -9 27 -20 33 -11 6 -20 21 -20
33 0 16 -12 31 -40 47 -26 16 -40 32 -40 46 0 14 -15 31 -40 48 -24 16 -40 34
-40 46 0 12 -16 31 -40 48 -23 16 -39 35 -40 47 0 11 -9 26 -20 33 -18 11 -20
23 -20 146 0 110 -3 137 -16 151 -9 9 -24 13 -35 10 -10 -3 -32 1 -48 9 -34
18 -41 19 -41 8 0 -15 62 -44 85 -40 24 5 47 -23 26 -30 -6 -2 -8 -8 -5 -14
11 -17 10 -108 -1 -108 -6 0 -6 -3 0 -8 6 -4 11 -35 11 -69 1 -50 -2 -60 -14
-55 -10 3 -13 1 -8 -6 4 -7 2 -12 -5 -12 -7 0 -21 -7 -31 -17 -17 -15 -18 -15
-18 10 0 15 10 37 22 49 12 12 24 29 25 38 9 45 5 72 -13 85 -17 13 -21 12
-36 -6 -24 -28 -23 -47 0 -26 29 26 38 20 34 -23 -3 -28 -10 -41 -23 -45 -13
-4 -19 -16 -19 -36 0 -16 -3 -29 -8 -29 -4 0 -22 -13 -39 -29 -18 -16 -38 -31
-45 -34 -7 -3 -3 -6 10 -6 12 -1 22 -5 22 -11 0 -9 -14 -14 -32 -11 -4 0 -5
-6 -2 -14 4 -9 0 -15 -8 -15 -9 0 -27 -11 -42 -25 -25 -23 -31 -23 -26 0 4 16
1 97 -5 134 -6 38 18 86 37 75 7 -4 8 -3 4 4 -11 18 22 72 50 82 13 5 24 13
23 17 -5 33 3 53 26 59 17 4 25 13 25 28 -1 19 -2 19 -13 5 -18 -24 -57 -34
-57 -16 0 9 6 18 13 20 6 3 3 6 -8 6 -21 1 -45 -16 -45 -31 0 -4 9 -8 20 -8
32 0 25 -39 -14 -76 -19 -18 -36 -30 -40 -27 -9 9 14 44 36 52 16 6 17 9 6 18
-10 9 -21 5 -48 -18 -31 -26 -33 -31 -19 -42 27 -21 33 -54 10 -62 -10 -3 -22
-16 -25 -28 -9 -35 -7 -297 3 -297 15 0 34 29 28 43 -3 9 34 44 106 98 62 46
115 88 119 93 4 6 13 4 22 -4 9 -7 19 -10 23 -6 3 3 22 -6 42 -21 63 -48 63
-46 23 -90 -21 -21 -50 -48 -67 -58 -16 -10 -60 -41 -97 -68 -68 -52 -116 -73
-84 -38 9 10 16 22 16 28 0 11 85 87 120 108 52 31 90 62 94 78 6 24 1 22 -58
-25 -29 -24 -81 -63 -114 -88 -44 -32 -61 -51 -59 -65 1 -13 -6 -24 -21 -30
-15 -6 -22 -17 -20 -30 1 -11 -7 -30 -20 -43 -22 -22 -30 -52 -13 -52 5 0 11
7 14 15 4 8 23 25 44 38 21 14 49 34 63 46 31 26 28 23 125 95 44 33 86 66 93
73 16 16 29 17 37 2 4 -5 18 -14 31 -19 13 -5 24 -14 24 -20 0 -13 -13 -13
-26 -1 -11 12 -66 -13 -104 -45 -14 -12 -54 -44 -89 -71 -35 -26 -69 -57 -75
-68 -6 -11 -15 -23 -20 -27 -5 -3 -11 -16 -13 -28 -2 -11 -10 -32 -19 -46 -9
-13 -14 -27 -11 -31 11 -11 37 19 37 43 0 13 9 28 20 34 11 6 20 21 20 34 0
17 20 38 81 82 45 32 87 64 93 70 6 6 23 18 38 28 25 16 28 16 60 0 59 -30 77
-48 66 -67 -10 -20 2 -23 20 -5 7 7 12 8 12 4 0 -10 -81 -86 -92 -86 -4 0 -16
-8 -26 -17 -28 -27 -80 -63 -91 -63 -5 0 -13 -5 -17 -12 -4 -7 -3 -8 4 -4 7 4
12 5 12 2 0 -8 -66 -46 -80 -46 -9 0 -8 5 3 18 10 10 17 23 17 28 0 11 83 89
107 99 10 5 22 7 26 6 5 -1 6 3 3 8 -3 5 8 14 24 21 17 7 30 17 30 22 0 6 6 8
13 5 7 -3 13 5 13 20 1 13 -1 23 -5 21 -3 -2 -57 -41 -118 -88 -79 -59 -113
-91 -113 -105 0 -11 -9 -26 -21 -33 -14 -9 -18 -19 -14 -32 8 -26 3 -25 -41 5
-34 23 -39 24 -47 9 -12 -22 5 -37 43 -37 34 0 36 -3 15 -23 -8 -9 -15 -22
-15 -31 0 -14 25 2 105 69 11 9 77 59 146 111 123 92 127 94 144 75 19 -23 5
-48 -26 -48 -11 0 -27 -9 -36 -20 -10 -11 -22 -20 -28 -20 -6 0 -16 -9 -23
-20 -7 -11 -17 -20 -22 -20 -21 0 -120 -90 -123 -111 -2 -10 -8 -23 -14 -30
-6 -8 -13 -23 -15 -34 -2 -11 -9 -19 -14 -18 -5 1 -10 -7 -11 -17 -1 -14 12
-26 48 -42 27 -13 49 -29 49 -36 0 -10 3 -10 14 0 12 11 12 16 -2 31 -9 10
-29 26 -44 35 -33 19 -37 52 -8 70 11 7 20 21 20 31 0 20 28 46 155 141 77 58
105 71 105 50 0 -5 5 -10 10 -10 14 0 80 -43 80 -52 0 -4 -9 -12 -21 -19 -19
-10 -20 -8 -14 10 7 22 -9 29 -20 10 -4 -5 -53 -44 -108 -86 -69 -51 -102 -81
-102 -95 0 -11 -8 -26 -18 -33 -9 -7 -17 -22 -17 -35 0 -21 1 -21 28 6 27 28
50 47 84 69 66 43 147 106 175 133 18 18 33 29 33 23 0 -5 8 -12 19 -16 10 -3
18 -13 17 -22 0 -9 9 -19 24 -23 29 -8 160 -98 160 -110 0 -4 -7 -11 -16 -14
-23 -9 -5 -29 22 -23 13 2 21 1 19 -4 -3 -4 1 -9 7 -12 10 -3 10 -7 -1 -21
-16 -19 -16 -18 27 -36 26 -10 30 -15 21 -26 -15 -18 -27 -18 -31 1 -2 11 -23
0 -73 -40 -88 -69 -139 -107 -192 -145 -27 -19 -43 -38 -43 -51 0 -17 7 -15
53 23 30 24 69 54 87 68 18 14 64 48 100 76 l67 51 24 -19 c16 -13 20 -21 11
-25 -6 -2 -44 -29 -82 -59 -39 -30 -75 -54 -80 -54 -6 0 -10 -4 -10 -8 0 -5
-29 -29 -65 -55 l-65 -47 0 -95 c0 -52 -4 -95 -8 -95 -5 0 -17 8 -26 19 -14
15 -16 34 -13 105 2 47 2 86 1 86 -1 0 -9 -3 -18 -6 -13 -5 -16 -25 -16 -112
0 -104 0 -105 -20 -87 -19 18 -20 17 -20 -4 0 -20 -4 -19 -54 18 -30 22 -89
65 -133 94 -43 30 -121 84 -173 121 -52 36 -130 90 -172 118 -59 39 -78 58
-78 75 0 12 -9 27 -20 33 -11 6 -20 21 -20 33 0 26 -36 54 -43 34 -3 -7 -10 2
-18 18 -12 29 -13 29 -17 7 -4 -23 -4 -23 -24 -5 -20 18 -21 18 -14 -4 10 -33
-9 -29 -58 10 -23 18 -83 62 -134 97 -68 47 -92 69 -92 85 0 13 -10 27 -25 35
-25 13 -25 14 -25 162 0 148 0 149 26 173 l26 24 -4 208 -3 207 110 82 c61 46
130 99 154 119 41 34 45 35 67 21 20 -14 25 -14 38 -1 16 16 36 20 36 7 0 -4
25 -22 55 -40 30 -18 55 -39 55 -46 0 -6 -15 -17 -34 -24 -31 -11 -36 -10 -64
15 -17 15 -38 28 -46 29 -21 3 -8 -24 15 -31 10 -4 19 -11 19 -16 0 -5 7 -9
15 -9 10 0 15 -10 15 -30 0 -16 5 -30 10 -30 6 0 22 -12 37 -26 14 -14 28 -22
31 -19 9 8 -11 37 -34 49 -10 6 -21 12 -23 13 -2 2 4 12 14 23 22 24 43 25 73
4 19 -13 26 -13 38 -3 13 10 17 10 25 -2 11 -17 10 -32 9 193 l-1 186 98 73
c54 40 106 81 116 91 10 10 21 18 26 18 5 0 23 13 41 29 31 27 60 31 60 10z
m66 -95 c20 -15 34 -35 34 -48 0 -13 15 -32 40 -49 37 -26 40 -27 40 -9 0 19
1 19 34 3 l33 -16 -28 -18 c-34 -22 -36 -33 -9 -40 12 -3 20 -14 20 -26 0 -22
-14 -28 -25 -11 -10 16 -28 11 -59 -17 -27 -23 -28 -26 -13 -38 18 -13 25 -71
7 -60 -5 3 -10 1 -10 -5 0 -6 -5 -8 -11 -4 -8 4 -7 9 2 16 11 7 11 11 2 15 -7
2 -13 13 -13 22 0 11 -19 30 -45 47 l-45 28 0 118 c0 65 3 118 6 118 3 0 21
-12 40 -26z m149 -235 c10 -11 -34 -41 -51 -35 -16 6 -16 8 0 25 16 18 38 22
51 10z m91 -24 c-6 -17 9 -21 19 -5 13 22 25 8 25 -30 0 -30 -4 -40 -16 -40
-8 0 -12 -4 -9 -10 3 -5 1 -10 -4 -10 -6 0 -11 -11 -11 -25 0 -29 -12 -32 -31
-9 -7 9 -24 20 -36 25 -19 7 -22 13 -17 36 4 16 21 40 38 55 35 30 51 35 42
13z m-86 -25 c0 -5 -4 -10 -10 -10 -5 0 -10 -11 -10 -25 0 -17 -5 -25 -18 -25
-14 0 -17 -7 -13 -46 2 -31 6 -42 12 -33 5 8 6 21 4 29 -2 8 0 22 5 30 9 13
13 11 31 -10 11 -14 17 -18 13 -10 -5 11 -2 10 13 -2 11 -10 25 -18 31 -18 24
0 11 -28 -18 -40 -32 -13 -57 -39 -27 -27 26 10 20 -18 -8 -39 -14 -10 -28
-18 -31 -16 -3 2 -14 -6 -24 -18 -33 -38 -42 -16 -38 84 4 83 7 95 37 139 31
44 51 59 51 37z m-110 -215 c0 -85 4 -155 8 -155 15 0 32 24 32 46 0 12 6 24
13 27 7 3 57 39 111 82 l98 76 49 -11 c27 -7 60 -21 73 -31 13 -10 28 -19 33
-19 6 0 10 -7 10 -15 0 -8 -3 -12 -7 -10 -3 2 -21 -12 -39 -31 -19 -19 -39
-34 -46 -34 -7 0 -15 -7 -19 -15 -3 -8 -12 -15 -20 -15 -9 0 -20 -9 -26 -20
-6 -11 -17 -20 -24 -20 -7 0 -23 -11 -36 -25 -24 -25 -80 -58 -87 -52 -7 8 23
54 52 82 17 15 48 39 70 54 22 14 51 36 64 48 14 12 28 20 33 17 13 -8 48 6
48 19 0 8 -3 8 -12 -1 -16 -16 -28 -15 -28 3 0 18 -16 20 -27 2 -4 -7 -24 -24
-43 -37 -19 -13 -40 -29 -46 -35 -6 -5 -34 -26 -62 -45 -36 -24 -52 -42 -52
-57 0 -12 -9 -27 -20 -33 -21 -11 -27 -1 -9 17 7 7 2 15 -16 27 -23 15 -27 15
-40 2 -13 -13 -12 -17 14 -35 28 -20 48 -61 29 -61 -19 0 -78 53 -78 71 0 25
-33 42 -51 26 -12 -10 -12 -10 -1 3 8 10 12 60 12 172 0 156 0 158 20 148 19
-10 20 -21 20 -165z m190 50 c0 -2 -9 -9 -20 -15 -16 -9 -18 -8 -14 5 5 13 34
22 34 10z m-210 -225 c0 -5 -4 -10 -10 -10 -5 0 -10 5 -10 10 0 6 5 10 10 10
6 0 10 -4 10 -10z m85 -90 c3 -5 -1 -10 -9 -10 -9 0 -16 5 -16 10 0 6 4 10 9
10 6 0 13 -4 16 -10z m-360 -110 c3 -5 1 -10 -4 -10 -6 0 -11 5 -11 10 0 6 2
10 4 10 3 0 8 -4 11 -10z m-125 -19 c0 -4 -10 -20 -21 -35 -16 -20 -24 -25
-33 -16 -8 8 -6 14 7 21 9 6 23 16 30 24 14 17 17 18 17 6z m700 -25 c0 -3 -4
-8 -10 -11 -5 -3 -10 -1 -10 4 0 6 5 11 10 11 6 0 10 -2 10 -4z m744 -409 c16
-12 6 -21 -98 -97 l-116 -85 0 -64 0 -63 -22 14 c-19 13 -24 26 -26 74 l-3 59
53 40 c29 22 58 43 63 48 6 4 33 25 60 47 55 43 63 46 89 27z m-989 -59 c-3
-8 -19 -22 -35 -31 -16 -10 -35 -23 -42 -30 -17 -16 -66 -47 -74 -47 -11 0 38
45 71 66 17 10 34 24 38 31 5 8 12 11 18 8 5 -4 12 1 15 10 4 9 8 14 10 12 3
-2 2 -11 -1 -19z m-341 -184 c5 -14 4 -15 -9 -4 -17 14 -19 20 -6 20 5 0 12
-7 15 -16z m709 -218 c9 -7 17 -15 17 -17 0 -2 -52 -42 -115 -89 l-115 -85 0
-63 0 -63 -25 18 c-21 15 -24 26 -25 75 l0 56 118 91 c64 49 119 90 122 90 3
0 13 -6 23 -13z"/>
<path d="M1340 2439 c0 -5 5 -7 10 -4 6 3 10 8 10 11 0 2 -4 4 -10 4 -5 0 -10
-5 -10 -11z"/>
<path d="M1148 2388 c9 -9 8 -16 -6 -31 -13 -15 -14 -21 -4 -24 7 -3 18 -10
25 -17 26 -26 67 -47 77 -41 7 5 -1 15 -21 27 -46 28 -58 43 -49 58 11 18 1
40 -18 40 -12 0 -13 -3 -4 -12z"/>
<path d="M1250 2370 c0 -5 7 -10 15 -10 8 0 15 -4 15 -10 0 -5 5 -10 12 -10 6
0 3 9 -7 20 -20 22 -35 26 -35 10z"/>
<path d="M830 2066 c0 -9 -7 -16 -15 -16 -8 0 -29 -15 -47 -34 -18 -18 -40
-36 -48 -39 -11 -4 -11 -6 -2 -6 8 -1 34 15 58 35 l44 36 1 -33 c5 -127 1
-146 -28 -174 -17 -15 -40 -25 -58 -25 l-30 0 25 -13 c21 -11 28 -10 43 3 9 9
28 23 41 30 20 10 27 10 43 -6 11 -11 27 -23 37 -29 9 -5 18 -23 20 -40 2 -16
8 -30 15 -29 32 3 33 5 18 22 -10 10 -17 25 -17 33 0 8 -19 27 -41 41 l-41 27
1 110 c1 67 -2 112 -8 116 -6 3 -11 -1 -11 -9z"/>
<path d="M1006 1983 c-6 -6 61 -52 78 -53 14 0 -16 30 -45 45 -14 8 -29 11
-33 8z"/>
<path d="M672 1935 c-7 -8 -9 -15 -4 -15 5 0 15 7 22 15 16 19 -1 19 -18 0z"/>
<path d="M1192 1927 c-7 -8 -7 -18 -2 -27 6 -8 10 -13 11 -10 0 3 2 15 5 28 4
25 1 28 -14 9z"/>
<path d="M530 1921 c12 -8 12 -12 -2 -28 -18 -20 -16 -22 40 -62 18 -12 37
-21 43 -19 6 2 -6 16 -27 31 -28 19 -38 34 -39 53 0 15 -7 29 -15 31 -13 4
-13 3 0 -6z"/>
<path d="M624 1905 c11 -8 26 -15 33 -15 7 0 13 -7 13 -15 0 -8 5 -15 10 -15
18 0 10 18 -16 39 -15 12 -34 21 -43 21 -13 -1 -13 -3 3 -15z"/>
<path d="M1150 1895 c-14 -16 -3 -20 19 -6 8 5 9 11 3 15 -5 3 -15 -1 -22 -9z"/>
<path d="M693 1846 c-6 -6 -25 -22 -42 -35 -34 -26 -41 -58 -13 -68 9 -3 27
-15 40 -26 l22 -20 0 21 c0 32 -1 32 73 -29 21 -17 40 -29 43 -27 7 8 -7 38
-17 38 -6 0 -23 10 -39 22 -28 20 -46 25 -97 27 -34 1 -28 20 18 62 22 20 37
39 32 42 -4 3 -13 0 -20 -7z"/>
<path d="M1072 1790 c-23 -21 -42 -49 -42 -60 0 -11 -7 -23 -15 -26 -10 -4
-15 -20 -15 -53 0 -33 3 -42 10 -31 5 8 7 27 5 41 -4 20 1 29 21 39 17 9 24
20 21 32 -4 13 8 27 39 50 24 17 41 35 38 39 -9 15 -20 10 -62 -31z"/>
<path d="M1450 1811 c6 -12 15 -21 20 -21 6 0 10 -9 10 -19 0 -11 11 -28 25
-39 14 -11 25 -26 25 -34 0 -8 9 -23 20 -33 11 -10 20 -29 20 -43 0 -24 0 -25
-20 -7 -31 28 -37 8 -7 -23 15 -16 27 -39 27 -53 0 -17 3 -20 9 -10 5 7 6 25
1 40 -8 29 -3 52 14 63 8 5 7 8 -1 8 -7 0 -13 6 -13 13 0 7 -9 18 -20 25 -11
7 -20 20 -20 30 -1 23 -25 54 -35 44 -5 -4 -6 0 -3 8 7 19 -9 43 -40 59 -22
12 -23 11 -12 -8z"/>
<path d="M1391 1797 c-6 -8 -8 -17 -4 -20 3 -4 -1 -7 -10 -7 -9 0 -19 5 -22
10 -8 13 -25 13 -25 1 0 -5 9 -12 19 -16 10 -3 21 -17 24 -30 5 -28 -1 -30
-34 -12 -18 9 -23 19 -22 42 1 17 0 24 -3 17 -5 -10 -9 -10 -19 -2 -11 9 -13
7 -12 -12 3 -31 16 -50 55 -77 18 -12 30 -26 27 -31 -3 -5 -1 -11 5 -15 6 -4
8 -11 5 -16 -4 -5 -1 -9 6 -9 7 0 9 -3 5 -7 -3 -4 -25 11 -47 33 -23 21 -37
30 -32 19 6 -11 8 -26 5 -34 -2 -8 0 -11 5 -8 5 3 26 -8 46 -24 20 -17 41 -27
47 -24 5 3 10 2 10 -4 0 -5 -7 -14 -16 -19 -13 -7 -7 -15 34 -43 27 -19 84
-59 127 -89 152 -107 187 -130 196 -130 5 0 9 -3 9 -7 0 -5 28 -26 63 -48 51
-33 130 -90 206 -149 11 -9 13 -7 7 12 -10 29 -2 28 53 -11 25 -18 60 -41 76
-51 28 -18 29 -18 15 -1 -18 22 -109 89 -132 98 -10 3 -18 2 -18 -3 0 -16 -16
-11 -41 13 -14 12 -36 28 -49 35 -14 6 -54 35 -90 62 -36 27 -74 54 -85 59
-21 10 -119 79 -147 105 -10 9 -18 14 -18 11 0 -3 -18 7 -40 21 -22 15 -37 30
-35 35 3 4 -4 9 -15 11 -22 3 -24 24 -2 22 6 -1 12 2 12 7 0 5 7 9 15 9 13 0
13 3 3 20 -7 11 -17 20 -21 20 -5 0 -5 -9 -2 -20 6 -20 -9 -28 -20 -10 -10 16
-25 12 -19 -5 4 -8 2 -15 -3 -15 -17 0 -43 35 -43 57 0 24 -22 35 -47 26 -15
-5 -16 -3 -5 8 8 8 12 45 12 106 0 92 4 105 28 81 9 -9 12 -8 12 5 0 20 -33
23 -49 4z m-1 -101 c0 -11 -19 -15 -25 -6 -3 5 1 10 9 10 9 0 16 -2 16 -4z"/>
<path d="M1106 1735 c-18 -14 -18 -15 -1 -22 11 -4 20 -2 23 5 2 6 10 8 18 5
8 -3 14 -1 14 5 0 5 -7 13 -16 16 -19 7 -15 8 -38 -9z"/>
<path d="M1799 1720 c25 -21 41 -26 41 -12 0 9 -44 32 -58 32 -4 -1 4 -10 17
-20z"/>
<path d="M2050 1673 c-52 -37 -98 -71 -102 -77 -4 -6 -8 -7 -8 -2 0 15 -37
-38 -41 -59 -3 -13 -12 -20 -27 -19 -22 1 -22 1 -6 -17 13 -15 20 -16 31 -7
11 9 18 8 30 -5 15 -15 15 -16 -5 -10 -31 8 -27 -4 6 -21 22 -11 29 -11 39 -1
9 10 8 16 -6 29 -10 9 -23 16 -29 16 -21 0 -13 46 11 66 12 10 60 48 107 83
71 53 112 91 98 91 -2 0 -46 -30 -98 -67z"/>
<path d="M887 1723 c-5 -7 -6 -17 -3 -22 3 -4 -1 -17 -9 -27 -11 -14 -14 -51
-15 -146 0 -128 7 -156 29 -115 13 25 11 330 -2 310z"/>
<path d="M1440 1713 c1 -24 80 -80 80 -57 0 16 -57 74 -72 74 -5 0 -8 -8 -8
-17z"/>
<path d="M1276 1705 c4 -8 13 -15 21 -15 13 0 13 3 3 15 -7 8 -16 15 -21 15
-5 0 -6 -7 -3 -15z"/>
<path d="M835 1690 c10 -11 20 -18 23 -15 7 6 -18 35 -31 35 -5 0 -2 -9 8 -20z"/>
<path d="M1060 1682 c0 -11 37 -32 44 -25 8 9 -14 33 -30 33 -8 0 -14 -3 -14
-8z"/>
<path d="M2218 1662 c-1 -4 -49 -43 -105 -86 -75 -56 -103 -84 -103 -100 0
-12 -9 -27 -20 -34 -11 -7 -20 -21 -20 -32 0 -17 11 -11 65 35 36 30 69 55 73
55 4 0 21 14 39 30 18 17 36 30 40 30 10 1 93 74 93 83 0 15 -26 6 -40 -13 -8
-11 -18 -20 -23 -20 -4 0 -1 10 7 22 9 12 16 26 16 30 0 10 -17 10 -22 0z
m-42 -87 c-33 -28 -48 -32 -40 -10 7 16 56 46 64 39 2 -3 -9 -16 -24 -29z
m-56 -32 c0 -16 -17 -34 -33 -37 -9 -1 -25 -11 -37 -21 -18 -16 -20 -17 -14
-2 3 9 10 17 14 17 4 0 18 11 31 25 24 25 39 32 39 18z"/>
<path d="M1440 1642 c0 -17 57 -72 74 -72 19 0 0 31 -34 59 -35 28 -40 30 -40
13z"/>
<path d="M1037 1623 c-10 -9 -9 -23 2 -23 5 0 11 7 15 15 5 15 -5 20 -17 8z"/>
<path d="M1310 1550 c-8 -5 -12 -11 -9 -14 2 -3 11 -1 19 4 8 5 12 11 9 14 -2
3 -11 1 -19 -4z"/>
<path d="M1949 1536 c17 -20 49 -26 55 -11 2 7 -2 16 -10 19 -10 4 -13 2 -8
-7 5 -9 4 -9 -7 1 -19 18 -45 16 -30 -2z"/>
<path d="M2245 1423 c-88 -67 -151 -123 -153 -135 -3 -15 10 -9 60 29 34 26
69 54 76 60 7 7 49 38 93 70 49 35 79 63 79 75 0 10 -1 18 -2 17 -2 0 -70 -52
-153 -116z"/>
<path d="M1824 1499 c-26 -34 -23 -48 16 -79 22 -18 40 -28 40 -23 0 4 4 3 8
-2 4 -6 21 -21 38 -33 31 -21 32 -21 37 -2 4 14 -5 28 -31 48 -58 46 -83 57
-93 41 -4 -7 -11 -10 -16 -6 -4 5 -2 12 6 16 7 5 11 19 9 31 -2 19 -5 21 -14
9z"/>
<path d="M1009 1446 c16 -19 49 -27 58 -14 3 6 1 8 -4 5 -6 -4 -16 0 -23 8 -7
8 -19 15 -27 15 -12 0 -13 -3 -4 -14z"/>
<path d="M896 1393 c-6 -14 -5 -15 5 -6 7 7 10 15 7 18 -3 3 -9 -2 -12 -12z"/>
<path d="M975 1399 c-4 -5 1 -19 10 -29 16 -17 19 -18 33 -3 14 14 14 17 -3
29 -23 17 -32 17 -40 3z"/>
<path d="M2430 1350 c-41 -33 -80 -64 -87 -70 -7 -5 -27 -20 -46 -33 -65 -44
-87 -65 -87 -84 0 -10 -9 -24 -20 -31 -24 -15 -26 -38 -3 -60 15 -15 16 -16
11 -1 -15 38 31 93 154 184 127 94 168 130 168 145 0 18 -15 10 -90 -50z"/>
<path d="M912 1378 c-13 -13 -16 -48 -4 -48 14 0 32 23 32 42 0 21 -11 23 -28
6z"/>
<path d="M526 1362 c-3 -3 -6 -14 -6 -24 0 -12 -4 -17 -12 -12 -6 4 -4 -3 5
-17 23 -32 21 -42 -4 -29 -34 19 -46 5 -14 -16 17 -10 69 -47 118 -81 73 -53
87 -60 87 -43 0 11 -6 20 -13 20 -8 0 -14 7 -14 15 0 20 1 20 36 -16 17 -17
31 -39 31 -48 0 -12 43 -47 123 -102 67 -46 127 -88 134 -94 6 -5 35 -26 63
-45 28 -19 78 -54 111 -77 32 -24 61 -43 64 -43 3 0 46 -29 96 -65 49 -36 92
-65 94 -65 2 0 1 9 -2 21 -5 16 9 10 71 -32 84 -58 116 -62 39 -6 -26 20 -59
45 -73 55 -19 15 -31 17 -43 11 -12 -7 -22 -4 -37 11 -11 11 -27 20 -36 20 -9
0 -12 5 -8 13 4 6 4 9 -1 5 -8 -8 -65 28 -78 49 -4 7 -14 13 -21 13 -17 0 -62
40 -58 52 1 5 -2 7 -8 3 -12 -7 -42 20 -32 29 3 4 -1 4 -10 1 -8 -3 -22 1 -31
9 -9 9 -18 16 -21 16 -8 0 -109 71 -121 85 -5 7 -25 20 -43 29 -47 24 -92 66
-92 86 0 9 -9 25 -20 35 -17 16 -20 31 -21 119 0 77 -3 96 -11 80 -9 -20 -12
-21 -36 -8 -36 18 -41 9 -8 -17 15 -12 25 -24 22 -27 -3 -3 -1 -11 5 -19 10
-11 7 -12 -12 -5 -13 5 -30 23 -38 40 -8 18 -27 38 -43 44 -15 7 -28 17 -28
22 0 6 -6 2 -13 -8 -12 -16 -47 -14 -47 4 0 10 -37 20 -44 12z m37 -27 c11 -7
17 -23 15 -34 -3 -20 -4 -21 -25 -6 -13 9 -23 25 -23 36 0 22 8 24 33 4z m97
-47 c0 -9 9 -20 21 -23 14 -5 18 -10 11 -17 -7 -7 -18 -4 -33 11 -13 11 -26
21 -30 21 -8 0 -18 47 -12 54 9 8 43 -28 43 -46z m-95 -18 c4 -7 13 -7 26 0
20 11 24 4 13 -24 -3 -9 -11 -16 -17 -16 -13 0 -47 30 -47 42 0 11 17 10 25
-2z m79 -33 c10 -7 17 -22 14 -33 -3 -18 -4 -18 -26 4 -35 35 -26 57 12 29z
m85 -23 c24 -31 26 -44 7 -44 -17 0 -39 26 -43 51 -4 27 12 24 36 -7z m54
-100 c11 -14 17 -28 14 -30 -3 -3 -15 9 -27 25 -12 17 -18 31 -13 31 4 0 16
-12 26 -26z"/>
<path d="M805 1354 c-18 -14 -18 -15 -1 -32 17 -16 18 -16 11 6 -8 27 0 28 29
5 12 -10 20 -26 18 -35 -2 -9 6 -23 17 -30 12 -7 21 -21 21 -31 0 -11 11 -28
24 -38 13 -11 23 -27 21 -37 -2 -9 -4 -19 -4 -21 -1 -2 -10 4 -21 14 -17 16
-20 16 -20 2 0 -9 10 -23 22 -31 21 -15 36 -56 19 -56 -12 0 -41 35 -41 51 0
13 -57 59 -73 59 -21 0 -2 -31 33 -54 30 -20 40 -33 40 -53 0 -26 -1 -26 -14
-7 -16 22 -30 15 -20 -10 7 -19 40 -22 47 -3 4 9 8 9 15 -2 16 -23 29 16 30
86 1 53 -3 65 -20 77 -11 8 -18 21 -15 29 3 7 -4 19 -14 26 -11 6 -17 17 -13
23 4 7 3 8 -4 4 -8 -5 -12 0 -12 13 0 11 -12 29 -28 39 -24 18 -30 18 -47 6z"/>
<path d="M2026 1351 c10 -10 22 -17 27 -14 4 2 7 -1 7 -6 0 -6 8 -11 18 -11
13 1 10 6 -13 25 -36 30 -69 35 -39 6z"/>
<path d="M936 1334 c-9 -22 -8 -24 9 -24 8 0 15 -4 15 -9 0 -5 8 -8 18 -6 9 2
22 4 27 4 10 1 -45 50 -56 51 -4 0 -10 -7 -13 -16z"/>
<path d="M1977 1343 c-4 -3 -7 -17 -7 -31 0 -21 2 -22 15 -12 8 7 15 21 15 31
0 19 -11 25 -23 12z"/>
<path d="M2499 1302 c-26 -20 -56 -44 -69 -52 -109 -75 -180 -136 -180 -155 0
-13 10 -9 43 17 55 43 51 40 132 101 38 28 79 60 89 70 11 9 23 17 27 17 4 0
9 9 12 20 7 28 -1 25 -54 -18z"/>
<path d="M2004 1301 c4 -5 0 -12 -6 -15 -9 -4 -10 -8 -2 -11 6 -3 35 -24 64
-45 29 -22 57 -37 63 -33 9 6 -30 42 -46 43 -5 0 -6 4 -3 8 6 11 -4 25 -34 45
-27 19 -45 22 -36 8z"/>
<path d="M1176 1256 c6 -15 34 -30 42 -22 6 6 -20 30 -35 33 -7 2 -10 -4 -7
-11z"/>
<path d="M820 1248 c0 -13 59 -68 73 -68 19 0 4 30 -27 54 -39 29 -46 31 -46
14z"/>
<path d="M1020 1220 c0 -14 30 -25 38 -14 4 5 6 8 3 7 -2 -1 -12 2 -22 8 -13
7 -19 6 -19 -1z"/>
<path d="M1136 1204 c-7 -19 -9 -17 23 -34 13 -6 21 -7 17 -2 -3 6 -1 12 6 14
9 3 8 9 -4 21 -21 21 -34 21 -42 1z"/>
<path d="M2180 1211 c0 -6 5 -13 10 -16 6 -3 10 1 10 9 0 9 -4 16 -10 16 -5 0
-10 -4 -10 -9z"/>
<path d="M2143 1199 c-7 -7 -13 -24 -13 -37 0 -21 1 -22 16 -8 8 9 14 25 12
37 -2 16 -5 18 -15 8z"/>
<path d="M1345 1060 c13 -15 22 -17 29 -10 12 12 -8 30 -33 30 -11 0 -10 -5 4
-20z"/>
<path d="M1753 1057 c-4 -7 -69 -59 -144 -114 -77 -57 -139 -110 -142 -122 -3
-12 -3 -21 0 -21 3 0 31 21 64 48 50 40 202 155 228 172 13 8 24 50 12 50 -5
0 -14 -6 -18 -13z"/>
<path d="M1197 1020 c-21 -35 -15 -52 9 -28 9 8 14 25 12 38 -3 20 -4 19 -21
-10z"/>
<path d="M1302 1014 c-10 -11 -8 -15 8 -24 21 -11 40 -6 40 10 0 18 -34 28
-48 14z"/>
<path d="M1875 930 c-4 -6 -23 -22 -43 -35 -21 -13 -62 -44 -93 -67 -30 -24
-68 -52 -83 -63 -51 -37 -66 -52 -66 -69 0 -15 103 57 249 172 19 15 37 29 41
32 3 3 9 13 13 23 7 18 -8 24 -18 7z"/>
<path d="M1364 879 c-16 -21 -25 -49 -15 -49 15 0 33 28 29 46 -2 14 -5 15
-14 3z"/>
<path d="M1523 725 c-7 -8 -13 -22 -13 -31 0 -16 2 -16 20 1 20 18 27 45 13
45 -5 -1 -14 -7 -20 -15z"/>
<path d="M1562 658 c-7 -7 -12 -21 -12 -32 1 -20 1 -20 20 3 29 34 22 59 -8
29z"/>
<path d="M1729 2204 c-10 -13 -10 -17 2 -25 20 -12 26 -11 33 7 12 32 -12 45
-35 18z"/>
<path d="M1656 2084 c-4 -10 -1 -14 6 -12 15 5 23 28 10 28 -5 0 -13 -7 -16
-16z"/>
<path d="M1620 1923 c0 -10 34 -32 50 -32 12 0 12 2 -2 13 -10 7 -16 15 -13
17 2 3 -5 5 -15 6 -11 1 -20 -1 -20 -4z"/>
<path d="M1788 2378 c-10 -12 -15 -24 -12 -27 3 -3 10 2 15 12 6 9 17 17 24
17 8 0 15 5 15 10 0 17 -24 11 -42 -12z"/>
<path d="M2575 1050 c-3 -5 -2 -10 4 -10 5 0 13 5 16 10 3 6 2 10 -4 10 -5 0
-13 -4 -16 -10z"/>
<path d="M2485 980 c-3 -5 1 -10 9 -10 9 0 16 5 16 10 0 6 -4 10 -9 10 -6 0
-13 -4 -16 -10z"/>
<path d="M1954 586 c-10 -8 -17 -17 -14 -19 3 -3 14 1 24 9 11 7 17 16 15 19
-3 3 -14 -2 -25 -9z"/>
</g>
</svg>
