<?xml version="1.0" standalone="no"?>
<!DOCTYPE svg PUBLIC "-//W3C//DTD SVG 20010904//EN"
 "http://www.w3.org/TR/2001/REC-SVG-20010904/DTD/svg10.dtd">
<svg version="1.0" xmlns="http://www.w3.org/2000/svg"
 width="300.000000pt" height="300.000000pt" viewBox="0 0 300.000000 300.000000"
 preserveAspectRatio="xMidYMid meet">
<metadata>
Created by potrace 1.10, written by Peter Selinger 2001-2011
</metadata>
<g transform="translate(0.000000,300.000000) scale(0.100000,-0.100000)"
fill="#000000" stroke="none">
<path d="M1405 2564 c-139 -35 -329 -129 -416 -206 -34 -29 -101 -131 -122
-184 -27 -71 -40 -207 -33 -356 3 -76 4 -138 2 -138 -3 0 -22 11 -42 25 -61
41 -90 34 -134 -34 -26 -42 -29 -54 -24 -97 12 -96 113 -323 165 -370 13 -12
41 -21 77 -24 l55 -5 22 -95 c11 -52 30 -113 42 -135 46 -90 76 -140 86 -147
7 -4 6 -30 -5 -85 -23 -112 -33 -132 -73 -149 -19 -8 -59 -29 -88 -48 -80 -51
-144 -81 -256 -120 -57 -20 -149 -60 -204 -89 -56 -29 -127 -59 -157 -66 -121
-29 -221 -71 -275 -115 -45 -36 -25 -41 25 -5 48 35 140 72 247 99 40 10 85
25 100 33 144 74 219 108 283 127 82 24 169 65 246 116 28 18 71 43 96 54 43
19 46 22 63 87 10 38 18 78 17 90 -1 13 2 23 6 23 10 0 72 -76 72 -88 0 -6 6
-12 14 -15 9 -4 12 -14 9 -26 -3 -12 -1 -21 6 -21 6 0 11 -7 11 -16 0 -8 5
-12 11 -9 7 5 4 14 -7 26 -9 11 -14 22 -9 27 4 4 10 1 12 -5 3 -7 11 -13 19
-13 8 0 14 -4 14 -9 0 -4 30 -28 68 -52 61 -40 73 -44 137 -46 l70 -2 -72 13
c-50 10 -88 25 -127 51 -69 45 -196 168 -225 215 -77 130 -104 185 -126 256
-14 44 -25 88 -25 98 0 9 -7 30 -15 47 -13 25 -20 28 -43 22 -14 -3 -32 -6
-38 -6 -18 0 -71 45 -85 73 -8 14 -24 42 -36 62 -13 21 -39 75 -58 122 -45
109 -46 158 -5 214 36 50 61 53 115 17 20 -14 42 -24 48 -22 7 2 11 75 12 218
1 205 2 217 27 279 52 134 124 210 266 283 129 67 214 96 319 109 133 16 198
2 338 -71 171 -90 256 -154 308 -233 61 -91 72 -142 63 -297 -5 -69 -7 -139
-7 -154 1 -16 -2 -26 -6 -24 -5 3 -6 -17 -5 -44 3 -40 7 -49 22 -49 11 0 22 5
25 10 4 6 11 8 16 5 5 -4 9 -1 9 5 0 7 7 10 15 6 8 -3 15 -1 15 4 0 13 47 13
55 0 4 -6 15 -8 25 -5 43 14 62 -64 39 -162 -54 -235 -110 -327 -193 -314 -11
2 -16 -2 -12 -8 10 -15 52 -14 84 3 59 31 132 228 149 404 6 64 -8 84 -72 102
-53 15 -105 7 -128 -20 -9 -11 -20 -20 -25 -20 -4 0 -2 69 6 153 21 252 2 346
-93 463 -44 53 -159 130 -303 202 l-113 56 -127 3 c-70 1 -136 0 -147 -3z"/>
<path d="M1040 2355 c-7 -8 -9 -15 -6 -15 4 0 14 7 22 15 9 8 11 15 6 15 -5 0
-15 -7 -22 -15z"/>
<path d="M1004 2315 c-10 -8 -14 -15 -8 -15 6 0 17 7 24 15 16 19 9 19 -16 0z"/>
<path d="M1182 2270 c-6 -11 -12 -22 -12 -25 0 -11 20 6 30 26 14 25 -2 25
-18 -1z"/>
<path d="M1360 2270 c-13 -8 -12 -10 3 -10 9 0 17 5 17 10 0 12 -1 12 -20 0z"/>
<path d="M1411 2254 c0 -11 3 -14 6 -6 3 7 2 16 -1 19 -3 4 -6 -2 -5 -13z"/>
<path d="M1980 2252 c0 -4 9 -13 20 -20 16 -10 20 -10 20 2 0 8 -7 17 -16 20
-20 8 -24 8 -24 -2z"/>
<path d="M1845 2240 c3 -5 10 -10 16 -10 5 0 9 5 9 10 0 6 -7 10 -16 10 -8 0
-12 -4 -9 -10z"/>
<path d="M1345 2220 c-3 -5 -1 -10 4 -10 6 0 11 5 11 10 0 6 -2 10 -4 10 -3 0
-8 -4 -11 -10z"/>
<path d="M1230 2179 c0 -5 5 -7 10 -4 6 3 10 8 10 11 0 2 -4 4 -10 4 -5 0 -10
-5 -10 -11z"/>
<path d="M1170 2170 c0 -5 5 -10 11 -10 5 0 7 5 4 10 -3 6 -8 10 -11 10 -2 0
-4 -4 -4 -10z"/>
<path d="M1790 2164 c0 -8 5 -12 10 -9 6 4 8 11 5 16 -9 14 -15 11 -15 -7z"/>
<path d="M1837 2147 c-18 -27 -13 -34 11 -18 8 5 12 17 10 27 -3 15 -6 14 -21
-9z"/>
<path d="M1288 2143 c7 -3 16 -2 19 1 4 3 -2 6 -13 5 -11 0 -14 -3 -6 -6z"/>
<path d="M1705 2120 c-3 -5 1 -10 10 -10 9 0 13 5 10 10 -3 6 -8 10 -10 10 -2
0 -7 -4 -10 -10z"/>
<path d="M1875 2120 c-3 -5 -1 -10 4 -10 6 0 11 5 11 10 0 6 -2 10 -4 10 -3 0
-8 -4 -11 -10z"/>
<path d="M1335 2101 c-6 -11 9 -23 19 -14 9 9 7 23 -3 23 -6 0 -12 -4 -16 -9z"/>
<path d="M1900 2090 c0 -5 5 -10 10 -10 6 0 10 5 10 10 0 6 -4 10 -10 10 -5 0
-10 -4 -10 -10z"/>
<path d="M1305 2070 c3 -5 8 -10 11 -10 2 0 4 5 4 10 0 6 -5 10 -11 10 -5 0
-7 -4 -4 -10z"/>
<path d="M1801 2061 c-11 -7 -10 -11 7 -20 26 -14 43 -14 19 0 -9 6 -15 14
-12 20 8 11 4 11 -14 0z"/>
<path d="M1728 2053 c7 -3 16 -2 19 1 4 3 -2 6 -13 5 -11 0 -14 -3 -6 -6z"/>
<path d="M1800 2004 c0 -8 5 -12 10 -9 6 3 10 10 10 16 0 5 -4 9 -10 9 -5 0
-10 -7 -10 -16z"/>
<path d="M1710 1990 c0 -5 5 -10 10 -10 6 0 10 5 10 10 0 6 -4 10 -10 10 -5 0
-10 -4 -10 -10z"/>
<path d="M1800 1965 c0 -8 2 -15 4 -15 2 0 6 7 10 15 3 8 1 15 -4 15 -6 0 -10
-7 -10 -15z"/>
<path d="M1865 1950 c3 -5 8 -10 11 -10 2 0 4 5 4 10 0 6 -5 10 -11 10 -5 0
-7 -4 -4 -10z"/>
<path d="M1075 1930 c-3 -5 -1 -10 4 -10 6 0 11 5 11 10 0 6 -2 10 -4 10 -3 0
-8 -4 -11 -10z"/>
<path d="M1772 1921 c-13 -9 -20 -20 -16 -23 3 -4 15 2 27 12 27 26 18 34 -11
11z"/>
<path d="M1650 1880 c-8 -5 -10 -10 -5 -10 6 0 17 5 25 10 8 5 11 10 5 10 -5
0 -17 -5 -25 -10z"/>
<path d="M1788 1883 c7 -3 16 -2 19 1 4 3 -2 6 -13 5 -11 0 -14 -3 -6 -6z"/>
<path d="M1850 1880 c0 -5 5 -10 11 -10 5 0 7 5 4 10 -3 6 -8 10 -11 10 -2 0
-4 -4 -4 -10z"/>
<path d="M1785 1850 c-3 -5 1 -10 9 -10 9 0 16 5 16 10 0 6 -4 10 -9 10 -6 0
-13 -4 -16 -10z"/>
<path d="M1820 1841 c0 -10 30 -24 37 -17 3 3 2 9 -2 15 -8 13 -35 15 -35 2z"/>
<path d="M1500 1829 c0 -5 5 -7 10 -4 6 3 10 8 10 11 0 2 -4 4 -10 4 -5 0 -10
-5 -10 -11z"/>
<path d="M1450 1809 c0 -5 5 -7 10 -4 6 3 10 8 10 11 0 2 -4 4 -10 4 -5 0 -10
-5 -10 -11z"/>
<path d="M1570 1800 c0 -5 5 -10 10 -10 6 0 10 5 10 10 0 6 -4 10 -10 10 -5 0
-10 -4 -10 -10z"/>
<path d="M1817 1803 c-11 -11 -8 -24 6 -22 32 4 55 -3 76 -22 31 -29 40 -15
11 16 -15 16 -30 23 -41 20 -10 -3 -20 -1 -24 5 -7 12 -19 13 -28 3z"/>
<path d="M1730 1779 c0 -5 5 -7 10 -4 6 3 10 8 10 11 0 2 -4 4 -10 4 -5 0 -10
-5 -10 -11z"/>
<path d="M1550 1760 c0 -5 5 -10 10 -10 6 0 10 5 10 10 0 6 -4 10 -10 10 -5 0
-10 -4 -10 -10z"/>
<path d="M1770 1746 c0 -9 -13 -18 -35 -22 -20 -3 -34 -11 -32 -18 5 -14 49
-10 58 5 4 6 9 7 11 3 3 -5 4 -4 2 2 -1 6 2 16 8 22 6 6 6 12 -1 16 -6 4 -11
0 -11 -8z"/>
<path d="M1656 1733 c-4 -5 -16 -8 -27 -8 -26 0 -25 -19 1 -23 21 -4 50 13 50
29 0 11 -14 12 -24 2z"/>
<path d="M1812 1718 c3 -7 13 -15 24 -17 16 -3 17 -1 5 13 -16 19 -34 21 -29
4z"/>
<path d="M1932 1710 c0 -14 2 -19 5 -12 2 6 2 18 0 25 -3 6 -5 1 -5 -13z"/>
<path d="M1895 1700 c-3 -5 1 -10 10 -10 9 0 13 5 10 10 -3 6 -8 10 -10 10 -2
0 -7 -4 -10 -10z"/>
<path d="M1015 1690 c3 -5 11 -10 16 -10 6 0 7 5 4 10 -3 6 -11 10 -16 10 -6
0 -7 -4 -4 -10z"/>
<path d="M1545 1680 c-11 -12 -31 -20 -52 -20 -18 0 -33 -4 -33 -9 0 -17 27
-20 54 -6 14 8 26 10 26 4 0 -5 4 -9 10 -9 5 0 7 6 4 14 -6 17 29 31 48 20 9
-6 9 -3 -1 9 -18 22 -34 21 -56 -3z"/>
<path d="M894 1668 c1 -13 -4 -22 -11 -20 -7 1 -13 -3 -13 -9 0 -15 21 -6 34
14 7 11 7 20 0 27 -8 8 -10 4 -10 -12z"/>
<path d="M1288 1682 c-16 -2 -28 -10 -28 -18 0 -16 9 -18 30 -4 10 6 20 4 32
-7 16 -14 18 -14 18 -1 0 22 -21 34 -52 30z"/>
<path d="M704 1653 c-30 -33 -33 -101 -5 -159 10 -21 22 -52 25 -69 9 -38 70
-105 96 -105 11 0 24 -8 29 -19 13 -24 40 -34 55 -22 8 7 12 4 13 -11 2 -23
43 -71 43 -50 0 6 -9 26 -20 44 -14 23 -16 35 -8 45 13 16 3 43 -16 43 -12 0
-14 -5 -6 -25 8 -21 7 -25 -9 -25 -10 0 -30 9 -44 20 -14 11 -30 20 -36 20 -6
0 -11 7 -11 15 0 8 -8 15 -19 15 -32 0 -51 43 -51 115 0 39 4 65 11 65 5 0 7
5 3 12 -5 8 -11 6 -19 -5 -7 -10 -17 -17 -23 -17 -28 0 -20 80 9 87 10 3 16 9
13 14 -3 5 0 9 5 9 6 0 11 -3 11 -8 0 -12 108 -121 114 -115 7 7 0 -20 -16
-69 -14 -41 -28 -50 -28 -19 0 10 -7 21 -15 25 -12 4 -14 17 -9 56 4 39 3 49
-8 45 -10 -4 -14 -24 -13 -63 0 -63 23 -100 78 -129 37 -19 49 -7 18 16 l-24
19 21 41 c30 57 28 86 -5 107 -16 9 -46 38 -68 64 -22 27 -46 51 -53 54 -7 3
-24 -6 -38 -21z"/>
<path d="M1138 1660 c-24 -22 -23 -33 1 -20 11 5 41 10 67 10 56 0 48 15 -11
22 -29 4 -45 0 -57 -12z"/>
<path d="M1050 1660 c0 -5 5 -10 11 -10 5 0 7 5 4 10 -3 6 -8 10 -11 10 -2 0
-4 -4 -4 -10z"/>
<path d="M1382 1658 c2 -6 17 -12 32 -13 25 -1 26 1 10 12 -22 16 -47 17 -42
1z"/>
<path d="M1088 1630 c-4 -13 -87 -20 -94 -9 -10 18 -19 8 -19 -21 0 -28 1 -28
22 -15 12 8 29 12 37 9 9 -3 16 -1 16 5 0 6 18 11 41 11 36 0 39 2 25 15 -17
18 -23 19 -28 5z"/>
<path d="M897 1613 c-10 -9 -9 -41 2 -47 4 -3 8 8 7 24 -1 17 -1 30 -2 30 0 0
-4 -3 -7 -7z"/>
<path d="M2216 1592 c-3 -5 1 -9 9 -9 8 0 12 4 9 9 -3 4 -7 8 -9 8 -2 0 -6 -4
-9 -8z"/>
<path d="M1012 1563 c14 -4 16 -8 8 -24 -12 -21 -6 -39 13 -39 7 0 32 -21 56
-45 25 -25 50 -45 57 -45 6 0 34 -19 61 -42 83 -73 86 -74 140 -33 25 19 54
35 64 35 11 0 19 7 19 16 0 20 -36 10 -67 -18 -13 -12 -27 -17 -35 -12 -7 4
-10 4 -6 -1 12 -13 -19 -35 -39 -28 -28 10 -44 36 -30 46 7 5 3 7 -10 4 -13
-3 -23 -1 -23 4 0 5 -6 9 -12 9 -7 0 -26 11 -43 24 l-30 24 40 11 c27 7 41 7
46 0 4 -7 8 -5 12 4 3 9 20 17 38 19 l33 3 -28 14 c-24 13 -30 13 -56 -2 -45
-27 -92 -24 -132 6 -19 15 -40 27 -46 27 -15 0 -15 17 -1 26 14 8 -8 24 -31
23 -11 -1 -10 -3 2 -6z"/>
<path d="M2130 1552 c0 -5 7 -17 15 -28 15 -19 20 -8 9 20 -6 17 -24 22 -24 8z"/>
<path d="M1096 1533 c-6 -14 -5 -15 5 -6 7 7 10 15 7 18 -3 3 -9 -2 -12 -12z"/>
<path d="M1254 1535 c-10 -8 -14 -14 -9 -15 15 0 40 18 34 24 -3 3 -14 -1 -25
-9z"/>
<path d="M1380 1532 c0 -12 19 -26 26 -19 2 2 -2 10 -11 17 -9 8 -15 8 -15 2z"/>
<path d="M920 1516 c0 -9 5 -16 10 -16 6 0 10 4 10 9 0 6 -4 13 -10 16 -5 3
-10 -1 -10 -9z"/>
<path d="M1170 1515 c-7 -9 -10 -18 -7 -22 4 -3 9 2 13 11 3 9 11 13 17 9 6
-3 7 -1 3 5 -9 15 -11 15 -26 -3z"/>
<path d="M1968 1523 c6 -2 18 -2 25 0 6 3 1 5 -13 5 -14 0 -19 -2 -12 -5z"/>
<path d="M832 1498 c-7 -7 -12 -16 -12 -21 0 -5 7 -1 16 8 9 9 14 18 12 20 -2
3 -10 -1 -16 -7z"/>
<path d="M1325 1500 c3 -5 8 -10 11 -10 2 0 4 5 4 10 0 6 -5 10 -11 10 -5 0
-7 -4 -4 -10z"/>
<path d="M1868 1495 c-3 -4 -27 -11 -54 -18 -26 -7 -49 -19 -51 -27 -3 -10 -2
-11 4 -4 4 6 29 14 55 18 25 4 52 14 58 21 12 14 0 22 -12 10z"/>
<path d="M2245 1490 c4 -6 11 -8 16 -5 14 9 11 15 -7 15 -8 0 -12 -5 -9 -10z"/>
<path d="M1675 1480 c-3 -6 1 -7 9 -4 18 7 21 14 7 14 -6 0 -13 -4 -16 -10z"/>
<path d="M1960 1479 c0 -5 11 -9 25 -9 14 0 25 2 25 4 0 2 -11 6 -25 8 -14 3
-25 1 -25 -3z"/>
<path d="M1715 1470 c3 -5 10 -10 16 -10 5 0 9 5 9 10 0 6 -7 10 -16 10 -8 0
-12 -4 -9 -10z"/>
<path d="M1010 1460 c0 -5 5 -10 11 -10 5 0 7 5 4 10 -3 6 -8 10 -11 10 -2 0
-4 -4 -4 -10z"/>
<path d="M900 1440 c0 -11 0 -23 -1 -27 0 -4 3 -9 8 -10 5 -2 9 10 8 27 0 16
-3 30 -7 30 -5 0 -8 -9 -8 -20z"/>
<path d="M2151 1440 c14 -31 19 -36 19 -24 0 6 -7 19 -16 30 -14 18 -14 18 -3
-6z"/>
<path d="M2190 1445 c0 -8 4 -15 10 -15 5 0 7 7 4 15 -4 8 -8 15 -10 15 -2 0
-4 -7 -4 -15z"/>
<path d="M2310 1433 c0 -18 2 -33 4 -33 9 0 13 39 5 51 -6 10 -9 4 -9 -18z"/>
<path d="M2240 1440 c0 -5 5 -10 10 -10 6 0 10 5 10 10 0 6 -4 10 -10 10 -5 0
-10 -4 -10 -10z"/>
<path d="M1030 1430 c-8 -5 -10 -10 -5 -10 6 0 17 5 25 10 8 5 11 10 5 10 -5
0 -17 -5 -25 -10z"/>
<path d="M1180 1436 c0 -2 7 -9 15 -16 12 -10 15 -10 15 4 0 9 -7 16 -15 16
-8 0 -15 -2 -15 -4z"/>
<path d="M1455 1430 c3 -5 8 -10 11 -10 2 0 4 5 4 10 0 6 -5 10 -11 10 -5 0
-7 -4 -4 -10z"/>
<path d="M2291 1428 c0 -9 -7 -18 -13 -21 -10 -4 -10 -7 -1 -17 10 -11 13 -10
19 3 3 9 4 24 1 34 -4 15 -5 15 -6 1z"/>
<path d="M2216 1413 c-6 -14 -5 -15 5 -6 7 7 10 15 7 18 -3 3 -9 -2 -12 -12z"/>
<path d="M1076 1405 c4 -8 10 -15 15 -15 4 0 6 7 3 15 -4 8 -10 15 -15 15 -4
0 -6 -7 -3 -15z"/>
<path d="M1260 1410 c-13 -9 -13 -10 0 -10 8 0 22 5 30 10 13 9 13 10 0 10 -8
0 -22 -5 -30 -10z"/>
<path d="M1480 1411 c0 -5 -10 -12 -22 -16 -15 -4 -18 -8 -10 -12 7 -3 19 0
27 7 8 6 19 9 25 5 5 -3 10 1 10 9 0 9 -7 16 -15 16 -8 0 -15 -4 -15 -9z"/>
<path d="M1546 1411 c-17 -6 -17 -8 -4 -14 10 -3 19 0 22 9 3 8 4 14 3 13 -1
0 -11 -4 -21 -8z"/>
<path d="M2167 1384 c-28 -26 -36 -47 -14 -38 14 6 51 54 45 59 -2 3 -16 -7
-31 -21z"/>
<path d="M1520 1380 c0 -5 18 -29 40 -51 48 -50 56 -28 9 26 -31 35 -49 44
-49 25z"/>
<path d="M2216 1365 c-10 -14 -16 -29 -13 -31 7 -8 39 35 35 47 -2 7 -12 0
-22 -16z"/>
<path d="M1130 1369 c0 -5 5 -7 10 -4 6 3 10 8 10 11 0 2 -4 4 -10 4 -5 0 -10
-5 -10 -11z"/>
<path d="M1590 1371 c0 -6 4 -13 10 -16 6 -3 7 1 4 9 -7 18 -14 21 -14 7z"/>
<path d="M1280 1360 c-8 -5 -11 -12 -8 -16 4 -3 14 1 23 10 18 17 9 21 -15 6z"/>
<path d="M1164 1344 c18 -17 26 -18 26 -1 0 7 -9 13 -20 14 -18 2 -18 0 -6
-13z"/>
<path d="M1488 1333 c-5 -17 0 -22 20 -26 22 -4 24 -3 11 6 -9 7 -18 19 -21
27 -3 10 -6 9 -10 -7z"/>
<path d="M2290 1340 c-8 -5 -12 -12 -9 -15 4 -3 12 1 19 10 14 17 11 19 -10 5z"/>
<path d="M1126 1321 c-4 -5 3 -7 14 -4 23 6 26 13 6 13 -8 0 -17 -4 -20 -9z"/>
<path d="M1400 1320 c-8 -5 -12 -12 -9 -15 4 -3 12 1 19 10 14 17 11 19 -10 5z"/>
<path d="M2225 1311 c-3 -5 -1 -12 5 -16 5 -3 10 1 10 9 0 18 -6 21 -15 7z"/>
<path d="M1166 1294 c-9 -23 -8 -24 19 -24 30 0 32 11 6 27 -16 10 -20 9 -25
-3z"/>
<path d="M2155 1300 c-3 -5 -1 -10 4 -10 6 0 11 5 11 10 0 6 -2 10 -4 10 -3 0
-8 -4 -11 -10z"/>
<path d="M1087 1293 c-12 -19 3 -41 24 -36 11 3 22 10 25 15 4 6 -2 8 -14 4
-15 -5 -21 -2 -24 11 -2 12 -6 14 -11 6z"/>
<path d="M1549 1277 c-9 -7 -16 -20 -16 -30 0 -13 7 -17 26 -15 14 2 29 7 32
12 4 5 22 -5 40 -23 19 -17 28 -31 22 -31 -7 0 -13 -4 -13 -10 0 -12 10 -13
29 -1 11 7 10 14 -5 40 -10 17 -24 31 -31 31 -7 0 -13 4 -13 9 0 4 -11 6 -25
3 -20 -3 -24 -1 -19 12 7 19 -5 20 -27 3z"/>
<path d="M1298 1233 c-33 -60 -36 -75 -9 -46 11 12 25 23 31 25 7 2 10 18 8
38 l-3 34 -27 -51z"/>
<path d="M828 1263 c7 -3 16 -2 19 1 4 3 -2 6 -13 5 -11 0 -14 -3 -6 -6z"/>
<path d="M1485 1260 c3 -5 8 -10 11 -10 2 0 4 5 4 10 0 6 -5 10 -11 10 -5 0
-7 -4 -4 -10z"/>
<path d="M1147 1253 c-12 -12 -7 -22 8 -17 8 4 15 10 15 15 0 11 -14 12 -23 2z"/>
<path d="M997 1229 c-23 -26 -21 -34 8 -53 14 -9 25 -12 25 -6 0 6 -7 13 -15
16 -20 8 -19 24 2 39 9 7 12 15 6 18 -5 3 -17 -3 -26 -14z"/>
<path d="M1415 1240 c3 -5 10 -10 16 -10 5 0 9 5 9 10 0 6 -7 10 -16 10 -8 0
-12 -4 -9 -10z"/>
<path d="M1480 1225 c-9 -10 -9 -15 -1 -15 6 0 11 4 11 9 0 5 8 12 18 14 14 4
14 5 1 6 -9 0 -22 -6 -29 -14z"/>
<path d="M2136 1218 c-9 -12 -16 -37 -16 -55 0 -52 -87 -302 -127 -367 -14
-21 -21 -36 -16 -33 4 3 13 0 19 -7 34 -37 -116 -212 -231 -271 -32 -16 -69
-40 -83 -52 -13 -13 -28 -20 -33 -17 -5 3 -9 -2 -9 -10 0 -9 -4 -16 -9 -16 -5
0 -31 -20 -57 -44 -26 -25 -50 -44 -53 -43 -3 1 -7 -2 -9 -8 -5 -15 -34 -45
-43 -45 -5 0 -6 7 -3 15 3 7 -10 -1 -30 -20 -20 -18 -36 -37 -36 -42 0 -12
-26 -33 -114 -93 -74 -50 -122 -97 -111 -109 3 -3 16 7 28 21 12 14 60 54 107
87 85 62 151 114 246 197 73 63 172 136 222 164 23 13 42 27 42 32 0 4 6 8 14
8 8 0 23 10 33 23 10 13 33 32 51 43 24 14 43 40 70 96 l37 77 55 -5 c30 -3
79 -10 108 -15 54 -11 91 -4 150 27 59 31 146 12 237 -50 37 -26 45 -27 105
-22 36 4 82 8 102 10 28 3 42 -2 56 -18 36 -39 44 -68 46 -157 l1 -89 -32 0
c-18 0 -33 -4 -33 -10 0 -5 15 -10 33 -10 19 0 59 -9 90 -19 44 -16 57 -17 57
-7 0 8 -20 19 -44 25 -51 13 -56 23 -56 132 0 84 -12 118 -56 156 -31 27 -79
30 -138 9 -47 -16 -94 -7 -139 27 -82 63 -162 72 -254 31 -54 -24 -62 -25
-118 -15 -33 7 -90 13 -127 14 -38 1 -68 5 -68 10 0 5 8 21 18 35 25 37 47 86
67 152 9 30 23 72 31 92 8 21 17 64 20 95 4 32 11 64 17 71 5 7 7 15 4 18 -3
3 -12 -5 -21 -18z"/>
<path d="M1250 1215 c0 -8 2 -15 4 -15 2 0 6 7 10 15 3 8 1 15 -4 15 -6 0 -10
-7 -10 -15z"/>
<path d="M1063 1203 c9 -2 23 -2 30 0 6 3 -1 5 -18 5 -16 0 -22 -2 -12 -5z"/>
<path d="M1125 1197 c-21 -12 -28 -69 -10 -84 4 -5 5 -3 1 4 -3 6 -1 15 5 18
5 4 8 13 5 21 -3 7 7 22 21 34 27 21 12 26 -22 7z"/>
<path d="M1495 1193 c-57 -17 -59 -18 -51 -31 4 -7 25 -5 59 4 29 8 68 12 90
8 47 -7 48 1 1 21 -43 18 -36 18 -99 -2z"/>
<path d="M1227 1193 c-4 -3 -7 -11 -7 -17 0 -6 5 -5 12 2 6 6 9 14 7 17 -3 3
-9 2 -12 -2z"/>
<path d="M984 1135 c4 -44 34 -121 43 -111 3 3 -4 29 -15 58 -12 29 -23 62
-26 73 -3 11 -4 2 -2 -20z"/>
<path d="M1332 1150 c-11 -18 -9 -26 17 -63 25 -36 147 -127 155 -116 1 2 -1
18 -5 34 -4 17 -7 24 -8 18 -2 -19 -31 -16 -31 3 0 10 -5 14 -15 10 -9 -3 -25
0 -36 7 -27 16 -61 86 -53 109 7 24 -8 23 -24 -2z"/>
<path d="M1370 1146 c0 -20 4 -24 17 -19 9 4 14 2 10 -3 -3 -6 8 -11 24 -12
16 -1 29 2 29 8 0 5 -7 10 -15 10 -8 0 -15 7 -15 15 0 8 -4 15 -9 15 -5 0 -16
3 -25 6 -12 5 -16 0 -16 -20z"/>
<path d="M1660 1155 c0 -8 5 -15 10 -15 6 0 10 7 10 15 0 8 -4 15 -10 15 -5 0
-10 -7 -10 -15z"/>
<path d="M1552 1144 c-36 -15 -50 -40 -33 -57 9 -9 11 -8 6 4 -6 17 31 39 65
39 11 0 20 4 20 9 0 17 -26 19 -58 5z"/>
<path d="M1628 1119 c-25 -14 -22 -30 5 -25 12 1 23 10 25 19 4 19 -5 21 -30
6z"/>
<path d="M1046 1100 c6 -8 13 -22 16 -30 3 -9 7 -10 11 -3 4 6 -3 19 -16 29
-12 11 -17 12 -11 4z"/>
<path d="M1387 1093 c-4 -3 2 -13 14 -21 26 -18 35 -10 11 11 -10 10 -22 14
-25 10z"/>
<path d="M1440 1088 c0 -4 12 -8 27 -8 14 0 23 3 19 7 -10 10 -46 11 -46 1z"/>
<path d="M1140 1070 c0 -5 4 -10 9 -10 6 0 13 5 16 10 3 6 -1 10 -9 10 -9 0
-16 -4 -16 -10z"/>
<path d="M1590 1062 c0 -18 12 -42 21 -42 14 0 10 26 -6 40 -9 8 -15 8 -15 2z"/>
<path d="M1510 1020 c0 -5 5 -10 10 -10 6 0 10 5 10 10 0 6 -4 10 -10 10 -5 0
-10 -4 -10 -10z"/>
<path d="M1050 999 c0 -5 5 -7 10 -4 6 3 10 8 10 11 0 2 -4 4 -10 4 -5 0 -10
-5 -10 -11z"/>
<path d="M1352 1002 c-9 -6 -10 -15 -3 -33 9 -21 10 -22 12 -4 1 11 1 23 0 28
-2 11 14 8 27 -5 8 -8 12 -8 12 -1 0 6 -7 14 -16 17 -19 7 -16 7 -32 -2z"/>
<path d="M1030 983 c0 -4 5 -15 10 -23 8 -13 10 -13 10 2 0 9 -4 20 -10 23 -5
3 -10 3 -10 -2z"/>
<path d="M1070 980 c0 -5 5 -10 10 -10 6 0 10 5 10 10 0 6 -4 10 -10 10 -5 0
-10 -4 -10 -10z"/>
<path d="M1610 980 c0 -5 5 -10 10 -10 6 0 10 5 10 10 0 6 -4 10 -10 10 -5 0
-10 -4 -10 -10z"/>
<path d="M1300 962 c-30 -5 -65 -38 -75 -72 -10 -33 -25 -51 -36 -44 -5 3 -9
-2 -9 -10 0 -9 3 -16 6 -16 10 0 54 50 54 61 0 18 40 49 64 49 13 0 26 7 29
15 7 18 -1 22 -33 17z"/>
<path d="M1530 963 c-8 -3 -18 -11 -22 -17 -5 -7 -14 -6 -30 2 -18 10 -31 9
-63 -2 -21 -8 -41 -19 -43 -26 -3 -9 0 -10 9 -5 7 5 37 10 66 11 75 3 110 13
110 29 0 16 -3 17 -27 8z"/>
<path d="M1653 953 c9 -2 25 -2 35 0 9 3 1 5 -18 5 -19 0 -27 -2 -17 -5z"/>
<path d="M1080 930 c0 -5 5 -10 11 -10 5 0 7 5 4 10 -3 6 -8 10 -11 10 -2 0
-4 -4 -4 -10z"/>
<path d="M1110 910 c-9 -6 -10 -10 -3 -10 6 0 15 5 18 10 8 12 4 12 -15 0z"/>
<path d="M1597 909 c-12 -3 -61 -5 -109 -5 -85 1 -87 0 -65 -16 23 -18 67 -24
67 -10 0 5 19 9 43 10 23 1 75 4 115 6 70 5 74 4 99 -22 l26 -27 -7 30 c-4 16
-13 33 -19 37 -13 8 -114 6 -150 -3z"/>
<path d="M1317 902 c-4 -6 -14 -9 -22 -5 -10 3 -15 -1 -15 -15 0 -18 3 -20 32
-11 41 11 47 11 28 -1 -10 -7 -3 -8 25 -5 22 2 45 4 50 5 6 0 2 5 -8 11 -9 5
-22 7 -29 3 -6 -4 -8 -3 -5 3 4 6 -2 13 -13 16 -11 3 -18 1 -14 -4 3 -5 1 -9
-5 -9 -5 0 -11 5 -13 12 -3 9 -6 9 -11 0z"/>
<path d="M1570 849 c-14 -6 -37 -9 -52 -6 -19 2 -28 -1 -28 -10 0 -18 -17 -16
-24 3 -6 15 -26 11 -26 -6 0 -12 38 -23 51 -14 7 4 32 7 57 8 35 1 46 5 48 19
1 9 2 17 1 16 -1 0 -13 -5 -27 -10z"/>
<path d="M1610 850 c0 -5 5 -10 10 -10 6 0 10 5 10 10 0 6 -4 10 -10 10 -5 0
-10 -4 -10 -10z"/>
<path d="M1308 843 c7 -3 16 -2 19 1 4 3 -2 6 -13 5 -11 0 -14 -3 -6 -6z"/>
<path d="M1398 843 c6 -2 18 -2 25 0 6 3 1 5 -13 5 -14 0 -19 -2 -12 -5z"/>
<path d="M1104 831 c3 -5 16 -11 28 -14 22 -6 22 -5 4 8 -22 17 -40 20 -32 6z"/>
<path d="M1220 790 c6 -11 12 -20 14 -20 2 0 2 9 -1 20 -3 11 -9 20 -15 20 -5
0 -4 -9 2 -20z"/>
<path d="M1393 803 c-7 -2 -13 -9 -13 -15 0 -6 6 -8 14 -5 7 3 19 0 26 -6 9
-9 11 -8 8 7 -3 21 -16 27 -35 19z"/>
<path d="M1130 776 c0 -2 8 -10 18 -17 15 -13 16 -12 3 4 -13 16 -21 21 -21
13z"/>
<path d="M1465 770 c-3 -6 1 -7 9 -4 18 7 21 14 7 14 -6 0 -13 -4 -16 -10z"/>
<path d="M1199 716 c14 -14 27 -26 29 -26 10 0 -26 44 -39 48 -8 3 -3 -7 10
-22z"/>
<path d="M1280 701 c0 -5 7 -12 16 -15 14 -5 15 -4 4 9 -14 17 -20 19 -20 6z"/>
<path d="M1262 671 c2 -8 15 -21 29 -30 19 -11 21 -12 9 0 -8 8 -20 21 -28 29
-11 12 -13 12 -10 1z"/>
<path d="M1151 633 c7 -10 15 -20 16 -22 2 -2 3 3 3 11 0 9 -7 19 -16 22 -15
6 -15 4 -3 -11z"/>
<path d="M1420 620 c-8 -5 -12 -12 -9 -15 4 -3 12 1 19 10 14 17 11 19 -10 5z"/>
<path d="M2826 601 c-4 -7 -5 -15 -2 -18 9 -9 19 4 14 18 -4 11 -6 11 -12 0z"/>
<path d="M1341 596 c2 -2 15 -9 29 -16 23 -12 24 -12 11 3 -7 10 -20 17 -29
17 -8 0 -13 -2 -11 -4z"/>
<path d="M2851 584 c0 -11 3 -14 6 -6 3 7 2 16 -1 19 -3 4 -6 -2 -5 -13z"/>
<path d="M1425 570 c-3 -5 -1 -10 4 -10 6 0 11 5 11 10 0 6 -2 10 -4 10 -3 0
-8 -4 -11 -10z"/>
<path d="M2155 540 c-3 -6 1 -7 9 -4 18 7 21 14 7 14 -6 0 -13 -4 -16 -10z"/>
<path d="M1250 515 c13 -14 26 -22 29 -19 3 4 0 9 -6 11 -7 3 -13 11 -13 19 0
8 -8 14 -17 14 -14 0 -12 -4 7 -25z"/>
<path d="M1636 523 c-6 -14 -5 -15 5 -6 7 7 10 15 7 18 -3 3 -9 -2 -12 -12z"/>
<path d="M1195 495 c31 -25 45 -31 45 -17 0 8 -53 42 -67 42 -4 0 6 -11 22
-25z"/>
<path d="M1590 510 c-13 -8 -12 -10 3 -10 9 0 17 5 17 10 0 12 -1 12 -20 0z"/>
<path d="M2780 510 c0 -5 7 -10 16 -10 8 0 12 5 9 10 -3 6 -10 10 -16 10 -5 0
-9 -4 -9 -10z"/>
<path d="M2810 480 c0 -5 5 -10 10 -10 6 0 10 5 10 10 0 6 -4 10 -10 10 -5 0
-10 -4 -10 -10z"/>
<path d="M1170 471 c0 -12 37 -34 51 -29 5 2 -4 11 -21 21 -16 10 -30 14 -30
8z"/>
<path d="M1280 445 c6 -16 9 -34 6 -42 -3 -7 -1 -13 4 -13 16 0 11 56 -5 70
-14 11 -14 10 -5 -15z"/>
<path d="M2775 450 c3 -5 14 -10 23 -10 15 0 15 2 2 10 -20 13 -33 13 -25 0z"/>
<path d="M2760 391 c0 -6 4 -13 10 -16 6 -3 7 1 4 9 -7 18 -14 21 -14 7z"/>
<path d="M1310 389 c0 -4 7 -20 15 -35 8 -16 15 -22 15 -13 0 14 -29 61 -30
48z"/>
<path d="M2057 345 c-24 -50 -21 -69 4 -20 10 21 18 43 16 48 -1 5 -10 -8 -20
-28z"/>
<path d="M1195 310 c-3 -5 -2 -10 4 -10 5 0 13 5 16 10 3 6 2 10 -4 10 -5 0
-13 -4 -16 -10z"/>
<path d="M1338 313 c7 -3 16 -2 19 1 4 3 -2 6 -13 5 -11 0 -14 -3 -6 -6z"/>
<path d="M1280 299 c0 -5 5 -7 10 -4 6 3 10 8 10 11 0 2 -4 4 -10 4 -5 0 -10
-5 -10 -11z"/>
<path d="M1230 286 c0 -9 5 -16 10 -16 6 0 10 4 10 9 0 6 -4 13 -10 16 -5 3
-10 -1 -10 -9z"/>
<path d="M1370 275 c0 -8 2 -15 4 -15 2 0 6 7 10 15 3 8 1 15 -4 15 -6 0 -10
-7 -10 -15z"/>
<path d="M1180 266 c0 -2 7 -9 15 -16 9 -7 15 -8 15 -2 0 5 -7 12 -15 16 -8 3
-15 4 -15 2z"/>
<path d="M1277 259 c7 -7 15 -10 18 -7 3 3 -2 9 -12 12 -14 6 -15 5 -6 -5z"/>
<path d="M2004 215 c-10 -19 -23 -35 -28 -35 -5 0 -7 -2 -4 -5 11 -11 37 8 48
36 18 43 7 45 -16 4z"/>
<path d="M1230 230 c0 -5 7 -7 15 -4 8 4 15 8 15 10 0 2 -7 4 -15 4 -8 0 -15
-4 -15 -10z"/>
<path d="M2733 170 c0 -34 4 -57 8 -53 15 15 15 113 1 113 -5 0 -9 -27 -9 -60z"/>
<path d="M1350 200 c0 -5 -10 -10 -22 -10 -22 -1 -22 -1 -4 -11 14 -9 20 -8
27 2 10 16 12 29 4 29 -3 0 -5 -4 -5 -10z"/>
<path d="M1816 184 c-8 -22 -4 -25 11 -9 7 8 9 16 4 19 -5 3 -12 -1 -15 -10z"/>
<path d="M1453 129 c52 -45 57 -64 26 -103 -23 -30 -19 -34 11 -9 20 17 27 67
12 89 -11 15 -78 64 -88 64 -5 0 12 -18 39 -41z"/>
<path d="M1790 132 c-8 -9 -16 -26 -18 -36 -3 -16 -2 -17 10 -5 12 11 31 59
24 59 -1 0 -8 -8 -16 -18z"/>
<path d="M1125 100 c-3 -6 1 -7 9 -4 18 7 21 14 7 14 -6 0 -13 -4 -16 -10z"/>
<path d="M2727 80 c-3 -11 -1 -23 4 -26 5 -3 9 6 9 20 0 31 -6 34 -13 6z"/>
<path d="M1747 44 c-10 -13 -13 -24 -8 -24 10 0 36 39 29 45 -2 2 -11 -8 -21
-21z"/>
<path d="M1130 52 c0 -12 19 -26 26 -19 2 2 -2 10 -11 17 -9 8 -15 8 -15 2z"/>
<path d="M1249 34 c-23 -25 -23 -26 -2 -13 13 7 25 19 27 26 8 19 2 16 -25
-13z"/>
</g>
</svg>
