<svg xmlns="http://www.w3.org/2000/svg" viewBox="0 0 1080 1080" width="1080" height="1080" style="width: 100%; height: 100%; transform: translate3d(0,0,0);" preserveAspectRatio="xMidYMid meet"><defs><clipPath id="__lottie_element_2"><rect width="1080" height="1080" x="0" y="0"></rect></clipPath><mask id="__lottie_element_4"><rect fill="#ffffff" width="1080" height="1080" transform="matrix(1,0,0,1,0,0)"></rect><path fill="#000000" clip-rule="nonzero" d=" M747.7459716796875,540.5 C747.7459716796875,555.8670043945312 746.073974609375,570.843994140625 742.9010009765625,585.2579956054688 C722.4409790039062,678.2020263671875 341.4620056152344,474.3290100097656 356.00799560546875,445.9909973144531 C390.36700439453125,379.0530090332031 460.0849914550781,333.25299072265625 540.5,333.25299072265625 C654.958984375,333.25299072265625 747.7459716796875,426.0409851074219 747.7459716796875,540.5" fill-opacity="1"></path></mask></defs><g clip-path="url(#__lottie_element_2)"><g style="display: block;" transform="matrix(1,0,0,1,0,0)" opacity="1"><g opacity="1" transform="matrix(1,0,0,1,540,540)"><path stroke-linecap="butt" stroke-linejoin="miter" fill-opacity="0" stroke-miterlimit="10" stroke="rgb(0,0,0)" stroke-opacity="1" stroke-width="13" d=" M207.2469940185547,0 C207.2469940185547,114.45899963378906 114.45899963378906,207.24600219726562 0,207.24600219726562 C-114.45899963378906,207.24600219726562 -207.24600219726562,114.45899963378906 -207.24600219726562,0 C-207.24600219726562,-114.45899963378906 -114.45899963378906,-207.24600219726562 0,-207.24600219726562 C114.45899963378906,-207.24600219726562 207.2469940185547,-114.45899963378906 207.2469940185547,0z"></path></g></g><g mask="url(#__lottie_element_4)" style="display: block;" transform="matrix(1,0,0,1,0,0)" opacity="1"><g opacity="1" transform="matrix(1,0,0,1,540,540)"><path stroke-linecap="round" stroke-linejoin="miter" fill-opacity="0" stroke-miterlimit="10" stroke="rgb(0,0,0)" stroke-opacity="1" stroke-width="12" d=" M276.5790100097656,87.60600280761719 C250.87899780273438,52.07600021362305 148.85400390625,-5.493000030517578 20.586000442504883,-54.20600128173828 C-135.20599365234375,-113.37000274658203 -270.71600341796875,-137.06300354003906 -282.0849914550781,-107.1259994506836 C-284.0929870605469,-101.83699798583984 -282.0929870605469,-95.22799682617188 -276.5790100097656,-87.6050033569336"></path></g><g opacity="1" transform="matrix(1,0,0,1,540,540)"><path stroke-linecap="round" stroke-linejoin="miter" fill-opacity="0" stroke-miterlimit="10" stroke="rgb(0,0,0)" stroke-opacity="1" stroke-width="12" d=" M368.6499938964844,166.22999572753906 C309.3240051269531,185.7220001220703 147.3179931640625,155.08200073242188 -32.902000427246094,86.63999938964844 C-248.9530029296875,4.590000152587891 -409.3659973144531,-100.71299743652344 -391.1940002441406,-148.56199645996094 C-388.17999267578125,-156.4980010986328 -380.4440002441406,-162.35499572753906 -368.64898681640625,-166.22999572753906"></path></g></g></g></svg>