<svg xmlns="http://www.w3.org/2000/svg" xmlns:xlink="http://www.w3.org/1999/xlink" viewBox="0 0 1000 1000"><defs><style>.cls-1{fill:url(#radial-gradient);}</style><radialGradient id="radial-gradient" cx="477.61136" cy="502.84345" fx="467.786877874747" r="458.22546" gradientTransform="translate(0 44.24604) scale(1 0.91201)" gradientUnits="userSpaceOnUse"><stop offset="0.15662" stop-color="#a6f4ca"/><stop offset="0.22421" stop-color="#6fe8d1"/><stop offset="0.28257" stop-color="#47dfd7"/><stop offset="0.32875" stop-color="#2fd9da"/><stop offset="0.35701" stop-color="#26d7db"/><stop offset="0.46232" stop-color="#27c2db"/><stop offset="0.70172" stop-color="#2a97db"/><stop offset="0.88906" stop-color="#2b7ddb"/><stop offset="1" stop-color="#2c73db"/></radialGradient></defs><g id="Layer_3" data-name="Layer 3"><rect width="1000" height="1000"/><path class="cls-1" d="M737.41,314.81278l-89.56747,42.26459a93.64058,93.64058,0,0,1-63.06983-.257l-.3-.10894-118.01911-42.839a4.69115,4.69115,0,0,1-3.11734-4.20315c-.181-4.872,1.07436-14.252,11.94361-20.75032,12.7841-7.64259,34.48091-4.93379,67.9566,8.25872,20.49228,8.07592,35.12817,4.15446,43.39819-.10207a4.73031,4.73031,0,0,0-.61675-8.63091L479.21231,249.63553a20.78524,20.78524,0,0,0-16.3621.92857l-92.13314,45.86763a86.90918,86.90918,0,0,1-76.19.62172,4.73585,4.73585,0,0,1-.14593-8.47354l168.19706-89.71467a23.31867,23.31867,0,0,1,12.958-2.65961L643.96,210.578a125.357,125.357,0,0,0,54.51151-10.168l3.86833-2.04831c-8.13275-6.46679-16.50955-12.64071-25.15787-18.44448a307.64464,307.64464,0,0,0-33.20417-20.81692,341.49038,341.49038,0,0,0-71.58544-28.4716,385.22463,385.22463,0,0,0-109.58689-15.84195c-2.96633,0-5.84673.03534-8.66561.09623-2.65668-.03572-5.29353-.09623-7.97766-.09623H194.83268a42.85115,42.85115,0,0,0-42.8511,42.85123V732.55645a266.52893,266.52893,0,0,0,61.34718-23.42721l78.89957-44.62332a93.64123,93.64123,0,0,1,63.01034-2.75417q.15407.04785.30507.09457l119.92939,37.156a4.691,4.691,0,0,1,3.31462,4.04946c.41286,4.85791-.393,14.28709-10.93942,21.29679-12.40479,8.24422-34.20634,6.57432-68.27336-5.005-20.85481-7.0885-35.28681-2.47274-43.34379,2.17365a4.73025,4.73025,0,0,0,1.02809,8.59163l109.5152,33.96978a18.39669,18.39669,0,0,0,14.4259-1.5124l90.73285-50.7136a86.90781,86.90781,0,0,1,76.07307-4.25819,4.7357,4.7357,0,0,1,.55066,8.45689l-163.72214,97.642a23.32271,23.32271,0,0,1-12.81664,3.27521l-168.918-6.31578a125.36148,125.36148,0,0,0-53.9639,12.7588L179.606,882.3773a42.66121,42.66121,0,0,0,15.22672,2.83591H446.1622c2.8326,0,5.61792-.06407,8.42-.10525,2.67956.06521,5.41047.10525,8.22325.10525,212.7469,0,385.213-172.46592,385.213-385.21321a383.35511,383.35511,0,0,0-58.10781-203.51107A266.54046,266.54046,0,0,0,737.41,314.81278ZM577.89181,561.534a12.49551,12.49551,0,0,1-6.2479,10.82158L475.886,627.64176a12.496,12.496,0,0,1-12.4958,0l-95.75843-55.28614a12.49553,12.49553,0,0,1-6.2479-10.82158V450.96189a12.49572,12.49572,0,0,1,6.2479-10.82171l95.75843-55.286a12.496,12.496,0,0,1,12.4958,0l95.75792,55.286a12.4957,12.4957,0,0,1,6.2479,10.82171Z"/></g></svg>