<svg width="100" height="100" xmlns="http://www.w3.org/2000/svg" xmlns:xlink="http://www.w3.org/1999/xlink">
 <defs>
  <linearGradient id="a" y1="0.5" x2="1" y2="0.5" gradientUnits="objectBoundingBox">
   <stop offset="0" stop-color="#f3be5b"/>
   <stop offset="0.238" stop-color="#ecb059"/>
   <stop offset="0.553" stop-color="#e7a457"/>
   <stop offset="0.889" stop-color="#e6a157"/>
  </linearGradient>
  <linearGradient id="b" y1="0.5" x2="1" y2="0.5" gradientUnits="objectBoundingBox">
   <stop offset="0.112" stop-color="#945300" stop-opacity="0"/>
   <stop offset="0.18" stop-color="#8b4c01" stop-opacity="0.094"/>
   <stop offset="0.717" stop-color="#4f200f" stop-opacity="0.749"/>
   <stop offset="1" stop-color="#391015"/>
  </linearGradient>
  <linearGradient id="c" x1="0.02" y1="-0.051" x2="0.802" y2="0.902" gradientUnits="objectBoundingBox">
   <stop offset="0.278" stop-color="#945300" stop-opacity="0"/>
   <stop offset="0.315" stop-color="#8b4c01" stop-opacity="0.094"/>
   <stop offset="0.606" stop-color="#4f200f" stop-opacity="0.749"/>
   <stop offset="0.76" stop-color="#391015"/>
  </linearGradient>
  <linearGradient id="d" x1="0.638" y1="2.017" x2="0.395" y2="-0.647" gradientUnits="objectBoundingBox">
   <stop offset="0.507" stop-color="#945300" stop-opacity="0"/>
   <stop offset="0.525" stop-color="#8b4c01" stop-opacity="0.094"/>
   <stop offset="0.669" stop-color="#4f200f" stop-opacity="0.749"/>
   <stop offset="0.745" stop-color="#391015"/>
  </linearGradient>
  <linearGradient id="e" x1="-0.05" y1="1.322" x2="0.844" y2="-0.003" gradientUnits="objectBoundingBox">
   <stop offset="0.362" stop-color="#945300" stop-opacity="0"/>
   <stop offset="0.389" stop-color="#8b4c01" stop-opacity="0.094"/>
   <stop offset="0.602" stop-color="#4f200f" stop-opacity="0.749"/>
   <stop offset="0.714" stop-color="#391015"/>
  </linearGradient>
  <linearGradient id="f" x1="-0.339" y1="0.866" x2="0.99" y2="0.28" xlink:href="#c"/>
  <linearGradient id="g" y1="0.5" x2="1" y2="0.5" gradientUnits="objectBoundingBox">
   <stop offset="0.371" stop-color="#945300" stop-opacity="0"/>
   <stop offset="0.397" stop-color="#8b4c01" stop-opacity="0.094"/>
   <stop offset="0.596" stop-color="#4f200f" stop-opacity="0.749"/>
   <stop offset="0.702" stop-color="#391015"/>
  </linearGradient>
  <linearGradient id="h" x1="0" y1="0.5" x2="1" y2="0.5" xlink:href="#g"/>
  <linearGradient id="i" x1="0" y1="0.5" x2="1" y2="0.5" xlink:href="#g"/>
  <linearGradient id="j" x1="0.01" y1="0.505" x2="0.991" y2="0.505" xlink:href="#g"/>
  <linearGradient id="k" x1="0.882" y1="0.921" x2="0.194" y2="0.113" gradientUnits="objectBoundingBox">
   <stop offset="0.183" stop-color="#945300" stop-opacity="0"/>
   <stop offset="0.235" stop-color="#8b4c01" stop-opacity="0.094"/>
   <stop offset="0.64" stop-color="#4f200f" stop-opacity="0.749"/>
   <stop offset="0.853" stop-color="#391015"/>
  </linearGradient>
  <linearGradient id="m" y1="0.5" x2="1" y2="0.5" gradientUnits="objectBoundingBox">
   <stop offset="0" stop-color="#945300" stop-opacity="0"/>
   <stop offset="0.319" stop-color="#945300" stop-opacity="0.388"/>
   <stop offset="0.631" stop-color="#945300" stop-opacity="0.718"/>
   <stop offset="0.867" stop-color="#945300" stop-opacity="0.922"/>
   <stop offset="1" stop-color="#945300"/>
  </linearGradient>
  <linearGradient id="p" x1="-2.134" y1="0.945" x2="4.344" y2="-0.149" gradientUnits="objectBoundingBox">
   <stop offset="0.294" stop-color="#945300" stop-opacity="0"/>
   <stop offset="0.481" stop-color="#945300" stop-opacity="0.251"/>
   <stop offset="0.698" stop-color="#945300" stop-opacity="0.502"/>
   <stop offset="0.813" stop-color="#945300" stop-opacity="0.6"/>
  </linearGradient>
  <linearGradient id="q" x1="-0.631" y1="3.737" x2="2.189" y2="-4.334" xlink:href="#p"/>
  <linearGradient id="r" x1="0.285" y1="0.237" x2="0.731" y2="0.783" gradientUnits="objectBoundingBox">
   <stop offset="0.148" stop-color="#e7a953" stop-opacity="0"/>
   <stop offset="0.512" stop-color="#f3be5b"/>
   <stop offset="0.81" stop-color="#f0b859" stop-opacity="0"/>
  </linearGradient>
  <linearGradient id="s" x1="-1.141" y1="1.159" x2="2.014" y2="-0.108" gradientUnits="objectBoundingBox">
   <stop offset="0.294" stop-color="#945300" stop-opacity="0"/>
   <stop offset="0.316" stop-color="#945300" stop-opacity="0.039"/>
   <stop offset="0.55" stop-color="#945300" stop-opacity="0.447"/>
   <stop offset="0.723" stop-color="#945300" stop-opacity="0.702"/>
   <stop offset="0.813" stop-color="#945300" stop-opacity="0.8"/>
  </linearGradient>
  <linearGradient id="t" x1="1.175" y1="-0.149" x2="-0.173" y2="1.147" xlink:href="#p"/>
  <linearGradient id="u" x1="-0.891" y1="2.079" x2="1.754" y2="-0.923" xlink:href="#p"/>
  <linearGradient id="v" x1="-0.82" y1="1.803" x2="2.22" y2="-1.198" xlink:href="#p"/>
  <linearGradient id="aa" y1="0.5" x2="1" y2="0.5" gradientUnits="objectBoundingBox">
   <stop offset="0" stop-color="#945300" stop-opacity="0"/>
   <stop offset="0.19" stop-color="#945300" stop-opacity="0.698"/>
   <stop offset="0.282" stop-color="#945300"/>
  </linearGradient>
  <linearGradient id="ad" y1="0.5" x2="1" y2="0.5" gradientUnits="objectBoundingBox">
   <stop offset="0" stop-color="#945300" stop-opacity="0"/>
   <stop offset="0.08" stop-color="#945300" stop-opacity="0.624"/>
   <stop offset="0.133" stop-color="#945300"/>
  </linearGradient>
  <linearGradient id="ak" x1="-0.083" y1="0.496" x2="1.095" y2="0.504" gradientUnits="objectBoundingBox">
   <stop offset="0.112" stop-color="#945300" stop-opacity="0"/>
   <stop offset="0.255" stop-color="#945300" stop-opacity="0.239"/>
   <stop offset="0.518" stop-color="#945300" stop-opacity="0.647"/>
   <stop offset="0.711" stop-color="#945300" stop-opacity="0.902"/>
   <stop offset="0.813" stop-color="#945300"/>
  </linearGradient>
  <linearGradient id="al" x1="-0.447" y1="1.806" x2="2.409" y2="-2.132" gradientUnits="objectBoundingBox">
   <stop offset="0.21" stop-color="#945300" stop-opacity="0"/>
   <stop offset="0.307" stop-color="#945300" stop-opacity="0.239"/>
   <stop offset="0.487" stop-color="#945300" stop-opacity="0.647"/>
   <stop offset="0.619" stop-color="#945300" stop-opacity="0.902"/>
   <stop offset="0.689" stop-color="#945300"/>
  </linearGradient>
  <linearGradient id="as" x1="0.058" y1="0.933" x2="1.526" y2="-0.504" xlink:href="#a"/>
  <linearGradient id="at" x1="-0.175" y1="-0.257" x2="1.313" y2="1.411" gradientUnits="objectBoundingBox">
   <stop offset="0.258" stop-color="#945300" stop-opacity="0"/>
   <stop offset="0.329" stop-color="#945300" stop-opacity="0.239"/>
   <stop offset="0.46" stop-color="#945300" stop-opacity="0.647"/>
   <stop offset="0.556" stop-color="#945300" stop-opacity="0.902"/>
   <stop offset="0.607" stop-color="#945300"/>
  </linearGradient>
  <linearGradient id="aw" y1="0.5" x2="1" y2="0.5" gradientUnits="objectBoundingBox">
   <stop offset="0" stop-color="#945300" stop-opacity="0"/>
   <stop offset="0.172" stop-color="#945300" stop-opacity="0.239"/>
   <stop offset="0.489" stop-color="#945300" stop-opacity="0.647"/>
   <stop offset="0.723" stop-color="#945300" stop-opacity="0.902"/>
   <stop offset="0.846" stop-color="#945300"/>
  </linearGradient>
  <linearGradient id="az" x1="-0.82" y1="1.788" x2="3.103" y2="-2.04" gradientUnits="objectBoundingBox">
   <stop offset="0.245" stop-color="#945300" stop-opacity="0"/>
   <stop offset="0.335" stop-color="#945300" stop-opacity="0.239"/>
   <stop offset="0.502" stop-color="#945300" stop-opacity="0.647"/>
   <stop offset="0.624" stop-color="#945300" stop-opacity="0.902"/>
   <stop offset="0.689" stop-color="#945300"/>
  </linearGradient>
  <linearGradient id="ba" x1="-1.785" y1="2.677" x2="2.233" y2="-1.151" gradientUnits="objectBoundingBox">
   <stop offset="0.432" stop-color="#945300" stop-opacity="0"/>
   <stop offset="0.487" stop-color="#945300" stop-opacity="0.239"/>
   <stop offset="0.59" stop-color="#945300" stop-opacity="0.647"/>
   <stop offset="0.666" stop-color="#945300" stop-opacity="0.902"/>
   <stop offset="0.705" stop-color="#945300"/>
  </linearGradient>
  <linearGradient id="bc" x1="-0.073" y1="0.375" x2="1.4" y2="0.991" gradientUnits="objectBoundingBox">
   <stop offset="0.527" stop-color="#945300" stop-opacity="0"/>
   <stop offset="0.611" stop-color="#945300" stop-opacity="0.239"/>
   <stop offset="0.766" stop-color="#945300" stop-opacity="0.647"/>
   <stop offset="0.88" stop-color="#945300" stop-opacity="0.902"/>
   <stop offset="0.94" stop-color="#945300"/>
  </linearGradient>
  <linearGradient id="be" x1="-0.288" y1="0.5" x2="0.826" y2="0.5" gradientUnits="objectBoundingBox">
   <stop offset="0.262" stop-color="#f3d65b"/>
   <stop offset="0.315" stop-color="#efd157" stop-opacity="0.992"/>
   <stop offset="0.379" stop-color="#e6c44f" stop-opacity="0.973"/>
   <stop offset="0.448" stop-color="#d7af40" stop-opacity="0.941"/>
   <stop offset="0.521" stop-color="#c2902b" stop-opacity="0.894"/>
   <stop offset="0.596" stop-color="#a76a11" stop-opacity="0.835"/>
   <stop offset="0.636" stop-color="#975402" stop-opacity="0.8"/>
  </linearGradient>
  <linearGradient id="bg" y1="0.5" x2="1" y2="0.5" gradientUnits="objectBoundingBox">
   <stop offset="0" stop-color="#945300" stop-opacity="0"/>
   <stop offset="0.191" stop-color="#945300" stop-opacity="0.239"/>
   <stop offset="0.544" stop-color="#945300" stop-opacity="0.647"/>
   <stop offset="0.803" stop-color="#945300" stop-opacity="0.902"/>
   <stop offset="0.94" stop-color="#945300"/>
  </linearGradient>
  <linearGradient id="bj" y1="0.5" x2="1" y2="0.5" gradientUnits="objectBoundingBox">
   <stop offset="0.12" stop-color="#f3d65b"/>
   <stop offset="0.172" stop-color="#efd157" stop-opacity="0.992"/>
   <stop offset="0.233" stop-color="#e6c44f" stop-opacity="0.973"/>
   <stop offset="0.301" stop-color="#d7af40" stop-opacity="0.941"/>
   <stop offset="0.372" stop-color="#c2902b" stop-opacity="0.894"/>
   <stop offset="0.445" stop-color="#a76a11" stop-opacity="0.835"/>
   <stop offset="0.483" stop-color="#975402" stop-opacity="0.8"/>
  </linearGradient>
  <linearGradient id="bl" y1="0.5" x2="1" y2="0.5" gradientUnits="objectBoundingBox">
   <stop offset="0" stop-color="#f3d65b"/>
   <stop offset="0.169" stop-color="#eec259"/>
   <stop offset="0.399" stop-color="#e9b058"/>
   <stop offset="0.636" stop-color="#e6a457"/>
   <stop offset="0.889" stop-color="#e6a157"/>
  </linearGradient>
  <linearGradient id="bm" x1="0.036" y1="-0.276" x2="1.093" y2="1.069" gradientUnits="objectBoundingBox">
   <stop offset="0.475" stop-color="#945300" stop-opacity="0"/>
   <stop offset="0.544" stop-color="#945300" stop-opacity="0.239"/>
   <stop offset="0.672" stop-color="#945300" stop-opacity="0.647"/>
   <stop offset="0.766" stop-color="#945300" stop-opacity="0.902"/>
   <stop offset="0.815" stop-color="#945300"/>
  </linearGradient>
  <linearGradient id="bq" x1="-0.069" y1="1.535" x2="1.231" y2="-0.83" gradientUnits="objectBoundingBox">
   <stop offset="0.126" stop-color="#945300" stop-opacity="0"/>
   <stop offset="0.292" stop-color="#945300" stop-opacity="0.239"/>
   <stop offset="0.597" stop-color="#945300" stop-opacity="0.647"/>
   <stop offset="0.821" stop-color="#945300" stop-opacity="0.902"/>
   <stop offset="0.94" stop-color="#945300"/>
  </linearGradient>
  <linearGradient id="bs" x1="-0.715" y1="1.113" x2="6.177" y2="-2.366" xlink:href="#bl"/>
  <linearGradient id="bu" x1="-0.015" y1="1.413" x2="1.691" y2="-1.61" xlink:href="#bq"/>
  <linearGradient id="by" x1="-2.053" y1="1.44" x2="5.524" y2="-1.349" gradientUnits="objectBoundingBox">
   <stop offset="0.223" stop-color="#945300" stop-opacity="0"/>
   <stop offset="0.315" stop-color="#945300" stop-opacity="0.239"/>
   <stop offset="0.485" stop-color="#945300" stop-opacity="0.647"/>
   <stop offset="0.611" stop-color="#945300" stop-opacity="0.902"/>
   <stop offset="0.677" stop-color="#945300"/>
  </linearGradient>
  <linearGradient id="cd" x1="-1.909" y1="0.954" x2="2.034" y2="0.211" gradientUnits="objectBoundingBox">
   <stop offset="0.154" stop-color="#945300" stop-opacity="0"/>
   <stop offset="0.314" stop-color="#945300" stop-opacity="0.239"/>
   <stop offset="0.608" stop-color="#945300" stop-opacity="0.647"/>
   <stop offset="0.825" stop-color="#945300" stop-opacity="0.902"/>
   <stop offset="0.94" stop-color="#945300"/>
  </linearGradient>
  <linearGradient id="ce" x1="-0.121" y1="1.505" x2="2.356" y2="-2.504" xlink:href="#bq"/>
  <linearGradient id="cg" x1="-1.599" y1="1.56" x2="5.293" y2="-1.92" xlink:href="#bl"/>
  <linearGradient id="ci" x1="-0.576" y1="0.921" x2="1.042" y2="0.265" xlink:href="#cd"/>
  <linearGradient id="ck" x1="-1.08" y1="1.316" x2="2.96" y2="-0.771" gradientUnits="objectBoundingBox">
   <stop offset="0.194" stop-color="#945300" stop-opacity="0"/>
   <stop offset="0.346" stop-color="#945300" stop-opacity="0.239"/>
   <stop offset="0.625" stop-color="#945300" stop-opacity="0.647"/>
   <stop offset="0.831" stop-color="#945300" stop-opacity="0.902"/>
   <stop offset="0.94" stop-color="#945300"/>
  </linearGradient>
  <linearGradient id="cn" x1="-0.878" y1="1.465" x2="1.347" y2="-0.093" xlink:href="#bg"/>
  <linearGradient id="co" x1="-2.834" y1="1.133" x2="5.348" y2="-0.421" xlink:href="#cd"/>
  <linearGradient id="cq" x1="-3.857" y1="1.914" x2="6.865" y2="-1.566" xlink:href="#a"/>
  <linearGradient id="cr" x1="-0.153" y1="0.709" x2="2.354" y2="-0.092" xlink:href="#a"/>
  <linearGradient id="cs" x1="-0.198" y1="3.116" x2="0.942" y2="-1.158" xlink:href="#cd"/>
  <linearGradient id="ct" x1="-0.499" y1="0.819" x2="2.008" y2="0.018" gradientUnits="objectBoundingBox">
   <stop offset="0.047" stop-color="#945300" stop-opacity="0"/>
   <stop offset="0.168" stop-color="#945300" stop-opacity="0.239"/>
   <stop offset="0.391" stop-color="#945300" stop-opacity="0.647"/>
   <stop offset="0.556" stop-color="#945300" stop-opacity="0.902"/>
   <stop offset="0.642" stop-color="#945300"/>
  </linearGradient>
  <linearGradient id="cx" x1="-0.057" y1="0.357" x2="1.169" y2="0.97" xlink:href="#bc"/>
  <linearGradient id="dc" x1="-0.11" y1="-0.062" x2="0.806" y2="0.691" gradientUnits="objectBoundingBox">
   <stop offset="0.652" stop-color="#945300" stop-opacity="0"/>
   <stop offset="0.723" stop-color="#945300" stop-opacity="0.239"/>
   <stop offset="0.853" stop-color="#945300" stop-opacity="0.647"/>
   <stop offset="0.949" stop-color="#945300" stop-opacity="0.902"/>
   <stop offset="1" stop-color="#945300"/>
  </linearGradient>
  <linearGradient id="dd" x1="0.133" y1="0.124" x2="0.736" y2="0.773" gradientUnits="objectBoundingBox">
   <stop offset="0.291" stop-color="#e7a953" stop-opacity="0"/>
   <stop offset="0.584" stop-color="#d39141" stop-opacity="0.6"/>
   <stop offset="0.671" stop-color="#d39141" stop-opacity="0"/>
  </linearGradient>
 </defs>
 <g>
  <title>Layer 1</title>
  <g stroke="null" id="svg_1">
   <path stroke="null" d="m3.62492,70.36057l9.62671,-6.78349l-7.5047,4.20455l-2.12201,2.57894z" fill="#666062" id="svg_2"/>
   <g stroke="null" id="svg_3">
    <g stroke="null" id="svg_4">
     <path stroke="null" d="m20.70956,51.66275l6.92979,3.13454s3.55242,8.80554 3.83344,8.99689l-1.48318,11.69724l-9.28005,0l0,-23.82866z" fill="#d9d3c4" id="svg_5"/>
     <g stroke="null" id="svg_6">
      <path stroke="null" d="m27.78393,72.35042c0.1669,-1.39437 0.35181,-2.78873 0.51484,-4.18139c0.29689,-2.52402 0.49468,-5.06649 0.63454,-7.60552c0.02145,0.07937 0.0429,0.15874 0.0635,0.23726c-0.10468,2.46095 -0.22996,4.91589 -0.51484,7.36655c-0.16046,1.39523 -0.34623,2.78873 -0.51484,4.18139c-0.12442,1.02969 -0.19864,2.05723 -0.28016,3.08906l-0.21452,-0.00901c0.04891,-1.03226 0.18963,-2.06495 0.31148,-3.07833z" fill="#d9d3c4" id="svg_7"/>
      <path stroke="null" d="m26.90655,54.6115c-0.07294,2.02033 -0.35095,4.02994 -0.47194,6.04941c-0.15102,2.50128 -0.21452,5.01372 -0.46078,7.50813c-0.00858,0.08195 -0.12871,0.08581 -0.12871,0c-0.00429,-1.23519 0.13386,-2.47554 0.2231,-3.7073c0.09181,-1.26651 0.13171,-2.53517 0.20808,-3.80255c0.12614,-2.10228 0.42904,-4.19039 0.53587,-6.29267c0.0266,0.07294 0.05878,0.15317 0.09439,0.24498z" fill="#d9d3c4" id="svg_8"/>
      <path stroke="null" d="m23.76,59.17087q-0.07422,2.55019 -0.15016,5.09952c-0.0429,1.53638 -0.02059,3.09592 -0.15574,4.62715a0.0768,0.0768 0 0 1 -0.15359,0c-0.04977,-1.53595 0.06693,-3.08906 0.11584,-4.62672q0.08066,-2.55062 0.17719,-5.10038q0.12614,-3.27354 0.2763,-6.54709c0.03261,0.01416 0.06521,0.02789 0.09825,0.0429c-0.08023,2.16964 -0.14501,4.33713 -0.20808,6.50462z" fill="#d9d3c4" id="svg_9"/>
     </g>
     <path stroke="null" d="m20.70997,51.66275l-6.93022,3.13454s-3.55242,8.80554 -3.83344,8.99689l1.48318,11.69724l9.28005,0l0.00043,-23.82866z" fill="#d9d3c4" id="svg_10"/>
     <g stroke="null" id="svg_11">
      <path stroke="null" d="m13.63517,72.35c-0.1669,-1.39437 -0.35181,-2.78873 -0.51484,-4.18139c-0.29689,-2.52402 -0.49468,-5.06649 -0.63454,-7.60552l-0.06307,0.23726c0.10426,2.46095 0.22953,4.91589 0.51484,7.36655c0.16089,1.39523 0.34666,2.78873 0.51484,4.18139c0.12442,1.02969 0.19907,2.05723 0.28016,3.08906l0.21452,-0.00901c-0.04891,-1.03226 -0.19006,-2.06495 -0.31191,-3.07833z" fill="#d9d3c4" id="svg_12"/>
      <path stroke="null" d="m14.51127,54.61152c0.07294,2.02033 0.35095,4.02994 0.47194,6.04941c0.15102,2.50128 0.21452,5.01372 0.46036,7.50813c0.00858,0.08195 0.12871,0.08581 0.12871,0c0.00429,-1.23519 -0.13386,-2.47554 -0.2231,-3.7073c-0.09181,-1.26651 -0.13214,-2.53517 -0.20808,-3.80255c-0.12614,-2.10228 -0.42904,-4.19039 -0.53587,-6.29267c-0.02488,0.07294 -0.05663,0.15317 -0.09396,0.24498z" fill="#d9d3c4" id="svg_13"/>
      <path stroke="null" d="m17.65869,59.17044q0.07465,2.55019 0.15016,5.09952c0.0429,1.53638 0.02059,3.09592 0.15574,4.62715a0.0768,0.0768 0 0 0 0.15359,0c0.04977,-1.53595 -0.06693,-3.08906 -0.11584,-4.62672q-0.08066,-2.55062 -0.17719,-5.10038q-0.12571,-3.27354 -0.27587,-6.54709c-0.03261,0.01416 -0.06564,0.02789 -0.09868,0.0429c0.08023,2.16964 0.14673,4.33713 0.20808,6.50462z" fill="#d9d3c4" id="svg_14"/>
      <path stroke="null" d="m20.73745,59.23008q0.00729,2.15634 -0.00429,4.3131c-0.00729,1.39351 -0.08066,2.8059 0.00429,4.19769a0.0562,0.0562 0 0 0 0.11241,0c0.08924,-1.35018 0.02746,-2.72223 0.0236,-4.07584q-0.00644,-2.15548 -0.01587,-4.31138c-0.01459,-2.59266 -0.05191,-5.18361 -0.12871,-7.77413l-0.0768,0.02617c0.0562,2.5429 0.07723,5.08408 0.08538,7.6244z" fill="#d9d3c4" id="svg_15"/>
     </g>
     <path stroke="null" d="m18.50732,55.79608l0.03561,6.3034l4.49844,0l0,-6.25406l-4.53405,-0.04934z" fill="#d9d3c4" id="svg_16"/>
     <path stroke="null" d="m15.17241,73.83489l-0.75167,-8.54468l5.99149,0l0,8.54468l-5.23982,0z" fill="#d9d3c4" id="svg_17"/>
     <path stroke="null" d="m16.0515,71.81155c-0.09825,-0.72936 -0.21023,-1.45872 -0.3132,-2.18808a15.40883,15.40883 0 0 0 -0.9722,-4.11488a0.14973,0.14973 0 0 0 -0.27844,0.07251c0.10211,1.37077 0.32564,2.74583 0.51227,4.11102c0.09396,0.69118 0.18449,1.38235 0.28788,2.07224a20.39723,20.39723 0 0 0 0.33894,2.19366a0.34323,0.34323 0 0 0 0.67487,-0.08366a15.07246,15.07246 0 0 0 -0.25013,-2.06281z" fill="#d9d3c4" opacity="0.3" id="svg_18"/>
     <path stroke="null" d="m14.23925,65.36615a0.49296,0.49296 0 0 1 0.55346,-0.30333a0.14845,0.14845 0 0 1 0.01502,-0.00644c0.03432,-0.01158 0.06865,-0.02145 0.10426,-0.03218a0.10812,0.10812 0 0 0 0.00987,0.01201c0.21066,-0.03475 0.42131,-0.07465 0.6294,-0.10511c0.27072,-0.0429 0.54016,-0.07165 0.80959,-0.0931c0.41874,-0.00558 0.83877,0.01287 1.2442,0.01673c0.89797,0.00686 1.79594,0.00987 2.69349,-0.00772c0.03776,0 0.07594,-0.00257 0.11412,-0.00343c-0.00644,0.17848 0,0.35696 0.00858,0.53501c-0.17161,0.00558 -0.34323,0.01115 -0.51227,0.01759c-1.07259,0.03733 -2.14518,0.10898 -3.22077,0.14287c-0.399,0.01201 -0.81517,0.08366 -1.22576,0.1197c0.98979,1.14252 1.96155,2.29577 2.87454,3.5048c0.54316,0.71864 1.04728,1.46258 1.55097,2.20868c0.24627,0.36425 0.32821,0.44319 0.54831,0.82375c0.13686,0.23811 0.05835,1.16784 -0.15617,1.19186a7.71922,7.71922 0 0 1 -0.43247,-0.75124c-0.23382,-0.37369 -0.48524,-0.7358 -0.72936,-1.10434c-0.47194,-0.71821 -0.97348,-1.41839 -1.48618,-2.11c-0.9353,-1.26094 -1.90106,-2.49785 -2.84236,-3.75407a2.12759,2.12759 0 0 1 -0.6028,-0.13343c0.01545,-0.05663 0.03218,-0.11284 0.05234,-0.16861z" fill="#d9d3c4" opacity="0.3" id="svg_19"/>
     <path stroke="null" d="m14.90256,74.05841l-0.78642,-8.9424a0.27201,0.27201 0 0 1 0.27072,-0.29603l6.08416,0a0.27201,0.27201 0 0 1 0.27201,0.27201l0,8.94411a0.27201,0.27201 0 0 1 -0.27201,0.27201l-5.29731,0a0.27201,0.27201 0 0 1 -0.27115,-0.2497z" fill="#d9d3c4" id="svg_20"/>
     <line stroke="null" x1="20.38563" y1="73.79757" fill="#d9d3c4" y2="65.41979" x2="14.51127" id="svg_21"/>
     <path stroke="null" d="m33.98008,66.35723a0.27201,0.27201 0 0 1 -0.38613,0.01587l-1.711,-1.57328a3.10708,3.10708 0 0 1 -0.83619,-1.2811c-0.28574,-0.83662 -0.87395,-2.49699 -1.6003,-4.21528c-0.51785,-1.22361 -1.05328,-2.3597 -1.4111,-3.09592a3.71073,3.71073 0 0 0 -1.74274,-1.72172c-0.74953,-0.3561 -1.45872,-0.67058 -2.11086,-0.9353c-1.48661,-0.60322 -3.05817,-1.07559 -3.47305,-1.19701c-0.41445,0.12142 -1.98601,0.59379 -3.47262,1.19701c-0.65171,0.26472 -1.36133,0.5792 -2.11086,0.9353a3.71202,3.71202 0 0 0 -1.74274,1.72172c-0.35825,0.73794 -0.89411,1.87446 -1.4111,3.09592c-0.72936,1.72043 -1.31542,3.37952 -1.6003,4.21528a3.1118,3.1118 0 0 1 -0.83619,1.2811l-1.71142,1.57328a0.27158,0.27158 0 0 1 -0.38399,-0.01587l-0.15359,-0.1669a0.27158,0.27158 0 0 1 0.01587,-0.38613l1.711,-1.57328a2.3228,2.3228 0 0 0 0.62811,-0.96104c0.28831,-0.8452 0.88296,-2.52445 1.62047,-4.26805c0.52299,-1.23691 1.0653,-2.3863 1.4274,-3.13196a4.486,4.486 0 0 1 2.10528,-2.08125c0.7624,-0.36211 1.48618,-0.6826 2.15162,-0.95289c1.76291,-0.71563 3.63865,-1.24978 3.65753,-1.25493l0.10511,-0.03003l0.10511,0.03003c0.01888,0.00515 1.89462,0.5393 3.65796,1.25493c0.66501,0.26986 1.38836,0.59035 2.15162,0.95289a4.48686,4.48686 0 0 1 2.10528,2.08125c0.36211,0.74524 0.90355,1.89377 1.4274,3.13196c0.73665,1.74146 1.33001,3.42285 1.6209,4.26848a2.32151,2.32151 0 0 0 0.62811,0.96104l1.711,1.57328a0.27201,0.27201 0 0 1 0.01587,0.38613l-0.15145,0.16647z" fill="#d9d3c4" id="svg_22"/>
     <path stroke="null" d="m22.54711,60.5249c-0.00429,0.38356 0.01244,0.77226 -0.00386,1.1584a2.19881,2.19881 0 0 1 -0.35095,0.36339c0.06007,-0.52557 0.05749,-1.99974 0.04719,-2.91745c-0.00601,-0.50712 0.00386,-2.43006 -0.04033,-2.57722c-1.77321,-0.02446 -3.54341,0.21452 -3.54427,0.12571a0.72679,0.72679 0 0 1 0.88768,-0.88167c0.27973,-0.00257 0.55775,-0.00772 0.83877,-0.01244a0.32135,0.32135 0 0 1 0.22696,0.29518l0.00944,0c0.55217,-0.02703 1.1584,-0.25227 1.70241,-0.10125c0.08581,0.02274 0.32006,0.11327 0.3694,0.20594c0.00386,0.01073 0.00644,0.02231 0.00987,0.03475c-0.0369,0.93058 -0.14802,1.84915 -0.14373,2.78101c0.00129,0.51012 -0.003,1.0181 -0.00858,1.52565z" fill="#d9d3c4" opacity="0.3" id="svg_23"/>
     <path stroke="null" d="m18.50903,56.07279l0.03261,5.75638a0.27201,0.27201 0 0 0 0.27201,0.27029l3.95614,0a0.27201,0.27201 0 0 0 0.27201,-0.27201l0,-5.71304a0.27201,0.27201 0 0 0 -0.26901,-0.27201l-3.99004,-0.0429a0.27201,0.27201 0 0 0 -0.27372,0.2733z" fill="#d9d3c4" id="svg_24"/>
     <path stroke="null" d="m26.29603,73.92757l0.76797,-8.73045l-6.12063,0l0,8.73045l5.35265,0z" fill="#d9d3c4" id="svg_25"/>
     <path stroke="null" d="m25.36758,71.81155c0.09825,-0.72936 0.21023,-1.45872 0.3132,-2.18808a15.40668,15.40668 0 0 1 0.9722,-4.11488a0.14973,0.14973 0 0 1 0.27844,0.07251c-0.10211,1.37077 -0.32564,2.74583 -0.51227,4.11102c-0.09396,0.69118 -0.18449,1.38235 -0.28788,2.07224a20.33202,20.33202 0 0 1 -0.33894,2.19366a0.34323,0.34323 0 0 1 -0.67487,-0.08366a15.11365,15.11365 0 0 1 0.25013,-2.06281z" fill="#d9d3c4" opacity="0.3" id="svg_26"/>
     <path stroke="null" d="m27.1794,65.36615a0.49296,0.49296 0 0 0 -0.55346,-0.30333a0.12313,0.12313 0 0 0 -0.01502,-0.00644c-0.03389,-0.01158 -0.06865,-0.02145 -0.10426,-0.03218a0.14115,0.14115 0 0 1 -0.00944,0.01201c-0.21109,-0.03475 -0.42131,-0.07465 -0.62982,-0.10511c-0.27072,-0.0429 -0.54016,-0.07165 -0.80959,-0.0931c-0.41874,-0.00558 -0.83877,0.01287 -1.2442,0.01673c-0.89797,0.00686 -1.79594,0.00987 -2.69349,-0.00772c-0.03818,0 -0.07594,-0.00257 -0.11412,-0.00343c0.00644,0.17848 0,0.35696 -0.00858,0.53501c0.17161,0.00558 0.34323,0.01115 0.5127,0.01759c1.07259,0.03733 2.14518,0.10898 3.22077,0.14287c0.39857,0.01201 0.81517,0.08366 1.22576,0.1197c-0.98979,1.14252 -1.96155,2.29577 -2.87454,3.5048c-0.54316,0.71864 -1.04728,1.46258 -1.55097,2.20868c-0.24627,0.36425 -0.32778,0.44319 -0.54831,0.82375c-0.13686,0.23811 -0.05835,1.16784 0.15617,1.19186a7.71407,7.71407 0 0 0 0.43247,-0.75124c0.23382,-0.37369 0.48524,-0.7358 0.72936,-1.10434c0.47194,-0.71821 0.97305,-1.41839 1.48575,-2.11c0.9353,-1.26094 1.90149,-2.49785 2.84236,-3.75407a2.12931,2.12931 0 0 0 0.60322,-0.13343c-0.01502,-0.05663 -0.03175,-0.11284 -0.05277,-0.16861z" fill="#d9d3c4" opacity="0.3" id="svg_27"/>
     <path stroke="null" d="m26.517,74.05841l0.78685,-8.94411a0.27158,0.27158 0 0 0 -0.27072,-0.29603l-6.08459,0a0.27201,0.27201 0 0 0 -0.27201,0.27201l0,8.94411a0.27201,0.27201 0 0 0 0.27201,0.27201l5.29688,0a0.27201,0.27201 0 0 0 0.27158,-0.24798z" fill="#d9d3c4" id="svg_28"/>
     <line stroke="null" y1="73.79757" x2="26.90784" fill="#d9d3c4" y2="65.41979" x1="21.03348" id="svg_29"/>
    </g>
   </g>
   <path stroke="null" d="m29.93984,25.42848a14.88755,14.88755 0 0 0 -1.58743,-1.581c-0.29518,-0.2527 -0.60065,-0.48953 -0.91084,-0.71778q-0.32392,-0.23769 -0.65728,-0.45821a16.28406,16.28406 0 0 0 -2.46481,-1.3313q-0.26943,-0.11756 -0.54187,-0.22481q-0.41917,-0.16475 -0.8422,-0.30547a15.54483,15.54483 0 0 0 -4.86012,-0.81517l-11.29094,0a0.86579,0.86579 0 0 0 -0.34323,0.0429c-0.35696,0.18963 -4.18696,4.00977 -4.18696,4.00977c0.02832,-0.0429 0.14201,-0.06521 0.3724,-0.06521l11.28965,0c6.85128,0 15.41569,5.13856 15.41569,15.41612c0,7.55404 -5.55173,12.32835 -10.53455,14.3298l0.00343,0c5.95931,-2.37 14.69062,-8.04185 14.69062,-18.31984l0,0a14.91672,14.91672 0 0 0 -3.55156,-9.97981z" fill="url(#a)" id="svg_30"/>
   <path stroke="null" d="m25.78978,79.47973l4.19983,-3.99004l1.48318,-11.69724l-4.1994,3.98746l-1.48361,11.69981z" fill="#d8662e" id="svg_31"/>
   <path stroke="null" d="m25.78978,79.47973l4.19983,-3.99004l1.48318,-11.69724l-4.1994,3.98746l-1.48361,11.69981z" opacity="0.56" fill="url(#b)" id="svg_32"/>
   <path stroke="null" d="m16.51059,55.65021l6.92979,3.13411s3.55242,8.80554 3.83344,8.99689l-1.48318,11.69724l-9.28005,0l0,-23.82823z" fill="#e07032" id="svg_33"/>
   <g stroke="null" id="svg_34">
    <path stroke="null" d="m23.58582,76.33746c0.1669,-1.3948 0.35181,-2.78873 0.51484,-4.18139c0.29689,-2.52402 0.49468,-5.06692 0.63454,-7.60552c0.02145,0.07937 0.0429,0.15874 0.0635,0.23726c-0.10468,2.46095 -0.22996,4.91589 -0.51484,7.36655c-0.16046,1.39523 -0.34623,2.78873 -0.51484,4.18139c-0.12442,1.02969 -0.20293,2.11257 -0.28402,3.14269l-0.21151,0c0.04805,-1.02926 0.1892,-2.12802 0.31234,-3.14097z" fill="#9b3724" id="svg_35"/>
    <path stroke="null" d="m22.70801,58.59811c-0.07294,2.02033 -0.35095,4.02994 -0.47194,6.04941c-0.15102,2.50128 -0.55775,12.33479 -0.80616,14.83092l-0.12871,0c-0.00429,-1.23519 0.47923,-9.79532 0.56847,-11.02623c0.09181,-1.26651 0.13171,-2.53517 0.20808,-3.80212c0.12614,-2.10228 0.42904,-4.19039 0.5363,-6.29267c0.02488,0.06865 0.05706,0.1493 0.09396,0.24069z" fill="#9b3724" id="svg_36"/>
    <path stroke="null" d="m19.56102,63.15747q-0.07422,2.55062 -0.15059,5.09952c-0.0429,1.53638 -0.25142,9.68806 -0.38613,11.21929l-0.15359,0c-0.04977,-1.53595 0.30033,-9.68291 0.34709,-11.21843q0.08066,-2.55062 0.17719,-5.09995q0.12614,-3.27397 0.2763,-6.54709c0.03261,0.01373 0.06521,0.02789 0.09825,0.0429c-0.08066,2.16921 -0.14544,4.3367 -0.20851,6.50376z" fill="#9b3724" id="svg_37"/>
   </g>
   <path stroke="null" d="m16.50887,55.65021l-6.9285,3.13625s-3.55242,8.80554 -3.83344,8.99689l1.48318,11.69724l9.27876,0l0,-23.83038z" fill="#e07032" id="svg_38"/>
   <g stroke="null" id="svg_39">
    <path stroke="null" d="m9.43536,76.33791c-0.1669,-1.3948 -0.35181,-2.78873 -0.51484,-4.18139c-0.29689,-2.52402 -0.49468,-5.06692 -0.63454,-7.60552l-0.06307,0.23726c0.10426,2.46095 0.22953,4.91589 0.51484,7.36655c0.16089,1.39523 0.34666,2.78873 0.51484,4.18139c0.12442,1.02969 0.19907,2.11257 0.28016,3.14269l0.21452,-0.00901c-0.04891,-1.02754 -0.19006,-2.11901 -0.31191,-3.13196z" fill="#9b3724" id="svg_40"/>
    <path stroke="null" d="m10.31187,58.59855c0.07294,2.02033 0.35095,4.02994 0.47194,6.04941c0.15102,2.50128 0.72464,12.33307 0.97177,14.82963l0.12871,0c0.00429,-1.23519 -0.64355,-9.79532 -0.73451,-11.02623c-0.09181,-1.26651 -0.13214,-2.53517 -0.20808,-3.80212c-0.12614,-2.10228 -0.42904,-4.19039 -0.53587,-6.29267c-0.02531,0.06993 -0.05706,0.15059 -0.09396,0.24198z" fill="#9b3724" id="svg_41"/>
    <path stroke="null" d="m13.45928,63.15747q0.07422,2.55062 0.15016,5.09952c0.0429,1.53638 0.02016,9.68806 0.15617,11.21929l0.15317,0c0.04977,-1.53595 -0.06693,-9.68291 -0.11584,-11.21843q-0.08066,-2.55062 -0.17719,-5.09995q-0.12571,-3.27397 -0.27587,-6.54709c-0.03261,0.01373 -0.06564,0.02789 -0.09825,0.0429c0.07894,2.16921 0.14459,4.3367 0.20765,6.50376z" fill="#9b3724" id="svg_42"/>
    <path stroke="null" d="m16.53762,63.21754c0.00472,1.4377 -0.11155,2.87454 -0.1197,4.3131c-0.00729,1.39394 -0.0429,10.55429 0.0429,11.94651l0.11241,0c0.08967,-1.35018 0.02746,-10.47148 0.0236,-11.8238c-0.00429,-1.43727 0.0695,-2.87454 0.06135,-4.31138c-0.01459,-2.59224 -0.05191,-5.18361 -0.12871,-7.7737l-0.0768,0.02617c0.0562,2.54118 0.07594,5.08365 0.08495,7.62311z" fill="#9b3724" id="svg_43"/>
   </g>
   <path stroke="null" d="m14.58679,60.17053l0.03218,5.52856l3.94713,0l0,-5.48523l-3.97931,-0.04333z" fill="#d8662e" id="svg_44"/>
   <path stroke="null" d="m10.97302,77.82193l-0.75167,-8.54468l5.99149,0l0,8.54468l-5.23982,0z" fill="#d8662e" id="svg_45"/>
   <path stroke="null" d="m19.19335,69.26267c-1.18628,-0.05234 -2.3863,-0.01673 -3.57945,0.00987c-0.0266,-0.10125 -0.05148,-0.20293 -0.08237,-0.3029a0.14973,0.14973 0 0 0 -0.28488,0.03904c-0.00429,0.0901 -0.00386,0.18148 -0.00686,0.27201l-0.18963,0.00429c-0.69718,0.01158 -1.39437,0.01931 -2.09155,0.04033a20.3067,20.3067 0 0 0 -2.21855,0.0768a0.34323,0.34323 0 0 0 0.003,0.67959a15.07504,15.07504 0 0 0 2.07653,-0.00386c0.73708,-0.01115 1.47417,-0.03604 2.21082,-0.05191l0.19049,-0.00429c-0.00858,1.04213 0.02875,2.09026 0.04719,3.12982c0.01115,0.69718 0.01888,1.39437 0.04033,2.09155a20.39551,20.39551 0 0 0 0.0768,2.21855a0.34323,0.34323 0 0 0 0.68002,-0.00343a15.11708,15.11708 0 0 0 -0.00429,-2.07611c-0.01115,-0.73751 -0.03561,-1.47417 -0.05148,-2.21082a20.79881,20.79881 0 0 0 -0.23082,-3.16414a13.04827,13.04827 0 0 0 3.45546,-0.45907a0.15016,0.15016 0 0 0 -0.04076,-0.28531z" fill="#9b8a8e" opacity="0.3" id="svg_46"/>
   <path stroke="null" d="m14.60095,75.77972c-0.42131,-0.60537 -0.85335,-1.2013 -1.2781,-1.80495a15.39467,15.39467 0 0 0 -2.74283,-3.21777c-0.11455,-0.09224 -0.29089,0.06736 -0.21452,0.19135c0.71649,1.17341 1.54453,2.29534 2.33181,3.42414c0.399,0.57191 0.795,1.14596 1.2013,1.71271a20.36763,20.36763 0 0 0 1.30255,1.79723a0.34323,0.34323 0 0 0 0.56247,-0.38227a15.0686,15.0686 0 0 0 -1.16269,-1.72043z" fill="#9b8a8e" opacity="0.3" id="svg_47"/>
   <path stroke="null" d="m18.34729,64.6664c-0.00429,0.38313 -0.02617,0.77226 -0.0429,1.1584c-0.07208,0.09396 -0.29132,-0.08581 -0.38956,-0.02188c0.06007,-0.52557 0.05749,-1.61446 0.04676,-2.53131c-0.00558,-0.50669 0.00429,-2.43006 -0.04033,-2.57722c-1.77321,-0.02446 -3.54341,0.21452 -3.54427,0.12571a0.72679,0.72679 0 0 1 0.8881,-0.88167c0.27973,-0.00257 0.55775,-0.00772 0.83877,-0.01244a0.32178,0.32178 0 0 1 0.22696,0.29518l0.00901,0c0.55217,-0.02703 1.15625,-0.25227 1.70199,-0.10125c0.08581,0.02274 0.32006,0.11327 0.3694,0.20594c0.00343,0.01073 0.00644,0.02274 0.00944,0.03475c-0.0369,0.93101 -0.07079,1.84915 -0.0665,2.78101c0.003,0.50969 -0.00129,1.01682 -0.00686,1.52479z" fill="#9b8a8e" opacity="0.3" id="svg_48"/>
   <path stroke="null" d="m14.88969,60.36789l3.37437,0.0369l0,5.10553l-3.34648,0l-0.02917,-5.14071m-0.30676,-0.58392a0.27201,0.27201 0 0 0 -0.27201,0.27372l0.03261,5.75638a0.27201,0.27201 0 0 0 0.27201,0.27029l3.95614,0a0.27201,0.27201 0 0 0 0.27201,-0.27201l0,-5.71261a0.27201,0.27201 0 0 0 -0.26901,-0.27201l-3.99004,-0.0429l-0.00172,-0.00086z" fill="#f2ede2" id="svg_49"/>
   <path stroke="null" d="m22.09621,77.91461l0.76797,-8.73045l-6.12192,0l0,8.73045l5.35394,0z" fill="#d8662e" id="svg_50"/>
   <path stroke="null" d="m21.16777,75.80032c0.09825,-0.72936 0.21023,-1.45872 0.31363,-2.18808a15.39725,15.39725 0 0 1 0.9722,-4.11531a0.14973,0.14973 0 0 1 0.27844,0.07251c-0.10211,1.37292 -0.32564,2.74583 -0.51227,4.11102c-0.09396,0.69075 -0.18449,1.38235 -0.28788,2.07224a20.34618,20.34618 0 0 1 -0.33894,2.19366a0.34323,0.34323 0 0 1 -0.67487,-0.08581a15.11837,15.11837 0 0 1 0.2497,-2.06023z" fill="#9b8a8e" opacity="0.3" id="svg_51"/>
   <path stroke="null" d="m22.75521,69.59431a0.47537,0.47537 0 0 0 -0.53844,-0.28316a0.12871,0.12871 0 0 0 -0.01459,-0.00558c-0.03304,-0.01073 -0.0665,-0.01974 -0.10082,-0.0296c-0.003,0.00429 -0.00558,0.00772 -0.00901,0.01158c-0.20379,-0.03003 -0.40716,-0.06478 -0.60837,-0.09138c-0.26171,-0.03561 -0.52171,-0.06007 -0.7817,-0.0768c-0.40372,0 -0.80787,0.0266 -1.19787,0.03604c-0.86494,0.02102 -1.72987,0.03861 -2.59481,0.03604c-0.03647,0 -0.07337,0 -0.10983,0c0.00858,0.17161 -0.34323,0.6354 -0.34795,0.80702l0.49382,0.00858c1.03569,0.01845 2.0701,0.07036 3.10536,0.08581c0.38613,0.00515 0.82589,-0.02746 1.22318,0c-0.93487,1.11549 -1.54453,2.04693 -2.4026,3.22635c-0.51141,0.70104 -0.98678,1.42612 -1.45872,2.1529c-0.23125,0.35438 -0.30891,0.43204 -0.51484,0.8023c-0.12871,0.23168 -0.03733,1.12622 0.17161,1.14553a7.40988,7.40988 0 0 0 0.40415,-0.72936c0.21924,-0.36382 0.45564,-0.71649 0.68345,-1.07559c0.44405,-0.69976 0.9147,-1.38235 1.39694,-2.05637c0.88038,-1.23005 1.79123,-2.43735 2.67761,-3.66311a2.04393,2.04393 0 0 0 0.57877,-0.13772c-0.01802,-0.05577 -0.03518,-0.10983 -0.05535,-0.16346z" fill="#9b8a8e" opacity="0.3" id="svg_52"/>
   <path stroke="null" d="m22.83243,68.80574l-6.08416,0a0.266,0.266 0 0 1 -0.47709,0l-6.08416,0a0.27201,0.27201 0 0 0 -0.27072,0.29561l0.78685,8.94411a0.27158,0.27158 0 0 0 0.27072,0.24841l5.29731,0a0.266,0.266 0 0 1 0.47709,0l5.29774,0a0.27201,0.27201 0 0 0 0.27072,-0.24841l0.78642,-8.94411a0.27158,0.27158 0 0 0 -0.27072,-0.29561zm-0.71434,0.77226l-4.87085,6.94695l0,-6.94867l4.87085,0.00172zm-6.34501,6.94524l-4.87085,-6.94695l4.87085,0l0,6.94695zm-4.93048,-5.68859l4.68936,6.68781l-4.10116,0l-0.58821,-6.68781zm10.74607,6.68781l-4.09944,0l4.68936,-6.68781l-0.58992,6.68781z" fill="#f2ede2" id="svg_53"/>
   <path stroke="null" d="m22.86204,58.78818c0.08924,0.10297 0.25957,0.27287 0.49682,0.49811c0.46593,1.15497 3.04229,4.41907 3.63093,7.40945c0.0798,0.02317 0.15574,0.04805 0.23082,0.07379l0.32993,-1.21503l3.92225,-1.75905l-0.82375,4.49501l-3.75535,2.60596l-0.89669,-1.321a4.619,4.619 0 0 1 -0.41659,-0.91942c-0.60065,-1.83585 -2.53946,-7.95519 -3.36107,-8.573c-1.12064,-0.84348 -5.71347,-2.96464 -5.71347,-2.96464l-6.92893,1.90792l6.8324,-2.98609a34.52496,34.52496 0 0 1 6.23604,2.54204a1.70027,1.70027 0 0 1 0.21666,0.20594z" fill="#9b3724" opacity="0.51" id="svg_54"/>
   <path stroke="null" d="m16.51059,55.53952l4.19855,-3.98746l0,0l-0.10511,0.03003c-0.01888,0.00515 -1.89462,0.5393 -3.65753,1.25493c-0.66543,0.26986 -1.38922,0.59078 -2.15162,0.95289a4.50059,4.50059 0 0 0 -1.40595,1.05157l-4.28178,4.07584l7.34424,-3.3216l0.05878,-0.05577l0.10426,0.0296l-0.10383,-0.03003z" fill="#bdb0b3" id="svg_55"/>
   <g stroke="null" id="svg_56">
    <path stroke="null" d="m34.11652,65.80592l-1.711,-1.57328a2.32151,2.32151 0 0 1 -0.62768,-0.96104c-0.28917,-0.84563 -0.88424,-2.52659 -1.6209,-4.26848c-0.52385,-1.23863 -1.06573,-2.38716 -1.4274,-3.13196a4.48686,4.48686 0 0 0 -2.10528,-2.08125c-0.76283,-0.36254 -1.48661,-0.6826 -2.15162,-0.95289c-1.76291,-0.71563 -3.63908,-1.24978 -3.65796,-1.25493l-0.10511,-0.03003l0,0l-4.19855,3.98746l0.10426,0.0296c0.01888,0.00558 1.89505,0.5393 3.65796,1.25493c0.66501,0.26986 1.38836,0.59078 2.15162,0.95289a4.48428,4.48428 0 0 1 2.10528,2.08125c0.36211,0.74524 0.90355,1.89377 1.4274,3.13196c0.73665,1.74189 1.33001,3.42285 1.6209,4.26848a2.32323,2.32323 0 0 0 0.62768,0.96104l1.711,1.57328a0.27201,0.27201 0 0 1 0.01587,0.38613l-0.15359,0.1669l0.97091,-0.92672l0.00944,0.00386l0,-0.01416l3.12982,-2.98695a0.26901,0.26901 0 0 0 0.08795,-0.0635l0.15359,-0.1669a0.27201,0.27201 0 0 0 -0.01459,-0.3857z" fill="#bdb0b3" id="svg_57"/>
   </g>
   <g stroke="null" opacity="0.3" id="svg_58">
    <path stroke="null" d="m34.11652,65.80593l-1.711,-1.57285a2.32151,2.32151 0 0 1 -0.62768,-0.96104c-0.28917,-0.84563 -0.88424,-2.52659 -1.6209,-4.26848c-0.52385,-1.23863 -1.06573,-2.38716 -1.4274,-3.13196a4.43108,4.43108 0 0 0 -0.72378,-1.05543l-4.2333,3.94713l0.00215,0.00772l0,0a4.43151,4.43151 0 0 1 0.7551,1.08975c0.36211,0.74524 0.90355,1.89377 1.4274,3.13196c0.73665,1.74189 1.33001,3.42285 1.6209,4.26848a2.32323,2.32323 0 0 0 0.62768,0.96104l1.711,1.57328a0.27201,0.27201 0 0 1 0.01587,0.38613l-0.15359,0.1669l0.97091,-0.92672l0.00944,0.00386l0,-0.01416l3.12982,-2.98695a0.26943,0.26943 0 0 0 0.08795,-0.0635l0.15359,-0.1669a0.27201,0.27201 0 0 0 -0.01416,-0.38828z" fill="url(#c)" id="svg_59"/>
   </g>
   <path stroke="null" d="m23.77202,58.76072l4.2333,-3.94713a4.50059,4.50059 0 0 0 -1.3815,-1.02583c-0.76283,-0.36254 -1.48661,-0.6826 -2.15162,-0.95289c-1.76291,-0.71563 -3.63908,-1.24978 -3.65796,-1.25493l-0.10511,-0.03003l0,0l-4.19855,3.98746l0.10426,0.0296c0.01888,0.00558 1.89505,0.5393 3.65796,1.25493c0.66501,0.26986 1.38836,0.59078 2.15162,0.95289a4.49287,4.49287 0 0 1 1.35018,0.9915l-0.00257,-0.00558z" opacity="0.3" fill="url(#d)" id="svg_60"/>
   <path stroke="null" d="m16.51059,55.53952l4.19855,-3.98746l0,0l-0.10511,0.03003c-0.01888,0.00515 -1.89462,0.5393 -3.65753,1.25493c-0.66543,0.26986 -1.38922,0.59078 -2.15162,0.95289a4.50059,4.50059 0 0 0 -1.40595,1.05157l-4.28178,4.07584l7.34424,-3.3216l0.05878,-0.05577l0.10426,0.0296l-0.10383,-0.03003z" opacity="0.3" fill="url(#e)" id="svg_61"/>
   <path stroke="null" d="m29.77938,70.34469a0.27201,0.27201 0 0 1 -0.38613,0.01587l-1.711,-1.57328a3.10837,3.10837 0 0 1 -0.83619,-1.2811c-0.28574,-0.83705 -0.87395,-2.49699 -1.60073,-4.21528c-0.51742,-1.22361 -1.05328,-2.3597 -1.4111,-3.09592a3.71159,3.71159 0 0 0 -1.74274,-1.72172c-0.74953,-0.3561 -1.45872,-0.67058 -2.11043,-0.9353c-1.48704,-0.60322 -3.0586,-1.07559 -3.47305,-1.19658c-0.41488,0.12142 -1.98644,0.59336 -3.47305,1.19658c-0.65171,0.26472 -1.36133,0.5792 -2.11086,0.9353a3.71331,3.71331 0 0 0 -1.74274,1.72172c-0.35825,0.73794 -0.89411,1.87446 -1.4111,3.09592c-0.72936,1.72043 -1.31542,3.37952 -1.60073,4.21528a3.11523,3.11523 0 0 1 -0.83619,1.2811l-1.71142,1.57328a0.27158,0.27158 0 0 1 -0.38399,-0.01587l-0.15359,-0.1669a0.27158,0.27158 0 0 1 0.01587,-0.38613l1.711,-1.57328a2.32366,2.32366 0 0 0 0.62811,-0.96147c0.28831,-0.84477 0.88339,-2.52445 1.62047,-4.26805c0.52299,-1.23691 1.0653,-2.3863 1.4274,-3.13196a4.486,4.486 0 0 1 2.10571,-2.08125c0.76197,-0.36211 1.48618,-0.6826 2.15162,-0.95289c1.76291,-0.71563 3.63865,-1.24935 3.65753,-1.25493l0.10511,-0.0296l0.10511,0.0296c0.01888,0.00558 1.89505,0.5393 3.65796,1.25493c0.66501,0.26986 1.38836,0.59078 2.15162,0.95289a4.48428,4.48428 0 0 1 2.10528,2.08125c0.36211,0.74524 0.90355,1.89377 1.42783,3.13196c0.73665,1.74189 1.33001,3.42285 1.6209,4.26848a2.32366,2.32366 0 0 0 0.62811,0.96104l1.711,1.57328a0.27201,0.27201 0 0 1 0.01587,0.38613l-0.15145,0.1669z" fill="#f2ede2" id="svg_62"/>
   <g stroke="null" opacity="0.3" id="svg_63">
    <path stroke="null" d="m34.11652,65.80593l-1.711,-1.57285a2.32151,2.32151 0 0 1 -0.62768,-0.96104c-0.28917,-0.84563 -0.88424,-2.52659 -1.6209,-4.26848c-0.52385,-1.23863 -1.06573,-2.38716 -1.4274,-3.13196a4.43108,4.43108 0 0 0 -0.72378,-1.05543l-4.2333,3.94713l0.00215,0.00772l0,0a4.43151,4.43151 0 0 1 0.7551,1.08975c0.36211,0.74524 0.90355,1.89377 1.4274,3.13196c0.73665,1.74189 1.33001,3.42285 1.6209,4.26848a2.32323,2.32323 0 0 0 0.62768,0.96104l1.711,1.57328a0.27201,0.27201 0 0 1 0.01587,0.38613l-0.15359,0.1669l0.97091,-0.92672l0.00944,0.00386l0,-0.01416l3.12982,-2.98695a0.26943,0.26943 0 0 0 0.08795,-0.0635l0.15359,-0.1669a0.27201,0.27201 0 0 0 -0.01416,-0.38828z" fill="url(#f)" id="svg_64"/>
   </g>
   <g stroke="null" opacity="0.3" id="svg_65">
    <path stroke="null" d="m27.06057,54.03275c0.09782,0.06092 0.19392,0.12442 0.28617,0.19221c-0.09138,-0.06779 -0.18706,-0.13171 -0.28617,-0.19221z" fill="url(#g)" id="svg_66"/>
    <path stroke="null" d="m27.39822,54.26356c0.10039,0.07594 0.19779,0.15574 0.29132,0.2394q-0.14072,-0.12571 -0.29132,-0.2394z" fill="url(#h)" id="svg_67"/>
    <path stroke="null" d="m28.0053,54.81489q-0.14072,-0.15317 -0.29518,-0.29303q0.15402,0.14029 0.29518,0.29303z" fill="url(#i)" id="svg_68"/>
    <path stroke="null" d="m23.47211,58.47285l0.00944,0.00858l-0.00944,-0.00858z" fill="url(#j)" id="svg_69"/>
   </g>
   <path stroke="null" d="m34.11651,65.80549l-1.711,-1.57499c-0.133,-0.12228 -0.63369,-0.25742 -0.73408,-0.40716l-3.96215,3.73733a2.32709,2.32709 0 0 0 0.49682,0.65685l1.711,1.57328a0.27201,0.27201 0 0 1 0.01587,0.38613l-0.15359,0.1669l0.97091,-0.92672l0.00944,0.00386l0,-0.01416l3.12982,-2.98695a0.26901,0.26901 0 0 0 0.08795,-0.0635l0.15359,-0.1669a0.27201,0.27201 0 0 0 -0.01459,-0.38399z" opacity="0.21" fill="url(#k)" id="svg_70"/>
   <g stroke="null" id="svg_71">
    <g stroke="null" id="svg_72">
     <path stroke="null" d="m32.47888,48.64621l0.36725,2.16406l4.1595,-3.98746l-0.36725,-2.16406l-4.1595,3.98746z" fill="url(#a)" id="svg_73"/>
     <path stroke="null" d="m32.47888,48.64621l0.36725,2.16406l4.1595,-3.98746l-0.36725,-2.16406l-4.1595,3.98746z" fill="url(#m)" id="svg_74"/>
    </g>
    <g stroke="null" id="svg_75">
     <path stroke="null" d="m45.45593,70.86641l-0.01073,0.0103l-5.38526,0a0.38613,0.38613 0 0 1 -0.38613,-0.38613l0,-25.40794l0.0399,-0.03818a0.38613,0.38613 0 0 0 -0.38613,-0.38613l-1.95683,0l-4.1595,3.98703l1.95683,0l0.37112,0.37112l-0.02574,0.02488l0,25.47487l0.00343,-0.00343a0.38613,0.38613 0 0 0 0.38184,0.35052l5.39556,0l0.42517,0.37455l0,3.85403l-0.12871,0.28703s4.10201,-3.93083 4.17195,-3.99904a0.38613,0.38613 0 0 0 0.11541,-0.27544l0,0l0,-3.85403l-0.42217,-0.38399z" fill="url(#a)" id="svg_76"/>
     <path stroke="null" d="m35.43664,44.65917l-0.00472,0.00429a0.3827,0.3827 0 0 0 -0.22911,0.10855c-0.06993,0.0695 -4.17152,3.9201 -4.19898,4.03294l0.31234,-0.15917l1.16269,0l4.1595,-3.98703l-1.20173,0.00043z" fill="url(#a)" id="svg_77"/>
    </g>
    <path stroke="null" d="m39.715,45.04444l-4.1595,3.98746l0,25.43626l4.1595,-3.98746l0,-25.43626z" fill="url(#p)" id="svg_78"/>
    <path stroke="null" d="m35.94119,74.85344l4.1595,-3.98746l5.39556,0l-4.1595,3.98746l-5.39556,0z" fill="url(#q)" id="svg_79"/>
    <path stroke="null" d="m39.32972,44.65917l-4.15908,3.98703l0.38613,0.38613l4.15908,-3.98703a0.38613,0.38613 0 0 0 -0.38613,-0.38613z" fill="#fbdf62" opacity="0.3" id="svg_80"/>
    <path stroke="null" d="m39.715,70.48071l-4.15908,3.98746a0.38613,0.38613 0 0 0 0.38613,0.38613l4.15908,-3.98703a0.38613,0.38613 0 0 1 -0.38613,-0.38656z" fill="#fbdf62" opacity="0.3" id="svg_81"/>
    <path stroke="null" d="m35.47526,44.65917a0.38313,0.38313 0 0 0 -0.27244,0.11284c-0.06993,0.0695 -4.17152,3.9201 -4.19898,4.03294l0.31234,-0.15917l4.15908,-3.9866z" fill="url(#r)" id="svg_82"/>
    <path stroke="null" d="m45.88111,71.25168l-4.15908,3.98746l0,3.85403l4.15908,-3.98746l0,-3.85403z" fill="url(#s)" id="svg_83"/>
    <path stroke="null" d="m41.33676,74.85344l0.38613,0.38613l4.15908,-3.98746l-0.38613,-0.38613l-4.15908,3.98746z" fill="#fbdf62" opacity="0.4" id="svg_84"/>
    <path stroke="null" d="m41.59374,79.37977s4.10201,-3.93083 4.17195,-3.99904a0.38613,0.38613 0 0 0 0.11541,-0.27544l-4.15908,3.98746l-0.12828,0.28703z" fill="url(#t)" id="svg_85"/>
    <path stroke="null" d="m37.37289,44.65917l-4.1595,3.98746l1.95683,0l4.1595,-3.98746l-1.95683,0z" fill="url(#u)" id="svg_86"/>
    <path stroke="null" d="m31.31619,48.6462l4.15908,-3.98746l1.16269,0l-4.1595,3.98746l-1.16226,0z" fill="url(#v)" id="svg_87"/>
    <g stroke="null" fill="#fbdf62" stroke-miterlimit="10" id="svg_88">
     <path stroke="null" d="m41.33636,79.17415l-5.78104,0l-4.23924,0c-0.04496,0 -0.08154,-0.03645 -0.08154,-0.08126l0,-4.23951l0,-25.82187c0,-0.0448 0.03658,-0.08126 0.08154,-0.08126l0.90591,0l0.32416,1.91076l0.59951,0.00003l0.3244,-1.91078l1.69996,0c0.0448,0 0.08126,0.03645 0.08126,0.08126l0,25.43654c0,0.38012 0.30937,0.68938 0.68962,0.68938l5.39548,0c0.0448,0 0.08126,0.03645 0.08126,0.08126l0,3.8542c0,0.0448 -0.03645,0.08126 -0.08126,0.08126z" id="svg_89"/>
     <path stroke="null" d="m41.11359,78.87013l0,-3.40867l-5.17271,0c-0.5479,0 -0.99364,-0.44564 -0.99364,-0.9934l0,-25.21377l-1.22044,0l-0.88112,5.19028l-0.88051,-5.19028l-0.42663,0l0,29.61585l9.57504,0m0.22277,0.60807l-10.02029,0c-0.21292,0 -0.38559,-0.17267 -0.38559,-0.3853l0,-30.06138c0,-0.21263 0.17267,-0.3853 0.38559,-0.3853l1.16272,0l0.3671,2.16395l0.36737,-2.16395l1.95674,0c0.21292,0 0.3853,0.17267 0.3853,0.3853l0,25.43654c0,0.21292 0.17267,0.38533 0.38557,0.38533l5.39548,0c0.21289,0 0.3853,0.17267 0.3853,0.3853l0,3.8542c0,0.21263 -0.17241,0.3853 -0.3853,0.3853z" fill="#f3be5b" id="svg_90"/>
    </g>
    <g stroke="null" id="svg_91">
     <g stroke="null" id="svg_92">
      <path stroke="null" d="m58.15112,75.05122l-4.1595,3.98703l-0.12871,0.34323l4.12904,-3.96172a0.38613,0.38613 0 0 0 0.07594,-0.07294l0.00386,-0.00386l0,-0.00257a0.38313,0.38313 0 0 0 0.07937,-0.28917z" fill="url(#a)" id="svg_93"/>
     </g>
     <g stroke="null" id="svg_94">
      <path stroke="null" d="m51.58041,75.05122l-4.15908,3.98703l-0.12871,0.34323l4.12904,-3.96172a0.38613,0.38613 0 0 0 0.07594,-0.07294l0.00386,-0.00386l0,-0.00257a0.3827,0.3827 0 0 0 0.07894,-0.28917z" fill="url(#a)" id="svg_95"/>
     </g>
     <path stroke="null" d="m50.84034,53.90877a0.38613,0.38613 0 0 0 -0.27287,0.11284c-0.0695,0.0695 -4.17109,3.91967 -4.19898,4.03294l0.31234,-0.15917l4.1595,-3.9866z" fill="#f3be5b" id="svg_96"/>
     <path stroke="null" d="m47.92288,74.43599l4.1595,-3.98703l0.35181,-4.223l-4.1595,3.98746l-0.35181,4.22257z" fill="url(#a)" id="svg_97"/>
     <path stroke="null" d="m47.41661,79.17811l4.1595,-3.98746l0.24884,-1.09576l-4.1595,3.76908l-0.24884,1.31414z" fill="url(#a)" id="svg_98"/>
     <path stroke="null" d="m47.41661,79.17811l4.1595,-3.98746l0.24884,-1.09576l-4.1595,3.76908l-0.24884,1.31414z" fill="url(#aa)" id="svg_99"/>
     <path stroke="null" d="m44.75917,79.47846l4.1595,-3.98746l0.56247,-2.13874l-4.1595,3.98746l-0.56247,2.13874z" fill="url(#a)" id="svg_100"/>
     <path stroke="null" d="m51.78637,79.47846l4.1595,-3.98746l0.16947,-2.13874l-4.1595,3.98746l-0.16947,2.13874z" fill="url(#a)" id="svg_101"/>
     <path stroke="null" d="m44.75917,79.47846l4.1595,-3.98746l0.56247,-2.13874l-4.1595,3.98746l-0.56247,2.13874z" fill="url(#ad)" id="svg_102"/>
     <path stroke="null" d="m51.78637,79.47846l4.1595,-3.98746l0.16947,-2.13874l-4.1595,3.98746l-0.16947,2.13874z" fill="url(#ad)" id="svg_103"/>
     <path stroke="null" d="m58.1511,75.05123l-2.97322,-20.81168a0.38613,0.38613 0 0 0 -0.38141,-0.33079l-3.95614,0a0.38613,0.38613 0 0 0 -0.38141,0.33079l-2.97322,20.81168a0.38613,0.38613 0 0 0 0.38141,0.43976l1.05114,0l0.56247,-2.13874l0.16947,2.13874l1.55011,0a0.38613,0.38613 0 0 0 0.37584,-0.30033l0.24927,-1.09576a0.38613,0.38613 0 0 1 0.37584,-0.30033l1.23434,0a0.38613,0.38613 0 0 1 0.37584,0.30033l0.24927,1.09576a0.38613,0.38613 0 0 0 0.37584,0.30033l1.50978,0l0.16947,-2.13874l0.56247,2.13874l1.0919,0a0.38613,0.38613 0 0 0 0.38098,-0.43976zm-4.98068,-4.18482l-0.70405,0a0.38613,0.38613 0 0 1 -0.38399,-0.41745l0.35181,-4.223a0.38613,0.38613 0 0 1 0.76797,0l0.35224,4.223a0.38613,0.38613 0 0 1 -0.38399,0.41745z" fill="url(#a)" id="svg_104"/>
     <path stroke="null" d="m47.89414,74.78479l4.09043,-3.91882l0.44963,-4.64045l-4.12733,3.6009l-0.41273,4.95837z" fill="url(#aa)" id="svg_105"/>
     <path stroke="null" d="m52.46595,70.8664l-4.1595,3.98746l1.08932,0l3.77552,-3.98746l-0.70534,0z" fill="url(#a)" id="svg_106"/>
     <path stroke="null" d="m54.79604,53.90877l-4.1595,3.98746l-3.95614,0l4.1595,-3.98746l3.95614,0z" fill="url(#a)" id="svg_107"/>
     <path stroke="null" d="m55.17831,54.23869l-4.16165,3.99004l2.97322,20.81168l4.1595,-3.98746l-2.97107,-20.81425z" fill="url(#a)" id="svg_108"/>
     <path stroke="null" d="m55.17831,54.23869l-4.16165,3.99004l2.97322,20.81168l4.1595,-3.98746l-2.97107,-20.81425z" fill="url(#ak)" id="svg_109"/>
     <g stroke="null" opacity="0.4" id="svg_110">
      <path stroke="null" d="m54.79775,53.90877l-4.16165,3.98703a0.38613,0.38613 0 0 1 0.38141,0.33079l4.15908,-3.98746a0.38613,0.38613 0 0 0 -0.37884,-0.33036z" fill="#fbdf62" id="svg_111"/>
     </g>
     <g stroke="null" fill="#fbdf62" stroke-miterlimit="10" id="svg_112">
      <path stroke="null" d="m53.61011,79.17451l-0.85734,0l-0.50298,-1.9122l-0.59713,0.05332l-0.14725,1.85888l-1.22876,0c-0.03821,0 -0.07083,-0.02608 -0.07935,-0.06342l-0.24906,-1.09569c-0.07149,-0.3158 -0.34797,-0.53658 -0.67228,-0.53658l-1.23453,0c-0.32384,0 -0.60027,0.22059 -0.67223,0.53645l-0.24911,1.09595c-0.00846,0.03739 -0.04106,0.06329 -0.07932,0.06329l-1.26904,0l-0.14725,-1.85888l-0.59713,-0.05332l-0.50296,1.9122l-0.81683,0c-0.03072,0 -0.05038,-0.01521 -0.06146,-0.02799c-0.0111,-0.01281 -0.02341,-0.03446 -0.01906,-0.06492l2.9729,-20.81147c0.00571,-0.03978 0.04033,-0.06986 0.08052,-0.06986l3.95646,0c0.0402,0 0.07482,0.03009 0.08055,0.07002l2.97314,20.81131c0.00435,0.03038 -0.00798,0.05203 -0.01911,0.06484c-0.0111,0.01281 -0.03077,0.02807 -0.06141,0.02807zm-4.95143,-9.61859c-0.36755,0 -0.65652,0.26587 -0.68716,0.63214l-0.35186,4.22304c-0.01582,0.19189 0.04986,0.38287 0.18011,0.5243c0.13017,0.14132 0.315,0.2224 0.50707,0.2224l0.70373,0c0.19236,0 0.37735,-0.08118 0.50757,-0.22271c0.13015,-0.14149 0.19564,-0.33249 0.17967,-0.52404l-0.35216,-4.2229c-0.03045,-0.36629 -0.31937,-0.63222 -0.68697,-0.63222z" id="svg_113"/>
      <path stroke="null" d="m53.35335,78.87049l-2.90956,-20.36619l-3.57016,0l-2.90929,20.36619l0.32568,0l1.35467,-5.15045l0.40798,5.15045l0.81036,0l0.20975,-0.92275c0.10367,-0.45509 0.50202,-0.77294 0.96866,-0.77294l1.23453,0c0.46734,0 0.86577,0.31819 0.96876,0.77323l0.20967,0.92246l0.77012,0l0.4079,-5.15045l1.35475,5.15045l0.36619,0m-4.69468,-9.61858c0.52977,0 0.94611,0.38318 0.98994,0.91097l0.35215,4.22288c0.02304,0.27605 -0.07133,0.55132 -0.2589,0.75521c-0.1876,0.20391 -0.45415,0.32086 -0.7313,0.32086l-0.70373,0c-0.27679,0 -0.54313,-0.11679 -0.7307,-0.32044c-0.18765,-0.20373 -0.28226,-0.47889 -0.25948,-0.75553l0.35187,-4.22311c0.04415,-0.52778 0.46056,-0.91083 0.99016,-0.91083m4.95143,10.22666l-1.09176,0l-0.56261,-2.13892l-0.1694,2.13892l-1.50969,0c-0.18003,0 -0.33584,-0.12454 -0.3758,-0.29994l-0.24908,-1.09581c-0.0397,-0.1754 -0.19579,-0.29994 -0.3758,-0.29994l-1.23453,0c-0.18001,0 -0.33582,0.12454 -0.37578,0.29994l-0.24908,1.09581c-0.0397,0.1754 -0.19579,0.29994 -0.3758,0.29994l-1.54994,0l-0.16943,-2.13892l-0.56258,2.13892l-1.05125,0c-0.23468,0 -0.41468,-0.20773 -0.38151,-0.43996l2.9729,-20.81147c0.02718,-0.1898 0.1898,-0.33092 0.38151,-0.33092l3.95646,0c0.19168,0 0.3543,0.14112 0.38151,0.33092l2.97316,20.81147c0.03318,0.23222 -0.14711,0.43996 -0.38151,0.43996zm-4.95143,-9.61859c-0.18223,0 -0.36446,0.11781 -0.38418,0.35344l-0.35187,4.22293c-0.01849,0.2246 0.15879,0.41741 0.38421,0.41741l0.70373,0c0.2257,0 0.40298,-0.19281 0.38423,-0.41741l-0.35215,-4.22293c-0.01959,-0.23563 -0.20177,-0.35344 -0.38397,-0.35344z" fill="#f3be5b" id="svg_114"/>
     </g>
     <path stroke="null" d="m54.79604,53.90877l-4.1595,3.98746l-3.95614,0l4.1595,-3.98746l3.95614,0z" fill="url(#al)" id="svg_115"/>
    </g>
    <g stroke="null" id="svg_116">
     <path stroke="null" d="m73.24459,53.90834l-3.85403,0a0.38613,0.38613 0 0 0 -0.38613,0.38613l0,5.78083l-4.50917,-6.01208a0.38613,0.38613 0 0 0 -0.30848,-0.15402l-4.04667,0a0.38613,0.38613 0 0 0 -0.38613,0.38613l0,20.81168a0.38613,0.38613 0 0 0 0.38613,0.38613l1.16269,0l0.36725,-2.16406l0.36725,2.16406l1.95683,0a0.38613,0.38613 0 0 0 0.38613,-0.38613l0,-12.72006l4.62501,6.16653l0,6.55224a0.38613,0.38613 0 0 0 0.38613,0.38613l1.95683,0l0.36725,-2.16406l0.36725,2.16406l1.16269,0a0.38613,0.38613 0 0 0 0.38613,-0.38613l0,-20.81168a0.38613,0.38613 0 0 0 -0.38699,-0.3857z" fill="url(#a)" id="svg_117"/>
     <path stroke="null" d="m60.09207,79.37976s4.10244,-3.93083 4.17195,-3.99904a0.38613,0.38613 0 0 0 0.11541,-0.27544l-4.1595,3.98746l-0.12785,0.28703z" fill="#fbdf62" id="svg_118"/>
     <g stroke="null" opacity="0.4" id="svg_119">
      <path stroke="null" d="m60.33661,58.04983l4.1595,-3.98703a0.38613,0.38613 0 0 0 -0.30848,-0.15402l-4.15908,3.98703a0.38613,0.38613 0 0 1 0.30805,0.15402z" fill="#fbdf62" id="svg_120"/>
     </g>
     <path stroke="null" d="m69.34123,79.38062s4.10244,-3.93083 4.17195,-3.99904a0.38356,0.38356 0 0 0 0.11584,-0.27501l-4.16165,3.98703l-0.12614,0.28703z" fill="#fbdf62" id="svg_121"/>
     <path stroke="null" d="m57.14415,79.47844l4.1595,-3.98746l0.36725,-2.16406l-4.1595,3.98746l-0.36725,2.16406z" fill="url(#a)" id="svg_122"/>
     <path stroke="null" d="m71.71464,73.32821l-4.1595,3.98746l-0.36725,2.16406l4.1595,-3.98746l0.36725,-2.16406z" fill="url(#a)" id="svg_123"/>
     <path stroke="null" d="m57.14415,79.47844l4.1595,-3.98746l0.36725,-2.16406l-4.1595,3.98746l-0.36725,2.16406z" fill="url(#ad)" id="svg_124"/>
     <path stroke="null" d="m71.71464,73.32821l-4.1595,3.98746l-0.36725,2.16406l4.1595,-3.98746l0.36725,-2.16406z" fill="url(#ad)" id="svg_125"/>
     <path stroke="null" d="m55.98148,57.8958l4.1595,-3.98746l4.04667,0l-4.1595,3.98746l-4.04667,0z" fill="url(#a)" id="svg_126"/>
     <path stroke="null" d="m60.3366,58.04982l4.1595,-3.98746l4.50917,6.01208l-4.1595,3.98746l-4.50917,-6.01208z" fill="url(#as)" id="svg_127"/>
     <path stroke="null" d="m60.3366,58.04982l4.1595,-3.98746l4.50917,6.01208l-4.1595,3.98746l-4.50917,-6.01208z" fill="url(#at)" id="svg_128"/>
     <path stroke="null" d="m65.23106,57.8958l4.1595,-3.98746l3.85403,0l-4.1595,3.98746l-3.85403,0z" fill="url(#a)" id="svg_129"/>
     <path stroke="null" d="m60.2212,79.09319l4.15908,-3.98746l0,-9.93047l-1.47503,-1.37292l-2.68405,2.57422l0,12.71663z" fill="url(#a)" id="svg_130"/>
     <path stroke="null" d="m60.2212,79.09319l4.15908,-3.98746l0,-9.93047l-1.47503,-1.37292l-2.68405,2.57422l0,12.71663z" fill="url(#aw)" id="svg_131"/>
     <path stroke="null" d="m73.62987,54.29317l-4.1595,3.98746l0,20.81082l4.1595,-3.98746l0,-20.81082z" fill="url(#a)" id="svg_132"/>
     <path stroke="null" d="m73.62987,54.29317l-4.1595,3.98746l0,20.81082l4.1595,-3.98746l0,-20.81082z" fill="url(#aw)" id="svg_133"/>
     <path stroke="null" d="m60.14097,53.90875a0.38613,0.38613 0 0 0 -0.27244,0.11284c-0.0695,0.0695 -4.17109,3.91967 -4.19898,4.03294l0.31234,-0.15917l4.15908,-3.9866z" fill="#f3be5b" id="svg_134"/>
     <path stroke="null" d="m69.39057,53.90875a0.38356,0.38356 0 0 0 -0.27244,0.11284c-0.0695,0.0695 -4.17109,3.91967 -4.19898,4.03294l0.31234,-0.15917l4.15908,-3.9866z" fill="#f3be5b" id="svg_135"/>
     <path stroke="null" d="m69.47079,58.28108l-0.38613,-0.38613l4.1595,-3.98746l0.38613,0.38613l-4.1595,3.98746z" fill="#fbdf62" opacity="0.4" id="svg_136"/>
     <g stroke="null" fill="#fbdf62" stroke-miterlimit="10" id="svg_137">
      <path stroke="null" d="m69.08509,79.17419l-0.90591,0l-0.32416,-1.91073l-0.59951,-0.00003l-0.32437,1.91076l-1.69996,0c-0.04483,0 -0.08129,-0.03645 -0.08129,-0.08126l0,-6.55249l0,-0.10134l-0.0608,-0.08107l-4.62481,-6.16634l-0.5473,-0.72971l0,0.91212l0,12.71883c0,0.0448 -0.03645,0.08126 -0.08126,0.08126l-1.69996,0l-0.32439,-1.91076l-0.59951,0l-0.3244,1.91076l-0.90594,0c-0.04483,0 -0.08128,-0.03645 -0.08128,-0.08126l0,-20.81199c0,-0.04496 0.03645,-0.08154 0.08128,-0.08154l4.04672,0c0.02543,0 0.04986,0.0123 0.06542,0.03294l4.50894,6.01203l0.54729,0.72973l0,-0.91214l0,-5.78102c0,-0.04496 0.03645,-0.08154 0.08129,-0.08154l3.85391,0c0.04496,0 0.08155,0.03658 0.08155,0.08154l0,20.81199c0,0.0448 -0.03658,0.08126 -0.08155,0.08126z" id="svg_138"/>
      <path stroke="null" d="m56.20427,58.50342l0,20.36675l0.42644,0l0.88091,-5.18892l0.88091,5.18892l1.22044,0l0,-14.32031l5.84096,7.78788l0,6.53243l1.22044,0l0.88109,-5.1903l0.88054,5.1903l0.42663,0l0,-20.36675l-3.4087,0l0,7.3828l-5.53701,-7.3828l-3.71264,0m-0.22274,-0.60807l4.04672,0c0.12127,0 0.23549,0.05737 0.30834,0.15418l4.50925,6.01243l0,-5.78102c0,-0.21292 0.17241,-0.38559 0.38533,-0.38559l3.85391,0c0.21292,0 0.3856,0.17267 0.3856,0.38559l0,20.81199c0,0.21263 -0.17267,0.3853 -0.3856,0.3853l-1.16272,0l-0.3671,-2.16393l-0.36734,2.16393l-1.95674,0c-0.21292,0 -0.38533,-0.17267 -0.38533,-0.3853l0,-6.55249l-4.62481,-6.16634l0,12.71883c0,0.21263 -0.17267,0.3853 -0.3853,0.3853l-1.95674,0l-0.36737,-2.16393l-0.36737,2.16393l-1.16273,0c-0.21266,0 -0.38533,-0.17267 -0.38533,-0.3853l0,-20.81199c0,-0.21292 0.17267,-0.38559 0.38533,-0.38559z" fill="#f3be5b" id="svg_139"/>
     </g>
     <path stroke="null" d="m55.98148,57.8958l4.1595,-3.98746l4.04667,0l-4.1595,3.98746l-4.04667,0z" fill="url(#az)" id="svg_140"/>
     <path stroke="null" d="m65.23106,57.8958l4.1595,-3.98746l3.85403,0l-4.1595,3.98746l-3.85403,0z" fill="url(#ba)" id="svg_141"/>
    </g>
    <path stroke="null" d="m15.11793,32.30036l-2.18808,0a0.42904,0.42904 0 0 0 -0.42904,0.42904l0,13.33401a0.42904,0.42904 0 0 0 0.42904,0.42904l2.18808,0c1.89634,0 5.31147,-1.52222 6.59171,-4.56323a6.46257,6.46257 0 0 1 -2.43263,0.5762l-2.18808,0a0.42603,0.42603 0 0 1 -0.1669,-0.03389l-0.00386,-0.00215a0.42432,0.42432 0 0 1 -0.13171,-0.08967c-0.00386,-0.00429 -0.00729,-0.00901 -0.01115,-0.0133a0.43461,0.43461 0 0 1 -0.04762,-0.06135a0.42517,0.42517 0 0 1 -0.0502,-0.1167a0.42003,0.42003 0 0 1 -0.01673,-0.11112l0,-9.59754a6.95725,6.95725 0 0 0 -1.54281,-0.17934z" fill="url(#a)" id="svg_142"/>
    <path stroke="null" d="m15.11793,32.30036l-2.18808,0a0.42904,0.42904 0 0 0 -0.42904,0.42904l0,13.33401a0.42904,0.42904 0 0 0 0.42904,0.42904l2.18808,0c1.89634,0 5.31147,-1.52222 6.59171,-4.56323a6.46257,6.46257 0 0 1 -2.43263,0.5762l-2.18808,0a0.42603,0.42603 0 0 1 -0.1669,-0.03389l-0.00386,-0.00215a0.42432,0.42432 0 0 1 -0.13171,-0.08967c-0.00386,-0.00429 -0.00729,-0.00901 -0.01115,-0.0133a0.43461,0.43461 0 0 1 -0.04762,-0.06135a0.42517,0.42517 0 0 1 -0.0502,-0.1167a0.42003,0.42003 0 0 1 -0.01673,-0.11112l0,-9.59754a6.95725,6.95725 0 0 0 -1.54281,-0.17934z" fill="url(#bc)" id="svg_143"/>
    <path stroke="null" d="m4.14446,23.71492l-4.15865,3.99004l3.53654,-0.95503l4.1595,-3.98746l-3.5374,0.95246z" fill="url(#a)" id="svg_144"/>
    <path stroke="null" d="m4.14446,23.71492l-4.15865,3.99004l3.53654,-0.95503l4.1595,-3.98746l-3.5374,0.95246z" fill="url(#be)" id="svg_145"/>
    <path stroke="null" d="m0.93313,25.76399l4.1329,-3.95013l2.68491,0.51484l-3.45374,2.81533l-3.36407,0.61996z" fill="url(#a)" id="svg_146"/>
    <path stroke="null" d="m16.66074,42.07766l-4.1595,3.98746l0,-13.33616l4.1595,-3.98746l0,13.33616z" fill="url(#bg)" id="svg_147"/>
    <path stroke="null" d="m17.08892,42.50583a0.42904,0.42904 0 0 1 -0.42904,-0.42904l-4.16165,3.98703l0,0a0.42904,0.42904 0 0 0 0.32221,0.41316l0.10597,0.01502l4.15908,-3.98703l0.00343,0.00086z" fill="#fbdf62" opacity="0.4" id="svg_148"/>
    <path stroke="null" d="m8.52021,54.81273l4.1595,-3.98746l0.36725,-2.16406l-4.1595,3.98746l-0.36725,2.16406z" fill="url(#a)" id="svg_149"/>
    <path stroke="null" d="m8.52021,54.81273l4.1595,-3.98746l0.36725,-2.16406l-4.1595,3.98746l-0.36725,2.16406z" fill="url(#ad)" id="svg_150"/>
    <path stroke="null" d="m0.93313,25.76399l4.1329,-3.95013l2.68491,0.51484l-3.45374,2.81533l-3.36407,0.61996z" fill="url(#bj)" id="svg_151"/>
    <path stroke="null" d="m29.93983,25.42848a14.88755,14.88755 0 0 0 -1.58743,-1.581c-0.29518,-0.2527 -0.60065,-0.48953 -0.91084,-0.71778q-0.32392,-0.23769 -0.65728,-0.45821a16.28406,16.28406 0 0 0 -2.46481,-1.3313q-0.26943,-0.11756 -0.54187,-0.22481q-0.41917,-0.16475 -0.8422,-0.30547a15.54483,15.54483 0 0 0 -4.86012,-0.81517l-11.29094,0a0.86579,0.86579 0 0 0 -0.34323,0.0429c-0.35696,0.18963 -4.18696,4.00977 -4.18696,4.00977c0.02832,-0.0429 0.14201,-0.06521 0.3724,-0.06521l11.28965,0c6.85128,0 15.41569,5.13856 15.41569,15.41612c0,7.55404 -5.55173,12.32835 -10.53455,14.3298l0.00343,0c5.95931,-2.37 14.69062,-8.04185 14.69062,-18.31984l0,0a14.91672,14.91672 0 0 0 -3.55156,-9.97981z" fill="url(#a)" id="svg_152"/>
    <path stroke="null" d="m29.93983,25.42848a14.88755,14.88755 0 0 0 -1.58743,-1.581c-0.29518,-0.2527 -0.60065,-0.48953 -0.91084,-0.71778q-0.32392,-0.23769 -0.65728,-0.45821a16.28406,16.28406 0 0 0 -2.46481,-1.3313q-0.26943,-0.11756 -0.54187,-0.22481q-0.41917,-0.16475 -0.8422,-0.30547a15.54483,15.54483 0 0 0 -4.86012,-0.81517l-11.29094,0a0.86579,0.86579 0 0 0 -0.34323,0.0429c-0.35696,0.18963 -4.18696,4.00977 -4.18696,4.00977c0.02832,-0.0429 0.14201,-0.06521 0.3724,-0.06521l11.28965,0c6.85128,0 15.41569,5.13856 15.41569,15.41612c0,7.55404 -5.55173,12.32835 -10.53455,14.3298l0.00343,0c5.95931,-2.37 14.69062,-8.04185 14.69062,-18.31984l0,0a14.91672,14.91672 0 0 0 -3.55156,-9.97981z" fill="url(#bl)" id="svg_153"/>
    <path stroke="null" d="m29.93983,25.42848a14.88755,14.88755 0 0 0 -1.58743,-1.581c-0.29518,-0.2527 -0.60065,-0.48953 -0.91084,-0.71778q-0.32392,-0.23769 -0.65728,-0.45821a16.28406,16.28406 0 0 0 -2.46481,-1.3313q-0.26943,-0.11756 -0.54187,-0.22481q-0.41917,-0.16475 -0.8422,-0.30547a15.54483,15.54483 0 0 0 -4.86012,-0.81517l-11.29094,0a0.86579,0.86579 0 0 0 -0.34323,0.0429c-0.35696,0.18963 -4.18696,4.00977 -4.18696,4.00977c0.02832,-0.0429 0.14201,-0.06521 0.3724,-0.06521l11.28965,0c6.85128,0 15.41569,5.13856 15.41569,15.41612c0,7.55404 -5.55173,12.32835 -10.53455,14.3298l0.00343,0c5.95931,-2.37 14.69062,-8.04185 14.69062,-18.31984l0,0a14.91672,14.91672 0 0 0 -3.55156,-9.97981z" fill="url(#bm)" id="svg_154"/>
    <g stroke="null" fill="#fbdf62" stroke-miterlimit="10" id="svg_155">
     <path stroke="null" d="m13.91469,54.59968l-4.48042,0l-0.3373,-1.98675l-0.41966,0.00003l-0.33702,1.98673l-2.56201,0c-0.08372,0 -0.16055,-0.04991 -0.19566,-0.12714l-0.0056,0.00113c-0.01412,-0.03001 -0.021,-0.05931 -0.021,-0.08945l0,-24.70998l0,-0.21283l-0.01231,0c-0.04792,-0.42004 -0.23759,-0.80701 -0.54596,-1.10665c-0.34333,-0.33309 -0.79528,-0.51724 -1.27341,-0.51916c-0.12363,-0.00837 -1.83985,-0.12513 -2.95484,-0.22198c0.72183,-0.20916 1.90825,-0.48752 2.79196,-0.65364c0.14243,-0.02669 0.19653,-0.13379 0.19957,-0.21738c0.00662,-0.18201 -0.04067,-0.24979 -1.14584,-0.5941c-0.39127,-0.1219 -0.84388,-0.25338 -1.17836,-0.34625c0.08115,-0.02075 0.17985,-0.04401 0.29983,-0.06974c0.36326,-0.07789 0.80759,-0.15543 1.23731,-0.23041c0.60398,-0.1054 1.12559,-0.19643 1.38897,-0.27968c0.09618,-0.03043 0.15974,-0.11273 0.16196,-0.20967c0.0045,-0.19653 -0.11467,-0.24031 -0.8901,-0.52526c-0.20897,-0.07679 -0.51582,-0.18954 -0.76954,-0.29418l2.91301,0l0.38096,0l7.75546,0c1.70881,0 3.51606,0.32874 5.22636,0.95071c1.82652,0.6642 3.47924,1.62379 4.91223,2.85209c1.55834,1.33575 2.78282,2.9328 3.63942,4.74679c0.94548,2.00217 1.42488,4.24076 1.42488,6.65358c0,2.37403 -0.55866,4.60914 -1.66042,6.64321c-0.96418,1.78002 -2.32364,3.37906 -4.04065,4.75266c-1.48712,1.18972 -3.21646,2.17793 -5.00108,2.85777c-1.60734,0.61232 -3.20572,0.94954 -4.50074,0.94954zm-0.98518,-22.51206c-0.35349,0 -0.64107,0.28748 -0.64107,0.64083l0,13.33608c0,0.35351 0.28758,0.6411 0.64107,0.6411l2.18844,0c2.5507,0 7.30883,-2.51032 7.30883,-7.30915c0,-5.04128 -4.27397,-7.30887 -7.30883,-7.30887l-2.18844,0z" id="svg_156"/>
     <path stroke="null" d="m4.02782,24.40613c0.08222,0.03101 0.1578,0.06023 0.22308,0.08689c0.20855,0.08516 0.49416,0.20179 0.48675,0.52459c-0.00427,0.18647 -0.12905,0.35032 -0.31057,0.40775c-0.27695,0.08754 -0.80505,0.17969 -1.41655,0.2864c-0.20103,0.03509 -0.44666,0.07796 -0.69255,0.12355c0.12248,0.03669 0.24419,0.07376 0.36051,0.11001c0.30434,0.09482 0.54734,0.17599 0.72224,0.24128c0.26087,0.09739 0.5855,0.21858 0.57296,0.56374c-0.00634,0.17486 -0.12418,0.3722 -0.37292,0.41881c-0.46169,0.0868 -1.02137,0.20792 -1.55078,0.3333c0.81641,0.06138 1.57257,0.11294 1.68213,0.12038c0.5309,0.00386 1.03239,0.20916 1.4139,0.57931c0.29745,0.289 0.49589,0.65089 0.57874,1.04646l0.04407,0l0,25.1194l0.00746,0.01639c0.00063,0.00139 0.00178,0.00246 0.00196,0.00246l2.38224,0l0.72644,-4.28236l0.72706,4.28236l4.30068,0c1.26977,0 2.84124,-0.33225 4.42496,-0.93558c1.76425,-0.6721 3.47382,-1.64899 4.94392,-2.82508c1.69468,-1.35574 3.03591,-2.93295 3.98644,-4.68784c1.08474,-2.00261 1.63473,-4.20359 1.63473,-6.54184c0,-2.38115 -0.47253,-4.58916 -1.40448,-6.5627c-0.84372,-1.7867 -2.05005,-3.35996 -3.58548,-4.67609c-1.41351,-1.21158 -3.04408,-2.15823 -4.84646,-2.81367c-1.68726,-0.61357 -3.46937,-0.93789 -5.15364,-0.93789l-9.88687,0m11.09012,22.51233l-2.18844,0c-0.47085,0 -0.85391,-0.38308 -0.85391,-0.85393l0,-13.33608c0,-0.47071 0.38305,-0.85366 0.85391,-0.85366l2.18844,0c3.12324,0 7.52167,2.33362 7.52167,7.5217c0,2.8084 -1.53397,4.62511 -2.82081,5.65461c-1.41793,1.13439 -3.26312,1.86737 -4.70086,1.86737m-12.49287,-22.93799l11.28962,0c6.85132,0 15.41571,5.13877 15.41571,15.41601c0,10.27751 -10.27723,15.41601 -15.41571,15.41601l-4.66016,0l-0.36739,-2.16395l-0.36708,2.16395l-2.74178,0c-0.17349,0 -0.32196,-0.10362 -0.38939,-0.25181l-0.00029,0.01223c-0.02826,-0.05709 -0.04541,-0.12046 -0.04541,-0.1887l-0.00026,-24.70998c0,-0.45764 -0.18927,-0.87123 -0.49351,-1.16682c-0.29286,-0.28415 -0.69231,-0.459 -1.13256,-0.459c0,0 -2.65178,-0.17892 -3.59726,-0.28306c-0.09979,-0.01088 -0.14086,-0.03128 -0.13379,-0.05928c0.04978,-0.19497 2.45573,-0.75213 3.53633,-0.95526c0.28145,-0.05275 -1.78434,-0.65124 -2.40919,-0.81603c-0.20588,-0.05439 -0.24966,-0.11174 -0.17974,-0.17076c0.30266,-0.25534 2.73851,-0.5463 3.36557,-0.74453c0.21315,-0.06743 -2.19933,-0.75294 -2.04594,-0.97374c0.02828,-0.04109 0.14193,-0.06529 0.37224,-0.06529zm12.49287,22.51234c2.36515,0 7.09601,-2.36545 7.09601,-7.09632c0,-4.73061 -3.94229,-7.09604 -7.09601,-7.09604l-2.18844,0c-0.23657,0 -0.42825,0.19171 -0.42825,0.428l0,13.33608c0,0.23657 0.19168,0.42828 0.42825,0.42828l2.18844,0z" fill="#f3be5b" id="svg_157"/>
    </g>
    <g stroke="null" id="svg_158">
     <path stroke="null" d="m48.96415,24.23276l0,-3.85403a0.38613,0.38613 0 0 0 -0.38613,-0.38613l-13.10276,0a0.38613,0.38613 0 0 0 -0.38613,0.38613l0,20.81168a0.38613,0.38613 0 0 0 0.38613,0.38613l13.10362,0a0.38613,0.38613 0 0 0 0.38613,-0.38613l0,-3.85403a0.38613,0.38613 0 0 0 -0.38613,-0.38613l-8.47904,0a0.38613,0.38613 0 0 1 -0.38613,-0.38613l0,-3.08219a0.38613,0.38613 0 0 1 0.38613,-0.38613l3.85403,0a0.38613,0.38613 0 0 0 0.38613,-0.38613l0,-3.85403a0.38613,0.38613 0 0 0 -0.38613,-0.38613l-3.85403,0a0.38613,0.38613 0 0 1 -0.38613,-0.38613l0,-3.08348a0.38613,0.38613 0 0 1 0.38613,-0.38613l8.47861,0a0.38613,0.38613 0 0 0 0.3857,-0.38098z" fill="#f3be5b" id="svg_159"/>
     <path stroke="null" d="m48.96458,37.33681l-4.1595,3.98746l0,3.85403l4.1595,-3.98746l0,-3.85403z" fill="url(#a)" id="svg_160"/>
     <path stroke="null" d="m44.68837,28.49567l4.21099,-4.04881l-0.15831,0l-3.93598,3.77337l-0.1167,0.27544z" fill="#fbdf62" id="svg_161"/>
     <path stroke="null" d="m40.10112,36.95068l4.14191,-3.98231l-0.00343,0a0.38227,0.38227 0 0 0 0.09997,-0.25742l0,-0.04591l-4.24746,4.0664l0.00901,0.21924z" fill="#fbdf62" id="svg_162"/>
     <path stroke="null" d="m48.96458,37.33681l-4.1595,3.98746l0,3.85403l4.1595,-3.98746l0,-3.85403z" fill="url(#a)" id="svg_163"/>
     <path stroke="null" d="m48.96458,20.37874l-4.1595,3.98746l0,3.85403l4.1595,-3.98746l0,-3.85403z" fill="url(#a)" id="svg_164"/>
     <path stroke="null" d="m35.47526,19.99345a0.38613,0.38613 0 0 0 -0.27244,0.11284c-0.06993,0.06993 -4.17152,3.9201 -4.19898,4.03294l0.31234,-0.1596l4.15908,-3.98617z" fill="#f3be5b" id="svg_165"/>
     <path stroke="null" d="m40.09985,36.95068l-4.1595,3.98746l8.47861,0l4.1595,-3.98746l-8.47861,0z" fill="url(#bq)" id="svg_166"/>
     <path stroke="null" d="m48.96458,37.33681l-4.1595,3.98746l0,3.85403l4.1595,-3.98746l0,-3.85403z" fill="url(#bg)" id="svg_167"/>
     <path stroke="null" d="m44.4198,40.93814l0.38613,0.38613l4.1595,-3.98746l-0.38613,-0.38613l-4.1595,3.98746z" fill="#fbdf62" opacity="0.3" id="svg_168"/>
     <path stroke="null" d="m31.31619,23.98092l4.1595,-3.98746l13.10362,0l-4.1595,3.98746l-13.10362,0z" fill="url(#bs)" id="svg_169"/>
     <path stroke="null" d="m48.96458,20.37874l-4.1595,3.98746l0,3.85403l4.1595,-3.98746l0,-3.85403z" fill="url(#bg)" id="svg_170"/>
     <path stroke="null" d="m43.95388,28.47207l-4.1595,3.98746l-3.85403,0l4.1595,-3.98746l3.85403,0z" fill="url(#bu)" id="svg_171"/>
     <path stroke="null" d="m44.33958,28.85777l-4.1595,3.98746l0,3.85403l4.1595,-3.98746l0,-3.85403z" fill="url(#a)" id="svg_172"/>
     <path stroke="null" d="m39.71456,28.08723l-4.1595,3.98746l0,-3.08348l4.1595,-3.98746l0,3.08348z" fill="url(#bg)" id="svg_173"/>
     <path stroke="null" d="m35.55506,40.55287l4.1595,-3.98703l0,-3.08305l-4.1595,3.98746l0,3.08262z" fill="url(#bg)" id="svg_174"/>
     <g stroke="null" opacity="0.4" id="svg_175">
      <path stroke="null" d="m40.08568,36.95068a1.26008,1.26008 0 0 1 -0.28917,0.13343l-0.6191,0l-3.61892,3.48206a0.38613,0.38613 0 0 0 0.38399,0.3724l0.01545,0l4.14449,-3.98746l-0.01673,-0.00043z" fill="#fbdf62" id="svg_176"/>
     </g>
     <g stroke="null" opacity="0.4" id="svg_177">
      <path stroke="null" d="m39.16625,28.6055l-3.61892,3.48206a0.38613,0.38613 0 0 0 0.38613,0.3724l0.01502,0l4.00548,-3.85403l-0.78771,-0.00043z" fill="#fbdf62" id="svg_178"/>
     </g>
     <path stroke="null" d="m48.5793,19.99345l-4.15908,3.98703l0.21452,0.21452l0.08023,0.08023l0.09181,0.09181l4.15908,-3.98746a0.38613,0.38613 0 0 0 -0.38656,-0.38613z" fill="#fbdf62" id="svg_179"/>
     <path stroke="null" d="m44.68837,45.45331l4.21099,-4.04881l-0.15831,0l-3.93512,3.77509l-0.11756,0.27372z" fill="#fbdf62" id="svg_180"/>
     <path stroke="null" d="m44.33958,28.85777l-4.1595,3.98746l0,3.85403l4.1595,-3.98746l0,-3.85403z" fill="url(#by)" id="svg_181"/>
     <g stroke="null" opacity="0.5" id="svg_182">
      <path stroke="null" d="m40.18007,32.8448l4.1595,-3.98703a0.38613,0.38613 0 0 0 -0.38613,-0.38613l-4.11274,3.94241a1.29397,1.29397 0 0 0 0.08066,0.37455c0.0369,0.10511 0.08023,0.20894 0.12013,0.31363a0.3694,0.3694 0 0 1 0.05792,-0.00601l0.0798,0l0.00086,-0.25142z" fill="#fbdf62" id="svg_183"/>
     </g>
     <g stroke="null" fill="#fbdf62" stroke-miterlimit="10" id="svg_184">
      <path stroke="null" d="m44.41966,45.25907l-8.86434,0l-4.23924,0c-0.04496,0 -0.08154,-0.03658 -0.08154,-0.08156l0,-4.23923l0,-3.8542l0,-4.62455l0,-3.85422l0,-4.23923c0,-0.04496 0.03658,-0.08155 0.08154,-0.08155l4.23924,0l8.86434,0c0.0448,0 0.08126,0.03658 0.08126,0.08155l0,3.85393c0,0.0448 -0.03645,0.08127 -0.08126,0.08127l-8.47904,0c-0.3801,0 -0.68935,0.30937 -0.68935,0.68963l0,3.08303c0,0.38026 0.30926,0.68964 0.68935,0.68964l3.8542,0c0.0448,0 0.08126,0.03646 0.08126,0.08126l0,3.85392c0,0.04482 -0.03645,0.08129 -0.08126,0.08129l-3.8542,0c-0.3801,0 -0.68935,0.30935 -0.68935,0.68962l0,3.08304c0,0.38026 0.30926,0.68962 0.68935,0.68962l8.47904,0c0.0448,0 0.08126,0.03646 0.08126,0.08127l0,3.85392c0,0.04498 -0.03645,0.08156 -0.08126,0.08156z" id="svg_185"/>
      <path stroke="null" d="m31.53855,24.58857l0,20.36645l12.65834,0l0,-3.40866l-8.25627,0c-0.54776,0 -0.99338,-0.44576 -0.99338,-0.99366l0,-3.08304c0,-0.54791 0.44561,-0.99366 0.99338,-0.99366l3.63143,0l0,-3.40838l-3.63143,0c-0.54776,0 -0.99338,-0.44577 -0.99338,-0.99368l0,-3.08303c0,-0.54791 0.44561,-0.99368 0.99338,-0.99368l8.25627,0l0,-3.40866l-12.65834,0m-0.22248,-0.60808l13.10359,0c0.21263,0 0.3853,0.17267 0.3853,0.38559l0,3.85393c0,0.2129 -0.17267,0.3853 -0.3853,0.3853l-8.47904,0c-0.21263,0 -0.3853,0.17267 -0.3853,0.38559l0,3.08303c0,0.21292 0.17267,0.3856 0.3853,0.3856l3.8542,0c0.21292,0 0.3853,0.1724 0.3853,0.3853l0,3.85392c0,0.21292 -0.17239,0.38532 -0.3853,0.38532l-3.8542,0c-0.21263,0 -0.3853,0.17267 -0.3853,0.38558l0,3.08304c0,0.21291 0.17267,0.38558 0.3853,0.38558l8.47904,0c0.21263,0 0.3853,0.1724 0.3853,0.38531l0,3.85392c0,0.21292 -0.17267,0.3856 -0.3853,0.3856l-13.10359,0c-0.21292,0 -0.38559,-0.17267 -0.38559,-0.3856l0,-20.81143c0,-0.21292 0.17267,-0.38559 0.38559,-0.38559z" fill="#f3be5b" id="svg_186"/>
     </g>
    </g>
    <g stroke="null" id="svg_187">
     <path stroke="null" d="m60.16327,28.49567l4.21099,-4.04881l-0.15831,0l-3.93598,3.77337l-0.1167,0.27544z" fill="#fbdf62" id="svg_188"/>
     <path stroke="null" d="m64.05336,19.99345l-13.10362,0a0.38613,0.38613 0 0 0 -0.38613,0.38613l0,30.06127a0.38613,0.38613 0 0 0 0.38613,0.38613l1.16269,0l0.36725,-2.16406l0.36725,2.16406l1.9564,0a0.38613,0.38613 0 0 0 0.38613,-0.38613l0,-8.4799a0.38613,0.38613 0 0 1 0.38613,-0.38613l3.85446,0a0.38613,0.38613 0 0 0 0.38613,-0.38613l0,-3.85403a0.38613,0.38613 0 0 0 -0.38613,-0.38613l-3.85403,0a0.38613,0.38613 0 0 1 -0.38613,-0.38613l0,-11.55866a0.38613,0.38613 0 0 1 0.38613,-0.38613l8.47861,0a0.38613,0.38613 0 0 0 0.38613,-0.38613l0,-3.85403a0.38613,0.38613 0 0 0 -0.38742,-0.38399z" fill="url(#a)" id="svg_189"/>
     <path stroke="null" d="m55.52669,45.46489s4.10244,-3.93083 4.17195,-3.99904a0.38613,0.38613 0 0 0 0.11584,-0.27501l-4.1595,3.98703l-0.12828,0.28703z" fill="#fbdf62" id="svg_190"/>
     <path stroke="null" d="m48.32059,52.6491l4.1595,-3.98746l-0.36725,2.16406l-4.1595,3.98746l0.36725,-2.16406z" fill="url(#a)" id="svg_191"/>
     <path stroke="null" d="m48.32059,52.6491l4.1595,-3.98746l-0.36725,2.16406l-4.1595,3.98746l0.36725,-2.16406z" fill="url(#ad)" id="svg_192"/>
     <path stroke="null" d="m60.27955,24.3662l4.1595,-3.98746l0,3.85403l-4.1595,3.98746l0,-3.85403z" fill="url(#a)" id="svg_193"/>
     <path stroke="null" d="m51.03038,28.99121l4.1595,-3.98746l0,11.56209l-4.1595,3.98746l0,-11.56209z" fill="url(#cd)" id="svg_194"/>
     <path stroke="null" d="m51.41566,40.93857l4.1595,-3.98746l3.85403,0l-4.1595,3.98746l-3.85403,0z" fill="url(#ce)" id="svg_195"/>
     <path stroke="null" d="m55.65498,41.32384l4.1595,-3.98746l0,3.85403l-4.1595,3.98746l0,-3.85403z" fill="url(#a)" id="svg_196"/>
     <path stroke="null" d="m46.79066,23.98092l4.1595,-3.98746l13.10362,0l-4.1595,3.98746l-13.10362,0z" fill="url(#cg)" id="svg_197"/>
     <path stroke="null" d="m55.18945,50.44l0,-8.47904l-4.1595,3.6039l0,8.86045l4.1595,-3.98532z" fill="url(#a)" id="svg_198"/>
     <path stroke="null" d="m55.18945,50.44l0,-8.47904l-4.1595,3.6039l0,8.86045l4.1595,-3.98532z" fill="url(#ci)" id="svg_199"/>
     <path stroke="null" d="m64.05334,19.99345l-4.15908,3.98703l0.38613,0.38613l4.16165,-3.98746a0.38613,0.38613 0 0 0 -0.38871,-0.3857z" fill="#fbdf62" id="svg_200"/>
     <path stroke="null" d="m59.42878,36.95111l-4.1595,3.98746l0.38613,0.38613l4.1595,-3.98703a0.38613,0.38613 0 0 0 -0.38613,-0.38656z" fill="#fbdf62" opacity="0.5" id="svg_201"/>
     <path stroke="null" d="m50.94887,19.99345a0.38613,0.38613 0 0 0 -0.27287,0.11284c-0.0695,0.06993 -4.17109,3.9201 -4.19898,4.03294l0.31234,-0.1596l4.1595,-3.98617z" fill="#f3be5b" id="svg_202"/>
     <path stroke="null" d="m50.90169,54.71449s4.10244,-3.93083 4.17195,-3.99904a0.38613,0.38613 0 0 0 0.11541,-0.27501l-4.1595,3.98703l-0.12785,0.28703z" fill="#fbdf62" id="svg_203"/>
     <g stroke="null" fill="#fbdf62" stroke-miterlimit="10" id="svg_204">
      <path stroke="null" d="m50.64465,54.50844l-1.69996,0l-0.32413,-1.91076l-0.59951,-0.00003l-0.32439,1.91078l-0.90594,0c-0.04483,0 -0.08128,-0.03645 -0.08128,-0.08126l0,-30.0611c0,-0.04496 0.03645,-0.08156 0.08128,-0.08156l13.10359,0c0.0448,0 0.08126,0.0366 0.08126,0.08156l0,3.85393c0,0.0448 -0.03645,0.08127 -0.08126,0.08127l-8.47878,0c-0.38012,0 -0.68935,0.30937 -0.68935,0.68963l0,11.56179c0,0.38026 0.30923,0.68962 0.68935,0.68962l3.85394,0c0.04496,0 0.08152,0.03646 0.08152,0.08127l0,3.85392c0,0.04498 -0.03656,0.08156 -0.08152,0.08156l-3.85394,0c-0.38012,0 -0.68935,0.30923 -0.68935,0.68934l0,8.47878c0,0.0448 -0.03656,0.08126 -0.08152,0.08126z" id="svg_205"/>
      <path stroke="null" d="m47.01348,24.58855l0,29.61587l0.42642,0l0.88114,-5.1904l0.88046,5.1904l1.22065,0l0,-8.25601c0,-0.54775 0.44561,-0.99339 0.99338,-0.99339l3.63143,0l0,-3.40866l-3.63143,0c-0.54777,0 -0.99338,-0.44576 -0.99338,-0.99366l0,-11.56179c0,-0.54791 0.44561,-0.99368 0.99338,-0.99368l8.25598,0l0,-3.40868l-12.65803,0m-0.22277,-0.60807l13.10359,0c0.21289,0 0.3853,0.17267 0.3853,0.38562l0,3.85391c0,0.2129 -0.17241,0.3853 -0.3853,0.3853l-8.47878,0c-0.21292,0 -0.38531,0.17267 -0.38531,0.38559l0,11.56179c0,0.21291 0.17239,0.38558 0.38531,0.38558l3.85394,0c0.2129,0 0.38557,0.1724 0.38557,0.38531l0,3.85392c0,0.21292 -0.17267,0.3856 -0.38557,0.3856l-3.85394,0c-0.21292,0 -0.38531,0.1724 -0.38531,0.3853l0,8.47878c0,0.21289 -0.17267,0.3853 -0.38557,0.3853l-1.95677,0l-0.36708,-2.16395l-0.36737,2.16395l-1.16273,0c-0.21292,0 -0.38533,-0.17241 -0.38533,-0.3853l0,-30.06109c0,-0.21295 0.17241,-0.38562 0.38533,-0.38562z" fill="#f3be5b" id="svg_206"/>
     </g>
     <path stroke="null" d="m55.18988,36.56583l-4.1595,3.98703a0.38613,0.38613 0 0 0 0.38613,0.38613l4.1595,-3.98746a0.38613,0.38613 0 0 1 -0.38613,-0.3857z" fill="#fbdf62" opacity="0.4" id="svg_207"/>
     <path stroke="null" d="m60.27955,24.3662l4.1595,-3.98746l0,3.85403l-4.1595,3.98746l0,-3.85403z" fill="url(#bg)" id="svg_208"/>
     <path stroke="null" d="m55.65498,41.32384l4.1595,-3.98746l0,3.85403l-4.1595,3.98746l0,-3.85403z" fill="url(#ck)" id="svg_209"/>
    </g>
    <g stroke="null" id="svg_210">
     <path stroke="null" d="m62.14802,50.18816l4.1595,-3.98746l1.15625,0l-4.1595,3.98746l-1.15625,0z" fill="url(#a)" id="svg_211"/>
     <path stroke="null" d="m73.24459,24.61846a0.38613,0.38613 0 0 0 0.38613,-0.38613l0,-3.85317a0.38613,0.38613 0 0 0 -0.38613,-0.38613l-6.93708,0a0.38613,0.38613 0 0 0 -0.38613,0.38613l0,3.85403a0.38613,0.38613 0 0 0 0.38613,0.38613l1.15625,0l0,21.58051l-1.15625,0a0.38613,0.38613 0 0 0 -0.38613,0.38613l0,3.85403a0.38613,0.38613 0 0 0 0.38613,0.38613l6.93708,0a0.38613,0.38613 0 0 0 0.38613,-0.38613l0,-3.85403a0.38613,0.38613 0 0 0 -0.38613,-0.38613l-1.15625,0l0,-21.58051l1.15625,-0.00086z" fill="url(#a)" id="svg_212"/>
     <path stroke="null" d="m62.14802,50.18816l4.1595,-3.98746l1.15625,0l-4.1595,3.98746l-1.15625,0z" fill="url(#cn)" id="svg_213"/>
     <path stroke="null" d="m72.08835,24.61846l0,21.58051l-4.1595,3.98746l0,-21.58051l4.1595,-3.98746z" fill="url(#co)" id="svg_214"/>
     <path stroke="null" d="m69.4708,24.3662l4.1595,-3.98746l0,3.85403l-4.1595,3.98746l0,-3.85403z" fill="url(#a)" id="svg_215"/>
     <path stroke="null" d="m69.08381,23.98092l4.1595,-3.98746l-6.93708,0l-4.1595,3.98746l6.93708,0z" fill="url(#cq)" id="svg_216"/>
     <path stroke="null" d="m73.2446,19.99345l-4.1595,3.98703l0.38613,0.38613l4.1595,-3.98746a0.38613,0.38613 0 0 0 -0.38613,-0.3857z" fill="#fbdf62" id="svg_217"/>
     <path stroke="null" d="m73.2446,46.2007l-4.1595,3.98703l0.38613,0.38613l4.1595,-3.98746a0.38613,0.38613 0 0 0 -0.38613,-0.3857z" fill="#fbdf62" opacity="0.3" id="svg_218"/>
     <path stroke="null" d="m66.28948,19.99345a0.38613,0.38613 0 0 0 -0.27244,0.11284c-0.0695,0.06993 -4.17109,3.9201 -4.19898,4.03294l0.31234,-0.1596l4.15908,-3.98617z" fill="#f3be5b" id="svg_219"/>
     <path stroke="null" d="m66.28948,46.22601a0.38613,0.38613 0 0 0 -0.27244,0.11284c-0.0695,0.06993 -4.17109,3.9201 -4.19898,4.03294l0.31234,-0.1596l4.15908,-3.98617z" fill="#f3be5b" id="svg_220"/>
     <path stroke="null" d="m69.4708,50.57343l4.1595,-3.98746l0,3.85403l-4.1595,3.98746l0,-3.85403z" fill="url(#cr)" id="svg_221"/>
     <path stroke="null" d="m67.92884,50.18816l4.1595,-3.98746l1.15625,0l-4.1595,3.98746l-1.15625,0z" fill="url(#cs)" id="svg_222"/>
     <path stroke="null" d="m69.34251,54.71448s4.10244,-3.93083 4.17195,-3.99904a0.38613,0.38613 0 0 0 0.11584,-0.27501l-4.1595,3.98703l-0.12828,0.28703z" fill="#fbdf62" id="svg_223"/>
     <path stroke="null" d="m69.34251,28.5051s4.10244,-3.93083 4.17195,-3.99904a0.38613,0.38613 0 0 0 0.11584,-0.27501l-4.1595,3.98703l-0.12828,0.28703z" fill="#fbdf62" id="svg_224"/>
     <g stroke="null" fill="#fbdf62" stroke-miterlimit="10" id="svg_225">
      <path stroke="null" d="m69.08528,54.50844l-1.54151,0l-3.85391,0l-1.54182,0c-0.0448,0 -0.08126,-0.03645 -0.08126,-0.08126l0,-3.85395c0,-0.04495 0.03645,-0.08153 0.08126,-0.08153l1.15623,0l0.30405,0l0,-0.30404l0,-21.58235l0,-0.30404l-0.30405,0l-1.15623,0c-0.0448,0 -0.08126,-0.03646 -0.08126,-0.08127l0,-3.85393c0,-0.04496 0.03645,-0.08156 0.08126,-0.08156l1.54182,0l3.85391,0l1.54151,0c0.04496,0 0.08154,0.0366 0.08154,0.08156l0,3.85393c0,0.0448 -0.03658,0.08127 -0.08154,0.08127l-1.1562,0l-0.30405,0l0,0.30404l0,21.58235l0,0.30404l0.30405,0l1.1562,0c0.04496,0 0.08154,0.03658 0.08154,0.08153l0,3.85395c0,0.0448 -0.03658,0.08126 -0.08154,0.08126z" id="svg_226"/>
      <path stroke="null" d="m62.37083,24.58855l0,3.40868l1.54151,0l0,22.79852l-1.54151,0l0,3.40867l6.49195,0l0,-3.40867l-1.54177,0l0,-22.79852l1.54177,0l0,-3.40868l-6.49195,0m-0.22279,-0.60807l6.93725,0c0.21292,0 0.38559,0.17267 0.38559,0.38562l0,3.85391c0,0.2129 -0.17267,0.3853 -0.38559,0.3853l-1.1562,0l0,21.58235l1.1562,0c0.21292,0 0.38559,0.17266 0.38559,0.38557l0,3.85395c0,0.21289 -0.17267,0.3853 -0.38559,0.3853l-6.93725,0c-0.21263,0 -0.3853,-0.17241 -0.3853,-0.3853l0,-3.85395c0,-0.21291 0.17267,-0.38557 0.3853,-0.38557l1.15623,0l0,-21.58235l-1.15623,0c-0.21263,0 -0.3853,-0.1724 -0.3853,-0.3853l0,-3.85391c0,-0.21295 0.17267,-0.38562 0.3853,-0.38562z" fill="#f3be5b" id="svg_227"/>
     </g>
     <path stroke="null" d="m69.4708,50.57343l4.1595,-3.98746l0,3.85403l-4.1595,3.98746l0,-3.85403z" fill="url(#ct)" id="svg_228"/>
     <path stroke="null" d="m69.4708,24.3662l4.1595,-3.98746l0,3.85403l-4.1595,3.98746l0,-3.85403z" fill="url(#bg)" id="svg_229"/>
    </g>
    <g stroke="null" id="svg_230">
     <path stroke="null" d="m84.42143,44.65917l-8.13624,0a0.42904,0.42904 0 0 0 -0.42904,0.42904l0,29.97546a0.42904,0.42904 0 0 0 0.42904,0.42904l2.74583,0l0.36382,-2.14518l0.36339,2.14518l4.66362,0c5.13856,0 15.41612,-5.13856 15.41612,-15.41612s-8.56485,-15.41741 -15.41655,-15.41741zm1.2013,22.51195l-2.18808,0a0.42904,0.42904 0 0 1 -0.42904,-0.42904l0,-13.33487a0.42904,0.42904 0 0 1 0.42904,-0.42904l2.18808,0c3.15384,0 7.09626,2.36528 7.09626,7.09626s-4.72884,7.09669 -7.09411,7.09669l-0.00215,0z" fill="url(#a)" id="svg_231"/>
     <path stroke="null" d="m81.46493,56.96608l-2.18808,0a0.42904,0.42904 0 0 0 -0.42904,0.42904l0,13.33616a0.42904,0.42904 0 0 0 0.42904,0.42904l2.18808,0c1.89634,0 5.31147,-1.52222 6.59171,-4.56323a6.46686,6.46686 0 0 1 -2.43221,0.57577l-2.18808,0a0.42904,0.42904 0 0 1 -0.42904,-0.42904l0,-9.59754a6.9418,6.9418 0 0 0 -1.54238,-0.1802z" fill="url(#a)" id="svg_232"/>
     <path stroke="null" d="m81.46493,56.96608l-2.18808,0a0.42904,0.42904 0 0 0 -0.42904,0.42904l0,13.33616a0.42904,0.42904 0 0 0 0.42904,0.42904l2.18808,0c1.89634,0 5.31147,-1.52222 6.59171,-4.56323a6.46686,6.46686 0 0 1 -2.43221,0.57577l-2.18808,0a0.42904,0.42904 0 0 1 -0.42904,-0.42904l0,-9.59754a6.9418,6.9418 0 0 0 -1.54238,-0.1802z" fill="url(#cx)" id="svg_233"/>
     <path stroke="null" d="m74.87061,79.47846l0.36382,-2.14518l4.15908,-3.98746l-0.36382,2.14518l-4.15908,3.98746z" fill="url(#a)" id="svg_234"/>
     <path stroke="null" d="m74.87061,79.47846l0.36382,-2.14518l4.15908,-3.98746l-0.36382,2.14518l-4.15908,3.98746z" fill="url(#ad)" id="svg_235"/>
     <path stroke="null" d="m78.84823,57.39425l4.1595,-3.98746l0,13.33616l-4.1595,3.98746l0,-13.33616z" fill="url(#bg)" id="svg_236"/>
     <path stroke="null" d="m84.42138,44.65917l-8.13624,0a0.42904,0.42904 0 0 0 -0.42646,0.40844l-3.73261,3.57859l8.13624,0c6.85171,0 15.41612,5.13856 15.41612,15.41612c0,7.55404 -5.55173,12.32835 -10.53498,14.3298l0.00343,0c5.95931,-2.37 14.69062,-8.04185 14.69062,-18.31984s-8.56442,-15.41312 -15.41612,-15.41312z" fill="url(#bl)" id="svg_237"/>
     <path stroke="null" d="m84.42138,44.65917l-8.13624,0a0.42904,0.42904 0 0 0 -0.42646,0.40844l-3.73261,3.57859l8.13624,0c6.85171,0 15.41612,5.13856 15.41612,15.41612c0,7.55404 -5.55173,12.32835 -10.53498,14.3298l0.00343,0c5.95931,-2.37 14.69062,-8.04185 14.69062,-18.31984s-8.56442,-15.41312 -15.41612,-15.41312z" fill="url(#dc)" id="svg_238"/>
     <path stroke="null" d="m83.43634,67.17027a0.42904,0.42904 0 0 1 -0.42904,-0.42904l-4.16165,3.98703l0,0a0.42904,0.42904 0 0 0 0.32221,0.41316l0.10597,0.01502l4.15908,-3.98746l0.00343,0.00129z" fill="url(#dd)" id="svg_239"/>
     <path stroke="null" d="m83.43634,67.17027a0.42904,0.42904 0 0 1 -0.42904,-0.42904l-4.16165,3.98703l0,0a0.42904,0.42904 0 0 0 0.32221,0.41316l0.10597,0.01502l4.15908,-3.98746l0.00343,0.00129z" fill="#fbdf62" opacity="0.4" id="svg_240"/>
     <path stroke="null" d="m76.28474,44.65917a0.42904,0.42904 0 0 0 -0.29089,0.11284c-0.06993,0.0695 -4.17152,3.9201 -4.1994,4.03294l0.33079,-0.15917l4.1595,-3.9866z" fill="#fbdf62" id="svg_241"/>
     <g stroke="null" fill="#fbdf62" stroke-miterlimit="10" id="svg_242">
      <path stroke="null" d="m80.26192,79.17415l-4.40689,0l-0.32057,-1.89005l-0.59951,-0.00005l-0.32094,1.8901l-2.48848,0c-0.0684,0 -0.12402,-0.05572 -0.12402,-0.12423l0,-29.97543c0,-0.0685 0.05562,-0.12423 0.12402,-0.12423l8.13639,0c1.69828,0 3.49477,0.32683 5.1952,0.94519c1.81623,0.66047 3.45947,1.61452 4.88416,2.83564c1.54855,1.32736 2.76527,2.91422 3.61638,4.71649c0.93972,1.98992 1.41621,4.21539 1.41621,6.61463c0,2.35865 -0.55499,4.57909 -1.64947,6.59965c-0.95837,1.76925 -2.31,3.35894 -4.0175,4.7249c-1.47984,1.18391 -3.20075,2.16728 -4.97665,2.8438c-1.59726,0.60849 -3.18415,0.9436 -4.46832,0.9436zm-0.98513,-22.51229c-0.40385,0 -0.73233,0.32851 -0.73233,0.7323l0,13.33607c0,0.40382 0.32848,0.73235 0.73233,0.73235l2.18833,0c2.58254,0 7.40009,-2.54164 7.40009,-7.40037c0,-5.10439 -4.32733,-7.40035 -7.40009,-7.40035l-2.18833,0z" id="svg_243"/>
      <path stroke="null" d="m72.30558,49.25429l0,29.61585l2.05164,0l0.87776,-5.16983l0.87682,5.16983l4.15011,0c1.24809,0 2.79654,-0.32804 4.36007,-0.9237c1.74679,-0.66544 3.43947,-1.63266 4.89501,-2.79709c1.67555,-1.34045 3.00115,-2.89898 3.94009,-4.6323c1.07013,-1.97562 1.61271,-4.14733 1.61271,-6.45484c0,-2.35399 -0.46664,-4.53578 -1.38703,-6.4848c-0.83272,-1.7633 -2.02352,-3.31618 -3.53934,-4.61546c-1.39683,-1.19726 -3.00849,-2.13285 -4.7902,-2.78075c-1.66749,-0.6064 -3.42805,-0.92692 -5.09129,-0.92692l-7.95634,0m9.15954,22.51232l-2.18833,0c-0.57149,0 -1.0364,-0.46491 -1.0364,-1.03638l0,-13.33607c0,-0.57144 0.46491,-1.03632 1.0364,-1.03632l2.18833,0c3.19902,0 7.70416,2.39028 7.70416,7.70437c0,2.88088 -1.57118,4.7426 -2.88918,5.79707c-1.44826,1.15867 -3.33828,1.90733 -4.81498,1.90733m-9.3396,-23.12039l8.13639,0c6.85127,0 15.41597,5.13877 15.41597,15.41599c0,10.27725 -10.27749,15.41599 -15.41597,15.41599l-4.66372,0l-0.36352,-2.14327l-0.36388,2.14327l-2.74527,0c-0.2363,0 -0.42804,-0.19171 -0.42804,-0.42828l0,-29.97543c0,-0.23657 0.19174,-0.42828 0.42804,-0.42828zm9.3396,22.51232c2.36546,0 7.09606,-2.36543 7.09606,-7.09632c0,-4.73086 -3.94229,-7.0963 -7.09606,-7.0963l-2.18833,0c-0.23662,0 -0.4283,0.19168 -0.4283,0.42825l0,13.33607c0,0.23659 0.19168,0.4283 0.4283,0.4283l2.18833,0z" fill="#f3be5b" id="svg_244"/>
     </g>
    </g>
   </g>
  </g>
 </g>
</svg>