<svg width="100" height="100" viewBox="0 0 100 100" fill="none" xmlns="http://www.w3.org/2000/svg">
<path d="M50.2529 73.7939C63.373 73.7939 74.0469 63.1201 74.0469 50C74.0469 36.8799 63.373 26.2061 50.2529 26.2061C37.1328 26.2061 26.459 36.8799 26.459 50C26.459 63.1201 37.1328 73.7939 50.2529 73.7939ZM30.4262 59.0312H40.894C41.6106 63.6265 42.8625 67.777 44.5461 71.0308C38.2575 69.3224 33.0938 64.8641 30.4262 59.0312ZM72.0469 50C72.0469 52.4601 71.6312 54.8235 70.8764 57.0312H59.8878C60.159 54.7504 60.3047 52.384 60.3047 49.9785C60.3047 47.5882 60.1611 45.2363 59.8932 42.9688H70.8764C71.6312 45.1765 72.0469 47.5399 72.0469 50ZM58.3047 49.9785C58.3047 52.3921 58.1539 54.7593 57.8752 57.0312H42.6306C42.352 54.7593 42.2012 52.3921 42.2012 49.9785C42.2012 47.5801 42.3501 45.2275 42.6253 42.9688H57.8806C58.1558 45.2275 58.3047 47.5801 58.3047 49.9785ZM40.618 57.0312H29.6295C28.8746 54.8235 28.459 52.4601 28.459 50C28.459 47.5399 28.8746 45.1765 29.6295 42.9688H40.6126C40.3447 45.2363 40.2012 47.5882 40.2012 49.9785C40.2012 52.384 40.3469 54.7504 40.618 57.0312ZM47.1493 71.5693C45.1802 68.4152 43.7182 64.0207 42.9128 59.0312H57.5931C56.7877 64.0207 55.3256 68.4152 53.3566 71.5693C52.3422 71.7146 51.3068 71.7939 50.2529 71.7939C49.199 71.7939 48.1636 71.7146 47.1493 71.5693ZM55.9597 71.0308C57.6433 67.777 58.8953 63.6265 59.6119 59.0312H70.0797C67.412 64.8641 62.2484 69.3224 55.9597 71.0308ZM70.0797 40.9688H59.6185C58.9068 36.3806 57.662 32.233 55.9864 28.9768C62.2629 30.6905 67.4158 35.1442 70.0797 40.9688ZM53.3843 28.4343C55.3448 31.5941 56.7996 35.9857 57.5997 40.9688H42.9062C43.7063 35.9857 45.1611 31.5941 47.1216 28.4343C48.1447 28.2864 49.1895 28.2061 50.2529 28.2061C51.3164 28.2061 52.3611 28.2864 53.3843 28.4343ZM44.5195 28.9768C42.8439 32.233 41.5991 36.3806 40.8873 40.9688H30.4262C33.09 35.1442 38.243 30.6905 44.5195 28.9768Z" fill="black"/>
<path d="M79.125 90C82.0918 90 84.5059 87.5859 84.5059 84.6191V15.3809C84.5059 12.4141 82.0918 10 79.125 10H21.3809C18.4141 10 16 12.4141 16 15.3809V84.6191C16 87.5859 18.4141 90 21.3809 90H79.125ZM18 84.6191V15.3809C18 13.5166 19.5166 12 21.3809 12H79.125C80.9893 12 82.5059 13.5166 82.5059 15.3809V84.6191C82.5059 86.4834 80.9893 88 79.125 88H21.3809C19.5166 88 18 86.4834 18 84.6191Z" fill="black"/>
</svg>
