<svg width="100" height="100" viewBox="0 0 100 100" fill="none" xmlns="http://www.w3.org/2000/svg">
<path d="M31.7985 9.00007C31.1287 9.06527 30.5053 9.49277 30.2035 10.0938L22.1973 26.0938C21.8669 26.7536 21.9425 27.597 22.385 28.1876L47.4043 61.1876C48.1477 62.1672 49.8508 62.1672 50.5942 61.1876L75.6135 28.1876C76.083 27.5724 76.1471 26.6757 75.7699 26.0001L66.7629 10.0001C66.4106 9.39029 65.7162 8.99381 65.0116 9.00007C53.9452 9.00007 42.8513 9.00007 31.7985 9.00007ZM33.2058 13.0001H63.8544L71.6417 26.8438L48.9992 56.6876L26.3255 26.7501L33.2058 13.0001ZM42.807 14.0001C42.1988 14.0614 41.6275 14.4182 41.3058 14.9376L36.3019 22.9376C35.9581 23.479 35.8978 24.1898 36.1456 24.7813L47.1541 50.7813C47.4574 51.502 48.2168 52.006 48.9992 52.006C49.7817 52.006 50.541 51.502 50.8444 50.7813L61.8529 24.7813C62.1006 24.1898 62.0403 23.479 61.6965 22.9376L56.6927 14.9376C56.3356 14.3687 55.6759 14.0024 55.0039 14.0001C50.945 14.0001 46.8514 14.0001 42.807 14.0001V14.0001ZM44.0892 18.0001H53.9093L57.756 24.1563L48.9992 44.8751L40.2425 24.1563L44.0892 18.0001ZM15.9738 36.0001C15.7216 36.0232 15.4727 36.0623 15.2232 36.1251C14.3181 36.3151 13.216 36.5708 12.2834 36.7813C10.053 37.3046 8.60975 39.5721 9.09345 41.8126H9.06218L9.09345 41.8751L14.7228 69.3751C14.7937 69.761 14.9812 70.1247 15.2545 70.4063C19.2575 74.346 23.2716 78.2606 27.2637 82.1876L30.2035 87.8126C30.607 88.4394 30.9986 88.9536 31.4232 89.3751C32.1506 90.0861 33.3176 91.0001 34.9884 91.0001H44.9961C45.813 91.0001 46.7725 90.7913 47.6232 90.0938C48.4738 89.3962 48.9992 88.2096 48.9992 87.0001C48.9992 82.0001 48.9992 77.0001 48.9992 72.0001C49.0092 71.3664 48.8004 69.9124 47.8734 69.0001C44.5705 65.7391 38.8065 59.7273 35.051 56.0313C33.7055 54.7067 31.4729 54.7205 30.1409 56.0313L28.0143 58.1251C26.6612 59.4567 26.709 61.6821 27.9205 63.0001L31.5795 66.9688C31.4959 66.9288 31.4125 66.9158 31.3294 66.8748C28.9183 65.6965 26.7608 64.2104 25.7313 63.281L20.3521 39.2498C20.0552 37.9652 19.1571 36.9658 18.1942 36.4685C17.7128 36.2199 17.2308 36.0624 16.7243 35.9998C16.4812 35.9698 16.2259 35.9767 15.9738 35.9998L15.9738 36.0001ZM83.2757 36.0001C82.7692 36.0627 82.2872 36.2202 81.8058 36.4688C80.8429 36.9661 79.9448 37.9655 79.6479 39.2501L74.2687 63.2813C73.2392 64.2107 71.0817 65.6968 68.6707 66.8751C68.5875 66.9161 68.5041 66.9291 68.4205 66.9691L72.0795 63.0004C73.291 61.6824 73.3388 59.457 71.9857 58.1254L69.8591 56.0316C68.5271 54.7208 66.2945 54.707 64.949 56.0316C61.1935 59.7276 55.4295 65.7394 52.1266 69.0004C51.1996 69.9127 50.9908 71.3667 51.0008 72.0004C51.0008 77.0004 51.0008 82.0004 51.0008 87.0004C51.0008 88.2099 51.5262 89.3965 52.3768 90.0941C53.2275 90.7916 54.187 91.0004 55.0039 91.0004H65.0116C66.6824 91.0004 67.8494 90.0864 68.5768 89.3754C69.3042 88.6644 69.734 87.9379 69.734 87.9379C69.7563 87.8969 69.7771 87.8549 69.7965 87.8129L72.7363 82.1879C76.7284 78.2609 80.7425 74.3463 84.7456 70.4066C85.0188 70.125 85.2063 69.7613 85.2772 69.3754C87.0724 60.1754 89.1647 51.0128 90.9066 41.8129C91.3903 39.5724 89.947 37.3049 87.7166 36.7816C86.7445 36.5538 85.7415 36.3326 84.7768 36.1254C84.2778 35.9997 83.762 35.9402 83.2757 36.0004V36.0001ZM16.1301 40.0001C16.151 40.0004 16.1718 40.0004 16.1927 40.0001C16.234 40.0081 16.3106 40.0115 16.349 40.0313C16.4137 40.0647 16.4287 40.068 16.4429 40.125C18.2973 48.3967 20.1728 56.6675 22.0409 64.9375C22.1231 65.3015 22.3096 65.6413 22.5726 65.9062C24.1514 67.46 26.735 69.0793 29.578 70.4687C32.421 71.858 35.3335 73.0133 37.9907 73C38.7703 73.01 39.5311 72.5122 39.8422 71.798C40.1533 71.0837 39.9965 70.1907 39.4606 69.625L31.2043 60.5937L32.5803 59.2187C36.2332 62.831 41.6863 68.5103 44.9979 71.7833C44.9959 76.803 44.9961 81.9477 44.9961 87H34.9884C34.9262 87 34.5783 86.8328 34.2378 86.5C34.002 86.2453 33.9171 86.1763 33.7061 85.875L30.6726 80.0625C30.5746 79.8776 30.4475 79.7082 30.2973 79.5625C26.3627 75.6903 22.4311 71.8587 18.5069 68C16.5474 59.0179 15.0024 49.9259 12.9714 40.9687C12.9381 40.8254 12.9927 40.7338 13.1903 40.6875L16.1301 40.0001ZM83.8073 40.0001C83.828 39.9961 83.8344 40.0041 83.8386 40.0001C83.849 40.0002 83.8594 40.0002 83.8699 40.0001L86.8096 40.6876C87.0073 40.734 87.0619 40.8255 87.0285 40.9688C85.1555 49.9618 83.3318 58.9909 81.493 68.0001C77.5689 71.8588 73.6372 75.6904 69.7027 79.5626C69.5525 79.7083 69.4253 79.8777 69.3274 80.0626L66.2938 85.8751L66.2313 85.9691C66.1851 86.0391 66.0562 86.213 65.7621 86.5004C65.4216 86.8332 65.0737 87.0004 65.0116 87.0004H55.0039C54.9423 81.7149 54.9962 76.3291 54.9962 71.7896C58.3072 68.5174 63.7646 62.8336 67.4197 59.2191L68.7957 60.5941L60.5394 69.6254C60.0035 70.1911 59.8467 71.0841 60.1578 71.7984C60.4689 72.5126 61.2297 73.0066 62.0093 73.0004C64.6666 73.0134 67.579 71.8584 70.422 70.4691C73.265 69.0797 75.8486 67.4604 77.4274 65.9066C77.6904 65.6417 77.8769 65.3019 77.9591 64.9379C79.7791 56.6575 81.7661 48.4108 83.5571 40.1254C83.5713 40.0682 83.5863 40.065 83.6509 40.0317C83.6894 40.0118 83.766 40.0079 83.8073 40.0005V40.0001Z" fill="#FFDB20"/>
</svg>
