<?xml version="1.0" encoding="utf-8"?>
<!-- Generator: Adobe Illustrator 24.1.3, SVG Export Plug-In . SVG Version: 6.00 Build 0)  -->
<svg version="1.1" id="圖層_1" xmlns="http://www.w3.org/2000/svg" xmlns:xlink="http://www.w3.org/1999/xlink" x="0px" y="0px"
	 viewBox="0 0 100 100" style="enable-background:new 0 0 100 100;" xml:space="preserve">
<style type="text/css">
	.st0{fill:#4E7B99;}
	.st1{fill:#1F344F;}
</style>
<g>
	<g>
		
			<rect x="22.77" y="48.86" transform="matrix(0.7071 -0.7071 0.7071 0.7071 -41.2124 38.7072)" class="st0" width="6.7" height="40.48"/>
	</g>
	<g>
		
			<rect x="70.15" y="10.66" transform="matrix(0.7071 -0.7071 0.7071 0.7071 -0.3247 61.023)" class="st0" width="6.7" height="40.48"/>
	</g>
	<g>
		<polygon class="st1" points="46.65,26.74 53.35,26.74 53.35,2.81 46.65,2.81 0.85,48.61 5.59,53.35 46.65,12.29 		"/>
	</g>
	<g>
		<polygon class="st1" points="94.41,46.65 53.35,87.71 53.35,73.26 46.65,73.26 46.65,97.19 53.35,97.19 99.15,51.39 		"/>
	</g>
	<g>
		<rect x="45.21" y="45.11" class="st0" width="16.44" height="2.7"/>
	</g>
	<g>
		<rect x="45.21" y="52.19" class="st0" width="16.44" height="2.7"/>
	</g>
	<g>
		<polygon class="st1" points="63.01,69.82 36.78,69.82 36.78,30.18 63.01,30.18 63.01,39.97 45.21,39.97 45.21,37.27 60.3,37.27 
			60.3,32.89 39.48,32.89 39.48,67.11 60.3,67.11 60.3,62.73 45.21,62.73 45.21,60.03 63.01,60.03 		"/>
	</g>
</g>
</svg>
