<svg width="100" height="100" viewBox="0 0 100 100" fill="none" xmlns="http://www.w3.org/2000/svg">
<path fill-rule="evenodd" clip-rule="evenodd" d="M72.3284 11.1436L78.075 43.756L94.8952 49.878L69.5255 71.1608L72.6338 88.7888L41.5174 77.4593L27.8054 88.9651L22.0587 56.3528L5.23833 50.2307L30.6081 28.9477L27.4998 11.3199L58.6164 22.6493L72.3284 11.1436ZM55.7244 25.0757L36.1422 41.5051L31.703 16.3296L55.7244 25.0757ZM33.2506 43.9338L31.2636 32.6653L11.6785 49.0955L21.4036 52.6351L22.4339 53.01L33.2506 43.9338ZM25.606 57.6441L30.0423 82.8201L37.9703 76.1678L35.0732 75.113L40.4568 74.0813L49.6254 66.388L25.606 57.6441ZM53.1744 67.6779L47.0486 72.8181L60.313 70.2761L53.1744 67.6779ZM66.3045 72.4568L47.3241 76.0942L68.4306 83.779L66.6334 73.5869L66.443 72.5072L66.3045 72.4568ZM68.8701 67.4431L88.455 51.0132L78.7301 47.4736L79.2628 50.4969L75.6908 46.3674L64.4329 42.2699L68.8701 67.4431ZM63.7756 38.5514L71.2984 41.2895L62.4559 31.0669L63.7756 38.5514ZM61.3491 24.7899L73.9879 39.4012L70.0914 17.2885L62.1635 23.9408L61.3237 24.6457L61.3491 24.7899ZM57.862 27.55L49.0624 34.9329L51.5144 48.8398L62.7138 52.8936L57.862 27.55ZM63.429 56.6295L50.3959 51.9119L41.0222 59.7757L65.7547 68.7775L63.429 56.6295ZM37.4737 58.485L44.2006 52.8418L29.6329 55.6307L37.4737 58.485ZM27.989 52.6166L48.179 48.7513L46.1706 37.3606L27.989 52.6166Z" fill="#008A71"/>
</svg>
