<svg id="圖層_1" data-name="圖層 1" xmlns="http://www.w3.org/2000/svg" viewBox="0 0 99.65 97.8"><defs><style>.cls-1{fill:#bbccdc;}.cls-2{fill:#f8f3ec;}.cls-3{fill:#b9c9d9;}</style></defs><rect class="cls-1" x="28.75" y="37.03" width="5.23" height="31.59" transform="translate(-28.34 36.55) rotate(-45)"/><rect class="cls-1" x="65.72" y="7.23" width="5.23" height="31.59" transform="translate(3.56 53.96) rotate(-45)"/><polygon class="cls-2" points="47.21 18.67 52.44 18.67 52.44 0 47.21 0 11.47 35.74 15.17 39.44 47.21 7.4 47.21 18.67"/><polygon class="cls-2" points="84.48 34.21 52.44 66.25 52.44 54.97 47.21 54.97 47.21 73.64 52.44 73.64 88.18 37.91 84.48 34.21"/><rect class="cls-3" x="46.09" y="33" width="12.83" height="2.11"/><rect class="cls-3" x="46.09" y="38.53" width="12.83" height="2.11"/><polygon class="cls-2" points="59.97 52.28 39.51 52.28 39.51 21.36 59.97 21.36 59.97 29 46.09 29 46.09 26.89 57.86 26.89 57.86 23.47 41.62 23.47 41.62 50.18 57.86 50.18 57.86 46.76 46.09 46.76 46.09 44.65 59.97 44.65 59.97 52.28"/><path class="cls-2" d="M.18,98.66V91.85h3.6a.86.86,0,0,0,0,.63,6.52,6.52,0,0,0-1.3-.1H1.12v2.43H2.6l.94-.08a.61.61,0,0,0-.06.28,1,1,0,0,0,.06.34L2.37,95.3H1.12v2.81a4.51,4.51,0,0,0,.72,0c.31,0,.66,0,1.05,0s.71,0,1-.08a1.12,1.12,0,0,0-.06.35.61.61,0,0,0,.06.28Z" transform="translate(-0.18 -1.1)"/><path class="cls-2" d="M5.48,91.85a2.78,2.78,0,0,0,.54.06,2,2,0,0,0,.48-.06l2.35,5.64a9.28,9.28,0,0,0,.52-1c.2-.45.41-1,.64-1.53s.44-1.13.62-1.64.35-1,.49-1.45a1.3,1.3,0,0,0,.78,0L9,98.66a.24.24,0,0,0-.17-.06.53.53,0,0,0-.23.06Z" transform="translate(-0.18 -1.1)"/><path class="cls-2" d="M13.84,98.66V91.85h3.6a.86.86,0,0,0,0,.63,6.46,6.46,0,0,0-1.3-.1H14.78v2.43h1.49l.94-.08a.61.61,0,0,0-.06.28,1,1,0,0,0,.06.34L16,95.3H14.78v2.81a4.57,4.57,0,0,0,.73,0c.31,0,.66,0,1,0s.71,0,1-.08a1.12,1.12,0,0,0-.06.35.61.61,0,0,0,.06.28Z" transform="translate(-0.18 -1.1)"/><path class="cls-2" d="M19.85,98.66V91.77h2.43a2.48,2.48,0,0,1,1.08.21,1.42,1.42,0,0,1,.66.59,1.68,1.68,0,0,1,.22.85,1.56,1.56,0,0,1-.34,1,2.17,2.17,0,0,1-.8.62,3.21,3.21,0,0,1-.9.25l2.66,3.36a2.88,2.88,0,0,0-1.17,0l-2.58-3.29h-.32v3.29a1.84,1.84,0,0,0-.47-.06A2,2,0,0,0,19.85,98.66ZM20.79,95h.36a2.69,2.69,0,0,0,1.41-.3,1.36,1.36,0,0,0,.61-.64,2.08,2.08,0,0,0,.13-.63,1.23,1.23,0,0,0-.14-.52,1.21,1.21,0,0,0-.5-.51,1.91,1.91,0,0,0-1-.23h-.86Z" transform="translate(-0.18 -1.1)"/><path class="cls-2" d="M27,98.66V91.77h.47L32.28,97V91.77a.73.73,0,0,0,.32.06.68.68,0,0,0,.31-.06v6.89h-.39l-4.86-5.4v5.4a.58.58,0,0,0-.28-.06A1.06,1.06,0,0,0,27,98.66Z" transform="translate(-0.18 -1.1)"/><path class="cls-2" d="M35.71,98.66V91.85h3.6a.86.86,0,0,0,0,.63,6.52,6.52,0,0,0-1.3-.1H36.65v2.43h1.49l.94-.08A.61.61,0,0,0,39,95a1,1,0,0,0,.06.34L37.9,95.3H36.65v2.81a4.57,4.57,0,0,0,.73,0c.31,0,.66,0,1,0s.71,0,1-.08a1.12,1.12,0,0,0-.06.35.61.61,0,0,0,.06.28Z" transform="translate(-0.18 -1.1)"/><path class="cls-2" d="M43.05,98.66l-2.19-6.81a2.2,2.2,0,0,0,1,0l1.72,5.71,2-5.71a.83.83,0,0,0,.62,0l1.88,5.64,1.8-5.64a1.12,1.12,0,0,0,.35.06,1.13,1.13,0,0,0,.36-.06l-2.35,6.81a1.12,1.12,0,0,0-.35-.06,1.13,1.13,0,0,0-.36.06L45.71,93l-1.88,5.63a.69.69,0,0,0-.33-.06A1.86,1.86,0,0,0,43.05,98.66Z" transform="translate(-0.18 -1.1)"/><path class="cls-2" d="M55.93,95.3A3.64,3.64,0,0,1,56.19,94a3.31,3.31,0,0,1,.74-1.13,3.62,3.62,0,0,1,1.16-.77,4.15,4.15,0,0,1,1.52-.28,4.62,4.62,0,0,1,2.35.47l-.24.79h-.08a3,3,0,0,0-.64-.49,3,3,0,0,0-.67-.28,2.8,2.8,0,0,0-.7-.09,2.54,2.54,0,0,0-1.32.36,2.78,2.78,0,0,0-1,1,3.29,3.29,0,0,0-.37,1.6v.12a4.15,4.15,0,0,0,.24,1.41,2.73,2.73,0,0,0,.61,1,2.45,2.45,0,0,0,.86.56,3,3,0,0,0,1,.17,3.52,3.52,0,0,0,1.15-.2,3.19,3.19,0,0,0,1-.56l-.08.63a4.79,4.79,0,0,1-.72.35,3.68,3.68,0,0,1-.77.21,3.75,3.75,0,0,1-.73.07,3.65,3.65,0,0,1-1.36-.25A3.38,3.38,0,0,1,57,97.91a3.33,3.33,0,0,1-.77-1.14A3.67,3.67,0,0,1,55.93,95.3Z" transform="translate(-0.18 -1.1)"/><path class="cls-2" d="M63.27,98.66l3.13-7h.24l3,7H69a2.63,2.63,0,0,0-.41,0L67.5,95.92H65.07l-1,2.74a.9.9,0,0,0-.25,0h-.53Zm2-3.21h2l-1-2.42Z" transform="translate(-0.18 -1.1)"/><path class="cls-2" d="M71.55,91.77h2.51a2.85,2.85,0,0,1,1.09.18,1.33,1.33,0,0,1,.65.53,1.64,1.64,0,0,1,.21.86.71.71,0,0,1,0,.16,1.66,1.66,0,0,1-.44,1.2,2.47,2.47,0,0,1-1.09.65,4.76,4.76,0,0,1-1.28.18,2.47,2.47,0,0,1-.72-.08v3.21a1.72,1.72,0,0,0-.44-.06,2.58,2.58,0,0,0-.5.06Zm.94,3.29h.94a1.56,1.56,0,0,0,.85-.23,1.51,1.51,0,0,0,.54-.61,1.65,1.65,0,0,0,.19-.77,1.35,1.35,0,0,0-.33-.92,1.19,1.19,0,0,0-1-.37H72.49Z" transform="translate(-0.18 -1.1)"/><path class="cls-2" d="M78.35,91.77a1.31,1.31,0,0,0,.43.06,1.35,1.35,0,0,0,.43-.06v6.89a1.35,1.35,0,0,0-.43-.06,1.31,1.31,0,0,0-.43.06Z" transform="translate(-0.18 -1.1)"/><path class="cls-2" d="M83.5,98.66V92.24l-.62,0-.86.1-.72.1a1.12,1.12,0,0,0,.06-.35,1.13,1.13,0,0,0-.06-.36h5.25a1.13,1.13,0,0,0-.06.36,1.12,1.12,0,0,0,.06.35c-.14,0-.39-.06-.77-.11s-.67-.09-.91-.1l-.51,0v6.42a1.25,1.25,0,0,0-.4-.06A1.82,1.82,0,0,0,83.5,98.66Z" transform="translate(-0.18 -1.1)"/><path class="cls-2" d="M87.79,98.66l3.13-7h.23l3,7h-.69a2.5,2.5,0,0,0-.4,0L92,95.92H89.59l-1,2.74a1,1,0,0,0-.26,0h-.52Zm2-3.21h2l-1-2.42Z" transform="translate(-0.18 -1.1)"/><path class="cls-2" d="M96.22,98.66V91.77a1.47,1.47,0,0,0,.46.06.92.92,0,0,0,.4-.06v6.34a4.65,4.65,0,0,0,.73,0c.31,0,.66,0,1,0s.71,0,1-.08a.91.91,0,0,0,0,.23,1,1,0,0,0,0,.16,1.37,1.37,0,0,1,0,.16v.08Z" transform="translate(-0.18 -1.1)"/></svg>