<svg xmlns="http://www.w3.org/2000/svg" viewBox="0 0 77.2897 77.2897"><defs><style>.a{fill:#fff;}.b{fill:#151515;}.c{fill:#d1dd26;}</style></defs><rect class="a" width="77.2897" height="77.2897"/><path class="b" d="M13.6369,41.3054H9.9949V36.0139h3.5992l-.1287,1.1426h-1.928v.8567h1.5281V39.156H11.5374v1.0068h2.1Z"/><path class="b" d="M17.5,41.3054,16.55,39.67l-.9925,1.6354H13.8867l1.8-2.785-1.6281-2.5065h1.75l.7928,1.3853.8356-1.3853h1.6782l-1.65,2.535L19.25,41.3054Z"/><path class="b" d="M23.306,39.77l.15,1.2856a2.4278,2.4278,0,0,1-.714.25,4.4566,4.4566,0,0,1-.9141.0929,2.5935,2.5935,0,0,1-1.9675-.7212,2.787,2.787,0,0,1-.6891-2.0069,3.1948,3.1948,0,0,1,.3143-1.4709,2.2112,2.2112,0,0,1,.9105-.9463,2.9006,2.9006,0,0,1,1.4318-.332,3.9606,3.9606,0,0,1,.91.1,2.7493,2.7493,0,0,1,.7748.3069l-.3284,1.2141a2.0054,2.0054,0,0,0-.55-.3607,1.5593,1.5593,0,0,0-.614-.1178,1.1163,1.1163,0,0,0-.9356.4107,2.3015,2.3015,0,0,0,.0107,2.3637,1.1627,1.1627,0,0,0,.9677.4179,1.774,1.774,0,0,0,.71-.1431A1.6784,1.6784,0,0,0,23.306,39.77Z"/><path class="b" d="M25.6483,41.3054H24.1059V36.0139h1.5424v1.8852h1.3854V36.0139h1.5425v5.2915H27.0337V39.113H25.6483Z"/><path class="b" d="M34.6033,41.3054H33.025q-.1426-.5068-.2855-1H31.0041q-.1428.4926-.2856,1H29.176q.4428-1.3209.8962-2.6459t.9319-2.6456h1.7711q.4854,1.321.939,2.6456T34.6033,41.3054Zm-3.2565-2.1423h1.057q-.1285-.4356-.2642-.8748t-.2642-.8749q-.1359.4357-.2678.8749T31.3468,39.1631Z"/><path class="b" d="M39.7734,41.3054H38.4951L36.56,38.3418v2.9636H35.2031V36.0139h1.4783l1.7351,2.6349V36.0139h1.3569Z"/><path class="b" d="M45.1009,38.1776v2.7493a1.2631,1.2631,0,0,1-.4359.2428,3.6194,3.6194,0,0,1-.6641.1678,4.7465,4.7465,0,0,1-.7638.0608,3.2135,3.2135,0,0,1-1.4926-.3213,2.1813,2.1813,0,0,1-.9463-.9321,3.4746,3.4746,0,0,1,.0071-2.9493,2.2622,2.2622,0,0,1,.95-.9462,3.1172,3.1172,0,0,1,1.4819-.3284,4.1552,4.1552,0,0,1,.95.107,2.93,2.93,0,0,1,.7925.3l-.3284,1.2141a2.294,2.294,0,0,0-.61-.3534,1.9023,1.9023,0,0,0-.6892-.1251q-1.2858,0-1.2853,1.5853,0,1.607,1.3209,1.607a2.3043,2.3043,0,0,0,.3142-.0217V39.32h-.7925V38.1776Z"/><path class="b" d="M49.4783,41.3054h-3.642V36.0139h3.5992l-.1285,1.1426H47.3788v.8567h1.5283V39.156H47.3788v1.0068h2.0995Z"/><path class="c" d="M50.9422,41.3983a.7928.7928,0,0,1-.5764-.2286.7977.7977,0,0,1,0-1.1282.8446.8446,0,0,1,1.1559,0,.8058.8058,0,0,1,0,1.1282A.79.79,0,0,1,50.9422,41.3983Z"/><path class="b" d="M57.69,41.3054H56.1121q-.1428-.5068-.2856-1H54.0912q-.1428.4926-.2856,1H52.2631q.4426-1.3209.8961-2.6459t.932-2.6456h1.7711q.4854,1.321.939,2.6456T57.69,41.3054Zm-3.2564-2.1423h1.0569q-.1284-.4356-.2641-.8748t-.2642-.8749q-.136.4357-.2678.8749T54.4339,39.1631Z"/><path class="b" d="M59.8327,41.3054H58.29V36.0139h1.7a4.0161,4.0161,0,0,1,1.2319.1713,1.856,1.856,0,0,1,.8355.5105,1.2229,1.2229,0,0,1,.3036.8463,1.18,1.18,0,0,1-.2357.7463,1.4926,1.4926,0,0,1-.6641.4678,2.2124,2.2124,0,0,1,.7534.8319,9.7055,9.7055,0,0,1,.7319,1.7174H61.2039q-.2217-.6426-.4-1.0248a2.84,2.84,0,0,0-.3357-.5748.808.808,0,0,0-.3106-.2535.9956.9956,0,0,0-.325-.0679Zm.2357-4.17h-.2357v1.2h.2357a.8455.8455,0,0,0,.5641-.1751.5585.5585,0,0,0,.207-.4464.4991.4991,0,0,0-.207-.4247A.9268.9268,0,0,0,60.0684,37.1351Z"/><path class="b" d="M65.8172,41.3054H64.2745V37.1635H62.832v-1.15H67.26v1.15H65.8172Z"/><path class="b" d="M70.5642,44.0288H6.7255a.342.342,0,0,1-.3416-.3417V33.6026a.342.342,0,0,1,.3416-.3417H70.5642a.342.342,0,0,1,.3416.3417V43.6871A.342.342,0,0,1,70.5642,44.0288ZM6.7255,33.4941a.1086.1086,0,0,0-.1084.1085V43.6871a.1086.1086,0,0,0,.1084.1085H70.5642a.1086.1086,0,0,0,.1084-.1085V33.6026a.1086.1086,0,0,0-.1084-.1085Z"/></svg>