<svg width="100" height="100" viewBox="0 0 100 100" fill="none" xmlns="http://www.w3.org/2000/svg">
<path d="M64.8 50L87 72.2H79.1375C77.75 72.2 76.5938 71.7375 75.6688 70.8125L55.0875 50L75.6688 29.4187C76.5938 28.4937 77.9813 28.0312 79.1375 28.0312H87L64.8 50ZM24.3313 29.4187C23.4063 28.4937 22.0188 28.0312 20.8625 28.0312H13L35.2 50L13 72.2H20.8625C22.25 72.2 23.4063 71.7375 24.3313 70.8125L44.9125 50.2313C44.9125 50 24.3313 29.4187 24.3313 29.4187V29.4187ZM50 55.0875L29.4187 75.6688C28.4937 76.5938 28.0312 77.9813 28.0312 79.1375V87L50.2313 64.8L72.4313 87V79.1375C72.4313 77.75 71.9688 76.5938 71.0438 75.6688L50 55.0875ZM50 44.9125L70.5812 24.3313C71.5062 23.4063 71.9688 22.0188 71.9688 20.8625V13L50 35.2L27.8 13V20.8625C27.8 22.25 28.2625 23.4063 29.1875 24.3313L50 44.9125V44.9125Z" fill="url(#paint0_linear)"/>
<defs>
<linearGradient id="paint0_linear" x1="12.9772" y1="50" x2="87.0327" y2="50" gradientUnits="userSpaceOnUse">
<stop stop-color="#00BFFF"/>
<stop offset="1" stop-color="#6619FF"/>
</linearGradient>
</defs>
</svg>
