<svg width="100" height="100" viewBox="0 0 100 100" fill="none" xmlns="http://www.w3.org/2000/svg">
<path fill-rule="evenodd" clip-rule="evenodd" d="M2 41.2557V59.1526H13.4587L15.4818 56.366H5.33829V51.4316H13.0868L13.0757 48.6956H5.33829V44.0426H13.0825L15.122 41.2557H2Z" fill="black"/>
<mask id="mask0" mask-type="alpha" maskUnits="userSpaceOnUse" x="36" y="41" width="21" height="19">
<path d="M36.8486 41H56.2108V59.4084H36.8486V41Z" fill="black"/>
</mask>
<g mask="url(#mask0)">
<path fill-rule="evenodd" clip-rule="evenodd" d="M49.7651 55.6884C50.7237 55.1518 51.477 54.4017 52.0249 53.4387C52.5729 52.4757 52.8468 51.3976 52.8468 50.2044C52.8468 49.0112 52.5729 47.9331 52.0249 46.9701C51.477 46.0071 50.7237 45.257 49.7651 44.7202C48.8063 44.183 47.7275 43.9148 46.5294 43.9148C45.331 43.9148 44.2526 44.183 43.2943 44.7202C42.3349 45.257 41.5818 46.0071 41.0345 46.9701C40.4863 47.9331 40.2126 49.0112 40.2126 50.2044C40.2126 51.3976 40.4863 52.4757 41.0345 53.4387C41.5818 54.4017 42.3349 55.1518 43.2943 55.6884C44.2526 56.2253 45.331 56.4937 46.5294 56.4937C47.7275 56.4937 48.8063 56.2253 49.7651 55.6884ZM41.5737 58.2195C40.1011 57.4271 38.9454 56.3274 38.1072 54.9216C37.2679 53.5152 36.8486 51.9428 36.8486 50.2044C36.8486 48.4657 37.2679 46.893 38.1072 45.4869C38.9454 44.0808 40.1011 42.9815 41.5737 42.1888C43.0458 41.3964 44.6976 40.9999 46.5294 40.9999C48.3613 40.9999 50.0131 41.3964 51.4857 42.1888C52.9581 42.9815 54.1134 44.0768 54.9523 45.4743C55.7909 46.872 56.2108 48.4487 56.2108 50.2044C56.2108 51.9598 55.7909 53.5365 54.9523 54.9343C54.1134 56.332 52.9581 57.4271 51.4857 58.2195C50.0131 59.0118 48.3613 59.4086 46.5294 59.4086C44.6976 59.4086 43.0458 59.0118 41.5737 58.2195Z" fill="black"/>
</g>
<path fill-rule="evenodd" clip-rule="evenodd" d="M60.0137 41.2556H63.352V56.3406H72.7507L70.7038 59.1528H60.0137V41.2556Z" fill="black"/>
<path fill-rule="evenodd" clip-rule="evenodd" d="M74.9199 41.2556H78.2582V54.53L74.9199 59.1528V41.2556Z" fill="black"/>
<path fill-rule="evenodd" clip-rule="evenodd" d="M29.1863 50.511L35.478 59.1528H31.857L18.5811 41.2556H22.3814L27.2091 48.0565L32.0879 41.2556H35.94L29.1863 50.511Z" fill="black"/>
<mask id="mask1" mask-type="alpha" maskUnits="userSpaceOnUse" x="81" y="41" width="18" height="19">
<path d="M81.3506 41.2556H98.7095V59.1527H81.3506V41.2556Z" fill="white"/>
</mask>
<g mask="url(#mask1)">
<path fill-rule="evenodd" clip-rule="evenodd" d="M91.9558 49.8973L98.2475 41.2556H94.6266L81.3506 59.1527H85.1509L89.9786 52.3518L94.8574 59.1527H98.7096L91.9558 49.8973Z" fill="black"/>
</g>
<path fill-rule="evenodd" clip-rule="evenodd" d="M26.4997 59.1527L22.4821 53.7369L18.5811 59.1527H21.7207H26.4997Z" fill="#3AE287"/>
<path fill-rule="evenodd" clip-rule="evenodd" d="M81.3506 41.2556L85.3682 46.6717L89.2693 41.2556H86.1296H81.3506Z" fill="#F44336"/>
</svg>
