<svg width="100" height="100" viewBox="0 0 100 100" fill="none" xmlns="http://www.w3.org/2000/svg">
<path d="M30.4009 61.6056C30.7549 61.2519 31.2347 61.0532 31.7351 61.0532H77.9011C78.7421 61.0532 79.1631 62.0702 78.5682 62.6647L69.4459 71.7797C69.092 72.1334 68.6121 72.332 68.1117 72.332H21.9457C21.1047 72.332 20.6837 71.3151 21.2786 70.7206L30.4009 61.6056Z" fill="#00FFA3"/>
<path d="M30.4009 27.5523C30.7549 27.1987 31.2347 27 31.7351 27H77.9011C78.7421 27 79.1631 28.017 78.5682 28.6114L69.4459 37.7265C69.092 38.0801 68.6121 38.2788 68.1117 38.2788H21.9457C21.1047 38.2788 20.6837 37.2618 21.2786 36.6674L30.4009 27.5523Z" fill="#00FFA3"/>
<path d="M69.4459 44.4705C69.092 44.1168 68.6121 43.9182 68.1117 43.9182H21.9457C21.1047 43.9182 20.6837 44.9351 21.2786 45.5296L30.4009 54.6446C30.7549 54.9983 31.2347 55.197 31.7351 55.197H77.9011C78.7421 55.197 79.1631 54.18 78.5682 53.5856L69.4459 44.4705Z" fill="#00FFA3"/>
</svg>
