<svg width="100" height="100" viewBox="0 0 100 100" fill="none" xmlns="http://www.w3.org/2000/svg">
<path fill-rule="evenodd" clip-rule="evenodd" d="M52.0373 8.61935L72.8777 19.6298C74.4408 20.4556 74.4408 21.7944 72.8777 22.6202L52.0373 33.6307C50.4743 34.4565 47.94 34.4565 46.377 33.6307L25.5366 22.6202C23.9735 21.7944 23.9735 20.4556 25.5366 19.6298L46.377 8.61935C47.94 7.79355 50.4743 7.79355 52.0373 8.61935Z" stroke="#1969FF" stroke-width="5"/>
<path fill-rule="evenodd" clip-rule="evenodd" d="M52.0373 35.487L72.8777 46.4974C74.4408 47.3232 74.4408 48.6621 72.8777 49.4879L52.0373 60.4983C50.4743 61.3241 47.94 61.3241 46.377 60.4983L25.5366 49.4879C23.9735 48.6621 23.9735 47.3232 25.5366 46.4974L46.377 35.487C47.94 34.6612 50.4743 34.6612 52.0373 35.487Z" stroke="#1969FF" stroke-width="5"/>
<mask id="mask0" mask-type="alpha" maskUnits="userSpaceOnUse" x="21" y="76" width="58" height="16">
<path d="M78.1328 76.25H21.1328V92H78.1328V76.25Z" fill="white"/>
</mask>
<g mask="url(#mask0)">
<path fill-rule="evenodd" clip-rule="evenodd" d="M52.0373 63.5899L72.8777 74.6003C74.4408 75.4261 74.4408 76.765 72.8777 77.5908L52.0373 88.6012C50.4743 89.427 47.94 89.427 46.377 88.6012L25.5366 77.5908C23.9735 76.765 23.9735 75.4261 25.5366 74.6003L46.377 63.5899C47.94 62.7641 50.4743 62.7641 52.0373 63.5899Z" stroke="#1969FF" stroke-width="5"/>
<path d="M24.21 75.7868V21.4133" stroke="#1969FF" stroke-width="5" stroke-linecap="square"/>
<path d="M74.2041 75.7868V21.4133" stroke="#1969FF" stroke-width="5" stroke-linecap="square"/>
</g>
</svg>
