<?xml version="1.0" standalone="no"?>
<!DOCTYPE svg PUBLIC "-//W3C//DTD SVG 20010904//EN"
 "http://www.w3.org/TR/2001/REC-SVG-20010904/DTD/svg10.dtd">
<svg version="1.0" xmlns="http://www.w3.org/2000/svg"
 width="300.000000pt" height="300.000000pt" viewBox="0 0 300.000000 300.000000"
 preserveAspectRatio="xMidYMid meet">

<g transform="translate(0.000000,300.000000) scale(0.100000,-0.100000)"
fill="#000000" stroke="none">
<path d="M0 1500 l0 -1500 1500 0 1500 0 0 1500 0 1500 -1500 0 -1500 0 0
-1500z m1367 1014 c-3 -3 -12 -4 -19 -1 -8 3 -5 6 6 6 11 1 17 -2 13 -5z m360
-8 c4 -3 -24 -6 -61 -6 -42 0 -65 4 -61 10 6 10 111 7 122 -4z m-177 -25 c0
-5 -30 -12 -66 -16 -36 -4 -62 -10 -58 -15 11 -10 204 -43 211 -36 3 3 -7 8
-21 12 -15 3 -25 8 -23 11 9 8 132 -28 217 -64 115 -48 236 -122 289 -177 24
-25 49 -42 55 -39 6 3 8 3 4 -2 -4 -4 12 -27 35 -52 23 -25 47 -54 54 -66 6
-12 16 -22 22 -22 11 0 71 -84 71 -101 0 -6 9 -23 21 -38 11 -14 17 -31 13
-37 -4 -8 -3 -9 4 -5 8 5 12 0 12 -13 0 -11 4 -22 9 -26 5 -3 13 -20 17 -38 3
-17 17 -57 30 -87 13 -30 17 -46 9 -35 -8 11 -19 26 -25 33 -6 6 -7 12 -3 12
4 0 2 5 -5 12 -7 7 -12 21 -12 33 0 12 -6 30 -14 41 -13 17 -14 15 -6 -19 4
-21 13 -51 19 -65 14 -39 31 -184 30 -266 0 -64 -15 -181 -18 -146 -1 11 -4
11 -13 2 -10 -10 -10 -15 -1 -20 12 -8 10 -50 -5 -78 -5 -11 -14 -41 -21 -69
-13 -54 -51 -135 -64 -135 -5 0 -5 -5 -1 -12 4 -6 3 -8 -4 -5 -6 5 3 32 25 76
28 55 37 84 39 133 2 60 2 61 -11 32 -7 -17 -15 -41 -19 -55 l-7 -24 15 25
c24 39 19 18 -13 -50 -16 -37 -30 -57 -33 -49 -4 9 -11 1 -22 -22 -22 -51
-113 -176 -165 -226 -24 -24 -39 -43 -33 -43 6 0 14 5 17 10 3 6 12 10 18 9 7
0 1 -8 -13 -17 -13 -9 -46 -36 -73 -59 -56 -51 -123 -87 -132 -73 -3 6 0 10 7
10 19 0 121 60 114 67 -3 4 -14 -1 -23 -10 -10 -8 -39 -25 -65 -36 -35 -15
-46 -24 -42 -36 3 -8 1 -15 -5 -15 -7 0 -39 -14 -73 -30 -59 -29 -88 -39 -58
-20 18 12 -6 12 -92 1 -31 -4 -55 -4 -52 0 4 7 39 13 148 25 44 5 97 23 71 24
-10 0 134 85 208 122 21 10 35 22 33 27 -3 4 15 27 39 51 25 24 45 48 45 52 0
20 -21 3 -70 -55 -29 -34 -55 -62 -59 -62 -3 0 -10 -3 -16 -6 -23 -13 -46 -18
-40 -9 3 6 12 10 19 10 17 0 227 212 262 264 114 167 168 439 130 654 -55 313
-269 576 -565 692 -42 16 -69 30 -61 30 21 2 -50 28 -75 28 -11 0 -2 -6 20
-14 22 -7 29 -11 15 -9 -14 3 -45 8 -70 11 -25 3 -54 9 -65 14 -11 5 -33 11
-50 13 -16 3 -58 11 -92 18 -46 9 -70 9 -95 1 -30 -10 -29 -10 22 -7 50 4 48
3 -21 -10 -42 -8 -89 -21 -104 -29 -15 -8 -34 -12 -41 -9 -8 3 -14 0 -14 -6 0
-6 -10 -11 -23 -11 -13 0 -44 -13 -70 -30 -31 -19 -49 -25 -53 -18 -4 7 -3 8
4 4 7 -4 12 -2 12 3 0 16 -23 13 -46 -5 -15 -12 -16 -15 -2 -10 13 4 16 0 12
-17 -4 -23 -27 -44 -78 -71 -31 -17 -31 -17 -6 1 48 35 81 66 76 70 -3 3 -20
-5 -38 -17 l-33 -22 30 26 c36 31 28 33 -23 7 -43 -22 -77 -57 -86 -88 -7 -21
-49 -55 -73 -59 -22 -4 -14 11 32 56 24 24 41 48 38 53 -3 6 -1 7 4 4 6 -4 13
-1 16 7 3 8 33 28 67 45 34 17 73 40 88 51 48 34 254 98 373 115 63 9 116 19
118 21 8 7 21 4 21 -5z m17 -37 c-3 -3 -12 -4 -19 -1 -8 3 -5 6 6 6 11 1 17
-2 13 -5z m-84 -41 c-13 -2 -35 -2 -50 0 -16 2 -5 4 22 4 28 0 40 -2 28 -4z
m-90 -10 c-7 -2 -21 -2 -30 0 -10 3 -4 5 12 5 17 0 24 -2 18 -5z m-66 -9 c-3
-3 -12 -4 -19 -1 -8 3 -5 6 6 6 11 1 17 -2 13 -5z m683 -79 c0 -2 -24 10 -54
28 -30 18 -52 35 -50 39 4 7 104 -59 104 -67z m45 30 c19 -15 18 -15 -12 -1
-17 9 -35 21 -39 27 -8 13 21 -1 51 -26z m40 -97 l30 -33 -40 35 c-22 19 -44
39 -50 44 -5 5 -1 4 10 -2 11 -6 33 -25 50 -44z m-1245 -115 c-33 -37 -78 -92
-98 -124 -20 -31 -43 -65 -50 -75 -7 -10 -3 1 9 26 25 52 71 113 143 188 72
74 69 65 -4 -15z m1409 -46 c59 -85 82 -126 40 -73 -11 14 -26 23 -32 19 -7
-3 -9 -3 -5 2 9 10 -24 75 -52 100 -12 11 -26 28 -32 38 -8 16 -7 17 6 10 8
-4 42 -47 75 -96z m-1459 46 c0 -2 -13 -22 -30 -45 -34 -47 -40 -40 -10 12 19
32 18 32 -19 -10 -22 -25 -41 -41 -41 -36 0 5 -8 2 -17 -5 -15 -11 -15 -10 1
8 10 13 23 20 28 17 5 -3 8 1 6 9 -2 9 2 17 7 18 6 1 16 10 23 20 10 14 52 24
52 12z m-114 -135 c4 -7 3 -10 -1 -5 -20 17 -135 -249 -135 -312 0 -12 -5 -21
-11 -21 -7 0 -8 7 -4 18 3 9 10 38 15 64 11 54 54 161 81 199 10 14 19 32 21
40 2 11 17 28 25 29 1 0 5 -6 9 -12z m-76 -18 c-6 -11 -13 -20 -16 -20 -2 0 0
9 6 20 6 11 13 20 16 20 2 0 0 -9 -6 -20z m-70 -73 c0 -7 -7 -22 -15 -33 -13
-17 -13 -16 -3 14 13 34 18 40 18 19z m137 -34 c-48 -93 -88 -275 -96 -440
l-3 -58 -9 60 c-5 33 -7 69 -4 80 4 11 10 49 14 85 7 56 25 112 91 284 6 16
13 26 16 23 3 -3 -1 -18 -9 -34z m-140 -55 c-3 -8 -6 -5 -6 6 -1 11 2 17 5 13
3 -3 4 -12 1 -19z m-10 -40 c-3 -8 -6 -5 -6 6 -1 11 2 17 5 13 3 -3 4 -12 1
-19z m-10 -235 c-2 -21 -4 -4 -4 37 0 41 2 58 4 38 2 -21 2 -55 0 -75z m503
87 c0 -19 -7 -20 -90 -20 l-90 0 0 -55 0 -54 83 -3 c65 -2 82 -6 82 -18 0 -12
-17 -16 -82 -18 l-83 -3 0 -69 c0 -63 -2 -70 -20 -70 -19 0 -20 7 -20 165 l0
165 110 0 c103 0 110 -1 110 -20z m265 6 c13 -10 20 -30 23 -74 4 -56 2 -63
-23 -88 l-28 -28 29 -55 c39 -73 39 -71 12 -71 -19 0 -30 12 -56 65 l-32 65
-45 0 -45 0 0 -65 c0 -58 -2 -65 -20 -65 -19 0 -20 7 -20 165 l0 165 93 0 c63
0 99 -4 112 -14z m293 -139 c29 -83 52 -158 52 -164 0 -7 -8 -13 -18 -13 -13
0 -22 12 -31 40 l-12 40 -78 0 -78 0 -12 -40 c-9 -29 -17 -40 -31 -40 -11 0
-20 1 -20 3 0 3 96 291 105 315 2 6 19 12 37 12 l33 0 53 -153z m154 72 l3
-80 70 80 c47 54 77 80 93 80 31 1 28 -10 -14 -50 -20 -18 -45 -46 -55 -61
l-20 -27 61 -90 c33 -50 60 -93 60 -96 0 -3 -9 -5 -20 -5 -13 0 -36 25 -71 78
-29 42 -54 79 -56 81 -1 3 -14 -6 -28 -19 -21 -20 -25 -33 -25 -82 0 -51 -2
-58 -20 -58 -19 0 -20 7 -20 165 0 157 1 165 20 165 17 0 19 -8 22 -81z m486
64 c-2 -14 -15 -19 -56 -21 l-52 -3 0 -145 c0 -137 -1 -144 -20 -144 -19 0
-20 7 -20 145 l0 145 -55 0 c-48 0 -55 2 -55 20 0 19 7 20 131 20 119 0 130
-2 127 -17z m369 -25 c-3 -7 -5 -2 -5 12 0 14 2 19 5 13 2 -7 2 -19 0 -25z
m-2170 -60 c-3 -8 -6 -5 -6 6 -1 11 2 17 5 13 3 -3 4 -12 1 -19z m214 -292
c57 -191 199 -381 369 -496 36 -24 67 -47 68 -52 2 -4 7 -6 12 -3 5 3 7 -2 6
-11 -3 -21 -33 -39 -33 -20 0 8 7 12 16 9 26 -9 -51 55 -88 73 -46 22 -196
161 -196 182 0 14 -17 32 -24 27 -5 -2 -19 8 -32 23 l-24 27 28 -24 c15 -14
27 -21 27 -18 0 15 -62 92 -72 89 -5 -1 -7 2 -3 8 4 6 3 16 -3 23 -34 45 -93
255 -91 324 1 28 4 21 10 -26 4 -36 18 -97 30 -135z m-144 142 c-3 -8 -6 -5
-6 6 -1 11 2 17 5 13 3 -3 4 -12 1 -19z m10 -75 c-3 -10 -5 -4 -5 12 0 17 2
24 5 18 2 -7 2 -21 0 -30z m119 -158 c3 -11 -6 7 -20 39 -15 33 -26 71 -25 85
0 23 29 -55 45 -124z m-7 -180 c0 -5 -6 1 -14 15 -8 14 -14 30 -14 35 0 6 6
-1 14 -15 8 -14 14 -29 14 -35z m1710 -56 c-5 -10 -23 -28 -41 -40 l-31 -23
23 32 c13 18 28 32 32 32 5 0 7 4 4 8 -3 5 1 9 9 9 10 0 11 -5 4 -18z m-119
-79 c-6 -11 -13 -20 -16 -20 -2 0 0 9 6 20 6 11 13 20 16 20 2 0 0 -9 -6 -20z
m-1250 -127 c0 -8 -62 33 -78 51 -9 11 4 5 31 -14 26 -18 47 -35 47 -37z
m1199 14 c-2 -1 -15 -11 -29 -22 l-25 -20 19 23 c11 12 24 22 29 22 6 0 8 -1
6 -3z m-1135 -38 c-2 -4 4 -12 13 -18 10 -6 13 -11 7 -11 -7 0 -22 9 -35 19
-24 20 -24 20 -2 18 12 0 20 -4 17 -8z m936 7 c0 -2 -7 -7 -16 -10 -8 -3 -12
-2 -9 4 6 10 25 14 25 6z m-826 -28 c-5 -8 -2 -9 9 -5 9 3 41 -2 71 -13 151
-52 350 -66 495 -36 41 9 76 14 78 12 8 -8 -96 -28 -170 -33 -77 -6 -91 -17
-32 -26 17 -2 -4 -4 -45 -5 -55 0 -68 2 -50 9 18 6 10 7 -30 4 -32 -3 -49 -1
-42 4 21 13 -23 21 -102 17 -63 -2 -65 -2 -39 11 21 10 23 12 6 9 -12 -2 -23
0 -25 4 -2 5 -16 10 -33 13 -70 11 -119 29 -104 38 19 12 22 11 13 -3z m25
-37 c23 -7 41 -15 38 -18 -6 -5 -117 25 -117 32 0 6 22 2 79 -14z m76 -31 c-3
-5 -13 -10 -21 -10 -8 0 -12 5 -9 10 3 6 13 10 21 10 8 0 12 -4 9 -10z m202
-56 c-3 -3 -12 -4 -19 -1 -8 3 -5 6 6 6 11 1 17 -2 13 -5z m50 -10 c-3 -3 -12
-4 -19 -1 -8 3 -5 6 6 6 11 1 17 -2 13 -5z m66 -1 c-7 -2 -19 -2 -25 0 -7 3
-2 5 12 5 14 0 19 -2 13 -5z m64 -29 c-3 -3 -12 -4 -19 -1 -8 3 -5 6 6 6 11 1
17 -2 13 -5z"/>
<path d="M1175 2396 c-65 -21 -139 -55 -123 -56 4 0 31 10 60 21 29 12 78 30
108 39 30 10 48 18 40 19 -8 0 -46 -10 -85 -23z"/>
<path d="M824 2179 c-19 -22 -19 -22 4 -8 12 8 22 17 22 21 0 12 -6 9 -26 -13z"/>
<path d="M2421 1425 c-1 -36 -4 -46 -11 -35 -6 10 -7 2 -3 -25 3 -22 7 -42 9
-43 5 -7 16 106 11 129 -2 13 -5 2 -6 -26z"/>
<path d="M2387 1220 c3 -11 9 -20 13 -20 5 0 6 9 3 20 -3 11 -9 20 -13 20 -5
0 -6 -9 -3 -20z"/>
<path d="M2322 1095 c-7 -14 -12 -31 -12 -38 1 -7 7 3 16 22 17 39 13 54 -4
16z"/>
<path d="M2170 885 c-7 -9 -11 -17 -9 -20 3 -2 10 5 17 15 14 24 10 26 -8 5z"/>
<path d="M1120 1540 l0 -60 70 0 c65 0 70 2 76 24 3 13 4 38 2 57 l-3 34 -72
3 -73 3 0 -61z"/>
<path d="M1461 1528 c-13 -40 -26 -79 -28 -85 -4 -10 11 -13 56 -13 34 0 61 3
61 7 0 18 -52 163 -59 163 -4 0 -18 -33 -30 -72z"/>
</g>
</svg>
