<svg width="400" height="400" version="1.1" xmlns="http://www.w3.org/2000/svg" desc="Created with imagetracer.js version 1.2.4" ><path fill="rgb(48,54,55)" stroke="rgb(48,54,55)" stroke-width="1" opacity="1" d="M 208.5 47 Q 211.1 46.2 210 49.5 L 207 51 L 208.5 47 Z " /><path fill="rgb(48,54,55)" stroke="rgb(48,54,55)" stroke-width="1" opacity="1" d="M 216.5 47 Q 219.9 46.1 218 51.5 L 219 55.5 L 217 54.5 L 214.5 50 L 210.5 58 L 209 54.5 L 214.5 48 L 216.5 47 Z " /><path fill="rgb(48,54,55)" stroke="rgb(48,54,55)" stroke-width="1" opacity="1" d="M 221 47 L 225 48.5 L 223.5 51 L 221 49.5 L 221 47 Z " /><path fill="rgb(48,54,55)" stroke="rgb(48,54,55)" stroke-width="1" opacity="1" d="M 223.5 56 Q 226.3 57.4 225 62 Q 220.9 60.3 222 64.5 L 220 63.5 Q 218.8 58.3 221.5 57 L 223.5 56 Z " /><path fill="rgb(48,54,55)" stroke="rgb(48,54,55)" stroke-width="1" opacity="1" d="M 194.5 63 Q 199.8 61.8 201 64.5 Q 198.9 68.1 194 68 L 192.5 76 Q 189.8 74.8 191 69.5 L 194 67.5 L 193 64.5 L 194.5 63 Z " /><path fill="rgb(48,54,55)" stroke="rgb(48,54,55)" stroke-width="1" opacity="1" d="M 201.5 66 Q 204.1 65.2 203 68.5 Q 200.6 76.6 194.5 81 L 194 77.5 L 198 75.5 L 197 73.5 L 201.5 66 Z " /><path fill="rgb(48,54,55)" stroke="rgb(48,54,55)" stroke-width="1" opacity="1" d="M 181.5 79 Q 185.3 77.8 184 81.5 L 180 84 Q 179 80.2 181.5 79 Z " /><path fill="rgb(48,54,55)" stroke="rgb(48,54,55)" stroke-width="1" opacity="1" d="M 221.5 79 L 222.5 96 L 223.5 81 L 224 95.5 L 223 96.5 L 222.5 177 L 222 96.5 L 221 95.5 L 221.5 79 Z " /><path fill="rgb(48,54,55)" stroke="rgb(48,54,55)" stroke-width="1" opacity="1" d="M 190.5 82 Q 192.8 81.3 192 83.5 Q 194.7 85.3 190.5 87 Q 186.5 86.5 186 89.5 L 184 93.5 L 185 95.5 Q 181.4 96.9 181.5 102 L 177.5 99 L 176 99.5 L 177 97.5 L 175 95.5 L 175 86 L 179 87.5 L 178 94.5 L 182.5 97 L 182 95.5 L 183 91 Q 185.7 92.1 185 89.5 L 185 87.5 L 187.5 84 L 190.5 82 Z " /><path fill="rgb(48,54,55)" stroke="rgb(48,54,55)" stroke-width="1" opacity="1" d="M 177 101 Q 180 100 179 103 L 177 103.5 L 179 104.5 L 176.5 106 Q 173.3 104.3 177 102.5 L 177 101 Z " /><path fill="rgb(48,54,55)" stroke="rgb(48,54,55)" stroke-width="1" opacity="1" d="M 163 111 L 170.5 111 L 171 112.5 L 172 114.5 Q 167.1 116.7 168 123 L 165 121.5 L 166.5 119 Q 168.8 119.8 168 117.5 L 169 115.5 L 163 113 L 163 111 Z " /><path fill="rgb(48,54,55)" stroke="rgb(48,54,55)" stroke-width="1" opacity="1" d="M 160.5 117 Q 162.8 117.8 162 121.5 L 160.5 124 Q 158.3 123.3 159 119.5 L 160.5 117 Z " /><path fill="rgb(48,54,55)" stroke="rgb(48,54,55)" stroke-width="1" opacity="1" d="M 162.5 124 L 163 126.5 L 162 126.5 L 162.5 124 Z " /><path fill="rgb(48,54,55)" stroke="rgb(48,54,55)" stroke-width="1" opacity="1" d="M 148 128 Q 151.3 126.9 150 131 Q 146.7 132.1 148 128 Z " /><path fill="rgb(48,54,55)" stroke="rgb(48,54,55)" stroke-width="1" opacity="1" d="M 160.5 128 L 162 128.5 L 161 131 Q 157.7 129.9 159 134 L 156.5 134 Q 152.3 135.7 155 137.5 L 148.5 150 L 147 149.5 L 144.5 155 L 143 152 Q 145.7 153.1 145 150.5 L 147 147.5 L 143 146 Q 141.5 141.5 146 143 L 147.5 146 L 150 138.5 L 153.5 134 Q 156.8 135.1 156 132.5 L 160.5 128 Z " /><path fill="rgb(48,54,55)" stroke="rgb(48,54,55)" stroke-width="1" opacity="1" d="M 143 133 Q 149 130.8 147 137.5 L 144.5 141 L 143 140.5 L 143 133 Z " /><path fill="rgb(48,54,55)" stroke="rgb(48,54,55)" stroke-width="1" opacity="1" d="M 130 159 L 135 159 L 135 162 L 130 163 L 129 168.5 L 130 171 Q 132.7 172.1 132 169.5 L 131.5 168 L 133.5 169 Q 134.3 162.3 138.5 159 L 140 161.5 L 128.5 179 L 127 176 Q 129.7 177.1 129 174.5 L 130 171.5 L 129 169 L 127 169 L 127 163 L 130 161.5 L 130 159 Z " /><path fill="rgb(48,54,55)" stroke="rgb(48,54,55)" stroke-width="1" opacity="1" d="M 272 160 L 287.5 160 L 288 162 L 272.5 162 L 272 160 Z " /><path fill="rgb(48,54,55)" stroke="rgb(48,54,55)" stroke-width="1" opacity="1" d="M 241 166 L 270.5 166 L 271 168 L 241.5 168 L 241 166 Z " /><path fill="rgb(48,54,55)" stroke="rgb(48,54,55)" stroke-width="1" opacity="1" d="M 283.5 168 L 288 168.5 L 283.5 169 L 283.5 168 Z " /><path fill="rgb(48,54,55)" stroke="rgb(48,54,55)" stroke-width="1" opacity="1" d="M 272 169 L 286 170 Q 287.4 174 280.5 172 L 279.5 171 L 272 171 L 272 169 Z " /><path fill="rgb(48,54,55)" stroke="rgb(48,54,55)" stroke-width="1" opacity="1" d="M 118.5 175 Q 122.3 173.8 121 177.5 L 122 180 L 126.5 179 L 127 181 L 122 182 L 121 184.5 L 122 186.5 L 121 188.5 L 122 190.5 L 121 190.5 L 120.5 189 L 119.5 193 Q 116.8 191.8 119 190.5 L 121 185.5 L 120 182 L 116 183.5 L 113.5 189 L 111 189 L 111 183.5 L 115 181 L 116 176 L 118.5 175 Z " /><path fill="rgb(48,54,55)" stroke="rgb(48,54,55)" stroke-width="1" opacity="1" d="M 296 176 L 301 176.5 L 296 179.5 L 298.5 184 Q 303.1 185.3 301 179.5 L 305 178 L 305 184 Q 299.4 181.8 301 187.5 Q 299.8 190.8 296 190 L 293 181.5 L 296 176 Z " /><path fill="rgb(48,54,55)" stroke="rgb(48,54,55)" stroke-width="1" opacity="1" d="M 292.5 189 L 296 191.5 Q 295.3 193.8 291.5 193 L 289 191.5 L 292.5 189 Z " /><path fill="rgb(48,54,55)" stroke="rgb(48,54,55)" stroke-width="1" opacity="1" d="M 111 191 L 114 192.5 L 112.5 195 L 111 191 Z " /><path fill="rgb(48,54,55)" stroke="rgb(48,54,55)" stroke-width="1" opacity="1" d="M 285.5 193 L 288 193.5 L 285.5 194 L 285.5 193 Z " /><path fill="rgb(48,54,55)" stroke="rgb(48,54,55)" stroke-width="1" opacity="1" d="M 115.5 194 L 117 199 Q 112.5 200.8 114 195.5 L 115.5 194 Z " /><path fill="rgb(48,54,55)" stroke="rgb(48,54,55)" stroke-width="1" opacity="1" d="M 282.5 196 L 284 199.5 L 280 201 L 279 206.5 Q 281.3 207.8 278.5 209 L 275 207.5 L 282.5 196 Z " /><path fill="rgb(48,54,55)" stroke="rgb(48,54,55)" stroke-width="1" opacity="1" d="M 111 201 Q 114 200 113 203 Q 110 204 111 201 Z " /><path fill="rgb(48,54,55)" stroke="rgb(48,54,55)" stroke-width="1" opacity="1" d="M 285 203 L 289 205.5 L 288 213 L 284 210.5 L 282 207.5 L 283.5 207 L 286 208 L 285 203 Z " /><path fill="rgb(48,54,55)" stroke="rgb(48,54,55)" stroke-width="1" opacity="1" d="M 95 207 Q 99.5 205.3 98 210.5 Q 96.5 213.5 95 210.5 L 95 207 Z " /><path fill="rgb(48,54,55)" stroke="rgb(48,54,55)" stroke-width="1" opacity="1" d="M 105.5 207 L 108 208.5 L 104 213.5 L 105 216.5 L 101.5 216 L 100 216 L 100 212 L 103.5 210 L 105 210.5 L 104 208.5 L 105.5 207 Z " /><path fill="rgb(48,54,55)" stroke="rgb(48,54,55)" stroke-width="1" opacity="1" d="M 270.5 214 L 273 214.5 L 271.5 217 L 270.5 214 Z " /><path fill="rgb(48,54,55)" stroke="rgb(48,54,55)" stroke-width="1" opacity="1" d="M 95 217 L 99 218.5 Q 97.8 222.3 101.5 221 Q 106 223 102.5 225 L 99.5 225 L 95 220.5 L 95 217 Z " /><path fill="rgb(48,54,55)" stroke="rgb(48,54,55)" stroke-width="1" opacity="1" d="M 108.5 218 Q 112.9 216.5 112 219.5 L 112.5 222 L 124.5 222 L 126.5 221 Q 131 223 127.5 225 Q 117.3 226.2 111 223.5 L 111.5 222 Q 107.8 222.8 107 220.5 L 108.5 218 Z " /><path fill="rgb(48,54,55)" stroke="rgb(48,54,55)" stroke-width="1" opacity="1" d="M 267 219 Q 271.1 217.3 270 221.5 L 271 223.5 L 268 222.5 L 268 224 L 266 224 Q 267.1 226.7 264.5 226 L 263 226.5 Q 262.3 224.3 264.5 225 L 267 219 Z " /><path fill="rgb(48,54,55)" stroke="rgb(48,54,55)" stroke-width="1" opacity="1" d="M 176.5 220 L 179 221.5 L 178 224 Q 175.3 225.1 176 222.5 Q 173.8 221.2 176.5 220 Z " /><path fill="rgb(48,54,55)" stroke="rgb(48,54,55)" stroke-width="1" opacity="1" d="M 273 220 L 277 222.5 Q 277.9 225.5 273.5 224 L 272 224.5 L 273 220 Z " /><path fill="rgb(48,54,55)" stroke="rgb(48,54,55)" stroke-width="1" opacity="1" d="M 133.5 221 L 144 221.5 L 133.5 222 L 133.5 221 Z " /><path fill="rgb(48,54,55)" stroke="rgb(48,54,55)" stroke-width="1" opacity="1" d="M 148 222 L 155.5 223 L 160 222 L 158.5 225 L 148 224 L 148 222 Z " /><path fill="rgb(48,54,55)" stroke="rgb(48,54,55)" stroke-width="1" opacity="1" d="M 137.5 223 L 147 223.5 L 137.5 224 L 137.5 223 Z " /><path fill="rgb(48,54,55)" stroke="rgb(48,54,55)" stroke-width="1" opacity="1" d="M 178.5 225 L 179 334.5 L 178 334.5 L 178.5 225 Z " /><path fill="rgb(48,54,55)" stroke="rgb(48,54,55)" stroke-width="1" opacity="1" d="M 270 226 L 273 226 L 273 231 Q 268.5 229.3 270 234.5 L 265 238.5 Q 266.3 242.3 262.5 241 Q 259.3 239.3 263 237.5 L 267.5 230 Q 269.8 230.8 269 228.5 L 270 226 Z " /><path fill="rgb(48,54,55)" stroke="rgb(48,54,55)" stroke-width="1" opacity="1" d="M 257.5 237 L 258 239 L 256 238.5 L 257.5 237 Z " /><path fill="rgb(48,54,55)" stroke="rgb(48,54,55)" stroke-width="1" opacity="1" d="M 270 238 Q 273.7 236.5 273 239.5 L 270 241 L 270 238 Z " /><path fill="rgb(48,54,55)" stroke="rgb(48,54,55)" stroke-width="1" opacity="1" d="M 250.5 245 Q 253.5 244.2 252 248 Q 248.3 249.5 249 246.5 L 250.5 245 Z " /><path fill="rgb(48,54,55)" stroke="rgb(48,54,55)" stroke-width="1" opacity="1" d="M 255.5 246 L 257 255.5 L 256 256.5 L 256 271 Q 252.3 272.4 254 266.5 Q 248.2 264.7 248.5 257 L 247.5 259 L 247 257.5 L 248 255 Q 245.3 253.9 246 256.5 L 245 256.5 L 246.5 251 L 248 254 L 254 256 L 253 249.5 L 255.5 246 Z " /><path fill="rgb(48,54,55)" stroke="rgb(48,54,55)" stroke-width="1" opacity="1" d="M 239 263 L 241 263.5 L 236 271.5 L 236 273.5 L 236 275 L 232 275 L 232 272 L 234 272 Q 232.9 269.3 235.5 270 L 239 265.5 L 239 263 Z " /><path fill="rgb(48,54,55)" stroke="rgb(48,54,55)" stroke-width="1" opacity="1" d="M 241.5 267 Q 244.8 268.2 244 272 L 241.5 273 L 240 269.5 L 241.5 267 Z " /><path fill="rgb(48,54,55)" stroke="rgb(48,54,55)" stroke-width="1" opacity="1" d="M 239.5 275 Q 242 276.2 241 280 Q 236.9 278.3 238 282.5 L 234 285 L 232.5 289 L 229 287.5 L 230 284 L 237 278.5 L 239.5 275 Z " /><path fill="rgb(48,54,55)" stroke="rgb(48,54,55)" stroke-width="1" opacity="1" d="M 230.5 277 L 232 279.5 L 230 280 L 229.5 283 L 228 279.5 L 230.5 277 Z " /><path fill="rgb(48,54,55)" stroke="rgb(48,54,55)" stroke-width="1" opacity="1" d="M 225.5 285 L 226 289 L 224 288.5 L 225.5 285 Z " /><path fill="rgb(48,54,55)" stroke="rgb(48,54,55)" stroke-width="1" opacity="1" d="M 238 285 L 241 286.5 L 239.5 289 L 238 289 L 238 285 Z " /><path fill="rgb(48,54,55)" stroke="rgb(48,54,55)" stroke-width="1" opacity="1" d="M 222.5 291 L 224 294.5 L 222 295.5 L 223 293.5 L 222.5 291 Z " /><path fill="rgb(48,54,55)" stroke="rgb(48,54,55)" stroke-width="1" opacity="1" d="M 219.5 294 L 220 296 L 218 295.5 L 219.5 294 Z " /><path fill="rgb(48,54,55)" stroke="rgb(48,54,55)" stroke-width="1" opacity="1" d="M 215.5 299 L 216 300.5 L 215 303 L 213 303.5 L 213.5 305 Q 209.7 302.7 215 300.5 L 215.5 299 Z " /><path fill="rgb(48,54,55)" stroke="rgb(48,54,55)" stroke-width="1" opacity="1" d="M 221.5 301 Q 225.2 303.2 220 305.5 L 220 313.5 L 222.5 314 L 225 318.5 Q 223.3 322.8 221.5 320 L 220 319.5 L 220 314 L 215.5 314 L 212 316.5 L 211 320 L 207 318.5 L 208 315.5 L 207 312.5 L 208.5 313 L 211 313 L 211 311 Q 214.8 312.5 214 309.5 L 216.5 304 Q 219.1 304.7 218 302 L 220.5 302 L 221.5 301 Z " /><path fill="rgb(48,54,55)" stroke="rgb(48,54,55)" stroke-width="1" opacity="1" d="M 204.5 314 L 206 317.5 L 205 317.5 L 204.5 314 Z " /><path fill="rgb(48,54,55)" stroke="rgb(48,54,55)" stroke-width="1" opacity="1" d="M 202.5 319 L 204 321.5 L 201 323 L 202.5 319 Z " /><path fill="rgb(48,54,55)" stroke="rgb(48,54,55)" stroke-width="1" opacity="1" d="M 206.5 323 L 209 324.5 L 207.5 327 Q 205.3 326.3 206 328.5 L 203.5 333 L 201 334.5 Q 202.1 337.8 199.5 337 L 198 334.5 L 199 330.5 L 197.5 331 Q 194.9 331.8 196 328.5 L 197 326 L 200 327.5 Q 199.3 329.8 201.5 329 L 205 326.5 L 206.5 323 Z " /><path fill="rgb(48,54,55)" stroke="rgb(48,54,55)" stroke-width="1" opacity="1" d="M 206 333 Q 210.1 331.3 209 335.5 L 206 337 L 206 333 Z " /><path fill="rgb(48,54,55)" stroke="rgb(48,54,55)" stroke-width="1" opacity="1" d="M 193.5 334 L 192.5 336 L 193.5 334 Z " /><path fill="rgb(48,54,55)" stroke="rgb(48,54,55)" stroke-width="1" opacity="1" d="M 190.5 335 L 189.5 337 L 190.5 335 Z " /><path fill="rgb(48,54,55)" stroke="rgb(48,54,55)" stroke-width="1" opacity="1" d="M 190.5 338 L 190 339.5 L 191 341.5 L 189 340.5 L 190.5 338 Z " /><path fill="rgb(48,54,55)" stroke="rgb(48,54,55)" stroke-width="1" opacity="1" d="M 188.5 342 Q 191.3 343.3 189 344.5 L 190 352.5 L 189 352.5 L 188 348 Q 183.9 349.7 185 345.5 L 186 343 L 188.5 342 Z " /><path fill="rgb(48,54,55)" stroke="rgb(48,54,55)" stroke-width="1" opacity="1" d="M 177.5 345 L 179 348 L 177 348.5 L 178 353 L 175 351.5 L 175.5 347 L 177 347.5 L 177.5 345 Z " /><path fill="rgb(48,54,55)" stroke="rgb(48,54,55)" stroke-width="1" opacity="1" d="M 181.5 349 Q 186.1 347.8 184 353 Q 178.8 355.1 180 350.5 L 181.5 349 Z " /><path fill="rgb(49,54,57)" stroke="rgb(49,54,57)" stroke-width="1" opacity="1" d="M 0 0 L 400 0 L 400 400 L 0 400 L 0 0 Z M 209 47 L 207 51 L 210 50 Q 211 46 209 47 Z M 217 47 L 215 48 L 209 55 L 210 58 L 207 64 Q 208 66 206 65 L 203 72 L 201 73 L 203 69 Q 204 65 202 66 L 197 74 L 198 76 L 196 76 Q 193 77 194 81 L 197 79 L 196 81 Q 197 83 194 82 L 194 85 L 191 89 L 189 88 L 186 95 Q 183 94 185 93 Q 186 90 183 91 L 182 96 Q 183 98 185 96 L 185 98 L 182 100 L 183 98 L 178 95 L 179 90 L 178 86 L 175 87 L 175 96 Q 176 98 178 96 L 177 98 Q 176 100 179 99 L 181 103 L 178 104 Q 176 102 175 105 Q 176 107 178 105 L 179 106 Q 176 106 176 111 L 173 113 Q 170 114 171 111 L 164 111 L 163 113 L 169 116 L 168 119 L 170 120 L 169 122 L 168 119 L 165 121 L 167 124 L 162 130 L 162 129 L 161 128 L 156 134 Q 160 136 159 132 L 160 132 L 159 135 Q 160 137 158 136 Q 156 139 154 138 L 155 140 L 153 139 L 156 135 L 154 134 L 150 139 L 148 146 L 146 143 Q 142 142 143 146 L 147 148 L 145 151 Q 146 153 143 152 L 145 155 L 147 150 L 149 150 L 149 148 L 151 147 L 143 160 L 139 161 L 139 159 Q 136 160 138 162 L 137 161 L 134 169 L 132 168 L 132 170 Q 133 172 130 171 L 129 175 Q 130 177 127 176 L 128 179 L 127 183 L 124 184 L 121 192 L 120 189 L 119 191 Q 116 192 120 194 L 118 198 L 116 194 Q 113 195 114 199 L 116 200 L 114 200 L 111 208 L 107 211 L 108 209 L 106 207 L 106 209 L 105 211 L 104 210 L 100 212 L 100 216 L 102 216 L 105 217 L 105 215 Q 103 213 106 212 Q 105 217 108 219 L 107 221 Q 108 223 112 222 Q 114 221 112 220 L 113 218 L 114 219 L 125 219 L 126 220 L 128 219 L 149 219 L 150 220 L 152 219 L 177 219 L 179 220 L 179 221 L 177 220 Q 174 221 176 223 Q 175 225 178 224 L 179 222 L 180 226 L 180 336 L 179 337 L 181 348 L 186 344 L 185 346 Q 184 350 188 348 L 189 353 L 190 353 L 189 345 L 187 343 L 187 342 Q 190 343 188 339 L 193 336 L 192 334 L 195 332 L 196 333 Q 195 330 198 331 L 199 331 L 198 335 L 200 337 Q 202 338 201 335 L 204 333 L 206 329 Q 205 326 208 327 L 209 325 L 207 323 L 205 327 L 200 329 L 199 326 Q 196 325 197 328 L 196 328 Q 195 323 199 325 L 200 321 L 204 318 L 205 316 L 205 318 L 206 318 L 205 315 L 206 312 L 212 307 L 211 304 L 215 300 L 216 301 L 216 299 L 214 299 L 216 298 L 218 293 L 222 291 L 221 289 L 225 287 L 225 289 Q 228 290 226 286 L 224 286 L 228 280 L 230 283 L 230 280 L 232 280 L 231 278 L 229 279 L 232 275 Q 237 277 236 274 L 236 272 L 241 264 L 239 263 L 237 269 L 234 270 L 238 264 Q 237 261 240 262 Q 242 261 241 257 Q 244 256 243 259 L 244 259 L 243 256 L 245 252 Q 246 247 252 248 Q 253 244 251 245 L 249 246 L 252 242 L 255 240 L 255 238 L 259 232 L 262 230 L 261 229 L 265 226 Q 267 227 266 225 L 264 225 L 266 221 L 267 221 L 266 224 Q 269 225 268 223 L 271 224 L 270 222 Q 271 218 269 219 L 269 218 Q 268 214 271 215 L 272 217 L 273 215 L 270 214 L 275 208 L 279 209 L 278 208 L 280 205 L 279 201 L 281 198 L 281 200 L 281 201 L 284 200 L 283 197 L 288 190 L 288 188 L 292 185 Q 291 182 294 183 L 296 190 Q 300 191 301 188 Q 303 183 299 184 L 296 180 L 301 177 L 296 176 L 295 179 L 293 179 L 295 178 L 294 175 L 241 175 L 240 176 L 225 176 L 224 177 L 223 97 L 222 97 L 222 177 L 219 177 L 219 176 L 218 175 L 218 65 L 218 63 L 217 56 L 219 56 L 218 52 Q 217 49 220 50 L 220 48 L 217 47 Z M 221 47 L 221 50 L 224 51 L 225 49 L 221 47 Z M 224 56 L 222 57 Q 219 58 220 64 L 222 65 Q 221 60 225 62 Q 226 57 224 56 Z M 195 63 L 193 65 L 195 68 Q 199 68 201 65 Q 200 62 195 63 Z M 193 68 L 191 70 Q 190 75 193 76 L 194 72 Q 195 67 193 68 Z M 182 79 Q 179 80 180 84 L 184 82 Q 185 78 182 79 Z M 222 79 L 221 96 L 222 96 L 222 79 Z M 224 81 L 223 96 L 224 96 L 224 81 Z M 191 82 L 185 87 L 187 89 L 191 87 Q 195 85 192 84 Q 193 81 191 82 Z M 177 101 Q 176 104 179 103 Q 180 100 177 101 Z M 161 117 L 159 120 Q 158 123 161 124 L 162 122 Q 163 118 161 117 Z M 163 124 L 162 127 L 163 127 L 163 124 Z M 148 128 Q 147 132 150 131 Q 151 127 148 128 Z M 143 133 L 143 141 L 145 141 L 147 138 Q 149 131 143 133 Z M 130 159 L 130 162 L 127 163 L 127 169 L 129 169 Q 131 168 130 163 L 135 162 L 135 159 L 130 159 Z M 272 160 L 273 162 L 288 162 L 288 160 L 272 160 Z M 241 166 L 242 168 L 271 168 L 271 166 L 241 166 Z M 284 168 L 284 169 L 288 169 L 284 168 Z M 272 169 L 272 171 L 280 171 L 281 172 Q 287 174 286 170 L 272 169 Z M 119 175 L 116 176 L 115 181 L 111 184 L 111 189 L 114 189 L 116 184 L 120 182 L 121 185 L 122 182 L 127 181 L 127 179 L 122 180 L 121 178 Q 122 174 119 175 Z M 303 178 L 301 180 Q 299 186 305 184 L 305 178 L 303 178 Z M 293 189 L 289 192 L 292 193 Q 295 194 296 192 L 293 189 Z M 111 191 L 113 195 L 114 193 L 111 191 Z M 286 193 L 286 194 L 288 194 L 286 193 Z M 111 201 Q 110 204 113 203 Q 114 200 111 201 Z M 283 202 L 281 204 Q 280 206 283 205 Q 286 204 283 202 Z M 285 203 L 286 208 L 284 207 L 282 208 L 284 211 L 288 213 L 289 206 L 285 203 Z M 95 207 L 95 211 Q 97 214 98 211 Q 100 205 95 207 Z M 95 217 L 95 221 L 100 225 L 103 225 Q 106 223 102 221 Q 98 222 99 219 L 95 217 Z M 273 220 L 272 225 L 274 224 Q 278 225 277 223 L 273 220 Z M 126 221 L 125 222 L 113 222 L 111 224 L 117 225 L 128 225 L 129 224 L 126 221 Z M 134 221 L 134 222 L 144 222 L 134 221 Z M 148 222 L 148 224 L 159 225 L 160 222 L 156 223 L 148 222 Z M 138 223 L 138 224 L 147 224 L 138 223 Z M 179 225 L 178 335 L 179 335 L 179 225 Z M 270 226 L 269 229 Q 270 231 268 230 L 263 238 Q 259 239 263 241 Q 266 242 265 239 L 270 235 Q 269 229 273 231 L 273 226 L 270 226 Z M 258 237 L 256 239 L 258 239 L 258 237 Z M 270 238 L 270 241 L 273 240 Q 274 237 270 238 Z M 256 246 L 253 250 L 254 256 L 248 254 L 247 251 L 245 257 L 246 257 Q 245 254 248 255 L 249 262 L 254 267 Q 252 272 256 271 L 256 257 L 257 256 L 256 246 Z M 249 250 Q 248 253 251 252 Q 252 249 249 250 Z M 242 267 L 240 270 L 242 273 L 244 272 Q 245 268 242 267 Z M 240 275 L 237 279 L 230 284 L 229 288 L 233 289 L 234 285 L 238 283 Q 237 278 241 280 Q 242 276 240 275 Z M 238 285 L 238 289 L 240 289 L 241 287 L 238 285 Z M 220 294 L 218 296 L 221 296 L 220 294 Z M 215 301 L 213 303 L 215 303 L 215 301 Z M 222 301 L 221 302 L 218 302 Q 219 305 217 304 L 214 310 Q 215 312 211 311 L 211 313 L 209 313 L 207 313 L 208 316 L 207 319 L 211 320 L 212 317 L 216 314 L 220 314 L 220 306 Q 225 303 222 301 Z M 220 314 L 220 320 L 222 320 Q 223 323 225 319 L 224 316 L 220 314 Z M 203 319 L 201 323 L 204 322 L 203 319 Z M 206 333 L 206 337 L 209 336 Q 210 331 206 333 Z M 178 345 Q 175 349 179 348 L 178 345 Z M 176 347 L 175 352 L 178 353 Q 179 348 176 347 Z M 182 349 L 180 351 Q 179 355 184 353 Q 186 348 182 349 Z " /><path fill="rgb(49,54,57)" stroke="rgb(49,54,57)" stroke-width="1" opacity="1" d="M 214.5 50 L 217 53.5 L 215.5 53 Q 213.3 52.3 214 54.5 L 212 55.5 L 214.5 50 Z " /><path fill="rgb(49,54,57)" stroke="rgb(49,54,57)" stroke-width="1" opacity="1" d="M 171.5 115 L 172 116.5 L 170 117.5 L 171.5 115 Z " /><path fill="rgb(49,54,57)" stroke="rgb(49,54,57)" stroke-width="1" opacity="1" d="M 152.5 140 L 154 143.5 L 152 144.5 L 153 141.5 L 152.5 140 Z " /><path fill="rgb(49,54,57)" stroke="rgb(49,54,57)" stroke-width="1" opacity="1" d="M 139.5 162 L 139 163.5 L 137.5 166 L 138 164.5 L 139.5 162 Z " /><path fill="rgb(49,54,57)" stroke="rgb(49,54,57)" stroke-width="1" opacity="1" d="M 135.5 169 L 134 171.5 L 129.5 178 L 130 176.5 L 135.5 169 Z " /><path fill="rgb(49,54,57)" stroke="rgb(49,54,57)" stroke-width="1" opacity="1" d="M 277.5 204 L 276.5 206 L 277.5 204 Z " /><path fill="rgb(102,126,232)" stroke="rgb(102,126,232)" stroke-width="1" opacity="1" d="M 214.5 56 L 216 58.5 L 215 60.5 L 215 62.5 L 216 64.5 L 215 69.5 L 216 70.5 L 216 95.5 L 215 96.5 L 215 176.5 L 218.5 179 L 219.5 178 L 250.5 178 L 251.5 177 L 291.5 177 L 291 178.5 L 253 236.5 L 252 240 Q 249.3 238.9 250 241.5 L 246 249 Q 243.3 247.9 244 250.5 L 198 319.5 L 194 327.5 L 182.5 343 L 182 218.5 L 180.5 217 L 174.5 217 L 109.5 216 L 108 214.5 L 148 154 Q 150.7 155.1 150 152.5 L 213 58 L 215 57.5 L 214.5 56 Z " /><path fill="rgb(47,56,78)" stroke="rgb(47,56,78)" stroke-width="1" opacity="1" d="M 218 48 Q 221 47 220 50 Q 217 51 218 48 Z " /><path fill="rgb(47,56,78)" stroke="rgb(47,56,78)" stroke-width="1" opacity="1" d="M 214 53 L 217 54.5 L 218 62.5 L 218 64.5 L 218 174.5 L 219 175.5 L 218.5 177 L 239.5 176 L 240.5 175 L 293.5 175 L 293.5 176 L 232.5 177 L 231.5 178 L 216 178 L 215.5 54 L 201.5 74 L 203 71.5 L 205.5 65 Q 207.8 65.8 207 63.5 L 210.5 58 Q 212.8 58.8 212 56.5 L 214 53 Z " /><path fill="rgb(47,56,78)" stroke="rgb(47,56,78)" stroke-width="1" opacity="1" d="M 199.5 75 L 201 75.5 L 108 212.5 L 107 216 L 116.5 216 L 117.5 217 L 181 218 L 181 345.5 L 183 346 L 184 342.5 L 195.5 326 L 196 332.5 L 194.5 332 L 192 333.5 L 190.5 337 L 189 336.5 L 188 342 Q 185.3 340.9 186 343.5 L 180.5 348 L 179 336.5 L 180 335.5 L 180 225.5 L 179 220 L 176.5 219 L 127.5 219 L 125.5 220 L 124.5 219 L 107.5 218 L 106 216.5 Q 104.8 210.3 108.5 209 L 111 207.5 L 114 200 L 118 197.5 L 124 184 L 127 182.5 L 141.5 160 Q 143.8 160.8 143 158.5 L 150 149.5 L 151 145 L 154 143.5 Q 153.3 137.3 157.5 136 Q 159.8 136.8 159 134.5 L 170 119.5 L 169 117.5 L 172 116.5 Q 171.3 112.8 173.5 112 L 176 110.5 L 176 108.5 L 185 97.5 L 188.5 88 L 191 89 L 194 84.5 L 194 82 Q 196.7 83.1 196 80.5 L 199.5 75 Z " /><path fill="rgb(47,56,78)" stroke="rgb(47,56,78)" stroke-width="1" opacity="1" d="M 293.5 177 L 295 177.5 L 293 178.5 L 293.5 180 L 292 180.5 L 293 182.5 L 290.5 186 L 288 187.5 L 288 189.5 L 280 198.5 Q 277 208 270 213.5 L 269 217.5 L 256 235.5 L 255 240 L 252 241.5 L 253 244.5 L 252 244.5 L 251.5 243 L 243 255.5 L 244 258.5 L 242 259.5 L 243 257 Q 239.7 255.7 241 260.5 L 238 262 L 234 268.5 L 234 271 Q 230.7 269.7 232 274.5 Q 225.5 279.5 222.5 288 L 221 288.5 L 222 290.5 L 218 293 L 216 298 L 214 298.5 L 215 299.5 L 211 303.5 L 212 304.5 Q 212.5 308.5 209.5 309 L 206 311.5 Q 203.2 313.5 204 318 L 200 320.5 L 199 325 L 196 324.5 L 293.5 177 Z " /><path fill="rgb(47,56,78)" stroke="rgb(47,56,78)" stroke-width="1" opacity="1" d="M 282.5 202 Q 285.5 203.5 282.5 205 Q 280.3 205.8 281 203.5 L 282.5 202 Z " /><path fill="rgb(47,56,78)" stroke="rgb(47,56,78)" stroke-width="1" opacity="1" d="M 249 250 Q 252 249 251 252 Q 248 253 249 250 Z " /><path fill="rgb(93,109,175)" stroke="rgb(93,109,175)" stroke-width="1" opacity="1" d="M 215.5 54 L 216 56.5 L 213 58 L 210.5 62 L 212 59.5 L 213.5 57 L 215 56.5 Q 212.8 55.2 215.5 54 Z " /><path fill="rgb(93,109,175)" stroke="rgb(93,109,175)" stroke-width="1" opacity="1" d="M 209.5 63 L 209 64.5 L 206.5 68 L 208 65.5 L 209.5 63 Z " /><path fill="rgb(93,109,175)" stroke="rgb(93,109,175)" stroke-width="1" opacity="1" d="M 215.5 65 L 216 69.5 L 215 69.5 L 215.5 65 Z " /><path fill="rgb(93,109,175)" stroke="rgb(93,109,175)" stroke-width="1" opacity="1" d="M 205.5 69 L 204.5 71 L 205.5 69 Z " /><path fill="rgb(93,109,175)" stroke="rgb(93,109,175)" stroke-width="1" opacity="1" d="M 203.5 72 L 202 74.5 L 200.5 77 L 201 75.5 L 203.5 72 Z " /><path fill="rgb(93,109,175)" stroke="rgb(93,109,175)" stroke-width="1" opacity="1" d="M 199.5 78 L 198.5 80 L 199.5 78 Z " /><path fill="rgb(93,109,175)" stroke="rgb(93,109,175)" stroke-width="1" opacity="1" d="M 197.5 81 L 196 83.5 L 179.5 108 L 181 105.5 L 197.5 81 Z " /><path fill="rgb(93,109,175)" stroke="rgb(93,109,175)" stroke-width="1" opacity="1" d="M 215.5 96 L 216 176.5 L 215 176.5 L 215.5 96 Z " /><path fill="rgb(93,109,175)" stroke="rgb(93,109,175)" stroke-width="1" opacity="1" d="M 178.5 109 L 177.5 111 L 178.5 109 Z " /><path fill="rgb(93,109,175)" stroke="rgb(93,109,175)" stroke-width="1" opacity="1" d="M 176.5 112 L 175.5 114 L 176.5 112 Z " /><path fill="rgb(93,109,175)" stroke="rgb(93,109,175)" stroke-width="1" opacity="1" d="M 174.5 115 L 173 117.5 L 160.5 136 L 162 133.5 L 174.5 115 Z " /><path fill="rgb(93,109,175)" stroke="rgb(93,109,175)" stroke-width="1" opacity="1" d="M 159.5 137 L 159 138.5 L 152.5 148 L 154 145.5 L 159.5 137 Z " /><path fill="rgb(93,109,175)" stroke="rgb(93,109,175)" stroke-width="1" opacity="1" d="M 151.5 149 L 151 150.5 L 150 154 L 148 153.5 L 151.5 149 Z " /><path fill="rgb(93,109,175)" stroke="rgb(93,109,175)" stroke-width="1" opacity="1" d="M 147.5 155 L 146.5 157 L 147.5 155 Z " /><path fill="rgb(93,109,175)" stroke="rgb(93,109,175)" stroke-width="1" opacity="1" d="M 145.5 158 L 144.5 160 L 145.5 158 Z " /><path fill="rgb(93,109,175)" stroke="rgb(93,109,175)" stroke-width="1" opacity="1" d="M 143.5 161 L 142.5 163 L 143.5 161 Z " /><path fill="rgb(93,109,175)" stroke="rgb(93,109,175)" stroke-width="1" opacity="1" d="M 141.5 164 L 140.5 166 L 141.5 164 Z " /><path fill="rgb(93,109,175)" stroke="rgb(93,109,175)" stroke-width="1" opacity="1" d="M 139.5 167 L 138 169.5 L 136.5 172 L 137 170.5 L 139.5 167 Z " /><path fill="rgb(93,109,175)" stroke="rgb(93,109,175)" stroke-width="1" opacity="1" d="M 135.5 173 L 134 175.5 L 125.5 188 L 127 185.5 L 135.5 173 Z " /><path fill="rgb(93,109,175)" stroke="rgb(93,109,175)" stroke-width="1" opacity="1" d="M 266.5 176 L 294 176.5 L 290.5 181 L 291 179.5 L 292 177.5 L 266.5 177 L 266.5 176 Z " /><path fill="rgb(93,109,175)" stroke="rgb(93,109,175)" stroke-width="1" opacity="1" d="M 232.5 177 L 251 177.5 L 232.5 178 L 232.5 177 Z " /><path fill="rgb(93,109,175)" stroke="rgb(93,109,175)" stroke-width="1" opacity="1" d="M 289.5 182 L 288.5 184 L 289.5 182 Z " /><path fill="rgb(93,109,175)" stroke="rgb(93,109,175)" stroke-width="1" opacity="1" d="M 287.5 185 L 286 187.5 L 280.5 196 L 281 194.5 L 287.5 185 Z " /><path fill="rgb(93,109,175)" stroke="rgb(93,109,175)" stroke-width="1" opacity="1" d="M 124.5 189 L 124 190.5 L 119.5 197 L 121 194.5 L 124.5 189 Z " /><path fill="rgb(93,109,175)" stroke="rgb(93,109,175)" stroke-width="1" opacity="1" d="M 279.5 197 L 279 198.5 L 274.5 205 L 276 202.5 L 279.5 197 Z " /><path fill="rgb(93,109,175)" stroke="rgb(93,109,175)" stroke-width="1" opacity="1" d="M 118.5 198 L 118 199.5 L 108 214.5 L 108.5 216 Q 106.3 216.8 107 214.5 L 118.5 198 Z " /><path fill="rgb(93,109,175)" stroke="rgb(93,109,175)" stroke-width="1" opacity="1" d="M 273.5 206 L 273 207.5 L 261.5 225 L 262 223.5 L 273.5 206 Z " /><path fill="rgb(93,109,175)" stroke="rgb(93,109,175)" stroke-width="1" opacity="1" d="M 117.5 216 L 138 216.5 L 117.5 217 L 117.5 216 Z " /><path fill="rgb(93,109,175)" stroke="rgb(93,109,175)" stroke-width="1" opacity="1" d="M 150.5 217 L 175 217.5 L 150.5 218 L 150.5 217 Z " /><path fill="rgb(93,109,175)" stroke="rgb(93,109,175)" stroke-width="1" opacity="1" d="M 180.5 217 L 182 218.5 L 182.5 343 L 186 340.5 L 183 346 L 181 345.5 L 181 218.5 L 180.5 217 Z " /><path fill="rgb(93,109,175)" stroke="rgb(93,109,175)" stroke-width="1" opacity="1" d="M 260.5 226 L 259.5 228 L 260.5 226 Z " /><path fill="rgb(93,109,175)" stroke="rgb(93,109,175)" stroke-width="1" opacity="1" d="M 258.5 229 L 257.5 231 L 258.5 229 Z " /><path fill="rgb(93,109,175)" stroke="rgb(93,109,175)" stroke-width="1" opacity="1" d="M 256.5 232 L 256 233.5 L 252.5 239 L 253 237.5 L 256.5 232 Z " /><path fill="rgb(93,109,175)" stroke="rgb(93,109,175)" stroke-width="1" opacity="1" d="M 250 240 L 252 240.5 L 246.5 248 L 247 246.5 L 250 240 Z " /><path fill="rgb(93,109,175)" stroke="rgb(93,109,175)" stroke-width="1" opacity="1" d="M 244 249 L 246 249.5 L 240.5 257 L 241 255.5 L 244 249 Z " /><path fill="rgb(93,109,175)" stroke="rgb(93,109,175)" stroke-width="1" opacity="1" d="M 239.5 258 L 238 260.5 L 230.5 272 L 232 269.5 L 239.5 258 Z " /><path fill="rgb(93,109,175)" stroke="rgb(93,109,175)" stroke-width="1" opacity="1" d="M 227.5 276 L 227 277.5 L 213.5 298 L 214 296.5 L 227.5 276 Z " /><path fill="rgb(93,109,175)" stroke="rgb(93,109,175)" stroke-width="1" opacity="1" d="M 212.5 299 L 211 301.5 L 209.5 304 L 210 302.5 L 212.5 299 Z " /><path fill="rgb(93,109,175)" stroke="rgb(93,109,175)" stroke-width="1" opacity="1" d="M 208.5 305 L 208 306.5 L 201.5 316 L 203 313.5 L 208.5 305 Z " /><path fill="rgb(93,109,175)" stroke="rgb(93,109,175)" stroke-width="1" opacity="1" d="M 200.5 317 L 200 318.5 L 194.5 327 L 195 325.5 L 200.5 317 Z " /><path fill="rgb(93,109,175)" stroke="rgb(93,109,175)" stroke-width="1" opacity="1" d="M 193.5 328 L 192.5 330 L 193.5 328 Z " /><path fill="rgb(93,109,175)" stroke="rgb(93,109,175)" stroke-width="1" opacity="1" d="M 191.5 331 L 190 333.5 L 186.5 339 L 187 337.5 L 191.5 331 Z " /></svg>