<?xml version="1.0" standalone="no"?>
<!DOCTYPE svg PUBLIC "-//W3C//DTD SVG 20010904//EN"
 "http://www.w3.org/TR/2001/REC-SVG-20010904/DTD/svg10.dtd">
<svg version="1.0" xmlns="http://www.w3.org/2000/svg"
 width="300.000000pt" height="189.000000pt" viewBox="0 0 300.000000 189.000000"
 preserveAspectRatio="xMidYMid meet">
<metadata>
Created by potrace 1.10, written by Peter Selinger 2001-2011
</metadata>
<g transform="translate(0.000000,189.000000) scale(0.100000,-0.100000)"
fill="#000000" stroke="none">
<path d="M150 1340 l0 -420 166 0 c160 0 166 1 161 20 -3 10 0 26 7 35 9 13
37 15 196 13 l185 -3 3 -32 c3 -28 7 -33 28 -33 21 0 24 4 19 20 -12 39 11 50
106 50 l89 0 0 -27 c0 -16 -5 -35 -10 -43 -7 -11 -10 -11 -10 -2 0 7 -5 10
-10 7 -5 -3 -10 -1 -10 4 0 6 -9 11 -19 11 -15 0 -18 -5 -13 -22 5 -21 6 -21
13 -2 7 17 8 17 8 1 1 -10 5 -16 10 -13 5 4 16 3 25 0 14 -5 16 -49 16 -395
l0 -388 840 -1 840 0 0 600 0 600 -450 0 -451 0 1 218 2 217 -871 2 -871 2 0
-419z m30 390 c0 -5 -2 -10 -4 -10 -3 0 -8 5 -11 10 -3 6 -1 10 4 10 6 0 11
-4 11 -10z m30 0 c0 -5 -2 -10 -4 -10 -3 0 -8 5 -11 10 -3 6 -1 10 4 10 6 0
11 -4 11 -10z m30 0 c0 -5 -4 -10 -10 -10 -5 0 -10 5 -10 10 0 6 5 10 10 10 6
0 10 -4 10 -10z m90 2 c0 -5 -10 -14 -23 -21 -25 -14 -52 -50 -43 -59 4 -3 18
8 32 25 23 29 31 31 85 32 59 0 59 0 59 -30 0 -27 8 -34 38 -30 8 1 12 -13 12
-41 0 -33 5 -46 22 -57 21 -13 21 -14 2 -24 -19 -11 -138 -12 -155 -2 -18 12
-49 -6 -49 -28 0 -43 12 -48 101 -47 46 1 89 1 94 0 6 -1 38 -1 73 0 42 1 62
-2 62 -11 0 -8 -13 -10 -40 -6 -22 3 -43 1 -46 -5 -3 -5 0 -9 7 -7 51 6 589
-3 589 -10 0 -6 -139 -10 -360 -9 -204 0 -360 4 -360 9 0 5 25 9 55 9 30 0 55
3 55 8 0 4 -47 7 -104 7 -57 0 -102 -4 -99 -8 3 -5 21 -7 41 -5 22 2 37 -2 40
-10 2 -8 -11 -12 -46 -12 -31 0 -52 5 -55 13 -2 6 -4 -9 -3 -35 0 -27 4 -48 9
-48 5 0 4 -7 -3 -15 -25 -30 0 -35 181 -35 107 0 178 4 175 9 -4 5 -31 7 -61
5 -31 -3 -55 -1 -55 5 0 5 27 11 60 13 36 2 60 -1 60 -7 0 -5 4 -4 8 2 6 9 41
13 123 12 144 -1 139 -2 139 18 0 15 1 15 13 1 6 -9 23 -17 37 -18 50 -4 704
3 668 7 -52 6 -48 23 5 23 30 1 38 3 26 10 -8 5 -45 8 -82 6 -37 -1 -67 1 -67
6 0 9 11 10 92 10 33 0 59 5 61 12 3 8 -49 10 -189 9 -115 -1 -194 2 -194 8 0
9 28 13 65 9 11 -1 17 1 13 6 -5 4 -174 7 -378 6 -203 -1 -370 0 -370 3 0 3 7
17 16 31 16 23 15 26 -1 44 -10 11 -27 20 -38 20 -19 0 -19 1 -4 18 10 10 17
24 17 30 0 7 12 13 28 13 22 1 23 3 5 6 -21 4 -39 31 -27 42 3 3 206 6 450 7
244 0 447 4 451 7 3 4 -169 7 -383 7 -421 1 -614 7 -628 20 -5 5 -15 2 -23 -6
-8 -8 -25 -14 -39 -14 -19 0 -24 5 -24 24 0 19 5 24 25 22 14 0 25 -5 25 -10
0 -5 6 -3 14 3 17 14 72 11 69 -4 -1 -6 24 -8 65 -5 l67 5 -59 3 c-53 3 -94
21 -80 35 9 9 35 -4 28 -14 -3 -5 260 -9 634 -9 602 0 639 -1 639 -17 0 -10
-3 -20 -6 -23 -3 -3 -4 -85 -1 -183 l5 -177 -122 0 -123 0 0 -26 0 -26 498 3
c273 2 502 0 509 -4 6 -4 14 -3 17 2 5 7 57 8 109 2 11 -1 8 -41 -3 -41 -5 0
-10 7 -10 16 0 8 -5 12 -10 9 -14 -8 -3 -24 24 -35 12 -5 -324 -9 -794 -9
-729 0 -813 1 -795 15 22 17 23 23 3 35 -13 8 -7 9 72 13 18 1 26 7 28 24 3
21 1 22 -83 22 l-86 0 3 -27 c2 -22 8 -27 24 -25 25 3 40 -24 23 -44 -20 -24
-45 -17 -44 13 l0 27 -128 3 c-107 3 -129 1 -133 -12 -4 -8 -1 -22 6 -30 10
-11 8 -20 -9 -41 -29 -36 -27 -77 3 -93 19 -11 28 -11 47 0 13 7 27 13 30 12
13 -4 156 -4 174 0 13 3 21 13 22 28 0 13 1 32 2 42 1 9 6 17 12 17 6 0 8 -9
4 -21 -9 -29 21 -62 45 -49 10 5 32 8 49 6 17 -2 40 3 51 11 11 8 25 11 30 8
22 -14 69 -13 80 0 21 25 1 34 -83 35 -103 1 -118 2 -112 8 2 3 354 5 782 5
l778 1 0 -92 c-1 -464 -5 -542 -22 -543 -17 -1 -17 -2 0 -6 15 -4 17 -22 17
-204 l0 -199 -123 0 c-109 0 -126 2 -141 19 -17 18 -16 20 3 26 25 7 28 33 5
42 -8 3 -29 1 -47 -5 -32 -11 -32 -11 11 -8 23 2 42 -1 42 -5 0 -5 -30 -9 -67
-9 -45 0 -63 3 -53 9 8 6 18 7 24 4 5 -3 7 -2 3 3 -3 5 -59 10 -125 12 -126 3
-155 -6 -116 -36 15 -11 46 -13 154 -9 74 3 126 2 115 -3 -11 -4 -23 -6 -26
-4 -3 1 -12 -6 -19 -17 -13 -17 -27 -19 -137 -19 l-123 0 -2 203 -2 202 -6
-200 -5 -200 -242 -3 -243 -2 -2 367 -3 368 -2 -363 c-2 -230 -7 -362 -13
-362 -6 0 -10 28 -11 63 -1 46 -3 56 -9 37 -4 -14 -8 -44 -9 -67 -1 -40 -2
-42 -31 -41 -16 1 -30 5 -30 10 0 5 3 7 8 4 4 -2 16 2 27 10 18 13 18 14 -8
14 -15 0 -27 5 -27 10 0 6 11 10 25 10 34 0 32 20 -2 21 -27 2 -27 2 -3 6 40
7 48 23 12 23 -18 0 -32 5 -32 10 0 6 13 10 29 10 16 0 31 6 34 13 3 9 -5 12
-29 9 -20 -3 -34 0 -34 6 0 6 15 13 33 15 18 3 10 4 -18 3 l-50 -1 3 -79 c3
-57 0 -81 -10 -87 -22 -14 -218 -11 -219 4 -1 6 -3 35 -4 62 -1 28 -7 62 -13
78 -10 23 -17 27 -49 26 -21 -1 -30 -3 -20 -6 9 -2 17 -9 17 -14 0 -6 -9 -8
-20 -4 -15 5 -18 3 -14 -9 4 -11 19 -16 51 -16 29 0 42 -4 37 -11 -3 -6 -24
-9 -45 -7 -22 2 -40 -1 -41 -7 -1 -9 -4 -43 -7 -87 0 -10 -5 -18 -11 -18 -7 0
-10 148 -10 423 0 316 -3 426 -12 435 -15 15 -181 16 -209 1 -15 -8 -29 -7
-52 3 -24 11 -75 14 -205 12 -149 -2 -176 -4 -193 -20 -10 -9 -19 -23 -19 -31
0 -7 -6 -14 -12 -14 -35 -5 -235 -6 -250 -2 -16 4 -17 31 -17 346 l1 342 23
21 c15 12 21 25 16 33 -6 9 -10 7 -14 -8 -7 -29 -39 -28 -35 2 3 20 10 23 73
28 39 3 66 6 60 7 -5 1 -3 7 5 12 19 12 30 13 30 2z m110 0 c0 -11 -88 -13
-95 -1 -4 5 16 9 44 9 28 0 51 -4 51 -8z m200 -2 c0 -5 -2 -10 -4 -10 -3 0 -8
5 -11 10 -3 6 -1 10 4 10 6 0 11 -4 11 -10z m-123 -6 c-3 -3 -12 -4 -19 -1 -8
3 -5 6 6 6 11 1 17 -2 13 -5z m103 -119 l0 -45 -55 0 -55 0 0 45 0 45 55 0 55
0 0 -45z m-33 -71 c-3 -3 -12 -4 -19 -1 -8 3 -5 6 6 6 11 1 17 -2 13 -5z
m-222 -32 c21 -15 13 -29 -18 -30 l-32 -1 25 15 c14 9 17 13 8 10 -10 -3 -18
-1 -18 4 0 12 21 13 35 2z m155 -19 c0 -21 -3 -24 -9 -14 -5 8 -7 20 -4 28 8
21 13 15 13 -14z m25 17 c-3 -5 -1 -10 4 -10 6 0 11 5 11 10 0 6 7 10 15 10 8
0 15 -8 15 -18 0 -25 -55 -27 -57 -1 -1 11 3 19 8 19 6 0 7 -4 4 -10z m75 -2
c0 15 26 16 35 2 4 -6 4 -18 1 -27 -5 -12 -9 -13 -21 -3 -8 6 -19 9 -25 5 -6
-4 -10 3 -10 17 0 18 2 20 10 8 6 -10 10 -11 10 -2z m-199 -10 c0 -10 2 -10 6
0 2 6 18 12 34 12 21 0 29 -5 29 -17 0 -15 -2 -16 -10 -3 -9 13 -10 13 -10 0
0 -13 -1 -13 -10 0 -6 10 -10 11 -10 3 0 -7 -9 -13 -20 -13 -11 0 -20 6 -20
13 0 8 -4 7 -10 -3 -8 -13 -10 -12 -10 3 0 19 30 24 31 5z m889 -78 c0 -5 -32
-9 -75 -9 -41 1 -75 5 -75 10 0 5 34 9 75 9 43 0 75 -4 75 -10z m-913 -35 c6
-2 14 1 16 8 2 7 8 9 12 5 14 -14 -3 -20 -51 -21 -28 0 -49 4 -52 11 -3 11 34
9 75 -3z m243 3 c0 -5 -17 -8 -37 -9 -21 0 -66 -1 -100 -2 -56 -2 -81 5 -53
15 20 6 190 3 190 -4z m400 0 c0 -5 -10 -8 -22 -8 -272 -4 -348 -4 -348 2 0
10 55 13 222 13 82 0 148 -3 148 -7z m153 2 c4 0 7 -3 7 -7 0 -5 -34 -8 -75
-8 -47 0 -75 4 -75 11 0 10 24 10 143 4z m186 -4 c5 -3 11 -3 13 2 4 9 98 3
98 -7 0 -3 -63 -6 -140 -6 -96 0 -140 3 -140 11 0 12 150 12 169 0z m161 4 c0
-13 -12 -19 -26 -13 -21 8 -17 19 6 19 11 0 20 -3 20 -6z m-1150 -40 c0 -5
-13 -10 -29 -10 -17 0 -33 5 -36 10 -4 6 8 10 29 10 20 0 36 -4 36 -10z m100
0 c0 -5 -20 -9 -45 -8 -25 0 -45 4 -45 9 0 5 20 9 45 9 25 0 45 -4 45 -10z
m40 0 c0 -5 -7 -10 -15 -10 -8 0 -15 5 -15 10 0 6 7 10 15 10 8 0 15 -4 15
-10z m190 0 c0 -6 -37 -10 -90 -10 -53 0 -90 4 -90 10 0 6 37 10 90 10 53 0
90 -4 90 -10z m220 0 c0 -6 -38 -10 -95 -10 -57 0 -95 4 -95 10 0 6 38 10 95
10 57 0 95 -4 95 -10z m60 0 c0 -5 -7 -10 -15 -10 -8 0 -15 5 -15 10 0 6 7 10
15 10 8 0 15 -4 15 -10z m80 0 c0 -5 -16 -10 -35 -10 -19 0 -35 5 -35 10 0 6
16 10 35 10 19 0 35 -4 35 -10z m220 1 c0 -6 -46 -10 -105 -9 -58 0 -105 4
-105 9 0 5 47 9 105 9 59 0 105 -4 105 -9z m110 -1 c0 -5 -22 -10 -50 -10 -27
0 -50 5 -50 10 0 6 23 10 50 10 28 0 50 -4 50 -10z m50 0 c0 -5 -9 -10 -20
-10 -11 0 -20 5 -20 10 0 6 9 10 20 10 11 0 20 -4 20 -10z m120 0 c0 -5 -25
-10 -55 -10 -30 0 -55 5 -55 10 0 6 25 10 55 10 30 0 55 -4 55 -10z m40 0 c0
-5 -7 -10 -15 -10 -8 0 -15 5 -15 10 0 6 7 10 15 10 8 0 15 -4 15 -10z m-1090
-40 c0 -4 -47 -7 -105 -7 -58 1 -105 5 -105 10 0 5 32 7 70 5 39 -2 70 -1 70
2 0 4 16 4 35 2 19 -2 35 -8 35 -12z m17 -2 c-3 -8 -6 -5 -6 6 -1 11 2 17 5
13 3 -3 4 -12 1 -19z m603 -8 c0 -5 -4 -10 -10 -10 -5 0 -10 5 -10 10 0 6 5
10 10 10 6 0 10 -4 10 -10z m30 0 c0 -5 -4 -10 -10 -10 -5 0 -10 5 -10 10 0 6
5 10 10 10 6 0 10 -4 10 -10z m30 0 c0 -5 -4 -10 -10 -10 -5 0 -10 5 -10 10 0
6 5 10 10 10 6 0 10 -4 10 -10z m40 0 c0 -5 -4 -10 -10 -10 -5 0 -10 5 -10 10
0 6 5 10 10 10 6 0 10 -4 10 -10z m420 0 c0 -5 -4 -10 -10 -10 -5 0 -10 5 -10
10 0 6 5 10 10 10 6 0 10 -4 10 -10z m179 -6 c2 -2 -18 -4 -45 -3 -36 0 -44 3
-29 9 18 7 63 3 74 -6z m-969 -46 c0 -10 3 -9 9 1 6 9 11 10 15 3 4 -6 13 -9
21 -5 9 3 15 -1 15 -10 0 -17 -60 -19 -72 -2 -11 14 -10 25 2 25 6 0 10 -6 10
-12z m96 4 c-2 -4 17 -6 44 -5 27 2 52 -1 55 -7 3 -6 -4 -10 -17 -11 -13 0
-42 -2 -65 -3 -36 -3 -43 -1 -43 15 0 11 7 19 16 19 8 0 13 -3 10 -8z m128 -7
c3 -8 1 -15 -4 -15 -6 0 -10 7 -10 15 0 8 2 15 4 15 2 0 6 -7 10 -15z m2 -37
c3 -4 3 -27 0 -50 -6 -42 -8 -44 -41 -45 -24 0 -32 3 -28 13 3 8 0 14 -6 14
-6 0 -11 -8 -11 -17 0 -15 -2 -16 -10 -3 -6 9 -10 10 -10 3 0 -6 -13 -11 -28
-11 -21 1 -28 6 -30 23 -1 21 2 22 60 18 34 -2 65 -8 69 -14 4 -7 9 -4 13 7 3
9 4 19 2 22 -8 7 -119 6 -142 -2 -16 -5 -25 0 -37 18 -16 24 -16 25 11 28 48
5 181 2 188 -4z m-203 -47 c19 -33 14 -57 -14 -66 -23 -8 -49 10 -49 34 0 18
27 61 38 61 4 0 15 -13 25 -29z m294 3 c3 -8 1 -20 -5 -26 -15 -15 -43 8 -35
28 7 19 32 18 40 -2z m93 -6 c0 -4 -18 -8 -40 -8 -22 0 -40 4 -40 10 0 5 18 9
40 8 22 -1 40 -5 40 -10z m110 2 c0 -5 -15 -10 -34 -10 -19 0 -38 5 -41 10 -4
6 10 10 34 10 23 0 41 -4 41 -10z m-160 -850 c0 -5 -7 -10 -15 -10 -8 0 -15 5
-15 10 0 6 7 10 15 10 8 0 15 -4 15 -10z m5 -76 c0 -5 -13 -9 -30 -9 -34 -1
-47 3 -41 13 6 10 71 7 71 -4z m272 -6 c-3 -8 -6 -5 -6 6 -1 11 2 17 5 13 3
-3 4 -12 1 -19z m832 -8 c13 0 22 -3 19 -6 -11 -11 -198 -7 -198 4 0 4 35 6
78 5 42 -1 88 -3 101 -3z m-1094 -20 c3 -5 -13 -9 -40 -8 -25 0 -45 4 -45 9 0
12 77 11 85 -1z m-5 -40 c0 -5 -18 -10 -40 -10 -22 0 -40 5 -40 10 0 6 18 10
40 10 22 0 40 -4 40 -10z m1226 -5 c-20 -15 -58 -15 -63 1 -2 6 16 11 39 12
40 2 42 1 24 -13z"/>
<path d="M240 1685 c-7 -9 -8 -15 -2 -15 5 0 12 7 16 15 3 8 4 15 2 15 -2 0
-9 -7 -16 -15z"/>
<path d="M320 1688 c0 -9 -7 -19 -16 -22 -8 -3 -13 -10 -9 -15 8 -14 32 -3 40
16 3 9 1 21 -5 27 -7 7 -10 5 -10 -6z"/>
<path d="M1680 1675 c-20 -21 -21 -25 -6 -25 9 0 14 5 11 10 -3 6 1 10 9 10 9
0 16 -4 16 -10 0 -15 67 -12 73 3 3 9 8 8 18 -4 10 -12 20 -14 34 -9 16 7 16
9 3 9 -9 1 -15 8 -13 19 1 9 0 11 -2 5 -6 -18 -23 -16 -23 2 0 8 -4 15 -10 15
-5 0 -10 -7 -10 -15 0 -17 -53 -24 -69 -9 -12 11 11 15 24 4 12 -10 15 -10 15
4 0 25 -43 20 -70 -9z"/>
<path d="M480 1680 c0 -5 5 -10 10 -10 6 0 10 5 10 10 0 6 -4 10 -10 10 -5 0
-10 -4 -10 -10z"/>
<path d="M1490 1680 c0 -5 5 -10 11 -10 5 0 7 5 4 10 -3 6 -8 10 -11 10 -2 0
-4 -4 -4 -10z"/>
<path d="M1840 1680 c0 -5 5 -10 10 -10 6 0 10 5 10 10 0 6 -4 10 -10 10 -5 0
-10 -4 -10 -10z"/>
<path d="M213 1635 c-28 -31 -4 -69 39 -63 15 2 24 11 26 26 6 44 -38 69 -65
37z m55 -33 c-4 -21 -38 -28 -49 -11 -4 7 -3 21 2 31 8 15 14 16 30 7 11 -5
19 -18 17 -27z"/>
<path d="M230 1611 c0 -6 5 -13 10 -16 6 -3 10 1 10 9 0 9 -4 16 -10 16 -5 0
-10 -4 -10 -9z"/>
<path d="M651 1626 c3 -3 29 -6 57 -7 58 -2 70 -15 20 -22 l-33 -5 35 2 c24 1
35 6 35 16 0 11 -15 16 -60 18 -33 2 -57 1 -54 -2z"/>
<path d="M822 1625 c3 -3 24 -6 47 -7 23 0 41 -4 41 -9 0 -13 -97 -11 -103 1
-3 6 -4 5 -3 -2 4 -20 111 -18 111 2 0 11 -14 16 -50 18 -27 2 -47 0 -43 -3z"/>
<path d="M998 1623 c17 -2 32 -10 32 -17 0 -15 -61 -9 -72 8 -5 8 -8 7 -8 -2
0 -7 6 -15 13 -17 21 -9 137 -10 137 -2 0 4 -13 7 -30 7 -16 0 -30 5 -30 10 0
6 15 10 34 10 24 0 36 -5 40 -17 4 -14 4 -14 3 2 -2 18 -10 20 -77 21 -41 1
-60 -1 -42 -3z"/>
<path d="M1172 1624 c8 -7 128 -7 136 0 3 3 -28 6 -68 6 -40 0 -71 -2 -68 -6z"/>
<path d="M1364 1619 c-11 -18 13 -32 52 -31 73 3 71 42 -1 42 -24 0 -47 -5
-51 -11z m96 -10 c0 -5 -20 -9 -45 -9 -25 0 -45 4 -45 9 0 4 20 8 45 8 25 0
45 -4 45 -8z"/>
<path d="M1505 1620 c-9 -15 4 -30 23 -29 15 1 15 2 0 6 -10 2 -18 9 -18 14 0
13 34 11 48 -3 8 -8 12 -8 12 -1 0 21 -54 31 -65 13z"/>
<path d="M1604 1619 c-14 -23 17 -32 103 -30 86 1 112 9 99 30 -9 15 -193 15
-202 0z m196 -10 c0 -5 -43 -9 -95 -9 -52 0 -95 4 -95 8 0 4 43 8 95 9 52 0
95 -3 95 -8z"/>
<path d="M1318 1610 c-4 -13 -140 -16 -161 -4 -9 5 -9 4 -1 -5 15 -16 151 -18
166 -3 6 6 9 14 6 17 -3 4 -8 1 -10 -5z"/>
<path d="M1480 1429 c-57 -4 -39 -6 73 -7 82 0 146 2 144 5 -8 8 -130 9 -217
2z"/>
<path d="M1303 1303 c20 -5 17 -30 -2 -25 -7 1 -10 -2 -7 -7 4 -5 -2 -12 -13
-16 -11 -3 -22 -12 -25 -20 -6 -17 -26 -20 -26 -4 0 5 5 7 12 3 7 -4 8 -3 4 4
-7 12 -36 5 -36 -8 0 -15 43 -20 107 -12 9 2 10 9 3 28 -9 22 -8 25 6 20 8 -3
28 -6 44 -6 22 0 30 -5 33 -22 4 -21 4 -21 6 -2 1 19 7 21 103 23 106 2 123 5
98 22 -13 8 -13 10 0 19 10 6 -40 9 -155 9 -93 -1 -162 -3 -152 -6z m197 -15
c0 -4 -38 -8 -85 -8 -49 0 -85 4 -85 10 0 6 35 9 85 8 47 -1 85 -6 85 -10z
m84 -3 c4 -12 -3 -15 -34 -15 -28 0 -38 4 -34 13 7 19 61 20 68 2z m-274 -56
c0 -5 -7 -9 -15 -9 -15 0 -20 12 -9 23 8 8 24 -1 24 -14z"/>
<path d="M1454 1239 c-7 -12 15 -31 31 -26 6 2 11 11 11 21 2 12 1 13 -3 1 -2
-8 -9 -15 -15 -15 -5 0 -8 7 -4 15 6 17 -9 20 -20 4z"/>
<path d="M1523 1243 c9 -2 23 -2 30 0 6 3 -1 5 -18 5 -16 0 -22 -2 -12 -5z"/>
<path d="M1583 1244 c7 -7 219 -6 226 1 2 3 -49 5 -114 5 -65 0 -116 -3 -112
-6z"/>
<path d="M2376 1235 c-3 -8 -1 -15 3 -15 5 0 11 7 15 15 3 8 1 15 -3 15 -5 0
-11 -7 -15 -15z"/>
<path d="M2431 1234 c0 -11 3 -14 6 -6 3 7 2 16 -1 19 -3 4 -6 -2 -5 -13z"/>
<path d="M2526 1233 c-6 -14 -5 -15 5 -6 7 7 10 15 7 18 -3 3 -9 -2 -12 -12z"/>
<path d="M2553 1236 c0 -18 25 -24 101 -22 44 1 60 5 63 16 4 12 3 13 -5 1
-11 -15 -36 -6 -27 10 4 5 -1 9 -9 9 -9 0 -16 -7 -16 -15 0 -8 -7 -15 -15 -15
-8 0 -15 7 -15 15 0 9 -9 15 -22 14 -13 0 -17 -3 -10 -6 17 -7 15 -23 -3 -23
-8 0 -15 7 -15 15 0 8 -6 15 -13 15 -8 0 -14 -6 -14 -14z"/>
<path d="M2330 1230 c0 -5 5 -10 11 -10 5 0 7 5 4 10 -3 6 -8 10 -11 10 -2 0
-4 -4 -4 -10z"/>
<path d="M1658 1213 c17 -2 47 -2 65 0 17 2 3 4 -33 4 -36 0 -50 -2 -32 -4z"/>
<path d="M1768 1213 c6 -2 18 -2 25 0 6 3 1 5 -13 5 -14 0 -19 -2 -12 -5z"/>
<path d="M2616 1172 c-96 -3 -126 -11 -126 -36 0 -6 7 -2 16 9 15 20 15 20 32
-2 15 -19 26 -22 95 -21 79 1 107 14 90 40 -6 10 -34 12 -107 10z m104 -23 c0
-5 -38 -9 -85 -9 -47 0 -85 4 -85 9 0 5 38 9 85 9 47 0 85 -4 85 -9z"/>
<path d="M2130 1150 c0 -19 6 -20 95 -20 86 0 95 2 95 19 0 17 -9 19 -95 20
-89 2 -95 1 -95 -19z m146 -2 c4 -5 -25 -8 -64 -8 -40 0 -72 3 -72 8 0 4 29 7
64 7 35 0 68 -3 72 -7z m34 2 c0 -5 -5 -10 -11 -10 -5 0 -7 5 -4 10 3 6 8 10
11 10 2 0 4 -4 4 -10z"/>
<path d="M2340 1150 c0 -18 7 -20 70 -20 66 0 70 1 69 23 -1 16 -2 18 -6 5 -2
-10 -8 -18 -13 -18 -5 0 -7 7 -4 15 5 12 -5 15 -55 15 -54 0 -61 -2 -61 -20z
m70 -2 c0 -4 -15 -8 -32 -7 -26 0 -29 2 -13 8 25 10 45 10 45 -1z m25 2 c3 -5
1 -10 -4 -10 -6 0 -11 5 -11 10 0 6 2 10 4 10 3 0 8 -4 11 -10z"/>
<path d="M1317 1108 c-9 -5 -9 -10 -1 -18 14 -14 86 -9 91 6 5 14 -71 24 -90
12z m66 -15 c-13 -2 -33 -2 -45 0 -13 2 -3 4 22 4 25 0 35 -2 23 -4z"/>
<path d="M2203 1113 c9 -2 23 -2 30 0 6 3 -1 5 -18 5 -16 0 -22 -2 -12 -5z"/>
<path d="M1364 1056 c-10 -11 -5 -35 13 -55 4 -5 32 30 33 41 0 16 -35 26 -46
14z m34 -18 c-6 -18 -28 -21 -28 -4 0 9 7 16 16 16 9 0 14 -5 12 -12z"/>
<path d="M1150 1035 c0 -24 2 -25 69 -25 48 0 72 4 81 15 21 25 1 35 -76 35
-72 0 -74 -1 -74 -25z m140 5 c0 -9 -62 -16 -102 -12 -53 6 -28 19 37 20 36 0
65 -3 65 -8z"/>
<path d="M2233 1003 c42 -2 112 -2 155 0 42 1 7 3 -78 3 -85 0 -120 -2 -77 -3z"/>
<path d="M2129 968 c-2 -18 -2 -118 1 -223 l6 -190 2 223 c2 208 -1 266 -9
190z"/>
<path d="M1633 935 c0 -27 2 -38 4 -22 2 15 2 37 0 50 -2 12 -4 0 -4 -28z"/>
<path d="M2167 973 c-4 -3 -7 -19 -7 -35 0 -24 7 -32 43 -48 37 -17 39 -19 15
-19 -14 -1 -29 5 -31 12 -3 7 -6 5 -6 -5 -1 -14 7 -18 34 -18 23 0 35 5 35 13
0 8 6 14 13 14 6 0 29 3 49 7 33 6 37 4 41 -16 l4 -23 2 23 c1 19 6 22 45 22
51 0 71 18 62 55 l-6 25 -144 0 c-78 0 -146 -3 -149 -7z m283 -30 l0 -28 -140
3 -140 3 0 25 0 24 140 0 140 0 0 -27z"/>
<path d="M1165 960 c-14 -22 17 -40 70 -40 39 0 54 4 59 16 3 9 4 20 0 25 -7
13 -121 11 -129 -1z m125 -11 c0 -5 -27 -9 -60 -9 -33 0 -60 4 -60 10 0 5 27
9 60 9 33 -1 60 -5 60 -10z"/>
<path d="M1664 955 c-12 -29 7 -35 116 -34 79 0 112 4 120 14 23 28 -1 35
-116 35 -91 0 -116 -3 -120 -15z m156 -5 c0 -6 -32 -10 -75 -10 -41 0 -75 4
-75 9 0 5 34 9 75 10 44 1 75 -3 75 -9z m80 0 c0 -6 -16 -10 -35 -10 -19 0
-35 4 -35 8 0 5 16 9 35 10 19 1 35 -3 35 -8z"/>
<path d="M2557 953 c-20 -19 -5 -33 36 -31 l42 1 -37 4 c-21 2 -38 9 -38 15 0
6 13 8 30 6 17 -3 30 -1 30 4 0 10 -54 11 -63 1z"/>
<path d="M1248 893 c6 -2 18 -2 25 0 6 3 1 5 -13 5 -14 0 -19 -2 -12 -5z"/>
<path d="M1748 893 c6 -2 18 -2 25 0 6 3 1 5 -13 5 -14 0 -19 -2 -12 -5z"/>
<path d="M2665 890 c4 -6 15 -8 26 -5 11 4 19 2 19 -4 0 -6 -15 -12 -32 -12
-24 -1 -27 -3 -10 -6 27 -5 31 -43 5 -43 -14 0 -15 -2 -4 -9 7 -5 10 -14 7
-20 -5 -7 2 -11 18 -11 28 0 32 13 16 54 -6 17 -6 26 0 26 6 0 10 9 10 20 0
16 -7 20 -31 20 -18 0 -28 -4 -24 -10z m45 -85 c0 -8 -4 -15 -10 -15 -5 0 -10
7 -10 15 0 8 5 15 10 15 6 0 10 -7 10 -15z"/>
<path d="M2161 874 c0 -11 3 -14 6 -6 3 7 2 16 -1 19 -3 4 -6 -2 -5 -13z"/>
<path d="M2315 881 c-6 -5 -21 -12 -35 -14 -14 -3 -7 -4 14 -3 22 1 41 7 44
14 4 14 -10 16 -23 3z"/>
<path d="M1484 854 c-24 -23 -32 -44 -16 -44 22 0 29 -58 29 -225 l0 -180 49
-3 c50 -3 59 6 11 10 -15 1 -27 6 -27 11 0 6 19 7 42 4 28 -4 37 -2 27 4 -12
8 -12 10 1 19 13 8 12 11 -5 24 -11 9 -26 16 -33 16 -7 0 -10 5 -7 10 4 6 10
8 15 5 5 -3 11 -1 15 5 4 6 -6 10 -24 10 -17 0 -31 5 -31 10 0 6 11 10 25 10
14 0 25 5 25 10 0 6 -11 10 -25 10 -14 0 -25 5 -25 10 0 5 3 9 8 9 23 -4 42 2
36 12 -3 6 -15 9 -25 6 -12 -3 -19 0 -19 10 0 8 4 11 10 8 5 -3 18 -1 27 4 15
8 15 11 3 12 -8 1 -21 1 -27 0 -7 -1 -13 3 -13 9 0 6 3 9 8 6 4 -2 16 2 27 10
18 13 18 14 -8 14 -37 0 -34 15 3 18 l30 2 1 -57 c0 -32 4 -80 9 -108 5 -35 8
4 9 131 1 202 -1 210 -62 216 -29 3 -44 -1 -63 -18z m110 -29 c-3 -7 -24 -13
-55 -14 -40 0 -49 2 -49 17 0 14 8 16 54 14 39 -3 53 -7 50 -17z m-4 -55 c0
-27 -3 -30 -30 -30 -16 0 -30 5 -30 10 0 6 11 10 25 10 14 0 25 5 25 11 0 8
-12 10 -35 6 -24 -4 -35 -2 -35 6 0 7 17 13 40 14 38 3 40 1 40 -27z m-73 -62
c-3 -8 -6 -5 -6 6 -1 11 2 17 5 13 3 -3 4 -12 1 -19z m73 7 c0 -10 -10 -15
-30 -15 -20 0 -30 5 -30 15 0 10 10 15 30 15 20 0 30 -5 30 -15z m-73 -117
c-3 -8 -6 -5 -6 6 -1 11 2 17 5 13 3 -3 4 -12 1 -19z m0 -110 c-3 -8 -6 -5 -6
6 -1 11 2 17 5 13 3 -3 4 -12 1 -19z m20 0 c-3 -8 -6 -5 -6 6 -1 11 2 17 5 13
3 -3 4 -12 1 -19z m53 -28 c0 -5 -9 -10 -20 -10 -11 0 -20 5 -20 10 0 6 9 10
20 10 11 0 20 -4 20 -10z m-73 -42 c-3 -8 -6 -5 -6 6 -1 11 2 17 5 13 3 -3 4
-12 1 -19z"/>
<path d="M1220 850 c-37 -4 -46 -9 -48 -27 -3 -20 1 -23 30 -24 18 -1 41 -1
51 0 9 1 17 -3 17 -9 0 -8 -17 -11 -49 -8 -43 2 -51 0 -55 -16 -7 -28 1 -36
35 -36 20 0 29 -5 29 -16 0 -9 -5 -12 -12 -8 -19 12 -48 12 -49 0 -8 -64 -8
-63 44 -59 26 2 46 -1 43 -6 -3 -4 -20 -8 -39 -8 -51 1 -58 -8 -51 -66 3 -29
6 -53 8 -54 1 -1 18 -3 37 -4 40 -3 51 -7 45 -18 -3 -4 -25 -5 -50 -1 l-44 7
2 -37 c3 -50 12 -60 56 -60 41 0 54 14 37 41 -6 9 -7 25 -2 35 4 11 9 60 11
109 1 50 5 125 8 168 3 44 3 84 -2 90 -4 8 -24 10 -52 7z m10 -26 c0 -14 -43
-11 -47 3 -2 6 7 10 22 9 14 0 25 -6 25 -12z m40 0 c0 -9 -5 -14 -12 -12 -18
6 -21 28 -4 28 9 0 16 -7 16 -16z m-16 -75 c-7 -12 -84 -11 -84 1 0 5 20 9 45
8 24 0 42 -4 39 -9z m16 -32 c0 -8 -7 -14 -15 -14 -8 0 -15 6 -15 14 0 7 7 13
15 13 8 0 15 -6 15 -13z m-15 -37 c4 -6 -12 -10 -39 -10 -25 0 -46 5 -46 10 0
6 18 10 39 10 22 0 43 -4 46 -10z m-2 -74 c3 -14 -76 -13 -80 1 -3 9 7 12 36
10 23 -1 42 -7 44 -11z m2 -36 c4 -6 -12 -10 -39 -10 -25 0 -46 5 -46 10 0 6
18 10 39 10 22 0 43 -4 46 -10z m0 -40 c-3 -5 -22 -10 -41 -10 -19 0 -34 5
-34 10 0 6 18 10 41 10 24 0 38 -4 34 -10z m-55 -70 c0 -5 -7 -10 -16 -10 -8
0 -12 5 -9 10 3 6 10 10 16 10 5 0 9 -4 9 -10z m40 0 c0 -5 -7 -10 -15 -10 -8
0 -15 5 -15 10 0 6 7 10 15 10 8 0 15 -4 15 -10z m15 -40 c-3 -5 -22 -10 -41
-10 -19 0 -34 5 -34 10 0 6 18 10 41 10 24 0 38 -4 34 -10z"/>
<path d="M2166 834 c-4 -9 -4 -19 -1 -22 3 -3 5 0 5 6 0 8 35 12 118 13 134 2
110 16 -29 18 -72 1 -88 -2 -93 -15z"/>
<path d="M2418 833 c7 -3 16 -2 19 1 4 3 -2 6 -13 5 -11 0 -14 -3 -6 -6z"/>
<path d="M2182 803 c3 -15 15 -18 68 -19 36 -1 48 1 28 3 -21 2 -38 8 -38 13
0 5 17 11 38 13 22 2 10 4 -31 5 -60 2 -68 0 -65 -15z m48 -3 c0 -5 -9 -10
-20 -10 -11 0 -20 5 -20 10 0 6 9 10 20 10 11 0 20 -4 20 -10z"/>
<path d="M2205 731 c-31 -5 -40 -10 -40 -26 0 -15 8 -21 35 -24 l35 -4 -30 -7
c-16 -4 51 -8 150 -7 99 0 170 2 157 4 -17 3 -21 9 -16 27 8 34 -17 49 -71 43
-25 -3 -50 -9 -55 -12 -18 -11 -11 -35 13 -45 18 -7 13 -9 -25 -9 -42 -1 -46
1 -41 20 4 15 0 27 -12 35 -20 15 -33 15 -100 5z m22 -25 c-5 -14 -57 -16 -57
-2 0 6 14 12 30 12 19 1 29 -3 27 -10z m78 -5 c0 -21 -25 -26 -26 -4 0 10 -3
13 -6 6 -7 -18 -33 -16 -33 3 0 11 8 14 33 12 19 -2 32 -8 32 -17z m91 0 c-9
-8 -18 -12 -22 -9 -9 10 3 25 21 25 14 0 14 -2 1 -16z m52 1 c2 -7 -3 -12 -12
-12 -9 0 -16 7 -16 16 0 17 22 14 28 -4z m39 2 c2 -6 -3 -14 -11 -17 -8 -3
-16 2 -19 14 -4 15 -1 19 10 17 9 -2 18 -8 20 -14z"/>
<path d="M2553 663 c9 -2 23 -2 30 0 6 3 -1 5 -18 5 -16 0 -22 -2 -12 -5z"/>
<path d="M2163 618 l2 -33 285 0 285 0 1 35 2 35 -5 -32 -4 -33 -279 0 -279 0
-5 30 c-6 30 -6 30 -3 -2z"/>
<path d="M2444 629 c-10 -16 11 -31 37 -26 22 4 22 4 -3 6 -16 0 -28 5 -28 10
0 5 12 12 28 14 l27 4 -27 2 c-15 0 -30 -4 -34 -10z"/>
<path d="M2408 603 c7 -3 16 -2 19 1 4 3 -2 6 -13 5 -11 0 -14 -3 -6 -6z"/>
<path d="M2185 549 c-16 -3 98 -6 255 -6 220 0 262 2 185 8 -118 9 -397 8
-440 -2z"/>
<path d="M2409 494 c-11 -14 -10 -18 6 -30 40 -30 103 -3 75 31 -16 20 -64 19
-81 -1z m71 -14 c0 -5 -13 -10 -30 -10 -16 0 -30 5 -30 10 0 6 14 10 30 10 17
0 30 -4 30 -10z"/>
<path d="M2168 433 c-6 -8 -6 -18 1 -31 7 -13 7 -22 -2 -31 -9 -10 -8 -15 7
-27 23 -16 181 -20 191 -4 4 6 -12 10 -39 10 -27 0 -46 5 -46 11 0 7 18 10 49
7 27 -1 47 0 44 5 -2 4 -15 7 -29 7 -25 0 -33 15 -11 23 9 3 9 7 -1 20 -17 20
-149 28 -164 10z m160 -18 c3 -3 -31 -5 -76 -5 -45 0 -82 4 -82 8 0 9 149 6
158 -3z m-58 -55 c0 -5 -22 -10 -50 -10 -27 0 -50 5 -50 10 0 6 23 10 50 10
28 0 50 -4 50 -10z"/>
<path d="M1333 362 c-3 -7 -3 -16 1 -19 3 -4 6 2 6 12 0 10 3 15 8 11 4 -4 7
-13 7 -19 0 -16 63 -21 81 -6 11 9 11 15 3 25 -14 17 -100 14 -106 -4z m47 -7
c0 -8 -4 -15 -10 -15 -5 0 -7 7 -4 15 4 8 8 15 10 15 2 0 4 -7 4 -15z m45 0
c0 -5 -8 -10 -17 -10 -10 -1 -18 4 -18 10 0 6 8 11 18 10 9 0 17 -5 17 -10z"/>
<path d="M2289 310 c-7 -5 -14 -16 -15 -24 -2 -13 7 -16 39 -15 26 1 32 3 17
6 -49 8 -56 16 -20 22 29 5 31 8 14 13 -12 3 -28 2 -35 -2z"/>
<path d="M2570 310 c0 -6 7 -10 15 -10 8 0 15 2 15 4 0 2 -7 6 -15 10 -8 3
-15 1 -15 -4z"/>
<path d="M2625 291 c-6 -5 -23 -11 -40 -14 l-30 -4 31 -2 c18 0 37 6 44 14 14
16 10 21 -5 6z"/>
<path d="M553 1593 c9 -2 23 -2 30 0 6 3 -1 5 -18 5 -16 0 -22 -2 -12 -5z"/>
<path d="M863 1150 c-17 -26 -16 -47 2 -54 8 -3 15 -1 15 4 0 6 -4 10 -10 10
-5 0 -10 7 -10 15 0 8 8 15 18 15 11 0 13 -3 6 -8 -9 -5 -8 -11 2 -20 12 -11
14 -10 14 6 0 10 -6 26 -12 35 -12 16 -14 16 -25 -3z"/>
<path d="M1170 1150 c0 -5 5 -10 11 -10 5 0 7 5 4 10 -3 6 -8 10 -11 10 -2 0
-4 -4 -4 -10z"/>
<path d="M514 921 c0 -20 7 -32 18 -35 10 -2 18 0 18 5 0 5 -4 9 -10 9 -5 0
-10 7 -10 15 0 9 9 15 25 15 14 0 25 5 25 10 0 6 -15 10 -34 10 -31 0 -34 -2
-32 -29z"/>
<path d="M657 931 c-3 -12 -11 -21 -19 -21 -10 0 -9 3 2 10 11 7 7 9 -14 7
-50 -4 -42 -25 9 -24 25 0 45 4 45 9 0 4 5 8 11 8 5 0 8 -4 5 -9 -3 -5 28 -9
69 -9 l74 0 -12 25 -12 26 -6 -24 c-4 -13 -7 -18 -8 -12 -1 8 -12 11 -31 9
-21 -2 -30 1 -30 11 0 12 -2 12 -15 -1 -15 -15 -44 -12 -56 7 -3 5 -9 -1 -12
-12z"/>
<path d="M957 944 c-13 -13 -7 -52 8 -58 27 -10 46 5 43 33 -3 26 -35 41 -51
25z m41 -25 c3 -11 2 -11 -7 1 -10 13 -12 13 -21 0 -5 -8 -10 -10 -10 -4 0 27
31 30 38 3z"/>
<path d="M130 781 c0 -104 3 -133 16 -145 14 -14 70 -16 472 -16 278 0 463 4
472 10 10 6 -50 10 -178 10 -121 0 -201 4 -214 11 -15 8 -19 8 -14 0 5 -8 -69
-11 -263 -11 l-271 0 0 135 c0 83 -4 135 -10 135 -6 0 -10 -50 -10 -129z"/>
<path d="M468 884 c-4 -6 -2 -19 6 -29 11 -15 33 -17 197 -18 102 -1 190 3
197 7 7 4 12 17 11 29 l0 22 -9 -22 c-9 -23 -12 -23 -199 -23 -189 0 -190 0
-193 23 -2 13 -6 18 -10 11z"/>
<path d="M913 860 c3 -12 22 -15 88 -16 l84 0 -80 3 c-46 2 -83 9 -88 16 -6 8
-7 8 -4 -3z"/>
<path d="M695 750 c-3 -5 -15 -10 -26 -10 -10 0 -19 -7 -19 -15 0 -8 5 -15 10
-15 6 0 10 6 10 13 0 8 4 7 10 -3 8 -12 10 -12 11 5 0 20 1 20 8 1 7 -19 8
-19 13 2 6 23 -6 39 -17 22z"/>
<path d="M397 729 c4 -15 8 -17 19 -8 11 9 14 8 14 -2 0 -11 2 -11 10 1 5 8
10 20 10 25 0 6 -5 3 -10 -5 -5 -8 -10 -10 -10 -5 0 6 -8 11 -19 12 -14 1 -17
-3 -14 -18z"/>
<path d="M460 728 c0 -20 20 -25 21 -5 0 6 4 3 8 -8 8 -19 8 -19 19 2 10 19 9
21 -18 25 -24 4 -30 1 -30 -14z"/>
<path d="M530 740 c0 -5 4 -10 9 -10 6 0 13 5 16 10 3 6 -1 10 -9 10 -9 0 -16
-4 -16 -10z"/>
<path d="M550 725 l-25 -14 30 1 c17 1 36 6 44 12 10 8 15 8 18 -1 6 -18 23
-16 23 2 0 20 -56 20 -90 0z"/>
</g>
</svg>
