<?xml version="1.0" standalone="no"?>
<!DOCTYPE svg PUBLIC "-//W3C//DTD SVG 20010904//EN"
 "http://www.w3.org/TR/2001/REC-SVG-20010904/DTD/svg10.dtd">
<svg version="1.0" xmlns="http://www.w3.org/2000/svg"
 width="270.000000pt" height="270.000000pt" viewBox="0 0 270.000000 270.000000"
 preserveAspectRatio="xMidYMid meet">
<metadata>
Created by potrace 1.10, written by Peter Selinger 2001-2011
</metadata>
<g transform="translate(0.000000,270.000000) scale(0.100000,-0.100000)"
fill="#000000" stroke="none">
<path d="M1206 2458 c4 -6 3 -8 -4 -4 -16 10 -93 -5 -85 -17 3 -5 1 -7 -4 -4
-6 4 -33 4 -59 0 -37 -5 -43 -8 -29 -14 20 -7 18 -9 -20 -13 -5 -1 -16 -5 -23
-10 -7 -4 -16 -6 -19 -3 -3 3 -15 -3 -27 -14 -11 -12 -30 -26 -41 -31 -17 -9
-18 -9 -10 3 6 8 -1 2 -15 -13 -14 -16 -30 -28 -35 -28 -6 0 -16 -9 -23 -20
-7 -11 -18 -17 -27 -14 -10 4 -15 0 -15 -11 0 -9 -9 -19 -20 -22 -10 -3 -28
-20 -39 -39 -11 -19 -35 -43 -53 -55 -18 -12 -24 -18 -13 -15 19 6 19 5 3 -8
-10 -7 -18 -18 -18 -24 0 -6 -10 -18 -22 -26 -12 -9 -18 -16 -13 -16 6 0 2 -7
-9 -15 -11 -8 -16 -20 -12 -30 3 -10 2 -14 -5 -10 -6 4 -9 -1 -7 -11 2 -14 -2
-18 -17 -16 -17 2 -18 1 -5 -8 11 -8 12 -13 3 -16 -7 -3 -9 -12 -6 -20 3 -8 0
-14 -6 -14 -6 0 -11 -10 -11 -22 0 -19 -2 -20 -10 -8 -13 20 -13 4 0 -21 6
-11 7 -19 3 -18 -20 3 -25 -2 -14 -15 9 -11 9 -17 -2 -27 -16 -17 -17 -25 -23
-164 -6 -129 2 -238 18 -229 6 4 8 2 4 -4 -3 -6 0 -30 9 -54 8 -25 16 -55 19
-69 2 -13 9 -23 15 -22 6 2 10 0 9 -5 -4 -16 14 -72 22 -67 5 3 11 -5 15 -17
11 -39 28 -68 36 -62 5 3 6 -2 3 -10 -3 -8 3 -19 15 -26 12 -6 21 -18 21 -27
0 -9 3 -13 7 -10 3 4 17 -8 30 -26 13 -17 28 -32 33 -32 13 0 24 -13 26 -33 2
-9 8 -18 14 -20 25 -9 50 -45 39 -58 -8 -9 -4 -12 16 -10 24 3 56 -6 115 -32
21 -9 22 -11 6 -11 -20 -1 -20 -1 0 -16 10 -8 28 -14 39 -14 16 1 15 2 -5 9
-23 7 -23 8 -3 9 12 1 25 -4 28 -9 4 -6 11 -7 17 -4 8 5 9 1 5 -10 -4 -11 -2
-16 6 -14 22 4 111 -14 129 -26 10 -7 39 -11 68 -9 35 2 49 -1 44 -8 -6 -11
72 -6 119 7 9 3 17 1 17 -4 0 -5 17 -4 38 4 20 7 56 13 79 14 23 0 45 5 48 10
4 6 12 10 18 9 34 -4 58 2 51 13 -5 7 -2 9 9 5 9 -3 18 0 21 9 3 8 11 14 18
14 9 0 8 -3 -2 -10 -8 -5 -10 -10 -4 -10 6 0 14 3 18 8 4 4 18 7 29 7 16 0 21
5 19 20 -2 11 -1 17 3 13 4 -4 12 -2 19 3 53 45 72 59 78 59 4 0 19 11 34 25
15 14 33 24 40 21 8 -3 11 1 7 10 -4 10 0 12 13 7 17 -6 17 -5 5 10 -15 19 -2
24 16 6 7 -7 9 -2 6 18 -3 20 -2 24 5 14 8 -11 11 -9 17 10 4 13 25 41 48 63
23 21 36 36 30 32 -23 -13 -14 12 14 41 16 15 26 35 25 45 -2 14 1 16 15 11
16 -6 16 -5 4 10 -9 11 -10 17 -2 17 6 0 11 9 11 20 0 12 7 35 16 52 23 44 46
128 40 144 -3 7 0 16 5 20 7 4 8 21 4 41 -5 26 -3 33 6 28 9 -6 10 1 6 26 -3
19 -9 66 -13 104 -4 39 -8 75 -9 80 -4 39 -30 135 -37 135 -4 0 -5 7 -2 15 4
8 2 15 -4 15 -6 0 -8 10 -4 22 3 13 1 19 -5 15 -6 -4 -24 19 -42 54 -17 33
-25 57 -18 54 6 -3 2 2 -10 11 -18 13 -20 20 -13 34 11 20 -2 36 -20 25 -11
-7 -59 43 -60 63 0 6 -3 11 -7 10 -7 -2 -35 21 -100 80 -13 12 -28 20 -33 17
-5 -3 -12 0 -16 6 -5 8 -3 9 6 4 9 -5 11 -4 6 3 -4 7 -15 12 -24 12 -15 1 -14
3 3 17 18 14 19 15 1 9 -10 -3 -28 -1 -40 7 -12 7 -28 13 -36 12 -8 0 -21 6
-29 13 -7 7 -20 11 -27 8 -9 -3 -11 1 -7 12 5 14 3 15 -7 5 -11 -10 -18 -7
-38 15 -13 15 -21 21 -18 15 9 -16 -14 -17 -51 -2 -15 7 -40 12 -55 12 -16 0
-28 3 -28 7 0 4 -63 8 -140 9 -103 0 -139 -3 -134 -11z m315 -34 c156 -35 295
-112 409 -224 357 -352 327 -943 -63 -1256 -79 -62 -218 -133 -312 -159 -87
-23 -258 -30 -352 -15 -338 54 -619 322 -688 656 -21 105 -19 270 5 371 72
303 300 535 605 619 101 28 291 32 396 8z m539 -298 c0 -2 -7 -9 -15 -16 -13
-11 -14 -10 -9 4 5 14 24 23 24 12z m-1216 -1248 c-3 -4 -10 -8 -16 -8 -6 0
-8 3 -5 7 4 3 1 13 -6 21 -11 13 -9 14 10 2 12 -8 19 -18 17 -22z"/>
<path d="M1164 2376 c-303 -69 -552 -330 -605 -632 -18 -105 -6 -293 24 -379
51 -147 139 -281 238 -365 73 -61 190 -126 284 -156 106 -35 276 -44 385 -21
321 66 561 307 626 627 22 110 15 274 -16 375 -78 252 -265 444 -515 530 -69
24 -99 28 -220 31 -96 2 -159 -1 -201 -10z m286 -23 c30 -2 60 -5 67 -5 7 -1
9 -6 6 -11 -4 -6 0 -8 10 -4 18 7 147 -40 147 -54 0 -5 12 -9 26 -9 17 0 23
-4 18 -12 -5 -7 -2 -9 8 -6 8 4 20 -2 27 -13 6 -11 15 -18 20 -15 4 3 18 -6
30 -20 12 -14 27 -22 33 -18 6 4 8 3 5 -4 -10 -15 2 -42 16 -36 11 4 82 -62
82 -76 0 -4 8 -14 18 -24 9 -10 17 -24 17 -32 0 -8 5 -14 10 -14 6 0 10 -5 10
-11 0 -6 7 -17 15 -25 8 -8 22 -40 32 -72 10 -31 20 -59 23 -62 3 -3 6 -14 8
-25 1 -11 9 -59 17 -107 8 -47 12 -106 9 -130 -3 -23 -7 -62 -7 -85 -1 -24 -5
-43 -9 -43 -4 0 -7 -3 -6 -7 3 -14 -14 -68 -29 -91 -8 -13 -12 -30 -9 -38 3
-9 1 -12 -4 -9 -6 3 -10 0 -10 -8 0 -9 -12 -38 -27 -66 -20 -40 -30 -50 -45
-46 -13 5 -18 1 -18 -12 0 -15 2 -16 10 -3 5 8 10 10 10 4 0 -6 -7 -17 -15
-24 -8 -7 -15 -16 -15 -21 0 -5 -9 -18 -20 -29 -18 -18 -24 -18 -21 2 0 4 -6
5 -15 1 -13 -5 -13 -8 2 -24 18 -20 6 -27 -13 -8 -7 7 -10 3 -8 -15 2 -14 0
-25 -3 -25 -19 3 -45 -3 -34 -8 17 -7 5 -23 -19 -23 -11 0 -17 -4 -14 -10 3
-5 1 -10 -5 -10 -6 0 -8 -5 -4 -12 5 -9 2 -9 -9 1 -11 9 -17 10 -17 2 0 -6 -9
-11 -19 -11 -11 0 -32 -11 -47 -25 -15 -14 -33 -25 -40 -25 -8 0 -14 -5 -14
-11 0 -5 -4 -8 -9 -5 -5 4 -31 -3 -58 -15 -26 -11 -74 -22 -105 -24 -31 -2
-67 -6 -79 -10 -16 -5 -19 -4 -14 5 6 9 4 11 -5 5 -18 -11 -110 -14 -110 -3 0
5 -18 6 -42 3 -28 -4 -38 -2 -29 3 10 7 2 11 -25 15 -53 7 -72 12 -80 20 -4 4
-16 7 -26 7 -11 0 -16 5 -13 10 3 6 -3 10 -15 10 -12 0 -19 4 -16 9 3 4 -6 6
-19 3 -21 -4 -24 -1 -19 14 6 15 4 17 -6 7 -8 -7 -16 -8 -24 -2 -6 5 -20 17
-31 25 -19 15 -19 15 4 8 16 -4 21 -3 17 5 -4 6 -15 11 -25 11 -9 0 -23 6 -30
12 -11 11 -12 10 -6 -2 5 -8 -7 0 -25 18 -19 17 -37 32 -42 32 -4 0 -8 7 -8
15 0 7 -6 18 -14 22 -24 13 -78 94 -73 108 3 7 -1 12 -11 11 -11 -1 -18 8 -20
22 -2 12 -8 20 -13 17 -5 -4 -9 2 -9 12 0 11 -6 25 -12 32 -11 11 -10 12 1 6
11 -6 11 -3 -2 14 -8 13 -13 30 -10 39 4 9 2 13 -4 9 -5 -3 -15 9 -21 28 -7
26 -7 33 1 28 7 -4 6 1 -2 11 -16 19 -18 42 -20 191 -2 112 -1 115 22 169 19
43 22 59 7 36 -5 -8 -10 -10 -10 -5 0 6 7 21 16 33 9 13 13 29 10 37 -3 8 -1
15 4 15 5 0 12 11 16 24 3 14 14 32 25 42 10 9 19 23 19 31 0 7 5 13 11 13 6
0 8 9 4 23 -5 16 -4 18 4 8 8 -12 11 -10 16 12 4 16 12 24 18 20 18 -11 47
-11 54 0 4 6 1 7 -7 2 -10 -6 -12 -4 -7 8 8 21 3 21 -17 1 -9 -8 -16 -11 -16
-5 0 6 11 21 25 33 14 12 25 28 25 35 0 7 5 12 12 11 7 -2 12 3 13 11 0 8 7
16 15 18 13 4 13 3 0 -6 -8 -6 -10 -11 -5 -11 6 0 25 16 44 35 18 19 37 35 42
35 6 0 7 5 3 12 -4 6 -3 8 4 4 6 -3 13 -2 16 3 3 5 21 12 40 15 19 4 36 13 39
20 6 14 53 27 102 27 24 1 26 2 11 8 -17 6 -17 8 -4 14 9 3 27 3 40 0 16 -3
19 -2 9 5 -9 6 3 9 38 7 28 -2 54 1 57 7 4 7 27 8 63 3 31 -4 81 -9 111 -12z"/>
<path d="M1290 2240 c-26 -14 -30 -19 -15 -19 11 0 28 6 38 13 16 12 66 10 77
-3 14 -17 72 -39 87 -34 10 4 14 2 10 -4 -4 -6 13 -16 41 -23 26 -8 56 -19 67
-27 22 -15 35 -17 35 -5 0 5 -26 17 -57 28 -32 10 -64 25 -72 32 -7 7 -20 11
-27 8 -8 -3 -14 -1 -14 4 0 6 -3 9 -7 8 -5 -1 -29 8 -55 20 -56 26 -63 27
-108 2z"/>
<path d="M1188 2203 c-21 -9 -38 -19 -38 -24 0 -9 46 3 77 20 11 5 24 7 28 3
5 -4 5 -1 1 6 -9 15 -21 14 -68 -5z"/>
<path d="M1310 2210 c-8 -5 -18 -6 -22 -4 -4 3 -8 0 -8 -5 0 -6 -12 -11 -26
-11 -16 0 -23 -4 -18 -12 4 -7 3 -8 -5 -4 -6 4 -17 3 -24 -2 -7 -5 -77 -35
-157 -67 -80 -32 -149 -62 -154 -66 -6 -5 -18 -9 -28 -9 -10 0 -18 -4 -18 -10
0 -5 -8 -10 -18 -10 -27 0 -44 -20 -30 -37 8 -10 8 -12 -3 -8 -40 14 -42 0
-43 -341 -1 -281 0 -330 14 -345 8 -9 57 -34 109 -54 52 -20 116 -47 142 -60
25 -13 49 -22 52 -18 3 3 13 -2 22 -11 9 -9 23 -16 31 -16 8 0 22 -4 32 -9 26
-15 149 -61 161 -61 6 0 11 5 11 10 0 6 4 10 10 10 5 0 7 -6 4 -13 -9 -24 30
-14 120 29 27 13 53 21 59 17 6 -4 7 -1 2 7 -6 10 -4 12 8 7 10 -3 17 -3 17 2
0 4 18 13 40 20 22 6 69 25 106 41 36 17 75 30 87 30 11 0 17 3 14 7 -4 3 16
14 44 24 95 34 89 7 89 381 0 285 -2 329 -15 334 -13 5 -13 9 -3 22 11 13 10
14 -9 3 -18 -9 -22 -9 -17 2 4 12 -35 39 -61 41 -5 1 -19 6 -30 13 -11 6 -58
26 -105 43 -47 18 -88 37 -91 43 -4 5 -12 6 -18 3 -6 -4 -11 -2 -11 3 0 6 -7
11 -16 11 -9 0 -33 10 -52 22 -20 12 -32 17 -29 11 4 -6 -11 -3 -32 8 -22 10
-45 19 -51 19 -5 0 -10 3 -10 8 0 10 -53 12 -70 2z m147 -55 c59 -25 128 -55
153 -65 25 -11 94 -39 154 -64 59 -24 104 -46 99 -49 -5 -3 -125 -53 -266
-111 l-257 -105 -243 101 c-133 55 -253 105 -267 110 -22 8 -5 18 155 83 99
40 216 89 260 108 44 19 85 35 92 36 6 1 60 -19 120 -44z m-406 -317 l269
-111 0 -329 c0 -180 -1 -328 -3 -328 -4 0 -188 74 -287 115 -158 65 -254 105
-255 105 0 0 0 149 0 330 0 182 2 330 4 330 2 0 125 -50 272 -112z m859 -216
l0 -329 -27 -12 c-16 -7 -113 -48 -218 -91 -104 -43 -216 -89 -247 -103 l-58
-26 0 332 0 333 143 58 c78 32 198 83 267 112 69 29 128 53 133 53 4 1 7 -147
7 -327z"/>
<path d="M1350 2166 c0 -2 8 -10 18 -17 15 -13 16 -12 3 4 -13 16 -21 21 -21
13z"/>
<path d="M1510 2106 c0 -2 8 -10 18 -17 15 -13 16 -12 3 4 -13 16 -21 21 -21
13z"/>
<path d="M1550 2076 c0 -2 7 -7 16 -10 8 -3 12 -2 9 4 -6 10 -25 14 -25 6z"/>
<path d="M1687 2019 c7 -7 15 -10 18 -7 3 3 -2 9 -12 12 -14 6 -15 5 -6 -5z"/>
<path d="M953 2005 c0 -8 4 -15 9 -15 4 0 8 4 8 9 0 6 -4 12 -8 15 -5 3 -9 -1
-9 -9z"/>
<path d="M960 1970 c-8 -5 -10 -10 -5 -10 6 0 17 5 25 10 8 5 11 10 5 10 -5 0
-17 -5 -25 -10z"/>
<path d="M1759 1963 c-13 -16 -12 -17 4 -4 9 7 17 15 17 17 0 8 -8 3 -21 -13z"/>
<path d="M1683 1955 c0 -8 4 -12 9 -9 4 3 8 9 8 15 0 5 -4 9 -8 9 -5 0 -9 -7
-9 -15z"/>
<path d="M990 1956 c0 -2 7 -7 16 -10 8 -3 12 -2 9 4 -6 10 -25 14 -25 6z"/>
<path d="M1512 1881 c-11 -7 -11 -9 0 -14 9 -3 15 1 15 9 0 8 -1 14 -1 14 -1
0 -7 -4 -14 -9z"/>
<path d="M1304 1808 c10 -6 22 -6 26 -2 5 5 -3 10 -18 11 -22 1 -24 0 -8 -9z"/>
<path d="M890 1840 c8 -5 22 -9 30 -9 10 0 8 3 -5 9 -27 12 -43 12 -25 0z"/>
<path d="M965 1840 c-7 -11 22 -26 32 -16 4 3 -2 6 -13 6 -16 0 -17 2 -4 10 9
6 10 10 3 10 -6 0 -15 -5 -18 -10z"/>
<path d="M1010 1240 c-8 -5 -10 -10 -5 -10 6 0 17 5 25 10 8 5 11 10 5 10 -5
0 -17 -5 -25 -10z"/>
<path d="M1818 1863 c7 -3 16 -2 19 1 4 3 -2 6 -13 5 -11 0 -14 -3 -6 -6z"/>
<path d="M1740 1850 c12 -9 9 -11 -15 -6 -16 3 -24 3 -17 0 6 -3 10 -10 7 -15
-4 -5 3 -6 14 -1 23 8 28 25 9 30 -9 2 -8 0 2 -8z"/>
<path d="M1815 1830 c-3 -6 1 -7 9 -4 18 7 21 14 7 14 -6 0 -13 -4 -16 -10z"/>
<path d="M1576 1781 c-3 -5 1 -11 9 -14 9 -4 12 -1 8 9 -6 16 -10 17 -17 5z"/>
<path d="M1764 1580 c0 -91 2 -128 3 -82 2 45 2 119 0 165 -1 45 -3 8 -3 -83z"/>
<path d="M1845 1330 c-3 -5 -1 -10 4 -10 6 0 11 5 11 10 0 6 -2 10 -4 10 -3 0
-8 -4 -11 -10z"/>
<path d="M1680 1250 c-8 -5 -10 -10 -5 -10 6 0 17 5 25 10 8 5 11 10 5 10 -5
0 -17 -5 -25 -10z"/>
<path d="M1607 1229 c7 -7 15 -10 18 -7 3 3 -2 9 -12 12 -14 6 -15 5 -6 -5z"/>
<path d="M1650 1220 c-9 -6 -10 -10 -3 -10 6 0 15 5 18 10 8 12 4 12 -15 0z"/>
<path d="M1491 1161 c-10 -7 -7 -9 12 -8 14 1 23 5 20 10 -6 9 -15 9 -32 -2z"/>
<path d="M1110 2169 c-13 -6 -32 -17 -41 -25 -9 -8 -20 -14 -25 -13 -5 1 -18
1 -28 0 -17 -1 -18 -3 -7 -13 11 -11 14 -10 18 0 3 6 8 10 13 7 11 -7 60 15
60 27 0 4 9 8 20 8 11 0 20 5 20 10 0 6 -1 10 -2 9 -2 0 -14 -5 -28 -10z"/>
<path d="M1640 2133 c0 -13 107 -56 124 -49 6 2 -4 7 -21 11 -18 4 -33 11 -33
16 0 5 -10 9 -23 9 -13 0 -28 5 -35 12 -8 8 -12 9 -12 1z"/>
<path d="M930 2095 c-25 -13 -51 -24 -57 -24 -7 -1 -13 -5 -13 -10 0 -5 -17
-12 -37 -16 -31 -5 -91 -35 -72 -35 13 0 117 39 171 64 31 14 62 26 68 26 6 0
8 5 5 10 -8 13 -12 12 -65 -15z"/>
<path d="M1780 2071 c0 -5 8 -11 18 -15 9 -3 24 -9 32 -12 8 -3 4 4 -10 15
-27 22 -40 26 -40 12z"/>
<path d="M1850 2040 c0 -5 12 -12 28 -16 52 -12 72 -32 73 -72 1 -37 1 -37 8
-7 4 17 4 38 -1 47 -10 21 -58 47 -75 41 -7 -3 -13 0 -13 6 0 6 -4 11 -10 11
-5 0 -10 -4 -10 -10z"/>
<path d="M718 1995 c-8 -8 2 -45 13 -45 10 0 10 8 0 33 -3 10 -9 15 -13 12z"/>
<path d="M720 1930 c0 -5 5 -10 10 -10 6 0 10 5 10 10 0 6 -4 10 -10 10 -5 0
-10 -4 -10 -10z"/>
<path d="M720 1643 c-3 -377 -4 -343 8 -343 10 0 13 483 3 555 -6 44 -9 -14
-11 -212z"/>
<path d="M1950 1583 l0 -318 -50 -23 c-27 -12 -54 -22 -60 -22 -5 0 -10 -4
-10 -9 0 -6 20 -3 45 6 25 8 45 18 45 23 0 4 8 10 19 13 24 6 28 52 30 390 1
175 -1 257 -8 257 -8 0 -11 -102 -11 -317z"/>
<path d="M725 1280 c3 -5 8 -10 11 -10 2 0 4 5 4 10 0 6 -5 10 -11 10 -5 0 -7
-4 -4 -10z"/>
<path d="M758 1229 c13 -5 28 -7 32 -4 5 3 11 1 14 -4 3 -4 20 -11 38 -15 18
-4 49 -17 68 -30 20 -13 50 -27 68 -31 18 -3 32 -10 32 -15 0 -4 18 -10 40
-14 22 -3 40 -11 40 -16 0 -6 9 -10 20 -10 11 0 20 -5 20 -12 0 -6 3 -8 7 -5
3 4 11 3 17 -2 17 -13 74 -30 80 -24 6 6 -42 28 -169 77 -62 25 -83 32 -100
35 -5 2 -17 8 -25 15 -24 21 -148 66 -178 65 -27 0 -27 0 -4 -10z"/>
<path d="M1747 1180 c-21 -10 -58 -26 -82 -36 -25 -9 -45 -21 -45 -26 0 -5 -4
-6 -10 -3 -13 8 -32 -4 -25 -15 6 -10 52 7 73 27 7 7 19 13 27 13 7 0 42 13
77 30 34 16 54 30 43 30 -11 -1 -37 -9 -58 -20z"/>
<path d="M1495 1077 c-27 -12 -52 -25 -53 -30 -2 -4 -8 -5 -13 -2 -4 3 -23 -2
-40 -11 -19 -9 -43 -14 -60 -10 -16 3 -31 1 -34 -4 -4 -6 12 -10 39 -10 25 0
48 5 51 11 4 6 13 8 20 5 7 -2 39 8 72 24 32 16 63 30 70 30 6 0 15 5 18 10 9
15 -14 10 -70 -13z"/>
<path d="M1247 1037 c-4 -12 10 -14 43 -8 6 2 -23 21 -31 21 -4 0 -9 -6 -12
-13z"/>
<path d="M2029 1173 c-13 -16 -12 -17 4 -4 16 13 21 21 13 21 -2 0 -10 -8 -17
-17z"/>
<path d="M730 959 c0 -5 5 -7 10 -4 6 3 10 8 10 11 0 2 -4 4 -10 4 -5 0 -10
-5 -10 -11z"/>
<path d="M888 773 c6 -2 18 -2 25 0 6 3 1 5 -13 5 -14 0 -19 -2 -12 -5z"/>
<path d="M1488 733 c7 -3 16 -2 19 1 4 3 -2 6 -13 5 -11 0 -14 -3 -6 -6z"/>
<path d="M826 699 c2 -4 -1 -9 -8 -11 -6 -2 -12 -18 -13 -36 -1 -17 -4 -35 -8
-38 -4 -4 -7 -22 -7 -39 0 -17 -7 -56 -16 -86 -19 -61 -24 -119 -11 -119 5 0
6 -7 3 -16 -3 -8 -2 -12 4 -9 6 3 10 1 10 -4 0 -16 16 -14 60 8 23 11 42 15
48 9 5 -5 31 -10 59 -11 28 -1 46 -5 41 -8 -6 -4 -7 -12 -4 -18 9 -13 16 -14
36 -1 13 9 13 11 0 20 -13 8 -12 10 3 10 9 0 17 -6 17 -12 0 -8 3 -9 8 -3 10
14 32 17 32 5 0 -5 5 -10 11 -10 5 0 8 4 5 8 -3 4 9 13 25 19 28 11 30 10 44
-20 10 -21 14 -24 11 -10 -4 21 -1 22 32 18 26 -3 33 -2 22 5 -13 8 -12 10 3
10 9 0 17 -5 17 -11 0 -5 5 -7 12 -3 8 5 9 1 5 -12 -7 -18 -6 -18 7 -2 7 10
19 18 27 18 10 0 11 -3 3 -8 -7 -4 16 -8 50 -8 42 -1 53 1 36 6 l-25 8 28 1
c16 1 38 6 49 12 15 8 19 8 14 0 -4 -6 0 -11 8 -11 10 0 13 -6 10 -15 -5 -11
-2 -14 12 -9 11 4 25 12 33 18 12 9 13 7 8 -8 -6 -15 -5 -17 7 -7 10 8 22 9
42 1 28 -10 28 -9 9 6 -20 16 -20 16 3 11 12 -3 22 -1 22 5 0 14 43 5 48 -9 2
-7 -4 -13 -14 -13 -9 0 -15 -3 -11 -6 8 -9 48 6 42 16 -3 4 4 10 15 13 11 3
20 1 20 -4 0 -5 -5 -9 -11 -9 -5 0 -7 -5 -3 -11 4 -8 9 -7 15 2 6 10 9 11 9 2
0 -7 5 -13 12 -13 9 0 9 3 0 12 -20 20 -13 30 9 14 14 -10 29 -12 43 -6 11 4
24 8 29 9 30 5 87 28 87 36 0 4 -6 3 -12 0 -7 -4 -5 0 5 8 9 8 17 20 17 26 0
7 4 10 9 7 5 -3 16 12 25 34 16 41 30 50 40 28 3 -7 3 -2 -1 12 -3 14 -5 45
-4 68 1 24 -2 49 -8 56 -6 7 -6 17 -1 26 9 13 10 13 11 0 1 -8 1 -18 0 -22 0
-5 3 -8 8 -8 5 0 8 11 7 24 -1 19 -6 23 -23 20 -12 -2 -25 1 -29 7 -5 8 -3 9
6 4 8 -5 11 -4 7 3 -4 5 -17 8 -30 5 -18 -4 -19 -3 -7 7 12 9 10 10 -13 5 -19
-4 -26 -2 -22 5 9 14 -48 13 -63 -2 -9 -9 -15 -9 -24 0 -15 15 -68 16 -68 1 0
-5 -5 -7 -12 -3 -6 4 -9 3 -6 -2 3 -5 -1 -15 -9 -23 -12 -11 -14 -10 -11 5 2
11 -2 18 -9 17 -7 -2 -13 2 -13 7 0 16 -42 11 -63 -7 -17 -16 -19 -16 -28 -2
-9 17 -64 18 -110 4 -14 -5 -19 -4 -15 4 9 15 -25 2 -43 -17 -13 -12 -16 -12
-27 3 -8 10 -23 16 -41 14 -15 -2 -34 0 -41 5 -19 12 -79 -2 -86 -20 -3 -8
-10 -12 -16 -9 -6 4 -7 11 -4 17 4 7 2 8 -4 4 -7 -4 -12 -2 -12 4 0 7 -12 9
-32 5 -18 -3 -47 -7 -65 -8 -17 -1 -29 -6 -25 -12 3 -5 -4 -2 -15 8 -20 18
-72 22 -98 8 -15 -8 -94 -7 -89 1 3 4 -4 6 -15 5 -11 0 -18 -4 -15 -8z m188
-41 c-11 -13 -34 -44 -51 -69 l-32 -46 21 -74 c11 -41 21 -75 23 -77 1 -1 12
51 24 115 12 65 24 125 27 135 5 15 51 34 61 24 4 -4 -46 -285 -53 -294 -1 -2
-34 0 -72 4 l-71 6 -7 54 c-6 55 -24 65 -24 14 0 -54 -16 -80 -50 -80 -26 0
-30 3 -25 23 15 65 34 169 40 220 7 57 7 57 41 57 37 0 40 -6 24 -59 -13 -46
-6 -51 14 -9 31 63 41 70 105 76 l25 2 -20 -22z m175 -44 c6 -33 11 -69 12
-80 1 -10 9 17 18 61 15 73 19 80 42 83 l25 3 -29 -148 c-17 -81 -30 -149 -31
-149 0 -1 -15 -5 -32 -8 l-32 -7 -8 83 -8 83 -14 -75 c-14 -78 -22 -90 -59
-90 -20 0 -21 3 -13 28 8 23 50 250 50 270 0 4 15 7 34 7 35 0 35 0 45 -61z
m157 -63 c-14 -67 -26 -123 -26 -125 0 -2 9 -2 20 1 14 4 20 0 20 -11 0 -9 5
-16 10 -16 6 0 10 8 10 18 0 9 14 68 32 130 35 121 30 115 111 126 l38 5 -7
-147 c-4 -81 -8 -148 -9 -149 -1 -2 -16 -6 -34 -9 l-34 -7 5 37 c4 33 2 37
-16 34 -12 -2 -22 -12 -24 -23 -7 -34 -20 -39 -107 -40 -62 -1 -85 2 -85 12 0
6 12 73 26 147 l26 135 32 3 c17 2 33 2 34 1 2 -1 -8 -56 -22 -122z m340 51
c12 -77 24 -105 24 -54 0 17 5 54 11 82 9 43 14 50 35 50 13 0 24 -3 23 -7 0
-5 -13 -71 -28 -147 -26 -137 -27 -140 -56 -148 -16 -4 -31 -6 -33 -4 -2 2 -6
39 -9 81 -7 86 -17 81 -28 -12 -7 -60 -9 -63 -38 -71 -18 -5 -33 -9 -33 -8 -1
1 9 55 22 121 12 66 23 134 24 151 0 38 1 39 42 38 l33 -1 11 -71z m-266 59
c0 -6 -4 -13 -10 -16 -5 -3 -10 1 -10 9 0 9 5 16 10 16 6 0 10 -4 10 -9z m509
-17 c47 -59 4 -197 -78 -251 -30 -19 -85 -33 -99 -24 -12 7 37 283 53 293 5 4
31 8 57 8 38 0 50 -5 67 -26z m-527 -21 c-6 -2 -9 -10 -6 -15 4 -7 2 -8 -5 -4
-13 9 -5 26 12 25 9 0 8 -2 -1 -6z m-12 -43 c0 -5 -5 -10 -11 -10 -5 0 -7 5
-4 10 3 6 8 10 11 10 2 0 4 -4 4 -10z m-13 -52 c-3 -7 -5 -2 -5 12 0 14 2 19
5 13 2 -7 2 -19 0 -25z"/>
<path d="M1485 594 c-4 -16 -11 -45 -16 -64 -12 -46 -11 -50 5 -50 9 0 15 20
20 66 7 70 2 97 -9 48z"/>
<path d="M1416 473 c-6 -14 -5 -15 5 -6 7 7 10 15 7 18 -3 3 -9 -2 -12 -12z"/>
<path d="M1835 528 c-10 -46 -20 -89 -22 -95 -3 -7 0 -13 5 -13 6 0 23 25 38
55 31 65 38 128 13 133 -13 2 -20 -15 -34 -80z"/>
<path d="M731 360 c0 -8 4 -22 9 -30 12 -18 12 -2 0 25 -6 13 -9 15 -9 5z"/>
<path d="M1135 350 c-3 -5 -1 -10 4 -10 6 0 11 5 11 10 0 6 -2 10 -4 10 -3 0
-8 -4 -11 -10z"/>
<path d="M1107 299 c7 -7 15 -10 18 -7 3 3 -2 9 -12 12 -14 6 -15 5 -6 -5z"/>
</g>
</svg>
