<svg width="100" height="100" viewBox="0 0 100 100" fill="none" xmlns="http://www.w3.org/2000/svg">
<path d="M41.5694 49.3995L40.8919 48.7193C40.3805 48.2079 39.4986 48.566 39.4986 49.2947V59.0092C39.4986 59.455 39.8664 59.8229 40.3178 59.8229H50.0341C50.7579 59.8229 51.1239 58.9454 50.6081 58.4337C50.2913 58.1168 50.2913 57.6024 50.6081 57.284L60.9436 46.9207C61.2607 46.6037 61.2607 46.0892 60.9436 45.7702L60.0021 44.8323C59.4904 44.3214 59.855 43.4437 60.5775 43.4437H70.2884C70.7374 43.4437 71.1047 43.8083 71.1047 44.2574V53.9724C71.1047 54.6961 70.2229 55.0596 69.7114 54.548L69.0556 53.8936C68.7342 53.567 68.2226 53.567 67.9071 53.8936L50.4838 71.3097C50.1671 71.6254 49.6526 71.6254 49.3316 71.3097L28.0182 49.9916C27.9421 49.9161 27.8816 49.8262 27.8404 49.7272C27.7991 49.6282 27.7779 49.522 27.7779 49.4147C27.7779 49.3074 27.7991 49.2012 27.8404 49.1022C27.8816 49.0031 27.9421 48.9133 28.0182 48.8377L57.5287 19.328C57.8446 19.0104 57.8446 18.4921 57.5287 18.1757L50.5896 11.2372C50.4363 11.0853 50.2293 11 50.0135 11C49.7977 11 49.5906 11.0853 49.4373 11.2372L11.2374 49.4413C10.9209 49.759 10.9209 50.2773 11.2374 50.5935L49.4373 88.7935C49.754 89.1093 50.274 89.1093 50.5896 88.7935L88.7881 50.5935C89.1038 50.276 89.1038 49.7605 88.7881 49.4438L66.3146 26.97C66.0002 26.6537 65.4832 26.6537 65.1648 26.97L42.7251 49.3998C42.6496 49.4759 42.5598 49.5364 42.4608 49.5776C42.3618 49.6188 42.2556 49.6401 42.1484 49.6401C42.0412 49.6401 41.935 49.6188 41.836 49.5776C41.737 49.5364 41.6472 49.4759 41.5716 49.3998L41.5714 49.3995H41.5694Z" fill="#004450"/>
</svg>
