<svg width="100" height="100" viewBox="0 0 100 100" fill="none" xmlns="http://www.w3.org/2000/svg">
    <path d="M78.281 49.9957L63.8333 41.6608V58.3305L78.281 66.6607V49.9957Z" fill="#F2F2F2"/>
    <path d="M49.3901 49.9957L34.947 41.6608V58.3305L49.3901 66.6607V49.9957Z" fill="#F2F2F2"/>
    <path d="M34.9474 75L20.4996 66.6651V50V33.3349L6.11279 25V41.6651V58.3349V75L20.4996 83.3348L34.9474 91.665L49.3904 99.9999V83.3348L34.9474 75Z" fill="#F2F2F2"/>
    <path d="M78.2809 16.6606L63.8332 24.9955L49.3901 33.3304L34.947 41.6606L49.3901 49.9955L63.8332 41.6606L78.2809 33.3304L92.724 24.9955L78.2809 16.6606Z" fill="#FF9100"/>
    <path d="M63.8332 58.3336L49.3901 66.6638L34.947 58.3336L20.4993 66.6638L34.947 74.9986L49.3901 83.3335L63.8332 74.9986L78.281 66.6638L63.8332 58.3336Z" fill="#FF9100"/>
    <path d="M63.8335 8.33489L49.3905 0L34.9474 8.33489L20.4996 16.6651L6.11279 25L20.4996 33.3349L34.9474 25L49.3905 16.6651L63.8335 8.33489Z" fill="#FF9100"/>
    <path d="M49.3901 16.6697L34.947 25.0046L20.4993 33.3395V50.0046V66.6697L34.947 58.3395V41.6697L49.3901 33.3395L63.8332 25.0046V8.33954L49.3901 16.6697Z" fill="#9D4EDD"/>
    <path d="M78.2813 33.3349L63.8336 41.6651L49.3904 50V66.6651L63.8336 58.3349L78.2813 50V66.6651L63.8336 75L49.3904 83.3348V99.9999L63.8336 91.665L78.2813 83.3348L92.6682 75V58.3349V41.6651V25L78.2813 33.3349Z" fill="#9D4EDD"/>
</svg>