<?xml version="1.0" encoding="utf-8"?>
<!-- Generator: Adobe Illustrator 24.1.1, SVG Export Plug-In . SVG Version: 6.00 Build 0)  -->
<svg version="1.1" id="Layer_1" xmlns="http://www.w3.org/2000/svg" xmlns:xlink="http://www.w3.org/1999/xlink" x="0px" y="0px"
	 viewBox="0 0 498.12 100" style="enable-background:new 0 0 498.12 100;" xml:space="preserve">
<style type="text/css">
	.st0{fill:#FFFFFF;}
	.st1{fill:#ED2181;}
	.st2{fill:#5AC8E0;}
	.st3{fill:#FAE100;}
	.st4{fill:#8AC640;}
</style>
<g>
	<g>
		<path class="st0" d="M166.5,97.48c1.12,0,2.2-0.19,3.25-0.58c1.05-0.38,2-0.91,2.85-1.57c0.85-0.66,1.56-1.44,2.13-2.33
			c0.57-0.89,0.94-1.85,1.1-2.89h-6.89c-0.21,0-0.4-0.08-0.56-0.24c-0.16-0.16-0.24-0.34-0.24-0.56c0-0.21,0.08-0.4,0.24-0.56
			c0.16-0.16,0.34-0.24,0.56-0.24h7.77h0.08c0.21,0.03,0.38,0.11,0.52,0.26c0.13,0.15,0.2,0.33,0.2,0.54v8.96
			c0,0.21-0.08,0.4-0.24,0.56c-0.16,0.16-0.34,0.24-0.56,0.24s-0.4-0.08-0.56-0.24c-0.16-0.16-0.24-0.34-0.24-0.56V93.7
			c-0.24,0.69-0.66,1.36-1.28,2.01c-0.61,0.65-1.34,1.23-2.19,1.73c-0.85,0.5-1.79,0.9-2.81,1.19c-1.02,0.29-2.07,0.44-3.13,0.44
			c-1.73,0-3.34-0.33-4.84-0.98c-1.5-0.65-2.8-1.55-3.88-2.69c-1.09-1.14-1.95-2.48-2.57-4c-0.62-1.53-0.94-3.15-0.94-4.88
			s0.33-3.35,0.98-4.88c0.65-1.53,1.55-2.85,2.69-3.98c1.14-1.13,2.48-2.02,4-2.69c1.53-0.66,3.15-1,4.88-1
			c1.06,0,2.02,0.09,2.89,0.28c0.86,0.19,1.67,0.47,2.41,0.84s1.45,0.83,2.13,1.37c0.68,0.54,1.37,1.19,2.09,1.93
			c0.16,0.16,0.24,0.35,0.24,0.56c0,0.21-0.08,0.4-0.24,0.56c-0.16,0.16-0.35,0.24-0.56,0.24c-0.24,0-0.47-0.12-0.68-0.36
			c-1.19-1.3-2.46-2.26-3.78-2.89c-1.33-0.62-2.83-0.94-4.5-0.94c-1.51,0-2.94,0.29-4.26,0.86c-1.33,0.57-2.49,1.35-3.49,2.35
			c-1,1-1.78,2.16-2.35,3.49c-0.57,1.33-0.86,2.75-0.86,4.26s0.27,2.94,0.82,4.26c0.54,1.33,1.29,2.49,2.23,3.49
			c0.94,1,2.06,1.78,3.37,2.35C163.57,97.2,164.98,97.48,166.5,97.48z"/>
		<path class="st0" d="M179.76,74.77c0-0.11-0.01-0.2-0.04-0.3c-0.03-0.09-0.03-0.18,0-0.26c0.03-0.08,0.09-0.14,0.2-0.18
			c0.11-0.04,0.29-0.06,0.56-0.06c0.29,0,0.51,0.08,0.66,0.24c0.15,0.16,0.22,0.35,0.22,0.56v14.58v0.08c0,1.12,0.21,2.16,0.64,3.15
			c0.42,0.98,1,1.84,1.73,2.57c0.73,0.73,1.59,1.3,2.57,1.71c0.98,0.41,2.03,0.62,3.15,0.62s2.16-0.21,3.15-0.62
			c0.98-0.41,1.84-0.98,2.57-1.71c0.73-0.73,1.31-1.59,1.75-2.57c0.44-0.98,0.66-2.03,0.66-3.15v-0.08V74.77
			c0-0.11-0.01-0.2-0.04-0.3c-0.03-0.09-0.03-0.18,0-0.26c0.03-0.08,0.09-0.14,0.2-0.18c0.11-0.04,0.29-0.06,0.56-0.06
			c0.29,0,0.51,0.08,0.66,0.24c0.15,0.16,0.22,0.35,0.22,0.56v14.58v0.04c0,1.35-0.25,2.62-0.76,3.78c-0.5,1.17-1.2,2.19-2.07,3.07
			c-0.88,0.88-1.91,1.57-3.09,2.07c-1.18,0.5-2.45,0.76-3.8,0.76s-2.62-0.25-3.78-0.76c-1.17-0.5-2.19-1.19-3.07-2.07
			c-0.88-0.88-1.57-1.9-2.07-3.07c-0.5-1.17-0.76-2.43-0.76-3.78V74.77z"/>
		<path class="st0" d="M203.79,98.28c0,0.21-0.08,0.4-0.24,0.56c-0.16,0.16-0.34,0.24-0.56,0.24s-0.4-0.08-0.56-0.24
			c-0.16-0.16-0.24-0.34-0.24-0.56v-23.5c0-0.11-0.01-0.2-0.04-0.3c-0.03-0.09-0.03-0.18,0-0.26c0.03-0.08,0.09-0.14,0.2-0.18
			c0.11-0.04,0.29-0.06,0.56-0.06c0.29,0,0.51,0.08,0.66,0.24c0.15,0.16,0.22,0.35,0.22,0.56V98.28z"/>
		<path class="st0" d="M223.58,98.28c0,0.21-0.08,0.4-0.24,0.56c-0.16,0.16-0.35,0.24-0.56,0.24h-16.14c-0.21,0-0.38-0.08-0.52-0.24
			c-0.13-0.16-0.2-0.34-0.2-0.56v-23.5c0-0.11-0.01-0.2-0.04-0.3c-0.03-0.09-0.03-0.18,0-0.26c0.03-0.08,0.09-0.14,0.2-0.18
			c0.11-0.04,0.29-0.06,0.56-0.06c0.29,0,0.51,0.08,0.66,0.24c0.15,0.16,0.22,0.35,0.22,0.56v22.71h15.26c0.21,0,0.4,0.08,0.56,0.24
			C223.5,97.88,223.58,98.07,223.58,98.28z"/>
		<path class="st0" d="M226.57,99.08c-0.21,0-0.4-0.08-0.56-0.24c-0.16-0.16-0.24-0.34-0.24-0.56V74.74c0-0.11-0.01-0.2-0.04-0.3
			c-0.03-0.09-0.03-0.18,0-0.26c0.03-0.08,0.09-0.14,0.2-0.18c0.11-0.04,0.29-0.06,0.56-0.06h0.16h6.26c1.73,0,3.35,0.33,4.88,1
			c1.53,0.66,2.86,1.57,4,2.71c1.14,1.14,2.05,2.48,2.71,4c0.66,1.53,1,3.15,1,4.88s-0.33,3.35-1,4.88c-0.66,1.53-1.57,2.86-2.71,4
			c-1.14,1.14-2.48,2.04-4,2.69c-1.53,0.65-3.15,0.98-4.88,0.98H226.57z M243.9,86.53c0-1.51-0.29-2.93-0.88-4.26
			c-0.58-1.33-1.37-2.49-2.37-3.49c-1-1-2.16-1.79-3.49-2.37c-1.33-0.58-2.75-0.88-4.26-0.88h-5.54v21.95h5.54
			c1.51,0,2.93-0.29,4.26-0.86c1.33-0.57,2.49-1.35,3.49-2.35c1-1,1.79-2.16,2.37-3.49C243.61,89.46,243.9,88.04,243.9,86.53z"/>
	</g>
	<g>
		<path class="st0" d="M193,38.32c0-1.71,0.22-3.36,0.67-4.96c0.45-1.59,1.08-3.09,1.9-4.48c0.82-1.39,1.79-2.65,2.93-3.79
			c1.14-1.14,2.4-2.11,3.79-2.93c1.39-0.82,2.88-1.45,4.48-1.9s3.26-0.67,4.99-0.67c1.71,0,3.36,0.22,4.96,0.67
			c1.59,0.45,3.09,1.08,4.48,1.9c1.39,0.82,2.65,1.79,3.79,2.93c1.14,1.14,2.11,2.4,2.93,3.79c0.82,1.39,1.45,2.88,1.9,4.48
			c0.45,1.59,0.67,3.25,0.67,4.96c0,1.73-0.22,3.39-0.67,4.99c-0.45,1.59-1.08,3.09-1.9,4.48c-0.82,1.39-1.79,2.65-2.93,3.79
			c-1.14,1.14-2.4,2.11-3.79,2.93c-1.39,0.82-2.88,1.45-4.48,1.9c-1.59,0.45-3.25,0.67-4.96,0.67c-2.59,0-5.01-0.49-7.29-1.47
			c-2.27-0.98-4.26-2.32-5.96-4.02c-1.7-1.7-3.04-3.69-4.02-5.96C193.49,43.33,193,40.9,193,38.32z M199.88,38.37
			c0,1.63,0.31,3.17,0.93,4.62c0.62,1.45,1.47,2.72,2.54,3.8c1.07,1.09,2.33,1.95,3.78,2.58c1.45,0.63,2.99,0.95,4.62,0.95
			c1.63,0,3.17-0.32,4.61-0.95c1.44-0.63,2.7-1.5,3.78-2.6c1.08-1.1,1.93-2.38,2.55-3.83c0.62-1.46,0.93-3,0.93-4.64
			c0-1.63-0.31-3.17-0.93-4.61c-0.62-1.44-1.47-2.7-2.55-3.79c-1.08-1.09-2.34-1.95-3.78-2.58c-1.44-0.63-2.97-0.95-4.61-0.95
			c-1.63,0-3.17,0.32-4.62,0.95c-1.45,0.63-2.71,1.5-3.78,2.59c-1.07,1.1-1.91,2.37-2.54,3.82
			C200.19,35.2,199.88,36.74,199.88,38.37z"/>
		<path class="st0" d="M234.05,38.32c0-1.71,0.22-3.36,0.67-4.96c0.45-1.59,1.08-3.09,1.9-4.48c0.82-1.39,1.79-2.65,2.93-3.79
			c1.14-1.14,2.4-2.11,3.79-2.93c1.39-0.82,2.88-1.45,4.48-1.9s3.26-0.67,4.99-0.67c1.71,0,3.36,0.22,4.96,0.67
			c1.59,0.45,3.09,1.08,4.48,1.9c1.39,0.82,2.65,1.79,3.79,2.93c1.14,1.14,2.11,2.4,2.93,3.79c0.82,1.39,1.45,2.88,1.9,4.48
			c0.45,1.59,0.67,3.25,0.67,4.96c0,1.73-0.22,3.39-0.67,4.99c-0.45,1.59-1.08,3.09-1.9,4.48c-0.82,1.39-1.79,2.65-2.93,3.79
			c-1.14,1.14-2.4,2.11-3.79,2.93c-1.39,0.82-2.88,1.45-4.48,1.9c-1.59,0.45-3.25,0.67-4.96,0.67c-2.59,0-5.01-0.49-7.29-1.47
			c-2.27-0.98-4.26-2.32-5.96-4.02c-1.7-1.7-3.04-3.69-4.02-5.96C234.54,43.33,234.05,40.9,234.05,38.32z M240.93,38.37
			c0,1.63,0.31,3.17,0.93,4.62c0.62,1.45,1.47,2.72,2.54,3.8c1.07,1.09,2.33,1.95,3.78,2.58c1.45,0.63,2.99,0.95,4.62,0.95
			c1.63,0,3.17-0.32,4.61-0.95c1.44-0.63,2.7-1.5,3.78-2.6c1.08-1.1,1.93-2.38,2.55-3.83c0.62-1.46,0.93-3,0.93-4.64
			c0-1.63-0.31-3.17-0.93-4.61c-0.62-1.44-1.47-2.7-2.55-3.79c-1.08-1.09-2.34-1.95-3.78-2.58c-1.44-0.63-2.97-0.95-4.61-0.95
			c-1.63,0-3.17,0.32-4.62,0.95c-1.45,0.63-2.71,1.5-3.78,2.59c-1.07,1.1-1.91,2.37-2.54,3.82
			C241.24,35.2,240.93,36.74,240.93,38.37z"/>
		<path class="st0" d="M280.61,57.06c-0.86,0-1.59-0.26-2.2-0.77c-0.61-0.52-1-1.16-1.15-1.94c-0.04-0.12-0.06-0.23-0.06-0.35
			s0-0.24,0-0.38V23.21c-0.02-0.39-0.08-0.77-0.18-1.15c-0.1-0.38-0.15-0.74-0.15-1.09c0-0.21,0.03-0.41,0.1-0.58
			c0.07-0.18,0.19-0.32,0.36-0.44s0.42-0.21,0.73-0.28c0.31-0.07,0.71-0.1,1.2-0.1h10.38c1.71,0,3.36,0.22,4.96,0.67
			c1.59,0.45,3.09,1.08,4.48,1.9c1.39,0.82,2.66,1.8,3.81,2.94c1.15,1.15,2.13,2.42,2.96,3.8c0.83,1.39,1.46,2.88,1.91,4.48
			c0.45,1.59,0.67,3.25,0.67,4.96c0,1.73-0.22,3.39-0.67,4.99c-0.45,1.59-1.08,3.09-1.91,4.48c-0.83,1.39-1.81,2.65-2.96,3.79
			c-1.15,1.14-2.42,2.11-3.81,2.93c-1.39,0.82-2.88,1.45-4.48,1.9c-1.59,0.45-3.25,0.67-4.96,0.67H280.61z M301.55,38.32
			c0-1.75-0.32-3.37-0.95-4.85c-0.63-1.49-1.49-2.77-2.57-3.86c-1.08-1.09-2.34-1.94-3.78-2.57c-1.44-0.62-2.97-0.94-4.61-0.96h-5.6
			V50.3h5.6c1.63-0.04,3.17-0.37,4.61-0.99c1.44-0.62,2.7-1.46,3.78-2.52c1.08-1.06,1.93-2.31,2.57-3.76
			C301.23,41.58,301.55,40.01,301.55,38.32z"/>
		<path class="st0" d="M378.7,19.57c0.5,0,0.95,0.11,1.34,0.32c0.39,0.21,0.73,0.49,1.03,0.83c0.3,0.34,0.56,0.72,0.79,1.15
			c0.22,0.43,0.43,0.86,0.63,1.31l11.69,29.19c0.1,0.21,0.16,0.44,0.2,0.68c0.04,0.24,0.06,0.47,0.06,0.69
			c0,0.51-0.12,0.99-0.36,1.44c-0.24,0.46-0.59,0.82-1.04,1.09c-0.43,0.37-0.91,0.61-1.44,0.71c-0.54,0.11-1.05,0.09-1.56-0.06
			c-0.51-0.15-0.97-0.4-1.4-0.77c-0.43-0.37-0.75-0.85-0.96-1.43l-2.1-5.25h-13.59l-2.16,5.28c-0.37,0.87-0.86,1.5-1.46,1.88
			c-0.6,0.38-1.29,0.54-2.07,0.48c-0.51-0.02-0.97-0.14-1.4-0.36c-0.43-0.22-0.79-0.52-1.08-0.9c-0.29-0.38-0.5-0.82-0.61-1.33
			c-0.12-0.5-0.11-1.04,0.03-1.6c0.16-0.49,0.32-0.96,0.5-1.41c0.17-0.46,0.35-0.92,0.52-1.39l10.88-27.2
			c0.1-0.25,0.16-0.51,0.19-0.76c0.03-0.25,0.06-0.51,0.1-0.76c0.06-0.25,0.15-0.49,0.26-0.71c0.12-0.22,0.29-0.42,0.52-0.58
			c0.23-0.17,0.55-0.3,0.95-0.39C377.56,19.62,378.07,19.57,378.7,19.57z M373.48,43.97h10.61l-5.31-13.56L373.48,43.97z"/>
		<path class="st0" d="M406.13,30.27c0,4.33,0,8.47,0.01,12.39c0.01,3.93,0.01,7.58,0.01,10.96c0,0.47-0.08,0.91-0.25,1.33
			c-0.17,0.42-0.4,0.78-0.71,1.09c-0.31,0.31-0.68,0.56-1.09,0.74c-0.42,0.18-0.88,0.28-1.39,0.28c-0.49,0-0.94-0.09-1.36-0.26
			c-0.42-0.18-0.78-0.42-1.08-0.73c-0.3-0.31-0.54-0.68-0.71-1.09c-0.18-0.42-0.26-0.87-0.26-1.36c0-2.23,0-4.64,0-7.22
			s0-5.19,0-7.86c0-2.66,0-5.3,0-7.92s-0.01-5.08-0.03-7.39c0-0.41-0.05-0.78-0.16-1.12c-0.11-0.34-0.16-0.71-0.16-1.12
			c0-0.21,0.03-0.41,0.09-0.58c0.06-0.17,0.17-0.33,0.35-0.45c0.18-0.13,0.42-0.22,0.73-0.29c0.31-0.07,0.73-0.1,1.25-0.1
			c0.56,0,1.04,0.01,1.43,0.03c0.39,0.02,0.73,0.07,1.03,0.15c0.3,0.08,0.58,0.2,0.83,0.36c0.25,0.17,0.52,0.39,0.79,0.69
			l12.07,14.75c1.65-2.02,3.08-3.77,4.29-5.25c1.2-1.48,2.23-2.74,3.08-3.8c0.85-1.06,1.53-1.93,2.07-2.61
			c0.53-0.68,0.96-1.23,1.27-1.65c0.31-0.42,0.53-0.73,0.67-0.93c0.14-0.2,0.24-0.35,0.32-0.45c0.12-0.17,0.24-0.34,0.38-0.51
			c0.14-0.17,0.32-0.31,0.54-0.42c0.22-0.12,0.5-0.2,0.82-0.26c0.32-0.06,0.72-0.09,1.21-0.09c0.95,0,1.68,0.2,2.17,0.6
			c0.5,0.4,0.85,0.92,1.06,1.56s0.33,1.38,0.34,2.2c0.01,0.83,0.01,1.66,0.01,2.49v27.2c0,0.47-0.08,0.91-0.25,1.33
			c-0.17,0.42-0.4,0.78-0.7,1.09c-0.3,0.31-0.67,0.56-1.09,0.74c-0.43,0.18-0.89,0.28-1.4,0.28c-0.35,0-0.72-0.07-1.12-0.2
			s-0.77-0.34-1.11-0.63c-0.34-0.28-0.62-0.64-0.83-1.06c-0.21-0.43-0.32-0.94-0.32-1.54v-23.3l-8.51,10.96
			c-0.45,0.54-0.89,1.01-1.34,1.39c-0.45,0.38-0.93,0.57-1.46,0.57c-0.58,0-1.07-0.17-1.46-0.51c-0.39-0.34-0.85-0.82-1.37-1.44
			L406.13,30.27z"/>
		<path class="st0" d="M469.96,53.62c0,0.51-0.1,0.97-0.29,1.4c-0.19,0.43-0.46,0.79-0.79,1.09c-0.33,0.3-0.72,0.54-1.17,0.7
			c-0.45,0.16-0.92,0.25-1.43,0.25h-19.56c-1.22,0-2.18-0.36-2.86-1.09c-0.68-0.73-1.02-1.7-1.02-2.9V23.42
			c-0.02-0.39-0.08-0.79-0.19-1.21c-0.11-0.42-0.16-0.82-0.16-1.21c0-0.43,0.15-0.77,0.44-1.03c0.29-0.26,0.87-0.39,1.75-0.39h21.69
			c0.76,0,1.39,0.16,1.91,0.48c0.51,0.32,0.9,0.72,1.17,1.21c0.26,0.49,0.39,1.02,0.39,1.59c0,0.57-0.13,1.1-0.38,1.59
			c-0.25,0.49-0.63,0.89-1.14,1.21c-0.5,0.32-1.15,0.48-1.92,0.48h-16.71v8.98h12.98c0.52,0,1.02,0.12,1.49,0.36
			c0.47,0.24,0.85,0.56,1.15,0.95c0.3,0.39,0.5,0.84,0.61,1.34c0.11,0.5,0.06,1.03-0.13,1.57c-0.23,0.68-0.62,1.21-1.17,1.59
			c-0.54,0.38-1.19,0.57-1.92,0.57h-13v8.69h16.53c0.51,0,0.99,0.08,1.44,0.23c0.46,0.16,0.86,0.38,1.19,0.67
			c0.34,0.29,0.61,0.65,0.8,1.08C469.86,52.59,469.96,53.08,469.96,53.62z"/>
		<path class="st0" d="M494.5,29.92c-0.27,0.02-0.53,0.01-0.77-0.01c-0.24-0.03-0.49-0.09-0.73-0.19c-0.24-0.1-0.49-0.23-0.74-0.41
			c-0.25-0.17-0.52-0.4-0.82-0.67c-0.97-0.99-1.9-1.74-2.78-2.26c-0.88-0.51-1.9-0.77-3.05-0.77c-0.58,0-1.19,0.09-1.81,0.26
			c-0.62,0.17-1.18,0.42-1.68,0.74c-0.5,0.32-0.9,0.72-1.22,1.21c-0.32,0.49-0.48,1.03-0.48,1.63c0,0.72,0.26,1.37,0.79,1.94
			c0.52,0.57,1.22,1.11,2.1,1.6c0.87,0.5,1.87,0.99,2.97,1.47c1.11,0.49,2.23,1,3.38,1.53c1.15,0.54,2.27,1.12,3.38,1.75
			c1.11,0.63,2.1,1.35,2.97,2.16c0.87,0.81,1.57,1.73,2.1,2.76c0.52,1.03,0.79,2.22,0.79,3.56c0,1.73-0.4,3.27-1.2,4.62
			c-0.8,1.35-1.84,2.49-3.12,3.41c-1.28,0.92-2.73,1.63-4.33,2.11c-1.6,0.49-3.22,0.73-4.85,0.73c-1.96,0-3.69-0.23-5.19-0.7
			c-1.5-0.47-2.76-1.07-3.8-1.82c-1.04-0.75-1.86-1.58-2.46-2.49c-0.6-0.91-1-1.82-1.19-2.71c-0.06-0.47-0.04-0.91,0.06-1.34
			c0.1-0.43,0.27-0.81,0.51-1.14c0.24-0.33,0.56-0.6,0.95-0.8c0.39-0.2,0.85-0.31,1.37-0.31c0.51,0,1.01,0.13,1.5,0.39
			c0.5,0.26,1.01,0.63,1.53,1.09c0.27,0.45,0.64,0.87,1.11,1.27c0.47,0.4,1,0.75,1.59,1.06c0.59,0.31,1.23,0.56,1.92,0.74
			s1.4,0.28,2.14,0.28c0.72,0,1.44-0.09,2.17-0.28c0.73-0.19,1.39-0.46,1.98-0.82c0.59-0.36,1.08-0.81,1.46-1.34
			c0.38-0.53,0.57-1.15,0.57-1.85c0-0.72-0.26-1.36-0.77-1.91c-0.52-0.55-1.19-1.07-2.01-1.56c-0.83-0.49-1.77-0.95-2.84-1.4
			c-1.07-0.45-2.16-0.93-3.28-1.44c-1.12-0.51-2.21-1.08-3.28-1.69c-1.07-0.61-2.02-1.32-2.84-2.13c-0.83-0.81-1.5-1.73-2.01-2.77
			c-0.52-1.04-0.77-2.24-0.77-3.6c0-1.52,0.31-2.9,0.92-4.15c0.61-1.25,1.47-2.33,2.57-3.22c1.1-0.89,2.4-1.59,3.89-2.08
			c1.5-0.5,3.13-0.74,4.9-0.74c0.87,0,1.77,0.1,2.68,0.29c0.91,0.19,1.81,0.47,2.68,0.82c0.87,0.35,1.69,0.76,2.45,1.23
			c0.76,0.47,1.43,0.98,2.01,1.53c0.58,0.55,1.04,1.13,1.37,1.74c0.33,0.6,0.5,1.21,0.5,1.81c0,0.56-0.09,1.03-0.26,1.39
			c-0.17,0.36-0.41,0.65-0.7,0.87c-0.29,0.22-0.64,0.38-1.04,0.48C495.37,29.87,494.95,29.92,494.5,29.92z"/>
		<path class="st0" d="M185.86,39.66h-2.56c-2.84,0-4.45,3.24-2.76,5.51c0,0,0,0,0,0c-0.12,0.21-0.25,0.43-0.38,0.64
			c-0.55,0.83-1.21,1.56-1.98,2.19c-0.77,0.64-1.61,1.14-2.51,1.51c-0.9,0.38-1.82,0.56-2.74,0.56c-1.65,0-3.19-0.3-4.6-0.91
			c-1.41-0.61-2.65-1.44-3.71-2.5c-1.06-1.06-1.89-2.31-2.48-3.77c-0.6-1.45-0.89-3.03-0.89-4.75c0-1.62,0.31-3.14,0.92-4.58
			c0.62-1.43,1.45-2.69,2.51-3.78c1.06-1.09,2.3-1.94,3.74-2.57c1.43-0.62,2.96-0.94,4.57-0.94c1.1,0,2.06,0.13,2.89,0.39
			c0.83,0.26,1.6,0.61,2.32,1.04c0.72,0.43,1.42,0.94,2.09,1.52c0.67,0.58,1.4,1.17,2.19,1.79c0.5,0.31,1.02,0.47,1.56,0.48
			c0.54,0.01,1.06-0.09,1.56-0.3c0.56-0.25,1.03-0.64,1.41-1.17c0.38-0.53,0.58-1.13,0.58-1.8c0-0.46-0.09-0.89-0.26-1.28
			c-0.17-0.39-0.41-0.77-0.72-1.11c-0.96-1.04-1.93-1.95-2.9-2.74c-0.97-0.79-2-1.44-3.09-1.96c-1.09-0.52-2.26-0.91-3.51-1.17
			c-1.25-0.26-2.63-0.39-4.13-0.39c-1.71,0-3.36,0.22-4.94,0.66s-3.06,1.07-4.43,1.88c-1.38,0.81-2.63,1.78-3.75,2.9
			c-1.13,1.13-2.09,2.38-2.9,3.75c-0.81,1.38-1.43,2.85-1.88,4.43c-0.44,1.58-0.66,3.21-0.66,4.91c0,2.56,0.48,4.97,1.43,7.22
			c0.95,2.25,2.25,4.22,3.9,5.9c1.65,1.68,3.58,3.01,5.82,3.98c2.23,0.97,4.63,1.46,7.19,1.46c1.64,0,3.13-0.31,4.49-0.94
			c1.36-0.62,2.55-1.4,3.58-2.32c0.18-0.16,0.36-0.33,0.53-0.5c0.63-0.62,1.7-0.15,1.7,0.73v0c0,0.89,0.23,1.6,0.69,2.15
			c0.46,0.55,1.13,0.82,1.99,0.82c0.85,0,1.52-0.26,2.03-0.77c0.51-0.51,0.77-1.16,0.77-1.95V42.8c0-1.15-0.25-1.96-0.74-2.42
			C187.32,39.92,186.67,39.68,185.86,39.66z"/>
		<path class="st1" d="M177.75,36.64c-0.24-0.25-0.53-0.37-0.87-0.37h-2.85v-2.78c0-0.34-0.12-0.63-0.37-0.86s-0.55-0.35-0.9-0.35
			c-0.33,0-0.63,0.12-0.88,0.35c-0.25,0.23-0.38,0.52-0.38,0.86v2.78h-2.86c-0.34,0-0.63,0.12-0.86,0.37
			c-0.23,0.25-0.35,0.55-0.35,0.9c0,0.33,0.12,0.63,0.35,0.88c0.23,0.25,0.52,0.38,0.86,0.38h2.86v2.92c0,0.34,0.13,0.63,0.38,0.87
			c0.25,0.24,0.54,0.36,0.88,0.36c0.35,0,0.65-0.12,0.9-0.36c0.25-0.24,0.37-0.53,0.37-0.87v-2.92h2.85c0.34,0,0.63-0.13,0.87-0.38
			c0.24-0.25,0.36-0.54,0.36-0.88C178.11,37.19,177.99,36.89,177.75,36.64z"/>
		<path class="st0" d="M356.98,39.66h-2.56c-2.84,0-4.45,3.24-2.76,5.51c0,0,0,0,0,0c-0.12,0.21-0.25,0.43-0.38,0.64
			c-0.55,0.83-1.21,1.56-1.98,2.19c-0.77,0.64-1.61,1.14-2.51,1.51c-0.9,0.38-1.82,0.56-2.74,0.56c-1.65,0-3.19-0.3-4.6-0.91
			c-1.41-0.61-2.65-1.44-3.71-2.5c-1.06-1.06-1.89-2.31-2.48-3.77c-0.6-1.45-0.89-3.03-0.89-4.75c0-1.62,0.31-3.14,0.92-4.58
			c0.62-1.43,1.45-2.69,2.51-3.78c1.06-1.09,2.3-1.94,3.74-2.57c1.43-0.62,2.96-0.94,4.57-0.94c1.1,0,2.06,0.13,2.89,0.39
			c0.83,0.26,1.6,0.61,2.32,1.04c0.72,0.43,1.42,0.94,2.09,1.52c0.67,0.58,1.4,1.17,2.19,1.79c0.5,0.31,1.02,0.47,1.56,0.48
			c0.54,0.01,1.06-0.09,1.56-0.3c0.56-0.25,1.03-0.64,1.41-1.17c0.38-0.53,0.58-1.13,0.58-1.8c0-0.46-0.09-0.89-0.26-1.28
			c-0.17-0.39-0.41-0.77-0.72-1.11c-0.96-1.04-1.93-1.95-2.9-2.74c-0.97-0.79-2-1.44-3.09-1.96c-1.09-0.52-2.26-0.91-3.51-1.17
			c-1.25-0.26-2.63-0.39-4.13-0.39c-1.71,0-3.36,0.22-4.94,0.66s-3.06,1.07-4.43,1.88c-1.38,0.81-2.63,1.78-3.75,2.9
			c-1.13,1.13-2.09,2.38-2.9,3.75c-0.81,1.38-1.43,2.85-1.88,4.43c-0.44,1.58-0.66,3.21-0.66,4.91c0,2.56,0.48,4.97,1.43,7.22
			c0.95,2.25,2.25,4.22,3.9,5.9c1.65,1.68,3.58,3.01,5.82,3.98c2.23,0.97,4.63,1.46,7.19,1.46c1.64,0,3.13-0.31,4.49-0.94
			c1.36-0.62,2.55-1.4,3.58-2.32c0.18-0.16,0.36-0.33,0.53-0.5c0.63-0.62,1.7-0.15,1.7,0.73v0c0,0.89,0.23,1.6,0.69,2.15
			c0.46,0.55,1.13,0.82,1.99,0.82c0.85,0,1.52-0.26,2.03-0.77c0.51-0.51,0.77-1.16,0.77-1.95V42.8c0-1.15-0.25-1.96-0.74-2.42
			C358.43,39.92,357.78,39.68,356.98,39.66z"/>
		<g>
			<path class="st2" d="M340.08,35.4c-1.17,0-2.13,0.95-2.13,2.13c0,1.17,0.95,2.13,2.13,2.13c1.17,0,2.13-0.95,2.13-2.13
				C342.2,36.36,341.25,35.4,340.08,35.4z"/>
			<path class="st3" d="M343.89,35.92c1.17,0,2.13-0.95,2.13-2.13c0-1.17-0.95-2.13-2.13-2.13c-1.17,0-2.13,0.95-2.13,2.13
				C341.76,34.97,342.71,35.92,343.89,35.92z"/>
			<path class="st4" d="M343.89,39.29c-1.17,0-2.13,0.95-2.13,2.13s0.95,2.13,2.13,2.13c1.17,0,2.13-0.95,2.13-2.13
				S345.06,39.29,343.89,39.29z"/>
			<path class="st1" d="M347.7,35.4c-1.17,0-2.13,0.95-2.13,2.13c0,1.17,0.95,2.13,2.13,2.13s2.13-0.95,2.13-2.13
				C349.82,36.36,348.87,35.4,347.7,35.4z"/>
		</g>
	</g>
	<g>
		<path class="st0" d="M54.65,71.53h-4.29c-4.75,0-7.46,5.42-4.62,9.23c0,0,0,0,0,0c-0.2,0.36-0.41,0.71-0.64,1.06
			c-0.92,1.39-2.02,2.61-3.31,3.67c-1.29,1.06-2.69,1.91-4.2,2.54c-1.51,0.63-3.04,0.94-4.59,0.94c-2.77,0-5.34-0.51-7.71-1.52
			c-2.37-1.02-4.44-2.41-6.21-4.18c-1.77-1.77-3.16-3.88-4.16-6.31c-1-2.43-1.5-5.08-1.5-7.95c0-2.71,0.52-5.26,1.55-7.66
			c1.03-2.4,2.43-4.51,4.2-6.33c1.77-1.82,3.86-3.25,6.26-4.3c2.4-1.05,4.95-1.57,7.66-1.57c1.84,0,3.45,0.22,4.83,0.65
			c1.39,0.44,2.68,1.01,3.89,1.74c1.21,0.73,2.38,1.57,3.5,2.54c1.13,0.97,2.35,1.96,3.67,3c0.84,0.52,1.71,0.78,2.61,0.8
			c0.9,0.02,1.77-0.15,2.61-0.51c0.93-0.42,1.72-1.07,2.37-1.96c0.64-0.89,0.97-1.89,0.97-3.02c0-0.77-0.15-1.49-0.43-2.15
			c-0.29-0.66-0.69-1.28-1.21-1.86c-1.61-1.74-3.23-3.27-4.86-4.59c-1.63-1.32-3.35-2.42-5.17-3.29c-1.82-0.87-3.78-1.52-5.87-1.96
			c-2.1-0.43-4.4-0.65-6.91-0.65c-2.87,0-5.62,0.37-8.26,1.11c-2.64,0.74-5.12,1.79-7.42,3.14c-2.3,1.35-4.4,2.97-6.28,4.86
			c-1.89,1.88-3.5,3.98-4.86,6.28c-1.35,2.3-2.4,4.78-3.14,7.42c-0.74,2.64-1.11,5.38-1.11,8.22c0,4.29,0.8,8.31,2.39,12.08
			c1.6,3.77,3.77,7.07,6.52,9.88c2.75,2.82,6,5.04,9.74,6.67c3.74,1.63,7.75,2.44,12.03,2.44c2.74,0,5.24-0.52,7.52-1.57
			c2.27-1.05,4.27-2.34,5.99-3.89c0.31-0.28,0.61-0.56,0.89-0.84c1.06-1.04,2.85-0.26,2.85,1.23v0c0,1.48,0.39,2.68,1.16,3.6
			c0.77,0.92,1.88,1.38,3.33,1.38c1.42,0,2.55-0.43,3.41-1.28c0.85-0.85,1.28-1.94,1.28-3.26V76.8c0-1.93-0.41-3.29-1.23-4.06
			C57.09,71.97,56.01,71.57,54.65,71.53z"/>
		<path class="st1" d="M41.07,66.48c-0.4-0.41-0.88-0.62-1.46-0.62h-4.76v-4.66c0-0.57-0.21-1.06-0.62-1.44
			c-0.41-0.39-0.92-0.58-1.51-0.58c-0.56,0-1.05,0.19-1.47,0.58s-0.63,0.87-0.63,1.44v4.66h-4.79c-0.57,0-1.06,0.21-1.44,0.62
			c-0.39,0.41-0.58,0.92-0.58,1.51c0,0.56,0.19,1.05,0.58,1.47c0.39,0.42,0.87,0.63,1.44,0.63h4.79v4.89c0,0.57,0.21,1.06,0.63,1.46
			c0.42,0.4,0.91,0.6,1.47,0.6c0.59,0,1.09-0.2,1.51-0.6c0.41-0.4,0.62-0.88,0.62-1.46v-4.89h4.76c0.57,0,1.06-0.21,1.46-0.63
			c0.4-0.42,0.6-0.91,0.6-1.47C41.67,67.39,41.47,66.89,41.07,66.48z"/>
		<path class="st0" d="M78.83,71.53h4.29c4.75,0,7.46,5.42,4.62,9.23c0,0,0,0,0,0c0.2,0.36,0.41,0.71,0.64,1.06
			c0.92,1.39,2.02,2.61,3.31,3.67c1.29,1.06,2.69,1.91,4.2,2.54c1.51,0.63,3.04,0.94,4.59,0.94c2.77,0,5.34-0.51,7.71-1.52
			c2.37-1.02,4.44-2.41,6.21-4.18c1.77-1.77,3.16-3.88,4.16-6.31c1-2.43,1.5-5.08,1.5-7.95c0-2.71-0.52-5.26-1.55-7.66
			c-1.03-2.4-2.43-4.51-4.2-6.33c-1.77-1.82-3.86-3.25-6.26-4.3c-2.4-1.05-4.95-1.57-7.66-1.57c-1.84,0-3.45,0.22-4.83,0.65
			c-1.39,0.44-2.68,1.01-3.89,1.74c-1.21,0.73-2.38,1.57-3.5,2.54c-1.13,0.97-2.35,1.96-3.67,3c-0.84,0.52-1.71,0.78-2.61,0.8
			c-0.9,0.02-1.77-0.15-2.61-0.51c-0.93-0.42-1.72-1.07-2.37-1.96c-0.64-0.89-0.97-1.89-0.97-3.02c0-0.77,0.15-1.49,0.43-2.15
			c0.29-0.66,0.69-1.28,1.21-1.86c1.61-1.74,3.23-3.27,4.86-4.59c1.63-1.32,3.35-2.42,5.17-3.29c1.82-0.87,3.78-1.52,5.87-1.96
			c2.1-0.43,4.4-0.65,6.91-0.65c2.87,0,5.62,0.37,8.26,1.11c2.64,0.74,5.12,1.79,7.42,3.14c2.3,1.35,4.4,2.97,6.28,4.86
			c1.89,1.88,3.5,3.98,4.86,6.28c1.35,2.3,2.4,4.78,3.14,7.42c0.74,2.64,1.11,5.38,1.11,8.22c0,4.29-0.8,8.31-2.39,12.08
			c-1.6,3.77-3.77,7.07-6.52,9.88c-2.75,2.82-6,5.04-9.74,6.67c-3.74,1.63-7.75,2.44-12.03,2.44c-2.74,0-5.24-0.52-7.52-1.57
			c-2.27-1.05-4.27-2.34-5.99-3.89c-0.31-0.28-0.61-0.56-0.89-0.84c-1.06-1.04-2.85-0.26-2.85,1.23v0c0,1.48-0.39,2.68-1.16,3.6
			c-0.77,0.92-1.88,1.38-3.33,1.38c-1.42,0-2.55-0.43-3.41-1.28c-0.85-0.85-1.28-1.94-1.28-3.26V76.8c0-1.93,0.41-3.29,1.23-4.06
			C76.39,71.97,77.48,71.57,78.83,71.53z"/>
		<g>
			<g>
				<g>
					<path class="st2" d="M93.92,64.15c-2.1,0-3.81,1.71-3.81,3.81c0,2.1,1.71,3.81,3.81,3.81c2.1,0,3.81-1.71,3.81-3.81
						C97.73,65.86,96.02,64.15,93.92,64.15z"/>
				</g>
				<g>
					<path class="st3" d="M100.75,65.08c2.1,0,3.81-1.71,3.81-3.81s-1.71-3.81-3.81-3.81c-2.1,0-3.81,1.71-3.81,3.81
						S98.65,65.08,100.75,65.08z"/>
				</g>
				<g>
					<path class="st4" d="M100.75,71.12c-2.1,0-3.81,1.71-3.81,3.81s1.71,3.81,3.81,3.81c2.1,0,3.81-1.71,3.81-3.81
						S102.85,71.12,100.75,71.12z"/>
				</g>
				<path class="st1" d="M107.57,64.15c-2.1,0-3.81,1.71-3.81,3.81c0,2.1,1.71,3.81,3.81,3.81s3.81-1.71,3.81-3.81
					C111.38,65.86,109.67,64.15,107.57,64.15z"/>
			</g>
		</g>
		<path class="st0" d="M66,54.4c-2.58,0-4.68-2.09-4.68-4.68V37.9c0-3.94,1.42-7.44,4.1-10.11c3.98-3.97,10.06-5.37,14.09-5.37
			c0.01,0,0.03,0,0.05,0c0.79,0,1.82,0.03,2.94,0.05c2.35,0.06,5.57,0.13,7.14-0.03c2.58-0.26,8.58-1.39,8.58-6.22V4.68
			c0-2.58,2.1-4.68,4.68-4.68c2.58,0,4.68,2.09,4.68,4.68v11.54c0,10.2-9.16,14.74-17,15.53c-2.15,0.22-5.42,0.14-8.3,0.07
			c-1.05-0.02-2.01-0.05-2.75-0.05c-0.01,0-0.01,0-0.02,0c-1.88,0-5.55,0.71-7.48,2.64c-0.92,0.92-1.35,2.02-1.35,3.48v11.82
			C70.68,52.3,68.58,54.4,66,54.4z"/>
	</g>
</g>
</svg>
