<svg fill="none" height="184" viewBox="0 0 474 184" width="474" xmlns="http://www.w3.org/2000/svg" xmlns:xlink="http://www.w3.org/1999/xlink"><linearGradient id="a" gradientUnits="userSpaceOnUse" x1="95" x2="374.993" y1="-44.5161" y2="49.6379"><stop offset="0" stop-color="#5a36f4"/><stop offset="1" stop-color="#dd21fc"/></linearGradient><linearGradient id="b"><stop offset="0" stop-color="#512ee9"/><stop offset="1" stop-color="#de13ff"/></linearGradient><linearGradient id="c" gradientUnits="userSpaceOnUse" x1="39.4648" x2="39.4648" xlink:href="#b" y1="59.5625" y2="124.386"/><linearGradient id="d" gradientUnits="userSpaceOnUse" x1="61.92" x2="61.92" xlink:href="#b" y1="120.732" y2="125.715"/><linearGradient id="e" gradientUnits="userSpaceOnUse" x1="54.7969" x2="54.7969" xlink:href="#b" y1="120.732" y2="125.715"/><linearGradient id="f" gradientUnits="userSpaceOnUse" x1="60.1192" x2="60.1192" xlink:href="#b" y1="73.6167" y2="78.5993"/><linearGradient id="g" gradientUnits="userSpaceOnUse" x1="73.1563" x2="73.1563" xlink:href="#b" y1="101.736" y2="106.719"/><linearGradient id="h" gradientUnits="userSpaceOnUse" x1="75.5089" x2="75.5089" xlink:href="#b" y1="83.4133" y2="88.3959"/><linearGradient id="i" gradientUnits="userSpaceOnUse" x1="57.2852" x2="57.2852" xlink:href="#b" y1="98.3403" y2="103.323"/><linearGradient id="j" gradientUnits="userSpaceOnUse" x1="57.2852" x2="57.2852" xlink:href="#b" y1="111.104" y2="116.087"/><linearGradient id="k" gradientUnits="userSpaceOnUse" x1="41.6036" x2="41.6036" xlink:href="#b" y1="103.85" y2="108.833"/><linearGradient id="l" gradientUnits="userSpaceOnUse" x1="27.1641" x2="27.1641" xlink:href="#b" y1="86.5176" y2="91.5001"/><linearGradient id="m" gradientUnits="userSpaceOnUse" x1="19.4171" x2="19.4171" xlink:href="#b" y1="103.322" y2="108.304"/><linearGradient id="n" gradientUnits="userSpaceOnUse" x1="2.49128" x2="2.49128" xlink:href="#b" y1="88.7607" y2="93.7433"/><linearGradient id="o" gradientUnits="userSpaceOnUse" x1="15.5565" x2="15.5565" xlink:href="#b" y1="68.6362" y2="73.6165"/><linearGradient id="p" gradientUnits="userSpaceOnUse" x1="39.7948" x2="39.7948" xlink:href="#b" y1="76.7119" y2="81.6921"/><linearGradient id="q" gradientUnits="userSpaceOnUse" x1="50.6522" x2="50.6522" xlink:href="#b" y1="59" y2="63.9802"/><linearGradient id="r" gradientUnits="userSpaceOnUse" x1="60.8729" x2="60.8729" xlink:href="#b" y1="84.5437" y2="89.5239"/><path d="m124.065 85.2585h6.98c-1.163-7.4233-7.589-12.5937-15.954-12.5937-9.898 0-17.3211 7.2755-17.3211 19.463 0 11.9662 7.0911 19.3892 17.5241 19.3892 9.362 0 16.065-6.02 16.065-15.7698v-4.5427h-15.345v5.3552h8.716c-.111 5.3923-3.712 8.8083-9.399 8.8083-6.334 0-10.673-4.746-10.673-13.314 0-8.5128 4.413-13.2401 10.525-13.2401 4.561 0 7.664 2.4375 8.882 6.4446zm20.308 9.1222c0-4.0995 2.549-6.4631 6.131-6.4631 3.508 0 5.577 2.2344 5.577 6.0568v17.0256h6.684v-18.0597c0-6.8508-3.878-10.6733-9.768-10.6733-4.358 0-7.128 1.9759-8.439 5.189h-.333v-14.2742h-6.536v37.8182h6.684zm37.578 17.1733c8.31 0 13.591-5.854 13.591-14.625 0-8.7898-5.281-14.662-13.591-14.662-8.309 0-13.591 5.8722-13.591 14.662 0 8.771 5.282 14.625 13.591 14.625zm.037-5.355c-4.598 0-6.851-4.1-6.851-9.2885 0-5.1889 2.253-9.3437 6.851-9.3437 4.524 0 6.777 4.1548 6.777 9.3437 0 5.1885-2.253 9.2885-6.777 9.2885zm41.646-16.0655c-.924-4.8011-4.765-7.8665-11.412-7.8665-6.833 0-11.486 3.3608-11.468 8.6052-.018 4.1363 2.53 6.8693 7.978 7.9957l4.838 1.0156c2.603.5725 3.822 1.6255 3.822 3.2315 0 1.939-2.105 3.398-5.281 3.398-3.066 0-5.06-1.33-5.632-3.878l-6.519.628c.831 5.207 5.208 8.291 12.169 8.291 7.091 0 12.095-3.675 12.114-9.048-.019-4.0444-2.622-6.5188-7.977-7.6821l-4.838-1.0341c-2.881-.6463-4.026-1.6435-4.008-3.287-.018-1.9204 2.106-3.25 4.894-3.25 3.084 0 4.709 1.6804 5.226 3.5455zm20.284-7.4971h-5.595v-6.7955h-6.685v6.7955h-4.025v5.1704h4.025v15.7702c-.036 5.336 3.841 7.959 8.864 7.811 1.902-.056 3.213-.425 3.933-.665l-1.126-5.226c-.369.092-1.126.259-1.957.259-1.681 0-3.029-.591-3.029-3.287v-14.6622h5.595zm18.785-9.4546v37.8182h6.574v-26.0369h.35l10.452 25.9259h4.912l10.452-25.8705h.351v25.9815h6.574v-37.8182h-8.384l-11.227 27.4032h-.443l-11.228-27.4032zm54.991 38.3902c4.451 0 7.11-2.086 8.328-4.468h.222v3.896h6.426v-18.983c0-7.4971-6.112-9.75-11.523-9.75-5.964 0-10.544 2.6591-12.021 7.8296l6.242.8864c.664-1.939 2.548-3.6009 5.816-3.6009 3.103 0 4.801 1.5881 4.801 4.3764v.1108c0 1.9205-2.012 2.0128-7.017 2.5483-5.502.5909-10.765 2.2344-10.765 8.6234 0 5.577 4.081 8.531 9.491 8.531zm1.736-4.911c-2.788 0-4.783-1.275-4.783-3.731 0-2.566 2.235-3.6374 5.226-4.0621 1.754-.2401 5.263-.6832 6.131-1.3849v3.342c0 3.158-2.548 5.836-6.574 5.836zm32.334 4.893c7.128 0 11.67-4.229 12.15-10.249h-6.389c-.572 3.047-2.77 4.802-5.706 4.802-4.173 0-6.869-3.491-6.869-9.2888 0-5.7244 2.751-9.1591 6.869-9.1591 3.213 0 5.189 2.0682 5.706 4.8011h6.389c-.461-6.1491-5.262-10.1932-12.187-10.1932-8.31 0-13.554 6.0015-13.554 14.662 0 8.587 5.115 14.625 13.591 14.625zm24.324-17.1733c0-4.0995 2.548-6.4631 6.131-6.4631 3.508 0 5.576 2.2344 5.576 6.0568v17.0256h6.685v-18.0597c0-6.8508-3.878-10.6733-9.768-10.6733-4.358 0-7.128 1.9759-8.439 5.189h-.333v-14.2742h-6.537v37.8182h6.685zm25.206 16.6193h6.685v-28.3636h-6.685zm3.361-32.3892c2.123 0 3.859-1.625 3.859-3.6193 0-2.0128-1.736-3.6378-3.859-3.6378-2.142 0-3.878 1.625-3.878 3.6378 0 1.9943 1.736 3.6193 3.878 3.6193zm16.882 15.7699c0-4.0995 2.475-6.4631 6.002-6.4631 3.453 0 5.521 2.2713 5.521 6.0568v17.0256h6.685v-18.0597c.018-6.7954-3.86-10.6733-9.713-10.6733-4.248 0-7.165 2.0313-8.458 5.189h-.332v-4.8196h-6.389v28.3636h6.684zm37.56 17.1733c6.611 0 11.153-3.232 12.335-8.162l-6.241-.702c-.905 2.401-3.121 3.657-6.002 3.657-4.321 0-7.183-2.844-7.238-7.7007h19.758v-2.0497c0-9.9531-5.983-14.3296-12.963-14.3296-8.125 0-13.425 5.9645-13.425 14.7174 0 8.9006 5.226 14.5696 13.776 14.5696zm-7.128-17.4134c.203-3.6193 2.881-6.6662 6.869-6.6662 3.841 0 6.427 2.8068 6.463 6.6662z" fill="url(#a)"/><path d="m77.5941 85.8197c-.0046-.0604-.0336-.1092-.0476-.1661-.0151-.0697-.0278-.1359-.0569-.2009-.0371-.0871-.0906-.1603-.1475-.2335-.0325-.0441-.0476-.0987-.0871-.1382l-25.3019-25.1892c-.0255-.0255-.058-.0429-.0859-.0662-.0256-.022-.0511-.0418-.0778-.0604-.014-.0093-.0209-.0244-.0349-.0325-.0058-.0035-.0127-.0035-.0185-.007-.1173-.072-.2439-.1173-.3764-.1428-.0301-.0058-.0615-.0081-.0929-.0128-.0766-.0081-.1533-.0104-.2311-.0035-.0325.0023-.065.007-.0964.0128-.0046 0-.0093.0012-.0139.0012-.0209.0034-.0418.0023-.0627.0081-.0117.0023-.0221.0012-.0326.0046l-36.2704 9.8281c-.0349.0093-.0616.0337-.0941.0465-.0627.0232-.1196.0476-.1765.0813-.0244.0139-.0535.0162-.0778.0325-.0093.0058-.0128.0162-.0221.022-.0372.0268-.0651.0616-.0976.093-.0499.0464-.0941.0929-.1359.1463-.0244.0314-.0546.0569-.0755.0906-.0034.0058-.0092.0093-.0127.0151l-12.3728 20.7084c-.02555.0441-.03252.0929-.05227.1382-.02439.0557-.04878.108-.06387.1672-.02439.0953-.0302.1882-.03136.2846 0 .0383-.0151.072-.01162.1103.00116.0116.00813.0221.00929.0337.01162.0964.04414.187.07898.2776.0151.0406.02091.0836.04065.1208.04065.0778.10337.1452.16376.2148.03136.036.05227.0802.08827.1127.00116.0012.00117.0023.00233.0035l16.92444 15.0895c.0546.05.1231.077.1858.115.0372.022.0616.056.1011.073.0093.005.0197.002.029.007.1382.059.2845.098.4367.1l21.6503.351 12.8408 16.094c.0256.032.0674.047.0964.076.0732.073.1499.14.2416.193.0592.033.1185.056.18.078.0511.018.0929.052.1475.064.0802.017.1626.024.2405.024h.0011 7.259c.0081 0 .0174.001.0232 0 .6423 0 1.1614-.519 1.1614-1.161 0-.279-.0975-.535-.2613-.734l-4.5551-8.407 8.3844-4.342 7.9686-3.413c.0592-.024.1103-.064.1637-.097.0233-.014.0477-.02.0697-.035.0024-.001.0035-.004.0047-.006.0058-.003.0104-.008.0151-.012.0929-.072.1707-.155.2381-.249.0116-.016.0197-.034.029-.051.0174-.026.0279-.053.0418-.079.0325-.062.0616-.123.0813-.192.0058-.017.0174-.029.0221-.046.0046-.019-.0012-.035.0035-.054.0011-.008.0035-.015.0058-.023.0046-.024.0139-.045.0174-.07.0012-.01.0058-.018.007-.028l2.1173-19.3561c.0034-.0325-.0128-.0639-.0116-.0964.0023-.0383.0185-.0731.015-.1138zm-23.4238 34.7563-8.619-10.803 9.957 4.494zm-48.90568-28.4079 20.23218-1.8223-6.4796 14.0832zm54.32608-6.8397-15.4505-5.6527 14.9058-2.2323zm-17.7908-7.6504 9.2961-14.7258 7.1556 12.2613zm-14.1579 9.6318-9.8362-14.4993 19.317 6.799zm11.6712-6.4878 14.583 17.2694-24.2229-9.4401zm15.1266 19.974-12.4518 4.545-10.9744-13.6735zm-11.2648-19.0007 16.3391 5.9779-2.3984 10.5296zm18.1033-5.7677c-.0012-.0127-.0081-.022-.0093-.0336-.0023-.0151 0-.0302-.0023-.0453 0-.0047.0023-.0082.0012-.0128-.0117-.0743-.0488-.1359-.0732-.2044-.0221-.0593-.0314-.1208-.0627-.1731-.0058-.0116-.0047-.0244-.0116-.0348l-.0024-.0047c-.0058-.0093-.0104-.0174-.0162-.0255l-4.4774-7.6725 17.1881 17.1103-11.8617.8606zm-22.3019 1.7712-20.2055-7.1114 29.7897-8.072zm-24.051-5.0952 10.3972 15.3252-20.66425 1.8617zm12.7352 18.497 11.4749 14.2984-17.9197-.29zm17.0185 15.6314 11.7676-4.296-.6515 9.315zm16.763-17.0692 9.9755 13.5222-12.3077-3.2865zm12.0452 12.4142-10.4285-14.1366 12.0731-.8758zm-13.382 19.885h-3.8758l1.0906-5.14zm5.7107-14.42-7.6736 3.972.6504-9.297 11.9826 3.199z" fill="url(#c)"/><path d="m61.92 125.715c1.3759 0 2.4913-1.115 2.4913-2.491s-1.1154-2.492-2.4913-2.492-2.4913 1.116-2.4913 2.492 1.1154 2.491 2.4913 2.491z" fill="url(#d)"/><path d="m54.7969 125.715c1.3759 0 2.4913-1.115 2.4913-2.491s-1.1154-2.492-2.4913-2.492-2.4912 1.116-2.4912 2.492 1.1153 2.491 2.4912 2.491z" fill="url(#e)"/><path d="m60.1192 78.5993c1.3759 0 2.4913-1.1154 2.4913-2.4913s-1.1154-2.4913-2.4913-2.4913-2.4913 1.1154-2.4913 2.4913 1.1154 2.4913 2.4913 2.4913z" fill="url(#f)"/><path d="m73.1563 106.719c1.3759 0 2.4913-1.116 2.4913-2.492s-1.1154-2.491-2.4913-2.491-2.4913 1.115-2.4913 2.491 1.1154 2.492 2.4913 2.492z" fill="url(#g)"/><path d="m75.5089 88.3959c1.3758 0 2.4912-1.1154 2.4912-2.4913s-1.1154-2.4913-2.4912-2.4913c-1.3759 0-2.4913 1.1154-2.4913 2.4913s1.1154 2.4913 2.4913 2.4913z" fill="url(#h)"/><path d="m57.2852 103.323c1.3759 0 2.4913-1.115 2.4913-2.491 0-1.3763-1.1154-2.4917-2.4913-2.4917s-2.4913 1.1154-2.4913 2.4917c0 1.376 1.1154 2.491 2.4913 2.491z" fill="url(#i)"/><path d="m57.2852 116.087c1.3759 0 2.4913-1.116 2.4913-2.492s-1.1154-2.491-2.4913-2.491-2.4913 1.115-2.4913 2.491 1.1154 2.492 2.4913 2.492z" fill="url(#j)"/><path d="m41.6036 108.833c1.3759 0 2.4913-1.115 2.4913-2.491s-1.1154-2.492-2.4913-2.492-2.4913 1.116-2.4913 2.492 1.1154 2.491 2.4913 2.491z" fill="url(#k)"/><path d="m27.1641 91.5001c1.3759 0 2.4913-1.1154 2.4913-2.4912 0-1.3759-1.1154-2.4913-2.4913-2.4913s-2.4912 1.1154-2.4912 2.4913c0 1.3758 1.1153 2.4912 2.4912 2.4912z" fill="url(#l)"/><path d="m19.4171 108.304c1.3759 0 2.4912-1.115 2.4912-2.491s-1.1153-2.491-2.4912-2.491-2.4913 1.115-2.4913 2.491 1.1154 2.491 2.4913 2.491z" fill="url(#m)"/><path d="m2.49128 93.7433c1.37589 0 2.49128-1.1154 2.49128-2.4913s-1.11539-2.4913-2.49128-2.4913c-1.3759 0-2.49128 1.1154-2.49128 2.4913s1.11538 2.4913 2.49128 2.4913z" fill="url(#n)"/><path d="m15.5565 73.6165c1.3753 0 2.4901-1.1149 2.4901-2.4902 0-1.3752-1.1148-2.4901-2.4901-2.4901-1.3752 0-2.4901 1.1149-2.4901 2.4901 0 1.3753 1.1149 2.4902 2.4901 2.4902z" fill="url(#o)"/><path d="m39.7948 81.6921c1.3753 0 2.4901-1.1148 2.4901-2.4901 0-1.3752-1.1148-2.4901-2.4901-2.4901-1.3752 0-2.4901 1.1149-2.4901 2.4901 0 1.3753 1.1149 2.4901 2.4901 2.4901z" fill="url(#p)"/><path d="m50.6522 63.9802c1.3753 0 2.4901-1.1148 2.4901-2.4901 0-1.3752-1.1148-2.4901-2.4901-2.4901-1.3752 0-2.4901 1.1149-2.4901 2.4901 0 1.3753 1.1149 2.4901 2.4901 2.4901z" fill="url(#q)"/><path d="m60.8729 89.5239c1.3753 0 2.4901-1.1148 2.4901-2.4901 0-1.3752-1.1148-2.4901-2.4901-2.4901-1.3752 0-2.4901 1.1149-2.4901 2.4901 0 1.3753 1.1149 2.4901 2.4901 2.4901z" fill="url(#r)"/></svg>