<svg width="100" height="100" viewBox="0 0 100 100" fill="none" xmlns="http://www.w3.org/2000/svg">
<path d="M94.5567 42.9545C94.5513 42.8848 94.5178 42.8285 94.5017 42.7629C94.4843 42.6824 94.4695 42.606 94.436 42.5309C94.3931 42.4304 94.3314 42.346 94.2658 42.2615C94.2282 42.2106 94.2108 42.1476 94.1652 42.102L64.9627 13.0295C64.9332 13 64.8957 12.9799 64.8635 12.9531C64.834 12.9276 64.8045 12.9048 64.7737 12.8834C64.7576 12.8727 64.7496 12.8552 64.7335 12.8459C64.7268 12.8418 64.7188 12.8418 64.712 12.8378C64.5767 12.7547 64.4305 12.7024 64.2777 12.6729C64.2429 12.6662 64.2067 12.6636 64.1705 12.6582C64.082 12.6488 63.9935 12.6461 63.9037 12.6542C63.8662 12.6569 63.8287 12.6622 63.7925 12.6689C63.7871 12.6689 63.7818 12.6703 63.7764 12.6703C63.7523 12.6743 63.7281 12.6729 63.704 12.6796C63.6906 12.6823 63.6785 12.681 63.6665 12.685L21.8044 24.0282C21.7642 24.0389 21.7334 24.0671 21.6958 24.0818C21.6234 24.1086 21.5578 24.1368 21.4921 24.1757C21.4639 24.1917 21.4304 24.1944 21.4023 24.2132C21.3915 24.2199 21.3875 24.232 21.3768 24.2387C21.3339 24.2695 21.3017 24.3097 21.2642 24.3459C21.2065 24.3995 21.1556 24.4531 21.1073 24.5148C21.0792 24.551 21.0443 24.5805 21.0202 24.6194C21.0162 24.6261 21.0095 24.6301 21.0055 24.6368L6.72526 48.5377C6.69577 48.5886 6.68773 48.6449 6.66494 48.6972C6.63679 48.7615 6.60864 48.8219 6.59122 48.8902C6.56307 49.0001 6.55636 49.1074 6.55502 49.2186C6.55502 49.2629 6.5376 49.3017 6.54162 49.346C6.54296 49.3594 6.551 49.3715 6.55234 49.3849C6.56575 49.4961 6.60328 49.6007 6.6435 49.7052C6.66092 49.7521 6.66762 49.8017 6.69041 49.8446C6.73733 49.9345 6.80972 50.0122 6.87942 50.0926C6.91561 50.1342 6.93974 50.1851 6.9813 50.2227C6.98264 50.224 6.98264 50.2253 6.98398 50.2267L26.5176 67.6423C26.5806 67.6999 26.6596 67.7308 26.732 67.775C26.7749 67.8005 26.8031 67.8393 26.8487 67.8594C26.8594 67.8648 26.8714 67.8621 26.8822 67.8675C27.0417 67.9359 27.2106 67.9801 27.3862 67.9828L52.3742 68.3876L67.1946 86.9627C67.2241 87.0003 67.2724 87.0177 67.3059 87.0512C67.3903 87.1356 67.4788 87.2121 67.5847 87.2737C67.6531 87.3113 67.7214 87.3381 67.7925 87.3635C67.8515 87.385 67.8997 87.4239 67.9627 87.4373C68.0552 87.4574 68.1504 87.4654 68.2402 87.4654H68.2415H76.6196C76.629 87.4654 76.6397 87.4668 76.6464 87.4654C77.3877 87.4654 77.9869 86.8662 77.9869 86.1249C77.9869 85.8032 77.8743 85.5083 77.6853 85.2777L72.4279 75.5753L82.1049 70.5632L91.3019 66.6249C91.3703 66.5967 91.4293 66.5511 91.491 66.5123C91.5178 66.4962 91.5459 66.4895 91.5714 66.472C91.5741 66.4707 91.5754 66.468 91.5768 66.4653C91.5835 66.4613 91.5888 66.456 91.5942 66.4519C91.7014 66.3688 91.7912 66.2723 91.869 66.1637C91.8824 66.145 91.8918 66.1249 91.9025 66.1047C91.9226 66.0753 91.9347 66.0444 91.9507 66.0136C91.9883 65.9425 92.0218 65.8715 92.0446 65.7924C92.0513 65.7723 92.0647 65.7589 92.07 65.7388C92.0754 65.7174 92.0687 65.6986 92.0741 65.6771C92.0754 65.6678 92.0781 65.6597 92.0808 65.6503C92.0861 65.6222 92.0969 65.598 92.1009 65.5699C92.1022 65.5578 92.1076 65.5484 92.1089 65.5377L94.5526 43.1972C94.5566 43.1596 94.5379 43.1234 94.5392 43.0859C94.5419 43.0417 94.5607 43.0015 94.5567 42.9545ZM67.5217 83.0686L57.574 70.6007L69.066 75.7871L67.5217 83.0686ZM11.0765 50.2816L34.4278 48.1784L26.9492 64.4332L11.0765 50.2816ZM73.7778 42.3875L55.9453 35.8634L73.1491 33.287L73.7778 42.3875ZM53.2442 33.5577L63.9734 16.5617L72.2322 30.7132L53.2442 33.5577ZM36.9036 44.6744L25.5511 27.9397L47.846 35.787L36.9036 44.6744ZM50.3742 37.1864L67.2054 57.1181L39.2482 46.2226L50.3742 37.1864ZM67.8327 60.2401L53.4613 65.4854L40.7951 49.7039L67.8327 60.2401ZM54.8313 38.3098L73.6893 45.2092L70.9212 57.3621L54.8313 38.3098ZM75.7255 31.6529C75.7241 31.6382 75.7161 31.6274 75.7148 31.614C75.7121 31.5966 75.7148 31.5792 75.7121 31.5617C75.7121 31.5564 75.7148 31.5524 75.7134 31.547C75.7 31.4612 75.6571 31.3902 75.629 31.3111C75.6035 31.2427 75.5928 31.1717 75.5566 31.1113C75.5499 31.0979 75.5512 31.0832 75.5432 31.0711L75.5405 31.0658C75.5338 31.055 75.5284 31.0457 75.5217 31.0363L70.3542 22.181L90.192 41.9291L76.5016 42.9224L75.7255 31.6529ZM49.9855 33.6971L26.665 25.4893L61.0472 16.173L49.9855 33.6971ZM22.2267 27.8164L34.2267 45.5041L10.3768 47.6529L22.2267 27.8164ZM36.9251 49.165L50.1691 65.6678L29.4867 65.3326L36.9251 49.165ZM56.5672 67.2066L70.1491 62.2482L69.397 72.9989L56.5672 67.2066ZM75.9145 47.5055L87.4279 63.1128L73.2228 59.3192L75.9145 47.5055ZM89.8167 61.834L77.7805 45.5175L91.7148 44.5068L89.8167 61.834ZM74.3716 84.7844H69.8984L71.1571 78.8514L74.3716 84.7844ZM80.9628 68.141L72.1062 72.7254L72.8568 61.9948L86.6867 65.6879L80.9628 68.141Z" fill="url(#paint0_linear_226_3)"/>
<path d="M76.4652 89C78.0532 89 79.3405 87.7126 79.3405 86.1246C79.3405 84.5366 78.0532 83.2493 76.4652 83.2493C74.8772 83.2493 73.5898 84.5366 73.5898 86.1246C73.5898 87.7126 74.8772 89 76.4652 89Z" fill="url(#paint1_linear_226_3)"/>
<path d="M68.2455 89C69.8335 89 71.1208 87.7126 71.1208 86.1246C71.1208 84.5366 69.8335 83.2493 68.2455 83.2493C66.6575 83.2493 65.3701 84.5366 65.3701 86.1246C65.3701 87.7126 66.6575 89 68.2455 89Z" fill="url(#paint2_linear_226_3)"/>
<path d="M74.388 34.6208C75.976 34.6208 77.2634 33.3335 77.2634 31.7455C77.2634 30.1575 75.976 28.8701 74.388 28.8701C72.8 28.8701 71.5127 30.1575 71.5127 31.7455C71.5127 33.3335 72.8 34.6208 74.388 34.6208Z" fill="url(#paint3_linear_226_3)"/>
<path d="M89.4339 67.0752C91.0219 67.0752 92.3093 65.7878 92.3093 64.1998C92.3093 62.6118 91.0219 61.3245 89.4339 61.3245C87.8459 61.3245 86.5586 62.6118 86.5586 64.1998C86.5586 65.7878 87.8459 67.0752 89.4339 67.0752Z" fill="url(#paint4_linear_226_3)"/>
<path d="M92.1488 45.9277C93.7368 45.9277 95.0241 44.6404 95.0241 43.0523C95.0241 41.4643 93.7368 40.177 92.1488 40.177C90.5608 40.177 89.2734 41.4643 89.2734 43.0523C89.2734 44.6404 90.5608 45.9277 92.1488 45.9277Z" fill="url(#paint5_linear_226_3)"/>
<path d="M71.1166 63.156C72.7046 63.156 73.9919 61.8686 73.9919 60.2806C73.9919 58.6926 72.7046 57.4053 71.1166 57.4053C69.5285 57.4053 68.2412 58.6926 68.2412 60.2806C68.2412 61.8686 69.5285 63.156 71.1166 63.156Z" fill="url(#paint6_linear_226_3)"/>
<path d="M71.1166 77.8874C72.7046 77.8874 73.9919 76.6001 73.9919 75.0121C73.9919 73.4241 72.7046 72.1367 71.1166 72.1367C69.5285 72.1367 68.2412 73.4241 68.2412 75.0121C68.2412 76.6001 69.5285 77.8874 71.1166 77.8874Z" fill="url(#paint7_linear_226_3)"/>
<path d="M53.0169 69.5153C54.605 69.5153 55.8923 68.228 55.8923 66.64C55.8923 65.052 54.605 63.7646 53.0169 63.7646C51.4289 63.7646 50.1416 65.052 50.1416 66.64C50.1416 68.228 51.4289 69.5153 53.0169 69.5153Z" fill="url(#paint8_linear_226_3)"/>
<path d="M36.3509 49.5107C37.9389 49.5107 39.2263 48.2234 39.2263 46.6354C39.2263 45.0473 37.9389 43.76 36.3509 43.76C34.7629 43.76 33.4756 45.0473 33.4756 46.6354C33.4756 48.2234 34.7629 49.5107 36.3509 49.5107Z" fill="url(#paint9_linear_226_3)"/>
<path d="M27.4115 68.9052C28.9995 68.9052 30.2868 67.6179 30.2868 66.0299C30.2868 64.4419 28.9995 63.1545 27.4115 63.1545C25.8235 63.1545 24.5361 64.4419 24.5361 66.0299C24.5361 67.6179 25.8235 68.9052 27.4115 68.9052Z" fill="url(#paint10_linear_226_3)"/>
<path d="M7.87534 52.0993C9.46335 52.0993 10.7507 50.812 10.7507 49.224C10.7507 47.636 9.46335 46.3486 7.87534 46.3486C6.28734 46.3486 5 47.636 5 49.224C5 50.812 6.28734 52.0993 7.87534 52.0993Z" fill="url(#paint11_linear_226_3)"/>
<path d="M22.9551 28.8698C24.5423 28.8698 25.8291 27.5831 25.8291 25.9958C25.8291 24.4086 24.5423 23.1218 22.9551 23.1218C21.3678 23.1218 20.0811 24.4086 20.0811 25.9958C20.0811 27.5831 21.3678 28.8698 22.9551 28.8698Z" fill="url(#paint12_linear_226_3)"/>
<path d="M50.9316 38.1904C52.5189 38.1904 53.8056 36.9037 53.8056 35.3164C53.8056 33.7291 52.5189 32.4424 50.9316 32.4424C49.3444 32.4424 48.0576 33.7291 48.0576 35.3164C48.0576 36.9037 49.3444 38.1904 50.9316 38.1904Z" fill="url(#paint13_linear_226_3)"/>
<path d="M63.4609 17.748C65.0482 17.748 66.3349 16.4613 66.3349 14.874C66.3349 13.2867 65.0482 12 63.4609 12C61.8737 12 60.5869 13.2867 60.5869 14.874C60.5869 16.4613 61.8737 17.748 63.4609 17.748Z" fill="url(#paint14_linear_226_3)"/>
<path d="M75.2578 47.2295C76.8451 47.2295 78.1318 45.9427 78.1318 44.3554C78.1318 42.7682 76.8451 41.4814 75.2578 41.4814C73.6705 41.4814 72.3838 42.7682 72.3838 44.3554C72.3838 45.9427 73.6705 47.2295 75.2578 47.2295Z" fill="url(#paint15_linear_226_3)"/>
<defs>
<linearGradient id="paint0_linear_226_3" x1="50.5491" y1="12.6494" x2="50.5491" y2="87.466" gradientUnits="userSpaceOnUse">
<stop stop-color="#7A5AFF"/>
<stop offset="1" stop-color="#E750FF"/>
</linearGradient>
<linearGradient id="paint1_linear_226_3" x1="76.4652" y1="83.2493" x2="76.4652" y2="89" gradientUnits="userSpaceOnUse">
<stop stop-color="#7A5AFF"/>
<stop offset="1" stop-color="#E750FF"/>
</linearGradient>
<linearGradient id="paint2_linear_226_3" x1="68.2455" y1="83.2493" x2="68.2455" y2="89" gradientUnits="userSpaceOnUse">
<stop stop-color="#7A5AFF"/>
<stop offset="1" stop-color="#E750FF"/>
</linearGradient>
<linearGradient id="paint3_linear_226_3" x1="74.388" y1="28.8701" x2="74.388" y2="34.6208" gradientUnits="userSpaceOnUse">
<stop stop-color="#7A5AFF"/>
<stop offset="1" stop-color="#E750FF"/>
</linearGradient>
<linearGradient id="paint4_linear_226_3" x1="89.4339" y1="61.3245" x2="89.4339" y2="67.0752" gradientUnits="userSpaceOnUse">
<stop stop-color="#7A5AFF"/>
<stop offset="1" stop-color="#E750FF"/>
</linearGradient>
<linearGradient id="paint5_linear_226_3" x1="92.1488" y1="40.177" x2="92.1488" y2="45.9277" gradientUnits="userSpaceOnUse">
<stop stop-color="#7A5AFF"/>
<stop offset="1" stop-color="#E750FF"/>
</linearGradient>
<linearGradient id="paint6_linear_226_3" x1="71.1166" y1="57.4053" x2="71.1166" y2="63.156" gradientUnits="userSpaceOnUse">
<stop stop-color="#7A5AFF"/>
<stop offset="1" stop-color="#E750FF"/>
</linearGradient>
<linearGradient id="paint7_linear_226_3" x1="71.1166" y1="72.1367" x2="71.1166" y2="77.8874" gradientUnits="userSpaceOnUse">
<stop stop-color="#7A5AFF"/>
<stop offset="1" stop-color="#E750FF"/>
</linearGradient>
<linearGradient id="paint8_linear_226_3" x1="53.0169" y1="63.7646" x2="53.0169" y2="69.5153" gradientUnits="userSpaceOnUse">
<stop stop-color="#7A5AFF"/>
<stop offset="1" stop-color="#E750FF"/>
</linearGradient>
<linearGradient id="paint9_linear_226_3" x1="36.3509" y1="43.76" x2="36.3509" y2="49.5107" gradientUnits="userSpaceOnUse">
<stop stop-color="#7A5AFF"/>
<stop offset="1" stop-color="#E750FF"/>
</linearGradient>
<linearGradient id="paint10_linear_226_3" x1="27.4115" y1="63.1545" x2="27.4115" y2="68.9052" gradientUnits="userSpaceOnUse">
<stop stop-color="#7A5AFF"/>
<stop offset="1" stop-color="#E750FF"/>
</linearGradient>
<linearGradient id="paint11_linear_226_3" x1="7.87534" y1="46.3486" x2="7.87534" y2="52.0993" gradientUnits="userSpaceOnUse">
<stop stop-color="#7A5AFF"/>
<stop offset="1" stop-color="#E750FF"/>
</linearGradient>
<linearGradient id="paint12_linear_226_3" x1="22.9551" y1="23.1218" x2="22.9551" y2="28.8698" gradientUnits="userSpaceOnUse">
<stop stop-color="#7A5AFF"/>
<stop offset="1" stop-color="#E750FF"/>
</linearGradient>
<linearGradient id="paint13_linear_226_3" x1="50.9316" y1="32.4424" x2="50.9316" y2="38.1904" gradientUnits="userSpaceOnUse">
<stop stop-color="#7A5AFF"/>
<stop offset="1" stop-color="#E750FF"/>
</linearGradient>
<linearGradient id="paint14_linear_226_3" x1="63.4609" y1="12" x2="63.4609" y2="17.748" gradientUnits="userSpaceOnUse">
<stop stop-color="#7A5AFF"/>
<stop offset="1" stop-color="#E750FF"/>
</linearGradient>
<linearGradient id="paint15_linear_226_3" x1="75.2578" y1="41.4814" x2="75.2578" y2="47.2295" gradientUnits="userSpaceOnUse">
<stop stop-color="#7A5AFF"/>
<stop offset="1" stop-color="#E750FF"/>
</linearGradient>
</defs>
</svg>
