<svg width="944" height="343" viewBox="0 0 944 343" fill="none" xmlns="http://www.w3.org/2000/svg">
<path d="M100.611 67.8949H124.773C120.746 42.1989 98.5014 24.3011 69.5455 24.3011C35.2841 24.3011 9.58807 49.4858 9.58807 91.6733C9.58807 133.094 34.1335 158.79 70.2486 158.79C102.656 158.79 125.859 137.952 125.859 104.202V88.4773H72.7415V107.014H102.912C102.528 125.679 90.0639 137.504 70.3764 137.504C48.4517 137.504 33.4304 121.077 33.4304 91.4176C33.4304 61.9503 48.7074 45.5866 69.8651 45.5866C85.6534 45.5866 96.392 54.0241 100.611 67.8949ZM170.907 99.4716C170.907 85.2812 179.728 77.0994 192.129 77.0994C204.274 77.0994 211.433 84.8338 211.433 98.0653V157H234.572V94.4858C234.572 70.7713 221.149 57.5398 200.758 57.5398C185.673 57.5398 176.085 64.3793 171.547 75.5014H170.396V26.0909H147.768V157H170.907V99.4716ZM300.985 158.918C329.75 158.918 348.031 138.655 348.031 108.293C348.031 77.8665 329.75 57.5398 300.985 57.5398C272.221 57.5398 253.94 77.8665 253.94 108.293C253.94 138.655 272.221 158.918 300.985 158.918ZM301.113 140.381C285.197 140.381 277.399 126.19 277.399 108.229C277.399 90.267 285.197 75.8849 301.113 75.8849C316.774 75.8849 324.572 90.267 324.572 108.229C324.572 126.19 316.774 140.381 301.113 140.381ZM445.27 84.7699C442.074 68.1506 428.778 57.5398 405.767 57.5398C382.116 57.5398 366.009 69.1733 366.072 87.3267C366.009 101.645 374.83 111.105 393.686 115.004L410.433 118.52C419.446 120.501 423.665 124.145 423.665 129.706C423.665 136.418 416.378 141.467 405.384 141.467C394.773 141.467 387.869 136.865 385.888 128.044L363.324 130.217C366.2 148.243 381.349 158.918 405.447 158.918C429.993 158.918 447.315 146.197 447.379 127.597C447.315 113.598 438.303 105.033 419.766 101.006L403.018 97.4261C393.047 95.1889 389.084 91.7372 389.148 86.0483C389.084 79.4006 396.435 74.7983 406.087 74.7983C416.761 74.7983 422.386 80.6151 424.176 87.071L445.27 84.7699ZM515.487 58.8182H496.119V35.2955H472.979V58.8182H459.045V76.7159H472.979V131.304C472.852 149.777 486.275 158.854 503.661 158.342C510.245 158.151 514.783 156.872 517.276 156.041L513.377 137.952C512.099 138.271 509.478 138.847 506.602 138.847C500.785 138.847 496.119 136.801 496.119 127.469V76.7159H515.487V58.8182ZM12.9119 210.091V341H35.6676V250.872H36.8821L73.0611 340.616H90.0639L126.243 251.064H127.457V341H150.213V210.091H121.193L82.3295 304.949H80.7955L41.9318 210.091H12.9119ZM203.267 342.982C218.672 342.982 227.876 335.759 232.095 327.513H232.862V341H255.107V275.29C255.107 249.338 233.949 241.54 215.22 241.54C194.574 241.54 178.722 250.744 173.608 268.642L195.213 271.71C197.514 264.999 204.034 259.246 215.348 259.246C226.087 259.246 231.967 264.743 231.967 274.395V274.778C231.967 281.426 225 281.746 207.678 283.599C188.629 285.645 170.412 291.334 170.412 313.45C170.412 332.754 184.538 342.982 203.267 342.982ZM209.276 325.979C199.624 325.979 192.72 321.568 192.72 313.067C192.72 304.182 200.455 300.474 210.81 299.004C216.882 298.173 229.027 296.639 232.031 294.21V305.78C232.031 316.71 223.21 325.979 209.276 325.979ZM321.2 342.918C345.874 342.918 361.598 328.28 363.26 307.442H341.143C339.162 317.989 331.555 324.061 321.392 324.061C306.946 324.061 297.614 311.98 297.614 291.909C297.614 272.094 307.138 260.205 321.392 260.205C332.514 260.205 339.354 267.364 341.143 276.824H363.26C361.662 255.538 345.043 241.54 321.072 241.54C292.308 241.54 274.155 262.314 274.155 292.293C274.155 322.016 291.861 342.918 321.2 342.918ZM405.4 283.472C405.4 269.281 414.221 261.099 426.621 261.099C438.766 261.099 445.925 268.834 445.925 282.065V341H469.064V278.486C469.064 254.771 455.641 241.54 435.25 241.54C420.165 241.54 410.577 248.379 406.039 259.501H404.888V210.091H382.26V341H405.4V283.472ZM492.651 341H515.79V242.818H492.651V341ZM504.284 228.884C511.635 228.884 517.644 223.259 517.644 216.355C517.644 209.388 511.635 203.763 504.284 203.763C496.87 203.763 490.861 209.388 490.861 216.355C490.861 223.259 496.87 228.884 504.284 228.884ZM562.724 283.472C562.724 269.281 571.289 261.099 583.498 261.099C595.451 261.099 602.61 268.962 602.61 282.065V341H625.749V278.486C625.813 254.963 612.39 241.54 592.127 241.54C577.425 241.54 567.326 248.571 562.852 259.501H561.701V242.818H539.585V341H562.724V283.472ZM692.738 342.918C715.621 342.918 731.346 331.732 735.437 314.665L713.832 312.236C710.7 320.545 703.029 324.892 693.058 324.892C678.1 324.892 668.192 315.048 668.001 298.237H736.396V291.142C736.396 256.689 715.685 241.54 691.523 241.54C663.398 241.54 645.053 262.186 645.053 292.484C645.053 323.294 663.143 342.918 692.738 342.918ZM668.065 282.641C668.768 270.112 678.036 259.565 691.843 259.565C705.138 259.565 714.087 269.281 714.215 282.641H668.065Z" fill="url(#paint0_linear_226_2)"/>
<path d="M849.159 94.0692C849.142 93.8574 849.041 93.6863 848.992 93.4867C848.939 93.2423 848.894 93.0101 848.792 92.782C848.662 92.4764 848.474 92.2198 848.275 91.9631C848.161 91.8083 848.108 91.6169 847.969 91.4784L759.224 3.12825C759.134 3.03863 759.02 2.97752 758.922 2.89605C758.833 2.81865 758.743 2.7494 758.649 2.68422C758.601 2.65163 758.576 2.59867 758.527 2.57016C758.507 2.55793 758.482 2.55793 758.462 2.54571C758.051 2.29314 757.607 2.13427 757.142 2.04465C757.036 2.02428 756.926 2.01613 756.816 1.99984C756.547 1.97132 756.279 1.96318 756.006 1.98762C755.892 1.99576 755.778 2.01206 755.668 2.03243C755.651 2.03243 755.635 2.0365 755.619 2.0365C755.545 2.04872 755.472 2.04465 755.399 2.06502C755.358 2.07317 755.321 2.06909 755.285 2.08131L628.067 36.5529C627.945 36.5854 627.852 36.671 627.737 36.7158C627.518 36.7973 627.318 36.8828 627.118 37.001C627.033 37.0498 626.931 37.058 626.845 37.115C626.813 37.1354 626.801 37.1721 626.768 37.1924C626.638 37.2861 626.54 37.4083 626.426 37.5183C626.251 37.6813 626.096 37.8442 625.949 38.0316C625.864 38.1416 625.758 38.2312 625.684 38.3493C625.672 38.3697 625.652 38.3819 625.64 38.4023L582.243 111.036C582.153 111.191 582.128 111.362 582.059 111.521C581.974 111.716 581.888 111.9 581.835 112.108C581.75 112.442 581.729 112.767 581.725 113.106C581.725 113.24 581.672 113.358 581.684 113.493C581.689 113.533 581.713 113.57 581.717 113.611C581.758 113.949 581.872 114.267 581.994 114.584C582.047 114.727 582.067 114.878 582.137 115.008C582.279 115.281 582.499 115.517 582.711 115.762C582.821 115.888 582.894 116.043 583.021 116.157C583.025 116.161 583.025 116.165 583.029 116.169L642.391 169.094C642.582 169.269 642.822 169.363 643.042 169.498C643.173 169.575 643.258 169.693 643.397 169.754C643.429 169.771 643.466 169.762 643.499 169.779C643.983 169.986 644.497 170.121 645.03 170.129L720.968 171.359L766.007 227.808C766.096 227.922 766.243 227.975 766.345 228.077C766.601 228.334 766.87 228.566 767.192 228.753C767.4 228.868 767.608 228.949 767.823 229.026C768.003 229.092 768.149 229.21 768.341 229.25C768.622 229.312 768.911 229.336 769.184 229.336H769.188H794.649C794.677 229.336 794.71 229.34 794.73 229.336C796.983 229.336 798.804 227.515 798.804 225.262C798.804 224.285 798.462 223.388 797.887 222.688L781.91 193.202L811.318 177.971L839.268 166.002C839.476 165.917 839.655 165.778 839.842 165.66C839.924 165.611 840.009 165.591 840.087 165.538C840.095 165.534 840.099 165.526 840.103 165.518C840.123 165.505 840.14 165.489 840.156 165.477C840.482 165.224 840.755 164.931 840.991 164.601C841.032 164.544 841.06 164.483 841.093 164.422C841.154 164.332 841.191 164.238 841.239 164.145C841.354 163.929 841.455 163.713 841.525 163.473C841.545 163.412 841.586 163.371 841.602 163.31C841.618 163.245 841.598 163.187 841.614 163.122C841.618 163.094 841.626 163.069 841.635 163.041C841.651 162.955 841.683 162.882 841.696 162.796C841.7 162.76 841.716 162.731 841.72 162.699L849.146 94.8066C849.159 94.6925 849.102 94.5825 849.106 94.4685C849.114 94.334 849.171 94.2118 849.159 94.0692ZM767.001 215.974L736.77 178.085L771.693 193.846L767.001 215.974ZM595.466 116.336L666.429 109.944L643.702 159.342L595.466 116.336ZM786.012 92.3461L731.82 72.5194L784.102 64.6898L786.012 92.3461ZM723.612 65.5127L756.218 13.8624L781.315 56.8683L723.612 65.5127ZM673.953 99.2958L639.453 48.4399L707.207 72.2872L673.953 99.2958ZM714.89 76.5402L766.039 137.112L681.078 104.001L714.89 76.5402ZM767.946 146.599L724.272 162.54L685.779 114.58L767.946 146.599ZM728.435 79.9539L785.744 100.921L777.331 137.853L728.435 79.9539ZM791.932 59.724C791.927 59.6792 791.903 59.6466 791.899 59.6059C791.891 59.5529 791.899 59.4999 791.891 59.447C791.891 59.4307 791.899 59.4185 791.895 59.4022C791.854 59.1414 791.724 58.9255 791.638 58.6852C791.561 58.4774 791.528 58.2615 791.418 58.0782C791.398 58.0375 791.402 57.9927 791.378 57.956L791.369 57.9397C791.349 57.9071 791.333 57.8786 791.312 57.8501L775.608 30.9393L835.895 90.9529L794.29 93.9715L791.932 59.724ZM713.709 65.9364L642.839 40.9932L747.325 12.681L713.709 65.9364ZM629.351 48.0651L665.818 101.817L593.339 108.348L629.351 48.0651ZM674.019 112.943L714.267 163.094L651.414 162.075L674.019 112.943ZM733.71 167.77L774.985 152.702L772.7 185.373L733.71 167.77ZM792.506 107.899L827.495 155.329L784.326 143.801L792.506 107.899ZM834.754 151.443L798.176 101.858L840.522 98.7866L834.754 151.443ZM787.817 221.189H774.223L778.048 203.158L787.817 221.189ZM807.847 170.61L780.933 184.542L783.214 151.932L825.242 163.155L807.847 170.61Z" fill="url(#paint1_linear_226_2)"/>
<path d="M794.18 234C799.006 234 802.919 230.088 802.919 225.262C802.919 220.436 799.006 216.524 794.18 216.524C789.355 216.524 785.442 220.436 785.442 225.262C785.442 230.088 789.355 234 794.18 234Z" fill="url(#paint2_linear_226_2)"/>
<path d="M769.197 234C774.023 234 777.935 230.088 777.935 225.262C777.935 220.436 774.023 216.524 769.197 216.524C764.371 216.524 760.459 220.436 760.459 225.262C760.459 230.088 764.371 234 769.197 234Z" fill="url(#paint3_linear_226_2)"/>
<path d="M787.867 68.7435C792.693 68.7435 796.605 64.8313 796.605 60.0054C796.605 55.1795 792.693 51.2673 787.867 51.2673C783.041 51.2673 779.129 55.1795 779.129 60.0054C779.129 64.8313 783.041 68.7435 787.867 68.7435Z" fill="url(#paint4_linear_226_2)"/>
<path d="M833.593 167.371C838.418 167.371 842.331 163.459 842.331 158.633C842.331 153.807 838.418 149.895 833.593 149.895C828.767 149.895 824.854 153.807 824.854 158.633C824.854 163.459 828.767 167.371 833.593 167.371Z" fill="url(#paint5_linear_226_2)"/>
<path d="M841.844 103.105C846.669 103.105 850.582 99.1929 850.582 94.367C850.582 89.5411 846.669 85.6289 841.844 85.6289C837.018 85.6289 833.105 89.5411 833.105 94.367C833.105 99.1929 837.018 103.105 841.844 103.105Z" fill="url(#paint6_linear_226_2)"/>
<path d="M777.926 155.46C782.751 155.46 786.664 151.548 786.664 146.722C786.664 141.897 782.751 137.984 777.926 137.984C773.1 137.984 769.188 141.897 769.188 146.722C769.188 151.548 773.1 155.46 777.926 155.46Z" fill="url(#paint7_linear_226_2)"/>
<path d="M777.926 200.229C782.751 200.229 786.664 196.317 786.664 191.491C786.664 186.665 782.751 182.753 777.926 182.753C773.1 182.753 769.188 186.665 769.188 191.491C769.188 196.317 773.1 200.229 777.926 200.229Z" fill="url(#paint8_linear_226_2)"/>
<path d="M722.923 174.786C727.749 174.786 731.661 170.874 731.661 166.048C731.661 161.222 727.749 157.31 722.923 157.31C718.097 157.31 714.185 161.222 714.185 166.048C714.185 170.874 718.097 174.786 722.923 174.786Z" fill="url(#paint9_linear_226_2)"/>
<path d="M672.275 113.993C677.101 113.993 681.013 110.081 681.013 105.255C681.013 100.429 677.101 96.5173 672.275 96.5173C667.449 96.5173 663.537 100.429 663.537 105.255C663.537 110.081 667.449 113.993 672.275 113.993Z" fill="url(#paint10_linear_226_2)"/>
<path d="M645.105 172.933C649.931 172.933 653.843 169.021 653.843 164.195C653.843 159.369 649.931 155.457 645.105 155.457C640.279 155.457 636.367 159.369 636.367 164.195C636.367 169.021 640.279 172.933 645.105 172.933Z" fill="url(#paint11_linear_226_2)"/>
<path d="M585.738 121.86C590.564 121.86 594.476 117.948 594.476 113.122C594.476 108.296 590.564 104.384 585.738 104.384C580.912 104.384 577 108.296 577 113.122C577 117.948 580.912 121.86 585.738 121.86Z" fill="url(#paint12_linear_226_2)"/>
<path d="M631.563 51.2668C636.387 51.2668 640.297 47.3565 640.297 42.5328C640.297 37.7092 636.387 33.7988 631.563 33.7988C626.739 33.7988 622.829 37.7092 622.829 42.5328C622.829 47.3565 626.739 51.2668 631.563 51.2668Z" fill="url(#paint13_linear_226_2)"/>
<path d="M716.582 79.5918C721.405 79.5918 725.316 75.6814 725.316 70.8578C725.316 66.0341 721.405 62.1238 716.582 62.1238C711.758 62.1238 707.848 66.0341 707.848 70.8578C707.848 75.6814 711.758 79.5918 716.582 79.5918Z" fill="url(#paint14_linear_226_2)"/>
<path d="M754.661 17.468C759.484 17.468 763.395 13.5576 763.395 8.73398C763.395 3.91034 759.484 0 754.661 0C749.837 0 745.927 3.91034 745.927 8.73398C745.927 13.5576 749.837 17.468 754.661 17.468Z" fill="url(#paint15_linear_226_2)"/>
<path d="M790.508 107.061C795.332 107.061 799.242 103.151 799.242 98.3272C799.242 93.5036 795.332 89.5933 790.508 89.5933C785.685 89.5933 781.774 93.5036 781.774 98.3272C781.774 103.151 785.685 107.061 790.508 107.061Z" fill="url(#paint16_linear_226_2)"/>
<defs>
<linearGradient id="paint0_linear_226_2" x1="1.13085e-05" y1="-60" x2="560" y2="288" gradientUnits="userSpaceOnUse">
<stop stop-color="#5A36F4"/>
<stop offset="1" stop-color="#DD21FC"/>
</linearGradient>
<linearGradient id="paint1_linear_226_2" x1="715.422" y1="1.97314" x2="715.422" y2="229.338" gradientUnits="userSpaceOnUse">
<stop stop-color="#512EE9"/>
<stop offset="1" stop-color="#DE13FF"/>
</linearGradient>
<linearGradient id="paint2_linear_226_2" x1="794.18" y1="216.524" x2="794.18" y2="234" gradientUnits="userSpaceOnUse">
<stop stop-color="#512EE9"/>
<stop offset="1" stop-color="#DE13FF"/>
</linearGradient>
<linearGradient id="paint3_linear_226_2" x1="769.197" y1="216.524" x2="769.197" y2="234" gradientUnits="userSpaceOnUse">
<stop stop-color="#512EE9"/>
<stop offset="1" stop-color="#DE13FF"/>
</linearGradient>
<linearGradient id="paint4_linear_226_2" x1="787.867" y1="51.2673" x2="787.867" y2="68.7435" gradientUnits="userSpaceOnUse">
<stop stop-color="#512EE9"/>
<stop offset="1" stop-color="#DE13FF"/>
</linearGradient>
<linearGradient id="paint5_linear_226_2" x1="833.593" y1="149.895" x2="833.593" y2="167.371" gradientUnits="userSpaceOnUse">
<stop stop-color="#512EE9"/>
<stop offset="1" stop-color="#DE13FF"/>
</linearGradient>
<linearGradient id="paint6_linear_226_2" x1="841.844" y1="85.6289" x2="841.844" y2="103.105" gradientUnits="userSpaceOnUse">
<stop stop-color="#512EE9"/>
<stop offset="1" stop-color="#DE13FF"/>
</linearGradient>
<linearGradient id="paint7_linear_226_2" x1="777.926" y1="137.984" x2="777.926" y2="155.46" gradientUnits="userSpaceOnUse">
<stop stop-color="#512EE9"/>
<stop offset="1" stop-color="#DE13FF"/>
</linearGradient>
<linearGradient id="paint8_linear_226_2" x1="777.926" y1="182.753" x2="777.926" y2="200.229" gradientUnits="userSpaceOnUse">
<stop stop-color="#512EE9"/>
<stop offset="1" stop-color="#DE13FF"/>
</linearGradient>
<linearGradient id="paint9_linear_226_2" x1="722.923" y1="157.31" x2="722.923" y2="174.786" gradientUnits="userSpaceOnUse">
<stop stop-color="#512EE9"/>
<stop offset="1" stop-color="#DE13FF"/>
</linearGradient>
<linearGradient id="paint10_linear_226_2" x1="672.275" y1="96.5173" x2="672.275" y2="113.993" gradientUnits="userSpaceOnUse">
<stop stop-color="#512EE9"/>
<stop offset="1" stop-color="#DE13FF"/>
</linearGradient>
<linearGradient id="paint11_linear_226_2" x1="645.105" y1="155.457" x2="645.105" y2="172.933" gradientUnits="userSpaceOnUse">
<stop stop-color="#512EE9"/>
<stop offset="1" stop-color="#DE13FF"/>
</linearGradient>
<linearGradient id="paint12_linear_226_2" x1="585.738" y1="104.384" x2="585.738" y2="121.86" gradientUnits="userSpaceOnUse">
<stop stop-color="#512EE9"/>
<stop offset="1" stop-color="#DE13FF"/>
</linearGradient>
<linearGradient id="paint13_linear_226_2" x1="631.563" y1="33.7988" x2="631.563" y2="51.2668" gradientUnits="userSpaceOnUse">
<stop stop-color="#512EE9"/>
<stop offset="1" stop-color="#DE13FF"/>
</linearGradient>
<linearGradient id="paint14_linear_226_2" x1="716.582" y1="62.1238" x2="716.582" y2="79.5918" gradientUnits="userSpaceOnUse">
<stop stop-color="#512EE9"/>
<stop offset="1" stop-color="#DE13FF"/>
</linearGradient>
<linearGradient id="paint15_linear_226_2" x1="754.661" y1="0" x2="754.661" y2="17.468" gradientUnits="userSpaceOnUse">
<stop stop-color="#512EE9"/>
<stop offset="1" stop-color="#DE13FF"/>
</linearGradient>
<linearGradient id="paint16_linear_226_2" x1="790.508" y1="89.5933" x2="790.508" y2="107.061" gradientUnits="userSpaceOnUse">
<stop stop-color="#512EE9"/>
<stop offset="1" stop-color="#DE13FF"/>
</linearGradient>
</defs>
</svg>
