<?xml version="1.0" encoding="UTF-8" standalone="no"?>
<svg
   xmlns:dc="http://purl.org/dc/elements/1.1/"
   xmlns:cc="http://creativecommons.org/ns#"
   xmlns:rdf="http://www.w3.org/1999/02/22-rdf-syntax-ns#"
   xmlns:svg="http://www.w3.org/2000/svg"
   xmlns="http://www.w3.org/2000/svg"
   xmlns:sodipodi="http://sodipodi.sourceforge.net/DTD/sodipodi-0.dtd"
   xmlns:inkscape="http://www.inkscape.org/namespaces/inkscape"
   version="1.1"
   id="レイヤー_1"
   x="0px"
   y="0px"
   width="100"
   height="100"
   viewBox="0 0 99.999997 100"
   enable-background="new 0 0 401.98 559.472"
   xml:space="preserve"
   sodipodi:docname="gopher_100x100_2.svg"
   inkscape:version="1.0.1 (3bc2e813f5, 2020-09-07)"><metadata
   id="metadata61"><rdf:RDF><cc:Work
       rdf:about=""><dc:format>image/svg+xml</dc:format><dc:type
         rdf:resource="http://purl.org/dc/dcmitype/StillImage" /><dc:title></dc:title></cc:Work></rdf:RDF></metadata><defs
   id="defs59" /><sodipodi:namedview
   pagecolor="#ffffff"
   bordercolor="#666666"
   borderopacity="1"
   objecttolerance="10"
   gridtolerance="10"
   guidetolerance="10"
   inkscape:pageopacity="0"
   inkscape:pageshadow="2"
   inkscape:window-width="1920"
   inkscape:window-height="1016"
   id="namedview57"
   showgrid="false"
   inkscape:pagecheckerboard="true"
   inkscape:zoom="6.0986074"
   inkscape:cx="76.982001"
   inkscape:cy="60.656651"
   inkscape:window-x="0"
   inkscape:window-y="27"
   inkscape:window-maximized="1"
   inkscape:current-layer="レイヤー_1" />
<path
   fill-rule="evenodd"
   clip-rule="evenodd"
   fill="#f6d2a2"
   stroke="#000000"
   stroke-width="0.545088"
   stroke-linecap="round"
   d="m 16.312464,54.434153 c 0.137384,2.891743 2.966844,1.553732 4.248419,0.649728 1.216481,-0.858284 1.572172,-0.144852 1.678982,-1.838663 0.06997,-1.113295 0.195642,-2.226599 0.133785,-3.344295 -1.839559,-0.170196 -3.840413,0.277033 -5.348558,1.395659 -0.776818,0.576293 -2.233357,2.415692 -0.712628,3.137571"
   id="path2" />
<path
   fill-rule="evenodd"
   clip-rule="evenodd"
   fill="#c6b198"
   stroke="#000000"
   stroke-width="0.545088"
   stroke-linecap="round"
   d="m 16.312464,54.434153 c 0.411788,-0.156417 0.848207,-0.267497 1.127651,-0.64771"
   id="path4" />
<path
   fill-rule="evenodd"
   clip-rule="evenodd"
   fill="#6ad7e5"
   stroke="#000000"
   stroke-width="0.545088"
   stroke-linecap="round"
   d="M 22.851249,19.985107 C 12.008658,16.872135 20.071053,2.7892312 28.77793,8.5817149 Z"
   id="path6" />
<path
   fill-rule="evenodd"
   clip-rule="evenodd"
   fill="#6ad7e5"
   stroke="#000000"
   stroke-width="0.545088"
   stroke-linecap="round"
   d="M 71.0246,7.5249597 C 79.606851,1.3704336 87.362301,15.25617 77.388056,18.749903 Z"
   id="path8" />
<path
   fill-rule="evenodd"
   clip-rule="evenodd"
   fill="#f6d2a2"
   stroke="#000000"
   stroke-width="0.545088"
   stroke-linecap="round"
   d="m 72.870629,90.023298 c 2.179956,1.377116 6.164579,5.541148 2.894379,7.560279 -3.142174,2.937283 -4.900811,-3.22404 -7.658708,-4.077738 1.187713,-1.646808 2.69316,-3.1484 4.764329,-3.482541 z"
   id="path10" />
<path
   fill-rule="evenodd"
   clip-rule="evenodd"
   fill="none"
   stroke="#000000"
   stroke-width="0.545088"
   stroke-linecap="round"
   d="M 75.765008,97.583401 C 75.280209,96.59917 75.117473,95.450437 74.308105,94.65714"
   id="path12" />
<path
   fill-rule="evenodd"
   clip-rule="evenodd"
   fill="#f6d2a2"
   stroke="#000000"
   stroke-width="0.545088"
   stroke-linecap="round"
   d="m 33.924914,94.729106 c -2.558656,0.404273 -3.998838,2.761033 -6.131855,3.95786 -2.010031,1.22364 -2.77894,-0.39178 -2.960019,-0.719677 -0.315037,-0.146695 -0.288611,0.136591 -0.77484,-0.363327 -1.863288,-3.00245 1.941512,-5.197099 3.922764,-6.688598 2.75952,-0.5695 4.48884,1.873005 5.94395,3.813742 z"
   id="path14" />
<path
   fill-rule="evenodd"
   clip-rule="evenodd"
   fill="none"
   stroke="#000000"
   stroke-width="0.545088"
   stroke-linecap="round"
   d="m 24.833222,97.967103 c 0.09746,-1.144323 0.986129,-1.910629 1.409426,-2.87816"
   id="path16" />
<path
   fill-rule="evenodd"
   clip-rule="evenodd"
   d="m 23.30368,16.095549 c -1.430467,-0.772559 -2.479893,-1.821777 -1.604894,-3.511002 0.810088,-1.563826 2.314997,-1.394002 3.745648,-0.621453 z"
   id="path18"
   style="stroke-width:0.181696" />
<path
   fill-rule="evenodd"
   clip-rule="evenodd"
   d="M 75.128262,14.626818 C 76.558731,13.854269 77.608157,12.80504 76.733158,11.115816 75.92307,9.5519898 74.41816,9.7218138 72.987509,10.494362 Z"
   id="path20"
   style="stroke-width:0.181696" />
<path
   fill-rule="evenodd"
   clip-rule="evenodd"
   fill="#f6d2a2"
   stroke="#000000"
   stroke-width="0.545088"
   stroke-linecap="round"
   d="m 84.975011,54.066975 c -0.137384,2.891743 -2.966845,1.553732 -4.248419,0.649728 -1.216481,-0.858294 -1.572162,-0.144852 -1.678982,-1.838674 -0.06997,-1.113293 -0.195643,-2.226588 -0.133785,-3.344293 1.839558,-0.170187 3.840413,0.277042 5.348558,1.395658 0.776645,0.576293 2.233366,2.415702 0.712628,3.137581"
   id="path22" />
<path
   fill-rule="evenodd"
   clip-rule="evenodd"
   fill="#c6b198"
   stroke="#000000"
   stroke-width="0.545088"
   stroke-linecap="round"
   d="M 84.975011,54.066975 C 84.563223,53.910548 84.126804,53.799478 83.84736,53.419265"
   id="path24" />
<g
   id="g28"
   transform="matrix(0.17981973,0,0,0.18359115,14.400259,-0.73370744)">
	<path
   fill-rule="evenodd"
   clip-rule="evenodd"
   fill="#6ad7e5"
   stroke="#000000"
   stroke-width="3"
   stroke-linecap="round"
   d="m 195.512,13.124 c 60.365,0 116.953,8.633 146.452,66.629 26.478,65.006 17.062,135.104 21.1,203.806 3.468,58.992 11.157,127.145 -16.21,181.812 -28.79,57.514 -100.73,71.982 -160,69.863 C 140.299,533.568 84.06,518.38 57.785,475.845 26.959,425.945 41.553,351.747 43.792,296.223 46.444,230.452 25.977,164.481 47.584,100.122 69.999,33.359 130.451,18.271 195.512,13.124"
   id="path26" />
</g>
<path
   fill-rule="evenodd"
   clip-rule="evenodd"
   fill="#ffffff"
   stroke="#000000"
   stroke-width="0.528389"
   stroke-linecap="round"
   d="M 51.473519,16.553235 C 53.422403,28.120032 71.940962,25.061767 69.281064,13.396024 66.895932,2.9349949 50.82581,5.8305997 51.473519,16.553235"
   id="path30" />
<path
   fill-rule="evenodd"
   clip-rule="evenodd"
   fill="#ffffff"
   stroke="#000000"
   stroke-width="0.512636"
   stroke-linecap="round"
   d="m 29.343824,18.424035 c 2.525923,10.069976 18.317159,7.491802 17.721948,-2.60938 C 46.352607,3.716913 26.92884,6.051279 29.343824,18.424035"
   id="path32" />
<path
   fill-rule="evenodd"
   clip-rule="evenodd"
   fill="#ffffff"
   stroke="#000000"
   stroke-width="0.545088"
   stroke-linecap="round"
   d="m 53.707779,30.433101 c 0.0086,1.503788 0.334638,3.192092 0.05606,4.791906 -0.376002,0.725555 -1.113617,0.802293 -1.749461,1.095496 -0.879318,-0.140813 -1.618737,-0.730327 -1.971365,-1.570078 -0.225678,-1.825992 0.08418,-3.593974 0.141157,-5.42071 z"
   id="path34" />
<g
   id="g40"
   transform="matrix(0.17981973,0,0,0.18359115,14.400259,-0.73370744)">
	<ellipse
   fill-rule="evenodd"
   clip-rule="evenodd"
   cx="107.324"
   cy="95.403999"
   rx="14.829"
   ry="16.062"
   id="ellipse36" />
	<ellipse
   fill-rule="evenodd"
   clip-rule="evenodd"
   fill="#ffffff"
   cx="114.069"
   cy="99.028999"
   rx="3.4960001"
   ry="4.0819998"
   id="ellipse38" />
</g>
<g
   id="g46"
   transform="matrix(0.17981973,0,0,0.18359115,14.400259,-0.73370744)">
	<ellipse
   fill-rule="evenodd"
   clip-rule="evenodd"
   cx="231.571"
   cy="91.403999"
   rx="14.582"
   ry="16.062"
   id="ellipse42" />
	<ellipse
   fill-rule="evenodd"
   clip-rule="evenodd"
   fill="#ffffff"
   cx="238.20399"
   cy="95.028999"
   rx="3.438"
   ry="4.0819998"
   id="ellipse44" />
</g>
<path
   fill-rule="evenodd"
   clip-rule="evenodd"
   fill="#ffffff"
   stroke="#000000"
   stroke-width="0.545088"
   stroke-linecap="round"
   d="m 46.087553,30.269334 c -1.163427,2.878708 0.648793,8.635215 3.805529,4.389298 -0.225678,-1.826 0.08418,-3.593983 0.141157,-5.420709 z"
   id="path48" />
<g
   id="g54"
   transform="matrix(0.17981973,0,0,0.18359115,14.400259,-0.73370744)">
	<path
   fill-rule="evenodd"
   clip-rule="evenodd"
   fill="#f6d2a2"
   stroke="#231f20"
   stroke-width="3"
   stroke-linecap="round"
   d="m 178.431,138.673 c -12.059,1.028 -21.916,15.366 -15.646,26.709 8.303,15.024 26.836,-1.329 38.379,0.203 13.285,0.272 24.17,14.047 34.84,2.49 11.867,-12.854 -5.109,-25.373 -18.377,-30.97 z"
   id="path50" />
	<path
   fill-rule="evenodd"
   clip-rule="evenodd"
   d="m 176.913,138.045 c -0.893,-20.891 38.938,-23.503 43.642,-6.016 4.692,17.446 -41.681,21.498 -43.642,6.016 -1.565,-12.363 0,0 0,0 z"
   id="path52" />
</g>
</svg>
