<svg fill="none" height="47" width="80" xmlns="http://www.w3.org/2000/svg" xmlns:xlink="http://www.w3.org/1999/xlink"><linearGradient id="a" gradientUnits="userSpaceOnUse" x1="50" x2="44.934" y1="0" y2="47.985"><stop offset="0" stop-color="#00ff9e"/><stop offset="1" stop-color="#00fff2"/></linearGradient><g fill="url(#a)"><path d="m14.679 30.381c-1.082 0-1.584-.502-1.507-1.505.077-.811.058-1.467-.058-1.97-.193-.848-.232-1.466-.116-1.852.31-1.158 1.565-1.428 3.767-.81.387.115.696.173.928.173s.463-.02.695-.058c.696-.116 1.314-.116 1.855 0 .58.077 1.082.096 1.507.058a9.221 9.221 0 0 0 1.16-.174 22.66 22.66 0 0 0 1.042-.231c.31-.078.6-.116.87-.116.386 0 .657.328.811.984.194.618.27 1.313.232 2.085-.116 1.968-.58 3.107-1.39 3.416-.58.232-1.14.599-1.682 1.1-.502.502-.695 1.255-.58 2.259.155.965.232 1.737.232 2.316a9.03 9.03 0 0 1 0 1.448c0 .386-.019.733-.058 1.042 0 .27.02.637.058 1.1.078.425.058 1.004-.058 1.737a6.145 6.145 0 0 1 -.521 1.969c-.657 1.39-1.488 1.91-2.492 1.563-.735-.231-1.45-.849-2.145-1.853a5.7 5.7 0 0 0 -.695-.868c-.194-.27-.464-.348-.812-.232-.348.077-.657.27-.927.58-.232.27-.483.559-.754.868-1.623 2.007-3.69 2.297-6.202.868-1.275-.694-2.163-1.563-2.666-2.605a119.26 119.26 0 0 1 -.637-1.564 12.795 12.795 0 0 0 -.696-1.679c-.618-1.274-1.217-2.123-1.797-2.548-.54-.424-.85-2.51-.927-6.254-.039-.81-.02-1.505.058-2.084.077-.618.116-1.39.116-2.317v-2.663c0-.85-.02-1.66-.058-2.432 0-1.236.097-2.316.29-3.243-1.237-.81-1.72-2.374-1.45-4.69.194-1.467.465-2.529.812-3.185.387-.695.676-1.37.87-2.027.232-.695.463-1.409.695-2.142.232-.772.56-1.274.986-1.506.425-.231.695-.424.811-.579l.348-.463c.734-1.081 2.318-1.814 4.752-2.2a5.996 5.996 0 0 1 3.188.289c1.044.386 1.913.618 2.608.695.696.077 1.353.135 1.971.174 2.666.154 4.405.714 5.217 1.679.58.656.946 1.332 1.1 2.027.155.656.349 1.196.58 1.62.27.387.367.812.29 1.275-.077.424-.096.791-.058 1.1.078.27.058.56-.058.869l-.348.926c-.231.81-.212 1.39.059 1.737.309.348.58.676.81.985.233.27.407.56.523.868.347.772.386 1.429.115 1.97-.27.54-.58 1.06-.927 1.563-.309.501-.715.772-1.217.81-1.352.116-2.26.348-2.724.695-.464.309-.85.521-1.16.637-.772.347-1.487.309-2.144-.116-1.082-.502-1.545-1.428-1.391-2.78.077-1.62-.522-2.509-1.797-2.663-.58-.077-1.178.097-1.796.521a4.373 4.373 0 0 0 -1.45 1.68c-.81 1.814-.908 3.493-.29 5.037.155.386.233.869.233 1.448v1.505c0 .888-.116 1.545-.348 1.97-.193.424-.31.926-.348 1.505-.039.54-.058 1.177-.058 1.91.039.734.097 1.525.174 2.375.116.81.251 1.563.406 2.258.425 1.622 1.024 2.394 1.796 2.316.619 0 1.102-.29 1.45-.868a6.47 6.47 0 0 1 .405-.695c.155-.232.387-.405.696-.521.309-.155.521-.386.637-.695.155-.309.232-.676.232-1.1.039-.464 0-1.41-.116-2.838-.309.078-.618.116-.927.116z"/><path d="m35.776 1.892a32.057 32.057 0 0 1 2.029-.29c.696-.077 1.468-.27 2.318-.579s1.623-.521 2.319-.637c.695-.116 1.449-.058 2.26.174.812.193 1.43.444 1.855.753a6.87 6.87 0 0 1 1.101.984c.31.309.56.618.754.926.232.31.56.58.985.811.927.54 1.352 1.351 1.275 2.432 0 .232.058.502.174.81.155.31.31.657.464 1.043.386.927.54 1.834.463 2.722a9.403 9.403 0 0 0 .116 2.547c.194.85.367 1.718.522 2.606.386 2.24.328 4.15-.174 5.733-.464 1.583-.85 2.992-1.16 4.227-.27 1.235-.386 2.297-.347 3.185.077.85.039 1.698-.116 2.548a16.71 16.71 0 0 1 -.58 2.605c-.656 2.046-1.487 3.513-2.492 4.401-.348.27-.734.772-1.159 1.506-.386.695-.85 1.428-1.391 2.2-1.43 1.892-3.15 2.838-5.158 2.838-1.971 0-3.633-.715-4.985-2.143-1.314-1.428-2.241-3.34-2.782-5.733-.193-.81-.483-1.524-.87-2.142-.695-1.12-1.236-2.123-1.622-3.011-.657-1.66-.773-3.86-.348-6.601.077-.386.116-.772.116-1.159 0-.81-.348-1.833-1.044-3.069-1.275-2.354-1.333-4.96-.173-7.817.231-.617.367-1.177.405-1.679.078-.502.155-.984.232-1.448.116-1.12.367-1.93.754-2.432.425-.502.637-.888.637-1.158.039-.27.193-.579.464-.926.27-.348.56-.714.87-1.1.347-.387.714-.87 1.1-1.448.426-.58.909-.965 1.45-1.158a8.275 8.275 0 0 1 1.738-.521zm5.043 12.391a5.61 5.61 0 0 1 -.116.406c0 .116-.077.231-.232.347a.556.556 0 0 1 -.406.174h-.405c-.387 0-.676.116-.87.347-.425.618-.85 1.293-1.275 2.027-.425.695-.715 1.544-.87 2.548-.231 1.776-.154 3.069.233 3.88.347.733.483 1.563.405 2.49-.077.926-.116 1.62-.116 2.084.039.463.078.869.116 1.216.078.348.174.676.29.984.116.27.232.58.348.927.116.309.251.695.406 1.158.193.425.405.85.637 1.274.657 1.004 1.43 1.467 2.319 1.39.85-.077 1.313-1.216 1.39-3.417 0-1.158.078-2.084.232-2.78l.464-1.736c.348-1.544.386-2.8.116-3.764-.232-1.004-.328-1.699-.29-2.085.078-.425.136-.85.174-1.274.116-1.235 0-2.162-.348-2.78-.309-.617-.521-1.1-.637-1.447a53.593 53.593 0 0 0 -.232-1.1c-.155-.695-.406-1.081-.754-1.158-.309 0-.502.096-.58.29z"/><path d="m60.525 4.382a8.04 8.04 0 0 0 1.102-1.216 5.39 5.39 0 0 1 1.217-1.274c1.352-1.12 2.705-1.448 4.056-.985 1.662.618 3.188 1.004 4.579 1.158 1.39.155 2.395.502 3.014 1.043.657.54 1.217 1.12 1.68 1.737 1.121 1.467 1.797 3.069 2.03 4.806.038.656.154 1.12.347 1.39.502.849.657 1.988.464 3.416-.155 1.428-.213 2.432-.174 3.011.077.54.174.946.29 1.216.154.27.29.54.405.81.31.734.464 1.468.464 2.201 0 .927-.31 1.853-.927 2.78-.27.347-.367 1.023-.29 2.026.077 1.004.135 2.008.174 3.011.038 2.51-.097 4.073-.406 4.69-.31.58-.541.927-.695 1.043a2.307 2.307 0 0 1 -.348.29c-.58.27-1.102 1.08-1.565 2.432-.425 1.312-1.005 2.393-1.739 3.242a12.466 12.466 0 0 1 -2.318 2.027c-.773.502-1.391.888-1.855 1.158-.425.31-.734.599-.928.869l-.58.81c-.501.618-1.139.927-1.912.927-1.314 0-2.28-.309-2.898-.926-.27-.348-.56-.85-.87-1.506a7.352 7.352 0 0 0 -2.318-2.548c-1.082-.733-1.738-1.834-1.97-3.3-.116-.502-.155-1.004-.116-1.506.077-.502.058-1.139-.058-1.91a8.262 8.262 0 0 0 -.464-2.086 6.239 6.239 0 0 1 -.406-1.737c-.193-1.621-.734-2.49-1.623-2.605-.656-.078-1.043-1.062-1.159-2.954-.038-.965 0-1.872.116-2.721.116-.888.27-1.64.464-2.259.31-1.119.406-2.412.29-3.88-.116-1.505-.116-2.837 0-3.995.193-2.162.657-3.918 1.39-5.27.349-.578.85-1.157 1.508-1.736.695-.58 1.371-1.139 2.028-1.68zm3.652 16.56c.116.541.309.985.58 1.332.309.31.521.811.637 1.506.155.695.212 1.467.174 2.316a49.94 49.94 0 0 0 -.058 2.374c0 .734.039 1.41.116 2.027.077.579.193 1.12.348 1.621.425 1.197 1.024 1.795 1.796 1.795 1.198 0 2.029-2.316 2.493-6.948.154-1.274.231-2.896.231-4.864 0-2.008-.309-3.726-.927-5.154-.618-1.467-1.372-2.2-2.26-2.2-.85 0-1.623.945-2.319 2.837-.618 1.698-.888 2.818-.811 3.358z"/></g></svg>