<?xml version="1.0" standalone="no"?>
<!DOCTYPE svg PUBLIC "-//W3C//DTD SVG 20010904//EN"
 "http://www.w3.org/TR/2001/REC-SVG-20010904/DTD/svg10.dtd">
<svg version="1.0" xmlns="http://www.w3.org/2000/svg"
 width="400.000000pt" height="400.000000pt" viewBox="0 0 400.000000 400.000000"
 preserveAspectRatio="xMidYMid meet">

<g transform="translate(0.000000,400.000000) scale(0.100000,-0.100000)"
fill="#000000" stroke="none">
<path d="M0 2000 l0 -2000 2000 0 2000 0 0 2000 0 2000 -2000 0 -2000 0 0
-2000z m870 909 c36 -11 109 -24 162 -29 115 -11 141 -17 190 -42 47 -23 62
-45 97 -145 29 -81 29 -92 6 -228 -6 -36 -3 -45 20 -74 43 -50 56 -99 39 -139
-12 -30 -51 -92 -58 -92 -32 0 -126 -27 -158 -45 -52 -30 -83 -31 -126 -5 -39
24 -52 54 -52 121 0 40 -5 55 -25 74 -47 48 -131 21 -174 -56 -36 -63 -45
-129 -27 -199 21 -79 20 -168 0 -231 -20 -62 -14 -254 10 -334 28 -91 76 -119
119 -70 12 14 39 43 60 64 36 39 37 42 37 116 l0 75 -39 0 c-21 0 -44 6 -50
14 -7 9 -13 57 -14 122 l-2 108 29 14 c23 12 39 12 86 2 58 -12 298 -9 353 5
25 7 29 4 43 -31 12 -28 15 -57 11 -104 -6 -80 -21 -115 -58 -130 -15 -7 -40
-25 -56 -40 l-28 -28 0 -214 c0 -202 -1 -215 -23 -259 -45 -91 -118 -87 -188
11 -22 30 -43 50 -55 50 -11 0 -45 -27 -77 -59 -40 -41 -69 -62 -97 -70 -60
-16 -128 4 -203 58 -42 31 -49 43 -120 201 -16 36 -42 81 -59 100 -16 19 -33
44 -37 55 -16 45 -23 236 -17 485 l7 265 -25 34 c-46 62 -40 199 14 317 14 30
33 83 42 116 15 53 26 70 81 122 72 69 90 81 164 100 74 20 123 19 198 -5z
m1365 -19 c22 -10 77 -55 123 -98 72 -70 82 -85 82 -115 0 -19 9 -56 21 -81
14 -33 22 -74 24 -139 2 -51 11 -123 19 -162 26 -116 21 -203 -19 -345 -28
-98 -38 -154 -44 -260 -12 -182 -44 -280 -120 -364 -21 -22 -57 -71 -80 -107
-85 -137 -184 -193 -299 -170 -133 27 -219 124 -267 301 -10 36 -37 99 -61
140 -61 107 -79 182 -69 295 13 137 10 156 -31 246 -35 75 -39 92 -39 164 0
55 7 100 22 145 12 36 27 97 33 135 6 39 17 82 25 95 8 14 22 41 31 60 25 53
125 180 154 195 14 7 55 19 90 25 78 14 157 33 225 54 58 18 122 13 180 -14z
m912 -10 c34 -10 101 -26 148 -34 48 -8 102 -25 121 -36 74 -46 144 -164 165
-276 6 -32 16 -65 22 -73 8 -10 11 -57 9 -146 -2 -116 0 -137 19 -180 29 -66
30 -138 2 -196 -21 -42 -23 -59 -23 -217 0 -191 -9 -233 -60 -270 -19 -14 -39
-49 -62 -103 -38 -96 -103 -174 -188 -227 -30 -19 -78 -58 -106 -88 -47 -50
-54 -54 -97 -54 -69 0 -111 24 -143 84 -15 28 -60 83 -100 121 -63 62 -73 76
-83 123 -6 29 -11 80 -11 112 0 61 -31 210 -56 268 -8 18 -24 36 -37 41 -40
15 -49 37 -54 129 -4 63 0 106 12 157 13 51 18 118 20 245 3 262 30 343 147
440 35 29 85 77 113 108 50 56 110 91 155 92 14 0 53 -9 87 -20z"/>
<path d="M2026 2325 c-10 -15 -26 -25 -41 -25 -48 0 -120 -132 -130 -240 -5
-49 -3 -77 10 -115 13 -35 17 -78 16 -145 -2 -104 23 -199 74 -286 33 -55 86
-77 117 -47 24 24 37 79 38 152 0 29 9 92 21 140 17 67 19 99 13 146 -4 33 -7
104 -5 157 1 79 -2 105 -17 135 -11 21 -23 54 -27 73 -8 39 -31 80 -44 80 -5
0 -16 -11 -25 -25z"/>
<path d="M3092 2300 c-28 -26 -45 -59 -71 -139 -27 -84 -27 -105 6 -160 26
-44 28 -53 30 -200 3 -170 13 -222 48 -257 48 -47 85 -24 115 74 47 151 53
486 11 594 -23 58 -69 108 -100 108 -9 0 -27 -9 -39 -20z"/>
</g>
</svg>
