<?xml version="1.0" encoding="utf-8"?>
<!-- Generator: Adobe Illustrator 25.1.0, SVG Export Plug-In . SVG Version: 6.00 Build 0)  -->
<svg version="1.1" id="Calque_1" xmlns="http://www.w3.org/2000/svg" xmlns:xlink="http://www.w3.org/1999/xlink" x="0px" y="0px"
	 viewBox="0 0 202.4 36.9" style="enable-background:new 0 0 202.4 36.9;" xml:space="preserve">
<style type="text/css">
	.st0{fill:url(#SVGID_1_);}
	.st1{fill:#ece7fd;}
</style>
<g>
	<g>
		<linearGradient id="SVGID_1_" gradientUnits="userSpaceOnUse" x1="19.4467" y1="0" x2="19.4467" y2="36.8789">
			<stop  offset="0" style="stop-color:#9A23E6"/>
			<stop  offset="1" style="stop-color:#5519EE"/>
		</linearGradient>
		<path class="st0" d="M28.6,36.9C28.6,36.9,28.6,36.9,28.6,36.9h-16c0,0,0,0,0,0c-1.6,0-3.1-0.9-3.9-2.3L0.6,20.7
			c-0.8-1.4-0.8-3.1,0-4.4L8.7,2.2C9.5,0.8,10.9,0,12.5,0h16.1c0,0,0,0,0,0c1.6,0,3.2,0.9,4,2.3l5.8,10.1c0.1,0.1,0.1,0.3,0,0.4
			c0,0.1-0.1,0.2-0.2,0.3l-2,1.1c-2.1,1.2-4.8,0.5-6-1.6L27,7.1h-6.7v22.7H27l3.3-5.7l-5.5-3.2c-1.1-0.6-1.8-1.8-1.8-3.1v-5.4
			c0-0.2,0.1-0.3,0.2-0.4c0.2-0.1,0.3-0.1,0.5,0l13.3,7.6c0.9,0.5,1.5,1.3,1.7,2.2c0.2,0.9,0.1,1.9-0.4,2.8l-5.8,10
			C31.8,36,30.3,36.9,28.6,36.9z M12.6,35.9h16c1.3,0,2.5-0.7,3.2-1.8l5.8-10c0.4-0.6,0.5-1.3,0.3-2c-0.2-0.7-0.6-1.3-1.2-1.6
			l-2.7-1.5c0,0,0,0,0,0l-9.8-5.7v4.5c0,0.9,0.5,1.8,1.3,2.3l5.9,3.4c0.2,0.1,0.3,0.4,0.2,0.7l-3.7,6.4c-0.1,0.2-0.3,0.2-0.4,0.2
			h-7.5c-0.3,0-0.5-0.2-0.5-0.5V6.6c0-0.3,0.2-0.5,0.5-0.5h7.5c0.2,0,0.3,0.1,0.4,0.2l3.3,5.7c0.9,1.6,3,2.2,4.7,1.3l1.6-0.9
			l-5.6-9.6C31.1,1.7,29.9,1,28.6,1c0,0,0,0,0,0H12.5c-1.2,0-2.3,0.6-2.9,1.7L1.5,16.8c-0.6,1.1-0.6,2.4,0,3.4l8.1,13.9
			C10.2,35.2,11.3,35.9,12.6,35.9C12.6,35.9,12.6,35.9,12.6,35.9z M13.7,30.8c-0.2,0-0.3-0.1-0.4-0.2L6.4,18.8
			c-0.1-0.2-0.1-0.4,0-0.6l6.9-11.8c0.1-0.2,0.3-0.3,0.6-0.2c0.2,0.1,0.4,0.3,0.4,0.5v23.7c0,0.2-0.2,0.4-0.4,0.5
			C13.8,30.8,13.7,30.8,13.7,30.8z M7.4,18.4l5.8,10V8.5L7.4,18.4z"/>
	</g>
	<g>
		<path class="st1" d="M73.4,12.4v-1.6h4.6v15.1c0,2.5-0.8,4.4-2.4,5.7c-1.6,1.3-3.6,1.9-5.9,1.9c-3.6,0-6.1-1.3-7.5-3.8l4.1-2.4
			c0.7,1.3,2,2,3.6,2c1.1,0,2-0.3,2.7-0.9c0.6-0.6,0.9-1.4,0.9-2.5v-1.5c-1.1,1.4-2.7,2.1-4.6,2.1c-2.2,0-4.1-0.8-5.6-2.4
			c-1.5-1.6-2.2-3.5-2.2-5.7c0-2.2,0.7-4.1,2.2-5.7c1.5-1.6,3.3-2.4,5.6-2.4C70.8,10.3,72.3,11,73.4,12.4z M66.8,21
			c0.7,0.7,1.7,1,2.8,1c1.1,0,2-0.3,2.8-1c0.7-0.7,1.1-1.5,1.1-2.7c0-1.1-0.4-2-1.1-2.7c-0.7-0.7-1.7-1-2.8-1c-1.1,0-2,0.3-2.8,1
			c-0.7,0.7-1.1,1.5-1.1,2.7C65.7,19.5,66.1,20.4,66.8,21z"/>
		<path class="st1" d="M86.3,10.7v2.8c0.3-1,0.9-1.8,1.8-2.3c0.9-0.6,1.9-0.8,3-0.8v5.4c-1.2-0.2-2.3,0-3.3,0.6
			c-1,0.6-1.5,1.6-1.5,3v7.2h-4.8V10.7H86.3z"/>
		<path class="st1" d="M104.4,12.2v-1.5h4.8v15.9h-4.8v-1.5c-1.1,1.3-2.7,1.9-4.7,1.9c-2.1,0-3.9-0.8-5.4-2.4
			c-1.5-1.6-2.2-3.6-2.2-6c0-2.4,0.7-4.3,2.2-5.9c1.5-1.6,3.3-2.4,5.4-2.4C101.7,10.3,103.3,10.9,104.4,12.2z M96.8,18.7
			c0,1.2,0.3,2.1,1,2.8c0.7,0.7,1.6,1,2.7,1c1.1,0,2-0.3,2.7-1c0.7-0.7,1-1.6,1-2.8c0-1.2-0.3-2.1-1-2.8c-0.7-0.7-1.6-1-2.7-1
			c-1.1,0-2,0.3-2.7,1C97.2,16.6,96.8,17.5,96.8,18.7z"/>
		<path class="st1" d="M122.2,10.3c2.1,0,3.9,0.8,5.4,2.4c1.5,1.6,2.2,3.6,2.2,5.9c0,2.4-0.7,4.4-2.2,6c-1.5,1.6-3.3,2.4-5.4,2.4
			c-2.1,0-3.6-0.6-4.7-1.9V33h-4.8V10.7h4.8v1.5C118.5,10.9,120.1,10.3,122.2,10.3z M118.5,21.5c0.7,0.7,1.6,1,2.7,1
			c1.1,0,2-0.3,2.7-1c0.7-0.7,1.1-1.6,1.1-2.8c0-1.2-0.4-2.1-1.1-2.8c-0.7-0.7-1.6-1-2.7-1c-1.1,0-2,0.3-2.7,1c-0.7,0.7-1,1.6-1,2.8
			C117.4,19.9,117.8,20.8,118.5,21.5z"/>
		<path class="st1" d="M141.8,10.3c1.7,0,3.1,0.6,4.2,1.7c1.1,1.2,1.7,2.8,1.7,4.8v9.8H143v-9.1c0-0.9-0.3-1.6-0.8-2.1
			s-1.2-0.8-2-0.8c-0.9,0-1.7,0.3-2.2,0.8c-0.5,0.6-0.8,1.4-0.8,2.4v8.7h-4.8V4.4h4.8v7.9C138.2,10.9,139.7,10.3,141.8,10.3z"/>
		<path class="st1" d="M155.8,26.6H151V3.4h4.8V26.6z"/>
		<path class="st1" d="M164.1,26.6h-4.8V10.7h4.8V26.6z"/>
		<path class="st1" d="M176.9,10.3c1.7,0,3.1,0.6,4.2,1.7c1.1,1.2,1.7,2.8,1.7,4.8v9.8H178v-9.1c0-0.9-0.3-1.6-0.8-2.1
			s-1.2-0.8-2-0.8c-0.9,0-1.7,0.3-2.2,0.8c-0.5,0.6-0.8,1.4-0.8,2.4v8.7h-4.8V10.7h4.8v1.5C173.3,10.9,174.8,10.3,176.9,10.3z"/>
		<path class="st1" d="M197.6,12.2v-1.5h4.8V33h-4.8v-7.9c-1.1,1.3-2.7,1.9-4.7,1.9c-2.1,0-3.9-0.8-5.4-2.4c-1.5-1.6-2.2-3.6-2.2-6
			c0-2.4,0.7-4.3,2.2-5.9c1.5-1.6,3.3-2.4,5.4-2.4C195,10.3,196.5,10.9,197.6,12.2z M190.1,18.7c0,1.2,0.3,2.1,1,2.8
			c0.7,0.7,1.6,1,2.7,1c1.1,0,2-0.3,2.7-1c0.7-0.7,1-1.6,1-2.8c0-1.2-0.3-2.1-1-2.8c-0.7-0.7-1.6-1-2.7-1c-1.1,0-2,0.3-2.7,1
			C190.4,16.6,190.1,17.5,190.1,18.7z"/>
	</g>
</g>
</svg>
