<svg width="39" height="37" viewBox="0 0 39 37" fill="none" xmlns="http://www.w3.org/2000/svg">
<path d="M28.6 36.9H12.6C11 36.9 9.5 36 8.7 34.6L0.6 20.7C-0.2 19.3 -0.2 17.6 0.6 16.3L8.7 2.2C9.5 0.8 10.9 0 12.5 0H28.6C30.2 0 31.8 0.9 32.6 2.3L38.4 12.4C38.5 12.5 38.5 12.7 38.4 12.8C38.4 12.9 38.3 13 38.2 13.1L36.2 14.2C34.1 15.4 31.4 14.7 30.2 12.6L27 7.1H20.3V29.8H27L30.3 24.1L24.8 20.9C23.7 20.3 23 19.1 23 17.8V12.4C23 12.2 23.1 12.1 23.2 12C23.4 11.9 23.5 11.9 23.7 12L37 19.6C37.9 20.1 38.5 20.9 38.7 21.8C38.9 22.7 38.8 23.7 38.3 24.6L32.5 34.6C31.8 36 30.3 36.9 28.6 36.9ZM12.6 35.9H28.6C29.9 35.9 31.1 35.2 31.8 34.1L37.6 24.1C38 23.5 38.1 22.8 37.9 22.1C37.7 21.4 37.3 20.8 36.7 20.5L34 19L24.2 13.3V17.8C24.2 18.7 24.7 19.6 25.5 20.1L31.4 23.5C31.6 23.6 31.7 23.9 31.6 24.2L27.9 30.6C27.8 30.8 27.6 30.8 27.5 30.8H20C19.7 30.8 19.5 30.6 19.5 30.3V6.6C19.5 6.3 19.7 6.1 20 6.1H27.5C27.7 6.1 27.8 6.2 27.9 6.3L31.2 12C32.1 13.6 34.2 14.2 35.9 13.3L37.5 12.4L31.9 2.8C31.1 1.7 29.9 1 28.6 1H12.5C11.3 1 10.2 1.6 9.6 2.7L1.5 16.8C0.9 17.9 0.9 19.2 1.5 20.2L9.6 34.1C10.2 35.2 11.3 35.9 12.6 35.9ZM13.7 30.8C13.5 30.8 13.4 30.7 13.3 30.6L6.4 18.8C6.3 18.6 6.3 18.4 6.4 18.2L13.3 6.4C13.4 6.2 13.6 6.1 13.9 6.2C14.1 6.3 14.3 6.5 14.3 6.7V30.4C14.3 30.6 14.1 30.8 13.9 30.9C13.8 30.8 13.7 30.8 13.7 30.8ZM7.4 18.4L13.2 28.4V8.5L7.4 18.4Z" fill="url(#paint0_linear)"/>
<defs>
<linearGradient id="paint0_linear" x1="19.4467" y1="0" x2="19.4467" y2="36.8789" gradientUnits="userSpaceOnUse">
<stop stop-color="#9A23E6"/>
<stop offset="1" stop-color="#5519EE"/>
</linearGradient>
</defs>
</svg>
