<svg width="100" height="100" viewBox="0 0 100 100" fill="none" xmlns="http://www.w3.org/2000/svg">
<g clip-path="url(#clip0)">
<path d="M40.9215 48.8013L40.1233 48.0029C39.5532 47.4326 38.5269 47.7748 38.5269 48.6873V59.7517C38.5269 60.2079 38.983 60.6642 39.4391 60.6642H50.5C51.2982 60.6642 51.7543 59.6376 51.1842 59.0673C50.8421 58.7251 50.8421 58.1548 51.1842 57.8126L62.9292 45.9497C63.2713 45.6075 63.2713 45.0372 62.9292 44.5809L61.9029 43.5543C61.3328 42.984 61.7889 41.9574 62.5871 41.9574H73.648C74.1041 41.9574 74.5602 42.4137 74.5602 42.8699V54.0484C74.5602 54.8468 73.534 55.3031 72.9638 54.7328L72.1656 53.9343C71.8235 53.5921 71.2534 53.5921 70.9113 53.9343L51.0701 73.7818C50.7281 74.124 50.1579 74.124 49.7018 73.7818L25.4135 49.4857C25.2995 49.3717 25.2995 49.2576 25.1855 49.1435C25.1855 49.0295 25.0714 48.9154 25.0714 48.8013C25.0714 48.6873 25.0714 48.5732 25.1855 48.4591C25.1855 48.3451 25.2995 48.231 25.4135 48.1169L59.0522 14.4675C59.3943 14.1253 59.3943 13.555 59.0522 13.0987L51.1842 5.22813C50.9561 5.11407 50.7281 5 50.5 5C50.2719 5 50.0439 5.11407 49.8158 5.22813L6.25657 48.8013C5.91448 49.1435 5.91448 49.7139 6.25657 50.1701L49.8158 93.7434C50.1579 94.0856 50.7281 94.0856 51.1842 93.7434L94.7434 50.1701C95.0855 49.8279 95.0855 49.2576 94.7434 48.9154L69.0868 23.2506C68.7447 22.9084 68.1746 22.9084 67.8325 23.2506L42.1758 48.8013C42.0618 48.9154 41.9478 48.9154 41.8338 49.0295C41.7197 49.0295 41.6057 49.1435 41.4917 49.1435C41.3776 49.1435 41.2636 49.1435 41.1496 49.0295C41.0356 48.9154 40.9215 48.9154 40.9215 48.8013Z" fill="#DE596B"/>
<path d="M27.1526 35.479C32.2591 35.479 37.3657 35.499 42.4522 35.459C43.2332 35.459 43.4935 35.6392 43.4535 36.4402C43.3934 38.4628 43.3934 40.5054 43.4535 42.528C43.4735 43.289 43.2532 43.4692 42.4922 43.4692C35.283 43.4492 28.0938 43.4692 20.8846 43.4292C20.0235 43.4292 19.7431 43.6094 19.7631 44.5106C19.8232 47.935 19.8032 51.3593 19.7631 54.7837C19.7431 55.6048 19.9834 55.8451 20.8245 55.8251C27.9937 55.785 35.1629 55.8251 42.332 55.785C43.1731 55.785 43.4935 55.9452 43.4535 56.8664C43.3734 58.8489 43.4134 60.8515 43.4334 62.8541C43.4535 63.5149 43.3133 63.7752 42.5723 63.7752C32.2992 63.7552 22.026 63.7552 11.7529 63.7752C11.072 63.7752 10.8317 63.595 10.8517 62.8941C10.8718 54.0428 10.8718 45.2115 10.8517 36.3601C10.8517 35.5591 11.1321 35.439 11.833 35.439C16.9395 35.499 22.0461 35.479 27.1526 35.479Z" fill="#61C3A6"/>
<path d="M81.2213 53.6022C83.9448 53.6022 86.448 53.6222 88.9312 53.5822C89.632 53.5822 89.9324 53.6823 89.9124 54.4833C89.8523 57.2669 89.8723 60.0705 89.9124 62.854C89.9124 63.5149 89.7522 63.7952 89.0313 63.7752C86.6683 63.7352 84.3052 63.7352 81.9222 63.7752C81.2013 63.7952 81.041 63.5349 81.041 62.854C81.0811 60.0705 81.041 57.2669 81.0611 54.4833C81.0611 53.7824 80.8808 53.5822 80.1799 53.6022C76.2149 53.6423 72.2498 53.6222 68.2847 53.6022C67.6439 53.6022 67.4236 53.7824 67.4436 54.4433C67.4837 57.2268 67.4436 60.0304 67.4637 62.814C67.4637 63.5349 67.3235 63.7953 66.5425 63.7953C64.1795 63.7352 61.8164 63.7552 59.4334 63.7953C58.6524 63.8153 58.4922 63.5349 58.4922 62.814C58.5122 54.0027 58.5122 45.1914 58.4922 36.3802C58.4922 35.6192 58.7325 35.439 59.4534 35.459C61.7764 35.499 64.1194 35.499 66.4624 35.459C67.2234 35.439 67.4837 35.6192 67.4837 36.4402C67.4236 39.0636 67.4837 41.6869 67.4436 44.3103C67.4436 44.9511 67.5438 45.2515 68.3047 45.2315C72.2698 45.1914 76.2349 45.1914 80.2 45.2315C80.9209 45.2315 81.0811 44.9912 81.0811 44.3103C81.041 41.6469 81.1011 38.9835 81.0611 36.3401C81.041 35.6392 81.2613 35.439 81.9622 35.459C84.3252 35.499 86.6883 35.499 89.0713 35.459C89.6921 35.459 89.9525 35.5992 89.9324 36.28C89.8924 39.0436 89.9124 41.8071 89.9324 44.5506C89.9324 45.0913 89.6921 45.3917 89.3517 45.7321C86.8285 48.1352 84.3052 50.5783 81.782 52.9814C81.6218 53.1416 81.5016 53.3018 81.2213 53.6022Z" fill="#61C3A6"/>
</g>
<defs>
<clipPath id="clip0">
<rect width="100" height="100" fill="white"/>
</clipPath>
</defs>
</svg>
