<svg width="100" height="100" viewBox="0 0 100 100" fill="none" xmlns="http://www.w3.org/2000/svg">
<path d="M27.9629 46.4557H18.037V35H11V65H18.037V53.5443H27.9629V65H35V35H27.9629V46.4557Z" fill="#02EAD0"/>
<path d="M49.501 39C42.5968 39 37 44.8207 37 51.999C37 59.177 42.5991 65 49.501 65C56.4051 65 62 59.1793 62 51.999C62 44.8187 56.4051 39 49.501 39ZM49.501 57.7348C46.4542 57.7348 43.9857 55.1676 43.9857 51.999C43.9857 48.83 46.4561 46.2628 49.501 46.2628C52.5481 46.2628 55.0165 48.83 55.0165 51.999C55.0165 55.1676 52.5481 57.7348 49.501 57.7348Z" fill="#02EAD0"/>
<path d="M77.0012 39C69.8208 39 64 44.8207 64 51.999C64 59.177 69.8228 65 77.0012 65C84.1816 65 90 59.1793 90 51.999C90 44.8187 84.1816 39 77.0012 39ZM77.0012 57.7348C73.8322 57.7348 71.2649 55.1676 71.2649 51.999C71.2649 48.83 73.8322 46.2628 77.0012 46.2628C80.1678 46.2628 82.7371 48.83 82.7371 51.999C82.7371 55.1676 80.1698 57.7348 77.0012 57.7348Z" fill="#02EAD0"/>
</svg>
