<svg width="256" height="256" viewBox="0 0 256 256" fill="none" xmlns="http://www.w3.org/2000/svg">
<rect width="256" height="256" fill="#C6C6C6"/>
<g id="Webclip">
<rect width="256" height="256" fill="#0F1422"/>
<path id="Vector" d="M75.9627 65.275C73.3135 64.9083 70.6252 64.9083 67.976 65.275C61.9987 66.1425 56.4649 68.8831 52.1962 73.09C47.9274 77.297 45.1511 82.7461 44.2795 88.6284C44.0931 89.93 43.9997 91.2429 44 92.5573V163.427C43.9997 164.741 44.0931 166.054 44.2795 167.356C45.148 173.241 47.9228 178.694 52.1919 182.904C56.4609 187.114 61.9964 189.857 67.976 190.725C70.6252 191.092 73.3135 191.092 75.9627 190.725C81.9473 189.865 87.4901 187.128 91.7667 182.921C96.0433 178.713 98.8254 173.26 99.6992 167.372C99.8856 166.07 99.979 164.757 99.9787 163.443V92.5573C99.979 91.2429 99.8856 89.93 99.6992 88.6284C98.8254 82.7404 96.0433 77.2871 91.7667 73.0795C87.4901 68.8719 81.9473 66.1347 75.9627 65.275V65.275ZM75.9627 73.2507C79.8106 74.0301 83.3419 75.9021 86.1199 78.6352C88.8978 81.3683 90.8005 84.8426 91.5927 88.6284H75.9627V73.2507ZM67.976 73.2507V88.6284H52.3541C53.1437 84.8428 55.0446 81.3682 57.8214 78.6349C60.5981 75.9015 64.1287 74.0296 67.976 73.2507V73.2507ZM51.9547 96.4862H67.976V112.249H51.9547V96.4862ZM51.9547 120.107H67.976V135.877H51.9547V120.107ZM51.9547 143.735H67.976V159.498H51.9547V143.735ZM67.976 182.734C64.1287 181.955 60.5981 180.083 57.8214 177.349C55.0446 174.616 53.1437 171.141 52.3541 167.356H67.976V182.734ZM75.9627 182.734V167.356H91.5927C90.8005 171.142 88.8978 174.616 86.1199 177.349C83.3419 180.082 79.8106 181.954 75.9627 182.734V182.734ZM91.992 159.498H75.9627V143.735H91.992V159.498ZM91.992 135.877H75.9627V120.107H91.992V135.877ZM91.992 112.249H75.9627V96.4862H91.992V112.249ZM211.72 88.6284C210.847 82.7404 208.065 77.2871 203.788 73.0795C199.511 68.8719 193.969 66.1347 187.984 65.275C185.335 64.9083 182.647 64.9083 179.997 65.275C174.014 66.1362 168.473 68.8741 164.198 73.0816C159.923 77.2891 157.142 82.7415 156.269 88.6284C156.082 89.93 155.989 91.2429 155.989 92.5573V163.427C155.989 164.741 156.082 166.054 156.269 167.356C157.139 173.246 159.919 178.702 164.194 182.912C168.469 187.123 174.012 189.863 179.997 190.725C182.647 191.092 185.335 191.092 187.984 190.725C193.971 189.864 199.515 187.125 203.792 182.914C208.069 178.704 210.85 173.247 211.72 167.356C211.907 166.054 212 164.741 212 163.427V92.5573C212 91.2429 211.907 89.93 211.72 88.6284V88.6284ZM187.984 73.2507C191.832 74.0301 195.363 75.9021 198.141 78.6352C200.919 81.3683 202.822 84.8426 203.614 88.6284H187.984V73.2507ZM179.997 73.2507V88.6284H164.375C165.165 84.8428 167.066 81.3682 169.843 78.6349C172.619 75.9015 176.15 74.0296 179.997 73.2507V73.2507ZM163.976 96.4862H179.997V112.249H163.976V96.4862ZM163.976 120.107H179.997V135.877H163.976V120.107ZM163.976 143.735H179.997V159.498H163.976V143.735ZM179.997 182.734C176.15 181.955 172.619 180.083 169.843 177.349C167.066 174.616 165.165 171.141 164.375 167.356H179.997V182.734ZM187.984 182.734V167.356H203.614C202.822 171.142 200.919 174.616 198.141 177.349C195.363 180.082 191.832 181.954 187.984 182.734V182.734ZM204.013 159.498H187.984V143.735H204.013V159.498ZM204.013 135.877H187.984V120.107H204.013V135.877ZM204.013 112.249H187.984V96.4862H204.013V112.249ZM107.981 108.32H123.955V124.036H107.981V108.32ZM131.997 108.32H147.971V124.036H131.997V108.32ZM107.981 131.949H123.955V147.664H107.981V131.949ZM131.997 131.949H147.971V147.664H131.997V131.949Z" fill="url(#paint0_linear_873_3606)"/>
</g>
<defs>
<linearGradient id="paint0_linear_873_3606" x1="-4.46152" y1="159.5" x2="-5.52557" y2="88.0027" gradientUnits="userSpaceOnUse">
<stop stop-color="#05FAFF"/>
<stop offset="1" stop-color="#858EFF"/>
</linearGradient>
</defs>
</svg>
