<svg width="100" height="100" viewBox="0 0 100 100" fill="none" xmlns="http://www.w3.org/2000/svg">
<path fill-rule="evenodd" clip-rule="evenodd" d="M65.6843 19.5872C64.2571 19.1146 62.8392 18.628 61.4296 18.1274C59.6705 17.5011 57.9858 19.2729 58.0548 21.6725C58.2127 26.1442 58.3706 30.616 58.5285 35.0885C58.5822 36.5708 57.8724 37.9235 56.7418 38.4768C54.5244 39.5618 52.2748 40.6172 50.0007 41.6393C47.7227 40.618 45.4754 39.5626 43.2565 38.4768C42.1236 37.925 41.4231 36.57 41.4721 35.0885C41.63 30.616 41.7872 26.1442 41.9451 21.6725C42.0263 19.2729 40.337 17.4996 38.5703 18.1274C37.163 18.628 35.7466 19.1146 34.3148 19.5872C33.1505 19.9721 32.2806 21.2767 32.1572 22.8273C31.7479 28.11 31.3355 33.3943 30.9254 38.6786C30.8089 40.1555 31.4765 41.5415 32.5987 42.1438C35.0828 43.4693 34.8728 47.8169 32.1334 48.787C30.9093 49.2216 30.0026 50.4788 29.893 51.9564C29.2645 60.0284 28.6375 68.1011 28.0105 76.173C27.8948 77.7205 28.7402 79.1695 30.1467 79.7368C31.8636 80.4329 33.5935 81.1135 35.335 81.7778C37.5286 82.6152 39.8618 80.9839 39.9384 78.5851C40.1944 71.3179 40.4512 64.0508 40.7072 56.7844C40.7647 55.3029 41.6147 54.0076 42.8418 53.5218C45.2539 52.5664 47.6415 51.5769 50.0007 50.5541C52.3568 51.5769 54.7421 52.5664 57.1573 53.5218C58.3813 54.0084 59.2367 55.3029 59.2934 56.7844C59.5494 64.0508 59.8062 71.3179 60.0622 78.5851C60.1442 80.9855 62.4666 82.6145 64.6657 81.7778C66.4063 81.1127 68.1363 80.4329 69.8516 79.7368C71.2489 79.1695 72.1104 77.7205 71.9886 76.173C71.3608 68.1011 70.7338 60.0284 70.1061 51.9572C69.9835 50.4788 69.1013 49.2216 67.8649 48.787C65.1363 47.8161 64.9117 43.4701 67.4012 42.1438C68.5356 41.5423 69.181 40.1563 69.0729 38.6786C68.6636 33.3943 68.2505 28.11 67.8412 22.8273C67.7155 21.2775 66.8455 19.9714 65.6843 19.5872Z" fill="black"/>
</svg>
