<svg width="100" height="100" viewBox="0 0 100 100" fill="none" xmlns="http://www.w3.org/2000/svg">
<path fill-rule="evenodd" clip-rule="evenodd" d="M59.0998 33.658C59.0998 21.5395 53.2038 11.1181 48.7192 7.72446C48.7008 7.71379 48.376 7.53091 48.4037 8.01551L48.3973 8.03045C48.0249 31.4286 36.0864 37.7704 29.5231 46.3131C14.3765 66.0273 28.4627 87.6414 42.8069 91.6363C50.8329 93.8715 40.9534 87.6813 39.6812 74.6063C38.1425 58.8031 59.0998 46.7401 59.0998 33.658Z" fill="#D7E2F2"/>
<path fill-rule="evenodd" clip-rule="evenodd" d="M65.982 41.6245C65.8903 41.5619 65.7595 41.5192 65.6693 41.6686C65.4226 44.6139 62.4178 50.9144 58.6091 56.6997C45.6913 76.3235 53.0528 85.7835 57.192 90.8644C59.5956 93.8139 57.192 90.8644 63.1996 87.85C63.67 87.6138 74.9212 81.2962 76.1394 66.9019C77.3192 52.9631 68.9577 44.177 65.982 41.6245Z" fill="#357CE1"/>
</svg>
