<svg width="100" height="100" viewBox="0 0 100 100" fill="none" xmlns="http://www.w3.org/2000/svg">
<path d="M95 50C95 25.1472 74.8528 5 50 5C25.1472 5 5 25.1472 5 50C5 74.8528 25.1472 95 50 95C74.8528 95 95 74.8528 95 50Z" fill="url(#paint0_linear)"/>
<path fill-rule="evenodd" clip-rule="evenodd" d="M40.6704 47.8016V39.2924C43.4313 39.7879 46.524 40.0921 50.0005 40.0921C53.4769 40.0921 56.5687 39.7879 59.3306 39.2924V47.8016H40.6704ZM50.0005 59.9069C46.524 59.9069 43.4313 60.2111 40.6704 60.7076V52.1974H59.3306V60.7076C56.5687 60.2111 53.4769 59.9069 50.0005 59.9069ZM65.6436 37.6538C65.6818 37.64 65.7191 37.6253 65.7574 37.6116C68.5429 36.6323 70.8209 35.4696 72.6338 34.3196C73.4945 33.774 74 32.8134 74 31.7949C74 30.1464 72.1617 29.1838 70.7993 30.1121C68.7362 31.5182 65.8212 33.0234 61.8717 34.0949C61.7519 34.1272 61.6381 34.1626 61.5174 34.194C60.9707 34.3362 60.4004 34.4677 59.8145 34.5914C59.6368 34.6296 59.4542 34.664 59.2737 34.6993C58.7878 34.7964 58.2882 34.8847 57.7759 34.9672C57.6198 34.9917 57.4677 35.0192 57.3087 35.0427C56.6423 35.1408 55.9552 35.2282 55.2436 35.3008C55.121 35.3126 54.9934 35.3214 54.8687 35.3332C54.2533 35.3911 53.6193 35.4372 52.9695 35.4735C52.786 35.4833 52.6024 35.4941 52.416 35.5019C51.6327 35.5363 50.8328 35.5598 50.0005 35.5598C49.1701 35.5598 48.3732 35.5363 47.5929 35.5019C47.3976 35.4941 47.2072 35.4833 47.0167 35.4725C46.3915 35.4372 45.782 35.393 45.1892 35.3371C45.0371 35.3234 44.882 35.3126 44.7328 35.2978C44.0448 35.2272 43.3823 35.1428 42.7365 35.0476C42.5235 35.0162 42.3193 34.9809 42.1103 34.9466C41.6774 34.8759 41.2544 34.8004 40.8412 34.7199C40.5929 34.6718 40.3436 34.6237 40.1021 34.5717C39.683 34.4815 39.2767 34.3853 38.8782 34.2862C38.5092 34.194 38.1519 34.0978 37.7995 33.9987C34.0247 32.936 31.2176 31.4789 29.2115 30.116C27.8442 29.1858 26 30.1435 26 31.7968C26 32.8144 26.5045 33.773 27.3633 34.3186C29.1742 35.4666 31.4473 36.6274 34.2269 37.6057C34.273 37.6224 34.3172 37.64 34.3653 37.6567C34.9218 37.85 35.5038 38.0325 36.0986 38.2111V47.8016H34.0787C33.1796 47.8016 32.4504 48.5306 32.4504 49.4294C32.4504 50.9582 33.691 52.1974 35.2192 52.1974H36.0986V61.7879C35.5038 61.9665 34.9218 62.15 34.3653 62.3423C34.3172 62.359 34.273 62.3767 34.2269 62.3943C31.4473 63.3726 29.1742 64.5324 27.3633 65.6814C26.5045 66.226 26 67.1847 26 68.2032C26 69.8555 27.8442 70.8132 29.2115 69.884C31.2176 68.5201 34.0247 67.064 37.7995 66.0003C38.1519 65.9012 38.5092 65.805 38.8782 65.7128C39.2767 65.6137 39.683 65.5176 40.1021 65.4273C40.3436 65.3753 40.5929 65.3272 40.8412 65.2791C41.2544 65.1987 41.6774 65.1231 42.1103 65.0534C42.3193 65.0191 42.5235 64.9828 42.7365 64.9514C43.3823 64.8562 44.0448 64.7718 44.7328 64.7022C44.882 64.6865 45.0371 64.6757 45.1892 64.6619C45.782 64.607 46.3915 64.5618 47.0167 64.5265C47.2072 64.5167 47.3976 64.5059 47.5929 64.4971C48.3732 64.4627 49.1701 64.4392 50.0005 64.4392C50.8328 64.4392 51.6327 64.4627 52.416 64.4971C52.6024 64.5049 52.786 64.5157 52.9695 64.5255C53.6193 64.5618 54.2533 64.608 54.8687 64.6659C54.9934 64.6776 55.121 64.6865 55.2436 64.6982C55.9552 64.7708 56.6423 64.8582 57.3087 64.9573C57.4677 64.9808 57.6198 65.0073 57.7759 65.0328C58.2882 65.1143 58.7878 65.2036 59.2737 65.2997C59.4542 65.335 59.6368 65.3704 59.8145 65.4077C60.4004 65.5313 60.9707 65.6628 61.5174 65.8051C61.6381 65.8364 61.7519 65.8728 61.8717 65.9042C65.8212 66.9766 68.7362 68.4818 70.7993 69.8879C72.1617 70.8162 74 69.8536 74 68.2051C74 67.1856 73.4945 66.225 72.6338 65.6795C70.8209 64.5295 68.5429 63.3667 65.7574 62.3874C65.7191 62.3737 65.6818 62.359 65.6436 62.3462C65.0851 62.152 64.5001 61.9675 63.9014 61.7879V52.1974H65.9213C66.8204 52.1974 67.5496 51.4684 67.5496 50.5696C67.5496 49.0409 66.31 47.8016 64.7798 47.8016H63.9014V38.2111C64.5001 38.0325 65.0851 37.848 65.6436 37.6538Z" fill="white"/>
<defs>
<linearGradient id="paint0_linear" x1="50" y1="5" x2="50" y2="95" gradientUnits="userSpaceOnUse">
<stop stop-color="#006CF1"/>
<stop offset="1" stop-color="#0064E0"/>
</linearGradient>
</defs>
</svg>
