<svg width="100" height="100" viewBox="0 0 100 100" fill="none" xmlns="http://www.w3.org/2000/svg">
<path d="M38.607 68.1329V31.8161H27V68.1329H38.607Z" fill="black"/>
<path d="M73 56.1463C73 49.6685 68.9427 46.2 59.7495 44.9248L55.3327 44.3128C53.0215 44.0067 51.8916 43.1906 51.8916 41.8644C51.8916 40.2832 53.381 39.5181 56.3085 39.5181C59.6468 39.5181 60.9821 40.6913 61.2389 42.9866H71.9728C71.3052 34.9785 65.9639 31 55.8976 31C47.7316 31 40.336 33.6523 40.336 42.8846C40.336 49.5664 44.7014 53.3409 51.6862 54.3101L56.103 54.9221C60.0063 55.4832 61.2903 56.2483 61.2903 57.8805C61.2903 59.5638 59.6981 60.3799 56.5139 60.3799C53.0215 60.3799 51.1726 59.4107 50.9158 56.1973H39.4629C39.8224 65.6846 47.8343 69 56.3085 69C64.7313 69 73 65.7866 73 56.1463Z" fill="black"/>
</svg>
