<?xml version="1.0" encoding="UTF-8"?><svg xmlns="http://www.w3.org/2000/svg" xmlns:xlink="http://www.w3.org/1999/xlink" width="75pt" zoomAndPan="magnify" viewBox="0 0 75 74.999997" height="74.999997pt" preserveAspectRatio="xMidYMid meet" version="1.2"><defs><clipPath xml:id="clip1" id="clip1"><path d="M 15 15 L 60 15 L 60 60.945312 L 15 60.945312 Z M 15 15 "/></clipPath></defs><g xml:id="surface1" id="surface1"><path style=" stroke:none;fill-rule:nonzero;fill:rgb(0%,100%,78.819275%);fill-opacity:1;" d="M 37.5 0 C 36.273438 0 35.046875 0.0585938 33.824219 0.179688 C 32.601562 0.300781 31.390625 0.480469 30.183594 0.71875 C 28.980469 0.960938 27.789062 1.257812 26.613281 1.613281 C 25.4375 1.972656 24.285156 2.382812 23.148438 2.855469 C 22.015625 3.324219 20.90625 3.847656 19.824219 4.429688 C 18.738281 5.007812 17.6875 5.636719 16.667969 6.320312 C 15.644531 7.003906 14.660156 7.734375 13.710938 8.511719 C 12.761719 9.292969 11.851562 10.113281 10.984375 10.984375 C 10.113281 11.851562 9.292969 12.761719 8.511719 13.710938 C 7.734375 14.660156 7.003906 15.644531 6.320312 16.667969 C 5.636719 17.6875 5.007812 18.738281 4.429688 19.824219 C 3.847656 20.90625 3.324219 22.015625 2.855469 23.148438 C 2.382812 24.285156 1.972656 25.4375 1.613281 26.613281 C 1.257812 27.789062 0.960938 28.980469 0.71875 30.183594 C 0.480469 31.390625 0.300781 32.601562 0.179688 33.824219 C 0.0585938 35.046875 0 36.273438 0 37.5 C 0 38.726562 0.0585938 39.953125 0.179688 41.175781 C 0.300781 42.398438 0.480469 43.609375 0.71875 44.816406 C 0.960938 46.019531 1.257812 47.210938 1.613281 48.386719 C 1.972656 49.5625 2.382812 50.714844 2.855469 51.851562 C 3.324219 52.984375 3.847656 54.09375 4.429688 55.175781 C 5.007812 56.261719 5.636719 57.3125 6.320312 58.332031 C 7.003906 59.355469 7.734375 60.339844 8.511719 61.289062 C 9.292969 62.238281 10.113281 63.148438 10.984375 64.015625 C 11.851562 64.886719 12.761719 65.707031 13.710938 66.488281 C 14.660156 67.265625 15.644531 67.996094 16.667969 68.679688 C 17.6875 69.363281 18.738281 69.992188 19.824219 70.570312 C 20.90625 71.152344 22.015625 71.675781 23.148438 72.144531 C 24.285156 72.617188 25.4375 73.027344 26.613281 73.386719 C 27.789062 73.742188 28.980469 74.039062 30.183594 74.28125 C 31.390625 74.519531 32.601562 74.699219 33.824219 74.820312 C 35.046875 74.941406 36.273438 75 37.5 75 C 38.726562 75 39.953125 74.941406 41.175781 74.820312 C 42.398438 74.699219 43.609375 74.519531 44.816406 74.28125 C 46.019531 74.039062 47.210938 73.742188 48.386719 73.386719 C 49.5625 73.027344 50.714844 72.617188 51.851562 72.144531 C 52.984375 71.675781 54.09375 71.152344 55.175781 70.570312 C 56.261719 69.992188 57.3125 69.363281 58.332031 68.679688 C 59.355469 67.996094 60.339844 67.265625 61.289062 66.488281 C 62.238281 65.707031 63.148438 64.886719 64.015625 64.015625 C 64.886719 63.148438 65.707031 62.238281 66.488281 61.289062 C 67.265625 60.339844 67.996094 59.355469 68.679688 58.332031 C 69.363281 57.3125 69.992188 56.261719 70.570312 55.175781 C 71.152344 54.09375 71.675781 52.984375 72.144531 51.851562 C 72.617188 50.714844 73.027344 49.5625 73.386719 48.386719 C 73.742188 47.210938 74.039062 46.019531 74.28125 44.816406 C 74.519531 43.609375 74.699219 42.398438 74.820312 41.175781 C 74.941406 39.953125 75 38.726562 75 37.5 C 75 36.273438 74.941406 35.046875 74.820312 33.824219 C 74.699219 32.601562 74.519531 31.390625 74.28125 30.183594 C 74.039062 28.980469 73.742188 27.789062 73.386719 26.613281 C 73.027344 25.4375 72.617188 24.285156 72.144531 23.148438 C 71.675781 22.015625 71.152344 20.90625 70.570312 19.824219 C 69.992188 18.738281 69.363281 17.6875 68.679688 16.667969 C 67.996094 15.644531 67.265625 14.660156 66.488281 13.710938 C 65.707031 12.761719 64.886719 11.851562 64.015625 10.984375 C 63.148438 10.113281 62.238281 9.292969 61.289062 8.511719 C 60.339844 7.734375 59.355469 7.003906 58.332031 6.320312 C 57.3125 5.636719 56.261719 5.007812 55.175781 4.429688 C 54.09375 3.847656 52.984375 3.324219 51.851562 2.855469 C 50.714844 2.382812 49.5625 1.972656 48.386719 1.613281 C 47.210938 1.257812 46.019531 0.960938 44.816406 0.71875 C 43.609375 0.480469 42.398438 0.300781 41.175781 0.179688 C 39.953125 0.0585938 38.726562 0 37.5 0 Z M 37.5 0 "/><g clip-rule="nonzero" clip-path="url(#clip1)"><path style=" stroke:none;fill-rule:nonzero;fill:rgb(0%,0%,0%);fill-opacity:1;" d="M 59.183594 16.429688 C 56.84375 14.085938 50.550781 17.710938 45.625 21.226562 C 43.191406 20.058594 40.480469 19.390625 37.605469 19.390625 C 27.304688 19.390625 18.929688 27.769531 18.929688 38.066406 C 18.929688 40.941406 19.597656 43.652344 20.765625 46.085938 C 17.226562 51.046875 13.621094 57.3125 15.960938 59.652344 C 16.492188 60.183594 17.222656 60.445312 18.152344 60.445312 C 20.097656 60.445312 22.902344 59.292969 26.539062 56.992188 C 27.527344 56.367188 28.5625 55.65625 29.617188 54.894531 C 32.042969 56.058594 34.738281 56.738281 37.605469 56.738281 C 47.902344 56.738281 56.28125 48.363281 56.28125 38.0625 C 56.28125 35.199219 55.597656 32.503906 54.4375 30.078125 C 55.195312 29.023438 55.90625 27.988281 56.53125 27.003906 C 59.929688 21.625 60.824219 18.066406 59.183594 16.429688 Z M 53.457031 28.238281 C 52.414062 29.726562 51.203125 31.324219 49.835938 33.003906 C 49.820312 33.023438 49.800781 33.046875 49.78125 33.070312 C 49.382812 33.558594 48.96875 34.054688 48.542969 34.554688 C 48.414062 34.710938 48.285156 34.863281 48.152344 35.019531 C 47.789062 35.445312 47.417969 35.871094 47.035156 36.304688 C 46.804688 36.566406 46.566406 36.832031 46.328125 37.09375 C 46.011719 37.449219 45.695312 37.800781 45.367188 38.15625 C 45.007812 38.546875 44.640625 38.933594 44.273438 39.324219 C 44.03125 39.578125 43.800781 39.832031 43.550781 40.089844 C 42.917969 40.75 42.273438 41.414062 41.609375 42.074219 C 40.953125 42.734375 40.289062 43.378906 39.628906 44.011719 C 39.367188 44.265625 39.105469 44.503906 38.84375 44.753906 C 38.460938 45.113281 38.078125 45.472656 37.695312 45.824219 C 37.339844 46.152344 36.984375 46.46875 36.632812 46.789062 C 36.367188 47.027344 36.101562 47.265625 35.832031 47.5 C 35.410156 47.871094 34.992188 48.238281 34.578125 48.589844 C 34.40625 48.738281 34.238281 48.882812 34.066406 49.023438 C 33.585938 49.433594 33.105469 49.832031 32.636719 50.214844 C 32.585938 50.257812 32.527344 50.300781 32.472656 50.347656 C 30.84375 51.671875 29.285156 52.851562 27.832031 53.871094 C 27.050781 54.421875 26.277344 54.945312 25.535156 55.414062 C 20.128906 58.832031 17.800781 58.859375 17.277344 58.332031 C 16.601562 57.660156 17.335938 54.316406 21.769531 47.917969 C 22.941406 49.785156 24.417969 51.441406 26.152344 52.789062 C 29.886719 50.226562 34.714844 46.328125 40.289062 40.753906 C 45.863281 35.175781 49.757812 30.34375 52.316406 26.609375 C 50.96875 24.878906 49.316406 23.40625 47.453125 22.234375 C 53.855469 17.804688 57.195312 17.085938 57.859375 17.75 C 58.386719 18.273438 58.363281 20.605469 54.949219 26.003906 C 54.496094 26.726562 53.988281 27.476562 53.457031 28.238281 Z M 53.457031 28.238281 "/></g></g></svg>