<svg width="105" height="133" viewBox="0 0 105 133" fill="none" xmlns="http://www.w3.org/2000/svg">
<path d="M82.9319 83.1584L75.3874 79.0396L67.8429 83.1584M82.9319 83.1584L75.3874 87.1188M82.9319 83.1584V91.396L79.1596 93.4554M75.3874 87.1188L67.8429 83.1584M75.3874 87.1188V91.3168M67.8429 83.1584V91.396L71.6152 93.4554" stroke="#6E56F8" stroke-width="2"/>
<path d="M84.3036 97.099L74.7015 91.7129L65.0994 97.099M84.3036 97.099L74.7015 102.278M84.3036 97.099V107.871L74.7015 113.257M74.7015 102.278L65.0994 97.099M74.7015 102.278V113.257M65.0994 97.099V101.5M74.7015 113.257L69.9005 110.564" stroke="#6E56F8" stroke-width="2.5"/>
<path d="M70.5863 104.386L54.8115 95.5149L46.924 99.9505M70.5863 104.386L54.8115 112.916M70.5863 104.386V122.129L54.8115 131M54.8115 112.916V131M54.8115 112.916L46.924 108.651M54.8115 131L39.0366 122.129V113.257" stroke="#6E56F8" stroke-width="3"/>
<path d="M45.8953 85.3762L25.3194 96.3435M45.8953 85.3762V108.188L25.3194 119.594M45.8953 85.3762L38.9027 81.5M25.3194 96.3435L4.74346 85.3762M25.3194 96.3435V119.594M4.74346 85.3762V108.188L25.3194 119.594M4.74346 85.3762L13.5 81.5" stroke="#6E56F8" stroke-width="3.5"/>
<path d="M26.6911 61.4067L2 48.3069M26.6911 61.4067V89.1782M26.6911 61.4067L42.5 53.0193M2 48.3069L26.6911 34.6831L42.5 43M2 48.3069V75.5544L26.6911 89.1782M26.6911 89.1782L51.3822 75.5544V58" stroke="#6E56F8" stroke-width="4"/>
<path d="M102.136 19.4752L71.9581 3L41.7801 19.4752M102.136 19.4752L71.9581 35.3168M102.136 19.4752V52.4257L71.9581 68.901M71.9581 35.3168L41.7801 19.4752M71.9581 35.3168V68.901M41.7801 19.4752V52.4257L71.9581 68.901" stroke="#6E56F8" stroke-width="5"/>
</svg>
