<?xml version="1.0" standalone="no"?>
<!DOCTYPE svg PUBLIC "-//W3C//DTD SVG 20010904//EN"
 "http://www.w3.org/TR/2001/REC-SVG-20010904/DTD/svg10.dtd">
<svg version="1.0" xmlns="http://www.w3.org/2000/svg"
 width="300.000000pt" height="300.000000pt" viewBox="0 0 300.000000 300.000000"
 preserveAspectRatio="xMidYMid meet">
<metadata>
Created by potrace 1.10, written by Peter Selinger 2001-2011
</metadata>
<g transform="translate(0.000000,300.000000) scale(0.100000,-0.100000)"
fill="#000000" stroke="none">
<path d="M999 2500 c0 -3 0 -35 1 -72 l1 -68 -75 0 -76 0 0 -75 0 -75 -75 0
-75 0 0 -150 0 -150 -75 0 -76 0 3 -72 3 -71 73 2 72 2 0 -520 0 -521 75 0 75
0 0 -365 c0 -332 5 -399 24 -349 3 9 6 166 6 350 0 260 3 334 13 336 6 0 19 2
27 3 8 1 23 -3 33 -7 16 -8 17 -27 16 -211 -2 -427 0 -487 16 -487 13 0 15 47
15 365 l0 365 -75 0 -75 0 0 520 0 520 76 0 76 0 -4 -75 -3 -75 223 0 222 0 0
75 0 75 75 0 75 0 0 -75 0 -75 148 0 147 0 -3 -150 -3 -150 -145 0 -144 0 0
-72 0 -73 370 3 370 2 0 -75 0 -75 -370 0 -370 0 0 -75 0 -75 148 0 147 0 0
-72 0 -73 73 -3 72 -3 0 76 0 75 223 0 222 0 0 220 0 220 -222 0 -223 0 0 445
0 445 -75 0 -75 0 0 75 0 75 -76 0 -76 0 4 73 3 72 -368 0 c-202 0 -367 -2
-368 -5z m710 -63 c-2 -34 -6 -46 -18 -46 -9 0 -144 -3 -301 -6 -217 -3 -286
-1 -292 8 -6 8 -10 9 -15 1 -9 -12 -54 -14 -47 -2 3 4 1 8 -5 8 -6 0 -8 16 -6
38 2 20 4 37 4 37 1 0 154 2 341 3 l340 4 -1 -45z m22 -154 l-2 -73 75 0 75 0
3 -150 3 -150 -517 0 -518 0 0 150 0 150 75 0 75 0 0 75 0 75 367 -2 366 -3
-2 -72z m-763 2 l-1 -45 -48 0 -48 0 1 38 c0 20 2 39 3 42 2 3 23 6 48 8 l45
3 0 -46z m882 29 c0 -6 3 -25 6 -41 6 -28 4 -31 -28 -35 -39 -6 -59 0 -56 16
1 6 -2 22 -6 35 -5 15 -4 26 4 31 19 12 80 7 80 -6z m150 -543 c0 -227 -2
-416 -5 -422 -4 -5 -1 -9 5 -9 6 0 9 -4 5 -9 -14 -24 42 -31 237 -31 l203 0 3
-165 c2 -91 1 -178 -3 -195 l-7 -30 -196 0 c-108 0 -202 -4 -208 -8 -20 -13
-31 -47 -31 -92 l0 -45 -50 -1 c-49 -1 -49 -1 -51 32 -2 19 2 44 9 55 8 15 8
19 0 15 -6 -4 -11 0 -11 9 0 24 -21 28 -159 29 l-126 1 -3 48 -3 47 358 0
c266 0 362 3 371 12 16 16 16 160 0 176 -9 9 -104 12 -364 12 l-352 0 -4 41
c-2 24 1 44 8 50 8 6 63 9 133 8 160 -4 155 -9 154 158 -1 70 -6 140 -11 154
-13 33 -29 36 -167 39 -60 1 -112 3 -116 5 -3 3 -5 27 -3 54 4 69 -14 84 -106
84 -39 1 -74 -3 -79 -9 -5 -5 -12 -35 -14 -67 -3 -32 -7 -60 -9 -62 -3 -3
-279 -7 -364 -5 -18 0 -21 7 -23 53 -3 83 -6 87 -61 87 -27 0 -56 3 -66 7 -13
5 -15 3 -9 -8 7 -11 6 -12 -6 -2 -11 9 -19 7 -37 -7 l-23 -19 -2 -498 -2 -498
-42 -3 -43 -3 0 500 c0 328 -3 502 -10 506 -6 4 -8 11 -4 16 3 5 2 9 -3 8 -4
-1 -36 -1 -70 0 l-63 1 0 40 c0 25 5 40 13 40 8 0 7 4 -3 10 -11 8 0 10 40 10
75 0 90 2 84 12 -3 4 0 8 5 8 7 0 11 47 11 135 l0 135 45 0 c25 0 44 -3 44 -7
-1 -5 -1 -66 0 -136 1 -120 2 -129 21 -134 11 -3 18 -9 15 -13 -3 -4 2 -10 10
-14 8 -3 17 -1 20 4 4 6 198 10 505 10 442 0 499 2 504 16 3 8 9 13 13 11 10
-6 9 236 -1 251 -4 7 9 12 41 14 27 2 49 3 51 2 1 -1 2 -187 2 -413z"/>
<path d="M1442 2170 c0 -19 2 -27 5 -17 2 9 2 25 0 35 -3 9 -5 1 -5 -18z"/>
<path d="M995 1395 l0 -75 73 0 72 0 0 75 0 75 -72 0 -73 0 0 -75z m117 22 c2
-12 2 -32 -1 -45 -3 -20 -8 -23 -45 -20 -41 3 -41 3 -41 43 0 36 3 40 30 46
40 7 53 2 57 -24z"/>
<path d="M1440 955 l0 -75 -75 0 -75 0 0 -75 0 -75 -75 0 -75 0 0 -365 c0
-225 4 -365 10 -365 18 0 22 74 17 323 -3 138 -3 281 1 317 l7 65 38 -3 c32
-3 87 10 106 24 2 2 -2 10 -9 19 -10 12 -10 15 0 15 8 0 11 9 7 27 -3 15 -1
38 4 50 8 21 15 24 58 22 67 -3 79 9 83 84 l3 62 53 3 c75 4 65 22 -13 22
l-65 0 0 -75z"/>
<path d="M1592 660 l3 -75 143 -3 142 -3 0 75 0 75 -145 3 -146 3 3 -75z m258
-1 l0 -49 -120 0 -120 0 0 50 0 51 120 -2 120 -1 0 -49z"/>
<path d="M1440 293 c0 -189 4 -293 10 -293 11 0 14 118 11 374 -1 82 1 157 4
168 5 14 16 18 51 18 l44 0 0 -280 c0 -242 2 -280 15 -280 13 0 15 39 15 289
l0 289 -75 4 -75 3 0 -292z"/>
</g>
</svg>
