<svg width="200" height="225" viewBox="0 0 200 225" fill="none" xmlns="http://www.w3.org/2000/svg">
<path d="M199.453 35.0652C158.253 35.0652 126.69 24.1239 99.9961 0C73.3101 24.1239 41.7473 35.0652 0.546964 35.0652C0.546964 97.8888 -13.4358 187.883 99.9961 224.432C213.438 187.884 199.453 97.8895 199.453 35.0652Z" fill="#FFDF75"/>
<path d="M92.7273 164.773C86.452 164.773 80.6629 163.625 75.3598 161.329C70.1452 158.944 65.8586 155.588 62.5 151.261L74.4318 136.954C79.4697 143.754 85.2146 147.154 91.6667 147.154C100.417 147.154 104.792 142.032 104.792 131.788V87.6756H72.178V70.4546H126.136V130.596C126.136 141.988 123.308 150.554 117.652 156.295C111.995 161.947 103.687 164.773 92.7273 164.773Z" fill="black"/>
</svg>
