<?xml version="1.0" standalone="no"?>
<!DOCTYPE svg PUBLIC "-//W3C//DTD SVG 20010904//EN"
 "http://www.w3.org/TR/2001/REC-SVG-20010904/DTD/svg10.dtd">
<svg version="1.0" xmlns="http://www.w3.org/2000/svg"
 width="400.000000pt" height="400.000000pt" viewBox="0 0 400.000000 400.000000"
 preserveAspectRatio="xMidYMid meet">

<g transform="translate(0.000000,400.000000) scale(0.100000,-0.100000)"
fill="#000000" stroke="none">
<path d="M1900 3840 c0 -19 -26 -32 -60 -28 -36 3 -50 -3 -50 -22 0 -18 -8
-20 -147 -22 l-148 -3 -3 -52 -3 -53 -75 0 -74 0 0 -49 c0 -44 3 -50 23 -53
14 -2 23 -11 25 -25 3 -23 6 -23 133 -23 l129 0 0 -25 c0 -24 2 -25 70 -25
l70 0 0 -101 c0 -98 0 -100 -22 -97 -15 2 -24 11 -26 26 -3 20 -8 22 -72 22
l-69 0 -3 53 -3 52 -102 3 c-94 2 -103 4 -103 22 0 17 -9 19 -77 22 -77 3 -78
3 -81 31 -3 27 -4 27 -77 27 -73 0 -74 0 -77 -27 l-3 -28 -197 -3 c-190 -2
-198 -3 -198 -22 0 -18 -7 -20 -75 -20 l-75 0 0 -54 c0 -52 -1 -55 -27 -58
-26 -3 -28 -7 -31 -50 -3 -43 -5 -48 -28 -48 -20 0 -24 -5 -24 -30 0 -23 -5
-30 -19 -30 -13 0 -21 -8 -23 -22 -2 -15 -11 -24 -25 -26 -19 -3 -22 -11 -25
-50 -3 -40 -6 -47 -25 -50 -17 -3 -23 -10 -23 -28 0 -22 -3 -24 -55 -24 -52 0
-55 -2 -55 -24 0 -18 -6 -25 -22 -28 -20 -3 -23 -10 -26 -50 -3 -45 -2 -48 22
-48 23 0 25 -4 29 -62 3 -35 5 -183 6 -330 l0 -268 46 0 45 0 0 260 c0 173 -3
260 -10 260 -6 0 -2 9 9 21 25 27 56 22 56 -11 0 -23 4 -25 48 -28 42 -3 47
-6 47 -27 0 -31 6 -34 63 -28 41 5 47 8 47 29 0 24 0 24 125 24 l125 0 0 -50
c0 -46 2 -50 24 -50 23 0 25 -4 28 -52 l3 -53 47 -3 47 -3 3 -47 c3 -43 5 -47
31 -50 21 -3 27 -9 27 -26 0 -15 7 -26 20 -29 17 -4 20 -14 20 -55 0 -45 -2
-50 -19 -45 -15 4 -19 0 -17 -14 2 -13 13 -19 39 -21 36 -3 36 -3 39 -55 3
-48 5 -52 31 -55 21 -3 27 -9 27 -28 l0 -24 130 0 130 0 0 25 c0 20 5 25 25
25 25 0 25 1 25 80 l0 81 73 -3 c70 -3 72 -4 75 -30 2 -19 10 -28 25 -30 19
-3 22 -10 25 -50 4 -56 -4 -53 155 -48 l97 2 -2 -208 -3 -209 -52 -3 -52 -3 2
-67 2 -67 50 -5 50 -5 5 -75 c5 -68 7 -75 28 -78 16 -3 22 -10 22 -28 0 -19 5
-24 24 -24 18 0 25 -6 28 -22 2 -17 11 -24 31 -26 23 -3 27 -8 27 -33 0 -22 5
-29 20 -29 17 0 19 -8 22 -72 l3 -73 52 -3 52 -3 3 -47 c3 -40 6 -47 26 -50
21 -3 22 -7 22 -103 0 -99 0 -99 -25 -99 -23 0 -25 -3 -25 -49 l0 -50 -52 -3
c-49 -3 -53 -5 -56 -30 -2 -20 -9 -28 -22 -28 -11 0 -20 -8 -22 -22 -3 -18
-10 -21 -53 -22 l-50 -1 -3 -52 -3 -53 -99 0 c-95 0 -99 -1 -102 -22 -3 -21
-9 -23 -75 -26 -70 -3 -73 -4 -73 -27 0 -23 -4 -25 -50 -25 -43 0 -50 -3 -50
-20 0 -20 -7 -20 -280 -20 l-280 0 0 -30 0 -30 373 0 c204 0 807 -3 1340 -7
l967 -6 0 31 0 32 -95 0 c-88 0 -95 1 -95 20 0 16 -7 20 -30 20 -27 0 -30 3
-30 30 0 25 -4 30 -24 30 -18 0 -25 6 -28 23 -3 19 -10 22 -50 25 l-48 3 0 50
0 49 -75 0 -75 0 0 49 c0 47 -2 50 -27 53 l-28 3 -3 102 c-3 96 -4 102 -25
105 -19 3 -22 9 -23 52 -1 41 -4 51 -22 57 -12 5 -22 15 -22 24 0 9 -9 15 -25
15 -20 0 -25 5 -25 25 0 23 -3 25 -50 25 l-50 0 0 105 0 105 -25 0 c-20 0 -25
5 -25 24 0 19 -6 25 -27 28 -26 3 -28 7 -31 56 -3 43 -6 52 -22 52 -15 0 -19
9 -22 48 -3 40 -6 47 -25 50 -21 3 -28 17 -20 40 1 4 -23 9 -53 12 -48 4 -55
8 -58 28 -3 16 -10 22 -28 22 -17 0 -24 5 -24 20 0 15 -7 20 -25 20 -20 0 -25
5 -25 26 0 17 -6 28 -19 31 -16 4 -21 15 -23 51 -3 40 -6 47 -28 52 -22 5 -25
12 -28 53 l-3 47 45 0 c38 0 45 -3 48 -22 2 -14 12 -24 28 -28 15 -4 26 -15
30 -30 4 -15 14 -26 27 -28 17 -3 22 3 25 25 3 27 4 28 75 31 l72 3 3 -28 c3
-26 6 -28 56 -31 l52 -3 0 31 0 31 72 -3 c68 -3 73 -5 78 -28 5 -22 11 -25 50
-25 42 0 45 2 48 28 3 21 9 27 28 27 22 0 24 4 24 50 0 47 -2 50 -25 50 -20 0
-25 5 -25 25 0 23 3 25 49 25 47 0 50 2 53 28 3 25 6 27 48 27 l45 0 3 53 3
52 -50 0 c-47 0 -50 2 -53 28 -2 19 -9 28 -24 30 -12 2 -24 12 -27 23 -4 17
-14 19 -76 19 -64 0 -71 2 -71 20 0 18 -30 34 -56 29 -24 -4 -34 3 -34 26 l0
25 114 0 115 0 3 -27 c2 -22 9 -29 31 -31 21 -3 27 -9 27 -28 0 -23 2 -24 80
-24 64 0 80 -3 80 -15 0 -10 16 -16 50 -21 l50 -7 0 -172 c0 -148 2 -174 16
-179 20 -8 24 -8 23 2 -1 4 -1 73 0 155 l1 147 30 0 c25 0 30 4 30 25 0 24 3
25 55 25 48 0 55 3 55 19 0 13 8 21 23 23 14 2 23 11 25 26 2 14 10 22 23 22
17 0 19 8 19 74 0 70 1 74 25 80 18 5 25 13 25 31 0 20 5 25 25 25 21 0 25 5
25 30 0 25 -4 30 -25 30 -23 0 -25 3 -25 50 0 47 -2 50 -25 50 -20 0 -25 5
-25 25 0 18 -5 25 -20 25 -17 0 -20 7 -20 49 0 47 -2 50 -27 53 -22 2 -28 8
-28 28 0 20 6 26 28 28 19 2 27 9 27 23 0 12 7 19 20 19 14 0 20 7 20 24 0 15
-7 26 -20 29 -12 3 -20 14 -20 26 0 18 -7 20 -77 23 l-78 3 -3 53 -3 52 -49 0
c-43 0 -49 3 -52 23 -3 19 -10 22 -50 25 -43 3 -48 5 -48 28 0 19 5 24 26 24
22 0 25 4 22 28 -2 19 -9 28 -25 30 -15 2 -23 10 -23 22 0 13 -8 20 -27 22
-26 3 -28 7 -31 56 l-3 52 -120 0 -119 0 0 50 c0 46 -2 50 -24 50 -18 0 -25 6
-28 23 -3 24 -2 24 -93 26 l-65 1 0 50 c0 47 -2 50 -25 50 -23 0 -25 3 -25 50
l0 50 -50 0 c-47 0 -50 2 -50 25 l0 25 -125 0 -125 0 0 25 0 25 -205 0 c-198
0 -205 -1 -205 -20z m410 -125 l5 -50 115 -1 c101 -1 115 -3 125 -20 13 -24
27 -34 38 -27 4 2 15 2 25 -2 14 -5 14 -7 2 -15 -11 -7 -11 -10 -2 -10 8 0 6
-8 -8 -22 -16 -18 -29 -21 -74 -19 -46 2 -57 -1 -79 -22 -22 -23 -30 -25 -86
-20 -42 4 -61 2 -61 -6 0 -6 5 -11 10 -11 6 0 1 -9 -10 -20 -12 -12 -25 -18
-30 -15 -5 3 -11 2 -13 -2 -3 -5 -56 -5 -119 -1 -62 4 -130 5 -150 2 -44 -7
-98 3 -98 18 0 21 -27 35 -63 33 -32 -2 -38 1 -43 21 -6 21 -12 24 -60 25 -66
2 -64 2 -89 17 -14 9 -16 15 -7 18 6 3 10 9 7 14 -8 13 24 19 83 17 47 -2 53
0 59 21 5 22 13 24 81 25 20 0 22 5 22 48 0 28 5 49 13 52 6 3 100 5 207 4
l195 -2 5 -50z m401 -222 c7 -19 15 -24 29 -20 11 3 23 0 27 -6 8 -13 6 -184
-2 -198 -4 -5 -31 -9 -61 -9 -30 0 -54 -4 -54 -8 0 -5 -24 -5 -52 -1 -29 4
-90 8 -135 8 -97 1 -113 6 -113 35 0 21 4 22 50 18 l50 -4 0 46 c0 55 15 66
93 66 46 0 55 3 60 20 3 11 17 24 31 30 14 5 26 15 26 23 0 17 21 38 32 31 5
-3 14 -17 19 -31z m90 -36 c-10 -9 -11 -8 -5 6 3 10 9 15 12 12 3 -3 0 -11 -7
-18z m-1571 -48 c0 -5 8 -9 18 -10 10 0 12 -3 5 -6 -8 -2 -13 -22 -13 -44 l0
-39 59 0 c38 0 61 4 64 13 3 7 6 5 6 -5 1 -10 5 -18 10 -18 5 0 13 -9 16 -20
6 -18 15 -20 91 -20 60 0 84 4 84 13 1 6 10 -5 21 -25 17 -33 24 -38 54 -38
21 0 38 6 45 18 11 16 11 16 6 -2 -5 -15 -2 -17 14 -13 11 3 20 1 20 -4 0 -5
13 -9 30 -9 23 0 31 -5 36 -23 4 -18 13 -24 35 -25 16 0 27 4 24 9 -4 5 2 9
11 9 10 0 14 -3 11 -7 -4 -3 0 -11 8 -17 18 -14 24 -194 7 -205 -7 -4 -32 -6
-56 -5 -39 2 -45 -1 -48 -20 -3 -19 -10 -21 -94 -24 -82 -2 -92 -5 -97 -22 -5
-19 -19 -23 -79 -23 -12 0 -18 -7 -18 -23 0 -16 -7 -24 -27 -28 l-28 -6 -3
-126 c-4 -125 -3 -125 19 -122 25 4 45 -22 36 -46 -4 -9 -17 -16 -29 -16 -21
0 -23 -4 -22 -53 2 -82 2 -84 34 -97 22 -9 28 -16 20 -25 -5 -6 -7 -15 -3 -18
3 -4 -1 -7 -10 -7 -9 0 -17 -4 -17 -10 0 -5 -8 -6 -17 -3 -12 5 -15 2 -10 -10
4 -11 -1 -20 -13 -27 -11 -6 -20 -8 -20 -5 0 3 -6 0 -14 -7 -8 -7 -12 -16 -10
-19 2 -4 -5 -9 -16 -12 -16 -4 -20 -14 -21 -49 -2 -101 3 -93 -64 -93 l-60 0
-3 68 -3 67 -38 0 c-25 0 -44 7 -56 20 -14 16 -20 17 -27 8 -5 -9 -8 -10 -8
-1 0 18 21 27 30 14 4 -7 7 0 8 16 0 23 -5 31 -29 40 -16 6 -29 18 -29 26 0 9
-9 19 -20 22 -11 3 -21 12 -22 18 0 7 -2 17 -3 22 -2 6 -3 22 -4 38 0 15 -7
27 -14 27 -7 0 -21 14 -31 31 -11 18 -14 29 -7 25 7 -5 11 3 11 25 0 28 -2 30
-17 18 -9 -8 -14 -9 -10 -3 4 7 0 14 -8 18 -10 4 -15 20 -15 51 l0 45 -42 0
c-24 0 -52 7 -62 15 -14 11 -16 15 -5 15 12 0 12 2 -1 9 -8 6 -17 8 -21 5 -4
-2 -10 5 -14 16 -4 11 -9 18 -13 16 -4 -2 -5 15 -4 39 l4 43 -119 -2 -118 -1
-3 -45 c-4 -50 -28 -81 -64 -79 -22 1 -22 1 2 8 l25 7 -28 6 c-16 3 -27 1 -27
-6 -1 -29 -29 44 -30 76 l0 37 -68 3 -67 3 -3 43 c-3 37 0 44 18 49 20 5 46
47 41 67 -1 5 5 3 14 -4 8 -7 19 -9 23 -5 4 4 1 10 -6 12 -8 3 0 12 20 23 28
15 33 23 34 56 0 35 23 97 24 66 0 -19 20 -4 30 24 6 14 18 24 30 24 12 0 20
7 20 18 0 10 9 25 20 35 11 9 20 13 20 8 0 -15 65 -6 66 9 2 35 5 39 24 35 11
-2 20 0 20 5 0 5 11 21 25 36 14 15 25 22 25 15 0 -9 47 -11 180 -11 l180 2 0
29 c0 16 -5 29 -12 29 -10 0 -10 2 0 9 8 4 13 11 13 15 -4 29 6 32 90 28 33
-2 59 -8 59 -13z m1620 -39 c-8 -5 -19 -10 -25 -10 -5 0 -3 5 5 10 8 5 20 10
25 10 6 0 3 -5 -5 -10z m54 -19 c3 -5 -1 -11 -9 -14 -9 -4 -12 -1 -8 9 6 16
10 17 17 5z m-74 -51 c0 -5 -4 -10 -10 -10 -5 0 -10 5 -10 10 0 6 5 10 10 10
6 0 10 -4 10 -10z m-525 -20 c0 -11 -13 -16 -47 -18 -43 -3 -48 -1 -48 18 0
19 5 21 48 18 34 -2 47 -7 47 -18z m762 1 c3 -14 14 -19 38 -19 19 0 44 -7 57
-16 12 -9 17 -16 10 -16 -7 0 -11 -4 -8 -9 6 -9 -138 -23 -159 -14 -8 2 -11
11 -8 19 3 9 -1 14 -11 14 -9 0 -20 10 -25 23 -7 19 -5 23 23 28 59 12 78 10
83 -10z m-147 -56 c0 -18 5 -25 20 -25 17 0 20 -7 20 -50 l0 -50 -94 0 c-90 0
-95 1 -98 23 -3 19 -10 22 -55 25 -48 3 -53 5 -53 27 0 24 2 24 103 27 97 3
102 4 105 26 5 34 52 31 52 -3z m-541 -72 c157 -6 174 -8 179 -25 3 -13 14
-18 36 -18 18 0 40 -6 50 -13 17 -12 21 -25 25 -79 1 -12 12 -18 44 -20 32 -2
44 -8 52 -25 9 -21 16 -23 96 -23 84 0 87 1 93 25 4 16 13 25 26 25 16 0 20 7
20 38 0 61 5 63 116 60 l99 -3 3 -49 3 -48 40 5 c21 3 37 1 34 -3 -3 -4 2 -10
10 -14 8 -3 15 -12 15 -21 0 -14 30 -21 68 -16 24 4 42 -21 42 -56 0 -21 -6
-36 -15 -39 -8 -4 -15 -14 -16 -23 0 -10 -2 -11 -6 -3 -7 19 -23 14 -23 -8 0
-12 5 -17 13 -14 7 2 22 -4 32 -16 10 -11 14 -20 10 -20 -5 0 0 -7 11 -15 19
-15 19 -15 -1 -9 -16 6 -18 4 -8 -6 6 -7 9 -19 6 -26 -4 -11 5 -14 35 -14 31
0 45 -6 56 -22 8 -12 12 -26 9 -31 -4 -6 0 -8 9 -4 24 9 38 -13 38 -59 0 -34
4 -44 20 -49 11 -3 20 -13 20 -21 0 -10 5 -12 13 -8 6 5 -14 -17 -45 -48 -56
-55 -57 -56 -60 -119 l-3 -64 -47 -3 c-32 -2 -48 -8 -48 -16 0 -21 -27 -38
-50 -31 -11 3 -20 14 -20 24 0 15 -8 18 -42 18 -39 0 -75 24 -63 43 3 4 -36 8
-87 9 -61 1 -98 7 -112 16 -11 8 -15 15 -9 15 7 0 10 7 7 15 -4 8 -11 12 -18
9 -6 -3 -3 1 6 8 18 15 14 27 -17 44 -11 6 -21 21 -23 33 -4 22 -22 30 -22 9
0 -9 -2 -10 -8 -2 -10 16 -168 18 -177 3 -6 -8 -10 -7 -16 2 -6 10 -9 8 -9 -7
0 -12 -7 -27 -15 -34 -18 -15 -45 -6 -45 15 0 8 -6 15 -12 15 -9 0 -8 4 2 10
12 8 11 10 -7 10 -13 0 -23 -6 -23 -12 0 -9 -4 -8 -10 2 -7 11 -10 12 -10 2 0
-10 -4 -10 -16 2 -8 9 -20 16 -25 16 -5 0 -9 8 -9 18 0 17 -11 19 -123 21
l-123 2 2 -38 c1 -21 0 -32 -3 -25 -7 19 -93 16 -93 -3 0 -8 -5 -24 -12 -34
-10 -17 -13 -17 -26 -4 -13 12 -43 14 -170 12 -147 -3 -155 -3 -162 16 -6 18
-17 20 -95 21 l-87 1 -34 39 c-31 36 -33 44 -34 112 l0 72 70 0 70 0 0 33 c0
18 8 49 18 68 14 28 21 33 30 23 9 -10 8 -14 -6 -17 -9 -3 11 -5 46 -6 51 -1
64 2 69 17 8 23 72 82 89 82 11 0 14 26 14 124 l0 125 28 4 c47 7 131 7 311 0z
m328 -89 c-3 -3 -12 -4 -19 -1 -8 3 -5 6 6 6 11 1 17 -2 13 -5z m-2480 -221
c-3 -10 -5 -4 -5 12 0 17 2 24 5 18 2 -7 2 -21 0 -30z m1308 -332 c-3 -6 -11
-11 -16 -11 -5 0 -4 6 3 14 14 16 24 13 13 -3z m108 -51 c-4 -14 2 -22 21 -30
23 -8 26 -15 26 -55 l0 -45 100 0 c100 0 100 0 100 -25 0 -24 -1 -24 -102 -27
l-103 -3 -3 -68 c-4 -91 -26 -87 -30 6 l-3 67 -31 0 c-30 0 -30 1 -24 38 3 20
6 65 6 100 0 59 1 62 24 62 19 0 23 -4 19 -20z m959 -132 c40 -8 60 -18 64
-30 3 -10 11 -18 18 -18 7 0 21 -10 32 -22 10 -12 13 -18 7 -14 -7 4 -13 2
-13 -4 0 -6 8 -9 18 -6 13 4 23 -1 32 -19 10 -19 21 -25 46 -25 45 0 64 -9 64
-31 0 -16 8 -19 58 -19 31 0 52 -4 46 -8 -5 -4 -10 -16 -10 -27 0 -42 -14 -85
-28 -85 -18 0 -28 -56 -20 -108 3 -22 2 -42 -3 -45 -16 -10 -58 18 -55 36 2
15 -7 17 -68 17 -66 0 -71 -1 -80 -26 -9 -23 -14 -25 -57 -22 -41 3 -48 6 -51
26 -3 20 -9 22 -63 22 -59 0 -89 -13 -89 -39 0 -15 -31 -13 -51 2 -9 7 -14 18
-11 26 3 8 0 11 -7 7 -14 -9 -41 17 -41 39 0 13 -6 16 -24 11 -20 -5 -23 -3
-19 13 3 13 -4 27 -21 42 -14 12 -26 29 -26 36 0 7 -4 13 -10 13 -5 0 -10 5
-10 11 0 5 5 7 10 4 6 -3 10 3 10 14 0 12 -11 25 -27 33 -24 11 -27 18 -25 48
5 44 9 50 32 50 12 0 20 8 22 23 3 20 9 22 68 25 61 3 66 5 78 32 13 27 16 29
80 29 37 1 93 -4 124 -11z m211 -435 c-7 -2 -19 -2 -25 0 -7 3 -2 5 12 5 14 0
19 -2 13 -5z m-113 -1583 l0 -30 81 0 c71 0 80 -2 77 -17 -3 -16 -21 -18 -203
-18 -182 0 -200 2 -203 18 -3 14 4 17 47 17 47 0 51 2 51 23 0 34 6 37 82 37
l68 0 0 -30z"/>
<path d="M287 2123 c-4 -3 -7 -24 -7 -45 0 -33 3 -38 23 -38 18 0 19 2 7 10
-8 5 -10 10 -3 10 6 0 11 15 11 35 0 33 -14 45 -31 28z"/>
<path d="M941 2085 c2 -36 6 -45 21 -45 15 0 18 8 18 45 0 39 -3 45 -20 45
-18 0 -21 -6 -19 -45z"/>
<path d="M343 2023 c-21 -7 -15 -33 7 -33 11 0 20 6 20 14 0 18 -11 25 -27 19z"/>
<path d="M790 2005 c0 -12 14 -15 68 -15 54 0 69 3 69 15 0 12 -15 15 -69 15
-54 0 -68 -3 -68 -15z"/>
<path d="M434 1972 c-45 -3 -51 -5 -47 -22 5 -18 17 -19 194 -20 184 0 189 1
189 21 0 19 -5 20 -119 18 -66 -1 -124 2 -129 5 -6 3 -14 1 -18 -5 -3 -6 -9
-7 -13 -3 -3 5 -29 8 -57 6z m169 -29 c-13 -2 -33 -2 -45 0 -13 2 -3 4 22 4
25 0 35 -2 23 -4z"/>
<path d="M3270 1740 c0 -56 3 -70 15 -70 12 0 15 14 15 70 0 56 -3 70 -15 70
-12 0 -15 -14 -15 -70z"/>
</g>
</svg>
