<?xml version="1.0" standalone="no"?>
<!DOCTYPE svg PUBLIC "-//W3C//DTD SVG 20010904//EN"
 "http://www.w3.org/TR/2001/REC-SVG-20010904/DTD/svg10.dtd">
<svg version="1.0" xmlns="http://www.w3.org/2000/svg"
 width="300.000000pt" height="300.000000pt" viewBox="0 0 300.000000 300.000000"
 preserveAspectRatio="xMidYMid meet">
<metadata>
Created by potrace 1.10, written by Peter Selinger 2001-2011
</metadata>
<g transform="translate(0.000000,300.000000) scale(0.100000,-0.100000)"
fill="#000000" stroke="none">
<path d="M1125 2312 c-32 -5 -78 -24 -106 -43 -14 -10 -30 -15 -34 -11 -5 4
-5 2 -2 -4 3 -6 -8 -24 -27 -40 -18 -16 -35 -38 -39 -49 -3 -11 -12 -38 -20
-60 -10 -27 -14 -66 -11 -123 3 -72 2 -83 -10 -73 -11 9 -16 9 -22 0 -4 -8 -3
-9 4 -5 14 9 15 -4 2 -24 -5 -8 -10 -10 -10 -5 -1 6 -8 -2 -16 -17 -8 -16 -19
-28 -24 -28 -6 0 -10 -6 -10 -14 0 -8 -3 -16 -7 -18 -13 -5 -95 -128 -86 -128
4 0 2 -4 -5 -9 -31 -19 -38 -196 -9 -225 9 -10 17 -22 17 -27 0 -5 16 -27 36
-48 19 -22 36 -49 37 -60 1 -11 3 -18 6 -16 7 8 80 -38 75 -47 -3 -5 -2 -7 3
-6 13 4 113 -73 107 -83 -3 -5 -2 -9 3 -9 20 0 45 -71 55 -154 10 -82 15 -96
49 -142 22 -28 55 -59 74 -70 19 -10 35 -21 35 -24 0 -3 10 -6 22 -7 11 -1 24
-6 27 -10 3 -4 13 -9 21 -10 8 0 47 -8 85 -17 107 -25 234 -23 350 5 22 5 48
11 57 14 9 2 25 8 36 14 11 6 22 7 26 4 3 -3 6 -1 6 5 0 6 9 13 20 17 10 3 36
23 56 43 21 20 41 36 45 35 5 -2 5 5 2 14 -4 10 -2 14 4 10 5 -3 10 -1 10 6 1
7 6 36 12 66 6 29 11 67 11 83 0 38 49 138 67 138 8 0 12 3 10 8 -3 4 1 13 9
20 8 7 14 9 14 5 0 -4 5 0 11 10 5 9 17 17 25 17 8 0 13 4 10 8 -2 4 12 19 32
32 20 14 47 37 60 53 13 15 29 24 34 20 6 -3 8 -1 5 4 -4 6 2 21 13 33 11 13
20 27 20 32 0 5 5 6 12 2 7 -5 8 -3 3 6 -4 7 -2 15 5 20 7 4 14 41 17 86 5 77
4 82 -31 153 -21 40 -41 78 -46 85 -5 6 -23 28 -40 48 -18 22 -28 42 -24 49 4
7 3 9 -3 6 -13 -8 -56 37 -46 47 5 4 1 6 -7 4 -12 -2 -15 13 -15 97 0 83 -4
107 -22 142 -12 22 -19 44 -15 49 4 4 1 4 -5 0 -7 -4 -13 -3 -13 3 0 41 -132
110 -215 114 -30 2 -52 -1 -49 -4 2 -4 -10 -11 -28 -14 -18 -4 -46 -14 -61
-22 -25 -13 -34 -12 -92 12 -66 26 -165 42 -165 26 0 -5 -15 -12 -32 -16 -18
-4 -43 -13 -56 -21 -12 -8 -28 -12 -34 -8 -7 5 -9 2 -4 -7 4 -8 2 -7 -6 2 -7
9 -16 17 -21 17 -32 6 -57 15 -57 22 0 5 -10 6 -22 3 -15 -3 -19 -2 -11 4 12
8 -41 12 -82 5z m152 -54 l53 -25 52 26 c73 36 161 36 238 0 l55 -25 55 25
c33 15 79 27 115 29 54 3 66 0 115 -30 61 -37 114 -101 130 -156 13 -47 13
-123 0 -156 -8 -23 -4 -32 36 -76 159 -170 215 -312 166 -421 -25 -57 -87
-127 -176 -197 -118 -94 -142 -134 -162 -267 -18 -120 -44 -157 -144 -208 -91
-46 -186 -67 -303 -67 -191 0 -360 62 -417 154 -12 21 -26 70 -34 123 -20 132
-47 175 -172 269 -138 104 -201 203 -191 299 8 81 74 196 177 308 l51 56 -12
46 c-29 114 34 244 144 300 66 34 146 31 224 -7z"/>
<path d="M1078 2200 c-44 -24 -93 -91 -102 -142 -8 -45 8 -110 37 -153 18 -26
26 -30 47 -25 100 27 232 126 271 202 19 38 20 41 3 59 -29 32 -138 79 -180
79 -22 -1 -56 -10 -76 -20z m119 -15 c-4 -8 -1 -17 5 -21 6 -4 8 -3 4 4 -20
33 59 2 110 -43 15 -13 -3 -55 -23 -55 -8 0 -11 -4 -8 -10 3 -5 1 -10 -6 -10
-7 0 -10 -3 -6 -6 3 -3 -3 -16 -14 -28 -11 -11 -22 -19 -24 -16 -3 3 -12 -5
-20 -18 -9 -12 -20 -20 -25 -17 -4 3 -10 2 -12 -3 -6 -13 -108 -61 -108 -50 0
7 -5 7 -14 -1 -11 -9 -18 -4 -37 25 -23 38 -29 107 -12 150 13 34 72 96 85 88
6 -4 8 -3 4 4 -8 14 10 20 63 21 34 1 42 -2 38 -14z"/>
<path d="M1093 2154 c3 -4 -7 -17 -22 -30 -80 -67 18 -184 112 -131 12 6 23
13 25 13 2 1 5 18 8 39 6 50 -24 101 -57 97 -4 -1 -21 3 -39 8 -18 5 -30 7
-27 4z m87 -44 c51 -51 -3 -132 -72 -108 -33 12 -54 58 -39 87 24 43 78 54
111 21z"/>
<path d="M1430 2203 c-43 -16 -44 -16 -22 -31 29 -19 28 -47 -7 -107 -65 -112
-177 -203 -298 -244 -80 -27 -97 -26 -121 4 -11 14 -22 25 -25 25 -14 0 -127
-146 -155 -199 -47 -87 -50 -128 -16 -191 66 -122 314 -284 559 -366 95 -32
118 -36 175 -31 178 14 508 181 643 326 54 57 77 104 77 153 0 59 -63 168
-154 268 l-39 43 -23 -26 c-13 -15 -32 -27 -43 -27 -29 0 -141 42 -195 74 -79
46 -173 154 -206 234 -12 30 -11 35 9 56 l22 23 -43 17 c-53 19 -79 19 -138
-1z m105 -13 c-3 -5 4 -6 14 -3 20 5 22 -4 6 -40 -8 -19 23 -97 38 -97 5 0 6
-4 3 -9 -3 -4 5 -21 19 -37 13 -15 21 -33 18 -38 -3 -6 -3 -8 1 -4 4 3 31 -16
59 -44 28 -27 68 -57 89 -65 21 -9 35 -20 31 -26 -3 -5 -1 -7 5 -4 12 8 44 -2
38 -12 -3 -4 3 -8 12 -9 9 -1 24 -3 32 -5 82 -20 92 -19 120 2 l29 21 33 -40
c18 -23 43 -53 56 -68 32 -38 73 -125 79 -166 3 -20 -2 -47 -12 -65 -17 -33
-143 -171 -157 -171 -7 0 -73 -41 -95 -60 -7 -5 -17 -10 -23 -10 -6 0 -18 -7
-27 -15 -8 -8 -19 -13 -24 -10 -5 4 -9 2 -9 -3 0 -12 -49 -34 -60 -27 -5 3
-12 -1 -17 -9 -10 -19 -150 -69 -165 -60 -7 4 -8 3 -4 -4 4 -7 1 -13 -6 -13
-7 -1 -26 -4 -43 -7 -42 -7 -114 -7 -150 1 -16 4 -40 9 -52 11 -12 3 -31 10
-42 16 -12 6 -21 8 -21 5 0 -3 -10 1 -22 9 -12 9 -30 16 -39 16 -9 0 -22 7
-29 15 -6 8 -15 14 -18 13 -11 -3 -112 46 -112 54 0 5 -7 8 -15 8 -9 0 -21 4
-28 10 -58 48 -75 59 -80 53 -4 -3 -9 2 -13 11 -3 9 -10 14 -14 11 -5 -3 -11
4 -15 15 -3 11 -12 20 -20 20 -17 0 -94 86 -107 120 -14 34 -12 94 4 122 7 13
13 25 13 28 6 28 42 80 53 75 7 -2 10 0 7 5 -8 13 55 91 68 83 6 -3 7 -1 3 5
-12 20 11 22 29 2 10 -11 31 -20 47 -20 33 0 151 39 156 51 2 5 10 9 17 9 19
0 97 54 114 79 8 11 18 18 23 15 4 -3 8 0 8 6 0 6 5 8 12 4 6 -4 8 -3 4 4 -3
5 5 24 19 40 14 16 25 33 25 37 0 3 7 13 15 21 25 25 41 93 27 115 -11 17 -9
21 10 28 29 11 90 12 83 1z"/>
<path d="M945 1666 c-41 -18 -70 -52 -94 -109 -21 -49 -20 -88 5 -137 20 -41
85 -34 99 10 6 19 8 19 38 4 18 -9 35 -22 39 -28 4 -6 8 -8 8 -3 0 4 18 -2 40
-13 56 -29 196 -77 247 -85 24 -4 46 -11 49 -16 3 -6 14 -7 24 -4 10 3 21 1
25 -5 3 -6 11 -7 17 -4 6 4 48 8 92 10 116 4 251 38 360 90 28 13 53 24 58 24
5 0 26 12 48 26 43 29 50 28 53 -4 0 -11 4 -20 7 -20 19 2 30 -3 25 -12 -3 -6
5 -5 23 1 28 9 37 22 59 79 23 59 -54 187 -123 204 -47 12 -86 -40 -60 -79 21
-33 20 -42 -6 -51 -13 -4 -25 -10 -28 -14 -17 -25 -250 -110 -302 -110 -16 0
-28 -5 -28 -10 0 -6 -12 -10 -27 -10 -16 0 -64 0 -108 0 -45 -1 -94 4 -110 10
-16 6 -48 14 -70 17 -22 3 -44 9 -49 14 -6 5 -18 9 -27 9 -9 0 -22 7 -29 15
-7 9 -18 14 -24 12 -6 -2 -29 5 -51 16 -22 12 -45 22 -52 23 -7 1 -26 12 -43
24 -30 21 -30 23 -15 46 20 31 19 57 -3 77 -22 20 -28 20 -67 3z m53 -18 c21
-21 13 -45 -19 -66 l-31 -20 85 -46 c136 -74 287 -124 427 -140 127 -15 371
56 549 161 l44 25 -32 25 c-36 28 -39 48 -11 63 27 15 81 -17 111 -66 25 -42
31 -132 10 -158 -31 -37 -78 -5 -60 42 5 13 6 22 2 20 -5 -2 -50 -25 -102 -52
-104 -53 -267 -110 -346 -121 -28 -3 -64 -8 -80 -10 -127 -17 -447 75 -577
166 -35 25 -41 24 -34 -7 12 -47 -41 -76 -64 -35 -30 56 3 168 62 209 37 25
49 27 66 10z"/>
<path d="M945 1371 c-3 -5 -2 -12 3 -15 5 -3 9 1 9 9 0 17 -3 19 -12 6z"/>
<path d="M1755 2191 c-33 -16 -71 -38 -84 -49 -22 -18 -22 -20 -8 -48 35 -67
107 -133 190 -174 115 -55 117 -55 150 9 34 68 35 123 4 181 -55 105 -146 134
-252 81z m148 -2 c11 -7 30 -21 41 -32 12 -11 14 -16 6 -12 -8 4 0 -5 18 -21
28 -24 34 -38 38 -78 3 -27 2 -57 -2 -65 -4 -9 -8 -18 -9 -21 -9 -30 -31 -60
-44 -60 -44 1 -194 98 -221 142 -11 18 -20 29 -20 23 -1 -13 -29 37 -30 52 0
11 64 54 88 57 7 1 18 8 24 14 15 15 83 16 111 1z"/>
<path d="M1823 2138 c-24 -12 -31 -25 -37 -75 -2 -25 3 -38 24 -58 16 -15 39
-27 52 -27 39 -1 77 6 73 13 -3 3 5 16 16 27 11 12 15 22 9 22 -6 0 -9 4 -6 8
3 5 1 25 -5 45 -13 49 -73 71 -126 45z m97 -30 c34 -37 24 -83 -24 -103 -48
-20 -95 12 -96 66 0 4 9 18 21 33 26 33 70 35 99 4z"/>
<path d="M1845 1094 c-103 -56 -262 -104 -345 -104 -80 0 -192 33 -326 95 -72
33 -75 33 -68 12 15 -46 24 -93 24 -128 1 -136 258 -223 517 -174 150 28 233
92 233 180 0 23 7 65 16 94 8 29 14 54 12 55 -2 1 -30 -13 -63 -30z m27 -21
c-5 -10 -10 -38 -11 -63 -1 -25 -4 -54 -8 -65 -9 -31 -44 -76 -54 -70 -5 4
-17 1 -26 -5 -17 -11 -17 -11 0 -6 10 3 16 2 13 -3 -3 -4 -40 -19 -83 -32 -65
-20 -99 -24 -208 -23 -87 0 -138 4 -153 13 -13 7 -32 14 -44 16 -30 6 -78 29
-78 37 0 5 -7 8 -15 8 -8 0 -20 10 -26 23 -7 12 -15 24 -19 27 -4 3 -10 35
-12 73 -6 69 4 86 32 52 7 -8 16 -12 21 -10 4 3 27 -3 51 -14 24 -10 56 -22
71 -25 16 -4 25 -11 21 -17 -3 -6 0 -9 7 -8 8 2 46 -1 84 -5 95 -12 134 -12
128 -3 -4 7 42 12 80 9 10 -1 16 2 13 7 -3 5 15 14 40 20 25 7 56 18 67 25 12
8 36 17 54 21 17 3 37 13 44 21 16 19 22 18 11 -3z"/>
</g>
</svg>
