<svg width="100" height="100" viewBox="0 0 100 100" fill="none" xmlns="http://www.w3.org/2000/svg">
<path fill-rule="evenodd" clip-rule="evenodd" d="M29.7813 49.8693V50.016C29.7872 52.1059 31.4807 53.7983 33.5707 53.8027H35.6507C36.5122 53.8027 37.2107 54.5011 37.2107 55.3627V61.7627H30.7147C29.8531 61.7627 29.1547 61.0642 29.1547 60.2027V57.5787C29.1488 55.4893 27.4573 53.7967 25.368 53.7893H25.2213C23.132 53.7967 21.4405 55.4893 21.4347 57.5787V61.7627H14.1733V38.1333H21.4347V42.368C21.4391 44.4579 23.1314 46.1515 25.2213 46.1573H25.368C27.4579 46.1515 29.1503 44.4579 29.1547 42.368V39.7013C29.1547 39.2876 29.319 38.8908 29.6116 38.5982C29.9041 38.3057 30.3009 38.1413 30.7147 38.1413H37.2V44.5413C37.2 45.4029 36.5016 46.1013 35.64 46.1013H33.56C31.4815 46.1115 29.7974 47.7908 29.7813 49.8693Z" fill="black"/>
<path d="M53.1279 38.1333V61.752H46.2666V38.1333H53.1279Z" fill="black"/>
<path fill-rule="evenodd" clip-rule="evenodd" d="M85.264 38.056V61.752H78.984C78.4734 61.752 77.9951 61.5021 77.704 61.0827L68.8373 48.352V61.752H62.1707V38.056H68.456C68.9662 38.0547 69.4446 38.3039 69.736 38.7227L78.6 51.4533V38.056H85.264Z" fill="black"/>
</svg>
