<svg width="100" height="100" viewBox="0 0 100 100" fill="none" xmlns="http://www.w3.org/2000/svg">
<mask id="mask0" style="mask-type:alpha" maskUnits="userSpaceOnUse" x="0" y="0" width="100" height="100">
<circle cx="50" cy="50" r="50" fill="#C4C4C4"/>
</mask>
<g mask="url(#mask0)">
<g clip-path="url(#clip0)">
<path d="M125.239 -14.9648H-30.624V103.867H125.239V-14.9648Z" fill="url(#paint0_linear)"/>
<path fill-rule="evenodd" clip-rule="evenodd" d="M124.425 5.28575C122.15 4.99894 122.202 4.0235 120.403 3.50703C119.566 3.26698 118.856 3.07637 118.324 2.90654C118.381 2.66595 118.412 2.41533 118.412 2.15719C118.412 0.507631 117.174 -0.85207 115.576 -1.04769C115.122 -2.91563 113.438 -4.30273 111.429 -4.30273C109.667 -4.30273 108.155 -3.23665 107.503 -1.71518C106.848 -2.20013 106.037 -2.48729 105.159 -2.48729C102.983 -2.48729 101.218 -0.724699 101.218 1.44993C101.218 1.47465 101.219 1.49901 101.22 1.52373C99.8365 1.65308 98.7539 2.81554 98.7539 4.23113C98.7539 4.81729 98.9403 5.35992 99.2562 5.80401C98.3746 6.18666 97.2038 6.57845 96.0598 6.60658C93.784 6.66265 91.2439 8.61352 96.589 7.86775C101.934 7.12179 109.237 7.69075 113.047 7.98007C116.858 8.26939 117.757 6.14868 121.885 6.54925C126.013 6.94964 131.728 7.46611 131.781 6.20386C131.834 4.94161 126.701 5.57274 124.425 5.28575Z" fill="url(#paint1_linear)"/>
<path fill-rule="evenodd" clip-rule="evenodd" d="M123.706 37.8761C121.95 37.6547 121.991 36.9017 120.602 36.503C119.956 36.3177 119.407 36.1707 118.997 36.0395C119.041 35.8538 119.065 35.6603 119.065 35.4611C119.065 34.1879 118.109 33.1381 116.876 32.9871C116.525 31.5453 115.225 30.4746 113.674 30.4746C112.314 30.4746 111.147 31.2974 110.644 32.4719C110.138 32.0975 109.512 31.8759 108.834 31.8759C107.154 31.8759 105.792 33.2365 105.792 34.915C105.792 34.934 105.793 34.9528 105.793 34.9718C104.726 35.0716 103.89 35.9689 103.89 37.0617C103.89 37.5142 104.173 38.5339 104.417 38.8768C102.655 38.1163 100.013 38.3347 99.1297 38.3567C98.2517 38.3784 94.8438 39.7195 94.8438 39.7195C94.8438 39.7195 100.156 40.1568 102.219 39.8691C106.345 39.2931 111.982 39.7324 114.924 39.9556C117.865 40.179 118.559 38.5418 121.746 38.8512C124.933 39.1604 129.344 39.5588 129.385 38.5844C129.425 37.6103 125.463 38.0975 123.706 37.8761Z" fill="url(#paint2_linear)"/>
<path fill-rule="evenodd" clip-rule="evenodd" d="M10.5056 44.2807C8.43187 44.0193 8.48011 43.1306 6.84049 42.66C6.57113 42.5828 6.3172 42.5113 6.07869 42.4441C5.88286 41.548 5.39634 40.7403 4.7061 40.095C4.27068 39.2432 3.43249 38.631 2.44241 38.5099C2.1856 37.4535 1.4968 36.5662 0.573424 36.0449C-0.288259 35.0974 -1.53012 34.502 -2.91258 34.502C-4.79591 34.502 -6.41975 35.6062 -7.17419 37.2013C-7.64206 37.2172 -8.08698 37.3224 -8.49299 37.5006C-10.0939 37.6228 -11.3693 38.9048 -11.4788 40.5076C-11.703 40.4588 -11.9356 40.4321 -12.1743 40.4321C-13.9663 40.4321 -15.4191 41.8834 -15.4191 43.6736C-15.4191 44.3307 -15.2227 44.9417 -14.8863 45.4525C-15.0378 45.4691 -15.1895 45.4806 -15.3409 45.4844C-17.4143 45.5356 -19.7289 47.3131 -14.8587 46.6336C-9.98842 45.9541 -3.33401 46.4723 0.138011 46.736C3.60967 46.9996 4.42975 45.0673 8.19067 45.4322C11.9521 45.7971 17.1601 46.2676 17.2079 45.1175C17.2565 43.967 12.5789 44.5421 10.5056 44.2807Z" fill="url(#paint3_linear)"/>
<path fill-rule="evenodd" clip-rule="evenodd" d="M38.4832 26.8002C36.4094 26.5388 36.4576 25.6501 34.818 25.1795C34.5487 25.1023 34.2947 25.0308 34.0562 24.9636C33.8604 24.0676 33.3739 23.2598 32.6836 22.6145C32.2482 21.7627 31.41 21.1506 30.4199 21.0295C30.1631 19.9731 29.4743 19.0858 28.551 18.5644C27.6893 17.617 26.4474 17.0215 25.065 17.0215C23.1816 17.0215 21.5578 18.1257 20.8033 19.7208C20.3355 19.7368 19.8906 19.8419 19.4845 20.0202C17.8837 20.1423 16.6083 21.4243 16.4987 23.0271C16.2745 22.9784 16.0419 22.9517 15.8033 22.9517C14.0112 22.9517 12.5584 24.4029 12.5584 26.1931C12.5584 26.8502 12.7548 27.4613 13.0912 27.972C12.9397 27.9887 12.788 28.0001 12.6366 28.0039C10.5632 28.0551 8.2486 29.8326 13.1189 29.1531C17.9891 28.4736 24.6435 28.9919 28.1155 29.2556C31.5872 29.5191 32.4073 27.5868 36.1682 27.9518C39.9297 28.3167 45.1376 28.7871 45.1855 27.637C45.2339 26.4865 40.5562 27.0616 38.4832 26.8002Z" fill="url(#paint4_linear)"/>
<path d="M126.149 59.375H-38.5225V109.631H126.149V59.375Z" fill="#6AC6D5"/>
<path d="M-15.957 71.2522C-15.8306 71.2273 -13.3255 70.3724 -11.4035 70.7162C-9.48123 71.0596 -6.63525 71.6973 -4.58927 71.2271C-2.54329 70.7559 -0.0620748 71.3919 0.694879 71.394C1.45165 71.3957 -1.61777 71.5218 -3.88881 71.7315C-6.15931 71.9419 -6.83216 72.1937 -8.85052 71.774C-10.8691 71.3536 -13.1819 70.8915 -14.1069 71.1013C-15.0319 71.3115 -15.957 71.2522 -15.957 71.2522Z" fill="url(#paint5_linear)"/>
<path d="M-9.39768 72.4436C-7.25522 72.2132 -5.95579 73.0308 -3.39155 72.8717C-0.827302 72.7126 0.152201 72.6473 0.152201 72.6473C0.152201 72.6473 -2.08728 73.3305 -4.61243 73.185C-7.1374 73.0389 -8.58747 72.5688 -9.5962 72.7252C-10.6049 72.8809 -12.0234 72.8038 -12.0234 72.8038L-9.39768 72.4436Z" fill="url(#paint6_linear)"/>
<path d="M19.6436 73.0276C19.7391 73.009 21.6345 72.3621 23.0883 72.6221C24.5425 72.8818 26.6957 73.3644 28.2435 73.0085C29.7913 72.6523 31.6684 73.1332 32.2412 73.1348C32.8136 73.136 30.4916 73.2313 28.7736 73.39C27.0558 73.5495 26.5469 73.7397 25.0199 73.4223C23.4927 73.1045 21.7432 72.7548 21.0434 72.9135C20.3437 73.0726 19.6436 73.0276 19.6436 73.0276Z" fill="url(#paint7_linear)"/>
<path d="M16.0009 73.8379C17.6221 73.6634 18.6052 74.2822 20.545 74.1618C22.4848 74.0414 23.226 73.9921 23.226 73.9921C23.226 73.9921 21.5315 74.5095 19.6212 74.399C17.711 74.2886 16.614 73.9326 15.851 74.0512C15.0878 74.1693 14.0146 74.1107 14.0146 74.1107L16.0009 73.8379Z" fill="url(#paint8_linear)"/>
<path d="M23.3671 74.4453C24.9881 74.2709 25.9712 74.8895 27.911 74.7693C29.8508 74.6488 30.592 74.5995 30.592 74.5995C30.592 74.5995 28.8977 75.1167 26.9873 75.0063C25.0772 74.8958 23.9801 74.54 23.217 74.6584C22.454 74.7765 21.3809 74.7183 21.3809 74.7183L23.3671 74.4453Z" fill="url(#paint9_linear)"/>
<path d="M30.2763 75.6718C31.8973 75.4975 32.8804 76.1161 34.8202 75.9959C36.76 75.8753 37.5012 75.8261 37.5012 75.8261C37.5012 75.8261 35.8068 76.3431 33.8964 76.2329C31.9864 76.1224 30.8892 75.7666 30.1262 75.885C29.3631 76.0031 28.29 75.9448 28.29 75.9448L30.2763 75.6718Z" fill="url(#paint10_linear)"/>
<path d="M-6.61621 69.5155C-6.5443 69.5017 -5.1179 69.0148 -4.02345 69.2103C-2.92881 69.4059 -1.3082 69.769 -0.143272 69.5014C1.02202 69.2332 2.43478 69.5951 2.8659 69.5965C3.29665 69.5972 1.54871 69.6687 0.255739 69.7885C-1.03723 69.9082 -1.42047 70.0521 -2.56962 69.8124C-3.71913 69.5734 -5.03595 69.3104 -5.56282 69.4294C-6.08952 69.5499 -6.61621 69.5155 -6.61621 69.5155Z" fill="url(#paint11_linear)"/>
<path d="M-2.88108 70.1933C-1.66091 70.0625 -0.920816 70.5277 0.539114 70.4369C1.9994 70.3463 2.55712 70.3092 2.55712 70.3092C2.55712 70.3092 1.2819 70.6983 -0.15597 70.6153C-1.59384 70.5322 -2.41948 70.2642 -2.99406 70.3534C-3.56845 70.4423 -4.37598 70.3986 -4.37598 70.3986L-2.88108 70.1933Z" fill="url(#paint12_linear)"/>
<path d="M-5.81152 65.6833C-5.75127 65.6718 -4.55531 65.2635 -3.63768 65.4274C-2.71986 65.5913 -1.36125 65.8957 -0.384619 65.6713C0.592375 65.4462 1.77686 65.7499 2.13821 65.7511C2.49938 65.7517 1.03407 65.8117 -0.0499882 65.912C-1.13386 66.0123 -1.45522 66.1327 -2.41877 65.9319C-3.38267 65.7313 -4.48645 65.5107 -4.92832 65.6111C-5.37001 65.7119 -5.81152 65.6833 -5.81152 65.6833Z" fill="url(#paint13_linear)"/>
<path d="M-2.68025 66.2521C-1.65735 66.1422 -1.03687 66.5324 0.18706 66.4565C1.41135 66.3803 1.87886 66.3491 1.87886 66.3491C1.87886 66.3491 0.809695 66.6754 -0.395764 66.6059C-1.60104 66.5362 -2.29344 66.3117 -2.77494 66.3864C-3.25662 66.4608 -3.93359 66.4242 -3.93359 66.4242L-2.68025 66.2521Z" fill="url(#paint14_linear)"/>
<path d="M11.8584 67.5358C11.9405 67.5195 13.5676 66.9647 14.8157 67.1874C16.0642 67.4108 17.9131 67.8248 19.2416 67.5195C20.5706 67.2134 22.1821 67.6265 22.6738 67.6279C23.1652 67.629 21.1716 67.7109 19.6968 67.8472C18.222 67.9837 17.7849 68.148 16.4742 67.8746C15.1629 67.6016 13.6609 67.3017 13.0599 67.4377C12.4592 67.5745 11.8584 67.5358 11.8584 67.5358Z" fill="url(#paint15_linear)"/>
<path d="M9.79412 67.7887C11.1857 67.6384 12.03 68.1699 13.6953 68.0666C15.3607 67.9632 15.997 67.9211 15.997 67.9211C15.997 67.9211 14.5421 68.3652 12.9025 68.2701C11.2623 68.1758 10.3206 67.8695 9.66554 67.9716C9.01027 68.0726 8.08887 68.0227 8.08887 68.0227L9.79412 67.7887Z" fill="url(#paint16_linear)"/>
<path d="M24.0262 67.5268C25.418 67.3772 26.2621 67.9083 27.9273 67.8048C29.593 67.7014 30.229 67.659 30.229 67.659C30.229 67.659 28.7745 68.1029 27.1343 68.0081C25.4945 67.9139 24.5527 67.6081 23.8974 67.7098C23.2422 67.8107 22.3213 67.7613 22.3213 67.7613L24.0262 67.5268Z" fill="url(#paint17_linear)"/>
<path d="M14.917 65.8657C14.9989 65.8499 16.6262 65.2946 17.8743 65.5176C19.1228 65.7408 20.9715 66.155 22.3 65.8494C23.6292 65.5436 25.2407 65.9569 25.7322 65.9579C26.2238 65.9588 24.2302 66.0407 22.7553 66.1774C21.2803 66.3139 20.8435 66.4778 19.5326 66.2048C18.2213 65.9316 16.7194 65.6319 16.1185 65.7675C15.5177 65.9047 14.917 65.8657 14.917 65.8657Z" fill="url(#paint18_linear)"/>
<path d="M12.8529 66.1167C14.2447 65.9668 15.0888 66.4981 16.754 66.3946C18.4197 66.2916 19.0557 66.2493 19.0557 66.2493C19.0557 66.2493 17.6008 66.6932 15.961 66.5984C14.3209 66.5038 13.3794 66.1977 12.7241 66.2998C12.069 66.4008 11.1475 66.3507 11.1475 66.3507L12.8529 66.1167Z" fill="url(#paint19_linear)"/>
<path d="M19.1776 66.6401C20.5692 66.4905 21.4134 67.0213 23.0787 66.9177C24.7443 66.8145 25.3804 66.7723 25.3804 66.7723C25.3804 66.7723 23.9259 67.2162 22.2859 67.1212C20.6459 67.0266 19.7042 66.7208 19.049 66.8228C18.3937 66.924 17.4727 66.874 17.4727 66.874L19.1776 66.6401Z" fill="url(#paint20_linear)"/>
<path d="M28.2158 65.8128C28.2978 65.7971 29.925 65.2417 31.1733 65.4649C32.4218 65.688 34.2706 66.1022 35.599 65.7969C36.9282 65.4907 38.5395 65.904 39.0312 65.9055C39.5226 65.9064 37.529 65.9879 36.0544 66.1245C34.5795 66.2611 34.1423 66.425 32.8316 66.1516C31.5203 65.8788 30.0184 65.5787 29.4173 65.715C28.8168 65.8519 28.2158 65.8128 28.2158 65.8128Z" fill="url(#paint21_linear)"/>
<path d="M26.1517 66.0659C27.5433 65.916 28.3874 66.447 30.0525 66.3434C31.7182 66.2406 32.3542 66.1981 32.3542 66.1981C32.3542 66.1981 30.8995 66.6421 29.2597 66.5473C27.6195 66.4525 26.6779 66.1466 26.0228 66.2487C25.3675 66.3499 24.4463 66.2995 24.4463 66.2995L26.1517 66.0659Z" fill="url(#paint22_linear)"/>
<path d="M32.4756 66.5854C33.8672 66.4358 34.7113 66.9668 36.3766 66.8634C38.0422 66.7598 38.6783 66.7176 38.6783 66.7176C38.6783 66.7176 37.2237 67.1615 35.5837 67.0665C33.9439 66.9719 33.0021 66.6665 32.3468 66.7681C31.6916 66.8693 30.7705 66.8195 30.7705 66.8195L32.4756 66.5854Z" fill="url(#paint23_linear)"/>
<path d="M-22.7588 75.0904C-22.5459 75.0486 -18.3216 73.6065 -15.0804 74.1859C-11.8392 74.7651 -7.04011 75.8406 -3.59015 75.0474C-0.140191 74.2538 4.04359 75.3258 5.32006 75.329C6.59654 75.3321 1.42016 75.5442 -2.40854 75.8987C-6.23761 76.253 -7.37187 76.6776 -10.7754 75.9696C-14.1789 75.2613 -18.0788 74.4818 -19.6388 74.8362C-21.1988 75.1903 -22.7588 75.0904 -22.7588 75.0904Z" fill="url(#paint24_linear)"/>
<path d="M-11.6996 77.0989C-8.08668 76.71 -5.89544 78.0894 -1.57124 77.8207C2.75259 77.552 4.40423 77.4423 4.40423 77.4423C4.40423 77.4423 0.627707 78.5953 -3.63013 78.3486C-7.88798 78.1023 -10.333 77.3103 -12.0341 77.5735C-13.7349 77.837 -16.127 77.7064 -16.127 77.7064L-11.6996 77.0989Z" fill="url(#paint25_linear)"/>
<path d="M6.14062 79.6021C6.35349 79.5604 10.5778 78.1183 13.819 78.6976C17.0602 79.2768 21.8593 80.3524 25.3093 79.5591C28.7592 78.7655 32.943 79.8375 34.2195 79.8407C35.4958 79.8436 30.3196 80.0559 26.4907 80.4104C22.6616 80.7647 21.5274 81.1893 18.1239 80.4812C14.7203 79.773 10.8204 78.9934 9.26044 79.3479C7.70062 79.7019 6.14062 79.6021 6.14062 79.6021Z" fill="url(#paint26_linear)"/>
<path d="M4.15778 75.3372C7.77075 74.9483 9.96199 76.3277 14.286 76.059C18.6098 75.7903 20.2615 75.6808 20.2615 75.6808C20.2615 75.6808 16.4849 76.8336 12.2273 76.5873C7.96945 76.341 5.52427 75.5486 3.82333 75.8121C2.12238 76.0753 -0.269531 75.9449 -0.269531 75.9449L4.15778 75.3372Z" fill="url(#paint27_linear)"/>
<path d="M20.5767 76.6927C24.1897 76.3038 26.3809 77.6832 30.705 77.4144C35.0288 77.1457 36.6804 77.0361 36.6804 77.0361C36.6804 77.0361 32.9039 78.1891 28.6462 77.9426C24.3884 77.6962 21.9432 76.9041 20.2423 77.1674C18.5413 77.4308 16.1494 77.3002 16.1494 77.3002L20.5767 76.6927Z" fill="url(#paint28_linear)"/>
<path d="M148.867 63.8281C148.867 63.8281 85.3065 64.2129 57.0102 67.7028C44.2426 69.2775 33.7369 74.3301 41.5471 76.4624C54.8854 80.1042 42.0055 83.5522 42.0055 83.5522C42.0055 83.5522 28.4759 87.0856 9.79844 89.5935C-8.87901 92.1013 -43.2423 93.7793 -43.2423 93.7793L-63.9611 104.895L-77.2197 196.909L151.741 201.825L159.849 101.915L143.423 67.2392" fill="#FEFFB0"/>
<path fill-rule="evenodd" clip-rule="evenodd" d="M69.5679 66.3047C62.2457 67.1282 39.7185 76.1721 59.9775 77.3023C80.2365 78.4326 99.2089 80.2598 81.728 83.3726C64.2472 86.4853 31.267 94.7198 -12.0147 96.7599C-55.2965 98.7999 -56.8047 93.4149 -56.8047 93.4149V177.673L159.85 189.23L171.465 78.3236L172.511 59.6855C172.511 59.6854 76.8902 65.4812 69.5679 66.3047Z" fill="#FFEC80"/>
<path fill-rule="evenodd" clip-rule="evenodd" d="M68.2706 67.2235C68.2706 67.2235 58.218 70.2351 68.1524 72.3616C78.0866 74.4882 106.897 73.9212 112.42 79.4032C117.943 84.885 116.287 87.0116 106.708 89.4925C97.1277 91.9733 -18.2648 99.342 -42.0419 99.9991C-65.8188 100.656 -51.7699 123.527 -51.7699 123.527L-54.9419 140.54C-54.9419 140.54 64.6737 146.463 84.0161 145.617C103.359 144.772 162.433 147.724 162.433 147.724L178.7 92.7229L166.906 60.8691L68.2706 67.2235Z" fill="#F2E079"/>
<path fill-rule="evenodd" clip-rule="evenodd" d="M130.589 63.0293C130.589 63.0293 70.9804 67.6603 80.8604 69.828C90.7404 71.9956 127.828 71.7002 126.348 77.218C124.868 82.7358 134.593 91.8632 117.233 93.3768C99.8735 94.8904 -47.3252 110.295 -47.3252 110.295L-42.0423 136.861L119.333 142.974L141.757 107.142L130.589 63.0293Z" fill="#D8C96C"/>
<path d="M11.4883 58.1836C11.4883 58.1836 11.9404 60.9983 18.2524 60.9521C24.564 60.9059 29.6086 60.6583 29.6086 60.6583L30.5658 59.0356L11.4883 58.1836Z" fill="#291910"/>
<path d="M19.9758 40.3342L19.5508 40.3125L18.6068 58.7795L19.0318 58.8012L19.9758 40.3342Z" fill="#291910"/>
<path d="M20.1652 42.7344C20.1652 42.7344 20.86 46.5863 20.8062 51.3245C20.7759 55.295 19.7861 58.1817 19.7861 58.1817C19.7861 58.1817 22.3782 57.0204 24.6643 57.0204C27.5196 57.0204 30.1599 58.5438 30.1599 58.5438C30.1599 58.5438 26.2411 50.9864 23.8648 47.6146C21.4883 44.2431 20.1652 42.7344 20.1652 42.7344Z" fill="#F5F5F5"/>
<path d="M18.8244 42.1328C18.8244 42.1328 16.4291 48.7606 14.9943 52.332C13.8607 54.9582 11.9541 57.597 11.9541 57.597C11.9541 57.597 15.0805 56.5913 16.4553 57.2137C17.83 57.8362 18.8243 58.2344 18.8243 58.2344C18.8243 58.2344 18.2848 52.9712 18.4627 50.1835C18.641 47.3959 18.8244 42.1328 18.8244 42.1328Z" fill="#F5F5F5"/>
<path d="M16.6782 50.7943C16.9644 49.3056 17.5042 47.6505 18.0422 46.222V45.8516C17.3249 47.8349 16.2503 50.4944 15.5289 52.2905C14.5162 54.6371 12.7783 56.9948 12.7783 56.9948C12.7783 56.9948 14.0916 56.5783 15.3063 56.4882C15.519 55.1154 16.1092 52.865 16.6782 50.7943Z" fill="#D9D9D1"/>
<path d="M19.7861 58.1825C19.7861 58.1825 21.8685 57.2501 23.9466 57.0566C23.9272 56.2216 23.787 53.0848 22.7698 49.103C22.1936 46.8469 21.6212 45.1449 21.1829 43.9867C20.7484 43.4317 20.4477 43.0682 20.2913 42.8828L20.2431 43.2144C20.4229 44.3853 20.8485 47.5769 20.806 51.3253C20.7757 55.2958 19.7861 58.1825 19.7861 58.1825Z" fill="#D9D9D1"/>
<path d="M19.7863 40.5375C19.7863 40.5375 21.4223 39.5384 22.5093 39.9726C23.5964 40.4071 24.209 40.5099 24.367 40.5375C24.5251 40.5649 23.5329 41.0978 23.5329 41.0978L24.2486 41.5917C24.2486 41.5917 21.9955 40.8809 21.0271 41.3153C20.0585 41.7496 19.6436 41.7891 19.6436 41.7891L19.7863 40.5375Z" fill="#F94557"/>
<path d="M12.29 61.2973C12.4107 61.2736 14.8046 60.4564 16.6415 60.7847C18.4784 61.1131 21.1979 61.7224 23.1532 61.2731C25.1082 60.8231 27.4792 61.4309 28.2024 61.4325C28.9258 61.4345 25.9925 61.5547 23.8226 61.7553C21.6527 61.9563 21.01 62.1969 19.0811 61.7956C17.1524 61.3945 14.9422 60.9526 14.0582 61.1534C13.1741 61.3537 12.29 61.2973 12.29 61.2973Z" fill="#3F7780"/>
<path d="M9.25315 61.6684C11.3006 61.448 12.5424 62.2296 14.9928 62.0775C17.4432 61.9251 18.3791 61.8631 18.3791 61.8631C18.3791 61.8631 16.239 62.5162 13.8261 62.3767C11.4132 62.2371 10.0275 61.7882 9.0636 61.9374C8.0997 62.0867 6.74414 62.0127 6.74414 62.0127L9.25315 61.6684Z" fill="#3F7780"/>
<path d="M24.7461 62.0531C26.7937 61.8329 28.0356 62.6145 30.4858 62.4622C32.9363 62.3098 33.8723 62.2478 33.8723 62.2478C33.8723 62.2478 31.7321 62.9011 29.3191 62.7614C26.9062 62.6218 25.5205 62.1729 24.5568 62.3221C23.5929 62.4714 22.2373 62.3974 22.2373 62.3974L24.7461 62.0531Z" fill="#3F7780"/>
<path fill-rule="evenodd" clip-rule="evenodd" d="M58.2722 27.7041C58.1913 27.5275 58.1891 27.3688 58.1197 27.1891C58.0372 26.9756 57.9408 26.7608 57.8611 26.5465C57.8491 26.5141 57.7374 26.4607 57.6922 26.451C57.2324 26.3521 56.9876 26.2128 56.5255 26.1205C56.4783 26.111 56.3367 26.0967 56.2925 26.1132C56.0716 26.1966 55.8709 26.3403 55.662 26.4412C55.5559 26.4924 55.4741 26.58 55.392 26.6585C55.2318 26.8116 54.64 26.9849 54.4499 26.8591C54.3934 26.8217 54.3653 26.7235 54.3759 26.6587C54.4189 26.3899 54.6176 26.1565 55.0783 26.0485C55.4009 26.0102 55.5107 25.8484 55.6834 25.68C55.6995 25.6642 55.7696 25.5551 55.7551 25.5283C55.5872 25.2205 55.3254 24.8986 55.1386 24.5983C55.105 24.5444 54.9682 24.5233 54.8735 24.5046C54.698 24.4701 54.519 24.4461 54.3404 24.422C54.1802 24.4006 54.0142 24.3986 53.8592 24.3631C53.6903 24.3244 53.5077 24.2884 53.3799 24.1352C53.4678 24.1127 53.5341 24.0874 53.6037 24.079C54.0751 24.0218 54.5471 23.9676 55.0191 23.9142C55.0826 23.907 55.1484 23.9072 55.2124 23.9101C55.7788 23.9342 55.8654 23.9896 56.0293 24.4226C56.0992 24.6076 56.2224 24.761 56.4166 24.8819C56.5291 24.9521 56.6157 24.9434 56.7253 24.8875C56.8426 24.8275 56.9649 24.771 57.0929 24.7278C57.2444 24.677 57.3965 24.66 57.5346 24.7707C57.5731 24.8017 57.6511 24.8058 57.7127 24.8117C57.8299 24.823 57.9228 24.9034 57.8916 24.9905C57.8814 25.019 57.7908 25.0598 57.7767 25.0514C57.6727 24.989 57.588 25.0301 57.501 25.0709C57.3425 25.1453 57.2405 25.2585 57.189 25.3957C57.1756 25.4319 57.2096 25.5053 57.2496 25.5241C57.3936 25.5922 57.3843 25.6555 57.5418 25.6995C57.7295 25.7518 57.9287 25.7771 58.1183 25.8258C58.1803 25.8418 58.2433 25.8865 58.2797 25.9319C58.699 26.4526 58.6097 27.0112 58.4528 27.5719C58.4391 27.6214 58.3799 27.6624 58.3421 27.7074C58.3188 27.7063 58.2955 27.7052 58.2722 27.7041Z" fill="#1B1A17"/>
<path fill-rule="evenodd" clip-rule="evenodd" d="M50.8618 39.9362C50.9647 39.783 50.9916 39.6341 51.0841 39.4763C51.1944 39.2886 51.318 39.1019 51.426 38.9131C51.4421 38.8846 51.5549 38.8516 51.5983 38.8495C52.0429 38.828 52.2925 38.7352 52.7378 38.72C52.7833 38.7183 52.9176 38.7268 52.956 38.7493C53.1491 38.862 53.3136 39.0281 53.4926 39.1549C53.5833 39.2194 53.6459 39.3145 53.7103 39.4009C53.8354 39.5694 54.3602 39.824 54.5572 39.7353C54.6159 39.709 54.6573 39.6212 54.6577 39.5585C54.6596 39.2995 54.511 39.0498 54.0983 38.8767C53.8037 38.7907 53.7264 38.6218 53.5919 38.4369C53.5794 38.4195 53.5309 38.3063 53.5489 38.2834C53.7535 38.0204 54.0479 37.7588 54.2691 37.5059C54.3091 37.4604 54.44 37.4618 54.5311 37.459C54.6998 37.4538 54.8705 37.459 55.0407 37.464C55.1935 37.4686 55.3486 37.4925 55.4986 37.4831C55.6621 37.4729 55.838 37.4677 55.9811 37.3434C55.9026 37.3085 55.8445 37.2746 55.7814 37.256C55.3508 37.1292 54.9191 37.005 54.4875 36.8818C54.4294 36.8653 54.3682 36.8552 54.308 36.8479C53.7761 36.7829 53.6868 36.8214 53.4664 37.2024C53.3722 37.3654 53.2334 37.4901 53.0333 37.5736C52.9174 37.6222 52.838 37.6005 52.7449 37.531C52.6449 37.4565 52.5394 37.3844 52.427 37.3242C52.2939 37.2529 52.1546 37.2134 52.0086 37.2959C51.9679 37.3191 51.8945 37.3108 51.8363 37.307C51.7251 37.2995 51.6259 37.3606 51.6413 37.4471C51.6462 37.4754 51.7247 37.5279 51.7391 37.5222C51.8459 37.4799 51.918 37.5315 51.993 37.5833C52.1289 37.6775 52.2062 37.7997 52.2329 37.9367C52.2399 37.9727 52.1965 38.0363 52.1564 38.048C52.0113 38.0894 52.0102 38.1505 51.8567 38.1673C51.6736 38.1874 51.4837 38.18 51.2995 38.1965C51.2391 38.2019 51.1735 38.2341 51.1324 38.271C50.6599 38.6951 50.6557 39.2332 50.7144 39.7841C50.7194 39.8326 50.7682 39.8804 50.7965 39.9286C50.8177 39.9311 50.8397 39.9336 50.8618 39.9362Z" fill="#1B1A17"/>
<path fill-rule="evenodd" clip-rule="evenodd" d="M59.6429 43.169C59.6462 43.059 59.6187 42.9694 59.6164 42.8592C59.6135 42.7283 59.6164 42.5948 59.6123 42.4639C59.6115 42.444 59.6492 42.3992 59.6666 42.3877C59.8427 42.2716 59.9212 42.1611 60.0995 42.0482C60.1178 42.0368 60.1748 42.0099 60.1962 42.0135C60.3041 42.0314 60.4137 42.0857 60.5195 42.1149C60.5731 42.1298 60.623 42.1683 60.6716 42.2016C60.7657 42.2666 61.0457 42.2861 61.1034 42.1905C61.1208 42.162 61.1151 42.1032 61.0995 42.068C61.0338 41.9225 60.909 41.8175 60.6961 41.8171C60.5536 41.8381 60.4788 41.7616 60.3764 41.6896C60.3669 41.6828 60.3183 41.6307 60.3197 41.6136C60.3362 41.4186 60.3898 41.203 60.4153 41.0096C60.4198 40.9748 60.4738 40.9449 60.5105 40.922C60.5781 40.8795 60.6492 40.8424 60.7204 40.8053C60.7838 40.7722 60.8534 40.7491 60.9122 40.7088C60.9766 40.6647 61.0473 40.6206 61.074 40.5176C61.0329 40.5164 61.0005 40.511 60.97 40.5153C60.7612 40.5452 60.5532 40.5768 60.3448 40.609C60.317 40.6133 60.2891 40.6221 60.2629 40.6321C60.0285 40.7203 60.002 40.7627 60.0093 41.0278C60.0125 41.1412 59.9876 41.2435 59.9272 41.3372C59.8922 41.3915 59.8542 41.3981 59.7982 41.3811C59.7382 41.3627 59.6766 41.3473 59.6151 41.3397C59.5425 41.331 59.4754 41.3415 59.4369 41.422C59.4259 41.4443 59.394 41.4571 59.3691 41.4685C59.3216 41.4904 59.2968 41.5477 59.3251 41.5925C59.3345 41.6072 59.3798 41.6183 59.3843 41.6117C59.4173 41.5629 59.46 41.5749 59.5038 41.5864C59.5836 41.6074 59.6463 41.6577 59.6926 41.7281C59.7044 41.7467 59.7032 41.7924 59.6895 41.8082C59.6409 41.8653 59.6558 41.8999 59.5974 41.9452C59.5274 41.9995 59.448 42.0398 59.377 42.0921C59.3537 42.1093 59.335 42.1428 59.3277 42.1731C59.243 42.5212 59.3791 42.8234 59.5438 43.1183C59.5583 43.1442 59.5906 43.1595 59.6146 43.1799C59.6236 43.1763 59.6332 43.1725 59.6429 43.169Z" fill="#1B1A17"/>
<path d="M80.8122 10.9061L75.1424 6.04688L69.4727 10.9061H80.8122Z" fill="white"/>
<path d="M69.873 11.6738V14.8345L71.3918 11.6738L72.7296 14.8345L74.1761 11.6738L75.6947 14.8345L77.0696 11.6738L78.4791 14.6895L79.8015 11.7188L80.6485 14.8345L80.8128 11.6738" fill="white"/>
<path d="M76.0216 6.0784H74.8066L75.4142 0.775391L76.0216 6.0784Z" fill="#1B1A17"/>
<path d="M82.3318 11.384L75.4139 5.45508L68.4961 11.384H82.3318Z" fill="#1B1A17"/>
<path d="M75.3718 5.49023L68.4961 11.383H68.5129L73.5394 10.1861L75.3718 5.49023Z" fill="#141414"/>
<path d="M82.7749 13.6905V13.6836C82.7749 13.6861 82.7744 13.6882 82.7744 13.6905H82.7749Z" fill="#FD220E"/>
<path d="M67.9321 13.6905C67.9321 13.6882 67.9316 13.6861 67.9316 13.6836V13.6905H67.9321Z" fill="#FD220E"/>
<path d="M82.7754 11.5447C82.7754 10.8683 79.4525 10.0234 75.3538 10.0234C71.2546 10.0234 67.9316 10.8683 67.9316 11.5447C67.9316 11.5471 67.9322 11.5494 67.9322 11.5517H67.9316V13.6819C67.9316 13.0055 71.2545 12.1604 75.3538 12.1604C79.4524 12.1604 82.7754 13.0055 82.7754 13.6819V11.5517H82.7748C82.7748 11.5496 82.7754 11.5471 82.7754 11.5447Z" fill="#FD220E"/>
<path d="M82.7754 13.6916C82.7754 14.3678 79.4525 14.9162 75.3538 14.9162C71.2546 14.9162 67.9316 14.3678 67.9316 13.6916C67.9316 13.0149 71.2545 12.1699 75.3538 12.1699C79.4524 12.1701 82.7754 13.0149 82.7754 13.6916Z" fill="#A61004"/>
<path d="M82.1975 14.0827C82.1975 14.7065 79.1331 15.2122 75.3537 15.2122C71.574 15.2122 68.5098 14.7067 68.5098 14.0827C68.5098 13.4588 71.574 12.6797 75.3537 12.6797C79.1331 12.6797 82.1975 13.4586 82.1975 14.0827Z" fill="#333333"/>
<path d="M75.3533 13.4043C72.0534 13.4043 69.3789 14.0847 69.3789 14.6289V18.9552L81.3275 18.8485V14.6287C81.3273 14.0847 78.6528 13.4043 75.3533 13.4043Z" fill="white"/>
<path d="M81.3273 18.2026L80.5831 14.0953H80.5829L78.9036 18.0204L77.1311 13.4746L75.3533 17.8602L73.5266 13.475L71.8717 17.9939L70.1019 14.1579L69.3634 18.2069L69.3584 18.6882L81.3273 18.8486V18.2026Z" fill="#019DC3"/>
<path d="M69.3789 16.9744V18.8939L72.1029 18.9304L81.3273 18.848V17.0464L80.8087 14.1858C80.6871 14.1321 80.5464 14.079 80.3873 14.0276L78.9123 17.4749L77.3579 13.4886C77.213 13.476 77.0655 13.4651 76.9162 13.4551L75.3502 17.3171L73.7433 13.4581C73.5932 13.4683 73.445 13.4796 73.3 13.4923L71.8495 17.4532L70.289 14.0708C70.2842 14.0604 70.2766 14.0522 70.2704 14.043C70.1258 14.0912 69.9976 14.1405 69.8861 14.1905L69.3789 16.9744ZM71.6846 18.0795C71.7195 18.1553 71.797 18.2035 71.8804 18.199C71.9638 18.1956 72.0369 18.1424 72.0655 18.0641L73.5392 14.0402L75.1627 17.9387C75.195 18.0155 75.2701 18.0655 75.3533 18.0655C75.3535 18.0655 75.3538 18.0655 75.3542 18.0655C75.4378 18.0652 75.5129 18.0143 75.5443 17.9369L77.1274 14.0319L78.7116 18.0945C78.7421 18.1725 78.8167 18.2244 78.9005 18.2259C78.9858 18.225 79.0606 18.1777 79.0936 18.1008L80.5026 14.8069L81.1213 18.2205V18.6391L69.5667 18.4844L69.5697 18.2259L70.1879 14.8356L71.6846 18.0795Z" fill="#292929"/>
<path d="M84.2106 19.4736C84.2106 18.6664 80.2452 17.6582 75.3536 17.6582C70.4618 17.6582 66.4961 18.6664 66.4961 19.4736C66.4961 19.4765 66.4968 19.4794 66.4968 19.4821H66.4961V23.0784H84.2104V19.4821H84.2099C84.21 19.4794 84.2106 19.4765 84.2106 19.4736Z" fill="#1B1A17"/>
<path d="M73.5392 17.7051C69.5176 17.9118 66.4961 18.7694 66.4961 19.4741C66.4961 19.477 66.4968 19.4799 66.4968 19.4825H66.4961V23.0788H73.5392V17.7051Z" fill="#010204"/>
<path d="M84.2106 23.0949C84.2106 23.9023 80.2452 24.5566 75.3536 24.5566C70.4618 24.5566 66.4961 23.9023 66.4961 23.0949C66.4961 22.2875 70.4616 21.2793 75.3536 21.2793C80.245 21.2793 84.2106 22.2875 84.2106 23.0949Z" fill="#010204"/>
<path d="M83.5214 23.5651C83.5214 24.3094 79.8645 24.9128 75.3541 24.9128C70.8432 24.9128 67.1865 24.3092 67.1865 23.5651C67.1865 22.8204 70.8432 21.8906 75.3541 21.8906C79.8645 21.8906 83.5214 22.8204 83.5214 23.5651Z" fill="#333333"/>
<path d="M82.3102 24.4731C82.4224 24.3904 82.4836 24.304 82.4836 24.2155C82.4836 23.566 79.2915 22.7539 75.3538 22.7539C71.4157 22.7539 68.2236 23.566 68.2236 24.2155C68.2236 24.304 68.2849 24.3902 68.397 24.4731L67.6445 33.3454C69.8828 32.7748 72.5153 32.445 75.3339 32.445C78.1696 32.445 80.8164 32.7786 83.0637 33.3554L82.3102 24.4731Z" fill="#FD220E"/>
<path d="M74.4958 32.456V22.7676C70.9629 22.8736 68.2236 23.6142 68.2236 24.2158C68.2236 24.3043 68.2849 24.3904 68.397 24.4734L67.6445 33.3456C69.6595 32.8322 71.994 32.5146 74.4958 32.456Z" fill="#CE1305"/>
<path d="M83.6798 40.615L83.3794 37.074L83.2097 35.0743L83.0641 33.3538C80.8169 32.7769 78.1702 32.4434 75.3343 32.4434C72.5157 32.4434 69.8833 32.7732 67.6449 33.3437L67.4989 35.0685L67.3288 37.0737L67.028 40.6209L66.1611 50.8378C68.678 50.3851 71.8651 50.1139 75.3343 50.1139C78.8222 50.1139 82.0246 50.3882 84.5472 50.845L83.6798 40.615Z" fill="white"/>
<path d="M74.4962 32.4551C71.9944 32.5137 69.6599 32.8315 67.6449 33.3449L67.4989 35.0697L67.3288 37.0748L67.028 40.6221L66.1611 50.839C68.4738 50.423 71.3529 50.1609 74.4962 50.121V32.4551V32.4551Z" fill="#DDCEB8"/>
<path d="M85.3232 60.0032L84.9787 55.9426L84.9023 55.0413L84.5465 50.8463C82.0239 50.3895 78.8216 50.1152 75.3336 50.1152C71.8643 50.1152 68.6774 50.3865 66.1605 50.8392L65.8051 55.0336L65.7272 55.9501L65.3829 60.0113L64.4219 71.3448H75.3537H86.285L85.3232 60.0032Z" fill="#1B1A17"/>
<path d="M74.4957 70.271V50.1211C71.3524 50.161 68.4732 50.4231 66.1606 50.8391L65.8051 55.0336L65.7273 55.9501L65.383 60.0113L64.5127 70.271H74.4957Z" fill="#010204"/>
<path d="M71.211 28.1237C70.8943 28.1514 70.5775 28.1946 70.2607 28.2536C70.2884 27.7326 70.3162 27.212 70.344 26.6912C70.6503 26.6357 70.9571 26.5949 71.2634 26.5684C71.246 27.0868 71.2284 27.6054 71.211 28.1237Z" fill="black"/>
<path d="M72.4926 28.0978C72.18 28.0829 71.8654 28.0838 71.5498 28.1003C71.5636 27.5822 71.5772 27.0641 71.5909 26.546C71.8961 26.5303 72.2006 26.529 72.503 26.5424C72.4996 27.0607 72.4962 27.5791 72.4926 28.0978Z" fill="black"/>
<path d="M71.1342 30.4114C70.8021 30.4412 70.4694 30.4881 70.1377 30.5521C70.1685 29.9806 70.199 29.4091 70.2295 28.8378C70.55 28.7778 70.8711 28.7334 71.1916 28.7051C71.1724 29.2739 71.1532 29.8426 71.1342 30.4114Z" fill="black"/>
<path d="M72.4761 30.3852C72.1486 30.3682 71.819 30.3685 71.4883 30.3857C71.5035 29.8177 71.5184 29.2492 71.5335 28.6812C71.8529 28.6643 72.1714 28.6636 72.4875 28.6789C72.4838 29.2476 72.4798 29.8164 72.4761 30.3852Z" fill="black"/>
<path d="M72.7644 26.0139C71.9084 25.9528 71.0345 26.0103 70.1671 26.1848C70.0945 26.1993 70.0219 26.2147 69.9492 26.2308C69.9376 26.2335 69.9256 26.236 69.9137 26.2389C69.8145 27.8076 69.7154 29.3769 69.6162 30.9468C69.7132 30.8486 69.8111 30.7515 69.9085 30.6558C69.9885 29.2746 70.0683 27.8938 70.1485 26.5131C70.9572 26.3498 71.7718 26.2878 72.5723 26.3288C72.6365 26.2233 72.7003 26.1183 72.7644 26.0139Z" fill="black"/>
<path d="M73.5323 40.1124C73.0911 40.1111 72.6498 40.1211 72.209 40.1421C72.2242 39.4141 72.2397 38.686 72.2553 37.9578C72.6821 37.939 73.1089 37.9302 73.5359 37.9318C73.5346 38.6584 73.5335 39.3856 73.5323 40.1124Z" fill="black"/>
<path d="M75.3236 40.1771C74.8839 40.1465 74.4437 40.1266 74.0032 40.1175C73.9995 39.3909 73.9953 38.6641 73.9912 37.9375C74.4173 37.9465 74.8432 37.9656 75.2686 37.995C75.2869 38.7223 75.3053 39.4496 75.3236 40.1771Z" fill="black"/>
<path d="M73.5269 43.3193C73.0642 43.319 72.6016 43.3308 72.1396 43.3546C72.1567 42.5558 72.1739 41.7572 72.1911 40.9584C72.6375 40.9371 73.0842 40.9269 73.531 40.9278C73.5298 41.7248 73.5283 42.522 73.5269 43.3193Z" fill="black"/>
<path d="M75.4044 43.3861C74.9436 43.3529 74.4821 43.3322 74.0207 43.323C74.0164 42.526 74.0119 41.729 74.0078 40.9316C74.4533 40.9406 74.8993 40.9607 75.3444 40.9918C75.3643 41.7899 75.3844 42.5878 75.4044 43.3861Z" fill="black"/>
<path d="M75.6142 37.2601C74.4068 37.1607 73.1941 37.1435 71.9853 37.2084C71.884 37.2139 71.7827 37.2198 71.6815 37.2264C71.665 37.2277 71.6483 37.2288 71.632 37.23C71.5632 39.4188 71.4945 41.6079 71.4258 43.7973C71.5581 43.6817 71.691 43.5672 71.8235 43.4537C71.8734 41.5245 71.924 39.596 71.9736 37.6673C73.1011 37.6059 74.2314 37.6159 75.3583 37.6974C75.4433 37.5514 75.529 37.4056 75.6142 37.2601Z" fill="black"/>
<path d="M77.6628 58.3271L76.3398 58.3246L76.3863 56.1426L77.6664 56.1463L77.6628 58.3271Z" fill="#5E5E5E"/>
<path d="M79.4535 58.3313L78.1331 58.3284L78.1211 56.1484L79.3985 56.1529L79.4535 58.3313Z" fill="#5E5E5E"/>
<path d="M77.6574 61.5326H76.2705L76.322 59.1387L77.6612 59.1408L77.6574 61.5326Z" fill="#5E5E5E"/>
<path d="M79.5337 61.5343L78.15 61.5336L78.1367 59.1426L79.4735 59.1447L79.5337 61.5343Z" fill="#5E5E5E"/>
<path d="M79.7443 55.3913L76.1161 55.3778L75.8117 55.377H75.7621L75.5557 61.9288L75.9541 61.6137L76.1041 55.8365L79.4879 55.8479L79.7443 55.3913Z" fill="#010204"/>
<path d="M58.9356 66.753C58.3209 66.753 53.8957 67.4896 52.9119 69.5775C51.9287 71.6651 54.0184 74.1833 58.4439 74.2136C62.8694 74.2439 72.4581 74.2136 72.4581 74.2136L84.5466 73.851C84.5466 73.851 68.6509 70.9978 66.7118 69.1026C64.7727 67.2078 63.8527 64.2973 62.0086 65.157C60.1649 66.0162 58.9356 66.753 58.9356 66.753Z" fill="#91CD46"/>
<path d="M58.388 71.5785C54.5245 69.6686 57.91 68.037 58.9455 66.7638C58.9552 66.7523 58.9627 66.7418 58.9717 66.7305C58.9482 66.7441 58.9356 66.7516 58.9356 66.7516C58.3209 66.7516 53.8957 67.4882 52.9119 69.5762C51.9287 71.6637 54.0184 74.182 58.4439 74.2122C62.8694 74.2425 72.458 74.2122 72.458 74.2122L80.7754 73.9627C80.2603 73.8631 79.6198 73.773 78.8253 73.7015C74.5684 73.3181 62.2514 73.4881 58.388 71.5785Z" fill="#83B43A"/>
<path d="M69.7606 71.9583C72.3553 71.9583 74.4587 70.6197 74.4587 68.9684C74.4587 67.3171 72.3553 65.9785 69.7606 65.9785C67.1659 65.9785 65.0625 67.3171 65.0625 68.9684C65.0625 70.6197 67.1659 71.9583 69.7606 71.9583Z" fill="#83B43A"/>
<path d="M70.9747 71.9584C72.8926 71.9584 74.4474 70.6539 74.4474 69.0446C74.4474 67.4354 72.8926 66.1309 70.9747 66.1309C69.0567 66.1309 67.502 67.4354 67.502 69.0446C67.502 70.6539 69.0567 71.9584 70.9747 71.9584Z" fill="#91CD46"/>
<path d="M72.6029 71.957C72.6029 71.957 72.5114 69.1792 75.2005 69.8415C77.8894 70.5032 79.2111 71.0953 81.2163 69.6838C83.2216 68.2724 84.953 66.224 89.1004 68.0449C93.2478 69.8659 90.9235 68.9669 90.9235 68.9669C90.9235 68.9669 89.7388 65.0403 92.063 64.3117C94.3873 63.5835 99.4005 65.7194 98.3065 67.7473C97.2126 69.7752 96.3466 71.4567 97.6681 72.2549C98.99 73.0528 99.5825 73.6445 98.853 73.8724C98.124 74.0999 86.055 75.147 82.6788 75.1015C79.3022 75.0558 73.1269 75.2835 75.1433 74.9191C77.1601 74.5551 81.1704 73.4622 79.5755 73.508C77.9805 73.5535 71.3533 73.0071 73.0489 72.8704C74.7447 72.7336 75.8131 72.5483 75.6309 72.3239C75.4489 72.1 72.6029 71.957 72.6029 71.957Z" fill="#91CD46"/>
<path d="M93.4298 68.2723C92.7412 67.0341 91.0597 65.9771 94.5285 64.324C93.6236 64.13 92.7315 64.1019 92.0626 64.3116C90.2056 64.8937 90.5885 67.5153 90.8175 68.5469C92.0624 70.1401 94.3207 69.8744 93.4298 68.2723Z" fill="#83B43A"/>
<path d="M73.5405 12.2151V10.0781C70.3184 10.2766 67.9326 10.9706 67.9326 11.5437C67.9326 11.546 67.9332 11.5484 67.9332 11.5507H67.9326V13.6809C67.9324 13.1076 70.3184 12.4138 73.5405 12.2151Z" fill="#CE1305"/>
<path d="M67.9321 13.6886C67.9321 13.6863 67.9316 13.6841 67.9316 13.6816V13.6886H67.9321Z" fill="#CE1305"/>
<path d="M86.3463 38.3607L102.777 99.5647H42.4814L54.8592 29.7266L85.3853 31.5391L86.3463 38.3607Z" fill="#322B1A"/>
<path d="M56.1432 28.8711C56.1432 29.2976 56.1485 36.1837 56.1485 36.1837C53.8558 45.7556 58.9118 53.8425 62.2272 62.6703L69.4851 65.9756L76.5296 64.163L83.8942 56.4862L86.6693 44.5446L85.8101 37.2632L86.6693 31.2167" fill="#7F4F39"/>
<path d="M69.377 39.3203C68.0976 43.8703 63.4388 47.1939 68.5232 49.343L69.377 39.3203Z" fill="white"/>
<path d="M63.291 54.8879C65.379 54.5842 67.197 54.447 69.1616 55.1011C71.7013 54.1963 73.5858 55.7384 75.8859 56.8071C71.0026 61.1186 65.1861 58.011 63.291 54.8879V54.8879Z" fill="#993C26"/>
<path d="M66.1758 55.6348L72.5799 56.1679C70.1681 56.8513 68.465 56.3445 66.1758 55.6348Z" fill="black"/>
<path d="M67.776 50.623L60.3047 54.7814C64.4435 54.9674 66.7902 54.8737 69.6975 52.2224C71.1672 56.1001 76.0541 57.0713 79.8373 58.8331L72.2592 51.1563L69.912 51.0436L67.776 50.623Z" fill="black"/>
<path d="M59.7725 33.457L68.311 36.4958C65.556 35.3666 60.7551 36.6474 59.7725 33.457V33.457Z" fill="black"/>
<path d="M84.0521 35.8555L74.2324 37.2416C78.0951 37.7071 80.8262 37.7509 84.0521 35.8555Z" fill="black"/>
<path d="M62.3295 35.9629C65.0307 36.3139 65.9234 36.8144 67.2927 38.9484L61.9023 39.055L62.3295 35.9629Z" fill="white"/>
<path d="M62.5464 38.628C63.8819 37.4314 63.3884 35.95 62.2041 35.8429C60.9103 35.7259 59.9983 37.1126 61.1588 38.2015C60.1549 39.9507 65.7582 38.994 67.3733 38.9856C66.7062 38.8789 62.5463 38.628 62.5463 38.628L62.5464 38.628Z" fill="black"/>
<path d="M77.0079 37.7734C78.9855 38.2129 80.6191 38.5554 82.0244 39.9592L78.3421 40.6522L76.2607 40.3857L77.0079 37.7734Z" fill="white"/>
<path d="M82.113 40.0292L77.3816 40.4401C78.694 39.8799 78.4576 37.85 76.9547 37.7212C74.9032 37.5454 75.1845 39.6769 75.8313 40.3141C74.7232 41.5414 79.8095 40.8482 82.1129 40.0292H82.113Z" fill="black"/>
<path d="M85.707 32.9229L86.0272 97.1088C95.0433 100.887 101.582 100.563 110.683 98.7082L99.694 43.1458C99.4549 37.7632 97.151 35.8506 93.4986 32.2793" fill="black"/>
<path d="M98.0093 63.7783C98.1354 64.5035 97.5549 65.2098 96.7128 65.3559C95.8707 65.502 95.0858 65.0325 94.9597 64.3073C94.8336 63.5821 95.4142 62.8757 96.2562 62.7296C97.0983 62.5836 97.8832 63.0531 98.0093 63.7783Z" fill="#550000"/>
<path d="M99.444 70.7806C99.5903 71.6218 98.932 72.4385 97.9737 72.6048C97.0154 72.771 96.12 72.2238 95.9738 71.3826C95.8275 70.5413 96.4859 69.7246 97.4441 69.5584C98.4024 69.3922 99.2978 69.9394 99.444 70.7806Z" fill="#550000"/>
<path d="M99.1461 74.0789C99.2318 74.5721 98.9011 75.0413 98.4074 75.1269C97.9138 75.2126 97.4441 74.8822 97.3583 74.389C97.2726 73.8959 97.6033 73.4267 98.097 73.341C98.5907 73.2554 99.0604 73.5857 99.1461 74.0789V74.0789Z" fill="#808000"/>
<path d="M101.4 78.289C101.622 79.5654 100.743 80.7839 99.4361 81.0106C98.1294 81.2373 96.8902 80.3864 96.6683 79.11C96.4465 77.8335 97.3259 76.6151 98.6326 76.3884C99.9394 76.1617 101.179 77.0126 101.4 78.289Z" fill="#808000"/>
<path d="M98.7487 82.5359C98.8193 82.9421 98.5588 83.3264 98.1667 83.3944C97.7747 83.4625 97.3996 83.1884 97.329 82.7822C97.2584 82.3761 97.519 81.9917 97.911 81.9237C98.3031 81.8557 98.6781 82.1298 98.7487 82.5359Z" fill="#808000"/>
<path d="M97.5634 65.5892L95.9891 65.8623C95.6688 65.9179 95.5339 66.6801 95.6877 67.5649C95.8415 68.4497 96.2258 69.1219 96.546 69.0663L98.1204 68.7932C98.4407 68.7377 98.5756 67.9754 98.4218 67.0906C98.268 66.2058 97.8837 65.5336 97.5634 65.5892Z" fill="#808000"/>
<path d="M98.7522 84.2798C98.7888 84.4901 98.6301 84.6933 98.3978 84.7336C98.1654 84.7739 97.9475 84.636 97.9109 84.4257C97.8744 84.2154 98.0331 84.0123 98.2654 83.972C98.4977 83.9317 98.7156 84.0695 98.7522 84.2798Z" fill="#808000"/>
<path d="M98.9163 85.2153C98.9528 85.4256 98.7941 85.6288 98.5618 85.6691C98.3295 85.7094 98.1115 85.5716 98.075 85.3613C98.0384 85.151 98.1971 84.9478 98.4294 84.9075C98.6617 84.8672 98.8797 85.005 98.9163 85.2153Z" fill="#808000"/>
<path d="M99.1174 86.3599C99.154 86.5702 98.9953 86.7734 98.763 86.8136C98.5307 86.8539 98.3127 86.7161 98.2762 86.5058C98.2396 86.2955 98.3983 86.0923 98.6306 86.052C98.8629 86.0117 99.0809 86.1496 99.1174 86.3599Z" fill="#808000"/>
<path d="M99.3176 87.5024C99.3542 87.7128 99.1955 87.9159 98.9632 87.9562C98.7309 87.9965 98.5129 87.8587 98.4764 87.6484C98.4398 87.4381 98.5985 87.2349 98.8308 87.1946C99.0631 87.1543 99.2811 87.2921 99.3176 87.5024Z" fill="#808000"/>
<path d="M99.0518 88.6216C99.0765 88.7636 98.967 88.9012 98.8073 88.9289C98.6476 88.9566 98.4981 88.8639 98.4734 88.7219C98.4487 88.58 98.5582 88.4424 98.7179 88.4147C98.8776 88.387 99.0271 88.4796 99.0518 88.6216Z" fill="#000080"/>
<path d="M99.2334 89.6607C99.2581 89.8027 99.1486 89.9403 98.9889 89.968C98.8292 89.9957 98.6797 89.903 98.655 89.761C98.6304 89.619 98.7398 89.4814 98.8995 89.4537C99.0593 89.426 99.2087 89.5187 99.2334 89.6607Z" fill="#000080"/>
<path d="M100.066 89.5161C100.091 89.6581 99.9816 89.7957 99.8219 89.8234C99.6622 89.8511 99.5127 89.7585 99.4881 89.6165C99.4634 89.4745 99.5728 89.3369 99.7325 89.3092C99.8923 89.2815 100.042 89.3741 100.066 89.5161Z" fill="#000080"/>
<path d="M99.8848 88.4751C99.9095 88.6171 99.8 88.7547 99.6403 88.7824C99.4806 88.8101 99.3311 88.7175 99.3064 88.5755C99.2817 88.4335 99.3912 88.2959 99.5509 88.2682C99.7106 88.2405 99.8601 88.3331 99.8848 88.4751Z" fill="#000080"/>
<path d="M100.403 82.2469C100.474 82.653 100.213 83.0374 99.821 83.1054C99.429 83.1734 99.0539 82.8993 98.9833 82.4932C98.9127 82.087 99.1733 81.7027 99.5653 81.6347C99.9574 81.5667 100.332 81.8408 100.403 82.2469Z" fill="#808000"/>
<path d="M100.411 83.9907C100.448 84.201 100.289 84.4042 100.057 84.4445C99.8246 84.4848 99.6067 84.347 99.5701 84.1367C99.5335 83.9263 99.6922 83.7232 99.9245 83.6829C100.157 83.6426 100.375 83.7804 100.411 83.9907Z" fill="#808000"/>
<path d="M100.575 84.9263C100.612 85.1366 100.453 85.3397 100.221 85.38C99.9887 85.4203 99.7707 85.2825 99.7342 85.0722C99.6976 84.8619 99.8563 84.6587 100.089 84.6184C100.321 84.5781 100.539 84.716 100.575 84.9263Z" fill="#808000"/>
<path d="M100.771 86.0708C100.807 86.2811 100.649 86.4843 100.416 86.5246C100.184 86.5649 99.966 86.427 99.9295 86.2167C99.8929 86.0064 100.052 85.8033 100.284 85.763C100.516 85.7227 100.734 85.8605 100.771 86.0708Z" fill="#808000"/>
<path d="M62.7041 64.0586L69.0015 66.7775L76.9531 64.9649L83.8374 57.5547C85.4286 71.5455 82.1217 85.1674 79.9417 98.9245C75.8818 89.1763 70.2467 80.9306 63.7179 72.8021L62.7041 64.0586Z" fill="#7F4F39"/>
<path d="M55.9473 43.9727C56.2224 51.2668 59.4234 55.7469 60.8926 61.2873C61.9967 65.4511 62.762 69.6602 62.8453 74.0548C62.9209 78.0474 61.8575 81.682 60.8365 86.341C59.8007 88.2578 59.9578 89.7158 60.1961 91.779C61.6873 89.7497 61.4769 87.9001 61.4769 85.4882C63.9717 78.7439 64.7278 71.5976 68.4147 68.1086C71.9429 72.5182 69.8544 77.1797 69.0551 82.396C67.6514 84.2566 67.6925 85.6276 67.7742 87.834C69.0381 86.0637 69.2852 84.5723 69.3752 82.5026C70.7878 75.9753 72.9927 71.1353 77.2734 66.2957C84.9323 58.1952 85.6239 53.8074 86.6662 44.8646C84.1683 56.8943 79.3027 63.7699 71.19 65.1231C71.5278 62.7609 72.0446 62.4491 71.0832 60.2184L67.1341 60.325C66.6724 62.5464 66.5764 63.0322 67.8812 65.2297C59.1647 62.3234 57.2078 48.5394 55.9473 43.9727L55.9473 43.9727Z" fill="black"/>
<path d="M70.7087 80.0505C70.7087 80.4332 70.3264 80.7435 69.8548 80.7435C69.3833 80.7435 69.001 80.4332 69.001 80.0505C69.001 79.6677 69.3833 79.3574 69.8548 79.3574C70.3264 79.3574 70.7087 79.6677 70.7087 80.0505Z" fill="#808000"/>
<path d="M70.1222 81.8108C70.1222 82.223 69.7877 82.5572 69.3751 82.5572C68.9624 82.5572 68.6279 82.223 68.6279 81.8108C68.6279 81.3986 68.9624 81.0645 69.3751 81.0645C69.7877 81.0645 70.1222 81.3986 70.1222 81.8108Z" fill="#550000"/>
<path d="M63.2907 81.5983C63.2907 82.1283 62.9084 82.5579 62.4369 82.5579C61.9653 82.5579 61.583 82.1283 61.583 81.5983C61.583 81.0683 61.9653 80.6387 62.4369 80.6387C62.9084 80.6387 63.2907 81.0683 63.2907 81.5983Z" fill="#000080"/>
<path d="M62.8629 83.3816C62.8629 83.8674 62.4089 84.2613 61.8489 84.2613C61.2889 84.2613 60.835 83.8675 60.835 83.3816C60.835 82.8958 61.2889 82.502 61.8489 82.502C62.4089 82.502 62.8629 82.8958 62.8629 83.3816Z" fill="#808000"/>
<path d="M53.2584 23.1152C48.6003 27.4556 45.6153 29.6874 45.8938 35.8036C41.9395 39.9176 40.6929 43.9147 39.4896 49.2382C32.7849 58.1335 38.0791 62.7155 30.417 70.2429C36.9173 66.6756 38.0035 65.6312 37.8883 58.7278L40.1297 55.6357L39.596 62.7794C33.7397 70.4472 36.8869 83.4416 37.8883 95.0861C44.4588 97.2694 50.6696 96.7928 57.4209 96.3656C57.0801 79.1322 56.0528 61.9632 55.0727 44.7599L57.34 28.9794L58.9151 23.648" fill="black"/>
<path d="M50.4844 31.1105L96.4867 35.1622L96.9137 23.0074L51.1247 20.3418L50.4844 31.1105Z" fill="#993C26"/>
<path d="M51.8746 24.502L35.8643 59.6875C36.0329 63.0677 35.9036 63.0579 37.6787 60.2207L53.2617 24.6087" fill="#D7D0AB"/>
<path d="M54.4308 24.3937L39.7016 58.0868C39.6899 60.6421 39.9129 59.9857 41.3026 58.3L55.4983 24.2871" fill="#D7D0AB"/>
<path d="M50.4847 50.3032C50.4847 51.422 49.5767 52.329 48.4567 52.329C47.3367 52.329 46.4287 51.422 46.4287 50.3032C46.4287 49.1843 47.3367 48.2773 48.4567 48.2773C49.5767 48.2773 50.4847 49.1843 50.4847 50.3032Z" fill="#808000"/>
<path d="M54.2436 59.1219C54.2751 59.3998 53.9446 59.6655 53.5053 59.7152C53.0661 59.765 52.6844 59.58 52.6528 59.3021C52.6213 59.0241 52.9518 58.7585 53.3911 58.7087C53.8304 58.659 54.212 58.844 54.2436 59.1219V59.1219Z" fill="#808000"/>
<path d="M54.7445 61.3979C54.8441 62.2756 54.462 63.0396 53.8909 63.1042C53.3198 63.1689 52.7761 62.5099 52.6765 61.6322C52.5768 60.7545 52.959 59.9905 53.5301 59.9258C54.1012 59.8612 54.6449 60.5202 54.7445 61.3979V61.3979Z" fill="#993C26"/>
<path d="M54.9967 64.3213C55.0565 64.8479 54.6776 65.3232 54.1504 65.3829C53.6233 65.4426 53.1475 65.0641 53.0877 64.5375C53.0279 64.0109 53.4068 63.5356 53.934 63.4759C54.4611 63.4162 54.9369 63.7947 54.9967 64.3213Z" fill="#000080"/>
<path d="M54.8322 65.5183L53.5096 65.6681C53.1866 65.7047 52.9665 66.102 53.018 66.5554C53.0695 67.0089 53.373 67.3469 53.696 67.3103L55.0186 67.1605C55.3416 67.1239 55.5617 66.7266 55.5102 66.2732C55.4588 65.8197 55.1552 65.4817 54.8322 65.5183Z" fill="white"/>
<path d="M55.4674 68.5068C55.5272 69.0334 55.1483 69.5087 54.6211 69.5684C54.094 69.6281 53.6182 69.2497 53.5584 68.723C53.4986 68.1964 53.8775 67.7211 54.4047 67.6614C54.9318 67.6017 55.4076 67.9802 55.4674 68.5068Z" fill="#550000"/>
<path d="M67.7765 3.60228C58.9189 -7.45318 45.7746 7.4947 35.9697 13.0919C44.5965 21.8748 53.1165 27.0695 64.2543 27.4859L61.2657 9.1469L67.7765 3.60228Z" fill="#D7D0AB"/>
<path d="M63.4551 27.593L119.007 22.0483C101.808 4.07872 73.289 -8.80595 60.4648 9.04017L63.4551 27.593Z" fill="#322B1A"/>
<path d="M55.6094 10.4168C55.5728 10.4197 55.5371 10.4303 55.5048 10.4477C55.4724 10.4652 55.4441 10.4892 55.4215 10.5182C55.399 10.5472 55.3828 10.5807 55.3739 10.6163C55.365 10.652 55.3637 10.6891 55.37 10.7253L55.6391 12.3992L54.7146 13.4119C54.6901 13.4373 54.671 13.4673 54.6583 13.5002C54.6456 13.533 54.6397 13.5681 54.6408 13.6033C54.6419 13.6385 54.65 13.6732 54.6647 13.7052C54.6794 13.7372 54.7004 13.7659 54.7264 13.7897C54.7525 13.8135 54.783 13.8319 54.8162 13.8437C54.8494 13.8555 54.8847 13.8605 54.9199 13.8585C54.9551 13.8565 54.9896 13.8475 55.0212 13.832C55.0529 13.8164 55.0811 13.7947 55.1042 13.7681L55.7464 13.0655L55.8769 13.872C55.8824 13.9063 55.8945 13.9391 55.9128 13.9686C55.931 13.9982 55.9548 14.0239 55.983 14.0442C56.0111 14.0645 56.043 14.0791 56.0768 14.0871C56.1106 14.0951 56.1456 14.0964 56.1799 14.0909C56.2142 14.0854 56.247 14.0731 56.2766 14.0549C56.3061 14.0367 56.3318 14.0128 56.3521 13.9847C56.3724 13.9565 56.387 13.9247 56.395 13.8909C56.4029 13.8571 56.4042 13.8221 56.3986 13.7879L56.2021 12.5675L57.3462 11.3157C57.3833 11.2769 57.4076 11.2279 57.4161 11.175C57.4245 11.1221 57.4167 11.0679 57.3936 11.0196C57.3705 10.9713 57.3332 10.9311 57.2867 10.9045C57.2402 10.8778 57.1867 10.8659 57.1333 10.8704C57.065 10.8761 57.0017 10.908 56.9566 10.9594L56.0948 11.9028L55.8917 10.6428C55.8823 10.5763 55.8478 10.5159 55.7954 10.474C55.7429 10.432 55.6764 10.4116 55.6094 10.4168V10.4168Z" fill="black"/>
<path d="M54.1991 68.3947C54.1991 68.4918 54.1274 68.5706 54.039 68.5706C53.9506 68.5706 53.8789 68.4918 53.8789 68.3947C53.8789 68.2975 53.9506 68.2188 54.039 68.2188C54.1274 68.2188 54.1991 68.2975 54.1991 68.3947Z" fill="white"/>
<path d="M55.0438 68.3947C55.0438 68.4918 54.9721 68.5706 54.8837 68.5706C54.7953 68.5706 54.7236 68.4918 54.7236 68.3947C54.7236 68.2975 54.7953 68.2188 54.8837 68.2188C54.9721 68.2188 55.0438 68.2975 55.0438 68.3947Z" fill="white"/>
<path d="M55.0438 68.9669C55.0438 69.0641 54.9721 69.1428 54.8837 69.1428C54.7953 69.1428 54.7236 69.0641 54.7236 68.9669C54.7236 68.8698 54.7953 68.791 54.8837 68.791C54.9721 68.791 55.0438 68.8698 55.0438 68.9669Z" fill="white"/>
<path d="M54.1991 68.9669C54.1991 69.0641 54.1274 69.1428 54.039 69.1428C53.9506 69.1428 53.8789 69.0641 53.8789 68.9669C53.8789 68.8698 53.9506 68.791 54.039 68.791C54.1274 68.791 54.1991 68.8698 54.1991 68.9669Z" fill="white"/>
<path d="M54.621 68.7208C54.621 68.818 54.5493 68.8967 54.4609 68.8967C54.3725 68.8967 54.3008 68.818 54.3008 68.7208C54.3008 68.6237 54.3725 68.5449 54.4609 68.5449C54.5493 68.5449 54.621 68.6237 54.621 68.7208Z" fill="white"/>
<path d="M53.6922 64.1564C53.6922 64.2535 53.6206 64.3323 53.5322 64.3323C53.4437 64.3323 53.3721 64.2535 53.3721 64.1564C53.3721 64.0592 53.4437 63.9805 53.5322 63.9805C53.6206 63.9805 53.6922 64.0592 53.6922 64.1564Z" fill="white"/>
<path d="M54.537 64.1564C54.537 64.2535 54.4653 64.3323 54.3769 64.3323C54.2885 64.3323 54.2168 64.2535 54.2168 64.1564C54.2168 64.0592 54.2885 63.9805 54.3769 63.9805C54.4653 63.9805 54.537 64.0592 54.537 64.1564Z" fill="white"/>
<path d="M54.537 64.7286C54.537 64.8258 54.4653 64.9045 54.3769 64.9045C54.2885 64.9045 54.2168 64.8258 54.2168 64.7286C54.2168 64.6315 54.2885 64.5527 54.3769 64.5527C54.4653 64.5527 54.537 64.6315 54.537 64.7286Z" fill="white"/>
<path d="M53.6922 64.7286C53.6922 64.8258 53.6206 64.9045 53.5322 64.9045C53.4437 64.9045 53.3721 64.8258 53.3721 64.7286C53.3721 64.6315 53.4437 64.5527 53.5322 64.5527C53.6206 64.5527 53.6922 64.6315 53.6922 64.7286Z" fill="white"/>
<path d="M54.1141 64.4825C54.1141 64.5797 54.0424 64.6584 53.954 64.6584C53.8656 64.6584 53.7939 64.5797 53.7939 64.4825C53.7939 64.3854 53.8656 64.3066 53.954 64.3066C54.0424 64.3066 54.1141 64.3854 54.1141 64.4825Z" fill="white"/>
<path d="M63.4723 37.2632C63.4723 37.5024 63.2393 37.6964 62.952 37.6964C62.6646 37.6964 62.4316 37.5024 62.4316 37.2632C62.4316 37.024 62.6646 36.8301 62.952 36.8301C63.2393 36.8301 63.4723 37.024 63.4723 37.2632Z" fill="white"/>
<path d="M78.3336 39.1831C78.3336 39.4224 78.1007 39.6163 77.8133 39.6163C77.5259 39.6163 77.293 39.4224 77.293 39.1831C77.293 38.9439 77.5259 38.75 77.8133 38.75C78.1007 38.75 78.3336 38.9439 78.3336 39.1831Z" fill="white"/>
</g>
</g>
<defs>
<linearGradient id="paint0_linear" x1="47.3073" y1="74.6481" x2="47.3073" y2="-12.4951" gradientUnits="userSpaceOnUse">
<stop offset="1e-08" stop-color="#B0DAE6"/>
<stop offset="1" stop-color="#73CADA"/>
</linearGradient>
<linearGradient id="paint1_linear" x1="113.641" y1="-7.09861" x2="112.068" y2="14.159" gradientUnits="userSpaceOnUse">
<stop offset="1e-08" stop-color="#FFF7F7"/>
<stop offset="0.1362" stop-color="#F9F5F6"/>
<stop offset="0.3169" stop-color="#E8F0F2"/>
<stop offset="0.5226" stop-color="#CDE7ED"/>
<stop offset="0.7467" stop-color="#A7DBE5"/>
<stop offset="0.9834" stop-color="#76CBDB"/>
<stop offset="1" stop-color="#73CADA"/>
</linearGradient>
<linearGradient id="paint2_linear" x1="110.117" y1="28.0794" x2="113.557" y2="47.1546" gradientUnits="userSpaceOnUse">
<stop offset="1e-08" stop-color="#FFF7F7"/>
<stop offset="0.1362" stop-color="#F9F5F6"/>
<stop offset="0.3169" stop-color="#E8F0F2"/>
<stop offset="0.5226" stop-color="#CDE7ED"/>
<stop offset="0.7467" stop-color="#A7DBE5"/>
<stop offset="0.9834" stop-color="#76CBDB"/>
<stop offset="1" stop-color="#73CADA"/>
</linearGradient>
<linearGradient id="paint3_linear" x1="-3.01661" y1="30.5706" x2="0.399385" y2="49.5097" gradientUnits="userSpaceOnUse">
<stop offset="1e-08" stop-color="#FFF7F7"/>
<stop offset="0.1362" stop-color="#F9F5F6"/>
<stop offset="0.3169" stop-color="#E8F0F2"/>
<stop offset="0.5226" stop-color="#CDE7ED"/>
<stop offset="0.7467" stop-color="#A7DBE5"/>
<stop offset="0.9834" stop-color="#76CBDB"/>
<stop offset="1" stop-color="#73CADA"/>
</linearGradient>
<linearGradient id="paint4_linear" x1="24.9607" y1="13.09" x2="28.3768" y2="32.0293" gradientUnits="userSpaceOnUse">
<stop offset="1e-08" stop-color="#FFF7F7"/>
<stop offset="0.1362" stop-color="#F9F5F6"/>
<stop offset="0.3169" stop-color="#E8F0F2"/>
<stop offset="0.5226" stop-color="#CDE7ED"/>
<stop offset="0.7467" stop-color="#A7DBE5"/>
<stop offset="0.9834" stop-color="#76CBDB"/>
<stop offset="1" stop-color="#73CADA"/>
</linearGradient>
<linearGradient id="paint5_linear" x1="-15.9571" y1="71.3177" x2="0.812089" y2="71.3177" gradientUnits="userSpaceOnUse">
<stop offset="1e-08" stop-color="#B0DAE6"/>
<stop offset="1" stop-color="#73CADA"/>
</linearGradient>
<linearGradient id="paint6_linear" x1="-12.0234" y1="72.8038" x2="0.152182" y2="72.8038" gradientUnits="userSpaceOnUse">
<stop offset="1e-08" stop-color="#B0DAE6"/>
<stop offset="1" stop-color="#73CADA"/>
</linearGradient>
<linearGradient id="paint7_linear" x1="19.6436" y1="73.0772" x2="32.3298" y2="73.0772" gradientUnits="userSpaceOnUse">
<stop offset="1e-08" stop-color="#B0DAE6"/>
<stop offset="1" stop-color="#73CADA"/>
</linearGradient>
<linearGradient id="paint8_linear" x1="14.0146" y1="74.1106" x2="23.2259" y2="74.1106" gradientUnits="userSpaceOnUse">
<stop offset="1e-08" stop-color="#B0DAE6"/>
<stop offset="1" stop-color="#73CADA"/>
</linearGradient>
<linearGradient id="paint9_linear" x1="21.381" y1="74.7177" x2="30.5921" y2="74.7177" gradientUnits="userSpaceOnUse">
<stop offset="1e-08" stop-color="#B0DAE6"/>
<stop offset="1" stop-color="#73CADA"/>
</linearGradient>
<linearGradient id="paint10_linear" x1="28.2901" y1="75.9444" x2="37.5011" y2="75.9444" gradientUnits="userSpaceOnUse">
<stop offset="1e-08" stop-color="#B0DAE6"/>
<stop offset="1" stop-color="#73CADA"/>
</linearGradient>
<linearGradient id="paint11_linear" x1="-6.61628" y1="69.5532" x2="2.93264" y2="69.5532" gradientUnits="userSpaceOnUse">
<stop offset="1e-08" stop-color="#B0DAE6"/>
<stop offset="1" stop-color="#73CADA"/>
</linearGradient>
<linearGradient id="paint12_linear" x1="-4.3759" y1="70.3985" x2="2.55721" y2="70.3985" gradientUnits="userSpaceOnUse">
<stop offset="1e-08" stop-color="#B0DAE6"/>
<stop offset="1" stop-color="#73CADA"/>
</linearGradient>
<linearGradient id="paint13_linear" x1="-5.8116" y1="65.7147" x2="2.19392" y2="65.7147" gradientUnits="userSpaceOnUse">
<stop offset="1e-08" stop-color="#B0DAE6"/>
<stop offset="1" stop-color="#73CADA"/>
</linearGradient>
<linearGradient id="paint14_linear" x1="-3.93363" y1="66.4241" x2="1.87885" y2="66.4241" gradientUnits="userSpaceOnUse">
<stop offset="1e-08" stop-color="#B0DAE6"/>
<stop offset="1" stop-color="#73CADA"/>
</linearGradient>
<linearGradient id="paint15_linear" x1="11.8583" y1="67.5786" x2="22.7499" y2="67.5786" gradientUnits="userSpaceOnUse">
<stop offset="1e-08" stop-color="#B0DAE6"/>
<stop offset="1" stop-color="#73CADA"/>
</linearGradient>
<linearGradient id="paint16_linear" x1="8.08899" y1="68.0223" x2="15.9971" y2="68.0223" gradientUnits="userSpaceOnUse">
<stop offset="1e-08" stop-color="#B0DAE6"/>
<stop offset="1" stop-color="#73CADA"/>
</linearGradient>
<linearGradient id="paint17_linear" x1="22.3214" y1="67.7606" x2="30.2292" y2="67.7606" gradientUnits="userSpaceOnUse">
<stop offset="1e-08" stop-color="#B0DAE6"/>
<stop offset="1" stop-color="#73CADA"/>
</linearGradient>
<linearGradient id="paint18_linear" x1="14.917" y1="65.9085" x2="25.8084" y2="65.9085" gradientUnits="userSpaceOnUse">
<stop offset="1e-08" stop-color="#B0DAE6"/>
<stop offset="1" stop-color="#73CADA"/>
</linearGradient>
<linearGradient id="paint19_linear" x1="11.1476" y1="66.3508" x2="19.0558" y2="66.3508" gradientUnits="userSpaceOnUse">
<stop offset="1e-08" stop-color="#B0DAE6"/>
<stop offset="1" stop-color="#73CADA"/>
</linearGradient>
<linearGradient id="paint20_linear" x1="17.4725" y1="66.8738" x2="25.3803" y2="66.8738" gradientUnits="userSpaceOnUse">
<stop offset="1e-08" stop-color="#B0DAE6"/>
<stop offset="1" stop-color="#73CADA"/>
</linearGradient>
<linearGradient id="paint21_linear" x1="28.2158" y1="65.8557" x2="39.1073" y2="65.8557" gradientUnits="userSpaceOnUse">
<stop offset="1e-08" stop-color="#B0DAE6"/>
<stop offset="1" stop-color="#73CADA"/>
</linearGradient>
<linearGradient id="paint22_linear" x1="24.4464" y1="66.2999" x2="32.3545" y2="66.2999" gradientUnits="userSpaceOnUse">
<stop offset="1e-08" stop-color="#B0DAE6"/>
<stop offset="1" stop-color="#73CADA"/>
</linearGradient>
<linearGradient id="paint23_linear" x1="30.7705" y1="66.8192" x2="38.6783" y2="66.8192" gradientUnits="userSpaceOnUse">
<stop offset="1e-08" stop-color="#B0DAE6"/>
<stop offset="1" stop-color="#73CADA"/>
</linearGradient>
<linearGradient id="paint24_linear" x1="-22.7588" y1="75.2006" x2="5.51767" y2="75.2006" gradientUnits="userSpaceOnUse">
<stop offset="1e-08" stop-color="#B0DAE6"/>
<stop offset="1" stop-color="#73CADA"/>
</linearGradient>
<linearGradient id="paint25_linear" x1="-16.1269" y1="77.7062" x2="4.40419" y2="77.7062" gradientUnits="userSpaceOnUse">
<stop offset="1e-08" stop-color="#B0DAE6"/>
<stop offset="1" stop-color="#73CADA"/>
</linearGradient>
<linearGradient id="paint26_linear" x1="6.14061" y1="79.7123" x2="34.4171" y2="79.7123" gradientUnits="userSpaceOnUse">
<stop offset="1e-08" stop-color="#B0DAE6"/>
<stop offset="1" stop-color="#73CADA"/>
</linearGradient>
<linearGradient id="paint27_linear" x1="-0.269567" y1="75.9447" x2="20.2615" y2="75.9447" gradientUnits="userSpaceOnUse">
<stop offset="1e-08" stop-color="#B0DAE6"/>
<stop offset="1" stop-color="#73CADA"/>
</linearGradient>
<linearGradient id="paint28_linear" x1="16.1494" y1="77.3" x2="36.6805" y2="77.3" gradientUnits="userSpaceOnUse">
<stop offset="1e-08" stop-color="#B0DAE6"/>
<stop offset="1" stop-color="#73CADA"/>
</linearGradient>
<clipPath id="clip0">
<rect width="150.977" height="106.641" fill="white" transform="translate(-27.1484 -6.64062)"/>
</clipPath>
</defs>
</svg>
