<?xml version="1.0" encoding="UTF-8"?>
<!DOCTYPE svg PUBLIC "-//W3C//DTD SVG 1.1//EN" "http://www.w3.org/Graphics/SVG/1.1/DTD/svg11.dtd">
<!-- Creator: CorelDRAW X7 -->
<svg xmlns="http://www.w3.org/2000/svg" xml:space="preserve" width="8.4666mm" height="8.4666mm" version="1.1" style="shape-rendering:geometricPrecision; text-rendering:geometricPrecision; image-rendering:optimizeQuality; fill-rule:evenodd; clip-rule:evenodd"
viewBox="0 0 847 847"
 xmlns:xlink="http://www.w3.org/1999/xlink">
 <defs>
  <style type="text/css">
   <![CDATA[
    .fil1 {fill:#FEFEFE}
    .fil3 {fill:#FCE4CC}
    .fil4 {fill:#F2A44F}
    .fil2 {fill:#ADAFAF}
    .fil6 {fill:#796A56}
    .fil5 {fill:#232323}
    .fil0 {fill:url(#id0)}
   ]]>
  </style>
  <linearGradient id="id0" gradientUnits="userSpaceOnUse" x1="410.96" y1="18.13" x2="420.97" y2="734.64">
   <stop offset="0" style="stop-opacity:1; stop-color:#6C60A7"/>
   <stop offset="1" style="stop-opacity:1; stop-color:#0EAD71"/>
  </linearGradient>
 </defs>
 <g id="Layer_x0020_1">
  <metadata id="CorelCorpID_0Corel-Layer"/>
  <circle class="fil0" cx="423" cy="423" r="405"/>
  <g id="_2027857833008">
   <path class="fil1" d="M181 589c1,-1 5,-10 9,-15 8,-11 6,-4 3,-17 -2,-8 -2,-14 1,-21 1,-3 4,-5 5,-7 2,-2 5,-4 7,-6 -1,-4 -3,-7 -5,-10 -2,-8 -3,-17 0,-25 0,-2 1,-4 2,-5 1,-2 3,-2 6,-2l1 1c0,3 -3,7 -4,11 -5,15 8,30 9,32 -3,2 -7,4 -10,7 -2,2 -5,5 -6,9 -2,5 -1,10 0,15 0,2 1,4 2,6 3,9 4,4 -5,14 -7,10 -14,23 -9,36 9,17 51,29 46,-20 -1,-10 -3,-10 0,-12 10,-9 17,-15 20,-29 2,-13 -3,-18 -6,-26 3,-3 7,-6 10,-10 1,-1 2,-3 3,-4 0,0 4,2 5,3 -3,6 -6,9 -10,13 2,6 5,14 4,22 -1,12 -6,20 -13,27 -3,4 -2,6 -1,11 2,5 4,9 7,13 1,1 3,2 4,3 -2,4 -18,17 -7,35 3,4 7,8 8,9 1,4 -5,18 4,26 6,6 18,6 26,3 0,-5 -2,-8 -3,-13 0,-10 4,-20 7,-28 1,-2 0,-4 -1,-6 -1,-1 -2,-3 -3,-5 -7,-14 -7,-28 -3,-43 1,-3 1,-5 3,-6 1,-1 8,-4 7,0 -1,0 -1,1 -1,1 -1,1 -1,2 -2,4 -6,16 -3,36 7,50 2,4 0,5 -3,13 -2,4 -3,9 -4,14 -2,19 8,23 10,26 -6,12 -18,27 -7,43 3,4 6,5 10,9 1,10 -3,18 2,28 9,15 36,11 50,6 7,-3 15,-9 14,-19 0,-9 -6,-17 -10,-22 -3,-3 -6,-5 -8,-8 -2,-2 1,-5 3,-11 3,-9 3,-19 0,-28 -3,-9 -7,-15 -12,-21 7,-10 15,-22 7,-35 -2,-4 -5,-5 -8,-8 3,-13 6,-19 5,-33 -1,-15 -8,-27 -21,-32 -1,0 -2,0 -2,-2 -4,-15 4,-34 12,-45 3,0 4,1 5,4 -2,4 -5,7 -7,11 -3,7 -5,15 -4,23 0,4 0,4 3,6 4,1 7,4 10,8 5,6 9,14 10,26 1,6 1,11 0,17 -1,5 -3,10 -3,15 1,1 2,2 3,4 15,19 -1,40 -1,41 0,1 3,4 3,6 2,2 3,4 4,6 2,4 3,8 4,14 2,8 1,17 -2,24 -1,3 -2,5 -3,8 2,1 3,2 4,3 2,2 1,2 5,3 4,1 9,2 13,1 8,-2 12,-7 15,-15 3,-14 -1,-29 -10,-39 -1,-2 -3,-3 -4,-4 1,-2 6,-6 10,-11 7,-13 4,-26 -4,-37 -1,-2 -3,-4 -4,-6 1,-3 5,-7 7,-13 11,-27 -12,-37 -14,-39 2,-7 6,-9 7,-20 1,-11 -2,-15 -5,-22l5 -2c4,3 7,13 7,20 0,11 -4,16 -6,21 1,2 3,3 4,4 1,1 3,2 4,3 1,-8 2,-13 6,-19l7 1c-4,5 -7,11 -6,20 0,7 5,15 9,17 -1,7 -12,13 -4,32 4,10 4,4 0,13 -4,11 -2,23 3,33 4,6 2,4 -1,15 -2,14 3,22 17,22 19,1 20,-15 16,-29 -2,-5 -2,-4 0,-7 5,-10 8,-22 4,-33 -3,-9 -5,-3 -1,-13 2,-5 4,-11 3,-17 -1,-9 -3,-9 -6,-15 4,-6 17,-16 5,-35 -1,-2 -2,-2 -3,-4l9 0c2,9 5,7 5,19 2,0 3,-2 4,-3 1,-1 2,-2 3,-4 0,-1 -1,-3 -1,-4 -4,-9 -5,-19 -2,-28 1,-4 3,-6 4,-9l6 2c-1,3 -3,6 -4,9 -3,7 -2,17 1,23 1,3 5,7 5,10 -8,5 -16,10 -17,22 -1,9 2,17 6,24 1,2 3,4 4,6 -1,3 -6,7 -8,12 -13,26 8,39 9,42 -3,4 -5,4 -10,14 -8,17 -6,46 20,44 7,-1 7,-1 12,-6 1,-1 1,-1 1,-4 -6,-13 -7,-26 -2,-39 1,-3 3,-6 4,-8 1,-2 5,-6 5,-8 0,-1 -8,-10 -8,-23 0,-5 1,-10 3,-13 2,-3 5,-8 7,-9 0,-3 -1,-7 -2,-10 -5,-23 -1,-47 22,-58 1,-11 -1,-22 -6,-31 -1,-1 -5,-7 -5,-7 1,-3 2,-3 5,-4 6,8 9,15 12,27 1,5 1,12 0,17 -1,3 -3,4 -5,5 -11,5 -17,15 -18,30 -1,9 0,17 2,25 1,3 2,5 3,8 -12,8 -15,21 -8,34 2,3 4,7 7,9 -2,3 -7,8 -9,12 -7,12 -7,27 -2,40 1,2 2,4 3,7 -1,1 -4,3 -5,5 -2,2 -4,4 -6,7 -3,3 -6,9 -8,14 -4,15 8,22 19,25 11,4 28,6 38,0 12,-8 9,-19 8,-35 7,-5 15,-11 15,-24 0,-11 -6,-19 -11,-27 1,-2 3,-4 4,-5 10,-13 5,-30 -1,-43 -1,-3 -2,-3 0,-6 10,-15 13,-33 7,-50 -1,-2 -2,-4 -3,-6 5,-3 8,2 9,6 2,4 3,9 3,14 1,13 -2,24 -7,34 -4,7 -4,4 0,13 1,2 1,4 2,6 4,12 2,18 -1,29 15,3 30,4 32,-14 0,-6 -1,-11 -1,-15 1,-2 12,-8 12,-22 -1,-13 -10,-17 -11,-22 4,-2 9,-11 11,-16 3,-10 -1,-8 -7,-18 -4,-5 -7,-12 -7,-20 -1,-10 1,-14 4,-22 -1,-1 -2,-2 -3,-3 -1,-1 -2,-2 -3,-3 -1,-2 -4,-5 -4,-7l5 -3c3,5 9,11 13,14 -1,4 -16,23 4,46 4,4 7,7 11,10 0,13 -4,27 3,37 6,10 19,11 30,4 5,-2 8,-5 11,-10 5,-10 0,-23 -6,-32 -2,-3 -7,-10 -10,-11 1,-3 2,-5 3,-7 3,-6 4,-13 2,-20 -2,-9 -9,-13 -16,-17 1,-3 7,-10 9,-19 2,-13 -2,-17 -4,-24 1,-1 5,-2 6,0 4,5 5,15 5,21 -1,8 -4,13 -7,20 1,1 2,2 4,3 2,2 2,2 4,4 5,7 7,17 6,25 -1,4 -3,8 -4,12 8,9 14,21 15,23 1,-5 3,-10 2,-15 0,-3 0,-5 -1,-7 -1,-2 -2,-5 -3,-6 7,-2 10,-8 9,-14 0,-6 -3,-13 -6,-17 -4,-6 2,-2 3,-18 0,-3 -2,-7 -3,-9l-4 -8 2 -1c4,-8 5,-13 1,-21 -1,-3 3,-6 6,-13 1,-3 2,-5 2,-9 2,-10 -1,-22 -6,-30 1,-5 9,-14 3,-26 -2,-3 -4,-4 -6,-6 1,-1 2,-3 3,-4 4,-8 9,-21 8,-30 -1,-5 -1,-7 -4,-12 7,-10 13,-26 7,-38 -2,-3 -4,-6 -6,-9 -1,-1 -1,0 -1,-1 0,-2 1,-3 2,-5 0,-2 1,-4 1,-7 0,-12 -7,-23 -13,-32 -3,-5 4,-21 -12,-34 -2,-2 -8,-6 -10,-6 0,-6 1,-9 0,-16 -1,-5 -2,-9 -5,-12 -3,-6 -10,-12 -16,-14 -1,-1 -2,-1 -3,-2 0,-6 -2,-11 -5,-15 -5,-8 -14,-12 -23,-14 -2,0 -2,0 -2,-1 -2,-5 -3,-9 -8,-13 -6,-5 -11,-5 -22,-5 0,-5 -4,-10 -7,-13 -6,-7 -9,-4 -15,-6 -5,-2 -7,-7 -12,-9 -6,-4 -10,-1 -17,-1 -3,-6 -9,-10 -16,-13 -7,-2 -17,-2 -25,0 0,-1 -1,-1 -1,-2 -2,-2 -5,-4 -6,-5 -3,-2 -6,-4 -11,-5 0,0 0,0 0,0l-2 0c-10,1 -15,13 -32,4 -8,-5 -17,-4 -24,2 -2,2 -4,4 -6,6 -14,-3 -33,-1 -41,13 -3,-1 -5,-1 -9,-1 -6,0 -10,2 -13,7 -2,2 -4,3 -7,4 -3,1 -11,-1 -19,11 -1,2 -2,6 -3,8 -14,0 -24,2 -28,15 -1,2 -1,4 -2,4 -3,1 -8,2 -13,4 -9,5 -15,13 -16,23 -1,5 -5,2 -15,12 -1,1 -2,2 -3,3 -2,4 -4,7 -6,11 -1,5 -1,11 -1,15 0,2 1,4 1,5 -3,1 -8,4 -10,5 -3,3 -5,6 -7,9 -3,4 -5,12 -5,18 0,2 1,5 0,7l-6 10c-4,7 -7,14 -7,23 0,4 1,7 2,10 1,1 1,1 1,2 -2,1 -6,7 -7,10 -6,14 -1,27 7,38 -6,8 -5,16 -3,25 2,8 9,20 9,22 -5,1 -10,15 -5,23 1,3 2,5 3,8 -7,10 -9,25 -5,37 2,6 4,7 7,12 1,1 -1,3 -1,4 -3,7 -2,13 1,19 1,1 2,1 2,3 -1,5 -10,15 -3,28 2,4 1,3 -2,8 -1,2 -2,6 -3,8 -3,8 -1,19 7,21 0,0 -1,2 -1,3 -2,4 -2,5 -3,10 0,5 1,12 3,14z"/>
   <path class="fil2" d="M181 589c0,3 -3,8 -2,17 1,10 7,16 16,22 11,7 31,8 39,-6 5,-9 5,-14 5,-23 0,-2 0,-2 0,-4 1,-3 0,-3 0,-5 0,0 0,0 0,0l2 4c0,1 1,2 2,3 1,3 3,4 4,7 -6,8 -8,12 -8,24 0,7 6,18 11,21 0,1 -1,8 -1,9 0,7 3,17 9,21 13,10 27,3 33,3 1,1 1,1 2,2 -3,5 -5,8 -7,13 -5,15 -3,25 6,36 1,1 1,2 3,3 0,0 1,1 3,2 -1,2 -2,5 -2,10 0,8 3,19 9,24 6,6 14,8 23,8l5 0c3,0 6,0 8,-1 4,0 6,-1 9,-2 10,-3 22,-8 26,-19 2,-7 1,-13 -2,-19 0,-1 -1,-2 -2,-4 0,-1 -1,-2 -2,-3 5,0 8,1 15,-2 9,-3 13,-10 16,-19 1,-7 1,-6 1,-11 1,-2 0,-3 0,-4 2,1 7,13 28,9 10,-1 12,-7 14,-9 0,13 3,30 17,34 3,1 8,2 11,2 2,0 2,0 4,0 0,2 -4,6 -6,16 -2,12 7,22 18,26 6,3 11,4 18,5 3,1 6,1 9,1l6 0c7,0 15,-2 20,-8 4,-3 7,-8 8,-14 1,-4 1,-6 1,-10 0,-4 -1,-7 -1,-11 3,0 8,-7 10,-9 2,-5 3,-9 4,-15 2,-8 -5,-22 -9,-29 2,-3 5,-1 15,1 6,0 12,-1 16,-3 4,-2 7,-5 9,-9 6,-12 2,-21 3,-24 1,-2 16,-14 9,-33 -1,-3 -1,-5 -3,-7 -1,-2 -2,-3 -3,-5 4,-7 4,-5 6,-12l2 -2c0,11 -2,22 4,32 14,22 53,8 56,-16 0,-3 0,-5 0,-8 -1,-4 -2,-6 -2,-8 -1,-2 -7,-14 -15,-23 1,-4 3,-8 4,-12 1,-8 -1,-18 -6,-25 -2,-2 -2,-2 -4,-4 -2,-1 -3,-2 -4,-3 3,-7 6,-12 7,-20 0,-6 -1,-16 -5,-21 -1,-2 -5,-1 -6,0 2,7 6,11 4,24 -2,9 -8,16 -9,19 7,4 14,8 16,17 2,7 1,14 -2,20 -1,2 -2,4 -3,7 3,1 8,8 10,11 6,9 11,22 6,32 -3,5 -6,8 -11,10 -11,7 -24,6 -30,-4 -7,-10 -3,-24 -3,-37 -4,-3 -7,-6 -11,-10 -20,-23 -5,-42 -4,-46 -4,-3 -10,-9 -13,-14l-5 3c0,2 3,5 4,7 1,1 2,2 3,3 1,1 2,2 3,3 -3,8 -5,12 -4,22 0,8 3,15 7,20 6,10 10,8 7,18 -2,5 -7,14 -11,16 1,5 10,9 11,22 0,14 -11,20 -12,22 0,4 1,9 1,15 -2,18 -17,17 -32,14 3,-11 5,-17 1,-29 -1,-2 -1,-4 -2,-6 -4,-9 -4,-6 0,-13 5,-10 8,-21 7,-34 0,-5 -1,-10 -3,-14 -1,-4 -4,-9 -9,-6 1,2 2,4 3,6 6,17 3,35 -7,50 -2,3 -1,3 0,6 6,13 11,30 1,43 -1,1 -3,3 -4,5 5,8 11,16 11,27 0,13 -8,19 -15,24 1,16 4,27 -8,35 -10,6 -27,4 -38,0 -11,-3 -23,-10 -19,-25 2,-5 5,-11 8,-14 2,-3 4,-5 6,-7 1,-2 4,-4 5,-5 -1,-3 -2,-5 -3,-7 -5,-13 -5,-28 2,-40 2,-4 7,-9 9,-12 -3,-2 -5,-6 -7,-9 -7,-13 -4,-26 8,-34 -1,-3 -2,-5 -3,-8 -2,-8 -3,-16 -2,-25 1,-15 7,-25 18,-30 2,-1 4,-2 5,-5 1,-5 1,-12 0,-17 -3,-12 -6,-19 -12,-27 -3,1 -4,1 -5,4 0,0 4,6 5,7 5,9 7,20 6,31 -23,11 -27,35 -22,58 1,3 2,7 2,10 -2,1 -5,6 -7,9 -2,3 -3,8 -3,13 0,13 8,22 8,23 0,2 -4,6 -5,8 -1,2 -3,5 -4,8 -5,13 -4,26 2,39 0,3 0,3 -1,4 -5,5 -5,5 -12,6 -26,2 -28,-27 -20,-44 5,-10 7,-10 10,-14 -1,-3 -22,-16 -9,-42 2,-5 7,-9 8,-12 -1,-2 -3,-4 -4,-6 -4,-7 -7,-15 -6,-24 1,-12 9,-17 17,-22 0,-3 -4,-7 -5,-10 -3,-6 -4,-16 -1,-23 1,-3 3,-6 4,-9l-6 -2c-1,3 -3,5 -4,9 -3,9 -2,19 2,28 0,1 1,3 1,4 -1,2 -2,3 -3,4 -1,1 -2,3 -4,3 0,-12 -3,-10 -5,-19l-9 0c1,2 2,2 3,4 12,19 -1,29 -5,35 3,6 5,6 6,15 1,6 -1,12 -3,17 -4,10 -2,4 1,13 4,11 1,23 -4,33 -2,3 -2,2 0,7 4,14 3,30 -16,29 -14,0 -19,-8 -17,-22 3,-11 5,-9 1,-15 -5,-10 -7,-22 -3,-33 4,-9 4,-3 0,-13 -8,-19 3,-25 4,-32 -4,-2 -9,-10 -9,-17 -1,-9 2,-15 6,-20l-7 -1c-4,6 -5,11 -6,19 -1,-1 -3,-2 -4,-3 -1,-1 -3,-2 -4,-4 2,-5 6,-10 6,-21 0,-7 -3,-17 -7,-20l-5 2c3,7 6,11 5,22 -1,11 -5,13 -7,20 2,2 25,12 14,39 -2,6 -6,10 -7,13 1,2 3,4 4,6 8,11 11,24 4,37 -4,5 -9,9 -10,11 1,1 3,2 4,4 9,10 13,25 10,39 -3,8 -7,13 -15,15 -4,1 -9,0 -13,-1 -4,-1 -3,-1 -5,-3 -1,-1 -2,-2 -4,-3 1,-3 2,-5 3,-8 3,-7 4,-16 2,-24 -1,-6 -2,-10 -4,-14 -1,-2 -2,-4 -4,-6 0,-2 -3,-5 -3,-6 0,-1 16,-22 1,-41 -1,-2 -2,-3 -3,-4 0,-5 2,-10 3,-15 1,-6 1,-11 0,-17 -1,-12 -5,-20 -10,-26 -3,-4 -6,-7 -10,-8 -3,-2 -3,-2 -3,-6 -1,-8 1,-16 4,-23 2,-4 5,-7 7,-11 -1,-3 -2,-4 -5,-4 -8,11 -16,30 -12,45 0,2 1,2 2,2 13,5 20,17 21,32 1,14 -2,20 -5,33 3,3 6,4 8,8 8,13 0,25 -7,35 5,6 9,12 12,21 3,9 3,19 0,28 -2,6 -5,9 -3,11 2,3 5,5 8,8 4,5 10,13 10,22 1,10 -7,16 -14,19 -14,5 -41,9 -50,-6 -5,-10 -1,-18 -2,-28 -4,-4 -7,-5 -10,-9 -11,-16 1,-31 7,-43 -2,-3 -12,-7 -10,-26 1,-5 2,-10 4,-14 3,-8 5,-9 3,-13 -10,-14 -13,-34 -7,-50 1,-2 1,-3 2,-4 0,0 0,-1 1,-1 1,-4 -6,-1 -7,0 -2,1 -2,3 -3,6 -4,15 -4,29 3,43 1,2 2,4 3,5 1,2 2,4 1,6 -3,8 -7,18 -7,28 1,5 3,8 3,13 -8,3 -20,3 -26,-3 -9,-8 -3,-22 -4,-26 -1,-1 -5,-5 -8,-9 -11,-18 5,-31 7,-35 -1,-1 -3,-2 -4,-3 -3,-4 -5,-8 -7,-13 -1,-5 -2,-7 1,-11 7,-7 12,-15 13,-27 1,-8 -2,-16 -4,-22 4,-4 7,-7 10,-13 -1,-1 -5,-3 -5,-3 -1,1 -2,3 -3,4 -3,4 -7,7 -10,10 3,8 8,13 6,26 -3,14 -10,20 -20,29 -3,2 -1,2 0,12 5,49 -37,37 -46,20 -5,-13 2,-26 9,-36 9,-10 8,-5 5,-14 -1,-2 -2,-4 -2,-6 -1,-5 -2,-10 0,-15 1,-4 4,-7 6,-9 3,-3 7,-5 10,-7 -1,-2 -14,-17 -9,-32 1,-4 4,-8 4,-11l-1 -1c-3,0 -5,0 -6,2 -1,1 -2,3 -2,5 -3,8 -2,17 0,25 2,3 4,6 5,10 -2,2 -5,4 -7,6 -1,2 -4,4 -5,7 -3,7 -3,13 -1,21 3,13 5,6 -3,17 -4,5 -8,14 -9,15z"/>
   <path class="fil3" d="M391 275c1,10 0,19 -7,22 -8,5 -18,-1 -22,-5 -1,1 -4,4 -5,6 -8,10 -7,12 -10,16 -1,0 -1,0 -1,1 1,6 1,10 -2,15 -2,6 -6,9 -6,10 -1,1 1,13 1,15 0,6 0,11 -1,16 1,2 2,13 3,16 1,2 2,5 2,7 1,3 3,4 3,7 3,1 7,12 21,13 4,1 6,0 10,-1l44 -20 0 -36 0 -1c-17,-1 -30,-16 -29,-33 0,-17 15,-31 32,-30 17,0 31,14 31,31 0,4 -1,9 -2,13 -3,5 -6,10 -11,13 -1,1 -2,2 -4,3 -6,3 -11,3 -12,3l0 37 44 20c7,1 12,2 19,-1 1,-1 2,-1 3,-2 2,-1 4,-4 6,-6 1,-1 1,-2 2,-3 1,-2 2,-4 3,-6 1,-3 2,-5 2,-8 2,-5 2,-12 3,-16 0,-6 -1,-10 0,-16 0,-3 2,-14 1,-15 -1,-2 -11,-10 -8,-25 -2,-1 -3,-4 -4,-6 -2,-5 -9,-13 -12,-17 -4,3 -5,4 -10,6 -4,1 -9,1 -12,-1 -7,-3 -8,-12 -8,-22 -5,-1 -10,-3 -15,-4 -5,-1 -11,-2 -17,-2 -13,0 -20,4 -32,6z"/>
   <path class="fil4" d="M500 401c-1,1 -1,2 -2,3 -2,2 -4,5 -6,6 -1,1 -2,1 -3,2 -7,3 -12,2 -19,1 -1,1 0,1 -1,2 -1,0 -1,0 -1,0 -1,1 -2,1 -3,2 -4,2 -10,5 -15,6 -13,4 -41,4 -53,0 -6,-1 -18,-6 -20,-10 -4,1 -6,2 -10,1 -14,-1 -18,-12 -21,-13 -3,8 -6,11 -7,22 -1,10 2,18 8,21 0,4 -6,10 -3,19 1,5 6,9 10,11 0,3 -2,6 -3,9 -3,5 -6,14 -5,19 1,4 4,6 7,6 5,0 12,-8 14,-11 5,-7 5,-9 8,-14l2 -3c-1,5 -2,15 3,16 2,0 4,-3 4,-4 1,-3 2,-6 3,-7 1,10 3,38 13,38 11,1 8,-35 11,-40 5,10 11,20 20,8 2,-3 3,-6 5,-8 1,8 1,16 2,24 1,6 3,18 9,16 11,-2 11,-34 13,-39 1,4 3,12 7,12 5,-1 3,-11 3,-16 1,2 6,11 9,16 2,4 9,12 14,12 4,0 6,-2 7,-5 2,-5 -2,-15 -4,-20 -1,-3 -3,-6 -4,-9 8,-5 14,-8 11,-21 -1,-3 -3,-6 -3,-8 3,-3 5,-4 6,-8 2,-4 3,-9 2,-13 -1,-9 -4,-16 -8,-23z"/>
   <path class="fil2" d="M455 275c0,10 1,19 8,22 3,2 8,2 12,1 5,-2 6,-3 10,-6 1,-2 2,-3 3,-6 1,-3 1,-6 0,-9 -1,-8 -4,-11 -4,-15l2 -2c0,6 2,10 4,14 6,9 6,4 4,11 -3,12 3,19 9,24l-2 6c-3,15 7,23 8,25 1,1 -1,12 -1,15 -1,6 0,10 0,16 2,5 4,9 8,11 6,3 12,0 15,-3 6,-6 4,-15 0,-22 -2,-5 -2,-4 0,-7 6,-9 4,-21 -1,-30 -1,-3 -3,-5 -2,-7 1,-3 2,-5 3,-8 1,-8 -1,-16 -6,-23 -2,-2 -3,-2 -2,-6 3,-11 0,-22 -6,-31 -3,-2 -3,-1 -3,-6 -1,-13 -9,-24 -22,-28 -15,-4 -8,1 -13,-7 -3,-4 -6,-6 -12,-8 0,-6 -1,-19 -6,-20 -2,7 0,3 1,10 1,5 1,10 2,13 1,1 3,1 4,2 7,2 11,10 12,17 0,3 0,8 0,11 1,4 10,15 4,26 -2,4 -3,4 -5,7 3,7 10,20 3,28 -2,2 -9,5 -14,5 -12,-1 -9,-19 -8,-27 2,-10 2,-6 -1,-15 -4,-9 -5,-17 2,-24 2,-1 2,-1 3,-2 -1,-1 -3,-1 -4,-2 -1,0 -2,-1 -4,-1 -2,-2 -4,-3 -6,-5 -3,-4 -5,-9 -6,-15 -2,-1 -7,-1 -11,-7 -4,-6 -1,-9 -8,-11 1,5 3,10 5,14 6,7 9,5 11,8 1,2 1,13 15,20 0,2 -1,3 -2,5 -6,12 4,24 3,29 0,3 -1,6 -2,13z"/>
   <path class="fil2" d="M338 371c1,-5 1,-10 1,-16 0,-2 -2,-14 -1,-15 0,-1 4,-4 6,-10 3,-5 3,-9 2,-15 -1,-1 -2,-4 -2,-5 1,-2 5,-5 7,-10 2,-5 3,-10 2,-15 -2,-7 -2,-1 4,-11 3,-6 3,-8 3,-12 0,0 0,-1 1,-1 0,-1 0,0 0,-1l2 2c0,4 -4,8 -5,15 -1,9 2,11 4,15 4,4 14,10 22,5 7,-3 8,-12 7,-22 0,-5 -1,-8 -2,-12 -1,-5 10,-18 4,-30 -1,-2 -2,-3 -3,-5 3,-1 9,-6 11,-8 4,-5 3,-7 5,-13 9,-3 14,-10 15,-20 -1,0 -2,0 -3,1 -3,1 0,2 -4,9 -4,6 -7,5 -11,7 -2,8 -4,15 -13,19 -1,1 -2,2 -3,2 -1,1 -3,1 -4,2 2,3 6,3 7,10 1,6 0,12 -2,16 -4,8 -4,5 -2,15 1,5 2,12 1,17 -2,16 -17,10 -22,5 -8,-8 0,-21 3,-28 -2,-2 -8,-5 -7,-16 0,-8 5,-13 5,-17 1,-4 -1,-11 3,-20 3,-6 7,-7 14,-10 1,-4 0,-8 1,-13 1,-5 4,-5 2,-10 -5,2 -6,14 -7,20 -7,3 -10,5 -13,11 -2,4 -2,2 -11,4 -10,3 -17,10 -20,19 -2,6 -1,11 -5,15 -6,7 -10,20 -7,30 2,7 -1,4 -5,13 -4,8 -3,16 0,24 2,4 1,4 -1,6 -5,9 -7,22 -2,31 2,4 3,3 1,7 -12,23 5,29 14,26 4,-1 7,-6 8,-11z"/>
   <path class="fil1" d="M333 339c2,-1 3,-3 5,-6 10,-15 2,-21 0,-24 4,-4 7,-5 10,-11 5,-12 -4,-15 0,-20 3,-2 5,-5 7,-8 3,-8 1,-10 0,-17l2 -1c-1,-9 0,-12 3,-19 3,-4 2,-4 2,-9 0,-4 2,-7 2,-11 -12,1 -20,7 -24,14 -3,6 -3,9 -3,16 -1,4 -12,9 -11,27 0,3 1,5 2,8 1,4 0,3 -2,5 -7,8 -9,17 -4,28 2,4 3,3 0,6 -14,23 0,33 0,35 0,1 -3,5 -3,6 -4,7 -6,16 2,20 6,3 11,0 12,-4 5,-11 1,-24 0,-35z"/>
   <path class="fil1" d="M490 252l1 1c-1,8 -2,9 1,17 3,7 9,8 7,12 -2,6 -4,9 0,16 2,5 5,7 9,11 -1,3 -5,5 -4,13 1,5 4,10 7,14 0,1 1,2 2,3 1,1 0,5 -1,7 0,5 -1,11 -1,16 1,6 1,11 4,14 4,6 19,4 15,-12 -1,-5 -3,-8 -5,-12 0,-2 2,-3 4,-8 3,-6 2,-14 -1,-20 -4,-9 -7,-7 -4,-12 4,-9 5,-16 0,-25 -1,-1 -2,-2 -3,-3 -1,-1 -2,-3 -3,-4 0,-1 2,-8 2,-10 1,-7 -1,-16 -6,-21 -1,-1 -1,-2 -3,-4 -2,-1 -1,-2 -1,-5 0,-15 -12,-25 -27,-27 0,3 1,7 1,10 0,6 -1,5 2,10 3,6 4,10 4,19z"/>
   <path class="fil5" d="M421 357c1,1 0,0 1,2l0 6c0,9 -1,19 0,27 1,-1 2,-1 3,0 1,-6 -1,-33 1,-36 1,0 6,0 12,-3 2,-1 3,-2 4,-3 5,-3 8,-8 11,-13 1,-4 2,-9 2,-13 0,-17 -14,-31 -31,-31 -17,-1 -32,13 -32,30 -1,17 12,32 29,33l0 1z"/>
   <path class="fil6" d="M421 357l0 36 -44 20c2,4 14,9 20,10 12,4 40,4 53,0 5,-1 11,-4 15,-6 1,-1 2,-1 3,-2 0,0 0,0 1,0 1,-1 0,-1 1,-2l-44 -20 0 -37c-2,3 0,30 -1,36 -1,-1 -2,-1 -3,0 -1,-8 0,-18 0,-27l0 -6c-1,-2 0,-1 -1,-2z"/>
   <path class="fil2" d="M240 285l-3 0c-3,4 -1,6 -8,15 -2,2 -3,2 -4,4 1,6 9,12 3,28 -1,3 -4,5 -2,8 4,5 7,9 7,17 1,4 0,7 -1,10 -1,3 -3,6 -4,8 3,5 5,5 9,13 6,15 1,20 3,23 3,4 4,4 8,10 3,3 8,10 5,16 -2,5 -11,6 -16,3 -12,-7 -11,-24 -16,-30 -3,-4 -6,-7 -9,-13 -5,-8 -6,-17 -2,-26 1,-5 1,-4 -2,-8 -4,-7 -7,-17 -2,-26 2,-3 2,-2 -1,-7 -2,-5 -5,-12 -4,-18 0,-3 1,-7 3,-8 1,-2 1,-2 1,-5 -2,-11 -2,-24 5,-32 0,-1 2,-3 2,-4 1,-1 0,-2 -1,-3 -5,2 -9,13 -10,20 -1,5 -1,10 -1,14 1,10 0,6 -2,13 -3,8 0,18 4,24 1,3 1,3 0,6 -3,6 -4,12 -1,19 1,5 3,7 4,10 3,6 -12,16 12,45 2,2 2,2 3,5 2,11 5,20 13,26 2,2 6,4 11,4 17,-1 16,-16 8,-27 -9,-12 -8,-7 -8,-15 0,-11 -4,-21 -10,-28 -2,-2 1,-4 2,-10 3,-9 1,-18 -4,-25 -4,-5 -1,-5 0,-10 5,-14 -2,-24 -2,-26 0,-1 4,-4 6,-9 2,-2 4,-8 4,-11z"/>
   <path class="fil2" d="M643 288l0 0c0,4 -1,8 -1,12 -1,4 1,2 3,9 2,7 -1,15 -4,21 -3,6 -2,3 1,8 1,4 2,7 2,11 -1,5 -3,12 -7,16 0,1 -1,2 -1,2 1,6 6,10 2,23 -2,6 -6,13 -10,17 -3,4 -4,3 -5,9 -1,3 -2,7 -3,10 -2,6 -6,13 -12,15 -9,3 -26,-3 -4,-27 5,-6 3,-2 3,-10 -1,-8 2,-15 6,-21 2,-4 3,-5 6,-8 -2,-5 -6,-8 -6,-18 1,-8 4,-11 7,-16 3,-4 1,-5 -1,-9 -3,-6 -3,-13 -1,-20 1,-3 3,-5 4,-8 -1,-1 -4,-4 -7,-8 -2,-3 -3,-7 -5,-11l-4 0c1,4 3,8 4,11 1,2 2,3 3,5 1,1 4,3 4,4 0,1 -4,8 -4,12 -1,6 1,13 3,19 2,4 -3,4 -6,16 -1,4 -1,9 0,13 1,2 1,4 2,6 1,2 2,3 1,5 -5,7 -8,10 -10,20 -1,8 1,12 -1,14 -2,2 -3,3 -4,4 -5,7 -13,20 -6,27 6,6 16,6 23,0 7,-5 10,-15 12,-25 1,-3 1,-3 3,-5 7,-8 14,-21 13,-33 0,-3 -3,-9 -2,-12 5,-8 9,-20 4,-29 -1,-3 -2,-2 0,-5 4,-7 6,-17 4,-25 -1,-3 -2,-4 -3,-5 -2,-3 4,-19 -3,-34 -2,-3 -5,-7 -7,-8 -4,2 -1,5 0,5 5,6 7,14 7,23z"/>
   <path class="fil2" d="M565 177c3,2 9,4 11,12 4,10 0,18 2,20 1,1 2,1 5,6 2,2 3,4 4,7 3,9 2,14 2,22 3,2 5,4 7,7 4,6 4,15 3,22 -1,5 -2,5 0,11 6,16 6,31 -8,37 -8,4 -14,0 -15,-7 -2,-7 0,-17 2,-23 2,-7 1,-5 -2,-9 -2,-2 -4,-5 -4,-9 -3,-10 2,-15 4,-21 -1,-1 -4,-3 -6,-5 -11,-13 -5,-22 -6,-28 -6,-2 -10,-4 -13,-10 -4,-8 -1,-12 -1,-20 -5,-2 -5,-3 -7,-4l-2 3c2,1 3,2 4,3 1,2 -4,25 15,31 0,7 -3,15 5,25 2,3 4,4 6,6 -3,9 -7,15 -1,27 2,4 2,3 5,6 -1,8 -12,37 9,41 8,1 16,-7 18,-10 7,-9 5,-24 0,-35 -2,-5 0,-3 1,-11 1,-10 -1,-21 -8,-27 -3,-3 0,-7 -3,-19 -2,-8 -6,-15 -11,-18 1,-8 2,-13 -1,-20 -2,-5 -6,-10 -11,-12 0,-9 1,-14 -4,-20 -3,-4 -9,-9 -16,-9 2,7 7,3 13,11 4,5 5,13 3,20z"/>
   <path class="fil2" d="M278 175c-5,1 -9,7 -11,12 -3,7 -2,12 -2,20 -8,6 -12,18 -12,30 0,6 1,4 -2,7 -8,10 -9,21 -6,33 1,7 -9,19 -3,35 2,5 5,8 7,10 15,11 33,2 24,-30 -2,-8 0,-6 3,-11 3,-4 4,-9 4,-14 -1,-7 -2,-9 -4,-14 4,-4 6,-6 9,-12 3,-8 1,-11 2,-19 4,-3 8,-3 12,-11 3,-7 2,-12 2,-20 2,-1 3,-2 4,-3l-1 -3c-2,1 -4,2 -7,4 0,9 5,24 -15,30 0,9 4,17 -5,27 -1,2 -4,5 -6,6 1,2 3,5 4,8 2,7 1,13 -2,19 -2,3 -4,5 -6,7 1,3 3,7 3,10 1,4 2,8 2,12 0,8 -4,16 -12,15 -3,-1 -7,-3 -9,-5 -9,-8 -8,-19 -5,-30 2,-4 4,-7 3,-10 -7,-25 8,-32 8,-35 1,-1 -3,-24 13,-34 0,-8 -3,-12 1,-21 2,-5 6,-9 11,-10 -1,-9 -3,-14 3,-21 4,-7 11,-5 13,-11 -7,1 -13,4 -16,8 -5,6 -5,13 -4,21z"/>
   <path class="fil2" d="M326 143c-5,2 -12,12 -10,20 0,4 3,9 5,11 3,3 9,3 13,1 3,-2 6,-5 8,-9 3,-7 1,-9 4,-11 12,-8 8,-14 8,-23 3,-3 5,-4 12,-10 3,-3 6,-9 7,-15 11,0 19,-2 24,-11 2,-2 3,-7 1,-8 -2,2 -3,5 -4,7 -2,2 -4,4 -6,5 -6,4 -11,3 -19,3 0,9 -2,11 -6,17 -2,2 -9,8 -14,10 1,6 4,8 1,14 -1,4 -3,6 -6,8l-3 1c-1,1 0,10 -5,15 -4,5 -10,7 -14,1 -8,-12 3,-21 9,-26 -1,-2 -2,-5 -2,-8 -1,-9 5,-14 13,-17 0,-6 0,-9 2,-14 9,-17 27,-21 29,-23 -3,-5 -17,4 -20,6 -10,7 -14,15 -15,27 0,4 -3,2 -8,7 -9,8 -4,17 -4,22z"/>
   <path class="fil2" d="M474 81c1,2 4,2 5,3 9,4 19,10 24,19 2,6 2,9 2,15 4,2 8,3 11,9 4,7 1,10 0,17 4,2 12,9 11,17 0,4 -2,8 -4,10 -1,1 -4,1 -6,1 -9,-1 -10,-15 -11,-18 -1,-3 -8,-2 -10,-11 -1,-6 1,-9 2,-13 -6,-1 -11,-8 -14,-10 -4,-4 -6,-10 -7,-17 -2,-1 -6,1 -10,0 -14,-2 -16,-14 -18,-15 -5,5 4,12 6,14 5,4 11,5 19,5 0,6 4,12 7,15l5 5c2,1 5,4 7,5 0,2 -1,4 -1,6 -1,7 3,13 8,17 5,3 2,3 5,11 5,10 15,12 20,8 2,-1 5,-6 6,-10 2,-9 -4,-18 -10,-22 0,-6 3,-11 -1,-17 -2,-4 -7,-7 -11,-9 -1,-6 -1,-10 -3,-15 -4,-8 -11,-13 -18,-17 -4,-3 -9,-6 -14,-3z"/>
   <path class="fil2" d="M544 548c0,1 -1,2 -2,3 -1,1 -1,2 -2,3 -1,2 -3,5 -2,8 1,1 3,3 5,3 2,-13 8,-13 11,-17 -8,-7 -14,-16 -15,-28 0,-2 0,-5 0,-7 1,-2 1,-5 1,-6 -2,0 -4,1 -5,2 -2,0 -1,0 -2,2 -1,5 0,12 1,17 4,12 10,18 10,20z"/>
   <path class="fil2" d="M293 549c2,1 4,2 7,6 1,2 2,3 2,5 1,2 1,4 2,5l5 -3c0,-6 -4,-11 -7,-14 1,-1 2,-3 3,-5 5,-8 9,-18 9,-29 0,-5 -1,-5 -7,-7 0,8 2,14 -2,24 -2,4 -3,7 -5,9 -3,5 -6,7 -7,9z"/>
   <path class="fil1" d="M346 315c0,-1 0,-1 1,-1 3,-4 2,-6 10,-16 1,-2 4,-5 5,-6 -2,-4 -5,-6 -4,-15 1,-7 5,-11 5,-15l-2 -2c0,1 0,0 0,1 -1,0 -1,1 -1,1 0,4 0,6 -3,12 -6,10 -6,4 -4,11 1,5 0,10 -2,15 -2,5 -6,8 -7,10 0,1 1,4 2,5z"/>
   <path class="fil1" d="M485 292c3,4 10,12 12,17 1,2 2,5 4,6l2 -6c-6,-5 -12,-12 -9,-24 2,-7 2,-2 -4,-11 -2,-4 -4,-8 -4,-14l-2 2c0,4 3,7 4,15 1,3 1,6 0,9 -1,3 -2,4 -3,6z"/>
   <path class="fil1" d="M399 625c2,-3 -1,-5 -2,-9 -1,-4 -1,-7 -2,-11l-3 5c-3,5 0,3 4,10 1,2 1,4 3,5z"/>
   <path class="fil1" d="M448 625c2,-1 2,-3 3,-5 5,-9 7,-4 1,-15 -1,2 -2,8 -2,11 -1,3 -4,6 -2,9z"/>
  </g>
 </g>
</svg>
