<?xml version="1.0" encoding="utf-8"?>
<!-- Generator: Adobe Illustrator 24.1.2, SVG Export Plug-In . SVG Version: 6.00 Build 0)  -->
<svg version="1.1" id="Layer_1" xmlns="http://www.w3.org/2000/svg" xmlns:xlink="http://www.w3.org/1999/xlink" x="0px" y="0px"
	 viewBox="0 0 900 300" style="enable-background:new 0 0 900 300;" xml:space="preserve">
<style type="text/css">
	.st0{fill:#020203;}
</style>
<g>
	<path class="st0" d="M14.94,27.49h38.4v152l59.2-63.68h49.28L95.9,185.57l70.08,83.84H115.1l-61.12-78.4h-0.64v78.4h-38.4V27.49z"
		/>
	<path class="st0" d="M179.1,192.61c0-12.16,2.19-23.2,6.56-33.12c4.37-9.92,10.29-18.4,17.76-25.44
		c7.47-7.04,16.32-12.48,26.56-16.32c10.24-3.84,21.12-5.76,32.64-5.76c11.52,0,22.4,1.92,32.64,5.76
		c10.24,3.84,19.09,9.28,26.56,16.32c7.47,7.04,13.38,15.52,17.76,25.44c4.37,9.92,6.56,20.96,6.56,33.12
		c0,12.16-2.19,23.2-6.56,33.12c-4.38,9.92-10.29,18.4-17.76,25.44c-7.47,7.04-16.32,12.48-26.56,16.32
		c-10.24,3.84-21.12,5.76-32.64,5.76c-11.52,0-22.4-1.92-32.64-5.76c-10.24-3.84-19.09-9.28-26.56-16.32
		c-7.47-7.04-13.39-15.52-17.76-25.44C181.28,215.81,179.1,204.77,179.1,192.61z M217.5,192.61c0,5.98,1.01,11.73,3.04,17.28
		c2.03,5.55,5.01,10.45,8.96,14.72c3.95,4.27,8.69,7.68,14.24,10.24c5.55,2.56,11.84,3.84,18.88,3.84c7.04,0,13.33-1.28,18.88-3.84
		c5.55-2.56,10.29-5.97,14.24-10.24c3.95-4.27,6.93-9.17,8.96-14.72c2.03-5.55,3.04-11.3,3.04-17.28c0-5.97-1.02-11.73-3.04-17.28
		c-2.03-5.55-5.01-10.45-8.96-14.72c-3.95-4.27-8.7-7.68-14.24-10.24c-5.55-2.56-11.84-3.84-18.88-3.84
		c-7.04,0-13.33,1.28-18.88,3.84c-5.55,2.56-10.3,5.98-14.24,10.24c-3.95,4.27-6.93,9.18-8.96,14.72
		C218.51,180.88,217.5,186.64,217.5,192.61z"/>
	<path class="st0" d="M381.97,115.81h38.4v24.32h0.64c4.27-8.96,10.35-15.89,18.24-20.8c7.89-4.9,16.96-7.36,27.2-7.36
		c2.34,0,4.64,0.22,6.88,0.64c2.24,0.43,4.53,0.96,6.88,1.6v37.12c-3.2-0.85-6.35-1.55-9.44-2.08c-3.09-0.53-6.13-0.8-9.12-0.8
		c-8.96,0-16.16,1.65-21.6,4.96c-5.44,3.31-9.6,7.1-12.48,11.36c-2.88,4.27-4.8,8.54-5.76,12.8c-0.96,4.27-1.44,7.47-1.44,9.6v82.24
		h-38.4V115.81z"/>
	<path class="st0" d="M506.46,27.49h38.4v107.84h0.96c1.92-2.56,4.37-5.17,7.36-7.84c2.99-2.66,6.61-5.17,10.88-7.52
		c4.27-2.34,9.17-4.26,14.72-5.76c5.54-1.49,11.94-2.24,19.2-2.24c10.88,0,20.9,2.08,30.08,6.24c9.17,4.16,17.01,9.87,23.52,17.12
		c6.5,7.25,11.57,15.79,15.2,25.6c3.63,9.81,5.44,20.38,5.44,31.68c0,11.31-1.71,21.87-5.12,31.68c-3.42,9.82-8.43,18.35-15.04,25.6
		c-6.62,7.25-14.62,12.96-24,17.12c-9.39,4.16-19.95,6.24-31.68,6.24c-10.88,0-21.02-2.14-30.4-6.4
		c-9.39-4.27-16.86-11.09-22.4-20.48h-0.64v23.04h-36.48V27.49z M633.82,192.61c0-5.97-1.01-11.73-3.04-17.28
		c-2.03-5.55-5.02-10.45-8.96-14.72c-3.95-4.27-8.69-7.68-14.24-10.24c-5.55-2.56-11.84-3.84-18.88-3.84
		c-7.04,0-13.33,1.28-18.88,3.84c-5.55,2.56-10.29,5.98-14.24,10.24c-3.95,4.27-6.94,9.18-8.96,14.72
		c-2.03,5.55-3.04,11.31-3.04,17.28c0,5.98,1.01,11.73,3.04,17.28c2.03,5.55,5.01,10.45,8.96,14.72c3.94,4.27,8.69,7.68,14.24,10.24
		c5.55,2.56,11.84,3.84,18.88,3.84c7.04,0,13.33-1.28,18.88-3.84c5.54-2.56,10.29-5.97,14.24-10.24c3.95-4.27,6.93-9.17,8.96-14.72
		C632.8,204.35,633.82,198.59,633.82,192.61z"/>
	<path class="st0" d="M703.26,63.65c0-6.19,2.29-11.57,6.88-16.16c4.58-4.58,10.4-6.88,17.44-6.88c7.04,0,12.96,2.19,17.76,6.56
		c4.8,4.38,7.2,9.87,7.2,16.48c0,6.61-2.4,12.11-7.2,16.48c-4.8,4.38-10.72,6.56-17.76,6.56c-7.04,0-12.85-2.29-17.44-6.88
		C705.55,75.22,703.26,69.84,703.26,63.65z M708.7,115.81h38.4v153.6h-38.4V115.81z"/>
	<path class="st0" d="M773.34,148.45v-32.64h31.68V71.33h38.4v44.48h42.24v32.64h-42.24v67.2c0,7.68,1.44,13.76,4.32,18.24
		c2.88,4.48,8.58,6.72,17.12,6.72c3.41,0,7.15-0.37,11.2-1.12c4.05-0.75,7.25-1.97,9.6-3.68v32.32c-4.05,1.92-9.02,3.25-14.88,4
		c-5.87,0.75-11.04,1.12-15.52,1.12c-10.24,0-18.62-1.12-25.12-3.36c-6.51-2.24-11.63-5.65-15.36-10.24
		c-3.74-4.59-6.3-10.29-7.68-17.12c-1.39-6.83-2.08-14.72-2.08-23.68v-70.4H773.34z"/>
</g>
</svg>
