<svg xmlns="http://www.w3.org/2000/svg" xmlns:xlink="http://www.w3.org/1999/xlink" width="512" height="510.375" viewBox="0 0 512 510.375">
  <defs>
    <linearGradient id="linear-gradient" x1="0.5" x2="0.5" y2="1" gradientUnits="objectBoundingBox">
      <stop offset="0" stop-color="#01f39d"/>
      <stop offset="0.431" stop-color="#005fde"/>
      <stop offset="1" stop-color="#dc1fff"/>
    </linearGradient>
    <clipPath id="clip-path">
      <rect id="Rectangle_108" data-name="Rectangle 108" width="512" height="510.375" transform="translate(0.235 0.407)" stroke="#707070" stroke-width="1" fill="url(#linear-gradient)"/>
    </clipPath>
  </defs>
  <g id="logo-primary" transform="translate(-0.235 -0.407)" clip-path="url(#clip-path)">
    <g id="Group_92" data-name="Group 92" transform="translate(8.382 -0.256)">
      <g id="Group_91" data-name="Group 91" transform="translate(0 0)">
        <path id="Subtraction_41" data-name="Subtraction 41" d="M365.814,511.7H119.408V492.168L138.335,449.6h9.625L163.9,419.727c.217.132,22.6,13.554,43.34,13.554a36.032,36.032,0,0,0,17.764-4.2,49.092,49.092,0,0,1-9.069.808c-16.676,0-34.543-7.5-41.9-12.827,7.1-8.6,34.212-42.135,35.362-43.558-1.039-.335-9.956-3.477-9.956-12.366,0-4.879,3.6-7.266,7.758-10.031,3.981-2.644,8.494-5.641,11-11.5,4.128-9.634,6.414-24.955-6.14-43.236-10.305-15-52.671-85.651-71.536-141.651,20.171,65.69,51.812,121.057,68.88,148.214-17.969-19.763-25.63-29.3-25.705-29.4l.026.061c.338,2.03,3.033,20.158-6.359,31.533-5.3,6.424-13.475,9.682-24.285,9.682a62.845,62.845,0,0,1-6.723-.38,26.53,26.53,0,0,0,24.038-17.279c5.169-13.329.539-28.852-12.386-41.523-24.458-23.991-62.971-53.289-93.916-76.83q-4.067-3.094-7.968-6.065C38.708,159.454,25.1,145.472,15.676,131.171,5.274,115.385,0,99.213,0,83.1,0,66.4,5.4,50.829,15.211,39.27a51.013,51.013,0,0,1,39.4-18.446c31.376,0,57.461,26.094,61.634,44.057C130.645,52.439,130.6,32.81,130.6,32.613h13.877L129.4,28.76c-.036-.137-3.724-13.9-13.156-23.878C141.45,1.852,160.509.018,160.694,0c-.044.1-5.158,12.539-5.158,54.12,0,25.907,3.762,114.953,52.163,173.1-12.293-43.251-19-75.526-22.435-107.913-3.449-32.5-3.941-68.178-1.643-119.305H301.087l.019.064c.529,2.816,5.162,28.642,4.864,67.614a491.043,491.043,0,0,1-5.954,72.364,476.087,476.087,0,0,1-22.269,87.176C325.536,151.241,337.689,93.907,325.894,0c25.955,2.018,44.328,4.853,44.51,4.882-.111.1-12.067,10.818-16.049,25.406-7.565,1.084-13.078,2.313-13.133,2.326l13.133,2.072c.007.153.911,15.4,14.983,30.188a61.112,61.112,0,0,1,21.532-29.754,64.781,64.781,0,0,1,39.343-12.991,53.828,53.828,0,0,1,39.531,16.941C480.3,50.248,486.12,65.81,486.12,82.888c0,17.318-6.3,34.144-19.266,51.44-11.71,15.623-28.71,31.378-51.97,48.165l-2,1.444c-21.841,15.755-46.6,33.612-66.093,51.529-22.592,20.76-33.575,37.5-33.575,51.183,0,19.227,17.584,25.7,25.605,25.7-1.1.955-4.469,1.968-9.234,1.968-3.994,0-11.653-.753-18.069-5.8-6.462-5.086-9.739-13-9.739-23.528,0-3.9.881-11.377.89-11.452l-26.135,30.909c.524-.8,54.923-84.73,69.317-150.962-15.227,46.345-42.4,99.8-78.574,154.592-1.47,7.93-5.2,34.383,8.543,41.709,5.33,2.844,8.488,6.833,8.892,11.232.4,4.351-1.932,8.782-6.566,12.478,9.2,12.716,33.467,44.08,33.711,44.4-1.779,1.134-18.116,10.871-50.313,11.191a106.958,106.958,0,0,0,18.48,1.631c25.3,0,41.633-9.388,41.8-9.483l16.272,28.215h11.122l16.6,44.234V511.7Zm5.964-422.735a411.19,411.19,0,0,1-21.859,97.054c-8.257,22.865-15.632,36.054-15.705,36.185.82-.653,87.537-69.583,111.172-99.39,14.689-18.527,18.846-45.432,9.885-63.974-4.6-9.521-14.658-20.871-36.434-20.871-13.233,0-23.021,3.944-29.093,11.721-11.431,14.643-5.721,38.171-5.662,38.407a17.4,17.4,0,0,1-7.426,1.742,13.626,13.626,0,0,1-4.878-.875Zm-303.566-51c-21.782,0-31.84,11.352-36.442,20.875-8.96,18.542-4.8,45.445,9.892,63.969C65,152.263,150.98,220.737,152.8,222.187a1.291,1.291,0,0,1-.073-.127,276.553,276.553,0,0,1-15.609-36.04,411.185,411.185,0,0,1-21.859-97.054,13.637,13.637,0,0,1-4.877.875,17.394,17.394,0,0,1-7.419-1.742c.06-.239,5.7-23.855-5.667-38.409C91.229,41.914,81.442,37.971,68.212,37.971Z" transform="translate(0 0)" fill="url(#linear-gradient)"/>
        <path id="Path_334" data-name="Path 334" d="M956.312,5164.193c5.682,6.551,15.394,13.219,15.394,13.219v-45.5l14.872,14.854v41.469a69.953,69.953,0,0,0,15.478,10.438v-58.067l-19.023-18.864,19.023-19.733v-27.871s-10.491.25-15.392,1.058v20.211l-14.958,14.772v-33.327a125.7,125.7,0,0,0-15.394,2.471Z" transform="translate(-757.406 -5022.079)" fill="#000a1e"/>
        <path id="Path_335" data-name="Path 335" d="M991.08,5198.677s-.073-94.582-.073-124.5a371.708,371.708,0,0,1,45.859,4.708V5106.2h-15.389V5094.55h-14.438v19.478h29.827V5129.5h-29.827v58.513C1001.868,5194.41,991.08,5198.677,991.08,5198.677Z" transform="translate(-739.903 -5022.114)" fill="#000a1e"/>
      </g>
    </g>
  </g>
</svg>
