<?xml version="1.0" encoding="utf-8"?>
<!-- Generator: Adobe Illustrator 25.4.1, SVG Export Plug-In . SVG Version: 6.00 Build 0)  -->
<svg version="1.1" id="Layer_1" xmlns="http://www.w3.org/2000/svg" xmlns:xlink="http://www.w3.org/1999/xlink" x="0px" y="0px"
	 viewBox="0 0 144 144" style="enable-background:new 0 0 144 144;" xml:space="preserve">
<style type="text/css">
	.st0{fill:#FFFFFF;}
</style>
<path class="st0" d="M41.6,20V8.3c0-1.1,0.9-1.9,1.9-1.9H54c1.1,0,1.9,0.9,1.9,1.9v0.9c0,1.1-0.9,1.9-1.9,1.9h-5.8
	c-1.1,0-1.9,0.9-1.9,1.9v2.3c0,1.1,0.9,1.9,1.9,1.9h10.7c1.1,0,2.4-0.7,3.1-1.5l6.8-8.9c0.6-0.8,1.9-1,2.7-0.4L72.3,7
	c0.8,0.6,1,1.9,0.4,2.7l-8.2,10.8c-0.6,0.8-2,1.5-3.1,1.5H43.5C42.5,21.9,41.6,21.1,41.6,20z M64.4,62.1c-0.6-0.8-2-1.5-3.1-1.5
	H43.5c-1.1,0-1.9,0.9-1.9,1.9v11.8c0,1.1,0.9,1.9,1.9,1.9H54c1.1,0,1.9-0.9,1.9-1.9v-0.9c0-1.1-0.9-1.9-1.9-1.9h-5.8
	c-1.1,0-1.9-0.9-1.9-1.9v-2.3c0-1.1,0.9-1.9,1.9-1.9h10.7c1.1,0,2.4,0.7,3.1,1.5l6.8,8.9c0.6,0.8,1.9,1,2.7,0.4l0.7-0.5
	c0.8-0.6,1-1.9,0.4-2.7L64.4,62.1z M79.6,44.7L79.6,44.7c-2.4-3.1-0.7-6-0.1-6.7l0.1-0.2h0l0,0l22.9-30.2c0.6-0.8,0.3-1.5-0.8-1.5
	H86.3c-1.1,0-2.5,0.7-3.1,1.5L67.5,26.8c-0.7,0.8-2.1,1.5-3.1,1.5H43.5c-1.1,0-1.9,0.9-1.9,1.9v0.9c0,1.1,0.9,1.9,1.9,1.9h23.2
	c1.1,0,2.5-0.7,3.1-1.5l15.6-19.2c0.7-0.8,2.1-1.5,3.1-1.5h3.6c1.1,0,1.4,0.7,0.8,1.5L74,37.3c-0.6,0.8-2,1.5-3.1,1.5H43.5
	c-1.1,0-1.9,0.9-1.9,1.9v0.9c0,1.1,0.9,1.9,1.9,1.9h27.4c1.1,0,2.4,0.7,3.1,1.5l18.9,25c0.6,0.8,0.3,1.5-0.8,1.5h-3.6
	c-1.1,0-2.5-0.7-3.1-1.5L69.8,51c-0.7-0.8-2.1-1.5-3.1-1.5H43.5c-1.1,0-1.9,0.9-1.9,1.9v0.9c0,1.1,0.9,1.9,1.9,1.9h20.9
	c1.1,0,2.5,0.7,3.1,1.5l15.6,19.2c0.7,0.8,2.1,1.5,3.1,1.5h15.4c1.1,0,1.4-0.7,0.8-1.5L79.6,44.7z M21.9,99.6
	c0.2-0.2,0.1-0.4-0.2-0.4h-2.9c-0.3,0-0.6,0.2-0.8,0.4l-3.7,5c-0.2,0.2-0.5,0.4-0.8,0.4h-1.2c-0.3,0-0.5-0.2-0.5-0.5v-4.8
	c0-0.3-0.2-0.5-0.5-0.5H9.2c-0.3,0-0.5,0.2-0.5,0.5v14.2c0,0.3,0.2,0.5,0.5,0.5h2.2c0.3,0,0.5-0.2,0.5-0.5v-5.3
	c0-0.3,0.2-0.5,0.5-0.5h1c0.3,0,0.6,0.2,0.8,0.4l4.3,5.6c0.2,0.2,0.5,0.4,0.8,0.4h2.9c0.3,0,0.4-0.2,0.2-0.4l-5.2-7
	c-0.2-0.2-0.2-0.6,0-0.8L21.9,99.6z M37.2,108.4c-0.3,0-0.4,0.2-0.2,0.4l3.6,5.2c0.2,0.2,0.1,0.4-0.2,0.4h-2.8
	c-0.3,0-0.6-0.2-0.8-0.4l-3.6-5.2c-0.2-0.2-0.5-0.4-0.8-0.4h-2.1c-0.3,0-0.5,0.2-0.5,0.5v5c0,0.3-0.2,0.5-0.5,0.5H27
	c-0.3,0-0.5-0.2-0.5-0.5V99.7c0-0.3,0.2-0.5,0.5-0.5h12.5c0.3,0,0.5,0.2,0.5,0.5v8.2c0,0.3-0.2,0.5-0.5,0.5H37.2z M30.3,102.2
	c-0.3,0-0.5,0.2-0.5,0.5v2.2c0,0.3,0.2,0.5,0.5,0.5h6c0.3,0,0.5-0.2,0.5-0.5v-2.2c0-0.3-0.2-0.5-0.5-0.5H30.3z M52.2,105.2
	c-0.2,0.2-0.4,0.2-0.6,0l-3.4-5.6c-0.2-0.2-0.5-0.5-0.8-0.5h-2.6c-0.3,0-0.4,0.2-0.2,0.5l5.4,8.7c0.2,0.2,0.3,0.7,0.3,1v4.6
	c0,0.3,0.2,0.5,0.5,0.5H53c0.3,0,0.5-0.2,0.5-0.5v-4.7c0-0.3,0.1-0.7,0.3-1l5.5-8.7c0.2-0.2,0.1-0.4-0.2-0.4h-2.6
	c-0.3,0-0.6,0.2-0.8,0.4L52.2,105.2z M63.1,99.7c0-0.3,0.2-0.5,0.5-0.5h12.3c0.3,0,0.5,0.2,0.5,0.5v8.6c0,0.3-0.2,0.5-0.5,0.5h-9
	c-0.3,0-0.5,0.2-0.5,0.5v4.5c0,0.3-0.2,0.5-0.5,0.5h-2.3c-0.3,0-0.5-0.2-0.5-0.5V99.7z M66.8,102.2c-0.3,0-0.5,0.2-0.5,0.5v2.6
	c0,0.3,0.2,0.5,0.5,0.5h5.8c0.3,0,0.5-0.2,0.5-0.5v-2.6c0-0.3-0.2-0.5-0.5-0.5H66.8z M81.4,113.9c0,0.3,0.2,0.5,0.5,0.5h2.3
	c0.3,0,0.5-0.2,0.5-0.5V99.7c0-0.3-0.2-0.5-0.5-0.5h-2.3c-0.3,0-0.5,0.2-0.5,0.5V113.9z M88.9,101.5c0,0.3,0.2,0.5,0.5,0.5h4.2
	c0.3,0,0.5,0.2,0.5,0.5v11.3c0,0.3,0.2,0.5,0.5,0.5h2.2c0.3,0,0.5-0.2,0.5-0.5v-11.3c0-0.3,0.2-0.5,0.5-0.5h4.2
	c0.3,0,0.5-0.2,0.5-0.5v-1.8c0-0.3-0.2-0.5-0.5-0.5H89.4c-0.3,0-0.5,0.2-0.5,0.5V101.5z M115.5,99.2c0.3,0,0.5,0.2,0.6,0.5L119,114
	c0.1,0.3-0.1,0.5-0.4,0.5h-2.2c-0.3,0-0.6-0.2-0.6-0.5l-1.1-5c-0.1-0.3-0.3-0.5-0.6-0.5h-4.9c-0.3,0-0.5,0.2-0.6,0.5l-1,5
	c-0.1,0.3-0.3,0.5-0.6,0.5h-2.2c-0.3,0-0.5-0.2-0.4-0.5l2.8-14.4c0.1-0.3,0.3-0.5,0.6-0.5H115.5z M113.5,102.8
	c-0.1-0.3-0.3-0.5-0.6-0.5h-2.6c-0.3,0-0.5,0.2-0.6,0.5l-0.4,2.1c-0.1,0.3,0.1,0.5,0.4,0.5h3.8c0.3,0,0.5-0.2,0.4-0.5L113.5,102.8z
	 M127.2,111.5c-0.3,0-0.5-0.2-0.5-0.5V99.7c0-0.3-0.2-0.5-0.5-0.5h-2.3c-0.3,0-0.5,0.2-0.5,0.5v14.2c0,0.3,0.2,0.5,0.5,0.5h11.4
	c0.3,0,0.5-0.2,0.5-0.5V112c0-0.3-0.2-0.5-0.5-0.5H127.2z M30.3,132.1v0.7h2.1v2c-0.6,0.8-1.5,1.2-2.7,1.2c-2.1-0.2-3.2-1.5-3.3-4.1
	c0.1-2.5,1.2-3.9,3.2-4.1c1.3,0,2.2,0.6,2.7,1.8l0.8-0.2c-0.4-1.5-1.6-2.2-3.4-2.2c-2.5,0.2-3.8,1.7-4,4.7c0.1,3,1.5,4.5,4.1,4.7
	c1.7,0,2.9-0.5,3.5-1.5v-2.9H30.3z M54.7,136.4h-1l-2.9-4.1h-2.5v4.1h-0.8v-9.1h3.8c1.8,0,2.8,0.9,2.8,2.5c0,1.6-0.8,2.4-2.5,2.5
	L54.7,136.4z M51.2,131.7c1.6,0,2.3-0.6,2.3-1.9c0-1.2-0.8-1.8-2.3-1.8h-2.8v3.7H51.2z M76.2,131.9c-0.1,3-1.4,4.5-4,4.6
	c-2.5-0.1-3.9-1.6-4-4.6c0.1-3,1.5-4.6,4.1-4.8C74.8,127.3,76.1,128.9,76.2,131.9z M75.4,131.9c-0.2-2.5-1.2-3.9-3.2-4.1
	c-2,0.2-3.1,1.6-3.2,4.1c0.1,2.5,1.2,3.9,3.1,4.1C74.3,135.9,75.4,134.5,75.4,131.9z M93.8,136.5c2.3,0,3.4-1.3,3.3-4v-5.3h-0.8v5.3
	c0,2.3-0.8,3.4-2.5,3.4c-1.7,0-2.6-1.1-2.5-3.4v-5.3h-0.8v5.3C90.5,135.3,91.6,136.6,93.8,136.5z M118.1,129.8c0,1.7-1,2.5-2.9,2.5
	h-2.6v4.2h-0.8v-9.1h3.5C117.1,127.4,118,128.2,118.1,129.8z M117.3,129.8c0-1.2-0.8-1.8-2.2-1.8h-2.5v3.6h2.5
	C116.6,131.7,117.3,131.1,117.3,129.8z"/>
</svg>
