<?xml version="1.0" standalone="no"?>
<!DOCTYPE svg PUBLIC "-//W3C//DTD SVG 20010904//EN"
 "http://www.w3.org/TR/2001/REC-SVG-20010904/DTD/svg10.dtd">
<svg version="1.0" xmlns="http://www.w3.org/2000/svg"
 width="312.000000pt" height="312.000000pt" viewBox="0 0 312.000000 312.000000"
 preserveAspectRatio="xMidYMid meet">

<g transform="translate(0.000000,312.000000) scale(0.100000,-0.100000)"
fill="#000000" stroke="none">
<path d="M0 1560 l0 -1560 1560 0 1560 0 0 1560 0 1560 -1560 0 -1560 0 0
-1560z m2155 1465 c14 -13 25 -36 25 -50 0 -33 -42 -75 -75 -75 -33 0 -75 42
-75 75 0 33 42 75 75 75 14 0 37 -11 50 -25z m40 -420 c30 -30 32 -64 4 -99
-41 -53 -129 -18 -129 51 0 32 42 73 75 73 14 0 37 -11 50 -25z m-1720 -320
c14 -13 25 -36 25 -50 0 -33 -42 -75 -75 -75 -33 0 -75 42 -75 75 0 14 11 37
25 50 13 14 36 25 50 25 14 0 37 -11 50 -25z m880 -148 c61 -22 135 -79 162
-125 21 -36 27 -59 27 -106 0 -51 -8 -137 -15 -156 -1 -3 -1 -9 0 -13 1 -5 -3
-6 -8 -3 -5 3 -11 -1 -14 -8 -3 -8 -3 -17 1 -19 4 -2 3 -3 -3 -2 -5 1 -23 -6
-40 -17 -85 -52 -116 -61 -193 -54 -41 3 -93 14 -115 24 -60 27 -120 97 -136
157 -7 28 -15 55 -16 62 -5 15 -79 26 -142 22 -48 -4 -49 -3 -45 21 7 40 21
50 60 45 21 -2 60 -6 87 -9 l50 -5 40 66 c73 122 179 164 300 120z m924 -334
c0 -25 -1 -26 -9 -8 -12 27 -12 35 0 35 6 0 10 -12 9 -27z m-59 7 c-8 -5 -26
-10 -39 -10 -15 0 -21 -5 -18 -13 4 -10 -3 -12 -24 -9 -16 2 -29 6 -29 8 0 5
92 32 110 33 13 1 13 0 0 -9z m-157 -37 c-13 -2 -33 -2 -45 0 -13 2 -3 4 22 4
25 0 35 -2 23 -4z m-105 -8 c-3 -3 -18 -8 -34 -11 -22 -3 -25 -2 -14 6 15 10
58 14 48 5z m-245 -12 c-29 -2 -77 -2 -105 0 -29 2 -6 3 52 3 58 0 81 -1 53
-3z m305 -50 c-10 -2 -26 -2 -35 0 -10 3 -2 5 17 5 19 0 27 -2 18 -5z m-355
-20 c-13 -2 -33 -2 -45 0 -13 2 -3 4 22 4 25 0 35 -2 23 -4z m204 1 c-3 -3
-12 -4 -19 -1 -8 3 -5 6 6 6 11 1 17 -2 13 -5z m720 -109 c59 -39 46 -142 -23
-171 -20 -8 -42 -13 -49 -10 -8 3 -16 33 -20 83 -4 43 -9 86 -11 95 -9 30 57
32 103 3z m-1907 -556 c0 -14 -17 -10 -23 5 -4 10 -1 13 9 9 7 -3 14 -9 14
-14z m15 -21 c-5 -38 -4 -41 8 -25 14 17 15 16 20 -3 3 -11 1 -18 -4 -14 -5 3
-9 -1 -9 -8 0 -7 13 -14 29 -15 23 -2 30 3 35 22 9 37 27 30 65 -26 47 -69
157 -169 228 -205 203 -106 570 -87 828 44 93 46 282 179 356 248 30 28 49 31
49 7 0 -22 -50 -109 -79 -140 -12 -12 -18 -29 -15 -38 5 -11 2 -14 -10 -9 -9
3 -16 1 -16 -5 0 -6 5 -11 11 -11 6 0 9 -9 6 -20 -6 -23 -3 -24 25 -9 15 8 19
8 14 0 -10 -16 3 -13 20 4 9 8 19 15 24 15 5 0 -2 -11 -16 -25 -15 -15 -31
-22 -42 -19 -12 4 -13 3 -4 -3 10 -8 10 -12 -2 -22 -12 -10 -16 -8 -21 9 -4
13 -12 19 -21 16 -7 -3 -16 -1 -19 4 -4 6 -11 10 -18 10 -6 0 -3 -6 7 -13 25
-18 13 -61 -15 -54 -24 6 -25 -8 -2 -18 10 -3 19 -1 21 4 2 6 10 11 19 11 10
0 12 6 8 20 -7 23 10 28 19 5 3 -10 -5 -25 -22 -40 -41 -38 -143 -115 -153
-116 -5 -1 -14 -2 -19 -3 -6 0 -14 -6 -18 -12 -10 -15 -124 -58 -227 -84 -72
-19 -118 -24 -230 -24 -77 -1 -149 3 -160 8 -11 5 -27 10 -35 11 -33 4 -126
28 -135 35 -5 4 -21 10 -35 13 -36 9 -201 108 -245 148 -81 73 -165 169 -165
188 0 5 -6 14 -12 18 -28 17 -75 116 -58 121 5 2 10 12 10 23 0 10 3 19 6 19
3 0 3 -19 -1 -42z m60 -28 c3 -5 2 -10 -4 -10 -5 0 -13 5 -16 10 -3 6 -2 10 4
10 5 0 13 -4 16 -10z m1547 -132 c-7 -7 -12 -8 -12 -2 0 14 12 26 19 19 2 -3
-1 -11 -7 -17z m-67 -18 c-3 -5 -12 -10 -18 -10 -7 0 -6 4 3 10 19 12 23 12
15 0z m-504 -459 c16 -16 29 -37 29 -46 0 -20 -53 -75 -73 -75 -21 0 -65 37
-72 61 -11 34 34 85 78 88 5 1 22 -12 38 -28z m827 -87 c12 -14 22 -32 22 -40
0 -21 -54 -74 -75 -74 -21 0 -75 54 -75 75 0 9 13 30 30 46 34 35 61 33 98 -7z"/>
<path d="M843 1943 c-23 -9 -14 -19 15 -17 45 4 48 5 27 14 -23 10 -26 10 -42
3z"/>
<path d="M760 868 c0 -9 7 -22 17 -29 15 -13 15 -12 3 11 -17 34 -20 36 -20
18z"/>
<path d="M780 876 c0 -2 8 -10 18 -17 15 -13 16 -12 3 4 -13 16 -21 21 -21 13z"/>
<path d="M2157 806 c-4 -10 1 -12 14 -9 23 6 24 9 5 16 -8 3 -17 0 -19 -7z"/>
<path d="M937 769 c7 -7 15 -10 18 -7 3 3 -2 9 -12 12 -14 6 -15 5 -6 -5z"/>
<path d="M2100 759 c0 -5 5 -7 10 -4 6 3 10 8 10 11 0 2 -4 4 -10 4 -5 0 -10
-5 -10 -11z"/>
<path d="M2130 750 c0 -5 5 -10 10 -10 6 0 10 5 10 10 0 6 -4 10 -10 10 -5 0
-10 -4 -10 -10z"/>
<path d="M2060 730 c-9 -6 -10 -10 -3 -10 6 0 15 5 18 10 8 12 4 12 -15 0z"/>
</g>
</svg>
