<?xml version="1.0" encoding="UTF-8"?>
<svg width="100px" height="100px" viewBox="0 0 100 100" version="1.1" xmlns="http://www.w3.org/2000/svg" xmlns:xlink="http://www.w3.org/1999/xlink">
    <title>kurobi</title>
    <g id="Page-1" stroke="none" stroke-width="1" fill="none" fill-rule="evenodd">
        <g id="kurobi" fill-rule="nonzero">
            <circle id="Oval" fill="#FBC118" transform="translate(50.000000, 50.000000) rotate(-89.646700) translate(-50.000000, -50.000000) " cx="50" cy="50" r="49.6945379"></circle>
            <path d="M25.8745373,19.140625 C26.7505037,19.6213393 27.8570584,21.0202047 28.5806719,21.7438182 C29.3506297,22.5137762 30.2955457,23.6120536 31.1334029,24.4509612 C32.3830248,25.6995747 33.7047054,27.0222637 35.0655037,28.3820116 C35.4391592,28.7566754 36.0495373,29.5678098 36.443781,29.607936 C36.9862179,29.6625157 38.001176,28.7989024 38.588907,28.4839024 C40.6733187,27.368104 43.3021424,26.5662553 45.9424785,26.1349528 C49.8798734,25.4936922 54.0496213,25.9188182 57.3802935,26.900793 C64.0000416,28.8534401 68.4336549,32.9234401 71.7798734,38.3387762 C72.881134,41.0356671 74.0949996,43.7592805 74.5374365,47.1727258 C74.981134,50.5849108 74.6920584,54.4046587 74.6920584,58.2542385 C74.6920584,60.1626419 74.6403777,62.0895325 74.6403777,64.0239864 C74.6403777,67.8622217 74.5891172,71.6017174 74.5891172,75.3097006 C74.5891172,77.2012973 74.5971004,79.0727258 74.3853357,80.8752469 C73.7428986,80.7424737 73.3823945,80.1269276 72.9555037,79.6996167 C70.4336549,77.1786083 67.9857558,74.5365915 65.2962599,72.0412131 C64.9080248,71.6811292 64.4302935,70.8584401 63.9681088,70.8155831 C63.4349154,70.7660032 62.3563441,71.6634821 61.926092,71.8878518 C59.9105457,72.942894 57.5895373,73.7550788 55.0840752,74.2370116 C51.5319742,74.9185241 47.4513019,74.8886922 44.053823,74.0844905 C38.4746635,72.763062 33.9898314,69.5945747 30.828739,65.7605409 C30.3727306,65.2075999 30.0330668,64.5559192 29.6028146,63.9218854 C27.8755877,61.3786083 26.6897894,58.8626419 25.926008,55.2920536 C25.218865,51.9786083 25.4154617,47.7542385 25.4164701,43.5996167 C25.4175205,37.613104 25.6202935,31.4422217 25.6202935,25.3186922 C25.6202935,23.3300368 25.6697054,21.1447426 25.7726465,19.2929779 C25.7695373,19.2065074 25.8097054,19.1622216 25.8745373,19.140625 Z M50.738697,38.6370956 C44.6366931,38.6370956 39.6900416,43.5837471 39.6900416,49.685751 C39.6900416,55.787755 44.6366931,60.7344065 50.738697,60.7344065 C56.840701,60.7344065 61.7873525,55.787755 61.7873525,49.685751 C61.7873525,43.5837471 56.840701,38.6370956 50.738697,38.6370956 Z" id="Combined-Shape" fill="#121212"></path>
        </g>
    </g>
</svg>