<?xml version="1.0" standalone="no"?>
<!DOCTYPE svg PUBLIC "-//W3C//DTD SVG 20010904//EN"
        "http://www.w3.org/TR/2001/REC-SVG-20010904/DTD/svg10.dtd">
<svg version="1.0" xmlns="http://www.w3.org/2000/svg"
     width="1362.000000pt" height="1371.000000pt" viewBox="0 0 1362.000000 1371.000000"
     preserveAspectRatio="xMidYMid meet">

    <g transform="translate(0.000000,1371.000000) scale(0.100000,-0.100000)"
       fill="#000000" stroke="none">
        <path d="M6420 12974 c-564 -49 -899 -110 -1353 -245 -1002 -298 -1948 -887
-2665 -1658 -1252 -1347 -1817 -3149 -1561 -4979 108 -771 387 -1559 792
-2233 1272 -2116 3668 -3239 6107 -2863 2372 366 4303 2115 4911 4449 76 293
141 676 169 1000 6 66 13 239 17 385 16 744 -104 1487 -352 2170 -723 1992
-2430 3461 -4495 3869 -408 81 -638 103 -1125 106 -220 1 -420 1 -445 -1z
m510 -481 c257 -62 468 -267 540 -524 40 -146 36 -290 -12 -441 -12 -37 -20
-69 -17 -71 5 -5 243 -193 804 -637 808 -640 2023 -1604 2740 -2175 187 -149
357 -283 377 -299 l37 -28 73 45 c409 252 940 67 1099 -384 147 -415 -90 -858
-522 -975 -96 -26 -271 -24 -372 4 -84 24 -176 67 -246 115 -35 24 -48 28 -61
19 -10 -6 -240 -187 -511 -403 -272 -216 -1072 -852 -1779 -1412 -707 -561
-1294 -1028 -1304 -1038 -19 -18 -19 -19 16 -96 86 -188 113 -330 105 -551 -7
-225 -61 -395 -182 -584 -52 -79 -179 -216 -261 -279 l-51 -39 -54 35 c-32 21
-61 33 -71 29 -9 -3 -32 3 -50 12 -18 9 -48 19 -68 21 -19 3 -40 9 -46 14 -6
5 -13 6 -16 3 -3 -3 -25 4 -49 14 -28 12 -91 24 -169 32 -69 7 -132 16 -142
21 -9 5 -38 10 -65 11 -26 0 -62 7 -80 14 -45 19 -198 27 -258 14 -27 -6 -67
-15 -87 -19 -21 -5 -44 -13 -51 -20 -8 -6 -17 -8 -20 -4 -4 3 -7 1 -7 -5 0 -6
-19 -16 -42 -23 -24 -6 -52 -21 -64 -32 -55 -55 -50 -55 -126 19 -223 221
-340 497 -341 809 0 187 42 374 118 526 l23 45 -176 140 c-97 78 -519 412
-937 744 -801 636 -1269 1007 -2013 1598 l-453 360 -82 -39 c-45 -21 -111 -46
-147 -56 -88 -23 -271 -23 -359 1 -248 67 -439 242 -522 477 -147 415 90 858
522 975 43 11 102 17 179 18 136 0 232 -23 349 -84 43 -23 79 -36 85 -31 6 4
155 122 331 262 1213 965 1580 1256 3337 2646 114 91 210 168 213 173 3 5 -6
44 -21 86 -41 122 -51 239 -31 357 75 439 487 713 917 610z m0 -10525 l0 -578
-175 0 -175 0 0 578 0 577 175 0 175 0 0 -577z"/>
        <path d="M6671 12219 c-237 -41 -413 -287 -372 -520 43 -250 280 -422 522
-381 39 7 96 24 127 39 75 35 180 140 215 214 98 209 27 456 -167 581 -95 61
-216 86 -325 67z"/>
        <path d="M7155 11140 c-50 -34 -132 -71 -207 -94 -17 -5 -18 -162 -18 -3110
l0 -3104 48 -7 c135 -19 332 -109 471 -213 l83 -63 42 34 c22 18 541 429 1151
913 611 484 1412 1119 1781 1411 l671 532 -19 58 c-48 142 -47 325 3 476 12
37 20 69 18 71 -2 2 -200 158 -439 347 -417 329 -2019 1599 -2605 2065 -776
618 -910 724 -915 724 -3 0 -32 -18 -65 -40z"/>
        <path d="M6190 11087 c-891 -709 -2411 -1915 -3375 -2677 -121 -96 -262 -207
-312 -247 l-93 -74 25 -56 c46 -103 59 -169 59 -303 0 -138 -15 -210 -64 -314
-23 -47 -27 -63 -17 -72 7 -6 282 -225 612 -486 330 -261 1091 -863 1690
-1338 1302 -1032 1217 -965 1232 -974 7 -4 36 12 70 40 79 65 152 110 248 155
84 40 240 89 281 89 l24 0 0 1828 c0 1006 3 2403 7 3104 l6 1276 -34 10 c-65
18 -140 52 -195 87 -30 19 -56 35 -57 35 -2 0 -50 -37 -107 -83z"/>
        <path d="M1660 8179 c-177 -35 -330 -197 -360 -382 -47 -295 224 -567 517
-519 252 42 427 279 385 523 -25 147 -116 270 -246 334 -104 51 -192 64 -296
44z"/>
        <path d="M11800 8183 c-250 -42 -424 -281 -382 -525 45 -260 292 -430 545
-374 291 65 444 380 315 646 -85 175 -292 284 -478 253z"/>
    </g>
</svg>
