<svg width="100" height="100" viewBox="0 0 100 100" fill="none" xmlns="http://www.w3.org/2000/svg">
<path d="M74.385 14H41V59H85.997V25.6129C86.1423 19.2258 80.9168 14 74.385 14C74.5301 14 74.5301 14 74.385 14Z" fill="black"/>
<path d="M30 14H24.3332C18.1 14 13 19.1 13 25.3334V31H30V14Z" fill="black"/>
<path d="M13 42H30V59H13V42Z" fill="black"/>
<path d="M68.5845 86.85H74.3896C80.7754 86.85 86 81.45 86 74.8499V69.15H68.5845V86.85ZM40.8648 69H58.1351V87H40.8648V69ZM13 69V74.9999C13 81.6 18.2246 87 24.6102 87H30.4155V69H13Z" fill="black"/>
</svg>
