<?xml version="1.0" standalone="no"?>
<!DOCTYPE svg PUBLIC "-//W3C//DTD SVG 20010904//EN"
 "http://www.w3.org/TR/2001/REC-SVG-20010904/DTD/svg10.dtd">
<svg version="1.0" xmlns="http://www.w3.org/2000/svg"
 width="628.000000pt" height="581.000000pt" viewBox="0 0 628.000000 581.000000"
 preserveAspectRatio="xMidYMid meet">

<g transform="translate(0.000000,581.000000) scale(0.100000,-0.100000)"
fill="#000000" stroke="none">
<path d="M3145 5791 c-111 -51 -369 -280 -662 -589 -334 -353 -624 -675 -1338
-1492 -705 -806 -970 -1099 -1086 -1200 l-59 -51 0 -90 c0 -78 2 -89 18 -89 9
-1 68 -7 130 -14 104 -13 124 -19 239 -72 l125 -59 -6 -230 c-3 -126 -11 -349
-17 -495 -14 -334 -6 -854 15 -1007 17 -120 39 -225 57 -270 6 -16 14 -50 18
-78 l6 -50 2534 -3 c1853 -1 2538 1 2547 9 22 18 71 186 88 299 36 251 47 740
26 1285 -5 138 -10 315 -12 395 l-3 144 58 25 c56 24 58 24 91 6 30 -16 40
-17 96 -6 48 10 68 19 86 41 14 15 58 45 99 67 l75 38 0 88 c0 48 -4 87 -8 87
-14 0 -268 243 -429 410 -409 427 -873 945 -2050 2285 -571 651 -557 635 -580
635 -10 0 -36 -9 -58 -19z m-1115 -1816 c-12 -156 -11 -183 3 -257 16 -83 58
-178 102 -232 l23 -29 54 54 c66 66 88 120 95 242 3 48 9 87 12 87 4 0 32 -22
64 -48 119 -101 211 -245 248 -390 23 -90 24 -142 4 -209 -21 -70 -67 -126
-185 -222 -101 -83 -102 -84 -95 -120 6 -33 69 -141 84 -141 3 0 60 -9 126
-20 177 -29 190 -28 213 18 25 49 48 123 63 199 l12 63 58 21 c66 24 64 19 48
136 -31 228 -119 470 -225 619 -74 105 -145 157 -286 209 -144 54 -162 73
-112 120 40 37 86 33 180 -15 96 -48 221 -154 304 -256 133 -165 232 -457 262
-766 12 -122 13 -128 35 -128 24 0 24 -3 44 155 30 240 83 433 159 586 55 109
90 160 164 238 79 82 159 136 265 178 103 40 133 42 160 7 39 -50 36 -52 -149
-128 -140 -57 -267 -183 -345 -343 -65 -134 -124 -346 -141 -511 l-7 -59 61
-42 61 -41 7 -80 c6 -76 9 -82 57 -145 33 -43 55 -64 66 -61 9 3 41 7 71 11
160 18 214 39 278 109 l43 47 -23 41 c-13 22 -48 62 -78 87 -161 135 -195 184
-207 307 -16 155 101 397 248 514 63 50 79 51 79 5 0 -98 42 -202 113 -280
l44 -49 41 52 c70 89 102 200 102 357 0 83 -20 237 -36 279 -15 39 37 10 138
-77 119 -103 162 -153 207 -243 75 -152 107 -302 98 -459 -8 -122 -32 -211
-93 -335 -39 -78 -62 -110 -128 -175 -94 -94 -152 -127 -361 -205 -213 -80
-338 -142 -423 -208 l-23 -18 14 -100 c18 -122 11 -180 -38 -282 l-35 -75 70
7 c146 13 220 75 320 267 36 68 78 138 93 156 25 28 31 31 60 22 43 -12 77
-52 77 -92 -1 -77 -121 -282 -208 -356 -27 -22 -84 -61 -128 -87 -119 -70
-138 -85 -122 -95 7 -5 41 -9 75 -9 73 0 134 21 302 104 63 31 124 56 136 56
15 0 31 -13 49 -41 l27 -41 -25 -39 c-67 -100 -240 -177 -469 -208 -43 -6 -97
-11 -119 -11 -40 0 -41 0 -23 -20 40 -44 181 -58 351 -36 139 19 177 15 193
-20 29 -64 5 -113 -66 -141 -63 -24 -276 -22 -455 4 -71 11 -128 16 -128 11 0
-22 71 -82 133 -113 70 -34 119 -45 279 -61 36 -3 67 -13 84 -26 22 -18 25
-27 21 -60 -3 -21 -11 -45 -17 -53 -31 -37 -172 -47 -268 -20 -69 21 -107 39
-245 122 -60 36 -110 63 -113 60 -3 -3 -13 -45 -23 -93 -10 -49 -36 -127 -57
-173 l-38 -84 131 -126 c91 -88 139 -142 157 -178 30 -59 56 -160 56 -215 l0
-38 -525 0 -525 0 0 23 c1 67 24 169 50 224 29 59 77 112 237 259 l42 39 -60
165 c-33 91 -64 169 -69 174 -5 5 -46 -11 -97 -38 -203 -108 -254 -129 -324
-134 -77 -5 -149 3 -172 21 -9 7 -20 36 -25 66 l-10 53 32 13 c18 8 73 19 122
25 110 14 196 36 246 61 38 19 135 105 127 113 -2 2 -62 -5 -134 -16 -74 -11
-192 -20 -275 -21 -127 -1 -151 1 -190 19 -25 12 -52 29 -60 39 -21 25 -17 95
6 112 22 16 140 17 287 2 79 -8 123 -9 162 -1 59 12 111 40 98 53 -4 4 -57 15
-118 24 -303 47 -385 74 -462 150 -67 68 -74 93 -36 139 15 20 37 36 48 36 11
0 80 -29 155 -64 167 -80 216 -96 285 -96 92 0 94 8 13 60 -275 176 -423 379
-389 532 5 22 11 41 13 42 1 2 22 6 46 9 56 7 71 -9 157 -174 79 -151 126
-208 199 -244 53 -26 203 -49 195 -29 -2 5 -26 52 -53 104 l-49 95 12 68 c6
37 11 94 11 127 l0 60 -77 51 c-101 66 -202 113 -393 184 -173 64 -235 96
-303 155 -91 80 -174 224 -224 386 -23 77 -27 107 -27 224 0 126 2 141 30 222
49 138 110 226 261 377 74 73 137 131 140 127 3 -3 0 -85 -7 -181z"/>
</g>
</svg>
