<?xml version="1.0" standalone="no"?>
<!DOCTYPE svg PUBLIC "-//W3C//DTD SVG 20010904//EN"
 "http://www.w3.org/TR/2001/REC-SVG-20010904/DTD/svg10.dtd">
<svg version="1.0" xmlns="http://www.w3.org/2000/svg"
 width="300.000000pt" height="278.000000pt" viewBox="0 0 300.000000 278.000000"
 preserveAspectRatio="xMidYMid meet">
<metadata>
Created by potrace 1.10, written by Peter Selinger 2001-2011
</metadata>
<g transform="translate(0.000000,278.000000) scale(0.100000,-0.100000)"
fill="#000000" stroke="none">
<path d="M1483 2759 c-104 -51 -394 -359 -1063 -1129 -107 -124 -246 -277
-307 -341 -62 -64 -113 -119 -113 -123 0 -16 22 -2 67 42 53 51 239 254 335
365 20 23 72 83 115 132 43 50 90 104 104 120 15 17 80 91 144 165 65 74 137
155 159 180 331 367 523 555 587 575 24 8 26 6 183 -175 65 -74 130 -148 145
-165 15 -16 85 -97 155 -178 70 -81 138 -158 149 -171 12 -12 54 -58 92 -101
39 -43 95 -107 125 -140 30 -34 73 -81 94 -106 183 -208 364 -398 506 -530 18
-17 17 -69 -1 -69 -5 0 -28 -12 -51 -27 -32 -22 -53 -28 -95 -28 -83 0 -86 -9
-79 -180 10 -218 8 -613 -3 -690 -6 -39 -16 -90 -24 -115 l-13 -45 -1195 -3
-1196 -2 -16 60 c-26 92 -32 183 -31 449 1 194 4 245 15 252 10 6 10 9 2 9
-10 0 -11 26 -8 107 3 59 3 115 0 124 -3 10 -36 32 -73 49 -65 31 -87 36 -144
39 -22 1 -28 6 -28 23 0 26 -5 21 -14 -14 -6 -26 -5 -26 55 -33 34 -4 91 -21
126 -38 l65 -30 -6 -45 c-3 -25 -9 -186 -12 -356 -7 -321 -1 -423 33 -551 l16
-60 1213 0 1214 0 15 45 c39 120 51 356 36 710 -7 170 -7 258 0 265 6 6 39 10
75 10 49 0 68 4 74 16 5 8 26 23 47 33 35 15 38 20 37 55 -1 34 -12 48 -126
162 -172 171 -397 419 -852 939 -380 435 -475 540 -486 540 -3 0 -24 -9 -47
-21z"/>
<path d="M928 1983 c-18 -16 -44 -41 -57 -57 -14 -15 -30 -34 -37 -40 -20 -21
-74 -122 -74 -139 0 -9 -3 -17 -8 -17 -14 0 -13 -121 2 -180 35 -135 99 -221
201 -269 36 -17 70 -31 76 -31 16 0 138 -58 170 -81 23 -16 29 -28 29 -58 0
-20 -6 -43 -12 -50 -10 -11 -10 -13 0 -7 8 5 12 -2 12 -23 0 -16 5 -33 10 -36
15 -9 12 -25 -5 -25 -26 0 -74 53 -118 130 -37 66 -46 75 -73 78 -99 10 -81
-132 31 -237 30 -28 51 -51 47 -51 -4 0 -29 11 -56 25 -75 38 -110 42 -130 14
-9 -13 -16 -34 -16 -47 0 -29 61 -89 104 -101 l31 -9 -30 -1 c-43 -2 -77 -34
-73 -67 4 -38 42 -62 118 -76 65 -12 65 -12 27 -18 -52 -9 -80 -38 -71 -74 12
-51 88 -74 157 -47 15 6 27 8 27 6 0 -2 23 9 50 25 28 17 55 30 61 30 11 0 49
-83 49 -109 0 -9 -19 -35 -42 -58 -24 -22 -50 -49 -59 -60 -39 -48 -52 -150
-23 -174 20 -17 491 -14 511 3 17 14 16 55 -3 110 -10 32 -35 66 -76 107 l-61
61 12 42 c7 23 17 52 22 65 l8 23 68 -37 c59 -33 77 -38 134 -38 52 0 72 4 88
19 46 42 7 106 -65 106 -21 0 -46 5 -54 10 -10 7 10 10 65 10 85 0 114 11 136
51 23 44 -26 99 -81 91 -8 -1 3 7 25 18 47 24 91 65 98 90 2 10 -6 30 -18 46
-24 31 -36 30 -127 -10 -21 -9 -38 -14 -38 -12 0 2 16 20 35 40 45 47 85 126
85 170 0 27 -6 38 -32 54 -43 27 -58 18 -105 -66 -47 -83 -77 -119 -109 -125
-21 -4 -24 -2 -17 17 4 11 8 52 8 90 0 66 1 69 33 91 18 12 88 44 155 70 98
38 131 57 170 94 172 163 166 444 -11 608 -65 60 -88 71 -108 51 -12 -12 -13
-24 -3 -68 14 -66 7 -155 -17 -205 l-18 -38 -23 29 c-13 16 -26 46 -29 66 -4
21 -12 45 -18 54 -11 15 -15 15 -42 1 -105 -55 -176 -242 -129 -341 10 -20 40
-56 66 -78 54 -45 61 -71 27 -90 -24 -12 -27 -13 -90 -21 -45 -6 -62 11 -73
68 -3 22 -18 52 -32 67 -22 23 -24 33 -20 70 16 121 74 256 128 300 16 13 59
39 96 58 84 44 95 61 64 94 -13 13 -30 23 -40 21 -31 -6 -106 -39 -142 -62
-77 -50 -155 -181 -185 -310 -10 -40 -21 -73 -25 -73 -4 0 -10 19 -14 43 -8
47 -34 120 -68 187 -50 99 -186 210 -260 210 -25 0 -67 -30 -67 -47 1 -16 40
-54 58 -58 79 -15 151 -78 193 -170 50 -112 76 -255 45 -255 -20 0 -37 -24
-43 -62 -3 -18 -12 -46 -20 -61 -13 -26 -18 -28 -51 -23 -80 14 -90 18 -102
41 -12 22 -9 27 53 87 79 76 89 109 63 208 -18 69 -74 152 -132 197 -29 22
-33 23 -48 8 -9 -9 -16 -32 -16 -51 0 -19 -7 -49 -16 -65 -39 -75 -80 14 -71
156 5 85 -2 125 -23 125 -5 0 -23 -12 -42 -27z m47 -22 c-3 -17 -7 -67 -7
-113 0 -71 3 -91 26 -136 14 -29 30 -52 34 -52 14 0 59 53 67 77 3 13 6 41 7
63 0 22 4 40 8 40 17 0 104 -108 127 -157 29 -63 33 -135 10 -180 -10 -18 -42
-51 -72 -75 -46 -36 -54 -47 -49 -68 10 -48 43 -69 121 -76 l73 -7 14 34 c8
19 17 51 21 72 6 31 14 41 36 49 16 5 29 16 29 24 0 40 -35 177 -61 240 -42
101 -87 150 -179 191 -41 19 -77 36 -79 39 -2 2 2 10 9 19 48 58 220 -68 286
-210 42 -89 64 -170 71 -267 4 -56 10 -78 19 -78 8 0 14 3 14 6 0 4 7 52 16
108 29 181 85 301 180 385 56 49 144 82 168 61 9 -7 16 -16 16 -20 0 -4 -29
-19 -64 -34 -35 -15 -82 -43 -105 -62 -65 -56 -123 -191 -146 -340 -6 -38 -4
-43 24 -64 23 -16 31 -29 31 -53 0 -17 12 -48 26 -68 23 -34 29 -37 62 -32 76
11 109 24 137 53 l30 31 -72 69 c-54 52 -74 78 -79 105 -9 50 2 108 32 166 25
50 95 129 114 129 6 0 10 -16 10 -35 0 -39 28 -103 55 -125 15 -13 20 -11 40
14 35 44 48 105 43 193 -3 43 -9 86 -13 96 -5 12 -3 17 8 17 8 0 17 -3 19 -7
2 -5 23 -26 48 -47 57 -51 87 -93 110 -160 40 -117 34 -212 -20 -323 -40 -81
-101 -134 -193 -168 -99 -37 -208 -88 -234 -111 -20 -17 -21 -23 -12 -69 10
-51 1 -97 -27 -142 -14 -22 -13 -23 14 -23 15 0 48 10 72 23 36 18 51 36 92
110 27 48 54 87 59 87 6 0 19 -5 30 -10 61 -33 -35 -190 -159 -260 -99 -56 1
-56 117 0 45 22 87 40 92 40 5 0 15 -11 21 -25 9 -21 8 -28 -8 -46 -42 -47
-164 -89 -257 -89 -39 0 -40 -1 -24 -17 15 -15 35 -18 137 -16 113 2 119 1
126 -19 4 -14 -1 -27 -15 -42 -19 -19 -32 -21 -119 -20 -53 1 -116 6 -139 12
-48 11 -53 5 -20 -25 36 -33 62 -43 138 -52 81 -11 94 -19 85 -55 -14 -56
-121 -45 -238 25 -36 21 -68 39 -71 39 -2 0 -7 -20 -9 -45 -3 -24 -14 -62 -25
-84 l-20 -40 63 -62 c69 -69 90 -103 100 -167 l7 -42 -252 0 -251 0 0 38 c1
58 32 113 97 172 l59 53 -30 81 c-16 45 -31 82 -32 84 -1 1 -44 -18 -95 -43
-81 -40 -101 -46 -142 -42 -56 5 -54 4 -59 42 -3 29 -1 30 47 38 97 16 150 36
181 68 20 22 23 30 11 26 -37 -14 -202 -29 -242 -22 -51 7 -80 34 -70 66 7 21
10 22 110 16 97 -6 165 3 165 22 0 4 -41 13 -92 20 -101 13 -163 36 -196 72
-26 27 -28 52 -7 69 13 11 31 6 104 -29 118 -54 217 -58 123 -4 -104 59 -187
167 -180 235 3 29 6 33 32 33 26 0 34 -7 59 -55 15 -30 38 -70 49 -88 23 -37
86 -71 131 -72 l28 0 -26 44 c-24 41 -26 52 -20 113 l6 68 -55 32 c-30 17 -97
48 -148 68 -167 66 -193 86 -244 188 -60 117 -62 246 -7 350 27 50 149 187
166 187 5 0 6 -13 2 -29z m830 -1331 c3 -6 -1 -7 -9 -4 -18 7 -21 14 -7 14 6
0 13 -4 16 -10z m-632 -7 c-7 -2 -19 -2 -25 0 -7 3 -2 5 12 5 14 0 19 -2 13
-5z"/>
</g>
</svg>
