<svg xmlns="http://www.w3.org/2000/svg" xmlns:xlink="http://www.w3.org/1999/xlink" viewBox="0 0 1098.83 1118.28"><defs><style>.cls-1{fill:#00172d;}.cls-2{fill:url(#New_Gradient_Swatch_1);}.cls-3{fill:url(#New_Gradient_Swatch_1-2);}.cls-4{fill:url(#New_Gradient_Swatch_1-3);}.cls-5{fill:url(#New_Gradient_Swatch_1-4);}.cls-6{fill:url(#New_Gradient_Swatch_1-5);}.cls-7{fill:url(#New_Gradient_Swatch_1-6);}.cls-8{fill:url(#New_Gradient_Swatch_1-7);}.cls-9{fill:url(#New_Gradient_Swatch_1-8);}.cls-10{fill:url(#New_Gradient_Swatch_1-9);}.cls-11{fill:url(#New_Gradient_Swatch_1-10);}.cls-12{fill:url(#New_Gradient_Swatch_1-11);}</style><linearGradient id="New_Gradient_Swatch_1" x1="242.17" y1="860.59" x2="856.46" y2="850.6" gradientUnits="userSpaceOnUse"><stop offset="0" stop-color="#56ccf2"/><stop offset="1" stop-color="#2f80ed"/></linearGradient><linearGradient id="New_Gradient_Swatch_1-2" x1="242.19" y1="862.18" x2="856.48" y2="852.19" xlink:href="#New_Gradient_Swatch_1"/><linearGradient id="New_Gradient_Swatch_1-3" x1="242.2" y1="862.81" x2="856.49" y2="852.82" xlink:href="#New_Gradient_Swatch_1"/><linearGradient id="New_Gradient_Swatch_1-4" x1="242.22" y1="864.18" x2="856.51" y2="854.19" xlink:href="#New_Gradient_Swatch_1"/><linearGradient id="New_Gradient_Swatch_1-5" x1="242.24" y1="865.43" x2="856.53" y2="855.45" xlink:href="#New_Gradient_Swatch_1"/><linearGradient id="New_Gradient_Swatch_1-6" x1="242.26" y1="866.49" x2="856.55" y2="856.5" xlink:href="#New_Gradient_Swatch_1"/><linearGradient id="New_Gradient_Swatch_1-7" x1="242.28" y1="867.32" x2="856.56" y2="857.33" xlink:href="#New_Gradient_Swatch_1"/><linearGradient id="New_Gradient_Swatch_1-8" x1="242.29" y1="868.37" x2="856.58" y2="858.38" xlink:href="#New_Gradient_Swatch_1"/><linearGradient id="New_Gradient_Swatch_1-9" x1="242.31" y1="869.19" x2="856.6" y2="859.2" xlink:href="#New_Gradient_Swatch_1"/><linearGradient id="New_Gradient_Swatch_1-10" x1="559.42" y1="490.18" x2="806.73" y2="490.18" xlink:href="#New_Gradient_Swatch_1"/><linearGradient id="New_Gradient_Swatch_1-11" x1="292.1" y1="452.25" x2="715.22" y2="452.25" xlink:href="#New_Gradient_Swatch_1"/></defs><g id="Layer_2" data-name="Layer 2"><g id="Layer_1-2" data-name="Layer 1"><rect class="cls-1" width="1098.83" height="1118.28"/><path class="cls-2" d="M249.41,797.49h19.66V904.73h32.35V922.6h-52Z"/><path class="cls-3" d="M328.77,797.49V894c0,8.94,3.93,12.16,10.19,12.16s10.18-3.22,10.18-12.16V797.49h18.59v95.26c0,20-10,31.46-29.31,31.46s-29.31-11.44-29.31-31.46V797.49Z"/><path class="cls-4" d="M398.65,832V922.6H381V797.49h24.66l20.2,74.89V797.49h17.52V922.6h-20.2Z"/><path class="cls-5" d="M521.08,922.6H501.24l-3.39-22.7H473.72l-3.4,22.7H452.27l20-125.11h28.77Zm-44.86-39.68h18.95l-9.48-63.27Z"/><path class="cls-6" d="M576.31,881.13l-24.84-83.64H572l15,57,15-57h18.77L596,881.13V922.6H576.31Z"/><path class="cls-7" d="M628.68,797.49h19.66V922.6H628.68Z"/><path class="cls-8" d="M682.3,850.22h27v17.87h-27v36.64h34V922.6H662.64V797.49h53.62v17.87h-34Z"/><path class="cls-9" d="M728.41,797.49h19.66V904.73h32.35V922.6h-52Z"/><path class="cls-10" d="M789,797.49h31.1c19.66,0,29.31,10.9,29.31,30.92v63.27c0,20-9.65,30.92-29.31,30.92H789Zm19.66,17.87v89.37h11.08c6.26,0,10-3.22,10-12.16V827.52c0-8.94-3.75-12.16-10-12.16Z"/><path class="cls-11" d="M806.73,490.16a122.72,122.72,0,0,1-1.56,19.66.75.75,0,0,1-.08.32A123.8,123.8,0,0,1,796,540.78c0,.08-.08.2-.12.28a123.77,123.77,0,1,1,10.89-50.9Z"/><path class="cls-12" d="M715.22,653.52a258.66,258.66,0,0,1-163.28,57.75,267.61,267.61,0,0,1-29-1.6c-129.84-14.46-230.8-124.52-230.8-258.2s101-243.78,230.8-258.24V482A172.69,172.69,0,0,0,695.59,654.64,167.46,167.46,0,0,0,715.22,653.52Z"/></g></g></svg>