<?xml version="1.0" standalone="no"?>
<!DOCTYPE svg PUBLIC "-//W3C//DTD SVG 20010904//EN"
 "http://www.w3.org/TR/2001/REC-SVG-20010904/DTD/svg10.dtd">
<svg version="1.0" xmlns="http://www.w3.org/2000/svg"
 width="96.000000pt" height="96.000000pt" viewBox="0 0 96.000000 96.000000"
 preserveAspectRatio="xMidYMid meet">
<metadata>
Created by potrace 1.10, written by Peter Selinger 2001-2011
</metadata>
<g transform="translate(0.000000,96.000000) scale(0.100000,-0.100000)"
fill="#000000" stroke="none">
<path d="M290 795 c0 -60 3 -75 15 -75 8 0 15 -7 15 -15 0 -11 12 -15 45 -15
33 0 45 -4 45 -15 0 -12 -17 -15 -90 -15 -73 0 -90 -3 -90 -15 0 -11 -12 -15
-45 -15 -33 0 -45 -4 -45 -15 0 -8 -7 -15 -15 -15 -12 0 -15 -17 -15 -90 0
-73 3 -90 15 -90 8 0 15 -7 15 -15 0 -8 7 -15 15 -15 12 0 15 -18 15 -105 0
-87 3 -105 15 -105 11 0 15 -12 15 -45 0 -33 4 -45 15 -45 8 0 15 -7 15 -15 0
-10 10 -15 30 -15 20 0 30 -5 30 -15 0 -13 25 -15 165 -15 140 0 165 2 165 15
0 10 10 15 30 15 20 0 30 5 30 15 0 8 7 15 15 15 11 0 15 12 15 45 0 33 4 45
15 45 12 0 15 18 15 105 0 87 3 105 15 105 8 0 15 7 15 15 0 8 7 15 15 15 12
0 15 17 15 90 0 73 -3 90 -15 90 -8 0 -15 7 -15 15 0 11 -12 15 -45 15 -33 0
-45 4 -45 15 0 12 -17 15 -90 15 -73 0 -90 3 -90 15 0 11 12 15 45 15 33 0 45
4 45 15 0 8 7 15 15 15 12 0 15 15 15 75 l0 75 -60 0 c-47 0 -60 -3 -60 -15 0
-8 -7 -15 -15 -15 -8 0 -15 -7 -15 -15 0 -8 -7 -15 -15 -15 -8 0 -15 7 -15 15
0 8 -7 15 -15 15 -8 0 -15 7 -15 15 0 12 -13 15 -60 15 l-60 0 0 -75z m90 30
c0 -10 10 -15 30 -15 29 0 30 -2 30 -45 l0 -45 -45 0 c-33 0 -45 4 -45 15 0 8
-7 15 -15 15 -11 0 -15 12 -15 45 0 43 1 45 30 45 20 0 30 -5 30 -15z m210
-30 c0 -33 -4 -45 -15 -45 -8 0 -15 -7 -15 -15 0 -11 -12 -15 -45 -15 l-45 0
0 45 c0 43 1 45 30 45 20 0 30 5 30 15 0 10 10 15 30 15 29 0 30 -2 30 -45z
m-120 -165 c0 -47 -3 -60 -15 -60 -12 0 -15 13 -15 60 0 47 3 60 15 60 12 0
15 -13 15 -60z m-60 -15 c0 -12 -17 -15 -90 -15 -73 0 -90 -3 -90 -15 0 -10
10 -15 30 -15 20 0 30 -5 30 -15 0 -13 25 -15 165 -15 140 0 165 2 165 15 0
10 10 15 30 15 20 0 30 5 30 15 0 12 -17 15 -90 15 -73 0 -90 3 -90 15 0 12
17 15 90 15 73 0 90 -3 90 -15 0 -11 12 -15 45 -15 l45 0 0 -90 0 -90 -45 0
c-33 0 -45 -4 -45 -15 0 -13 -32 -15 -225 -15 -193 0 -225 2 -225 15 0 11 -12
15 -45 15 l-45 0 0 90 0 90 45 0 c33 0 45 4 45 15 0 12 17 15 90 15 73 0 90
-3 90 -15z m16 -52 c-11 -11 -19 6 -11 24 8 17 8 17 12 0 3 -10 2 -21 -1 -24z
m-31 -1 c-8 -8 -25 10 -19 20 4 6 9 5 15 -3 4 -7 6 -15 4 -17z m-35 8 c0 -5
-7 -10 -15 -10 -8 0 -15 5 -15 10 0 6 7 10 15 10 8 0 15 -4 15 -10z m233 3 c3
-5 -22 -9 -54 -10 -35 -1 -57 2 -54 8 7 11 102 12 108 2z m-363 -198 c0 -13
32 -15 225 -15 193 0 225 2 225 15 0 8 7 15 15 15 12 0 15 -18 15 -105 0 -87
-3 -105 -15 -105 -11 0 -15 -12 -15 -45 l0 -45 -45 0 c-33 0 -45 -4 -45 -15 0
-13 -22 -15 -135 -15 -113 0 -135 2 -135 15 0 11 -12 15 -45 15 l-45 0 0 45
c0 33 -4 45 -15 45 -12 0 -15 18 -15 105 0 87 3 105 15 105 8 0 15 -7 15 -15z"/>
<path d="M375 780 c3 -5 8 -10 11 -10 2 0 4 5 4 10 0 6 -5 10 -11 10 -5 0 -7
-4 -4 -10z"/>
</g>
</svg>
