<?xml version="1.0" standalone="no"?>
<!DOCTYPE svg PUBLIC "-//W3C//DTD SVG 20010904//EN"
 "http://www.w3.org/TR/2001/REC-SVG-20010904/DTD/svg10.dtd">
<svg version="1.0" xmlns="http://www.w3.org/2000/svg"
 width="300.000000pt" height="300.000000pt" viewBox="0 0 300.000000 300.000000"
 preserveAspectRatio="xMidYMid meet">
<metadata>
Created by potrace 1.10, written by Peter Selinger 2001-2011
</metadata>
<g transform="translate(0.000000,300.000000) scale(0.100000,-0.100000)"
fill="#000000" stroke="none">
<path d="M453 2570 c-13 -5 -23 -7 -23 -3 0 3 -10 -7 -22 -22 -23 -29 -26 -48
-32 -171 -2 -45 -7 -87 -11 -94 -5 -8 -4 -11 2 -7 6 4 10 -24 11 -76 2 -129 7
-178 21 -187 9 -5 12 -21 9 -43 -2 -20 0 -33 4 -31 4 3 10 -8 14 -23 3 -15 15
-55 26 -88 15 -46 19 -76 15 -130 -3 -38 -10 -71 -15 -73 -6 -2 -8 -12 -5 -23
4 -12 -2 -26 -13 -35 -11 -9 -13 -13 -6 -9 8 4 12 -2 12 -17 0 -18 -2 -20 -10
-8 -6 9 -10 10 -10 3 0 -6 4 -15 10 -18 10 -6 8 -40 -3 -51 -4 -4 -98 -8 -210
-9 -224 -2 -223 -2 -213 -12 4 -4 106 -7 226 -8 l219 0 6 55 c3 30 15 101 27
157 20 98 20 104 3 145 -58 144 -86 308 -87 508 0 185 10 232 52 250 16 7 40
10 53 6 22 -5 253 -141 436 -255 l84 -53 86 26 c284 87 621 79 808 -18 29 -14
32 -13 149 58 65 40 169 106 230 148 60 41 127 81 148 88 34 11 41 10 65 -7
39 -29 49 -87 50 -273 1 -202 -11 -304 -50 -426 l-30 -94 20 -64 c24 -78 42
-205 37 -263 l-3 -43 71 0 71 1 -34 14 c-18 8 -46 15 -62 15 -18 0 -29 5 -29
14 0 11 41 13 225 12 157 -1 225 2 225 10 0 8 -64 11 -210 10 -125 0 -213 3
-219 9 -5 6 -12 35 -15 65 -3 30 -8 64 -11 75 -20 85 -27 110 -36 128 -9 15
-8 18 2 12 9 -6 11 -3 6 8 -3 9 3 42 14 74 11 32 23 78 26 103 2 25 9 50 14
56 5 6 6 14 2 17 -3 4 0 14 8 24 9 11 10 14 2 9 -8 -4 -13 -1 -13 8 0 9 3 16
8 16 7 0 7 341 -1 390 -2 14 -9 35 -15 46 -6 12 -9 23 -7 26 3 3 -6 15 -20 28
-27 25 -73 31 -110 16 -11 -5 -29 -9 -40 -10 -11 -1 -19 -6 -18 -12 1 -7 -26
-29 -60 -50 -34 -21 -64 -41 -67 -44 -12 -17 -89 -58 -96 -52 -4 4 -3 1 1 -7
6 -11 4 -13 -8 -8 -10 4 -16 2 -14 -5 1 -7 -2 -12 -8 -13 -5 0 -23 -9 -39 -20
-16 -11 -35 -20 -42 -21 -7 -1 -23 -11 -35 -23 -31 -29 -54 -34 -81 -20 -13 7
-27 14 -33 15 -5 1 -55 15 -110 30 -81 22 -124 27 -225 29 -69 1 -154 -2 -190
-7 -36 -5 -76 -11 -90 -13 -14 -1 -45 -8 -69 -15 -23 -6 -46 -9 -49 -6 -3 3
-11 1 -17 -4 -21 -17 -110 -40 -113 -30 -2 6 -8 8 -13 4 -5 -3 -9 2 -9 10 0
10 -6 13 -17 9 -12 -5 -14 -3 -8 7 5 9 4 11 -4 6 -6 -4 -24 2 -40 13 -16 12
-34 21 -39 21 -6 0 -14 5 -18 12 -5 7 -2 8 7 3 11 -6 12 -5 2 5 -7 8 -19 15
-26 16 -23 3 -87 41 -80 48 3 3 2 6 -3 7 -26 2 -48 9 -53 16 -3 5 -17 14 -31
21 -14 7 -17 10 -7 8 33 -10 17 4 -30 25 -27 12 -51 27 -55 33 -5 8 -8 7 -8
-2 0 -7 -5 -10 -10 -7 -6 4 -8 11 -5 16 3 5 -2 6 -11 2 -12 -4 -15 -3 -10 5 5
8 1 10 -10 5 -10 -3 -15 -2 -12 3 8 12 -51 15 -79 4z m202 -70 c3 -6 -1 -7 -9
-4 -18 7 -21 14 -7 14 6 0 13 -4 16 -10z m1928 -1107 c-7 -2 -19 -2 -25 0 -7
3 -2 5 12 5 14 0 19 -2 13 -5z"/>
<path d="M2345 2314 c-33 -25 -121 -84 -195 -131 -74 -47 -142 -92 -151 -100
-14 -11 -22 -10 -61 12 -249 139 -666 142 -880 6 -37 -24 -48 -27 -59 -17 -8
7 -93 59 -189 116 -96 56 -192 113 -212 126 -21 13 -41 24 -44 24 -4 0 -4 -57
-1 -127 4 -92 13 -156 32 -228 14 -54 28 -101 30 -103 4 -4 13 1 72 44 21 15
23 15 33 -7 9 -19 6 -38 -9 -89 -11 -35 -19 -66 -17 -67 2 -2 15 1 29 6 18 7
65 6 149 -4 68 -8 231 -22 362 -31 293 -20 536 -10 889 37 73 10 105 10 127 2
17 -6 30 -9 30 -5 0 3 -11 34 -25 69 -20 49 -23 67 -15 83 15 29 35 25 80 -16
22 -20 40 -34 40 -31 0 3 9 49 20 103 18 86 40 374 29 374 -2 0 -31 -21 -64
-46z m36 -114 c-1 -51 -7 -114 -12 -139 -6 -25 -13 -61 -16 -79 -6 -39 -19
-49 -41 -30 -16 13 -25 15 -74 10 -25 -3 -33 -61 -14 -106 8 -20 11 -34 6 -31
-6 3 -10 1 -10 -4 0 -7 -26 -11 -64 -11 -36 0 -76 -4 -89 -9 -13 -5 -71 -13
-128 -16 -57 -4 -122 -9 -144 -11 -22 -2 -107 -6 -190 -9 -82 -3 -155 -7 -161
-9 -6 -2 -60 0 -120 4 -60 5 -131 10 -159 10 -67 2 -188 21 -200 32 -5 4 -14
8 -20 8 -5 0 -3 -5 5 -11 11 -8 6 -9 -20 -4 -40 7 -85 11 -148 13 l-44 2 7 56
c8 69 -9 103 -50 98 -15 -1 -35 -10 -44 -18 -16 -14 -42 -24 -29 -10 3 3 -3
37 -14 77 -11 40 -21 112 -23 160 -2 48 -7 92 -10 97 -4 6 1 13 10 16 17 7 85
-24 85 -38 0 -5 5 -8 10 -8 6 0 27 -11 48 -24 20 -12 40 -23 44 -22 3 1 17 -8
30 -19 13 -12 40 -29 61 -38 24 -11 35 -22 31 -29 -4 -6 -3 -8 3 -5 11 7 69
-18 78 -34 11 -16 71 -10 95 11 13 11 29 20 36 20 7 0 28 8 46 18 18 10 40 19
48 20 8 0 24 3 35 6 11 2 36 5 55 5 26 1 31 4 20 11 -33 21 301 17 365 -5 26
-8 59 -17 73 -19 15 -2 36 -7 47 -11 81 -29 132 -50 141 -57 18 -13 74 -16 82
-4 4 6 28 22 55 35 26 13 47 28 47 32 0 5 7 9 15 9 8 0 15 5 15 12 0 6 3 9 6
5 4 -3 12 -1 19 6 30 29 76 60 115 79 14 7 36 23 50 35 14 13 29 22 34 20 5
-2 8 -45 7 -97z"/>
<path d="M2315 1770 c3 -5 14 -10 23 -10 9 -1 41 -9 70 -19 28 -10 52 -15 52
-11 0 6 -127 50 -144 50 -4 0 -4 -4 -1 -10z"/>
<path d="M560 1749 c-49 -22 -54 -34 -5 -13 19 7 44 14 55 14 11 0 20 4 20 8
0 14 -27 10 -70 -9z"/>
<path d="M648 1743 c6 -2 18 -2 25 0 6 3 1 5 -13 5 -14 0 -19 -2 -12 -5z"/>
<path d="M710 1733 l-45 -13 40 5 c22 3 62 5 89 5 58 0 58 5 1 12 -22 2 -60
-2 -85 -9z"/>
<path d="M2130 1743 c-25 -4 -50 -28 -50 -46 0 -5 7 -4 15 3 8 7 12 16 9 21
-3 5 9 9 25 9 17 0 31 5 31 10 0 6 -1 9 -2 9 -2 -1 -14 -4 -28 -6z"/>
<path d="M560 1720 c-20 -6 -21 -8 -5 -8 11 0 29 3 40 8 25 11 -1 11 -35 0z"/>
<path d="M913 1723 c15 -2 39 -2 55 0 15 2 2 4 -28 4 -30 0 -43 -2 -27 -4z"/>
<path d="M2023 1723 c9 -2 25 -2 35 0 9 3 1 5 -18 5 -19 0 -27 -2 -17 -5z"/>
<path d="M2315 1720 c11 -5 16 -9 10 -10 -15 -2 87 -29 112 -30 12 0 24 3 26
8 3 4 -11 7 -31 7 -21 1 -52 9 -71 18 -19 9 -41 17 -50 16 -12 0 -11 -3 4 -9z"/>
<path d="M2390 1720 c8 -5 24 -10 34 -10 26 0 18 6 -19 14 -22 5 -26 4 -15 -4z"/>
<path d="M790 1684 c-31 -48 -21 -51 13 -3 16 21 24 39 18 39 -5 0 -19 -16
-31 -36z"/>
<path d="M1044 1708 c-3 -5 1 -8 8 -8 7 -1 45 -3 83 -4 314 -16 520 -18 657
-5 82 7 151 16 154 21 5 7 -28 5 -121 -7 -98 -14 -432 -15 -598 -3 -98 7 -181
10 -183 6z"/>
<path d="M2120 1709 c0 -5 5 -7 10 -4 6 3 10 8 10 11 0 2 -4 4 -10 4 -5 0 -10
-5 -10 -11z"/>
<path d="M581 1699 c-13 -5 -33 -7 -45 -4 -20 6 -20 5 -2 -6 14 -8 28 -9 55 0
20 6 45 12 56 15 12 2 8 4 -10 4 -16 0 -41 -4 -54 -9z"/>
<path d="M1001 1634 c-17 -31 -28 -61 -24 -67 3 -5 1 -7 -4 -4 -6 4 -34 -30
-64 -76 -29 -45 -71 -106 -92 -134 -20 -29 -33 -53 -28 -53 6 0 18 12 28 26
10 14 35 47 56 74 20 27 37 53 37 56 0 4 18 31 40 60 22 29 40 57 40 62 0 5 9
17 20 27 12 10 18 25 15 32 -2 8 -1 11 5 8 11 -7 32 29 23 39 -13 13 -22 4
-52 -50z"/>
<path d="M1879 1658 c-25 -29 -36 -48 -26 -48 2 0 18 18 36 40 38 48 32 53
-10 8z"/>
<path d="M2091 1673 c-8 -14 -11 -15 -11 -3 -1 8 -9 -7 -20 -33 -22 -57 -37
-77 -53 -71 -7 2 -27 -22 -45 -54 -37 -66 -39 -69 -111 -182 -29 -47 -59 -88
-65 -92 -7 -5 -5 -8 5 -8 15 0 119 146 159 222 9 16 18 26 22 23 3 -3 11 8 18
25 7 16 17 30 22 30 5 0 6 5 3 10 -3 6 -2 10 3 10 6 0 23 21 38 48 15 26 34
53 41 60 13 13 18 32 8 32 -2 0 -9 -8 -14 -17z m-105 -160 c-8 -15 -15 -25
-16 -21 0 12 23 58 27 54 3 -2 -2 -17 -11 -33z"/>
<path d="M1191 1669 c-1 -8 -10 -25 -21 -37 -12 -12 -17 -22 -12 -22 14 0 44
49 38 63 -2 7 -5 6 -5 -4z"/>
<path d="M1808 1663 c7 -3 16 -2 19 1 4 3 -2 6 -13 5 -11 0 -14 -3 -6 -6z"/>
<path d="M2267 1619 c-19 -30 -33 -56 -31 -58 5 -5 43 41 44 53 0 5 7 18 17
28 9 10 14 21 10 24 -3 3 -21 -18 -40 -47z"/>
<path d="M2027 1613 c-10 -20 -16 -38 -13 -40 6 -6 38 56 34 67 -2 4 -11 -8
-21 -27z"/>
<path d="M733 1605 c-10 -14 -28 -38 -40 -53 -13 -15 -23 -31 -23 -37 0 -5
-14 -25 -31 -44 l-31 -33 -29 33 c-16 19 -37 46 -46 62 -10 15 -21 27 -26 27
-4 0 8 -21 28 -47 20 -26 33 -53 30 -60 -3 -9 0 -11 6 -7 7 4 21 -4 31 -17 11
-13 17 -19 14 -13 -3 7 1 17 9 24 13 11 106 139 129 178 13 22 -3 12 -21 -13z"/>
<path d="M1830 1591 c0 -4 -14 -24 -30 -42 -17 -19 -40 -51 -51 -71 -11 -21
-24 -38 -29 -38 -5 0 -12 -9 -15 -21 -4 -12 -13 -18 -20 -15 -9 3 -12 0 -8
-10 9 -23 16 -17 63 54 25 37 47 69 51 72 21 19 59 80 50 80 -6 0 -11 -4 -11
-9z"/>
<path d="M1124 1557 c-122 -184 -156 -244 -144 -252 6 -4 9 -3 8 2 -2 7 24 55
75 138 7 11 31 48 55 82 23 35 39 63 35 63 -5 0 -18 -15 -29 -33z"/>
<path d="M2460 1549 c0 -6 -20 -36 -45 -67 -83 -105 -101 -131 -57 -83 22 24
42 39 44 35 3 -5 3 -4 2 3 -2 6 8 24 22 40 33 37 57 83 44 83 -5 0 -10 -5 -10
-11z"/>
<path d="M2486 1525 c-9 -21 -16 -39 -16 -42 0 -2 -14 -22 -32 -44 -17 -21
-29 -42 -25 -45 3 -3 18 12 34 35 18 26 33 38 43 35 11 -4 12 -2 3 6 -8 9 -8
21 4 47 8 19 12 37 9 40 -3 3 -12 -12 -20 -32z"/>
<path d="M2196 1503 c-16 -27 -40 -68 -53 -93 -20 -37 -21 -41 -4 -20 11 14
21 31 21 38 0 6 4 12 10 12 5 0 17 16 26 35 9 19 21 32 27 28 6 -3 7 -1 3 6
-4 6 -2 18 4 26 7 8 8 15 4 15 -5 0 -22 -21 -38 -47z"/>
<path d="M1447 1517 c-51 -12 -85 -49 -132 -145 -22 -45 -43 -82 -47 -82 -5 0
-8 -7 -8 -15 0 -8 -6 -16 -12 -17 -7 0 -17 -2 -23 -2 -5 -1 -15 -5 -22 -9 -13
-8 -214 2 -251 12 -1 1 2 10 8 21 7 14 7 20 0 20 -5 0 -10 -7 -10 -15 0 -7 -7
-18 -17 -23 -26 -15 113 -35 217 -30 106 4 112 8 174 128 53 102 70 125 106
140 34 14 93 9 136 -11 23 -12 83 -93 98 -134 2 -5 6 -7 10 -4 12 11 -64 128
-92 143 -48 25 -95 33 -135 23z"/>
<path d="M537 1433 c21 -27 43 -53 49 -60 6 -6 14 -31 18 -55 4 -24 11 -58 17
-75 10 -30 14 -33 52 -33 65 0 232 -28 310 -51 90 -27 177 -65 177 -78 0 -20
-20 -21 -57 -3 -87 44 -252 84 -395 97 l-67 5 22 -40 c16 -29 27 -39 42 -36
40 7 222 -13 310 -33 103 -25 125 -35 109 -51 -8 -8 -32 -5 -85 9 -103 27
-214 43 -278 39 l-54 -3 25 -29 25 -29 154 -2 c151 -1 209 -12 209 -36 0 -8
-13 -10 -42 -5 -70 11 -255 19 -273 12 -22 -8 52 -72 191 -166 213 -142 370
-210 489 -210 167 0 454 143 645 321 l65 60 -120 -6 c-66 -3 -137 -8 -157 -11
-25 -4 -38 -2 -38 5 0 24 58 34 195 35 l140 1 29 33 28 32 -49 0 c-60 0 -211
-24 -282 -45 -39 -12 -56 -14 -65 -5 -16 16 5 26 107 50 85 20 284 43 298 34
7 -4 64 65 58 71 -2 2 -45 -1 -96 -6 -108 -11 -218 -38 -305 -74 -76 -32 -93
-35 -93 -15 0 35 266 113 432 126 71 6 82 9 91 30 12 26 35 144 29 150 -2 2
-32 -28 -67 -68 -38 -42 -80 -78 -104 -89 -62 -26 -185 -42 -341 -43 -116 -1
-145 2 -166 16 -15 9 -50 60 -79 113 -78 141 -137 182 -197 140 -12 -8 -44
-57 -71 -107 -28 -51 -58 -102 -69 -114 -33 -39 -85 -47 -238 -41 -167 7 -294
29 -340 57 -33 20 -142 137 -184 198 -12 17 -27 32 -32 32 -6 0 7 -21 28 -47z
m973 7 c0 -5 7 -10 16 -10 8 0 13 -4 9 -9 -3 -5 3 -12 14 -16 10 -3 34 -36 53
-73 85 -166 95 -175 216 -173 43 1 72 -3 72 -9 0 -5 -7 -10 -15 -10 -8 0 -24
-13 -36 -30 -17 -22 -26 -27 -35 -19 -13 11 -61 2 -50 -8 3 -4 1 -12 -5 -19
-7 -9 -6 -20 7 -39 19 -29 47 -26 75 8 l16 21 -1 -22 c0 -13 -6 -26 -12 -30
-17 -11 -36 -51 -29 -62 3 -6 -1 -10 -10 -10 -12 0 -13 4 -7 18 12 21 5 42
-14 42 -8 0 -14 4 -14 9 0 5 -8 8 -17 7 -35 -2 -56 -39 -41 -69 22 -43 -62
-74 -106 -39 l-26 20 27 26 c14 14 30 26 34 26 5 0 9 7 9 16 0 8 4 13 9 10 9
-6 26 50 21 69 -1 6 -3 17 -4 24 -2 8 -8 17 -14 19 -7 2 -10 7 -7 11 10 17
-74 43 -137 43 -113 0 -151 -10 -175 -45 -22 -33 -26 -47 -24 -84 1 -24 62
-89 93 -99 19 -6 19 -6 1 -18 -10 -7 -32 -18 -49 -23 -25 -9 -35 -7 -55 8 -15
12 -20 22 -13 26 15 11 25 43 14 43 -5 0 -6 7 -3 17 4 11 3 14 -5 9 -7 -4 -12
-2 -12 4 0 15 -31 8 -53 -12 -17 -15 -21 -15 -47 0 -16 9 -26 22 -23 29 4 11
8 11 20 1 16 -13 46 -21 39 -10 -5 8 20 33 26 26 3 -2 5 4 5 13 0 22 -34 53
-59 53 -10 0 -18 4 -18 9 0 5 -16 15 -36 21 -48 16 -28 30 43 30 28 0 63 4 76
9 41 16 102 85 138 158 18 37 46 80 62 96 28 27 57 36 57 17z m-830 -190 c0
-18 -29 -4 -33 17 -4 23 -3 23 14 7 11 -9 19 -20 19 -24z m1670 16 c0 -16 -28
-42 -36 -33 -8 7 14 47 26 47 6 0 10 -6 10 -14z m-729 -164 c16 -18 29 -40 29
-49 0 -10 -27 -43 -59 -74 -58 -54 -59 -57 -44 -79 36 -51 115 -55 202 -10 46
23 71 18 71 -15 0 -41 -76 -95 -135 -95 -6 0 -17 -17 -24 -37 l-14 -37 -18 37
c-13 24 -29 39 -47 43 -15 4 -42 18 -60 31 l-33 25 -23 -21 c-12 -11 -36 -25
-53 -31 -19 -7 -36 -22 -43 -41 -15 -36 -23 -37 -36 -1 -9 24 -19 30 -53 35
-49 6 -84 27 -107 63 -16 23 -16 26 -1 42 14 14 23 14 54 5 21 -7 56 -17 79
-24 22 -7 51 -9 65 -6 25 7 79 51 79 66 0 4 -22 22 -48 39 -62 40 -79 70 -63
111 20 47 62 62 164 59 86 -3 90 -4 118 -36z m-401 -48 c0 -19 -28 -30 -42
-16 -8 8 -8 15 1 26 14 17 41 10 41 -10z m590 -4 c0 -13 -7 -20 -20 -20 -13 0
-20 7 -20 20 0 13 7 20 20 20 13 0 20 -7 20 -20z m-987 -17 c-7 -2 -21 -2 -30
0 -10 3 -4 5 12 5 17 0 24 -2 18 -5z m347 -73 c0 -13 -7 -20 -20 -20 -13 0
-20 7 -20 20 0 13 7 20 20 20 13 0 20 -7 20 -20z m110 1 c0 -27 -19 -36 -37
-18 -18 18 -9 37 18 37 12 0 19 -7 19 -19z m480 0 c0 -26 -17 -36 -35 -21 -18
15 -8 40 16 40 12 0 19 -7 19 -19z m108 2 c5 -17 -26 -29 -40 -15 -6 6 -7 15
-3 22 9 14 37 9 43 -7z m-656 -18 c0 -5 -5 -11 -10 -13 -5 -1 -9 4 -9 13 0 9
4 14 9 13 5 -2 10 -8 10 -13z m-137 -10 c28 -2 54 -4 58 -5 5 0 5 -4 2 -10 -3
-5 0 -10 7 -10 9 0 9 -3 -2 -10 -13 -8 -13 -10 0 -10 10 0 11 -3 3 -11 -14
-14 3 -49 40 -83 27 -25 46 -34 94 -42 16 -3 31 -12 36 -19 4 -8 15 -22 24
-31 16 -16 19 -14 48 19 16 19 41 38 55 42 14 5 30 15 36 23 10 14 15 13 40
-5 16 -11 41 -23 57 -27 15 -3 27 -13 27 -20 0 -8 11 -21 25 -30 23 -15 25
-15 45 6 11 12 20 25 20 29 0 5 19 14 43 21 23 7 54 24 69 38 34 30 51 82 35
100 -9 10 -9 11 0 6 6 -3 13 -2 15 4 5 15 53 23 206 35 l63 4 -29 -27 c-74
-68 -193 -150 -283 -194 -79 -38 -149 -68 -157 -66 -4 1 -14 -1 -22 -5 -8 -3
-28 -10 -45 -15 -16 -6 -39 -13 -49 -18 -13 -5 -17 -4 -12 4 4 7 -2 8 -23 2
-21 -6 -52 -2 -110 15 -99 28 -191 64 -191 76 0 5 -8 9 -17 9 -10 0 -27 7 -37
15 -10 8 -23 12 -29 8 -6 -3 -7 -2 -4 4 5 8 -39 39 -142 98 -9 6 -23 16 -31
23 -8 7 -31 26 -50 43 l-34 30 84 -6 c47 -4 108 -8 135 -10z"/>
<path d="M1392 1078 c-17 -17 -15 -22 14 -58 55 -64 105 -70 154 -18 36 38 42
55 24 72 -19 20 -173 23 -192 4z m133 -20 c26 0 32 -4 28 -17 -2 -10 -17 -25
-33 -35 -25 -14 -33 -15 -52 -4 -23 13 -47 38 -48 50 0 10 32 16 54 11 10 -3
33 -5 51 -5z"/>
<path d="M428 1413 c-10 -2 -18 -8 -18 -13 0 -5 -12 -11 -27 -13 -21 -3 -16
-5 17 -7 38 -3 33 -5 -30 -10 l-75 -6 75 -4 75 -4 -100 -6 -100 -6 99 -2 c86
-2 97 -4 86 -17 -10 -12 -10 -15 1 -16 8 -1 -4 -5 -26 -9 l-40 -7 43 -2 42 -1
0 65 c0 36 -1 64 -2 64 -2 -1 -11 -3 -20 -6z"/>
<path d="M45 1401 l40 -5 -45 -6 c-45 -7 -45 -7 15 -8 40 -1 55 1 46 7 -11 7
-4 11 25 14 21 2 3 4 -41 4 -49 0 -64 -2 -40 -6z"/>
<path d="M228 1403 c18 -2 45 -2 60 0 15 2 0 4 -33 4 -33 0 -45 -2 -27 -4z"/>
<path d="M333 1403 c9 -2 23 -2 30 0 6 3 -1 5 -18 5 -16 0 -22 -2 -12 -5z"/>
<path d="M2730 1400 c74 -6 74 -6 25 -11 -35 -4 -24 -5 40 -6 50 0 73 2 52 4
-20 2 -35 8 -32 14 4 5 -27 8 -77 7 l-83 -2 75 -6z"/>
<path d="M2897 1403 c18 -2 50 -2 70 0 21 2 7 4 -32 4 -38 0 -55 -2 -38 -4z"/>
<path d="M193 1383 c26 -2 68 -2 95 0 26 2 4 3 -48 3 -52 0 -74 -1 -47 -3z"/>
<path d="M2933 1383 c15 -2 37 -2 50 0 12 2 0 4 -28 4 -27 0 -38 -2 -22 -4z"/>
<path d="M656 1369 c7 -16 83 -84 87 -78 2 2 -19 24 -45 48 -27 25 -46 38 -42
30z"/>
<path d="M2289 1363 c-10 -11 -10 -14 -1 -9 6 4 12 2 12 -3 0 -6 -18 -22 -41
-37 -35 -22 -93 -38 -199 -57 -22 -4 -22 -4 5 -6 17 0 64 7 106 17 81 20 139
59 136 93 -2 23 -1 23 -18 2z"/>
<path d="M13 1363 c9 -2 23 -2 30 0 6 3 -1 5 -18 5 -17 0 -22 -2 -12 -5z"/>
<path d="M128 1363 c29 -2 74 -2 100 0 26 2 2 3 -53 3 -55 0 -76 -1 -47 -3z"/>
<path d="M551 1354 c0 -11 3 -14 6 -6 3 7 2 16 -1 19 -3 4 -6 -2 -5 -13z"/>
<path d="M2578 1363 c28 -2 76 -2 105 0 28 2 5 3 -53 3 -58 0 -81 -1 -52 -3z"/>
<path d="M2808 1363 c29 -2 74 -2 100 0 26 2 2 3 -53 3 -55 0 -76 -1 -47 -3z"/>
<path d="M68 1343 c28 -2 76 -2 105 0 28 2 5 3 -53 3 -58 0 -81 -1 -52 -3z"/>
<path d="M2096 1334 c-5 -14 -4 -15 9 -4 17 14 19 20 6 20 -5 0 -12 -7 -15
-16z"/>
<path d="M2623 1343 c32 -2 81 -2 110 0 29 2 3 3 -58 3 -60 0 -84 -1 -52 -3z"/>
<path d="M2858 1343 c29 -2 74 -2 100 0 26 2 2 3 -53 3 -55 0 -76 -1 -47 -3z"/>
<path d="M50 1319 c51 -7 108 -4 119 7 2 2 -36 3 -85 3 -86 -1 -87 -2 -34 -10z"/>
<path d="M186 1321 c-7 -11 210 -8 221 2 3 4 -44 7 -105 7 -61 0 -113 -4 -116
-9z"/>
<path d="M1713 1284 c17 -24 34 -44 39 -44 11 0 -44 78 -59 84 -6 3 2 -15 20
-40z"/>
<path d="M2530 1322 c0 -4 19 -8 43 -8 30 -1 36 1 22 7 -26 10 -65 11 -65 1z"/>
<path d="M2624 1323 c4 -4 57 -8 119 -10 73 -1 106 1 97 7 -17 11 -227 14
-216 3z"/>
<path d="M2880 1320 c8 -5 33 -10 55 -10 22 0 47 5 55 10 10 7 -6 10 -55 10
-49 0 -65 -3 -55 -10z"/>
<path d="M2066 1294 c-4 -10 -1 -14 6 -12 15 5 23 28 10 28 -5 0 -13 -7 -16
-16z"/>
<path d="M23 1293 c15 -2 37 -2 50 0 12 2 0 4 -28 4 -27 0 -38 -2 -22 -4z"/>
<path d="M168 1293 c34 -2 90 -2 125 0 34 2 6 3 -63 3 -69 0 -97 -1 -62 -3z"/>
<path d="M2558 1293 c17 -2 47 -2 65 0 17 2 3 4 -33 4 -36 0 -50 -2 -32 -4z"/>
<path d="M2738 1293 c34 -2 88 -2 120 0 31 2 3 3 -63 3 -66 0 -92 -1 -57 -3z"/>
<path d="M2953 1293 c9 -2 25 -2 35 0 9 3 1 5 -18 5 -19 0 -27 -2 -17 -5z"/>
<path d="M760 1280 c0 -5 7 -10 16 -10 8 0 12 5 9 10 -3 6 -10 10 -16 10 -5 0
-9 -4 -9 -10z"/>
<path d="M0 1269 c0 -4 104 -8 230 -8 143 0 229 3 225 9 -7 11 -455 11 -455
-1z"/>
<path d="M2520 1269 c0 -5 46 -9 103 -9 68 0 97 3 87 10 -19 12 -190 12 -190
-1z"/>
<path d="M2741 1269 c8 -5 68 -8 134 -8 78 0 113 3 100 9 -26 12 -252 11 -234
-1z"/>
<path d="M873 1253 c9 -2 23 -2 30 0 6 3 -1 5 -18 5 -16 0 -22 -2 -12 -5z"/>
<path d="M3 1238 c-2 -5 45 -8 106 -8 60 0 112 4 115 8 3 4 -45 8 -106 8 -60
-1 -112 -4 -115 -8z"/>
<path d="M258 1242 c-47 -10 -7 -17 96 -17 71 0 112 4 110 10 -4 10 -169 15
-206 7z"/>
<path d="M2143 1243 c9 -2 25 -2 35 0 9 3 1 5 -18 5 -19 0 -27 -2 -17 -5z"/>
<path d="M2511 1223 c-9 -20 -7 -23 24 -29 18 -3 39 -3 45 1 6 4 16 3 23 -2 7
-4 71 -6 142 -3 176 7 120 22 -67 19 -94 -2 -142 1 -150 9 -8 8 23 11 125 9
87 -1 133 1 126 8 -5 5 -65 9 -134 10 -119 0 -125 -1 -134 -22z"/>
<path d="M2821 1236 c27 -11 179 -10 179 2 0 4 -46 8 -103 8 -83 1 -97 -1 -76
-10z"/>
<path d="M1878 1233 c12 -2 32 -2 45 0 12 2 2 4 -23 4 -25 0 -35 -2 -22 -4z"/>
<path d="M2880 1209 c0 -10 40 -19 83 -19 61 0 42 18 -23 22 -33 1 -60 0 -60
-3z"/>
<path d="M0 1200 c0 -13 120 -13 140 0 10 7 -9 10 -62 10 -46 0 -78 -4 -78
-10z"/>
<path d="M171 1201 c-23 -15 218 -19 254 -5 26 11 11 12 -105 13 -74 0 -141
-3 -149 -8z"/>
<path d="M460 1200 c0 -5 5 -10 10 -10 6 0 10 5 10 10 0 6 -4 10 -10 10 -5 0
-10 -4 -10 -10z"/>
<path d="M203 1171 c-163 -8 -181 -26 -25 -26 64 0 119 3 122 6 3 3 19 11 35
17 18 6 22 10 10 9 -11 0 -75 -3 -142 -6z"/>
<path d="M2667 1166 c16 -5 30 -12 33 -15 3 -3 62 -6 133 -6 104 0 124 2 110
13 -9 6 -22 12 -27 12 -178 5 -272 4 -249 -4z"/>
<path d="M2974 1165 c11 -8 22 -12 25 -9 6 6 -19 24 -34 24 -5 -1 -1 -7 9 -15z"/>
<path d="M0 1155 c0 -18 8 -18 40 0 l25 14 -32 1 c-23 0 -33 -5 -33 -15z"/>
<path d="M475 1165 c-5 -2 -28 -7 -50 -11 l-40 -8 55 -7 c54 -6 54 -6 -16 -6
-52 1 -78 -3 -98 -16 -14 -10 -26 -18 -26 -20 0 -1 50 -2 110 -2 61 0 110 1
110 1 0 5 -31 74 -33 73 -1 0 -6 -2 -12 -4z"/>
<path d="M2486 1162 c-15 -14 -1 -19 62 -20 43 -1 60 2 47 7 -27 11 -102 20
-109 13z"/>
<path d="M2552 1133 c-79 -4 -83 -5 -93 -30 -11 -31 -16 -26 45 -47 36 -12 86
-16 185 -16 l136 0 -33 20 c-29 18 -50 20 -184 20 -107 0 -149 3 -141 11 6 6
57 9 137 7 69 -2 126 -2 126 -1 0 6 -80 43 -87 41 -4 -1 -45 -4 -91 -5z"/>
<path d="M13 1123 c-39 -15 2 -23 125 -23 105 1 142 4 156 15 18 13 4 15 -125
14 -79 0 -150 -3 -156 -6z"/>
<path d="M2734 1115 c29 -22 266 -22 266 0 0 13 -22 15 -142 15 -128 -1 -141
-2 -124 -15z"/>
<path d="M0 1060 c0 -18 7 -20 85 -20 67 0 91 4 117 20 l33 20 -117 0 c-111 0
-118 -1 -118 -20z"/>
<path d="M235 1062 c-30 -17 -29 -17 91 -20 102 -2 129 1 170 17 l49 20 -140
0 c-114 0 -146 -3 -170 -17z"/>
<path d="M2828 1060 c24 -15 50 -20 102 -20 63 0 70 2 70 20 0 19 -7 20 -102
20 l-103 0 33 -20z"/>
<path d="M2425 1040 c4 -6 11 -8 16 -5 14 9 11 15 -7 15 -8 0 -12 -5 -9 -10z"/>
<path d="M275 1021 c-80 -4 -128 -11 -145 -21 -23 -14 -17 -15 91 -18 108 -2
119 -1 160 23 24 13 37 24 29 23 -8 -1 -69 -4 -135 -7z"/>
<path d="M457 1005 c-63 -30 -68 -37 -24 -31 20 2 50 14 67 26 53 38 31 41
-43 5z"/>
<path d="M2394 997 l-25 -29 68 -34 c52 -26 79 -34 122 -34 l55 0 -34 30 c-32
27 -41 29 -114 30 -58 0 -77 3 -69 11 6 6 35 9 67 7 31 -1 56 -1 56 1 0 2 -12
13 -27 25 -38 30 -70 27 -99 -7z m141 -67 c4 -6 -6 -10 -22 -10 -22 0 -25 2
-13 10 19 12 27 12 35 0z"/>
<path d="M2621 1003 c34 -19 57 -22 169 -25 72 -2 130 -1 130 2 0 3 -15 13
-32 22 -25 13 -66 18 -169 20 l-136 3 38 -22z"/>
<path d="M0 1000 c0 -16 7 -20 30 -20 29 0 90 24 90 35 0 3 -27 5 -60 5 -53 0
-60 -2 -60 -20z"/>
<path d="M533 1001 c-30 -25 -29 -28 11 -23 18 2 37 -1 40 -7 5 -7 -10 -11
-45 -11 -41 0 -62 -6 -93 -27 l-40 -28 45 -3 c33 -2 59 4 101 26 l57 28 -19
32 c-23 37 -27 38 -57 13z m-23 -71 c0 -5 -8 -10 -17 -10 -15 0 -16 2 -3 10
19 12 20 12 20 0z"/>
<path d="M2529 994 c19 -16 39 -24 53 -22 19 4 15 8 -25 26 -62 28 -65 28 -28
-4z"/>
<path d="M2940 996 c49 -26 60 -25 60 5 0 16 -7 19 -52 19 l-53 -1 45 -23z"/>
<path d="M33 939 c-18 -12 -33 -25 -33 -30 0 -5 83 -9 188 -9 l187 1 39 29 38
29 -193 0 c-180 1 -196 -1 -226 -20z m271 -11 c-3 -5 -59 -8 -125 -8 -66 0
-118 4 -115 8 3 5 59 8 125 8 65 0 117 -4 115 -8z m71 2 c4 -6 -7 -10 -25 -10
-18 0 -29 4 -25 10 3 6 15 10 25 10 10 0 22 -4 25 -10z"/>
<path d="M2611 930 l34 -29 178 -1 c162 0 177 1 177 18 0 37 -32 42 -232 42
l-191 -1 34 -29z m349 -2 c0 -5 -70 -8 -155 -8 -85 0 -155 4 -155 9 0 5 70 8
155 7 85 0 155 -4 155 -8z"/>
<path d="M2334 919 c-17 -19 -16 -19 41 -19 65 0 66 1 13 23 -34 14 -38 14
-54 -4z"/>
<path d="M595 915 l-30 -13 43 -1 c30 -1 42 3 40 11 -6 18 -20 19 -53 3z"/>
<path d="M430 882 c-35 -2 -55 -11 -88 -40 l-43 -37 225 0 225 0 -39 40 -39
40 -75 -5 c-64 -4 -79 -9 -103 -32 -16 -16 -34 -28 -41 -28 -20 0 -14 28 10
44 28 20 24 22 -32 18z m-15 -31 c7 -12 -12 -24 -25 -16 -11 7 -4 25 10 25 5
0 11 -4 15 -9z m263 -10 c3 -10 0 -12 -12 -8 -9 4 -16 1 -17 -6 0 -9 -2 -8 -6
1 -4 10 -8 10 -19 1 -11 -9 -18 -9 -26 -1 -15 15 -32 16 -23 2 7 -11 -25 -13
-40 -2 -28 20 -10 29 62 28 56 -1 77 -5 81 -15z"/>
<path d="M2284 857 c-14 -16 -24 -33 -22 -38 2 -7 91 -11 236 -12 188 -2 229
0 215 10 -10 7 -29 23 -42 35 -18 17 -40 24 -87 28 -68 6 -76 2 -44 -18 22
-13 27 -42 8 -42 -7 0 -25 12 -41 28 -25 24 -38 28 -113 32 -84 5 -86 4 -110
-23z m193 -10 c7 0 10 -4 7 -9 -9 -14 -182 -5 -177 9 6 15 87 21 128 10 17 -5
35 -9 42 -10z m148 11 c14 -6 25 -15 25 -20 0 -15 -57 -8 -71 9 -10 11 -10 14
-1 9 6 -4 12 -2 12 3 0 14 3 14 35 -1z"/>
<path d="M0 870 c0 -5 59 -11 143 -12 118 -3 138 -5 121 -15 -23 -13 -32 -14
-151 -10 -40 1 -73 -1 -73 -5 0 -5 -10 -9 -22 -10 -13 -1 35 -4 107 -8 l130
-6 49 38 49 38 -177 0 c-107 0 -176 -4 -176 -10z"/>
<path d="M2717 843 l48 -38 118 3 c82 2 117 7 117 15 0 13 -64 14 -125 3 -19
-4 -36 -2 -40 3 -3 6 -20 9 -37 7 -18 -2 -38 2 -46 10 -11 12 6 14 117 14 81
0 131 4 131 10 0 6 -62 10 -166 10 l-166 0 49 -37z"/>
<path d="M0 780 c0 -6 28 -10 65 -10 46 0 64 -3 61 -12 -1 -7 -1 -10 2 -5 9
17 41 27 48 15 4 -7 4 -10 -1 -6 -4 4 -17 -4 -28 -18 -14 -19 -27 -24 -44 -21
-13 2 -26 0 -29 -5 -3 -4 -10 -6 -15 -2 -14 8 -59 -4 -59 -16 0 -6 27 -10 61
-10 59 0 63 2 121 50 l60 50 -121 0 c-74 0 -121 -4 -121 -10z"/>
<path d="M220 740 l-55 -49 250 -1 251 0 16 28 c9 15 26 37 38 50 l21 22 -233
0 -233 -1 -55 -49z m460 21 c0 -5 -10 -7 -22 -4 -23 5 -23 5 -3 -10 18 -15 18
-16 3 -17 -10 0 -18 -3 -18 -7 0 -5 -37 -7 -82 -6 -46 1 -134 3 -195 4 -106 1
-139 9 -93 24 11 3 20 10 20 14 0 5 88 9 195 10 112 1 195 -3 195 -8z"/>
<path d="M338 753 c7 -3 16 -2 19 1 4 3 -2 6 -13 5 -11 0 -14 -3 -6 -6z"/>
<path d="M2166 743 l-57 -48 97 -3 c53 -1 99 -1 101 2 7 7 -60 96 -73 96 -6 0
-37 -21 -68 -47z m84 -10 c0 -7 -11 -13 -24 -13 -27 0 -43 16 -24 23 23 8 48
3 48 -10z"/>
<path d="M2300 768 c12 -13 29 -35 38 -50 l16 -28 253 0 c139 0 253 2 253 4 0
1 -27 24 -59 50 l-59 46 -232 0 -231 0 21 -22z m80 -8 c0 -5 5 -10 11 -10 5 0
7 5 4 10 -10 16 238 13 254 -2 11 -10 13 -10 7 0 -5 9 5 12 39 12 28 0 44 -4
40 -10 -3 -5 1 -10 9 -10 9 0 16 -5 16 -11 0 -5 6 -7 13 -3 9 5 9 4 0 -6 -9
-9 -60 -13 -203 -12 -168 0 -194 2 -211 18 -24 22 -24 34 1 34 11 0 20 -4 20
-10z"/>
<path d="M2826 753 c27 -21 55 -43 62 -50 19 -18 112 -17 112 1 0 8 -13 16
-30 18 -16 3 -30 1 -30 -3 0 -8 -16 -6 -43 6 -10 4 -16 14 -13 21 3 7 0 16 -6
20 -7 5 -8 2 -3 -6 5 -8 3 -11 -5 -8 -8 2 -15 9 -17 14 -2 6 27 8 72 6 50 -3
75 0 75 7 0 7 -37 11 -111 11 l-112 0 49 -37z"/>
<path d="M748 748 c-45 -60 -47 -58 54 -57 76 0 90 2 74 12 -11 7 -36 27 -56
45 -21 17 -40 32 -43 32 -2 0 -16 -15 -29 -32z m56 -16 c2 -4 -4 -9 -15 -9
-10 -1 -19 2 -19 8 0 11 27 12 34 1z"/>
<path d="M0 666 c0 -10 7 -12 22 -8 l22 5 -22 -23 c-22 -24 -28 -40 -14 -40 4
0 27 18 52 40 l45 39 -52 1 c-39 0 -53 -4 -53 -14z"/>
<path d="M95 637 c-27 -23 -60 -51 -72 -62 l-22 -20 282 2 281 2 33 45 c17 24
37 47 42 51 34 21 -8 25 -241 25 l-253 -1 -50 -42z m125 16 c0 -5 43 -7 95 -5
52 1 138 3 190 5 52 1 95 -1 95 -5 0 -4 -11 -20 -24 -35 l-24 -28 -223 -2
c-123 -1 -230 3 -239 7 -13 8 -13 10 0 11 8 1 18 1 23 0 4 0 7 4 7 10 0 18 26
37 56 42 16 2 32 5 37 6 4 0 7 -2 7 -6z"/>
<path d="M178 603 c7 -3 16 -2 19 1 4 3 -2 6 -13 5 -11 0 -14 -3 -6 -6z"/>
<path d="M660 625 c-19 -30 -38 -55 -42 -55 -5 0 -8 -3 -8 -7 0 -5 112 -8 249
-8 137 0 247 3 244 8 -2 4 -9 7 -16 7 -6 0 -50 25 -98 55 l-87 55 -103 0 -104
-1 -35 -54z m263 8 c18 -10 34 -21 35 -25 2 -5 11 -8 19 -8 9 0 13 -3 9 -7
-10 -11 -316 -12 -316 -1 0 4 5 8 11 8 5 0 7 5 4 10 -4 6 -1 17 5 25 19 23
192 21 233 -2z"/>
<path d="M2040 645 c-25 -19 -69 -46 -97 -60 -29 -14 -53 -27 -53 -28 0 -1
115 -2 255 -2 140 0 255 3 255 7 0 4 -17 32 -37 62 l-38 55 -120 0 -120 0 -45
-34z m289 -22 c22 -25 22 -27 5 -34 -29 -12 -312 -11 -319 1 -5 9 0 11 21 9 3
0 15 12 26 26 16 21 23 24 29 13 6 -9 9 -9 9 -1 0 15 29 19 125 16 73 -2 82
-5 104 -30z"/>
<path d="M2370 674 c0 -3 21 -32 46 -65 31 -40 51 -58 61 -55 8 3 129 6 269 6
141 0 254 4 254 9 0 5 -28 32 -62 60 l-63 51 -252 0 c-139 0 -253 -3 -253 -6z
m410 -24 c8 0 29 -1 45 -1 50 1 59 -2 80 -22 20 -20 20 -20 -3 -14 -12 3 -20
1 -16 -4 3 -5 17 -9 32 -10 22 -1 19 -3 -13 -11 -22 -5 -132 -8 -244 -6 -164
2 -205 6 -209 17 -3 9 0 11 8 6 9 -6 11 -4 6 4 -5 7 -11 10 -14 7 -8 -9 -31
14 -26 27 3 9 51 12 172 10 92 -1 174 -2 182 -3z"/>
<path d="M2920 677 c0 -2 18 -18 40 -36 l39 -31 -1 35 c-1 34 -3 35 -40 35
-21 0 -38 -1 -38 -3z"/>
<path d="M0 530 c0 -13 46 -24 61 -14 8 4 9 3 5 -4 -5 -8 1 -12 18 -12 14 0
28 5 31 10 4 6 77 10 186 10 168 0 179 -1 179 -19 0 -10 -7 -24 -15 -31 -8 -7
-15 -18 -15 -26 0 -7 -5 -16 -12 -20 -7 -5 -9 -2 -4 7 4 8 1 6 -7 -4 -13 -16
-35 -18 -221 -18 -173 0 -206 -2 -206 -15 0 -12 35 -14 220 -14 129 0 220 4
220 9 0 5 6 16 13 23 6 7 31 39 55 71 l43 57 -276 0 c-173 0 -275 -4 -275 -10z"/>
<path d="M574 503 c-42 -58 -70 -97 -78 -110 -6 -10 59 -13 312 -13 l320 0 12
53 c7 28 17 60 22 71 7 13 6 21 -3 27 -8 5 -136 9 -286 9 l-272 0 -27 -37z
m111 7 c-3 -5 1 -10 9 -10 8 0 18 5 21 10 4 6 57 10 126 10 73 0 119 -4 119
-10 0 -5 5 -10 11 -10 5 0 7 5 4 10 -5 7 17 10 66 8 89 -4 105 -19 74 -74
l-20 -35 -278 -2 c-251 -2 -307 2 -262 19 8 4 13 10 10 14 -9 15 33 54 71 66
51 16 56 16 49 4z"/>
<path d="M728 503 c7 -3 16 -2 19 1 4 3 -2 6 -13 5 -11 0 -14 -3 -6 -6z"/>
<path d="M808 503 c6 -2 18 -2 25 0 6 3 1 5 -13 5 -14 0 -19 -2 -12 -5z"/>
<path d="M858 433 c23 -2 61 -2 85 0 23 2 4 4 -43 4 -47 0 -66 -2 -42 -4z"/>
<path d="M998 433 c7 -3 16 -2 19 1 4 3 -2 6 -13 5 -11 0 -14 -3 -6 -6z"/>
<path d="M1854 524 c3 -8 14 -44 23 -80 l17 -64 319 0 c314 0 319 0 306 19 -8
11 -32 47 -54 80 l-40 60 -289 1 c-258 0 -288 -2 -282 -16z m161 -14 c-3 -5
-1 -10 4 -10 6 0 11 5 11 10 0 6 50 10 130 10 80 0 130 -4 130 -10 0 -5 12
-10 28 -9 24 0 25 1 7 9 -15 6 -6 9 33 9 41 1 54 -3 59 -16 3 -10 15 -28 26
-40 15 -17 17 -23 6 -23 -12 0 -12 -2 1 -9 8 -6 18 -7 22 -5 4 3 8 0 8 -5 0
-6 -6 -11 -12 -12 -59 -3 -554 4 -561 8 -5 3 -4 9 3 13 8 5 8 11 -3 22 -9 9
-13 25 -10 41 5 26 8 27 65 27 37 0 57 -4 53 -10z"/>
<path d="M2380 506 c0 -2 7 -7 16 -10 8 -3 12 -2 9 4 -6 10 -25 14 -25 6z"/>
<path d="M2153 433 c15 -2 37 -2 50 0 12 2 0 4 -28 4 -27 0 -38 -2 -22 -4z"/>
<path d="M2507 487 c21 -29 48 -65 59 -80 l22 -27 206 0 c176 0 206 2 206 15
0 13 -29 15 -198 15 -184 0 -200 1 -216 19 -11 12 -15 25 -10 33 4 7 3 10 -1
5 -10 -9 -45 21 -45 38 0 18 381 19 392 2 6 -9 8 -9 8 1 0 15 42 16 58 0 9 -9
12 -7 12 10 l0 22 -266 0 -265 0 38 -53z"/>
<path d="M1755 499 c-96 -39 -214 -62 -290 -55 -77 6 -174 29 -219 52 -16 8
-30 13 -31 12 -1 -2 -9 -31 -17 -65 l-15 -63 330 0 c263 0 328 3 324 13 -2 7
-10 38 -17 70 -6 31 -12 57 -13 56 -1 0 -24 -9 -52 -20z m-480 -49 c13 0 35
-4 48 -9 13 -5 52 -12 87 -15 61 -5 93 -15 54 -17 -230 -9 -245 -8 -241 14 4
30 19 55 25 39 2 -7 14 -12 27 -12z m520 0 c0 -8 4 -21 8 -27 5 -8 3 -13 -5
-13 -66 -1 -229 -2 -252 -1 -48 2 -25 10 60 22 43 6 84 15 90 20 6 5 13 6 17
3 3 -3 14 -1 24 5 24 15 58 9 58 -9z"/>
<path d="M1268 433 c6 -2 18 -2 25 0 6 3 1 5 -13 5 -14 0 -19 -2 -12 -5z"/>
<path d="M408 503 c6 -2 18 -2 25 0 6 3 1 5 -13 5 -14 0 -19 -2 -12 -5z"/>
<path d="M2638 503 c12 -2 30 -2 40 0 9 3 -1 5 -23 4 -22 0 -30 -2 -17 -4z"/>
<path d="M328 433 c7 -3 16 -2 19 1 4 3 -2 6 -13 5 -11 0 -14 -3 -6 -6z"/>
<path d="M2893 433 c20 -2 54 -2 75 0 20 2 3 4 -38 4 -41 0 -58 -2 -37 -4z"/>
<path d="M0 350 c0 -10 173 -16 302 -12 48 2 57 0 52 -13 -4 -8 -10 -15 -14
-15 -4 0 -11 -8 -14 -17 -10 -28 -30 -59 -63 -97 l-30 -36 -117 0 c-71 0 -116
-4 -116 -10 0 -6 50 -10 129 -10 l128 0 43 63 c24 34 59 80 77 103 18 23 33
44 33 48 0 3 -92 6 -205 6 -130 0 -205 -4 -205 -10z"/>
<path d="M403 263 c-37 -53 -72 -103 -76 -110 -7 -11 61 -13 365 -13 l373 0
23 95 c12 52 25 101 28 110 5 13 -32 15 -319 15 l-326 0 -68 -97z m674 44
c-14 -76 -20 -97 -29 -97 -6 0 -8 -9 -5 -19 3 -14 -2 -21 -17 -25 -39 -10
-656 -7 -656 4 0 10 15 14 34 11 5 -1 6 6 2 15 -4 11 1 24 14 36 11 10 20 26
20 36 0 15 2 15 11 2 9 -12 10 -11 6 7 -3 13 0 21 6 20 6 -1 11 4 12 12 0 8 8
17 17 20 10 3 147 7 304 8 l286 3 -5 -33z"/>
<path d="M1176 338 c-10 -46 -38 -164 -42 -180 -5 -17 18 -18 376 -18 l382 0
-6 23 c-3 12 -14 61 -24 109 l-17 88 -332 0 -333 0 -4 -22z m641 -11 c11 -7
25 -75 24 -114 -1 -13 5 -23 12 -23 7 0 4 -7 -7 -15 -15 -11 -77 -14 -322 -15
-167 0 -315 2 -328 6 -22 5 -25 10 -21 42 2 21 8 50 14 65 6 15 10 33 8 40 -1
7 15 14 43 17 64 7 565 4 577 -3z"/>
<path d="M1905 343 c3 -10 10 -36 15 -58 5 -22 15 -62 22 -90 l14 -50 373 -3
373 -2 -29 37 c-16 21 -50 71 -77 111 l-49 72 -325 0 c-305 0 -324 -1 -317
-17z m640 -17 c8 -3 15 -14 15 -24 0 -11 7 -25 15 -32 8 -7 13 -16 10 -20 -3
-5 0 -12 6 -16 8 -5 9 -3 4 6 -5 9 -4 11 4 6 6 -4 20 -25 30 -47 l20 -40 -329
1 c-267 1 -331 4 -340 15 -7 8 -9 19 -5 24 3 6 -2 22 -12 37 -22 34 -28 68
-11 58 10 -6 11 -4 1 7 -7 7 -13 18 -13 24 0 11 576 12 605 1z"/>
<path d="M2683 250 l82 -110 118 0 c71 0 117 4 117 10 0 9 -147 16 -203 10
-22 -2 -58 39 -53 62 2 9 -1 15 -8 12 -16 -6 -79 93 -62 99 7 3 83 3 169 0
138 -4 157 -2 157 11 0 14 -25 16 -199 16 l-200 0 82 -110z"/>
<path d="M0 110 c0 -5 23 -10 51 -10 31 0 48 -4 44 -10 -3 -5 -1 -10 4 -10 6
0 11 5 11 10 0 6 5 10 11 10 5 0 7 -4 4 -10 -4 -6 7 -10 27 -10 27 -1 30 -2
16 -11 -10 -5 -18 -16 -18 -23 0 -8 -7 -17 -16 -20 -8 -3 -12 -11 -9 -16 4 -6
10 -10 15 -8 11 4 90 101 90 110 0 5 -52 8 -115 8 -70 0 -115 -4 -115 -10z"/>
<path d="M262 60 c-37 -53 -40 -60 -23 -60 11 0 25 9 31 20 6 11 15 18 21 15
5 -4 9 5 9 19 0 21 5 26 26 26 14 0 23 4 19 10 -3 6 1 10 10 10 9 0 13 -4 10
-10 -4 -7 104 -10 317 -11 178 -1 326 -1 329 -1 3 1 3 -17 -1 -38 -10 -55 12
-53 27 3 7 23 15 50 18 60 7 16 -15 17 -372 17 l-379 0 -42 -60z m696 33 c-32
-2 -84 -2 -115 0 -32 2 -6 3 57 3 63 0 89 -1 58 -3z"/>
<path d="M1116 82 c-3 -20 -9 -47 -12 -59 -5 -17 -2 -23 10 -23 14 0 22 29 17
62 0 4 7 4 16 1 11 -4 14 -3 9 5 -4 7 -2 12 4 12 6 0 8 5 5 10 -3 6 1 10 9 10
9 0 16 -4 16 -10 0 -6 122 -10 345 -10 l345 0 1 -42 c0 -33 2 -38 9 -23 7 17
9 17 9 3 1 -10 6 -18 11 -18 13 0 13 7 -2 69 l-12 51 -387 0 -387 -1 -6 -37z
m267 11 c-35 -2 -91 -2 -125 0 -35 2 -7 3 62 3 69 0 97 -1 63 -3z m409 0 c-40
-2 -103 -2 -140 0 -37 2 -4 3 73 3 77 0 107 -2 67 -3z"/>
<path d="M1960 118 c3 -27 40 -113 50 -116 13 -5 10 19 -6 62 -3 9 -1 16 6 16
6 0 8 5 5 10 -4 6 7 10 27 9 27 0 30 -2 13 -9 -16 -7 -17 -9 -3 -9 9 -1 20 4
23 9 3 6 12 10 18 10 7 0 6 -4 -3 -10 -10 -6 85 -10 278 -10 193 0 291 3 287
10 -3 6 4 10 17 10 18 0 20 -2 8 -10 -12 -8 -10 -10 8 -10 13 0 20 -4 17 -10
-3 -5 0 -8 7 -5 8 3 18 -7 26 -24 12 -26 39 -47 49 -38 2 2 -14 29 -34 60
l-37 57 -378 0 c-208 0 -378 -1 -378 -2z m633 -25 c-29 -2 -77 -2 -105 0 -29
2 -6 3 52 3 58 0 81 -1 53 -3z"/>
<path d="M2811 75 c18 -25 41 -53 52 -62 19 -17 19 -17 12 7 -4 14 -12 30 -17
37 -15 18 15 43 49 42 l28 -1 -30 -8 c-24 -6 -17 -8 33 -9 56 -1 62 1 62 19 0
19 -7 20 -111 20 l-110 0 32 -45z"/>
<path d="M33 83 c9 -2 25 -2 35 0 9 3 1 5 -18 5 -19 0 -27 -2 -17 -5z"/>
</g>
</svg>
