<?xml version="1.0" encoding="UTF-8"?>
<svg width="116px" height="116px" viewBox="0 0 116 116" version="1.1" xmlns="http://www.w3.org/2000/svg" xmlns:xlink="http://www.w3.org/1999/xlink">
    <title>Artboard</title>
    <g id="Artboard" stroke="none" stroke-width="1" fill="none" fill-rule="evenodd">
        <g id="mercurial-logo-color" transform="translate(14.541550, 25.999994)" fill="#24C1AB" fill-rule="nonzero">
            <path d="M39.5683,30.1534 L6.66694,10.4482 C5.11991,9.52104 3.74784,8.20162 2.63988,6.57563 C1.53192,4.94963 0.712846,3.05345 0.235882,1.01026 L0,0 L0.0236795,0.0174103 L32.8196,19.3731 C34.5471,20.3926 36.0574,21.8989 37.2294,23.771 C38.4014,25.6431 39.2024,27.829 39.5683,30.1534 L39.5683,30.1534 Z" id="Path"></path>
            <path d="M33.9716,63.2142 L16.3845,52.9503 C14.9476,52.1121 13.6707,50.9064 12.638,49.413 C11.6052,47.9195 10.8401,46.1721 10.3932,44.2861 C10.2789,43.804 10.1631,43.3155 10.0459,42.8206 L10.1681,42.8903 L10.1681,42.8961 L34.9343,57.3465 C35.3573,57.5933 35.8273,57.6901 36.2921,57.6261 C36.7569,57.5621 37.1982,57.3398 37.567,56.984 C37.9357,56.6282 38.2175,56.1528 38.3809,55.6107 C38.5443,55.0686 38.5829,54.481 38.4924,53.9134 C38.157,51.8079 37.4284,49.8286 36.3648,48.1335 C35.3011,46.4383 33.9319,45.0743 32.3664,44.1502 L11.3639,31.7526 C9.95048,30.9176 8.69347,29.7268 7.67327,28.2564 C6.65307,26.786 5.89215,25.0684 5.43916,23.2134 C5.29211,22.6117 5.1567,22.0514 5.04639,21.5847 L5.14033,21.637 L33.3515,38.2915 C35.9003,39.7961 38.1296,42.0169 39.8615,44.7767 C41.5934,47.5365 42.78,50.7588 43.3267,54.1867 C43.5647,55.6792 43.4633,57.2243 43.0338,58.6498 C42.6043,60.0753 41.8636,61.3255 40.894,62.2611 C39.9244,63.1968 38.7639,63.7813 37.5418,63.9495 C36.3197,64.1178 35.0838,63.8632 33.9716,63.2142 Z" id="Path"></path>
            <path d="M47.3486,30.1534 L80.25,10.4482 C81.797,9.52103 83.1691,8.20161 84.277,6.57562 C85.385,4.94963 86.2041,3.05344 86.681,1.01026 C86.7622,0.662664 86.8408,0.325912 86.9169,0 L86.8932,0.0174103 L54.0973,19.3731 C52.3698,20.3926 50.8595,21.8989 49.6875,23.771 C48.5155,25.6431 47.7145,27.829 47.3486,30.1534 L47.3486,30.1534 Z" id="Path"></path>
            <path d="M52.9451,63.2142 L70.5323,52.9503 C71.9691,52.1121 73.2461,50.9064 74.2788,49.413 C75.3116,47.9195 76.0767,46.1721 76.5237,44.2861 C76.6379,43.804 76.7536,43.3155 76.8709,42.8206 L76.7487,42.8903 L76.7487,42.8961 L51.9825,57.3465 C51.5595,57.5933 51.0895,57.6901 50.6247,57.6261 C50.1599,57.5621 49.7185,57.3398 49.3498,56.984 C48.981,56.6282 48.6992,56.1528 48.5359,55.6106 C48.3725,55.0685 48.3339,54.4809 48.4243,53.9133 C48.7597,51.8078 49.4883,49.8285 50.552,48.1334 C51.6156,46.4383 52.9848,45.0742 54.5502,44.1501 L75.5529,31.7525 C76.9663,30.9175 78.2233,29.7267 79.2435,28.2563 C80.2636,26.786 81.0246,25.0684 81.4775,23.2134 C81.6246,22.6117 81.76,22.0514 81.8703,21.5847 L81.7764,21.637 L53.5652,38.2914 C51.0164,39.7961 48.7871,42.0169 47.0552,44.7767 C45.3233,47.5365 44.1367,50.7588 43.59,54.1867 C43.352,55.6793 43.4534,57.2243 43.8829,58.6498 C44.3124,60.0753 45.0531,61.3255 46.0228,62.2612 C46.9924,63.1968 48.1528,63.7813 49.3749,63.9496 C50.5971,64.1178 51.833,63.8632 52.9451,63.2142 Z" id="Path"></path>
        </g>
    </g>
</svg>