<svg width="100" height="100" viewBox="0 0 100 100" fill="none" xmlns="http://www.w3.org/2000/svg">
<path d="M86.4954 31.5L76.4045 14.6818C75.7318 13.6727 74.7227 13 73.5455 13H26.4545C25.2773 13 24.1 13.6727 23.5955 14.6818L13.5045 31.5C13.1682 32.0045 13 32.5091 13 33.1818V41.0864C13 45.7955 15.5227 50 19.7273 52.1864V76.9091C19.7273 82.4591 24.2682 87 29.8182 87H70.1818C75.7318 87 80.2727 82.4591 80.2727 76.9091V52.1864C84.4773 50 87 45.7955 87 41.0864V33.1818C87 32.5091 86.8318 32.0045 86.4954 31.5ZM71.6955 19.7273L77.75 29.8182H69.5091L66.9864 19.7273H71.6955ZM53.3636 19.7273H59.9227L62.6136 29.8182H53.3636V19.7273ZM53.3636 36.5455H63.4545V41.5909C63.4545 44.45 61.2682 46.6364 58.4091 46.6364C55.55 46.6364 53.3636 44.45 53.3636 41.5909V36.5455ZM39.9091 19.7273H46.6364V29.8182H37.5545L39.9091 19.7273ZM36.5455 36.5455H46.6364V41.5909C46.6364 44.45 44.45 46.6364 41.5909 46.6364C38.7318 46.6364 36.5455 44.45 36.5455 41.5909V36.5455ZM28.3045 19.7273H33.0136L30.4909 29.8182H22.25L28.3045 19.7273ZM24.2682 46.6364C21.5773 46.1318 19.5591 43.7773 19.7273 41.0864V36.5455H29.8182V41.5909C29.8182 44.45 27.6318 46.6364 24.7727 46.6364C24.6045 46.6364 24.4364 46.6364 24.2682 46.6364ZM56.7273 80.2727H43.2727V66.8182H56.7273V80.2727ZM73.5455 76.9091C73.5455 78.7591 72.0318 80.2727 70.1818 80.2727H63.4545V63.4545C63.4545 61.6045 61.9409 60.0909 60.0909 60.0909H39.9091C38.0591 60.0909 36.5455 61.6045 36.5455 63.4545V80.2727H29.8182C27.9682 80.2727 26.4545 78.7591 26.4545 76.9091V53.1955C28.8091 52.8591 30.9955 51.85 32.6773 50.3364L33.1818 49.8318C37.7227 54.5409 45.1227 54.5409 49.8318 50L50 49.8318C54.5409 54.5409 61.9409 54.5409 66.65 50L66.8182 49.8318L67.3227 50.3364C69.0045 51.85 71.1909 52.8591 73.5455 53.1955V76.9091ZM80.2727 41.0864C80.4409 43.7773 78.4227 46.1318 75.7318 46.6364C74.3864 46.8045 72.8727 46.3 71.8636 45.2909C70.8545 44.2818 70.1818 42.9364 70.1818 41.5909V36.5455H80.2727V41.0864Z" fill="url(#paint0_linear)"/>
<defs>
<linearGradient id="paint0_linear" x1="50" y1="13" x2="50" y2="87" gradientUnits="userSpaceOnUse">
<stop stop-color="#DC1FFF"/>
<stop offset="1" stop-color="#03E1FF"/>
</linearGradient>
</defs>
</svg>
