<?xml version="1.0" encoding="utf-8"?>
<!-- Generator: Adobe Illustrator 25.4.1, SVG Export Plug-In . SVG Version: 6.00 Build 0)  -->
<svg version="1.1" id="Layer_1" xmlns="http://www.w3.org/2000/svg" xmlns:xlink="http://www.w3.org/1999/xlink" x="0px" y="0px"
	 viewBox="0 0 100 100" style="enable-background:new 0 0 100 100;" xml:space="preserve">
<style type="text/css">
	.st0{fill:#160527;}
	.st1{fill:url(#SVGID_1_);}
	.st2{fill:url(#SVGID_00000157992672504970028320000013827295070948714408_);}
	.st3{fill:url(#SVGID_00000083056923849605640530000003204866788529601963_);}
	.st4{fill:#FFFFFF;}
	.st5{fill:#A22A94;}
</style>
<rect class="st0" width="100" height="100"/>
<g>
	<linearGradient id="SVGID_1_" gradientUnits="userSpaceOnUse" x1="92.3047" y1="9.4016" x2="10.2465" y2="91.4599">
		<stop  offset="0" style="stop-color:#521050"/>
		<stop  offset="1" style="stop-color:#3F21F3"/>
	</linearGradient>
	<path class="st1" d="M89.3,52.1c-1.9,3.8-2.6,7.9-3.1,12c0,5.1-0.8,10-2.5,14.5C82,83,79.5,87,76.3,90.3
		c-9.7,10.2-24.7,11.2-36.3,4.4C20.9,83,10.2,58,11.7,34.8c0.5-3.3,1.7-6.5,3.2-9.5c1.5-3,3.3-5.7,5.3-8.3c1.7-2.2,3.6-4.2,5.7-6
		c2.1-1.8,4.3-3.4,6.6-4.8c10.6-6.2,23.8-7.2,34.8-2.1c2.4,1.1,4.8,2.4,6.9,4c2.2,1.6,4.2,3.4,6.1,5.5c2.1,2.2,4.2,4.6,6,7
		c1.5,2,2.7,4.2,3.7,6.6c0.9,2.4,1.6,5,1.9,7.6c0.7,5.3,0,10.8-1.9,15.7C89.8,51.1,89.5,51.6,89.3,52.1z"/>
	
		<linearGradient id="SVGID_00000137108940718667402580000016825421171121879989_" gradientUnits="userSpaceOnUse" x1="87.041" y1="11.0812" x2="6.2544" y2="91.8679">
		<stop  offset="0" style="stop-color:#E6255C"/>
		<stop  offset="1" style="stop-color:#8A2FE2"/>
	</linearGradient>
	<path style="fill:url(#SVGID_00000137108940718667402580000016825421171121879989_);" d="M14.5,74.6c1.4,1.2,2.9,2.2,4.5,1.9
		c5.9,0,11.6-1.4,17.5-1c12.5,1.4,23.8,7.9,36.4,7.1c5.2-0.5,10.1-2.4,14.7-6.9c1.9-1.6,3.7-3.4,5.2-5.4c1.6-2,2.9-4.1,4.1-6.4
		c4.4-8.6,2.2-18.8-2.2-26.7c-1.5-2.8-3.4-5.4-5.5-7.7c-2.1-2.3-4.4-4.4-6.9-6.3c-2.3-1.7-4.7-3.2-7.2-4.7c-2.5-1.4-5.1-2.7-7.8-3.8
		c-13.7-5.7-29.8-7.7-43.5-1.7c-2.3,1-4.5,2.2-6.6,3.7C13,19.5,9.3,23.2,6.6,27.5c-2.8,4.3-4.6,9.3-5.4,14.8
		c-1.3,9.6,0.3,20.2,6.7,26.9C9.7,71.3,11.9,73.1,14.5,74.6z"/>
	
		<linearGradient id="SVGID_00000025444419624871583310000010280270976297767822_" gradientUnits="userSpaceOnUse" x1="30.7745" y1="25.6715" x2="88.2918" y2="83.1888">
		<stop  offset="0" style="stop-color:#E6255C"/>
		<stop  offset="1" style="stop-color:#FBB03B"/>
	</linearGradient>
	<path style="fill:url(#SVGID_00000025444419624871583310000010280270976297767822_);" d="M19.7,60c-3.5,8.2-4.8,19.9,2.7,26.4
		c15.7,13,36.3,8.2,51.1-3.1c5-3.6,9.6-7.8,13.4-12.2c1.9-2.3,3.5-4.8,5-7.4c2.9-5.2,4.9-11.1,5.8-17.3c0.3-2.5,0.4-5,0.3-7.5
		c-0.3-7.5-2.7-14.9-6.9-21.3c-2.6-3.7-5.9-7-9.7-9.6c-1.9-1.3-3.8-2.4-5.9-3.2c-3.3-0.9-6.5-1.2-9.5-1c-5.6,0.8-10.7,2.9-15.2,6
		c-2.2,1.5-4.3,3.3-6.3,5.3c-3.4,3.4-6.4,7.3-9.1,11.4c-1.4,2.1-2.6,4.2-3.9,6.4c-3.7,6.5-6.9,13.7-9.7,20.9
		C21,55.9,20.4,58,19.7,60z"/>
</g>
<g>
	<g>
		<g>
			<path class="st4" d="M23.9,51.2c-3.8,0-6.4-2.7-6.4-6.5v-9.2c0-0.9-0.5-1.5-1.2-1.5S15,34.6,15,35.5v13c0,1.4-1.2,2.6-2.6,2.6
				c-1.4,0-2.6-1.2-2.6-2.6v-13c0-3.8,2.6-6.5,6.4-6.5c3.8,0,6.4,2.7,6.4,6.5v9.2c0,0.9,0.5,1.5,1.2,1.5s1.2-0.6,1.2-1.5v-9.2
				c0-3.8,2.6-6.5,6.4-6.5s6.4,2.7,6.4,6.5v13c0,1.4-1.2,2.6-2.6,2.6c-1.4,0-2.6-1.2-2.6-2.6v-13c0-0.9-0.5-1.5-1.2-1.5
				s-1.2,0.6-1.2,1.5v9.2C30.3,48.5,27.7,51.2,23.9,51.2z"/>
			<path class="st4" d="M31.6,29.4c3.5,0,6.1,2.4,6.1,6.2v13c0,1.2-1,2.2-2.2,2.2c-1.2,0-2.2-1-2.2-2.2v-13c0-1.1-0.6-1.8-1.6-1.8
				S30,34.4,30,35.5v9.2c0,3.8-2.6,6.2-6.1,6.2c-3.5,0-6.1-2.4-6.1-6.2v-9.2c0-1.1-0.6-1.8-1.6-1.8c-0.9,0-1.6,0.7-1.6,1.8v13
				c0,1.2-1,2.2-2.2,2.2c-1.2,0-2.2-1-2.2-2.2v-13c0-3.8,2.6-6.2,6.1-6.2c3.5,0,6.1,2.4,6.1,6.2v9.2c0,1.1,0.6,1.8,1.6,1.8
				c0.9,0,1.6-0.7,1.6-1.8v-9.2C25.5,31.8,28.1,29.4,31.6,29.4 M31.6,28.7c-4,0-6.8,2.8-6.8,6.9v9.2c0,0.3-0.1,1.1-0.9,1.1
				c-0.8,0-0.9-0.9-0.9-1.1v-9.2c0-4-2.8-6.9-6.8-6.9c-4,0-6.8,2.8-6.8,6.9v13c0,1.6,1.3,2.9,2.9,2.9c1.6,0,2.9-1.3,2.9-2.9v-13
				c0-0.3,0.1-1.1,0.9-1.1c0.8,0,0.9,0.9,0.9,1.1v9.2c0,4,2.8,6.9,6.8,6.9c4,0,6.8-2.8,6.8-6.9v-9.2c0-0.3,0.1-1.1,0.9-1.1
				s0.9,0.9,0.9,1.1v13c0,1.6,1.3,2.9,2.9,2.9c1.6,0,2.9-1.3,2.9-2.9v-13C38.3,31.5,35.6,28.7,31.6,28.7L31.6,28.7z"/>
		</g>
		<g>
			<path class="st4" d="M42.5,50.8c-1.2,0-2.1-1-2.1-2.1V31.6c0-1.2,1-2.1,2.1-2.1h10.7c1.4,0,2.5,1.1,2.5,2.5s-1.1,2.5-2.5,2.5
				h-7.6v3.2h6.8c1.4,0,2.5,1.1,2.5,2.5s-1.1,2.5-2.5,2.5h-6.8v3.2h7.6c1.4,0,2.5,1.1,2.5,2.5s-1.1,2.5-2.5,2.5H42.5z"/>
			<path class="st4" d="M53.2,29.8c1.2,0,2.1,1,2.1,2.1c0,1.2-1,2.1-2.1,2.1h-8V38h7.1c1.2,0,2.1,1,2.1,2.1c0,1.2-1,2.1-2.1,2.1
				h-7.1v3.9h8c1.2,0,2.1,1,2.1,2.1c0,1.2-1,2.1-2.1,2.1H42.5c-1,0-1.8-0.8-1.8-1.8V31.6c0-1,0.8-1.8,1.8-1.8H53.2 M53.2,29.1H42.5
				c-1.4,0-2.5,1.1-2.5,2.5v17.1c0,1.4,1.1,2.5,2.5,2.5h10.7c1.6,0,2.8-1.3,2.8-2.8c0-1.6-1.3-2.8-2.8-2.8h-7.3v-2.5h6.4
				c1.6,0,2.8-1.3,2.8-2.8c0-1.6-1.3-2.8-2.8-2.8h-6.4v-2.5h7.3c1.6,0,2.8-1.3,2.8-2.8C56.1,30.4,54.8,29.1,53.2,29.1L53.2,29.1z"/>
		</g>
		<g>
			<path class="st4" d="M65.8,51.1c-1.4,0-2.6-1.2-2.6-2.6V34.4h-4.5c-1.4,0-2.5-1.1-2.5-2.5s1.1-2.5,2.5-2.5h14.2
				c1.4,0,2.5,1.1,2.5,2.5s-1.1,2.5-2.5,2.5h-4.5v14.1C68.4,50,67.2,51.1,65.8,51.1z"/>
			<path class="st4" d="M72.9,29.8c1.2,0,2.1,1,2.1,2.1c0,1.2-1,2.1-2.1,2.1H68v14.5c0,1.2-1,2.2-2.2,2.2s-2.2-1-2.2-2.2V34.1h-4.9
				c-1.2,0-2.1-1-2.1-2.1c0-1.2,1-2.1,2.1-2.1H72.9 M72.9,29.1H58.7c-1.6,0-2.8,1.3-2.8,2.8c0,1.6,1.3,2.8,2.8,2.8h4.2v13.8
				c0,1.6,1.3,2.9,2.9,2.9s2.9-1.3,2.9-2.9V34.8h4.2c1.6,0,2.8-1.3,2.8-2.8C75.7,30.4,74.5,29.1,72.9,29.1L72.9,29.1z"/>
		</g>
		<g>
			<path class="st4" d="M90.3,51.1c-1.4,0-2.6-1.2-2.6-2.6v-4.2h-4.6c-1.4,0-2.5-1.1-2.5-2.5s1.1-2.5,2.5-2.5h4.6v-1.5
				c0-2.3-1.5-3.8-3.7-3.8c-2.2,0-3.7,1.5-3.7,3.8v10.7c0,1.4-1.2,2.6-2.6,2.6s-2.6-1.2-2.6-2.6V37.8c0-5,3.8-8.8,8.9-8.8
				c5,0,8.9,3.8,8.9,8.8v10.7C92.9,50,91.7,51.1,90.3,51.1z"/>
			<path class="st4" d="M84,29.4c4.8,0,8.5,3.6,8.5,8.5v10.7c0,1.2-1,2.2-2.2,2.2c-1.2,0-2.2-1-2.2-2.2V44h-5c-1.2,0-2.1-1-2.1-2.1
				c0-1.2,1-2.1,2.1-2.1h5v-1.8c0-2.5-1.7-4.2-4-4.2c-2.3,0-4,1.7-4,4.2v10.7c0,1.2-1,2.2-2.2,2.2c-1.2,0-2.2-1-2.2-2.2V37.8
				C75.5,33,79.3,29.4,84,29.4 M84,28.7c-5.2,0-9.2,3.9-9.2,9.2v10.7c0,1.6,1.3,2.9,2.9,2.9c1.6,0,2.9-1.3,2.9-2.9v-5.1
				c0.5,0.8,1.4,1.2,2.4,1.2h4.3v3.9c0,1.6,1.3,2.9,2.9,2.9c1.6,0,2.9-1.3,2.9-2.9V37.8C93.3,32.6,89.3,28.7,84,28.7L84,28.7z
				 M80.7,40.2v-2.4c0-2.1,1.3-3.5,3.3-3.5c2,0,3.3,1.4,3.3,3.5V39h-4.3C82.1,39,81.2,39.5,80.7,40.2L80.7,40.2z"/>
		</g>
		<g>
			<path class="st4" d="M12.1,71c-1.1,0-2.1-1-2.1-2.1c0-1.1,1-2.1,2.1-2.1h6.1c0.8,0,1.4-0.5,1.4-1.2c0-0.7-0.5-1.2-1.4-1.2H15
				c-3.2,0-5.7-2.3-5.7-5.4c0-3.1,2.4-5.5,5.7-5.5h6.2c1.1,0,2.1,1,2.1,2.1c0,1.1-1,2.1-2.1,2.1H15c-0.8,0-1.4,0.5-1.4,1.2
				c0,0.7,0.5,1.2,1.4,1.2h3.2c3.2,0,5.7,2.3,5.7,5.4c0,3.1-2.4,5.5-5.7,5.5H12.1z"/>
			<path class="st4" d="M21.2,53.8c1,0,1.8,0.8,1.8,1.8c0,1-0.8,1.8-1.8,1.8H15c-1,0-1.7,0.7-1.7,1.6c0,0.9,0.7,1.6,1.7,1.6h3.2
				c3.2,0,5.3,2.3,5.3,5.1c0,2.8-2.2,5.1-5.3,5.1h-6.2c-1,0-1.8-0.8-1.8-1.8c0-1,0.8-1.8,1.8-1.8h6.1c1,0,1.7-0.7,1.7-1.6
				c0-0.9-0.7-1.6-1.7-1.6H15c-3.2,0-5.3-2.3-5.3-5.1c0-2.8,2.2-5.1,5.3-5.1H21.2 M21.2,53.1H15c-3.4,0-6,2.5-6,5.8
				c0,3.3,2.6,5.8,6,5.8h3.2c0.6,0,1,0.3,1,0.9c0,0.5-0.4,0.9-1,0.9h-6.1c-1.4,0-2.5,1.1-2.5,2.5c0,1.4,1.1,2.5,2.5,2.5h6.2
				c3.4,0,6-2.5,6-5.8c0-3.3-2.6-5.8-6-5.8H15c-0.6,0-1-0.3-1-0.9c0-0.5,0.4-0.9,1-0.9h6.1c1.4,0,2.5-1.1,2.5-2.5
				C23.6,54.2,22.5,53.1,21.2,53.1L21.2,53.1z"/>
		</g>
		<g>
			<path class="st4" d="M37.7,71.3c-1.2,0-2.2-1-2.2-2.2v-3.4h-3.8c-1.1,0-2.1-1-2.1-2.1c0-1.2,0.9-2.1,2.1-2.1h3.8v-1.2
				c0-1.8-1.2-3.1-3-3.1s-3,1.2-3,3.1v8.8c0,1.2-1,2.2-2.2,2.2s-2.2-1-2.2-2.2v-8.8c0-4.2,3.1-7.3,7.3-7.3s7.3,3.1,7.3,7.3v8.8
				C39.9,70.4,38.9,71.3,37.7,71.3z"/>
			<path class="st4" d="M32.6,53.4c3.9,0,7,3,7,7v8.8c0,1-0.8,1.8-1.8,1.8c-1,0-1.8-0.8-1.8-1.8v-3.8h-4.1c-1,0-1.8-0.8-1.8-1.8
				c0-1,0.8-1.8,1.8-1.8h4.1v-1.5c0-2.1-1.4-3.4-3.3-3.4c-1.9,0-3.3,1.4-3.3,3.4v8.8c0,1-0.8,1.8-1.8,1.8c-1,0-1.8-0.8-1.8-1.8v-8.8
				C25.6,56.4,28.6,53.4,32.6,53.4 M32.6,52.7c-4.4,0-7.7,3.3-7.7,7.6v8.8c0,1.4,1.1,2.5,2.5,2.5c1.4,0,2.5-1.1,2.5-2.5v-3.8
				c0.4,0.5,1.1,0.8,1.8,0.8h3.4v3.1c0,1.4,1.1,2.5,2.5,2.5c1.4,0,2.5-1.1,2.5-2.5v-8.8C40.2,56,36.9,52.7,32.6,52.7L32.6,52.7z
				 M29.9,62v-1.6c0-1.7,1-2.7,2.6-2.7c1.6,0,2.6,1.1,2.6,2.7v0.8h-3.4C31,61.2,30.4,61.5,29.9,62L29.9,62z"/>
		</g>
		<g>
			<path class="st4" d="M43.9,71.3c-1.2,0-2.2-1-2.2-2.2V55.2c0-1,0.8-1.8,1.8-1.8h8.6c1.1,0,2.1,1,2.1,2.1c0,1.1-1,2.1-2.1,2.1h-6
				v3.1h5.3c1.1,0,2.1,1,2.1,2.1c0,1.1-1,2.1-2.1,2.1h-5.3v4.2C46.1,70.4,45.1,71.3,43.9,71.3z"/>
			<path class="st4" d="M52.1,53.8c1,0,1.8,0.8,1.8,1.8c0,1-0.8,1.8-1.8,1.8h-6.4v3.8h5.7c1,0,1.8,0.8,1.8,1.8c0,1-0.8,1.8-1.8,1.8
				h-5.7v4.5c0,1-0.8,1.8-1.8,1.8c-1,0-1.8-0.8-1.8-1.8V55.2c0-0.8,0.7-1.5,1.5-1.5H52.1 M52.1,53.1h-8.6c-1.2,0-2.2,1-2.2,2.2v13.9
				c0,1.4,1.1,2.5,2.5,2.5s2.5-1.1,2.5-2.5v-3.8h5c1.4,0,2.5-1.1,2.5-2.5c0-1.4-1.1-2.5-2.5-2.5h-5V58h5.7c1.4,0,2.5-1.1,2.5-2.5
				C54.6,54.2,53.5,53.1,52.1,53.1L52.1,53.1z"/>
		</g>
		<g>
			<path class="st4" d="M67.5,71.3c-1.2,0-2.2-1-2.2-2.2v-3.4h-3.8c-1.1,0-2.1-1-2.1-2.1c0-1.1,1-2.1,2.1-2.1h3.8v-1.2
				c0-1.8-1.2-3.1-3-3.1c-1.8,0-3,1.2-3,3.1v8.8c0,1.2-1,2.2-2.2,2.2s-2.2-1-2.2-2.2v-8.8c0-4.2,3.1-7.3,7.3-7.3
				c4.2,0,7.3,3.1,7.3,7.3v8.8C69.7,70.4,68.7,71.3,67.5,71.3z"/>
			<path class="st4" d="M62.4,53.4c3.9,0,7,3,7,7v8.8c0,1-0.8,1.8-1.8,1.8s-1.8-0.8-1.8-1.8v-3.8h-4.1c-1,0-1.8-0.8-1.8-1.8
				c0-1,0.8-1.8,1.8-1.8h4.1v-1.5c0-2.1-1.4-3.4-3.3-3.4c-1.9,0-3.3,1.4-3.3,3.4v8.8c0,1-0.8,1.8-1.8,1.8c-1,0-1.8-0.8-1.8-1.8v-8.8
				C55.4,56.4,58.5,53.4,62.4,53.4 M62.4,52.7c-4.4,0-7.7,3.3-7.7,7.6v8.8c0,1.4,1.1,2.5,2.5,2.5c1.4,0,2.5-1.1,2.5-2.5v-3.8
				c0.4,0.5,1.1,0.8,1.8,0.8H65v3.1c0,1.4,1.1,2.5,2.5,2.5s2.5-1.1,2.5-2.5v-8.8C70.1,56,66.8,52.7,62.4,52.7L62.4,52.7z M59.8,62
				v-1.6c0-1.7,1-2.7,2.6-2.7c1.6,0,2.6,1.1,2.6,2.7v0.8h-3.4C60.9,61.2,60.2,61.5,59.8,62L59.8,62z"/>
		</g>
		<g>
			<path class="st4" d="M73.7,71.3c-1.2,0-2.2-1-2.2-2.2V55.2c0-1,0.8-1.8,1.8-1.8H81c3.1,0,5.7,2.6,5.7,5.8c0,2.3-1.4,4.4-3.5,5.3
				l2.9,3.2c0.4,0.4,0.6,1,0.6,1.6c0,0.6-0.3,1.1-0.7,1.5c-0.4,0.4-0.9,0.5-1.5,0.5c-0.6,0-1.2-0.3-1.6-0.7l-5.7-6.4
				c-0.3-0.4-0.5-0.9-0.5-1.4c0-1.1,0.9-2,2-2h2c1,0,1.7-0.7,1.7-1.6s-0.7-1.6-1.7-1.6h-4.7v11.5C75.9,70.4,74.9,71.3,73.7,71.3z"/>
			<path class="st4" d="M81,53.8c2.9,0,5.3,2.4,5.3,5.4c0,2.4-1.6,4.5-3.8,5.2l3.3,3.6c0.7,0.7,0.6,1.9-0.1,2.6
				c-0.3,0.3-0.8,0.5-1.2,0.5c-0.5,0-1-0.2-1.4-0.6L77.4,64c-0.2-0.3-0.4-0.7-0.4-1.1c0-0.9,0.7-1.6,1.6-1.6h2c1.2,0,2.1-0.9,2.1-2
				c0-1.1-0.9-2-2.1-2h-5.1v11.9c0,1-0.8,1.8-1.8,1.8c-1,0-1.8-0.8-1.8-1.8V55.2c0-0.8,0.7-1.5,1.5-1.5H81 M81,53.1h-7.7
				c-1.2,0-2.2,1-2.2,2.2v13.9c0,1.4,1.1,2.5,2.5,2.5s2.5-1.1,2.5-2.5V58h4.4c0.8,0,1.4,0.6,1.4,1.3c0,0.7-0.6,1.3-1.4,1.3h-2
				c-1.3,0-2.3,1-2.3,2.3c0,0.6,0.2,1.1,0.6,1.6l5.7,6.4c0.5,0.5,1.2,0.8,1.9,0.8c0.6,0,1.2-0.2,1.7-0.6c0.5-0.4,0.8-1.1,0.8-1.7
				c0-0.7-0.2-1.3-0.7-1.8l-2.6-2.9c2-1,3.3-3.1,3.3-5.4C87,55.8,84.3,53.1,81,53.1L81,53.1z"/>
		</g>
		<g>
			<path class="st4" d="M90.4,71.3c-1.2,0-2.2-1-2.2-2.2V55.3c0-1.2,1-2.2,2.2-2.2s2.2,1,2.2,2.2v13.8
				C92.6,70.4,91.6,71.3,90.4,71.3z"/>
			<path class="st4" d="M90.4,53.5c1,0,1.8,0.8,1.8,1.8v13.8c0,1-0.8,1.8-1.8,1.8c-1,0-1.8-0.8-1.8-1.8V55.3
				C88.5,54.3,89.4,53.5,90.4,53.5 M90.4,52.8c-1.4,0-2.5,1.1-2.5,2.5v13.8c0,1.4,1.1,2.5,2.5,2.5c1.4,0,2.5-1.1,2.5-2.5V55.3
				C92.9,53.9,91.8,52.8,90.4,52.8L90.4,52.8z"/>
		</g>
	</g>
	<g>
		<g>
			<path class="st0" d="M23.6,50.7c-3.7,0-6.2-2.6-6.2-6.3v-9.2c0-1-0.6-1.6-1.4-1.6c-0.9,0-1.4,0.6-1.4,1.6v13
				c0,1.3-1.1,2.4-2.4,2.4s-2.4-1.1-2.4-2.4v-13c0-3.7,2.6-6.3,6.2-6.3s6.2,2.6,6.2,6.3v9.2c0,1,0.6,1.6,1.4,1.6
				c0.9,0,1.4-0.6,1.4-1.6v-9.2c0-3.7,2.6-6.3,6.2-6.3c3.7,0,6.2,2.6,6.2,6.3v13c0,1.3-1.1,2.4-2.4,2.4s-2.4-1.1-2.4-2.4v-13
				c0-1-0.6-1.6-1.4-1.6s-1.4,0.6-1.4,1.6v9.2C29.8,48.1,27.2,50.7,23.6,50.7z"/>
			<path class="st5" d="M31.2,29c3.5,0,6.1,2.4,6.1,6.2v13c0,1.2-1,2.2-2.2,2.2c-1.2,0-2.2-1-2.2-2.2v-13c0-1.1-0.6-1.8-1.6-1.8
				s-1.6,0.7-1.6,1.8v9.2c0,3.8-2.6,6.2-6.1,6.2c-3.5,0-6.1-2.4-6.1-6.2v-9.2c0-1.1-0.6-1.8-1.6-1.8c-0.9,0-1.6,0.7-1.6,1.8v13
				c0,1.2-1,2.2-2.2,2.2c-1.2,0-2.2-1-2.2-2.2v-13c0-3.8,2.6-6.2,6.1-6.2c3.5,0,6.1,2.4,6.1,6.2v9.2c0,1.1,0.6,1.8,1.6,1.8
				c0.9,0,1.6-0.7,1.6-1.8v-9.2C25.2,31.4,27.7,29,31.2,29 M31.2,28.7c-3.8,0-6.4,2.7-6.4,6.5v9.2c0,0.9-0.5,1.5-1.2,1.5
				c-0.8,0-1.2-0.6-1.2-1.5v-9.2c0-3.8-2.6-6.5-6.4-6.5c-3.8,0-6.4,2.7-6.4,6.5v13c0,1.4,1.2,2.6,2.6,2.6c1.4,0,2.6-1.2,2.6-2.6v-13
				c0-0.9,0.5-1.5,1.2-1.5s1.2,0.6,1.2,1.5v9.2c0,3.8,2.6,6.5,6.4,6.5c3.8,0,6.4-2.7,6.4-6.5v-9.2c0-0.9,0.5-1.5,1.2-1.5
				s1.2,0.6,1.2,1.5v13c0,1.4,1.2,2.6,2.6,2.6c1.4,0,2.6-1.2,2.6-2.6v-13C37.6,31.3,35,28.7,31.2,28.7L31.2,28.7z"/>
		</g>
		<g>
			<path class="st0" d="M42.2,50.2c-1.1,0-2-0.9-2-2V31.2c0-1.1,0.9-2,2-2h10.7c1.3,0,2.3,1.1,2.3,2.3s-1.1,2.3-2.3,2.3h-7.8v3.5H52
				c1.3,0,2.3,1.1,2.3,2.3s-1.1,2.3-2.3,2.3h-6.9v3.5h7.8c1.3,0,2.3,1.1,2.3,2.3s-1.1,2.3-2.3,2.3H42.2z"/>
			<path class="st5" d="M52.9,29.4c1.2,0,2.1,1,2.1,2.1c0,1.2-1,2.1-2.1,2.1h-8v3.9H52c1.2,0,2.1,1,2.1,2.1c0,1.2-1,2.1-2.1,2.1
				h-7.1v3.9h8c1.2,0,2.1,1,2.1,2.1c0,1.2-1,2.1-2.1,2.1H42.2c-1,0-1.8-0.8-1.8-1.8V31.2c0-1,0.8-1.8,1.8-1.8H52.9 M52.9,29.1H42.2
				c-1.2,0-2.1,1-2.1,2.1v17.1c0,1.2,1,2.1,2.1,2.1h10.7c1.4,0,2.5-1.1,2.5-2.5c0-1.4-1.1-2.5-2.5-2.5h-7.6v-3.2H52
				c1.4,0,2.5-1.1,2.5-2.5c0-1.4-1.1-2.5-2.5-2.5h-6.8v-3.2h7.6c1.4,0,2.5-1.1,2.5-2.5C55.4,30.2,54.2,29.1,52.9,29.1L52.9,29.1z"/>
		</g>
		<g>
			<path class="st0" d="M65.4,50.6c-1.3,0-2.4-1.1-2.4-2.4V33.9h-4.7c-1.3,0-2.3-1.1-2.3-2.3s1.1-2.3,2.3-2.3h14.2
				c1.3,0,2.3,1.1,2.3,2.3s-1.1,2.3-2.3,2.3h-4.7v14.3C67.8,49.5,66.8,50.6,65.4,50.6z"/>
			<path class="st5" d="M72.5,29.4c1.2,0,2.1,1,2.1,2.1c0,1.2-1,2.1-2.1,2.1h-4.9v14.5c0,1.2-1,2.2-2.2,2.2s-2.2-1-2.2-2.2V33.7
				h-4.9c-1.2,0-2.1-1-2.1-2.1c0-1.2,1-2.1,2.1-2.1H72.5 M72.5,29.1H58.3c-1.4,0-2.5,1.1-2.5,2.5c0,1.4,1.1,2.5,2.5,2.5h4.5v14.1
				c0,1.4,1.2,2.6,2.6,2.6c1.4,0,2.6-1.2,2.6-2.6V34.1h4.5c1.4,0,2.5-1.1,2.5-2.5C75,30.2,73.9,29.1,72.5,29.1L72.5,29.1z"/>
		</g>
		<g>
			<path class="st0" d="M90,50.6c-1.3,0-2.4-1.1-2.4-2.4v-4.4h-4.8c-1.3,0-2.3-1.1-2.3-2.3s1.1-2.3,2.3-2.3h4.8v-1.7
				c0-2.4-1.5-4-3.8-4c-2.3,0-3.8,1.6-3.8,4v10.7c0,1.3-1.1,2.4-2.4,2.4c-1.3,0-2.4-1.1-2.4-2.4V37.5c0-4.9,3.7-8.6,8.7-8.6
				c4.9,0,8.7,3.7,8.7,8.6v10.7C92.4,49.5,91.3,50.6,90,50.6z"/>
			<path class="st5" d="M83.7,29c4.8,0,8.5,3.6,8.5,8.5v10.7c0,1.2-1,2.2-2.2,2.2c-1.2,0-2.2-1-2.2-2.2v-4.6h-5
				c-1.2,0-2.1-1-2.1-2.1c0-1.2,1-2.1,2.1-2.1h5v-1.8c0-2.5-1.7-4.2-4-4.2c-2.3,0-4,1.7-4,4.2v10.7c0,1.2-1,2.2-2.2,2.2
				c-1.2,0-2.2-1-2.2-2.2V37.5C75.2,32.6,78.9,29,83.7,29 M83.7,28.7c-5,0-8.9,3.8-8.9,8.8v10.7c0,1.4,1.2,2.6,2.6,2.6
				c1.4,0,2.6-1.2,2.6-2.6V37.5c0-2.3,1.5-3.8,3.7-3.8c2.2,0,3.7,1.5,3.7,3.8V39h-4.6c-1.4,0-2.5,1.1-2.5,2.5c0,1.4,1.1,2.5,2.5,2.5
				h4.6v4.2c0,1.4,1.2,2.6,2.6,2.6c1.4,0,2.6-1.2,2.6-2.6V37.5C92.6,32.5,88.7,28.7,83.7,28.7L83.7,28.7z"/>
		</g>
		<g>
			<path class="st0" d="M11.8,70.5c-1,0-1.9-0.9-1.9-1.9c0-1,0.9-1.9,1.9-1.9h6.1c0.9,0,1.5-0.6,1.5-1.4c0-0.8-0.6-1.4-1.5-1.4h-3.2
				c-3.1,0-5.5-2.3-5.5-5.3c0-3,2.4-5.3,5.5-5.3h6.2c1,0,1.9,0.9,1.9,1.9c0,1-0.9,1.9-1.9,1.9h-6.1c-0.9,0-1.5,0.6-1.5,1.4
				c0,0.8,0.6,1.4,1.5,1.4h3.2c3.1,0,5.5,2.3,5.5,5.3c0,3-2.4,5.3-5.5,5.3H11.8z"/>
			<path class="st5" d="M20.8,53.4c1,0,1.8,0.8,1.8,1.8c0,1-0.8,1.8-1.8,1.8h-6.1c-1,0-1.7,0.7-1.7,1.6c0,0.9,0.7,1.6,1.7,1.6h3.2
				c3.2,0,5.3,2.3,5.3,5.1c0,2.8-2.2,5.1-5.3,5.1h-6.2c-1,0-1.8-0.8-1.8-1.8c0-1,0.8-1.8,1.8-1.8h6.1c1,0,1.7-0.7,1.7-1.6
				c0-0.9-0.7-1.6-1.7-1.6h-3.2c-3.2,0-5.3-2.3-5.3-5.1c0-2.8,2.2-5.1,5.3-5.1H20.8 M20.8,53.1h-6.2c-3.2,0-5.7,2.4-5.7,5.5
				c0,3.1,2.4,5.4,5.7,5.4h3.2c0.8,0,1.4,0.5,1.4,1.2c0,0.7-0.6,1.2-1.4,1.2h-6.1c-1.1,0-2.1,1-2.1,2.1c0,1.1,1,2.1,2.1,2.1h6.2
				c3.2,0,5.7-2.4,5.7-5.5c0-3.1-2.4-5.4-5.7-5.4h-3.2c-0.8,0-1.4-0.5-1.4-1.2c0-0.7,0.6-1.2,1.4-1.2h6.1c1.1,0,2.1-1,2.1-2.1
				C22.9,54,21.9,53.1,20.8,53.1L20.8,53.1z"/>
		</g>
		<g>
			<path class="st0" d="M37.3,70.8c-1.1,0-2-0.9-2-2v-3.6h-3.9c-1,0-1.9-0.9-1.9-1.9s0.9-1.9,1.9-1.9h3.9V60c0-1.9-1.3-3.3-3.1-3.3
				c-1.9,0-3.1,1.3-3.1,3.3v8.8c0,1.1-0.9,2-2,2s-2-0.9-2-2V60c0-4.1,3.1-7.1,7.2-7.1s7.2,3.1,7.2,7.1v8.8
				C39.4,69.9,38.5,70.8,37.3,70.8z"/>
			<path class="st5" d="M32.2,53.1c3.9,0,7,3,7,7v8.8c0,1-0.8,1.8-1.8,1.8c-1,0-1.8-0.8-1.8-1.8V65h-4.1c-1,0-1.8-0.8-1.8-1.8
				c0-1,0.8-1.8,1.8-1.8h4.1V60c0-2.1-1.4-3.4-3.3-3.4c-1.9,0-3.3,1.4-3.3,3.4v8.8c0,1-0.8,1.8-1.8,1.8c-1,0-1.8-0.8-1.8-1.8V60
				C25.2,56,28.3,53.1,32.2,53.1 M32.2,52.7c-4.2,0-7.3,3.1-7.3,7.3v8.8c0,1.2,1,2.2,2.2,2.2c1.2,0,2.2-1,2.2-2.2V60
				c0-1.8,1.2-3.1,3-3.1c1.8,0,3,1.2,3,3.1v1.2h-3.8c-1.1,0-2.1,1-2.1,2.1c0,1.1,1,2.1,2.1,2.1h3.8v3.4c0,1.2,1,2.2,2.2,2.2
				c1.2,0,2.2-1,2.2-2.2V60C39.5,55.9,36.4,52.7,32.2,52.7L32.2,52.7z"/>
		</g>
		<g>
			<path class="st0" d="M43.5,70.8c-1.1,0-2-0.9-2-2V54.9c0-0.9,0.8-1.6,1.6-1.6h8.6c1,0,1.9,0.9,1.9,1.9c0,1-0.9,1.9-1.9,1.9h-6.2
				v3.5H51c1,0,1.9,0.9,1.9,1.9c0,1-0.9,1.9-1.9,1.9h-5.5v4.4C45.5,69.9,44.6,70.8,43.5,70.8z"/>
			<path class="st5" d="M51.7,53.4c1,0,1.8,0.8,1.8,1.8c0,1-0.8,1.8-1.8,1.8h-6.4v3.8H51c1,0,1.8,0.8,1.8,1.8S52,64.3,51,64.3h-5.7
				v4.5c0,1-0.8,1.8-1.8,1.8c-1,0-1.8-0.8-1.8-1.8V54.9c0-0.8,0.7-1.5,1.5-1.5H51.7 M51.7,53.1h-8.6c-1,0-1.8,0.8-1.8,1.8v13.9
				c0,1.2,1,2.2,2.2,2.2s2.2-1,2.2-2.2v-4.2H51c1.1,0,2.1-1,2.1-2.1c0-1.1-1-2.1-2.1-2.1h-5.3v-3.1h6c1.1,0,2.1-1,2.1-2.1
				C53.9,54,52.9,53.1,51.7,53.1L51.7,53.1z"/>
		</g>
		<g>
			<path class="st0" d="M67.2,70.8c-1.1,0-2-0.9-2-2v-3.6h-3.9c-1,0-1.9-0.9-1.9-1.9s0.9-1.9,1.9-1.9h3.9V60c0-1.9-1.3-3.3-3.1-3.3
				c-1.9,0-3.1,1.3-3.1,3.3v8.8c0,1.1-0.9,2-2,2c-1.1,0-2-0.9-2-2V60c0-4.1,3.1-7.1,7.2-7.1s7.2,3.1,7.2,7.1v8.8
				C69.2,69.9,68.3,70.8,67.2,70.8z"/>
			<path class="st5" d="M62,53.1c3.9,0,7,3,7,7v8.8c0,1-0.8,1.8-1.8,1.8s-1.8-0.8-1.8-1.8V65h-4.1c-1,0-1.8-0.8-1.8-1.8
				c0-1,0.8-1.8,1.8-1.8h4.1V60c0-2.1-1.4-3.4-3.3-3.4c-1.9,0-3.3,1.4-3.3,3.4v8.8c0,1-0.8,1.8-1.8,1.8c-1,0-1.8-0.8-1.8-1.8V60
				C55.1,56,58.1,53.1,62,53.1 M62,52.7c-4.2,0-7.3,3.1-7.3,7.3v8.8c0,1.2,1,2.2,2.2,2.2c1.2,0,2.2-1,2.2-2.2V60
				c0-1.8,1.2-3.1,3-3.1c1.8,0,3,1.2,3,3.1v1.2h-3.8c-1.1,0-2.1,1-2.1,2.1c0,1.1,1,2.1,2.1,2.1H65v3.4c0,1.2,1,2.2,2.2,2.2
				c1.2,0,2.2-1,2.2-2.2V60C69.4,55.9,66.2,52.7,62,52.7L62,52.7z"/>
		</g>
		<g>
			<path class="st0" d="M73.3,70.8c-1.1,0-2-0.9-2-2V54.9c0-0.9,0.8-1.6,1.6-1.6h7.7c3,0,5.5,2.5,5.5,5.6c0,2.4-1.5,4.4-3.6,5.2
				l3.1,3.4c0.4,0.4,0.6,0.9,0.5,1.5c0,0.5-0.3,1-0.7,1.4c-0.4,0.3-0.8,0.5-1.3,0.5c-0.6,0-1.1-0.2-1.5-0.7l-5.7-6.4
				c-0.3-0.3-0.4-0.8-0.4-1.2c0-1,0.8-1.8,1.8-1.8h2c1.1,0,1.9-0.8,1.9-1.8s-0.8-1.8-1.9-1.8h-4.9v11.7
				C75.4,69.9,74.5,70.8,73.3,70.8z"/>
			<path class="st5" d="M80.6,53.4c2.9,0,5.3,2.4,5.3,5.4c0,2.4-1.6,4.5-3.8,5.2l3.3,3.6c0.7,0.7,0.6,1.9-0.1,2.6
				c-0.3,0.3-0.8,0.5-1.2,0.5c-0.5,0-1-0.2-1.4-0.6L77,63.7c-0.2-0.3-0.4-0.7-0.4-1.1c0-0.9,0.7-1.6,1.6-1.6h2c1.2,0,2.1-0.9,2.1-2
				c0-1.1-0.9-2-2.1-2h-5.1v11.9c0,1-0.8,1.8-1.8,1.8c-1,0-1.8-0.8-1.8-1.8V54.9c0-0.8,0.7-1.5,1.5-1.5H80.6 M80.6,53.1H73
				c-1,0-1.8,0.8-1.8,1.8v13.9c0,1.2,1,2.2,2.2,2.2c1.2,0,2.2-1,2.2-2.2V57.3h4.7c1,0,1.7,0.7,1.7,1.6c0,0.9-0.7,1.6-1.7,1.6h-2
				c-1.1,0-2,0.9-2,2c0,0.5,0.2,1,0.5,1.3l5.7,6.4c0.4,0.5,1,0.7,1.6,0.7c0.5,0,1.1-0.2,1.5-0.6c0.4-0.4,0.7-0.9,0.7-1.5
				c0-0.6-0.2-1.2-0.6-1.6l-2.9-3.2c2.1-0.9,3.5-3,3.5-5.3C86.3,55.6,83.8,53.1,80.6,53.1L80.6,53.1z"/>
		</g>
		<g>
			<path class="st0" d="M90,70.8c-1.1,0-2-0.9-2-2V55c0-1.1,0.9-2,2-2c1.1,0,2,0.9,2,2v13.8C92,69.9,91.1,70.8,90,70.8z"/>
			<path class="st5" d="M90,53.1c1,0,1.8,0.8,1.8,1.8v13.8c0,1-0.8,1.8-1.8,1.8c-1,0-1.8-0.8-1.8-1.8V55C88.2,53.9,89,53.1,90,53.1
				 M90,52.8c-1.2,0-2.2,1-2.2,2.2v13.8c0,1.2,1,2.2,2.2,2.2c1.2,0,2.2-1,2.2-2.2V55C92.2,53.7,91.2,52.8,90,52.8L90,52.8z"/>
		</g>
	</g>
</g>
</svg>
