<?xml version="1.0" encoding="utf-8"?>
<!-- Generator: Adobe Illustrator 25.4.1, SVG Export Plug-In . SVG Version: 6.00 Build 0)  -->
<svg version="1.1" id="Layer_1" xmlns="http://www.w3.org/2000/svg" xmlns:xlink="http://www.w3.org/1999/xlink" x="0px" y="0px"
	 viewBox="0 0 144 144" style="enable-background:new 0 0 144 144;" xml:space="preserve">
<style type="text/css">
	.st0{fill:#06CEAB;}
</style>
<g>
	<g>
		<path class="st0" d="M5,101.9h2.9v1.2c0.6-0.6,1.1-1,1.5-1.2c0.4-0.2,1-0.3,1.6-0.3c1.4,0,2.6,0.6,3.4,1.9
			c0.9-1.3,2.2-1.9,3.8-1.9c2.9,0,4.3,1.7,4.3,5.2v7.9h-3v-7.1c0-1.2-0.1-2.1-0.4-2.6c-0.3-0.5-0.8-0.8-1.5-0.8
			c-0.8,0-1.4,0.3-1.8,0.9c-0.4,0.6-0.6,1.6-0.6,2.9v6.6h-3v-7c0-2.3-0.7-3.4-2-3.4c-0.8,0-1.4,0.3-1.8,0.9
			c-0.4,0.6-0.6,1.6-0.6,2.9v6.6H5V101.9z"/>
		<path class="st0" d="M44.5,109h-9.1c0.1,1,0.4,1.9,1,2.5c0.6,0.6,1.4,0.9,2.3,0.9c0.7,0,1.3-0.2,1.8-0.5c0.5-0.3,1-1,1.6-1.9
			l2.5,1.4c-0.4,0.7-0.8,1.2-1.2,1.7s-0.9,0.8-1.4,1.2c-0.5,0.3-1,0.5-1.6,0.7c-0.6,0.1-1.2,0.2-1.8,0.2c-1.9,0-3.4-0.6-4.6-1.8
			c-1.2-1.2-1.7-2.9-1.7-4.9c0-2,0.6-3.6,1.7-4.9c1.1-1.2,2.6-1.8,4.5-1.8c1.9,0,3.4,0.6,4.4,1.8c1.1,1.2,1.6,2.8,1.6,4.9L44.5,109z
			 M41.4,106.6c-0.4-1.6-1.4-2.4-3-2.4c-0.4,0-0.7,0.1-1,0.2c-0.3,0.1-0.6,0.3-0.9,0.5c-0.3,0.2-0.5,0.5-0.7,0.7
			c-0.2,0.3-0.3,0.6-0.4,1H41.4z"/>
		<path class="st0" d="M57.8,107.8l-4.6-5.8h3.5l2.8,3.7l2.9-3.7h3.6l-4.7,5.8l5.5,6.9h-3.5l-3.7-4.8l-3.8,4.8h-3.6L57.8,107.8z"/>
		<path class="st0" d="M74.4,108.2c0-1.8,0.7-3.4,2-4.7c1.3-1.3,2.9-1.9,4.8-1.9c1.9,0,3.5,0.6,4.8,1.9c1.3,1.3,2,2.9,2,4.8
			c0,1.9-0.7,3.5-2,4.8c-1.3,1.3-3,1.9-4.9,1.9c-1.9,0-3.5-0.7-4.8-2C75,111.8,74.4,110.2,74.4,108.2z M77.4,108.3
			c0,1.3,0.3,2.3,1,3c0.7,0.8,1.6,1.1,2.8,1.1c1.2,0,2.1-0.4,2.8-1.1c0.7-0.7,1-1.7,1-3c0-1.2-0.3-2.2-1-3c-0.7-0.7-1.6-1.1-2.8-1.1
			c-1.1,0-2,0.4-2.7,1.1C77.7,106.1,77.4,107.1,77.4,108.3z"/>
		<path class="st0" d="M98.2,113.2c0-0.5,0.2-0.9,0.5-1.3s0.8-0.5,1.3-0.5s0.9,0.2,1.3,0.5s0.5,0.8,0.5,1.3c0,0.5-0.2,0.9-0.5,1.3
			c-0.3,0.3-0.8,0.5-1.3,0.5c-0.5,0-0.9-0.2-1.3-0.5C98.4,114.2,98.2,113.7,98.2,113.2z"/>
		<path class="st0" d="M112.3,96.6c0-0.5,0.2-1,0.6-1.3c0.4-0.4,0.8-0.6,1.3-0.6c0.5,0,1,0.2,1.4,0.6c0.4,0.4,0.6,0.8,0.6,1.3
			s-0.2,1-0.6,1.4c-0.4,0.4-0.8,0.6-1.3,0.6c-0.5,0-1-0.2-1.4-0.6C112.5,97.6,112.3,97.2,112.3,96.6z M115.7,101.9v12.7h-2.9v-12.7
			H115.7z"/>
		<path class="st0" d="M125.5,108.2c0-1.8,0.7-3.4,2-4.7c1.3-1.3,2.9-1.9,4.8-1.9c1.9,0,3.5,0.6,4.8,1.9c1.3,1.3,2,2.9,2,4.8
			c0,1.9-0.7,3.5-2,4.8c-1.3,1.3-3,1.9-4.9,1.9c-1.9,0-3.5-0.7-4.8-2C126.1,111.8,125.5,110.2,125.5,108.2z M128.5,108.3
			c0,1.3,0.3,2.3,1,3c0.7,0.8,1.6,1.1,2.8,1.1c1.2,0,2.1-0.4,2.8-1.1c0.7-0.7,1-1.7,1-3c0-1.2-0.3-2.2-1-3c-0.7-0.7-1.6-1.1-2.8-1.1
			c-1.1,0-2,0.4-2.7,1.1C128.8,106.1,128.5,107.1,128.5,108.3z"/>
	</g>
	<path class="st0" d="M110.6,29.3c-2.8,0-5.4,0.4-8,1.1c-1.1,0.3-2.2,0.7-3.3,1.1c-0.2,0.1-0.4,0.2-0.6,0.3c-0.5,0.2-1,0.5-1.5,0.7
		c-0.3,0.1-0.5,0.3-0.8,0.4c-0.1,0-0.2,0.1-0.3,0.2c-0.2,0.1-0.5,0.3-0.7,0.4c-0.3,0.2-0.6,0.4-0.9,0.5c0,0-0.1,0.1-0.1,0.1
		c-0.2,0.2-0.4,0.3-0.6,0.4l-1,0.7c-0.3,0.2-0.5,0.4-0.8,0.7L91.8,36c-0.3,0.2-0.5,0.5-0.8,0.7c-1.1,1-2.1,2-3,3.2L87.9,40l-0.4,0.4
		l-6.1,7.1c-3-3.6-9.2-10.8-9.5-11.1c-1.6-1.9-3.5-3.4-5.8-4.6c-3-1.6-6.5-2.4-10.2-2.5c-0.2,0-0.5,0-0.7,0h-0.1c-0.3,0-0.5,0-0.7,0
		C51.9,29.5,49.4,30,47,31c-2.4,0.9-4.5,2.2-6.2,3.8c-1.8-1.7-3.9-3.1-6.4-4c-2.3-0.9-4.8-1.3-7.5-1.4c-0.2,0-0.5,0-0.7,0h-0.2
		c-0.2,0-0.5,0-0.7,0c-2.9,0.1-5.5,0.6-7.7,1.4c-0.9,0.3-1.7,0.7-2.4,1.1C8.9,35.1,5.1,41.3,5,48.4c0,0.1,0,0.2,0,0.3v35.7h12.6V49
		c0-0.1,0-0.2,0-0.3c0.1-4.6,3.4-7.6,8.4-7.6c4.2,0,7.3,2.1,8.2,5.7c0.2,0.7,0.2,1.4,0.2,2.2v35.5H47v-1.7c0,0,0,0,0,0V65.3
		c0-0.2,0-0.3,0-0.5V48.7c0-0.1,0-0.2,0-0.2c0-0.2,0-0.5,0.1-0.8c0-0.3,0.1-0.6,0.2-0.9c0-0.1,0-0.2,0.1-0.3l0.1-0.2v-0.1
		c1-3.3,4-5.2,8-5.2c2.8,0,5.1,0.9,6.6,2.6l0,0l11.5,13.3l-5.2,6L62,70.2l0,0v0c-1.1,1.2-2.6,2.1-4.5,2.4v11.8
		c3.1-0.2,6.1-1.1,8.7-2.4c2.3-1.2,4.2-2.8,5.8-4.6c0.1-0.1,2.1-2.4,4.3-4.9c0,0,0.1-0.1,0.1-0.1c1.8-2.1,3.7-4.4,5.1-6l6.2,7.3
		c0.1,0.1,0.2,0.2,0.3,0.3c0.5,0.6,0.9,1.1,1.4,1.6c0.2,0.3,0.5,0.5,0.8,0.8c0.3,0.3,0.5,0.5,0.8,0.8c0.2,0.2,0.3,0.3,0.5,0.5
		c0.4,0.3,0.7,0.6,1.1,0.9c0,0,0,0.1,0.1,0.1c0.4,0.3,0.9,0.6,1.3,1c0.5,0.3,1,0.6,1.4,0.9c0.5,0.3,1,0.6,1.5,0.8
		c0.3,0.1,0.5,0.3,0.8,0.4c0.3,0.1,0.5,0.2,0.8,0.4c3.7,1.6,7.8,2.5,12.1,2.5c7.9,0,15.1-3.1,20.3-8.1c3.9-3.7,6.7-8.5,7.8-13.9
		c0.4-1.8,0.6-3.7,0.6-5.6C139.3,41.7,126.4,29.3,110.6,29.3z M126.7,60.1c-0.7,3.1-2.2,5.8-4.5,8c-3,2.9-7.1,4.6-11.6,4.6
		c-2.1,0-4-0.4-5.8-1c-1.6-0.6-3.2-1.4-4.5-2.5c-0.1,0-0.1-0.1-0.2-0.1l0,0c-0.2-0.1-0.4-0.3-0.6-0.5c-0.1-0.1-0.2-0.2-0.3-0.3
		c-0.1-0.1-0.1-0.1-0.2-0.2c-0.2-0.2-0.4-0.4-0.6-0.6c-0.2-0.2-0.3-0.3-0.4-0.5l-0.3-0.4l-0.1-0.1c-0.1-0.1-0.2-0.2-0.3-0.3
		l-0.1-0.1l0,0l-2.6-3l-5.2-6.1l5.2-6.1l2.6-3l0,0l0.2-0.3l0.2-0.3l0.3-0.3c0.1-0.1,0.2-0.3,0.4-0.4c0,0,0,0,0.1-0.1
		c0.3-0.3,0.5-0.6,0.8-0.8c0.6-0.5,1.2-1,1.8-1.5c0.2-0.1,0.4-0.3,0.6-0.4c0.5-0.3,1-0.6,1.5-0.8c0.1,0,0.2-0.1,0.3-0.1
		c0.3-0.1,0.5-0.2,0.8-0.4c0.1,0,0.2-0.1,0.3-0.1c0.1,0,0.2-0.1,0.3-0.1c0,0,0.1,0,0.2-0.1c0.6-0.2,1.2-0.4,1.8-0.5
		c1.2-0.3,2.5-0.5,3.8-0.5c9.1,0,16.4,7.1,16.4,15.8C127,58,126.9,59,126.7,60.1z"/>
</g>
</svg>
