<?xml version="1.0" encoding="UTF-8"?>
<!DOCTYPE svg PUBLIC "-//W3C//DTD SVG 1.1//EN" "http://www.w3.org/Graphics/SVG/1.1/DTD/svg11.dtd">
<!-- Creator: CorelDRAW X8 -->
<svg xmlns="http://www.w3.org/2000/svg" xml:space="preserve" width="100px" height="100px" version="1.1" style="shape-rendering:geometricPrecision; text-rendering:geometricPrecision; image-rendering:optimizeQuality; fill-rule:evenodd; clip-rule:evenodd"
viewBox="0 0 99 99"
 xmlns:xlink="http://www.w3.org/1999/xlink">
 <defs>
  <style type="text/css">
   <![CDATA[
    .str0 {stroke:#373435;stroke-width:1.05166}
    .str1 {stroke:#373435;stroke-width:1.40222}
    .fil2 {fill:none}
    .fil4 {fill:#373435}
    .fil0 {fill:#17F0FF}
    .fil1 {fill:#FEBF2C}
    .fil3 {fill:#FEFEFE}
   ]]>
  </style>
 </defs>
 <g id="Layer_x0020_1">
  <metadata id="CorelCorpID_0Corel-Layer"/>
  <rect class="fil0" width="99.3706" height="99.3706" rx="2" ry="2"/>
  <g id="_1603897289216">
   <path class="fil1 str0" d="M53 47l30 16c2,2 2,7 0,7l-30 10c-2,1 -4,1 -7,0l-29 -10c-3,0 -3,-5 0,-7l29 -16c3,-1 5,-1 7,0z"/>
   <polyline class="fil2 str0" points="15,67 50,67 85,67 "/>
  </g>
  <g id="_1603897288096">
   <circle class="fil3 str0" cx="23" cy="38" r="11"/>
   <circle class="fil4" cx="23" cy="38" r="2"/>
   <line class="fil2 str1" x1="23" y1="27" x2="23" y2= "23" />
   <line class="fil2 str1" x1="16" y1="29" x2="14" y2= "27" />
   <line class="fil2 str1" x1="29" y1="29" x2="32" y2= "26" />
  </g>
  <g id="_1603897291040">
   <circle class="fil3 str0" cx="77" cy="38" r="11"/>
   <circle class="fil4" cx="77" cy="38" r="2"/>
   <line class="fil2 str1" x1="77" y1="27" x2="77" y2= "23" />
   <line class="fil2 str1" x1="70" y1="29" x2="68" y2= "27" />
   <line class="fil2 str1" x1="84" y1="29" x2="86" y2= "26" />
  </g>
  <rect class="fil2" width="99.3706" height="99.3706" rx="2" ry="2"/>
 </g>
</svg>
