<svg width="100" height="100" viewBox="0 0 100 100" fill="none" xmlns="http://www.w3.org/2000/svg">
<g clip-path="url(#clip0)">
<path d="M87.2195 20.1488L74.3774 25.8032C73.6197 26.2151 73.1272 27.0015 73.1272 27.8627V73.2851C73.1272 74.1463 73.6197 74.9701 74.3774 75.3446L87.2195 80.8118C88.0151 81.2611 89 80.662 89 79.7633V21.1973C88.9621 20.2986 88.0151 19.6994 87.2195 20.1488ZM25.9636 25.7657L12.7805 20.1488C11.9849 19.7369 11 20.2986 11 21.1973V79.8007C11 80.7369 12.0607 81.2986 12.8562 80.8118L26.1151 74.2961C26.797 73.8468 27.2516 73.0978 27.2516 72.3115V27.8253C27.2137 26.964 26.7591 26.1776 25.9636 25.7657ZM64.6795 41.3059L51.5342 33.6294C50.8145 33.2175 49.8674 33.2175 49.1476 33.6294L35.6994 41.0813C34.9796 41.4932 34.4871 42.2795 34.4871 43.1408V58.5312C34.4871 59.3925 34.9417 60.1789 35.6994 60.5908L49.1855 68.4545C49.9053 68.8664 50.8524 68.8664 51.5721 68.4545L64.7173 60.8154C65.4371 60.4035 65.9296 59.6172 65.9296 58.7559V43.3655C65.8917 42.5417 65.4371 41.7553 64.6795 41.3059Z" fill="url(#paint0_linear)"/>
</g>
<defs>
<linearGradient id="paint0_linear" x1="49.9963" y1="19.999" x2="49.9963" y2="80.9977" gradientUnits="userSpaceOnUse">
<stop offset="0.0026967" stop-color="#00C0FF"/>
<stop offset="1" stop-color="#2E65CB"/>
</linearGradient>
<clipPath id="clip0">
<rect width="78" height="61" fill="white" transform="translate(11 20)"/>
</clipPath>
</defs>
</svg>
