<?xml version="1.0" encoding="utf-8"?>
<!-- Generator: Adobe Illustrator 25.4.1, SVG Export Plug-In . SVG Version: 6.00 Build 0)  -->
<svg version="1.1" id="Layer_1" xmlns="http://www.w3.org/2000/svg" xmlns:xlink="http://www.w3.org/1999/xlink" x="0px" y="0px"
	 viewBox="0 0 144 144" style="enable-background:new 0 0 144 144;" xml:space="preserve">
<style type="text/css">
	.st0{fill:#FFFFFF;}
	.st1{fill:url(#XMLID_00000034778670156814495360000000321791088453747879_);}
	.st2{fill:#07D066;}
	.st3{fill:#03AB6F;}
</style>
<g>
	<g>
		<g>
			<path class="st0" d="M4.5,99.4h4.7l6.2,9.9l6.2-9.9h4.6v13.2h-3l0.1-10.8l-6.8,10.8h-2.4l-6.8-10.8l0.1,10.8h-3V99.4z"/>
			<path class="st0" d="M49.9,100.6c0.6,0.6,0.8,1.5,1,2.8c0.1,0.6,0.1,1.3,0.1,2.8c0,3.3-0.3,4.6-1.3,5.4c-0.7,0.6-1.7,0.9-3.4,1
				c-0.6,0-3,0.1-4.9,0.1c-4,0-5.1-0.1-6.2-0.7c-0.9-0.5-1.4-1.4-1.6-2.7c-0.1-0.9-0.2-1.6-0.2-3.7c0-3.1,0.3-4.3,1.2-5.1
				c0.7-0.6,1.6-0.9,3.3-1.1c0.7-0.1,2.6-0.1,5.1-0.1C47.7,99.3,48.9,99.5,49.9,100.6z M36.5,106c0,2.6,0.2,3.4,0.9,3.8
				c0.7,0.4,1.4,0.5,5.1,0.5c3.4,0,4.2-0.1,4.8-0.7c0.5-0.5,0.6-1.3,0.6-3.6c0-4.1,0-4.2-5.7-4.2C36.5,101.8,36.5,101.8,36.5,106z"
				/>
			<path class="st0" d="M58.1,99.4h4.7l9.9,11l-0.1-11h2.9v13.2h-4.7l-9.8-10.9l0.1,10.9h-2.9V99.4z"/>
			<path class="st0" d="M83,99.4h14v2.3H86v3.1h10.5v2.1H86v3.4h11.1v2.3H83V99.4z"/>
			<path class="st0" d="M109.3,101.9h-6.2v-2.5h15.4v2.5h-6.2v10.7h-3V101.9z"/>
			<path class="st0" d="M125.8,110l-1.5,2.6h-3.4l7.5-13.2h4.1l7.4,13.2h-3.3l-1.5-2.6H125.8z M130.5,101.6l-3.5,6.3h7.1
				L130.5,101.6z"/>
			<path class="st0" d="M10.5,123.4h10.9c2.5,0,4.1,0.5,5,1.4c0.8,0.9,1.1,2.4,1.1,5.3c0,2.9-0.4,4.4-1.4,5.3
				c-0.8,0.8-2.2,1.1-4.4,1.1H10.5V123.4z M21.1,134.1c1.1,0,1.8-0.1,2.3-0.4c0.8-0.4,1.1-1.4,1.1-3.5c0-3.7-0.6-4.4-3.4-4.4h-7.5
				v8.3H21.1z"/>
			<path class="st0" d="M34.7,123.4h3v13.2h-3V123.4z"/>
			<path class="st0" d="M61.8,129.5v1.4c0,2.4-0.1,3.3-0.6,4.1c-0.4,0.7-1,1.1-2.1,1.4c-0.7,0.2-1.8,0.2-5.8,0.2
				c-3.5,0-5.2-0.1-6-0.4c-1.3-0.5-1.9-1.2-2.2-2.6c-0.2-0.7-0.2-1.6-0.2-3.5c0-3.5,0.2-4.6,1.1-5.5c0.6-0.6,1.3-0.9,2.4-1.1
				c1.2-0.2,2.6-0.2,6.5-0.2c3.8,0,5.2,0.3,6.1,1.2c0.6,0.6,0.8,1.7,0.8,3.1h-3c0-0.8-0.1-1.1-0.5-1.4c-0.5-0.4-1.2-0.5-3.8-0.5
				c-4.8,0-5.5,0.1-6,0.7c-0.4,0.5-0.6,1.3-0.6,3.4c0,2.6,0.2,3.5,0.7,3.9c0.6,0.5,1.3,0.6,4.9,0.6c3.9,0,4.3-0.1,4.9-0.9
				c0.3-0.3,0.4-1,0.4-1.9H53v-2H61.8z"/>
			<path class="st0" d="M68.9,123.4h3v13.2h-3V123.4z"/>
			<path class="st0" d="M84.6,125.8h-6.2v-2.5h15.4v2.5h-6.2v10.7h-3V125.8z"/>
			<path class="st0" d="M101,133.9l-1.5,2.6h-3.4l7.5-13.2h4.1l7.4,13.2h-3.3l-1.5-2.6H101z M105.7,125.5l-3.5,6.3h7.1L105.7,125.5z
				"/>
			<path class="st0" d="M120.9,123.4h3v10.7h9.6v2.5h-12.6V123.4z"/>
		</g>
	</g>
	<g>
		
			<linearGradient id="XMLID_00000044170100433554488450000005103775537703401365_" gradientUnits="userSpaceOnUse" x1="72.2469" y1="79.5351" x2="72.2469" y2="7.3582">
			<stop  offset="0" style="stop-color:#009E78"/>
			<stop  offset="6.897312e-02" style="stop-color:#01A876"/>
			<stop  offset="0.3065" style="stop-color:#03C56F"/>
			<stop  offset="0.5428" style="stop-color:#05D96A"/>
			<stop  offset="0.7755" style="stop-color:#06E667"/>
			<stop  offset="1" style="stop-color:#06EA66"/>
		</linearGradient>
		<path id="XMLID_1_" style="fill:url(#XMLID_00000044170100433554488450000005103775537703401365_);" d="M107.1,63.5l-7-7V30.3l7-7
			V63.5z M93.2,49.6L87,43.4l6.1-6.1V49.6z M77.2,43.4l35.9,35.9c0.4,0.4,1,0.1,1-0.4V8c0-0.5-0.6-0.8-1-0.4L77.2,43.4z M37.4,23.4
			l7,7v26.2l-7,7V23.4z M51.3,37.3l6.1,6.1l-6.1,6.1V37.3z M67.3,43.4L31.4,7.5c-0.4-0.4-1-0.1-1,0.4v71c0,0.5,0.6,0.8,1,0.4
			L67.3,43.4z M72.2,28.7L51,7.4h-8.4c-0.5,0-0.8,0.6-0.4,1l30.1,30.1l30.1-30.1c0.4-0.4,0.1-1-0.4-1h-8.4L72.2,28.7z M93.5,79.5
			h8.4c0.5,0,0.8-0.6,0.4-1L72.2,48.4L42.1,78.5c-0.4,0.4-0.1,1,0.4,1H51l21.3-21.3L93.5,79.5z"/>
		<polyline class="st2" points="37.4,23.4 30.4,16.4 37.4,27.3 37.4,23.4 		"/>
		<polyline class="st3" points="37.4,63.5 30.4,70.5 37.4,59.5 37.4,63.5 		"/>
		<polyline class="st2" points="107.1,23.4 114.1,16.4 107.1,27.3 107.1,23.4 		"/>
		<polyline class="st3" points="107.1,63.5 114.1,70.5 107.1,59.5 107.1,63.5 		"/>
	</g>
</g>
</svg>
