<svg xmlns="http://www.w3.org/2000/svg" xmlns:xlink="http://www.w3.org/1999/xlink" viewBox="0 0 1750 1750"><defs><style>.cls-1{fill:#e6e6e6;}.cls-2{fill:#999;}.cls-3{fill:#333;}.cls-4{fill:#7a7a7a;}.cls-5{fill:url(#radial-gradient);}.cls-6{fill:url(#radial-gradient-3);}.cls-7{fill:url(#radial-gradient-4);}.cls-8{fill:#eabd9b;}.cls-9{fill:url(#radial-gradient-5);}.cls-10{fill:url(#radial-gradient-6);}.cls-11{fill:#e2a77a;}.cls-12{fill:#fff;}.cls-13{fill:url(#radial-gradient-7);}</style><radialGradient id="radial-gradient" cx="130.85" cy="535.5" r="1461.81" gradientUnits="userSpaceOnUse"><stop offset="0" stop-color="#ffefe1"/><stop offset="0.15" stop-color="#ffeddd"/><stop offset="0.31" stop-color="#ffe6d0"/><stop offset="0.48" stop-color="#ffdabc"/><stop offset="0.55" stop-color="#ffd4b0"/><stop offset="0.55" stop-color="#ffd3af"/><stop offset="1" stop-color="#ffad76"/></radialGradient><radialGradient id="radial-gradient-3" cx="424.98" cy="670.29" r="522.79" gradientUnits="userSpaceOnUse"><stop offset="0" stop-color="#ffefe1"/><stop offset="0" stop-color="#fff1e5"/><stop offset="0" stop-color="#fff6f0"/><stop offset="0" stop-color="#fff9f4"/><stop offset="0" stop-color="#fffefd"/><stop offset="0.18" stop-color="#fffdfa"/><stop offset="0.33" stop-color="#fffaef"/><stop offset="0.47" stop-color="#fff6de"/><stop offset="0.52" stop-color="#fff4d7"/><stop offset="0.59" stop-color="#ffeecf"/><stop offset="0.74" stop-color="#ffe7c4"/><stop offset="0.9" stop-color="#ffe4c0"/></radialGradient><radialGradient id="radial-gradient-4" cx="739.04" cy="785.66" r="623.23" gradientUnits="userSpaceOnUse"><stop offset="0" stop-color="#f9f3ef"/><stop offset="0.54" stop-color="#faeee7"/><stop offset="0.57" stop-color="#faeee6"/><stop offset="0.79" stop-color="#ecd0c4"/><stop offset="1" stop-color="#ddaf9f"/></radialGradient><radialGradient id="radial-gradient-5" cx="336.64" cy="696.34" r="730.92" gradientUnits="userSpaceOnUse"><stop offset="0" stop-color="#fff4e3"/><stop offset="0.16" stop-color="#fff2df"/><stop offset="0.32" stop-color="#ffecd2"/><stop offset="0.48" stop-color="#ffe3be"/><stop offset="0.55" stop-color="#ffdeb3"/><stop offset="0.59" stop-color="#ffdaac"/><stop offset="1" stop-color="#ffb973"/></radialGradient><radialGradient id="radial-gradient-6" cx="739.04" cy="785.66" r="623.23" gradientUnits="userSpaceOnUse"><stop offset="0" stop-color="#f9e6dc"/><stop offset="0.31" stop-color="#fae1d4"/><stop offset="0.57" stop-color="#fcdac8"/><stop offset="0.8" stop-color="#e7b8a8"/><stop offset="1" stop-color="#d39788"/></radialGradient><radialGradient id="radial-gradient-7" cx="299" cy="270.4" r="1441.01" gradientUnits="userSpaceOnUse"><stop offset="0" stop-color="#fff" stop-opacity="0.18"/><stop offset="0.34" stop-color="#fff" stop-opacity="0.11"/><stop offset="1" stop-color="#fff" stop-opacity="0"/></radialGradient></defs><title>Moet Fi Logo</title><g id="moet_icon_dark" data-name="moet icon dark"><path class="cls-1" d="M1305.51,1636.92h0l0,0q-4.45,2.52-8.93,5h0q4.52-2.49,9-5t8.87-5.11c-12.06-43.6-24.44-88.33-35.61-128.72q-1.53-5.55-3-11c-.32-1.16-.63-2.31-1-3.46-.7-2.52-1.39-5-2.07-7.49-.27-1-.53-1.89-.79-2.83-.6-2.19-1.2-4.37-1.8-6.52q-.69-2.47-1.36-4.91l-1.21-4.39q-.67-2.41-1.32-4.78-1.45-5.25-2.86-10.3c-.28-1-.56-2-.83-3l-23.75-85.83c-8.08-29.22-9.46-58.35-7-85.62.62-6.82,1.48-13.52,2.53-20.08q.8-4.92,1.73-9.72t2-9.48q.53-2.34,1.08-4.65,1.11-4.62,2.32-9.09c2.41-9,5.09-17.46,7.88-25.44q2.1-6,4.26-11.57c.48-1.24,1-2.46,1.44-3.67,13-32.55,26.3-53.13,26.3-53.13h0l-.06,0c-21.18,32.12-47.37,52.95-73.26,65.88a365.69,365.69,0,0,0-15.64,73.59,366.92,366.92,0,0,0-51.22-55.08c-28.88,2.23-62.09-2.17-96.8-18.86h0s.76.37,2.17,1.11l.19.11.73.38.34.18.73.4.62.33.6.33.86.48.5.27,1.2.68.3.16,1.6.91,0,0,.77.44,1.71,1q1.89,1.1,4,2.39c.86.51,1.74,1.05,2.65,1.61,2,1.26,4.19,2.62,6.46,4.09l3.34,2.19c3.16,2.09,6.5,4.37,10,6.84q2.09,1.47,4.21,3a373,373,0,0,1,39.36,33l.06.06q1.63,1.56,3.25,3.18l.09.08c1,1,2.09,2.1,3.14,3.16l.18.19q1.63,1.65,3.25,3.35l.07.08c1,1,2,2.08,3,3.14.11.13.23.25.35.37,1,1.11,2,2.22,3,3.35l.24.25c1,1.13,2,2.28,3,3.43l.23.26c.87,1,1.73,2,2.59,3,.21.25.43.49.63.74,1,1.18,2,2.38,3,3.58l.22.27c.84,1,1.66,2.08,2.49,3.12l.66.82c.73.94,1.46,1.89,2.18,2.84.31.39.62.79.92,1.19.72,1,1.44,1.92,2.15,2.89.3.41.61.8.9,1.21.69.94,1.36,1.89,2,2.84l1,1.35c.69,1,1.38,2,2.06,3,.29.43.59.85.88,1.27l1.77,2.69c.36.56.74,1.11,1.1,1.68.62,1,1.22,1.93,1.83,2.9l1,1.53,1.76,2.92,1,1.61c.57,1,1.13,2,1.7,3,.31.55.63,1.09.94,1.65.54,1,1.06,1.93,1.59,2.9.32.6.66,1.19,1,1.79.45.85.88,1.71,1.33,2.56s.77,1.47,1.14,2.21.77,1.57,1.15,2.35.83,1.67,1.23,2.51.78,1.69,1.17,2.53.75,1.6,1.11,2.41c.5,1.12,1,2.26,1.47,3.39.23.55.48,1.09.71,1.63.35.85.69,1.72,1,2.57s.69,1.69,1,2.54.69,1.82,1,2.72.62,1.64.92,2.47c.45,1.22.87,2.47,1.29,3.7.18.53.37,1,.55,1.57.3.89.57,1.79.86,2.69s.58,1.77.85,2.67c.55,1.79,1.08,3.61,1.58,5.43.22.8.51,1.86.88,3.18.24.88.52,1.87.82,3,.76,2.75,1.72,6.19,2.84,10.24.44,1.62.92,3.34,1.42,5.16.25.9.51,1.84.78,2.79q1.18,4.29,2.54,9.2c.3,1.08.61,2.19.92,3.33.63,2.26,1.27,4.6,2,7,.33,1.21.67,2.45,1,3.7,3.12,11.27,6.67,24.13,10.56,38.19l5.38,19.43c3.83,13.85,7.9,28.58,12.14,43.89q3.4,12.35,7,25.14c.79,2.86,1.59,5.74,2.39,8.62.84,3,1.68,6.08,2.52,9.13.27,1,.53,1.92.8,2.89.93,3.37,1.87,6.74,2.8,10.14q1.82,6.54,3.64,13.13,1.45,5.29,2.93,10.62,1,3.62,2,7.26,1.47,5.32,3,10.65l3.3,11.95q2.49,9,5,17.86c.54,2,1.09,4,1.63,5.92,3-1.57,6-3.14,9-4.74l.1-.05h0q4.52-2.41,9-4.89l0,0q4.48-2.48,8.92-5l.06,0h0Z"/><path class="cls-2" d="M480.3,1656.11l2.16,1.09.08,0q3.34,1.68,6.71,3.33l1.17.58c18.88-81.12,34.42-147.85,37.09-159.34q1.29-5.54,2.85-10.92t3.35-10.6q1.8-5.24,3.82-10.3,1-2.54,2.08-5c22-51.58,60.4-90.52,90.87-115.32q3-2.4,5.79-4.62t5.56-4.27l2.67-2c4.4-3.26,8.49-6.14,12.17-8.65s7-4.62,9.71-6.35c6.06-3.82,9.63-5.76,9.63-5.76H676c-34,18.09-66.94,23.85-95.87,22.82A366.47,366.47,0,0,0,531.16,1398a366,366,0,0,0-18.65-72.87c-26.43-11.86-53.49-31.59-76-62.85l.06.08.07.1.1.14h0c.15.22.38.54.66,1l1,1.47.07.1v0c.2.3.42.63.64,1l0,0v0c.81,1.24,1.78,2.77,2.89,4.55.85,1.38,1.78,2.9,2.79,4.59q1.15,1.93,2.43,4.13c.66,1.15,1.34,2.36,2,3.6l1.21,2.17c.72,1.3,1.44,2.62,2.19,4,1,1.79,1.95,3.66,2.95,5.61s2,4,3.06,6.06,2.08,4.26,3.13,6.5c.89,1.88,1.78,3.83,2.67,5.81s1.71,3.83,2.56,5.81a350.9,350.9,0,0,1,20.57,63l0,.06a292.29,292.29,0,0,1,5,29.79s0,.09,0,.13c.19,1.68.36,3.37.52,5.07a.28.28,0,0,1,0,.09q.48,5.1.77,10.27a1,1,0,0,0,0,.17,231.12,231.12,0,0,1-5.41,65.12l-6.49,27.9c-.15.65-.31,1.31-.46,2l-.48,2c-.32,1.37-.65,2.79-1,4.23-.17.73-.34,1.46-.52,2.2-.34,1.49-.69,3-1.06,4.55-.18.78-.36,1.56-.54,2.36s-.37,1.59-.56,2.4q-.86,3.63-1.75,7.49l-.6,2.59-6.59,28.29c-2.58,11.11-5.34,23-8.24,35.39-.46,2-.93,4-1.4,6-.13.53-.25,1.07-.37,1.6-.42,1.77-.83,3.54-1.24,5.33-.34,1.43-.67,2.87-1,4.32q-1.23,5.28-2.48,10.66h0q4.5,2.48,9,4.9l0,0q4.53,2.42,9.09,4.79l0,0,2.72,1.4Z"/><path class="cls-3" d="M553.58,1337.91q-2-.36-3.87-.75l-.26-.06c-1.32-.27-2.63-.56-3.92-.86h-.07c-1.29-.3-2.59-.62-3.9-1l-.24-.07c-1.27-.32-2.54-.67-3.82-1l-.15,0a183.06,183.06,0,0,1-24.84-9A366,366,0,0,1,531.16,1398a366.47,366.47,0,0,1,48.92-57.16,181.09,181.09,0,0,1-26.32-2.86Z"/><path class="cls-4" d="M1191.24,1199.34l-3.32,1.23-.83.29c-1,.35-2,.69-3,1l-1,.34-2.88.91-1,.3c-1.26.38-2.52.75-3.77,1.1h-.07c-1.28.35-2.58.69-3.89,1l-.24.06c-1.27.32-2.55.62-3.84.92l-.17,0a181.82,181.82,0,0,1-26.12,3.94,366.92,366.92,0,0,1,51.22,55.08A365.69,365.69,0,0,1,1208,1192c-5.45,2.72-10.87,5.08-16.24,7.13Z"/><path class="cls-2" d="M454,752.49c-.49,1.23-1,2.46-1.45,3.69-.07.2-.15.4-.23.6,7.35,15.66,23.77,41.11,45.15,41.43h.43c23.66,0,67.43-28.38,109.76-55.83C664,705.82,722.3,668,768.16,668l1.63,0a136.41,136.41,0,0,1,39.36,6.55c-9.1-94.72-11.93-184.83-12.69-244.29q-9-2.66-19.07-5.31-4.12-1.08-8.44-2.15c-1.66-.42-3.33-.83-5-1.23l-5.17-1.23h-.12c-1.56-.37-3.1-.72-4.63-1.06l-1.51-.34-3.11-.69-1.69-.37-2.88-.62-1.67-.35-2.93-.6-1.47-.31-3.73-.74-.55-.11-4.17-.8-1.28-.23-2.82-.52-1.52-.27-2.54-.45-1.51-.26-2.55-.43-1.35-.22-3.08-.49-.71-.12-3.69-.56-1.08-.15-2.55-.37-1.32-.18-2.24-.3-1.35-.18-2.2-.27-1.24-.16-2.51-.29-.81-.1-3.23-.35-.88-.09-2.28-.22-1.15-.11-2-.18-1.16-.1-1.91-.15-1.1-.09-2.07-.15-.82-.06-2.79-.17-.64,0-2.09-.11-1,0-1.71-.08-1,0-1.65,0-.93,0-1.76,0-.72,0-2.39,0h-2.28l-2.22,0h-.42l-2.53.05-.72,0-1.72.05-.9,0-1.45.06-.9.05-1.39.08-.84.05-1.38.09-.75.06-1.59.13-.43,0-1.92.18-.51.06-1.34.15-.65.08-1.11.14-.66.08-1,.15-.64.09-1,.15-.57.09-1.07.18-.39.07-1.37.25-.33.07-1,.19-.45.1-.76.16-.46.11-.69.16-.42.1-.66.17-.38.09-.68.18-.27.08-.87.24-.17,0-.63.19-.26.09-.47.15-.26.08-.41.14-.23.08-.37.13-.19.07-.36.14-.14.05-.42.17h0l-.32.14-.1,0-.2.09-.1,0-.13.06-.08,0-.1,0-.05,0-.06,0h0l0,0-.25.43-.06.1-.08.14a1.34,1.34,0,0,1-.13.23c-.07.14-.16.29-.25.45l-.11.19-.2.35-.25.46c-.05.07-.09.16-.14.24l-.31.54c-.07.14-.15.27-.23.42l-.18.31-.48.86-.25.45-.32.57-.23.4-.57,1c-.11.21-.23.41-.35.63l-.3.54-.66,1.19-.27.47-.46.83-.4.73-.62,1.1-.45.83c-.16.29-.32.58-.49.87l-.48.88c-.15.26-.3.53-.44.8-.29.51-.57,1-.87,1.56l-.34.63-.66,1.19-.16.3c-.39.7-.78,1.42-1.18,2.15l-.5.91c-.21.37-.41.75-.62,1.13l-.49.89c-.36.65-.72,1.32-1.09,2l-.41.75q-1.18,2.16-2.44,4.49c-.15.28-.31.56-.46.85-.85,1.57-1.73,3.18-2.62,4.84-.16.3-.32.6-.49.89-.27.52-.55,1-.83,1.56l-.2.36-1.76,3.28-.48.89-.91,1.7h0l-2.1,3.92-.43.81-3.19,6c-.16.31-.33.62-.49.94-1.11,2.08-2.24,4.22-3.39,6.4-.12.23-.24.47-.37.7q-1.77,3.36-3.6,6.87c-.13.23-.25.47-.38.71l-3.74,7.18-.41.79q-1.92,3.68-3.88,7.48l-.38.73-4,7.8-.42.81q-2,4-4.12,8.08l-.37.73q-2.11,4.15-4.27,8.43c-.13.24-.25.48-.37.73q-2.17,4.29-4.38,8.7l-.36.72q-2.22,4.43-4.47,9c-.13.24-.25.49-.37.74l-3,6-.05.09c-.5,1-1,2-1.51,3.06l-.39.8q-1.49,3-3,6.06a2,2,0,0,1-.1.21l-1.53,3.13-.39.79-3,6.07-.18.38c-.53,1.08-1,2.16-1.57,3.24l-.3.62-3,6.12-.3.64-1.54,3.21c-.12.26-.24.51-.37.76l-2.94,6.18-.3.62c-.51,1.08-1,2.17-1.54,3.26-.15.29-.29.59-.43.89l-2.84,6-.41.87c-.51,1.09-1,2.18-1.54,3.27-.13.28-.26.57-.4.85l-2.85,6.11c-.15.32-.3.63-.44,1l-1.54,3.3-.41.89c-.93,2-1.87,4-2.8,6.06l-.53,1.14-1.5,3.27c-.15.34-.31.68-.46,1q-1.36,3-2.74,6l-.57,1.27c-.5,1.09-1,2.18-1.49,3.28-.16.34-.31.69-.47,1-.91,2-1.81,4-2.72,6-.2.43-.39.86-.58,1.29-.5,1.11-1,2.22-1.49,3.33l-.45,1-2.73,6.12-.6,1.36-1.47,3.32-.47,1.07-2.67,6.07c-.21.5-.43,1-.65,1.49-.48,1.09-.95,2.19-1.43,3.29l-.54,1.23-2.55,5.89-.72,1.69c-.47,1.07-.93,2.15-1.39,3.23-.2.45-.39.91-.58,1.36q-1.24,2.88-2.46,5.77l-.77,1.8L474,703.26c-.23.55-.46,1.1-.7,1.65L471,710.43c-.27.64-.53,1.28-.8,1.91-.44,1-.87,2.11-1.31,3.16l-.69,1.66c-.76,1.83-1.51,3.66-2.27,5.5-.27.67-.55,1.35-.83,2l-1.26,3.08c-.29.73-.59,1.45-.88,2.18q-1,2.5-2,5l-.85,2.11-1.23,3.06-1.08,2.71c-.59,1.47-1.18,2.95-1.76,4.42l-.9,2.29C454.73,750.52,454.34,751.5,454,752.49Z"/><path class="cls-1" d="M796.46,430.3h0C872.89,453,889.37,476,889.37,476s6.78,109.53,3.16,244.27c14,7.41,28.65,12.68,45.74,12.87h.09c5,0,16.21-4.54,35.14-34.54,14.74-23.33,30.25-55.69,45.26-87,15.28-31.85,31.07-64.79,46.87-90.2,19.36-31.16,36.38-47,53.56-49.87a125.9,125.9,0,0,1,54.71,3.26l0-.05q-7.86-15.07-15.55-29.42l-.26-.48q-1.12-2.11-2.26-4.21l-.37-.7c-.72-1.33-1.43-2.66-2.15-4l-.49-.93c-.7-1.28-1.39-2.56-2.08-3.84l-.51-.94-2.06-3.79-.52-.95-2-3.72-.51-.94-2.08-3.79-.36-.65c-.72-1.33-1.45-2.65-2.17-4-.09-.15-.17-.3-.25-.45-.76-1.37-1.51-2.75-2.27-4.11l0-.09c-6.45-11.67-12.66-22.73-18.54-33.09l-.18-.32-2-3.5-.24-.44-1.9-3.32-.34-.6-1.83-3.19-.33-.58-1.82-3.16-.3-.53c-.61-1.05-1.21-2.1-1.8-3.13l-.28-.48-1.81-3.14-.18-.31-1.85-3.19-.11-.18c-5.24-9-10.08-17.28-14.43-24.62l0-.06-1.49-2.52-.17-.28-1.36-2.28c-.08-.15-.17-.29-.25-.43l-1.25-2.09c-.1-.18-.21-.36-.32-.53l-1.22-2.05-.22-.37-1.21-2-.23-.38-1.19-2-.14-.24-1.2-2-.08-.14c-3.37-5.58-6.17-10.19-8.35-13.73l-.1-.18c-.27-.43-.52-.84-.76-1.24l0,0-.63-1-.15-.24c-.16-.27-.32-.52-.48-.78l-.22-.35-.43-.7-.13-.21-.43-.7-.1-.16-.38-.61-.09-.14c-.11-.18-.22-.35-.31-.51l-.07-.1c-.1-.16-.19-.32-.28-.45l0,0-.57-.91-.11-.05h0l-.13-.06h0l-.18-.08h0l-.21-.08-.06,0-.25-.1-.07,0-.29-.1-.09,0-.33-.11-.11,0-.37-.12-.13,0-.41-.13-.15-.05-.45-.13-.17-.05-.5-.14-.18-.05-.55-.14-.21-.05-.6-.15-.21-.05-.65-.15-.23-.06-.71-.15-.24,0-.77-.16-.24,0-.85-.16-.24-.05-.92-.16-.24,0-1-.16-.19,0-1.21-.17-.09,0c-.9-.12-1.85-.24-2.85-.35s-2.06-.21-3.16-.31h-.11l-1.55-.12-.43,0-1.32-.08-.57,0-1.25-.06-.69,0-1.21-.05-.79,0-1.19,0-.87,0-1.18,0h-5.45l-1,0-1.29,0-1,0-1.41,0-1,0-1.53.07-.92,0-1.71.09-.82,0-2,.13-.6,0q-4,.27-8.43.71l-.52.06-2.44.25-.82.09-2.22.26-1,.12-2.14.26-1.11.14L996,283l-1.23.17-2.07.3-1.31.19-2.1.32-1.37.21-2.11.34-1.47.24-2.1.35-1.54.27-2.14.38L977,286l-2.19.41-1.65.31-2.21.43-1.7.34L967,288l-1.76.36-2.29.49-1.81.38-2.35.52-1.85.41-2.42.54-1.88.43-2.48.59-1.92.45-2.54.62-2,.47-2.63.66-2,.49-2.82.73-1.87.48-3.13.83-1.68.45-4.81,1.31-.08,0h-.06c-16.84,4.66-31.56,9.36-44.39,14q-5.77,2.07-11,4.11c-1.18.45-2.33.91-3.47,1.36-2.27.9-4.48,1.8-6.61,2.68L856,321.67c-7.73,3.31-14.5,6.51-20.44,9.56l-2.42,1.26c-2.1,1.11-4.08,2.19-6,3.25-24.37,13.77-30.73,23.47-30.73,23.47s-.57,27.2,0,71.09Z"/><path class="cls-4" d="M889.37,476s-16.48-23-92.91-45.74c.76,59.46,3.59,149.57,12.69,244.29,22.16,7.1,40.3,18.85,57,29.66,8.84,5.73,17.49,11.33,26.4,16.06C896.15,585.57,889.37,476,889.37,476Z"/><path class="cls-3" d="M1750,875C1750,391.75,1358.25,0,875,0S0,391.75,0,875c0,315.59,167.09,592.15,417.62,746.07l32-137.4c11.74-50.42-.79-100.81-13.36-134.21-13.94-37-31.14-62.32-32.37-64.1-47-65.45-66.91-158.36-59.22-276.17C348.13,956.08,363,890.26,389,813.56c20.31-60,47.47-127.21,80.74-199.65,56.4-122.8,110.2-217.19,112.46-221.15A39.94,39.94,0,0,1,598,377.36c7.44-4,25.23-10.7,60.67-10.7,27.53,0,60.3,4.09,97.56,12.16.07-12.65.21-19.86.22-20.43a40,40,0,0,1,6.54-21.1c3.72-5.67,13.35-17.3,36.06-31.38,27.9-17.29,66.57-32.84,115-46.23l.17-.05c46.61-12.88,86.58-19.41,118.8-19.41,28.86,0,44,5.27,50.53,8.41A40,40,0,0,1,1100,263.37c2.43,3.86,60.06,96,121.46,216.34,36.22,71,66.13,137,88.88,196.16,29.08,75.57,46.68,140.72,52.33,193.65,12.42,116.3-3.26,209.3-46.6,276.49q-.52.91-1.11,1.8c-.82,1.3-17.19,27.47-29.73,65.42-11.2,33.89-21.65,84.76-7.84,134.67l32.29,116.73L1349.86,1610C1590.65,1454.17,1750,1183.2,1750,875Z"/><path class="cls-5" d="M421.1,843.83q-1.05,3.25-2.08,6.49c0,.17-.1.34-.16.5q-1.12,3.57-2.23,7.13c-.15.49-.29,1-.44,1.45q-.85,2.76-1.69,5.51c-.21.71-.42,1.42-.64,2.12L412.39,872c-.21.73-.42,1.45-.64,2.17-.51,1.75-1,3.49-1.52,5.24l-.48,1.68q-1,3.5-2,7l-.06.22q-.92,3.28-1.8,6.56c-.18.66-.35,1.31-.53,2-.43,1.63-.87,3.25-1.29,4.87-.2.75-.39,1.49-.58,2.24-.41,1.57-.82,3.14-1.22,4.71-.17.7-.35,1.4-.53,2.1-.47,1.87-.93,3.72-1.38,5.57-.09.38-.18.75-.28,1.13q-.81,3.35-1.59,6.68c-.12.51-.23,1-.35,1.54-.39,1.69-.78,3.37-1.15,5-.17.74-.33,1.47-.49,2.2-.33,1.48-.65,3-1,4.44l-.48,2.25-1,4.62c-.12.63-.26,1.26-.38,1.89q-.66,3.24-1.27,6.45a1.55,1.55,0,0,1,0,.21c-.39,2-.76,4.09-1.13,6.12-.12.66-.23,1.31-.35,2-.26,1.46-.51,2.92-.75,4.37-.13.74-.25,1.48-.37,2.22-.23,1.4-.46,2.8-.68,4.19l-.33,2.12c-.24,1.6-.48,3.2-.7,4.79-.07.46-.14.92-.2,1.38-.29,2-.56,4.06-.82,6.08l-.18,1.46c-.19,1.53-.37,3.05-.55,4.57-.08.69-.15,1.37-.23,2.06-.14,1.33-.28,2.65-.41,4-.07.7-.15,1.41-.21,2.11-.13,1.36-.25,2.72-.37,4.07,0,.61-.11,1.22-.15,1.83-.16,1.94-.31,3.87-.43,5.78,0,.21,0,.41,0,.62-.1,1.65-.21,3.29-.3,4.91l-.12,2.11-.18,3.39c0,.77-.07,1.53-.11,2.29-.05,1.06-.1,2.11-.14,3.16,0,.79-.07,1.57-.1,2.35,0,1-.08,2-.11,3,0,.8-.06,1.6-.08,2.41l-.09,2.9-.06,2.43c0,.95-.05,1.89-.07,2.83s0,1.61,0,2.41,0,1.88,0,2.81,0,1.58,0,2.36c0,.94,0,1.87,0,2.79v5.09c0,.78,0,1.55,0,2.32s0,1.82,0,2.72,0,1.52,0,2.28c0,.91,0,1.81.05,2.71,0,.75,0,1.49.05,2.23,0,.91,0,1.81.07,2.71,0,.73,0,1.45.07,2.17q0,1.38.09,2.73l.09,2.09c0,.93.08,1.85.12,2.77l.09,2c.05.95.1,1.9.16,2.84,0,.62.06,1.25.1,1.87.06,1,.12,2,.19,3,0,.57.07,1.14.11,1.7.07,1.07.15,2.14.23,3.21,0,.46.06.93.1,1.39.1,1.34.21,2.68.32,4,0,.18,0,.37,0,.55q.39,4.56.86,9c0,.33.07.66.11,1,.12,1.14.24,2.28.37,3.4l.15,1.31c.12,1,.24,2,.37,3l.18,1.42c.12,1,.24,1.92.37,2.86.07.5.14,1,.2,1.49l.39,2.75c.07.51.15,1,.22,1.52.13.89.27,1.78.4,2.67l.24,1.51.42,2.63c.08.5.17,1,.25,1.49.14.87.29,1.73.44,2.59.09.5.17,1,.26,1.48.16.86.31,1.71.47,2.56l.27,1.45c.16.86.32,1.71.49,2.56l.27,1.38c.17.87.35,1.73.53,2.59l.27,1.3c.18.88.37,1.76.56,2.63l.27,1.21.6,2.69c.09.37.17.73.26,1.1.21.93.44,1.86.66,2.79.07.32.15.63.22.94.25,1,.5,2,.74,3l.18.71c.29,1.13.58,2.25.88,3.37l.07.25q2.46,9.23,5.29,17.79l0,.12c.36,1.09.72,2.17,1.09,3.24l.12.36c.34,1,.68,2,1,3l.18.48c.33.93.67,1.86,1,2.79.06.18.13.36.2.54.33.9.67,1.8,1,2.68.07.2.15.39.22.59l1,2.6c.08.19.15.39.23.58.34.86.69,1.72,1,2.57l.23.56c.35.85.71,1.7,1.07,2.55.07.17.15.35.22.53l1.11,2.55c.07.15.14.31.2.47l1.16,2.58.18.38c.4.89.81,1.78,1.23,2.65l.12.28c.44.93.88,1.85,1.33,2.76l.05.1a230.82,230.82,0,0,0,20.15,33.92h0c22.5,31.26,49.56,51,76,62.85a183.06,183.06,0,0,0,24.84,9l.15,0c1.28.36,2.55.71,3.82,1l.24.07c1.31.33,2.61.65,3.9,1h.07c1.29.3,2.6.59,3.92.86l.26.06q1.92.39,3.87.75l.18,0a181.09,181.09,0,0,0,26.32,2.86c28.93,1,61.9-4.73,95.87-22.82h0A231.55,231.55,0,0,0,709,1296.45l0,0c.83-.64,1.65-1.28,2.47-1.94l.19-.15c.77-.61,1.54-1.24,2.31-1.87l.29-.23,2.22-1.85.36-.29,2.15-1.83.41-.35,2.11-1.84.43-.38,2.09-1.87.44-.4,2.09-1.91.43-.4c.71-.65,1.41-1.31,2.12-2l.39-.38,2.18-2.09.33-.32c.76-.73,1.52-1.48,2.27-2.23l.23-.23c.83-.82,1.65-1.65,2.47-2.49l0,0c1.69-1.73,3.37-3.49,5.06-5.29q3.78-4,7.55-8.35l.16-.19c.77-.87,1.53-1.76,2.29-2.65l.45-.53,2-2.37.59-.72c.62-.74,1.24-1.49,1.85-2.24.24-.28.47-.57.7-.85l1.75-2.17.76-1c.56-.7,1.12-1.4,1.67-2.11l.82-1,1.62-2.1.84-1.09,1.59-2.11.87-1.16,1.55-2.1.88-1.2,1.55-2.14.88-1.23c.51-.72,1-1.44,1.54-2.17l.88-1.25c.52-.74,1-1.48,1.54-2.23l.87-1.25,1.56-2.3.84-1.24,1.6-2.42c.26-.4.53-.79.79-1.18l1.68-2.59.7-1.08c.62-1,1.23-1.94,1.85-2.91l.52-.82q2.39-3.79,4.76-7.72l.27-.44,2.07-3.48c.24-.39.47-.8.7-1.19l1.63-2.78.86-1.5,1.46-2.55.93-1.65,1.38-2.47c.33-.58.65-1.16,1-1.75.45-.81.89-1.61,1.33-2.43.34-.61.67-1.22,1-1.84l1.29-2.4,1-1.92c.42-.8.85-1.6,1.27-2.41l1-2c.42-.8.84-1.6,1.25-2.41l1-2,1.24-2.45,1-2,1.23-2.49,1-2.08,1.23-2.53c.34-.7.67-1.4,1-2.11s.81-1.71,1.22-2.57c.34-.71.67-1.42,1-2.14l1.21-2.61,1-2.18,1.2-2.65c.33-.73.67-1.46,1-2.2.41-.91.82-1.84,1.23-2.77.32-.71.63-1.42,1-2.14l1.29-3,.88-2c.48-1.11.95-2.22,1.42-3.34.25-.57.5-1.15.74-1.73.69-1.62,1.37-3.26,2.06-4.91l.09-.22c10.61-25.65,19.42-55.16,26.73-87.11,1.08-4.71,2.14-9.46,3.15-14.28.39-1.84.76-3.7,1.14-5.56q3.28-16.08,6.12-32.8c-19.14-47.88-33.37-106.87-43.94-169.2A127.38,127.38,0,0,0,808,801c-62-16-251,145-315,128-26.43-7-51.15-45.25-71.07-87.71-.07.2-.14.41-.2.61Z"/><path class="cls-5" d="M1183,610c-61,10-167,224-229,244-28.47,9.18-48.51,2.13-67.86-9.74-3.55,44.94-8.64,89.9-15.83,132.23q3.36,8.4,6.92,16.32c.57,1.25,1.13,2.51,1.7,3.75.79,1.7,1.58,3.38,2.37,5.06.23.49.46,1,.7,1.46.55,1.17,1.11,2.35,1.66,3.5.3.63.61,1.25.91,1.87l1.47,3,1,2c.47.94.93,1.88,1.4,2.81.34.69.68,1.37,1,2.05.45.91.91,1.81,1.37,2.71l1,2.05c.45.88.9,1.76,1.36,2.64l1.06,2c.45.86.9,1.73,1.36,2.58.35.68.71,1.34,1.07,2l1.35,2.53c.36.67.72,1.34,1.09,2l1.35,2.47c.36.66.72,1.32,1.09,2l1.35,2.44,1.09,1.93,1.38,2.42,1.07,1.87,1.4,2.41,1.06,1.82,1.43,2.4,1,1.76,1.46,2.4,1,1.68c.5.83,1,1.64,1.51,2.46l1,1.56,1.62,2.57.87,1.37,1.8,2.82.69,1.07c.77,1.18,1.53,2.35,2.3,3.51l.2.3q1.27,1.93,2.56,3.83c.84,1.25,1.68,2.48,2.52,3.71.17.24.34.47.5.72.68,1,1.35,1.94,2,2.9l.72,1,1.8,2.53.84,1.16c.57.78,1.13,1.57,1.7,2.34.29.41.59.81.89,1.21l1.65,2.23L940,1101l1.63,2.15.93,1.22,1.63,2.1.93,1.19c.54.7,1.09,1.39,1.63,2.08l.93,1.15,1.65,2,.9,1.12,1.68,2c.29.36.59.71.89,1.07l1.71,2,.84,1,1.77,2.06c.27.31.53.62.8.92l1.83,2.09c.25.27.49.55.74.83l1.93,2.15.63.71,2.1,2.28.47.51,2.4,2.55.17.19q2.63,2.76,5.25,5.4,3.95,4,7.9,7.69l.09.08c.84.79,1.67,1.56,2.51,2.33l.29.26q1.15,1.07,2.31,2.1l.38.34,2.22,2,.45.38,2.16,1.87.48.41,2.13,1.79.49.41,2.13,1.75.48.39,2.15,1.72.46.36c.72.58,1.45,1.15,2.18,1.71l.41.32,2.25,1.7.34.27,2.34,1.73.25.18c.83.61,1.65,1.2,2.48,1.79l.1.08q3.93,2.79,7.86,5.37t7.86,4.94q3.91,2.36,7.82,4.5c2.6,1.42,5.19,2.78,7.78,4.06h0c.85.43,1.7.84,2.55,1.25h0c34.71,16.69,67.92,21.09,96.8,18.86a181.82,181.82,0,0,0,26.12-3.94l.17,0c1.29-.3,2.57-.6,3.84-.92l.24-.06c1.31-.33,2.61-.67,3.89-1h.07c1.25-.35,2.51-.72,3.77-1.1l1-.3,2.88-.91,1-.34c1-.33,2-.67,3-1l.83-.29,3.32-1.23.5-.19c5.37-2.05,10.79-4.41,16.24-7.13,25.89-12.93,52.08-33.76,73.26-65.88h0q1.53-2.33,3-4.73l.48-.78q1.24-2,2.46-4.09l.64-1.11q1.13-1.92,2.22-3.9l.72-1.33c.69-1.26,1.37-2.53,2-3.83.27-.5.53-1,.79-1.52.63-1.24,1.26-2.48,1.87-3.75.29-.58.57-1.16.86-1.75.57-1.19,1.13-2.39,1.69-3.6l.93-2.06c.48-1.06,1-2.14,1.42-3.22q.57-1.29,1.11-2.61c.34-.8.68-1.61,1-2.43.48-1.18,1-2.37,1.42-3.56l.93-2.4c.47-1.25.94-2.51,1.4-3.78l.84-2.34c.46-1.32.92-2.65,1.38-4l.75-2.28c.46-1.4.91-2.82,1.36-4.24l.66-2.18q.6-2,1.2-4.08.35-1.21.69-2.46c.38-1.36.75-2.73,1.11-4.12.22-.83.44-1.66.65-2.5.37-1.44.73-2.9,1.08-4.36l.54-2.29c.37-1.59.73-3.2,1.08-4.82.14-.6.27-1.2.4-1.81q.57-2.73,1.11-5.52c.13-.62.25-1.24.37-1.86q.52-2.82,1-5.68l.33-1.87c.32-1.95.64-3.91.94-5.89l.27-1.84q.45-3,.86-6.11c.07-.6.15-1.19.23-1.79.26-2.11.52-4.23.76-6.38l.18-1.66q.36-3.33.67-6.72c0-.49.09-1,.13-1.46.21-2.35.41-4.73.58-7.13,0-.38,0-.76.08-1.15q.26-3.71.47-7.48c0-.27,0-.55,0-.82.14-2.54.25-5.11.35-7.7l0-.87q.15-4,.22-8l0-1.16q.06-4,.08-8v-1.34q0-4,0-8.1c0-.48,0-1,0-1.46,0-2.72-.11-5.47-.19-8.25,0-.49,0-1,0-1.48-.09-2.8-.19-5.62-.33-8.47l-.06-1.45c-.14-2.89-.3-5.8-.48-8.75l-.09-1.32c-.19-3-.4-6-.63-9.11l-.09-1.1c-.25-3.17-.52-6.35-.81-9.58,0-.23,0-.47-.07-.7q-.47-5-1-10.18v0c-.18-1.68-.37-3.38-.58-5.09,0-.36-.09-.73-.14-1.1-.16-1.34-.33-2.68-.51-4l-.24-1.74c-.16-1.15-.32-2.29-.49-3.44-.09-.66-.2-1.34-.3-2-.16-1.08-.32-2.16-.49-3.24-.12-.7-.24-1.42-.35-2.13-.18-1-.34-2.1-.52-3.16-.13-.74-.27-1.5-.4-2.24-.18-1-.35-2.06-.54-3.09-.14-.77-.29-1.55-.44-2.33-.19-1-.37-2-.57-3-.15-.8-.31-1.59-.47-2.39-.2-1-.4-2-.61-3-.16-.82-.33-1.64-.5-2.45-.21-1-.42-2-.64-3-.17-.84-.36-1.68-.54-2.52l-.66-3c-.19-.86-.39-1.72-.59-2.57s-.45-2-.68-3-.41-1.73-.62-2.59-.47-2-.71-3l-.66-2.66c-.24-1-.48-2-.73-3s-.46-1.81-.7-2.72l-.75-2.94c-.24-.92-.49-1.84-.73-2.76s-.52-2-.79-3-.5-1.85-.75-2.77l-.81-3-.78-2.78c-.28-1-.56-2-.85-3l-.81-2.82c-.29-1-.57-2-.87-3s-.56-1.9-.84-2.85-.59-2-.89-3-.58-1.93-.88-2.9l-.9-3c-.3-1-.61-2-.92-2.95s-.61-2-.91-2.93-.63-2-1-3-.62-2-.94-3-.65-2-1-3l-1-2.94c-.33-1-.67-2-1-3s-.65-2-1-2.93-.69-2-1-3-.66-2-1-2.92l-1.06-3.09c-.34-1-.67-1.93-1-2.9s-.72-2.08-1.09-3.11l-1-2.91c-.38-1-.75-2.09-1.12-3.13l-1-2.88c-.38-1.06-.76-2.11-1.15-3.17l-1.05-2.88-1.17-3.18c-.35-.95-.7-1.91-1.06-2.86l-1.21-3.24-1.06-2.82c-.41-1.09-.83-2.17-1.24-3.26-.36-.93-.72-1.87-1.07-2.81l-1.28-3.3c-.35-.92-.71-1.85-1.07-2.77-.43-1.11-.86-2.22-1.3-3.33l-1.08-2.76-1.33-3.36-1.08-2.72c-.46-1.13-.91-2.26-1.36-3.39l-1.09-2.71-1.39-3.42-1.08-2.66-1.42-3.46c-.37-.88-.73-1.76-1.09-2.65l-1.44-3.46-1.1-2.64-1.47-3.5-1.08-2.56c-.51-1.19-1-2.38-1.51-3.57l-1.08-2.51c-.51-1.2-1-2.4-1.54-3.6-.35-.83-.71-1.65-1.07-2.48-.52-1.21-1-2.42-1.57-3.63l-1-2.43c-.33-.74-.65-1.49-1-2.23C1223.31,612.86,1201.35,607,1183,610Z"/><path class="cls-6" d="M512.51,1325.1a183.06,183.06,0,0,0,24.84,9l.15,0c1.28.36,2.55.71,3.82,1l.24.07c1.31.33,2.61.65,3.9,1h.07c1.29.3,2.6.59,3.92.86l.26.06q1.92.39,3.87.75l.18,0a181.09,181.09,0,0,0,26.32,2.86c28.93,1,61.9-4.73,95.87-22.82h0A231.55,231.55,0,0,0,709,1296.45l0,0c.83-.64,1.65-1.28,2.47-1.94l.19-.15c.77-.61,1.54-1.24,2.31-1.87l.29-.23,2.22-1.85.36-.29,2.15-1.83.41-.35,2.11-1.84.43-.38,2.09-1.87.44-.4,2.09-1.91.43-.4c.71-.65,1.41-1.31,2.12-2l.39-.38,2.18-2.09.33-.32c.76-.73,1.52-1.48,2.27-2.23l.23-.23c.83-.82,1.65-1.65,2.47-2.49l0,0c1.69-1.73,3.37-3.49,5.06-5.29q3.78-4,7.55-8.35l.16-.19c.77-.87,1.53-1.76,2.29-2.65l.45-.53,2-2.37.59-.72c.62-.74,1.24-1.49,1.85-2.24.24-.28.47-.57.7-.85l1.75-2.17.76-1c.56-.7,1.12-1.4,1.67-2.11l.82-1,1.62-2.1.84-1.09,1.59-2.11.87-1.16,1.55-2.1.88-1.2,1.55-2.14.88-1.23c.51-.72,1-1.44,1.54-2.17l.88-1.25c.52-.74,1-1.48,1.54-2.23l.87-1.25,1.56-2.3.84-1.24,1.6-2.42c.26-.4.53-.79.79-1.18l1.68-2.59.7-1.08c.62-1,1.23-1.94,1.85-2.91l.52-.82q2.39-3.79,4.76-7.72l.27-.44,2.07-3.48c.24-.39.47-.8.7-1.19l1.63-2.78.86-1.5,1.46-2.55.93-1.65,1.38-2.47c.33-.58.65-1.16,1-1.75.45-.81.89-1.61,1.33-2.43.34-.61.67-1.22,1-1.84l1.29-2.4,1-1.92c.42-.8.85-1.6,1.27-2.41l1-2c.42-.8.84-1.6,1.25-2.41l1-2,1.24-2.45,1-2,1.23-2.49,1-2.08,1.23-2.53c.34-.7.67-1.4,1-2.11s.81-1.71,1.22-2.57c.34-.71.67-1.42,1-2.14l1.21-2.61,1-2.18,1.2-2.65c.33-.73.67-1.46,1-2.2.41-.91.82-1.84,1.23-2.77.32-.71.63-1.42,1-2.14l1.29-3,.88-2c.48-1.11.95-2.22,1.42-3.34.25-.57.5-1.15.74-1.73.69-1.62,1.37-3.26,2.06-4.91l.09-.22c10.61-25.65,19.42-55.16,26.73-87.11,1.08-4.71,2.14-9.46,3.15-14.28.39-1.84.76-3.7,1.14-5.56q3.28-16.08,6.12-32.8C840.13,901,822.16,798,811.49,697.67A116.88,116.88,0,0,0,769.38,689h-1.22c-39.65,0-97.77,37.69-149.12,71-49,31.75-91.3,59.21-121.21,59.21h-.71c-25.47-.37-43.58-19.81-54.59-36.86h0q-1.36,3.66-2.7,7.33l-.48,1.3c-.71,1.93-1.41,3.87-2.11,5.8l-.72,2c-.64,1.76-1.26,3.51-1.89,5.27-.24.66-.48,1.33-.71,2q-1,2.87-2,5.74c-.17.46-.33.92-.49,1.38q-1.28,3.65-2.52,7.29l0,0c-.8,2.33-1.59,4.65-2.37,7l-.62,1.83c-.59,1.76-1.17,3.51-1.75,5.27-.24.71-.47,1.42-.71,2.13q-.85,2.6-1.69,5.18l-.63,1.93q-1.05,3.25-2.08,6.49c0,.17-.1.34-.16.5q-1.12,3.57-2.23,7.13c-.15.49-.29,1-.44,1.45q-.85,2.76-1.69,5.51c-.21.71-.42,1.42-.64,2.12L412.39,872c-.21.73-.42,1.45-.64,2.17-.51,1.75-1,3.49-1.52,5.24l-.48,1.68q-1,3.5-2,7l-.06.22q-.92,3.28-1.8,6.56c-.18.66-.35,1.31-.53,2-.43,1.63-.87,3.25-1.29,4.87-.2.75-.39,1.49-.58,2.24-.41,1.57-.82,3.14-1.22,4.71-.17.7-.35,1.4-.53,2.1-.47,1.87-.93,3.72-1.38,5.57-.09.38-.18.75-.28,1.13q-.81,3.35-1.59,6.68c-.12.51-.23,1-.35,1.54-.39,1.69-.78,3.37-1.15,5-.17.74-.33,1.47-.49,2.2-.33,1.48-.65,3-1,4.44l-.48,2.25-1,4.62c-.12.63-.26,1.26-.38,1.89q-.66,3.24-1.27,6.45a1.55,1.55,0,0,1,0,.21c-.39,2-.76,4.09-1.13,6.12-.12.66-.23,1.31-.35,2-.26,1.46-.51,2.92-.75,4.37-.13.74-.25,1.48-.37,2.22-.23,1.4-.46,2.8-.68,4.19l-.33,2.12c-.24,1.6-.48,3.2-.7,4.79-.07.46-.14.92-.2,1.38-.29,2-.56,4.06-.82,6.08l-.18,1.46c-.19,1.53-.37,3.05-.55,4.57-.08.69-.15,1.37-.23,2.06-.14,1.33-.28,2.65-.41,4-.07.7-.15,1.41-.21,2.11-.13,1.36-.25,2.72-.37,4.07,0,.61-.11,1.22-.15,1.83-.16,1.94-.31,3.87-.43,5.78,0,.21,0,.41,0,.62-.1,1.65-.21,3.29-.3,4.91l-.12,2.11-.18,3.39c0,.77-.07,1.53-.11,2.29-.05,1.06-.1,2.11-.14,3.16,0,.79-.07,1.57-.1,2.35,0,1-.08,2-.11,3,0,.8-.06,1.6-.08,2.41l-.09,2.9-.06,2.43c0,.95-.05,1.89-.07,2.83s0,1.61,0,2.41,0,1.88,0,2.81,0,1.58,0,2.36c0,.94,0,1.87,0,2.79v5.09c0,.78,0,1.55,0,2.32s0,1.82,0,2.72,0,1.52,0,2.28c0,.91,0,1.81.05,2.71,0,.75,0,1.49.05,2.23,0,.91,0,1.81.07,2.71,0,.73,0,1.45.07,2.17q0,1.38.09,2.73l.09,2.09c0,.93.08,1.85.12,2.77l.09,2c.05.95.1,1.9.16,2.84,0,.62.06,1.25.1,1.87.06,1,.12,2,.19,3,0,.57.07,1.14.11,1.7.07,1.07.15,2.14.23,3.21,0,.46.06.93.1,1.39.1,1.34.21,2.68.32,4,0,.18,0,.37,0,.55q.39,4.56.86,9c0,.33.07.66.11,1,.12,1.14.24,2.28.37,3.4l.15,1.31c.12,1,.24,2,.37,3l.18,1.42c.12,1,.24,1.92.37,2.86.07.5.14,1,.2,1.49l.39,2.75c.07.51.15,1,.22,1.52.13.89.27,1.78.4,2.67l.24,1.51.42,2.63c.08.5.17,1,.25,1.49.14.87.29,1.73.44,2.59.09.5.17,1,.26,1.48.16.86.31,1.71.47,2.56l.27,1.45c.16.86.32,1.71.49,2.56l.27,1.38c.17.87.35,1.73.53,2.59l.27,1.3c.18.88.37,1.76.56,2.63l.27,1.21.6,2.69c.09.37.17.73.26,1.1.21.93.44,1.86.66,2.79.07.32.15.63.22.94.25,1,.5,2,.74,3l.18.71c.29,1.13.58,2.25.88,3.37l.07.25q2.46,9.23,5.29,17.79l0,.12c.36,1.09.72,2.17,1.09,3.24l.12.36c.34,1,.68,2,1,3l.18.48c.33.93.67,1.86,1,2.79.06.18.13.36.2.54.33.9.67,1.8,1,2.68.07.2.15.39.22.59l1,2.6c.08.19.15.39.23.58.34.86.69,1.72,1,2.57l.23.56c.35.85.71,1.7,1.07,2.55.07.17.15.35.22.53l1.11,2.55c.07.15.14.31.2.47l1.16,2.58.18.38c.4.89.81,1.78,1.23,2.65l.12.28c.44.93.88,1.85,1.33,2.76l.05.1a230.82,230.82,0,0,0,20.15,33.92h0C459,1293.51,486.08,1313.24,512.51,1325.1Z"/><path class="cls-7" d="M877.23,992.81c.57,1.25,1.13,2.51,1.7,3.75.79,1.7,1.58,3.38,2.37,5.06.23.49.46,1,.7,1.46.55,1.17,1.11,2.35,1.66,3.5.3.63.61,1.25.91,1.87l1.47,3,1,2c.47.94.93,1.88,1.4,2.81.34.69.68,1.37,1,2.05.45.91.91,1.81,1.37,2.71l1,2.05c.45.88.9,1.76,1.36,2.64l1.06,2c.45.86.9,1.73,1.36,2.58.35.68.71,1.34,1.07,2l1.35,2.53c.36.67.72,1.34,1.09,2l1.35,2.47c.36.66.72,1.32,1.09,2l1.35,2.44,1.09,1.93,1.38,2.42,1.07,1.87,1.4,2.41,1.06,1.82,1.43,2.4,1,1.76,1.46,2.4,1,1.68c.5.83,1,1.64,1.51,2.46l1,1.56,1.62,2.57.87,1.37,1.8,2.82.69,1.07c.77,1.18,1.53,2.35,2.3,3.51l.2.3q1.27,1.93,2.56,3.83c.84,1.25,1.68,2.48,2.52,3.71.17.24.34.47.5.72.68,1,1.35,1.94,2,2.9l.72,1,1.8,2.53.84,1.16c.57.78,1.13,1.57,1.7,2.34.29.41.59.81.89,1.21l1.65,2.23L940,1101l1.63,2.15.93,1.22,1.63,2.1.93,1.19c.54.7,1.09,1.39,1.63,2.08l.93,1.15,1.65,2,.9,1.12,1.68,2c.29.36.59.71.89,1.07l1.71,2,.84,1,1.77,2.06c.27.31.53.62.8.92l1.83,2.09c.25.27.49.55.74.83l1.93,2.15.63.71,2.1,2.28.47.51,2.4,2.55.17.19q2.63,2.76,5.25,5.4,3.95,4,7.9,7.69l.09.08c.84.79,1.67,1.56,2.51,2.33l.29.26q1.15,1.07,2.31,2.1l.38.34,2.22,2,.45.38,2.16,1.87.48.41,2.13,1.79.49.41,2.13,1.75.48.39,2.15,1.72.46.36c.72.58,1.45,1.15,2.18,1.71l.41.32,2.25,1.7.34.27,2.34,1.73.25.18c.83.61,1.65,1.2,2.48,1.79l.1.08q3.93,2.79,7.86,5.37t7.86,4.94q3.91,2.36,7.82,4.5c2.6,1.42,5.19,2.78,7.78,4.06h0c.85.43,1.7.84,2.55,1.25h0c34.71,16.69,67.92,21.09,96.8,18.86a181.82,181.82,0,0,0,26.12-3.94l.17,0c1.29-.3,2.57-.6,3.84-.92l.24-.06c1.31-.33,2.61-.67,3.89-1h.07c1.25-.35,2.51-.72,3.77-1.1l1-.3,2.88-.91,1-.34c1-.33,2-.67,3-1l.83-.29,3.32-1.23.5-.19c5.37-2.05,10.79-4.41,16.24-7.13,25.89-12.93,52.08-33.76,73.26-65.88h0q1.53-2.33,3-4.73l.48-.78q1.24-2,2.46-4.09l.64-1.11q1.13-1.92,2.22-3.9l.72-1.33c.69-1.26,1.37-2.53,2-3.83.27-.5.53-1,.79-1.52.63-1.24,1.26-2.48,1.87-3.75.29-.58.57-1.16.86-1.75.57-1.19,1.13-2.39,1.69-3.6l.93-2.06c.48-1.06,1-2.14,1.42-3.22q.57-1.29,1.11-2.61c.34-.8.68-1.61,1-2.43.48-1.18,1-2.37,1.42-3.56l.93-2.4c.47-1.25.94-2.51,1.4-3.78l.84-2.34c.46-1.32.92-2.65,1.38-4l.75-2.28c.46-1.4.91-2.82,1.36-4.24l.66-2.18q.6-2,1.2-4.08.35-1.21.69-2.46c.38-1.36.75-2.73,1.11-4.12.22-.83.44-1.66.65-2.5.37-1.44.73-2.9,1.08-4.36l.54-2.29c.37-1.59.73-3.2,1.08-4.82.14-.6.27-1.2.4-1.81q.57-2.73,1.11-5.52c.13-.62.25-1.24.37-1.86q.52-2.82,1-5.68l.33-1.87c.32-1.95.64-3.91.94-5.89l.27-1.84q.45-3,.86-6.11c.07-.6.15-1.19.23-1.79.26-2.11.52-4.23.76-6.38l.18-1.66q.36-3.33.67-6.72c0-.49.09-1,.13-1.46.21-2.35.41-4.73.58-7.13,0-.38,0-.76.08-1.15q.26-3.71.47-7.48c0-.27,0-.55,0-.82.14-2.54.25-5.11.35-7.7l0-.87q.15-4,.22-8l0-1.16q.06-4,.08-8v-1.34q0-4,0-8.1c0-.48,0-1,0-1.46,0-2.72-.11-5.47-.19-8.25,0-.49,0-1,0-1.48-.09-2.8-.19-5.62-.33-8.47l-.06-1.45c-.14-2.89-.3-5.8-.48-8.75l-.09-1.32c-.19-3-.4-6-.63-9.11l-.09-1.1c-.25-3.17-.52-6.35-.81-9.58,0-.23,0-.47-.07-.7q-.47-5-1-10.18v0c-.18-1.68-.37-3.38-.58-5.09,0-.36-.09-.73-.14-1.1-.16-1.34-.33-2.68-.51-4l-.24-1.74c-.16-1.15-.32-2.29-.49-3.44-.09-.66-.2-1.34-.3-2-.16-1.08-.32-2.16-.49-3.24-.12-.7-.24-1.42-.35-2.13-.18-1-.34-2.1-.52-3.16-.13-.74-.27-1.5-.4-2.24-.18-1-.35-2.06-.54-3.09-.14-.77-.29-1.55-.44-2.33-.19-1-.37-2-.57-3-.15-.8-.31-1.59-.47-2.39-.2-1-.4-2-.61-3-.16-.82-.33-1.64-.5-2.45-.21-1-.42-2-.64-3-.17-.84-.36-1.68-.54-2.52l-.66-3c-.19-.86-.39-1.72-.59-2.57s-.45-2-.68-3-.41-1.73-.62-2.59-.47-2-.71-3l-.66-2.66c-.24-1-.48-2-.73-3s-.46-1.81-.7-2.72l-.75-2.94c-.24-.92-.49-1.84-.73-2.76s-.52-2-.79-3-.5-1.85-.75-2.77l-.81-3-.78-2.78c-.28-1-.56-2-.85-3l-.81-2.82c-.29-1-.57-2-.87-3s-.56-1.9-.84-2.85-.59-2-.89-3-.58-1.93-.88-2.9l-.9-3c-.3-1-.61-2-.92-2.95s-.61-2-.91-2.93-.63-2-1-3-.62-2-.94-3-.65-2-1-3l-1-2.94c-.33-1-.67-2-1-3s-.65-2-1-2.93-.69-2-1-3-.66-2-1-2.92l-1.06-3.09c-.34-1-.67-1.93-1-2.9s-.72-2.08-1.09-3.11l-1-2.91c-.38-1-.75-2.09-1.12-3.13l-1-2.88c-.38-1.06-.76-2.11-1.15-3.17l-1.05-2.88-1.17-3.18c-.35-.95-.7-1.91-1.06-2.86l-1.21-3.24-1.06-2.82c-.41-1.09-.83-2.17-1.24-3.26-.36-.93-.72-1.87-1.07-2.81l-1.28-3.3c-.35-.92-.71-1.85-1.07-2.77-.43-1.11-.86-2.22-1.3-3.33l-1.08-2.76-1.33-3.36-1.08-2.72c-.46-1.13-.91-2.26-1.36-3.39l-1.09-2.71-1.39-3.42-1.08-2.66-1.42-3.46c-.37-.88-.73-1.76-1.09-2.65l-1.44-3.46-1.1-2.64-1.47-3.5-1.08-2.56c-.51-1.19-1-2.38-1.51-3.57l-1.08-2.51c-.51-1.2-1-2.4-1.54-3.6-.35-.83-.71-1.65-1.07-2.48-.52-1.21-1-2.42-1.57-3.63l-1-2.43-1.62-3.7-1-2.33-1.67-3.77c-.33-.76-.67-1.52-1-2.28l-1.68-3.78c-.34-.76-.68-1.51-1-2.27l-1.73-3.83c-.32-.72-.64-1.43-1-2.15l-1.77-3.91-1-2.09-1.81-4c-.31-.66-.61-1.33-.92-2l-1.86-4c-.29-.64-.59-1.27-.88-1.91-.64-1.37-1.27-2.74-1.91-4.12l-.84-1.8c-.66-1.4-1.31-2.8-2-4.19-.27-.58-.54-1.15-.8-1.72q-1-2.13-2-4.24c-.27-.56-.53-1.12-.79-1.67q-1-2.16-2-4.29c-.24-.51-.48-1-.73-1.52q-1.05-2.22-2.12-4.44l-.64-1.33q-1.1-2.29-2.2-4.56l-.6-1.25-2.25-4.63c-.17-.37-.35-.73-.53-1.1l-2.32-4.75c-.15-.32-.31-.63-.46-1l-2.4-4.87-.38-.78-2.49-5c-.08-.17-.17-.34-.25-.52l-2.6-5.22c-.07-.13-.13-.27-.2-.4L1194,514l-.06-.12q-2.82-5.61-5.63-11.15c-11.33-5.58-36.38-15.33-65.62-10.45-25.38,4.24-58.41,73.11-85,128.44-34.33,71.59-64,133.44-99.32,133.45H938c-17.4-.2-32.43-4.53-46.21-10.81-2.69,76.22-8.88,158.73-21.51,233.12Q873.67,984.89,877.23,992.81Z"/><path class="cls-8" d="M891.82,743.37c-13.21-6-25.26-13.82-37.11-21.5-14.1-9.14-27.77-18-43.22-24.2C822.16,798,840.13,901,870.31,976.49,882.94,902.1,889.13,819.59,891.82,743.37Z"/><path class="cls-9" d="M421.1,843.83q-1.05,3.25-2.08,6.49c0,.17-.1.34-.16.5q-1.12,3.57-2.23,7.13c-.15.49-.29,1-.44,1.45q-.85,2.76-1.69,5.51c-.21.71-.42,1.42-.64,2.12L412.39,872c-.21.73-.42,1.45-.64,2.17-.51,1.75-1,3.49-1.52,5.24l-.48,1.68q-1,3.5-2,7l-.06.22q-.92,3.28-1.8,6.56c-.18.66-.35,1.31-.53,2-.43,1.63-.87,3.25-1.29,4.87-.2.75-.39,1.49-.58,2.24-.41,1.57-.82,3.14-1.22,4.71-.17.7-.35,1.4-.53,2.1-.47,1.87-.93,3.72-1.38,5.57-.09.38-.18.75-.28,1.13q-.81,3.35-1.59,6.68c-.12.51-.23,1-.35,1.54-.39,1.69-.78,3.37-1.15,5-.17.74-.33,1.47-.49,2.2-.33,1.48-.65,3-1,4.44l-.48,2.25-1,4.62c-.12.63-.26,1.26-.38,1.89q-.66,3.24-1.27,6.45a1.55,1.55,0,0,1,0,.21c-.39,2-.76,4.09-1.13,6.12-.12.66-.23,1.31-.35,2-.26,1.46-.51,2.92-.75,4.37-.13.74-.25,1.48-.37,2.22-.23,1.4-.46,2.8-.68,4.19l-.33,2.12c-.24,1.6-.48,3.2-.7,4.79-.07.46-.14.92-.2,1.38-.29,2-.56,4.06-.82,6.08l-.18,1.46c-.19,1.53-.37,3.05-.55,4.57-.08.69-.15,1.37-.23,2.06-.14,1.33-.28,2.65-.41,4-.07.7-.15,1.41-.21,2.11-.13,1.36-.25,2.72-.37,4.07,0,.61-.11,1.22-.15,1.83-.16,1.94-.31,3.87-.43,5.78,0,.21,0,.41,0,.62-.1,1.65-.21,3.29-.3,4.91l-.12,2.11-.18,3.39c0,.77-.07,1.53-.11,2.29-.05,1.06-.1,2.11-.14,3.16,0,.79-.07,1.57-.1,2.35,0,1-.08,2-.11,3,0,.8-.06,1.6-.08,2.41l-.09,2.9-.06,2.43c0,.95-.05,1.89-.07,2.83s0,1.61,0,2.41,0,1.88,0,2.81,0,1.58,0,2.36c0,.94,0,1.87,0,2.79v5.09c0,.78,0,1.55,0,2.32s0,1.82,0,2.72,0,1.52,0,2.28c0,.91,0,1.81.05,2.71,0,.75,0,1.49.05,2.23,0,.91,0,1.81.07,2.71,0,.73,0,1.45.07,2.17q0,1.38.09,2.73l.09,2.09c0,.93.08,1.85.12,2.77l.09,2c.05.95.1,1.9.16,2.84,0,.62.06,1.25.1,1.87.06,1,.12,2,.19,3,0,.57.07,1.14.11,1.7.07,1.07.15,2.14.23,3.21,0,.46.06.93.1,1.39.1,1.34.21,2.68.32,4,0,.18,0,.37,0,.55q.39,4.56.86,9c0,.33.07.66.11,1,.12,1.14.24,2.28.37,3.4l.15,1.31c.12,1,.24,2,.37,3l.18,1.42c.12,1,.24,1.92.37,2.86.07.5.14,1,.2,1.49l.39,2.75c.07.51.15,1,.22,1.52.13.89.27,1.78.4,2.67l.24,1.51.42,2.63c.08.5.17,1,.25,1.49.14.87.29,1.73.44,2.59.09.5.17,1,.26,1.48.16.86.31,1.71.47,2.56l.27,1.45c.16.86.32,1.71.49,2.56l.27,1.38c.17.87.35,1.73.53,2.59l.27,1.3c.18.88.37,1.76.56,2.63l.27,1.21.6,2.69c.09.37.17.73.26,1.1.21.93.44,1.86.66,2.79.07.32.15.63.22.94.25,1,.5,2,.74,3l.18.71c.29,1.13.58,2.25.88,3.37l.07.25q2.46,9.23,5.29,17.79l0,.12c.36,1.09.72,2.17,1.09,3.24l.12.36c.34,1,.68,2,1,3l.18.48c.33.93.67,1.86,1,2.79.06.18.13.36.2.54.33.9.67,1.8,1,2.68.07.2.15.39.22.59l1,2.6c.08.19.15.39.23.58.34.86.69,1.72,1,2.57l.23.56c.35.85.71,1.7,1.07,2.55.07.17.15.35.22.53l1.11,2.55c.07.15.14.31.2.47l1.16,2.58.18.38c.4.89.81,1.78,1.23,2.65l.12.28c.44.93.88,1.85,1.33,2.76l.05.1a230.82,230.82,0,0,0,20.15,33.92h0c22.5,31.26,49.56,51,76,62.85a183.06,183.06,0,0,0,24.84,9l.15,0c1.28.36,2.55.71,3.82,1l.24.07c1.31.33,2.61.65,3.9,1h.07c1.29.3,2.6.59,3.92.86l.26.06q1.92.39,3.87.75l.18,0a181.09,181.09,0,0,0,26.32,2.86c28.93,1,61.9-4.73,95.87-22.82h0A231.55,231.55,0,0,0,709,1296.45l0,0c.83-.64,1.65-1.28,2.47-1.94l.19-.15c.77-.61,1.54-1.24,2.31-1.87l.29-.23,2.22-1.85.36-.29,2.15-1.83.41-.35,2.11-1.84.43-.38,2.09-1.87.44-.4,2.09-1.91.43-.4c.71-.65,1.41-1.31,2.12-2l.39-.38,2.18-2.09.33-.32c.76-.73,1.52-1.48,2.27-2.23l.23-.23c.83-.82,1.65-1.65,2.47-2.49l0,0c1.69-1.73,3.37-3.49,5.06-5.29q3.78-4,7.55-8.35l.16-.19c.77-.87,1.53-1.76,2.29-2.65l.45-.53,2-2.37.59-.72c.62-.74,1.24-1.49,1.85-2.24.24-.28.47-.57.7-.85l1.75-2.17.76-1c.56-.7,1.12-1.4,1.67-2.11l.82-1,1.62-2.1.84-1.09,1.59-2.11.87-1.16,1.55-2.1.88-1.2,1.55-2.14.88-1.23c.51-.72,1-1.44,1.54-2.17l.88-1.25c.52-.74,1-1.48,1.54-2.23l.87-1.25,1.56-2.3.84-1.24,1.6-2.42c.26-.4.53-.79.79-1.18l1.68-2.59.7-1.08c.62-1,1.23-1.94,1.85-2.91l.52-.82q2.39-3.79,4.76-7.72l.27-.44,2.07-3.48c.24-.39.47-.8.7-1.19l1.63-2.78.86-1.5,1.46-2.55.93-1.65,1.38-2.47c.33-.58.65-1.16,1-1.75.45-.81.89-1.61,1.33-2.43.34-.61.67-1.22,1-1.84l1.29-2.4,1-1.92c.42-.8.85-1.6,1.27-2.41l1-2c.42-.8.84-1.6,1.25-2.41l1-2,1.24-2.45,1-2,1.23-2.49,1-2.08,1.23-2.53c.34-.7.67-1.4,1-2.11s.81-1.71,1.22-2.57c.34-.71.67-1.42,1-2.14l1.21-2.61,1-2.18,1.2-2.65c.33-.73.67-1.46,1-2.2.41-.91.82-1.84,1.23-2.77.32-.71.63-1.42,1-2.14l1.29-3,.88-2c.48-1.11.95-2.22,1.42-3.34.25-.57.5-1.15.74-1.73.69-1.62,1.37-3.26,2.06-4.91l.09-.22c10.61-25.65,19.42-55.16,26.73-87.11,1.08-4.71,2.14-9.46,3.15-14.28.39-1.84.76-3.7,1.14-5.56q3.28-16.08,6.12-32.8c-19.14-47.88-33.37-106.87-43.94-169.2A127.38,127.38,0,0,0,808,801c-62-16-251,145-315,128-26.43-7-51.15-45.25-71.07-87.71-.07.2-.14.41-.2.61Z"/><path class="cls-10" d="M1183,610c-61,10-167,224-229,244-28.47,9.18-48.51,2.13-67.86-9.74-3.55,44.94-8.64,89.9-15.83,132.23q3.36,8.4,6.92,16.32c.57,1.25,1.13,2.51,1.7,3.75.79,1.7,1.58,3.38,2.37,5.06.23.49.46,1,.7,1.46.55,1.17,1.11,2.35,1.66,3.5.3.63.61,1.25.91,1.87l1.47,3,1,2c.47.94.93,1.88,1.4,2.81.34.69.68,1.37,1,2.05.45.91.91,1.81,1.37,2.71l1,2.05c.45.88.9,1.76,1.36,2.64l1.06,2c.45.86.9,1.73,1.36,2.58.35.68.71,1.34,1.07,2l1.35,2.53c.36.67.72,1.34,1.09,2l1.35,2.47c.36.66.72,1.32,1.09,2l1.35,2.44,1.09,1.93,1.38,2.42,1.07,1.87,1.4,2.41,1.06,1.82,1.43,2.4,1,1.76,1.46,2.4,1,1.68c.5.83,1,1.64,1.51,2.46l1,1.56,1.62,2.57.87,1.37,1.8,2.82.69,1.07c.77,1.18,1.53,2.35,2.3,3.51l.2.3q1.27,1.93,2.56,3.83c.84,1.25,1.68,2.48,2.52,3.71.17.24.34.47.5.72.68,1,1.35,1.94,2,2.9l.72,1,1.8,2.53.84,1.16c.57.78,1.13,1.57,1.7,2.34.29.41.59.81.89,1.21l1.65,2.23L940,1101l1.63,2.15.93,1.22,1.63,2.1.93,1.19c.54.7,1.09,1.39,1.63,2.08l.93,1.15,1.65,2,.9,1.12,1.68,2c.29.36.59.71.89,1.07l1.71,2,.84,1,1.77,2.06c.27.31.53.62.8.92l1.83,2.09c.25.27.49.55.74.83l1.93,2.15.63.71,2.1,2.28.47.51,2.4,2.55.17.19q2.63,2.76,5.25,5.4,3.95,4,7.9,7.69l.09.08c.84.79,1.67,1.56,2.51,2.33l.29.26q1.15,1.07,2.31,2.1l.38.34,2.22,2,.45.38,2.16,1.87.48.41,2.13,1.79.49.41,2.13,1.75.48.39,2.15,1.72.46.36c.72.58,1.45,1.15,2.18,1.71l.41.32,2.25,1.7.34.27,2.34,1.73.25.18c.83.61,1.65,1.2,2.48,1.79l.1.08q3.93,2.79,7.86,5.37t7.86,4.94q3.91,2.36,7.82,4.5c2.6,1.42,5.19,2.78,7.78,4.06h0c.85.43,1.7.84,2.55,1.25h0c34.71,16.69,67.92,21.09,96.8,18.86a181.82,181.82,0,0,0,26.12-3.94l.17,0c1.29-.3,2.57-.6,3.84-.92l.24-.06c1.31-.33,2.61-.67,3.89-1h.07c1.25-.35,2.51-.72,3.77-1.1l1-.3,2.88-.91,1-.34c1-.33,2-.67,3-1l.83-.29,3.32-1.23.5-.19c5.37-2.05,10.79-4.41,16.24-7.13,25.89-12.93,52.08-33.76,73.26-65.88h0q1.53-2.33,3-4.73l.48-.78q1.24-2,2.46-4.09l.64-1.11q1.13-1.92,2.22-3.9l.72-1.33c.69-1.26,1.37-2.53,2-3.83.27-.5.53-1,.79-1.52.63-1.24,1.26-2.48,1.87-3.75.29-.58.57-1.16.86-1.75.57-1.19,1.13-2.39,1.69-3.6l.93-2.06c.48-1.06,1-2.14,1.42-3.22q.57-1.29,1.11-2.61c.34-.8.68-1.61,1-2.43.48-1.18,1-2.37,1.42-3.56l.93-2.4c.47-1.25.94-2.51,1.4-3.78l.84-2.34c.46-1.32.92-2.65,1.38-4l.75-2.28c.46-1.4.91-2.82,1.36-4.24l.66-2.18q.6-2,1.2-4.08.35-1.21.69-2.46c.38-1.36.75-2.73,1.11-4.12.22-.83.44-1.66.65-2.5.37-1.44.73-2.9,1.08-4.36l.54-2.29c.37-1.59.73-3.2,1.08-4.82.14-.6.27-1.2.4-1.81q.57-2.73,1.11-5.52c.13-.62.25-1.24.37-1.86q.52-2.82,1-5.68l.33-1.87c.32-1.95.64-3.91.94-5.89l.27-1.84q.45-3,.86-6.11c.07-.6.15-1.19.23-1.79.26-2.11.52-4.23.76-6.38l.18-1.66q.36-3.33.67-6.72c0-.49.09-1,.13-1.46.21-2.35.41-4.73.58-7.13,0-.38,0-.76.08-1.15q.26-3.71.47-7.48c0-.27,0-.55,0-.82.14-2.54.25-5.11.35-7.7l0-.87q.15-4,.22-8l0-1.16q.06-4,.08-8v-1.34q0-4,0-8.1c0-.48,0-1,0-1.46,0-2.72-.11-5.47-.19-8.25,0-.49,0-1,0-1.48-.09-2.8-.19-5.62-.33-8.47l-.06-1.45c-.14-2.89-.3-5.8-.48-8.75l-.09-1.32c-.19-3-.4-6-.63-9.11l-.09-1.1c-.25-3.17-.52-6.35-.81-9.58,0-.23,0-.47-.07-.7q-.47-5-1-10.18v0c-.18-1.68-.37-3.38-.58-5.09,0-.36-.09-.73-.14-1.1-.16-1.34-.33-2.68-.51-4l-.24-1.74c-.16-1.15-.32-2.29-.49-3.44-.09-.66-.2-1.34-.3-2-.16-1.08-.32-2.16-.49-3.24-.12-.7-.24-1.42-.35-2.13-.18-1-.34-2.1-.52-3.16-.13-.74-.27-1.5-.4-2.24-.18-1-.35-2.06-.54-3.09-.14-.77-.29-1.55-.44-2.33-.19-1-.37-2-.57-3-.15-.8-.31-1.59-.47-2.39-.2-1-.4-2-.61-3-.16-.82-.33-1.64-.5-2.45-.21-1-.42-2-.64-3-.17-.84-.36-1.68-.54-2.52l-.66-3c-.19-.86-.39-1.72-.59-2.57s-.45-2-.68-3-.41-1.73-.62-2.59-.47-2-.71-3l-.66-2.66c-.24-1-.48-2-.73-3s-.46-1.81-.7-2.72l-.75-2.94c-.24-.92-.49-1.84-.73-2.76s-.52-2-.79-3-.5-1.85-.75-2.77l-.81-3-.78-2.78c-.28-1-.56-2-.85-3l-.81-2.82c-.29-1-.57-2-.87-3s-.56-1.9-.84-2.85-.59-2-.89-3-.58-1.93-.88-2.9l-.9-3c-.3-1-.61-2-.92-2.95s-.61-2-.91-2.93-.63-2-1-3-.62-2-.94-3-.65-2-1-3l-1-2.94c-.33-1-.67-2-1-3s-.65-2-1-2.93-.69-2-1-3-.66-2-1-2.92l-1.06-3.09c-.34-1-.67-1.93-1-2.9s-.72-2.08-1.09-3.11l-1-2.91c-.38-1-.75-2.09-1.12-3.13l-1-2.88c-.38-1.06-.76-2.11-1.15-3.17l-1.05-2.88-1.17-3.18c-.35-.95-.7-1.91-1.06-2.86l-1.21-3.24-1.06-2.82c-.41-1.09-.83-2.17-1.24-3.26-.36-.93-.72-1.87-1.07-2.81l-1.28-3.3c-.35-.92-.71-1.85-1.07-2.77-.43-1.11-.86-2.22-1.3-3.33l-1.08-2.76-1.33-3.36-1.08-2.72c-.46-1.13-.91-2.26-1.36-3.39l-1.09-2.71-1.39-3.42-1.08-2.66-1.42-3.46c-.37-.88-.73-1.76-1.09-2.65l-1.44-3.46-1.1-2.64-1.47-3.5-1.08-2.56c-.51-1.19-1-2.38-1.51-3.57l-1.08-2.51c-.51-1.2-1-2.4-1.54-3.6-.35-.83-.71-1.65-1.07-2.48-.52-1.21-1-2.42-1.57-3.63l-1-2.43c-.33-.74-.65-1.49-1-2.23C1223.31,612.86,1201.35,607,1183,610Z"/><path class="cls-11" d="M826.37,807.29c10.57,62.33,24.8,121.32,43.94,169.2,7.19-42.33,12.28-87.29,15.83-132.23C867.8,833,850.07,817.45,826.37,807.29Z"/><path class="cls-12" d="M1278.38,1651.66c-34.93-126.25-73.43-265.45-78.13-282.44-32.32-116.83-155.86-177.52-155.93-177.55-55.08-26.49-113.95-84-165.39-195.11q-4.47-9.66-8.62-20.07c-8.86,52.25-20.91,100.5-37.14,139.75C786.35,1229.43,729.89,1289.26,676,1318H676s-121,65.72-148.5,183.81c-2.67,11.49-18.21,78.23-37.1,159.34q-9.27-4.55-18.42-9.3,26.83,14,54.72,26.08a40.14,40.14,0,0,0,2.66-7.71l29.44-126.46,7.66-32.88c11.9-51.13,46.15-91.25,72.78-115.91,29.19-27,55.59-41.68,55.85-41.82.5-.27,1-.56,1.49-.85,70.37-38.21,128.75-112.48,173.54-220.77q7.71-18.62,14.52-40.37c41.15,65,88.73,110.7,142.05,136.42,1.94,1,29.16,15,59.08,40.83,27,23.31,62.12,61.58,75.92,111.47l28.61,103.45,49.51,179a40.33,40.33,0,0,0,2.67,7q22.86-10.61,45-22.45Q1282.94,1649.29,1278.38,1651.66Z"/><path class="cls-12" d="M1277.35,1347.9c-13.81-49.91-3.36-100.78,7.84-134.67,12.54-38,28.91-64.12,29.73-65.42q.58-.88,1.11-1.8c43.34-67.19,59-160.19,46.6-276.49-5.65-52.93-23.25-118.08-52.33-193.65-22.75-59.15-52.66-125.15-88.88-196.16-61.4-120.38-119-212.48-121.46-216.34a40,40,0,0,0-16.45-14.74c-6.49-3.14-21.67-8.41-50.53-8.41-32.22,0-72.19,6.53-118.8,19.41l-.17.05c-48.38,13.39-87,28.94-115,46.23C776.35,320,766.72,331.62,763,337.29a40,40,0,0,0-6.54,21.1c0,.57-.15,7.78-.22,20.43-37.26-8.07-70-12.16-97.56-12.16-35.44,0-53.23,6.7-60.67,10.7a39.94,39.94,0,0,0-15.83,15.4c-2.26,4-56.06,98.35-112.46,221.15C436.45,686.35,409.29,753.52,389,813.56c-25.94,76.7-40.85,142.52-44.33,195.63C337,1127,356.88,1219.91,403.87,1285.36c1.23,1.78,18.43,27.11,32.37,64.1,12.57,33.4,25.1,83.79,13.36,134.21l-32,137.4q17.81,10.93,36.17,21c17.82-76.56,32.21-138.35,34.77-149.37,27.49-118-52-230.42-52-230.49-35.71-49.6-59.94-128.22-51.95-250.45,14.22-217.61,232.34-599.19,232.34-599.19s11.08-5.95,41.77-5.95c22.1,0,54.38,3.09,100,13.71h.07c14,3.25,26.48,6.59,37.71,9.92-.57-43.89,0-71.09,0-71.09s20.4-31.15,128.22-61h.06c51.63-14.27,86.21-18,108.24-18,24,0,33.1,4.41,33.1,4.41s233.63,372.3,256.78,589.13c13,121.81-8,201.35-41.62,252.38l.08,0s-74.85,115.58-42.53,232.45c4.59,16.58,41.37,149.53,75.59,273.27-3,1.72-5.91,3.41-8.88,5.1q22.61-12.81,44.36-26.89l-40.22-145.41Z"/><path class="cls-3" d="M1287.44,1646.87h0l-.1.05q-4,2.16-8.1,4.28h0l-.89.47.89-.47-.9.46h0c-.54-2-1.09-3.94-1.63-5.92q-2.48-8.89-5-17.86l-3.3-11.95q-1.47-5.33-3-10.65-1-3.64-2-7.26-1.47-5.33-2.93-10.62-1.83-6.59-3.64-13.13c-.93-3.4-1.87-6.77-2.8-10.14-.27-1-.53-1.93-.8-2.89-.84-3-1.68-6.1-2.52-9.13-.8-2.88-1.6-5.76-2.39-8.62q-3.53-12.78-7-25.14c-4.24-15.31-8.31-30-12.14-43.89L1224,1455c-3.89-14.06-7.44-26.92-10.56-38.19-.69-2.51-1.37-4.93-2-7.28l-1.88-6.78q-1.35-4.9-2.54-9.2c.26,1,.53,1.93.81,2.93-.83-3-1.61-5.79-2.32-8.37-2.62-9.46-4.42-16-5.23-18.91-19.83-71.7-74-122.24-112.94-150.6q-2.13-1.56-4.21-3c-3.48-2.47-6.82-4.75-10-6.84l-3.34-2.19c-2.27-1.47-4.43-2.83-6.46-4.09-.91-.56-1.79-1.1-2.65-1.61q-2.12-1.29-4-2.39l-1.71-1c-3.54-2-6.31-3.55-8.14-4.51l.6.31-.73-.38-.19-.11c-1.41-.74-2.17-1.11-2.17-1.11h0c-.85-.41-1.7-.82-2.55-1.25h0c-2.59-1.28-5.18-2.64-7.78-4.06s-5.21-2.93-7.82-4.5-5.24-3.22-7.86-4.94-5.24-3.51-7.86-5.37l-.1-.08c-.83-.59-1.65-1.18-2.48-1.79l-.25-.18-2.34-1.73-.34-.27-2.25-1.7-.41-.32c-.73-.56-1.46-1.13-2.18-1.71l-.46-.36-2.15-1.72-.48-.39-2.13-1.75-.49-.41-2.13-1.79-.48-.41-2.16-1.87-.45-.38-2.22-2-.38-.34q-1.15-1-2.31-2.1l-.29-.26c-.84-.77-1.67-1.54-2.51-2.33l-.09-.08q-3.95-3.71-7.9-7.69-2.62-2.64-5.25-5.4l-.17-.19-2.4-2.55-.47-.51L963,1129l-.63-.71-1.93-2.15c-.25-.28-.49-.56-.74-.83l-1.83-2.09c-.27-.3-.53-.61-.8-.92l-1.77-2.06-.84-1-1.71-2c-.3-.36-.6-.71-.89-1.07l-1.68-2-.9-1.12-1.65-2-.93-1.15c-.54-.69-1.09-1.38-1.63-2.08l-.93-1.19-1.63-2.1-.93-1.22L940,1101l-.92-1.23-1.65-2.23c-.3-.4-.6-.8-.89-1.21-.57-.77-1.13-1.56-1.7-2.34l-.84-1.16-1.8-2.53-.72-1c-.68-1-1.35-1.93-2-2.9-.16-.25-.33-.48-.5-.72-.84-1.23-1.68-2.46-2.52-3.71s-1.71-2.54-2.56-3.83l-.2-.3c-.77-1.16-1.53-2.33-2.3-3.51l-.69-1.07-1.8-2.82-.87-1.37-1.62-2.57-1-1.56c-.51-.82-1-1.63-1.51-2.46l-1-1.68-1.46-2.4-1-1.76-1.43-2.4-1.06-1.82-1.4-2.41-1.07-1.87-1.38-2.42-1.09-1.93-1.35-2.44c-.37-.65-.73-1.31-1.09-2l-1.35-2.47c-.37-.66-.73-1.33-1.09-2l-1.35-2.53c-.36-.67-.72-1.33-1.07-2-.46-.85-.91-1.72-1.36-2.58l-1.06-2c-.46-.88-.91-1.76-1.36-2.64l-1-2.05c-.46-.9-.92-1.8-1.37-2.71-.35-.68-.69-1.36-1-2.05-.47-.93-.93-1.87-1.4-2.81l-1-2-1.47-3c-.3-.62-.61-1.24-.91-1.87-.55-1.15-1.11-2.33-1.66-3.5-.24-.49-.47-1-.7-1.46-.79-1.68-1.58-3.36-2.37-5.06-.57-1.24-1.13-2.5-1.7-3.75q-3.56-7.92-6.92-16.32-2.84,16.71-6.12,32.8c-.38,1.86-.75,3.72-1.14,5.56q-2,9.36-4.1,18.47c.32-1.38.63-2.79.95-4.19-7.31,31.95-16.12,61.46-26.73,87.11l-.09.22.09-.22q3-7.37,5.89-15.13,4.28-11.65,8.13-24.15-3.86,12.48-8.13,24.15-2.85,7.77-5.89,15.13c-27.8,67.2-59,115.6-91,149.84-21.93,23.43-44.26,40.23-66.17,51.91H676s-3.57,1.94-9.63,5.76c-2.76,1.73-6,3.85-9.71,6.35s-7.77,5.39-12.17,8.65l-2.67,2q-2.72,2.05-5.56,4.27t-5.79,4.62c-30.47,24.8-68.89,63.74-90.87,115.32q-1.07,2.49-2.08,5-2,5.07-3.82,10.3t-3.35,10.6q-1.56,5.38-2.85,10.92c-2.67,11.49-18.21,78.22-37.09,159.34h0q2.2-9.51,4.35-18.73.78-3.33,1.55-6.63-.76,3.3-1.55,6.63-2.13,9.21-4.35,18.73h0l-.08,0,.08,0h0l-.08,0h0l-1.08-.54q-3.36-1.65-6.71-3.33l.19.09c2,1,4,2,6,3-2.08-1-4.16-2.06-6.23-3.1l-1.32-.65q4.44,2.24,8.89,4.42l.14.07,1.94.94-1.24-.6q8.37,4.09,16.84,8-4.08-1.89-8.14-3.82,4.42,2.1,8.86,4.15h0q5.1,2.36,10.24,4.65-5.13-2.3-10.24-4.66a20,20,0,0,0,1.42-4l33.79-145.11,3.31-14.23c13-55.7,49.52-98.9,77.89-125.33,31.54-29.38,60.41-45.3,60.7-45.46s.71-.4,1-.61c66.42-35.9,121.93-106.91,165-211.07,9.91-24,18.71-52.12,26.32-84.17,44.33,83.79,97.22,140.87,157.56,169.93,1.35.67,30.38,15.37,62.51,42.93,29.42,25.23,67.69,66.88,82.93,122L1259.1,1657a19.76,19.76,0,0,0,1.43,3.68q-9,4.41-18,8.64a40.33,40.33,0,0,1-2.67-7l-49.51-179-28.61-103.45c-13.8-49.89-48.9-88.16-75.92-111.47-29.92-25.82-57.14-39.84-59.08-40.83-53.32-25.72-100.9-71.46-142.05-136.42q-6.81,21.73-14.52,40.37C825.34,1239.82,767,1314.09,696.59,1352.3c-.49.29-1,.58-1.49.85-.26.14-26.66,14.79-55.85,41.82-26.63,24.66-60.88,64.78-72.78,115.91l-7.66,32.88-29.44,126.46a40.14,40.14,0,0,1-2.66,7.71l-5.87-2.59a877,877,0,0,0,746.47-18l0,0q10.13-5.08,20.11-10.44l0,0Zm-790.8-12.45c.45-2,.91-3.91,1.36-5.84C497.55,1630.51,497.09,1632.46,496.64,1634.42Zm5.59-24,1.57-6.76Zm-2.42,10.4q.74-3.18,1.47-6.31Q500.55,1617.63,499.81,1620.81Zm27.64-118.73c-.05.21-.1.43-.16.66C527.35,1502.51,527.4,1502.29,527.45,1502.08Zm-1.39,6c-.09.4-.19.81-.29,1.24C525.87,1508.84,526,1508.43,526.06,1508Zm-.55,2.38c-.12.52-.25,1-.38,1.61C525.26,1511.46,525.39,1510.93,525.51,1510.41Zm-1,4.11c-.12.52-.25,1.06-.37,1.61C524.3,1515.58,524.43,1515,524.55,1514.52Zm-.72,3.09c-.25,1.11-.52,2.27-.81,3.47C523.31,1519.88,523.58,1518.72,523.83,1517.61Zm-3.37,14.47q-.6,2.6-1.25,5.37Q519.86,1534.67,520.46,1532.08ZM852.16,1060q2.39-8.67,4.61-17.63Q854.55,1051.32,852.16,1060ZM1263.85,1659,1266,1658Zm13.67-6.94-1.94,1Z"/><path class="cls-3" d="M909.33,474.81a19.94,19.94,0,0,0-3.7-10.41c-3.41-4.78-24.47-29.79-103.47-53.27h0a20.19,20.19,0,0,0-5.69-.83h-.19q.06,9.3.19,20c4.78,1.42,9.32,2.85,13.64,4.26q3.31,1.1,6.45,2.17l2.89,1q6,2.11,11.34,4.19,6.69,2.6,12.44,5.1c1.54.67,3,1.34,4.47,2,33.17,15.13,41.68,27,41.68,27s3.25,52.5,4,129.51v.09q.09,8.37.13,17.12c0,1.47,0,3,0,4.45q0,6.64,0,13.47c0,1.52,0,3.05,0,4.58q0,4.61,0,9.28c0,1.56,0,3.12,0,4.69q0,4.71-.08,9.5c0,1.59,0,3.2-.05,4.8q-.07,7.23-.19,14.6c-.05,3.28-.11,6.57-.17,9.89q-.19,9.94-.46,20.11c-.09,3.38-.18,6.79-.28,10.2q-.22,7.7-.51,15.48l-.18,5.19-.21,5.43c-.14,3.34-.27,6.69-.42,10.05,0,.15,0,.3,0,.45q-.22,5.15-.47,10.32T890,785.84c-.09,1.77-.19,3.55-.28,5.32q-.59,10.65-1.27,21.36T887,834q-.59,7.85-1.23,15.69l-.07.88q-.64,7.85-1.36,15.67c-2.09,23.08-4.62,46.06-7.65,68.58-1.91,14.11-4,28-6.33,41.7h0q3.8,9.5,7.86,18.38l.76,1.69c1.92,4.14,3.84,8.19,5.78,12.18q2.79-14,5.32-28.9C909.2,866.9,913.42,735.58,913.59,645.3,913.77,547.68,909.38,475.52,909.33,474.81Z"/><path class="cls-3" d="M1293.72,1482.12l-35.65-128.89c-15.25-55.12-3.81-110.54,8.48-147.32,13.65-40.88,31.39-68.67,31.57-69s.48-.77.7-1.17c41.11-63.28,55.89-152.14,43.93-264.15-5.47-51.19-22.67-114.64-51.11-188.59-22.51-58.5-52.13-123.86-88-194.25-61-119.59-120-213.86-120.58-214.8a20,20,0,0,0-8.22-7.37c-3.11-1.5-15.3-6.41-41.82-6.41-30.42,0-68.61,6.29-113.5,18.7l-.13,0C809.81,309.26,783.82,342,779.73,348.25a20,20,0,0,0-3.27,10.55c0,.87-.35,17.36-.23,45.24q-6.32-1.59-12.84-3.11l-.21-.05c-40.54-9.43-75.7-14.22-104.5-14.22-33.13,0-47.58,6.37-51.22,8.32a20,20,0,0,0-7.91,7.7c-.55,1-55.62,97.58-111.65,219.57-33,71.82-59.89,138.34-80,197.72-25.39,75-40,139.15-43.32,190.53-7.39,113.13,11.32,201.73,55.6,263.32.87,1.25,19.32,28,34.35,67.56,13.78,36.25,27.49,91.14,14.52,146.83l-33.44,143.63-.07,0q9,5.27,18.21,10.31h0c.28-1.19.55-2.39.83-3.58,3-13.07,6-25.7,8.78-37.69q1.89-8.17,3.71-15.94c.48-2.06.95-4.11,1.42-6.13l6.59-28.29c-.2.88-.41,1.75-.62,2.64.62-2.66,1.23-5.25,1.81-7.77-.19.84-.39,1.69-.59,2.54q.9-3.86,1.75-7.49c.19-.81.37-1.61.56-2.4s.36-1.58.54-2.36c.37-1.55.72-3.06,1.06-4.55.18-.74.35-1.47.52-2.2.33-1.44.66-2.86,1-4.23l.48-2c.15-.67.31-1.33.46-2l6.49-27.9a231.12,231.12,0,0,0,5.41-65.12,1,1,0,0,1,0-.17q-.29-5.17-.77-10.27a.28.28,0,0,0,0-.09c-.16-1.7-.33-3.39-.52-5.07,0,0,0-.09,0-.13a292.29,292.29,0,0,0-5-29.79l0-.06a350.9,350.9,0,0,0-20.57-63c-.85-2-1.7-3.91-2.56-5.81s-1.78-3.93-2.67-5.81c-1.05-2.24-2.1-4.41-3.13-6.5s-2.06-4.12-3.06-6.06-2-3.82-2.95-5.61c-.75-1.4-1.47-2.72-2.19-4l-1.21-2.17c-.7-1.24-1.38-2.45-2-3.6q-1.28-2.19-2.43-4.13c-1-1.69-1.94-3.21-2.79-4.59-1.11-1.78-2.08-3.31-2.89-4.55v0l0,0c-.22-.35-.44-.68-.64-1-.41-.63-.77-1.16-1.06-1.59s-.51-.75-.66-1h0l-.1-.14-.07-.1-.06-.08h0a230.82,230.82,0,0,1-20.15-33.92l-.05-.1c-.45-.91-.89-1.83-1.33-2.76l-.12-.28c-.42-.87-.83-1.76-1.23-2.65l-.18-.38-1.16-2.58c-.06-.16-.13-.32-.2-.47l-1.11-2.55c-.07-.18-.15-.36-.22-.53-.36-.85-.72-1.7-1.07-2.55l-.23-.56c-.35-.85-.7-1.71-1-2.57-.08-.19-.15-.39-.23-.58l-1-2.6c-.07-.2-.15-.39-.22-.59-.34-.88-.68-1.78-1-2.68-.07-.18-.14-.36-.2-.54-.34-.93-.68-1.86-1-2.79l-.18-.48c-.35-1-.69-2-1-3l-.12-.36c-.37-1.07-.73-2.15-1.09-3.24l0-.12q-2.82-8.57-5.29-17.79l-.07-.25c-.3-1.12-.59-2.24-.88-3.37l-.18-.71c-.24-1-.49-2-.74-3-.07-.31-.15-.62-.22-.94-.22-.93-.45-1.86-.66-2.79-.09-.37-.17-.73-.26-1.1l-.6-2.69-.27-1.21c-.19-.87-.38-1.75-.56-2.63l-.27-1.3c-.18-.86-.36-1.72-.53-2.59l-.27-1.38c-.17-.85-.33-1.7-.49-2.56l-.27-1.45c-.16-.85-.31-1.7-.47-2.56-.09-.49-.17-1-.26-1.48-.15-.86-.3-1.72-.44-2.59-.08-.49-.17-1-.25-1.49l-.42-2.63-.24-1.51c-.13-.89-.27-1.78-.4-2.67-.07-.51-.15-1-.22-1.52l-.39-2.75c-.06-.49-.13-1-.2-1.49-.13-.94-.25-1.9-.37-2.86l-.18-1.42c-.13-1-.25-2-.37-3l-.15-1.31c-.13-1.12-.25-2.26-.37-3.4,0-.33-.08-.66-.11-1q-.47-4.45-.86-9c0-.18,0-.37,0-.55-.11-1.32-.22-2.66-.32-4,0-.46-.07-.93-.1-1.39-.08-1.07-.16-2.14-.23-3.21,0-.56-.08-1.13-.11-1.7-.07-1-.13-2-.19-3,0-.62-.07-1.25-.1-1.87-.06-.94-.11-1.89-.16-2.84l-.09-2c0-.92-.09-1.84-.12-2.77l-.09-2.09q0-1.35-.09-2.73c0-.72-.05-1.44-.07-2.17,0-.9-.05-1.8-.07-2.71,0-.74,0-1.48-.05-2.23,0-.9,0-1.8-.05-2.71,0-.76,0-1.52,0-2.28s0-1.81,0-2.72,0-1.54,0-2.32v-5.09c0-.92,0-1.85,0-2.79,0-.78,0-1.57,0-2.36s0-1.87,0-2.81,0-1.6,0-2.41.05-1.88.07-2.83l.06-2.43.09-2.9c0-.81.05-1.61.08-2.41,0-1,.07-2,.11-3,0-.78.06-1.56.1-2.35,0-1,.09-2.1.14-3.16,0-.76.07-1.52.11-2.29l.18-3.39.12-2.11c.09-1.62.2-3.26.3-4.91,0-.21,0-.41,0-.62.12-1.91.27-3.84.43-5.78,0-.61.1-1.22.15-1.83.12-1.35.24-2.71.37-4.07.06-.7.14-1.41.21-2.11.13-1.33.27-2.65.41-4,.08-.69.15-1.37.23-2.06.18-1.52.36-3,.55-4.57l.18-1.46c.26-2,.53-4,.82-6.08q-.41,2.86-.78,5.72.71-5.39,1.52-10.86c-.19,1.26-.36,2.51-.54,3.76.22-1.59.46-3.19.7-4.79l.33-2.12c.22-1.39.45-2.79.68-4.19-.1.61-.21,1.22-.31,1.83q1.34-8.3,3-16.8l0,.08q.61-3.21,1.27-6.45c.12-.63.26-1.26.38-1.89l1-4.62.48-2.25c.32-1.48.64-3,1-4.44.16-.73.32-1.46.49-2.2.37-1.67.76-3.35,1.15-5,.12-.51.23-1,.35-1.54q.78-3.33,1.59-6.68-.75,3.11-1.47,6.2,1.37-5.87,2.85-11.79t3.07-11.92q1.59-6,3.27-12,2.52-9.06,5.26-18.24c-.23.8-.46,1.58-.7,2.37l1.47-4.93c.22-.7.43-1.41.64-2.12q.84-2.74,1.69-5.51c-.42,1.36-.84,2.72-1.25,4.07q1.86-6.13,3.81-12.3,3.92-12.34,8.12-24.8c-.12.37-.25.74-.37,1.12.78-2.33,1.57-4.65,2.37-7l0,0q1.25-3.65,2.52-7.29c-.81,2.33-1.62,4.65-2.42,7q3.21-9.36,6.57-18.73,2.25-6.25,4.54-12.51,3.45-9.37,7-18.76,2.37-6.25,4.8-12.49t4.9-12.46l-.81,2c.58-1.47,1.17-3,1.76-4.42l1.08-2.71,1.23-3.06-.78,1.92q3.74-9.32,7.56-18.57,7.62-18.51,15.49-36.66,2.61-6,5.24-12c7.89-18,15.85-35.54,23.74-52.53,7-15.1,14-29.75,20.79-43.8q6.39-13.18,12.56-25.63c9-18.23,17.66-35.2,25.59-50.53,27.41-53,46.63-86.62,46.63-86.62s3.07-1.64,10.43-3.2l-.1,0,.45-.1,1-.19.33-.07,1.37-.25.39-.07,1.07-.18.57-.09,1-.15.64-.09-.36.05q3.4-.51,7.63-.9h-.06l.43,0,1.59-.13.75-.06-.55,0q3.32-.25,7.13-.4c2.54-.09,5.24-.15,8.12-.15h2.05l2.39,0,.72,0,1.76,0,.93,0,1.65,0,1,0,1.71.08,1,0,2.09.11.64,0,2.79.17.82.06,2.07.15,1.1.09,1.91.15,1.16.1,2,.18,1.15.11,2.28.22.88.09,3.23.35.81.1,2.51.29,1.24.16,2.2.27,1.35.18,2.24.3,1.32.18,2.55.37-2-.29c2.16.31,4.36.64,6.62,1l-3.58-.55,3.69.56.71.12,3.08.49-.49-.08c12.66,2,26.77,4.81,42.45,8.46h.07l5.17,1.23c1.7.4,3.37.81,5,1.23,9.94,2.46,19.08,5,27.51,7.46h0c-.57-43.89,0-71.09,0-71.09s6.36-9.7,30.73-23.47c1.88-1.06,3.86-2.14,6-3.25l2.42-1.26c19.42-10,47.86-21.59,89.11-33h.06q4.85-1.33,9.49-2.55c46.41-12.17,78.1-15.44,98.75-15.44a153.54,153.54,0,0,1,16.84.85c1,.11,2,.23,2.85.35l.09,0,1.21.17.19,0,1,.16.24,0,.92.16.24.05.85.16.24,0,.77.16.24,0-.16,0c.66.13,1.27.27,1.84.41l-.09,0,.21.05.6.15.21.05.55.14.18.05.5.14.17.05.45.13.15.05.41.13.13,0,.37.12.11,0,.33.11.09,0,.29.1.07,0,.25.1.06,0,.21.08h0l.18.08h0l.13.06h0l.11.05.57.91,0,0c.09.13.18.29.28.45l.07.1c.09.16.2.33.31.51l.09.14.38.61.1.16.43.7.13.21.43.7.22.35c.16.26.32.51.48.78l.15.24.63,1,0,0c.24.4.49.81.76,1.24l.1.18c2.18,3.54,5,8.15,8.35,13.73l.08.14,1.2,2,.14.24,1.19,2,.23.38,1.21,2,.22.37,1.22,2.05c.11.17.22.35.32.53l1.25,2.09c.08.14.17.28.25.43l1.36,2.28.17.28,1.49,2.52,0,.06c4.35,7.34,9.19,15.58,14.43,24.62l.11.18,1.85,3.19.18.31,1.81,3.14.28.48c.59,1,1.19,2.08,1.8,3.13l.3.53,1.82,3.16.33.58,1.83,3.19.34.6,1.9,3.32.24.44,2,3.5.18.32c5.88,10.36,12.09,21.42,18.54,33.09l0,.09c.76,1.36,1.51,2.74,2.27,4.11.08.15.16.3.25.45.72,1.31,1.45,2.63,2.17,4l.36.65,2.08,3.79.51.94,2,3.72.52.95,2.06,3.79.51.94c.69,1.28,1.38,2.56,2.08,3.84l.49.93c.72,1.31,1.43,2.64,2.15,4l.37.7q1.14,2.1,2.26,4.21l.26.48q7.67,14.31,15.55,29.42l0,.05a125.9,125.9,0,0,0-54.71-3.26c-17.18,2.86-34.2,18.71-53.56,49.87-15.8,25.41-31.59,58.35-46.87,90.2-15,31.29-30.52,63.65-45.26,87-18.93,30-30.11,34.54-35.14,34.54h-.09c-17.09-.19-31.75-5.46-45.74-12.87-8.91-4.73-17.56-10.33-26.4-16.06-16.68-10.81-34.82-22.56-57-29.66A136.41,136.41,0,0,0,769.79,668l-1.63,0c-45.86,0-104.15,37.8-160.54,74.36-42.33,27.45-86.1,55.83-109.76,55.83h-.43c-21.38-.32-37.8-25.77-45.15-41.43.08-.2.16-.4.23-.6-.19.49-.38,1-.58,1.48q-2.43,6.24-4.8,12.49-2.33,6.09-4.6,12.19c11,17,29.12,36.49,54.59,36.86h.71c29.91,0,72.25-27.46,121.21-59.21,51.35-33.29,109.47-71,149.12-71h1.22a116.88,116.88,0,0,1,42.11,8.64c15.45,6.21,29.12,15.06,43.22,24.2,11.85,7.68,23.9,15.49,37.11,21.5C905.6,749.65,920.63,754,938,754.18h.34c35.33,0,65-61.86,99.32-133.45,26.54-55.33,59.57-124.2,85-128.44,29.24-4.88,54.29,4.87,65.62,10.45q2.82,5.53,5.63,11.15l.06.12,2.67,5.33c.07.13.13.27.2.4l2.6,5.22c.08.18.17.35.25.52l2.49,5,.38.78,2.4,4.87c.15.32.31.63.46,1l2.32,4.75c.18.37.36.73.53,1.1l2.25,4.63.6,1.25q1.11,2.26,2.2,4.56l.64,1.33q1.07,2.22,2.12,4.44c.25.51.49,1,.73,1.52q1,2.13,2,4.29c.26.55.52,1.11.79,1.67q1,2.12,2,4.24c.26.57.53,1.14.8,1.72.66,1.39,1.31,2.79,2,4.19l.84,1.8c.64,1.38,1.27,2.75,1.91,4.12.29.64.59,1.27.88,1.91l1.86,4c.31.66.61,1.33.92,2l1.81,4,1,2.09,1.77,3.91c.33.72.65,1.43,1,2.15l1.73,3.83c.33.76.67,1.51,1,2.27l1.68,3.78c.34.76.68,1.52,1,2.28l1.67,3.77,1,2.33,1.62,3.7,1,2.43c.53,1.21,1.05,2.42,1.57,3.63.36.83.72,1.65,1.07,2.48.52,1.2,1,2.4,1.54,3.6l1.08,2.51c.5,1.19,1,2.38,1.51,3.57l1.08,2.56,1.47,3.5,1.1,2.64,1.44,3.46c.36.89.72,1.77,1.09,2.65l1.42,3.46,1.08,2.66,1.39,3.42L1265,670c.45,1.13.9,2.26,1.36,3.39l1.08,2.72,1.33,3.36,1.08,2.76c.44,1.11.87,2.22,1.3,3.33.36.92.72,1.85,1.07,2.77l1.28,3.3c.35.94.71,1.88,1.07,2.81.41,1.09.83,2.17,1.24,3.26l1.06,2.82,1.21,3.24c.36,1,.71,1.91,1.06,2.86l1.17,3.18,1.05,2.88c.39,1.06.77,2.11,1.15,3.17-.14-.4-.28-.81-.43-1.21q2.2,6.09,4.32,12.14c1.41,4,2.79,8.06,4.14,12.06l-.69-2c.34,1,.69,2,1,3s.65,2,1,2.93.68,2,1,3c-.11-.32-.21-.64-.31-1q2,6,3.86,11.94t3.66,11.83q1.77,5.9,3.45,11.73l-.63-2.17.81,2.82c.29,1,.57,2,.85,3l.78,2.78.81,3c.25.92.51,1.84.75,2.77s.53,2,.79,3,.49,1.84.73,2.76l.75,2.94c.24.91.47,1.82.7,2.72s.49,2,.73,3l.66,2.66c.24,1,.48,2,.71,3s.42,1.73.62,2.59l-.09-.39q2,8.43,3.65,16.66l-.45-2.17c.17.81.34,1.63.5,2.45.21,1,.41,2,.61,3,.16.8.32,1.59.47,2.39a2,2,0,0,1,0-.24q2.1,10.89,3.64,21.39,1.15,7.86,2,15.49c2.24,21,3.47,40.67,3.8,59.2q-.06-3.47-.17-7c.08,2.78.15,5.53.19,8.25,0,.49,0,1,0,1.46q.06,4.1,0,8.1v1.34q0,4-.08,8l0,1.16q-.08,4-.22,8l0,.87c-.1,2.59-.21,5.16-.35,7.7,0,.27,0,.55,0,.82q-.21,3.78-.47,7.48c0,.39,0,.77-.08,1.15-.17,2.4-.37,4.78-.58,7.13,0,.49-.08,1-.13,1.46q-.32,3.39-.67,6.72l-.18,1.66c-.24,2.15-.5,4.27-.76,6.38-.08.6-.16,1.19-.23,1.79q-.4,3.07-.86,6.11l-.27,1.84c-.3,2-.62,3.94-.94,5.89l-.33,1.87q-.49,2.86-1,5.68c-.12.62-.24,1.24-.37,1.86q-.54,2.79-1.11,5.52c-.13.61-.26,1.21-.4,1.81-.35,1.62-.71,3.23-1.08,4.82l-.54,2.29c-.35,1.46-.71,2.92-1.08,4.36-.21.84-.43,1.67-.65,2.5-.36,1.39-.73,2.76-1.11,4.12q-.35,1.25-.69,2.46-.6,2.06-1.2,4.08l-.66,2.18c-.45,1.42-.9,2.84-1.36,4.24l-.75,2.28c-.46,1.35-.92,2.68-1.38,4l-.84,2.34c-.46,1.27-.93,2.53-1.4,3.78l-.93,2.4c-.47,1.19-.94,2.38-1.42,3.56-.33.82-.67,1.63-1,2.43s-.73,1.75-1.11,2.61c-.47,1.08-.94,2.16-1.42,3.22l-.93,2.06c-.56,1.21-1.12,2.41-1.69,3.6-.29.59-.57,1.17-.86,1.75-.61,1.27-1.24,2.51-1.87,3.75-.26.51-.52,1-.79,1.52-.67,1.3-1.35,2.57-2,3.83l-.72,1.33q-1.1,2-2.22,3.9l-.64,1.11q-1.21,2.07-2.46,4.09l-.48.78q-1.5,2.4-3,4.73h0l.06,0h0s-74.85,115.58-42.53,232.45c.65,2.33,1.93,7,3.75,13.55-1.82-6.59-3.1-11.22-3.75-13.55-8.08-29.22-9.46-58.35-7-85.62-2.47,27.27-1.09,56.4,7,85.62l23.75,85.83c-.31-1.1-.61-2.21-.92-3.29q-2.49-9-4.79-17.32,2.3,8.28,4.79,17.32c5.41,19.55,11.5,41.55,18,65q1.5,5.4,3,10.9c10.13,36.63,21.07,76.19,31.77,114.85v0h0c-2.4,1.4-4.81,2.77-7.22,4.15l1.08-.62.15-.09-.91.52-2,1.13h0q4.48-2.54,8.93-5.13l0,0q4.42-2.58,8.84-5.22l.05,0q13.39-8,26.46-16.46-8.76,5.67-17.68,11.11ZM442.33,1635.68l2.33,1.34Zm28.28-65.82,2-8.56Zm856.15-627v0ZM1252.48,1408c-1.72-6.2-3.31-12-4.75-17.18l-1.67-6c-.8-2.88-1.54-5.57-2.23-8,.69,2.47,1.43,5.16,2.23,8l1.67,6c1.44,5.23,3,11,4.75,17.18l3.22,11.66Zm63.32,223c1-.6,2.07-1.22,3.11-1.83C1317.87,1629.77,1316.84,1630.39,1315.8,1631Zm13.8-8.23-3.48,2.1Z"/><circle class="cls-13" cx="875" cy="875" r="875"/></g></svg>