<?xml version="1.0" encoding="UTF-8"?>
<svg version="1.1" width="100px" height="100px" viewBox="0 0 100 100" xmlns="http://www.w3.org/2000/svg" xmlns:xlink="http://www.w3.org/1999/xlink">
<title>MoonletWallet</title>
<defs>
<polygon id="a" points="8.1137e-13 -2.758e-12 82 -2.758e-12 82 41 8.1137e-13 41"/>
</defs>
<g fill="none" fill-rule="evenodd">
<rect width="100" height="100" fill="#002640"/>
<g transform="translate(49.971 49.706) rotate(-78) translate(-41 -21.493)">
<g transform="translate(0)">
<g transform="translate(0)">
<mask id="b" fill="white">
<use xlink:href="#a"/>
</mask>
<path d="m72.836 35.178c-0.76954 1.6745-6.3962 0.95845-14.471-1.5116 0.91462-1.2011 1.7151-2.5145 2.3698-3.939 4.8672-10.589 0.094195-23.058-10.661-27.85-10.755-4.792-23.42-0.09274-28.287 10.496-0.65495 1.4246-1.1289 2.8834-1.4415 4.3528-7.2143-4.3424-11.474-8.0313-10.705-9.7056 0.67471-1.4679 4.174-1.9374 12.584-0.5523-12.244-4.0561-21.015-5.4495-22.11-3.0672-1.6764 3.6469 15.27 14.759 37.85 24.82 22.581 10.061 42.245 15.261 43.921 11.614 1.0948-2.3822-5.757-7.9499-16.934-14.329 6.1803 4.9144 8.5589 8.2039 7.8842 9.6716z" fill="#00DAFF" fill-rule="nonzero" mask="url(#b)"/>
</g>
</g>
<path d="m23.832 25.643c-1.0936-0.55513-2.1672-1.1088-3.2059-1.6581 0.59014 7.2406 5.124 13.958 12.45 17.165 7.3256 3.206 15.537 2.0659 21.55-2.2839-5.3509-1.8872-11.207-4.1961-17.275-6.852-4.2125-1.8435-8.2205-3.7226-11.954-5.5835" fill="#00DAFF" fill-rule="nonzero"/>
</g>
</g>
</svg>
