<?xml version="1.0" standalone="no"?>
<!DOCTYPE svg PUBLIC "-//W3C//DTD SVG 20010904//EN"
 "http://www.w3.org/TR/2001/REC-SVG-20010904/DTD/svg10.dtd">
<svg version="1.0" xmlns="http://www.w3.org/2000/svg"
 width="300.000000pt" height="508.000000pt" viewBox="0 0 300.000000 508.000000"
 preserveAspectRatio="xMidYMid meet">
<metadata>
Created by potrace 1.10, written by Peter Selinger 2001-2011
</metadata>
<g transform="translate(0.000000,508.000000) scale(0.100000,-0.100000)"
fill="#000000" stroke="none">
<path d="M2500 4671 c-223 -225 -443 -444 -490 -487 -47 -43 -65 -63 -40 -44
25 18 246 235 492 482 246 246 454 448 462 448 8 0 23 -15 35 -32 11 -18 21
-29 21 -25 0 18 -42 67 -58 67 -9 0 -199 -184 -422 -409z"/>
<path d="M2445 4581 c-258 -257 -485 -476 -503 -485 -31 -16 -35 -16 -52 -1
-10 9 -21 28 -24 41 -6 22 -11 25 -36 19 -27 -6 -31 -3 -52 39 -29 61 -53 68
-90 27 -15 -17 -28 -35 -28 -40 0 -4 14 -26 31 -47 21 -26 28 -45 25 -60 -3
-12 1 -38 9 -57 8 -20 12 -43 9 -51 -9 -23 -143 -121 -219 -159 -39 -19 -98
-56 -133 -82 -35 -26 -98 -67 -140 -92 -87 -49 -290 -120 -316 -110 -30 12
-15 50 29 72 30 16 48 36 71 80 l32 60 -16 77 c-16 75 -16 78 4 105 11 16 34
35 52 43 39 18 41 36 6 44 -17 5 -32 2 -43 -9 -10 -8 -20 -15 -24 -15 -3 0
-33 18 -66 40 -67 45 -76 69 -38 100 12 11 35 30 51 43 l29 24 -21 21 c-12 12
-22 28 -22 35 -1 40 -21 209 -31 248 -9 40 -8 51 11 87 17 32 19 45 10 61 -12
23 -40 27 -58 9 -9 -9 -21 -8 -53 2 -38 13 -42 12 -55 -5 -20 -27 -17 -53 9
-79 21 -21 22 -26 11 -72 -6 -27 -22 -92 -34 -144 -12 -52 -29 -108 -37 -124
-20 -38 -10 -71 27 -86 34 -14 60 -45 60 -72 0 -32 -150 -54 -178 -26 -16 16
-36 -11 -52 -69 -11 -37 -10 -46 10 -81 l22 -40 -40 -68 c-113 -189 -162 -393
-177 -730 l-7 -151 23 -6 c13 -4 63 -7 110 -7 l87 0 22 -52 c28 -65 30 -159 6
-207 -10 -18 -46 -72 -82 -119 -83 -114 -114 -172 -164 -317 -61 -176 -102
-344 -170 -684 -70 -352 -122 -560 -182 -735 -23 -69 -40 -128 -36 -131 3 -3
32 -9 64 -12 33 -3 62 -10 65 -15 8 -12 -9 -141 -27 -212 -27 -105 -33 -102
175 -101 99 0 182 3 186 7 14 13 -8 30 -88 67 -52 24 -94 51 -114 75 -32 35
-33 40 -33 121 l0 83 37 13 c21 6 54 20 73 30 19 11 43 19 53 19 29 0 74 27
79 48 3 12 21 25 44 32 64 21 74 35 74 108 0 35 -11 130 -24 211 -14 80 -30
183 -37 229 l-11 82 40 53 c51 66 97 150 113 204 l12 43 39 -52 c45 -62 47
-79 14 -208 -45 -179 -63 -529 -32 -605 18 -42 25 -43 56 -10 l24 26 -18 66
c-9 37 -20 97 -23 133 l-6 66 59 26 c72 31 105 40 121 30 8 -5 16 -59 23 -142
15 -182 20 -204 101 -371 87 -184 107 -264 85 -350 -9 -32 -13 -65 -10 -73 3
-8 23 -26 44 -40 31 -20 42 -37 56 -81 25 -79 77 -125 140 -125 25 0 54 5 65
11 19 10 18 13 -23 57 -84 90 -201 426 -262 751 -17 89 -12 111 25 111 35 0
18 76 -55 238 -26 59 -41 115 -61 237 -14 88 -42 232 -61 321 -38 180 -40 204
-20 204 8 0 59 -52 113 -116 54 -64 106 -124 116 -133 10 -9 44 -42 75 -74 30
-32 77 -71 103 -87 26 -16 53 -38 58 -49 6 -11 27 -26 47 -33 25 -9 42 -24 55
-51 14 -27 28 -39 50 -44 18 -3 41 -21 60 -44 20 -25 39 -39 53 -39 13 0 39
-11 58 -24 19 -13 52 -26 74 -30 21 -4 51 -14 67 -23 19 -9 41 -13 63 -8 23 4
41 1 59 -11 17 -11 35 -14 60 -10 24 5 46 2 69 -9 27 -13 39 -14 56 -5 13 7
40 9 69 5 37 -5 50 -3 60 9 9 10 30 16 60 16 53 0 67 7 72 35 4 17 13 20 66
23 56 3 64 6 83 33 12 16 20 33 18 38 -3 9 -228 184 -480 374 -273 206 -598
490 -613 537 -3 10 1 51 10 91 16 77 18 230 5 334 -7 58 -7 59 -9 14 -1 -43
-44 -177 -76 -240 -11 -20 -27 -32 -57 -39 -48 -14 -79 -4 -103 33 -9 14 -44
43 -78 65 -34 22 -79 58 -100 79 l-37 39 68 65 c38 35 98 89 133 120 35 31
126 111 203 177 76 67 154 130 173 139 19 9 84 62 144 119 60 57 153 138 208
181 197 155 229 183 241 212 6 16 29 42 51 56 21 15 55 48 75 74 40 49 48 59
179 193 56 58 87 99 94 123 6 23 27 51 55 77 32 28 46 47 46 65 0 18 14 39 45
67 39 36 45 47 45 81 0 29 10 54 37 93 32 48 35 56 26 86 -9 28 -6 41 18 87
l27 54 -20 33 -20 32 21 34 c25 40 26 53 5 95 -12 24 -15 46 -10 83 5 37 3 56
-9 74 -8 13 -19 24 -23 24 -4 0 -218 -211 -477 -469z m489 423 c3 -9 6 -39 6
-67 0 -28 5 -65 12 -83 10 -28 9 -38 -7 -68 -17 -31 -17 -39 -5 -75 12 -38 11
-45 -10 -90 -17 -37 -21 -58 -16 -86 6 -30 2 -42 -23 -77 -20 -27 -31 -54 -31
-74 0 -35 -18 -84 -31 -84 -18 0 -59 -52 -59 -74 0 -15 -20 -43 -55 -79 -30
-30 -55 -62 -55 -72 0 -23 -61 -100 -109 -138 -22 -18 -54 -52 -72 -77 -30
-41 -143 -162 -265 -283 -27 -26 -96 -84 -154 -129 -58 -45 -141 -115 -185
-157 -125 -118 -159 -147 -196 -166 -39 -20 -141 -105 -278 -231 -31 -29 -83
-74 -116 -100 -109 -90 -185 -166 -185 -188 0 -22 92 -114 138 -136 15 -8 50
-36 78 -62 41 -37 58 -46 80 -44 16 2 34 4 41 5 31 3 73 55 95 119 l23 67 3
-70 c3 -58 -6 -143 -23 -237 -2 -9 9 -34 24 -55 26 -36 201 -196 336 -308 33
-28 65 -54 71 -60 29 -25 61 -50 249 -190 110 -83 205 -154 211 -160 6 -5 46
-37 89 -70 43 -33 86 -67 97 -75 20 -15 20 -16 0 -40 -17 -21 -29 -25 -72 -25
-45 0 -54 -4 -72 -28 -16 -22 -27 -27 -62 -27 -23 0 -50 -6 -61 -14 -19 -13
-37 -13 -246 -3 -25 1 -53 7 -61 14 -8 7 -34 12 -59 11 -53 -1 -168 33 -208
61 -16 12 -38 21 -50 21 -11 0 -33 17 -52 39 -17 22 -41 42 -54 45 -12 3 -34
21 -49 40 -14 19 -44 45 -66 57 -22 13 -40 26 -40 31 0 4 -21 21 -47 37 -27
17 -74 57 -106 90 -32 34 -61 61 -66 61 -5 0 -22 17 -38 38 -81 111 -194 232
-215 232 -9 0 -21 -7 -29 -16 -13 -16 -13 -16 56 -357 2 -10 13 -78 25 -150
25 -161 32 -187 86 -308 23 -53 45 -111 49 -130 6 -31 3 -37 -18 -46 -14 -7
-28 -20 -31 -31 -4 -11 5 -73 19 -138 34 -156 31 -145 51 -217 9 -34 19 -75
22 -92 2 -16 8 -32 11 -35 3 -3 19 -43 35 -90 44 -127 101 -252 130 -281 14
-14 26 -29 26 -32 0 -4 -18 -7 -41 -7 -60 0 -94 29 -120 101 -15 42 -35 71
-64 97 -40 36 -41 38 -32 77 12 53 2 179 -18 235 -9 24 -41 95 -71 157 -68
142 -82 196 -94 358 -8 113 -12 132 -30 147 -15 12 -31 15 -53 11 -39 -7 -134
-49 -142 -63 -3 -6 -11 -10 -16 -10 -18 0 15 255 46 356 18 59 19 108 4 137
-21 39 -70 97 -83 97 -7 0 -26 -30 -41 -67 -16 -38 -55 -107 -88 -155 l-60
-88 13 -87 c7 -49 14 -97 16 -108 2 -11 8 -51 14 -90 6 -38 15 -97 20 -130 13
-85 12 -161 -3 -173 -6 -6 -25 -14 -40 -17 -16 -4 -40 -23 -55 -41 -18 -23
-38 -36 -62 -40 -19 -4 -69 -23 -110 -43 l-75 -36 0 -97 0 -97 46 -43 c25 -24
71 -55 102 -68 31 -14 57 -28 57 -33 0 -4 -33 -5 -72 0 -81 9 -134 8 -190 -2
-37 -7 -38 -6 -38 21 0 16 7 61 15 99 19 93 20 179 0 195 -8 7 -35 15 -60 18
-25 2 -45 9 -45 15 0 5 15 55 34 111 37 113 81 268 95 336 6 25 15 65 21 90 7
25 14 56 16 70 3 14 16 81 30 150 14 69 28 139 31 155 15 93 66 317 98 430 71
251 123 366 229 503 71 92 90 136 90 206 -1 62 -31 153 -60 177 -7 6 -50 12
-96 13 -46 1 -88 5 -94 9 -8 4 -11 31 -8 74 2 38 5 115 8 173 13 243 61 416
171 614 38 68 38 70 22 98 -18 31 -22 94 -8 116 5 9 36 14 94 15 74 2 90 5
108 24 35 34 20 67 -58 130 l-22 18 24 72 c13 39 29 100 36 135 6 35 15 68 19
73 15 24 11 85 -8 110 -24 30 -19 70 7 59 34 -14 62 -16 76 -4 31 26 44 -17
19 -65 -12 -22 -10 -68 5 -130 6 -22 12 -73 15 -113 3 -40 12 -87 21 -105 l16
-32 -40 -32 c-64 -54 -63 -106 2 -139 18 -9 45 -27 60 -40 16 -13 33 -21 39
-18 6 4 0 -7 -12 -24 -24 -32 -24 -36 -4 -159 9 -57 -24 -125 -78 -159 -21
-14 -44 -36 -50 -50 -10 -21 -8 -28 9 -46 20 -20 23 -20 85 -5 136 33 209 66
342 156 38 25 88 58 110 73 23 15 69 42 104 60 34 18 86 52 115 75 28 24 55
43 58 43 4 0 13 14 22 32 13 27 13 36 2 69 -19 52 -13 88 16 103 34 17 81 13
93 -9 16 -27 44 -55 56 -55 37 0 111 69 575 536 231 232 425 423 431 423 7 1
15 -6 18 -15z m-1180 -806 c34 -49 7 -82 -38 -47 -30 24 -32 32 -10 53 21 21
30 20 48 -6z m-1008 -3149 c2 -30 12 -78 20 -106 14 -44 14 -55 3 -69 -25 -30
-37 9 -38 129 -2 114 7 141 15 46z"/>
<path d="M1715 4189 c-4 -6 -5 -11 -4 -12 2 -2 12 -9 22 -16 14 -12 17 -11 17
3 0 9 -3 15 -7 15 -20 -3 -26 2 -13 11 9 6 10 10 3 10 -6 0 -15 -5 -18 -11z"/>
<path d="M2971 4928 c0 -26 3 -49 7 -52 4 -2 6 12 4 32 -6 62 -10 69 -11 20z"/>
<path d="M2970 4760 c-8 -16 -7 -26 5 -42 20 -30 19 -56 -5 -96 -11 -18 -20
-36 -20 -40 0 -4 12 11 25 33 29 46 31 72 10 103 -12 16 -13 26 -5 42 6 11 8
20 6 20 -3 0 -10 -9 -16 -20z"/>
<path d="M782 4667 c-30 -32 -30 -88 1 -113 22 -19 22 -19 5 2 -25 29 -23 86
2 109 18 16 25 17 54 7 45 -17 58 -14 17 3 -45 20 -54 19 -79 -8z"/>
<path d="M906 4681 c-3 -4 6 -6 19 -3 14 2 25 6 25 8 0 8 -39 4 -44 -5z"/>
<path d="M969 4663 c15 -31 14 -76 -4 -99 -8 -10 -14 -28 -14 -39 1 -20 1 -20
6 0 3 11 12 29 19 40 19 26 18 77 -2 101 -15 18 -15 18 -5 -3z"/>
<path d="M792 4510 c0 -14 2 -19 5 -12 2 6 2 18 0 25 -3 6 -5 1 -5 -13z"/>
<path d="M962 4480 c0 -14 2 -19 5 -12 2 6 2 18 0 25 -3 6 -5 1 -5 -13z"/>
<path d="M2950 4481 c0 -4 -13 -25 -30 -46 -23 -29 -30 -47 -29 -79 l2 -41 6
46 c4 28 17 58 34 78 25 30 34 51 22 51 -3 0 -5 -4 -5 -9z"/>
<path d="M781 4464 c0 -11 3 -14 6 -6 3 7 2 16 -1 19 -3 4 -6 -2 -5 -13z"/>
<path d="M772 4420 c0 -14 2 -19 5 -12 2 6 2 18 0 25 -3 6 -5 1 -5 -13z"/>
<path d="M972 4415 c0 -16 2 -22 5 -12 2 9 2 23 0 30 -3 6 -5 -1 -5 -18z"/>
<path d="M761 4374 c0 -11 3 -14 6 -6 3 7 2 16 -1 19 -3 4 -6 -2 -5 -13z"/>
<path d="M983 4330 c0 -25 2 -35 4 -22 2 12 2 32 0 45 -2 12 -4 2 -4 -23z"/>
<path d="M751 4334 c0 -11 3 -14 6 -6 3 7 2 16 -1 19 -3 4 -6 -2 -5 -13z"/>
<path d="M728 4262 c-22 -60 -15 -67 7 -7 10 25 16 47 14 50 -3 2 -12 -17 -21
-43z"/>
<path d="M2850 4269 c-22 -18 -22 -19 -3 -10 12 6 25 16 28 21 9 15 3 12 -25
-11z"/>
<path d="M1669 4238 c-35 -39 -37 -71 -6 -112 13 -17 26 -38 30 -46 4 -10 6
-11 6 -2 1 7 -10 28 -24 46 -35 46 -32 78 10 115 20 17 31 31 25 31 -6 0 -24
-15 -41 -32z"/>
<path d="M1753 4259 c9 -5 26 -28 37 -50 17 -33 24 -38 44 -33 18 4 28 0 40
-17 9 -13 16 -18 16 -12 0 22 -32 45 -56 39 -17 -5 -24 -1 -29 13 -8 28 -44
71 -58 71 -7 0 -4 -5 6 -11z"/>
<path d="M990 4246 c0 -8 4 -17 9 -20 5 -4 7 3 4 14 -6 23 -13 26 -13 6z"/>
<path d="M2802 4210 c0 -14 2 -19 5 -12 2 6 2 18 0 25 -3 6 -5 1 -5 -13z"/>
<path d="M1022 4195 c0 -16 2 -22 5 -12 2 9 2 23 0 30 -3 6 -5 -1 -5 -18z"/>
<path d="M2749 4130 c-26 -25 -49 -56 -52 -70 -8 -33 -94 -135 -134 -160 -18
-11 -33 -22 -33 -25 0 -2 16 5 36 17 42 25 132 132 141 168 3 14 26 44 52 66
25 23 44 43 41 45 -3 2 -26 -16 -51 -41z"/>
<path d="M710 4163 c0 -5 10 -18 23 -29 l22 -19 -20 25 c-11 14 -21 27 -22 29
-2 2 -3 0 -3 -6z"/>
<path d="M990 4139 c-22 -18 -22 -19 -3 -10 12 6 25 16 28 21 9 15 3 12 -25
-11z"/>
<path d="M1890 4121 c0 -10 19 -25 25 -20 1 2 -3 10 -11 17 -8 7 -14 8 -14 3z"/>
<path d="M761 4117 c2 -1 15 -11 29 -22 l25 -20 -19 23 c-11 12 -24 22 -29 22
-6 0 -8 -1 -6 -3z"/>
<path d="M942 4108 c-17 -17 -15 -45 3 -52 12 -4 13 -2 3 14 -9 14 -9 22 1 34
16 19 10 21 -7 4z"/>
<path d="M609 4053 c-13 -16 -12 -17 4 -4 16 13 21 21 13 21 -2 0 -10 -8 -17
-17z"/>
<path d="M650 4060 c8 -5 22 -9 30 -9 10 0 8 3 -5 9 -27 12 -43 12 -25 0z"/>
<path d="M728 4053 c12 -2 30 -2 40 0 9 3 -1 5 -23 4 -22 0 -30 -2 -17 -4z"/>
<path d="M1681 4055 c0 -5 6 -21 14 -35 8 -14 14 -20 14 -15 0 6 -6 21 -14 35
-8 14 -14 21 -14 15z"/>
<path d="M990 4038 c0 -2 9 -11 20 -21 11 -9 20 -13 20 -7 0 5 -9 14 -20 20
-11 6 -20 9 -20 8z"/>
<path d="M1049 4013 c-13 -17 -13 -17 6 -3 11 8 22 16 24 17 2 2 0 3 -6 3 -6
0 -17 -8 -24 -17z"/>
<path d="M1098 4023 c7 -3 16 -2 19 1 4 3 -2 6 -13 5 -11 0 -14 -3 -6 -6z"/>
<path d="M576 3995 c-3 -9 -5 -29 -5 -43 1 -20 3 -17 9 13 8 43 7 57 -4 30z"/>
<path d="M1150 3978 c0 -9 -6 -19 -12 -21 -10 -4 -10 -6 0 -6 14 -1 28 26 18
36 -3 4 -6 -1 -6 -9z"/>
<path d="M1690 3960 c-14 -14 -43 -40 -65 -58 -22 -19 -27 -25 -10 -14 43 29
111 89 105 94 -3 2 -16 -8 -30 -22z"/>
<path d="M1075 3925 c-19 -18 -25 -34 -24 -62 1 -25 3 -30 6 -13 9 58 15 70
41 84 15 9 21 15 14 16 -7 0 -24 -11 -37 -25z"/>
<path d="M1508 3834 c-38 -19 -68 -37 -68 -39 0 -3 32 11 70 30 39 19 70 37
70 40 0 7 3 8 -72 -31z"/>
<path d="M596 3843 c-6 -14 -5 -15 5 -6 7 7 10 15 7 18 -3 3 -9 -2 -12 -12z"/>
<path d="M2408 3728 c-60 -61 -108 -113 -108 -114 0 -2 25 20 55 48 50 47 172
179 163 178 -1 -1 -51 -51 -110 -112z"/>
<path d="M570 3800 c-6 -11 -8 -20 -6 -20 3 0 10 9 16 20 6 11 8 20 6 20 -3 0
-10 -9 -16 -20z"/>
<path d="M1061 3804 c0 -11 3 -14 6 -6 3 7 2 16 -1 19 -3 4 -6 -2 -5 -13z"/>
<path d="M1340 3729 c-85 -61 -108 -79 -80 -64 22 12 170 118 170 122 0 6 -5
3 -90 -58z"/>
<path d="M1072 3752 c-2 -37 -43 -123 -72 -152 -11 -11 -16 -20 -11 -20 27 0
93 131 88 173 l-4 32 -1 -33z"/>
<path d="M530 3729 c-12 -23 -20 -43 -18 -45 3 -2 14 17 26 41 27 56 20 60 -8
4z"/>
<path d="M496 3655 c-9 -26 -7 -32 5 -12 6 10 9 21 6 23 -2 3 -7 -2 -11 -11z"/>
<path d="M1180 3630 c-30 -16 -51 -29 -47 -30 10 0 107 49 107 55 0 7 1 7 -60
-25z"/>
<path d="M471 3589 c-6 -18 -11 -37 -10 -43 0 -6 7 7 15 28 8 22 12 41 10 43
-2 2 -9 -10 -15 -28z"/>
<path d="M1080 3590 c-18 -12 -2 -12 25 0 13 6 15 9 5 9 -8 0 -22 -4 -30 -9z"/>
<path d="M2270 3574 c-42 -42 -121 -107 -209 -174 -47 -35 -123 -100 -170
-144 -47 -45 -108 -101 -136 -125 -27 -24 -36 -34 -18 -22 17 12 79 66 137
121 59 55 150 133 204 173 53 41 104 82 112 92 8 10 31 28 52 41 20 13 42 33
48 44 14 26 11 25 -20 -6z"/>
<path d="M940 3565 c-19 -22 -8 -25 13 -3 9 10 13 18 8 18 -5 0 -14 -7 -21
-15z"/>
<path d="M1010 3565 c-19 -7 -28 -14 -20 -14 8 0 29 6 45 14 39 17 21 18 -25
0z"/>
<path d="M441 3484 c0 -11 3 -14 6 -6 3 7 2 16 -1 19 -3 4 -6 -2 -5 -13z"/>
<path d="M432 3440 c0 -14 2 -19 5 -12 2 6 2 18 0 25 -3 6 -5 1 -5 -13z"/>
<path d="M415 3360 c-4 -28 -5 -53 -2 -56 2 -3 7 19 11 47 4 28 5 53 3 56 -3
2 -8 -19 -12 -47z"/>
<path d="M403 3245 c0 -27 2 -38 4 -22 2 15 2 37 0 50 -2 12 -4 0 -4 -28z"/>
<path d="M393 3120 c0 -41 2 -58 4 -37 2 20 2 54 0 75 -2 20 -4 3 -4 -38z"/>
<path d="M1644 3058 c-16 -13 -89 -77 -162 -143 -73 -66 -170 -150 -215 -186
-45 -37 -93 -78 -106 -93 l-25 -26 40 -41 c21 -22 55 -50 74 -61 19 -12 56
-41 81 -65 35 -34 52 -44 70 -40 24 4 24 4 -2 6 -15 0 -39 16 -60 37 -18 20
-56 51 -84 69 -27 18 -63 46 -79 63 -35 38 -35 37 74 125 41 33 102 86 135
116 85 79 224 201 265 233 19 15 32 28 29 28 -4 0 -19 -10 -35 -22z"/>
<path d="M393 2970 c0 -25 2 -35 4 -22 2 12 2 32 0 45 -2 12 -4 2 -4 -23z"/>
<path d="M394 2890 c1 -10 13 -15 41 -16 l40 -1 -37 4 c-20 2 -39 10 -41 16
-2 7 -3 5 -3 -3z"/>
<path d="M611 2865 c0 -5 6 -21 14 -35 8 -14 14 -20 14 -15 0 6 -6 21 -14 35
-8 14 -14 21 -14 15z"/>
<path d="M641 2784 c0 -11 3 -14 6 -6 3 7 2 16 -1 19 -3 4 -6 -2 -5 -13z"/>
<path d="M1552 2748 c-7 -7 -12 -19 -11 -27 0 -10 4 -7 9 7 13 30 28 28 33 -5
4 -28 4 -28 3 1 -1 33 -15 43 -34 24z"/>
<path d="M652 2720 c0 -19 2 -27 5 -17 2 9 2 25 0 35 -3 9 -5 1 -5 -18z"/>
<path d="M641 2664 c0 -11 3 -14 6 -6 3 7 2 16 -1 19 -3 4 -6 -2 -5 -13z"/>
<path d="M1533 2645 c0 -22 2 -30 4 -17 2 12 2 30 0 40 -3 9 -5 -1 -4 -23z"/>
<path d="M1597 2525 c3 -71 6 -134 8 -140 7 -21 3 192 -4 230 -5 24 -6 -13 -4
-90z"/>
<path d="M597 2588 c-20 -29 -46 -65 -57 -80 -12 -16 -20 -28 -17 -28 5 0 76
92 102 133 31 48 9 29 -28 -25z"/>
<path d="M1516 2585 c-9 -26 -7 -32 5 -12 6 10 9 21 6 23 -2 3 -7 -2 -11 -11z"/>
<path d="M487 2433 c-32 -50 -59 -104 -55 -108 2 -1 22 31 44 71 44 78 50 99
11 37z"/>
<path d="M1446 2425 c-11 -8 -15 -15 -9 -15 6 0 16 7 23 15 16 19 11 19 -14 0z"/>
<path d="M1577 2289 c-5 -42 -3 -57 13 -79 42 -60 560 -500 560 -476 0 3 -37
33 -82 68 -99 75 -326 270 -421 361 l-67 65 6 56 c4 31 5 56 2 56 -3 0 -8 -23
-11 -51z"/>
<path d="M416 2295 c-9 -26 -7 -32 5 -12 6 10 9 21 6 23 -2 3 -7 -2 -11 -11z"/>
<path d="M381 2199 c-6 -18 -11 -37 -10 -43 0 -6 7 7 15 28 8 22 12 41 10 43
-2 2 -9 -10 -15 -28z"/>
<path d="M331 2034 c0 -11 3 -14 6 -6 3 7 2 16 -1 19 -3 4 -6 -2 -5 -13z"/>
<path d="M301 1924 c0 -11 3 -14 6 -6 3 7 2 16 -1 19 -3 4 -6 -2 -5 -13z"/>
<path d="M992 1904 c-1 -13 0 -24 2 -24 7 0 14 40 7 44 -4 3 -8 -6 -9 -20z"/>
<path d="M291 1884 c0 -11 3 -14 6 -6 3 7 2 16 -1 19 -3 4 -6 -2 -5 -13z"/>
<path d="M1048 1855 c23 -27 60 -70 82 -95 l42 -45 -40 50 c-23 28 -60 70 -82
95 l-42 45 40 -50z"/>
<path d="M1001 1854 c0 -11 3 -14 6 -6 3 7 2 16 -1 19 -3 4 -6 -2 -5 -13z"/>
<path d="M282 1840 c0 -14 2 -19 5 -12 2 6 2 18 0 25 -3 6 -5 1 -5 -13z"/>
<path d="M1011 1804 c0 -11 3 -14 6 -6 3 7 2 16 -1 19 -3 4 -6 -2 -5 -13z"/>
<path d="M271 1794 c0 -11 3 -14 6 -6 3 7 2 16 -1 19 -3 4 -6 -2 -5 -13z"/>
<path d="M1022 1760 c0 -14 2 -19 5 -12 2 6 2 18 0 25 -3 6 -5 1 -5 -13z"/>
<path d="M262 1750 c0 -14 2 -19 5 -12 2 6 2 18 0 25 -3 6 -5 1 -5 -13z"/>
<path d="M1032 1710 c0 -14 2 -19 5 -12 2 6 2 18 0 25 -3 6 -5 1 -5 -13z"/>
<path d="M2167 1719 c14 -17 103 -83 103 -76 0 3 -26 24 -57 48 -32 23 -53 36
-46 28z"/>
<path d="M252 1700 c0 -14 2 -19 5 -12 2 6 2 18 0 25 -3 6 -5 1 -5 -13z"/>
<path d="M1189 1687 c13 -15 31 -29 40 -32 9 -3 23 -18 32 -34 18 -30 113
-111 132 -111 6 0 -10 14 -36 31 -26 17 -58 45 -71 62 -32 41 -44 52 -86 84
l-35 27 24 -27z"/>
<path d="M707 1673 c-4 -3 -7 -11 -7 -17 0 -6 4 -5 9 2 6 10 13 5 28 -20 11
-18 23 -40 26 -48 5 -13 6 -13 6 0 1 13 -44 90 -53 90 -1 0 -6 -3 -9 -7z"/>
<path d="M1042 1660 c0 -14 2 -19 5 -12 2 6 2 18 0 25 -3 6 -5 1 -5 -13z"/>
<path d="M242 1650 c0 -14 2 -19 5 -12 2 6 2 18 0 25 -3 6 -5 1 -5 -13z"/>
<path d="M677 1605 c-9 -19 -15 -35 -12 -35 7 0 37 61 33 66 -3 2 -12 -12 -21
-31z"/>
<path d="M2280 1637 c0 -3 17 -17 37 -33 20 -15 33 -23 29 -16 -8 13 -66 56
-66 49z"/>
<path d="M1052 1610 c0 -14 2 -19 5 -12 2 6 2 18 0 25 -3 6 -5 1 -5 -13z"/>
<path d="M231 1604 c0 -11 3 -14 6 -6 3 7 2 16 -1 19 -3 4 -6 -2 -5 -13z"/>
<path d="M1062 1560 c0 -14 2 -19 5 -12 2 6 2 18 0 25 -3 6 -5 1 -5 -13z"/>
<path d="M2360 1576 c0 -2 8 -10 18 -17 15 -13 16 -12 3 4 -13 16 -21 21 -21
13z"/>
<path d="M222 1550 c0 -14 2 -19 5 -12 2 6 2 18 0 25 -3 6 -5 1 -5 -13z"/>
<path d="M751 1554 c0 -11 3 -14 6 -6 3 7 2 16 -1 19 -3 4 -6 -2 -5 -13z"/>
<path d="M640 1540 c-6 -11 -8 -20 -6 -20 3 0 10 9 16 20 6 11 8 20 6 20 -3 0
-10 -9 -16 -20z"/>
<path d="M2430 1520 c19 -17 80 -65 135 -107 55 -42 103 -83 107 -92 6 -15 7
-15 7 0 1 9 -29 39 -66 66 -38 28 -102 76 -143 108 -41 31 -59 43 -40 25z"/>
<path d="M1072 1505 c0 -16 2 -22 5 -12 2 9 2 23 0 30 -3 6 -5 -1 -5 -18z"/>
<path d="M212 1500 c0 -14 2 -19 5 -12 2 6 2 18 0 25 -3 6 -5 1 -5 -13z"/>
<path d="M591 1470 c-25 -31 -31 -48 -28 -73 4 -32 4 -32 5 5 1 20 6 39 12 43
11 7 53 65 47 65 -2 0 -18 -18 -36 -40z"/>
<path d="M1419 1493 c13 -25 58 -63 75 -63 6 0 2 5 -9 11 -11 6 -33 25 -49 42
-19 21 -24 25 -17 10z"/>
<path d="M731 1484 c0 -11 3 -14 6 -6 3 7 2 16 -1 19 -3 4 -6 -2 -5 -13z"/>
<path d="M202 1450 c0 -14 2 -19 5 -12 2 6 2 18 0 25 -3 6 -5 1 -5 -13z"/>
<path d="M1082 1445 c0 -16 2 -22 5 -12 2 9 2 23 0 30 -3 6 -5 -1 -5 -18z"/>
<path d="M721 1444 c0 -11 3 -14 6 -6 3 7 2 16 -1 19 -3 4 -6 -2 -5 -13z"/>
<path d="M1524 1405 c18 -39 44 -61 81 -69 22 -5 26 -4 15 4 -8 5 -23 10 -32
10 -15 0 -32 17 -66 66 -7 12 -7 7 2 -11z"/>
<path d="M712 1400 c0 -14 2 -19 5 -12 2 6 2 18 0 25 -3 6 -5 1 -5 -13z"/>
<path d="M191 1394 c0 -11 3 -14 6 -6 3 7 2 16 -1 19 -3 4 -6 -2 -5 -13z"/>
<path d="M1092 1380 c0 -19 2 -27 5 -17 2 9 2 25 0 35 -3 9 -5 1 -5 -18z"/>
<path d="M181 1344 c0 -11 3 -14 6 -6 3 7 2 16 -1 19 -3 4 -6 -2 -5 -13z"/>
<path d="M572 1330 c0 -19 2 -27 5 -17 2 9 2 25 0 35 -3 9 -5 1 -5 -18z"/>
<path d="M702 1330 c0 -19 2 -27 5 -17 2 9 2 25 0 35 -3 9 -5 1 -5 -18z"/>
<path d="M1102 1320 c0 -14 2 -19 5 -12 2 6 2 18 0 25 -3 6 -5 1 -5 -13z"/>
<path d="M171 1294 c0 -11 3 -14 6 -6 3 7 2 16 -1 19 -3 4 -6 -2 -5 -13z"/>
<path d="M2637 1265 c-15 -19 -22 -32 -14 -29 11 4 53 64 45 64 -2 0 -15 -16
-31 -35z"/>
<path d="M582 1260 c0 -19 2 -27 5 -17 2 9 2 25 0 35 -3 9 -5 1 -5 -18z"/>
<path d="M1111 1274 c0 -11 3 -14 6 -6 3 7 2 16 -1 19 -3 4 -6 -2 -5 -13z"/>
<path d="M1650 1285 c0 -2 10 -10 23 -16 20 -11 21 -11 8 4 -13 16 -31 23 -31
12z"/>
<path d="M693 1240 c0 -25 2 -35 4 -22 2 12 2 32 0 45 -2 12 -4 2 -4 -23z"/>
<path d="M162 1250 c0 -14 2 -19 5 -12 2 6 2 18 0 25 -3 6 -5 1 -5 -13z"/>
<path d="M1708 1253 c6 -2 18 -2 25 0 6 3 1 5 -13 5 -14 0 -19 -2 -12 -5z"/>
<path d="M1120 1245 c0 -5 5 -17 10 -25 5 -8 10 -10 10 -5 0 6 -5 17 -10 25
-5 8 -10 11 -10 5z"/>
<path d="M1778 1223 c15 -15 34 -23 55 -22 32 1 32 1 -5 9 -21 4 -46 13 -56
21 -10 8 -7 4 6 -8z"/>
<path d="M2523 1223 c15 -2 39 -2 55 0 15 2 2 4 -28 4 -30 0 -43 -2 -27 -4z"/>
<path d="M151 1204 c0 -11 3 -14 6 -6 3 7 2 16 -1 19 -3 4 -6 -2 -5 -13z"/>
<path d="M592 1200 c0 -14 2 -19 5 -12 2 6 2 18 0 25 -3 6 -5 1 -5 -13z"/>
<path d="M1900 1180 c37 -20 75 -26 84 -11 3 4 -5 6 -18 4 -13 -3 -37 2 -54
11 -44 23 -54 19 -12 -4z"/>
<path d="M2476 1185 c-11 -8 -15 -15 -9 -15 6 0 16 7 23 15 16 19 11 19 -14 0z"/>
<path d="M908 1183 c7 -3 16 -2 19 1 4 3 -2 6 -13 5 -11 0 -14 -3 -6 -6z"/>
<path d="M141 1164 c0 -11 3 -14 6 -6 3 7 2 16 -1 19 -3 4 -6 -2 -5 -13z"/>
<path d="M850 1170 c-18 -12 -2 -12 25 0 13 6 15 9 5 9 -8 0 -22 -4 -30 -9z"/>
<path d="M2022 1164 c10 -10 20 -16 22 -13 3 3 -5 11 -17 18 -21 13 -21 12 -5
-5z"/>
<path d="M2359 1159 l-24 -20 30 17 c39 24 40 24 28 24 -6 0 -21 -9 -34 -21z"/>
<path d="M933 1100 c0 -41 2 -58 4 -37 2 20 2 54 0 75 -2 20 -4 3 -4 -38z"/>
<path d="M2418 1163 c6 -2 18 -2 25 0 6 3 1 5 -13 5 -14 0 -19 -2 -12 -5z"/>
<path d="M602 1135 c0 -16 2 -22 5 -12 2 9 2 23 0 30 -3 6 -5 -1 -5 -18z"/>
<path d="M810 1150 c-9 -6 -10 -10 -3 -10 6 0 15 5 18 10 8 12 4 12 -15 0z"/>
<path d="M1161 1155 c0 -5 6 -21 14 -35 8 -14 14 -20 14 -15 0 6 -6 21 -14 35
-8 14 -14 21 -14 15z"/>
<path d="M2118 1153 c7 -3 16 -2 19 1 4 3 -2 6 -13 5 -11 0 -14 -3 -6 -6z"/>
<path d="M684 1030 c0 -69 1 -97 3 -62 2 34 2 90 0 125 -2 34 -3 6 -3 -63z"/>
<path d="M2068 1143 c6 -2 18 -2 25 0 6 3 1 5 -13 5 -14 0 -19 -2 -12 -5z"/>
<path d="M2160 1140 c8 -5 20 -10 25 -10 6 0 3 5 -5 10 -8 5 -19 10 -25 10 -5
0 -3 -5 5 -10z"/>
<path d="M2220 1140 c-8 -5 -10 -10 -5 -10 6 0 17 5 25 10 8 5 11 10 5 10 -5
0 -17 -5 -25 -10z"/>
<path d="M2280 1140 c8 -5 24 -10 34 -10 26 0 18 6 -19 14 -22 5 -26 4 -15 -4z"/>
<path d="M131 1124 c0 -11 3 -14 6 -6 3 7 2 16 -1 19 -3 4 -6 -2 -5 -13z"/>
<path d="M783 1095 c0 -27 2 -38 4 -22 2 15 2 37 0 50 -2 12 -4 0 -4 -28z"/>
<path d="M116 1069 c-8 -42 0 -50 9 -9 4 17 5 34 2 36 -2 3 -7 -10 -11 -27z"/>
<path d="M612 1075 c0 -16 2 -22 5 -12 2 9 2 23 0 30 -3 6 -5 -1 -5 -18z"/>
<path d="M622 1015 c0 -16 2 -22 5 -12 2 9 2 23 0 30 -3 6 -5 -1 -5 -18z"/>
<path d="M101 1004 c0 -11 3 -14 6 -6 3 7 2 16 -1 19 -3 4 -6 -2 -5 -13z"/>
<path d="M792 1000 c0 -14 2 -19 5 -12 2 6 2 18 0 25 -3 6 -5 1 -5 -13z"/>
<path d="M943 975 c0 -27 2 -38 4 -22 2 15 2 37 0 50 -2 12 -4 0 -4 -28z"/>
<path d="M1221 980 c-1 -31 -18 -50 -43 -50 -12 0 -18 -7 -17 -22 1 -16 3 -18
6 -6 2 9 15 19 28 22 25 6 42 43 32 68 -3 7 -6 2 -6 -12z"/>
<path d="M86 954 c-4 -14 -5 -28 -3 -31 3 -2 8 8 11 23 4 14 5 28 3 31 -3 2
-8 -8 -11 -23z"/>
<path d="M633 910 c0 -36 2 -50 4 -32 2 17 2 47 0 65 -2 17 -4 3 -4 -33z"/>
<path d="M952 900 c0 -14 2 -19 5 -12 2 6 2 18 0 25 -3 6 -5 1 -5 -13z"/>
<path d="M47 828 c-14 -45 -25 -84 -23 -86 2 -2 16 33 31 78 15 45 25 83 23
85 -2 3 -16 -32 -31 -77z"/>
<path d="M817 880 c-4 -19 -18 -37 -39 -50 -18 -11 -27 -20 -20 -20 21 0 72
56 72 79 0 30 -7 26 -13 -9z"/>
<path d="M691 882 c-1 -19 31 -72 43 -72 5 0 2 8 -7 18 -9 9 -20 29 -26 42 -5
14 -10 19 -10 12z"/>
<path d="M1172 860 c0 -14 2 -19 5 -12 2 6 2 18 0 25 -3 6 -5 1 -5 -13z"/>
<path d="M961 854 c0 -11 3 -14 6 -6 3 7 2 16 -1 19 -3 4 -6 -2 -5 -13z"/>
<path d="M603 813 c-12 -13 -19 -23 -14 -23 10 0 46 39 40 43 -2 2 -14 -7 -26
-20z"/>
<path d="M1182 800 c0 -14 2 -19 5 -12 2 6 2 18 0 25 -3 6 -5 1 -5 -13z"/>
<path d="M515 770 c-3 -6 1 -7 9 -4 18 7 21 14 7 14 -6 0 -13 -4 -16 -10z"/>
<path d="M991 775 c0 -5 22 -53 49 -105 27 -52 49 -90 49 -85 0 6 -22 53 -49
105 -27 52 -49 91 -49 85z"/>
<path d="M1191 754 c0 -11 3 -14 6 -6 3 7 2 16 -1 19 -3 4 -6 -2 -5 -13z"/>
<path d="M484 728 l-19 -23 23 19 c21 18 27 26 19 26 -2 0 -12 -10 -23 -22z"/>
<path d="M1201 714 c0 -11 3 -14 6 -6 3 7 2 16 -1 19 -3 4 -6 -2 -5 -13z"/>
<path d="M1 684 c0 -11 3 -14 6 -6 3 7 2 16 -1 19 -3 4 -6 -2 -5 -13z"/>
<path d="M398 693 c7 -3 16 -2 19 1 4 3 -2 6 -13 5 -11 0 -14 -3 -6 -6z"/>
<path d="M350 675 c-14 -8 -20 -14 -14 -15 5 0 19 7 30 15 24 18 16 19 -16 0z"/>
<path d="M1211 674 c0 -11 3 -14 6 -6 3 7 2 16 -1 19 -3 4 -6 -2 -5 -13z"/>
<path d="M270 630 c0 -11 2 -20 4 -20 2 0 6 9 9 20 3 11 1 20 -4 20 -5 0 -9
-9 -9 -20z"/>
<path d="M1221 634 c0 -11 3 -14 6 -6 3 7 2 16 -1 19 -3 4 -6 -2 -5 -13z"/>
<path d="M0 632 c0 -15 39 -25 81 -19 29 3 27 4 -11 5 -26 1 -51 7 -58 14 -9
9 -12 9 -12 0z"/>
<path d="M131 594 c0 -11 3 -14 6 -6 3 7 2 16 -1 19 -3 4 -6 -2 -5 -13z"/>
<path d="M1231 594 c0 -11 3 -14 6 -6 3 7 2 16 -1 19 -3 4 -6 -2 -5 -13z"/>
<path d="M262 570 c0 -14 2 -19 5 -12 2 6 2 18 0 25 -3 6 -5 1 -5 -13z"/>
<path d="M1090 565 c0 -5 5 -17 10 -25 5 -8 10 -10 10 -5 0 6 -5 17 -10 25 -5
8 -10 11 -10 5z"/>
<path d="M1241 554 c0 -11 3 -14 6 -6 3 7 2 16 -1 19 -3 4 -6 -2 -5 -13z"/>
<path d="M122 530 c0 -19 2 -27 5 -17 2 9 2 25 0 35 -3 9 -5 1 -5 -18z"/>
<path d="M1251 514 c0 -11 3 -14 6 -6 3 7 2 16 -1 19 -3 4 -6 -2 -5 -13z"/>
<path d="M1112 510 c0 -8 4 -26 8 -40 6 -20 8 -21 8 -5 0 11 -3 29 -8 40 -5
12 -8 14 -8 5z"/>
<path d="M270 507 c0 -21 39 -61 84 -88 28 -16 56 -29 61 -29 6 0 -16 15 -48
33 -32 17 -66 46 -77 62 -11 17 -20 26 -20 22z"/>
<path d="M112 465 c0 -16 2 -22 5 -12 2 9 2 23 0 30 -3 6 -5 -1 -5 -18z"/>
<path d="M1133 405 c0 -22 2 -30 4 -17 2 12 2 30 0 40 -3 9 -5 -1 -4 -23z"/>
<path d="M92 354 c-2 -39 2 -55 16 -65 15 -12 16 -12 5 1 -6 9 -13 38 -16 65
l-3 50 -2 -51z"/>
<path d="M462 368 c35 -20 57 -52 44 -65 -3 -3 -20 -9 -38 -13 -29 -7 -30 -8
-7 -9 37 -1 63 21 55 47 -7 20 -63 62 -82 62 -5 0 8 -10 28 -22z"/>
<path d="M1300 365 c0 -5 5 -17 10 -25 5 -8 10 -10 10 -5 0 6 -5 17 -10 25 -5
8 -10 11 -10 5z"/>
<path d="M1121 344 c0 -11 3 -14 6 -6 3 7 2 16 -1 19 -3 4 -6 -2 -5 -13z"/>
<path d="M1110 311 c0 -5 -3 -17 -6 -25 -4 -11 11 -33 50 -70 31 -30 56 -51
56 -48 0 4 -23 28 -50 53 -44 40 -50 51 -44 73 3 14 3 26 0 26 -3 0 -6 -4 -6
-9z"/>
<path d="M1320 315 c0 -5 5 -17 10 -25 5 -8 10 -10 10 -5 0 6 -5 17 -10 25 -5
8 -10 11 -10 5z"/>
<path d="M238 293 c6 -2 18 -2 25 0 6 3 1 5 -13 5 -14 0 -19 -2 -12 -5z"/>
<path d="M308 283 c12 -2 32 -2 45 0 12 2 2 4 -23 4 -25 0 -35 -2 -22 -4z"/>
<path d="M143 273 c9 -2 25 -2 35 0 9 3 1 5 -18 5 -19 0 -27 -2 -17 -5z"/>
<path d="M1340 265 c0 -5 5 -17 10 -25 5 -8 10 -10 10 -5 0 6 -5 17 -10 25 -5
8 -10 11 -10 5z"/>
<path d="M1370 197 c-1 -19 41 -85 74 -116 28 -28 33 -38 25 -53 -5 -10 -7
-18 -5 -18 3 0 10 9 16 20 9 16 4 25 -26 52 -20 18 -47 53 -60 78 -12 25 -23
41 -24 37z"/>
<path d="M1211 140 c0 -8 4 -22 9 -30 12 -18 12 -2 0 25 -6 13 -9 15 -9 5z"/>
<path d="M1238 75 c11 -22 38 -47 62 -59 8 -4 4 1 -9 12 -13 10 -32 30 -43 43
-15 18 -17 19 -10 4z"/>
<path d="M1428 3 c7 -3 16 -2 19 1 4 3 -2 6 -13 5 -11 0 -14 -3 -6 -6z"/>
</g>
</svg>
