<svg width="100" height="100" viewBox="0 0 100 100" fill="none" xmlns="http://www.w3.org/2000/svg">
<path d="M81.4475 64.9068H43.2081C36.7354 64.9068 32.6525 57.9485 35.8391 52.2826L54.6599 19.38C58.046 13.4158 66.6099 13.4158 69.9956 19.38L88.8165 52.2826C92.0031 57.8491 87.9202 64.9068 81.4475 64.9068Z" fill="#008477"/>
<path opacity="0.95" d="M56.652 64.9068H18.4127C11.9399 64.9068 7.85708 57.9485 11.0437 52.2826L29.8646 19.38C33.2504 13.4158 41.8144 13.4158 45.2001 19.38L64.0209 52.2826C68.5023 59.4398 72.4855 64.9068 80.7507 64.9068" fill="url(#paint0_linear)"/>
<path d="M27.7441 84.7826H30.2708V73.2C30.2708 72.5515 30.2485 71.9925 30.1814 71.4559H30.2708C30.3156 71.836 30.4945 72.6634 30.6733 73.1329L34.4746 84.7826H37.046L40.8026 73.1329C40.9591 72.6634 41.1603 71.836 41.205 71.4559H41.2721C41.205 72.0149 41.1827 72.5739 41.1827 73.2V84.7826H43.8212V68.9068H39.774L36.2187 79.9304C35.9727 80.713 35.8833 81.0708 35.8162 81.6522H35.7715C35.7044 81.0708 35.615 80.7354 35.369 79.9528L31.769 68.9068H27.7441V84.7826Z" fill="#989898"/>
<path d="M46.0464 84.7826H49.2439L52.4638 79.5727C52.7321 79.1478 52.9781 78.7453 53.1122 78.3652H53.1569C53.3135 78.7901 53.47 78.9913 53.8501 79.595L57.1371 84.7826H60.4464L55.0128 76.6658L59.9545 68.9068H56.8017L53.783 73.7814C53.5371 74.1615 53.4029 74.3851 53.2911 74.7429H53.2464C53.1122 74.3851 52.9781 74.1615 52.7545 73.759L49.7582 68.9068H46.4712L51.4576 76.4646L46.0464 84.7826Z" fill="#989898"/>
<path d="M67.7644 85.1627C71.6327 85.1627 73.8017 82.9043 74.4725 79.7292L71.6104 79.1478C71.2079 81.3838 69.8216 82.7478 67.7868 82.7478C64.8799 82.7478 63.3147 80.2658 63.3147 76.8C63.3147 73.2447 64.9247 70.8969 67.7197 70.8969C69.911 70.8969 71.2303 72.3279 71.4986 74.5863L74.4501 74.1615C74.0253 70.7851 71.7669 68.5267 67.8091 68.5267C63.0464 68.5267 60.3408 71.8807 60.3408 76.8224C60.3408 81.6298 62.7781 85.1627 67.7644 85.1627Z" fill="#989898"/>
<defs>
<linearGradient id="paint0_linear" x1="42.3044" y1="39.8969" x2="84.1933" y2="39.8969" gradientUnits="userSpaceOnUse">
<stop stop-color="#67F9A5"/>
<stop offset="1" stop-color="#029176"/>
</linearGradient>
</defs>
</svg>
