<svg id="svg" version="1.1" xmlns="http://www.w3.org/2000/svg" xmlns:xlink="http://www.w3.org/1999/xlink" width="400" height="400" viewBox="0, 0, 400,400"><g id="svgg"><path id="path0" d="M67.200 200.000 L 67.200 332.800 200.000 332.800 L 332.800 332.800 332.800 200.000 L 332.800 67.200 200.000 67.200 L 67.200 67.200 67.200 200.000 M320.000 200.000 L 320.000 320.000 200.000 320.000 L 80.000 320.000 80.000 200.267 C 80.000 134.413,80.120 80.413,80.267 80.267 C 80.413 80.120,134.413 80.000,200.267 80.000 L 320.000 80.000 320.000 200.000 M271.200 165.593 C 271.200 186.154,271.357 185.230,268.383 182.158 C 264.138 177.773,258.448 174.625,252.000 173.097 C 248.670 172.308,236.229 172.668,235.000 173.590 C 234.780 173.755,234.085 174.013,233.456 174.164 C 230.124 174.961,224.227 178.515,220.891 181.735 C 218.495 184.049,213.200 191.349,213.200 192.340 C 213.200 192.599,213.029 193.123,212.819 193.505 C 212.180 194.672,211.285 196.944,211.050 198.000 C 210.927 198.550,210.626 199.990,210.382 201.200 C 210.138 202.410,209.773 203.953,209.569 204.628 C 209.089 206.225,209.089 218.575,209.569 220.172 C 210.019 221.668,210.775 225.262,211.068 227.300 C 211.187 228.125,211.431 228.800,211.610 228.800 C 211.790 228.800,212.056 229.343,212.202 230.007 C 212.464 231.202,215.025 236.411,215.540 236.799 C 215.687 236.909,216.278 237.720,216.853 238.600 C 218.319 240.842,224.290 246.800,225.072 246.800 C 225.218 246.800,225.628 247.064,225.984 247.386 C 226.941 248.252,231.952 250.798,232.729 250.813 C 233.098 250.820,233.749 251.090,234.176 251.413 C 234.604 251.736,235.603 252.000,236.396 252.000 C 237.190 252.000,238.029 252.189,238.260 252.420 C 239.285 253.445,254.584 252.376,255.764 251.196 C 255.982 250.978,256.478 250.800,256.866 250.800 C 257.665 250.800,260.767 249.171,262.673 247.749 C 263.374 247.227,264.084 246.800,264.253 246.800 C 264.421 246.800,265.957 245.329,267.666 243.531 C 271.297 239.709,271.154 239.588,271.295 246.600 L 271.400 251.800 279.800 251.917 C 284.420 251.981,288.786 251.928,289.501 251.799 L 290.803 251.563 290.701 199.482 L 290.600 147.400 280.900 147.293 L 271.200 147.186 271.200 165.593 M110.600 153.151 L 109.400 153.408 109.296 202.071 C 109.201 246.244,109.250 250.793,109.832 251.374 C 110.388 251.931,111.664 252.001,119.536 251.907 L 128.600 251.800 128.800 218.033 C 128.994 185.201,129.147 181.483,130.171 184.707 C 130.302 185.121,130.727 185.806,131.115 186.229 C 131.692 186.859,135.358 192.407,137.000 195.135 C 137.220 195.501,137.490 195.890,137.600 196.000 C 138.204 196.604,141.200 201.220,141.200 201.547 C 141.200 201.760,141.335 201.993,141.500 202.067 C 141.905 202.247,145.200 207.171,145.200 207.596 C 145.200 207.782,145.341 207.993,145.513 208.067 C 145.685 208.140,146.609 209.448,147.565 210.973 C 148.522 212.498,149.469 213.938,149.670 214.173 C 149.871 214.408,152.811 218.830,156.205 224.000 C 159.598 229.170,162.537 233.592,162.735 233.827 C 162.934 234.062,163.870 235.502,164.815 237.027 C 165.761 238.552,166.834 240.160,167.200 240.600 C 167.806 241.328,171.696 247.351,173.231 249.937 C 173.578 250.522,174.298 251.222,174.831 251.494 C 176.180 252.182,192.835 252.205,193.520 251.520 C 194.474 250.566,194.185 153.727,193.226 153.214 C 192.232 152.682,176.815 152.662,175.423 153.191 L 174.393 153.583 174.497 186.791 L 174.600 220.000 173.750 220.000 C 173.224 220.000,172.689 219.581,172.346 218.900 C 171.581 217.380,169.465 214.229,169.100 214.067 C 168.935 213.993,168.800 213.782,168.800 213.596 C 168.800 213.171,165.505 208.247,165.100 208.067 C 164.935 207.993,164.800 207.740,164.800 207.504 C 164.800 207.269,164.350 206.486,163.800 205.764 C 163.250 205.043,162.800 204.332,162.800 204.183 C 162.800 204.034,161.900 202.674,160.800 201.162 C 159.700 199.650,158.800 198.291,158.800 198.144 C 158.800 197.996,158.350 197.286,157.800 196.564 C 157.250 195.843,156.800 195.076,156.800 194.860 C 156.800 194.644,156.665 194.407,156.500 194.333 C 156.160 194.182,152.000 188.131,152.000 187.788 C 152.000 187.666,151.280 186.591,150.400 185.400 C 149.520 184.209,148.800 183.073,148.800 182.875 C 148.800 182.678,148.350 182.031,147.800 181.438 C 147.250 180.844,146.800 180.180,146.800 179.962 C 146.800 179.744,146.350 179.080,145.800 178.487 C 145.250 177.893,144.800 177.243,144.800 177.042 C 144.800 176.840,144.350 176.086,143.800 175.364 C 143.250 174.643,142.800 173.944,142.800 173.809 C 142.800 173.675,142.350 173.080,141.800 172.487 C 141.250 171.893,140.800 171.243,140.800 171.042 C 140.800 170.840,140.350 170.086,139.800 169.364 C 139.250 168.643,138.800 167.876,138.800 167.660 C 138.800 167.444,138.665 167.207,138.500 167.133 C 138.135 166.971,134.581 161.763,132.374 158.157 C 128.854 152.406,129.747 152.792,120.100 152.847 C 115.535 152.873,111.260 153.010,110.600 153.151 M254.365 189.443 C 255.594 189.797,256.913 190.247,257.295 190.443 C 257.677 190.640,258.180 190.800,258.414 190.800 C 261.192 190.800,267.742 197.893,269.494 202.800 C 271.606 208.712,271.683 218.449,269.649 222.280 C 269.439 222.676,268.967 223.630,268.601 224.400 C 267.174 227.397,266.640 228.159,264.439 230.342 C 262.274 232.489,258.257 234.866,256.000 235.336 C 255.450 235.451,254.190 235.754,253.200 236.010 C 251.157 236.538,245.722 236.282,245.067 235.627 C 244.832 235.392,244.254 235.200,243.781 235.200 C 241.279 235.200,232.802 228.792,232.800 226.900 C 232.800 226.625,232.661 226.400,232.491 226.400 C 231.989 226.400,230.683 223.531,229.462 219.746 C 228.581 217.014,228.517 207.027,229.370 205.332 C 229.683 204.710,230.170 203.411,230.452 202.446 C 231.623 198.433,237.041 192.426,240.800 190.974 C 241.130 190.846,241.713 190.575,242.095 190.371 C 242.477 190.167,243.197 189.994,243.695 189.986 C 244.193 189.978,245.050 189.714,245.600 189.400 C 246.960 188.622,251.592 188.645,254.365 189.443 " stroke="none" fill="#f9f9f9" fill-rule="evenodd"></path><path id="path1" d="M0.000 200.000 L 0.000 400.000 200.000 400.000 L 400.000 400.000 400.000 200.000 L 400.000 0.000 200.000 0.000 L 0.000 0.000 0.000 200.000 M333.269 66.663 C 334.352 67.643,334.421 332.072,333.338 333.269 C 332.357 334.352,67.929 334.421,66.731 333.338 C 65.650 332.359,65.578 67.929,66.660 66.734 C 67.638 65.653,332.075 65.582,333.269 66.663 M81.249 81.340 C 80.615 82.105,80.615 317.895,81.249 318.660 C 81.912 319.457,318.088 319.457,318.751 318.660 C 319.385 317.895,319.385 82.105,318.751 81.340 C 318.088 80.543,81.912 80.543,81.249 81.340 M291.028 146.445 C 291.194 146.715,291.270 192.487,291.202 251.100 L 291.200 252.400 281.233 252.400 C 268.782 252.400,270.000 252.974,270.000 247.108 L 270.000 242.301 267.500 244.911 C 264.990 247.531,260.976 250.400,259.819 250.400 C 259.479 250.400,259.200 250.580,259.200 250.800 C 259.200 251.020,258.874 251.200,258.476 251.200 C 258.079 251.200,257.404 251.464,256.976 251.787 C 256.549 252.110,255.750 252.383,255.200 252.393 C 254.650 252.403,253.390 252.696,252.400 253.044 C 249.851 253.941,239.727 253.944,237.200 253.049 C 236.210 252.698,234.993 252.409,234.495 252.406 C 233.997 252.403,233.277 252.240,232.895 252.044 C 232.513 251.849,231.210 251.215,230.000 250.637 C 224.400 247.961,219.515 244.039,216.776 240.021 C 216.019 238.910,215.265 238.001,215.100 238.001 C 214.935 238.000,214.800 237.640,214.800 237.200 C 214.800 236.760,214.633 236.400,214.429 236.400 C 214.016 236.400,212.800 234.151,212.800 233.388 C 212.800 233.118,212.530 232.674,212.200 232.400 C 211.870 232.126,211.600 231.474,211.600 230.951 C 211.600 230.428,211.463 230.000,211.295 230.000 C 211.027 230.000,210.389 227.931,209.199 223.200 C 207.896 218.019,207.926 206.597,209.257 201.400 C 210.064 198.247,210.970 195.393,211.282 195.020 C 211.457 194.811,211.600 194.237,211.600 193.744 C 211.600 193.251,211.780 192.736,212.001 192.599 C 212.222 192.463,212.761 191.563,213.200 190.600 C 213.639 189.637,214.178 188.737,214.399 188.601 C 214.620 188.464,214.800 188.018,214.800 187.610 C 214.800 187.201,214.936 186.807,215.103 186.733 C 215.270 186.660,216.028 185.790,216.789 184.800 C 218.374 182.737,220.467 180.607,222.202 179.292 C 224.587 177.484,228.819 174.800,229.304 174.787 C 229.577 174.780,230.149 174.510,230.576 174.187 C 231.004 173.864,231.758 173.600,232.253 173.600 C 232.748 173.600,233.264 173.420,233.400 173.200 C 233.536 172.980,234.312 172.794,235.124 172.786 C 235.936 172.778,237.050 172.514,237.600 172.200 C 239.060 171.365,250.144 171.367,251.746 172.202 C 252.376 172.531,253.490 172.800,254.222 172.800 C 254.954 172.800,255.664 172.980,255.800 173.200 C 255.936 173.420,256.317 173.600,256.646 173.600 C 257.235 173.600,260.434 175.103,263.213 176.684 C 263.990 177.127,265.700 178.501,267.013 179.739 C 268.326 180.976,269.535 181.991,269.700 181.994 C 269.865 181.997,270.000 174.229,270.000 164.731 C 270.000 149.064,270.063 147.394,270.678 146.714 C 271.414 145.900,290.535 145.647,291.028 146.445 M129.158 152.239 C 129.752 152.590,130.486 153.445,130.787 154.139 C 131.089 154.832,131.462 155.490,131.617 155.600 C 131.771 155.710,133.221 157.780,134.840 160.200 C 136.458 162.620,137.886 164.690,138.012 164.800 C 138.138 164.910,138.556 165.675,138.940 166.500 C 139.323 167.325,139.809 168.000,140.019 168.000 C 140.228 168.000,140.400 168.208,140.400 168.462 C 140.400 168.716,140.850 169.514,141.400 170.236 C 141.950 170.957,142.400 171.739,142.400 171.973 C 142.400 172.208,142.580 172.400,142.800 172.400 C 143.020 172.400,143.200 172.676,143.200 173.013 C 143.200 173.349,143.470 173.729,143.800 173.855 C 144.130 173.982,144.400 174.274,144.400 174.505 C 144.400 174.736,144.850 175.514,145.400 176.236 C 145.950 176.957,146.400 177.677,146.400 177.836 C 146.400 177.994,146.850 178.714,147.400 179.436 C 147.950 180.157,148.400 180.856,148.400 180.990 C 148.400 181.124,148.775 181.631,149.234 182.117 C 149.693 182.603,150.350 183.540,150.696 184.200 C 151.041 184.860,152.016 186.337,152.862 187.483 C 153.708 188.629,154.400 189.692,154.400 189.845 C 154.400 189.999,154.850 190.714,155.400 191.436 C 155.950 192.157,156.400 192.939,156.400 193.173 C 156.400 193.408,156.552 193.600,156.737 193.600 C 156.922 193.600,157.417 194.270,157.837 195.090 C 158.257 195.909,159.005 197.032,159.500 197.586 C 159.995 198.139,160.400 198.819,160.400 199.096 C 160.400 199.373,160.552 199.600,160.737 199.600 C 160.922 199.600,161.417 200.275,161.837 201.100 C 162.257 201.925,162.698 202.690,162.818 202.800 C 163.314 203.256,166.400 208.119,166.400 208.446 C 166.400 208.641,166.552 208.800,166.737 208.800 C 166.922 208.800,167.413 209.430,167.828 210.200 C 168.243 210.970,168.700 211.600,168.844 211.600 C 168.989 211.600,169.212 211.915,169.342 212.300 C 169.596 213.056,170.449 214.476,170.844 214.800 C 170.978 214.910,171.650 215.900,172.336 217.000 L 173.585 219.000 173.599 186.000 C 173.607 165.931,173.761 152.765,173.991 152.400 C 174.376 151.790,192.357 151.302,193.816 151.861 C 194.324 152.056,194.400 158.623,194.400 202.243 L 194.400 252.400 184.203 252.400 L 174.005 252.400 172.810 250.700 C 172.152 249.765,171.458 248.812,171.268 248.582 C 171.077 248.352,170.849 247.992,170.761 247.782 C 170.472 247.096,167.418 242.620,166.685 241.808 C 166.291 241.372,165.866 240.607,165.741 240.108 C 165.616 239.609,165.353 239.200,165.157 239.200 C 164.960 239.200,164.800 238.945,164.800 238.633 C 164.800 238.322,164.665 238.007,164.500 237.933 C 164.083 237.748,161.600 234.056,161.600 233.622 C 161.600 233.426,161.447 233.207,161.261 233.133 C 161.074 233.060,160.135 231.740,159.174 230.200 C 158.213 228.660,157.285 227.340,157.113 227.267 C 156.941 227.193,156.800 226.982,156.800 226.796 C 156.800 226.371,153.505 221.447,153.100 221.267 C 152.935 221.193,152.800 220.989,152.800 220.812 C 152.800 220.383,149.511 215.436,149.113 215.267 C 148.941 215.193,148.800 214.888,148.800 214.587 C 148.800 214.287,148.350 213.556,147.800 212.962 C 147.250 212.369,146.800 211.727,146.800 211.535 C 146.800 211.344,145.900 209.950,144.800 208.438 C 143.700 206.926,142.800 205.566,142.800 205.417 C 142.800 205.268,142.350 204.557,141.800 203.836 C 141.250 203.114,140.800 202.336,140.800 202.105 C 140.800 201.874,140.530 201.582,140.200 201.455 C 139.870 201.329,139.600 200.949,139.600 200.613 C 139.600 200.276,139.420 200.000,139.200 200.000 C 138.980 200.000,138.800 199.833,138.800 199.629 C 138.800 199.181,135.524 194.255,135.100 194.067 C 134.935 193.993,134.800 193.756,134.800 193.540 C 134.800 193.324,134.350 192.557,133.800 191.836 C 133.250 191.114,132.800 190.394,132.800 190.236 C 132.800 190.077,132.350 189.357,131.800 188.636 C 131.250 187.914,130.800 187.136,130.800 186.905 C 130.800 186.674,130.530 186.382,130.200 186.255 C 129.670 186.052,129.600 189.807,129.600 218.580 C 129.600 236.485,129.491 251.419,129.357 251.767 C 129.145 252.321,127.850 252.400,118.957 252.400 L 108.800 252.400 108.800 202.222 L 108.800 152.044 110.700 151.894 C 116.844 151.410,128.110 151.620,129.158 152.239 M246.200 190.252 C 242.538 190.640,234.400 195.542,234.400 197.361 C 234.400 197.636,233.950 198.283,233.400 198.800 C 232.850 199.317,232.400 199.883,232.400 200.059 C 232.400 200.234,231.969 201.328,231.441 202.489 C 230.004 205.652,229.493 208.923,229.729 213.429 C 230.023 219.026,230.182 219.768,231.919 223.600 C 232.686 225.294,235.455 229.170,236.490 230.000 C 236.901 230.330,237.724 231.014,238.319 231.520 C 241.546 234.264,250.344 236.529,252.935 235.281 C 253.411 235.052,254.358 234.770,255.040 234.654 C 260.247 233.771,268.800 225.658,268.800 221.603 C 268.800 221.161,268.980 220.800,269.200 220.800 C 269.420 220.800,269.600 220.113,269.600 219.273 C 269.600 218.434,269.797 216.682,270.038 215.380 C 270.493 212.918,269.942 206.183,269.165 204.705 C 268.964 204.323,268.800 203.786,268.800 203.511 C 268.800 200.825,262.982 194.149,259.000 192.264 C 257.680 191.640,256.294 190.969,255.921 190.774 C 255.128 190.360,248.530 190.006,246.200 190.252 " stroke="none" fill="#040404" fill-rule="evenodd"></path><path id="path2" d="M134.900 66.700 C 170.705 66.756,229.295 66.756,265.100 66.700 C 300.905 66.644,271.610 66.598,200.000 66.598 C 128.390 66.598,99.095 66.644,134.900 66.700 M66.598 200.000 C 66.598 273.150,66.644 303.075,66.700 266.500 C 66.756 229.925,66.756 170.075,66.700 133.500 C 66.644 96.925,66.598 126.850,66.598 200.000 M333.398 200.000 C 333.398 273.150,333.444 303.075,333.500 266.500 C 333.556 229.925,333.556 170.075,333.500 133.500 C 333.444 96.925,333.398 126.850,333.398 200.000 M275.722 146.699 C 278.099 146.770,281.879 146.769,284.122 146.698 C 286.365 146.627,284.420 146.569,279.800 146.569 C 275.180 146.570,273.345 146.628,275.722 146.699 M270.590 147.300 C 270.277 148.146,270.181 183.200,270.492 183.200 C 270.653 183.200,270.833 175.010,270.892 165.000 C 270.951 154.990,270.949 146.800,270.887 146.800 C 270.826 146.800,270.692 147.025,270.590 147.300 M112.400 152.280 C 120.804 152.564,129.109 152.574,128.939 152.300 C 128.837 152.135,124.308 152.037,118.876 152.082 C 113.444 152.127,110.530 152.216,112.400 152.280 M174.261 152.300 C 174.159 152.465,177.073 152.554,180.737 152.497 C 193.039 152.308,194.271 152.165,184.324 152.082 C 178.892 152.037,174.363 152.135,174.261 152.300 M194.131 155.400 C 194.133 156.940,194.205 157.521,194.292 156.691 C 194.379 155.861,194.377 154.601,194.289 153.891 C 194.200 153.181,194.129 153.860,194.131 155.400 M194.193 203.400 C 194.193 227.820,194.241 237.751,194.300 225.469 C 194.359 213.187,194.359 193.207,194.300 181.069 C 194.241 168.931,194.193 178.980,194.193 203.400 M242.117 171.897 C 243.611 171.974,245.951 171.974,247.317 171.896 C 248.682 171.818,247.460 171.755,244.600 171.755 C 241.740 171.756,240.622 171.820,242.117 171.897 M160.000 199.200 C 160.470 199.860,160.944 200.400,161.054 200.400 C 161.164 200.400,160.870 199.860,160.400 199.200 C 159.930 198.540,159.456 198.000,159.346 198.000 C 159.236 198.000,159.530 198.540,160.000 199.200 M166.000 208.400 C 166.470 209.060,166.944 209.600,167.054 209.600 C 167.164 209.600,166.870 209.060,166.400 208.400 C 165.930 207.740,165.456 207.200,165.346 207.200 C 165.236 207.200,165.530 207.740,166.000 208.400 M208.524 212.200 C 208.526 213.520,208.601 214.012,208.690 213.293 C 208.779 212.574,208.777 211.494,208.686 210.893 C 208.595 210.292,208.522 210.880,208.524 212.200 M168.812 212.207 C 168.798 212.674,170.721 215.600,171.042 215.600 C 171.159 215.600,170.910 215.105,170.488 214.500 C 170.067 213.895,169.520 213.040,169.273 212.600 C 169.026 212.160,168.819 211.983,168.812 212.207 M270.446 215.267 C 270.421 215.634,270.296 216.264,270.170 216.667 C 269.952 217.362,269.963 217.363,270.397 216.687 C 270.648 216.296,270.773 215.666,270.673 215.287 C 270.511 214.668,270.488 214.666,270.446 215.267 M229.206 216.633 C 229.209 217.055,229.395 217.670,229.618 218.000 C 229.915 218.438,229.952 218.276,229.756 217.400 C 229.427 215.929,229.198 215.610,229.206 216.633 M269.515 220.210 C 269.392 220.645,269.169 221.360,269.020 221.800 C 268.871 222.240,269.042 222.094,269.400 221.476 C 269.758 220.858,269.981 220.142,269.895 219.886 C 269.810 219.630,269.639 219.776,269.515 220.210 M208.806 220.633 C 208.809 221.055,208.995 221.670,209.218 222.000 C 209.515 222.438,209.552 222.276,209.356 221.400 C 209.027 219.929,208.798 219.610,208.806 220.633 M248.691 235.889 C 249.401 235.977,250.661 235.979,251.491 235.892 C 252.321 235.805,251.740 235.733,250.200 235.731 C 248.660 235.729,247.981 235.800,248.691 235.889 M269.800 242.000 C 269.132 242.287,269.114 242.348,269.688 242.372 C 270.292 242.397,270.391 242.995,270.501 247.300 L 270.627 252.200 270.714 246.900 C 270.761 243.985,270.755 241.613,270.700 241.628 C 270.645 241.644,270.240 241.811,269.800 242.000 M220.800 244.200 C 221.546 244.970,222.247 245.600,222.357 245.600 C 222.467 245.600,221.946 244.970,221.200 244.200 C 220.454 243.430,219.753 242.800,219.643 242.800 C 219.533 242.800,220.054 243.430,220.800 244.200 M169.600 245.600 C 170.070 246.260,170.544 246.800,170.654 246.800 C 170.764 246.800,170.470 246.260,170.000 245.600 C 169.530 244.940,169.056 244.400,168.946 244.400 C 168.836 244.400,169.130 244.940,169.600 245.600 M194.046 250.893 L 194.000 251.986 184.100 252.100 L 174.200 252.215 184.113 252.307 C 194.642 252.406,194.763 252.385,194.280 250.523 C 194.157 250.047,194.077 250.173,194.046 250.893 M109.147 252.107 C 109.316 252.276,113.852 252.366,119.227 252.307 L 129.000 252.199 118.919 251.999 C 113.375 251.890,108.977 251.938,109.147 252.107 M281.000 252.000 L 271.000 252.221 280.876 252.311 C 287.128 252.367,290.844 252.253,291.000 252.000 C 291.136 251.780,291.192 251.640,291.124 251.689 C 291.056 251.739,286.500 251.878,281.000 252.000 M243.712 253.495 C 244.764 253.577,246.384 253.576,247.312 253.492 C 248.240 253.408,247.380 253.341,245.400 253.342 C 243.420 253.343,242.660 253.412,243.712 253.495 M133.500 333.500 C 170.075 333.556,229.925 333.556,266.500 333.500 C 303.075 333.444,273.150 333.398,200.000 333.398 C 126.850 333.398,96.925 333.444,133.500 333.500 " stroke="none" fill="#3c3c3c" fill-rule="evenodd"></path><path id="path3" d="M66.800 200.000 L 66.800 333.200 200.000 333.200 L 333.200 333.200 333.200 200.000 L 333.200 66.800 200.000 66.800 L 66.800 66.800 66.800 200.000 M332.800 200.000 L 332.800 332.800 200.000 332.800 L 67.200 332.800 67.200 200.000 L 67.200 67.200 200.000 67.200 L 332.800 67.200 332.800 200.000 M80.267 80.267 C 80.120 80.413,80.000 134.413,80.000 200.267 L 80.000 320.000 200.000 320.000 L 320.000 320.000 320.000 200.000 L 320.000 80.000 200.267 80.000 C 134.413 80.000,80.413 80.120,80.267 80.267 M319.400 200.000 L 319.400 319.400 200.000 319.400 L 80.600 319.400 80.498 200.400 C 80.441 134.950,80.481 81.175,80.585 80.899 C 80.737 80.500,104.848 80.419,200.088 80.499 L 319.400 80.600 319.400 200.000 M271.073 147.060 C 270.923 147.210,270.800 155.403,270.800 165.267 C 270.800 175.130,270.648 183.200,270.462 183.200 C 270.276 183.200,269.144 182.255,267.945 181.100 C 263.561 176.875,255.937 172.800,252.416 172.800 C 251.773 172.800,251.136 172.620,251.000 172.400 C 250.689 171.897,238.710 171.859,238.180 172.359 C 237.971 172.556,237.080 172.803,236.200 172.906 C 232.840 173.302,226.592 176.236,223.226 179.000 C 219.796 181.816,215.033 187.365,213.956 189.800 C 213.761 190.240,213.442 190.870,213.247 191.200 C 213.052 191.530,212.675 192.340,212.409 193.000 C 212.144 193.660,211.673 194.710,211.363 195.332 C 211.053 195.955,210.800 196.870,210.800 197.366 C 210.800 197.861,210.671 198.396,210.513 198.554 C 208.339 200.728,208.344 224.078,210.520 226.253 C 210.674 226.407,210.806 226.998,210.813 227.567 C 210.820 228.135,211.090 228.949,211.413 229.376 C 211.736 229.804,212.000 230.569,212.000 231.076 C 212.000 231.584,212.180 232.000,212.400 232.000 C 212.620 232.000,212.800 232.338,212.800 232.751 C 212.800 233.164,213.070 233.726,213.400 234.000 C 213.730 234.274,214.000 234.821,214.000 235.216 C 214.000 235.610,214.138 235.993,214.307 236.067 C 214.476 236.140,215.194 237.113,215.903 238.228 C 219.029 243.149,229.288 251.200,232.433 251.200 C 232.829 251.200,233.264 251.380,233.400 251.600 C 233.536 251.820,233.941 252.000,234.300 252.000 C 235.216 252.000,233.668 250.831,232.729 250.813 C 231.952 250.798,226.941 248.252,225.984 247.386 C 225.628 247.064,225.218 246.800,225.072 246.800 C 224.290 246.800,218.319 240.842,216.853 238.600 C 216.278 237.720,215.687 236.909,215.540 236.799 C 215.025 236.411,212.464 231.202,212.202 230.007 C 212.056 229.343,211.790 228.800,211.610 228.800 C 211.431 228.800,211.187 228.125,211.068 227.300 C 210.775 225.262,210.019 221.668,209.569 220.172 C 209.089 218.575,209.089 206.225,209.569 204.628 C 209.773 203.953,210.138 202.410,210.382 201.200 C 210.626 199.990,210.927 198.550,211.050 198.000 C 211.285 196.944,212.180 194.672,212.819 193.505 C 213.029 193.123,213.200 192.599,213.200 192.340 C 213.200 191.349,218.495 184.049,220.891 181.735 C 224.227 178.515,230.124 174.961,233.456 174.164 C 234.085 174.013,234.780 173.755,235.000 173.590 C 236.229 172.668,248.670 172.308,252.000 173.097 C 258.448 174.625,264.138 177.773,268.383 182.158 C 271.357 185.230,271.200 186.154,271.200 165.593 L 271.200 147.186 280.900 147.293 L 290.600 147.400 290.701 199.470 C 290.798 248.808,290.766 251.552,290.101 251.747 C 289.554 251.909,289.575 251.936,290.200 251.872 C 290.996 251.790,291.000 251.495,291.000 199.395 L 291.000 147.000 281.173 146.893 C 275.769 146.834,271.224 146.909,271.073 147.060 M108.998 153.300 C 108.267 156.327,109.016 251.792,109.772 251.938 C 110.496 252.077,110.502 252.044,109.869 251.412 C 108.986 250.528,108.825 153.890,109.706 153.320 C 109.978 153.144,114.280 152.940,119.268 152.868 C 129.819 152.714,128.787 152.297,132.374 158.157 C 134.581 161.763,138.135 166.971,138.500 167.133 C 138.665 167.207,138.800 167.444,138.800 167.660 C 138.800 167.876,139.250 168.643,139.800 169.364 C 140.350 170.086,140.800 170.840,140.800 171.042 C 140.800 171.243,141.250 171.893,141.800 172.487 C 142.350 173.080,142.800 173.675,142.800 173.809 C 142.800 173.944,143.250 174.643,143.800 175.364 C 144.350 176.086,144.800 176.840,144.800 177.042 C 144.800 177.243,145.250 177.893,145.800 178.487 C 146.350 179.080,146.800 179.744,146.800 179.962 C 146.800 180.180,147.250 180.844,147.800 181.438 C 148.350 182.031,148.800 182.678,148.800 182.875 C 148.800 183.073,149.520 184.209,150.400 185.400 C 151.280 186.591,152.000 187.666,152.000 187.788 C 152.000 188.131,156.160 194.182,156.500 194.333 C 156.665 194.407,156.800 194.644,156.800 194.860 C 156.800 195.076,157.250 195.843,157.800 196.564 C 158.350 197.286,158.800 197.993,158.800 198.137 C 158.800 198.567,161.685 202.448,161.869 202.265 C 161.962 202.172,160.613 199.959,158.872 197.348 C 149.778 183.708,141.200 170.696,141.200 170.541 C 141.200 170.445,141.011 170.149,140.779 169.883 C 139.921 168.899,132.000 156.689,132.000 156.351 C 132.000 156.158,131.853 156.000,131.674 156.000 C 131.494 156.000,130.953 155.299,130.472 154.442 C 129.293 152.344,129.611 152.400,118.775 152.400 L 109.215 152.400 108.998 153.300 M174.267 152.667 C 174.120 152.813,174.000 167.933,174.000 186.267 C 174.000 204.600,173.865 219.593,173.700 219.583 C 173.382 219.566,166.495 209.254,163.600 204.462 C 163.050 203.551,162.476 202.805,162.324 202.803 C 161.983 202.799,162.700 204.193,163.900 205.867 C 164.395 206.558,164.800 207.306,164.800 207.528 C 164.800 207.751,164.935 207.993,165.100 208.067 C 165.505 208.247,168.800 213.171,168.800 213.596 C 168.800 213.782,168.935 213.993,169.100 214.067 C 169.465 214.229,171.581 217.380,172.346 218.900 C 172.689 219.581,173.224 220.000,173.750 220.000 L 174.600 220.000 174.497 186.791 L 174.393 153.583 175.423 153.191 C 176.815 152.662,192.232 152.682,193.226 153.214 C 193.835 153.540,194.000 153.497,194.000 153.014 C 194.000 152.371,174.899 152.035,174.267 152.667 M128.988 184.500 C 128.669 185.353,128.582 252.000,128.900 252.000 C 129.065 252.000,129.200 236.880,129.200 218.400 C 129.200 196.267,129.337 184.800,129.600 184.800 C 129.820 184.800,130.000 185.055,130.000 185.367 C 130.000 185.678,130.141 185.993,130.313 186.067 C 130.711 186.236,134.000 191.183,134.000 191.612 C 134.000 191.789,134.135 191.993,134.300 192.067 C 134.724 192.255,138.000 197.181,138.000 197.629 C 138.000 197.833,138.180 198.000,138.400 198.000 C 138.620 198.000,138.800 198.270,138.800 198.600 C 138.800 198.930,138.935 199.203,139.100 199.206 C 139.265 199.209,140.030 200.287,140.800 201.600 C 141.570 202.913,142.335 203.991,142.500 203.994 C 142.665 203.997,142.800 204.145,142.800 204.322 C 142.800 204.499,143.967 206.434,145.394 208.622 C 148.363 213.174,148.153 212.858,150.798 216.732 C 151.899 218.345,152.800 219.747,152.800 219.849 C 152.800 219.951,153.520 221.009,154.400 222.200 C 155.280 223.391,156.000 224.554,156.000 224.783 C 156.000 225.012,156.180 225.200,156.400 225.200 C 156.620 225.200,156.800 225.365,156.800 225.566 C 156.800 225.767,159.950 230.647,163.800 236.411 C 167.650 242.175,170.800 246.973,170.800 247.072 C 170.800 247.172,171.250 247.843,171.800 248.564 C 172.350 249.286,172.800 250.044,172.800 250.249 C 172.800 250.837,174.337 252.001,175.105 251.994 C 175.621 251.990,175.551 251.861,174.831 251.494 C 174.298 251.222,173.578 250.522,173.231 249.937 C 171.696 247.351,167.806 241.328,167.200 240.600 C 166.834 240.160,165.761 238.552,164.815 237.027 C 163.870 235.502,162.934 234.062,162.735 233.827 C 162.537 233.592,159.598 229.170,156.205 224.000 C 152.811 218.830,149.871 214.408,149.670 214.173 C 149.469 213.938,148.522 212.498,147.565 210.973 C 146.609 209.448,145.685 208.140,145.513 208.067 C 145.341 207.993,145.200 207.782,145.200 207.596 C 145.200 207.171,141.905 202.247,141.500 202.067 C 141.335 201.993,141.200 201.760,141.200 201.547 C 141.200 201.220,138.204 196.604,137.600 196.000 C 137.490 195.890,137.220 195.501,137.000 195.135 C 135.358 192.407,131.692 186.859,131.115 186.229 C 130.727 185.806,130.305 185.131,130.178 184.729 C 129.911 183.891,129.263 183.766,128.988 184.500 M245.600 189.400 C 244.404 190.084,244.684 190.113,247.705 189.618 C 257.687 187.983,268.412 196.351,270.239 207.200 C 271.115 212.402,270.023 222.377,268.400 224.000 C 268.290 224.110,267.842 224.920,267.405 225.800 C 265.686 229.262,258.657 234.800,255.982 234.800 C 255.602 234.800,254.686 235.079,253.946 235.419 C 252.517 236.076,252.589 236.074,255.900 235.364 C 258.272 234.855,262.243 232.520,264.439 230.342 C 266.640 228.159,267.174 227.397,268.601 224.400 C 268.967 223.630,269.439 222.676,269.649 222.280 C 271.683 218.449,271.606 208.712,269.494 202.800 C 267.742 197.893,261.192 190.800,258.414 190.800 C 258.180 190.800,257.677 190.640,257.295 190.443 C 254.265 188.888,247.544 188.289,245.600 189.400 M242.000 190.395 C 241.670 190.586,241.130 190.846,240.800 190.974 C 236.514 192.628,229.871 200.632,230.032 203.949 C 230.058 204.495,230.100 204.503,230.290 204.000 C 232.661 197.736,236.289 193.692,241.678 191.307 C 243.571 190.469,244.248 190.019,243.600 190.030 C 243.050 190.039,242.330 190.203,242.000 190.395 M229.285 205.613 C 228.510 206.854,228.640 217.196,229.462 219.746 C 230.683 223.531,231.989 226.400,232.491 226.400 C 232.661 226.400,232.800 226.625,232.800 226.900 C 232.802 228.792,241.279 235.200,243.781 235.200 C 244.254 235.200,244.839 235.399,245.082 235.642 C 245.325 235.885,247.116 236.144,249.062 236.217 L 252.600 236.351 249.574 236.029 C 247.910 235.852,246.167 235.504,245.701 235.254 C 245.234 235.004,244.478 234.800,244.021 234.800 C 243.144 234.800,242.620 234.552,239.400 232.614 C 235.279 230.133,231.982 225.922,230.620 221.400 C 230.222 220.080,229.740 218.587,229.548 218.081 C 229.045 216.755,229.120 207.950,229.646 206.439 C 230.169 204.940,229.978 204.503,229.285 205.613 M267.593 243.611 C 265.947 245.363,264.453 246.798,264.273 246.799 C 264.094 246.799,263.374 247.227,262.673 247.749 C 260.935 249.046,257.690 250.800,257.032 250.800 C 256.734 250.800,255.976 251.069,255.346 251.398 C 254.567 251.804,254.426 251.996,254.905 251.998 C 255.293 251.999,255.923 251.838,256.305 251.641 C 256.687 251.444,257.810 250.955,258.800 250.556 C 260.523 249.861,263.305 248.248,264.244 247.401 C 264.488 247.180,265.298 246.451,266.044 245.779 C 266.790 245.108,267.854 244.018,268.409 243.357 C 270.591 240.758,270.800 241.060,270.800 246.813 C 270.800 249.666,270.935 252.000,271.100 252.001 C 271.479 252.002,271.257 241.102,270.871 240.713 C 270.714 240.554,269.238 241.859,267.593 243.611 M194.093 248.800 C 194.093 249.570,194.175 249.885,194.276 249.500 C 194.376 249.115,194.376 248.485,194.276 248.100 C 194.175 247.715,194.093 248.030,194.093 248.800 M237.000 252.612 C 239.297 253.439,250.397 253.417,252.600 252.580 C 254.188 251.977,254.190 251.975,252.800 252.240 C 250.254 252.727,238.709 252.869,238.260 252.420 C 238.029 252.189,237.291 252.008,236.620 252.018 C 235.427 252.035,235.435 252.048,237.000 252.612 " stroke="none" fill="#747474" fill-rule="evenodd"></path><path id="path4" d="M66.660 66.734 C 65.578 67.929,65.650 332.359,66.731 333.338 C 67.929 334.421,332.357 334.352,333.338 333.269 C 334.421 332.072,334.352 67.643,333.269 66.663 C 332.075 65.582,67.638 65.653,66.660 66.734 M333.061 66.851 C 333.813 67.475,333.872 332.368,333.120 333.120 C 332.421 333.819,67.579 333.819,66.880 333.120 C 66.182 332.422,66.180 67.580,66.878 66.882 C 67.546 66.214,332.256 66.183,333.061 66.851 M80.814 81.174 C 80.175 82.368,80.240 318.480,80.880 319.120 C 81.579 319.819,318.421 319.819,319.120 319.120 C 319.819 318.421,319.819 81.579,319.120 80.880 C 318.162 79.922,81.328 80.214,80.814 81.174 M318.751 81.340 C 319.385 82.105,319.385 317.895,318.751 318.660 C 318.088 319.457,81.912 319.457,81.249 318.660 C 80.615 317.895,80.615 82.105,81.249 81.340 C 81.912 80.543,318.088 80.543,318.751 81.340 M270.678 146.714 C 270.063 147.394,270.000 149.064,270.000 164.731 C 270.000 176.619,269.868 182.000,269.576 182.000 C 269.343 182.000,269.264 182.180,269.400 182.400 C 270.267 183.802,270.400 181.481,270.400 165.014 C 270.400 147.456,270.411 147.222,271.225 146.786 C 271.781 146.489,275.160 146.386,281.588 146.472 C 286.833 146.543,291.054 146.486,290.967 146.347 C 290.515 145.616,271.358 145.963,270.678 146.714 M291.293 150.000 C 291.293 150.770,291.375 151.085,291.476 150.700 C 291.576 150.315,291.576 149.685,291.476 149.300 C 291.375 148.915,291.293 149.230,291.293 150.000 M116.300 151.898 C 118.555 151.970,122.245 151.970,124.500 151.898 C 126.755 151.827,124.910 151.769,120.400 151.769 C 115.890 151.769,114.045 151.827,116.300 151.898 M180.100 151.898 C 182.245 151.970,185.755 151.970,187.900 151.898 C 190.045 151.826,188.290 151.767,184.000 151.767 C 179.710 151.767,177.955 151.826,180.100 151.898 M173.600 185.880 C 173.490 204.184,173.536 219.024,173.702 218.858 C 173.869 218.691,173.959 203.715,173.902 185.578 L 173.800 152.600 173.600 185.880 M136.295 162.981 C 136.887 163.961,137.449 164.684,137.544 164.589 C 137.731 164.402,135.709 161.200,135.404 161.200 C 135.303 161.200,135.704 162.001,136.295 162.981 M227.824 175.413 C 227.396 175.736,227.227 176.000,227.447 176.000 C 227.667 176.000,228.196 175.736,228.624 175.413 C 229.051 175.090,229.220 174.825,229.000 174.825 C 228.780 174.825,228.251 175.090,227.824 175.413 M224.200 177.835 L 223.000 178.866 224.300 178.006 C 225.015 177.533,225.600 177.068,225.600 176.973 C 225.600 176.673,225.431 176.778,224.200 177.835 M149.855 183.400 C 150.780 184.979,150.800 185.003,150.800 184.511 C 150.800 184.279,150.429 183.664,149.976 183.144 L 149.153 182.200 149.855 183.400 M217.432 183.913 L 216.664 185.000 217.732 184.030 C 218.854 183.011,218.993 182.792,218.500 182.813 C 218.335 182.819,217.854 183.314,217.432 183.913 M129.298 218.500 L 129.395 251.800 129.500 218.878 C 129.583 192.751,129.707 186.017,130.102 186.255 C 130.436 186.455,130.419 186.331,130.051 185.877 C 129.749 185.505,129.434 185.200,129.351 185.200 C 129.268 185.200,129.244 200.185,129.298 218.500 M215.643 186.237 C 215.147 186.807,214.824 187.358,214.927 187.460 C 215.029 187.562,215.505 187.096,215.984 186.423 C 217.048 184.929,216.866 184.830,215.643 186.237 M248.905 189.887 C 249.514 189.979,250.414 189.977,250.905 189.882 C 251.397 189.787,250.900 189.711,249.800 189.714 C 248.700 189.717,248.297 189.795,248.905 189.887 M133.600 191.600 C 134.070 192.260,134.544 192.800,134.654 192.800 C 134.764 192.800,134.470 192.260,134.000 191.600 C 133.530 190.940,133.056 190.400,132.946 190.400 C 132.836 190.400,133.130 190.940,133.600 191.600 M235.375 195.700 L 234.200 197.000 235.500 195.825 C 236.215 195.179,236.800 194.594,236.800 194.525 C 236.800 194.216,236.470 194.488,235.375 195.700 M264.000 195.800 C 264.746 196.570,265.447 197.200,265.557 197.200 C 265.667 197.200,265.146 196.570,264.400 195.800 C 263.654 195.030,262.953 194.400,262.843 194.400 C 262.733 194.400,263.254 195.030,264.000 195.800 M143.600 206.800 C 144.070 207.460,144.544 208.000,144.654 208.000 C 144.764 208.000,144.470 207.460,144.000 206.800 C 143.530 206.140,143.056 205.600,142.946 205.600 C 142.836 205.600,143.130 206.140,143.600 206.800 M269.701 207.000 C 269.705 207.880,269.787 208.193,269.883 207.695 C 269.979 207.198,269.975 206.478,269.875 206.095 C 269.775 205.713,269.696 206.120,269.701 207.000 M208.238 210.100 C 208.108 212.135,208.143 214.880,208.315 216.200 C 208.559 218.065,208.630 217.240,208.635 212.500 C 208.642 205.440,208.566 204.976,208.238 210.100 M229.346 212.200 C 229.347 214.400,229.414 215.249,229.495 214.087 C 229.576 212.924,229.576 211.124,229.493 210.087 C 229.411 209.049,229.345 210.000,229.346 212.200 M270.184 212.562 C 270.183 214.741,270.303 216.091,270.451 215.562 C 270.789 214.353,270.787 211.377,270.446 209.800 C 270.303 209.139,270.186 210.381,270.184 212.562 M269.701 218.200 C 269.705 219.080,269.787 219.393,269.883 218.895 C 269.979 218.398,269.975 217.678,269.875 217.295 C 269.775 216.913,269.696 217.320,269.701 218.200 M208.812 222.000 C 208.812 222.330,208.987 222.870,209.200 223.200 C 209.545 223.733,209.588 223.733,209.588 223.200 C 209.588 222.870,209.413 222.330,209.200 222.000 C 208.855 221.467,208.812 221.467,208.812 222.000 M155.600 224.800 C 156.070 225.460,156.544 226.000,156.654 226.000 C 156.764 226.000,156.470 225.460,156.000 224.800 C 155.530 224.140,155.056 223.600,154.946 223.600 C 154.836 223.600,155.130 224.140,155.600 224.800 M263.877 229.453 C 261.812 231.423,261.408 232.258,263.400 230.438 C 264.749 229.206,266.208 227.595,265.962 227.609 C 265.873 227.614,264.935 228.444,263.877 229.453 M159.639 230.976 C 160.101 231.759,160.556 232.400,160.650 232.400 C 160.934 232.400,159.636 230.069,159.202 229.801 C 158.980 229.664,159.177 230.193,159.639 230.976 M165.600 239.847 C 165.600 240.067,165.864 240.596,166.187 241.024 C 166.510 241.451,166.775 241.620,166.775 241.400 C 166.775 241.180,166.510 240.651,166.187 240.224 C 165.864 239.796,165.600 239.627,165.600 239.847 M219.400 243.200 C 220.483 244.300,221.460 245.200,221.570 245.200 C 221.680 245.200,220.883 244.300,219.800 243.200 C 218.717 242.100,217.740 241.200,217.630 241.200 C 217.520 241.200,218.317 242.100,219.400 243.200 M270.154 247.200 C 270.154 249.950,270.218 251.075,270.296 249.700 C 270.374 248.325,270.374 246.075,270.296 244.700 C 270.218 243.325,270.154 244.450,270.154 247.200 M264.400 247.470 L 263.400 248.492 264.500 247.800 C 265.105 247.419,265.600 246.949,265.600 246.754 C 265.600 246.270,265.540 246.305,264.400 247.470 M231.800 251.485 C 232.240 251.591,232.771 251.840,232.980 252.039 C 233.189 252.237,233.538 252.400,233.756 252.400 C 233.975 252.400,233.804 252.136,233.376 251.813 C 232.949 251.490,232.240 251.241,231.800 251.259 L 231.000 251.293 231.800 251.485 M239.305 253.487 C 239.914 253.579,240.814 253.577,241.305 253.482 C 241.797 253.387,241.300 253.311,240.200 253.314 C 239.100 253.317,238.697 253.395,239.305 253.487 M249.300 253.476 C 249.685 253.576,250.315 253.576,250.700 253.476 C 251.085 253.375,250.770 253.293,250.000 253.293 C 249.230 253.293,248.915 253.375,249.300 253.476 M243.905 253.883 C 244.402 253.979,245.122 253.975,245.505 253.875 C 245.887 253.775,245.480 253.696,244.600 253.701 C 243.720 253.705,243.407 253.787,243.905 253.883 " stroke="none" fill="#343434" fill-rule="evenodd"></path></g></svg>