<svg width="100" height="100" viewBox="0 0 100 100" fill="none" xmlns="http://www.w3.org/2000/svg">
<path d="M42.4352 25.2C47.421 26.9752 52.1046 28.7127 56.826 30.299C57.9969 30.6767 57.9213 31.4322 57.9213 32.3387C57.9213 39.7418 57.9213 47.1071 57.9213 54.5102C57.9213 60.8935 57.9213 67.2768 57.9213 73.9245C56.7882 73.5846 55.8061 73.2824 54.8619 72.9802C51.1225 71.7338 47.3832 70.4873 43.6817 69.1654C43.1906 68.9765 42.473 68.3344 42.473 67.8811C42.3975 53.717 42.4352 39.5907 42.4352 25.2Z" fill="#194473"/>
<path d="M33.0675 74C27.9684 72.3003 23.1715 70.7139 18.4123 69.052C18.0346 68.9387 17.6191 68.2588 17.6191 67.8433C17.6191 53.717 17.6191 39.6662 17.6569 25.5776C17.6569 25.5399 17.6947 25.4643 17.808 25.3132C22.6049 27.0129 27.4396 28.6748 32.1987 30.4879C32.652 30.6767 33.0297 31.7343 33.0297 32.4142C33.0675 45.2941 33.0675 58.2117 33.0675 71.0916C33.0675 71.9604 33.0675 72.8291 33.0675 74Z" fill="#194473"/>
<path d="M82.5098 73.9245C77.4485 72.2248 72.3872 70.5252 67.2881 68.7877C67.2881 54.2836 67.2881 39.8929 67.2881 25.3511C67.6658 25.4266 68.0057 25.4644 68.3079 25.5777C72.6516 27.1263 77.033 28.6371 81.3389 30.2613C81.9054 30.4879 82.6609 31.3189 82.6609 31.8855C82.7364 45.7096 82.6986 59.5716 82.6986 73.3957C82.7364 73.5091 82.6609 73.6224 82.5098 73.9245Z" fill="#194473"/>
</svg>
