<?xml version="1.0" encoding="UTF-8"?>
<svg xmlns="http://www.w3.org/2000/svg" xmlns:xlink="http://www.w3.org/1999/xlink" width="75pt" height="75pt" viewBox="0 0 75 75" version="1.1">
<g id="surface1">
<path style=" stroke:none;fill-rule:nonzero;fill:rgb(100%,82.352941%,0%);fill-opacity:1;" d="M 35.375 74.691406 C 23.714844 74.121094 12.816406 67.792969 6.269531 57.800781 C 3.179688 53.085938 1.273438 47.886719 0.511719 42.113281 C 0.207031 39.785156 0.207031 35.214844 0.511719 32.886719 C 1.964844 21.945312 7.824219 12.507812 16.949219 6.445312 C 23.175781 2.3125 29.925781 0.277344 37.5 0.277344 C 44.941406 0.277344 51.695312 2.269531 57.804688 6.269531 C 64.117188 10.414062 69.054688 16.332031 71.894531 23.171875 C 73.183594 26.265625 74.03125 29.457031 74.488281 32.886719 C 74.796875 35.214844 74.796875 39.785156 74.488281 42.113281 C 73.023438 53.160156 67.074219 62.652344 57.804688 68.730469 C 51.167969 73.082031 43.578125 75.085938 35.375 74.691406 Z M 41.191406 68.40625 C 47.429688 67.089844 52.71875 63.148438 55.488281 57.742188 C 56.9375 54.945312 57.816406 51.355469 57.683594 48.835938 C 57.640625 47.960938 57.566406 47.695312 57.304688 47.429688 L 56.96875 47.09375 L 17.59375 47.09375 L 17.253906 47.429688 C 16.976562 47.710938 16.917969 47.945312 16.875 48.894531 C 16.773438 51.238281 17.519531 54.507812 18.75 57.085938 C 21.679688 63.25 27.464844 67.484375 34.496094 68.628906 C 36.238281 68.90625 39.300781 68.820312 41.191406 68.40625 Z M 23.789062 36.3125 C 27.730469 35.140625 30.527344 31.933594 31.199219 27.804688 C 31.523438 25.882812 30.921875 23.511719 29.605469 21.503906 C 27.507812 18.3125 23.523438 16.320312 20.242188 16.832031 C 17.710938 17.226562 16.054688 18.0625 14.207031 19.921875 C 13.199219 20.917969 12.832031 21.414062 12.347656 22.414062 C 11.511719 24.109375 11.234375 25.28125 11.234375 26.878906 C 11.265625 30.367188 13.59375 33.941406 16.917969 35.640625 C 17.652344 36.007812 19.320312 36.546875 20.140625 36.679688 C 20.945312 36.796875 22.734375 36.621094 23.789062 36.3125 Z M 56.308594 36.3125 C 56.878906 36.136719 57.671875 35.828125 58.082031 35.640625 C 61.4375 33.941406 63.808594 30.21875 63.78125 26.734375 C 63.75 24.183594 62.738281 21.882812 60.789062 19.90625 C 58.988281 18.089844 57.304688 17.226562 54.769531 16.832031 C 53.054688 16.566406 50.710938 17.078125 48.925781 18.121094 C 48.398438 18.429688 47.402344 19.234375 46.714844 19.921875 C 45.6875 20.945312 45.335938 21.402344 44.851562 22.414062 C 44.03125 24.125 43.753906 25.28125 43.753906 26.878906 C 43.785156 30.367188 46.113281 33.941406 49.4375 35.640625 C 50.171875 36.007812 51.839844 36.546875 52.660156 36.679688 C 53.46875 36.796875 55.253906 36.621094 56.308594 36.3125 Z M 56.308594 36.3125 "/>
<path style=" stroke:none;fill-rule:nonzero;fill:rgb(100%,100%,100%);fill-opacity:1;" d="M 35.625 66.253906 L 35.007812 66.195312 L 35.039062 62.285156 L 35.082031 58.375 L 39.476562 58.375 L 39.523438 62.269531 L 39.550781 66.167969 L 38.65625 66.269531 C 37.75 66.359375 36.78125 66.359375 35.625 66.253906 Z M 35.625 66.253906 "/>
<path style=" stroke:none;fill-rule:nonzero;fill:rgb(100%,100%,100%);fill-opacity:1;" d="M 30.542969 65.125 C 30.058594 64.9375 29.253906 64.585938 28.742188 64.320312 L 27.832031 63.851562 L 27.859375 61.113281 L 27.90625 58.375 L 32.300781 58.375 L 32.34375 61.933594 L 32.375 65.480469 L 31.90625 65.480469 C 31.640625 65.464844 31.023438 65.316406 30.542969 65.128906 Z M 30.542969 65.125 "/>
<path style=" stroke:none;fill-rule:nonzero;fill:rgb(100%,100%,100%);fill-opacity:1;" d="M 42.21875 61.933594 L 42.261719 58.375 L 46.65625 58.375 L 46.699219 60.542969 C 46.714844 61.816406 46.800781 62.695312 46.875 62.695312 C 46.960938 62.695312 47.023438 62.960938 47.023438 63.28125 C 47.023438 63.851562 46.992188 63.882812 46.113281 64.320312 C 44.707031 65.039062 43.417969 65.476562 42.773438 65.476562 L 42.1875 65.476562 Z M 42.21875 61.933594 "/>
<path style=" stroke:none;fill-rule:nonzero;fill:rgb(100%,100%,100%);fill-opacity:1;" d="M 23.523438 60.191406 C 22.96875 59.574219 22.851562 59.339844 22.851562 58.855469 L 22.851562 58.285156 L 23.992188 58.328125 L 25.121094 58.375 L 25.164062 59.664062 L 25.210938 60.9375 L 24.699219 60.9375 C 24.289062 60.9375 24.082031 60.820312 23.527344 60.191406 Z M 23.523438 60.191406 "/>
<path style=" stroke:none;fill-rule:nonzero;fill:rgb(100%,100%,100%);fill-opacity:1;" d="M 49.539062 60.804688 C 49.410156 60.734375 49.367188 60.367188 49.394531 59.53125 L 49.4375 58.375 L 50.726562 58.332031 L 52 58.285156 L 52 58.871094 C 52 59.339844 51.882812 59.574219 51.328125 60.191406 C 50.785156 60.792969 50.566406 60.9375 50.199219 60.9375 C 49.9375 60.9375 49.644531 60.878906 49.539062 60.804688 Z M 49.539062 60.804688 "/>
<path style=" stroke:none;fill-rule:nonzero;fill:rgb(100%,100%,100%);fill-opacity:1;" d="M 20.523438 54.886719 C 20.082031 53.539062 19.804688 52.222656 19.6875 50.875 L 19.585938 49.65625 L 25.195312 49.65625 L 25.195312 52.585938 C 25.195312 54.8125 25.152344 55.546875 25.019531 55.589844 C 24.917969 55.621094 23.921875 55.679688 22.820312 55.707031 L 20.816406 55.78125 Z M 20.523438 54.886719 "/>
<path style=" stroke:none;fill-rule:nonzero;fill:rgb(100%,100%,100%);fill-opacity:1;" d="M 51.269531 55.664062 L 49.4375 55.589844 L 49.394531 52.632812 L 49.367188 49.65625 L 55.226562 49.65625 L 55.226562 50.070312 C 55.226562 51.359375 54.742188 53.863281 54.242188 55.195312 C 54.039062 55.75 53.964844 55.8125 53.554688 55.78125 C 53.304688 55.765625 52.28125 55.707031 51.269531 55.664062 Z M 51.269531 55.664062 "/>
<path style=" stroke:none;fill-rule:nonzero;fill:rgb(100%,100%,100%);fill-opacity:1;" d="M 27.933594 55.578125 C 27.875 55.515625 27.832031 54.15625 27.832031 52.558594 L 27.832031 49.65625 L 32.375 49.65625 L 32.34375 52.632812 L 32.300781 55.589844 L 30.160156 55.632812 C 28.988281 55.648438 27.992188 55.621094 27.933594 55.578125 Z M 27.933594 55.578125 "/>
<path style=" stroke:none;fill-rule:nonzero;fill:rgb(100%,100%,100%);fill-opacity:1;" d="M 35.113281 55.578125 C 35.054688 55.515625 35.007812 54.15625 35.007812 52.558594 L 35.007812 49.65625 L 39.550781 49.65625 L 39.523438 52.632812 L 39.476562 55.589844 L 37.339844 55.632812 C 36.167969 55.648438 35.171875 55.621094 35.113281 55.578125 Z M 35.113281 55.578125 "/>
<path style=" stroke:none;fill-rule:nonzero;fill:rgb(100%,100%,100%);fill-opacity:1;" d="M 42.289062 55.578125 C 42.230469 55.515625 42.1875 54.15625 42.1875 52.558594 L 42.1875 49.65625 L 46.726562 49.65625 L 46.699219 52.632812 L 46.65625 55.589844 L 44.515625 55.632812 C 43.34375 55.648438 42.347656 55.621094 42.289062 55.578125 Z M 42.289062 55.578125 "/>
<path style=" stroke:none;fill-rule:nonzero;fill:rgb(100%,100%,100%);fill-opacity:1;" d="M 19.703125 37.117188 C 18.882812 36.988281 17.210938 36.445312 16.480469 36.078125 C 13.960938 34.804688 11.984375 32.417969 11.117188 29.589844 C 10.679688 28.183594 10.648438 25.632812 11.046875 24.171875 C 11.324219 23.117188 12.40625 20.800781 12.613281 20.800781 C 12.6875 20.800781 12.746094 21.035156 12.746094 21.3125 C 12.746094 21.59375 12.6875 21.828125 12.628906 21.828125 C 12.570312 21.828125 12.394531 22.351562 12.246094 23.011719 C 11.996094 24.125 11.996094 24.257812 12.21875 25.164062 C 12.804688 27.554688 14.75 29.414062 17.152344 29.898438 C 19.234375 30.308594 21.957031 28.738281 23.058594 26.46875 C 23.671875 25.222656 23.804688 24.242188 23.527344 23.128906 C 22.910156 20.757812 20.976562 18.925781 18.589844 18.441406 C 17.578125 18.238281 16.261719 18.53125 15.191406 19.1875 C 14.78125 19.4375 14.28125 19.628906 14.019531 19.628906 L 13.550781 19.613281 L 14.296875 18.925781 C 18.132812 15.367188 24.449219 15.4375 28.375 19.085938 C 30.671875 21.226562 31.832031 24.007812 31.726562 27.097656 C 31.671875 28.8125 31.390625 29.882812 30.585938 31.492188 C 28.886719 34.863281 25.457031 37.03125 21.605469 37.132812 C 20.800781 37.164062 19.953125 37.148438 19.703125 37.117188 Z M 19.703125 37.117188 "/>
<path style=" stroke:none;fill-rule:nonzero;fill:rgb(100%,100%,100%);fill-opacity:1;" d="M 52.222656 37.117188 C 51.402344 36.988281 49.730469 36.445312 49 36.078125 C 47.242188 35.1875 45.367188 33.355469 44.488281 31.671875 C 43.59375 29.972656 43.285156 28.726562 43.300781 26.804688 C 43.300781 24.828125 43.550781 23.789062 44.414062 21.972656 C 45.46875 19.789062 48.046875 17.5625 50.375 16.84375 C 54.097656 15.6875 58.082031 16.480469 60.671875 18.898438 L 61.449219 19.613281 L 60.980469 19.628906 C 60.71875 19.628906 60.21875 19.4375 59.808594 19.1875 C 58.742188 18.53125 57.421875 18.238281 56.410156 18.441406 C 54.023438 18.925781 52.089844 20.757812 51.476562 23.128906 C 51.195312 24.242188 51.328125 25.226562 51.945312 26.46875 C 53.042969 28.742188 55.765625 30.308594 57.847656 29.898438 C 60.265625 29.414062 62.195312 27.554688 62.78125 25.152344 C 63.019531 24.242188 63.019531 24.113281 62.78125 23.1875 C 62.519531 22.074219 62.476562 21.386719 62.679688 21.386719 C 62.902344 21.386719 63.691406 23.101562 63.96875 24.171875 C 64.308594 25.472656 64.320312 28.023438 63.96875 29.296875 C 63.574219 30.804688 62.59375 32.609375 61.597656 33.675781 C 59.457031 35.960938 57.113281 37.046875 54.125 37.132812 C 53.320312 37.164062 52.472656 37.148438 52.222656 37.117188 Z M 52.222656 37.117188 "/>
<path style=" stroke:none;fill-rule:nonzero;fill:rgb(90.980392%,74.901961%,0%);fill-opacity:1;" d="M 34.058594 69.066406 C 27.027344 67.925781 21.242188 63.691406 18.3125 57.523438 C 17.007812 54.800781 16.347656 51.753906 16.4375 48.898438 C 16.480469 47.492188 16.507812 47.285156 16.816406 46.992188 L 17.152344 46.65625 L 57.40625 46.65625 L 57.742188 46.992188 C 58.492188 47.726562 58.183594 52.234375 57.1875 55.195312 C 54.871094 62.167969 49.058594 67.265625 41.632812 68.863281 C 39.742188 69.257812 35.917969 69.359375 34.058594 69.066406 Z M 37.9375 65.757812 C 37.9375 65.65625 38.144531 65.640625 38.523438 65.699219 C 38.992188 65.773438 39.109375 65.757812 39.109375 65.566406 C 39.109375 65.421875 39.300781 65.316406 39.667969 65.242188 C 40.253906 65.15625 41.761719 64.804688 42.304688 64.65625 C 42.539062 64.585938 42.625 64.628906 42.625 64.804688 C 42.625 65.113281 42.742188 65.097656 43.828125 64.6875 C 45.671875 64 47.109375 63.132812 46.421875 63.132812 C 46.113281 63.132812 46.375 62.855469 47.34375 62.140625 C 47.898438 61.742188 48.648438 61.128906 49.042969 60.761719 C 49.65625 60.175781 49.761719 60.132812 49.953125 60.320312 C 50.125 60.511719 50.230469 60.453125 50.859375 59.78125 C 51.636719 58.929688 51.710938 58.742188 51.269531 58.742188 C 50.992188 58.742188 51.019531 58.652344 51.53125 57.90625 C 51.855469 57.4375 52.324219 56.632812 52.574219 56.132812 C 52.941406 55.398438 53.101562 55.210938 53.320312 55.269531 C 53.527344 55.328125 53.644531 55.195312 53.804688 54.726562 C 54.257812 53.496094 54.507812 52.367188 54.699219 50.785156 L 54.785156 50.097656 L 52.296875 50.097656 C 50.1875 50.097656 49.804688 50.128906 49.804688 50.316406 C 49.804688 50.507812 49.511719 50.539062 48.046875 50.539062 C 46.582031 50.539062 46.289062 50.507812 46.289062 50.316406 C 46.289062 50.128906 45.980469 50.097656 44.457031 50.097656 C 42.933594 50.097656 42.628906 50.128906 42.628906 50.316406 C 42.628906 50.507812 42.335938 50.539062 40.871094 50.539062 C 39.40625 50.539062 39.113281 50.507812 39.113281 50.316406 C 39.113281 50.128906 38.804688 50.097656 37.28125 50.097656 C 35.757812 50.097656 35.449219 50.128906 35.449219 50.316406 C 35.449219 50.507812 35.15625 50.539062 33.691406 50.539062 C 32.226562 50.539062 31.933594 50.507812 31.933594 50.316406 C 31.933594 50.128906 31.625 50.097656 30.101562 50.097656 C 28.578125 50.097656 28.273438 50.128906 28.273438 50.316406 C 28.273438 50.507812 27.980469 50.539062 26.515625 50.539062 C 25.050781 50.539062 24.757812 50.507812 24.757812 50.316406 C 24.757812 50.128906 24.40625 50.097656 22.414062 50.097656 L 20.070312 50.097656 L 20.15625 50.800781 C 20.289062 51.988281 20.523438 53.058594 20.890625 54.230469 C 21.195312 55.179688 21.285156 55.328125 21.519531 55.269531 C 21.753906 55.210938 21.886719 55.355469 22.207031 55.988281 C 22.414062 56.410156 22.882812 57.203125 23.234375 57.757812 C 23.789062 58.625 23.832031 58.742188 23.585938 58.742188 C 23.144531 58.742188 23.21875 58.945312 24.023438 59.796875 C 24.742188 60.570312 24.742188 60.570312 24.757812 60.148438 C 24.757812 59.734375 24.757812 59.734375 25.605469 60.542969 C 26.058594 60.996094 26.851562 61.671875 27.363281 62.050781 C 28.039062 62.546875 28.273438 62.8125 28.273438 63.078125 C 28.273438 63.355469 28.449219 63.515625 29.179688 63.882812 C 29.691406 64.144531 30.511719 64.496094 31.011719 64.6875 C 31.890625 65.023438 31.933594 65.023438 31.933594 64.761719 C 31.933594 64.511719 31.992188 64.511719 33.265625 64.835938 C 34 65.023438 34.761719 65.1875 34.964844 65.1875 C 35.214844 65.1875 35.363281 65.289062 35.40625 65.492188 C 35.480469 65.757812 35.566406 65.800781 36.050781 65.726562 C 36.371094 65.683594 36.621094 65.710938 36.621094 65.785156 C 36.621094 65.859375 36.914062 65.917969 37.28125 65.917969 C 37.660156 65.917969 37.941406 65.84375 37.941406 65.757812 Z M 37.9375 65.757812 "/>
<path style=" stroke:none;fill-rule:nonzero;fill:rgb(92.941176%,94.509804%,94.901961%);fill-opacity:1;" d="M 37.9375 65.773438 C 37.9375 65.699219 38.070312 65.625 38.21875 65.625 C 38.378906 65.625 38.554688 65.699219 38.597656 65.773438 C 38.65625 65.859375 38.523438 65.917969 38.320312 65.917969 C 38.117188 65.917969 37.9375 65.859375 37.9375 65.773438 Z M 37.9375 65.773438 "/>
<path style=" stroke:none;fill-rule:nonzero;fill:rgb(92.941176%,94.509804%,94.901961%);fill-opacity:1;" d="M 33.941406 65.550781 C 33.382812 65.433594 32.710938 65.273438 32.429688 65.1875 L 31.933594 65.023438 L 31.902344 61.917969 L 31.859375 58.8125 L 28.34375 58.8125 L 28.300781 61.054688 C 28.285156 62.269531 28.210938 63.28125 28.140625 63.28125 C 27.949219 63.28125 26.207031 61.976562 25.445312 61.273438 C 24.800781 60.671875 24.769531 60.617188 24.726562 59.734375 L 24.683594 58.8125 L 23.949219 58.8125 C 23.230469 58.8125 23.203125 58.796875 22.734375 58.082031 C 22.105469 57.144531 21.386719 55.738281 21.386719 55.460938 C 21.386719 55.269531 21.695312 55.226562 23.042969 55.195312 L 24.683594 55.152344 L 24.726562 52.632812 L 24.753906 50.097656 L 28.269531 50.097656 L 28.300781 52.617188 L 28.34375 55.152344 L 31.859375 55.152344 L 31.902344 52.632812 L 31.933594 50.097656 L 35.449219 50.097656 L 35.476562 52.617188 L 35.523438 55.152344 L 39.039062 55.152344 L 39.082031 52.617188 L 39.109375 50.097656 L 42.625 50.097656 L 42.65625 52.617188 L 42.699219 55.152344 L 46.214844 55.152344 L 46.257812 52.617188 L 46.289062 50.097656 L 49.804688 50.097656 L 49.832031 52.632812 L 49.878906 55.152344 L 51.5625 55.195312 C 52.484375 55.210938 53.335938 55.253906 53.4375 55.296875 C 53.640625 55.371094 52.792969 57.171875 52.046875 58.226562 C 51.648438 58.796875 51.621094 58.8125 50.757812 58.8125 L 49.878906 58.8125 L 49.832031 59.589844 C 49.804688 60.042969 49.847656 60.351562 49.9375 60.351562 C 50.476562 60.351562 49.246094 61.582031 47.519531 62.78125 C 46.363281 63.589844 46.304688 63.5 46.257812 60.96875 L 46.214844 58.8125 L 42.699219 58.8125 L 42.65625 61.992188 L 42.625 65.15625 L 41.628906 65.390625 C 41.089844 65.507812 40.296875 65.65625 39.886719 65.714844 L 39.109375 65.816406 L 39.082031 62.316406 L 39.039062 58.8125 L 35.523438 58.8125 L 35.476562 62.300781 C 35.449219 65.480469 35.417969 65.773438 35.183594 65.757812 C 35.054688 65.757812 34.480469 65.65625 33.941406 65.550781 Z M 33.941406 65.550781 "/>
<path style=" stroke:none;fill-rule:nonzero;fill:rgb(45.882353%,26.27451%,94.901961%);fill-opacity:1;" d="M 16.257812 30.234375 C 13.226562 29.414062 11.148438 26.265625 11.675781 23.234375 C 11.910156 21.839844 12.464844 20.773438 13.433594 19.789062 C 14.429688 18.808594 15.570312 18.207031 16.90625 17.972656 C 20.976562 17.285156 24.757812 21.0625 24.066406 25.136719 C 23.4375 28.828125 19.820312 31.1875 16.261719 30.234375 Z M 16.257812 30.234375 "/>
<path style=" stroke:none;fill-rule:nonzero;fill:rgb(45.882353%,26.27451%,94.901961%);fill-opacity:1;" d="M 55.515625 30.234375 C 53.1875 29.605469 51.359375 27.570312 50.933594 25.136719 C 50.242188 21.0625 54.023438 17.285156 58.09375 17.972656 C 61.523438 18.558594 63.898438 21.8125 63.324219 25.136719 C 62.695312 28.828125 59.078125 31.1875 55.515625 30.234375 Z M 55.515625 30.234375 "/>
</g>
</svg>
