<svg width="100" height="99" viewBox="0 0 100 99" fill="none" xmlns="http://www.w3.org/2000/svg">
<g clip-path="url(#clip0)">
<path d="M71 54H40.2537C36.2082 54 32.3284 52.4196 29.4677 49.6066C26.6071 46.7936 25 42.9782 25 39H50.8452C58.8733 43.575 66.3708 49.125 71 54Z" fill="#7458CE"/>
<path d="M87 49.5017C86.9992 57.9438 84.1506 66.1386 78.9151 72.7603C73.6797 79.382 66.3637 84.0431 58.1508 85.9896C49.9379 87.936 41.3087 87.0538 33.6593 83.4859C26.0099 79.9179 19.7879 73.8728 16 66.3287H72.9716C75.2002 66.3287 76.7619 63.7108 76.2022 61.1465C76.1653 60.9823 76.1184 60.8113 76.0682 60.6571C76.0514 60.6068 76.0313 60.5532 76.0145 60.4962C75.3443 58.6191 73.7792 56.3934 71.5506 54.0135C66.8589 48.9855 59.2951 43.2872 51.1716 38.5944C41.5333 33 31.1377 28.8033 23.8755 28.8033H18.2454C22.6922 22.0827 29.1856 16.9738 36.7631 14.2338C44.3406 11.4938 52.599 11.2684 60.3146 13.5912C68.0302 15.914 74.7923 20.6612 79.5989 27.1294C84.4055 33.5976 87.0007 41.4426 87 49.5017V49.5017Z" fill="#F2F2F3"/>
<path d="M72.6699 66H15.9598C13.347 60.7201 11.9907 54.8905 12 48.9805C11.9992 46.9779 12.1531 44.9782 12.4604 43C23.0852 56.3003 26.2109 60.1008 35.9551 60.1008H75.6989C75.6989 60.1585 75.7356 60.2127 75.7523 60.2636C75.8023 60.4297 75.849 60.6026 75.8857 60.7585C76.4428 63.3522 74.8983 66 72.6699 66Z" fill="#C8CDDC"/>
<path d="M76 60H36.4098C26.7009 60 23.5864 56.3246 13 43.4623C13.8302 38.2929 15.7789 33.3604 18.7137 29H24.2977C31.5005 29 41.811 33.1049 51.3604 38.5672H25.4544C25.4544 42.5672 27.0653 46.4034 29.9327 49.2318C32.8 52.0602 36.689 53.6492 40.7441 53.6492H71.5627C73.783 55.9869 75.3386 58.1639 76 60Z" fill="#C8CDDC"/>
<path fill-rule="evenodd" clip-rule="evenodd" d="M23.4137 58.1177C19.8393 55.4139 16.2244 51.0596 11 44.7607L14.4743 42C19.8436 48.4736 23.086 52.334 26.1502 54.6519C28.9967 56.8052 31.6933 57.6199 36.1704 57.6199H76V62H36.1704C30.9288 62 27.2056 60.9861 23.4137 58.1177Z" fill="#0BDFAC"/>
<path fill-rule="evenodd" clip-rule="evenodd" d="M23 36H50.9361V40.5248H27.6298C28.0841 43.1892 29.3336 45.6673 31.2346 47.6053C33.6652 50.0831 36.9618 51.4752 40.3992 51.4752H71V56H40.3992C35.7846 56 31.3591 54.1312 28.0961 50.8048C24.8331 47.4783 23 42.9667 23 38.2624V36Z" fill="#3F4753"/>
<path fill-rule="evenodd" clip-rule="evenodd" d="M23.8169 31.3986H18.2381V27H23.8169C27.7953 27 32.4541 28.1196 37.2337 29.8655C42.0438 31.6227 47.1182 34.0673 51.9711 36.8397C60.1425 41.5056 67.8452 47.2001 72.6799 52.2818L72.6809 52.283C75.0139 54.7387 76.8659 57.2469 77.6447 59.5806L75.5232 60.2673L77.6444 59.5796C77.6445 59.58 77.6446 59.5803 77.6447 59.5806C77.7214 59.8101 77.7853 60.0436 77.8361 60.2799C77.8354 60.2767 77.8347 60.2736 77.834 60.2704L75.6527 60.7415L77.838 60.2885C77.8374 60.2856 77.8367 60.2828 77.8361 60.2799C78.2355 62.0854 77.8863 63.9282 76.9903 65.3628C76.0916 66.8016 74.5064 68 72.4516 68H16V63.6014H72.4516C72.6016 63.6014 72.8959 63.5227 73.1861 63.0582C73.4773 62.592 73.6265 61.9092 73.4714 61.2127L73.4694 61.2036L73.4674 61.1946C73.4501 61.1136 73.4283 61.0336 73.402 60.955L73.4017 60.954C72.932 59.5466 71.6226 57.6071 69.4197 55.2883C69.42 55.2886 69.4203 55.2889 69.4206 55.2893L71.0502 53.7856L69.4195 55.2881C64.9762 50.6181 57.6635 45.1745 49.7304 40.6447L49.73 40.6445C45.0459 37.9685 40.2031 35.6417 35.6804 33.9896C31.1272 32.3262 27.0377 31.3986 23.8169 31.3986Z" fill="#3F4753"/>
<path fill-rule="evenodd" clip-rule="evenodd" d="M49.5 14.3223C30.0719 14.3223 14.3223 30.0719 14.3223 49.5C14.3223 68.9281 30.0719 84.6777 49.5 84.6777C68.9281 84.6777 84.6777 68.9281 84.6777 49.5C84.6777 30.0719 68.9281 14.3223 49.5 14.3223ZM10 49.5C10 27.6847 27.6847 10 49.5 10C71.3152 10 89 27.6847 89 49.5C89 71.3152 71.3152 89 49.5 89C27.6847 89 10 71.3152 10 49.5Z" fill="#3F4753"/>
</g>
<defs>
<clipPath id="clip0">
<rect width="99.6581" height="98.4269" fill="white"/>
</clipPath>
</defs>
</svg>
