<svg width="100" height="100" viewBox="0 0 100 100" fill="none" xmlns="http://www.w3.org/2000/svg">
<path d="M50.215 46.933C58.9144 46.933 65.9666 39.8807 65.9666 31.1814C65.9666 22.482 58.9144 15.4297 50.215 15.4297C41.5156 15.4297 34.4634 22.482 34.4634 31.1814C34.4634 39.8807 41.5156 46.933 50.215 46.933Z" fill="#88BDF3"/>
<path d="M50.215 84.9994C58.9144 84.9994 65.9666 77.9471 65.9666 69.2478C65.9666 60.5484 58.9144 53.4962 50.215 53.4962C41.5156 53.4962 34.4634 60.5484 34.4634 69.2478C34.4634 77.9471 41.5156 84.9994 50.215 84.9994Z" fill="#3075EE"/>
<path d="M69.2487 65.9662C77.9481 65.9662 85.0003 58.914 85.0003 50.2146C85.0003 41.5152 77.9481 34.463 69.2487 34.463C60.5493 34.463 53.4971 41.5152 53.4971 50.2146C53.4971 58.914 60.5493 65.9662 69.2487 65.9662Z" fill="#5795F1"/>
<path d="M31.1818 65.9662C39.8812 65.9662 46.9334 58.914 46.9334 50.2146C46.9334 41.5152 39.8812 34.463 31.1818 34.463C22.4824 34.463 15.4302 41.5152 15.4302 50.2146C15.4302 58.914 22.4824 65.9662 31.1818 65.9662Z" fill="#205FEC"/>
<path fill-rule="evenodd" clip-rule="evenodd" d="M46.4909 46.49C40.7832 45.1063 36.2905 40.6135 34.9067 34.9058C40.6144 36.2896 45.1072 40.7823 46.4909 46.49Z" fill="#134BEF"/>
<path fill-rule="evenodd" clip-rule="evenodd" d="M34.9067 65.5233C36.2905 59.8156 40.7832 55.3229 46.4909 53.9391C45.1072 59.6468 40.6144 64.1395 34.9067 65.5233Z" fill="#0932E8"/>
<path fill-rule="evenodd" clip-rule="evenodd" d="M53.939 53.9391C59.6467 55.3229 64.1394 59.8156 65.5232 65.5233C59.8155 64.1395 55.3227 59.6468 53.939 53.9391Z" fill="#164BEA"/>
<path fill-rule="evenodd" clip-rule="evenodd" d="M65.5232 34.9058C64.1394 40.6135 59.6467 45.1063 53.939 46.49C55.3227 40.7823 59.8155 36.2896 65.5232 34.9058Z" fill="#3170F1"/>
</svg>
