<svg width="100" height="99" viewBox="0 0 100 99" fill="none" xmlns="http://www.w3.org/2000/svg">
<path fill-rule="evenodd" clip-rule="evenodd" d="M78.4307 20.5693C63.005 5.14357 37.995 5.14358 22.5693 20.5693C7.14357 35.995 7.14357 61.005 22.5693 76.4307C37.995 91.8564 63.005 91.8564 78.4307 76.4307C93.8564 61.005 93.8564 35.995 78.4307 20.5693ZM65.3301 33.67C57.1398 25.4797 43.8607 25.4797 35.6704 33.67C27.4801 41.8604 27.4801 55.1395 35.6704 63.3298C43.8607 71.52 57.1398 71.52 65.3301 63.3298C73.5204 55.1395 73.5204 41.8604 65.3301 33.67Z" fill="url(#paint0_linear)"/>
<path d="M78.4308 20.5693C63.005 5.14357 37.995 5.14357 22.5693 20.5693C7.14357 35.995 7.14357 61.005 22.5693 76.4307C37.995 91.8565 63.005 91.8565 78.4308 76.4307C93.7677 61.0937 93.8559 36.2822 78.6952 20.8363C90.2715 32.6619 90.1945 51.6327 78.464 63.3631C66.656 75.1711 47.5114 75.1711 35.7033 63.3631C23.8954 51.5551 23.8954 32.4106 35.7033 20.6025C47.5063 8.79969 66.6391 8.79452 78.4485 20.587C78.4425 20.5811 78.4366 20.5752 78.4308 20.5693Z" fill="url(#paint1_linear)"/>
<defs>
<linearGradient id="paint0_linear" x1="65.1485" y1="102.208" x2="11.3577" y2="7.33589" gradientUnits="userSpaceOnUse">
<stop stop-color="#A00303"/>
<stop offset="0.962353" stop-color="#5604DC"/>
</linearGradient>
<linearGradient id="paint1_linear" x1="64.3449" y1="104.219" x2="7.66341" y2="69.1715" gradientUnits="userSpaceOnUse">
<stop offset="0.0001" stop-color="#A00345"/>
<stop offset="1" stop-color="#965FFC"/>
</linearGradient>
</defs>
</svg>
