<?xml version="1.0" standalone="no"?>
<!DOCTYPE svg PUBLIC "-//W3C//DTD SVG 20010904//EN"
 "http://www.w3.org/TR/2001/REC-SVG-20010904/DTD/svg10.dtd">
<svg version="1.0" xmlns="http://www.w3.org/2000/svg"
 width="300.000000pt" height="300.000000pt" viewBox="0 0 300.000000 300.000000"
 preserveAspectRatio="xMidYMid meet">
<metadata>
Created by potrace 1.10, written by Peter Selinger 2001-2011
</metadata>
<g transform="translate(0.000000,300.000000) scale(0.100000,-0.100000)"
fill="#000000" stroke="none">
<path d="M555 1933 c-27 -7 -54 -15 -60 -16 -5 -2 -20 -9 -32 -15 -13 -7 -23
-10 -23 -7 0 7 -56 -41 -98 -84 -36 -36 -75 -105 -65 -115 3 -3 -2 -15 -12
-26 -15 -17 -17 -38 -17 -157 0 -152 4 -203 13 -197 3 2 12 -15 18 -38 7 -23
20 -53 29 -67 21 -33 102 -111 115 -111 6 0 18 -6 26 -14 34 -28 143 -52 231
-50 108 3 152 11 205 34 17 7 32 13 35 12 11 -1 152 143 157 161 21 69 27 86
32 83 6 -4 11 48 11 108 -1 17 2 27 6 24 3 -4 6 -90 5 -192 -1 -120 2 -187 9
-191 6 -3 8 -10 6 -14 -3 -4 20 -9 51 -10 31 -1 61 -5 66 -8 6 -3 7 -1 3 5 -6
10 5 16 25 14 4 -1 7 18 7 41 0 23 1 148 1 277 l2 235 27 -31 c15 -17 34 -41
42 -54 8 -12 21 -28 28 -36 6 -7 12 -16 12 -21 0 -4 14 -21 30 -37 16 -16 27
-33 23 -39 -3 -6 -1 -7 5 -3 7 4 12 1 12 -6 0 -7 11 -25 24 -41 13 -15 34 -43
47 -62 13 -19 27 -35 32 -35 4 0 7 -6 7 -12 0 -7 14 -26 30 -42 17 -16 30 -35
30 -43 0 -7 7 -16 15 -19 8 -4 15 -10 15 -14 0 -5 13 -23 29 -41 25 -26 38
-32 76 -34 84 -3 85 -2 86 238 1 200 6 255 14 151 2 -27 6 -57 10 -66 4 -9 4
-21 2 -25 -3 -5 7 -34 22 -65 21 -42 25 -60 17 -68 -7 -8 -7 -10 0 -8 6 2 34
-21 63 -49 29 -29 57 -50 62 -47 5 3 9 1 9 -5 0 -6 22 -18 49 -28 27 -9 48
-20 46 -23 -4 -6 32 -9 160 -13 73 -3 103 1 158 20 73 24 143 68 171 105 9 13
14 17 10 9 -5 -9 -3 -12 4 -7 7 4 12 11 12 17 0 5 14 35 32 66 41 72 40 70 43
248 2 145 1 152 -26 213 -16 35 -35 69 -42 76 -7 8 -25 27 -38 42 -70 81 -186
123 -329 120 -52 -2 -115 -9 -140 -16 -25 -8 -47 -14 -50 -15 -27 -6 -50 -18
-50 -26 0 -5 -4 -8 -9 -6 -13 3 -99 -72 -106 -94 -4 -11 -11 -16 -18 -13 -7 4
-9 4 -5 0 3 -4 -4 -31 -17 -59 -13 -29 -27 -69 -30 -89 -14 -77 -23 -33 -24
119 -1 99 -6 162 -13 170 -8 10 -30 13 -72 11 -51 -3 -62 -6 -72 -25 -6 -13
-15 -20 -20 -15 -4 4 -3 0 4 -9 9 -13 12 -79 12 -258 -1 -235 -2 -241 -21
-231 -10 6 -19 14 -19 19 0 7 -62 92 -88 119 -7 8 -9 18 -6 24 4 7 2 8 -4 4
-7 -4 -12 -3 -12 2 0 5 -18 28 -40 53 -22 24 -38 50 -35 57 3 7 1 11 -4 8 -11
-7 -73 83 -65 96 3 4 2 8 -3 7 -19 -3 -33 2 -33 12 0 6 -23 40 -52 75 l-51 64
-62 0 c-84 0 -86 -5 -83 -202 1 -86 -1 -160 -5 -164 -4 -4 -8 1 -8 12 -5 83
-38 167 -89 224 -16 18 -27 37 -23 43 3 6 1 7 -5 3 -6 -3 -18 1 -26 10 -9 8
-16 12 -16 7 0 -4 -4 -3 -8 2 -13 19 -62 46 -110 62 -64 20 -224 24 -287 6z
m237 -24 c175 -38 270 -146 298 -337 31 -212 -49 -398 -203 -470 -123 -57
-304 -55 -425 7 -126 64 -192 195 -192 380 0 232 94 370 285 417 64 16 170 17
237 3z m1656 -4 c83 -20 128 -44 179 -97 86 -89 125 -234 105 -393 -14 -103
-45 -177 -101 -237 -92 -101 -264 -142 -430 -103 -184 44 -277 165 -288 375
-16 299 127 466 402 469 39 0 98 -6 133 -14z m-1081 -136 c57 -74 160 -211
230 -306 71 -94 131 -172 136 -172 4 -1 7 137 7 306 l-1 307 50 0 51 1 2 -412
3 -413 -51 0 -52 0 -198 263 c-109 144 -215 286 -236 316 l-38 54 0 -316 0
-317 -55 0 -55 0 0 413 0 412 53 -1 52 -2 102 -133z m519 -214 c1 -8 -2 -15
-7 -15 -5 0 -9 10 -9 22 0 23 12 17 16 -7z"/>
<path d="M556 1800 c-60 -24 -108 -68 -138 -129 -20 -41 -22 -61 -22 -181 0
-149 12 -196 70 -254 89 -89 289 -101 401 -25 56 39 81 83 100 176 22 104 8
228 -34 305 -30 55 -88 100 -153 118 -58 16 -170 11 -224 -10z m234 -22 c62
-18 153 -119 134 -149 -4 -7 -3 -9 4 -6 21 14 27 -173 7 -253 -2 -8 -4 -21 -4
-28 -1 -7 -5 -11 -9 -8 -4 2 -9 -7 -10 -22 -3 -34 -36 -69 -94 -97 -37 -18
-63 -22 -134 -22 -85 0 -144 12 -144 30 0 4 -4 6 -8 3 -5 -3 -26 13 -47 34
-22 22 -36 40 -32 40 4 0 1 10 -7 23 -18 26 -34 123 -30 175 7 96 17 147 36
181 21 36 68 84 77 76 2 -3 10 0 17 6 25 21 70 28 149 25 44 -2 87 -6 95 -8z"/>
<path d="M2204 1804 c-60 -22 -118 -75 -145 -136 -20 -46 -24 -69 -24 -173 0
-150 17 -206 80 -264 120 -111 365 -89 451 41 57 85 69 250 28 376 -24 73 -83
132 -153 155 -65 21 -180 21 -237 1z m204 -20 c20 -3 30 -9 26 -16 -4 -7 -2
-8 5 -4 6 4 24 0 39 -10 82 -53 114 -137 108 -281 -2 -54 -9 -114 -15 -134
-15 -49 -81 -117 -120 -125 -17 -4 -34 -11 -37 -15 -3 -5 -40 -9 -82 -9 -82 1
-179 27 -175 47 2 7 -4 10 -12 7 -9 -4 -22 7 -35 30 -12 19 -21 38 -21 41 1 3
-6 19 -14 36 -13 25 -15 53 -11 147 6 136 6 142 19 142 5 0 6 7 3 16 -9 22 87
119 109 110 9 -3 13 -2 10 3 -3 6 16 13 42 16 27 4 52 8 57 9 10 2 49 -2 104
-10z"/>
<path d="M1264 1812 c4 -3 14 -7 22 -8 9 -1 13 0 10 4 -4 3 -14 7 -22 8 -9 1
-13 0 -10 -4z"/>
</g>
</svg>
