<svg width="104" height="100" viewBox="0 0 104 100" fill="none" xmlns="http://www.w3.org/2000/svg">
<rect width="104" height="100" fill="#E5E5E5"/>
<g filter="url(#filter0_d)">
<g filter="url(#filter1_i)">
<path d="M87.0959 38.2658C86.5353 38.9867 85.9367 39.6773 85.3028 40.3347C82.3296 43.4304 73.4407 51.3382 54.9425 58.0659C36.4444 64.7937 24.5363 64.4566 20.2758 63.9815C19.3687 63.8938 18.4679 63.7505 17.5784 63.5524C17.4712 63.2459 17.3486 62.9394 17.2413 62.6329L16.9194 61.7133C16.6283 60.8398 16.3524 59.9356 16.1072 58.9701C15.2147 55.4109 14.8583 51.7383 15.0497 48.0739L15.0957 47.3843C15.5992 40.2547 18.158 33.4238 22.4627 27.718C26.7673 22.0122 32.6333 17.6761 39.3508 15.2344C46.0683 12.7926 53.3496 12.3498 60.3135 13.9595C67.2775 15.5692 73.6257 19.1624 78.5901 24.3045C78.774 24.4731 78.9273 24.6263 79.0805 24.7949C81.5916 27.4655 83.6796 30.5044 85.2721 33.8061C85.7012 34.695 86.0844 35.5685 86.4215 36.4267C86.5288 36.7332 86.6514 37.0397 86.7587 37.3462H86.774L87.0959 38.2658Z" fill="#0F79F5"/>
</g>
<path d="M87.5097 42.4505C84.3985 45.6995 75.0958 54.0061 55.9847 60.9486C41.5785 66.19 30.9425 67.2628 24.6589 67.2628C23.0825 67.272 21.5067 67.1952 19.9386 67.0329C19.681 67.0029 19.4351 66.9086 19.2235 66.7586C19.0119 66.6086 18.8415 66.4078 18.7279 66.1747C18.2988 65.2858 17.9156 64.4122 17.5784 63.554C18.4679 63.7522 19.3687 63.8955 20.2758 63.9831C24.5363 64.4582 36.4444 64.7954 54.9425 58.0674C73.4407 51.3394 82.3296 43.4313 85.3028 40.3355C85.9367 39.6782 86.5353 38.9875 87.0959 38.2666C87.3717 39.1401 87.6476 40.0444 87.8928 41.0099C87.9589 41.2626 87.9584 41.5282 87.8912 41.7807C87.8241 42.0332 87.6926 42.264 87.5097 42.4505Z" fill="#0F79F5"/>
<path d="M88.1157 50.4596C87.8522 50.3254 87.5555 50.2701 87.2614 50.3004C86.9672 50.3306 86.6881 50.4451 86.4574 50.6301C77.7858 57.2359 68.1217 62.4251 57.825 66.0047C47.6345 69.8767 36.8943 72.1079 26.0047 72.6152C25.709 72.6213 25.4215 72.7127 25.1766 72.8785C24.9318 73.0444 24.7402 73.2774 24.6249 73.5497C24.5095 73.822 24.4754 74.1218 24.5267 74.413C24.5779 74.7042 24.7123 74.9744 24.9136 75.191C29.8651 80.5105 36.2735 84.2542 43.3392 85.9548C50.4049 87.6555 57.8149 87.2378 64.6447 84.7539C71.4745 82.27 77.4216 77.8299 81.7439 71.9877C86.0662 66.1454 88.5722 59.1597 88.9494 51.9023C88.9641 51.6071 88.8932 51.3139 88.7453 51.0579C88.5974 50.802 88.3788 50.5942 88.1157 50.4596Z" fill="#0F79F5"/>
<path d="M88.9043 52.5952C88.7357 52.7484 88.5518 52.8864 88.3832 53.0243C79.4436 59.8371 69.481 65.1906 58.8659 68.8859C48.3625 72.8728 37.292 75.1645 26.0689 75.675C25.8543 75.675 25.6244 75.6903 25.4099 75.675H25.3946C25.134 75.6903 24.9041 75.6903 24.6589 75.6903C13.6551 75.6903 6.52861 72.7172 4.53627 67.2461C2.51327 61.6677 6.25275 54.6181 15.0957 47.3846L15.0497 48.0743C14.8583 51.7387 15.2147 55.4112 16.1072 58.9705C16.3524 59.936 16.6283 60.8402 16.9194 61.7137C16.5675 62.1482 16.2498 62.6093 15.9692 63.093C16.4942 63.2838 17.0319 63.4375 17.5785 63.5527C18.4679 63.7509 19.3687 63.8942 20.2758 63.9818C24.5363 64.4569 36.4444 64.7941 54.9425 58.0663C73.4407 51.3385 82.3296 43.4307 85.3028 40.335C85.9367 39.6777 86.5353 38.9871 87.0959 38.2661C87.4384 37.8281 87.7508 37.3673 88.0307 36.8868C87.5058 36.696 86.9681 36.5423 86.4215 36.4271C86.0844 35.5689 85.7012 34.6953 85.2721 33.8065C83.6796 30.5047 81.5916 27.4659 79.0805 24.7952C78.9273 24.6267 78.774 24.4734 78.5901 24.3048C90.0384 24.1516 97.4407 27.14 99.4637 32.7337C101.487 38.3121 97.7473 45.3617 88.9043 52.5952Z" fill="#FF11E7"/>
<path opacity="0.15" d="M99.4637 32.7335C97.4407 27.1398 90.0384 24.1514 78.5901 24.3046C75.8544 21.4542 72.6769 19.0634 69.1801 17.2244C73.4464 28.0113 73.9539 39.921 70.6207 51.0318C70.1965 52.4708 69.7004 53.8876 69.1341 55.2769C68.0647 57.9674 66.7675 60.5616 65.2567 63.0314C64.2757 64.6409 63.201 66.1914 62.0383 67.675C56.0752 75.3947 48.0379 81.2577 38.8659 84.5787C43.0416 86.187 47.4792 87.008 51.954 87.0001C61.3192 86.9901 70.3339 83.4375 77.1878 77.0557C84.0418 70.6739 88.2274 61.9354 88.9043 52.595C97.7472 45.3615 101.487 38.3119 99.4637 32.7335ZM88.0307 36.8866C87.7508 37.367 87.4384 37.8279 87.0959 38.2659L86.774 37.3464H86.7587C86.6514 37.0399 86.5288 36.7334 86.4215 36.4269C86.9681 36.5421 87.5058 36.6958 88.0307 36.8866Z" fill="#0D0D0E" fill-opacity="0.6"/>
<path d="M99.4599 32.7301C97.4297 27.1424 90.0271 24.1646 78.5934 24.2971C73.6297 19.1538 67.2815 15.5597 60.3172 13.9499C53.353 12.34 46.0713 12.7835 39.3539 15.2266C32.6365 17.6698 26.7714 22.0077 22.4687 27.7154C18.166 33.423 15.6102 40.2556 15.1107 47.3858C6.2678 54.6251 2.50641 61.6649 4.53936 67.2522C6.52696 72.7201 13.6494 75.6976 24.662 75.6976C24.904 75.6976 25.1535 75.6922 25.3997 75.6893C30.3643 80.832 36.7132 84.4255 43.6778 86.0349C50.6425 87.6442 57.9244 87.2004 64.642 84.7571C71.3597 82.3138 77.2251 77.9759 81.5284 72.2683C85.8316 66.5607 88.3882 59.7282 88.8887 52.5977C97.7324 45.3583 101.493 38.3182 99.4599 32.7301ZM18.1124 48.2373V48.2342C18.459 41.5782 20.758 35.1716 24.7226 29.8138C28.6872 24.4561 34.1417 20.3843 40.4057 18.1067C46.6697 15.8291 53.4657 15.4465 59.9458 17.0065C66.4259 18.5666 72.3031 22.0003 76.8441 26.8791C77.4524 27.53 78.0294 28.2086 78.5832 28.906C80.1165 30.836 81.4342 32.9279 82.5128 35.1443C83.045 36.2575 83.4936 37.3205 83.8844 38.394C84.1474 39.1175 84.3811 39.8697 84.6059 40.6455C84.6352 40.7463 84.6636 40.8496 84.6922 40.952L84.6804 40.9639L84.6191 41.0228C84.4104 41.2278 84.1848 41.445 83.9377 41.6759C83.8556 41.7525 83.7597 41.8381 83.6732 41.9173C83.4757 42.0991 83.2758 42.2823 83.0553 42.4776C82.9327 42.5861 82.7948 42.703 82.6646 42.8155C82.4587 42.9942 82.2522 43.1729 82.0277 43.3611C81.872 43.4915 81.7013 43.6288 81.5365 43.7637C81.3125 43.9476 81.0872 44.1307 80.8469 44.3217C80.6629 44.4666 80.4665 44.6173 80.2732 44.7661C80.0248 44.958 79.7734 45.1508 79.5085 45.3485C79.297 45.5065 79.0737 45.6686 78.8514 45.8303C78.5776 46.0295 78.2986 46.2304 78.0085 46.435C77.771 46.6024 77.5236 46.7722 77.2747 46.9432C76.9709 47.1513 76.6587 47.3617 76.3383 47.5743C76.0746 47.7492 75.8036 47.9254 75.5282 48.1032C75.1935 48.3188 74.8484 48.5367 74.496 48.756C74.2065 48.9364 73.9124 49.1175 73.6108 49.3001C73.243 49.5226 72.862 49.7473 72.4767 49.9725C72.1604 50.1574 71.8422 50.3422 71.5135 50.5287C71.1123 50.7563 70.6948 50.9855 70.2749 51.2151C69.9313 51.403 69.5887 51.5906 69.2327 51.7795C68.7933 52.0126 68.3346 52.2468 67.8758 52.4808C67.5095 52.6678 67.148 52.8543 66.7691 53.0417C66.2807 53.2835 65.7688 53.5255 65.2591 53.7677C64.8787 53.9485 64.5066 54.129 64.1142 54.3097C63.565 54.5626 62.9881 54.8155 62.4151 55.0674C62.0289 55.2375 61.6545 55.4079 61.2572 55.5777C60.6045 55.8565 59.9202 56.1333 59.2378 56.41C58.8905 56.5509 58.5588 56.6929 58.2037 56.8332C57.1499 57.2494 56.0622 57.6622 54.9404 58.0716C53.819 58.4794 52.7226 58.861 51.6514 59.2164C51.2529 59.3493 50.8722 59.4644 50.4803 59.5905C49.8196 59.8031 49.156 60.0196 48.5148 60.213C48.0521 60.3532 47.608 60.4767 47.1554 60.6076C46.6092 60.7656 46.0584 60.9276 45.5269 61.0727C45.0535 61.2019 44.5971 61.317 44.1355 61.4363C43.6495 61.5619 43.16 61.6905 42.6871 61.8056C42.2233 61.9184 41.7746 62.0201 41.3231 62.1225C40.8766 62.2244 40.4285 62.3279 39.9945 62.4206C39.5456 62.5165 39.1099 62.6034 38.6745 62.6899C38.2659 62.7711 37.8575 62.8525 37.4608 62.9256C37.0305 63.0051 36.611 63.0776 36.1946 63.1482C35.8162 63.2123 35.4398 63.2751 35.0729 63.3321C34.6667 63.3954 34.269 63.4538 33.8775 63.5088C33.5284 63.5579 33.1839 63.6046 32.8463 63.6468C32.4631 63.6955 32.0844 63.741 31.7154 63.7824C31.3957 63.8179 31.0819 63.8508 30.7739 63.8811C30.4147 63.9165 30.0593 63.9502 29.7152 63.9789C29.4231 64.0031 29.1399 64.0239 28.8588 64.0437C28.5269 64.067 28.1964 64.0897 27.88 64.1073C27.6112 64.1226 27.3535 64.133 27.0958 64.1439C26.7932 64.1568 26.4893 64.1698 26.2023 64.1778C25.9594 64.1844 25.7301 64.1871 25.4984 64.1903C25.2246 64.1943 24.9466 64.1992 24.6893 64.1991C24.4668 64.1991 24.2602 64.1953 24.0498 64.1923C23.8102 64.1893 23.5639 64.1874 23.3397 64.1812C23.1405 64.1756 22.9606 64.1667 22.7727 64.1591C22.5626 64.1505 22.3436 64.1438 22.1482 64.1326C21.9702 64.1228 21.8147 64.1105 21.6498 64.0992C21.4787 64.0875 21.2959 64.0769 21.1388 64.0641C21.0983 63.9747 21.0573 63.8848 21.0179 63.7957C20.6888 63.0521 20.3825 62.3199 20.1155 61.5871C19.7264 60.5163 19.3851 59.4095 19.0753 58.204L19.0732 58.1988C18.4636 55.7587 18.128 53.2582 18.0726 50.7437C18.0547 49.908 18.0677 49.0729 18.1124 48.2373ZM16.3845 62.4284C16.4375 62.3501 16.5071 62.2598 16.5659 62.1772C16.6732 62.0249 16.7838 61.8707 16.9104 61.7057C17.0136 62.0185 17.1222 62.328 17.2323 62.635L17.2338 62.6365C17.3455 62.943 17.4617 63.2495 17.5825 63.556C17.3832 63.5117 17.2047 63.4656 17.0274 63.4192C16.9248 63.3925 16.8076 63.3668 16.7123 63.3395C16.4333 63.2598 16.1822 63.1786 15.9647 63.0977C16.0802 62.894 16.2209 62.6701 16.3845 62.4284ZM63.5958 81.8761C57.8859 83.9659 51.7183 84.4781 45.7418 83.3591C39.7654 82.2401 34.201 79.5311 29.634 75.5171L29.7034 75.5106C29.9459 75.4932 30.1987 75.4616 30.4433 75.4417C31.4023 75.3629 32.3698 75.2731 33.3571 75.1565C33.8 75.1042 34.2529 75.036 34.701 74.9762C35.5082 74.869 36.3169 74.7572 37.1395 74.6254C37.6477 74.5441 38.1612 74.4512 38.6748 74.3606C39.4564 74.2227 40.2406 74.0791 41.0331 73.9206C41.5707 73.8133 42.1104 73.7006 42.652 73.5826C43.4421 73.4123 44.2359 73.2319 45.0334 73.0416C45.5776 72.9119 46.1206 72.7811 46.6679 72.6431C47.4895 72.4352 48.314 72.2122 49.1413 71.9841C49.6682 71.8387 50.1931 71.6979 50.7219 71.5445C51.625 71.2824 52.5303 71.0009 53.4373 70.7157C53.8908 70.5732 54.3426 70.4398 54.7965 70.2913C56.1554 69.8475 57.5143 69.38 58.8732 68.8889C60.2325 68.3945 61.5753 67.8794 62.9015 67.3437C63.3372 67.1688 63.7616 66.984 64.1933 66.8051C65.0788 66.4383 65.9607 66.0695 66.8284 65.6864C67.329 65.4657 67.8183 65.2381 68.3123 65.0121C69.0956 64.6544 69.8735 64.2939 70.6395 63.924C71.1452 63.6799 71.643 63.4322 72.1414 63.1832C72.8795 62.8141 73.6078 62.4404 74.3262 62.062C74.8114 61.8061 75.2923 61.5484 75.7688 61.2891C76.4848 60.8977 77.1849 60.5008 77.8787 60.1002C78.3242 59.8432 78.7716 59.588 79.2075 59.3275C79.933 58.8937 80.6349 58.4531 81.3327 58.0105C81.703 57.7755 82.0827 57.544 82.4447 57.3067C83.301 56.7457 84.1252 56.1769 84.9328 55.6044C85.1097 55.479 85.2994 55.3566 85.4738 55.2306C85.4951 55.2153 85.5186 55.2 85.5397 55.1846C84.6174 61.1945 82.0928 66.8449 78.2313 71.5416C74.3698 76.2383 69.3141 79.8077 63.5958 81.8747V81.8761ZM86.4571 50.6331C77.7854 57.2384 68.1213 62.4272 57.8246 66.0062C55.0229 67.0255 52.2154 67.9372 49.4344 68.7329C47.0435 69.4175 44.6794 69.9991 42.3482 70.5097C36.9806 71.7355 31.5074 72.4411 26.0044 72.6168L25.9998 72.6175C15.7891 72.8306 8.98275 70.5063 7.41891 66.2045C6.0301 62.3823 8.78689 57.1067 15.0278 51.4825C15.0375 51.7222 15.0753 51.9605 15.0891 52.2001C15.1308 52.8966 15.1871 53.5916 15.2684 54.2858C15.3127 54.6634 15.3645 55.0395 15.4206 55.4162C15.5216 56.0951 15.6445 56.7713 15.7835 57.4463C15.831 57.6762 15.8556 57.9098 15.9075 58.1393L15.8844 58.1652L15.8556 58.1974C15.6717 58.3988 15.4873 58.6068 15.3025 58.8213C15.245 58.8881 15.189 58.9569 15.1319 59.0247C14.995 59.1867 14.8599 59.3496 14.7262 59.5166C14.6571 59.6031 14.5909 59.6899 14.5231 59.7771C14.4035 59.9316 14.2865 60.0864 14.1723 60.2433C14.1029 60.339 14.0361 60.434 13.9691 60.5302C13.8629 60.6827 13.7618 60.8351 13.6626 60.9886C13.5989 61.0878 13.5362 61.1865 13.4759 61.2859C13.3823 61.4406 13.2968 61.5943 13.2133 61.7484C13.1612 61.8448 13.1072 61.9409 13.06 62.0368C12.9772 62.2033 12.9067 62.3676 12.8392 62.5319C12.8059 62.6125 12.7667 62.6937 12.7372 62.7735C12.6492 63.0062 12.5783 63.245 12.5251 63.488C12.4664 63.7674 12.487 64.0578 12.5845 64.3261C12.682 64.5945 12.8525 64.8304 13.0769 65.007C13.5128 65.3364 13.9902 65.6072 14.4966 65.8124C14.767 65.927 15.0514 66.0321 15.3457 66.1288C15.3871 66.1423 15.4317 66.1529 15.4735 66.1662C16.0819 66.3566 16.7003 66.5137 17.3258 66.6369C18.2291 66.8185 19.1362 66.9455 19.9449 67.0312H19.9523C20.2248 67.0609 20.5262 67.0896 20.8565 67.1172C21.1078 67.1378 21.3929 67.1555 21.6777 67.1731C21.7727 67.1788 21.8534 67.1863 21.9521 67.1915C22.2416 67.2068 22.5635 67.2186 22.8847 67.2296C23.0032 67.2338 23.1078 67.2402 23.2306 67.2434C23.5492 67.2522 23.8985 67.2545 24.2459 67.2572C24.3875 67.2583 24.514 67.2629 24.6605 67.2629H24.6911C24.8256 67.2629 24.9718 67.2594 25.1102 67.2585C25.4505 67.2557 25.7998 67.2505 26.1639 67.2411C26.3644 67.2359 26.5693 67.2287 26.777 67.2212C27.1246 67.2088 27.4835 67.1923 27.8513 67.1729C28.0551 67.1622 28.2541 67.1529 28.4643 67.14C29.0254 67.1054 29.6035 67.0634 30.2081 67.0113C30.3552 66.9984 30.5122 66.9806 30.6619 66.967C31.15 66.921 31.6496 66.8706 32.165 66.8122C32.4067 66.7849 32.6535 66.7544 32.9007 66.7241C33.3707 66.6662 33.8519 66.6025 34.3444 66.5328C34.5886 66.4985 34.8288 66.466 35.0785 66.4286C35.7988 66.3206 36.537 66.2027 37.3007 66.068C37.4328 66.0447 37.5727 66.0162 37.7062 65.9914C38.3612 65.8731 39.0316 65.7442 39.7172 65.6047C39.9956 65.5482 40.2789 65.4873 40.5623 65.4271C41.1557 65.3008 41.7602 65.1662 42.3756 65.0233C42.6544 64.9584 42.9295 64.8961 43.2129 64.8279C44.0938 64.6158 44.9907 64.3914 45.914 64.1435C45.995 64.1217 46.0797 64.0963 46.1608 64.0743C47.0139 63.8432 47.8862 63.595 48.7775 63.3297C49.0805 63.2399 49.3885 63.1446 49.6957 63.0508C50.4144 62.8313 51.1446 62.6006 51.8862 62.3587C52.198 62.2569 52.5073 62.1575 52.8233 62.0522C53.8583 61.7058 54.9076 61.3446 55.9847 60.9527C57.1787 60.5184 58.3347 60.0791 59.4526 59.6348C63.3811 58.0876 67.2183 56.318 70.9455 54.3346C71.1009 54.2515 71.252 54.169 71.4053 54.086C75.8411 51.731 80.0339 48.9443 83.9226 45.7662C84.1984 45.5363 84.4455 45.3218 84.6959 45.104C84.8219 44.9949 84.9627 44.8778 85.0824 44.7724C86.1264 43.85 86.9289 43.063 87.5134 42.454L87.5169 42.4491C89.2974 40.8126 90.6545 38.7688 91.472 36.4929C91.5307 36.2135 91.5102 35.9232 91.4127 35.6548C91.3152 35.3864 91.1446 35.1506 90.9203 34.9739C90.723 34.8218 90.515 34.6842 90.2978 34.5623C90.228 34.5226 90.1503 34.4876 90.0775 34.4495C89.9155 34.3647 89.7514 34.2809 89.5756 34.2052C89.482 34.1644 89.3839 34.1273 89.287 34.089C89.1184 34.0222 88.9491 33.9574 88.7724 33.8971C88.6668 33.8613 88.56 33.8274 88.4519 33.7937C88.2735 33.7382 88.0939 33.6852 87.9103 33.6355C87.7994 33.6049 87.6892 33.5762 87.5768 33.5482C87.3879 33.5011 87.1986 33.4573 87.0073 33.4158C86.8987 33.3923 86.7914 33.368 86.6824 33.3461C86.478 33.305 86.2751 33.2679 86.0714 33.2325C85.9765 33.2158 85.8823 33.1976 85.7879 33.1822C85.5505 33.1436 85.3172 33.1094 85.0859 33.0776C85.0279 33.0694 84.9681 33.0596 84.9105 33.052L84.8918 33.0492C84.7823 32.8368 84.6498 32.6396 84.5364 32.4296C84.2107 31.8255 83.8721 31.2306 83.5148 30.6477C83.3155 30.3228 83.1135 30.0013 82.9048 29.6832C82.5217 29.0997 82.119 28.5319 81.7043 27.9726C81.5615 27.7798 81.4374 27.5729 81.2905 27.3832C89.6869 27.6832 95.1885 29.9543 96.5788 33.7767C98.1444 38.0797 94.4552 44.2225 86.4571 50.6317V50.6331ZM86.4167 36.4284C86.6159 36.4727 86.7946 36.5188 86.9718 36.5651C87.0743 36.5919 87.1917 36.6177 87.287 36.6448C87.5658 36.7247 87.8171 36.8059 88.0346 36.8868C87.9188 37.0903 87.7776 37.3159 87.6133 37.558C87.5673 37.6265 87.5053 37.7059 87.455 37.7772C87.3414 37.9381 87.2234 38.1025 87.0887 38.2782C86.9931 37.9904 86.8938 37.7064 86.792 37.4242C86.7831 37.3997 86.7758 37.3737 86.7669 37.3492L86.7653 37.3478C86.6537 37.0397 86.5374 36.7328 86.4167 36.427V36.4284Z" fill="#272224"/>
</g>
<defs>
<filter id="filter0_d" x="0" y="13" width="104" height="82.0001" filterUnits="userSpaceOnUse" color-interpolation-filters="sRGB">
<feFlood flood-opacity="0" result="BackgroundImageFix"/>
<feColorMatrix in="SourceAlpha" type="matrix" values="0 0 0 0 0 0 0 0 0 0 0 0 0 0 0 0 0 0 127 0" result="hardAlpha"/>
<feOffset dy="4"/>
<feGaussianBlur stdDeviation="2"/>
<feComposite in2="hardAlpha" operator="out"/>
<feColorMatrix type="matrix" values="0 0 0 0 0 0 0 0 0 0 0 0 0 0 0 0 0 0 0.25 0"/>
<feBlend mode="normal" in2="BackgroundImageFix" result="effect1_dropShadow"/>
<feBlend mode="normal" in="SourceGraphic" in2="effect1_dropShadow" result="shape"/>
</filter>
<filter id="filter1_i" x="14.9995" y="13.0094" width="72.0964" height="55.1946" filterUnits="userSpaceOnUse" color-interpolation-filters="sRGB">
<feFlood flood-opacity="0" result="BackgroundImageFix"/>
<feBlend mode="normal" in="SourceGraphic" in2="BackgroundImageFix" result="shape"/>
<feColorMatrix in="SourceAlpha" type="matrix" values="0 0 0 0 0 0 0 0 0 0 0 0 0 0 0 0 0 0 127 0" result="hardAlpha"/>
<feOffset dy="4"/>
<feGaussianBlur stdDeviation="2"/>
<feComposite in2="hardAlpha" operator="arithmetic" k2="-1" k3="1"/>
<feColorMatrix type="matrix" values="0 0 0 0 0 0 0 0 0 0 0 0 0 0 0 0 0 0 0.25 0"/>
<feBlend mode="normal" in2="shape" result="effect1_innerShadow"/>
</filter>
</defs>
</svg>
