<svg width="100" height="100" fill="none" xmlns="http://www.w3.org/2000/svg"><g filter="url(#a)"><g filter="url(#b)"><path d="M87.096 38.266c-.56.72-1.16 1.411-1.793 2.069-2.973 3.095-11.862 11.003-30.36 17.73-18.499 6.729-30.407 6.392-34.667 5.916a22.265 22.265 0 0 1-2.698-.429c-.107-.306-.23-.613-.337-.92l-.322-.919a38.901 38.901 0 0 1-.812-2.743 36.888 36.888 0 0 1-1.057-10.896l.046-.69A36.979 36.979 0 0 1 60.314 13.96 36.98 36.98 0 0 1 78.59 24.306c.184.168.337.321.49.49 2.512 2.67 4.6 5.71 6.192 9.011.43.889.812 1.763 1.15 2.62.107.307.23.614.337.92h.015l.322.92Z" fill="#0F79F5"/></g><path d="M87.51 42.45C84.398 45.7 75.096 54.006 55.985 60.95c-14.407 5.241-25.043 6.314-31.326 6.314a43.39 43.39 0 0 1-4.72-.23 1.546 1.546 0 0 1-1.211-.858 38.007 38.007 0 0 1-1.15-2.621c.89.198 1.79.341 2.698.43 4.26.474 16.168.811 34.667-5.917C73.44 51.34 82.33 43.431 85.303 40.336a25.764 25.764 0 0 0 1.793-2.07c.276.874.552 1.778.797 2.744a1.51 1.51 0 0 1-.383 1.44ZM88.116 50.46a1.536 1.536 0 0 0-1.659.17 103.139 103.139 0 0 1-28.632 15.375 103.095 103.095 0 0 1-31.82 6.61 1.533 1.533 0 0 0-1.091 2.576 37.001 37.001 0 0 0 64.035-23.289 1.535 1.535 0 0 0-.833-1.442Z" fill="#0F79F5"/><path d="M88.904 52.595c-.168.153-.352.291-.52.43a106.418 106.418 0 0 1-29.518 15.86 105.99 105.99 0 0 1-32.797 6.79c-.215 0-.445.015-.66 0h-.014c-.261.015-.49.015-.736.015-11.004 0-18.13-2.973-20.123-8.444-2.023-5.578 1.717-12.628 10.56-19.861l-.046.69a36.888 36.888 0 0 0 1.057 10.895c.245.966.521 1.87.812 2.744-.352.434-.67.895-.95 1.379.525.19 1.063.344 1.61.46.889.198 1.79.341 2.697.429 4.26.475 16.168.812 34.667-5.916C73.44 51.34 82.33 43.431 85.303 40.335a25.747 25.747 0 0 0 1.793-2.069c.342-.438.655-.899.935-1.38a11.885 11.885 0 0 0-1.61-.459 37.933 37.933 0 0 0-1.149-2.62 35.962 35.962 0 0 0-6.192-9.012 7.41 7.41 0 0 0-.49-.49c11.448-.153 18.85 2.835 20.874 8.429 2.023 5.578-1.717 12.628-10.56 19.861Z" fill="#FF11E7"/><path opacity=".15" d="M99.464 32.733c-2.023-5.593-9.426-8.582-20.874-8.428a36.757 36.757 0 0 0-9.41-7.08 51.604 51.604 0 0 1 1.44 33.807 44.824 44.824 0 0 1-1.486 4.245 50.864 50.864 0 0 1-3.877 7.754 48.176 48.176 0 0 1-3.219 4.644 51.387 51.387 0 0 1-23.172 16.904A36.237 36.237 0 0 0 51.954 87a37.088 37.088 0 0 0 36.95-34.405c8.843-7.233 12.583-14.283 10.56-19.861ZM88.03 36.888c-.28.48-.593.94-.935 1.379l-.322-.92h-.015c-.108-.306-.23-.613-.338-.92.547.116 1.085.27 1.61.46Z" fill="#0D0D0E" fill-opacity=".6"/><path d="M99.46 32.73c-2.03-5.588-9.433-8.565-20.867-8.433a36.97 36.97 0 0 0-63.482 23.089C6.268 54.626 2.506 61.665 4.539 67.252c1.988 5.468 9.11 8.446 20.123 8.446.242 0 .492-.006.738-.009a36.977 36.977 0 0 0 63.489-23.091c8.843-7.24 12.604-14.28 10.57-19.868ZM18.112 48.237v-.003A33.934 33.934 0 0 1 76.844 26.88c.608.651 1.185 1.33 1.74 2.027a33.819 33.819 0 0 1 3.929 6.238c.532 1.114.98 2.177 1.371 3.25.263.724.497 1.476.722 2.252.03.1.058.204.086.306l-.012.012-.06.059a37.67 37.67 0 0 1-.682.653c-.082.076-.178.162-.265.241-.197.182-.397.365-.618.56-.122.11-.26.226-.39.339-.206.178-.413.357-.637.545-.156.13-.327.268-.492.403a55.4 55.4 0 0 1-.69.558c-.183.145-.38.295-.573.444-.248.192-.5.385-.764.583-.212.158-.435.32-.658.481-.273.2-.552.4-.843.605a76.634 76.634 0 0 1-5.532 3.537c-.316.185-.634.37-.963.557-.4.227-.818.456-1.238.686-.344.188-.686.376-1.042.564-.44.234-.898.468-1.357.702-.367.187-.728.373-1.107.56-.488.242-1 .485-1.51.727-.38.18-.752.361-1.145.542-.549.253-1.126.505-1.699.757-.386.17-.76.34-1.158.51-.652.28-1.337.556-2.02.833-.346.14-.678.283-1.033.423a122.54 122.54 0 0 1-6.552 2.383c-.4.133-.78.248-1.172.374-.66.213-1.324.43-1.965.623-.463.14-.907.264-1.36.395-.546.158-1.097.32-1.628.465-.474.129-.93.244-1.392.363-.485.126-.975.255-1.448.37-.464.112-.912.214-1.364.317-.446.101-.895.205-1.328.298a92.9 92.9 0 0 1-1.32.269c-.41.081-.817.163-1.214.236-.43.08-.85.152-1.266.222a83.688 83.688 0 0 1-2.318.36 77.805 77.805 0 0 1-4.162.47 68.473 68.473 0 0 1-1.835.128c-.269.017-.527.027-.784.038-.303.013-.607.026-.894.034-.243.006-.472.01-.704.012-.273.004-.551.01-.809.01-.222 0-.429-.005-.64-.008-.239-.003-.485-.005-.71-.01-.198-.006-.378-.015-.566-.023-.21-.009-.43-.015-.625-.026-.178-.01-.333-.022-.498-.034-.171-.011-.354-.022-.511-.035l-.121-.268a35.537 35.537 0 0 1-.902-2.209c-.39-1.07-.73-2.178-1.04-3.383l-.003-.005a33.833 33.833 0 0 1-.96-9.962Zm-1.727 14.191c.052-.078.122-.168.18-.25.108-.153.219-.307.345-.472.104.313.212.622.322.929l.002.002c.111.306.228.612.348.919-.199-.044-.377-.09-.555-.137-.102-.026-.22-.052-.315-.08-.279-.08-.53-.16-.747-.241.115-.204.256-.428.42-.67Zm47.21 19.448a33.831 33.831 0 0 1-33.961-6.359l.07-.006c.242-.018.495-.05.74-.07a81.955 81.955 0 0 0 2.913-.285c.443-.052.896-.12 1.344-.18a91.311 91.311 0 0 0 2.438-.35c.509-.082 1.022-.175 1.536-.265a94.412 94.412 0 0 0 3.977-.778 128.722 128.722 0 0 0 4.016-.94c.822-.208 1.646-.43 2.473-.659.527-.145 1.052-.286 1.58-.44.904-.262 1.81-.543 2.716-.828.454-.143.906-.276 1.36-.425a123.086 123.086 0 0 0 8.105-2.948c.435-.174.86-.359 1.291-.538.886-.367 1.768-.736 2.635-1.119.501-.22.99-.448 1.484-.674a119.7 119.7 0 0 0 2.328-1.088 122.622 122.622 0 0 0 5.129-2.635 103.37 103.37 0 0 0 2.11-1.189c.445-.257.893-.512 1.328-.773a94.406 94.406 0 0 0 2.126-1.316c.37-.236.75-.467 1.112-.704a81.9 81.9 0 0 0 2.488-1.703c.177-.125.366-.247.54-.373l.067-.046a33.838 33.838 0 0 1-21.944 26.69v.001Zm22.862-31.243a103.134 103.134 0 0 1-28.632 15.373 125.815 125.815 0 0 1-8.39 2.727c-2.392.684-4.756 1.266-7.087 1.777a85.692 85.692 0 0 1-16.344 2.107H26c-10.21.214-17.017-2.11-18.581-6.413-1.389-3.822 1.368-9.097 7.609-14.721.01.24.047.478.061.717.042.697.098 1.392.18 2.086a36.707 36.707 0 0 0 .514 3.16c.048.23.073.464.125.693l-.024.026-.028.032c-.184.202-.369.41-.553.624-.058.067-.114.136-.171.204-.137.162-.272.325-.406.492-.069.086-.135.173-.203.26a19.707 19.707 0 0 0-.554.753 15.9 15.9 0 0 0-.493.756c-.094.155-.18.308-.263.462-.052.097-.106.193-.153.289-.083.166-.153.33-.22.495-.034.08-.073.162-.103.242a5.109 5.109 0 0 0-.212.714 1.532 1.532 0 0 0 .552 1.519c.436.33.913.6 1.42.805.27.115.554.22.849.317.041.013.086.024.127.037.609.19 1.227.348 1.853.47.903.183 1.81.31 2.619.395h.007a36.278 36.278 0 0 0 1.726.142l.274.019c.29.015.611.027.933.038.118.004.223.01.346.013.318.01.667.011 1.015.014.142.001.268.006.415.006h.03c.135 0 .28-.004.42-.005a59.634 59.634 0 0 0 2.74-.085 71.49 71.49 0 0 0 2.357-.162c.147-.013.304-.03.454-.044.488-.046.988-.096 1.503-.155.242-.027.489-.058.736-.088.47-.058.95-.121 1.443-.191.245-.034.485-.067.734-.104.72-.108 1.459-.226 2.223-.361.132-.023.272-.052.405-.077a92.931 92.931 0 0 0 2.011-.386c.279-.057.562-.118.845-.178.594-.126 1.198-.26 1.814-.404.278-.065.553-.127.837-.195.88-.212 1.778-.437 2.701-.684l.247-.07c.853-.23 1.725-.479 2.617-.744.303-.09.61-.185.918-.28.718-.219 1.449-.45 2.19-.691.312-.102.621-.202.937-.307a126.084 126.084 0 0 0 6.63-2.417 111.23 111.23 0 0 0 11.492-5.3l.46-.249a76.374 76.374 0 0 0 12.518-8.32c.275-.23.522-.444.773-.662.126-.11.267-.226.386-.332a41.037 41.037 0 0 0 2.431-2.318l.004-.005a14.958 14.958 0 0 0 3.955-5.956 1.532 1.532 0 0 0-.552-1.52 5.14 5.14 0 0 0-.622-.41c-.07-.04-.148-.075-.22-.114a7.305 7.305 0 0 0-.502-.244c-.094-.04-.192-.078-.289-.116a11.272 11.272 0 0 0-1.377-.453 19 19 0 0 0-.903-.22c-.108-.024-.216-.048-.325-.07a23.511 23.511 0 0 0-.61-.113c-.096-.017-.19-.035-.284-.05-.237-.04-.47-.074-.702-.105l-.175-.026-.02-.003c-.109-.212-.241-.41-.355-.62a37.055 37.055 0 0 0-1.631-2.746 36.615 36.615 0 0 0-1.2-1.71c-.144-.193-.268-.4-.415-.59 8.397.3 13.898 2.571 15.289 6.394 1.565 4.303-2.124 10.445-10.122 16.855v.001Zm-.04-14.205c.199.045.378.09.555.137.102.027.22.053.315.08.279.08.53.16.748.242-.116.203-.257.429-.422.671-.046.069-.108.148-.158.22-.114.16-.232.325-.366.5a35.41 35.41 0 0 0-.297-.854l-.025-.075-.002-.001a34.654 34.654 0 0 0-.348-.921v.001Z" fill="#272224"/></g><defs><filter id="a" x="0" y="13" width="104" height="82" filterUnits="userSpaceOnUse" color-interpolation-filters="sRGB"><feFlood flood-opacity="0" result="BackgroundImageFix"/><feColorMatrix in="SourceAlpha" values="0 0 0 0 0 0 0 0 0 0 0 0 0 0 0 0 0 0 127 0" result="hardAlpha"/><feOffset dy="4"/><feGaussianBlur stdDeviation="2"/><feComposite in2="hardAlpha" operator="out"/><feColorMatrix values="0 0 0 0 0 0 0 0 0 0 0 0 0 0 0 0 0 0 0.25 0"/><feBlend in2="BackgroundImageFix" result="effect1_dropShadow"/><feBlend in="SourceGraphic" in2="effect1_dropShadow" result="shape"/></filter><filter id="b" x="14.999" y="13.009" width="72.096" height="55.195" filterUnits="userSpaceOnUse" color-interpolation-filters="sRGB"><feFlood flood-opacity="0" result="BackgroundImageFix"/><feBlend in="SourceGraphic" in2="BackgroundImageFix" result="shape"/><feColorMatrix in="SourceAlpha" values="0 0 0 0 0 0 0 0 0 0 0 0 0 0 0 0 0 0 127 0" result="hardAlpha"/><feOffset dy="4"/><feGaussianBlur stdDeviation="2"/><feComposite in2="hardAlpha" operator="arithmetic" k2="-1" k3="1"/><feColorMatrix values="0 0 0 0 0 0 0 0 0 0 0 0 0 0 0 0 0 0 0.25 0"/><feBlend in2="shape" result="effect1_innerShadow"/></filter></defs></svg>