<svg width="70" height="70" viewBox="0 0 70 70" fill="none" xmlns="http://www.w3.org/2000/svg">
<path d="M60 35C60 48.8071 48.8071 60 35 60C21.1929 60 10 48.8071 10 35C10 21.1929 21.1929 10 35 10C48.8071 10 60 21.1929 60 35Z" fill="#FFD15C"/>
<path d="M22.8911 45.2445C23.1068 45.0981 23.3081 44.8786 23.4084 44.567C23.5198 44.2208 23.4541 43.9161 23.4019 43.7475C23.4002 43.7418 23.3984 43.7362 23.3966 43.7305L23.4382 43.4879C23.5529 43.5524 23.685 43.6392 23.8358 43.7452C23.8721 43.7707 23.9228 43.8069 23.9757 43.8446C24.0451 43.8941 24.1182 43.9463 24.167 43.9803C24.2506 44.0384 24.3696 44.1196 24.4955 44.1865C27.8293 46.2585 30.5864 47.1128 32.7763 47.007C35.0403 46.8976 36.628 45.7586 37.447 44.0965C38.2385 42.4899 38.2661 40.4991 37.7114 38.6549C37.1531 36.7987 35.9789 34.9949 34.2287 33.7466C31.2794 31.6431 28.5771 28.4447 27.2106 25.725C26.5166 24.3439 26.2405 23.2299 26.3134 22.5026C26.3473 22.1642 26.451 21.9594 26.5751 21.8276C26.6992 21.6957 26.9254 21.5503 27.3611 21.4785C28.2842 21.3265 29.3517 20.994 30.435 20.6567C30.8556 20.5257 31.2786 20.394 31.6965 20.2718C33.2579 19.8152 34.9111 19.4316 36.6486 19.4349C40.0188 19.4412 43.9739 20.9044 48.1383 26.9913C53.4878 34.8105 50.5508 43.5481 44.3881 48.1383C41.3147 50.4275 37.48 51.6426 33.5396 51.1806C29.9916 50.7646 26.2755 48.9791 22.8911 45.2445ZM23.5115 43.2208C23.5116 43.2209 23.5104 43.2233 23.5077 43.2273C23.5101 43.2226 23.5115 43.2206 23.5115 43.2208ZM23.1767 43.3735C23.1765 43.3733 23.1799 43.3736 23.1874 43.3754C23.1805 43.3747 23.1768 43.3738 23.1767 43.3735Z" fill="white" stroke="black" stroke-width="2.01315"/>
<path d="M25.9536 21.8777C25.9536 21.8777 35.5104 19.333 37.6028 19.333C39.6951 19.333 48.056 23.3931 50.496 30.8125C53.9551 41.3307 44.5464 48.2272 43.4839 47.5511C53.6062 39.1818 37.0373 23.7117 28.8942 24.8748C27.8763 25.0202 28.4418 25.8927 28.4418 25.8927L28.2156 28.1547L26.5191 25.3272L25.9536 21.8777Z" fill="black"/>
<path d="M49.1035 27.6487C52.1215 32.9612 51.4942 29.9196 50.8243 35.9927C52.0641 33.9872 54.0026 35.4889 54.8032 36.2557C54.9467 36.3931 55.1835 36.3079 55.1768 36.1094C55.1463 35.2085 54.8881 33.262 53.3969 31.1737C51.3522 28.3101 49.1035 27.6487 49.1035 27.6487Z" fill="black"/>
<path d="M50.8243 35.9927C50.9397 35.7076 51.1198 35.2626 51.1198 35.2626M50.8243 35.9927C51.4942 29.9196 52.1215 32.9612 49.1035 27.6487C49.1035 27.6487 51.3522 28.3101 53.3969 31.1737C54.8881 33.262 55.1463 35.2085 55.1768 36.1094C55.1835 36.3079 54.9467 36.3931 54.8032 36.2557C54.0026 35.4889 52.0641 33.9872 50.8243 35.9927Z" stroke="black" stroke-width="0.113098"/>
<path d="M24.8228 35.1826C23.5495 37.3384 20.937 37.1767 20.987 39.7479C23.3205 44.9323 23.3343 44.5604 23.3343 44.5604C27.6566 42.1323 25.8804 36.7707 25.239 35.1938C25.1665 35.0155 24.9206 35.0169 24.8228 35.1826Z" fill="black"/>
<path d="M15.0249 39.949C17.5076 40.2729 18.9886 38.1146 20.984 39.737C23.6327 44.7677 23.3312 44.5496 23.3312 44.5496C18.7566 46.4608 15.6253 41.7601 14.7775 40.2839C14.6817 40.117 14.8341 39.9241 15.0249 39.949Z" fill="black"/>
<path d="M35.8497 36.7505C35.8497 36.7505 38.3379 39.2955 37.0372 39.6911C35.4154 38.6928 32.5092 39.4686 31.0846 39.949C30.7339 40.0673 30.3901 39.756 30.5165 39.4082C31.0009 38.0753 32.197 35.608 34.4925 35.2802C35.8497 34.9407 35.8497 36.7505 35.8497 36.7505Z" fill="black"/>
<path d="M37.3761 24.3094C37.0934 23.9135 36.5279 22.8391 38.2809 22.8391C40.034 22.8391 42.7126 24.8241 43.2573 25.5583C43.0876 26.0059 41.9566 26.1059 41.3911 26.0624C40.8256 26.0189 39.8643 25.9259 39.1292 25.5583C38.394 25.1908 37.6589 24.7052 37.3761 24.3094Z" fill="white"/>
</svg>
