<svg width="100" height="100" viewBox="0 0 100 100" fill="none" xmlns="http://www.w3.org/2000/svg">
<path d="M50.0587 79.9999C52.4953 79.9999 54.4705 78.0246 54.4705 75.5881C54.4705 73.1515 52.4953 71.1763 50.0587 71.1763C47.6222 71.1763 45.647 73.1515 45.647 75.5881C45.647 78.0246 47.6222 79.9999 50.0587 79.9999Z" fill="#2261F6"/>
<path d="M50.0587 28.8235C52.4953 28.8235 54.4705 26.8483 54.4705 24.4118C54.4705 21.9752 52.4953 20 50.0587 20C47.6222 20 45.647 21.9752 45.647 24.4118C45.647 26.8483 47.6222 28.8235 50.0587 28.8235Z" fill="#2261F6"/>
<path d="M50.0592 40.8823C52.0084 40.8823 53.5886 39.3021 53.5886 37.3528C53.5886 35.4036 52.0084 33.8234 50.0592 33.8234C48.11 33.8234 46.5298 35.4036 46.5298 37.3528C46.5298 39.3021 48.11 40.8823 50.0592 40.8823Z" fill="#2261F6"/>
<path d="M37.7062 34.4118C39.6554 34.4118 41.2356 32.8316 41.2356 30.8824C41.2356 28.9331 39.6554 27.3529 37.7062 27.3529C35.7569 27.3529 34.1768 28.9331 34.1768 30.8824C34.1768 32.8316 35.7569 34.4118 37.7062 34.4118Z" fill="#2261F6"/>
<path d="M37.7062 72.9412C39.6554 72.9412 41.2356 71.3611 41.2356 69.4118C41.2356 67.4626 39.6554 65.8824 37.7062 65.8824C35.7569 65.8824 34.1768 67.4626 34.1768 69.4118C34.1768 71.3611 35.7569 72.9412 37.7062 72.9412Z" fill="#2261F6"/>
<path d="M61.088 47.4999C63.0373 47.4999 64.6174 45.9197 64.6174 43.9705C64.6174 42.0212 63.0373 40.4411 61.088 40.4411C59.1388 40.4411 57.5586 42.0212 57.5586 43.9705C57.5586 45.9197 59.1388 47.4999 61.088 47.4999Z" fill="#2261F6"/>
<path d="M61.088 59.7061C63.0373 59.7061 64.6174 58.1259 64.6174 56.1767C64.6174 54.2274 63.0373 52.6472 61.088 52.6472C59.1388 52.6472 57.5586 54.2274 57.5586 56.1767C57.5586 58.1259 59.1388 59.7061 61.088 59.7061Z" fill="#2261F6"/>
<path d="M50.0592 66.1766C52.0084 66.1766 53.5886 64.5964 53.5886 62.6472C53.5886 60.6979 52.0084 59.1178 50.0592 59.1178C48.11 59.1178 46.5298 60.6979 46.5298 62.6472C46.5298 64.5964 48.11 66.1766 50.0592 66.1766Z" fill="#2261F6"/>
<path d="M50.0593 52.7939C51.6024 52.7939 52.8534 51.5429 52.8534 49.9998C52.8534 48.4566 51.6024 47.2057 50.0593 47.2057C48.5161 47.2057 47.2651 48.4566 47.2651 49.9998C47.2651 51.5429 48.5161 52.7939 50.0593 52.7939Z" fill="#2261F6"/>
<path d="M37.7057 59.1179C39.2489 59.1179 40.4999 57.8669 40.4999 56.3238C40.4999 54.7806 39.2489 53.5297 37.7057 53.5297C36.1626 53.5297 34.9116 54.7806 34.9116 56.3238C34.9116 57.8669 36.1626 59.1179 37.7057 59.1179Z" fill="#2261F6"/>
<path d="M37.7057 46.7646C39.2489 46.7646 40.4999 45.5136 40.4999 43.9705C40.4999 42.4273 39.2489 41.1764 37.7057 41.1764C36.1626 41.1764 34.9116 42.4273 34.9116 43.9705C34.9116 45.5136 36.1626 46.7646 37.7057 46.7646Z" fill="#2261F6"/>
<path d="M25.6472 39.4118C26.7843 39.4118 27.706 38.49 27.706 37.353C27.706 36.2159 26.7843 35.2941 25.6472 35.2941C24.5101 35.2941 23.5884 36.2159 23.5884 37.353C23.5884 38.49 24.5101 39.4118 25.6472 39.4118Z" fill="#2261F6"/>
<path d="M25.6472 52.0587C26.7843 52.0587 27.706 51.137 27.706 49.9999C27.706 48.8628 26.7843 47.9411 25.6472 47.9411C24.5101 47.9411 23.5884 48.8628 23.5884 49.9999C23.5884 51.137 24.5101 52.0587 25.6472 52.0587Z" fill="#2261F6"/>
<path d="M25.6472 64.7055C26.7843 64.7055 27.706 63.7838 27.706 62.6467C27.706 61.5096 26.7843 60.5879 25.6472 60.5879C24.5101 60.5879 23.5884 61.5096 23.5884 62.6467C23.5884 63.7838 24.5101 64.7055 25.6472 64.7055Z" fill="#2261F6"/>
<path d="M61.0885 35.2946C63.5251 35.2946 65.5003 33.3194 65.5003 30.8829C65.5003 28.4463 63.5251 26.4711 61.0885 26.4711C58.652 26.4711 56.6768 28.4463 56.6768 30.8829C56.6768 33.3194 58.652 35.2946 61.0885 35.2946Z" fill="#2261F6"/>
<path d="M61.0885 73.6765C63.5251 73.6765 65.5003 71.7013 65.5003 69.2647C65.5003 66.8282 63.5251 64.8529 61.0885 64.8529C58.652 64.8529 56.6768 66.8282 56.6768 69.2647C56.6768 71.7013 58.652 73.6765 61.0885 73.6765Z" fill="#2261F6"/>
<path d="M72.1178 41.7645C74.5544 41.7645 76.5296 39.7893 76.5296 37.3527C76.5296 34.9162 74.5544 32.941 72.1178 32.941C69.6813 32.941 67.7061 34.9162 67.7061 37.3527C67.7061 39.7893 69.6813 41.7645 72.1178 41.7645Z" fill="#2261F6"/>
<path d="M72.1178 67.0589C74.5544 67.0589 76.5296 65.0837 76.5296 62.6472C76.5296 60.2106 74.5544 58.2354 72.1178 58.2354C69.6813 58.2354 67.7061 60.2106 67.7061 62.6472C67.7061 65.0837 69.6813 67.0589 72.1178 67.0589Z" fill="#2261F6"/>
<path d="M72.1178 54.4114C74.5544 54.4114 76.5296 52.4362 76.5296 49.9997C76.5296 47.5631 74.5544 45.5879 72.1178 45.5879C69.6813 45.5879 67.7061 47.5631 67.7061 49.9997C67.7061 52.4362 69.6813 54.4114 72.1178 54.4114Z" fill="#2261F6"/>
</svg>
