<svg width="100" height="100" viewBox="0 0 100 100" fill="none" xmlns="http://www.w3.org/2000/svg">
<path fill-rule="evenodd" clip-rule="evenodd" d="M37.9976 59.6648L32.3008 69.5311H43.6978L37.9976 59.6648Z" fill="#FF852D"/>
<path fill-rule="evenodd" clip-rule="evenodd" d="M45.7257 7.99438L45.8165 8.09352C45.7005 8.37496 45.5737 8.64547 45.4191 8.90507L45.3031 8.91095C44.2883 10.6433 42.9525 12.1664 41.363 13.4022L41.5672 13.3854C39.9063 14.4507 38.1353 15.3109 36.2753 15.957L36.2703 16.0007C34.5405 16.624 32.7225 16.9441 30.8792 16.9441C30.7776 16.9441 30.6776 16.9441 30.5734 16.9441L30.5844 17.0878C28.4765 17.5843 26.9038 19.3166 26.6442 21.4303L26.6089 21.4194L26.2032 25.8938L26.1679 25.8888C26.0545 26.3912 25.999 26.9037 25.999 27.422C25.999 29.0283 26.551 30.5951 27.5667 31.8696L27.5171 31.9091C28.3446 32.8962 29.3519 33.7187 30.4886 34.3311L30.4751 34.442L31.49 30.4741L34.238 30.9816L34.748 44.3066L34.737 44.3242C35.9594 50.1395 38.7545 55.5087 42.8013 59.8571L42.7794 59.9672L73.9997 92.0057L64.0368 56.001L64.02 56.0069C64.0318 55.6977 64.0368 55.3944 64.0368 55.0853C64.0368 52.3482 63.6563 49.622 62.9002 46.984L62.8035 47.1941C60.5445 40.4404 56.7262 34.321 51.6544 29.3324L51.7703 29.2543C51.4503 25.7292 49.8389 22.4401 47.2514 20.0063L47.2018 19.924C48.2998 18.3244 48.8846 16.4367 48.8846 14.5053C48.8846 12.221 48.068 10.014 46.5751 8.26994L46.0433 8.20441C46.0735 8.0826 46.1533 7.99438 46.2365 7.99438C46.3222 7.99438 46.402 8.0826 46.4272 8.20441L45.7257 7.99438Z" fill="#FF852D"/>
</svg>
