<svg width="100" height="100" viewBox="0 0 100 100" fill="none" xmlns="http://www.w3.org/2000/svg">
<path d="M30.3403 62.5V70.1364H37.7759V68.2272H48V85C30.8714 84.0454 16.9295 69.591 16 52H32.332V62.3636L30.3403 62.5Z" fill="#005CC7"/>
<path d="M62.5 68.1576V70.0747H70.1364V62.4066H68.2272V52H85C84.0455 69.664 69.591 84.0415 52 85V68.1576H62.5Z" fill="#005CC7"/>
<path d="M48.2928 33.1025H62.4962V30.7949H70V39.2105H62.4962V36.903H48.2928V52.6482L64.3721 52.7839V63.0997H62.4962V65H37.9751V63.0997H36.2332V38.3961H38.1091V30.7949H30.6055V38.3961H32.4814V48.7118H16C16.938 31.2022 31.1415 16.9501 48.2928 16V33.1025Z" fill="#005CC7"/>
</svg>
