<?xml version="1.0" standalone="no"?>
<!DOCTYPE svg PUBLIC "-//W3C//DTD SVG 20010904//EN"
 "http://www.w3.org/TR/2001/REC-SVG-20010904/DTD/svg10.dtd">
<svg version="1.0" xmlns="http://www.w3.org/2000/svg"
 width="300.000000pt" height="300.000000pt" viewBox="0 0 300.000000 300.000000"
 preserveAspectRatio="xMidYMid meet">
<metadata>
Created by potrace 1.10, written by Peter Selinger 2001-2011
</metadata>
<g transform="translate(0.000000,300.000000) scale(0.100000,-0.100000)"
fill="#000000" stroke="none">
<path d="M1220 2624 l0 -75 -145 3 -145 3 0 -72 0 -73 -75 0 -75 0 0 -70 0
-70 59 0 c90 0 91 -1 91 -83 0 -39 3 -67 7 -64 3 4 5 34 4 67 l-2 59 128 4
128 3 -132 2 -133 2 0 75 0 75 145 0 145 0 0 69 c0 65 2 70 23 73 12 2 145 2
295 0 l272 -3 0 -69 0 -70 145 0 145 0 0 -75 0 -75 -127 -2 -128 -2 120 -6
120 -5 2 -59 c1 -32 6 -63 10 -67 5 -5 36 -10 68 -12 l60 -2 5 -140 c3 -77 9
-135 13 -128 8 13 8 248 0 270 -4 9 -27 13 -74 13 l-69 0 0 69 c0 80 1 81 91
81 l59 0 0 70 0 70 -75 0 -75 0 0 73 0 72 -145 -3 -145 -3 0 75 0 76 -295 0
-295 0 0 -76z m560 4 l0 -43 -265 0 -265 0 0 43 0 42 265 0 265 0 0 -42z
m-598 -180 c-2 -5 -52 -8 -113 -8 l-109 0 0 40 0 39 108 3 107 3 5 -35 c3 -19
4 -38 2 -42z m806 73 l82 -1 0 -39 0 -40 -92 -3 c-136 -4 -138 -4 -138 41 0
45 2 47 37 45 15 -1 65 -3 111 -3z m-1096 -171 c0 -16 1 -36 2 -42 1 -9 -13
-13 -39 -12 -40 0 -40 1 -43 42 l-3 42 40 0 c39 0 41 -2 43 -30z m1318 -10 c0
-40 0 -40 -40 -40 -40 0 -40 0 -40 40 0 40 0 40 40 40 40 0 40 0 40 -40z"/>
<path d="M1224 2396 c-3 -7 -3 -38 -1 -67 l3 -54 2 62 2 61 283 -1 282 -2 6
-50 6 -50 -1 55 -1 55 -288 3 c-237 2 -288 0 -293 -12z"/>
<path d="M1340 2360 c0 -13 -7 -20 -20 -20 -15 0 -20 -7 -20 -25 0 -18 5 -25
20 -25 11 0 20 -6 20 -14 0 -8 -9 -18 -20 -21 -16 -5 -20 -15 -20 -46 0 -35
-3 -39 -24 -39 -19 0 -23 -4 -19 -20 4 -15 0 -20 -16 -20 -15 0 -21 -6 -21
-24 0 -20 -4 -22 -27 -18 -23 4 -25 2 -20 -17 4 -17 1 -21 -18 -21 -18 0 -22
-4 -18 -20 4 -16 0 -20 -21 -20 -19 0 -26 -5 -26 -20 0 -17 -7 -20 -41 -20
-33 0 -40 -3 -35 -16 3 -9 6 -19 6 -22 0 -4 5 0 11 8 8 11 12 12 16 3 8 -21
43 -15 43 7 0 11 5 20 10 20 6 0 10 7 10 16 0 8 4 13 9 9 5 -3 16 3 23 13 7
10 21 21 31 25 9 3 17 13 17 22 0 8 9 15 19 15 12 0 23 9 27 22 7 25 34 49 46
42 3 -2 9 5 13 16 7 24 21 26 41 6 15 -16 20 -51 5 -42 -10 7 -21 -17 -21 -45
0 -10 -4 -19 -10 -19 -5 0 -10 -9 -10 -20 0 -11 7 -20 16 -20 8 0 12 -4 9 -10
-3 -6 5 -10 19 -11 14 0 39 -1 54 -2 15 0 34 3 40 7 7 4 18 4 25 -2 7 -5 40
-6 75 -3 35 4 65 5 67 2 10 -9 77 -4 111 9 21 9 34 20 34 32 0 10 -4 18 -9 18
-5 0 -11 14 -14 30 -4 18 -13 30 -22 30 -8 0 -15 9 -15 20 0 22 15 27 23 8 3
-7 6 -3 6 10 1 12 7 22 16 22 9 0 15 -9 15 -22 0 -17 3 -19 9 -10 7 11 9 11
14 -2 4 -9 13 -16 20 -16 9 0 19 -22 28 -57 7 -32 15 -50 17 -40 2 9 8 17 14
17 5 0 8 -7 4 -15 -4 -11 6 -18 39 -26 25 -6 42 -15 39 -20 -3 -5 0 -9 5 -9 6
0 11 -9 11 -20 0 -15 7 -20 26 -20 14 0 23 4 19 10 -3 6 1 10 9 10 8 0 18 -9
21 -20 5 -15 15 -20 43 -21 30 0 33 -2 17 -9 -19 -8 -19 -9 1 -9 18 -1 34 16
34 35 0 2 -21 4 -46 4 -41 0 -45 2 -39 20 6 18 2 20 -39 20 -39 0 -46 3 -46
20 0 13 -7 20 -20 20 -13 0 -20 7 -20 20 0 13 -7 20 -20 20 -14 0 -20 7 -20
21 0 16 -5 20 -20 16 -16 -4 -20 0 -20 23 0 23 -4 27 -20 23 -15 -4 -20 0 -20
16 0 14 -6 21 -20 21 -15 0 -20 7 -20 24 0 15 -7 26 -17 29 -17 4 -17 5 0 6 9
0 17 5 17 10 0 5 9 11 20 14 12 3 20 14 20 25 0 15 -5 19 -20 15 -11 -3 -20
-14 -20 -24 0 -26 -25 -24 -45 4 -13 19 -17 20 -25 7 -6 -10 -10 -11 -10 -2 0
6 -11 12 -25 12 -20 0 -25 5 -25 24 0 22 5 25 42 28 31 2 44 8 46 21 3 16 -11
17 -182 17 -179 0 -186 -1 -186 -20z m270 -45 c0 -19 -5 -25 -21 -25 -13 0
-18 -4 -13 -12 5 -7 2 -9 -9 -5 -8 3 -43 9 -76 13 -53 6 -61 9 -62 28 -2 19
-2 19 -6 -2 -3 -18 -10 -23 -24 -19 -13 4 -19 0 -20 -11 0 -11 -2 -12 -6 -4
-2 6 -11 12 -19 12 -8 0 -14 10 -14 25 l0 25 135 0 135 0 0 -25z m-190 -82 c0
-20 -4 -24 -20 -20 -16 4 -20 0 -20 -19 0 -17 -6 -24 -20 -24 -17 0 -20 7 -20
44 l0 45 40 -1 c36 0 40 -3 40 -25z m167 6 c-4 -13 0 -22 11 -26 9 -3 29 -17
45 -31 35 -33 36 -75 2 -98 -28 -18 -25 -34 6 -34 16 0 19 5 14 20 -5 16 -2
20 19 20 24 0 26 -4 26 -40 l0 -40 -45 0 c-38 0 -45 3 -45 20 0 14 -7 20 -21
20 -16 0 -19 -4 -14 -20 6 -19 2 -20 -59 -20 -56 0 -66 3 -66 18 0 10 -14 23
-32 31 -42 18 -48 27 -48 74 0 42 27 77 60 77 15 0 20 7 20 25 0 24 2 25 66
25 62 0 66 -1 61 -21z m123 -24 c0 -41 -2 -45 -25 -45 -20 0 -24 5 -22 23 2
18 -2 21 -20 19 -19 -3 -23 2 -23 22 0 24 3 26 45 26 l45 0 0 -45z m-330 -146
c0 -16 5 -20 20 -16 16 4 20 0 20 -19 0 -21 -4 -24 -40 -24 -40 0 -40 0 -40
40 0 33 3 40 20 40 14 0 20 -7 20 -21z m480 -9 c0 -5 -7 -10 -15 -10 -8 0 -15
5 -15 10 0 6 7 10 15 10 8 0 15 -4 15 -10z m30 -35 c10 -12 10 -15 -4 -15 -9
0 -16 7 -16 15 0 8 2 15 4 15 2 0 9 -7 16 -15z"/>
<path d="M1500 2150 c0 -13 -7 -20 -20 -20 -13 0 -20 -7 -20 -20 0 -17 7 -20
46 -20 41 0 45 2 42 23 -2 18 1 21 20 19 17 -3 22 2 22 17 0 18 -6 21 -45 21
-38 0 -45 -3 -45 -20z"/>
<path d="M1707 2321 c-6 -24 0 -31 25 -31 13 0 18 7 18 25 0 31 -35 35 -43 6z"/>
<path d="M1255 2291 c-2 -5 2 -16 9 -26 14 -19 36 -13 36 9 0 15 -37 29 -45
17z"/>
<path d="M640 2194 l0 -74 -75 0 -75 0 0 -145 0 -145 -70 0 -70 0 0 -301 0
-301 23 6 c12 3 43 6 70 6 l47 0 0 295 0 295 75 0 75 0 0 -294 c0 -333 8 -306
-91 -306 l-59 0 0 -143 0 -142 75 3 75 4 0 -76 0 -76 70 0 70 0 0 -70 0 -70
75 0 75 0 0 -75 0 -75 145 0 145 0 0 -70 0 -70 295 0 295 0 0 70 0 70 145 0
145 0 0 75 0 75 75 0 75 0 0 70 0 70 70 0 70 0 0 76 0 76 75 -4 75 -3 0 141 0
142 -71 4 c-39 2 -73 1 -75 -1 -2 -2 -4 -66 -4 -142 l0 -139 -26 -6 c-14 -4
-45 -4 -70 0 l-44 6 0 -75 0 -75 -75 0 -75 0 0 -70 0 -70 -145 0 -145 0 -2 73
-2 72 -3 -67 -4 -68 -284 0 -285 0 0 64 c0 39 -5 68 -12 72 -6 4 -72 7 -146 7
-124 -1 -134 0 -129 17 2 10 0 24 -5 31 -6 10 -8 3 -6 -21 l3 -35 143 -3 142
-3 0 -69 0 -70 -145 0 -145 0 0 70 0 70 -75 0 -75 0 0 75 0 75 -44 -6 c-25 -4
-56 -4 -70 0 l-26 6 0 145 0 145 73 2 72 2 -67 3 -68 4 1 285 1 284 52 -4 c29
-2 59 0 67 5 9 5 -13 9 -58 9 l-73 0 0 145 0 145 70 0 71 0 -3 71 -3 70 -67 4
-68 4 0 -75z m110 -4 c0 -40 0 -40 -40 -40 -40 0 -40 0 -40 40 0 40 0 40 40
40 40 0 40 0 40 -40z m-147 -218 l2 -112 -36 0 c-44 0 -45 5 -41 138 l3 93 35
-3 36 -3 1 -113z m-143 -436 l0 -264 -35 -4 c-20 -2 -38 -2 -40 1 -3 2 -5 123
-5 268 l0 263 40 0 40 0 0 -264z m149 -441 l2 -115 -40 0 -40 0 -3 105 c-2 58
-2 109 0 113 1 5 20 9 41 10 l39 3 1 -116z m1879 106 c15 -8 17 -24 14 -115
l-3 -106 -40 0 -39 0 0 115 0 115 26 0 c14 0 33 -4 42 -9z m-1738 -328 l0 -43
-40 0 c-40 0 -40 0 -40 38 0 21 2 41 4 43 3 3 21 4 40 4 36 0 36 -1 36 -42z
m1608 0 l3 -43 -40 0 c-41 0 -41 0 -41 38 0 47 1 48 42 47 32 0 33 -2 36 -42z
m-1466 -147 c-3 -35 -7 -43 -20 -41 -10 2 -27 4 -39 4 -20 1 -23 6 -23 41 l0
40 43 0 42 0 -3 -44z m1320 4 c-4 -39 -5 -40 -43 -40 -39 0 -39 0 -39 40 l0
40 43 0 43 0 -4 -40z m-402 -145 l0 -75 -295 0 -295 0 0 75 0 75 295 0 295 0
0 -75z m178 36 l82 -1 0 -40 0 -40 -115 0 -115 0 0 38 c0 46 3 50 38 46 15 -1
64 -2 110 -3z m-808 -41 l0 -40 -110 0 -110 0 0 40 0 40 110 0 110 0 0 -40z
m600 -140 l0 -40 -265 0 -265 0 0 40 0 40 265 0 265 0 0 -40z"/>
<path d="M2254 2261 c-2 -2 -4 -35 -4 -73 l0 -68 70 0 70 0 0 -145 0 -145 -72
0 c-40 0 -68 -4 -61 -8 7 -4 37 -7 66 -6 l55 3 -1 -284 0 -284 -66 -4 -66 -3
73 -2 72 -2 0 295 0 295 75 0 75 0 0 -295 0 -295 48 0 c26 0 57 -3 70 -6 l22
-6 0 301 0 301 -70 0 -70 0 0 145 0 145 -75 0 -75 0 0 73 0 74 -66 -1 c-36 -1
-67 -3 -70 -5z m89 -30 c13 -1 17 -10 17 -41 0 -40 0 -40 -40 -40 -25 0 -41 5
-42 13 0 6 -2 19 -3 27 -2 25 14 48 32 45 10 -2 26 -4 36 -4z m157 -256 l0
-115 -40 0 -40 0 0 115 0 115 40 0 40 0 0 -115z m150 -440 l0 -265 -40 0 -39
0 -3 261 c-2 143 -1 263 1 265 2 2 22 4 43 4 l38 0 0 -265z"/>
<path d="M1217 2254 c-8 -9 11 -44 24 -44 16 0 23 31 8 41 -17 10 -24 11 -32
3z"/>
<path d="M1803 2253 c-7 -2 -13 -14 -13 -25 0 -28 34 -19 38 10 3 22 -2 25
-25 15z"/>
<path d="M1170 2196 c0 -19 -5 -26 -19 -26 -15 0 -18 -5 -14 -21 5 -19 3 -21
-21 -17 -23 5 -27 2 -24 -15 4 -28 48 -35 48 -7 0 11 7 20 15 20 8 0 15 9 15
20 0 15 7 20 25 20 18 0 25 5 25 20 0 11 -4 20 -9 20 -5 0 -16 3 -25 6 -12 5
-16 0 -16 -20z"/>
<path d="M1843 2213 c-21 -8 -15 -43 7 -43 13 0 20 -7 20 -20 0 -13 7 -20 20
-20 13 0 20 7 20 20 0 13 -7 20 -20 20 -15 0 -20 7 -20 25 0 25 -4 28 -27 18z"/>
<path d="M1260 2199 c0 -5 5 -7 10 -4 6 3 10 8 10 11 0 2 -4 4 -10 4 -5 0 -10
-5 -10 -11z"/>
<path d="M1928 2132 c-25 -5 -23 -42 2 -42 13 0 20 -7 20 -20 0 -24 35 -28 44
-4 9 23 8 24 -18 24 -18 0 -26 6 -28 23 -2 15 -9 21 -20 19z"/>
<path d="M786 2104 c-11 -28 -7 -262 5 -270 6 -3 10 1 9 12 -1 11 -2 74 -1
141 l1 122 63 4 62 3 -66 2 c-53 2 -68 -1 -73 -14z"/>
<path d="M1050 2075 c0 -25 -1 -25 -80 -25 -73 0 -80 -2 -80 -20 0 -14 -7 -20
-22 -20 -22 0 -23 -3 -21 -82 1 -53 5 -83 12 -82 6 1 16 2 21 3 6 0 10 35 10
81 l0 80 80 0 c73 0 80 2 80 20 0 13 7 20 20 20 24 0 28 35 4 44 -23 9 -24 8
-24 -19z"/>
<path d="M1990 2031 c0 -11 -6 -21 -12 -24 -8 -2 -9 -8 -4 -13 5 -5 11 -4 13
4 3 8 29 12 83 12 74 0 90 6 90 36 0 2 -38 4 -85 4 -77 0 -85 -2 -85 -19z"/>
<path d="M1060 1999 c0 -5 5 -7 10 -4 6 3 10 8 10 11 0 2 -4 4 -10 4 -5 0 -10
-5 -10 -11z"/>
<path d="M2158 1968 c0 -24 0 -50 0 -58 3 -30 -9 -60 -24 -60 -20 0 -30 -30
-13 -41 28 -17 42 -10 35 17 -6 24 -5 26 19 20 l25 -6 0 85 c0 78 -2 85 -20
85 -17 0 -20 -7 -22 -42z"/>
<path d="M1301 1984 c0 -11 3 -14 6 -6 3 7 2 16 -1 19 -3 4 -6 -2 -5 -13z"/>
<path d="M930 1955 c0 -12 4 -14 16 -7 9 5 25 7 35 5 11 -3 19 0 19 6 0 6 -16
11 -35 11 -25 0 -35 -4 -35 -15z"/>
<path d="M1340 1951 c0 -16 -8 -20 -42 -23 -31 -2 -44 -8 -46 -20 -3 -15 4
-18 42 -18 39 0 46 3 46 20 0 19 7 20 205 20 198 0 205 1 205 20 0 19 -7 20
-205 20 -196 0 -205 -1 -205 -19z"/>
<path d="M2050 1960 c0 -12 17 -12 45 0 17 7 15 9 -12 9 -18 1 -33 -3 -33 -9z"/>
<path d="M930 1910 c0 -13 7 -20 20 -20 11 0 20 6 20 14 0 9 7 12 20 9 11 -3
20 0 20 6 0 6 -17 11 -40 11 -33 0 -40 -3 -40 -20z"/>
<path d="M1747 1910 c-5 -18 0 -20 39 -20 41 0 44 -2 44 -26 0 -20 4 -25 16
-20 9 3 18 6 20 6 2 0 4 9 4 20 0 13 -7 20 -20 20 -13 0 -20 7 -20 20 0 17 -7
20 -39 20 -30 0 -40 -4 -44 -20z"/>
<path d="M1614 1886 c-3 -8 -4 -23 -1 -33 3 -12 5 -9 6 9 1 26 4 27 59 31 l57
3 -58 2 c-42 1 -59 -2 -63 -12z"/>
<path d="M1220 1875 c0 -19 -37 -38 -62 -32 -14 4 -22 -1 -28 -19 -5 -13 -17
-24 -26 -24 -11 0 -15 -6 -11 -20 6 -25 -28 -71 -48 -63 -8 3 -15 9 -15 15 0
5 5 6 10 3 6 -3 10 -1 10 4 0 6 8 12 18 13 9 1 -8 4 -38 7 -47 5 -55 9 -58 29
-5 32 -42 30 -42 -3 0 -18 5 -25 20 -25 13 0 20 -7 20 -20 0 -14 7 -20 23 -20
21 0 22 -3 19 -60 -4 -57 -3 -60 20 -60 l23 0 -3 -120 c-3 -115 -2 -120 17
-120 19 0 21 -6 21 -66 0 -62 1 -65 23 -62 20 3 22 8 21 66 l-1 62 104 0 103
0 0 -65 c0 -58 2 -65 20 -65 13 0 20 -7 20 -20 0 -19 7 -20 120 -20 113 0 120
1 120 20 0 15 7 20 25 20 25 0 26 1 23 63 l-3 62 -37 3 c-35 3 -38 1 -38 -22
0 -21 -5 -26 -26 -26 -20 0 -25 4 -20 16 3 9 6 19 6 24 0 5 8 10 17 12 10 2
-27 3 -82 3 -55 0 -92 -1 -82 -3 25 -5 23 -52 -2 -52 -16 0 -20 8 -23 42 l-3
42 -142 0 -143 -1 0 123 c0 117 -1 124 -20 124 -13 0 -20 7 -20 20 0 13 7 20
20 20 13 0 20 7 20 20 0 19 7 20 105 20 98 0 105 1 105 20 0 19 7 20 225 20
218 0 225 -1 225 -20 0 -19 7 -20 101 -20 l101 0 -5 -37 c-3 -21 -3 -30 -1
-20 8 25 54 23 54 -3 0 -15 -7 -20 -25 -20 l-25 0 0 -120 c0 -100 3 -120 15
-120 8 0 18 0 21 0 4 0 6 45 5 100 -2 99 -2 100 22 100 22 0 23 2 19 60 -4 59
-4 60 22 60 19 0 26 5 26 20 0 14 7 20 21 20 15 0 19 4 15 16 -3 9 -6 20 -6
25 0 20 -29 8 -32 -13 -2 -19 -10 -24 -40 -26 -30 -3 -38 -7 -38 -23 0 -33
-42 -20 -51 15 -6 22 -5 26 3 18 18 -18 35 -14 41 8 4 17 0 20 -23 20 -41 0
-60 10 -60 31 0 12 -7 19 -20 19 -15 0 -20 -7 -20 -26 0 -21 4 -24 20 -19 16
5 20 2 20 -19 0 -26 -1 -26 -80 -26 -76 0 -80 1 -80 23 l0 22 -225 0 -225 0 0
-22 c0 -22 -3 -23 -86 -23 -83 0 -85 1 -82 23 3 20 8 22 47 19 43 -4 44 -3 37
22 -6 23 -3 26 20 26 20 0 25 4 20 16 -3 9 -6 18 -6 20 0 2 -7 4 -15 4 -8 0
-15 -7 -15 -15z m280 -540 c0 -18 -5 -25 -20 -25 -15 0 -20 7 -20 25 0 18 5
25 20 25 15 0 20 -7 20 -25z m143 -41 c-3 -20 -16 -46 -29 -59 -20 -20 -32
-23 -111 -23 -79 0 -92 3 -116 24 -36 30 -37 63 -2 56 14 -2 32 1 40 8 12 10
19 10 27 2 15 -15 51 -15 65 -1 8 8 13 8 17 0 12 -18 55 -12 68 9 7 11 20 20
30 20 14 0 16 -7 11 -36z"/>
<path d="M1453 1845 c-3 -9 -3 -19 1 -22 3 -4 6 1 6 10 0 13 14 17 73 20 l72
3 -73 2 c-57 2 -74 -1 -79 -13z"/>
<path d="M890 1825 c0 -27 1 -28 24 -19 24 9 20 44 -4 44 -15 0 -20 -7 -20
-25z"/>
<path d="M1262 1820 c0 -14 2 -19 5 -12 2 6 2 18 0 25 -3 6 -5 1 -5 -13z"/>
<path d="M1825 1809 c-4 -6 -5 -12 -2 -15 2 -3 7 2 10 11 7 17 1 20 -8 4z"/>
<path d="M1671 1738 c-1 -16 -15 -18 -150 -18 l-149 0 6 -22 c5 -19 7 -20 10
-5 7 34 32 19 33 -20 l2 -38 7 40 c4 22 8 33 9 25 1 -13 2 -13 11 0 8 13 10
12 10 -3 0 -10 5 -15 10 -12 6 4 8 10 5 15 -6 10 21 7 31 -3 11 -11 36 -8 29
3 -3 6 4 10 17 10 18 0 20 -2 8 -10 -12 -8 -11 -10 8 -10 12 0 22 5 22 10 0
17 18 11 23 -7 4 -17 5 -17 6 0 0 9 8 17 16 17 8 0 15 -8 15 -17 1 -16 2 -15
13 2 7 12 21 20 32 19 14 -2 15 -1 3 2 -9 3 -19 13 -21 22 -4 15 -5 15 -6 0z"/>
<path d="M1342 1598 c2 -125 5 -110 10 40 2 45 0 82 -4 82 -5 0 -7 -55 -6
-122z"/>
<path d="M1304 1570 c0 -80 2 -112 3 -72 2 39 2 105 0 145 -1 39 -3 7 -3 -73z"/>
<path d="M1744 1605 c0 -55 1 -76 3 -47 2 29 2 74 0 100 -2 26 -3 2 -3 -53z"/>
<path d="M1120 1555 c0 -76 3 -136 6 -132 7 7 5 259 -1 266 -3 2 -5 -58 -5
-134z"/>
<path d="M1910 1550 c0 -79 3 -140 6 -137 8 8 7 267 0 275 -3 3 -6 -59 -6
-138z"/>
<path d="M1873 1645 c1 -19 5 -35 9 -35 4 0 8 16 8 35 0 19 -4 35 -9 35 -5 0
-9 -16 -8 -35z"/>
<path d="M1162 1630 c0 -19 2 -27 5 -17 2 9 2 25 0 35 -3 9 -5 1 -5 -18z"/>
<path d="M1460 1620 c0 -13 -7 -20 -20 -20 -18 0 -20 -7 -20 -79 0 -70 2 -79
20 -84 18 -5 20 0 20 59 0 57 2 64 20 64 13 0 20 7 20 20 0 15 7 20 25 20 18
0 25 -5 25 -20 0 -14 7 -20 21 -20 19 0 21 -5 17 -60 -1 -33 0 -60 5 -60 4 0
12 0 17 0 6 0 10 33 10 80 0 74 -1 80 -21 80 -16 0 -19 4 -14 20 6 19 2 20
-59 20 -59 0 -66 -2 -66 -20z"/>
<path d="M1874 1515 c0 -47 4 -85 9 -85 4 0 7 38 7 85 0 47 -4 85 -9 85 -4 0
-8 -38 -7 -85z"/>
<path d="M1164 1505 c0 -49 1 -71 3 -48 2 23 2 64 0 90 -2 26 -3 8 -3 -42z"/>
<path d="M1742 1475 c0 -16 2 -22 5 -12 2 9 2 23 0 30 -3 6 -5 -1 -5 -18z"/>
<path d="M1262 1460 c0 -14 2 -19 5 -12 2 6 2 18 0 25 -3 6 -5 1 -5 -13z"/>
<path d="M1650 1470 c0 -5 5 -10 10 -10 6 0 10 5 10 10 0 6 -4 10 -10 10 -5 0
-10 -4 -10 -10z"/>
<path d="M1380 1420 c0 -11 2 -20 4 -20 2 0 11 -3 20 -6 12 -5 16 0 16 20 0
19 -5 26 -20 26 -13 0 -20 -7 -20 -20z"/>
<path d="M1620 1414 c0 -20 4 -25 16 -20 9 3 20 6 25 6 5 0 9 9 9 20 0 15 -7
20 -25 20 -20 0 -25 -5 -25 -26z"/>
<path d="M1680 1392 c-5 -2 -10 -10 -10 -18 0 -11 23 -14 120 -14 l120 0 0
-25 c0 -18 -5 -25 -20 -25 -17 0 -20 -7 -20 -40 0 -33 3 -40 20 -40 17 0 20 7
20 40 0 34 3 40 21 40 18 0 20 5 17 42 l-3 43 -127 0 c-70 0 -132 -1 -138 -3z"/>
<path d="M1830 1327 c0 -8 -10 -18 -22 -20 l-23 -4 23 -2 c22 -1 41 23 28 36
-3 4 -6 -1 -6 -10z"/>
<path d="M1163 1320 c2 -8 16 -16 33 -17 25 -1 26 0 4 4 -14 3 -29 10 -33 17
-6 7 -7 6 -4 -4z"/>
<path d="M1210 1282 c0 -5 7 -9 15 -9 8 0 15 4 15 9 0 4 -7 8 -15 8 -8 0 -15
-4 -15 -8z"/>
<path d="M1764 1279 c12 -8 25 -8 40 -1 18 9 16 11 -19 11 -33 0 -37 -1 -21
-10z"/>
<path d="M1263 1230 c0 -25 2 -35 4 -22 2 12 2 32 0 45 -2 12 -4 2 -4 -23z"/>
<path d="M1740 1255 c-3 -30 1 -59 9 -67 4 -5 5 9 3 30 -4 47 -10 63 -12 37z"/>
<path d="M784 1217 c-2 -7 -3 -69 -2 -138 l3 -124 65 -1 c64 -1 64 -1 8 3
l-58 4 -1 42 c-1 23 -2 84 -3 135 0 50 -2 92 -4 92 -1 0 -5 -6 -8 -13z"/>
<path d="M1136 1214 c-9 -23 -8 -24 13 -24 10 0 21 9 24 20 6 25 -28 29 -37 4z"/>
<path d="M1200 1219 c0 -5 5 -7 10 -4 6 3 10 8 10 11 0 2 -4 4 -10 4 -5 0 -10
-5 -10 -11z"/>
<path d="M1790 1219 c0 -5 5 -7 10 -4 6 3 10 8 10 11 0 2 -4 4 -10 4 -5 0 -10
-5 -10 -11z"/>
<path d="M1830 1210 c0 -13 -7 -20 -20 -20 -13 0 -20 -7 -20 -20 0 -13 -7 -20
-20 -20 -13 0 -20 -7 -20 -20 0 -19 -7 -20 -245 -20 -238 0 -245 1 -245 20 0
13 -7 20 -19 20 -10 0 -21 -9 -24 -20 -4 -16 0 -20 19 -20 17 0 24 -6 24 -20
0 -19 7 -20 245 -20 211 0 245 2 245 15 0 8 9 15 20 15 15 0 20 7 20 25 0 18
5 25 20 25 13 0 20 7 20 20 0 13 7 20 20 20 13 0 20 7 20 20 0 13 -7 20 -20
20 -13 0 -20 -7 -20 -20z"/>
<path d="M1170 1170 c0 -15 7 -20 25 -20 18 0 25 5 25 20 0 15 -7 20 -25 20
-18 0 -25 -5 -25 -20z"/>
<path d="M2239 1133 c-1 -32 -3 -65 -4 -73 -1 -8 -3 -34 -4 -57 l-1 -43 -65 0
c-50 0 -63 3 -59 13 8 23 -18 37 -39 22 -12 -8 -14 -15 -8 -20 6 -3 11 -1 11
4 0 6 7 11 15 11 8 0 15 -4 15 -10 0 -5 -4 -10 -10 -10 -5 0 -10 -7 -10 -15 0
-9 -6 -18 -14 -21 -8 -3 -12 -12 -9 -20 3 -10 -2 -14 -18 -14 -13 0 -30 -4
-37 -9 -20 -12 9 -31 52 -33 31 -1 36 -5 36 -25 l0 -24 -131 2 c-72 0 -133 -2
-137 -5 -3 -4 57 -5 134 -4 l139 3 3 43 c2 25 -1 42 -7 42 -6 0 -11 -4 -11
-10 0 -5 -16 -10 -35 -10 -19 0 -35 5 -35 10 0 6 12 10 26 10 17 0 28 6 31 20
3 11 12 20 19 20 8 0 14 5 14 10 0 6 30 10 69 10 46 0 70 4 73 13 7 18 10 227
4 227 -3 0 -7 -26 -7 -57z"/>
<path d="M1453 1160 c2 -8 14 -16 28 -17 19 -1 20 -1 4 4 -11 3 -24 10 -28 17
-6 7 -7 6 -4 -4z"/>
<path d="M940 950 c0 -38 4 -70 8 -70 4 0 6 29 4 64 l-4 65 38 4 39 4 -42 1
-43 2 0 -70z"/>
<path d="M1060 950 c0 -38 3 -70 8 -70 4 0 7 32 7 70 0 39 -3 70 -7 70 -5 0
-8 -31 -8 -70z"/>
<path d="M1100 1000 c0 -11 4 -20 8 -20 4 0 8 9 8 20 0 11 -4 20 -8 20 -4 0
-8 -9 -8 -20z"/>
<path d="M1180 1003 c0 -9 -18 -33 -40 -54 -38 -36 -52 -69 -30 -69 5 0 7 6 5
13 -3 6 12 29 34 50 37 36 59 77 40 77 -5 0 -9 -7 -9 -17z"/>
<path d="M1220 950 c0 -38 3 -70 8 -70 4 0 6 29 4 64 l-4 65 39 4 38 4 -42 1
-43 2 0 -70z"/>
<path d="M1320 950 c0 -38 3 -70 8 -70 4 0 7 32 7 70 0 39 -3 70 -7 70 -5 0
-8 -31 -8 -70z"/>
<path d="M1520 950 c0 -38 3 -70 8 -70 4 0 6 29 4 64 l-4 65 39 4 38 4 -42 1
-43 2 0 -70z"/>
<path d="M1640 960 c0 -33 3 -60 8 -60 4 0 7 27 7 60 0 33 -3 60 -7 60 -5 0
-8 -27 -8 -60z"/>
<path d="M1720 960 c0 -52 -2 -60 -19 -60 -11 0 -27 -3 -35 -6 -26 -10 1 -34
38 -34 52 1 66 19 66 88 l0 61 38 4 37 4 -42 1 -43 2 0 -63 c0 -72 -10 -87
-57 -87 -40 0 -44 17 -5 22 26 3 27 6 32 66 3 34 2 62 -2 62 -5 0 -8 -27 -8
-60z"/>
<path d="M1880 957 c0 -36 -5 -68 -12 -75 -7 -7 -32 -13 -57 -14 l-46 -1 39
-4 c22 -3 50 1 63 8 20 11 23 20 23 75 l0 63 38 4 37 4 -42 1 -43 2 0 -63z"/>
<path d="M1993 1005 c-7 -8 -13 -22 -13 -32 0 -14 3 -12 13 7 7 15 25 28 42
31 l30 7 -30 0 c-16 1 -36 -5 -42 -13z"/>
<path d="M1363 965 c0 -27 2 -38 4 -22 2 15 2 37 0 50 -2 12 -4 0 -4 -28z"/>
<path d="M1025 983 c-4 -13 -17 -23 -34 -26 -26 -4 -26 -4 -1 -5 34 -2 53 12
47 34 -4 17 -5 17 -12 -3z"/>
<path d="M1132 980 c-7 -11 -8 -20 -3 -20 9 0 24 30 18 36 -1 2 -8 -6 -15 -16z"/>
<path d="M1605 994 c-6 -2 -9 -24 -7 -48 4 -42 2 -45 -25 -49 l-28 -5 30 2
c29 1 30 3 35 54 3 28 5 52 5 51 0 0 -5 -2 -10 -5z"/>
<path d="M1683 960 c0 -25 2 -35 4 -22 2 12 2 32 0 45 -2 12 -4 2 -4 -23z"/>
<path d="M1845 994 c-6 -2 -9 -24 -7 -48 4 -42 2 -45 -25 -49 l-28 -5 30 2
c29 1 30 3 35 54 3 28 5 52 5 51 0 0 -5 -2 -10 -5z"/>
<path d="M1260 981 c0 -5 9 -7 20 -4 11 3 20 7 20 9 0 2 -9 4 -20 4 -11 0 -20
-4 -20 -9z"/>
<path d="M1560 955 c0 -19 2 -35 4 -35 2 0 6 16 8 35 2 19 0 35 -4 35 -4 0 -8
-16 -8 -35z"/>
<path d="M1800 955 c0 -19 2 -35 4 -35 2 0 6 16 8 35 2 19 0 35 -4 35 -4 0 -8
-16 -8 -35z"/>
<path d="M1920 981 c0 -5 9 -7 20 -4 11 3 20 7 20 9 0 2 -9 4 -20 4 -11 0 -20
-4 -20 -9z"/>
<path d="M2020 979 c0 -5 5 -7 10 -4 6 3 10 8 10 11 0 2 -4 4 -10 4 -5 0 -10
-5 -10 -11z"/>
<path d="M1258 953 c7 -3 16 -2 19 1 4 3 -2 6 -13 5 -11 0 -14 -3 -6 -6z"/>
<path d="M1918 953 c7 -3 16 -2 19 1 4 3 -2 6 -13 5 -11 0 -14 -3 -6 -6z"/>
<path d="M2001 951 c-9 -6 -10 -11 -2 -15 6 -4 11 -3 11 3 0 5 12 12 28 14 26
4 26 4 2 5 -14 1 -31 -2 -39 -7z"/>
<path d="M1170 935 c-7 -9 -11 -18 -8 -20 3 -3 11 1 18 10 7 9 11 18 8 20 -3
3 -11 -1 -18 -10z"/>
<path d="M1960 942 c0 -7 -9 -12 -20 -12 -11 0 -20 -4 -20 -9 0 -11 38 -2 46
11 3 5 3 12 0 15 -3 4 -6 1 -6 -5z"/>
<path d="M980 901 c0 -20 -6 -31 -17 -34 -17 -4 -17 -5 -1 -6 10 0 22 8 28 19
6 11 7 20 3 20 -4 1 6 7 22 15 l30 13 -32 1 c-30 1 -33 -2 -33 -28z"/>
<path d="M1260 920 c0 -5 7 -7 15 -4 8 4 15 8 15 10 0 2 -7 4 -15 4 -8 0 -15
-4 -15 -10z"/>
<path d="M1187 913 c-10 -9 -9 -33 1 -33 4 0 8 9 8 20 0 23 0 22 -9 13z"/>
<path d="M1980 909 c0 -5 5 -7 10 -4 6 3 10 8 10 11 0 2 -4 4 -10 4 -5 0 -10
-5 -10 -11z"/>
<path d="M1141 893 c-1 -12 -9 -24 -18 -26 -17 -4 -17 -5 0 -6 19 -1 32 21 24
41 -3 7 -6 3 -6 -9z"/>
<path d="M1263 893 c9 -2 23 -2 30 0 6 3 -1 5 -18 5 -16 0 -22 -2 -12 -5z"/>
<path d="M1363 893 c9 -2 23 -2 30 0 6 3 -1 5 -18 5 -16 0 -22 -2 -12 -5z"/>
<path d="M1923 893 c9 -2 23 -2 30 0 6 3 -1 5 -18 5 -16 0 -22 -2 -12 -5z"/>
<path d="M1420 882 c0 -8 -18 -12 -47 -12 -53 0 -54 -7 -1 -14 35 -5 70 15 54
31 -3 3 -6 1 -6 -5z"/>
<path d="M1620 882 c0 -8 -18 -12 -47 -12 -25 0 -43 -3 -39 -7 9 -10 78 -4 90
8 5 5 7 12 3 16 -4 3 -7 1 -7 -5z"/>
<path d="M1234 861 c5 -8 76 -5 85 4 2 3 -17 5 -43 5 -26 0 -45 -4 -42 -9z"/>
<path d="M1892 865 c9 -9 66 -12 80 -4 8 6 -6 9 -36 9 -27 0 -47 -2 -44 -5z"/>
</g>
</svg>
