<svg id="svg" version="1.1" xmlns="http://www.w3.org/2000/svg" xmlns:xlink="http://www.w3.org/1999/xlink" width="400" height="400" viewBox="0, 0, 400,400"><g id="svgg"><path id="path0" d="M0.000 200.000 L 0.000 400.000 200.000 400.000 L 400.000 400.000 400.000 200.000 L 400.000 0.000 200.000 0.000 L 0.000 0.000 0.000 200.000 M136.071 160.863 C 140.224 162.452,141.103 170.696,137.591 175.122 C 133.325 180.498,132.997 188.742,136.808 194.800 C 142.838 204.386,136.234 214.708,129.091 206.859 C 125.217 202.601,120.761 201.748,117.085 204.558 C 112.666 207.938,110.079 215.396,111.766 219.892 C 112.077 220.721,112.431 221.850,112.553 222.400 C 112.675 222.950,113.413 224.364,114.192 225.542 C 117.738 230.902,116.372 238.315,111.601 239.600 C 105.100 241.350,101.743 230.060,107.200 224.800 C 108.269 223.769,109.328 219.565,109.308 216.435 C 109.283 212.757,108.898 211.696,105.884 207.000 C 102.970 202.461,104.523 195.120,108.713 193.625 C 111.356 192.683,112.956 193.416,115.600 196.781 C 118.061 199.915,118.666 200.213,122.473 200.170 C 126.569 200.124,129.312 197.728,131.418 192.354 C 136.994 178.126,124.031 163.765,115.105 174.282 C 111.275 178.795,109.274 179.281,106.654 176.337 C 104.655 174.091,104.356 173.233,104.356 169.756 C 104.356 162.145,109.116 159.632,114.030 164.648 C 119.352 170.081,123.933 169.849,128.675 163.906 C 131.663 160.161,132.902 159.651,136.071 160.863 M123.726 177.650 C 130.296 181.034,128.928 193.800,121.996 193.800 C 115.357 193.800,113.766 181.126,119.990 177.821 C 121.275 177.139,122.614 177.077,123.726 177.650 M171.771 189.029 C 172.244 189.501,172.400 190.498,172.400 193.038 C 172.400 196.841,172.706 197.200,175.950 197.200 C 178.304 197.200,178.681 196.649,178.920 192.849 C 179.177 188.780,179.777 187.846,181.510 188.819 L 182.600 189.431 182.600 200.000 L 182.600 210.569 181.510 211.181 C 179.651 212.224,179.068 211.188,178.882 206.504 C 178.706 202.094,178.411 201.600,175.950 201.600 C 172.617 201.600,172.400 201.888,172.400 206.314 C 172.400 210.989,171.981 211.927,170.165 211.322 L 169.000 210.933 169.000 199.985 L 169.000 189.036 170.000 188.758 C 170.550 188.605,171.032 188.462,171.071 188.440 C 171.111 188.418,171.426 188.683,171.771 189.029 M192.998 188.654 C 193.841 188.978,195.414 192.460,195.766 194.780 C 195.914 195.759,196.191 196.749,196.382 196.980 C 196.573 197.211,196.911 198.300,197.133 199.400 C 197.355 200.500,197.808 202.210,198.140 203.200 C 200.329 209.736,200.372 210.465,198.613 211.267 C 197.262 211.883,196.170 210.904,195.452 208.431 L 194.919 206.600 192.361 206.478 C 189.432 206.339,188.743 206.839,187.984 209.658 C 187.496 211.473,186.974 211.798,185.469 211.226 C 184.223 210.752,183.967 208.406,184.953 206.480 C 185.257 205.886,185.638 204.590,185.800 203.600 C 185.962 202.610,186.319 201.350,186.594 200.800 C 186.868 200.250,187.217 199.080,187.368 198.200 C 187.520 197.320,187.892 195.880,188.196 195.000 C 188.500 194.120,188.854 192.747,188.983 191.949 C 189.380 189.497,191.232 187.977,192.998 188.654 M205.092 189.300 C 205.857 190.127,206.693 191.774,209.258 197.505 C 209.776 198.662,210.503 199.706,210.874 199.824 C 211.245 199.941,211.629 200.344,211.728 200.719 C 211.827 201.093,211.928 198.779,211.954 195.576 C 212.009 188.676,212.286 187.907,214.336 188.967 L 215.613 189.627 215.507 200.099 L 215.400 210.570 214.300 211.185 C 212.880 211.979,211.259 211.186,210.668 209.407 C 210.450 208.751,210.030 207.973,209.736 207.679 C 209.441 207.384,209.200 206.876,209.200 206.551 C 209.200 206.225,208.856 205.293,208.435 204.479 C 208.014 203.666,207.159 201.920,206.535 200.600 L 205.400 198.200 205.190 204.296 C 204.954 211.110,204.644 211.977,202.701 211.238 C 200.739 210.493,200.420 190.721,202.344 189.164 C 203.566 188.176,204.077 188.201,205.092 189.300 M237.929 188.660 C 238.890 188.917,240.800 192.510,240.800 194.060 C 240.800 194.478,241.160 195.844,241.600 197.096 C 242.040 198.348,242.400 199.703,242.400 200.108 C 242.400 200.513,242.738 201.599,243.151 202.522 C 243.564 203.445,244.024 205.051,244.174 206.091 C 244.324 207.131,244.599 208.076,244.786 208.191 C 245.582 208.683,244.054 211.600,243.000 211.600 C 242.207 211.600,241.164 210.165,240.625 208.332 L 240.115 206.600 237.478 206.482 C 234.554 206.352,233.802 206.917,233.239 209.672 C 232.908 211.290,232.112 211.782,230.700 211.241 C 229.314 210.710,229.218 208.860,230.400 205.496 C 230.840 204.244,231.200 202.928,231.200 202.570 C 231.200 202.213,231.450 201.354,231.756 200.660 C 232.062 199.967,232.606 198.230,232.964 196.800 C 233.322 195.370,233.867 193.214,234.176 192.009 C 234.498 190.754,235.111 189.515,235.613 189.109 C 236.590 188.318,236.626 188.311,237.929 188.660 M256.915 189.930 C 257.826 190.842,258.155 191.592,258.299 193.090 C 258.657 196.814,256.373 197.289,254.657 193.848 C 253.661 191.851,250.871 191.782,250.350 193.742 C 250.024 194.968,251.336 196.800,252.539 196.800 C 257.030 196.800,260.747 203.116,258.792 207.425 C 255.713 214.214,246.427 212.755,246.326 205.467 C 246.281 202.177,248.948 202.191,250.022 205.486 C 250.609 207.285,250.987 207.586,252.677 207.594 C 256.170 207.611,255.744 202.438,252.198 201.773 C 251.445 201.632,250.620 201.265,250.365 200.958 C 250.110 200.651,249.688 200.400,249.426 200.400 C 245.171 200.400,245.844 189.620,250.159 188.651 C 252.526 188.120,255.707 188.722,256.915 189.930 M264.674 189.270 C 265.595 190.134,265.600 190.198,265.600 200.261 L 265.600 210.382 264.603 211.035 C 261.803 212.870,261.128 210.518,261.279 199.444 C 261.425 188.697,262.055 186.809,264.674 189.270 M275.798 188.654 C 276.548 188.942,278.400 192.722,278.400 193.966 C 278.400 194.416,278.669 195.462,278.998 196.292 C 279.327 197.121,279.764 198.610,279.968 199.600 C 280.172 200.590,280.610 202.210,280.941 203.200 C 283.143 209.786,283.178 210.463,281.362 211.290 C 280.088 211.870,278.681 210.456,278.107 208.019 L 277.773 206.600 275.188 206.478 C 272.229 206.339,271.545 206.833,270.784 209.658 C 270.296 211.473,269.774 211.798,268.269 211.226 C 267.023 210.752,266.767 208.406,267.753 206.480 C 268.057 205.886,268.438 204.590,268.600 203.600 C 268.762 202.610,269.119 201.350,269.394 200.800 C 269.668 200.250,270.017 199.080,270.168 198.200 C 270.320 197.320,270.692 195.880,270.996 195.000 C 271.300 194.120,271.654 192.747,271.783 191.949 C 272.180 189.497,274.032 187.977,275.798 188.654 M164.675 190.100 C 166.973 192.526,167.328 197.377,165.439 200.533 C 164.819 201.568,162.190 202.839,160.032 203.147 L 158.200 203.408 158.084 206.905 C 157.958 210.718,157.134 212.014,155.221 211.407 C 154.016 211.024,153.948 210.313,154.080 199.476 C 154.221 187.883,153.754 188.815,159.422 188.806 C 163.443 188.800,163.443 188.800,164.675 190.100 M230.171 189.429 C 231.508 190.765,230.351 192.791,228.238 192.813 C 225.660 192.839,225.600 193.043,225.600 201.725 C 225.600 209.910,225.315 211.600,223.936 211.600 C 221.845 211.600,221.600 210.596,221.600 202.033 C 221.600 192.723,221.617 192.800,219.586 192.800 C 217.257 192.800,215.873 190.687,217.280 189.280 C 218.069 188.491,229.364 188.622,230.171 189.429 M158.185 192.894 C 158.060 193.221,158.012 194.549,158.078 195.845 L 158.200 198.200 160.200 198.200 L 162.200 198.200 162.317 196.200 C 162.484 193.360,159.058 190.619,158.185 192.894 M236.202 198.779 C 235.886 201.501,236.071 202.000,237.397 202.000 C 238.783 202.000,238.981 200.769,237.971 198.421 C 236.849 195.812,236.540 195.875,236.202 198.779 M190.986 198.553 C 190.621 200.991,190.847 201.777,191.959 201.935 C 193.673 202.178,193.961 199.933,192.502 197.706 C 191.636 196.385,191.282 196.583,190.986 198.553 M273.786 198.553 C 273.421 200.991,273.647 201.777,274.759 201.935 C 276.473 202.178,276.761 199.933,275.302 197.706 C 274.436 196.385,274.082 196.583,273.786 198.553 " stroke="none" fill="#040404" fill-rule="evenodd"></path><path id="path1" d="M155.300 189.446 C 154.484 189.806,154.586 210.343,155.405 210.657 C 156.677 211.145,157.200 210.033,157.200 206.840 C 157.200 202.757,157.621 202.182,160.825 201.891 C 165.020 201.511,166.672 198.563,165.640 193.299 C 164.998 190.018,159.040 187.799,155.300 189.446 M169.900 189.633 C 169.016 190.147,168.811 209.451,169.680 210.320 C 170.310 210.950,171.587 210.937,171.649 210.300 C 171.676 210.025,171.811 207.910,171.949 205.600 L 172.200 201.400 175.094 201.283 C 179.469 201.105,179.551 201.195,179.687 206.302 C 179.805 210.763,180.092 211.381,181.600 210.415 C 182.351 209.933,182.733 192.527,182.032 190.685 C 180.881 187.657,179.617 189.069,179.600 193.400 C 179.584 197.583,179.463 197.736,176.019 197.931 C 172.301 198.141,172.011 197.878,171.960 194.251 C 171.898 189.827,171.418 188.750,169.900 189.633 M190.874 189.710 C 190.161 190.570,189.200 193.078,189.198 194.087 C 189.196 194.589,188.925 195.518,188.595 196.150 C 188.265 196.783,187.832 198.223,187.631 199.350 C 187.431 200.478,186.990 202.120,186.651 203.000 C 186.312 203.880,186.027 205.014,186.018 205.520 C 186.008 206.026,185.712 206.996,185.361 207.675 C 184.598 209.151,185.119 210.800,186.349 210.800 C 187.190 210.800,187.600 210.062,187.600 208.549 C 187.600 206.666,189.239 205.600,192.133 205.600 C 195.025 205.600,195.188 205.717,196.322 208.603 C 198.262 213.543,199.433 208.920,197.627 203.450 C 197.182 202.102,196.468 199.740,196.038 198.200 C 193.780 190.093,193.502 189.427,192.306 189.280 C 191.770 189.214,191.126 189.407,190.874 189.710 M202.629 189.829 C 201.542 190.915,201.698 210.250,202.796 210.599 C 204.247 211.059,204.400 210.506,204.400 204.802 C 204.400 196.807,205.034 195.536,206.942 199.705 C 207.571 201.077,208.497 203.100,209.001 204.200 C 209.505 205.300,210.341 207.144,210.859 208.297 C 211.838 210.478,213.195 211.364,214.129 210.432 C 215.293 209.270,214.931 189.779,213.738 189.321 C 212.635 188.898,212.412 190.094,212.406 196.476 C 212.403 199.928,212.247 202.848,212.059 202.964 C 211.611 203.240,209.631 200.067,208.212 196.800 C 207.591 195.370,206.839 193.845,206.542 193.411 C 206.244 192.977,206.000 192.385,206.000 192.095 C 206.000 190.279,203.714 188.743,202.629 189.829 M217.867 189.467 C 216.779 190.554,217.641 192.000,219.377 192.000 C 222.292 192.000,222.400 192.360,222.400 202.046 C 222.400 209.217,222.484 210.347,223.033 210.557 C 224.799 211.235,224.800 211.229,224.800 202.626 C 224.800 192.766,224.865 192.525,227.618 192.160 C 229.825 191.867,230.318 191.342,229.617 190.031 C 229.169 189.195,218.644 188.689,217.867 189.467 M235.657 190.320 C 235.201 190.960,234.707 192.275,234.558 193.242 C 234.410 194.209,234.044 195.486,233.744 196.080 C 233.445 196.674,233.203 197.484,233.206 197.880 C 233.211 198.550,232.645 200.574,230.757 206.628 C 229.758 209.833,229.794 210.333,231.043 210.647 C 232.264 210.953,232.612 210.539,232.959 208.367 C 233.293 206.278,234.391 205.600,237.440 205.600 C 240.183 205.600,240.399 205.752,241.428 208.400 C 242.411 210.931,242.764 211.328,243.495 210.721 C 244.199 210.137,243.889 206.158,242.988 204.200 C 242.684 203.540,242.168 201.920,241.841 200.600 C 239.055 189.340,237.819 187.284,235.657 190.320 M248.582 190.700 C 245.082 194.510,247.478 200.010,253.247 201.407 C 256.583 202.214,256.874 207.481,253.622 208.195 C 251.536 208.653,250.538 208.083,249.364 205.764 C 247.797 202.666,246.483 202.892,246.975 206.175 C 247.899 212.333,256.133 212.837,258.254 206.866 C 259.694 202.812,258.022 199.834,253.167 197.804 C 248.542 195.870,248.308 191.600,252.826 191.600 C 253.610 191.600,254.009 191.956,255.860 194.311 C 257.242 196.070,258.205 195.445,257.821 193.039 C 257.181 189.039,251.442 187.586,248.582 190.700 M262.667 189.467 C 262.028 190.106,262.373 210.415,263.027 210.666 C 264.455 211.214,264.600 210.227,264.600 199.965 C 264.600 191.517,264.507 189.912,264.000 189.592 C 263.282 189.137,263.020 189.113,262.667 189.467 M273.674 189.710 C 272.961 190.570,272.000 193.078,271.998 194.087 C 271.996 194.589,271.751 195.469,271.452 196.041 C 271.153 196.614,270.777 197.961,270.616 199.036 C 270.454 200.110,270.091 201.442,269.809 201.995 C 269.526 202.548,269.162 203.810,269.000 204.800 C 268.838 205.790,268.447 207.104,268.132 207.720 C 267.440 209.072,267.744 210.265,268.870 210.622 C 269.860 210.936,270.226 210.447,270.559 208.367 C 270.893 206.278,271.991 205.600,275.040 205.600 C 277.814 205.600,277.994 205.732,279.122 208.603 C 281.062 213.543,282.233 208.920,280.427 203.450 C 279.982 202.102,279.268 199.740,278.838 198.200 C 276.580 190.093,276.302 189.427,275.106 189.280 C 274.570 189.214,273.926 189.407,273.674 189.710 M161.447 192.238 C 164.257 192.992,163.498 198.493,160.493 199.156 C 157.912 199.725,157.200 198.921,157.200 195.436 C 157.200 192.150,158.230 191.375,161.447 192.238 M193.627 198.100 C 194.479 201.264,194.042 202.582,192.096 202.723 C 190.032 202.872,189.520 202.018,190.131 199.444 C 190.345 198.540,190.686 197.105,190.888 196.256 L 191.255 194.712 192.232 195.630 C 192.769 196.135,193.397 197.247,193.627 198.100 M238.246 196.988 C 239.839 200.469,239.518 202.562,237.365 202.720 C 235.213 202.878,234.475 202.082,235.096 200.274 C 235.337 199.573,235.653 198.370,235.797 197.600 C 236.461 194.062,236.861 193.962,238.246 196.988 M275.562 196.218 C 276.308 197.313,276.533 198.191,276.562 200.116 L 276.600 202.600 274.896 202.723 C 272.832 202.872,272.320 202.018,272.931 199.444 C 273.145 198.540,273.481 197.125,273.676 196.300 C 274.114 194.447,274.349 194.437,275.562 196.218 " stroke="none" fill="#dfdfdf" fill-rule="evenodd"></path><path id="path2" d="M132.508 161.081 C 131.635 161.250,128.426 164.611,128.384 165.400 C 128.372 165.620,127.966 166.107,127.482 166.483 C 126.997 166.859,126.034 167.624,125.342 168.183 C 123.827 169.408,117.385 169.747,116.954 168.624 C 116.833 168.308,116.227 167.938,115.608 167.802 C 114.989 167.666,114.170 167.209,113.788 166.787 C 112.660 165.540,112.400 166.222,112.400 170.424 C 112.400 174.186,112.927 175.730,113.484 173.600 C 113.600 173.157,114.030 172.800,114.447 172.800 C 114.861 172.800,115.201 172.575,115.203 172.300 C 115.218 169.843,123.293 169.133,126.583 171.300 C 128.465 172.539,131.598 176.422,131.599 177.516 C 131.600 177.800,131.960 178.738,132.400 179.600 C 132.840 180.462,133.200 181.636,133.200 182.208 C 133.200 182.799,133.373 183.141,133.600 183.000 C 133.820 182.864,134.000 182.081,134.000 181.261 C 134.000 179.404,134.940 177.526,137.227 174.814 L 139.000 172.711 138.998 168.656 C 138.996 163.361,136.977 160.358,133.754 160.854 C 133.559 160.884,132.999 160.986,132.508 161.081 M120.400 178.671 C 118.379 179.515,117.828 180.844,117.668 185.262 L 117.514 189.525 119.208 191.362 C 122.054 194.450,124.827 193.468,126.754 188.690 C 128.966 183.203,124.901 176.793,120.400 178.671 M133.191 188.500 C 133.186 189.215,132.826 190.585,132.391 191.544 C 131.956 192.503,131.600 193.505,131.600 193.771 C 131.600 195.173,126.836 200.358,125.523 200.386 C 123.790 200.422,123.487 202.158,125.092 202.854 C 125.921 203.214,127.821 204.692,129.313 206.139 C 132.424 209.154,133.983 209.728,135.932 208.576 C 138.422 207.105,139.743 201.328,138.245 198.462 C 137.940 197.878,137.478 196.950,137.218 196.400 C 136.473 194.820,135.349 192.862,134.827 192.232 C 134.563 191.915,134.244 190.653,134.118 189.428 C 133.870 187.029,133.206 186.364,133.191 188.500 M112.400 201.176 C 112.400 206.456,112.677 207.525,113.598 205.804 C 113.883 205.272,114.720 204.550,115.458 204.199 C 116.196 203.849,116.800 203.411,116.800 203.226 C 116.800 203.041,117.412 202.774,118.160 202.634 C 119.764 202.333,119.777 201.032,118.179 200.631 C 117.089 200.357,115.200 198.723,115.200 198.054 C 115.200 197.804,114.936 197.600,114.614 197.600 C 114.292 197.600,113.835 197.240,113.600 196.800 C 112.680 195.081,112.400 196.103,112.400 201.176 M112.673 226.661 C 112.195 227.138,112.352 236.800,112.837 236.800 C 113.078 236.800,113.369 236.440,113.484 236.000 C 113.599 235.560,113.920 235.200,114.197 235.200 C 114.745 235.200,115.200 233.467,115.200 231.383 C 115.200 229.669,114.849 228.800,114.157 228.800 C 113.851 228.800,113.597 228.485,113.594 228.100 C 113.586 227.191,113.022 226.311,112.673 226.661 " stroke="none" fill="#3ab0de" fill-rule="evenodd"></path><path id="path3" d="M132.149 160.579 C 131.461 160.877,129.897 162.374,128.675 163.906 C 123.933 169.849,119.352 170.081,114.030 164.648 C 109.116 159.632,104.356 162.145,104.356 169.756 C 104.356 173.233,104.655 174.091,106.654 176.337 C 109.274 179.281,111.275 178.795,115.105 174.282 C 120.543 167.874,128.380 170.294,131.679 179.400 C 135.115 188.881,130.149 200.084,122.473 200.170 C 118.666 200.213,118.061 199.915,115.600 196.781 C 112.956 193.416,111.356 192.683,108.713 193.625 C 104.523 195.120,102.970 202.461,105.884 207.000 C 108.898 211.696,109.283 212.757,109.308 216.435 C 109.328 219.565,108.269 223.769,107.200 224.800 C 101.743 230.060,105.100 241.350,111.601 239.600 C 116.372 238.315,117.738 230.902,114.192 225.542 C 113.413 224.364,112.675 222.950,112.553 222.400 C 112.431 221.850,112.077 220.721,111.766 219.892 C 110.079 215.396,112.666 207.938,117.085 204.558 C 120.761 201.748,125.217 202.601,129.091 206.859 C 133.726 211.953,139.200 209.432,139.200 202.203 C 139.200 199.698,138.135 196.006,137.725 197.090 C 137.624 197.359,137.824 197.984,138.170 198.479 C 139.125 199.842,139.010 204.093,137.961 206.193 C 136.014 210.092,133.374 210.075,129.313 206.139 C 127.821 204.692,125.921 203.214,125.092 202.854 C 123.487 202.158,123.790 200.422,125.523 200.386 C 126.836 200.358,131.600 195.173,131.600 193.771 C 131.600 193.505,131.956 192.503,132.391 191.544 C 132.826 190.585,133.186 189.215,133.191 188.500 C 133.206 186.358,133.871 187.032,134.119 189.441 C 134.247 190.674,134.632 191.993,134.975 192.373 C 135.319 192.752,135.600 193.239,135.600 193.454 C 135.600 193.669,136.050 194.455,136.600 195.200 C 137.150 195.945,137.600 196.362,137.600 196.127 C 137.600 195.891,137.330 195.474,137.000 195.200 C 136.670 194.926,136.394 194.499,136.387 194.251 C 136.381 194.003,135.932 192.900,135.391 191.800 C 133.050 187.042,134.031 179.608,137.591 175.122 C 140.414 171.566,140.635 166.456,138.128 162.736 C 136.714 160.638,134.151 159.713,132.149 160.579 M135.554 161.243 C 138.144 162.037,138.996 163.870,138.998 168.656 L 139.000 172.711 137.227 174.814 C 134.940 177.526,134.000 179.404,134.000 181.261 C 134.000 182.081,133.820 182.864,133.600 183.000 C 133.373 183.141,133.200 182.799,133.200 182.208 C 133.200 181.636,132.840 180.462,132.400 179.600 C 131.960 178.738,131.600 177.800,131.599 177.516 C 131.598 176.422,128.465 172.539,126.583 171.300 C 123.293 169.133,115.218 169.843,115.203 172.300 C 115.201 172.575,114.861 172.800,114.447 172.800 C 114.030 172.800,113.600 173.157,113.484 173.600 C 112.927 175.730,112.400 174.186,112.400 170.424 C 112.400 166.222,112.660 165.540,113.788 166.787 C 114.170 167.209,114.989 167.666,115.608 167.802 C 116.227 167.938,116.833 168.308,116.954 168.624 C 117.385 169.747,123.827 169.408,125.342 168.183 C 126.034 167.624,126.997 166.859,127.482 166.483 C 127.966 166.107,128.372 165.620,128.384 165.400 C 128.396 165.180,129.128 164.157,130.011 163.127 C 131.410 161.495,132.026 161.121,133.754 160.854 C 133.948 160.825,134.758 160.999,135.554 161.243 M119.990 177.821 C 115.394 180.261,114.675 188.595,118.722 192.518 C 122.511 196.191,128.000 192.172,128.000 185.725 C 128.000 179.903,123.826 175.785,119.990 177.821 M125.148 179.548 C 128.248 182.648,127.973 189.075,124.611 192.084 C 122.719 193.777,121.254 193.582,119.208 191.362 L 117.514 189.525 117.668 185.262 C 117.828 180.844,118.379 179.515,120.400 178.671 C 121.580 178.179,124.277 178.677,125.148 179.548 M170.000 188.758 L 169.000 189.036 169.000 199.985 L 169.000 210.933 170.165 211.322 C 171.981 211.927,172.400 210.989,172.400 206.314 C 172.400 201.888,172.617 201.600,175.950 201.600 C 178.411 201.600,178.706 202.094,178.882 206.504 C 179.068 211.188,179.651 212.224,181.510 211.181 L 182.600 210.569 182.600 200.000 L 182.600 189.431 181.510 188.819 C 179.777 187.846,179.177 188.780,178.920 192.849 C 178.681 196.649,178.304 197.200,175.950 197.200 C 172.706 197.200,172.400 196.841,172.400 193.038 C 172.400 190.106,171.801 188.033,171.071 188.440 C 171.032 188.462,170.550 188.605,170.000 188.758 M190.190 189.449 C 189.655 190.026,189.112 191.151,188.983 191.949 C 188.854 192.747,188.500 194.120,188.196 195.000 C 187.892 195.880,187.520 197.320,187.368 198.200 C 187.217 199.080,186.868 200.250,186.594 200.800 C 186.319 201.350,185.962 202.610,185.800 203.600 C 185.638 204.590,185.257 205.886,184.953 206.480 C 183.967 208.406,184.223 210.752,185.469 211.226 C 186.974 211.798,187.496 211.473,187.984 209.658 C 188.743 206.839,189.432 206.339,192.361 206.478 L 194.919 206.600 195.452 208.431 C 196.170 210.904,197.262 211.883,198.613 211.267 C 200.372 210.465,200.329 209.736,198.140 203.200 C 197.808 202.210,197.355 200.500,197.133 199.400 C 196.911 198.300,196.573 197.211,196.382 196.980 C 196.191 196.749,195.914 195.759,195.766 194.780 C 194.967 189.503,192.407 187.056,190.190 189.449 M202.344 189.164 C 200.420 190.721,200.739 210.493,202.701 211.238 C 204.644 211.977,204.954 211.110,205.190 204.296 L 205.400 198.200 206.535 200.600 C 207.159 201.920,208.014 203.666,208.435 204.479 C 208.856 205.293,209.200 206.225,209.200 206.551 C 209.200 206.876,209.441 207.384,209.736 207.679 C 210.030 207.973,210.450 208.751,210.668 209.407 C 211.259 211.186,212.880 211.979,214.300 211.185 L 215.400 210.570 215.507 200.099 L 215.613 189.627 214.336 188.967 C 212.286 187.907,212.009 188.676,211.954 195.576 C 211.928 198.779,211.827 201.093,211.728 200.719 C 211.629 200.344,211.245 199.941,210.874 199.824 C 210.503 199.706,209.776 198.662,209.258 197.505 C 205.091 188.194,204.470 187.445,202.344 189.164 M235.613 189.109 C 235.111 189.515,234.498 190.754,234.176 192.009 C 233.867 193.214,233.322 195.370,232.964 196.800 C 232.606 198.230,232.062 199.967,231.756 200.660 C 231.450 201.354,231.200 202.213,231.200 202.570 C 231.200 202.928,230.840 204.244,230.400 205.496 C 229.218 208.860,229.314 210.710,230.700 211.241 C 232.112 211.782,232.908 211.290,233.239 209.672 C 233.802 206.917,234.554 206.352,237.478 206.482 L 240.115 206.600 240.625 208.332 C 241.164 210.165,242.207 211.600,243.000 211.600 C 244.054 211.600,245.582 208.683,244.786 208.191 C 244.599 208.076,244.324 207.131,244.174 206.091 C 244.024 205.051,243.564 203.445,243.151 202.522 C 242.738 201.599,242.400 200.513,242.400 200.108 C 242.400 199.703,242.040 198.348,241.600 197.096 C 241.160 195.844,240.800 194.478,240.800 194.060 C 240.800 192.510,238.890 188.917,237.929 188.660 C 236.626 188.311,236.590 188.318,235.613 189.109 M250.159 188.651 C 245.844 189.620,245.171 200.400,249.426 200.400 C 249.688 200.400,250.110 200.651,250.365 200.958 C 250.620 201.265,251.445 201.632,252.198 201.773 C 255.744 202.438,256.170 207.611,252.677 207.594 C 250.987 207.586,250.609 207.285,250.022 205.486 C 248.948 202.191,246.281 202.177,246.326 205.467 C 246.427 212.755,255.713 214.214,258.792 207.425 C 260.747 203.116,257.030 196.800,252.539 196.800 C 251.336 196.800,250.024 194.968,250.350 193.742 C 250.871 191.782,253.661 191.851,254.657 193.848 C 256.373 197.289,258.657 196.814,258.299 193.090 C 257.959 189.550,254.517 187.673,250.159 188.651 M262.109 189.481 C 261.105 191.011,260.822 207.521,261.761 209.768 C 262.499 211.536,263.297 211.891,264.603 211.035 L 265.600 210.382 265.600 200.261 C 265.600 190.198,265.595 190.134,264.674 189.270 C 263.463 188.132,262.968 188.173,262.109 189.481 M272.990 189.449 C 272.455 190.026,271.912 191.151,271.783 191.949 C 271.654 192.747,271.300 194.120,270.996 195.000 C 270.692 195.880,270.320 197.320,270.168 198.200 C 270.017 199.080,269.668 200.250,269.394 200.800 C 269.119 201.350,268.762 202.610,268.600 203.600 C 268.438 204.590,268.057 205.886,267.753 206.480 C 266.767 208.406,267.023 210.752,268.269 211.226 C 269.774 211.798,270.296 211.473,270.784 209.658 C 271.545 206.833,272.229 206.339,275.188 206.478 L 277.773 206.600 278.107 208.019 C 278.681 210.456,280.088 211.870,281.362 211.290 C 283.178 210.463,283.143 209.786,280.941 203.200 C 280.610 202.210,280.172 200.590,279.968 199.600 C 279.764 198.610,279.327 197.121,278.998 196.292 C 278.669 195.462,278.400 194.416,278.400 193.966 C 278.400 190.106,275.007 187.272,272.990 189.449 M154.800 189.191 C 154.185 189.579,153.640 208.113,154.180 210.265 C 154.479 211.456,155.808 211.818,157.004 211.034 C 157.884 210.457,157.979 210.096,158.084 206.905 L 158.200 203.408 160.032 203.147 C 162.190 202.839,164.819 201.568,165.439 200.533 C 167.328 197.377,166.973 192.526,164.675 190.100 C 163.388 188.741,156.514 188.109,154.800 189.191 M217.280 189.280 C 215.873 190.687,217.257 192.800,219.586 192.800 C 221.617 192.800,221.600 192.723,221.600 202.033 C 221.600 210.596,221.845 211.600,223.936 211.600 C 225.315 211.600,225.600 209.910,225.600 201.725 C 225.600 193.043,225.660 192.839,228.238 192.813 C 230.351 192.791,231.508 190.765,230.171 189.429 C 229.364 188.622,218.069 188.491,217.280 189.280 M164.209 190.499 C 168.002 194.295,165.882 201.433,160.825 201.891 C 157.621 202.182,157.200 202.757,157.200 206.840 C 157.200 210.033,156.677 211.145,155.405 210.657 C 154.586 210.343,154.484 189.806,155.300 189.446 C 157.008 188.694,163.128 189.417,164.209 190.499 M171.649 190.430 C 171.798 190.963,171.938 192.683,171.960 194.251 C 172.011 197.878,172.301 198.141,176.019 197.931 C 179.463 197.736,179.584 197.583,179.600 193.400 C 179.617 189.069,180.881 187.657,182.032 190.685 C 182.733 192.527,182.351 209.933,181.600 210.415 C 180.092 211.381,179.805 210.763,179.687 206.302 C 179.551 201.195,179.469 201.105,175.094 201.283 L 172.200 201.400 171.949 205.600 C 171.811 207.910,171.676 210.025,171.649 210.300 C 171.587 210.937,170.310 210.950,169.680 210.320 C 168.811 209.451,169.016 190.147,169.900 189.633 C 170.861 189.074,171.330 189.288,171.649 190.430 M193.868 191.000 C 194.474 192.650,194.709 193.427,196.038 198.200 C 196.468 199.740,197.182 202.102,197.627 203.450 C 199.433 208.920,198.262 213.543,196.322 208.603 C 195.188 205.717,195.025 205.600,192.133 205.600 C 189.239 205.600,187.600 206.666,187.600 208.549 C 187.600 210.062,187.190 210.800,186.349 210.800 C 185.119 210.800,184.598 209.151,185.361 207.675 C 185.712 206.996,186.008 206.026,186.018 205.520 C 186.027 205.014,186.312 203.880,186.651 203.000 C 186.990 202.120,187.431 200.478,187.631 199.350 C 187.832 198.223,188.265 196.783,188.595 196.150 C 188.925 195.518,189.196 194.589,189.198 194.087 C 189.200 193.078,190.161 190.570,190.874 189.710 C 191.762 188.640,193.234 189.274,193.868 191.000 M205.125 190.384 C 205.606 191.035,206.000 191.805,206.000 192.095 C 206.000 192.385,206.244 192.977,206.542 193.411 C 206.839 193.845,207.591 195.370,208.212 196.800 C 209.631 200.067,211.611 203.240,212.059 202.964 C 212.247 202.848,212.403 199.928,212.406 196.476 C 212.412 190.094,212.635 188.898,213.738 189.321 C 214.931 189.779,215.293 209.270,214.129 210.432 C 213.195 211.364,211.838 210.478,210.859 208.297 C 210.341 207.144,209.505 205.300,209.001 204.200 C 208.497 203.100,207.571 201.077,206.942 199.705 C 205.034 195.536,204.400 196.807,204.400 204.802 C 204.400 210.506,204.247 211.059,202.796 210.599 C 201.698 210.250,201.542 190.915,202.629 189.829 C 203.541 188.916,204.138 189.049,205.125 190.384 M229.617 190.031 C 230.318 191.342,229.825 191.867,227.618 192.160 C 224.865 192.525,224.800 192.766,224.800 202.626 C 224.800 211.229,224.799 211.235,223.033 210.557 C 222.484 210.347,222.400 209.217,222.400 202.046 C 222.400 192.360,222.292 192.000,219.377 192.000 C 217.641 192.000,216.779 190.554,217.867 189.467 C 218.644 188.689,229.169 189.195,229.617 190.031 M239.280 191.600 C 240.096 193.970,240.898 196.790,241.841 200.600 C 242.168 201.920,242.684 203.540,242.988 204.200 C 243.889 206.158,244.199 210.137,243.495 210.721 C 242.764 211.328,242.411 210.931,241.428 208.400 C 240.399 205.752,240.183 205.600,237.440 205.600 C 234.391 205.600,233.293 206.278,232.959 208.367 C 232.612 210.539,232.264 210.953,231.043 210.647 C 229.794 210.333,229.758 209.833,230.757 206.628 C 232.645 200.574,233.211 198.550,233.206 197.880 C 233.203 197.484,233.445 196.674,233.744 196.080 C 234.044 195.486,234.410 194.209,234.558 193.242 C 235.242 188.785,237.984 187.832,239.280 191.600 M256.310 190.320 C 257.807 191.657,258.457 194.322,257.483 195.131 C 256.993 195.537,256.711 195.395,255.860 194.311 C 254.009 191.956,253.610 191.600,252.826 191.600 C 248.308 191.600,248.542 195.870,253.167 197.804 C 258.022 199.834,259.694 202.812,258.254 206.866 C 256.133 212.837,247.899 212.333,246.975 206.175 C 246.483 202.892,247.797 202.666,249.364 205.764 C 250.538 208.083,251.536 208.653,253.622 208.195 C 256.874 207.481,256.583 202.214,253.247 201.407 C 247.478 200.010,245.082 194.510,248.582 190.700 C 250.457 188.658,254.241 188.472,256.310 190.320 M264.000 189.592 C 264.788 190.089,264.907 209.653,264.127 210.433 C 262.589 211.971,262.400 210.839,262.400 200.079 C 262.400 188.899,262.444 188.608,264.000 189.592 M276.668 191.000 C 277.274 192.650,277.509 193.427,278.838 198.200 C 279.268 199.740,279.982 202.102,280.427 203.450 C 282.233 208.920,281.062 213.543,279.122 208.603 C 277.994 205.732,277.814 205.600,275.040 205.600 C 271.991 205.600,270.893 206.278,270.559 208.367 C 270.226 210.447,269.860 210.936,268.870 210.622 C 267.744 210.265,267.440 209.072,268.132 207.720 C 268.447 207.104,268.838 205.790,269.000 204.800 C 269.162 203.810,269.526 202.548,269.809 201.995 C 270.091 201.442,270.454 200.110,270.616 199.036 C 270.777 197.961,271.153 196.614,271.452 196.041 C 271.751 195.469,271.996 194.589,271.998 194.087 C 272.000 193.078,272.961 190.570,273.674 189.710 C 274.562 188.640,276.034 189.274,276.668 191.000 M157.680 192.480 C 156.910 193.250,157.068 197.755,157.900 198.742 C 159.139 200.213,162.240 199.228,162.857 197.168 C 163.460 195.154,162.724 192.581,161.447 192.238 C 160.023 191.856,158.186 191.974,157.680 192.480 M161.916 193.491 C 162.224 193.911,162.387 195.014,162.317 196.200 L 162.200 198.200 160.200 198.200 L 158.200 198.200 158.078 195.845 C 157.910 192.575,158.092 192.245,159.906 192.540 C 160.726 192.673,161.631 193.101,161.916 193.491 M190.888 196.256 C 190.686 197.105,190.345 198.540,190.131 199.444 C 189.520 202.018,190.032 202.872,192.096 202.723 C 194.616 202.541,194.704 197.953,192.232 195.630 L 191.255 194.712 190.888 196.256 M236.257 195.500 C 236.148 195.885,235.942 196.830,235.797 197.600 C 235.653 198.370,235.337 199.573,235.096 200.274 C 234.475 202.082,235.213 202.878,237.365 202.720 C 238.983 202.601,239.001 202.582,239.124 200.888 C 239.329 198.043,236.852 193.387,236.257 195.500 M273.676 196.300 C 273.481 197.125,273.145 198.540,272.931 199.444 C 272.320 202.018,272.832 202.872,274.896 202.723 L 276.600 202.600 276.562 200.116 C 276.503 196.199,274.368 193.377,273.676 196.300 M113.600 196.800 C 113.835 197.240,114.292 197.600,114.614 197.600 C 114.936 197.600,115.200 197.804,115.200 198.054 C 115.200 198.723,117.089 200.357,118.179 200.631 C 119.777 201.032,119.764 202.333,118.160 202.634 C 117.412 202.774,116.800 203.041,116.800 203.226 C 116.800 203.411,116.196 203.849,115.458 204.199 C 114.720 204.550,113.883 205.272,113.598 205.804 C 112.677 207.525,112.400 206.456,112.400 201.176 C 112.400 196.103,112.680 195.081,113.600 196.800 M237.971 198.421 C 238.981 200.769,238.783 202.000,237.397 202.000 C 236.071 202.000,235.886 201.501,236.202 198.779 C 236.540 195.875,236.849 195.812,237.971 198.421 M192.502 197.706 C 193.961 199.933,193.673 202.178,191.959 201.935 C 190.847 201.777,190.621 200.991,190.986 198.553 C 191.282 196.583,191.636 196.385,192.502 197.706 M275.302 197.706 C 276.761 199.933,276.473 202.178,274.759 201.935 C 273.647 201.777,273.421 200.991,273.786 198.553 C 274.082 196.583,274.436 196.385,275.302 197.706 M113.594 228.100 C 113.597 228.485,113.851 228.800,114.157 228.800 C 114.849 228.800,115.200 229.669,115.200 231.383 C 115.200 233.467,114.745 235.200,114.197 235.200 C 113.920 235.200,113.599 235.560,113.484 236.000 C 113.369 236.440,113.078 236.800,112.837 236.800 C 112.352 236.800,112.195 227.138,112.673 226.661 C 113.022 226.311,113.586 227.191,113.594 228.100 " stroke="none" fill="#506fcf" fill-rule="evenodd"></path></g></svg>