<?xml version="1.0" encoding="UTF-8"?>
<svg xmlns="http://www.w3.org/2000/svg" xmlns:xlink="http://www.w3.org/1999/xlink" width="100" height="100" viewBox="0 0 100 100" version="1.1">
<g id="surface1">
<path style=" stroke:none;fill-rule:nonzero;fill:rgb(80%,0%,0%);fill-opacity:1;" d="M 18.167969 23.78125 C 18.699219 24.5625 21.566406 26.023438 21.933594 25.683594 C 22.265625 25.390625 28.234375 27.539062 28.601562 28.078125 C 28.867188 28.46875 28.101562 28.367188 24.832031 27.539062 C 20.5 26.464844 17.667969 26.171875 18.433594 26.855469 C 18.765625 27.148438 19.832031 27.492188 20.867188 27.636719 C 22.933594 27.832031 29.535156 29.199219 30.433594 29.589844 C 30.734375 29.734375 31 29.589844 31 29.296875 C 31 28.90625 31.800781 28.808594 33.765625 29.003906 L 36.5 29.25 L 34.167969 28.613281 C 32.898438 28.273438 31.667969 28.078125 31.464844 28.171875 C 31.234375 28.273438 30.964844 28.171875 30.832031 27.882812 C 30.734375 27.585938 30.234375 27.492188 29.734375 27.636719 C 29.167969 27.78125 29 27.734375 29.234375 27.492188 C 29.5 27.195312 27.867188 26.464844 24.566406 25.4375 C 21.800781 24.5625 19.132812 23.730469 18.667969 23.585938 C 18.101562 23.390625 17.933594 23.484375 18.167969 23.78125 Z M 30.832031 28.320312 C 30.964844 28.613281 30.601562 28.808594 29.933594 28.757812 C 29.035156 28.757812 28.933594 28.664062 29.5 28.320312 C 30.398438 27.734375 30.601562 27.734375 30.832031 28.320312 Z M 30.832031 28.320312 "/>
<path style=" stroke:none;fill-rule:nonzero;fill:rgb(80%,0%,0%);fill-opacity:1;" d="M 73.832031 26.855469 C 73.398438 27.148438 73.332031 27.296875 73.667969 27.296875 C 73.933594 27.296875 74.398438 27.101562 74.667969 26.855469 C 75.265625 26.269531 74.734375 26.269531 73.832031 26.855469 Z M 73.832031 26.855469 "/>
<path style=" stroke:none;fill-rule:nonzero;fill:rgb(80%,0%,0%);fill-opacity:1;" d="M 21.066406 28.46875 C 21.300781 28.859375 22.199219 29.785156 23 30.566406 C 24.5 31.933594 24.535156 31.933594 29.601562 31.882812 C 34.433594 31.835938 34.667969 31.882812 33.933594 32.664062 C 33.332031 33.300781 32.332031 33.445312 28.832031 33.445312 C 26.300781 33.445312 24.066406 33.203125 23.433594 32.859375 C 22.832031 32.519531 22.332031 32.46875 22.332031 32.714844 C 22.332031 32.960938 21.800781 33.007812 21.167969 32.859375 C 19.699219 32.519531 19.535156 33.59375 21 33.984375 C 21.535156 34.179688 21.933594 34.472656 21.832031 34.667969 C 21.667969 35.058594 24.300781 35.839844 24.566406 35.5 C 24.632812 35.351562 24.132812 35.109375 23.433594 34.914062 L 22.167969 34.523438 L 23.132812 34.132812 C 23.734375 33.886719 24.367188 33.9375 24.765625 34.277344 C 25.132812 34.523438 26 34.617188 26.699219 34.472656 C 27.367188 34.328125 28 34.375 28.066406 34.617188 C 28.132812 34.863281 29.199219 34.765625 30.5 34.375 C 33.5 33.546875 34.066406 33.546875 32.898438 34.472656 C 32.367188 34.914062 31.699219 35.109375 31.398438 34.914062 C 31.132812 34.765625 30.800781 34.863281 30.667969 35.15625 C 30.566406 35.449219 29.101562 35.984375 27.464844 36.425781 C 22.566406 37.695312 22.464844 37.695312 22.964844 37.207031 C 23.300781 36.867188 23.167969 36.71875 22.5 36.71875 C 21.601562 36.71875 21.601562 36.765625 22.234375 37.695312 C 22.601562 38.183594 23.464844 38.71875 24.199219 38.867188 C 25.167969 39.0625 25.367188 39.015625 25 38.625 C 24.601562 38.183594 24.632812 38.085938 25.265625 38.085938 C 25.699219 38.085938 25.933594 38.28125 25.832031 38.574219 C 25.632812 39.0625 27.332031 38.132812 27.667969 37.597656 C 27.867188 37.257812 31.433594 35.644531 31.964844 35.644531 C 32.566406 35.644531 34.898438 33.203125 34.332031 33.15625 C 34.066406 33.15625 34.199219 32.910156 34.632812 32.664062 C 35.101562 32.421875 35.667969 32.324219 35.898438 32.46875 C 36.199219 32.617188 36.265625 32.46875 36.132812 32.128906 C 35.964844 31.738281 36.066406 31.6875 36.433594 31.882812 C 36.765625 32.03125 37 32.128906 37 32.03125 C 37 31.6875 34.632812 29.785156 34.234375 29.835938 C 34 29.835938 34.132812 30.03125 34.5 30.273438 C 35.066406 30.566406 34.964844 30.710938 33.898438 31.007812 C 33.035156 31.25 32.332031 31.152344 31.800781 30.710938 C 31.199219 30.273438 30.898438 30.226562 30.601562 30.664062 C 30.199219 31.25 28.433594 30.90625 27.699219 30.078125 C 27.332031 29.6875 27.265625 29.6875 27.433594 30.078125 C 27.566406 30.421875 27.433594 30.8125 27.132812 30.957031 C 26.867188 31.101562 26.699219 31.054688 26.800781 30.8125 C 26.898438 30.617188 25.765625 30.03125 24.300781 29.539062 C 22.832031 29.054688 21.566406 28.46875 21.464844 28.222656 C 21.367188 28.027344 21.132812 27.832031 20.964844 27.832031 C 20.765625 27.832031 20.832031 28.125 21.066406 28.46875 Z M 26.433594 37.453125 C 26.199219 37.546875 25.800781 37.546875 25.601562 37.453125 C 25.367188 37.304688 25.535156 37.207031 26 37.207031 C 26.464844 37.207031 26.632812 37.304688 26.433594 37.453125 Z M 26.433594 37.453125 "/>
<path style=" stroke:none;fill-rule:nonzero;fill:rgb(80%,0%,0%);fill-opacity:1;" d="M 70.066406 28.710938 C 69.398438 29.054688 68.398438 29.394531 67.898438 29.394531 C 67.101562 29.445312 67.035156 29.539062 67.5 29.882812 C 68.035156 30.371094 71.964844 29.25 72.964844 28.367188 C 73.667969 27.734375 71.464844 27.976562 70.066406 28.710938 Z M 70.066406 28.710938 "/>
<path style=" stroke:none;fill-rule:nonzero;fill:rgb(80%,0%,0%);fill-opacity:1;" d="M 72.898438 29.148438 C 72.765625 29.296875 71.632812 29.835938 70.398438 30.273438 C 68.367188 31.007812 68.066406 31.007812 67.066406 30.320312 C 66.398438 29.882812 65.867188 29.734375 65.734375 30.03125 C 65.601562 30.320312 65.066406 30.566406 64.5 30.566406 C 63.964844 30.617188 61.332031 30.90625 58.667969 31.25 C 56 31.542969 53.566406 31.835938 53.265625 31.882812 C 52.964844 31.933594 52.765625 32.128906 52.867188 32.324219 C 52.933594 32.519531 52.734375 32.859375 52.433594 33.15625 C 52.101562 33.398438 51.933594 33.742188 52.066406 33.9375 C 52.167969 34.132812 52.632812 33.9375 53.066406 33.496094 C 54.132812 32.46875 58.101562 31.542969 59.867188 31.933594 C 60.765625 32.078125 61.332031 32.03125 61.332031 31.738281 C 61.332031 31.445312 61.699219 31.347656 62.132812 31.542969 C 62.601562 31.6875 63.132812 31.6875 63.332031 31.492188 C 63.699219 31.152344 67.332031 30.710938 67.332031 31.007812 C 67.332031 31.59375 61.566406 32.910156 58.734375 33.007812 C 54.964844 33.105469 54 33.640625 55.535156 34.863281 C 56.066406 35.253906 56.332031 35.59375 56.167969 35.644531 C 55.964844 35.644531 55.265625 35.203125 54.566406 34.667969 C 53.367188 33.742188 52.433594 33.742188 52.832031 34.667969 C 52.933594 34.914062 52.832031 35.253906 52.632812 35.449219 C 52.398438 35.644531 52.332031 35.59375 52.433594 35.304688 C 52.566406 35.007812 52.300781 34.570312 51.832031 34.277344 C 51.167969 33.835938 51 33.886719 50.898438 34.570312 C 50.699219 35.742188 51.035156 43.066406 51.5 47.851562 C 51.632812 49.171875 51.464844 48.828125 50.832031 46.53125 C 50.199219 44.140625 50.101562 43.210938 50.332031 42.234375 C 50.535156 41.503906 50.566406 41.0625 50.398438 41.164062 C 50.101562 41.453125 50.167969 34.863281 50.5 33.203125 C 50.699219 32.03125 50.699219 31.984375 50.167969 32.960938 C 49.867188 33.496094 49.535156 33.835938 49.398438 33.742188 C 49.066406 33.496094 48.332031 35.742188 48.566406 36.328125 C 48.699219 36.570312 48.898438 36.375 49.035156 35.839844 C 49.234375 35.058594 49.300781 35.058594 49.300781 35.742188 C 49.332031 36.179688 49.199219 36.71875 49 36.867188 C 48.832031 37.011719 48.667969 37.742188 48.667969 38.476562 C 48.667969 39.210938 48.5 40.136719 48.300781 40.527344 C 48 41.164062 47.964844 41.113281 48.132812 40.382812 C 48.234375 39.84375 48.199219 39.601562 47.964844 39.796875 C 47.765625 39.992188 47.699219 39.648438 47.832031 38.71875 L 48.066406 37.351562 L 47.601562 38.574219 C 47.332031 39.257812 47.265625 39.84375 47.398438 39.941406 C 47.535156 40.039062 47.5 40.527344 47.332031 41.0625 C 47.101562 41.699219 47.101562 41.992188 47.332031 41.992188 C 47.5 41.992188 47.667969 41.796875 47.667969 41.601562 C 47.667969 41.40625 47.964844 41.210938 48.300781 41.164062 C 49.066406 41.0625 49.535156 42.480469 48.933594 43.015625 C 48.632812 43.3125 48.632812 43.554688 48.964844 44.140625 C 49.398438 44.921875 49.332031 47.070312 48.800781 49.023438 C 48.632812 49.707031 48.699219 49.851562 49.035156 49.707031 C 49.300781 49.5625 49.464844 49.171875 49.398438 48.828125 C 49.265625 48.046875 50 46.828125 50.367188 47.167969 C 50.535156 47.3125 50.667969 47.949219 50.667969 48.632812 C 50.667969 49.265625 50.832031 49.804688 51.035156 49.804688 C 51.234375 49.804688 51.300781 50.242188 51.132812 50.878906 C 50.898438 52.101562 50.566406 52.636719 49.332031 53.859375 C 48.898438 54.296875 48.699219 54.6875 48.933594 54.6875 C 49.199219 54.6875 49.898438 54.101562 50.535156 53.417969 L 51.667969 52.148438 L 51.667969 54.101562 C 51.667969 55.175781 51.765625 56.492188 51.898438 56.984375 C 52.101562 57.765625 52.066406 57.8125 51.5 57.128906 C 50.933594 56.445312 50.898438 56.445312 51.300781 57.519531 C 51.535156 58.15625 51.667969 59.132812 51.601562 59.71875 C 51.535156 60.5 51.800781 61.132812 52.566406 61.867188 C 53.765625 63.132812 54.167969 63.28125 53.800781 62.351562 C 53.667969 62.011719 53.699219 61.914062 53.867188 62.15625 C 54.035156 62.402344 54.167969 62.84375 54.167969 63.132812 C 54.167969 63.429688 54.632812 64.160156 55.199219 64.695312 C 55.832031 65.28125 56.398438 66.359375 56.632812 67.335938 C 57.066406 69.433594 56.867188 69.921875 56.398438 67.96875 C 56.199219 67.140625 55.234375 65.625 54.101562 64.355469 C 51.398438 61.328125 51.464844 61.375 50.867188 62.890625 L 50.300781 64.210938 L 50.964844 63.085938 C 51.601562 62.011719 51.632812 62.011719 51.964844 62.9375 C 52.433594 64.160156 52.433594 66.0625 52 65.671875 C 51.464844 65.1875 51.632812 66.015625 52.5 68.3125 C 52.964844 69.433594 53.332031 71.046875 53.332031 71.777344 C 53.332031 73.484375 53.699219 73.925781 54.464844 73.09375 C 55 72.507812 54.933594 72.21875 53.699219 69.484375 C 52.300781 66.453125 52.035156 65.625 52.734375 66.210938 C 53 66.453125 53.035156 66.308594 52.898438 65.722656 C 52.734375 65.1875 52.800781 64.992188 53.066406 65.234375 C 53.332031 65.476562 53.367188 65.332031 53.234375 64.746094 C 53.066406 64.109375 53.332031 64.257812 54.132812 65.234375 C 54.765625 66.015625 55.300781 67.039062 55.300781 67.480469 C 55.332031 67.96875 55.535156 68.3125 55.765625 68.210938 C 56 68.164062 56.132812 68.554688 56.066406 69.289062 C 56 70.359375 56.035156 70.410156 56.734375 69.679688 C 57.167969 69.289062 57.464844 68.652344 57.398438 68.3125 C 57.332031 67.96875 57.5 67.53125 57.734375 67.335938 C 58.101562 66.992188 58.101562 66.894531 57.734375 66.894531 C 57.433594 66.894531 57.367188 66.554688 57.5 65.867188 C 57.667969 65.1875 57.601562 64.941406 57.398438 65.136719 C 56.933594 65.527344 54.667969 62.648438 54.667969 61.671875 C 54.667969 61.28125 54.535156 61.132812 54.332031 61.28125 C 54.167969 61.425781 54 61.328125 54 61.035156 C 54 60.742188 53.898438 60.59375 53.734375 60.742188 C 53.332031 61.085938 52.464844 59.914062 52.167969 58.59375 C 51.933594 57.519531 51.964844 57.46875 52.464844 58.054688 C 53.132812 58.886719 53.167969 58.398438 52.464844 56.882812 C 52.132812 56.101562 51.964844 54.980469 52.066406 53.757812 C 52.132812 52.6875 52.066406 51.90625 51.964844 52.050781 C 51.832031 52.148438 51.800781 49.804688 51.898438 46.828125 C 51.964844 43.847656 51.898438 41.164062 51.734375 40.867188 C 51.234375 39.941406 50.964844 37.597656 51.332031 37.597656 C 51.632812 37.597656 51.800781 38.234375 51.734375 39.160156 C 51.699219 39.304688 51.898438 39.746094 52.167969 40.039062 C 52.964844 41.015625 52.398438 37.597656 51.566406 36.28125 C 51.199219 35.644531 51 35.007812 51.101562 34.8125 C 51.398438 34.375 53.035156 36.671875 52.800781 37.207031 C 52.601562 37.648438 56.5 44.53125 56.765625 44.140625 C 57.066406 43.703125 57.601562 46.726562 57.433594 47.949219 C 57.332031 48.632812 57.464844 49.707031 57.667969 50.34375 C 58.066406 51.414062 58.101562 51.414062 58.535156 50.539062 C 58.832031 49.953125 58.867188 49.460938 58.667969 49.070312 C 58.464844 48.730469 58.101562 47.363281 57.832031 45.996094 C 57.433594 44.140625 56.867188 42.871094 55.5 40.96875 C 54.5 39.550781 53.734375 38.328125 53.832031 38.183594 C 53.898438 38.039062 54.199219 38.234375 54.5 38.574219 C 54.933594 39.109375 54.964844 39.0625 54.800781 38.28125 C 54.667969 37.792969 54.433594 37.0625 54.234375 36.71875 C 53.765625 35.839844 54.367188 35.984375 55.332031 36.960938 C 55.800781 37.453125 56.300781 37.84375 56.5 37.890625 C 56.667969 37.890625 57.035156 37.988281 57.265625 37.988281 C 57.464844 38.039062 57.667969 38.476562 57.699219 38.914062 C 57.699219 39.5 57.765625 39.550781 57.898438 39.160156 C 58.132812 38.328125 57 36.523438 56.433594 36.816406 C 56.199219 36.960938 55.933594 36.867188 55.832031 36.671875 C 55.667969 36.230469 57.5 35.058594 57.765625 35.449219 C 58.035156 35.839844 59.332031 36.085938 59.332031 35.742188 C 59.332031 35.15625 63.964844 35.890625 64.398438 36.523438 C 64.765625 37.0625 64.734375 37.109375 64.265625 36.867188 C 63.300781 36.328125 63.601562 37.011719 64.832031 38.234375 C 65.699219 39.109375 65.898438 39.5 65.566406 39.695312 C 65.300781 39.84375 64.734375 39.453125 64.300781 38.769531 C 63.898438 38.132812 63.332031 37.597656 63.101562 37.597656 C 62.867188 37.597656 62.367188 37.351562 62.035156 37.011719 C 61.535156 36.570312 61.199219 36.570312 60.601562 37.011719 C 59.933594 37.546875 59.933594 37.546875 60.535156 37.351562 C 60.933594 37.207031 61.398438 37.402344 61.667969 37.84375 C 61.898438 38.234375 62.433594 38.574219 62.832031 38.574219 C 63.234375 38.574219 63.765625 38.914062 64 39.304688 C 64.332031 39.890625 64.332031 40.039062 63.867188 40.039062 C 63.167969 40.039062 63.332031 41.164062 64.101562 41.601562 C 64.964844 42.140625 64.800781 43.117188 63.933594 42.675781 C 62.867188 42.234375 62.234375 41.40625 62.632812 41.0625 C 63.101562 40.625 61.066406 38.71875 59.765625 38.328125 C 58.265625 37.890625 58.367188 38.574219 60.167969 40.96875 C 61.132812 42.285156 61.964844 42.96875 62.535156 42.96875 C 63.398438 42.96875 63.398438 43.015625 62.898438 43.847656 C 62.464844 44.53125 62.433594 44.875 62.734375 45.3125 C 63.035156 45.75 63.035156 45.898438 62.765625 45.898438 C 62.535156 45.898438 62.101562 45.3125 61.734375 44.53125 C 61.367188 43.796875 60.433594 42.675781 59.632812 42.039062 C 57.933594 40.722656 58.234375 41.257812 60.167969 43.164062 C 60.898438 43.847656 61.265625 44.433594 61 44.433594 C 60.699219 44.433594 60.132812 44.09375 59.734375 43.652344 C 59.332031 43.261719 59 43.015625 59 43.164062 C 59 43.3125 58.601562 42.871094 58.101562 42.140625 C 57.566406 41.453125 56.734375 40.476562 56.167969 39.941406 C 55.601562 39.40625 55.933594 40.039062 56.898438 41.359375 C 57.832031 42.625 58.667969 44.042969 58.765625 44.433594 C 58.898438 44.921875 58.964844 44.875 58.964844 44.1875 C 59 43.40625 59.132812 43.507812 59.667969 44.773438 C 60.035156 45.65625 60.433594 46.386719 60.566406 46.386719 C 60.699219 46.386719 60.632812 46.140625 60.398438 45.800781 C 59.765625 44.875 59.933594 44.1875 60.601562 45.019531 C 60.898438 45.460938 61.332031 45.65625 61.566406 45.554688 C 62.332031 45.164062 62.300781 46.242188 61.5 46.875 C 60.535156 47.609375 59.667969 47.21875 59.433594 45.898438 C 59.332031 45.359375 59.132812 45.070312 58.964844 45.164062 C 58.832031 45.3125 58.566406 45.019531 58.367188 44.578125 C 57.964844 43.554688 57.867188 44.433594 58.234375 46.289062 C 58.367188 47.167969 58.5 47.3125 58.734375 46.777344 C 58.933594 46.335938 58.964844 46.484375 58.832031 47.21875 C 58.699219 48 58.832031 48.4375 59.332031 48.828125 C 60.066406 49.414062 60.800781 48.925781 61.433594 47.460938 C 61.566406 47.167969 61.867188 46.875 62.101562 46.875 C 62.332031 46.875 62.699219 46.679688 62.964844 46.4375 C 63.367188 46.046875 63.367188 45.800781 63.066406 45.265625 C 62.734375 44.679688 62.867188 44.433594 63.832031 43.75 C 65.132812 42.820312 65.234375 42.429688 64.464844 41.453125 C 64 40.917969 64.132812 40.722656 65.464844 40.1875 C 67.234375 39.40625 67.433594 38.820312 66 38.378906 C 64.601562 37.988281 64.765625 37.109375 66.265625 37.0625 C 66.933594 37.0625 68.101562 36.765625 68.832031 36.375 C 70.132812 35.789062 70.132812 35.742188 69.167969 35.695312 C 68.632812 35.644531 67.566406 35.5 66.832031 35.398438 C 65.898438 35.203125 65.699219 35.253906 66.167969 35.59375 C 66.535156 35.789062 66.964844 35.890625 67.132812 35.742188 C 67.300781 35.59375 67.332031 35.742188 67.199219 36.035156 C 66.867188 36.816406 66.535156 36.765625 65.066406 35.839844 C 64.398438 35.351562 63.101562 34.960938 62.167969 34.914062 C 61.265625 34.863281 60.132812 34.667969 59.699219 34.472656 C 59.167969 34.179688 59 34.226562 59.132812 34.617188 C 59.265625 34.914062 59.199219 35.15625 59 35.15625 C 58.765625 35.15625 58.667969 34.863281 58.765625 34.523438 C 58.867188 34.082031 60.035156 33.984375 63.300781 34.03125 C 67.265625 34.132812 68 34.03125 70.433594 32.859375 C 71.933594 32.128906 72.933594 31.492188 72.632812 31.398438 C 72.367188 31.296875 71.667969 31.445312 71.132812 31.789062 C 70.601562 32.078125 69.566406 32.324219 68.832031 32.273438 C 68.101562 32.226562 67.101562 32.375 66.667969 32.617188 C 66.199219 32.859375 65 33.203125 64 33.398438 C 62.667969 33.59375 62.964844 33.398438 65.167969 32.714844 C 70.535156 31.007812 71.464844 30.617188 72.832031 29.734375 C 73.566406 29.25 73.933594 28.859375 73.632812 28.859375 C 73.332031 28.808594 73 28.953125 72.898438 29.148438 Z M 68.5 33.203125 C 67.601562 33.789062 67.066406 33.789062 67.667969 33.203125 C 67.933594 32.960938 68.398438 32.765625 68.667969 32.765625 C 69 32.765625 68.933594 32.910156 68.5 33.203125 Z M 57.332031 33.691406 C 57.699219 33.691406 58.167969 34.179688 58.367188 34.765625 C 58.765625 35.839844 58.734375 35.839844 58.101562 35.007812 C 57.398438 34.082031 56.832031 33.886719 57.167969 34.667969 C 57.433594 35.304688 57.332031 35.304688 56.035156 34.617188 C 55.234375 34.179688 55.066406 33.9375 55.398438 33.640625 C 55.632812 33.398438 56.035156 33.300781 56.265625 33.445312 C 56.535156 33.59375 57 33.691406 57.332031 33.691406 Z M 54.832031 35.5 C 55.433594 36.179688 55.433594 36.230469 54.898438 35.9375 C 54 35.5 53.566406 36.085938 54.066406 37.011719 C 54.398438 37.597656 54.398438 37.695312 54.101562 37.402344 C 53.832031 37.207031 53.667969 37.304688 53.667969 37.648438 C 53.667969 38.476562 53.234375 37.742188 53.101562 36.71875 C 52.867188 34.667969 53.667969 34.082031 54.832031 35.5 Z M 61.5 40.28125 C 62.765625 42.089844 62.5 42.625 61 41.210938 C 60.265625 40.476562 59.667969 39.695312 59.667969 39.5 C 59.667969 38.671875 60.699219 39.0625 61.5 40.28125 Z M 61.5 40.28125 "/>
<path style=" stroke:none;fill-rule:nonzero;fill:rgb(80%,0%,0%);fill-opacity:1;" d="M 18 29.835938 C 18 30.421875 19.632812 31.542969 21 31.933594 C 21.933594 32.179688 22.035156 32.128906 21.433594 31.738281 C 20.398438 31.101562 20.464844 30.664062 21.5 31.054688 C 22 31.25 22.332031 31.152344 22.332031 30.859375 C 22.332031 30.566406 21.632812 30.175781 20.765625 30.03125 C 19.867188 29.882812 18.898438 29.640625 18.601562 29.539062 C 18.265625 29.445312 18 29.589844 18 29.835938 Z M 18 29.835938 "/>
<path style=" stroke:none;fill-rule:nonzero;fill:rgb(80%,0%,0%);fill-opacity:1;" d="M 36.433594 29.6875 C 36.167969 29.929688 36.398438 30.421875 37.199219 31.203125 C 37.832031 31.835938 38.332031 32.519531 38.332031 32.765625 C 38.332031 33.007812 38.566406 33.203125 38.867188 33.203125 C 39.132812 33.203125 39.265625 33.445312 39.167969 33.691406 C 39.035156 33.984375 38.632812 34.082031 38.234375 33.886719 C 37.566406 33.59375 37.535156 33.640625 38 34.421875 C 38.300781 35.007812 38.332031 35.203125 38.066406 34.960938 C 37.601562 34.570312 35.332031 36.425781 35.332031 37.207031 C 35.332031 37.5 35.867188 37.109375 36.5 36.425781 C 37.132812 35.695312 37.667969 35.351562 37.667969 35.644531 C 37.667969 36.425781 36.132812 38.574219 35.566406 38.574219 C 35.332031 38.574219 34.765625 39.109375 34.332031 39.796875 C 33.933594 40.429688 33.5 40.96875 33.367188 40.917969 C 32.832031 40.773438 30.734375 42.53125 30 43.75 C 29.101562 45.164062 29.535156 44.96875 31.265625 43.066406 C 32.667969 41.503906 32.867188 41.84375 31.832031 43.945312 C 31.367188 44.875 31 45.703125 31 45.851562 C 31.035156 46.289062 34.332031 40.820312 34.332031 40.382812 C 34.332031 40.1875 34.566406 40.039062 34.867188 40.039062 C 35.167969 40.039062 36.398438 38.574219 37.601562 36.816406 C 40.734375 32.273438 41.167969 31.882812 42 32.960938 C 42.601562 33.742188 43.699219 38.132812 43.667969 39.648438 C 43.632812 39.992188 43.332031 39.453125 42.964844 38.429688 C 42.601562 37.351562 42.199219 36.621094 42.132812 36.765625 C 42.035156 36.914062 42.199219 37.695312 42.464844 38.523438 C 43.066406 40.136719 43.167969 42.285156 42.699219 42.675781 C 42.367188 42.96875 41.300781 49.609375 41.367188 50.78125 C 41.535156 52.882812 41.265625 55.226562 40.765625 55.957031 C 40.234375 56.738281 40.234375 56.835938 41 57.714844 C 41.464844 58.25 41.832031 58.9375 41.832031 59.277344 C 41.832031 59.960938 39.964844 61.765625 39.398438 61.621094 C 39.167969 61.523438 38.035156 62.15625 36.867188 62.988281 C 35.234375 64.109375 34.734375 64.695312 34.765625 65.429688 C 34.800781 66.257812 35.035156 66.40625 36.199219 66.257812 C 36.964844 66.210938 37.535156 66.015625 37.464844 65.820312 C 37.398438 65.671875 37.800781 65.28125 38.398438 64.992188 C 39.601562 64.355469 40.734375 63.039062 40.5 62.5 C 40.398438 62.304688 40.601562 61.816406 40.933594 61.476562 C 41.433594 60.839844 41.464844 60.890625 41.035156 61.621094 C 40.765625 62.15625 40.734375 62.5 40.933594 62.5 C 41.132812 62.5 41.535156 62.011719 41.832031 61.375 C 42.265625 60.449219 42.398438 60.398438 42.667969 61.035156 C 42.832031 61.425781 43.101562 62.742188 43.234375 63.964844 C 43.464844 66.0625 43.464844 66.113281 43.667969 64.695312 L 43.898438 63.234375 L 44.132812 64.695312 C 44.566406 67.140625 44.632812 67.382812 44.964844 67.382812 C 45.167969 67.382812 45.234375 67.039062 45.132812 66.648438 C 45 66.257812 45.101562 65.917969 45.332031 65.917969 C 45.632812 65.917969 45.667969 66.40625 45.535156 67.480469 C 45 71.191406 44.933594 72.3125 45.167969 73.09375 C 45.433594 73.976562 45.699219 72.703125 46.132812 68.457031 C 46.234375 67.578125 46.433594 66.503906 46.601562 66.0625 C 46.867188 65.382812 47 65.476562 47.464844 66.796875 C 48.066406 68.457031 48.234375 70.117188 47.667969 68.847656 C 47.433594 68.359375 47.332031 69.289062 47.332031 71.875 C 47.332031 75.242188 47.398438 75.632812 48.035156 75.929688 C 48.433594 76.125 48.898438 76.023438 49.101562 75.734375 C 49.367188 75.34375 49.367188 75.195312 49.066406 75.148438 C 48.832031 75.097656 48.535156 75 48.332031 74.953125 C 48.167969 74.902344 47.898438 74.804688 47.800781 74.757812 C 47.667969 74.757812 47.765625 74.367188 48 73.976562 C 48.300781 73.4375 48.300781 72.898438 48.035156 71.777344 C 47.800781 70.703125 47.800781 70.359375 48.066406 70.605469 C 48.332031 70.851562 48.367188 69.824219 48.234375 66.945312 C 48.101562 63.574219 47.933594 62.84375 47.265625 62.011719 C 46.632812 61.230469 46.601562 61.085938 47.066406 61.035156 C 47.398438 61.035156 47.800781 60.59375 48 60.109375 C 48.300781 59.179688 48.300781 59.179688 47.464844 59.8125 C 46.964844 60.15625 46.332031 60.351562 46.035156 60.203125 C 45.667969 60.007812 45.734375 60.304688 46.265625 61.132812 C 46.800781 62.011719 46.933594 62.5 46.667969 62.742188 C 46.101562 63.28125 45.535156 62.207031 45.433594 60.398438 C 45.234375 56.640625 44.734375 54.6875 44 54.6875 C 43.632812 54.6875 44.367188 58.25 44.800781 58.691406 C 45 58.886719 44.898438 59.179688 44.566406 59.375 C 44.265625 59.523438 44 59.863281 44 60.15625 C 44 60.398438 44.167969 60.449219 44.332031 60.304688 C 44.667969 60.007812 44.832031 60.9375 44.734375 62.742188 C 44.667969 63.523438 44.734375 63.574219 45 62.988281 C 45.265625 62.402344 45.332031 62.453125 45.332031 63.328125 C 45.332031 63.914062 45.5 64.550781 45.734375 64.746094 C 45.964844 64.941406 46 64.890625 45.867188 64.550781 C 45.699219 64.160156 45.800781 64.0625 46.132812 64.257812 C 46.734375 64.601562 46.765625 64.890625 46.398438 65.773438 C 46 66.699219 43.933594 63.625 44.167969 62.5 C 44.367188 61.621094 43.867188 60.789062 43.167969 60.789062 C 43 60.789062 42.667969 59.375 42.464844 57.617188 L 42.101562 54.445312 L 41.734375 56.152344 C 41.398438 57.570312 41.367188 57.617188 41.535156 56.398438 C 41.632812 55.566406 41.800781 53.171875 41.898438 51.023438 C 42.066406 48.144531 42.167969 47.460938 42.367188 48.339844 C 42.5 49.023438 42.535156 48.4375 42.433594 46.921875 C 42.265625 44.824219 42.332031 44.382812 42.667969 44.679688 C 42.933594 44.921875 43.035156 44.875 42.898438 44.578125 C 42.765625 44.289062 43 43.210938 43.367188 42.1875 C 43.867188 40.773438 44 39.746094 43.867188 38.183594 C 43.5 34.277344 42.832031 32.910156 40.265625 31.007812 C 37.867188 29.25 37.132812 29.003906 36.433594 29.6875 Z M 39.535156 31.101562 C 40.167969 31.6875 40.265625 31.984375 39.933594 32.273438 C 39.265625 32.910156 39 32.8125 39.199219 31.984375 C 39.332031 31.492188 39.265625 31.347656 38.933594 31.492188 C 38.699219 31.640625 38.199219 31.445312 37.832031 31.054688 C 37.167969 30.320312 37.167969 30.320312 37.933594 30.273438 C 38.332031 30.273438 39.066406 30.617188 39.535156 31.101562 Z M 43.765625 62.742188 C 43.535156 63.769531 43.367188 63.671875 43.433594 62.546875 C 43.433594 62.011719 43.601562 61.671875 43.734375 61.816406 C 43.867188 61.960938 43.898438 62.351562 43.765625 62.742188 Z M 39.699219 62.742188 C 39.667969 63.039062 39.566406 63.234375 39.433594 63.234375 C 39.265625 63.28125 38.632812 63.769531 38 64.355469 C 36.601562 65.671875 35.566406 65.867188 36.367188 64.695312 C 37 63.769531 39.066406 62.109375 39.433594 62.207031 C 39.601562 62.257812 39.699219 62.5 39.699219 62.742188 Z M 39.699219 62.742188 "/>
<path style=" stroke:none;fill-rule:nonzero;fill:rgb(80%,0%,0%);fill-opacity:1;" d="M 32.332031 30.273438 C 32.332031 30.515625 32.667969 30.761719 33.101562 30.761719 C 33.699219 30.761719 33.734375 30.664062 33.332031 30.273438 C 32.699219 29.640625 32.332031 29.640625 32.332031 30.273438 Z M 32.332031 30.273438 "/>
<path style=" stroke:none;fill-rule:nonzero;fill:rgb(80%,0%,0%);fill-opacity:1;" d="M 47.035156 32.179688 C 46.332031 33.742188 45.265625 37.695312 45.5 37.988281 C 45.601562 38.132812 45.867188 37.453125 46.167969 36.476562 C 46.433594 35.546875 46.832031 34.570312 47.035156 34.421875 C 47.199219 34.226562 47.300781 33.742188 47.199219 33.351562 C 47.035156 32.8125 47.132812 32.714844 47.535156 32.910156 C 48.132812 33.25 49.433594 32.375 49.167969 31.738281 C 49.066406 31.542969 49.199219 31.25 49.398438 31.152344 C 49.632812 31.007812 49.332031 30.90625 48.734375 30.90625 C 47.933594 30.90625 47.464844 31.25 47.035156 32.179688 Z M 48.167969 31.738281 C 48.265625 31.984375 48.199219 32.226562 48.035156 32.226562 C 47.832031 32.226562 47.667969 31.984375 47.667969 31.738281 C 47.667969 31.445312 47.734375 31.25 47.800781 31.25 C 47.898438 31.25 48.066406 31.445312 48.167969 31.738281 Z M 48.167969 31.738281 "/>
<path style=" stroke:none;fill-rule:nonzero;fill:rgb(80%,0%,0%);fill-opacity:1;" d="M 50.066406 31.398438 C 49.765625 31.882812 49.898438 32.03125 50.601562 31.933594 C 51.867188 31.835938 51.898438 31.789062 51.332031 31.25 C 50.667969 30.617188 50.464844 30.664062 50.066406 31.398438 Z M 50.066406 31.398438 "/>
<path style=" stroke:none;fill-rule:nonzero;fill:rgb(80%,0%,0%);fill-opacity:1;" d="M 36.265625 33.546875 C 36.5 33.691406 36.800781 33.640625 36.898438 33.496094 C 37.035156 33.351562 36.832031 33.203125 36.464844 33.25 C 36.101562 33.25 36 33.398438 36.265625 33.546875 Z M 36.265625 33.546875 "/>
<path style=" stroke:none;fill-rule:nonzero;fill:rgb(80%,0%,0%);fill-opacity:1;" d="M 41.234375 33.742188 C 41.566406 34.328125 41.5 34.570312 40.964844 35.058594 C 40.601562 35.398438 40.332031 35.449219 40.332031 35.15625 C 40.332031 34.914062 40.5 34.667969 40.699219 34.667969 C 40.867188 34.667969 40.933594 34.421875 40.832031 34.132812 C 40.667969 33.835938 40.433594 33.9375 40.132812 34.523438 C 39.464844 35.839844 39.566406 36.085938 40.667969 35.890625 L 41.632812 35.695312 L 41 37.257812 C 40.265625 38.964844 40.132812 40.527344 40.699219 40.527344 C 40.867188 40.527344 40.964844 40.671875 40.898438 40.867188 C 40.800781 41.113281 40.933594 41.894531 41.199219 42.726562 C 41.601562 43.945312 41.632812 43.992188 41.5 42.96875 C 41.234375 41.40625 41.167969 40.96875 40.867188 39.941406 C 40.601562 39.0625 41 37.695312 41.867188 36.425781 C 42.132812 35.984375 42.234375 35.644531 42.066406 35.644531 C 41.898438 35.644531 41.800781 35.15625 41.800781 34.617188 C 41.832031 34.03125 41.601562 33.445312 41.332031 33.300781 C 40.933594 33.105469 40.898438 33.203125 41.234375 33.742188 Z M 41.234375 33.742188 "/>
<path style=" stroke:none;fill-rule:nonzero;fill:rgb(80%,0%,0%);fill-opacity:1;" d="M 47.066406 35.546875 C 46.566406 36.816406 46.367188 38.183594 46.398438 39.941406 C 46.464844 42.921875 46.632812 42.96875 46.867188 39.992188 C 46.964844 38.820312 47.199219 37.597656 47.398438 37.257812 C 47.566406 36.914062 47.632812 36.476562 47.535156 36.230469 C 47.433594 35.9375 47.566406 35.5 47.832031 35.15625 C 48.367188 34.523438 48.5 33.691406 48.066406 33.691406 C 47.898438 33.691406 47.464844 34.523438 47.066406 35.546875 Z M 47.035156 37.257812 C 46.699219 37.695312 46.667969 37.648438 46.867188 36.960938 C 46.964844 36.476562 47.167969 36.230469 47.265625 36.375 C 47.367188 36.523438 47.265625 36.914062 47.035156 37.257812 Z M 47.035156 37.257812 "/>
<path style=" stroke:none;fill-rule:nonzero;fill:rgb(80%,0%,0%);fill-opacity:1;" d="M 35.199219 35.109375 C 34.667969 35.644531 34.035156 35.9375 33.765625 35.789062 C 33.535156 35.644531 33.132812 35.742188 32.898438 36.035156 C 32.234375 36.867188 29.632812 38.039062 29.132812 37.742188 C 28.632812 37.5 27.566406 38.769531 27.898438 39.210938 C 28 39.40625 28.332031 39.355469 28.632812 39.109375 C 28.933594 38.867188 30.332031 38.328125 31.734375 37.890625 C 33.132812 37.453125 34.464844 36.71875 34.734375 36.28125 C 34.964844 35.839844 35.601562 35.203125 36.167969 34.863281 C 36.699219 34.523438 36.933594 34.226562 36.667969 34.179688 C 36.398438 34.179688 35.734375 34.617188 35.199219 35.109375 Z M 35.199219 35.109375 "/>
<path style=" stroke:none;fill-rule:nonzero;fill:rgb(80%,0%,0%);fill-opacity:1;" d="M 26.832031 35.644531 C 26.734375 35.890625 26.765625 36.132812 26.964844 36.132812 C 27.132812 36.132812 27.398438 35.890625 27.5 35.644531 C 27.601562 35.351562 27.566406 35.15625 27.367188 35.15625 C 27.199219 35.15625 26.933594 35.351562 26.832031 35.644531 Z M 26.832031 35.644531 "/>
<path style=" stroke:none;fill-rule:nonzero;fill:rgb(80%,0%,0%);fill-opacity:1;" d="M 25.265625 35.984375 C 25.5 36.132812 25.800781 36.085938 25.898438 35.9375 C 26.035156 35.789062 25.832031 35.644531 25.464844 35.695312 C 25.101562 35.695312 25 35.839844 25.265625 35.984375 Z M 25.265625 35.984375 "/>
<path style=" stroke:none;fill-rule:nonzero;fill:rgb(80%,0%,0%);fill-opacity:1;" d="M 38.367188 36.523438 C 38.367188 36.867188 38.167969 37.402344 38 37.742188 C 37.800781 38.085938 37.332031 38.964844 36.964844 39.695312 C 36.566406 40.476562 35.867188 41.308594 35.433594 41.554688 C 34.699219 41.945312 34.398438 42.675781 32.734375 48.046875 C 32.632812 48.289062 32.765625 48.339844 32.964844 48.144531 C 33.199219 47.949219 33.601562 46.921875 33.867188 45.851562 C 34.167969 44.824219 34.535156 44.042969 34.667969 44.1875 C 34.832031 44.335938 34.566406 45.554688 34.101562 46.875 C 33.265625 49.265625 33.265625 49.367188 33.832031 50.292969 C 34.667969 51.660156 34.964844 51.515625 35.566406 49.414062 C 35.832031 48.4375 36.566406 46.632812 37.167969 45.410156 C 38.464844 42.773438 38.765625 41.503906 38.332031 40.527344 C 38.101562 39.941406 38 40.136719 38 41.210938 C 38 42.089844 37.433594 43.75 36.332031 45.898438 C 35.433594 47.703125 34.667969 49.609375 34.667969 50.097656 C 34.667969 50.78125 34.566406 50.828125 34.265625 50.390625 C 33.933594 49.902344 33.933594 49.5625 34.300781 48.730469 C 34.535156 48.144531 34.765625 47.167969 34.832031 46.582031 C 34.867188 45.945312 35.300781 44.578125 35.800781 43.601562 C 36.300781 42.578125 37.132812 40.820312 37.699219 39.648438 C 38.265625 38.523438 38.632812 37.207031 38.566406 36.71875 C 38.464844 36.28125 38.398438 36.179688 38.367188 36.523438 Z M 38.367188 36.523438 "/>
<path style=" stroke:none;fill-rule:nonzero;fill:rgb(80%,0%,0%);fill-opacity:1;" d="M 31.832031 39.648438 C 30.933594 40.1875 29.898438 40.820312 29.601562 41.0625 C 28.800781 41.648438 28.566406 41.601562 28.867188 40.96875 C 29.132812 40.332031 27.765625 40.820312 27.101562 41.601562 C 26.800781 41.945312 26.667969 41.945312 26.667969 41.554688 C 26.667969 41.257812 26.898438 40.867188 27.167969 40.722656 C 27.433594 40.527344 27.667969 40.1875 27.667969 39.941406 C 27.667969 39.601562 27.5 39.648438 27.234375 39.992188 C 26.964844 40.28125 26.667969 40.382812 26.566406 40.1875 C 26.433594 40.039062 26.332031 40.429688 26.332031 41.164062 C 26.332031 42.773438 28.035156 45.410156 30.066406 46.875 C 31.933594 48.195312 32.464844 48 33.167969 45.605469 C 33.800781 43.3125 33.800781 43.117188 33.101562 44.382812 C 32.765625 44.921875 32.066406 45.703125 31.535156 46.09375 C 30.699219 46.726562 30.5 46.679688 29.601562 45.898438 C 29.066406 45.410156 28.398438 44.578125 28.132812 44.042969 C 27.734375 43.210938 27.734375 43.015625 28.167969 42.773438 C 28.433594 42.625 28.667969 42.773438 28.699219 43.117188 C 28.699219 43.457031 28.867188 43.261719 29.035156 42.726562 C 29.234375 42.140625 30.265625 41.257812 31.535156 40.527344 C 32.734375 39.890625 33.800781 39.160156 33.867188 38.964844 C 34.101562 38.429688 33.699219 38.523438 31.832031 39.648438 Z M 28.800781 41.894531 C 28.867188 42.089844 28.566406 42.335938 28.066406 42.382812 C 27.367188 42.429688 27.265625 42.382812 27.667969 41.992188 C 28.265625 41.40625 28.566406 41.40625 28.800781 41.894531 Z M 28.800781 41.894531 "/>
<path style=" stroke:none;fill-rule:nonzero;fill:rgb(80%,0%,0%);fill-opacity:1;" d="M 44.167969 40.820312 C 43.535156 42.234375 42.667969 50.734375 42.734375 54.6875 C 42.765625 56.296875 42.800781 56.492188 42.898438 55.421875 C 43.101562 53.417969 43.5 52.929688 44.234375 53.757812 C 44.765625 54.34375 44.765625 54.34375 44.199219 53.367188 C 43.867188 52.78125 43.667969 52 43.734375 51.660156 C 43.832031 51.320312 43.765625 50.4375 43.632812 49.65625 C 43.5 48.925781 43.5 48.339844 43.667969 48.339844 C 43.832031 48.339844 43.867188 47.3125 43.800781 45.996094 C 43.699219 44.335938 43.734375 43.898438 43.964844 44.433594 C 44.265625 45.070312 44.332031 45.019531 44.332031 44.289062 C 44.332031 43.796875 44.464844 43.507812 44.601562 43.652344 C 44.765625 43.796875 44.832031 44.53125 44.800781 45.359375 C 44.765625 46.335938 44.964844 47.117188 45.464844 47.703125 C 46.167969 48.585938 46.167969 48.585938 45.566406 47.558594 C 45.066406 46.679688 45.035156 46.484375 45.464844 46.242188 C 45.765625 46.046875 46 46.335938 46.101562 46.972656 C 46.332031 48.242188 47.066406 47.609375 46.964844 46.242188 C 46.898438 45.65625 47.035156 44.679688 47.265625 44.09375 C 47.898438 42.429688 47.734375 42.335938 46.832031 43.75 C 45.933594 45.164062 44.867188 45.800781 45.101562 44.773438 C 45.167969 44.433594 45 43.796875 44.734375 43.3125 C 44.300781 42.578125 44.300781 42.285156 44.667969 41.257812 C 45.300781 39.550781 44.898438 39.210938 44.167969 40.820312 Z M 46.566406 46.484375 C 46.464844 46.875 46.367188 46.726562 46.367188 46.191406 C 46.332031 45.65625 46.433594 45.359375 46.535156 45.554688 C 46.632812 45.703125 46.667969 46.140625 46.566406 46.484375 Z M 46.566406 46.484375 "/>
<path style=" stroke:none;fill-rule:nonzero;fill:rgb(80%,0%,0%);fill-opacity:1;" d="M 45.535156 40.28125 C 45.433594 40.671875 45.5 41.015625 45.667969 41.015625 C 46.101562 41.015625 46.398438 40.136719 46.035156 39.84375 C 45.867188 39.695312 45.667969 39.890625 45.535156 40.28125 Z M 45.535156 40.28125 "/>
<path style=" stroke:none;fill-rule:nonzero;fill:rgb(80%,0%,0%);fill-opacity:1;" d="M 41.867188 41.75 C 42 42.140625 42.132812 42.480469 42.199219 42.480469 C 42.265625 42.480469 42.332031 42.140625 42.332031 41.75 C 42.332031 41.359375 42.199219 41.015625 42 41.015625 C 41.832031 41.015625 41.765625 41.359375 41.867188 41.75 Z M 41.867188 41.75 "/>
<path style=" stroke:none;fill-rule:nonzero;fill:rgb(80%,0%,0%);fill-opacity:1;" d="M 39.5 42.234375 C 39.667969 42.773438 39.765625 43.703125 39.765625 44.289062 C 39.734375 44.96875 39.898438 45.265625 40.199219 45.070312 C 40.535156 44.875 40.535156 44.578125 40.265625 43.554688 C 40.035156 42.820312 39.734375 41.992188 39.566406 41.75 C 39.332031 41.453125 39.332031 41.601562 39.5 42.234375 Z M 39.5 42.234375 "/>
<path style=" stroke:none;fill-rule:nonzero;fill:rgb(80%,0%,0%);fill-opacity:1;" d="M 54.535156 43.3125 C 54.832031 44.335938 55.199219 45.359375 55.367188 45.605469 C 55.734375 46.191406 55.765625 47.023438 55.433594 46.726562 C 54.867188 46.242188 55.066406 49.511719 55.667969 51.269531 C 56.300781 53.027344 56.464844 55.320312 55.933594 54.882812 C 55.800781 54.734375 55.5 53.664062 55.300781 52.441406 C 55.101562 51.269531 54.800781 50.148438 54.632812 50 C 54.199219 49.609375 54.265625 50.4375 54.800781 52.296875 C 55.101562 53.367188 55.167969 54.296875 54.964844 55.078125 C 54.765625 55.8125 54.800781 56.59375 55.035156 57.226562 C 55.433594 58.300781 55.800781 58.007812 56.464844 56.054688 C 56.667969 55.46875 57.101562 54.929688 57.398438 54.929688 C 57.699219 54.929688 58.035156 54.734375 58.132812 54.539062 C 58.234375 54.34375 58.234375 54.296875 58.132812 54.445312 C 57.867188 54.6875 57.066406 53.171875 56.066406 50.4375 C 55.464844 48.875 55.367188 48.144531 55.632812 47.507812 C 55.898438 46.828125 56 46.777344 56.035156 47.363281 C 56.066406 47.753906 56.035156 48.4375 56 48.828125 C 55.964844 49.21875 56.066406 49.367188 56.199219 49.171875 C 56.367188 48.925781 56.699219 49.804688 57 51.074219 C 57.535156 53.515625 58.199219 54.445312 58.199219 52.734375 C 58.199219 52.195312 58.101562 51.757812 57.964844 51.757812 C 57.535156 51.757812 56.566406 47.414062 56.765625 46.386719 C 56.898438 45.605469 56.832031 45.460938 56.535156 45.851562 C 56.199219 46.242188 55.898438 45.800781 55.199219 43.945312 C 54.132812 41.0625 53.832031 40.773438 54.535156 43.3125 Z M 55.566406 56.25 C 55.464844 56.640625 55.367188 56.492188 55.367188 55.957031 C 55.332031 55.421875 55.433594 55.125 55.535156 55.320312 C 55.632812 55.46875 55.667969 55.90625 55.566406 56.25 Z M 55.566406 56.25 "/>
<path style=" stroke:none;fill-rule:nonzero;fill:rgb(80%,0%,0%);fill-opacity:1;" d="M 52.898438 42.335938 C 52.765625 42.480469 52.832031 42.921875 53.035156 43.3125 C 53.332031 43.75 53.300781 43.945312 53.035156 43.945312 C 52.734375 43.945312 52.734375 44.1875 53 44.921875 C 53.199219 45.460938 53.5 45.898438 53.699219 45.898438 C 53.898438 45.898438 53.898438 45.554688 53.667969 44.921875 C 53.464844 44.382812 53.398438 43.945312 53.535156 43.945312 C 53.632812 43.945312 53.566406 43.652344 53.367188 43.261719 C 53.066406 42.726562 53.066406 42.53125 53.398438 42.335938 C 53.632812 42.1875 53.667969 42.039062 53.464844 42.039062 C 53.265625 41.992188 53 42.140625 52.898438 42.335938 Z M 52.898438 42.335938 "/>
<path style=" stroke:none;fill-rule:nonzero;fill:rgb(80%,0%,0%);fill-opacity:1;" d="M 50.734375 43.945312 C 50.734375 44.628906 50.800781 44.875 50.898438 44.53125 C 50.964844 44.238281 50.964844 43.652344 50.898438 43.3125 C 50.800781 43.015625 50.734375 43.261719 50.734375 43.945312 Z M 50.734375 43.945312 "/>
<path style=" stroke:none;fill-rule:nonzero;fill:rgb(80%,0%,0%);fill-opacity:1;" d="M 38 44.484375 C 38 44.773438 37.566406 45.898438 37.066406 47.023438 C 35.898438 49.609375 35.265625 51.710938 35.5 52.296875 C 35.867188 53.125 36.332031 52.734375 36.332031 51.660156 C 36.332031 50.390625 37.964844 45.410156 38.398438 45.410156 C 38.800781 45.410156 38.765625 45.703125 37.667969 48.828125 C 37.132812 50.4375 36.667969 52.101562 36.667969 52.585938 C 36.699219 53.078125 37.199219 54.34375 37.867188 55.371094 C 38.800781 56.984375 39.101562 57.179688 39.433594 56.640625 C 39.699219 56.203125 39.699219 56.101562 39.433594 56.347656 C 38.699219 56.933594 38.667969 55.8125 39.300781 52.929688 C 39.832031 50.539062 39.933594 50.292969 39.964844 51.515625 C 40 52.636719 40.066406 52.832031 40.332031 52.246094 C 40.765625 51.269531 40.765625 52.296875 40.332031 53.90625 C 40.167969 54.640625 40.132812 55.175781 40.300781 55.175781 C 41 55.175781 41.035156 52.296875 40.398438 50.4375 L 39.734375 48.585938 L 39.332031 50.683594 C 38.832031 53.027344 38.667969 53.171875 38.066406 51.710938 C 37.699219 50.878906 37.734375 50.488281 38.332031 49.171875 L 39.066406 47.609375 L 38.867188 49.070312 C 38.699219 50.292969 38.734375 50.390625 39.035156 49.65625 C 39.433594 48.679688 38.832031 43.945312 38.300781 43.945312 C 38.132812 43.945312 38 44.1875 38 44.484375 Z M 38.667969 53.5625 C 38.667969 54.054688 38 55.515625 38 55.078125 C 38 54.929688 37.898438 54.445312 37.800781 54.003906 C 37.667969 53.46875 37.765625 53.222656 38.132812 53.222656 C 38.433594 53.222656 38.667969 53.367188 38.667969 53.5625 Z M 38.667969 53.5625 "/>
<path style=" stroke:none;fill-rule:nonzero;fill:rgb(80%,0%,0%);fill-opacity:1;" d="M 48.535156 46.140625 C 48.433594 46.53125 48.5 46.875 48.667969 46.875 C 48.867188 46.875 49 46.53125 49 46.140625 C 49 45.75 48.933594 45.410156 48.867188 45.410156 C 48.800781 45.410156 48.667969 45.75 48.535156 46.140625 Z M 48.535156 46.140625 "/>
<path style=" stroke:none;fill-rule:nonzero;fill:rgb(80%,0%,0%);fill-opacity:1;" d="M 40.433594 46.632812 C 40.332031 47.070312 40.332031 47.507812 40.398438 47.65625 C 40.5 47.804688 40.667969 47.460938 40.765625 46.875 C 40.964844 45.75 40.734375 45.554688 40.433594 46.632812 Z M 40.433594 46.632812 "/>
<path style=" stroke:none;fill-rule:nonzero;fill:rgb(80%,0%,0%);fill-opacity:1;" d="M 53.535156 47.023438 C 53.632812 47.507812 53.832031 47.753906 53.933594 47.609375 C 54.035156 47.460938 53.933594 47.070312 53.699219 46.726562 C 53.367188 46.289062 53.332031 46.335938 53.535156 47.023438 Z M 53.535156 47.023438 "/>
<path style=" stroke:none;fill-rule:nonzero;fill:rgb(80%,0%,0%);fill-opacity:1;" d="M 47.367188 48.242188 C 47.367188 48.875 47.199219 49.265625 47.035156 49.070312 C 46.832031 48.925781 46.800781 49.367188 46.898438 50.148438 C 47.132812 51.90625 47.234375 53.859375 47.101562 54.296875 C 47.035156 54.492188 46.464844 53.859375 45.832031 52.929688 C 44.699219 51.320312 44.433594 51.320312 44.867188 52.929688 C 44.964844 53.367188 45.265625 53.710938 45.535156 53.710938 C 45.800781 53.710938 46 54.003906 46 54.34375 C 46 54.734375 46.300781 55.421875 46.632812 55.859375 C 47.132812 56.542969 47.433594 56.59375 47.898438 56.203125 C 48.300781 55.859375 48.332031 55.710938 48.035156 55.664062 C 47.667969 55.664062 47.667969 55.515625 48 54.929688 C 48.234375 54.539062 48.300781 54.199219 48.199219 54.199219 C 48.066406 54.199219 48.132812 53.757812 48.332031 53.273438 C 48.535156 52.6875 48.535156 52.195312 48.367188 52 C 48.199219 51.855469 47.964844 52.148438 47.898438 52.585938 C 47.765625 53.273438 47.734375 53.222656 47.699219 52.390625 C 47.699219 51.804688 47.867188 51.125 48.132812 50.929688 C 48.433594 50.683594 48.5 50.195312 48.300781 49.5625 C 48.035156 48.585938 48.035156 48.585938 47.964844 49.5625 C 47.933594 50.148438 47.800781 49.851562 47.667969 48.828125 C 47.5 47.65625 47.398438 47.460938 47.367188 48.242188 Z M 47.367188 48.242188 "/>
<path style=" stroke:none;fill-rule:nonzero;fill:rgb(80%,0%,0%);fill-opacity:1;" d="M 52.5 47.851562 C 52.367188 48.144531 52.367188 48.976562 52.5 49.707031 C 52.601562 50.4375 52.699219 52.148438 52.734375 53.46875 C 52.765625 56.296875 53.464844 59.082031 54.167969 59.082031 C 54.535156 59.082031 54.632812 58.546875 54.535156 56.738281 C 54.464844 55.46875 54.234375 53.90625 54.035156 53.222656 C 53.699219 52.101562 53.667969 52.101562 53.800781 53.125 C 53.867188 53.710938 53.800781 54.101562 53.667969 53.953125 C 53.398438 53.710938 53.234375 52.832031 52.800781 49.171875 C 52.667969 48 52.699219 47.804688 52.964844 48.339844 C 53.199219 48.78125 53.332031 48.828125 53.332031 48.484375 C 53.332031 47.703125 52.765625 47.21875 52.5 47.851562 Z M 53.867188 56.933594 L 54.035156 58.835938 L 53.535156 57.179688 C 52.898438 55.273438 52.800781 53.710938 53.332031 54.492188 C 53.535156 54.785156 53.765625 55.859375 53.867188 56.933594 Z M 53.867188 56.933594 "/>
<path style=" stroke:none;fill-rule:nonzero;fill:rgb(80%,0%,0%);fill-opacity:1;" d="M 44 48.925781 C 44 49.21875 44.101562 49.316406 44.199219 49.171875 C 44.332031 49.023438 44.867188 49.757812 45.367188 50.78125 C 45.898438 51.855469 46.398438 52.734375 46.464844 52.734375 C 46.632812 52.734375 46.101562 51.171875 45.332031 49.414062 C 44.800781 48.289062 44 47.949219 44 48.925781 Z M 44 48.925781 "/>
<path style=" stroke:none;fill-rule:nonzero;fill:rgb(80%,0%,0%);fill-opacity:1;" d="M 49.632812 52.101562 L 48.832031 53.46875 L 49.765625 52.296875 C 50.265625 51.609375 50.667969 51.023438 50.667969 50.929688 C 50.667969 50.539062 50.398438 50.878906 49.632812 52.101562 Z M 49.632812 52.101562 "/>
<path style=" stroke:none;fill-rule:nonzero;fill:rgb(80%,0%,0%);fill-opacity:1;" d="M 39.535156 53.953125 C 39.433594 54.394531 39.332031 55.03125 39.367188 55.320312 C 39.367188 55.664062 39.535156 55.371094 39.699219 54.734375 C 39.867188 54.101562 39.964844 53.46875 39.867188 53.367188 C 39.800781 53.273438 39.667969 53.515625 39.535156 53.953125 Z M 39.535156 53.953125 "/>
<path style=" stroke:none;fill-rule:nonzero;fill:rgb(80%,0%,0%);fill-opacity:1;" d="M 56.832031 56.152344 C 56.734375 56.398438 56.800781 56.640625 56.964844 56.640625 C 57.167969 56.640625 57.332031 56.398438 57.332031 56.152344 C 57.332031 55.859375 57.265625 55.664062 57.199219 55.664062 C 57.101562 55.664062 56.933594 55.859375 56.832031 56.152344 Z M 56.832031 56.152344 "/>
<path style=" stroke:none;fill-rule:nonzero;fill:rgb(80%,0%,0%);fill-opacity:1;" d="M 47.898438 56.933594 C 47.5 57.519531 47.632812 58.203125 48.101562 57.960938 C 48.601562 57.714844 48.699219 58.351562 48.699219 60.984375 C 48.699219 61.867188 48.933594 63.132812 49.234375 63.820312 C 49.632812 64.695312 49.667969 65.136719 49.367188 65.578125 C 49.101562 65.96875 49 65.917969 49 65.332031 C 49 64.890625 48.867188 64.40625 48.699219 64.257812 C 48.167969 63.769531 48.765625 66.648438 49.367188 67.53125 C 49.964844 68.359375 50 68.359375 50 66.601562 C 50 64.84375 50.035156 64.84375 50.632812 65.625 C 51.035156 66.164062 51.199219 66.84375 51.066406 67.480469 C 50.933594 68.261719 51 68.40625 51.332031 68.117188 C 51.667969 67.820312 51.734375 67.921875 51.566406 68.601562 C 51.398438 69.140625 51.601562 70.117188 52 71.191406 C 52.898438 73.390625 52.601562 73.875 51.667969 71.726562 C 51.066406 70.359375 51 70.265625 51.167969 71.289062 C 51.300781 71.972656 51.632812 72.851562 51.867188 73.289062 C 52.132812 73.730469 52.234375 74.21875 52.101562 74.460938 C 51.933594 74.65625 52.035156 74.757812 52.300781 74.609375 C 52.566406 74.511719 52.832031 73.976562 52.867188 73.4375 C 53.066406 71.828125 51.566406 66.40625 50.601562 65.1875 C 50.101562 64.601562 49.800781 63.964844 49.898438 63.769531 C 50 63.625 49.832031 63.039062 49.5 62.5 C 49.167969 61.960938 49 61.375 49.132812 61.179688 C 49.265625 60.984375 49.5 61.085938 49.632812 61.476562 C 49.832031 61.960938 49.964844 61.914062 50.132812 61.28125 C 50.265625 60.742188 50.132812 60.203125 49.800781 59.8125 C 49.464844 59.472656 49.199219 58.691406 49.167969 58.054688 C 49.101562 56.933594 48.367188 56.25 47.898438 56.933594 Z M 47.898438 56.933594 "/>
<path style=" stroke:none;fill-rule:nonzero;fill:rgb(80%,0%,0%);fill-opacity:1;" d="M 49.867188 57.960938 C 49.667969 58.640625 49.699219 58.691406 50.035156 58.25 C 50.265625 57.910156 50.367188 57.519531 50.265625 57.375 C 50.167969 57.226562 49.964844 57.46875 49.867188 57.960938 Z M 49.867188 57.960938 "/>
<path style=" stroke:none;fill-rule:nonzero;fill:rgb(80%,0%,0%);fill-opacity:1;" d="M 37.5 58.59375 C 36.464844 59.277344 36.300781 59.523438 36.734375 59.8125 C 37.035156 59.960938 37.601562 59.863281 38 59.570312 C 38.398438 59.277344 38.800781 59.132812 38.898438 59.277344 C 39.035156 59.421875 38.101562 60.253906 36.832031 61.085938 C 35.101562 62.207031 34.667969 62.695312 34.964844 63.132812 C 35.234375 63.523438 35.433594 63.574219 35.601562 63.183594 C 35.734375 62.890625 36.632812 62.257812 37.601562 61.816406 C 38.535156 61.328125 39.265625 60.789062 39.167969 60.546875 C 38.933594 60.007812 40.234375 59.421875 40.699219 59.863281 C 40.964844 60.058594 41 60.007812 40.867188 59.667969 C 40.734375 59.328125 40.800781 59.082031 41.035156 59.082031 C 41.265625 59.082031 41.167969 58.742188 40.800781 58.351562 C 39.964844 57.421875 39.132812 57.46875 37.5 58.59375 Z M 39.5 58.59375 C 39.601562 58.886719 39.464844 58.9375 39.199219 58.789062 C 38.601562 58.445312 38.5 58.105469 38.964844 58.105469 C 39.167969 58.105469 39.398438 58.300781 39.5 58.59375 Z M 39.5 58.59375 "/>
<path style=" stroke:none;fill-rule:nonzero;fill:rgb(80%,0%,0%);fill-opacity:1;" d="M 47.035156 58.398438 C 47.035156 58.9375 47.132812 59.082031 47.234375 58.691406 C 47.332031 58.351562 47.300781 57.910156 47.199219 57.765625 C 47.101562 57.570312 47 57.859375 47.035156 58.398438 Z M 47.035156 58.398438 "/>
<path style=" stroke:none;fill-rule:nonzero;fill:rgb(80%,0%,0%);fill-opacity:1;" d="M 55.367188 58.640625 C 54.601562 59.328125 53.933594 59.523438 53.367188 59.328125 C 51.667969 58.691406 53 59.667969 55.699219 61.035156 C 58.367188 62.351562 59.234375 62.5 58.800781 61.476562 C 58.535156 60.789062 59.332031 59.523438 59.800781 59.914062 C 60 60.109375 59.933594 59.8125 59.667969 59.328125 C 59.199219 58.496094 59.234375 58.445312 60 58.742188 C 60.800781 59.03125 60.800781 58.984375 60.199219 58.351562 C 59.265625 57.324219 56.734375 57.519531 55.367188 58.640625 Z M 58.667969 58.496094 C 58.667969 58.742188 58.464844 59.277344 58.234375 59.765625 C 57.898438 60.449219 57.535156 60.546875 56.566406 60.304688 C 55.199219 59.914062 55.167969 59.523438 56.5 59.328125 C 56.964844 59.226562 57.332031 59.421875 57.332031 59.71875 C 57.332031 60.058594 57.464844 59.960938 57.667969 59.570312 C 57.898438 59.03125 57.832031 58.742188 57.398438 58.496094 C 57 58.25 57.066406 58.15625 57.765625 58.15625 C 58.265625 58.105469 58.667969 58.300781 58.667969 58.496094 Z M 58.667969 58.496094 "/>
<path style=" stroke:none;fill-rule:nonzero;fill:rgb(80%,0%,0%);fill-opacity:1;" d="M 34.765625 58.640625 C 34.167969 58.886719 33.601562 59.328125 33.5 59.570312 C 33.199219 60.253906 33.632812 62.011719 34.066406 62.011719 C 34.265625 62.011719 34.265625 61.71875 34 61.28125 C 33.667969 60.695312 33.667969 60.546875 34.066406 60.546875 C 34.332031 60.546875 34.699219 60.789062 34.933594 61.132812 C 35.464844 61.914062 35.800781 61.28125 35.398438 60.203125 C 35.101562 59.523438 35.199219 59.226562 35.933594 58.742188 C 37 58.054688 36.265625 58.007812 34.765625 58.640625 Z M 34.765625 58.640625 "/>
<path style=" stroke:none;fill-rule:nonzero;fill:rgb(80%,0%,0%);fill-opacity:1;" d="M 50.867188 59.328125 C 50.765625 59.71875 50.832031 60.058594 51 60.058594 C 51.199219 60.058594 51.332031 59.71875 51.332031 59.328125 C 51.332031 58.9375 51.265625 58.59375 51.199219 58.59375 C 51.132812 58.59375 51 58.9375 50.867188 59.328125 Z M 50.867188 59.328125 "/>
<path style=" stroke:none;fill-rule:nonzero;fill:rgb(80%,0%,0%);fill-opacity:1;" d="M 55 61.570312 C 55 61.816406 55.332031 62.207031 55.765625 62.453125 C 56.699219 62.988281 58.199219 64.890625 58.101562 65.476562 C 57.898438 66.40625 58.933594 65.28125 59.300781 64.160156 C 59.765625 62.597656 59.765625 62.453125 59.199219 62.792969 C 58.933594 62.9375 58.632812 63.523438 58.566406 64.109375 C 58.433594 65.1875 58.433594 65.1875 58.367188 64.160156 C 58.332031 63.378906 57.867188 62.84375 56.667969 62.109375 C 55.765625 61.523438 55 61.28125 55 61.570312 Z M 55 61.570312 "/>
<path style=" stroke:none;fill-rule:nonzero;fill:rgb(80%,0%,0%);fill-opacity:1;" d="M 41.167969 63.28125 C 40.632812 63.964844 39.667969 65.1875 39.066406 66.015625 C 38.167969 67.234375 37.898438 67.382812 37.5 66.894531 C 37.101562 66.40625 36.898438 66.40625 36.5 66.894531 C 36.234375 67.234375 36 67.675781 36 67.921875 C 36 68.703125 39.464844 73.289062 40.832031 74.316406 C 41.566406 74.851562 42.066406 75.148438 41.933594 74.953125 C 41.832031 74.757812 42 73.632812 42.367188 72.414062 C 42.699219 71.242188 43 69.238281 43 68.015625 C 43 66.0625 42.933594 65.867188 42.5 66.40625 C 42.199219 66.75 41.433594 68.3125 40.765625 69.921875 C 40.101562 71.484375 39.5 72.65625 39.398438 72.507812 C 39.300781 72.363281 39.398438 71.972656 39.601562 71.679688 C 40.398438 70.507812 39.765625 70.019531 38.734375 70.945312 C 38.398438 71.289062 38.398438 71.09375 38.734375 70.070312 C 39 69.1875 39 68.652344 38.765625 68.3125 C 38.5 67.921875 38.566406 67.53125 39.035156 66.84375 C 39.367188 66.359375 39.765625 65.917969 39.867188 65.917969 C 40 65.917969 40.300781 65.527344 40.566406 65.039062 C 40.832031 64.601562 40.667969 65.234375 40.199219 66.503906 C 39.199219 69.09375 39.035156 70.800781 39.832031 69.824219 C 40.566406 68.945312 41.867188 65.382812 42.101562 63.574219 C 42.234375 62.742188 42.265625 62.011719 42.234375 62.011719 C 42.199219 62.011719 41.734375 62.597656 41.167969 63.28125 Z M 40.800781 67.140625 C 40.5 67.820312 40.199219 68.359375 40.101562 68.359375 C 39.933594 68.359375 40.265625 67.480469 40.765625 66.503906 C 41.332031 65.429688 41.367188 65.867188 40.800781 67.140625 Z M 37.101562 68.210938 C 36.933594 68.796875 37 68.898438 37.332031 68.601562 C 37.632812 68.3125 37.699219 68.40625 37.5 68.796875 C 37.332031 69.238281 37.132812 69.238281 36.933594 68.945312 C 36.734375 68.652344 36.699219 68.210938 36.800781 67.921875 C 37.167969 67.089844 37.332031 67.285156 37.101562 68.210938 Z M 42.132812 69.824219 C 41.300781 73.585938 41.265625 73.730469 40.964844 73.730469 C 40.332031 73.730469 40.367188 72.65625 41.035156 70.703125 C 42.367188 66.796875 42.933594 66.359375 42.132812 69.824219 Z M 42.132812 69.824219 "/>
<path style=" stroke:none;fill-rule:nonzero;fill:rgb(80%,0%,0%);fill-opacity:1;" d="M 53.234375 66.015625 C 53.167969 66.359375 53.398438 67.285156 53.800781 68.117188 C 54.167969 68.898438 54.5 69.679688 54.535156 69.824219 C 54.535156 69.96875 54.667969 70.507812 54.832031 70.996094 C 55.101562 71.875 55.132812 71.875 55.398438 70.851562 C 55.601562 70.019531 55.433594 69.238281 54.632812 67.578125 C 53.535156 65.234375 53.464844 65.136719 53.234375 66.015625 Z M 53.234375 66.015625 "/>
<path style=" stroke:none;fill-rule:nonzero;fill:rgb(80%,0%,0%);fill-opacity:1;" d="M 43.800781 68.164062 C 43.601562 68.3125 43.464844 69.140625 43.535156 70.019531 C 43.601562 70.898438 43.433594 72.460938 43.167969 73.535156 L 42.667969 75.4375 L 42.832031 73.730469 C 43 72.363281 42.964844 72.167969 42.667969 72.898438 C 42.132812 74.121094 42.398438 75.878906 43.101562 76.074219 C 43.464844 76.171875 43.699219 75.976562 43.632812 75.585938 C 43.601562 75.242188 43.601562 74.460938 43.632812 73.828125 C 43.667969 72.898438 43.734375 72.804688 44.132812 73.339844 C 44.464844 73.78125 44.5 74.316406 44.300781 75.148438 C 43.898438 76.5625 44.066406 76.855469 44.964844 76.414062 C 45.898438 75.976562 45.832031 74.804688 44.832031 73.632812 C 44.101562 72.804688 44.035156 72.460938 44.199219 70.265625 C 44.300781 68.945312 44.332031 67.871094 44.265625 67.921875 C 44.199219 67.921875 44 68.066406 43.800781 68.164062 Z M 45.035156 75.828125 C 44.699219 76.269531 44.667969 76.21875 44.867188 75.539062 C 44.964844 75.046875 45.167969 74.804688 45.265625 74.953125 C 45.367188 75.097656 45.265625 75.488281 45.035156 75.828125 Z M 45.035156 75.828125 "/>
<path style=" stroke:none;fill-rule:nonzero;fill:rgb(80%,0%,0%);fill-opacity:1;" d="M 46.566406 70.019531 C 46.398438 71.046875 46.367188 71.972656 46.464844 72.117188 C 46.765625 72.609375 47.066406 70.945312 46.933594 69.484375 C 46.832031 68.210938 46.800781 68.261719 46.566406 70.019531 Z M 46.566406 70.019531 "/>
<path style=" stroke:none;fill-rule:nonzero;fill:rgb(80%,0%,0%);fill-opacity:1;" d="M 49.933594 69.1875 C 49.167969 70.507812 48.933594 72.65625 49.398438 74.511719 C 49.832031 76.320312 49.832031 76.269531 50.867188 75.878906 C 51.535156 75.632812 51.566406 75.4375 51.234375 73.828125 C 51.066406 72.804688 50.933594 71.191406 50.933594 70.164062 C 51 68.164062 50.699219 67.921875 49.933594 69.1875 Z M 50.464844 72.898438 C 50.601562 74.265625 50.535156 75.195312 50.332031 75.195312 C 50.167969 75.195312 50 74.070312 50 72.65625 C 50 69.628906 50.234375 69.726562 50.464844 72.898438 Z M 50.464844 72.898438 "/>
</g>
</svg>
