<?xml version="1.0" standalone="no"?>
<!DOCTYPE svg PUBLIC "-//W3C//DTD SVG 20010904//EN"
 "http://www.w3.org/TR/2001/REC-SVG-20010904/DTD/svg10.dtd">
<svg version="1.0" xmlns="http://www.w3.org/2000/svg"
 width="300.000000pt" height="300.000000pt" viewBox="0 0 300.000000 300.000000"
 preserveAspectRatio="xMidYMid meet">
<metadata>
Created by potrace 1.10, written by Peter Selinger 2001-2011
</metadata>
<g transform="translate(0.000000,300.000000) scale(0.100000,-0.100000)"
fill="#000000" stroke="none">
<path d="M1030 2425 c0 -61 -2 -65 -25 -71 -14 -3 -43 -4 -65 -2 l-40 4 0 -69
0 -68 -67 2 -67 2 3 -46 c5 -80 -1 -87 -72 -87 l-62 0 3 -325 3 -325 -71 0
-70 0 0 -71 0 -71 -66 4 -65 4 2 -65 2 -66 -66 2 -67 3 0 -70 0 -70 -65 0 -65
0 0 -195 0 -195 130 0 130 0 0 65 0 65 65 0 65 0 0 68 0 68 68 -4 68 -4 -4 66
-4 66 71 0 72 0 -3 -260 -3 -260 68 0 67 0 0 -65 0 -65 -67 0 -68 0 3 -192 c3
-179 6 -208 16 -197 2 2 6 83 9 179 4 96 6 176 7 178 0 2 10 2 23 1 12 -1 38
1 58 5 35 8 37 9 42 59 4 50 -7 116 -21 118 -4 0 -29 2 -55 2 -39 2 -49 6 -53
22 -2 11 -3 118 -1 238 4 205 3 220 -16 243 -13 17 -28 25 -46 23 -14 -1 -33
1 -41 4 -21 8 -50 5 -44 -4 2 -4 -5 -10 -16 -14 -11 -4 -21 -16 -21 -28 -1
-20 -3 -41 -7 -74 -1 -8 -17 -13 -39 -13 -73 0 -79 -5 -82 -68 -1 -31 -4 -59
-7 -63 -2 -4 -26 -7 -52 -7 -27 1 -54 -2 -60 -6 -7 -4 -12 -31 -12 -61 l0 -54
-101 -3 c-56 -2 -103 1 -106 6 -4 5 -6 80 -7 168 -1 174 0 177 62 164 41 -8
74 24 69 66 -6 47 7 66 41 62 16 -2 44 4 63 14 33 17 34 19 31 70 l-3 54 43
-2 c65 -3 74 -1 77 13 1 6 4 36 7 65 l6 52 48 0 c82 0 80 -10 80 325 0 287 3
331 21 319 5 -3 9 0 9 5 0 18 29 12 40 -8 6 -13 10 -152 10 -384 0 -411 -4
-389 78 -391 l47 -1 0 -317 c0 -174 3 -314 6 -312 4 2 12 -3 19 -11 8 -10 30
-15 61 -15 l49 0 0 -48 c0 -86 -25 -82 476 -82 496 1 474 0 474 13 0 5 6 7 13
4 10 -4 12 10 9 57 l-4 62 41 -4 c55 -5 87 4 91 25 1 10 4 149 6 308 2 160 3
298 4 308 0 15 7 18 38 16 44 -3 81 8 83 24 1 7 2 178 3 382 l1 369 35 7 c19
4 36 6 38 4 2 -1 3 -141 2 -310 0 -354 -3 -345 82 -345 48 0 48 0 48 -34 0
-18 5 -47 11 -65 10 -30 13 -31 65 -31 54 0 54 0 56 -32 0 -18 1 -41 0 -50 -3
-29 42 -55 91 -54 l44 1 -1 -50 c-1 -64 13 -79 75 -79 27 0 50 -2 50 -5 1 -4
2 -79 3 -168 2 -124 -1 -163 -10 -163 -7 0 -15 8 -17 18 -4 16 -5 16 -6 0 -1
-16 -12 -18 -87 -18 l-86 0 5 40 c2 22 0 40 -4 40 -5 0 -9 7 -9 15 0 21 -31
34 -73 30 -20 -1 -40 2 -43 7 -4 6 -7 35 -6 65 0 30 -3 52 -6 49 -3 -3 -11 -1
-19 5 -7 6 -13 9 -13 6 0 -3 -15 -1 -34 3 -22 5 -39 3 -45 -3 -6 -6 -11 -7
-12 -1 0 5 -1 60 -3 122 -3 131 -10 145 -78 145 -40 0 -96 -8 -104 -15 -1 -2
-4 -147 -6 -322 l-3 -319 -53 -3 c-30 -1 -56 -5 -60 -8 -15 -16 -19 -143 -4
-158 5 -5 34 -13 63 -16 l54 -7 2 -65 c1 -36 2 -116 2 -177 1 -94 4 -113 16
-113 13 0 15 28 15 195 l0 195 -67 0 -68 0 0 65 0 65 68 0 68 0 -1 328 -1 327
65 3 66 3 0 -136 0 -136 65 5 65 4 0 -69 0 -69 68 0 67 0 -3 -65 -4 -65 134 0
133 0 0 195 0 195 -67 0 -68 0 0 69 0 69 -65 -6 -65 -5 0 70 0 69 -65 -4 -65
-4 0 71 0 71 -65 0 -65 0 0 325 0 325 -65 0 -65 0 0 65 0 65 -65 0 -65 0 0 69
0 69 -59 -5 c-70 -7 -75 -1 -73 79 l1 58 -459 0 -460 0 0 -65z m890 5 c0 -19
-7 -33 -19 -40 -21 -11 -788 -15 -828 -4 -17 5 -20 12 -17 32 3 15 8 30 12 34
10 10 241 14 580 10 l272 -3 0 -29z m29 -139 l-3 -66 67 -3 67 -3 0 -64 0 -65
65 0 65 0 0 -396 0 -396 -65 4 -65 4 0 -328 0 -328 -67 0 -68 0 3 -65 4 -65
-461 0 -461 0 0 65 0 65 -65 0 -65 0 0 329 0 330 -70 -6 -70 -6 0 397 0 396
70 0 70 0 0 65 0 65 65 0 65 0 0 68 0 68 461 0 460 1 -2 -66z m-951 -3 c3 -37
3 -37 -33 -36 -37 1 -53 12 -35 23 8 5 8 11 0 20 -17 21 -5 32 32 31 31 -1 33
-4 36 -38z m1050 30 c9 -8 9 -14 1 -24 -8 -10 -8 -14 -1 -14 6 0 9 -7 6 -15
-4 -10 -20 -15 -44 -15 -37 0 -39 1 -38 33 0 17 2 35 4 38 6 10 58 8 72 -3z
m130 -161 l3 -38 -37 3 c-33 3 -37 6 -40 32 -4 39 1 45 39 43 30 -2 32 -5 35
-40z m-1310 -3 c2 -35 2 -35 -35 -32 -38 3 -42 10 -34 61 0 4 16 7 34 7 30 0
32 -3 35 -36z"/>
<path d="M1030 2025 l0 -65 -65 0 -65 0 0 -130 0 -130 65 0 65 0 0 -65 0 -65
130 0 130 0 0 65 0 65 65 0 65 0 0 130 0 130 -65 0 -65 0 0 65 0 65 -130 0
-130 0 0 -65z m230 -1 l0 -34 -51 0 c-69 0 -79 -13 -79 -98 0 -64 2 -70 25
-80 14 -7 49 -12 77 -12 69 0 88 18 88 82 l0 48 34 0 34 0 4 -82 c5 -116 4
-118 -48 -118 -41 0 -86 -26 -83 -47 1 -5 1 -26 0 -48 l-1 -40 -100 0 c-55 0
-100 2 -101 5 0 3 -1 27 -2 54 -3 58 -23 76 -84 76 l-43 0 0 100 0 100 43 0
c61 0 81 18 84 76 1 27 2 51 2 54 1 3 46 4 101 2 l100 -3 0 -35z m30 -129 l0
-65 -65 0 -65 0 0 65 0 65 65 0 65 0 0 -65z"/>
<path d="M1680 2025 l0 -65 -65 0 -65 0 0 -130 0 -130 65 0 65 0 0 -65 0 -65
136 0 136 0 -4 65 -4 65 68 0 68 0 0 130 0 130 -65 0 -65 0 0 65 0 65 -135 0
-135 0 0 -65z m230 -1 l0 -34 -48 0 c-26 0 -53 -5 -60 -12 -7 -7 -12 -41 -12
-83 0 -62 3 -72 23 -85 12 -8 25 -14 28 -13 3 1 29 3 59 4 50 3 53 5 67 38 8
19 13 47 11 63 -4 26 -2 28 31 28 l36 0 0 -100 0 -100 -48 0 c-59 0 -77 -16
-77 -67 0 -21 -4 -43 -8 -50 -6 -9 -121 -18 -188 -14 -6 1 -11 24 -13 53 -3
63 -18 77 -83 78 l-48 0 0 100 0 100 49 0 c42 0 53 4 71 27 14 18 21 40 20 63
-1 19 -2 37 -1 40 1 3 44 4 96 2 l95 -3 0 -35z m40 -129 l0 -65 -70 0 -70 0 0
65 0 65 70 0 70 0 0 -65z"/>
<path d="M1431 1686 c-8 -9 -12 -36 -9 -68 l3 -52 -47 3 c-81 4 -88 -1 -88
-71 0 -43 3 -59 13 -55 7 2 12 22 12 53 l0 49 40 3 c81 5 83 7 91 70 6 58 6
58 40 59 36 1 34 3 49 -70 2 -9 -1 -15 -5 -12 -4 3 -6 -4 -3 -16 11 -39 24 -2
21 57 l-3 59 -51 3 c-36 2 -54 -1 -63 -12z"/>
<path d="M1555 1560 c-8 -12 -11 -11 50 -13 l50 -2 2 -48 c1 -27 7 -55 13 -63
7 -7 35 -14 63 -16 45 -3 52 -6 53 -24 1 -12 4 -27 9 -33 19 -32 -23 -36 -319
-33 l-294 3 0 45 c0 45 0 45 31 44 60 -4 88 0 82 10 -3 6 -35 10 -71 10 l-64
0 0 -67 0 -68 328 0 327 0 0 68 0 68 -67 -3 -67 -3 -3 65 -3 65 -57 3 c-32 2
-59 -2 -63 -8z"/>
<path d="M1422 409 c-21 -8 -22 -15 -23 -121 -1 -62 -3 -152 -5 -200 -3 -72
-1 -88 11 -88 13 0 15 30 15 195 l0 195 68 0 67 0 -3 -195 c-3 -171 -1 -195
12 -195 14 0 16 25 16 194 0 168 -2 195 -17 207 -18 15 -108 20 -141 8z"/>
<path d="M1016 395 c-10 -11 -13 -29 -11 -60 5 -45 5 -45 -28 -45 -24 0 -28
-3 -17 -10 8 -5 10 -10 4 -10 -6 0 -14 3 -17 7 -9 9 -57 11 -51 2 2 -4 -1 -9
-7 -11 -18 -6 -20 -119 -3 -145 14 -23 18 -23 207 -22 105 0 201 4 212 9 11 5
14 9 7 9 -7 1 -10 6 -6 12 10 17 4 252 -8 266 -16 20 -261 18 -282 -2z m274
-137 l0 -133 -195 3 -195 3 0 65 0 66 65 -4 65 -3 0 68 0 67 130 0 130 0 0
-132z"/>
<path d="M1678 399 c-16 -9 -18 -27 -18 -144 0 -123 2 -135 19 -145 29 -15
398 -13 407 2 14 23 23 121 13 140 -5 10 -19 18 -29 18 -11 0 -20 5 -20 10 0
13 -37 13 -42 -1 -2 -5 -11 -7 -21 -4 -13 6 -17 19 -17 59 0 29 -5 57 -12 64
-15 15 -255 16 -280 1z m271 -76 l-2 -66 66 2 67 2 0 -65 0 -66 -200 0 -200 0
0 130 0 130 136 0 135 0 -2 -67z"/>
</g>
</svg>
