<svg width="100" height="100" viewBox="0 0 100 100" fill="none" xmlns="http://www.w3.org/2000/svg">
<path d="M77.1526 50.9735C77.1526 62.7252 69.7056 72.755 59.2454 76.5861V82.7848C73.1924 78.6954 83.3944 65.7815 83.3944 50.5C83.3944 35.2186 73.1924 22.3046 59.2454 18.2152V25.3609C69.6626 29.1921 77.1526 39.2219 77.1526 50.9735Z" fill="black"/>
<path d="M16.1555 50.543C16.1555 65.8675 26.4006 78.7815 40.4337 82.8278V76.5861C29.9734 72.755 22.5264 62.7682 22.5264 50.9735C22.5264 39.2218 29.9734 29.192 40.4337 25.3609V18.2152C26.4006 22.3046 16.1555 35.2185 16.1555 50.543Z" fill="black"/>
<path d="M40.4326 71.2484V96H46.5882V71.0762C45.7273 71.808 44.6081 72.2384 43.4028 72.2384C42.2836 72.2384 41.2505 71.851 40.4326 71.2484Z" fill="#25AAE1"/>
<path d="M64.496 40.8146C62.5589 42.3642 60.6218 43.957 58.7708 45.5927C58.7278 45.5927 58.7278 45.6358 58.6847 45.6358C60.1483 47.5729 61.0092 50.0265 61.0092 52.6954V52.8245C61.0092 55.4934 60.1914 57.947 58.7278 59.8411C58.6847 59.8841 58.6417 59.9702 58.5986 60.0133C56.4894 62.3378 53.9496 63.5 50.9794 63.5C50.9794 63.5 48.9563 63.5 46.6748 63.457C47.7079 64.3609 48.3967 65.7384 48.3967 67.202C48.3967 68.4073 47.9662 69.4834 47.2775 70.3444C48.1384 70.4305 49.602 70.6027 50.4629 70.6027C61.0953 70.6027 68.9298 62.4669 68.9298 52.6523V52.5232C68.8867 48.0894 67.251 43.957 64.496 40.8146Z" fill="#25AAE1"/>
<path d="M59.2443 29.7517V5H53.0886V29.9238C53.9496 29.1921 55.0688 28.7616 56.2741 28.7616C57.3933 28.8046 58.4264 29.149 59.2443 29.7517Z" fill="#25AAE1"/>
<path d="M35.1374 60.1854C37.0745 58.6358 39.0116 57.043 40.8626 55.4073C40.9056 55.4073 40.9056 55.3642 40.9486 55.3642C39.4851 53.4271 38.6241 50.9735 38.6241 48.3046V48.1755C38.6241 45.5066 39.442 43.053 40.9056 41.1589C40.9487 41.1159 40.9917 41.0298 41.0347 40.9867C43.144 38.6622 45.6838 37.5 48.6539 37.5C48.6539 37.5 50.6771 37.5 52.9586 37.543C51.9255 36.6391 51.2367 35.2616 51.2367 33.798C51.2367 32.5927 51.6672 31.5165 52.3559 30.6556C51.495 30.5695 50.0314 30.3973 49.1705 30.3973C38.5381 30.3973 30.7036 38.5331 30.7036 48.3477V48.4768C30.7467 52.9536 32.3824 57.043 35.1374 60.1854Z" fill="#25AAE1"/>
<path d="M56.274 37.3278C57.5224 37.3278 58.5985 36.6821 59.2442 35.7351C59.6316 35.1755 59.8469 34.4868 59.8469 33.755C59.8469 33.0232 59.6316 32.3344 59.2442 31.7748C58.5985 30.8278 57.5224 30.1821 56.274 30.1821C54.2939 30.1821 52.7012 31.7748 52.7012 33.755C52.7012 35.7351 54.3369 37.3278 56.274 37.3278Z" fill="black"/>
<path d="M43.3592 63.8013C42.1109 63.8013 41.0347 64.447 40.389 65.394C40.0016 65.9536 39.7864 66.6424 39.7864 67.3742C39.7864 68.106 40.0016 68.7947 40.389 69.3543C41.0347 70.3013 42.1109 70.947 43.3592 70.947C45.3394 70.947 46.9321 69.3543 46.9321 67.3742C46.9321 65.394 45.3394 63.8013 43.3592 63.8013Z" fill="black"/>
</svg>
