<svg width="100" height="100" viewBox="0 0 100 100" fill="none" xmlns="http://www.w3.org/2000/svg">
<path d="M50 93C73.7482 93 93 73.7482 93 50C93 26.2518 73.7482 7 50 7C26.2518 7 7 26.2518 7 50C7 73.7482 26.2518 93 50 93Z" fill="#00D8CB"/>
<path d="M48.6256 50.9667H52.6503C57.1086 50.9667 59.3377 49.0265 59.3377 45.1462C59.3377 41.2659 57.1086 39.3257 52.6503 39.3257H48.6256V50.9667ZM48.6256 76.23H36.4893V29.5424H55.8083C61.0508 29.5424 65.055 30.9046 67.8207 33.6291C70.6278 36.3536 72.0313 40.1926 72.0313 45.1462C72.0313 50.0998 70.6278 53.9388 67.8207 56.6633C65.055 59.3878 61.0508 60.75 55.8083 60.75H48.6256V76.23Z" fill="#FF8A00"/>
<path d="M46.0455 48.8167H50.0703C54.5285 48.8167 56.7576 46.8765 56.7576 42.9962C56.7576 39.1159 54.5285 37.1757 50.0703 37.1757H46.0455V48.8167ZM46.0455 74.08H33.9092V27.3923H53.2282C58.4707 27.3923 62.4749 28.7546 65.2407 31.4791C68.0477 34.2035 69.4512 38.0426 69.4512 42.9962C69.4512 47.9498 68.0477 51.7888 65.2407 54.5133C62.4749 57.2378 58.4707 58.6 53.2282 58.6H46.0455V74.08Z" fill="white"/>
</svg>
