<svg width="100" height="99" viewBox="0 0 100 99" fill="none" xmlns="http://www.w3.org/2000/svg">
<path d="M54.1662 17.686C54.1662 17.686 43.9322 17.7358 38.3911 17.8299L39.9145 13L19 27.545L33.0509 42.3168L34.3454 38.2449C34.5798 37.2988 35.3443 36.6515 36.2985 36.6515L50.5616 36.6902C51.5212 36.6902 52.3527 36.0319 52.5591 35.1024L53.5637 30.6044L67.6199 45.3541L46.6944 59.8327L46.7055 59.7939L49.038 52.6846H49.0325H35.2104C31.9069 52.6846 28.9829 54.7926 27.9618 57.9074L19.0837 85H38.4413L41.9289 74.3557C42.2191 73.476 43.0449 72.8784 43.9768 72.8784H54.1662C69.5396 72.8784 82 60.5244 82 45.2823C82 30.0401 69.5396 17.686 54.1662 17.686Z" fill="url(#paint0_linear)"/>
<defs>
<linearGradient id="paint0_linear" x1="50.5006" y1="13" x2="50.5006" y2="85" gradientUnits="userSpaceOnUse">
<stop stop-color="#826DF9"/>
<stop offset="0.2826" stop-color="#7F6DF9"/>
<stop offset="0.5233" stop-color="#746FFA"/>
<stop offset="0.7488" stop-color="#6371FC"/>
<stop offset="0.9637" stop-color="#4A74FF"/>
<stop offset="1" stop-color="#4575FF"/>
</linearGradient>
</defs>
</svg>
