<?xml version="1.0" standalone="no"?>
<!DOCTYPE svg PUBLIC "-//W3C//DTD SVG 20010904//EN"
 "http://www.w3.org/TR/2001/REC-SVG-20010904/DTD/svg10.dtd">
<svg version="1.0" xmlns="http://www.w3.org/2000/svg"
 width="504.000000pt" height="504.000000pt" viewBox="0 0 504.000000 504.000000"
 preserveAspectRatio="xMidYMid meet">

<g transform="translate(0.000000,504.000000) scale(0.100000,-0.100000)"
fill="#000000" stroke="none">
<path d="M0 2520 l0 -2520 2520 0 2520 0 0 2520 0 2520 -2520 0 -2520 0 0
-2520z m2657 1650 c359 -28 655 -130 925 -320 113 -79 332 -294 417 -410 215
-290 373 -694 398 -1009 6 -75 5 -77 -21 -94 -34 -23 -139 -32 -192 -18 -75
20 -177 115 -189 175 -14 74 -50 218 -67 270 -45 140 -173 371 -266 479 -147
171 -293 287 -478 380 -392 197 -827 219 -1219 61 -280 -112 -542 -352 -678
-621 -75 -148 -112 -266 -142 -452 -25 -157 -15 -326 30 -496 64 -244 229
-491 434 -649 76 -59 228 -139 323 -170 235 -79 487 -76 733 6 292 99 535 361
615 664 89 339 16 665 -197 878 -111 112 -233 178 -418 227 -66 18 -275 18
-345 0 -30 -7 -89 -29 -130 -49 -381 -185 -490 -694 -205 -960 89 -84 174
-123 279 -129 232 -15 389 132 361 337 -8 61 -24 61 -45 1 -27 -75 -80 -117
-177 -142 -47 -11 -59 -11 -109 5 -70 22 -125 71 -161 144 -25 51 -28 68 -28
157 0 119 20 171 96 247 171 171 470 157 660 -33 184 -183 219 -459 92 -719
-39 -80 -60 -109 -132 -180 -84 -83 -181 -146 -264 -171 -120 -37 -148 -41
-267 -41 -193 0 -323 42 -485 157 -223 160 -375 454 -375 730 0 58 20 192 39
265 58 226 187 426 365 564 200 157 406 225 673 226 133 0 183 -5 293 -32 327
-78 607 -299 760 -601 71 -139 110 -262 139 -438 28 -170 1 -417 -68 -628 -76
-229 -212 -433 -391 -586 -102 -87 -161 -127 -279 -186 -270 -136 -602 -195
-866 -155 -546 83 -953 384 -1190 878 -106 222 -156 449 -156 708 0 352 100
690 286 970 173 259 495 525 769 634 195 77 328 107 566 125 153 12 148 12
287 1z"/>
</g>
</svg>
