<?xml version="1.0" encoding="utf-8"?>
<!-- Generator: Adobe Illustrator 22.0.0, SVG Export Plug-In . SVG Version: 6.00 Build 0)  -->
<svg version="1.1" id="Layer_1" xmlns="http://www.w3.org/2000/svg" xmlns:xlink="http://www.w3.org/1999/xlink" x="0px" y="0px"
	 viewBox="0 0 831.5 446.8" style="enable-background:new 0 0 831.5 446.8;" xml:space="preserve">
<style type="text/css">
	.st0{fill:#FFFFFF;}
	.st1{fill:#33C997;}
</style>
<g>
	<path class="st0" d="M623.2,150.8c14.3,3,28.6,5.9,42.9,8.9c20.8,4.4,41.9,7.8,61.6,16.5c37.9,16.7,63,43.9,72,85.2
		c5.6,25.8,5.5,51.3-2.8,76.4c-8.6,25.6-26.4,41.5-52.9,47.9c-21,5.1-41.6,2.9-62.3-1.4c-33.4-7.1-66.6-14.7-100.1-20.8
		c-14-2.6-28.5-2-42.8-2.9c-37.4-2.2-75-3.1-112.2-7c-25.2-2.6-49.7,1.5-74.5,2.8c-32.3,1.7-64.4,4.9-96.7,7
		c-6.5,0.4-13-1.4-17.5-6.8c-1.8-2.2-2.7-1.4-4.2-0.1c-27.2,22.6-59.7,30.1-93.7,32.1c-18.6,1.1-37.1-1-55.4-5.6
		c-13.6-3.4-17.3-10.9-17.8-21.8c-0.6-13.1-0.4-26.3-0.1-39.5c0.4-14.3,10-22.4,23.9-20.9c0.4-0.8-0.2-1.2-0.7-1.6
		c-15.2-9.8-21.8-24.8-23.8-41.9c-3.3-29,8.7-51.7,31-69c30.2-23.4,65.3-32.1,103-30.7c11.8,0.4,12.7,0.4,20.1-8.7
		c1.3-1.5,0.3-1.9-0.6-2.6c-5.5-4.5-6.9-10.9-7-17.5c-0.2-19.3-0.1-38.7,0-58c0.1-15,8.3-23.1,23.3-23.1c12.9,0,26-1.2,38.6,3
		c0.7,0.2,1.7,0.3,2.4,0c17.9-5.6,35.7-3.9,53.6,0.2c3.4,0.8,6.7,2.4,9.2,4.8c2.9,2.8,5,2.1,8,0c20.9-14.9,53.5-12.3,71.9,5.5
		c1.2,1.1,2.1,2.6,3.3,3.7c1.2,1.2,1.4,4,3.6,3.4c1.7-0.4,1.7-2.8,1.9-4.3c1.9-11.7,10.7-16.1,20.7-16.2c20.3-0.4,40.6-0.2,60.9,0
		c4.6,0,9.3,1,13.1,4.1c1.1,0.9,2.1,1.6,3.9,0.7c14.7-7.1,29.9-8.4,45.5-3.5c1.1,0.3,2.3,1,3.3,0.7c17.4-4.4,35.2-1.2,52.7-2.1
		c3.1-0.2,6.4-0.2,9.4,0.4c11.4,2.3,15.7,6.8,17.8,18.4c0.9,4.9,0.7,10,0.1,14.9c-1.2,9.2-5.6,15.9-15.3,17.8
		c-2.4,0.5-2.6,1.9-2.5,3.9c0.1,8.7,0.2,17.3,0,26c-0.2,7.8-2.4,14.7-9.7,19.1C626.7,149.1,625.1,149.6,623.2,150.8z"/>
	<path class="st0" d="M622.6,151.3c14.3,3,28.6,5.9,42.9,8.9c20.8,4.4,41.9,7.8,61.6,16.5c37.9,16.7,63,43.9,72,85.2
		c5.6,25.8,5.5,51.3-2.8,76.4c-8.6,25.6-26.4,41.5-52.9,47.9c-21,5.1-41.6,2.9-62.3-1.4c-33.4-7.1-66.6-14.7-100.1-20.8
		c-14-2.6-28.5-2-42.8-2.9c-37.4-2.2-75-3.1-112.2-7c-25.2-2.6-49.7,1.5-74.5,2.8c-32.3,1.7-64.4,4.9-96.7,7
		c-6.5,0.4-13-1.4-17.5-6.8c-1.8-2.2-2.7-1.4-4.2-0.1c-27.2,22.6-59.7,30.1-93.7,32.1c-18.6,1.1-37.1-1-55.4-5.6
		c-13.6-3.4-17.3-10.9-17.8-21.8c-0.6-13.1-0.4-26.3-0.1-39.5c0.4-14.3,10-22.4,23.9-20.9c0.4-0.8-0.2-1.2-0.7-1.6
		c-15.2-9.8-21.8-24.8-23.8-41.9c-3.3-29,8.7-51.7,31-69c30.2-23.4,65.3-32.1,103-30.7c11.8,0.4,12.7,0.4,20.1-8.7
		c1.3-1.5,0.3-1.9-0.6-2.6c-5.5-4.5-6.9-10.9-7-17.5c-0.2-19.3-0.1-38.7,0-58c0.1-15,8.3-23.1,23.3-23.1c12.9,0,26-1.2,38.6,3
		c0.7,0.2,1.7,0.3,2.4,0c17.9-5.6,35.7-3.9,53.6,0.2c3.4,0.8,6.7,2.4,9.2,4.8c2.9,2.8,5,2.1,8,0c20.9-14.9,53.5-12.3,71.9,5.5
		c1.2,1.1,2.1,2.6,3.3,3.7c1.2,1.2,1.4,4,3.6,3.4c1.7-0.4,1.7-2.8,1.9-4.3c1.9-11.7,10.7-16.1,20.7-16.2c20.3-0.4,40.6-0.2,60.9,0
		c4.6,0,9.3,1,13.1,4.1c1.1,0.9,2.1,1.6,3.9,0.7c14.7-7.1,29.9-8.4,45.5-3.5c1.1,0.3,2.3,1,3.3,0.7c17.4-4.4,35.2-1.2,52.7-2.1
		c3.1-0.2,6.4-0.2,9.4,0.4c11.4,2.3,15.7,6.8,17.8,18.4c0.9,4.9,0.7,10,0.1,14.9c-1.2,9.2-5.6,15.9-15.3,17.8
		c-2.4,0.5-2.6,1.9-2.5,3.9c0.1,8.7,0.2,17.3,0,26c-0.2,7.8-2.4,14.7-9.7,19.1C626.1,149.6,624.4,150.1,622.6,151.3z"/>
	<path class="st0" d="M590.5,345.3c27.6,5.8,54.9,11.4,82.2,17.2c17.9,3.8,35.8,7.2,54.3,6.1c27-1.6,45.9-16.7,52.9-42.7
		c4.2-15.7,4.6-31.6,2.7-47.5c-2.4-20.6-9.2-39.4-22.9-55.3c-15.6-18.2-36-28.6-58.5-35.2c-20.9-6.1-42.4-9.4-63.7-14
		c-15.6-3.4-31.3-6.5-47.6-9.9c2.3,3.4,3.9,6.4,6.1,8.9c3.9,4.4,4.8,9.4,4.8,15.1c-0.2,43.6-0.3,87.3,0.1,130.9
		c0.1,10.2-0.6,19.1-9.8,25.2C590.9,344.2,590.9,344.6,590.5,345.3z"/>
	<path class="st0" d="M411.6,198.6c0-15.4-0.1-29.7,0.1-44.1c0-3.4-1-4.2-4.3-3.9c-15.6,1.3-31.2,2.2-46.8,3.4
		c-34.7,2.6-69.4,5.3-104.1,7.8c-3.1,0.2-4.3,1.1-4.3,4.4c0.1,57.8,0.1,115.7,0,173.5c0,3,0.7,4.1,3.9,3.9
		c14.6-1.2,29.2-2.3,43.8-3.4c24.9-1.9,49.8-3.7,74.7-5.6c11.1-0.8,22.2-1.7,33.4-2.6c1.8-0.1,3.7,0.1,3.7-2.8
		c-0.1-14.9,0-29.8,0-45.7c-4.6,3.9-8.4,7-12.1,10.3c-1.4,1.3-2.9,1.9-4.8,2.1c-28.7,2.1-57.5,4.2-86.2,6.5
		c-3.1,0.2-3.7-0.7-3.7-3.5c0.1-9.5,0.2-19,0-28.5c-0.1-3.2,1.1-3.8,4-4c21.4-1.5,42.8-3.3,64.3-4.8c3.6-0.2,4.5-1.5,4.4-4.8
		c-0.2-8.3-0.1-16.7-0.1-25c0-6.5,0-6.2-6.2-5.7c-20.7,1.7-41.5,3.2-62.2,4.9c-3.6,0.3-4.1-1.2-4.1-4.2c0.1-7.7,0-15.3,0-23
		c0-8.6,0-8.5,8.8-9.2c26.2-1.9,52.5-3.8,78.7-5.9c3.4-0.3,6.1,0.3,8.8,2.4C404.3,193.7,407.7,195.8,411.6,198.6z"/>
	<path class="st0" d="M582.7,209.9c0-15.4-0.1-29.6,0.1-43.9c0-3.5-1-4.5-4.4-4.6c-28.4-1.5-56.8-3.2-85.3-4.8
		c-22.1-1.3-44.2-2.4-66.3-3.8c-3-0.2-3.7,0.7-3.7,3.5c0.1,58,0.1,115.9,0,173.9c0,2.7,0.6,4.1,3.5,4.1c2.3,0,4.7,0.3,7,0.4
		c20.4,1.2,40.9,2.3,61.3,3.5c28.1,1.6,56.2,3.2,84.3,4.9c3.1,0.2,3.6-1,3.6-3.7c-0.1-13.2,0-26.3,0-39.5c0-1.4,0-2.8,0-4.9
		c-3,2.2-5.6,3.6-7.6,5.5c-4,3.8-8.6,4.9-14.1,4.5c-27.2-1.8-54.5-3.4-81.8-4.9c-2.5-0.1-3.4-0.9-3.4-3.5c0.1-9.7,0.1-19.3,0-29
		c0-2.9,0.9-3.7,3.8-3.5c21.6,1.8,43.2,1.8,64.7,4.5c2.8,0.3,4.3,0,4.2-3.5c-0.2-9.3-0.2-18.7,0-28c0.1-3-1.1-4-4-4.2
		c-21.6-1.3-43.2-2.7-64.8-3.9c-3.1-0.2-4-1.1-3.9-4.1c0.2-8.3,0.1-16.7,0.1-25c0-7.4,0-7.2,7.2-6.8c26.4,1.6,52.8,3.1,79.3,4.5
		c4,0.2,7.4,1,10.3,3.9C575.5,204.3,578.8,206.6,582.7,209.9z"/>
	<path class="st0" d="M233.4,163.1c-2.6,2.9-4.4,4.9-6.1,6.9c-1.9,2.1-3.8,4.2-5.5,6.5c-1.5,1.9-3.2,2.3-5.7,2
		c-29.2-4-57.4-1-84.4,11.4c-16.7,7.6-31.1,18-40.4,34.3c-15.8,27.7-3.7,57.4,26.7,66.5c12.5,3.7,25.5,4.5,38.4,6
		c8.8,1,17.6,2,25.5,6.2c7,3.7,7.9,9.7,2.9,15.7c-3.2,3.9-7.6,5.9-12.3,7.3c-16.5,5-33.4,5.8-50.4,3.6c-12.2-1.6-23.9-5-36-9.5
		c0,14,0,27.4,0,40.9c0,2.3,1.5,2.5,3.2,3c9.5,2.9,19.2,3.5,29,4.3c26.8,2.2,52.9-1.2,77.6-11.8c23.4-10,40.6-25.6,45.3-52.2
		c4.3-24.2-5.4-41.4-28.5-49.6c-14.6-5.2-30.1-5.1-45.1-7.6c-8.2-1.4-16.5-2.3-24.1-5.9c-6-2.9-6.9-7.7-2.9-13
		c3-3.9,7.1-5.9,11.6-7.4c10.4-3.4,21.1-4.6,31.9-4.9c15.2-0.5,30.2,1.4,45.1,4.6c2.5,0.5,4.1,0.7,4.1-2.7
		C233.4,199.8,233.4,182.2,233.4,163.1z"/>
	<path class="st0" d="M415,99c-0.1-20-14.3-33.3-35.6-33.2c-20,0.1-34.4,14.2-34.3,33.7c0.1,19.3,15.2,34,35,33.9
		C400.4,133.3,415.1,118.9,415,99z"/>
	<path class="st0" d="M339.1,131.6c-5.3-8.8-10.1-16.7-15-24.6c-1.1-1.8-1.4-2.8,1-4.1c8.5-4.5,11.6-10.4,10.6-18.9
		c-0.9-7.7-6-13.1-15-15.3c-9.5-2.3-19.2-0.6-28.8-1.2c-3.8-0.2-5.1,0.8-5.1,4.9c0.2,16.1,0.1,32.3,0.1,48.4
		c0,11.6,0,11.5,11.8,10.9c2.4-0.1,3.2-0.8,3.1-3.2c-0.1-5.7-0.2-11.3,0-17c0.1-1.8-1.6-4.6,1.7-5.5c3.3-0.9,4.7,1.4,6,3.9
		c3.3,6.3,6.8,12.5,10.2,18.8c0.9,1.7,1.7,3,4,2.9C328.6,131.4,333.4,131.6,339.1,131.6z"/>
	<path class="st0" d="M554.3,65.7c-9.4,0.2-17.5,2.6-24.3,8.7c-12.6,11.3-14.3,32.2-3.9,45.9c10.2,13.4,31.9,17.2,45.9,8.1
		c7.4-4.8,7.4-4.8,0.9-10.9c-0.7-0.7-1.6-1.3-2.1-2.1c-1.6-2.2-2.8-2.1-5-0.3c-6.8,5.7-17.4,5.3-23.8-0.5c-6.8-6.3-8-19.2-2.5-27.1
		c5.2-7.4,15.3-10.7,22.9-5.8c5.4,3.5,8,1.9,11.1-2.1c0.7-0.9,1.6-1.8,2.5-2.5c2.1-1.6,1.7-2.7-0.3-4.2
		C569.3,67.8,561.9,66,554.3,65.7z"/>
	<path class="st0" d="M232.3,99.7c0,6.8,0,13.6,0,20.5c0,11.8,0,11.6,11.8,11.5c3.3,0,3.8-1.3,3.7-4.1c-0.2-5.3,0.1-10.7-0.1-16
		c-0.1-3.2,0.7-4.6,4.1-4.2c4,0.4,8-0.2,11.9-0.9c10.4-1.8,16.8-8.7,17.2-18.3c0.4-10.8-4.4-17.2-15.7-19.6
		c-10.2-2.2-20.5-0.7-30.8-1c-2.7-0.1-2.1,2.1-2.1,3.7C232.2,80.7,232.3,90.2,232.3,99.7z"/>
	<path class="st0" d="M610.9,67.5c-5.7,0-11.3,0-17,0c-9.7,0-9.6,0-9.2,9.7c0.1,2.6,0.9,3.5,3.5,3.4c3.7-0.2,7.3,0.2,11-0.1
		c3.2-0.2,3.9,1.1,3.8,4c-0.1,12.2-0.1,24.3-0.1,36.5c0,10.9,0,10.7,11.1,10.7c3.3,0,4.2-1.1,4.2-4.3c-0.2-12.3-0.1-24.6-0.1-37
		c0-9.9,0-9.9,9.9-9.9c8.6,0,8.5,0,8.5-8.8c0-3.2-0.7-4.4-4.2-4.3C625.2,67.7,618.1,67.5,610.9,67.5z"/>
	<path class="st0" d="M462.7,93.7c0-7.7-0.4-13.9,0.1-20c0.4-5.1-1.2-6.5-6.3-6.2c-9.1,0.4-9,0.1-9.1,9.3
		c-0.2,12.3,0.6,24.6-0.4,36.9c-0.2,2.7-1.3,4.8-4.2,5.5c-2.7,0.7-5.4,0.1-6.6-2.2c-1.6-3-3.5-2.6-6-1.7c-2,0.8-4,1.6-6.1,2.1
		c-3,0.7-3,2.2-1.9,4.6c3.5,7.3,12.4,12.2,21.1,11.5c10.1-0.9,16.1-5.8,18.4-15.3C463.9,109.4,462.1,100.7,462.7,93.7z"/>
	<path class="st0" d="M490.8,131.6c4.7,0,9.3,0,14,0c9,0,8.8,0,8.9-8.9c0-3.4-1.2-4.2-4.3-4.1c-10.5,0.2-21,0.1-31.5,0.1
		c-9.3,0-9.2,0-9.1,9.3c0,3.3,1.2,3.9,4.1,3.8C478.8,131.4,484.8,131.6,490.8,131.6z"/>
	<path class="st0" d="M490.1,80.5c4.3,0,8.6,0,13,0c8.7,0,8.6,0,8.7-8.5c0.1-3.4-0.8-4.6-4.4-4.5c-10,0.2-19.9,0.1-29.9,0.1
		c-9.1,0-8.9,0-8.8,9c0,2.9,0.8,4.1,3.9,4C478.5,80.3,484.3,80.5,490.1,80.5z"/>
	<path class="st0" d="M488.9,104.8c6,0,12-0.1,17.9,0c2.6,0.1,3.7-0.8,3.4-3.4c-0.1-1.3-0.2-2.7,0-4c0.5-3.7-0.8-4.9-4.6-4.8
		c-11,0.3-21.9,0.2-32.9,0c-3,0-4.3,0.8-3.9,3.9c0.2,1.3,0.2,2.7,0,4c-0.4,3.2,0.7,4.5,4.1,4.3C478.2,104.6,483.5,104.8,488.9,104.8
		z"/>
	<path class="st1" d="M590.5,345.3c0,0,1.1-0.8,1.4-1c9.2-6.1,9.1-6.9,9.1-6.9l-0.1-159.3c0,0-8.6-10.8-10.9-14.2
		c16.3,3.4,32,6.6,47.6,9.9c21.2,4.6,42.8,7.9,63.7,14c22.5,6.6,42.9,17,58.5,35.2c13.7,16,20.5,34.8,22.9,55.3
		c1.9,16,1.5,31.9-2.7,47.5c-7,26-25.9,41.1-52.9,42.7c-18.5,1.1-36.4-2.4-54.3-6.1C645.4,356.8,590.5,345.3,590.5,345.3z
		 M653.6,268.1c0,16.3,0,53.1,0,53.1s-0.8,0.1,2.2,0.6c13.7,2.2,27.1,6.9,41.3,6.2c13.8-0.6,23.6-7.7,28.2-20.7
		c4.1-11.8,4.2-23.9,2.7-36c-2.9-23.9-15.4-40.6-38.5-48.6c-10.2-3.6-21-4.9-31.5-7.4c-3.6-0.9-4.4-0.9-4.4-0.9
		S653.6,251.7,653.6,268.1z"/>
	<path class="st1" d="M411.6,198.6c-4-2.8-7.3-4.9-10.4-7.4c-2.7-2.1-5.4-2.7-8.8-2.4c-26.2,2.1-52.5,4-78.7,5.9
		c-8.8,0.6-8.8,0.7-8.8,0.7l0,36c0,0,0.4,0,4.1-0.3c20.7-1.7,41.5-3.2,62.2-4.9c6.3-0.5,6.2-0.4,6.2-0.4l0.1,35.7c0,0-0.8,0-4.4,0.3
		c-21.4,1.5-42.8,3.3-64.3,4.8c-2.9,0.2-4,0-4,0l0,36.5c0,0,0.6-0.3,3.7-0.5c28.7-2.3,57.4-4.4,86.2-6.5c2-0.1,3.4-0.8,4.8-2.1
		c3.7-3.3,7.5-6.4,12.1-10.3c0,15.9,0,48.1,0,48.1s-1.9,0.3-3.7,0.4c-11.1,0.9-22.2,1.7-33.4,2.6c-24.9,1.9-49.8,3.7-74.7,5.6
		c-14.6,1.1-29.2,2.2-43.8,3.4c-3.2,0.3-3.9,0.7-3.9,0.7l0-182.1c0,0,1.1-0.2,4.3-0.4c34.7-2.5,69.4-5.2,104.1-7.8
		c15.6-1.2,31.2-2.1,46.8-3.4c3.3-0.3,4.3-0.3,4.3-0.3S411.6,183.2,411.6,198.6z"/>
	<path class="st1" d="M582.7,209.9c-4-3.3-7.2-5.6-10-8.5c-2.9-3-6.3-3.7-10.3-3.9c-26.4-1.4-52.9-2.9-79.3-4.5
		c-7.2-0.4-7.2-0.5-7.2-0.5l-0.1,36c0,0,0.8,0.2,3.9,0.4c21.6,1.2,43.2,2.7,64.8,3.9c2.9,0.2,4,0.4,4,0.4l0,35.5
		c0,0-1.4,0.1-4.2-0.2c-21.5-2.6-43.2-2.7-64.7-4.5c-2.9-0.2-3.8-0.3-3.8-0.3l0,36.1c0,0,0.9,0,3.4,0.1c27.3,1.6,54.5,3.1,81.8,4.9
		c5.5,0.4,10.1-0.7,14.1-4.5c2-1.9,4.5-3.3,7.6-5.5c0,2.1,0,3.5,0,4.9c0,13.2,0,43.2,0,43.2s-0.5,0.1-3.6-0.1
		c-28.1-1.7-56.2-3.3-84.3-4.9c-20.4-1.2-40.9-2.3-61.3-3.5c-2.3-0.1-4.7-0.4-7-0.4c-2.9,0-3.5-0.4-3.5-0.4l0-181.2
		c0,0,0.8-0.1,3.7,0.1c22.1,1.4,44.2,2.6,66.3,3.8c28.4,1.6,56.8,3.3,85.3,4.8c3.4,0.2,4.4,0.3,4.4,0.3S582.7,194.6,582.7,209.9z"/>
	<path class="st1" d="M233.4,163.1c0,19,0,57.8,0,57.8s-1.6-0.2-4.1-0.8c-14.9-3.1-29.9-5-45.1-4.6c-10.8,0.3-21.6,1.5-31.9,4.9
		c-4.5,1.5-8.6,3.5-11.6,7.4c-4.1,5.3-3.1,10.2,2.9,13c7.6,3.6,15.9,4.6,24.1,5.9c15,2.5,30.5,2.4,45.1,7.6
		c23.1,8.2,32.8,25.4,28.5,49.6c-4.8,26.6-21.9,42.1-45.3,52.2c-24.8,10.7-50.8,14-77.6,11.8c-9.8-0.8-19.5-1.5-29-4.3
		c-1.7-0.5-3.2-0.8-3.2-0.8s0-29.1,0-43.1c12,4.4,23.8,7.9,36,9.5c17,2.2,33.9,1.4,50.4-3.6c4.7-1.4,9-3.5,12.3-7.3
		c5.1-6,4.1-12-2.9-15.7c-8-4.2-16.8-5.2-25.5-6.2c-12.9-1.4-25.8-2.2-38.4-6c-30.4-9-42.5-38.8-26.7-66.5
		c9.3-16.3,23.8-26.7,40.4-34.3c27-12.3,55.2-15.3,84.4-11.4c2.4,0.3,4.1-0.1,5.7-2c1.7-2.2,3.6-4.3,5.5-6.5
		C229,168,230.8,166.1,233.4,163.1z"/>
	<path class="st1" d="M415,99c0.1,19.9-14.6,34.3-34.8,34.4c-19.8,0.1-34.9-14.6-35-33.9c-0.1-19.4,14.3-33.6,34.3-33.7
		C400.7,65.7,414.9,79,415,99z M361.6,99.2c0,11.7,7.5,20.1,18.2,20.2c11,0.1,18.8-8.3,18.9-20.1c0-11.5-7.7-19.7-18.6-19.8
		C369.2,79.4,361.6,87.5,361.6,99.2z"/>
	<path class="st1" d="M339.1,131.6c-5.7,0-10.5-0.1-15.3,0.1c-2.3,0.1-3.1-1.2-4-2.9c-3.4-6.3-12.2-22.5-12.2-22.5s-1.2-0.1-3.1-0.1
		c-0.6,0-2.6,0-2.6,0s-0.2,16.6,0,22.2c0.1,2.4,0.1,3.2,0.1,3.2l-15,0.1l-0.1-64.1c0,0,1.3-0.1,5.1-0.2c9.6-0.1,19.3-1.1,28.8,1.2
		c8.9,2.2,14,7.6,15,15.3c1,8.5-2.1,14.4-10.6,18.9c-2.4,1.3-2.6,1.5-2.6,1.5S333.8,122.8,339.1,131.6z M301.7,79.9l0.2,15
		c0,0,4,0.1,7.8,0c7.3-0.1,11.2-2.9,11-8c-0.1-4.7-3.6-7-10.7-7.2c-0.3,0-1,0-1,0L301.7,79.9z"/>
	<path class="st1" d="M554.3,65.7c7.5,0.3,15,2.1,21.4,7.1c1.9,1.5,2.2,1.8,2.2,1.8l-9.6,10.7c0,0-0.6-0.2-6-3.7
		c-7.6-4.3-17.7-1.6-22.9,5.8c-5.5,7.9-4.3,20.9,2.5,27.1c6.4,5.9,18,5.3,23.8,0.5c2.2-1.8,2.7-2.3,2.7-2.3l10.4,11
		c0,0-1.6,1.2-6.9,4.5c-14,9.1-35.8,5.3-45.9-8.1c-10.4-13.7-8.7-34.6,3.9-45.9C536.8,68.4,545,65.9,554.3,65.7z"/>
	<path class="st1" d="M232.3,99.7c0-9.5,0-19,0-28.4c0-1.5,0.1-3.6,0.1-3.6s22.7-1.3,32.8,0.9c11.3,2.4,16.1,8.8,15.7,19.6
		c-0.4,9.6-6.7,16.5-17.2,18.3c-3.9,0.7-11.9,0.9-11.9,0.9l-4.1,0l0.1,24.3c0,0-0.4,0-3.7,0c-11.8,0.1-11.8,0.1-11.8,0.1
		S232.3,106.5,232.3,99.7z M247.7,79.7l0.1,15.5c0,0,2.6-0.1,5-0.1c9.2,0,13.1-2.4,12.9-8c-0.2-5.2-3.9-7.4-13-7.4
		C249,79.6,247.7,79.7,247.7,79.7z"/>
	<path class="st1" d="M462.7,93.7c0,0-0.1,19.8-1,24.3c-2.3,9.5-8.2,14.4-18.4,15.3c-8.7,0.8-17.5-4.1-21.1-11.5
		c-1.2-2.4-1.4-3.6-1.4-3.6s7.4-2.3,9.4-3c1.6-0.6,4-1.5,4-1.5s1.3,2.2,2,3.2c1.4,2.1,3.9,3,6.6,2.2c2.9-0.7,3.9-2.8,4.2-5.5
		c1-12.3,0.4-46.4,0.4-46.4s1.3,0.2,7.9,0c5-0.1,7.5-0.1,7.5-0.1L462.7,93.7z"/>
</g>
<rect x="468.8" y="67.5" class="st1" width="43" height="12.9"/>
<polygon class="st1" points="636.5,67.5 584.4,67.5 584.4,80.4 603,80.4 603,131.4 618,131.4 618,80.4 636.5,80.4 "/>
<rect x="468.8" y="92.4" class="st1" width="41.5" height="12.9"/>
<rect x="468.8" y="118.5" class="st1" width="44.6" height="12.9"/>
</svg>
