<?xml version="1.0" standalone="no"?>
<!DOCTYPE svg PUBLIC "-//W3C//DTD SVG 20010904//EN"
 "http://www.w3.org/TR/2001/REC-SVG-20010904/DTD/svg10.dtd">
<svg version="1.0" xmlns="http://www.w3.org/2000/svg"
 width="300.000000pt" height="300.000000pt" viewBox="0 0 300.000000 300.000000"
 preserveAspectRatio="xMidYMid meet">
<metadata>
Created by potrace 1.10, written by Peter Selinger 2001-2011
</metadata>
<g transform="translate(0.000000,300.000000) scale(0.100000,-0.100000)"
fill="#000000" stroke="none">
<path d="M1280 2983 c-505 -79 -924 -394 -1140 -855 -80 -172 -119 -325 -125
-488 -2 -63 -1 -101 1 -85 3 17 7 37 10 45 3 8 7 35 9 60 5 65 13 110 41 214
14 50 29 106 34 125 5 18 13 38 19 44 6 6 11 21 11 33 0 12 4 24 9 26 5 2 11
10 13 18 2 8 18 39 35 68 18 29 33 55 33 59 0 3 26 44 57 91 48 71 216 252
292 315 45 37 129 86 136 79 3 -4 5 -1 3 7 -3 15 197 124 216 118 6 -2 16 2
21 8 11 13 133 55 175 61 14 2 46 10 71 17 26 8 60 13 78 12 17 -2 31 0 31 4
0 3 27 8 61 9 101 5 116 21 19 20 -47 0 -96 -2 -110 -5z"/>
<path d="M1550 2980 c13 -6 50 -12 82 -13 32 -1 58 -4 58 -7 0 -3 17 -6 38 -8
35 -2 77 -9 77 -12 0 -1 9 -3 20 -5 81 -14 260 -72 275 -90 6 -8 19 -11 27 -8
11 4 14 2 9 -5 -4 -8 0 -12 12 -12 16 0 148 -73 162 -89 3 -3 25 -20 50 -36
24 -17 52 -37 61 -45 10 -8 25 -21 34 -28 8 -7 13 -17 10 -22 -4 -6 2 -7 11
-3 13 5 15 3 9 -7 -5 -8 -4 -11 2 -7 13 8 106 -89 98 -102 -3 -6 0 -9 8 -6 12
5 77 -64 77 -82 0 -5 13 -23 29 -40 16 -18 26 -34 23 -37 -3 -3 -1 -6 5 -6 13
0 74 -116 65 -126 -4 -4 -2 -4 5 0 8 4 15 -2 19 -19 3 -14 10 -25 16 -25 5 0
6 -5 3 -11 -4 -6 1 -16 11 -23 11 -8 15 -20 11 -30 -4 -10 -3 -15 3 -11 6 3
10 -1 10 -9 0 -8 -10 -17 -22 -19 -21 -4 -20 -4 3 -6 23 -1 36 -16 36 -41 0
-3 6 -16 13 -29 7 -14 14 -36 16 -50 1 -14 10 -53 19 -86 21 -76 29 -129 30
-182 0 -22 4 -39 9 -35 5 3 7 -1 4 -9 -3 -8 -2 -32 3 -54 5 -27 7 2 4 85 -8
258 -120 556 -291 778 -214 276 -512 469 -854 552 -93 23 -335 39 -290 20z"/>
<path d="M785 2702 c-16 -8 -32 -18 -35 -22 -3 -3 -16 -14 -30 -23 l-24 -17
22 0 c13 0 20 4 17 10 -3 6 3 10 14 10 12 0 21 6 21 14 0 9 8 12 27 8 20 -4
25 -2 21 9 -5 12 7 15 58 16 51 1 64 -2 64 -14 0 -11 7 -14 25 -11 20 4 25 1
25 -14 0 -16 3 -17 20 -8 16 9 18 8 14 -5 -4 -10 0 -15 15 -15 12 0 21 -6 21
-15 0 -8 6 -15 13 -15 7 0 19 -10 27 -21 8 -12 20 -27 27 -34 22 -23 45 -109
38 -145 -9 -50 -28 -100 -38 -100 -4 0 -6 -4 -3 -8 3 -5 -4 -15 -15 -22 -10
-8 -19 -21 -19 -28 0 -8 -6 -12 -15 -8 -9 3 -15 0 -15 -9 0 -8 -9 -15 -20 -15
-11 0 -20 -4 -20 -10 0 -5 -7 -10 -15 -10 -8 0 -15 -7 -15 -16 0 -12 -7 -15
-25 -12 -14 3 -25 1 -25 -3 0 -5 -27 -9 -60 -9 -34 0 -60 4 -60 10 0 6 -11 8
-25 4 -19 -5 -25 -2 -25 10 0 9 -8 16 -21 16 -11 0 -17 5 -14 10 3 6 -3 10
-14 10 -12 0 -21 5 -21 10 0 6 -7 10 -16 10 -11 0 -14 5 -10 16 4 12 2 15 -9
10 -9 -3 -15 0 -15 9 0 8 -5 15 -11 15 -5 0 -7 5 -4 10 3 6 2 10 -2 10 -12 0
-43 89 -43 122 0 32 29 110 44 120 6 4 7 8 3 8 -13 0 20 30 33 30 6 0 8 5 5
10 -3 6 1 10 9 10 18 0 21 15 7 25 -5 3 -16 -4 -25 -16 -8 -12 -19 -18 -25
-14 -7 3 -10 3 -9 -2 4 -12 -35 -83 -45 -83 -4 0 -6 -4 -3 -9 3 -5 2 -22 -3
-37 -16 -49 -22 -101 -11 -84 10 16 10 16 14 -32 1 -7 6 -19 13 -25 6 -7 21
-29 34 -50 26 -42 58 -72 77 -73 6 0 12 -4 12 -9 0 -5 23 -21 52 -35 63 -31
157 -35 199 -8 14 9 48 31 75 49 52 33 86 67 97 96 3 9 11 17 17 17 5 0 10 16
10 35 0 19 3 35 8 35 4 0 7 18 7 40 0 22 -3 40 -7 40 -5 0 -8 8 -8 18 0 10 -3
22 -7 26 -5 4 -9 11 -9 14 -6 29 -18 51 -25 46 -5 -3 -9 1 -9 9 0 8 -17 27
-37 43 -21 15 -40 32 -41 36 -2 5 -28 19 -58 33 -63 29 -151 32 -199 7z"/>
<path d="M305 2509 c-4 -6 -5 -12 -2 -15 2 -3 7 2 10 11 7 17 1 20 -8 4z"/>
<path d="M768 2273 c7 -3 16 -2 19 1 4 3 -2 6 -13 5 -11 0 -14 -3 -6 -6z"/>
<path d="M2028 2063 c7 -3 16 -2 19 1 4 3 -2 6 -13 5 -11 0 -14 -3 -6 -6z"/>
<path d="M2143 1923 c-13 -8 -23 -19 -23 -24 0 -4 -12 -21 -27 -36 -14 -15
-23 -21 -18 -13 5 9 5 12 -1 7 -5 -5 -9 -12 -9 -17 0 -18 -163 -225 -180 -228
-5 -1 -10 -5 -10 -9 -1 -18 -38 -62 -48 -56 -6 4 -8 0 -4 -10 3 -9 3 -17 -1
-19 -7 -3 -44 -46 -76 -91 l-20 -26 -20 23 c-20 21 -50 59 -94 115 -15 19 -24
22 -50 16 -17 -3 -30 -10 -29 -14 1 -4 -29 -44 -66 -90 l-69 -82 -147 2 c-81
1 -154 -1 -161 -6 -13 -8 -72 49 -110 106 -8 12 -24 31 -35 43 -40 42 -76 96
-70 105 3 5 -8 24 -25 43 -17 19 -28 39 -25 48 4 8 3 11 0 8 -4 -4 -21 9 -38
29 -18 19 -46 50 -64 68 -17 18 -28 36 -25 40 4 4 -3 2 -15 -4 -30 -15 -72
-58 -65 -65 3 -3 1 -6 -5 -6 -6 0 -20 -15 -32 -32 -11 -18 -24 -33 -28 -33 -4
0 -7 -3 -6 -7 2 -4 -7 -15 -20 -25 -12 -10 -38 -41 -57 -70 -19 -28 -38 -49
-44 -46 -5 3 -6 1 -2 -5 3 -6 0 -16 -7 -24 -7 -7 -35 -40 -61 -73 -76 -93 -63
-87 -201 -89 -68 0 -123 1 -123 4 1 3 -2 12 -5 20 -3 8 -8 24 -10 35 -3 11 -5
-4 -6 -32 l-1 -53 140 0 c77 0 140 3 140 8 0 4 10 18 23 32 12 14 52 61 88
105 135 166 173 212 221 273 27 34 53 62 57 62 9 0 55 -49 106 -114 21 -26 49
-59 62 -72 22 -22 22 -29 0 -25 -4 0 -7 -4 -7 -9 0 -6 -6 -10 -14 -10 -8 0
-21 -6 -28 -13 -14 -14 -27 -15 -43 -5 -5 3 -36 9 -67 13 -32 4 -58 12 -58 17
0 5 -7 8 -16 6 -10 -2 -29 -36 -49 -88 -18 -47 -63 -161 -100 -255 -37 -93
-69 -178 -72 -187 -5 -17 18 -18 394 -18 l400 0 19 26 c10 14 25 32 32 40 11
12 11 16 0 27 -26 27 -103 120 -112 136 -5 9 -18 24 -29 34 -11 9 -16 17 -11
17 5 1 80 1 167 0 174 -1 163 -5 221 75 11 14 27 35 36 45 9 10 25 30 35 44
11 14 24 26 29 26 12 0 111 -110 138 -153 9 -15 26 1 80 71 23 31 70 89 103
128 33 39 109 131 169 205 60 74 112 135 116 137 3 1 28 -25 55 -59 54 -68 90
-109 97 -109 3 0 5 7 5 15 0 8 -2 13 -5 10 -2 -2 -20 15 -39 38 -19 23 -42 51
-51 62 -9 11 -17 24 -17 28 0 11 -27 27 -45 26 -8 0 -25 -7 -37 -16z m-1391
-357 c31 -3 58 -1 60 3 2 5 13 12 26 15 17 6 27 1 45 -20 12 -14 36 -41 52
-60 47 -52 55 -62 55 -74 0 -5 4 -10 10 -10 14 0 90 -116 82 -125 -4 -5 -1 -5
6 -1 7 4 12 1 12 -9 0 -9 5 -13 10 -10 6 3 10 2 10 -3 0 -4 20 -30 44 -57 25
-29 41 -55 38 -64 -4 -10 -1 -12 8 -6 7 5 5 -4 -6 -18 -10 -15 -28 -27 -39
-27 -94 -4 -728 1 -735 5 -7 4 70 214 89 240 10 13 35 98 33 108 -1 4 3 7 9 7
5 0 7 5 4 10 -3 6 -1 10 6 10 7 0 10 3 6 6 -3 4 2 23 13 44 11 21 16 41 12 45
-4 5 -2 5 5 1 6 -3 14 -2 17 3 4 6 19 6 39 0 17 -4 58 -11 89 -13z"/>
<path d="M2171 1899 c-1 -4 -12 -36 -25 -71 -18 -48 -21 -65 -11 -65 7 0 11 6
8 13 -2 6 0 15 6 19 6 3 11 15 11 25 0 10 6 25 13 32 9 8 11 21 6 33 -4 11 -8
17 -8 14z"/>
<path d="M641 1721 c-19 -45 -31 -84 -29 -87 7 -7 39 43 44 69 2 12 9 34 15
49 6 15 9 33 7 39 -2 7 -19 -24 -37 -70z"/>
<path d="M2059 1747 c-13 -9 -14 -15 -4 -23 9 -9 15 -7 23 7 20 32 11 39 -19
16z"/>
<path d="M2100 1724 c-6 -14 -10 -27 -10 -29 0 -3 -71 -185 -157 -402 -4 -10
77 -13 386 -13 215 0 391 4 391 8 0 5 -9 17 -20 27 -11 10 -55 61 -98 114 -42
53 -81 101 -87 107 -27 30 -63 73 -87 104 -15 19 -40 51 -57 70 l-30 34 -35
-17 c-30 -14 -44 -15 -93 -5 -32 6 -62 15 -67 19 -16 15 -26 10 -36 -17z m67
-15 c17 -17 95 -18 131 -2 19 9 37 12 41 7 5 -5 30 -36 56 -69 27 -33 56 -67
65 -75 9 -8 21 -22 26 -31 5 -9 26 -36 46 -60 81 -95 98 -117 107 -142 l11
-27 -345 0 -345 0 16 38 c9 20 24 60 34 87 38 104 77 185 85 178 4 -5 5 -3 2
3 -8 15 13 95 24 88 5 -3 9 0 9 5 0 14 23 14 37 0z"/>
<path d="M534 1619 c-16 -10 -23 -19 -16 -19 7 0 10 -6 7 -12 -4 -7 0 -5 8 5
8 9 19 17 25 17 14 0 25 17 14 24 -5 3 -21 -4 -38 -15z"/>
<path d="M1552 1470 c-13 -28 -32 -75 -42 -104 -10 -30 -23 -64 -30 -76 -6
-11 -10 -26 -7 -33 4 -14 49 79 73 153 10 30 20 57 23 60 6 5 14 50 9 50 -2 0
-14 -23 -26 -50z"/>
<path d="M2979 1463 c-2 -48 -6 -70 -13 -82 -5 -7 -53 -10 -156 -8 -120 3
-147 1 -143 -10 4 -10 41 -13 164 -13 l159 0 0 70 c0 67 -9 100 -11 43z"/>
<path d="M262 1318 c-12 -13 -58 -67 -102 -120 -45 -54 -86 -98 -91 -98 -5 0
-9 -7 -9 -15 0 -13 22 -15 143 -14 188 1 227 17 47 19 -74 2 -139 2 -143 1 -4
-1 -3 8 3 19 6 11 16 20 22 20 6 0 9 3 5 6 -3 3 6 19 21 34 55 56 76 82 103
126 32 49 32 56 1 22z"/>
<path d="M2973 1319 c-6 -6 -9 -18 -6 -25 13 -33 -81 -346 -110 -365 -5 -4 -4
-10 2 -14 8 -5 6 -12 -8 -24 -11 -10 -18 -21 -15 -24 4 -3 -4 -21 -17 -39 -13
-18 -24 -35 -24 -38 -1 -14 -31 -70 -37 -70 -4 0 -14 -16 -23 -36 -9 -22 -19
-33 -26 -28 -8 4 -9 3 -5 -4 4 -6 -2 -20 -14 -32 -11 -11 -20 -23 -21 -27 -1
-5 -5 -7 -11 -5 -5 1 -7 -2 -4 -7 3 -5 -11 -29 -31 -52 -34 -39 -64 -68 -166
-161 -16 -15 -33 -25 -38 -22 -5 3 -6 -3 -2 -12 4 -12 3 -15 -5 -10 -7 4 -12
2 -12 -3 0 -6 -5 -11 -12 -11 -6 0 -21 -9 -32 -19 -12 -10 -37 -28 -57 -38
-20 -11 -45 -27 -54 -37 -10 -9 -24 -15 -31 -12 -8 3 -20 -3 -26 -14 -7 -11
-20 -20 -28 -20 -9 0 -20 -4 -25 -9 -6 -5 -35 -18 -65 -29 -30 -11 -80 -29
-110 -40 -74 -27 -183 -53 -237 -57 -57 -3 -69 -15 -15 -15 82 0 281 57 420
121 69 32 217 117 252 146 143 115 270 242 315 314 13 20 29 42 37 50 35 38
118 194 171 325 34 82 98 354 84 354 -2 0 -8 -5 -14 -11z"/>
<path d="M21 1284 c0 -23 3 -54 8 -70 5 -16 12 -46 16 -67 3 -21 10 -35 15
-32 6 3 5 16 -1 32 -5 15 -11 45 -13 67 -2 23 -6 48 -9 56 -3 8 -8 24 -10 35
-3 11 -5 2 -6 -21z"/>
<path d="M1778 1293 c7 -3 16 -2 19 1 4 3 -2 6 -13 5 -11 0 -14 -3 -6 -6z"/>
<path d="M1840 1290 c36 -12 70 -12 70 0 0 6 -21 10 -47 9 -39 -1 -43 -2 -23
-9z"/>
<path d="M1800 1260 c6 -11 15 -20 20 -20 17 0 11 15 -11 28 -19 12 -19 11 -9
-8z"/>
<path d="M1390 1245 c0 -9 -6 -12 -15 -9 -8 4 -15 1 -15 -5 0 -6 -9 -11 -20
-11 -11 0 -20 -5 -20 -11 0 -6 -7 -9 -15 -5 -8 3 -15 1 -15 -4 0 -5 -7 -16
-16 -25 -9 -9 -14 -18 -11 -21 2 -3 12 2 21 11 9 9 20 13 26 10 6 -4 9 -1 8 6
-4 16 44 40 82 41 34 1 36 4 16 24 -18 18 -26 18 -26 -1z"/>
<path d="M1800 1213 c0 -8 -5 -11 -10 -8 -6 3 -13 0 -16 -9 -3 -8 -12 -12 -20
-9 -8 3 -14 0 -14 -6 0 -6 -13 -11 -30 -11 -16 0 -30 5 -30 11 0 7 -18 10 -50
7 -35 -2 -50 1 -50 9 0 9 -11 11 -35 7 -23 -3 -35 -1 -35 6 0 7 -13 10 -32 8
-25 -2 -33 -9 -40 -33 -5 -16 -13 -39 -18 -50 -5 -11 -21 -51 -36 -90 -14 -38
-32 -83 -40 -100 -21 -48 -104 -265 -104 -272 0 -4 -8 -25 -19 -47 -26 -58
-71 -174 -71 -186 0 -7 233 -10 665 -10 500 0 665 3 665 12 0 6 -7 18 -15 27
-35 37 -85 96 -85 102 0 3 -15 22 -32 42 -18 19 -42 47 -53 61 -11 15 -35 43
-52 64 -18 20 -33 40 -33 43 0 6 -25 35 -93 109 -13 14 -27 32 -33 41 -8 16
-81 103 -114 138 -9 9 -29 35 -45 56 -51 68 -83 99 -104 100 -12 1 -21 -4 -21
-12z m-264 -27 c11 -2 27 -7 34 -11 8 -5 30 -9 49 -10 66 -4 72 -5 67 -13 -2
-4 11 -6 30 -4 19 2 34 9 34 15 0 6 3 7 7 4 3 -4 13 -1 22 7 20 17 61 27 61
15 0 -5 14 -22 30 -37 17 -16 30 -32 30 -35 0 -5 15 -22 90 -103 19 -21 28
-34 20 -30 -8 4 -4 -3 10 -16 14 -13 41 -44 61 -70 20 -26 40 -44 44 -40 5 4
5 2 2 -4 -4 -6 9 -27 28 -45 19 -19 35 -40 35 -47 0 -7 7 -15 15 -18 8 -4 15
-13 15 -21 0 -8 5 -11 12 -7 8 5 9 2 5 -9 -3 -10 -2 -17 3 -17 15 0 59 -53 53
-63 -3 -6 -1 -7 6 -3 6 4 14 0 18 -11 4 -10 15 -26 26 -36 11 -9 18 -17 15
-17 -3 0 14 -21 38 -47 24 -25 41 -49 39 -52 -2 -3 -43 -5 -92 -4 -48 2 -330
3 -625 3 -481 0 -538 2 -538 16 0 8 4 13 9 10 5 -3 8 0 8 7 -2 20 25 97 34 97
5 0 5 7 2 17 -4 11 -3 14 5 9 8 -5 10 -2 6 8 -3 9 -2 16 3 16 5 0 9 9 10 19 1
11 11 38 22 62 12 23 21 51 21 61 0 10 5 18 12 18 6 0 9 3 5 6 -3 4 0 19 8 34
8 15 11 30 8 34 -4 3 -1 6 5 6 7 0 12 9 12 20 0 12 7 20 18 21 9 0 12 3 6 5
-14 6 10 77 34 106 8 9 12 21 9 25 -3 5 1 22 8 38 8 17 21 47 29 69 14 33 19
37 38 32 13 -4 32 -8 44 -10z"/>
<path d="M80 1035 c0 -36 95 -241 152 -328 21 -32 38 -63 38 -68 0 -5 4 -9 8
-9 5 0 29 -28 54 -62 57 -78 170 -188 263 -256 39 -28 75 -55 80 -60 43 -34
189 -110 290 -150 104 -42 255 -78 360 -86 49 -4 55 -3 30 5 -16 6 -43 10 -60
10 -48 0 -323 73 -335 90 -6 8 -52 24 -63 21 -4 -1 -10 4 -13 13 -3 8 -21 17
-39 21 -19 3 -36 12 -39 20 -3 8 -12 14 -19 12 -14 -3 -41 14 -97 59 -15 12
-29 20 -32 18 -3 -3 -21 9 -40 27 -19 18 -46 39 -61 47 -14 8 -24 19 -20 24 3
6 2 7 -3 4 -13 -8 -96 77 -86 88 4 4 3 6 -3 3 -13 -7 -36 17 -27 28 4 4 2 4
-4 1 -7 -4 -17 0 -24 8 -7 8 -10 15 -7 15 3 0 -7 13 -21 29 -51 56 -72 84 -72
98 0 8 -4 11 -10 8 -5 -3 -10 0 -10 8 0 8 -13 33 -30 55 -16 23 -30 48 -30 55
0 7 -9 20 -20 30 -11 9 -20 25 -20 36 0 10 -7 24 -15 31 -8 7 -13 15 -11 19 3
4 -7 29 -20 55 -14 27 -23 54 -21 60 3 6 -2 17 -9 24 -12 10 -14 10 -14 -3z"/>
<path d="M1129 999 c-54 -63 -66 -77 -104 -125 -16 -21 -37 -45 -46 -54 -8 -9
-18 -24 -22 -33 -3 -9 -11 -17 -16 -17 -5 0 -13 -9 -16 -20 -4 -11 -11 -18
-16 -15 -5 4 -9 2 -9 -4 0 -5 -18 -31 -40 -58 -73 -86 -90 -107 -120 -148 -16
-22 -38 -50 -50 -62 -11 -12 -20 -25 -20 -28 0 -3 104 -5 230 -5 144 0 230 4
230 10 0 6 -82 11 -212 12 -188 3 -210 5 -197 18 8 8 18 23 22 33 4 10 11 15
17 12 6 -4 7 1 3 11 -4 12 -3 15 5 10 7 -4 12 -3 12 1 0 5 11 20 25 35 14 15
24 29 23 31 -2 2 7 15 19 28 43 46 143 173 143 182 0 4 5 5 10 2 6 -3 10 0 10
9 0 8 12 27 28 43 15 15 47 53 72 83 61 74 67 80 74 72 4 -3 4 1 0 11 -3 9 -7
17 -9 17 -1 0 -22 -23 -46 -51z"/>
<path d="M1398 13 c7 -3 16 -2 19 1 4 3 -2 6 -13 5 -11 0 -14 -3 -6 -6z"/>
<path d="M1628 13 c7 -3 16 -2 19 1 4 3 -2 6 -13 5 -11 0 -14 -3 -6 -6z"/>
</g>
</svg>
