<svg width="100" height="100" viewBox="0 0 100 100" fill="none" xmlns="http://www.w3.org/2000/svg">
<style type="text/css">
	.st0{fill:#6633CC;}
</style>
<path class="st0" d="M26.4,100c-0.8,0-1.3-0.8-1.3-1.2V30.8c0-2.9,0-13.3,8.3-22.1C36,6.2,43.1,0,53.9,0c10.4,0,17.9,5.4,20.4,7.9
	c2.9,2.5,9.2,9.6,9.2,20.4c0.4,11.2-5.8,18.3-8.3,21.2c-7.5,7.5-16.7,8.3-20,8.8c-0.8,0-1.2-0.8-1.2-1.2c0-0.8,0.4-1.2,1.2-1.2
	c3.3,0,11.7-0.8,18.3-7.9c1.7-1.7,7.9-8.8,7.9-19.2c0-10-6.2-16.7-8.3-18.3c-1.7-1.7-8.3-7.1-17.9-7.1h-0.4c-10,0-16.2,5.8-18.8,8.3
	c-7.9,7.1-8.3,16.7-8.3,19.2v67.9C27.7,99.6,27.2,100,26.4,100z"/>
<path class="st0" d="M54.3,39.2c-5.4,0-10-4.6-10-10s4.6-10,10-10s10,4.6,10,10S59.7,39.2,54.3,39.2z M54.3,22.1
	c-3.7,0-7.1,3.3-7.1,7.1c0,3.8,3.3,7.1,7.1,7.1c3.8,0,7.1-3.3,7.1-7.1S58.1,22.1,54.3,22.1z"/>
<path class="st0" d="M35.6,76.2c-0.8,0-1.2-0.8-1.2-1.2V30.8c0-0.8,0.8-1.3,1.2-1.3c0.8,0,1.3,0.8,1.3,1.3V75
	C36.8,75.4,36.4,76.2,35.6,76.2z"/>
<path class="st0" d="M45.6,90c-0.8,0-1.2-0.8-1.2-1.2V65.4c0-0.8,0.8-1.2,1.2-1.2c0.8,0,1.2,0.8,1.2,1.2v23.3
	C47.2,89.2,46.4,90,45.6,90z"/>
<path class="st0" d="M17.7,78.8c-0.8,0-1.2-0.8-1.2-1.2v-30c0-0.8,0.8-1.3,1.2-1.3c0.8,0,1.2,0.8,1.2,1.3v30
	C18.9,78.3,18.5,78.8,17.7,78.8z"/>
<path class="st0" d="M54.3,49.2c-10.8,0-20-9.2-20-20s8.8-20,20-20s20,9.2,20,20C73.9,40,65.2,49.2,54.3,49.2z M54.3,12.1
	c-9.6,0-17.1,7.5-17.1,17.1s7.5,17.1,17.1,17.1s17.1-7.5,17.1-17.1S63.5,12.1,54.3,12.1z"/>
</svg>
