<svg width="392" height="392" version="1.1" xmlns="http://www.w3.org/2000/svg" desc="Created with imagetracer.js version 1.2.4" ><path fill="rgb(233,14,28)" stroke="rgb(233,14,28)" stroke-width="1" opacity="1" d="M 137.5 203 Q 140.8 226.7 155.5 239 Q 170 254.5 199.5 255 L 200.5 254 L 211.5 253 L 222.5 249 L 270 290.5 Q 253.6 305.1 229.5 312 L 210.5 316 L 180.5 316 Q 130.6 306.9 104 274.5 Q 92.7 261.3 85 244.5 L 79 227.5 L 77 216.5 L 78.5 217 L 80.5 218 L 83.5 216 Q 90.9 216.9 94.5 214 L 96.5 214 L 137 207 L 137.5 203 Z " /><path fill="rgb(233,14,28)" stroke="rgb(233,14,28)" stroke-width="1" opacity="1" d="M 76.5 209 L 77 212.5 L 76 212.5 L 76.5 209 Z " /><path fill="rgb(233,14,28)" stroke="rgb(233,14,28)" stroke-width="1" opacity="1" d="M 260.5 233 L 296 253 L 296 255 L 300 255 L 300 256.5 L 290.5 270 L 260 234.5 L 260.5 233 Z " /><path fill="rgb(23,11,37)" stroke="rgb(23,11,37)" stroke-width="1" opacity="1" d="M 0 0 L 392 0 L 392 392 L 0 392 L 0 0 Z M 71 69 L 69 71 L 70 78 L 77 91 L 101 122 Q 90 135 83 153 L 78 169 L 76 180 L 76 189 L 75 190 L 76 213 L 83 240 Q 91 260 104 275 Q 131 307 181 316 L 211 316 L 230 312 Q 253 305 270 291 L 302 314 L 314 320 Q 319 321 320 319 L 319 311 L 314 302 L 291 271 L 307 244 L 312 230 L 316 211 L 316 182 L 313 166 Q 304 136 286 116 Q 270 97 247 86 L 219 77 L 204 76 L 203 75 L 180 76 L 165 79 L 136 91 L 122 101 L 88 75 L 78 70 L 71 69 Z " /><path fill="rgb(23,11,37)" stroke="rgb(23,11,37)" stroke-width="1" opacity="1" d="M 188.5 137 L 202.5 137 L 215.5 140 Q 231 146 241 157.5 Q 248.1 165.4 252 176.5 L 255 191.5 L 255 199.5 L 254 200.5 L 253 211.5 L 248.5 222 L 199.5 171 L 170 143.5 L 173.5 141 L 188.5 137 Z " /><path fill="rgb(23,11,37)" stroke="rgb(23,11,37)" stroke-width="1" opacity="1" d="M 143.5 170 L 189.5 218 L 222 248.5 L 207.5 254 L 192.5 255 L 174.5 251 Q 160.9 245.6 152 235.5 Q 143.3 226.2 139 212.5 L 137 202.5 L 137 188.5 L 141 173.5 L 143.5 170 Z " /><path fill="rgb(129,224,128)" stroke="rgb(129,224,128)" stroke-width="1" opacity="1" d="M 70.5 69 L 69.5 71 L 70.5 69 Z " /><path fill="rgb(129,224,128)" stroke="rgb(129,224,128)" stroke-width="1" opacity="1" d="M 181.5 76 L 209 76 L 209 85.5 L 208 86.5 L 206 112.5 L 203 129.5 L 203 131.5 Q 203.6 136.9 202.5 137 L 186.5 137 L 174.5 141 L 174.5 140 L 176 139.5 L 168 117.5 L 166 115.5 L 162 100.5 L 159 95.5 L 155 82 L 181.5 76 Z " /><path fill="rgb(129,224,128)" stroke="rgb(129,224,128)" stroke-width="1" opacity="1" d="M 137.5 90 L 136.5 92 L 134.5 93 L 135.5 91 L 137.5 90 Z " /><path fill="rgb(129,224,128)" stroke="rgb(129,224,128)" stroke-width="1" opacity="1" d="M 132.5 93 L 131.5 95 L 132.5 93 Z " /><path fill="rgb(129,224,128)" stroke="rgb(129,224,128)" stroke-width="1" opacity="1" d="M 129.5 95 L 163.5 146 L 170.5 142 L 170 143.5 L 172.5 147 L 168.5 144 Q 156.7 150.2 149 160.5 L 144 169.5 L 146.5 173 Q 144.3 167.8 142 171.5 Q 136.7 181.9 137 197 L 133.5 196 L 130.5 197 L 127.5 196 L 126.5 197 L 76 197 L 75.5 203 L 75 189.5 L 76 188.5 L 76 179.5 L 79 164.5 Q 83.5 148.5 91 135.5 Q 102.4 115.9 119.5 102 L 129.5 95 Z " /><path fill="rgb(129,224,128)" stroke="rgb(129,224,128)" stroke-width="1" opacity="1" d="M 181.5 154 L 182.5 156 L 181.5 154 Z " /><path fill="rgb(129,224,128)" stroke="rgb(129,224,128)" stroke-width="1" opacity="1" d="M 154.5 181 L 155.5 183 L 154.5 181 Z " /><path fill="rgb(129,224,128)" stroke="rgb(129,224,128)" stroke-width="1" opacity="1" d="M 135.5 205 Q 138.1 204.3 137 207 L 128.5 209 L 121.5 209 L 105.5 213 L 99.5 213 L 95.5 215 L 93.5 215 L 83.5 216 L 80.5 218 L 77 215.5 Q 76.1 212.5 80.5 214 L 87.5 212 L 89.5 212 L 108.5 210 L 115.5 208 L 117.5 208 L 134.5 206 L 135.5 205 Z " /><path fill="rgb(129,224,128)" stroke="rgb(129,224,128)" stroke-width="1" opacity="1" d="M 236.5 209 L 239.5 213 L 236.5 209 Z " /><path fill="rgb(129,224,128)" stroke="rgb(129,224,128)" stroke-width="1" opacity="1" d="M 209.5 236 L 213.5 241 L 209.5 236 Z " /><path fill="rgb(161,59,171)" stroke="rgb(161,59,171)" stroke-width="1" opacity="1" d="M 87.5 75 L 88.5 77 L 87.5 75 Z " /><path fill="rgb(161,59,171)" stroke="rgb(161,59,171)" stroke-width="1" opacity="1" d="M 191.5 75 L 203 75.5 L 191.5 76 L 191.5 75 Z " /><path fill="rgb(161,59,171)" stroke="rgb(161,59,171)" stroke-width="1" opacity="1" d="M 209 76 L 230.5 80 L 254.5 90 Q 272.7 100.3 286 115.5 Q 304.5 135.5 313 165.5 L 316 181.5 L 316 210.5 L 309 238.5 L 300.5 256 L 296 255 Q 297.1 252.3 294.5 253 L 260.5 233 L 259.5 234 L 253 227.5 L 249 222.5 L 249 220.5 L 254 207.5 L 255 191.5 L 252 176.5 L 248 167.5 L 234.5 151 Q 223 139.8 203 138 L 203 131.5 L 204 130.5 L 204 128.5 L 204 120.5 L 206 112.5 L 209 76 Z " /><path fill="rgb(161,59,171)" stroke="rgb(161,59,171)" stroke-width="1" opacity="1" d="M 90.5 77 L 91.5 79 L 90.5 77 Z " /><path fill="rgb(161,59,171)" stroke="rgb(161,59,171)" stroke-width="1" opacity="1" d="M 93.5 79 L 94.5 81 L 93.5 79 Z " /><path fill="rgb(161,59,171)" stroke="rgb(161,59,171)" stroke-width="1" opacity="1" d="M 90.5 108 L 91.5 110 L 90.5 108 Z " /><path fill="rgb(161,59,171)" stroke="rgb(161,59,171)" stroke-width="1" opacity="1" d="M 168.5 144 L 181 153.5 L 163.5 172 L 161 173.5 Q 161.8 175.8 159.5 175 L 153.5 181 L 149 176.5 L 144 168.5 Q 150.2 156.7 160.5 149 L 168.5 144 Z " /><path fill="rgb(161,59,171)" stroke="rgb(161,59,171)" stroke-width="1" opacity="1" d="M 183.5 156 L 185.5 159 L 183.5 156 Z " /><path fill="rgb(161,59,171)" stroke="rgb(161,59,171)" stroke-width="1" opacity="1" d="M 199.5 171 L 217.5 190 L 199.5 171 Z " /><path fill="rgb(161,59,171)" stroke="rgb(161,59,171)" stroke-width="1" opacity="1" d="M 156.5 183 L 158.5 186 L 156.5 183 Z " /><path fill="rgb(161,59,171)" stroke="rgb(161,59,171)" stroke-width="1" opacity="1" d="M 171.5 199 L 189.5 218 L 171.5 199 Z " /><path fill="rgb(161,59,171)" stroke="rgb(161,59,171)" stroke-width="1" opacity="1" d="M 233.5 206 L 235.5 209 L 233.5 206 Z " /><path fill="rgb(161,59,171)" stroke="rgb(161,59,171)" stroke-width="1" opacity="1" d="M 240.5 213 L 242.5 216 L 240.5 213 Z " /><path fill="rgb(161,59,171)" stroke="rgb(161,59,171)" stroke-width="1" opacity="1" d="M 206.5 233 L 208.5 236 L 206.5 233 Z " /><path fill="rgb(161,59,171)" stroke="rgb(161,59,171)" stroke-width="1" opacity="1" d="M 263.5 238 L 267.5 243 L 263.5 238 Z " /><path fill="rgb(161,59,171)" stroke="rgb(161,59,171)" stroke-width="1" opacity="1" d="M 271.5 247 L 273.5 250 L 271.5 247 Z " /><path fill="rgb(161,59,171)" stroke="rgb(161,59,171)" stroke-width="1" opacity="1" d="M 224.5 250 L 228.5 255 L 224.5 250 Z " /><path fill="rgb(161,59,171)" stroke="rgb(161,59,171)" stroke-width="1" opacity="1" d="M 277.5 254 L 279.5 257 L 277.5 254 Z " /><path fill="rgb(161,59,171)" stroke="rgb(161,59,171)" stroke-width="1" opacity="1" d="M 282.5 260 L 284.5 263 L 282.5 260 Z " /><path fill="rgb(161,59,171)" stroke="rgb(161,59,171)" stroke-width="1" opacity="1" d="M 236.5 261 L 238.5 264 L 236.5 261 Z " /><path fill="rgb(161,59,171)" stroke="rgb(161,59,171)" stroke-width="1" opacity="1" d="M 287.5 266 L 289.5 269 L 287.5 266 Z " /><path fill="rgb(161,59,171)" stroke="rgb(161,59,171)" stroke-width="1" opacity="1" d="M 245.5 269 L 247.5 272 L 245.5 269 Z " /><path fill="rgb(161,59,171)" stroke="rgb(161,59,171)" stroke-width="1" opacity="1" d="M 252.5 275 L 254.5 278 L 252.5 275 Z " /><path fill="rgb(161,59,171)" stroke="rgb(161,59,171)" stroke-width="1" opacity="1" d="M 259.5 281 L 261.5 284 L 259.5 281 Z " /><path fill="rgb(161,59,171)" stroke="rgb(161,59,171)" stroke-width="1" opacity="1" d="M 301.5 284 L 302.5 286 L 301.5 284 Z " /><path fill="rgb(161,59,171)" stroke="rgb(161,59,171)" stroke-width="1" opacity="1" d="M 265.5 286 L 267.5 289 L 265.5 286 Z " /><path fill="rgb(161,59,171)" stroke="rgb(161,59,171)" stroke-width="1" opacity="1" d="M 304.5 288 L 305.5 290 L 304.5 288 Z " /><path fill="rgb(161,59,171)" stroke="rgb(161,59,171)" stroke-width="1" opacity="1" d="M 291.5 306 L 292.5 308 L 291.5 306 Z " /><path fill="rgb(161,59,171)" stroke="rgb(161,59,171)" stroke-width="1" opacity="1" d="M 300.5 312 L 301.5 314 L 300.5 312 Z " /><path fill="rgb(161,59,171)" stroke="rgb(161,59,171)" stroke-width="1" opacity="1" d="M 305.5 315 L 306.5 317 L 305.5 315 Z " /><path fill="rgb(229,226,229)" stroke="rgb(229,226,229)" stroke-width="1" opacity="1" d="M 71.5 69 L 74 69.5 L 71.5 70 L 71.5 69 Z " /><path fill="rgb(229,226,229)" stroke="rgb(229,226,229)" stroke-width="1" opacity="1" d="M 69.5 71 L 70 73.5 L 69 73.5 L 69.5 71 Z " /><path fill="rgb(229,226,229)" stroke="rgb(229,226,229)" stroke-width="1" opacity="1" d="M 86.5 75 L 121 100 Q 122.1 102.7 119.5 102 L 102 119.5 L 102 121 Q 99.3 122.1 100 119.5 L 75 86.5 L 81 83 L 81 81 Q 83.7 82.1 83 79.5 L 86.5 75 Z " /><path fill="rgb(229,226,229)" stroke="rgb(229,226,229)" stroke-width="1" opacity="1" d="M 154.5 83 L 176 139.5 L 163.5 146 L 142 115.5 L 142 113.5 Q 134 105.5 130 95 L 154.5 83 Z " /><path fill="rgb(229,226,229)" stroke="rgb(229,226,229)" stroke-width="1" opacity="1" d="M 180.5 155 Q 191.5 161.5 199 171.5 L 195.5 169 L 190 172 L 188.5 175 L 187 175 L 187 177 Q 184.3 175.9 185 178.5 L 181 181.5 Q 181.8 183.8 179.5 183 L 178 186 L 176.5 186 L 168 194.5 L 171.5 199 L 154 180.5 L 161 175 L 162.5 172 L 180.5 155 Z " /><path fill="rgb(229,226,229)" stroke="rgb(229,226,229)" stroke-width="1" opacity="1" d="M 217.5 190 L 232.5 206 L 217.5 190 Z " /><path fill="rgb(229,226,229)" stroke="rgb(229,226,229)" stroke-width="1" opacity="1" d="M 127.5 196 L 130.5 197 L 133.5 196 L 137 197 L 137 204.5 L 135.5 205 L 134.5 206 L 121.5 207 L 116.5 209 L 114.5 208 L 108.5 210 L 101.5 210 L 88.5 213 L 86.5 213 L 77 214 L 76 197 L 126.5 197 L 127.5 196 Z " /><path fill="rgb(229,226,229)" stroke="rgb(229,226,229)" stroke-width="1" opacity="1" d="M 242.5 216 L 252.5 227 L 242.5 216 Z " /><path fill="rgb(229,226,229)" stroke="rgb(229,226,229)" stroke-width="1" opacity="1" d="M 190.5 217 L 205.5 233 L 190.5 217 Z " /><path fill="rgb(229,226,229)" stroke="rgb(229,226,229)" stroke-width="1" opacity="1" d="M 256.5 231 L 262.5 238 L 256.5 231 Z " /><path fill="rgb(229,226,229)" stroke="rgb(229,226,229)" stroke-width="1" opacity="1" d="M 265.5 241 L 270.5 247 L 265.5 241 Z " /><path fill="rgb(229,226,229)" stroke="rgb(229,226,229)" stroke-width="1" opacity="1" d="M 216.5 242 L 223.5 250 L 216.5 242 Z " /><path fill="rgb(229,226,229)" stroke="rgb(229,226,229)" stroke-width="1" opacity="1" d="M 272.5 249 L 276.5 254 L 272.5 249 Z " /><path fill="rgb(229,226,229)" stroke="rgb(229,226,229)" stroke-width="1" opacity="1" d="M 230.5 255 L 235.5 261 L 230.5 255 Z " /><path fill="rgb(229,226,229)" stroke="rgb(229,226,229)" stroke-width="1" opacity="1" d="M 278.5 256 L 281.5 260 L 278.5 256 Z " /><path fill="rgb(229,226,229)" stroke="rgb(229,226,229)" stroke-width="1" opacity="1" d="M 284.5 263 L 286.5 266 L 284.5 263 Z " /><path fill="rgb(229,226,229)" stroke="rgb(229,226,229)" stroke-width="1" opacity="1" d="M 240.5 264 L 244.5 269 L 240.5 264 Z " /><path fill="rgb(229,226,229)" stroke="rgb(229,226,229)" stroke-width="1" opacity="1" d="M 288.5 268 L 289.5 270 L 288.5 268 Z " /><path fill="rgb(229,226,229)" stroke="rgb(229,226,229)" stroke-width="1" opacity="1" d="M 249.5 272 L 251.5 275 L 249.5 272 Z " /><path fill="rgb(229,226,229)" stroke="rgb(229,226,229)" stroke-width="1" opacity="1" d="M 292.5 273 L 293.5 275 L 292.5 273 Z " /><path fill="rgb(229,226,229)" stroke="rgb(229,226,229)" stroke-width="1" opacity="1" d="M 256.5 278 L 258.5 281 L 256.5 278 Z " /><path fill="rgb(229,226,229)" stroke="rgb(229,226,229)" stroke-width="1" opacity="1" d="M 296.5 278 L 297.5 280 L 296.5 278 Z " /><path fill="rgb(229,226,229)" stroke="rgb(229,226,229)" stroke-width="1" opacity="1" d="M 299.5 282 L 300.5 284 L 299.5 282 Z " /><path fill="rgb(229,226,229)" stroke="rgb(229,226,229)" stroke-width="1" opacity="1" d="M 262.5 283 L 264.5 286 L 262.5 283 Z " /><path fill="rgb(229,226,229)" stroke="rgb(229,226,229)" stroke-width="1" opacity="1" d="M 302.5 286 L 303.5 288 L 302.5 286 Z " /><path fill="rgb(229,226,229)" stroke="rgb(229,226,229)" stroke-width="1" opacity="1" d="M 268.5 288 L 269.5 290 L 268.5 288 Z " /><path fill="rgb(229,226,229)" stroke="rgb(229,226,229)" stroke-width="1" opacity="1" d="M 305.5 290 L 306.5 292 L 305.5 290 Z " /><path fill="rgb(229,226,229)" stroke="rgb(229,226,229)" stroke-width="1" opacity="1" d="M 273.5 292 L 274.5 294 L 273.5 292 Z " /><path fill="rgb(229,226,229)" stroke="rgb(229,226,229)" stroke-width="1" opacity="1" d="M 307.5 293 L 308.5 295 L 307.5 293 Z " /><path fill="rgb(229,226,229)" stroke="rgb(229,226,229)" stroke-width="1" opacity="1" d="M 278.5 296 L 279.5 298 L 278.5 296 Z " /><path fill="rgb(229,226,229)" stroke="rgb(229,226,229)" stroke-width="1" opacity="1" d="M 309.5 296 L 310.5 298 L 309.5 296 Z " /><path fill="rgb(229,226,229)" stroke="rgb(229,226,229)" stroke-width="1" opacity="1" d="M 282.5 299 L 283.5 301 L 282.5 299 Z " /><path fill="rgb(229,226,229)" stroke="rgb(229,226,229)" stroke-width="1" opacity="1" d="M 311.5 299 L 312.5 301 L 311.5 299 Z " /><path fill="rgb(229,226,229)" stroke="rgb(229,226,229)" stroke-width="1" opacity="1" d="M 286.5 302 L 287.5 304 L 286.5 302 Z " /><path fill="rgb(229,226,229)" stroke="rgb(229,226,229)" stroke-width="1" opacity="1" d="M 293.5 307 L 294.5 309 L 293.5 307 Z " /><path fill="rgb(229,226,229)" stroke="rgb(229,226,229)" stroke-width="1" opacity="1" d="M 319.5 318 L 318.5 320 L 319.5 318 Z " /><path fill="rgb(255,255,255)" stroke="rgb(255,255,255)" stroke-width="1" opacity="1" d="M 70 70 L 75.5 70 L 86 75 L 83 81 L 81 81 Q 82.1 83.7 79.5 83 L 75 86 L 70 75.5 L 70 70 Z " /><path fill="rgb(255,255,255)" stroke="rgb(255,255,255)" stroke-width="1" opacity="1" d="M 194.5 169 L 199.5 172 L 217 189.5 Q 252 224.5 284 262.5 L 315 304.5 L 320 317.5 L 316.5 320 L 296.5 310 L 255.5 278 Q 212.1 240.4 172 199.5 L 168 194.5 L 176.5 186 L 178 186 L 179.5 183 Q 181.8 183.8 181 181.5 L 185 178.5 L 185 177 L 187 177 Q 185.9 174.3 188.5 175 L 190 172 L 194.5 169 Z " /></svg>