<svg id="svg" version="1.1" xmlns="http://www.w3.org/2000/svg" xmlns:xlink="http://www.w3.org/1999/xlink" width="400" height="400" viewBox="0, 0, 400,400"><g id="svgg"><path id="path0" d="M193.000 68.853 C 191.240 69.044,188.270 69.401,186.400 69.646 C 184.530 69.892,181.650 70.240,180.000 70.419 C 178.350 70.598,176.190 70.918,175.200 71.129 C 169.954 72.249,168.735 72.547,165.776 73.434 C 164.003 73.965,162.266 74.400,161.916 74.400 C 161.566 74.400,160.317 74.848,159.140 75.396 C 157.963 75.944,156.725 76.394,156.388 76.396 C 154.263 76.410,138.005 84.258,132.432 87.960 C 131.240 88.752,129.980 89.580,129.632 89.800 C 129.085 90.146,123.144 94.248,120.653 96.000 C 118.663 97.400,109.046 106.096,106.950 108.393 C 101.258 114.627,98.607 117.784,96.400 120.954 C 96.070 121.428,95.071 122.803,94.179 124.008 C 91.314 127.882,87.387 134.469,85.003 139.400 C 80.798 148.095,80.420 148.958,78.789 153.600 C 77.901 156.130,77.013 158.560,76.817 159.000 C 76.621 159.440,76.374 160.250,76.270 160.800 C 76.165 161.350,75.779 162.790,75.412 164.000 C 75.046 165.210,74.497 167.550,74.193 169.200 C 73.889 170.850,73.443 172.830,73.202 173.600 C 72.775 174.962,72.614 176.105,71.318 187.000 C 70.453 194.263,70.460 202.239,71.336 209.400 C 71.740 212.700,72.227 216.750,72.420 218.400 C 72.612 220.050,72.972 222.120,73.219 223.000 C 73.466 223.880,73.896 225.860,74.174 227.400 C 74.762 230.663,75.594 233.639,76.067 234.180 C 76.250 234.389,76.400 235.056,76.400 235.661 C 76.400 236.660,76.581 237.267,77.631 239.800 C 77.814 240.240,78.539 242.130,79.243 244.000 C 79.947 245.870,81.024 248.480,81.636 249.800 C 84.437 255.840,86.882 260.765,87.989 262.600 C 88.653 263.700,89.512 265.230,89.898 266.000 C 90.284 266.770,91.005 267.848,91.500 268.396 C 91.995 268.944,92.400 269.586,92.400 269.824 C 92.400 270.062,92.986 270.963,93.702 271.828 C 94.418 272.693,95.677 274.390,96.499 275.600 C 97.321 276.810,98.490 278.365,99.097 279.055 C 99.704 279.745,101.010 281.268,102.000 282.438 C 104.560 285.466,113.000 293.909,115.575 296.018 C 116.772 296.998,118.502 298.475,119.420 299.300 C 120.338 300.125,121.214 300.800,121.366 300.800 C 121.519 300.800,122.219 301.356,122.922 302.036 C 123.625 302.716,124.740 303.510,125.400 303.800 C 126.423 304.250,128.450 305.659,130.283 307.195 C 130.549 307.418,130.945 307.600,131.163 307.600 C 131.382 307.600,131.704 307.825,131.880 308.100 C 132.248 308.675,132.606 308.885,138.351 311.901 C 145.087 315.436,147.930 316.800,148.564 316.800 C 148.888 316.800,149.252 316.960,149.373 317.156 C 149.494 317.351,150.064 317.630,150.640 317.774 C 151.217 317.919,152.433 318.372,153.344 318.781 C 154.255 319.189,155.900 319.830,157.000 320.204 C 158.100 320.578,159.360 321.022,159.800 321.189 C 160.645 321.511,161.256 321.671,169.200 323.651 C 171.950 324.337,174.513 325.056,174.895 325.249 C 175.277 325.442,176.293 325.600,177.154 325.600 C 178.014 325.600,181.392 326.035,184.659 326.566 C 193.768 328.047,212.022 327.730,218.846 325.973 C 219.642 325.768,221.219 325.600,222.352 325.600 C 223.484 325.600,224.723 325.440,225.105 325.244 C 225.487 325.048,227.150 324.581,228.800 324.208 C 230.450 323.834,232.250 323.383,232.800 323.205 C 233.350 323.027,234.880 322.584,236.200 322.219 C 241.020 320.888,245.447 319.451,247.400 318.583 C 248.500 318.094,250.253 317.313,251.296 316.847 C 252.338 316.381,253.333 316.000,253.507 316.000 C 253.944 316.000,258.330 313.703,259.577 312.821 C 260.140 312.423,261.860 311.494,263.400 310.755 C 264.940 310.017,266.290 309.302,266.400 309.166 C 267.336 308.012,269.774 308.031,271.400 309.205 C 271.620 309.364,272.880 309.862,274.200 310.313 C 277.329 311.380,280.557 312.635,282.800 313.658 C 285.513 314.894,286.637 315.351,291.000 316.995 C 293.200 317.824,295.360 318.720,295.800 318.988 C 296.240 319.255,297.140 319.602,297.800 319.760 C 298.460 319.918,299.720 320.369,300.600 320.764 C 303.366 322.002,305.340 322.750,307.200 323.263 C 308.190 323.536,309.144 323.994,309.320 324.280 C 309.496 324.566,309.980 324.800,310.396 324.800 C 310.812 324.800,311.266 324.983,311.404 325.207 C 311.542 325.430,311.809 325.518,311.997 325.402 C 312.185 325.286,312.937 325.541,313.669 325.969 C 314.401 326.398,315.900 326.962,317.000 327.224 C 318.100 327.486,319.405 327.952,319.900 328.259 C 321.931 329.521,320.518 327.721,315.500 322.652 C 312.585 319.707,308.548 315.611,306.528 313.549 C 304.509 311.487,300.999 307.974,298.728 305.742 C 296.458 303.509,294.030 301.079,293.334 300.342 C 292.638 299.604,291.063 298.019,289.834 296.819 C 288.605 295.620,287.600 294.495,287.600 294.319 C 287.600 294.144,287.417 294.000,287.193 294.000 C 286.757 294.000,258.231 265.472,256.495 263.300 C 255.924 262.585,255.278 262.000,255.060 262.000 C 254.841 262.000,254.368 261.733,254.008 261.407 C 253.369 260.829,251.067 261.995,247.000 264.957 C 243.247 267.691,239.629 269.834,234.400 272.419 C 229.665 274.759,227.581 275.571,225.139 276.023 C 223.743 276.282,221.970 276.723,221.200 277.004 C 219.173 277.742,216.859 278.324,214.800 278.613 C 213.810 278.752,212.010 279.038,210.800 279.249 C 206.400 280.016,194.506 280.113,190.400 279.415 C 188.310 279.060,185.610 278.613,184.400 278.423 C 181.825 278.019,179.492 277.428,178.814 277.009 C 178.551 276.846,177.044 276.447,175.467 276.123 C 172.626 275.539,166.296 273.017,163.600 271.395 C 162.830 270.931,161.030 269.957,159.600 269.230 C 158.170 268.503,156.640 267.594,156.200 267.209 C 155.760 266.825,153.729 265.317,151.687 263.859 C 145.446 259.403,138.881 252.918,134.636 247.018 C 133.996 246.128,133.360 245.310,133.223 245.200 C 132.940 244.973,130.989 241.887,129.428 239.200 C 127.837 236.459,124.800 230.088,124.800 229.490 C 124.800 229.199,124.634 228.789,124.432 228.580 C 123.753 227.879,122.322 223.579,120.827 217.747 C 120.650 217.058,120.383 216.296,120.233 216.054 C 119.387 214.684,118.389 197.492,118.838 192.000 C 119.249 186.964,119.949 181.685,120.403 180.200 C 120.605 179.540,121.075 177.740,121.449 176.200 C 121.823 174.660,122.460 172.691,122.864 171.825 C 123.269 170.959,123.600 169.989,123.600 169.670 C 123.600 169.351,124.294 167.630,125.142 165.845 C 125.991 164.060,126.983 161.970,127.347 161.200 C 128.729 158.281,133.623 150.472,134.925 149.110 C 135.192 148.829,136.039 147.790,136.806 146.800 C 140.714 141.755,145.405 137.182,150.600 133.353 C 151.920 132.380,153.513 131.182,154.140 130.692 C 154.766 130.201,155.757 129.530,156.340 129.200 C 156.923 128.870,158.300 128.065,159.400 127.412 C 162.081 125.819,166.498 123.615,167.025 123.607 C 167.259 123.603,168.383 123.150,169.523 122.600 C 170.663 122.050,171.831 121.600,172.118 121.600 C 172.405 121.600,172.811 121.442,173.020 121.249 C 173.391 120.907,175.775 120.122,179.000 119.281 C 179.880 119.051,181.410 118.648,182.400 118.384 C 185.806 117.478,191.419 117.069,200.200 117.088 C 211.196 117.112,214.220 117.443,222.400 119.518 C 224.587 120.073,228.804 121.616,230.975 122.655 C 232.061 123.175,233.113 123.600,233.312 123.600 C 233.915 123.600,240.190 126.853,240.333 127.240 C 240.407 127.438,240.697 127.600,240.978 127.600 C 241.450 127.600,247.089 131.396,251.086 134.403 C 254.476 136.954,262.089 144.758,263.765 147.400 C 264.183 148.060,264.737 148.727,264.995 148.882 C 265.253 149.037,266.157 150.297,267.005 151.682 C 267.852 153.067,268.662 154.290,268.803 154.400 C 268.945 154.510,269.407 155.230,269.830 156.000 C 270.254 156.770,270.704 157.490,270.832 157.600 C 271.332 158.031,275.014 165.936,276.514 169.800 C 278.952 176.079,279.725 179.306,281.014 188.600 C 282.205 197.192,281.328 211.910,279.230 218.527 C 278.799 219.887,278.136 222.080,277.758 223.400 C 276.789 226.786,275.219 230.196,274.392 230.712 C 273.691 231.150,268.363 229.659,267.420 228.762 C 267.211 228.563,266.648 228.400,266.170 228.400 C 265.691 228.400,264.282 227.950,263.038 227.400 C 261.795 226.850,260.433 226.400,260.012 226.400 C 259.592 226.400,258.000 225.950,256.475 225.400 C 254.951 224.850,253.399 224.400,253.027 224.400 C 252.655 224.400,251.417 223.970,250.275 223.444 C 249.134 222.918,247.750 222.396,247.200 222.285 C 246.052 222.051,243.724 221.254,242.705 220.746 C 242.323 220.556,241.720 220.400,241.365 220.400 C 240.599 220.400,231.179 217.254,230.600 216.805 C 230.071 216.395,227.200 216.083,227.200 216.436 C 227.200 216.882,295.031 284.800,295.476 284.800 C 296.171 284.800,302.536 277.297,304.513 274.148 C 305.083 273.239,306.011 271.998,306.575 271.389 C 307.139 270.781,307.600 270.083,307.600 269.838 C 307.600 269.592,308.005 268.944,308.500 268.396 C 308.995 267.848,309.716 266.770,310.103 266.000 C 310.489 265.230,311.534 263.340,312.425 261.800 C 313.316 260.260,314.254 258.505,314.510 257.900 C 314.766 257.295,315.096 256.800,315.244 256.800 C 315.392 256.800,315.636 256.305,315.786 255.700 C 315.936 255.095,316.855 252.947,317.829 250.927 C 318.803 248.906,319.600 247.050,319.600 246.801 C 319.600 246.552,320.045 245.375,320.590 244.185 C 321.134 242.995,321.694 241.565,321.834 241.007 C 321.974 240.449,322.249 239.894,322.444 239.773 C 322.640 239.652,322.800 239.124,322.800 238.600 C 322.800 238.076,322.961 237.548,323.158 237.426 C 323.355 237.305,323.604 236.529,323.712 235.703 C 323.819 234.876,324.202 233.210,324.562 232.000 C 324.923 230.790,325.503 228.540,325.852 227.000 C 326.202 225.460,326.651 223.480,326.851 222.600 C 327.223 220.959,327.587 218.161,328.387 210.800 C 328.638 208.490,329.034 205.160,329.268 203.400 C 329.749 199.777,329.570 195.514,328.599 187.400 C 328.230 184.320,327.786 180.360,327.612 178.600 C 327.310 175.542,326.188 170.080,324.983 165.800 C 324.673 164.700,324.209 162.900,323.951 161.800 C 323.692 160.700,323.253 159.260,322.974 158.600 C 322.464 157.392,320.149 150.888,319.699 149.400 C 319.566 148.960,318.950 147.737,318.329 146.682 C 317.708 145.628,317.200 144.532,317.200 144.248 C 317.200 143.810,316.075 141.509,312.091 133.800 C 311.750 133.140,310.988 131.880,310.399 131.000 C 309.809 130.120,308.447 128.050,307.372 126.400 C 306.297 124.750,305.195 123.130,304.922 122.800 C 304.650 122.470,304.016 121.627,303.513 120.927 C 301.573 118.223,299.136 115.166,297.607 113.519 C 296.730 112.573,295.251 110.900,294.321 109.800 C 293.391 108.700,290.775 106.090,288.508 104.000 C 286.240 101.910,283.946 99.795,283.410 99.300 C 282.874 98.805,282.326 98.400,282.192 98.400 C 282.058 98.400,281.465 97.939,280.874 97.375 C 279.403 95.970,274.292 92.245,272.045 90.939 C 271.030 90.350,269.480 89.304,268.600 88.617 C 267.720 87.929,266.460 87.108,265.800 86.792 C 265.140 86.476,263.880 85.772,263.000 85.227 C 261.030 84.006,255.294 81.183,251.915 79.773 C 250.532 79.195,248.262 78.200,246.872 77.561 C 245.482 76.923,244.092 76.400,243.783 76.400 C 243.475 76.400,242.205 75.950,240.962 75.400 C 239.718 74.850,238.418 74.400,238.074 74.400 C 237.729 74.400,235.997 73.965,234.224 73.434 C 232.451 72.902,230.010 72.252,228.800 71.990 C 227.590 71.727,225.880 71.348,225.000 71.148 C 224.120 70.949,221.870 70.619,220.000 70.416 C 218.130 70.212,215.250 69.865,213.600 69.645 C 204.117 68.376,199.168 68.186,193.000 68.853 " stroke="none" fill="#1fb9de" fill-rule="evenodd"></path><path id="path1" d="M197.700 67.896 C 198.965 67.975,201.035 67.975,202.300 67.896 C 203.565 67.816,202.530 67.751,200.000 67.751 C 197.470 67.751,196.435 67.816,197.700 67.896 M186.357 68.176 C 186.260 68.273,184.745 68.542,182.990 68.774 C 174.527 69.892,168.281 71.149,167.617 71.868 C 167.357 72.148,168.557 71.950,173.600 70.877 C 177.451 70.058,184.135 69.037,189.600 68.434 L 192.600 68.103 189.567 68.052 C 187.898 68.023,186.454 68.079,186.357 68.176 M213.200 68.796 C 216.390 69.214,220.260 69.722,221.800 69.924 C 223.340 70.126,226.181 70.689,228.113 71.175 C 230.045 71.661,231.832 71.989,232.085 71.905 C 232.844 71.652,226.444 70.031,222.800 69.554 C 220.930 69.309,218.410 68.951,217.200 68.757 C 215.990 68.564,213.290 68.323,211.200 68.221 C 207.571 68.044,207.661 68.070,213.200 68.796 M165.000 72.400 C 164.864 72.620,164.334 72.800,163.822 72.800 C 163.311 72.800,162.286 73.063,161.546 73.384 C 159.330 74.346,161.460 74.092,164.600 73.020 C 166.523 72.363,167.063 72.054,166.324 72.032 C 165.732 72.014,165.136 72.180,165.000 72.400 M235.400 73.007 C 238.325 74.005,240.926 74.378,238.400 73.437 C 235.770 72.456,234.143 72.000,233.372 72.025 C 232.947 72.039,233.860 72.481,235.400 73.007 M156.000 75.093 C 154.570 75.651,152.590 76.461,151.600 76.893 C 149.808 77.674,148.555 78.216,145.700 79.446 C 140.785 81.562,132.665 86.106,128.000 89.349 C 127.010 90.037,125.912 90.780,125.560 91.000 C 124.964 91.372,121.906 93.586,121.000 94.302 C 118.396 96.357,115.437 98.825,113.874 100.243 C 112.815 101.204,111.645 102.224,111.274 102.509 C 109.302 104.024,100.988 113.115,96.741 118.400 C 89.794 127.046,80.267 144.344,77.794 152.800 C 77.634 153.350,77.374 153.980,77.217 154.200 C 77.060 154.420,76.617 155.680,76.234 157.000 C 75.850 158.320,75.391 159.850,75.214 160.400 C 74.201 163.550,73.897 164.830,74.109 165.042 C 74.240 165.173,74.547 164.498,74.790 163.540 C 75.034 162.583,75.392 161.440,75.587 161.000 C 75.781 160.560,76.022 159.750,76.122 159.200 C 76.222 158.650,76.976 156.400,77.797 154.200 C 78.619 152.000,79.551 149.493,79.868 148.630 C 87.600 127.573,106.149 104.992,128.150 89.849 C 130.554 88.195,140.986 82.000,141.368 82.000 C 141.446 82.000,143.195 81.209,145.255 80.243 C 150.342 77.856,153.689 76.470,156.895 75.423 C 158.377 74.939,159.712 74.421,159.862 74.272 C 160.427 73.706,158.503 74.115,156.000 75.093 M240.111 74.244 C 240.245 74.378,242.101 75.089,244.235 75.822 C 246.370 76.556,248.306 77.346,248.538 77.578 C 248.770 77.810,249.207 78.000,249.509 78.000 C 251.989 78.000,274.288 90.631,277.528 93.871 C 277.819 94.162,278.190 94.400,278.353 94.400 C 278.516 94.400,278.999 94.715,279.427 95.100 C 279.854 95.485,281.373 96.788,282.802 97.995 C 286.920 101.474,288.368 102.798,291.585 106.025 C 296.012 110.467,300.493 115.470,302.490 118.200 C 305.240 121.960,310.000 128.809,310.000 129.006 C 310.000 129.162,311.603 131.852,313.102 134.210 C 313.379 134.644,314.790 137.430,316.238 140.400 C 317.687 143.370,319.126 146.278,319.436 146.862 C 319.746 147.446,320.000 148.116,320.000 148.351 C 320.000 148.586,320.428 149.728,320.951 150.889 C 321.474 152.050,322.182 153.900,322.525 155.000 C 322.868 156.100,323.328 157.540,323.546 158.200 C 324.311 160.508,325.959 166.209,326.148 167.200 C 326.253 167.750,326.636 169.460,326.999 171.000 C 327.679 173.888,327.975 175.844,329.025 184.400 C 330.635 197.516,330.062 209.606,327.141 224.200 C 325.538 232.213,324.898 234.770,324.345 235.380 C 324.155 235.589,324.000 236.125,324.000 236.570 C 324.000 237.016,323.524 238.645,322.942 240.190 C 322.361 241.736,321.456 244.170,320.932 245.600 C 320.408 247.030,319.726 248.740,319.416 249.400 C 317.836 252.760,316.800 255.101,316.800 255.308 C 316.800 255.494,313.113 262.073,310.370 266.779 C 308.018 270.816,300.009 281.445,296.987 284.541 L 295.483 286.081 259.941 250.541 C 240.394 230.995,224.400 214.866,224.400 214.701 C 224.400 214.195,225.558 214.362,227.526 215.152 C 228.557 215.566,232.370 216.855,236.000 218.018 C 239.630 219.180,245.210 220.972,248.400 221.998 C 251.590 223.025,257.980 225.079,262.600 226.563 C 267.220 228.047,271.378 229.443,271.840 229.666 C 273.506 230.470,274.490 229.941,275.316 227.800 C 275.740 226.700,276.322 225.260,276.608 224.600 C 276.895 223.940,277.311 222.680,277.533 221.800 C 277.755 220.920,278.210 219.120,278.544 217.800 C 279.640 213.475,279.932 211.859,280.457 207.200 C 281.024 202.171,281.055 193.361,280.517 190.200 C 280.279 188.804,280.164 191.101,280.138 197.800 C 280.106 205.731,279.957 208.130,279.280 211.600 C 278.186 217.204,276.830 222.725,276.184 224.200 C 275.896 224.860,275.349 226.120,274.971 227.000 C 273.965 229.335,273.372 229.506,270.000 228.431 C 269.450 228.256,267.920 227.784,266.600 227.383 C 265.280 226.982,264.020 226.527,263.800 226.373 C 263.580 226.219,262.770 225.961,262.000 225.800 C 261.230 225.639,260.420 225.381,260.200 225.226 C 259.980 225.071,259.080 224.742,258.200 224.495 C 255.327 223.689,235.048 217.186,233.000 216.414 C 232.560 216.248,231.120 215.784,229.800 215.383 C 228.480 214.982,227.220 214.531,227.000 214.382 C 225.435 213.319,223.196 213.898,223.978 215.164 C 224.533 216.062,294.149 285.642,294.900 286.049 C 295.596 286.426,297.188 285.901,297.211 285.286 C 297.217 285.129,298.095 284.054,299.164 282.898 C 300.232 281.742,301.892 279.762,302.852 278.498 C 303.812 277.234,304.694 276.110,304.811 276.000 C 305.931 274.946,315.200 260.120,315.200 259.381 C 315.200 259.324,315.815 258.189,316.566 256.860 C 317.318 255.530,318.062 254.028,318.221 253.521 C 318.380 253.015,319.041 251.430,319.690 250.000 C 320.339 248.570,321.108 246.860,321.400 246.200 C 322.413 243.905,324.086 238.612,326.648 229.600 C 327.180 227.730,327.873 224.490,328.189 222.400 C 328.504 220.310,329.041 216.890,329.382 214.800 C 330.676 206.859,330.606 192.217,329.224 181.600 C 329.038 180.170,328.679 177.405,328.426 175.455 C 328.173 173.505,327.688 170.895,327.348 169.655 C 327.008 168.415,326.562 166.680,326.356 165.800 C 326.150 164.920,325.824 163.750,325.631 163.200 C 325.439 162.650,324.976 161.120,324.602 159.800 C 321.751 149.750,316.881 139.140,310.095 128.200 C 308.153 125.070,304.232 119.387,303.608 118.800 C 303.491 118.690,302.865 117.880,302.217 117.000 C 299.862 113.804,290.522 103.841,287.800 101.622 C 287.140 101.083,285.328 99.553,283.774 98.222 C 279.525 94.580,278.959 94.122,277.731 93.329 C 277.109 92.928,276.196 92.254,275.703 91.830 C 275.209 91.407,274.189 90.687,273.435 90.230 C 272.682 89.774,271.105 88.758,269.933 87.974 C 265.517 85.021,258.972 81.465,253.600 79.099 C 252.390 78.566,250.500 77.720,249.400 77.217 C 245.220 75.309,239.272 73.405,240.111 74.244 M192.000 117.650 C 186.742 118.234,176.707 120.354,174.215 121.408 C 173.547 121.690,171.740 122.421,170.200 123.032 C 158.740 127.576,147.528 135.350,140.186 143.841 C 138.874 145.358,137.694 146.690,137.565 146.800 C 136.604 147.619,131.735 154.748,129.506 158.600 C 127.774 161.592,123.988 170.102,124.015 170.942 C 124.031 171.458,124.775 169.926,127.191 164.400 C 128.105 162.310,129.266 159.970,129.770 159.200 C 130.274 158.430,131.207 156.970,131.843 155.955 C 136.781 148.076,141.089 143.019,147.800 137.222 C 154.121 131.763,161.704 127.166,170.800 123.282 C 173.119 122.291,178.577 120.667,182.400 119.830 C 184.050 119.468,186.210 118.954,187.200 118.686 C 190.108 117.901,210.244 118.042,213.800 118.873 C 215.340 119.232,217.885 119.806,219.455 120.148 C 222.121 120.729,226.227 121.973,228.300 122.829 C 228.795 123.033,229.605 123.366,230.100 123.569 C 244.996 129.668,258.317 140.552,266.550 153.348 C 270.622 159.677,271.164 160.635,272.577 164.000 C 273.362 165.870,274.291 167.907,274.641 168.528 C 274.991 169.148,275.720 171.038,276.259 172.728 C 277.215 175.720,277.722 177.795,279.206 184.800 C 279.741 187.324,279.936 187.815,279.963 186.706 C 279.983 185.884,279.825 184.444,279.610 183.506 C 278.304 177.785,276.998 172.813,276.483 171.600 C 275.441 169.143,275.239 168.644,274.382 166.400 C 273.298 163.564,270.407 158.162,268.067 154.600 C 267.055 153.060,266.041 151.507,265.813 151.148 C 259.447 141.109,244.429 128.859,232.600 124.057 C 230.840 123.342,229.040 122.593,228.600 122.393 C 220.579 118.732,202.894 116.441,192.000 117.650 M73.462 166.600 C 72.619 169.996,72.332 171.369,71.599 175.527 C 71.159 178.016,70.819 180.806,70.843 181.727 C 70.872 182.868,71.068 182.193,71.460 179.600 C 72.146 175.057,73.068 170.338,73.657 168.366 C 73.892 167.578,74.011 166.588,73.922 166.166 C 73.798 165.577,73.692 165.676,73.462 166.600 M123.312 172.514 C 123.082 173.019,122.414 175.495,121.827 178.016 C 121.240 180.537,120.598 183.230,120.400 184.000 C 118.630 190.876,119.276 209.717,121.566 218.000 C 121.839 218.990,122.243 220.520,122.462 221.400 C 122.681 222.280,123.117 223.510,123.430 224.132 C 123.744 224.755,124.000 225.487,124.000 225.758 C 124.000 226.029,124.450 227.183,125.000 228.323 C 125.550 229.463,126.000 230.568,126.000 230.779 C 126.000 231.384,129.842 238.550,132.123 242.200 C 135.626 247.806,145.174 258.437,149.200 261.213 C 149.970 261.744,150.952 262.501,151.382 262.895 C 155.384 266.565,172.110 275.200,175.216 275.200 C 175.621 275.200,176.052 275.360,176.173 275.556 C 176.294 275.751,176.979 276.007,177.696 276.123 C 178.413 276.240,180.080 276.636,181.400 277.005 C 183.774 277.667,184.986 277.883,191.587 278.821 C 198.275 279.771,211.740 278.867,218.600 277.007 C 219.920 276.649,221.630 276.206,222.400 276.023 C 230.109 274.188,240.593 268.980,248.177 263.218 C 250.390 261.537,252.547 260.028,252.971 259.866 C 253.611 259.621,259.747 265.607,289.171 295.186 C 308.794 314.912,324.298 330.801,323.924 330.800 C 323.552 330.800,323.136 330.620,323.000 330.400 C 322.864 330.180,322.448 329.998,322.076 329.996 C 321.704 329.994,320.500 329.550,319.400 329.009 C 318.300 328.468,317.090 328.019,316.711 328.013 C 316.332 328.006,315.072 327.566,313.911 327.037 C 312.750 326.507,309.910 325.327,307.600 324.416 C 305.290 323.505,303.040 322.600,302.600 322.406 C 302.160 322.211,298.740 320.858,295.000 319.398 C 291.260 317.938,287.887 316.576,287.505 316.372 C 287.123 316.167,286.641 316.000,286.433 316.000 C 286.226 316.000,284.918 315.487,283.528 314.860 C 282.138 314.234,280.370 313.485,279.600 313.196 C 278.830 312.908,278.029 312.521,277.820 312.336 C 277.611 312.151,277.122 312.000,276.734 312.000 C 276.024 312.000,275.361 311.746,271.083 309.831 L 268.767 308.795 266.483 310.061 C 265.227 310.757,263.885 311.478,263.500 311.663 C 263.115 311.849,262.395 312.212,261.900 312.470 C 254.560 316.305,252.622 317.193,244.600 320.396 C 243.296 320.917,240.366 321.860,237.800 322.585 C 236.480 322.959,234.950 323.418,234.400 323.605 C 232.854 324.134,226.031 325.692,223.800 326.026 C 222.700 326.191,219.370 326.703,216.400 327.162 C 201.494 329.469,181.872 328.012,164.800 323.330 C 155.911 320.893,144.294 316.216,139.308 313.068 C 138.377 312.481,137.440 312.000,137.226 312.000 C 136.759 312.000,128.859 307.094,125.200 304.532 C 112.411 295.576,96.707 278.910,89.629 266.779 C 83.142 255.661,81.056 251.250,77.194 240.487 C 76.698 239.105,76.211 238.055,76.112 238.155 C 75.836 238.430,78.683 246.654,80.073 249.600 C 82.812 255.403,85.276 260.309,86.400 262.200 C 87.054 263.300,87.717 264.470,87.874 264.800 C 88.344 265.792,92.851 272.897,93.964 274.400 C 94.534 275.169,95.129 275.979,95.288 276.200 C 99.744 282.404,111.131 294.205,117.637 299.363 C 118.167 299.783,119.236 300.683,120.013 301.363 C 120.790 302.043,121.870 302.913,122.413 303.295 C 122.956 303.677,124.210 304.566,125.200 305.271 C 128.226 307.423,134.015 310.985,137.663 312.940 C 142.950 315.772,143.243 315.919,145.600 316.939 C 146.810 317.462,149.090 318.455,150.667 319.145 C 152.244 319.835,153.783 320.400,154.087 320.400 C 154.391 320.400,154.811 320.553,155.020 320.740 C 156.076 321.685,169.497 325.332,176.600 326.604 C 178.580 326.959,180.974 327.420,181.920 327.628 C 187.937 328.956,211.281 328.945,217.855 327.612 C 218.925 327.395,221.420 326.933,223.400 326.584 C 231.559 325.146,243.531 321.736,248.673 319.384 C 249.856 318.843,250.896 318.400,250.984 318.400 C 251.170 318.400,256.310 316.120,257.200 315.643 C 258.182 315.117,265.718 311.106,266.800 310.534 C 268.141 309.825,269.772 309.864,271.540 310.647 C 275.006 312.184,275.539 312.400,275.873 312.400 C 276.193 312.400,281.257 314.449,284.200 315.770 C 284.860 316.066,286.120 316.545,287.000 316.836 C 287.880 317.126,288.771 317.507,288.980 317.682 C 289.189 317.857,289.595 318.000,289.882 318.000 C 290.169 318.000,291.337 318.450,292.477 319.000 C 293.617 319.550,294.741 320.001,294.975 320.002 C 295.209 320.004,295.858 320.244,296.418 320.536 C 296.977 320.828,298.777 321.571,300.418 322.187 C 302.058 322.804,303.571 323.463,303.780 323.654 C 303.989 323.844,304.439 324.001,304.780 324.002 C 305.121 324.004,305.878 324.254,306.461 324.559 C 307.045 324.863,308.215 325.335,309.061 325.607 C 309.908 325.878,311.328 326.426,312.217 326.823 C 313.727 327.497,316.651 328.651,321.394 330.445 C 323.621 331.288,324.635 331.390,324.995 330.808 C 325.341 330.248,254.210 259.200,253.304 259.200 C 252.902 259.200,250.930 260.447,248.923 261.970 C 242.842 266.587,235.298 270.889,229.600 272.989 C 227.950 273.597,226.240 274.235,225.800 274.407 C 224.995 274.722,221.402 275.738,218.800 276.387 C 218.030 276.579,216.656 276.932,215.746 277.171 C 208.886 278.970,191.278 279.002,184.454 277.226 C 183.654 277.018,181.830 276.552,180.400 276.190 C 171.842 274.026,162.701 269.976,155.874 265.326 C 151.011 262.014,148.639 260.116,143.217 255.200 C 142.853 254.870,141.500 253.340,140.211 251.800 C 138.922 250.260,137.745 248.910,137.597 248.800 C 136.923 248.300,131.927 241.042,130.940 239.131 C 130.336 237.959,129.728 236.910,129.591 236.800 C 128.857 236.212,123.675 224.204,123.203 222.000 C 123.038 221.230,122.305 218.170,121.574 215.200 L 120.244 209.800 120.222 198.600 C 120.201 187.757,120.236 187.241,121.318 182.400 C 122.568 176.810,123.102 174.721,123.700 173.087 C 124.202 171.716,123.887 171.251,123.312 172.514 M70.304 185.000 C 70.142 185.880,70.030 187.770,70.055 189.200 L 70.101 191.800 70.464 189.000 C 70.664 187.460,70.776 185.570,70.714 184.800 L 70.600 183.400 70.304 185.000 M69.849 201.516 C 69.925 206.640,70.177 212.040,70.410 213.516 C 70.644 214.992,71.020 217.370,71.247 218.800 C 72.289 225.360,74.332 233.949,75.529 236.800 L 75.949 237.800 75.975 236.724 C 75.989 236.132,75.849 235.554,75.664 235.439 C 75.218 235.164,73.880 229.929,72.638 223.600 C 71.149 216.018,70.083 205.819,69.838 196.800 C 69.769 194.270,69.774 196.392,69.849 201.516 " stroke="none" fill="#9ae6f5" fill-rule="evenodd"></path><path id="path2" d="M187.830 68.630 C 185.207 68.915,182.634 69.255,182.113 69.386 C 181.591 69.517,179.785 69.799,178.098 70.013 C 174.500 70.469,169.052 71.704,164.718 73.046 C 163.023 73.571,161.356 74.000,161.013 74.000 C 160.670 74.000,160.077 74.170,159.695 74.379 C 159.313 74.587,157.848 75.136,156.440 75.599 C 153.336 76.619,150.220 77.913,145.255 80.243 C 143.195 81.209,141.446 82.000,141.368 82.000 C 139.573 82.000,122.930 93.186,115.810 99.179 C 101.019 111.626,85.733 132.657,79.868 148.630 C 79.551 149.493,78.619 152.000,77.797 154.200 C 76.976 156.400,76.222 158.650,76.122 159.200 C 76.022 159.750,75.789 160.560,75.606 161.000 C 74.943 162.587,74.000 165.968,74.000 166.756 C 74.000 167.200,73.837 167.976,73.638 168.481 C 72.797 170.620,71.330 180.004,70.414 189.114 C 69.340 199.789,70.565 214.863,73.589 228.200 C 74.544 232.407,75.358 235.251,75.664 235.439 C 75.849 235.554,76.000 236.037,76.000 236.514 C 76.000 236.990,76.440 238.555,76.978 239.990 C 77.516 241.426,78.521 244.117,79.210 245.971 C 81.378 251.797,84.346 257.725,89.629 266.779 C 96.707 278.910,112.411 295.576,125.200 304.532 C 128.859 307.094,136.759 312.000,137.226 312.000 C 137.440 312.000,138.377 312.481,139.308 313.068 C 140.239 313.656,142.620 314.895,144.600 315.823 C 157.131 321.691,168.366 324.963,184.282 327.380 C 190.817 328.373,209.394 328.247,216.400 327.162 C 219.370 326.703,222.700 326.191,223.800 326.026 C 226.031 325.692,232.854 324.134,234.400 323.605 C 234.950 323.418,236.480 322.959,237.800 322.585 C 240.366 321.860,243.296 320.917,244.600 320.396 C 252.622 317.193,254.560 316.305,261.900 312.470 C 262.395 312.212,263.115 311.849,263.500 311.663 C 263.885 311.478,265.227 310.757,266.483 310.061 L 268.767 308.795 271.083 309.831 C 275.361 311.746,276.024 312.000,276.734 312.000 C 277.122 312.000,277.611 312.151,277.820 312.336 C 278.029 312.521,278.830 312.908,279.600 313.196 C 280.370 313.485,282.138 314.234,283.528 314.860 C 284.918 315.487,286.226 316.000,286.433 316.000 C 286.641 316.000,287.123 316.167,287.505 316.372 C 287.887 316.576,291.260 317.938,295.000 319.398 C 298.740 320.858,302.160 322.211,302.600 322.406 C 303.040 322.600,305.290 323.505,307.600 324.416 C 309.910 325.327,312.750 326.507,313.911 327.037 C 315.072 327.566,316.332 328.006,316.711 328.013 C 317.090 328.019,318.300 328.468,319.400 329.009 C 320.500 329.550,321.704 329.994,322.076 329.996 C 322.448 329.998,322.864 330.180,323.000 330.400 C 323.136 330.620,323.552 330.800,323.924 330.800 C 324.298 330.801,308.794 314.912,289.171 295.186 C 259.747 265.607,253.611 259.621,252.971 259.866 C 252.547 260.028,250.390 261.537,248.177 263.218 C 240.593 268.980,230.109 274.188,222.400 276.023 C 221.630 276.206,219.920 276.649,218.600 277.007 C 211.740 278.867,198.275 279.771,191.587 278.821 C 184.986 277.883,183.774 277.667,181.400 277.005 C 180.080 276.636,178.413 276.240,177.696 276.123 C 176.979 276.007,176.294 275.751,176.173 275.556 C 176.052 275.360,175.621 275.200,175.216 275.200 C 172.110 275.200,155.384 266.565,151.382 262.895 C 150.952 262.501,149.970 261.744,149.200 261.213 C 145.174 258.437,135.626 247.806,132.123 242.200 C 129.842 238.550,126.000 231.384,126.000 230.779 C 126.000 230.568,125.550 229.463,125.000 228.323 C 124.450 227.183,124.000 226.029,124.000 225.758 C 124.000 225.487,123.744 224.755,123.430 224.132 C 123.117 223.510,122.681 222.280,122.462 221.400 C 122.243 220.520,121.839 218.990,121.566 218.000 C 119.276 209.717,118.630 190.876,120.400 184.000 C 120.598 183.230,121.240 180.537,121.827 178.015 C 122.414 175.493,123.127 172.883,123.411 172.215 C 123.695 171.547,124.615 169.290,125.456 167.200 C 128.228 160.313,134.902 149.069,137.565 146.800 C 137.694 146.690,138.874 145.358,140.186 143.841 C 147.528 135.350,158.740 127.576,170.200 123.032 C 171.740 122.421,173.547 121.690,174.215 121.408 C 175.431 120.894,182.263 119.236,186.400 118.451 C 199.139 116.034,218.662 117.857,228.600 122.393 C 229.040 122.593,230.840 123.342,232.600 124.057 C 244.429 128.859,259.447 141.109,265.813 151.148 C 266.041 151.507,267.055 153.060,268.067 154.600 C 270.407 158.162,273.298 163.564,274.382 166.400 C 275.239 168.644,275.441 169.143,276.483 171.600 C 278.699 176.821,281.013 190.535,280.973 198.200 C 280.936 205.060,280.136 211.517,278.544 217.800 C 278.210 219.120,277.755 220.920,277.533 221.800 C 277.311 222.680,276.895 223.940,276.608 224.600 C 276.322 225.260,275.740 226.700,275.316 227.800 C 274.490 229.941,273.506 230.470,271.840 229.666 C 271.378 229.443,267.220 228.047,262.600 226.563 C 257.980 225.079,251.590 223.025,248.400 221.998 C 245.210 220.972,239.630 219.180,236.000 218.018 C 232.370 216.855,228.557 215.566,227.526 215.152 C 225.558 214.362,224.400 214.195,224.400 214.701 C 224.400 214.866,240.394 230.995,259.941 250.541 L 295.483 286.081 296.987 284.541 C 300.009 281.445,308.018 270.816,310.370 266.779 C 313.113 262.073,316.800 255.494,316.800 255.308 C 316.800 255.101,317.836 252.760,319.416 249.400 C 319.726 248.740,320.408 247.030,320.932 245.600 C 321.456 244.170,322.361 241.736,322.942 240.190 C 323.524 238.645,324.000 237.016,324.000 236.570 C 324.000 236.125,324.155 235.589,324.345 235.380 C 324.898 234.770,325.538 232.213,327.141 224.200 C 330.062 209.606,330.635 197.516,329.025 184.400 C 327.975 175.844,327.679 173.888,326.999 171.000 C 326.636 169.460,326.253 167.750,326.148 167.200 C 325.959 166.209,324.311 160.508,323.546 158.200 C 323.328 157.540,322.868 156.100,322.525 155.000 C 322.182 153.900,321.474 152.050,320.951 150.889 C 320.428 149.728,320.000 148.586,320.000 148.351 C 320.000 148.116,319.746 147.446,319.436 146.862 C 319.126 146.278,317.687 143.370,316.238 140.400 C 314.790 137.430,313.379 134.644,313.102 134.210 C 311.603 131.852,310.000 129.162,310.000 129.006 C 310.000 128.809,305.240 121.960,302.490 118.200 C 300.493 115.470,296.012 110.467,291.585 106.025 C 288.368 102.798,286.920 101.474,282.802 97.995 C 281.373 96.788,279.854 95.485,279.427 95.100 C 278.999 94.715,278.516 94.400,278.353 94.400 C 278.190 94.400,277.819 94.162,277.528 93.871 C 274.378 90.721,252.005 78.000,249.615 78.000 C 249.371 78.000,248.773 77.749,248.286 77.443 C 247.799 77.136,245.960 76.405,244.200 75.817 C 242.440 75.229,240.687 74.580,240.305 74.374 C 239.923 74.168,239.350 74.000,239.030 74.000 C 238.711 74.000,237.043 73.568,235.325 73.041 C 231.182 71.769,225.173 70.368,222.200 69.980 C 205.864 67.850,197.890 67.537,187.830 68.630 M206.486 68.822 C 208.749 69.053,211.950 69.424,213.600 69.645 C 215.250 69.865,218.130 70.212,220.000 70.416 C 221.870 70.619,224.120 70.949,225.000 71.148 C 225.880 71.348,227.590 71.727,228.800 71.990 C 230.010 72.252,232.451 72.902,234.224 73.434 C 235.997 73.965,237.729 74.400,238.074 74.400 C 238.418 74.400,239.718 74.850,240.962 75.400 C 242.205 75.950,243.475 76.400,243.783 76.400 C 244.092 76.400,245.482 76.923,246.872 77.561 C 248.262 78.200,250.532 79.195,251.915 79.773 C 255.294 81.183,261.030 84.006,263.000 85.227 C 263.880 85.772,265.140 86.476,265.800 86.792 C 266.460 87.108,267.720 87.929,268.600 88.617 C 269.480 89.304,271.030 90.350,272.045 90.939 C 274.292 92.245,279.403 95.970,280.874 97.375 C 281.465 97.939,282.058 98.400,282.192 98.400 C 282.326 98.400,282.874 98.805,283.410 99.300 C 283.946 99.795,286.240 101.910,288.508 104.000 C 290.775 106.090,293.391 108.700,294.321 109.800 C 295.251 110.900,296.730 112.573,297.607 113.519 C 299.136 115.166,301.573 118.223,303.513 120.927 C 304.016 121.627,304.650 122.470,304.922 122.800 C 305.195 123.130,306.297 124.750,307.372 126.400 C 308.447 128.050,309.809 130.120,310.399 131.000 C 310.988 131.880,311.750 133.140,312.091 133.800 C 316.075 141.509,317.200 143.810,317.200 144.248 C 317.200 144.532,317.708 145.628,318.329 146.682 C 318.950 147.737,319.566 148.960,319.699 149.400 C 320.149 150.888,322.464 157.392,322.974 158.600 C 323.253 159.260,323.692 160.700,323.951 161.800 C 324.209 162.900,324.673 164.700,324.983 165.800 C 326.188 170.080,327.310 175.542,327.612 178.600 C 327.786 180.360,328.230 184.320,328.599 187.400 C 329.570 195.514,329.749 199.777,329.268 203.400 C 329.034 205.160,328.638 208.490,328.387 210.800 C 327.587 218.161,327.223 220.959,326.851 222.600 C 326.651 223.480,326.202 225.460,325.852 227.000 C 325.503 228.540,324.923 230.790,324.562 232.000 C 324.202 233.210,323.819 234.876,323.712 235.703 C 323.604 236.529,323.355 237.305,323.158 237.426 C 322.961 237.548,322.800 238.076,322.800 238.600 C 322.800 239.124,322.640 239.652,322.444 239.773 C 322.249 239.894,321.974 240.449,321.834 241.007 C 321.694 241.565,321.134 242.995,320.590 244.185 C 320.045 245.375,319.600 246.552,319.600 246.801 C 319.600 247.050,318.803 248.906,317.829 250.927 C 316.855 252.947,315.936 255.095,315.786 255.700 C 315.636 256.305,315.392 256.800,315.244 256.800 C 315.096 256.800,314.766 257.295,314.510 257.900 C 314.254 258.505,313.316 260.260,312.425 261.800 C 311.534 263.340,310.489 265.230,310.103 266.000 C 309.716 266.770,308.995 267.848,308.500 268.396 C 308.005 268.944,307.600 269.592,307.600 269.838 C 307.600 270.083,307.139 270.781,306.575 271.389 C 306.011 271.998,305.083 273.239,304.513 274.148 C 302.536 277.297,296.171 284.800,295.476 284.800 C 295.031 284.800,227.200 216.882,227.200 216.436 C 227.200 216.083,230.071 216.395,230.600 216.805 C 231.179 217.254,240.599 220.400,241.365 220.400 C 241.720 220.400,242.323 220.556,242.705 220.746 C 243.724 221.254,246.052 222.051,247.200 222.285 C 247.750 222.396,249.134 222.918,250.275 223.444 C 251.417 223.970,252.655 224.400,253.027 224.400 C 253.399 224.400,254.951 224.850,256.475 225.400 C 258.000 225.950,259.592 226.400,260.012 226.400 C 260.433 226.400,261.795 226.850,263.038 227.400 C 264.282 227.950,265.691 228.400,266.170 228.400 C 266.648 228.400,267.211 228.563,267.420 228.762 C 268.363 229.659,273.691 231.150,274.392 230.712 C 275.219 230.196,276.789 226.786,277.758 223.400 C 278.136 222.080,278.799 219.887,279.230 218.527 C 281.328 211.910,282.205 197.192,281.014 188.600 C 279.725 179.306,278.952 176.079,276.514 169.800 C 275.014 165.936,271.332 158.031,270.832 157.600 C 270.704 157.490,270.254 156.770,269.830 156.000 C 269.407 155.230,268.945 154.510,268.803 154.400 C 268.662 154.290,267.852 153.067,267.005 151.682 C 266.157 150.297,265.253 149.037,264.995 148.882 C 264.737 148.727,264.183 148.060,263.765 147.400 C 262.089 144.758,254.476 136.954,251.086 134.403 C 247.089 131.396,241.450 127.600,240.978 127.600 C 240.697 127.600,240.407 127.438,240.333 127.240 C 240.190 126.853,233.915 123.600,233.312 123.600 C 233.113 123.600,232.061 123.175,230.975 122.655 C 228.804 121.616,224.587 120.073,222.400 119.518 C 214.220 117.443,211.196 117.112,200.200 117.088 C 191.419 117.069,185.806 117.478,182.400 118.384 C 181.410 118.648,179.880 119.051,179.000 119.281 C 175.775 120.122,173.391 120.907,173.020 121.249 C 172.811 121.442,172.405 121.600,172.118 121.600 C 171.831 121.600,170.663 122.050,169.523 122.600 C 168.383 123.150,167.259 123.603,167.025 123.607 C 166.498 123.615,162.081 125.819,159.400 127.412 C 158.300 128.065,156.923 128.870,156.340 129.200 C 155.757 129.530,154.766 130.201,154.140 130.692 C 153.513 131.182,151.920 132.380,150.600 133.353 C 145.405 137.182,140.714 141.755,136.806 146.800 C 136.039 147.790,135.192 148.829,134.925 149.110 C 133.623 150.472,128.729 158.281,127.347 161.200 C 126.983 161.970,125.991 164.060,125.142 165.845 C 124.294 167.630,123.600 169.351,123.600 169.670 C 123.600 169.989,123.269 170.959,122.864 171.825 C 122.460 172.691,121.823 174.660,121.449 176.200 C 121.075 177.740,120.605 179.540,120.403 180.200 C 119.949 181.685,119.249 186.964,118.838 192.000 C 118.389 197.492,119.387 214.684,120.233 216.054 C 120.383 216.296,120.650 217.058,120.827 217.747 C 122.322 223.579,123.753 227.879,124.432 228.580 C 124.634 228.789,124.800 229.199,124.800 229.490 C 124.800 230.088,127.837 236.459,129.428 239.200 C 130.989 241.887,132.940 244.973,133.223 245.200 C 133.360 245.310,133.996 246.128,134.636 247.018 C 138.881 252.918,145.446 259.403,151.687 263.859 C 153.729 265.317,155.760 266.825,156.200 267.209 C 156.640 267.594,158.170 268.503,159.600 269.230 C 161.030 269.957,162.830 270.931,163.600 271.395 C 166.296 273.017,172.626 275.539,175.467 276.123 C 177.044 276.447,178.551 276.846,178.814 277.009 C 179.492 277.428,181.825 278.019,184.400 278.423 C 185.610 278.613,188.310 279.060,190.400 279.415 C 194.506 280.113,206.400 280.016,210.800 279.249 C 212.010 279.038,213.810 278.752,214.800 278.613 C 216.859 278.324,219.173 277.742,221.200 277.004 C 221.970 276.723,223.743 276.282,225.139 276.023 C 229.860 275.148,240.185 269.922,247.000 264.957 C 251.067 261.995,253.369 260.829,254.008 261.407 C 254.368 261.733,254.841 262.000,255.060 262.000 C 255.278 262.000,255.924 262.585,256.495 263.300 C 258.231 265.472,286.757 294.000,287.193 294.000 C 287.417 294.000,287.600 294.144,287.600 294.319 C 287.600 294.495,288.605 295.620,289.834 296.819 C 291.063 298.019,292.638 299.604,293.334 300.342 C 294.030 301.079,296.458 303.509,298.728 305.742 C 300.999 307.974,304.509 311.487,306.528 313.549 C 308.548 315.611,312.585 319.707,315.500 322.652 C 320.518 327.721,321.931 329.521,319.900 328.259 C 319.405 327.952,318.100 327.486,317.000 327.224 C 315.900 326.962,314.401 326.398,313.669 325.969 C 312.937 325.541,312.185 325.286,311.997 325.402 C 311.809 325.518,311.542 325.430,311.404 325.207 C 311.266 324.983,310.812 324.800,310.396 324.800 C 309.980 324.800,309.496 324.566,309.320 324.280 C 309.144 323.994,308.190 323.536,307.200 323.263 C 305.340 322.750,303.366 322.002,300.600 320.764 C 299.720 320.369,298.460 319.918,297.800 319.760 C 297.140 319.602,296.240 319.255,295.800 318.988 C 295.360 318.720,293.200 317.824,291.000 316.995 C 286.637 315.351,285.513 314.894,282.800 313.658 C 280.557 312.635,277.329 311.380,274.200 310.313 C 272.880 309.862,271.620 309.364,271.400 309.205 C 269.774 308.031,267.336 308.012,266.400 309.166 C 266.290 309.302,264.940 310.017,263.400 310.755 C 261.860 311.494,260.140 312.423,259.577 312.821 C 258.330 313.703,253.944 316.000,253.507 316.000 C 253.333 316.000,252.338 316.381,251.296 316.847 C 250.253 317.313,248.500 318.094,247.400 318.583 C 245.447 319.451,241.020 320.888,236.200 322.219 C 234.880 322.584,233.350 323.027,232.800 323.205 C 232.250 323.383,230.450 323.834,228.800 324.208 C 227.150 324.581,225.487 325.048,225.105 325.244 C 224.723 325.440,223.484 325.600,222.352 325.600 C 221.219 325.600,219.642 325.768,218.846 325.973 C 212.022 327.730,193.768 328.047,184.659 326.566 C 181.392 326.035,178.014 325.600,177.154 325.600 C 176.293 325.600,175.277 325.442,174.895 325.249 C 174.513 325.056,171.950 324.337,169.200 323.651 C 161.256 321.671,160.645 321.511,159.800 321.189 C 159.360 321.022,158.100 320.578,157.000 320.204 C 155.900 319.830,154.255 319.189,153.344 318.781 C 152.433 318.372,151.217 317.919,150.640 317.774 C 150.064 317.630,149.494 317.351,149.373 317.156 C 149.252 316.960,148.888 316.800,148.564 316.800 C 147.930 316.800,145.087 315.436,138.351 311.901 C 132.606 308.885,132.248 308.675,131.880 308.100 C 131.704 307.825,131.382 307.600,131.163 307.600 C 130.945 307.600,130.549 307.418,130.283 307.195 C 128.450 305.659,126.423 304.250,125.400 303.800 C 124.740 303.510,123.625 302.716,122.922 302.036 C 122.219 301.356,121.519 300.800,121.366 300.800 C 121.214 300.800,120.338 300.125,119.420 299.300 C 118.502 298.475,116.772 296.998,115.575 296.018 C 113.000 293.909,104.560 285.466,102.000 282.438 C 101.010 281.268,99.704 279.745,99.097 279.055 C 98.490 278.365,97.321 276.810,96.499 275.600 C 95.677 274.390,94.418 272.693,93.702 271.828 C 92.986 270.963,92.400 270.062,92.400 269.824 C 92.400 269.586,91.995 268.944,91.500 268.396 C 91.005 267.848,90.284 266.770,89.898 266.000 C 89.512 265.230,88.653 263.700,87.989 262.600 C 86.882 260.765,84.437 255.840,81.636 249.800 C 81.024 248.480,79.947 245.870,79.243 244.000 C 78.539 242.130,77.814 240.240,77.631 239.800 C 76.581 237.267,76.400 236.660,76.400 235.661 C 76.400 235.056,76.250 234.389,76.067 234.180 C 75.594 233.639,74.762 230.663,74.174 227.400 C 73.896 225.860,73.466 223.880,73.219 223.000 C 72.972 222.120,72.612 220.050,72.420 218.400 C 72.227 216.750,71.740 212.700,71.336 209.400 C 70.460 202.239,70.453 194.263,71.318 187.000 C 72.614 176.105,72.775 174.962,73.202 173.600 C 73.443 172.830,73.889 170.850,74.193 169.200 C 74.497 167.550,75.046 165.210,75.412 164.000 C 75.779 162.790,76.165 161.350,76.270 160.800 C 76.374 160.250,76.621 159.440,76.817 159.000 C 77.013 158.560,77.901 156.130,78.789 153.600 C 80.420 148.958,80.798 148.095,85.003 139.400 C 87.387 134.469,91.314 127.882,94.179 124.008 C 95.071 122.803,96.070 121.428,96.400 120.954 C 98.607 117.784,101.258 114.627,106.950 108.393 C 109.046 106.096,118.663 97.400,120.653 96.000 C 123.144 94.248,129.085 90.146,129.632 89.800 C 129.980 89.580,131.240 88.752,132.432 87.960 C 138.005 84.258,154.263 76.410,156.388 76.396 C 156.725 76.394,157.963 75.944,159.140 75.396 C 160.317 74.848,161.566 74.400,161.916 74.400 C 162.266 74.400,164.003 73.965,165.776 73.434 C 168.735 72.547,169.954 72.249,175.200 71.129 C 176.190 70.918,178.350 70.598,180.000 70.419 C 181.650 70.240,184.530 69.892,186.400 69.646 C 196.281 68.348,200.268 68.185,206.486 68.822 " stroke="none" fill="#67c9e0" fill-rule="evenodd"></path><path id="path3" d="M0.000 200.000 L 0.000 400.000 200.000 400.000 L 400.000 400.000 400.000 200.000 L 400.000 0.000 200.000 0.000 L 0.000 0.000 0.000 200.000 M218.122 67.916 C 218.740 68.181,220.810 68.575,222.722 68.793 C 224.635 69.011,227.100 69.446,228.200 69.761 C 234.044 71.432,240.767 73.287,242.000 73.568 C 242.770 73.744,243.940 74.116,244.600 74.394 C 246.806 75.324,247.395 75.548,248.229 75.779 C 248.686 75.906,249.423 76.349,249.869 76.764 C 250.314 77.179,251.291 77.609,252.039 77.720 C 252.788 77.831,254.300 78.389,255.400 78.959 C 256.500 79.530,257.583 79.997,257.808 79.998 C 258.032 79.999,260.192 81.220,262.608 82.711 C 265.023 84.202,267.752 85.645,268.671 85.918 C 269.589 86.191,270.762 86.915,271.276 87.526 C 271.791 88.137,273.019 89.028,274.006 89.506 C 274.993 89.984,276.083 90.696,276.428 91.087 C 277.178 91.940,281.501 95.397,283.575 96.803 C 284.389 97.355,285.665 98.501,286.410 99.351 C 287.156 100.200,288.494 101.345,289.383 101.896 C 291.067 102.939,296.518 108.543,297.654 110.399 C 298.013 110.986,299.318 112.423,300.554 113.592 C 301.789 114.760,302.800 115.883,302.800 116.086 C 302.800 116.745,305.256 120.047,305.938 120.305 C 306.778 120.622,307.600 121.427,307.600 121.931 C 307.600 122.145,308.230 123.256,309.000 124.400 C 309.770 125.544,310.400 126.712,310.400 126.995 C 310.400 127.279,311.004 128.389,311.743 129.462 C 312.481 130.536,313.625 132.491,314.283 133.807 C 315.657 136.553,317.051 139.048,317.848 140.189 C 318.152 140.623,318.400 141.317,318.400 141.731 C 318.400 142.146,318.850 143.019,319.400 143.673 C 319.950 144.327,320.401 145.163,320.402 145.531 C 320.403 145.899,320.853 147.086,321.402 148.168 C 321.951 149.250,322.400 150.403,322.400 150.729 C 322.400 151.056,322.827 152.240,323.349 153.361 C 323.872 154.483,324.428 156.117,324.585 156.993 C 324.742 157.869,325.215 159.298,325.636 160.168 C 326.056 161.038,326.400 162.157,326.400 162.654 C 326.400 163.152,326.834 164.963,327.365 166.679 C 327.896 168.396,328.519 171.060,328.749 172.600 C 328.980 174.140,329.490 177.470,329.884 180.000 C 330.896 186.501,330.931 212.636,329.934 217.200 C 329.573 218.850,329.069 221.550,328.813 223.200 C 328.263 226.743,327.198 230.754,326.731 231.043 C 326.549 231.155,326.400 231.734,326.400 232.329 C 326.400 232.924,326.022 234.399,325.559 235.606 C 325.097 236.813,324.567 238.663,324.381 239.718 C 323.857 242.691,322.291 246.875,319.561 252.600 C 319.141 253.480,318.798 254.507,318.799 254.882 C 318.800 255.257,318.350 256.014,317.800 256.564 C 317.250 257.114,316.800 257.861,316.800 258.224 C 316.800 258.588,316.305 259.541,315.700 260.342 C 314.484 261.953,313.917 262.906,312.540 265.646 C 312.030 266.661,311.350 267.709,311.030 267.975 C 310.710 268.241,310.555 268.738,310.686 269.079 C 310.824 269.439,310.641 269.857,310.250 270.076 C 309.502 270.494,307.865 272.933,307.447 274.250 C 307.299 274.718,306.238 276.083,305.089 277.284 C 301.517 281.017,298.000 285.365,298.000 286.047 C 298.000 286.936,295.909 287.313,294.638 286.653 C 294.088 286.368,285.754 278.286,276.119 268.692 C 266.484 259.099,258.330 251.000,258.000 250.694 C 257.670 250.388,257.024 249.701,256.565 249.169 C 256.105 248.636,255.295 247.814,254.765 247.343 C 254.234 246.871,250.508 243.136,246.485 239.043 C 242.462 234.949,239.018 231.600,238.831 231.600 C 238.645 231.600,238.217 231.180,237.880 230.666 C 237.543 230.152,236.692 229.207,235.987 228.566 C 235.282 227.925,234.287 226.950,233.776 226.400 C 233.264 225.850,230.576 223.079,227.802 220.242 C 223.622 215.967,222.779 214.905,222.879 214.042 C 223.008 212.927,224.747 212.357,225.724 213.108 C 225.986 213.309,227.550 213.870,229.200 214.354 C 230.850 214.838,232.740 215.428,233.400 215.663 C 235.073 216.261,237.213 216.936,241.400 218.187 C 243.380 218.778,245.990 219.685,247.200 220.203 C 248.410 220.721,249.940 221.260,250.600 221.401 C 251.260 221.542,252.430 221.891,253.200 222.177 C 255.686 223.097,257.440 223.600,258.167 223.600 C 258.557 223.600,259.354 223.859,259.938 224.177 C 263.243 225.971,271.418 228.063,272.902 227.493 C 273.891 227.113,275.960 222.284,276.627 218.800 C 276.984 216.930,277.610 214.398,278.018 213.173 C 279.871 207.605,280.171 190.015,278.491 185.452 C 278.016 184.160,277.411 181.640,277.148 179.852 C 276.885 178.063,276.429 176.114,276.135 175.520 C 275.841 174.926,275.600 173.915,275.600 173.274 C 275.600 172.633,274.799 170.496,273.819 168.525 C 272.840 166.553,271.746 164.079,271.388 163.026 C 271.031 161.973,270.139 160.512,269.406 159.779 C 268.673 159.047,267.952 157.892,267.803 157.214 C 267.654 156.536,267.138 155.490,266.656 154.890 C 266.174 154.291,265.526 153.299,265.216 152.687 C 264.905 152.075,263.521 150.365,262.140 148.887 C 260.759 147.409,259.623 145.997,259.615 145.748 C 259.607 145.500,258.811 144.650,257.846 143.859 C 256.881 143.069,255.978 141.967,255.839 141.411 C 255.699 140.855,255.348 140.400,255.058 140.400 C 254.769 140.400,253.197 139.143,251.566 137.608 C 249.935 136.072,248.431 134.812,248.225 134.808 C 248.019 134.803,246.770 133.951,245.450 132.914 C 243.804 131.621,242.665 131.024,241.825 131.014 C 241.001 131.005,240.638 130.820,240.717 130.450 C 240.856 129.795,239.680 128.400,238.990 128.400 C 238.723 128.400,236.726 127.523,234.552 126.452 C 230.126 124.271,224.310 122.189,220.400 121.386 C 218.970 121.093,216.019 120.389,213.842 119.823 C 210.136 118.858,209.282 118.792,200.418 118.784 C 190.920 118.776,188.902 118.979,184.200 120.416 C 182.880 120.819,180.810 121.271,179.600 121.419 C 178.390 121.568,176.950 121.916,176.400 122.192 C 175.850 122.468,174.050 123.103,172.400 123.604 C 169.272 124.554,166.049 125.965,163.508 127.499 C 162.687 127.995,161.750 128.400,161.425 128.400 C 161.100 128.400,160.331 129.030,159.717 129.800 C 159.103 130.570,158.326 131.200,157.991 131.200 C 157.656 131.200,156.425 131.830,155.256 132.600 C 154.087 133.370,152.987 134.000,152.812 134.000 C 152.520 134.000,146.184 139.567,144.800 141.040 C 144.470 141.391,143.345 142.527,142.300 143.563 C 141.255 144.600,140.400 145.638,140.400 145.870 C 140.400 146.102,139.528 147.177,138.463 148.259 C 137.397 149.342,136.008 151.031,135.376 152.014 C 134.743 152.996,133.830 154.291,133.347 154.890 C 132.863 155.490,132.339 156.570,132.181 157.290 C 132.023 158.011,131.289 159.223,130.550 159.985 C 129.811 160.747,129.006 162.007,128.762 162.785 C 128.518 163.563,127.432 165.949,126.348 168.087 C 124.936 170.874,124.447 172.248,124.621 172.941 C 124.770 173.536,124.561 174.502,124.076 175.454 C 123.643 176.304,122.996 178.710,122.639 180.800 C 122.281 182.890,121.718 185.590,121.387 186.800 C 120.025 191.777,120.665 208.848,122.407 214.021 C 122.830 215.278,123.378 217.632,123.623 219.253 C 124.079 222.261,125.788 227.202,127.465 230.360 C 127.979 231.327,128.400 232.452,128.400 232.860 C 128.400 233.267,128.580 233.600,128.800 233.600 C 129.020 233.600,129.200 233.864,129.200 234.186 C 129.200 234.508,129.515 234.943,129.900 235.151 C 130.285 235.360,131.033 236.671,131.561 238.065 C 132.090 239.459,133.190 241.410,134.006 242.400 C 134.822 243.390,135.775 244.758,136.124 245.441 C 136.473 246.123,137.385 247.230,138.149 247.902 C 138.914 248.573,139.817 249.660,140.157 250.318 C 140.503 250.986,141.310 251.700,141.988 251.936 C 142.794 252.217,143.200 252.627,143.200 253.161 C 143.200 254.174,144.934 255.930,146.638 256.641 C 147.450 256.981,147.991 257.517,148.071 258.060 C 148.231 259.143,157.310 265.780,161.400 267.804 C 162.940 268.566,165.190 269.728,166.400 270.386 C 167.610 271.044,168.902 271.587,169.272 271.591 C 169.642 271.596,171.082 272.113,172.472 272.740 C 176.026 274.341,177.131 274.706,179.315 274.998 C 180.369 275.139,182.239 275.600,183.471 276.024 C 189.005 277.928,212.331 277.827,217.400 275.877 C 218.280 275.538,219.810 275.149,220.800 275.012 C 222.933 274.718,225.947 273.697,228.284 272.478 C 229.210 271.995,230.290 271.597,230.684 271.593 C 231.078 271.590,232.390 271.057,233.600 270.410 C 234.810 269.763,237.060 268.591,238.600 267.805 C 242.348 265.894,243.996 264.870,246.008 263.200 C 246.935 262.430,247.853 261.740,248.047 261.667 C 248.241 261.593,248.400 261.188,248.400 260.767 C 248.400 260.345,248.591 260.000,248.825 260.000 C 249.059 260.000,249.218 259.685,249.179 259.300 C 249.048 258.008,249.196 257.872,249.971 258.574 C 250.514 259.065,251.019 259.181,251.671 258.966 C 253.840 258.250,258.400 260.555,258.400 262.367 C 258.400 262.517,260.481 264.611,263.024 267.020 C 265.567 269.429,269.302 273.100,271.324 275.178 C 275.949 279.932,280.976 284.963,284.820 288.687 C 286.459 290.274,289.060 292.840,290.600 294.387 C 292.140 295.935,293.715 297.303,294.100 297.428 C 294.485 297.552,294.800 297.889,294.800 298.177 C 294.800 298.922,321.268 325.441,322.357 325.786 C 322.904 325.960,323.547 326.744,323.990 327.776 C 324.391 328.713,325.302 329.935,326.013 330.492 C 328.872 332.728,323.569 332.881,319.400 330.682 C 317.899 329.890,316.050 329.103,313.108 328.004 C 311.847 327.533,310.711 326.980,310.584 326.774 C 310.457 326.568,309.861 326.400,309.261 326.400 C 308.660 326.400,307.456 326.030,306.585 325.577 C 304.324 324.403,301.973 323.613,300.720 323.606 C 300.126 323.603,298.866 323.082,297.920 322.450 C 296.974 321.817,294.490 320.635,292.400 319.822 C 290.310 319.009,288.323 318.198,287.984 318.021 C 287.645 317.843,286.420 317.568,285.262 317.408 C 284.103 317.249,282.851 316.813,282.478 316.439 C 281.535 315.494,279.730 314.400,279.114 314.401 C 278.572 314.402,274.284 312.754,272.122 311.713 C 270.795 311.074,270.542 311.095,266.632 312.173 C 264.270 312.824,262.228 313.797,259.650 315.500 C 258.901 315.995,258.001 316.400,257.650 316.400 C 257.005 316.400,256.410 316.664,248.745 320.352 C 246.405 321.479,244.121 322.400,243.669 322.400 C 243.217 322.400,241.600 322.850,240.075 323.400 C 238.551 323.950,236.978 324.400,236.580 324.400 C 235.839 324.400,234.929 324.636,231.346 325.757 C 230.217 326.111,228.733 326.400,228.048 326.400 C 227.363 326.400,225.767 326.754,224.502 327.186 C 223.155 327.645,220.042 328.148,217.000 328.398 C 214.140 328.632,210.365 328.999,208.610 329.212 C 204.524 329.709,195.572 329.706,191.220 329.205 C 189.361 328.992,185.629 328.626,182.926 328.394 C 180.223 328.161,176.906 327.617,175.554 327.185 C 174.202 326.753,172.387 326.400,171.522 326.400 C 170.656 326.400,169.554 326.188,169.074 325.930 C 168.238 325.480,166.900 325.129,163.400 324.442 C 162.520 324.269,161.115 323.834,160.277 323.475 C 159.439 323.115,157.864 322.703,156.777 322.559 C 155.690 322.415,154.800 322.175,154.800 322.025 C 154.800 321.876,154.035 321.418,153.100 321.007 C 142.979 316.562,140.640 315.489,139.600 314.817 C 137.566 313.500,131.591 310.400,131.088 310.400 C 130.757 310.400,130.382 310.130,130.256 309.801 C 130.129 309.471,129.019 308.756,127.789 308.212 C 125.523 307.210,123.334 305.532,119.251 301.670 C 118.013 300.498,116.505 299.245,115.900 298.884 C 115.295 298.523,114.800 298.086,114.800 297.914 C 114.800 297.741,114.608 297.600,114.373 297.600 C 114.138 297.600,113.357 297.015,112.637 296.300 C 111.917 295.585,110.210 294.010,108.844 292.800 C 107.478 291.590,106.016 290.049,105.594 289.375 C 105.172 288.701,104.416 287.926,103.914 287.654 C 103.411 287.381,102.206 285.997,101.234 284.579 C 100.263 283.160,99.325 282.000,99.149 282.000 C 98.973 282.000,97.624 280.560,96.151 278.800 C 94.678 277.040,93.231 275.600,92.936 275.600 C 92.641 275.600,92.400 275.185,92.400 274.678 C 92.400 273.633,90.232 270.000,89.609 270.000 C 89.384 270.000,89.200 269.724,89.200 269.386 C 89.200 269.048,88.390 267.345,87.400 265.600 C 86.410 263.855,85.600 262.275,85.600 262.089 C 85.600 261.902,85.081 261.252,84.446 260.644 C 83.722 259.951,83.198 258.949,83.039 257.954 C 82.900 257.083,82.519 256.267,82.193 256.142 C 81.867 256.017,81.600 255.686,81.600 255.407 C 81.600 255.128,80.816 253.210,79.857 251.144 C 76.244 243.361,72.105 229.519,70.781 220.800 C 70.598 219.590,70.255 217.610,70.019 216.400 C 68.878 210.539,69.113 185.248,70.377 177.960 C 70.583 176.772,70.968 174.450,71.233 172.800 C 71.498 171.150,72.049 168.771,72.457 167.513 C 72.866 166.255,73.200 164.582,73.200 163.797 C 73.200 163.011,73.551 161.679,73.981 160.838 C 74.410 159.996,74.962 158.428,75.206 157.354 C 75.451 156.279,76.068 154.500,76.578 153.400 C 77.088 152.300,77.812 150.500,78.186 149.400 C 79.576 145.324,80.077 144.180,80.829 143.374 C 81.253 142.920,81.600 142.143,81.600 141.648 C 81.600 141.152,82.028 140.174,82.551 139.473 C 83.539 138.149,85.998 133.615,85.999 133.112 C 86.000 132.954,86.789 131.604,87.754 130.112 C 88.718 128.621,89.808 126.680,90.175 125.800 C 90.542 124.920,91.328 123.740,91.921 123.177 C 92.514 122.615,93.990 120.838,95.200 119.229 C 96.410 117.619,98.515 115.000,99.878 113.408 C 101.241 111.816,102.474 110.044,102.618 109.471 C 102.762 108.898,103.191 108.330,103.573 108.209 C 103.954 108.088,105.733 106.596,107.526 104.894 C 112.484 100.190,115.296 97.660,116.400 96.913 C 116.950 96.541,119.020 94.867,121.000 93.194 C 122.980 91.521,125.360 89.803,126.290 89.376 C 127.219 88.949,127.984 88.403,127.990 88.162 C 128.008 87.396,129.343 86.489,131.173 86.002 C 132.148 85.742,133.585 85.096,134.366 84.565 C 135.147 84.034,136.014 83.600,136.293 83.600 C 136.572 83.600,136.800 83.441,136.800 83.247 C 136.800 83.052,137.115 82.774,137.500 82.629 C 138.815 82.133,140.000 81.411,140.000 81.105 C 140.000 80.937,140.175 80.800,140.389 80.800 C 140.603 80.800,141.818 80.328,143.089 79.752 C 147.180 77.897,147.912 77.600,148.399 77.600 C 148.661 77.600,149.385 77.238,150.006 76.795 C 150.628 76.353,152.096 75.692,153.268 75.327 C 154.441 74.962,155.670 74.444,156.000 74.177 C 156.330 73.910,157.230 73.600,158.000 73.488 C 159.699 73.241,164.727 71.893,168.800 70.592 C 170.450 70.065,173.060 69.434,174.600 69.190 C 176.140 68.947,178.390 68.555,179.600 68.320 C 184.508 67.368,186.418 67.284,201.400 67.358 C 212.510 67.413,217.323 67.574,218.122 67.916 " stroke="none" fill="#fbfcfb" fill-rule="evenodd"></path><path id="path4" d="M183.800 67.587 C 182.700 67.756,180.810 68.086,179.600 68.320 C 178.390 68.555,176.140 68.947,174.600 69.190 C 173.060 69.434,170.450 70.065,168.800 70.592 C 164.727 71.893,159.699 73.241,158.000 73.488 C 157.230 73.600,156.330 73.910,156.000 74.177 C 155.670 74.444,154.441 74.962,153.268 75.327 C 152.096 75.692,150.628 76.353,150.006 76.795 C 149.385 77.238,148.661 77.600,148.399 77.600 C 147.912 77.600,147.180 77.897,143.089 79.752 C 141.818 80.328,140.603 80.800,140.389 80.800 C 140.175 80.800,140.000 80.937,140.000 81.105 C 140.000 81.411,138.815 82.133,137.500 82.629 C 137.115 82.774,136.800 83.052,136.800 83.247 C 136.800 83.441,136.572 83.600,136.293 83.600 C 136.014 83.600,135.147 84.034,134.366 84.565 C 133.585 85.096,132.148 85.742,131.173 86.002 C 129.343 86.489,128.008 87.396,127.990 88.162 C 127.984 88.403,127.219 88.949,126.290 89.376 C 125.360 89.803,122.980 91.521,121.000 93.194 C 119.020 94.867,116.950 96.541,116.400 96.913 C 115.296 97.660,112.484 100.190,107.526 104.894 C 105.733 106.596,103.954 108.088,103.573 108.209 C 103.191 108.330,102.762 108.898,102.618 109.471 C 102.474 110.044,101.241 111.816,99.878 113.408 C 98.515 115.000,96.410 117.619,95.200 119.229 C 93.990 120.838,92.514 122.615,91.921 123.177 C 91.328 123.740,90.542 124.920,90.175 125.800 C 89.808 126.680,88.718 128.621,87.754 130.112 C 86.789 131.604,86.000 132.954,85.999 133.112 C 85.998 133.615,83.539 138.149,82.551 139.473 C 82.028 140.174,81.600 141.152,81.600 141.648 C 81.600 142.143,81.253 142.920,80.829 143.374 C 80.077 144.180,79.576 145.324,78.186 149.400 C 77.812 150.500,77.088 152.300,76.578 153.400 C 76.068 154.500,75.451 156.279,75.206 157.354 C 74.962 158.428,74.410 159.996,73.981 160.838 C 73.551 161.679,73.200 163.011,73.200 163.797 C 73.200 164.582,72.866 166.255,72.457 167.513 C 72.049 168.771,71.498 171.150,71.233 172.800 C 70.968 174.450,70.583 176.772,70.377 177.960 C 69.113 185.248,68.878 210.539,70.019 216.400 C 70.255 217.610,70.598 219.590,70.781 220.800 C 71.574 226.022,72.433 229.742,73.972 234.608 C 77.172 244.729,78.134 247.431,79.857 251.144 C 80.816 253.210,81.600 255.128,81.600 255.407 C 81.600 255.686,81.867 256.017,82.193 256.142 C 82.519 256.267,82.900 257.083,83.039 257.954 C 83.198 258.949,83.722 259.951,84.446 260.644 C 85.081 261.252,85.600 261.902,85.600 262.089 C 85.600 262.275,86.410 263.855,87.400 265.600 C 88.390 267.345,89.200 269.048,89.200 269.386 C 89.200 269.724,89.384 270.000,89.609 270.000 C 90.232 270.000,92.400 273.633,92.400 274.678 C 92.400 275.185,92.641 275.600,92.936 275.600 C 93.231 275.600,94.678 277.040,96.151 278.800 C 97.624 280.560,98.973 282.000,99.149 282.000 C 99.325 282.000,100.263 283.160,101.234 284.579 C 102.206 285.997,103.411 287.381,103.914 287.654 C 104.416 287.926,105.172 288.701,105.594 289.375 C 106.016 290.049,107.478 291.590,108.844 292.800 C 110.210 294.010,111.917 295.585,112.637 296.300 C 113.357 297.015,114.138 297.600,114.373 297.600 C 114.608 297.600,114.800 297.741,114.800 297.914 C 114.800 298.086,115.295 298.523,115.900 298.884 C 116.505 299.245,118.013 300.498,119.251 301.670 C 123.334 305.532,125.523 307.210,127.789 308.212 C 129.019 308.756,130.129 309.471,130.256 309.801 C 130.382 310.130,130.757 310.400,131.088 310.400 C 131.591 310.400,137.566 313.500,139.600 314.817 C 140.640 315.489,142.979 316.562,153.100 321.007 C 154.035 321.418,154.800 321.876,154.800 322.025 C 154.800 322.175,155.690 322.415,156.777 322.559 C 157.864 322.703,159.439 323.115,160.277 323.475 C 161.115 323.834,162.520 324.269,163.400 324.442 C 166.900 325.129,168.238 325.480,169.074 325.930 C 169.554 326.188,170.656 326.400,171.522 326.400 C 172.387 326.400,174.202 326.753,175.554 327.185 C 176.906 327.617,180.223 328.161,182.926 328.394 C 185.629 328.626,189.361 328.992,191.220 329.205 C 195.572 329.706,204.524 329.709,208.610 329.212 C 210.365 328.999,214.140 328.632,217.000 328.398 C 220.042 328.148,223.155 327.645,224.502 327.186 C 225.767 326.754,227.363 326.400,228.048 326.400 C 228.733 326.400,230.217 326.111,231.346 325.757 C 234.929 324.636,235.839 324.400,236.580 324.400 C 236.978 324.400,238.551 323.950,240.075 323.400 C 241.600 322.850,243.217 322.400,243.669 322.400 C 244.121 322.400,246.405 321.479,248.745 320.352 C 256.410 316.664,257.005 316.400,257.650 316.400 C 258.001 316.400,258.901 315.995,259.650 315.500 C 262.228 313.797,264.270 312.824,266.632 312.173 C 270.542 311.095,270.795 311.074,272.122 311.713 C 274.284 312.754,278.572 314.402,279.114 314.401 C 279.730 314.400,281.535 315.494,282.478 316.439 C 282.851 316.813,284.103 317.249,285.262 317.408 C 286.420 317.568,287.645 317.843,287.984 318.021 C 288.323 318.198,290.310 319.009,292.400 319.822 C 294.490 320.635,296.974 321.817,297.920 322.450 C 298.866 323.082,300.126 323.603,300.720 323.606 C 301.973 323.613,304.324 324.403,306.585 325.577 C 307.456 326.030,308.660 326.400,309.261 326.400 C 309.861 326.400,310.457 326.568,310.584 326.774 C 310.711 326.980,311.847 327.533,313.108 328.004 C 316.050 329.103,317.899 329.890,319.400 330.682 C 323.569 332.881,328.872 332.728,326.013 330.492 C 325.302 329.935,324.391 328.713,323.990 327.776 C 323.547 326.744,322.904 325.960,322.357 325.786 C 321.268 325.441,294.800 298.922,294.800 298.177 C 294.800 297.889,294.485 297.552,294.100 297.428 C 293.715 297.303,292.140 295.935,290.600 294.387 C 289.060 292.840,286.459 290.274,284.820 288.687 C 280.976 284.963,275.949 279.932,271.324 275.178 C 269.302 273.100,265.567 269.429,263.024 267.020 C 260.481 264.611,258.400 262.517,258.400 262.367 C 258.400 260.555,253.840 258.250,251.671 258.966 C 251.019 259.181,250.514 259.065,249.971 258.574 C 249.196 257.872,249.048 258.008,249.179 259.300 C 249.218 259.685,249.059 260.000,248.825 260.000 C 248.591 260.000,248.400 260.345,248.400 260.767 C 248.400 261.188,248.241 261.593,248.047 261.667 C 247.853 261.740,246.935 262.430,246.008 263.200 C 243.996 264.870,242.348 265.894,238.600 267.805 C 237.060 268.591,234.810 269.763,233.600 270.410 C 232.390 271.057,231.078 271.590,230.684 271.593 C 230.290 271.597,229.210 271.995,228.284 272.478 C 225.947 273.697,222.933 274.718,220.800 275.012 C 219.810 275.149,218.280 275.538,217.400 275.877 C 212.331 277.827,189.005 277.928,183.471 276.024 C 182.239 275.600,180.369 275.139,179.315 274.998 C 177.131 274.706,176.026 274.341,172.472 272.740 C 171.082 272.113,169.642 271.596,169.272 271.591 C 168.902 271.587,167.610 271.044,166.400 270.386 C 165.190 269.728,162.940 268.566,161.400 267.804 C 157.310 265.780,148.231 259.143,148.071 258.060 C 147.991 257.517,147.450 256.981,146.638 256.641 C 144.934 255.930,143.200 254.174,143.200 253.161 C 143.200 252.627,142.794 252.217,141.988 251.936 C 141.310 251.700,140.503 250.986,140.157 250.318 C 139.817 249.660,138.914 248.573,138.149 247.902 C 137.385 247.230,136.473 246.123,136.124 245.441 C 135.775 244.758,134.822 243.390,134.006 242.400 C 133.190 241.410,132.090 239.459,131.561 238.065 C 131.033 236.671,130.285 235.360,129.900 235.151 C 129.515 234.943,129.200 234.508,129.200 234.186 C 129.200 233.864,129.020 233.600,128.800 233.600 C 128.580 233.600,128.400 233.267,128.400 232.860 C 128.400 232.452,127.979 231.327,127.465 230.360 C 125.788 227.202,124.079 222.261,123.623 219.253 C 123.378 217.632,122.830 215.278,122.407 214.021 C 120.665 208.848,120.025 191.777,121.387 186.800 C 121.718 185.590,122.281 182.890,122.639 180.800 C 122.996 178.710,123.643 176.304,124.076 175.454 C 124.561 174.502,124.770 173.536,124.621 172.941 C 124.447 172.248,124.936 170.874,126.348 168.087 C 127.432 165.949,128.518 163.563,128.762 162.785 C 129.006 162.007,129.811 160.747,130.550 159.985 C 131.289 159.223,132.023 158.011,132.181 157.290 C 132.339 156.570,132.863 155.490,133.347 154.890 C 133.830 154.291,134.743 152.996,135.376 152.014 C 136.008 151.031,137.397 149.342,138.463 148.259 C 139.528 147.177,140.400 146.102,140.400 145.870 C 140.400 145.638,141.255 144.600,142.300 143.563 C 143.345 142.527,144.470 141.391,144.800 141.040 C 146.184 139.567,152.520 134.000,152.812 134.000 C 152.987 134.000,154.087 133.370,155.256 132.600 C 156.425 131.830,157.656 131.200,157.991 131.200 C 158.326 131.200,159.103 130.570,159.717 129.800 C 160.331 129.030,161.100 128.400,161.425 128.400 C 161.750 128.400,162.687 127.995,163.508 127.499 C 166.049 125.965,169.272 124.554,172.400 123.604 C 174.050 123.103,175.850 122.468,176.400 122.192 C 176.950 121.916,178.390 121.568,179.600 121.419 C 180.810 121.271,182.880 120.819,184.200 120.416 C 188.902 118.979,190.920 118.776,200.418 118.784 C 209.282 118.792,210.136 118.858,213.842 119.823 C 216.019 120.389,218.970 121.093,220.400 121.386 C 224.310 122.189,230.126 124.271,234.552 126.452 C 236.726 127.523,238.723 128.400,238.990 128.400 C 239.680 128.400,240.856 129.795,240.717 130.450 C 240.638 130.820,241.001 131.005,241.825 131.014 C 242.665 131.024,243.804 131.621,245.450 132.914 C 246.770 133.951,248.019 134.803,248.225 134.808 C 248.431 134.812,249.935 136.072,251.566 137.608 C 253.197 139.143,254.769 140.400,255.058 140.400 C 255.348 140.400,255.699 140.855,255.839 141.411 C 255.978 141.967,256.881 143.069,257.846 143.859 C 258.811 144.650,259.607 145.500,259.615 145.748 C 259.623 145.997,260.759 147.409,262.140 148.887 C 263.521 150.365,264.905 152.075,265.216 152.687 C 265.526 153.299,266.174 154.291,266.656 154.890 C 267.138 155.490,267.654 156.536,267.803 157.214 C 267.952 157.892,268.673 159.047,269.406 159.779 C 270.139 160.512,271.031 161.973,271.388 163.026 C 271.746 164.079,272.840 166.553,273.819 168.525 C 274.799 170.496,275.600 172.633,275.600 173.274 C 275.600 173.915,275.841 174.926,276.135 175.520 C 276.429 176.114,276.885 178.063,277.148 179.852 C 277.411 181.640,278.016 184.160,278.491 185.452 C 280.171 190.015,279.871 207.605,278.018 213.173 C 277.610 214.398,276.984 216.930,276.627 218.800 C 275.960 222.284,273.891 227.113,272.902 227.493 C 271.418 228.063,263.243 225.971,259.938 224.177 C 259.354 223.859,258.557 223.600,258.167 223.600 C 257.440 223.600,255.686 223.097,253.200 222.177 C 252.430 221.891,251.260 221.542,250.600 221.401 C 249.940 221.260,248.410 220.721,247.200 220.203 C 245.990 219.685,243.380 218.778,241.400 218.187 C 237.213 216.936,235.073 216.261,233.400 215.663 C 232.740 215.428,230.850 214.838,229.200 214.354 C 227.550 213.870,225.986 213.309,225.724 213.108 C 224.747 212.357,223.008 212.927,222.879 214.042 C 222.779 214.905,223.622 215.967,227.802 220.242 C 230.576 223.079,233.264 225.850,233.776 226.400 C 234.287 226.950,235.282 227.925,235.987 228.566 C 236.692 229.207,237.543 230.152,237.880 230.666 C 238.217 231.180,238.645 231.600,238.831 231.600 C 239.018 231.600,242.462 234.949,246.485 239.043 C 250.508 243.136,254.234 246.871,254.765 247.343 C 255.295 247.814,256.105 248.636,256.565 249.169 C 257.024 249.701,257.670 250.388,258.000 250.694 C 258.330 251.000,266.484 259.099,276.119 268.692 C 285.754 278.286,294.088 286.368,294.638 286.653 C 295.909 287.313,298.000 286.936,298.000 286.047 C 298.000 285.365,301.517 281.017,305.089 277.284 C 306.238 276.083,307.299 274.718,307.447 274.250 C 307.865 272.933,309.502 270.494,310.250 270.076 C 310.641 269.857,310.824 269.439,310.686 269.079 C 310.555 268.738,310.710 268.241,311.030 267.975 C 311.350 267.709,312.030 266.661,312.540 265.646 C 313.917 262.906,314.484 261.953,315.700 260.342 C 316.305 259.541,316.800 258.588,316.800 258.224 C 316.800 257.861,317.250 257.114,317.800 256.564 C 318.350 256.014,318.800 255.257,318.799 254.882 C 318.798 254.507,319.141 253.480,319.561 252.600 C 322.291 246.875,323.857 242.691,324.381 239.718 C 324.567 238.663,325.097 236.813,325.559 235.606 C 326.022 234.399,326.400 232.924,326.400 232.329 C 326.400 231.734,326.549 231.155,326.731 231.043 C 327.198 230.754,328.263 226.743,328.813 223.200 C 329.069 221.550,329.573 218.850,329.934 217.200 C 330.931 212.636,330.896 186.501,329.884 180.000 C 329.490 177.470,328.980 174.140,328.749 172.600 C 328.519 171.060,327.896 168.396,327.365 166.679 C 326.834 164.963,326.400 163.152,326.400 162.654 C 326.400 162.157,326.056 161.038,325.636 160.168 C 325.215 159.298,324.742 157.869,324.585 156.993 C 324.428 156.117,323.872 154.483,323.349 153.361 C 322.827 152.240,322.400 151.056,322.400 150.729 C 322.400 150.403,321.951 149.250,321.402 148.168 C 320.853 147.086,320.403 145.899,320.402 145.531 C 320.401 145.163,319.950 144.327,319.400 143.673 C 318.850 143.019,318.400 142.146,318.400 141.731 C 318.400 141.317,318.152 140.623,317.848 140.189 C 317.051 139.048,315.657 136.553,314.283 133.807 C 313.625 132.491,312.481 130.536,311.743 129.462 C 311.004 128.389,310.400 127.279,310.400 126.995 C 310.400 126.712,309.770 125.544,309.000 124.400 C 308.230 123.256,307.600 122.145,307.600 121.931 C 307.600 121.427,306.778 120.622,305.938 120.305 C 305.256 120.047,302.800 116.745,302.800 116.086 C 302.800 115.883,301.789 114.760,300.554 113.592 C 299.318 112.423,298.013 110.986,297.654 110.399 C 296.518 108.543,291.067 102.939,289.383 101.896 C 288.494 101.345,287.156 100.200,286.410 99.351 C 285.665 98.501,284.389 97.355,283.575 96.803 C 281.501 95.397,277.178 91.940,276.428 91.087 C 276.083 90.696,274.993 89.984,274.006 89.506 C 273.019 89.028,271.791 88.137,271.276 87.526 C 270.762 86.915,269.589 86.191,268.671 85.918 C 267.752 85.645,265.023 84.202,262.608 82.711 C 260.192 81.220,258.032 79.999,257.808 79.998 C 257.583 79.997,256.500 79.530,255.400 78.959 C 254.300 78.389,252.788 77.831,252.039 77.720 C 251.291 77.609,250.314 77.179,249.869 76.764 C 249.423 76.349,248.686 75.906,248.229 75.779 C 247.395 75.548,246.806 75.324,244.600 74.394 C 243.940 74.116,242.770 73.744,242.000 73.568 C 240.767 73.287,234.044 71.432,228.200 69.761 C 227.100 69.446,224.635 69.011,222.722 68.793 C 220.810 68.575,218.740 68.181,218.122 67.916 C 216.822 67.359,187.147 67.075,183.800 67.587 M208.600 68.023 C 212.120 68.233,215.990 68.564,217.200 68.759 C 218.410 68.953,221.020 69.324,223.000 69.584 C 224.980 69.843,228.220 70.504,230.200 71.053 C 232.180 71.601,234.340 72.194,235.000 72.370 C 239.924 73.683,245.401 75.505,248.600 76.893 C 258.500 81.190,264.267 84.186,269.933 87.974 C 271.105 88.758,272.682 89.774,273.435 90.230 C 274.189 90.687,275.209 91.407,275.703 91.830 C 276.196 92.254,277.109 92.928,277.731 93.329 C 278.959 94.122,279.525 94.580,283.774 98.222 C 285.328 99.553,287.140 101.083,287.800 101.622 C 290.522 103.841,299.862 113.804,302.217 117.000 C 302.865 117.880,303.491 118.690,303.608 118.800 C 304.232 119.387,308.153 125.070,310.095 128.200 C 316.881 139.140,321.751 149.750,324.602 159.800 C 324.976 161.120,325.439 162.650,325.631 163.200 C 325.824 163.750,326.150 164.920,326.356 165.800 C 326.562 166.680,327.008 168.415,327.348 169.655 C 327.688 170.895,328.173 173.505,328.426 175.455 C 328.679 177.405,329.038 180.170,329.224 181.600 C 330.606 192.217,330.676 206.859,329.382 214.800 C 329.041 216.890,328.504 220.310,328.189 222.400 C 327.873 224.490,327.180 227.730,326.648 229.600 C 324.086 238.612,322.413 243.905,321.400 246.200 C 321.108 246.860,320.339 248.570,319.690 250.000 C 319.041 251.430,318.380 253.015,318.221 253.521 C 318.062 254.028,317.318 255.530,316.566 256.860 C 315.815 258.189,315.200 259.324,315.200 259.381 C 315.200 260.120,305.931 274.946,304.811 276.000 C 304.694 276.110,303.812 277.234,302.852 278.498 C 301.892 279.762,300.232 281.742,299.164 282.898 C 298.095 284.054,297.217 285.129,297.211 285.286 C 297.188 285.901,295.596 286.426,294.900 286.049 C 294.149 285.642,224.533 216.062,223.978 215.164 C 223.196 213.898,225.435 213.319,227.000 214.382 C 227.220 214.531,228.480 214.982,229.800 215.383 C 231.120 215.784,232.560 216.248,233.000 216.414 C 235.048 217.186,255.327 223.689,258.200 224.495 C 259.080 224.742,259.980 225.071,260.200 225.226 C 260.420 225.381,261.230 225.639,262.000 225.800 C 262.770 225.961,263.580 226.219,263.800 226.373 C 264.020 226.527,265.280 226.982,266.600 227.383 C 267.920 227.784,269.450 228.256,270.000 228.431 C 273.372 229.506,273.965 229.335,274.971 227.000 C 275.349 226.120,275.896 224.860,276.184 224.200 C 276.831 222.722,278.189 217.191,279.278 211.600 C 280.384 205.922,280.479 190.734,279.439 185.800 C 277.498 176.587,275.996 171.136,274.756 168.800 C 274.347 168.030,273.368 165.870,272.581 164.000 C 271.164 160.634,270.620 159.673,266.550 153.348 C 258.370 140.633,244.410 129.217,230.200 123.622 C 229.760 123.449,228.950 123.116,228.400 122.882 C 226.360 122.015,222.226 120.752,219.455 120.148 C 217.885 119.806,215.340 119.232,213.800 118.873 C 210.244 118.042,190.108 117.901,187.200 118.686 C 186.210 118.954,184.050 119.468,182.400 119.830 C 178.577 120.667,173.119 122.291,170.800 123.282 C 161.704 127.166,154.121 131.763,147.800 137.222 C 141.089 143.019,136.781 148.076,131.843 155.955 C 131.207 156.970,130.274 158.430,129.770 159.200 C 129.266 159.970,128.107 162.310,127.194 164.400 C 126.282 166.490,125.287 168.740,124.984 169.400 C 123.935 171.682,122.868 175.466,121.318 182.400 C 120.236 187.241,120.201 187.757,120.222 198.600 L 120.244 209.800 121.574 215.200 C 122.305 218.170,123.038 221.230,123.203 222.000 C 123.675 224.204,128.857 236.212,129.591 236.800 C 129.728 236.910,130.336 237.959,130.940 239.131 C 131.927 241.042,136.923 248.300,137.597 248.800 C 137.745 248.910,138.922 250.260,140.211 251.800 C 141.500 253.340,142.853 254.870,143.217 255.200 C 152.389 263.516,162.376 270.161,169.304 272.558 C 170.237 272.880,172.530 273.684,174.400 274.343 C 176.270 275.002,178.970 275.835,180.400 276.195 C 181.830 276.554,183.654 277.018,184.454 277.226 C 191.278 279.002,208.886 278.970,215.746 277.171 C 216.656 276.932,218.030 276.579,218.800 276.387 C 221.402 275.738,224.995 274.722,225.800 274.407 C 226.240 274.235,227.950 273.597,229.600 272.989 C 235.298 270.889,242.842 266.587,248.923 261.970 C 250.930 260.447,252.902 259.200,253.304 259.200 C 254.210 259.200,325.341 330.248,324.995 330.808 C 324.635 331.390,323.621 331.288,321.394 330.445 C 316.651 328.651,313.727 327.497,312.217 326.823 C 311.328 326.426,309.908 325.878,309.061 325.607 C 308.215 325.335,307.045 324.863,306.461 324.559 C 305.878 324.254,305.121 324.004,304.780 324.002 C 304.439 324.001,303.989 323.844,303.780 323.654 C 303.571 323.463,302.058 322.804,300.418 322.187 C 298.777 321.571,296.977 320.828,296.418 320.536 C 295.858 320.244,295.209 320.004,294.975 320.002 C 294.741 320.001,293.617 319.550,292.477 319.000 C 291.337 318.450,290.169 318.000,289.882 318.000 C 289.595 318.000,289.189 317.857,288.980 317.682 C 288.771 317.507,287.880 317.126,287.000 316.836 C 286.120 316.545,284.860 316.066,284.200 315.770 C 281.257 314.449,276.193 312.400,275.873 312.400 C 275.679 312.400,274.909 312.130,274.160 311.800 C 273.412 311.470,272.188 310.930,271.440 310.600 C 269.764 309.861,268.117 309.837,266.800 310.534 C 265.718 311.106,258.182 315.117,257.200 315.643 C 256.310 316.120,251.170 318.400,250.984 318.400 C 250.896 318.400,249.856 318.843,248.673 319.384 C 243.531 321.736,231.559 325.146,223.400 326.584 C 221.420 326.933,218.925 327.395,217.855 327.612 C 211.281 328.945,187.937 328.956,181.920 327.628 C 180.974 327.420,178.580 326.959,176.600 326.604 C 169.497 325.332,156.076 321.685,155.020 320.740 C 154.811 320.553,154.391 320.400,154.087 320.400 C 153.783 320.400,152.244 319.835,150.667 319.145 C 149.090 318.455,146.810 317.462,145.600 316.939 C 143.243 315.919,142.950 315.772,137.663 312.940 C 134.015 310.985,128.226 307.423,125.200 305.271 C 124.210 304.566,122.956 303.677,122.413 303.295 C 121.870 302.913,120.790 302.043,120.013 301.363 C 119.236 300.683,118.167 299.783,117.637 299.363 C 111.131 294.205,99.744 282.404,95.288 276.200 C 95.129 275.979,94.534 275.169,93.964 274.400 C 92.851 272.897,88.344 265.792,87.874 264.800 C 87.717 264.470,87.054 263.300,86.400 262.200 C 85.286 260.326,82.919 255.617,80.069 249.600 C 78.819 246.963,75.506 237.315,74.004 231.943 C 72.806 227.657,71.550 221.219,70.345 213.200 C 69.678 208.756,69.641 188.949,70.291 184.600 C 70.555 182.840,71.062 179.330,71.418 176.800 C 72.048 172.319,72.241 171.373,73.454 166.800 C 74.696 162.120,74.903 161.368,75.214 160.400 C 75.391 159.850,75.850 158.320,76.234 157.000 C 76.617 155.680,77.060 154.420,77.217 154.200 C 77.374 153.980,77.634 153.350,77.794 152.800 C 80.267 144.344,89.794 127.046,96.741 118.400 C 100.988 113.115,109.302 104.024,111.274 102.509 C 111.645 102.224,112.815 101.204,113.874 100.243 C 115.437 98.825,118.396 96.357,121.000 94.302 C 121.906 93.586,124.964 91.372,125.560 91.000 C 125.912 90.780,127.010 90.037,128.000 89.349 C 132.665 86.106,140.785 81.562,145.700 79.446 C 148.549 78.219,149.807 77.675,151.600 76.893 C 155.333 75.265,162.760 72.800,163.930 72.800 C 164.383 72.800,164.849 72.644,164.967 72.454 C 165.084 72.264,165.860 71.998,166.690 71.864 C 167.521 71.730,169.190 71.325,170.400 70.964 C 171.610 70.602,174.220 70.057,176.200 69.751 C 178.180 69.446,181.060 69.000,182.600 68.760 C 188.862 67.784,199.532 67.481,208.600 68.023 " stroke="none" fill="#dff4fa" fill-rule="evenodd"></path></g></svg>