<svg width="70" height="70" viewBox="0 0 70 70" fill="none" xmlns="http://www.w3.org/2000/svg">
<path d="M34.5656 47.9813C26.8213 47.9813 20.5544 41.8204 20.5544 34.2072C20.5544 26.594 26.8213 20.4331 34.5656 20.4331C44.7404 20.4331 51.3885 30.6934 47.4568 39.6653L38.4973 36.784L51.1502 49.2228C54.8675 45.2639 57.1312 39.9932 57.1312 34.1838C57.1312 21.9323 47.0279 12 34.5656 12C22.1033 12 12 21.9323 12 34.1838C12 46.4352 22.1033 56.3675 34.5656 56.3675C38.9262 56.3675 42.9771 55.1494 46.4322 53.0646L56.464 57L43.8111 44.5377C41.3329 46.6694 38.0922 47.9813 34.5656 47.9813Z" fill="#40C6F0"/>
</svg>
