<?xml version="1.0" standalone="no"?>
<!DOCTYPE svg PUBLIC "-//W3C//DTD SVG 20010904//EN"
 "http://www.w3.org/TR/2001/REC-SVG-20010904/DTD/svg10.dtd">
<svg version="1.0" xmlns="http://www.w3.org/2000/svg"
 width="400.000000pt" height="400.000000pt" viewBox="0 0 400.000000 400.000000"
 preserveAspectRatio="xMidYMid meet">

<g transform="translate(0.000000,400.000000) scale(0.100000,-0.100000)"
fill="#000000" stroke="none">
<path d="M0 2000 l0 -2000 2000 0 2000 0 0 2000 0 2000 -2000 0 -2000 0 0
-2000z m2527 1034 c-3 -3 -12 -4 -19 -1 -8 3 -5 6 6 6 11 1 17 -2 13 -5z m-4
-21 c-7 -2 -19 -2 -25 0 -7 3 -2 5 12 5 14 0 19 -2 13 -5z m-1383 -91 c74 -29
125 -74 156 -135 73 -142 20 -318 -115 -385 l-59 -29 108 -187 108 -186 -131
0 -132 0 -98 180 c-86 156 -102 180 -123 180 l-24 0 0 -180 0 -180 -120 0
-120 0 0 476 0 476 248 -4 c226 -3 252 -6 302 -26z m875 11 c6 -17 82 -225
256 -706 43 -120 79 -220 79 -223 0 -2 -55 -4 -123 -4 l-123 0 -28 85 -27 85
-176 -2 -176 -3 -27 -80 -27 -80 -123 -3 c-96 -2 -121 0 -117 10 2 7 80 221
172 476 l167 462 133 0 c117 0 134 -2 140 -17z m829 -300 c71 -175 131 -321
135 -325 3 -4 65 139 136 317 l130 325 138 0 137 0 0 -475 0 -475 -120 0 -120
0 -2 271 -3 271 -100 -271 -100 -271 -95 0 -95 0 -99 268 c-54 147 -103 271
-107 276 -5 6 -9 -113 -9 -267 l0 -277 -115 0 -115 0 0 475 0 475 138 0 138 0
128 -317z m-301 -753 c3 -13 11 -18 20 -14 17 6 32 -25 18 -39 -6 -6 -9 -3 -8
8 1 10 -6 19 -15 20 -14 3 -18 -4 -18 -31 0 -25 4 -34 18 -35 15 -1 15 -2 1
-6 -15 -3 -17 -24 -17 -154 0 -144 1 -151 19 -146 11 3 16 1 13 -5 -3 -5 2
-18 12 -29 17 -19 16 -19 -17 -14 -32 5 -33 5 -9 -6 14 -7 28 -12 31 -11 3 0
6 -6 6 -14 0 -8 -6 -14 -14 -14 -7 0 -12 5 -10 12 1 6 -6 14 -16 16 -15 3 -17
-3 -16 -52 1 -30 5 -55 8 -54 25 3 29 -4 11 -22 -24 -24 -27 -60 -4 -60 8 0
12 -5 9 -10 -4 -6 -11 -8 -16 -5 -5 3 -6 -1 -3 -9 7 -19 21 -21 27 -3 2 6 7 9
11 6 11 -10 -24 -40 -37 -32 -7 4 -6 -1 2 -10 7 -9 9 -17 3 -17 -5 0 -10 -27
-10 -62 0 -35 2 -57 5 -49 4 10 7 10 13 1 10 -16 0 -51 -12 -44 -7 4 -9 -10
-6 -40 l5 -46 -499 0 -498 0 0 271 c0 196 -3 268 -11 263 -11 -7 -29 12 -29
31 0 6 4 4 9 -4 5 -7 14 -10 20 -7 7 5 11 75 11 222 l0 214 494 0 c486 0 494
0 499 -20z m97 8 c0 -4 -4 -8 -9 -8 -6 0 -12 4 -15 8 -3 5 1 9 9 9 8 0 15 -4
15 -9z m51 -2 c5 3 9 0 9 -5 0 -6 -5 -11 -11 -11 -5 0 -8 -4 -4 -9 3 -5 1 -13
-5 -16 -6 -4 -10 -3 -9 2 4 20 -2 34 -12 28 -6 -4 -8 -13 -6 -19 3 -7 -1 -13
-9 -13 -14 0 -10 11 15 40 9 11 17 14 19 8 2 -6 8 -9 13 -5z m79 4 c0 -5 -8
-10 -17 -10 -15 0 -16 2 -3 10 19 12 20 12 20 0z m200 0 c0 -5 -2 -10 -4 -10
-3 0 -8 5 -11 10 -3 6 -1 10 4 10 6 0 11 -4 11 -10z m26 1 c-4 -5 0 -12 6 -14
8 -3 6 -6 -4 -6 -10 -1 -18 6 -18 14 0 8 5 15 11 15 5 0 8 -4 5 -9z m149 -3
c-42 -9 -56 -23 -48 -45 3 -7 -1 -13 -10 -13 -8 0 -18 -6 -20 -12 -3 -7 -6 -3
-6 10 -1 13 2 21 7 18 4 -2 12 7 19 20 12 26 5 32 -16 12 -10 -11 -11 -10 -6
2 4 12 21 16 63 17 56 0 56 0 17 -9z m90 2 c3 -5 1 -10 -4 -10 -6 0 -11 5 -11
10 0 6 2 10 4 10 3 0 8 -4 11 -10z m85 0 c0 -5 -2 -10 -4 -10 -3 0 -8 5 -11
10 -3 6 -1 10 4 10 6 0 11 -4 11 -10z m60 -5 c0 -8 -4 -15 -9 -15 -13 0 -22
16 -14 24 11 11 23 6 23 -9z m40 3 c0 -4 -7 -8 -15 -8 -8 0 -15 4 -15 8 0 5 7
9 15 9 8 0 15 -4 15 -9z m-454 -28 c8 0 12 -5 9 -11 -8 -12 -45 17 -45 35 0 6
5 3 11 -6 5 -10 17 -18 25 -18z m-106 -3 c0 -7 -4 -6 -10 3 -6 10 -10 11 -10
3 0 -7 -12 -13 -27 -13 -21 0 -24 3 -13 9 8 6 17 8 21 5 4 -2 10 0 14 6 8 13
25 3 25 -13z m600 7 c0 -9 5 -12 12 -8 7 4 8 3 4 -4 -4 -7 -17 -12 -29 -12
-16 0 -19 3 -8 9 7 5 10 14 7 20 -4 6 -2 11 3 11 6 0 11 -7 11 -16z m67 -6
c-3 -8 -6 -5 -6 6 -1 11 2 17 5 13 3 -3 4 -12 1 -19z m-767 8 c0 -3 -4 -8 -10
-11 -5 -3 -10 -1 -10 4 0 6 5 11 10 11 6 0 10 -2 10 -4z m437 -34 c1 -36 1
-36 -7 -8 -8 24 -6 46 3 46 1 0 3 -17 4 -38z m121 -12 c17 0 3 -29 -22 -42
-17 -9 -19 -8 -8 3 16 17 15 22 -7 48 -27 31 -40 0 -17 -38 6 -9 5 -12 -2 -7
-5 3 -13 0 -16 -6 -3 -7 -4 0 -2 15 3 22 -2 31 -18 37 -20 8 -20 9 4 10 21 0
22 2 10 11 -13 9 -12 10 3 5 10 -3 17 0 17 7 1 7 11 0 23 -15 13 -16 28 -28
35 -28z m-2 30 c0 -12 -4 -16 -9 -11 -5 5 -6 14 -3 20 10 15 12 14 12 -9z
m-146 0 c0 -5 -4 -10 -9 -10 -6 0 -13 5 -16 10 -3 6 1 10 9 10 9 0 16 -4 16
-10z m249 -16 c12 -14 28 -23 35 -21 7 3 13 0 13 -7 0 -7 -6 -13 -14 -13 -7 0
-13 4 -13 9 0 4 -12 8 -27 8 -19 0 -24 3 -15 9 10 6 10 10 -3 21 -17 14 -17
14 -33 -15 -8 -15 -11 -16 -12 -4 0 17 19 39 35 39 6 0 21 -12 34 -26z m-382
1 c8 -9 13 -19 9 -22 -3 -3 0 -13 7 -21 10 -13 9 -14 -1 -8 -8 5 -21 1 -33
-10 -17 -16 -19 -16 -19 -1 0 10 3 16 8 15 4 -2 8 1 9 6 1 5 6 12 13 16 8 5 6
11 -5 20 -8 7 -15 8 -15 3 0 -5 -7 -10 -15 -10 -16 0 -19 9 -8 20 11 12 34 8
50 -8z m-302 -5 c-3 -5 0 -8 7 -6 52 16 68 16 68 -1 0 -15 -2 -16 -10 -3 -8
13 -10 13 -10 -2 0 -9 5 -20 10 -23 6 -3 10 -14 10 -25 0 -13 -5 -17 -19 -13
-13 3 -18 12 -16 25 4 16 2 18 -10 8 -17 -14 -20 0 -5 18 5 7 2 6 -7 -2 -13
-12 -14 -18 -3 -30 8 -10 8 -16 2 -16 -14 0 -18 8 -27 48 -4 21 -3 32 5 32 6
0 8 -4 5 -10z m145 6 c0 -2 -7 -9 -15 -16 -12 -10 -15 -10 -15 4 0 9 7 16 15
16 8 0 15 -2 15 -4z m-240 -26 c-6 -11 -13 -20 -15 -20 -3 0 -5 9 -5 20 0 11
7 20 15 20 13 0 14 -4 5 -20z m63 -28 c-17 -18 -17 -26 2 -18 12 4 13 2 2 -14
-20 -32 -28 -23 -25 29 3 45 4 48 19 33 13 -14 13 -19 2 -30z m819 23 c-2 -15
-11 -25 -21 -25 -10 0 -12 3 -5 8 6 4 13 15 17 25 9 25 15 21 9 -8z m-347 -6
c-4 -5 -12 -9 -18 -8 -9 0 -8 2 1 6 6 2 9 10 6 15 -4 7 -2 8 5 4 6 -4 9 -12 6
-17z m-505 -26 c0 -7 -7 -13 -15 -13 -16 0 -19 9 -9 35 5 13 8 14 15 3 5 -7 9
-19 9 -25z m277 31 c-3 -3 -12 -4 -19 -1 -8 3 -5 6 6 6 11 1 17 -2 13 -5z m40
-16 c-3 -8 -6 -5 -6 6 -1 11 2 17 5 13 3 -3 4 -12 1 -19z m114 -11 c-10 -9
-11 -8 -5 6 3 10 9 15 12 12 3 -3 0 -11 -7 -18z m253 -1 c-3 -9 -10 -16 -15
-16 -6 0 -5 9 1 21 13 24 24 20 14 -5z m-464 4 c0 -5 -2 -10 -4 -10 -3 0 -8 5
-11 10 -3 6 -1 10 4 10 6 0 11 -4 11 -10z m78 -9 c3 -8 -1 -12 -9 -9 -7 2 -15
10 -17 17 -3 8 1 12 9 9 7 -2 15 -10 17 -17z m256 7 c-3 -4 -11 -5 -19 -1 -21
7 -19 12 4 10 11 0 18 -5 15 -9z m159 -3 c-3 -9 -8 -14 -10 -11 -3 3 -2 9 2
15 9 16 15 13 8 -4z m-756 -14 c-3 -15 -1 -18 12 -14 12 3 11 1 -3 -7 -14 -10
-20 -10 -27 1 -4 8 -3 19 3 26 15 19 21 16 15 -6z m530 -6 c-4 -8 -12 -15 -19
-15 -9 0 -8 3 2 10 13 9 13 10 0 10 -13 0 -13 1 0 10 18 11 24 6 17 -15z
m-152 -14 c-6 -5 -25 10 -25 20 0 5 6 4 14 -3 8 -7 12 -15 11 -17z m70 19 c3
-5 1 -10 -4 -10 -6 0 -11 5 -11 10 0 6 2 10 4 10 3 0 8 -4 11 -10z m-165 -12
c0 -4 -9 -8 -20 -8 -11 0 -20 4 -20 8 0 4 9 8 20 8 11 0 20 -4 20 -8z m25 2
c3 -5 1 -10 -4 -10 -6 0 -11 5 -11 10 0 6 2 10 4 10 3 0 8 -4 11 -10z m255
-20 c-8 -5 -17 -7 -19 -4 -3 3 1 9 9 14 8 5 17 7 19 4 3 -3 -1 -9 -9 -14z m90
10 c0 -5 -7 -7 -15 -4 -8 4 -15 8 -15 10 0 2 7 4 15 4 8 0 15 -4 15 -10z m30
0 c0 -5 -5 -10 -11 -10 -5 0 -7 5 -4 10 3 6 8 10 11 10 2 0 4 -4 4 -10z m51 1
c-11 -7 -9 -10 8 -16 11 -3 21 -11 21 -17 0 -6 -6 -6 -15 2 -8 7 -22 10 -30 6
-13 -4 -14 -2 -5 14 6 11 16 20 23 20 8 0 8 -3 -2 -9z m149 -12 c0 -14 -20
-11 -21 4 0 6 -4 3 -9 -8 -6 -15 -9 -16 -9 -4 -1 9 2 18 5 22 8 8 34 -3 34
-14z m-940 1 c0 -5 -5 -10 -11 -10 -5 0 -7 5 -4 10 3 6 8 10 11 10 2 0 4 -4 4
-10z m255 -10 c10 8 15 8 20 -1 9 -14 -13 -29 -33 -21 -9 3 -13 1 -9 -5 4 -6
0 -14 -9 -17 -12 -5 -15 -2 -9 11 4 10 10 27 13 38 6 18 7 18 10 2 3 -14 7
-15 17 -7z m319 3 c-5 -5 -12 -12 -15 -16 -3 -5 -9 -2 -12 7 -5 12 0 16 15 16
12 0 17 -3 12 -7z m110 -18 c-4 -8 -11 -12 -17 -8 -8 5 -7 8 1 11 7 2 9 9 6
14 -4 7 -2 8 4 4 6 -4 9 -13 6 -21z m-598 0 c4 -8 11 -12 18 -8 6 4 6 0 -2 -9
-9 -11 -10 -18 -2 -23 5 -3 10 -1 10 6 0 7 3 9 6 6 4 -4 2 -12 -3 -19 -16 -21
-22 -58 -10 -58 8 0 8 -3 2 -8 -15 -10 -13 -34 3 -40 7 -2 13 2 11 9 -3 26 1
36 16 36 8 0 15 -4 15 -9 0 -4 5 -8 11 -8 5 0 7 6 4 13 -4 6 1 3 9 -7 18 -22
21 -46 6 -46 -5 0 -7 7 -4 15 9 23 -29 19 -44 -5 l-13 -21 -28 23 c-25 21 -26
24 -12 36 14 12 14 13 -1 8 -20 -6 -21 -5 -12 19 5 13 9 14 15 3 6 -9 8 -4 7
15 -1 15 -6 27 -11 27 -5 0 -4 6 2 14 9 11 8 18 -4 30 -9 9 -11 16 -5 16 6 0
13 -7 16 -15z m224 5 c0 -5 -5 -10 -11 -10 -5 0 -7 5 -4 10 3 6 8 10 11 10 2
0 4 -4 4 -10z m57 4 c-3 -3 -12 -4 -19 -1 -8 3 -5 6 6 6 11 1 17 -2 13 -5z
m-157 -8 c0 -2 -7 -9 -15 -16 -13 -11 -14 -10 -9 4 5 14 24 23 24 12z m215
-34 c5 -16 3 -22 -7 -20 -7 2 -12 -3 -10 -9 1 -7 -2 -13 -8 -13 -5 0 -10 5
-10 10 0 6 -8 10 -17 8 -11 -2 -18 4 -20 17 -2 15 -1 16 5 5 9 -20 45 -23 38
-3 -3 8 -1 11 4 8 6 -3 10 -1 10 4 0 6 -5 11 -11 11 -5 0 -7 5 -3 11 8 13 19
2 29 -29z m12 16 c-3 -8 -6 -5 -6 6 -1 11 2 17 5 13 3 -3 4 -12 1 -19z m316
-3 c-3 -8 0 -15 6 -15 6 0 11 8 11 17 0 9 3 14 6 10 4 -3 4 -18 0 -32 -8 -33
-52 -35 -66 -2 -6 16 -9 18 -9 5 -1 -10 -11 -22 -23 -28 -22 -11 -23 -11 -3 5
11 9 19 18 18 20 -8 13 0 22 25 31 32 13 43 9 35 -11z m127 9 c0 -8 -6 -11
-15 -8 -8 4 -15 9 -15 13 0 4 7 8 15 8 8 0 15 -6 15 -13z m75 6 c-3 -5 -13
-10 -21 -10 -8 0 -14 5 -14 10 0 6 9 10 21 10 11 0 17 -4 14 -10z m-914 -42
c-13 -13 -19 -29 -15 -40 4 -13 0 -18 -16 -18 -12 0 -18 -4 -15 -10 4 -6 12
-7 18 -4 8 4 7 2 -1 -7 -11 -12 -14 -12 -22 1 -15 23 -12 30 11 30 11 0 17 5
14 10 -4 6 4 27 16 47 13 20 25 31 27 25 2 -6 -6 -21 -17 -34z m569 27 c0 -2
-9 -3 -19 -2 -11 0 -18 5 -15 9 4 6 34 0 34 -7z m30 5 c0 -5 -2 -10 -4 -10 -3
0 -8 5 -11 10 -3 6 -1 10 4 10 6 0 11 -4 11 -10z m-493 -6 c-3 -4 -2 -15 4
-25 7 -15 6 -19 -6 -19 -8 0 -15 8 -15 18 0 18 8 32 18 32 3 0 2 -3 -1 -6z
m186 -17 c4 3 7 1 7 -5 0 -7 -5 -12 -11 -12 -8 0 -7 -6 2 -17 12 -14 10 -14
-13 1 -27 17 -41 35 -16 20 8 -5 9 0 5 17 -5 21 -5 22 7 7 7 -10 16 -15 19
-11z m-330 -2 c4 -8 3 -16 -1 -19 -4 -3 -9 4 -9 15 -2 23 3 25 10 4z m502 5
c3 -5 0 -7 -9 -4 -9 3 -17 -3 -21 -16 -9 -28 -16 -21 -8 8 6 23 27 30 38 12z
m71 -11 c-41 -11 -50 -31 -23 -46 18 -10 19 -12 5 -13 -10 0 -18 -6 -18 -14 0
-8 -4 -18 -10 -21 -7 -4 -7 2 0 19 6 17 6 26 -2 28 -8 3 -5 14 6 34 15 25 23
30 45 26 l26 -5 -29 -8z m-306 -7 c0 -9 -6 -12 -16 -8 -9 3 -30 6 -47 7 -30 1
-30 1 -7 8 40 11 70 8 70 -7z m540 -4 c0 -18 -2 -20 -9 -8 -6 8 -7 18 -5 22 9
14 14 9 14 -14z m135 12 c15 -24 13 -52 -5 -70 -11 -11 -25 -20 -31 -20 -5 0
1 11 15 23 14 13 23 27 19 30 -11 12 -21 8 -26 -10 -3 -10 -4 -4 -4 12 0 17 2
33 4 38 6 10 21 9 28 -3z m-2319 -47 c-10 -10 -19 5 -10 18 6 11 8 11 12 0 2
-7 1 -15 -2 -18z m1944 23 c0 -3 -4 -8 -10 -11 -5 -3 -10 -1 -10 4 0 6 5 11
10 11 6 0 10 -2 10 -4z m26 -21 c-3 -8 -3 -15 0 -15 3 0 12 7 20 15 9 8 20 15
26 15 6 0 -1 -10 -16 -21 -21 -17 -26 -28 -22 -48 3 -14 3 -20 0 -13 -3 6 -12
12 -19 12 -8 0 -17 5 -21 12 -5 8 -2 9 10 5 13 -5 17 -2 15 11 -2 26 0 42 7
42 3 0 4 -7 0 -15z m164 5 c0 -5 -2 -10 -4 -10 -3 0 -8 5 -11 10 -3 6 -1 10 4
10 6 0 11 -4 11 -10z m-515 -10 c-4 -7 -65 -1 -65 6 0 3 15 4 34 2 19 -1 33
-5 31 -8z m62 4 c-3 -3 -12 -4 -19 -1 -8 3 -5 6 6 6 11 1 17 -2 13 -5z m103
-10 c0 -2 -7 -4 -15 -4 -8 0 -15 4 -15 10 0 5 7 7 15 4 8 -4 15 -8 15 -10z
m60 -4 c0 -4 -9 -6 -21 -3 -15 4 -17 8 -8 14 14 8 29 3 29 -11z m230 10 c0 -5
-5 -10 -11 -10 -5 0 -7 5 -4 10 3 6 8 10 11 10 2 0 4 -4 4 -10z m112 3 c-6 -2
-9 -10 -6 -15 4 -7 2 -8 -4 -4 -7 4 -12 0 -13 -11 0 -11 -3 -13 -6 -5 -6 15
14 42 31 41 7 0 6 -2 -2 -6z m-2078 -9 c9 -3 16 -12 16 -20 0 -17 -12 -18 -28
-2 -22 22 -16 33 12 22z m2131 -4 c3 -5 1 -10 -4 -10 -6 0 -11 5 -11 10 0 6 2
10 4 10 3 0 8 -4 11 -10z m-567 -36 c-4 -3 -12 5 -18 18 -12 22 -12 22 6 6 10
-10 15 -20 12 -24z m29 30 c-3 -3 -12 -4 -19 -1 -8 3 -5 6 6 6 11 1 17 -2 13
-5z m318 -4 c3 -5 -1 -10 -10 -10 -9 0 -13 5 -10 10 3 6 8 10 10 10 2 0 7 -4
10 -10z m-200 -11 c4 -6 14 -8 22 -5 20 8 43 -11 43 -36 0 -15 -5 -18 -22 -13
-16 6 -20 4 -15 -8 4 -10 -1 -18 -14 -22 -17 -6 -17 -8 -5 -21 17 -17 36 -15
53 6 11 13 13 13 14 -2 3 -32 4 -36 12 -44 9 -10 9 -61 -1 -68 -4 -2 -6 10 -4
28 5 43 -27 70 -65 55 -20 -7 -24 -6 -20 5 3 7 0 19 -6 25 -6 6 -7 11 -3 11 5
0 3 6 -3 14 -10 12 -5 17 28 27 23 7 39 14 37 16 -2 3 -6 4 -8 2 -1 -1 -14 4
-28 11 -14 8 -34 13 -45 12 -17 -2 -17 -1 -5 7 19 14 27 14 35 0z m-1645 -5
c0 -8 -19 -13 -24 -6 -3 5 1 9 9 9 8 0 15 -2 15 -3z m1237 -1 c-4 -3 1 -12 11
-19 9 -7 15 -15 12 -17 -9 -9 -42 21 -35 32 3 6 9 11 12 11 4 0 3 -3 0 -7z
m658 -23 c-10 -11 -23 -20 -28 -20 -6 0 1 10 14 23 29 28 40 25 14 -3z m255 2
c-10 -4 -9 -6 1 -13 7 -4 11 -10 8 -13 -2 -3 -10 -1 -18 3 -11 7 -10 12 1 30
8 13 14 17 17 9 2 -7 -2 -14 -9 -16z m-690 -3 c0 -5 -10 -9 -21 -9 -18 0 -19
2 -9 15 12 15 30 12 30 -6z m-1417 -12 c-5 -8 -8 -7 -11 1 -2 7 -9 9 -14 6 -7
-4 -8 -2 -4 4 4 6 13 9 21 6 8 -4 12 -11 8 -17z m1485 3 c-7 -10 -14 -17 -17
-15 -4 4 18 35 25 35 2 0 -1 -9 -8 -20z m52 5 c-6 -8 -9 -19 -5 -25 12 -20 -6
-50 -30 -50 -13 0 -26 4 -29 9 -3 4 6 6 19 3 15 -2 25 0 25 7 0 7 -5 9 -11 5
-7 -4 -10 -1 -7 7 3 8 12 13 19 12 9 -2 8 1 -3 9 -15 11 -15 13 5 24 30 16 31
16 17 -1z m422 -6 c-9 -9 -19 -12 -20 -7 -2 4 -8 6 -13 2 -20 -12 5 -24 39
-19 30 4 33 4 15 -4 -13 -6 -23 -14 -23 -18 0 -5 -13 -13 -28 -19 -22 -9 -29
-8 -29 2 0 7 4 11 9 8 4 -3 16 0 25 5 16 9 16 10 1 11 -39 0 -19 56 21 56 19
0 19 -1 3 -17z m53 11 c3 -5 1 -10 -4 -10 -6 0 -11 5 -11 10 0 6 2 10 4 10 3
0 8 -4 11 -10z m-819 -32 c3 -11 1 -25 -6 -32 -8 -8 -9 -6 -4 8 5 13 4 17 -4
12 -8 -5 -10 -1 -5 11 6 16 5 16 -10 4 -14 -11 -17 -11 -17 1 0 22 38 19 46
-4z m529 12 c-3 -5 -1 -10 4 -10 6 0 11 6 12 13 0 9 2 9 5 0 3 -6 -4 -21 -16
-33 l-22 -22 7 21 c5 16 1 23 -17 30 -22 10 -22 10 5 10 16 1 26 -3 22 -9z
m-375 -30 c0 -3 -6 -7 -13 -7 -7 0 -13 8 -13 18 0 13 3 15 13 7 7 -6 13 -14
13 -18z m-90 16 c0 -3 -4 -8 -10 -11 -5 -3 -10 -1 -10 4 0 6 5 11 10 11 6 0
10 -2 10 -4z m603 -11 c-3 -9 -8 -14 -10 -11 -3 3 -2 9 2 15 9 16 15 13 8 -4z
m-1823 -4 c0 -6 -4 -13 -10 -16 -5 -3 -10 1 -10 9 0 9 5 16 10 16 6 0 10 -4
10 -9z m1340 -1 c0 -5 -2 -10 -4 -10 -3 0 -8 5 -11 10 -3 6 -1 10 4 10 6 0 11
-4 11 -10z m200 -24 c0 -5 -7 -3 -15 4 -8 7 -12 17 -9 22 7 10 24 -9 24 -26z
m320 24 c-8 -5 -19 -10 -25 -10 -5 0 -3 5 5 10 8 5 20 10 25 10 6 0 3 -5 -5
-10z m-462 -13 c6 -5 12 -14 11 -20 0 -9 -2 -8 -6 1 -2 6 -8 10 -13 7 -4 -3
-13 2 -19 9 -9 11 -9 14 1 12 7 -1 19 -5 26 -9z m375 -7 c3 -11 1 -20 -4 -20
-5 0 -9 9 -9 20 0 11 2 20 4 20 2 0 6 -9 9 -20z m-588 0 c3 -5 1 -10 -4 -10
-6 0 -11 5 -11 10 0 6 2 10 4 10 3 0 8 -4 11 -10z m36 -2 c1 -7 1 -17 0 -23
-1 -5 6 -1 15 10 15 18 16 18 10 2 -3 -10 -6 -23 -6 -28 0 -6 -7 -6 -19 0 -10
6 -20 9 -22 8 -2 -1 1 3 8 9 9 8 10 13 1 22 -9 9 -9 12 0 12 7 0 13 -6 13 -12z
m730 -1 c-1 -4 -1 -14 -1 -22 0 -26 -15 -16 -16 10 -1 15 2 25 8 23 5 -2 9 -7
9 -11z m69 10 c0 -2 -11 -13 -25 -25 -24 -21 -25 -21 -25 -3 0 12 8 21 23 24
12 2 23 5 25 6 1 0 2 0 2 -2z m-1973 -29 c-3 -8 -6 -5 -6 6 -1 11 2 17 5 13 3
-3 4 -12 1 -19z m1307 7 c6 -16 -9 -21 -19 -5 -3 5 -13 7 -23 4 -14 -5 -15 -4
-2 5 21 15 37 14 44 -4z m473 -5 c-4 -25 -13 -33 -40 -36 -18 -2 -16 0 8 12
l30 15 -32 -5 c-31 -5 -32 -5 -15 13 23 26 53 27 49 1z m-310 -5 c0 -8 -4 -12
-9 -9 -4 3 -8 9 -8 15 0 5 4 9 8 9 5 0 9 -7 9 -15z m204 8 c-11 -5 -11 -7 0
-15 11 -8 10 -9 -3 -4 -10 3 -18 1 -18 -4 0 -6 5 -10 12 -10 6 0 9 -3 5 -6 -3
-3 -16 1 -29 10 -12 9 -19 17 -15 17 4 1 11 2 16 3 5 0 13 4 17 9 4 4 12 7 18
6 6 0 5 -3 -3 -6z m-331 -7 c0 -3 -4 -8 -10 -11 -5 -3 -10 -1 -10 4 0 6 5 11
10 11 6 0 10 -2 10 -4z m495 -16 c2 -4 -7 -5 -20 -2 -14 2 -25 8 -25 12 0 10
38 1 45 -10z m-561 -6 c5 -14 4 -15 -9 -4 -17 14 -19 20 -6 20 5 0 12 -7 15
-16z m-29 -12 c-3 -3 -11 0 -18 7 -9 10 -8 11 6 5 10 -3 15 -9 12 -12z m205
-7 c-8 -9 -7 -14 2 -18 9 -4 10 -6 1 -6 -14 -1 -35 33 -27 42 3 3 12 3 20 0
11 -4 12 -9 4 -18z m520 -23 c0 -7 -4 -11 -10 -7 -19 12 -60 -7 -60 -28 0 -15
-3 -18 -11 -10 -14 14 10 55 28 48 7 -2 13 0 13 6 0 6 6 7 13 3 9 -6 9 -5 0 8
-7 8 -10 18 -6 22 9 9 33 -22 33 -42z m-804 29 c-3 -5 -15 -7 -26 -4 -28 7
-25 13 6 13 14 0 23 -4 20 -9z m145 -5 c12 7 11 -7 -1 -26 -5 -9 -5 -19 2 -27
14 -18 0 -16 -18 1 -17 17 -19 30 -3 20 9 -5 10 2 6 22 -3 16 -4 23 -1 16 3
-6 10 -10 15 -6z m49 4 c0 -5 -7 -7 -15 -4 -8 4 -15 8 -15 10 0 2 7 4 15 4 8
0 15 -4 15 -10z m140 0 c0 -5 -2 -10 -4 -10 -3 0 -8 5 -11 10 -3 6 -1 10 4 10
6 0 11 -4 11 -10z m495 -10 c3 -5 1 -10 -4 -10 -6 0 -11 5 -11 10 0 6 2 10 4
10 3 0 8 -4 11 -10z m-745 -4 c0 -3 -4 -8 -10 -11 -5 -3 -10 -1 -10 4 0 6 5
11 10 11 6 0 10 -2 10 -4z m440 -15 c0 -5 -9 -11 -21 -14 -14 -4 -18 -10 -14
-19 6 -10 5 -10 -5 -1 -18 16 -5 44 16 36 13 -5 15 -3 9 7 -5 9 -4 11 3 6 7
-4 12 -11 12 -15z m113 6 c-3 -5 3 -6 16 -2 17 5 21 2 21 -16 0 -18 -2 -19
-15 -9 -11 9 -15 9 -15 1 0 -7 -4 -9 -10 -6 -5 3 -10 2 -10 -4 0 -6 -10 -16
-22 -22 -22 -12 -22 -11 -8 7 8 10 21 23 28 27 9 6 10 12 3 21 -8 9 -7 13 4
13 8 0 12 -5 8 -10z m-646 -4 c-4 -3 0 -15 10 -25 19 -21 8 -25 -13 -4 -17 18
-18 36 -2 36 6 0 8 -3 5 -7z m343 -2 c0 -6 -4 -12 -8 -15 -5 -3 -9 1 -9 9 0 8
4 15 9 15 4 0 8 -4 8 -9z m214 -3 c-5 -7 -2 -9 7 -6 11 4 15 -2 16 -21 1 -14
-1 -19 -4 -11 -3 8 -12 19 -20 23 -12 7 -10 27 3 27 3 0 2 -5 -2 -12z m43 -10
c-3 -8 -6 -5 -6 6 -1 11 2 17 5 13 3 -3 4 -12 1 -19z m-491 -8 c0 -22 -5 -24
-31 -13 -15 5 -14 8 6 19 13 7 24 13 24 14 1 0 1 -9 1 -20z m304 16 c0 -3 -4
-8 -10 -11 -5 -3 -10 -1 -10 4 0 6 5 11 10 11 6 0 10 -2 10 -4z m293 -16 c3
-11 1 -18 -4 -14 -5 3 -9 12 -9 20 0 20 7 17 13 -6z m-481 -7 c-6 -2 -10 -8
-7 -13 3 -4 -2 -10 -10 -14 -17 -6 -18 -4 -9 18 3 9 14 16 23 15 10 0 11 -2 3
-6z m595 -20 c6 -12 10 -23 9 -23 -1 0 -12 11 -24 23 -14 15 -18 24 -9 24 7 0
18 -11 24 -24z m-502 -4 c-4 -5 -13 -9 -22 -9 -13 0 -13 3 -3 15 13 15 35 11
25 -6z m80 3 c-20 -14 -16 -34 5 -27 12 4 20 2 20 -5 0 -6 5 -8 10 -5 6 3 10
2 10 -3 0 -17 -13 -22 -27 -10 -11 9 -17 9 -24 -3 -9 -15 -9 -16 -14 31 -2 18
15 43 24 35 3 -3 1 -9 -4 -13z m130 -16 c-2 -14 -6 -29 -9 -35 -3 -5 0 -12 6
-14 7 -3 2 -6 -11 -6 -17 -1 -22 3 -17 14 3 8 1 15 -4 15 -6 0 -10 4 -10 9 0
5 10 7 23 4 18 -4 19 -3 7 7 -11 9 -12 13 -2 17 6 2 9 10 6 15 -4 6 -3 8 3 5
6 -4 9 -18 8 -31z m320 16 c-3 -3 -11 0 -18 7 -9 10 -8 11 6 5 10 -3 15 -9 12
-12z m-780 -2 c-4 -6 -12 -8 -18 -4 -7 3 -4 -1 6 -9 20 -17 22 -28 5 -24 -7 1
-12 -4 -10 -10 1 -7 -2 -13 -8 -13 -5 0 -7 -8 -4 -17 5 -15 4 -16 -5 -3 -14
20 -14 26 4 44 9 9 11 17 5 21 -17 11 -11 25 11 25 11 0 17 -5 14 -10z m-134
-18 c-7 -2 -18 1 -23 6 -8 8 -4 9 13 5 13 -4 18 -8 10 -11z m37 -7 c-3 -16 -1
-25 7 -25 8 0 12 -12 11 -30 0 -16 -3 -30 -6 -30 -10 1 -41 50 -31 50 5 0 8
14 6 30 -2 17 1 30 7 30 6 0 8 -11 6 -25z m32 4 c0 -11 -4 -18 -10 -14 -5 3
-7 12 -3 20 7 21 13 19 13 -6z m123 8 c4 3 7 1 7 -6 0 -8 -6 -11 -16 -7 -9 3
-20 6 -25 6 -6 0 -7 5 -4 10 5 8 11 8 19 1 7 -6 16 -8 19 -4z m144 1 c-2 -7 2
-20 9 -28 11 -14 10 -16 -6 -17 -16 -1 -19 3 -16 22 3 13 -1 26 -7 29 -7 2 -4
5 6 5 11 1 17 -4 14 -11z m67 -10 c-5 -7 -2 -9 9 -5 11 4 15 0 14 -13 -1 -15
-4 -17 -17 -7 -8 6 -17 12 -19 14 -4 2 9 23 15 23 3 0 2 -5 -2 -12z m382 -4
c-27 -27 -37 -52 -23 -57 7 -3 5 -6 -5 -6 -22 -1 -23 8 -2 37 12 17 12 22 2
23 -7 0 -4 4 7 9 31 13 38 11 21 -6z m44 -5 c0 -6 -4 -7 -10 -4 -5 3 -10 1
-10 -6 0 -7 -2 -10 -5 -7 -9 8 6 38 16 32 5 -3 9 -10 9 -15z m-102 -14 c-13
-28 -30 -29 -34 -1 -2 11 2 16 11 12 8 -3 17 -1 20 4 12 20 14 9 3 -15z m152
10 c0 -9 -6 -12 -16 -8 -13 5 -13 7 -2 14 17 11 18 11 18 -6z m-574 -13 c-4
-12 0 -18 12 -20 9 -1 26 -3 37 -4 12 -2 19 2 18 10 -2 6 2 12 7 12 14 0 13
-13 -2 -28 -9 -9 -8 -12 4 -12 9 0 18 8 20 18 3 12 6 9 10 -10 3 -15 2 -25 -2
-23 -4 3 -11 -5 -15 -18 -3 -12 -9 -17 -11 -11 -3 7 -14 10 -24 7 -15 -4 -20
0 -20 16 0 15 4 19 18 14 9 -3 14 -3 10 2 -11 11 -51 13 -65 2 -7 -5 -14 -6
-15 -1 -4 26 -2 40 7 51 14 17 17 16 11 -5z m348 3 c-4 -9 0 -15 7 -15 10 0
10 -3 3 -8 -6 -4 -14 -14 -17 -22 -3 -8 -5 -1 -4 15 1 30 5 45 12 45 3 0 2 -7
-1 -15z m261 5 c10 8 15 8 21 -1 4 -7 3 -9 -4 -5 -6 3 -13 2 -17 -4 -8 -13
-25 -3 -24 13 0 8 2 8 6 -1 4 -9 8 -10 18 -2z m-705 -27 c0 -17 17 -17 23 0 4
9 6 9 6 -1 1 -17 -32 -29 -37 -14 -2 7 -10 12 -18 12 -8 0 -14 4 -14 9 0 6 9
9 20 8 11 -1 20 -7 20 -14z m60 2 c0 -8 -2 -15 -4 -15 -2 0 -6 7 -10 15 -3 8
-1 15 4 15 6 0 10 -7 10 -15z m-124 -24 c0 -16 -4 -27 -8 -25 -9 6 -6 54 3 54
4 0 6 -13 5 -29z m359 17 c5 4 5 1 1 -5 -4 -7 -3 -13 3 -13 6 0 7 -8 4 -17 -6
-15 -7 -14 -13 3 -4 10 -12 20 -19 20 -21 3 -22 4 -16 14 5 8 11 8 19 1 7 -6
17 -7 21 -3z m40 2 c-3 -6 4 -10 17 -11 13 0 17 -3 10 -6 -18 -7 -44 5 -37 17
3 5 8 10 11 10 3 0 2 -4 -1 -10z m343 -11 c-7 -5 -20 -8 -28 -8 -10 0 -11 2
-2 6 6 2 10 8 7 13 -3 4 4 6 16 3 16 -4 17 -8 7 -14z m-441 -10 c2 -17 -1 -18
-13 -9 -17 15 -18 30 -1 30 7 0 13 -9 14 -21z m363 1 c11 -11 20 -22 20 -25 0
-3 0 -10 0 -17 0 -9 3 -9 12 0 15 15 28 15 28 0 0 -6 -3 -9 -6 -5 -4 3 -14 -1
-23 -10 -15 -16 -16 -15 -19 6 -2 12 -12 27 -23 34 -10 6 -19 17 -19 24 0 18
7 16 30 -7z m-213 -22 c-3 -8 -6 -5 -6 6 -1 11 2 17 5 13 3 -3 4 -12 1 -19z
m72 0 c-10 -7 -11 -11 -2 -14 7 -3 9 -12 6 -20 -4 -12 -8 -11 -20 5 -11 17
-12 23 -1 35 7 8 17 12 22 9 4 -3 2 -10 -5 -15z m61 5 c0 -7 5 -13 12 -13 9 0
9 -3 0 -12 -17 -17 -15 -38 3 -38 8 0 15 4 15 8 0 4 9 8 20 8 25 0 19 -5 -30
-27 -22 -10 -40 -14 -40 -9 0 6 5 10 11 10 5 0 7 5 4 10 -4 6 -11 7 -17 4 -7
-4 -7 0 0 12 11 21 5 47 -9 39 -5 -4 -6 0 -3 8 6 18 34 18 34 0z m165 7 c-3
-5 -12 -10 -18 -10 -7 0 -6 4 3 10 19 12 23 12 15 0z m-667 -12 c-2 -7 7 -14
19 -16 17 -2 21 1 17 11 -4 11 2 15 20 13 14 0 28 -7 31 -13 2 -7 1 -12 -3
-10 -4 1 -8 -2 -9 -6 -1 -4 -9 -15 -18 -23 -17 -18 -20 -34 -5 -34 6 0 9 6 8
13 -2 6 6 12 17 12 11 0 24 6 28 13 10 15 37 16 37 1 0 -6 -7 -9 -15 -5 -9 3
-15 0 -15 -9 0 -8 -4 -15 -9 -15 -5 0 -7 -9 -4 -20 3 -11 10 -17 16 -13 6 3 7
1 3 -6 -6 -9 -11 -9 -22 0 -8 6 -15 8 -15 3 -1 -5 -2 -13 -4 -19 -1 -5 -3 -18
-3 -27 -2 -22 -12 -23 -38 -2 -10 8 -13 13 -6 9 7 -4 12 1 13 12 0 16 1 16 9
-2 8 -19 9 -19 9 2 1 15 -6 23 -21 25 -13 2 -22 8 -21 14 1 6 -4 11 -12 11 -8
0 -12 -3 -10 -7 2 -4 -2 -7 -9 -7 -16 0 -10 23 13 51 9 11 11 16 5 13 -14 -8
-38 18 -29 33 9 14 26 13 23 -2z m392 -8 c-6 -11 -15 -20 -20 -20 -6 0 -2 9 7
20 10 11 19 20 21 20 1 0 -2 -9 -8 -20z m180 0 c0 -5 -8 -10 -17 -10 -15 0
-16 2 -3 10 19 12 20 12 20 0z m-340 -10 c0 -5 8 -10 18 -11 14 0 14 -2 -3 -9
-32 -14 -49 -12 -36 3 6 8 8 17 4 20 -3 4 -1 7 5 7 7 0 12 -4 12 -10z m115 -8
c-8 -8 -45 -10 -45 -2 0 13 11 18 31 13 11 -3 17 -8 14 -11z m-508 -15 c1 -11
1 -18 0 -16 -2 2 -8 11 -15 20 -9 12 -9 16 1 16 7 0 14 -9 14 -20z m84 0 c-10
-9 -11 -8 -5 6 3 10 9 15 12 12 3 -3 0 -11 -7 -18z m59 3 c0 -5 -7 -10 -15
-10 -8 0 -15 5 -15 10 0 6 7 10 15 10 8 0 15 -4 15 -10z m-160 -10 c0 -5 -4
-10 -10 -10 -5 0 -10 5 -10 10 0 6 5 10 10 10 6 0 10 -4 10 -10z m84 -6 c3 -8
2 -12 -4 -9 -6 3 -10 10 -10 16 0 14 7 11 14 -7z m286 -24 c0 -5 -2 -10 -4
-10 -3 0 -8 5 -11 10 -3 6 -1 10 4 10 6 0 11 -4 11 -10z m194 -12 c-4 -6 -10
-5 -15 3 -6 10 -9 11 -9 2 0 -7 -8 -13 -17 -13 -15 0 -15 2 2 14 21 15 49 10
39 -6z m41 12 c-3 -5 -11 -10 -16 -10 -6 0 -7 5 -4 10 3 6 11 10 16 10 6 0 7
-4 4 -10z m72 -30 c15 0 16 -2 3 -10 -19 -12 -33 -13 -26 -1 4 5 -3 7 -14 4
-23 -6 -25 0 -8 27 13 20 13 20 20 0 4 -11 15 -20 25 -20z m163 -2 c0 -5 -5
-8 -11 -8 -5 0 -8 4 -4 9 3 5 1 12 -5 16 -5 3 -10 11 -10 18 0 12 29 -23 30
-35z m40 28 c-7 -7 -14 -6 -21 1 -9 9 -7 12 9 10 14 -1 18 -5 12 -11z m-843
-2 c-3 -3 -12 -4 -19 -1 -8 3 -5 6 6 6 11 1 17 -2 13 -5z m45 -19 c3 -14 1
-25 -3 -25 -5 0 -9 11 -9 25 0 14 2 25 4 25 2 0 6 -11 8 -25z m343 -4 c-2 -14
2 -29 8 -33 6 -4 8 -10 5 -14 -9 -8 -52 27 -56 45 -3 15 11 28 32 28 9 0 13
-10 11 -26z m73 -1 l2 -25 -13 23 c-7 12 -16 19 -20 16 -4 -4 -7 -2 -7 5 0 24
35 6 38 -19z m252 20 c0 -5 -5 -10 -11 -10 -5 0 -7 5 -4 10 3 6 8 10 11 10 2
0 4 -4 4 -10z m-2217 -15 c-3 -9 -8 -14 -10 -11 -3 3 -2 9 2 15 9 16 15 13 8
-4z m1604 -10 c0 -8 -4 -15 -9 -15 -4 0 -8 2 -8 4 0 2 -3 12 -6 20 -4 11 -2
15 8 11 8 -3 15 -12 15 -20z m233 5 c0 -4 -7 -10 -15 -14 -8 -3 -15 -12 -15
-20 0 -10 -6 -13 -15 -10 -8 4 -15 11 -15 17 0 6 3 7 7 4 10 -11 32 13 26 29
-4 10 0 12 11 8 9 -3 16 -10 16 -14z m218 -15 c-3 -14 -1 -25 3 -25 5 0 9 5 9
10 0 6 9 10 20 10 11 0 20 -5 20 -11 0 -5 -5 -7 -10 -4 -6 4 -17 2 -23 -4 -17
-13 -57 -3 -57 15 0 8 7 14 15 14 8 0 15 5 15 10 0 6 3 10 6 10 4 0 4 -11 2
-25z m-548 5 c0 -5 -2 -10 -4 -10 -3 0 -8 5 -11 10 -3 6 -1 10 4 10 6 0 11 -4
11 -10z m824 1 c3 -5 -1 -11 -9 -14 -9 -4 -12 -1 -8 9 6 16 10 17 17 5z m-333
-24 c-10 -9 -11 -8 -5 6 3 10 9 15 12 12 3 -3 0 -11 -7 -18z m288 7 c4 3 6
-11 4 -30 -2 -33 -1 -35 15 -22 15 12 16 11 4 -4 -8 -9 -11 -22 -7 -27 3 -6 0
-8 -8 -5 -8 3 -18 1 -22 -5 -4 -7 4 -11 18 -11 20 0 24 -4 20 -19 -5 -19 -6
-19 -29 2 -19 16 -21 23 -12 35 10 11 9 17 -4 26 -13 9 -13 13 -2 24 17 15 18
32 3 32 -5 0 -7 5 -3 12 6 9 9 9 12 0 2 -7 7 -10 11 -8z m-794 -4 c3 -5 -1
-10 -9 -10 -9 0 -16 5 -16 10 0 6 4 10 9 10 6 0 13 -4 16 -10z m43 -15 c-3 -3
-9 2 -12 12 -6 14 -5 15 5 6 7 -7 10 -15 7 -18z m639 10 c0 -14 -10 -19 -29
-16 -5 0 -8 -11 -8 -26 1 -24 3 -26 13 -13 13 16 57 22 57 8 0 -4 6 -8 14 -8
8 0 17 -4 20 -8 2 -4 -11 -8 -30 -8 -19 0 -34 4 -34 9 0 4 -4 5 -10 2 -17 -10
-51 -14 -45 -5 3 4 -4 6 -15 3 -11 -3 -20 0 -20 6 0 6 7 11 16 11 10 0 14 6
11 14 -9 22 14 38 32 23 12 -10 14 -9 8 6 -4 11 -2 17 7 17 7 0 13 -7 13 -15z
m-573 -30 c-3 -26 -1 -35 11 -35 8 0 15 5 15 10 0 6 8 10 18 9 12 0 13 -2 3
-6 -11 -5 -11 -7 0 -14 11 -7 11 -9 1 -9 -7 0 -10 -5 -6 -11 3 -6 -15 1 -42
15 l-48 26 -25 -23 -24 -22 23 33 c13 17 29 32 36 32 6 0 17 7 24 15 18 21 19
19 14 -20z m47 18 c12 -16 12 -17 -2 -6 -9 7 -20 9 -24 5 -5 -4 -5 -1 -1 6 9
16 11 15 27 -5z m219 0 c0 -15 -2 -16 -10 -3 -8 13 -10 13 -10 -2 0 -9 8 -22
18 -27 15 -9 15 -10 1 -11 -9 0 -23 -7 -30 -17 -13 -15 -11 -16 14 -9 32 8 35
-3 7 -27 -15 -12 -20 -13 -20 -4 0 8 -11 19 -25 25 -40 18 -54 14 -17 -5 18
-8 31 -18 28 -20 -2 -3 -17 2 -32 10 -25 13 -30 13 -42 -2 -11 -14 -12 -13 -3
6 9 17 7 23 -7 29 -9 4 -21 6 -25 5 -5 -1 -5 4 -2 10 5 8 10 8 18 0 15 -15 27
-14 27 4 0 8 8 15 18 14 10 0 12 -3 5 -6 -24 -9 -13 -22 17 -21 25 1 28 3 17
16 -10 13 -9 14 11 3 14 -7 22 -8 22 -1 0 5 -5 10 -11 10 -5 0 -7 5 -4 10 3 6
0 10 -7 11 -7 0 -4 4 7 9 30 13 35 12 35 -7z m70 7 c0 -5 -2 -10 -4 -10 -3 0
-8 5 -11 10 -3 6 -1 10 4 10 6 0 11 -4 11 -10z m60 -30 c-9 -5 -9 -9 -1 -14
14 -9 14 -26 1 -26 -5 0 -10 7 -10 15 0 8 -8 16 -17 16 -17 1 -17 2 0 6 9 2
17 9 17 14 0 6 5 7 11 3 8 -5 8 -9 -1 -14z m-570 6 c0 -2 -7 -7 -16 -10 -8 -3
-12 -2 -9 4 6 10 25 14 25 6z m660 -3 c-8 -3 -20 -10 -27 -15 -7 -6 -14 -5
-19 3 -4 7 -3 9 4 5 6 -3 13 -2 17 4 3 5 14 10 23 9 14 0 14 -2 2 -6z m-150
-23 c-33 -23 -50 -30 -50 -22 0 5 10 14 23 20 28 14 47 15 27 2z m415 1 c3 -5
2 -12 -3 -15 -5 -3 -9 1 -9 9 0 17 3 19 12 6z m-272 -21 c3 -11 1 -18 -4 -14
-5 3 -9 12 -9 20 0 20 7 17 13 -6z m-623 -4 c0 -3 -4 -8 -10 -11 -5 -3 -10 -1
-10 4 0 6 5 11 10 11 6 0 10 -2 10 -4z m563 -16 c-3 -12 0 -20 7 -20 8 0 11
-9 8 -25 -3 -13 -1 -22 3 -19 5 3 9 0 9 -6 0 -5 -13 -9 -30 -8 -16 1 -30 6
-30 10 0 4 -6 8 -14 8 -7 0 -16 8 -18 18 -4 12 1 17 18 17 16 0 20 -3 13 -12
-7 -8 -4 -15 9 -22 16 -9 21 -7 25 9 3 13 -1 24 -14 30 -10 6 -19 8 -19 5 0
-4 -5 -3 -11 1 -8 4 -3 12 12 20 33 18 38 17 32 -6z m104 -5 c0 -20 -4 -19
-17 5 -8 15 -8 18 3 14 8 -3 14 -11 14 -19z m73 -8 c0 -4 -4 -5 -10 -2 -5 3
-19 1 -30 -5 -13 -7 -20 -7 -20 0 0 5 7 10 15 10 8 0 15 4 15 10 0 5 -8 7 -17
4 -14 -5 -15 -4 -4 4 15 11 51 -5 51 -21z m-703 17 c-3 -3 -12 -4 -19 -1 -8 3
-5 6 6 6 11 1 17 -2 13 -5z m82 -7 c10 -13 -2 -15 -39 -8 -4 1 21 20 26 21 1
0 7 -6 13 -13z m95 1 c-5 -7 -2 -9 9 -5 8 3 21 0 27 -7 16 -20 60 -27 60 -10
0 22 20 16 29 -8 12 -33 3 -50 -19 -38 -25 13 -33 13 -24 -2 4 -7 3 -8 -4 -4
-6 4 -9 13 -6 20 3 8 -5 16 -20 20 -14 3 -26 10 -26 15 0 4 -12 6 -27 3 -25
-5 -27 -4 -14 11 15 19 26 23 15 5z m255 -22 c-2 -2 -15 -6 -29 -10 -25 -6
-25 -6 -2 5 12 7 22 17 23 23 0 6 3 5 6 -2 3 -7 3 -15 2 -16z m-367 -15 c-5
-3 -12 -13 -15 -21 -4 -12 -6 -11 -6 3 -1 9 -4 16 -8 16 -19 -3 -27 2 -14 10
7 5 22 6 33 3 11 -2 15 -8 10 -11z m688 5 c0 -2 -7 -7 -16 -10 -8 -3 -12 -2
-9 4 6 10 25 14 25 6z m-565 -16 c3 -6 -1 -7 -9 -4 -18 7 -21 14 -7 14 6 0 13
-4 16 -10z m260 0 c-3 -5 -1 -10 4 -10 6 0 11 -5 11 -10 0 -7 -7 -7 -20 0 -20
11 -19 30 1 30 6 0 7 -4 4 -10z m261 -27 c-3 -4 -6 -1 -6 6 0 7 -4 9 -10 6 -6
-4 -7 1 -3 11 6 15 7 15 15 -1 6 -9 7 -19 4 -22z m-696 17 c0 -5 -2 -10 -4
-10 -3 0 -8 5 -11 10 -3 6 -1 10 4 10 6 0 11 -4 11 -10z m215 -9 c-3 -6 -11
-11 -17 -11 -6 0 -6 6 2 15 14 17 26 13 15 -4z m610 3 c-9 -9 -18 -14 -21 -11
-9 9 6 27 22 27 13 0 13 -2 -1 -16z m-181 -2 c2 -4 -4 -8 -14 -8 -10 0 -16 4
-14 8 3 4 9 8 14 8 5 0 11 -4 14 -8z m-1599 -510 c6 -4 11 -16 12 -27 1 -11 0
-14 -3 -7 -3 6 -10 10 -15 6 -5 -3 -9 0 -9 6 0 6 -4 8 -10 5 -6 -3 -7 1 -4 9
7 18 14 19 29 8z m126 -113 c19 -10 18 -29 -2 -29 -6 0 -7 6 -3 13 5 8 2 8 -9
-2 -11 -9 -17 -10 -17 -2 0 6 -8 11 -17 12 -15 0 -15 2 2 9 27 11 24 11 46 -1z"/>
<path d="M830 2638 l0 -120 101 4 c99 3 101 3 130 36 23 26 29 41 29 80 0 89
-35 114 -167 118 l-93 2 0 -120z"/>
<path d="M1865 2669 c-10 -29 -105 -314 -105 -316 0 -2 51 -3 114 -3 l115 0
-54 161 c-30 89 -57 164 -60 167 -2 3 -7 -1 -10 -9z"/>
<path d="M3490 1651 c0 -5 7 -12 16 -15 14 -5 15 -4 4 9 -14 17 -20 19 -20 6z"/>
<path d="M2950 1230 c-12 -7 -10 -9 8 -7 12 0 22 5 22 9 0 11 -12 10 -30 -2z"/>
<path d="M2760 1062 c0 -6 -8 -13 -17 -15 -16 -4 -16 -5 -1 -6 18 -1 34 16 24
26 -3 4 -6 1 -6 -5z"/>
</g>
</svg>
