<svg width="100" height="100" viewBox="0 0 100 100" fill="none" xmlns="http://www.w3.org/2000/svg">
<path fill-rule="evenodd" clip-rule="evenodd" d="M31.9024 80.6547H67.4389L85.2065 49.9816L67.4389 19.3081H31.9024L14.1339 49.9816L31.9024 80.6547ZM69.2449 83.7727H30.0964L10.522 49.9816L30.0964 16.1901H69.2449L88.8189 49.9816L69.2449 83.7727Z" fill="black"/>
<path fill-rule="evenodd" clip-rule="evenodd" d="M50.4681 11.1105C28.8028 11.1105 11.1769 28.6409 11.1769 50.1882C11.1769 71.736 28.8028 89.266 50.4681 89.266C72.1335 89.266 89.7599 71.736 89.7599 50.1882C89.7599 28.6409 72.1335 11.1105 50.4681 11.1105ZM50.4681 92.3765C27.0782 92.3765 8.04932 73.4508 8.04932 50.1882C8.04932 26.9257 27.0782 8 50.4681 8C73.8586 8 92.8874 26.9257 92.8874 50.1882C92.8874 73.4508 73.8586 92.3765 50.4681 92.3765Z" fill="black"/>
<path fill-rule="evenodd" clip-rule="evenodd" d="M47.5472 37.9085C47.5472 37.9085 47.9003 41.0958 47.9463 44.0169C47.9463 44.0169 51.0779 37.5959 56.0978 37.6188C61.1177 37.6422 60.6341 44.1095 58.1704 44.1558C55.7062 44.2021 55.8442 42.2087 55.3843 41.7449C54.9235 41.2815 53.3542 39.3807 50.4201 42.2087C47.4855 45.0367 47.8941 49.7858 47.9077 52.0159C47.9077 52.0159 47.8052 59.6451 48.3856 60.3135C49.3772 61.455 50.4621 61.2125 50.9347 61.2778C51.4073 61.3435 51.628 61.686 51.1572 62.0617C50.7459 62.3893 50.2659 62.3417 50.2659 62.3417H40.1416C40.1416 62.3417 39.6852 62.1852 39.6734 61.7456C39.6624 61.306 40.9926 61.2553 41.3956 61.2381C41.7981 61.2213 43.4244 61.0066 43.4953 59.3906C43.5667 57.7751 43.6863 44.1249 43.4099 41.99C43.155 40.0227 41.8896 39.606 41.2537 39.5346C40.6173 39.4636 39.535 39.6492 39.3799 38.912C39.2577 38.3313 40.1223 38.2537 40.3694 38.218C40.6173 38.1827 47.5472 37.9085 47.5472 37.9085Z" fill="black"/>
<path fill-rule="evenodd" clip-rule="evenodd" d="M59.1482 59.4595C59.1482 61.0523 57.8571 62.3441 56.2633 62.3441C54.6704 62.3441 53.3789 61.0523 53.3789 59.4595C53.3789 57.8662 54.6704 56.5748 56.2633 56.5748C57.8571 56.5748 59.1482 57.8662 59.1482 59.4595Z" fill="black"/>
</svg>
