<?xml version="1.0" encoding="utf-8"?>
<!-- Generator: Adobe Illustrator 16.0.2, SVG Export Plug-In . SVG Version: 6.00 Build 0)  -->
<!DOCTYPE svg PUBLIC "-//W3C//DTD SVG 1.1//EN" "http://www.w3.org/Graphics/SVG/1.1/DTD/svg11.dtd">
<svg version="1.1" id="Layer_1" xmlns="http://www.w3.org/2000/svg" xmlns:xlink="http://www.w3.org/1999/xlink" x="0px" y="0px"
	 width="100px" height="100px" viewBox="0 0 100 100" enable-background="new 0 0 100 100" xml:space="preserve">
<g>
	<linearGradient id="SVGID_1_" gradientUnits="userSpaceOnUse" x1="22.7119" y1="77.2881" x2="77.288" y2="22.712">
		<stop  offset="0" style="stop-color:#45C4BD"/>
		<stop  offset="0.4384" style="stop-color:#3762FC"/>
		<stop  offset="0.4806" style="stop-color:#4358F9"/>
		<stop  offset="0.6427" style="stop-color:#6E37F0"/>
		<stop  offset="0.789" style="stop-color:#8D1FE9"/>
		<stop  offset="0.913" style="stop-color:#9F10E5"/>
		<stop  offset="1" style="stop-color:#A60BE3"/>
	</linearGradient>
	<circle fill-rule="evenodd" clip-rule="evenodd" fill="url(#SVGID_1_)" cx="49.999" cy="49.999" r="38.591"/>
	<circle fill-rule="evenodd" clip-rule="evenodd" fill="#14192D" cx="50" cy="49.999" r="50"/>
	<g>
		<defs>
			<path id="SVGID_2_" d="M17.98,56.74c-0.182-0.07-0.102-0.338-0.14-0.52c-0.042-0.217-0.088-0.432-0.13-0.645
				c-0.06-0.08-0.09-0.166-0.079-0.264c0.003-0.045,0.008-0.09,0.011-0.137c-0.053-0.076-0.093-0.164-0.071-0.264
				c0.015-0.355-0.108-0.686-0.146-1.035c-0.021-0.211-0.074-0.416-0.114-0.627c-0.059-0.076-0.087-0.166-0.079-0.262
				c0.006-0.047,0.008-0.09,0.013-0.137c-0.059-0.08-0.089-0.164-0.079-0.266c0.026-0.354-0.101-0.688-0.139-1.033
				c-0.021-0.213-0.075-0.418-0.112-0.627c-0.062-0.075-0.09-0.164-0.08-0.265c0.003-0.045,0.007-0.09,0.012-0.132
				c-0.056-0.08-0.087-0.166-0.08-0.267c0.026-0.355-0.101-0.688-0.138-1.034c-0.024-0.213-0.073-0.419-0.113-0.628
				c-0.062-0.076-0.089-0.164-0.08-0.265c0.003-0.045,0.009-0.087,0.012-0.132c-0.056-0.08-0.087-0.167-0.077-0.265
				c0.023-0.356-0.103-0.689-0.141-1.037c-0.021-0.208-0.071-0.417-0.11-0.624c-0.063-0.079-0.091-0.167-0.082-0.267
				c0.005-0.043,0.007-0.088,0.014-0.133c-0.059-0.079-0.091-0.167-0.08-0.265c0.026-0.354-0.101-0.69-0.138-1.037
				c-0.023-0.209-0.074-0.418-0.113-0.625c-0.063-0.076-0.089-0.167-0.08-0.264c0.051-0.363-0.098-0.696-0.147-1.043
				c-0.03-0.192-0.032-0.348,0.113-0.47c0.553-0.472,1.126-0.921,1.663-1.408c0.354-0.322,0.718-0.635,1.08-0.944
				c0.935-0.797,1.867-1.59,2.797-2.393c0.721-0.623,1.431-1.264,2.156-1.889c0.868-0.747,1.756-1.48,2.626-2.229
				c0.701-0.604,1.387-1.22,2.087-1.82c1.045-0.899,2.104-1.786,3.147-2.683c0.543-0.465,1.065-0.953,1.614-1.415
				c0.58-0.489,1.155-0.984,1.737-1.474c0.509-0.423,0.992-0.878,1.501-1.304c0.946-0.796,1.868-1.622,2.816-2.415
				c0.549-0.458,1.082-0.937,1.616-1.413c0.551-0.49,1.151-0.925,1.688-1.426c0.519-0.487,1.06-0.944,1.602-1.399
				c0.911-0.765,1.774-1.594,2.724-2.317c0.136-0.104,0.238-0.257,0.355-0.384c0.021-0.106,0.094-0.132,0.19-0.132
				c0.091-0.09,0.183-0.178,0.274-0.267c0.051-0.169,0.148-0.239,0.32-0.15c0.138,0.033,0.242,0.153,0.397,0.136
				c0.155-0.065,0.249,0.024,0.333,0.133c0.169,0.087,0.338,0.174,0.531,0.201c0.153-0.066,0.246,0.021,0.33,0.129
				c0.17,0.088,0.34,0.177,0.532,0.201c0.157-0.065,0.249,0.024,0.333,0.133c0.17,0.086,0.339,0.177,0.533,0.201
				c0.152-0.066,0.245,0.023,0.329,0.131c0.171,0.088,0.339,0.175,0.532,0.202c0.154-0.069,0.246,0.021,0.333,0.129
				c0.169,0.087,0.336,0.178,0.533,0.202c0.153-0.066,0.245,0.023,0.33,0.133c1.198,0.467,2.392,0.938,3.591,1.401
				c1.485,0.575,2.975,1.146,4.461,1.717c0.061,0.023,0.125,0.036,0.164,0.113c-0.059,0.066-0.121,0.141-0.186,0.212
				c-0.029,0.092-0.052,0.198-0.193,0.153c-0.118,0.05-0.195,0.148-0.271,0.249c-0.033,0.09-0.053,0.195-0.195,0.15
				c-0.743,0.625-1.488,1.239-2.197,1.907c-0.03,0.09-0.054,0.198-0.192,0.151c-0.119,0.049-0.196,0.148-0.271,0.249
				c-0.033,0.089-0.055,0.195-0.196,0.15c-0.586,0.493-1.179,0.977-1.731,1.508c-0.031,0.09-0.052,0.198-0.193,0.15
				c-0.119,0.054-0.197,0.15-0.269,0.249c-0.034,0.09-0.058,0.2-0.196,0.152c-0.588,0.489-1.18,0.975-1.734,1.507
				c-0.029,0.092-0.052,0.199-0.191,0.153c-0.119,0.05-0.196,0.147-0.271,0.248c-0.035,0.091-0.055,0.197-0.194,0.152
				c-0.59,0.489-1.181,0.975-1.734,1.507c-0.031,0.09-0.052,0.199-0.192,0.151c-0.12,0.053-0.197,0.149-0.271,0.248
				c-0.033,0.091-0.056,0.196-0.192,0.152c-0.591,0.488-1.183,0.976-1.736,1.507c-0.015,0.159-0.124,0.205-0.258,0.216
				c-0.093,0.033-0.155,0.105-0.204,0.187c-0.02,0.153-0.124,0.2-0.26,0.212c-0.571,0.465-1.144,0.928-1.669,1.447
				c-0.015,0.156-0.125,0.201-0.259,0.214c-0.094,0.031-0.154,0.106-0.204,0.186c-0.019,0.156-0.124,0.2-0.259,0.211
				c-0.729,0.598-1.45,1.198-2.132,1.847c-0.017,0.156-0.125,0.201-0.26,0.214c-0.095,0.032-0.153,0.105-0.206,0.185
				c-0.017,0.154-0.123,0.202-0.257,0.214c-0.577,0.46-1.138,0.934-1.67,1.445c-0.016,0.157-0.124,0.202-0.259,0.214
				c-0.096,0.032-0.153,0.107-0.207,0.185c-0.034,0.09-0.052,0.199-0.192,0.155c-0.59,0.486-1.18,0.975-1.732,1.504
				c-0.034,0.093-0.053,0.199-0.193,0.154c-0.119,0.05-0.198,0.148-0.272,0.249c-0.03,0.09-0.054,0.195-0.192,0.15
				c-0.591,0.489-1.181,0.976-1.734,1.508c-0.034,0.09-0.052,0.198-0.192,0.149c-0.119,0.054-0.197,0.149-0.271,0.25
				c-0.033,0.09-0.054,0.195-0.194,0.15c-0.59,0.489-1.181,0.977-1.732,1.507c-0.033,0.093-0.054,0.199-0.192,0.155
				c-0.12,0.05-0.197,0.147-0.272,0.246c-0.032,0.092-0.054,0.197-0.192,0.153c-0.589,0.493-1.187,0.969-1.733,1.507
				c-0.033,0.091-0.054,0.199-0.193,0.152c-0.119,0.051-0.196,0.147-0.271,0.249c-0.033,0.089-0.054,0.195-0.194,0.15
				c-0.744,0.625-1.492,1.239-2.198,1.908c-0.032,0.089-0.053,0.197-0.193,0.15c-0.118,0.051-0.195,0.151-0.27,0.249
				c-0.035,0.091-0.055,0.197-0.196,0.15c-0.586,0.493-1.179,0.978-1.732,1.508c-0.031,0.094-0.053,0.199-0.192,0.153
				c-0.12,0.051-0.195,0.149-0.271,0.247c-0.035,0.09-0.056,0.199-0.195,0.154c-0.588,0.489-1.18,0.977-1.733,1.504
				c-0.032,0.092-0.054,0.197-0.192,0.154c-0.119,0.049-0.196,0.146-0.271,0.248c-0.034,0.09-0.056,0.197-0.192,0.152
				c-0.591,0.486-1.184,0.975-1.735,1.508c-0.031,0.088-0.052,0.195-0.193,0.15c-0.119,0.053-0.196,0.15-0.271,0.246
				c-0.033,0.09-0.055,0.197-0.193,0.152c-0.587,0.494-1.187,0.969-1.734,1.506c-0.032,0.096-0.054,0.199-0.192,0.154
				C18.257,56.506,18.172,56.814,17.98,56.74z"/>
		</defs>
		<clipPath id="SVGID_3_">
			<use xlink:href="#SVGID_2_"  overflow="visible"/>
		</clipPath>
		<linearGradient id="SVGID_4_" gradientUnits="userSpaceOnUse" x1="22.7119" y1="77.2881" x2="77.288" y2="22.712">
			<stop  offset="0" style="stop-color:#45C4BD"/>
			<stop  offset="0.4384" style="stop-color:#3762FC"/>
			<stop  offset="0.4806" style="stop-color:#4358F9"/>
			<stop  offset="0.6427" style="stop-color:#6E37F0"/>
			<stop  offset="0.789" style="stop-color:#8D1FE9"/>
			<stop  offset="0.913" style="stop-color:#9F10E5"/>
			<stop  offset="1" style="stop-color:#A60BE3"/>
		</linearGradient>
		
			<circle clip-path="url(#SVGID_3_)" fill-rule="evenodd" clip-rule="evenodd" fill="url(#SVGID_4_)" cx="49.999" cy="49.999" r="38.591"/>
	</g>
	<g>
		<defs>
			<path id="SVGID_5_" d="M84.39,57.232c-1.374,1.176-2.738,2.363-4.106,3.541c-1.753,1.512-3.507,3.021-5.26,4.529
				c-1.59,1.369-3.176,2.732-4.763,4.098c-2.087,1.799-4.176,3.6-6.262,5.398c-1.738,1.492-3.475,2.988-5.211,4.482
				c-1.763,1.518-3.522,3.037-5.284,4.551c-0.537,0.461-1.082,0.908-1.611,1.373c-0.137,0.119-0.255,0.146-0.417,0.086
				c-0.549-0.197-1.101-0.395-1.652-0.59c-0.534-0.189-1.069-0.379-1.606-0.566c-1.192-0.42-2.387-0.838-3.579-1.262
				c-1.228-0.438-2.449-0.889-3.677-1.328c-0.884-0.314-1.772-0.619-2.655-0.934c-0.09-0.031-0.17-0.09-0.269-0.146
				c0.392-0.348,0.768-0.689,1.151-1.02c0.37-0.32,0.759-0.615,1.124-0.941c1.252-1.127,2.568-2.174,3.842-3.273
				c5.19-4.469,10.379-8.941,15.571-13.408c6.28-5.408,12.564-10.813,18.841-16.225c0.998-0.859,2.022-1.681,2.967-2.6
				c0.145-0.139,0.232-0.19,0.281,0.091c0.344,1.835,0.701,3.672,1.06,5.507c0.266,1.373,0.537,2.745,0.808,4.118
				c0.277,1.406,0.554,2.811,0.834,4.215C84.544,57.066,84.498,57.143,84.39,57.232z"/>
		</defs>
		<clipPath id="SVGID_6_">
			<use xlink:href="#SVGID_5_"  overflow="visible"/>
		</clipPath>
		<linearGradient id="SVGID_7_" gradientUnits="userSpaceOnUse" x1="22.7119" y1="77.2881" x2="77.288" y2="22.712">
			<stop  offset="0" style="stop-color:#45C4BD"/>
			<stop  offset="0.4384" style="stop-color:#3762FC"/>
			<stop  offset="0.4806" style="stop-color:#4358F9"/>
			<stop  offset="0.6427" style="stop-color:#6E37F0"/>
			<stop  offset="0.789" style="stop-color:#8D1FE9"/>
			<stop  offset="0.913" style="stop-color:#9F10E5"/>
			<stop  offset="1" style="stop-color:#A60BE3"/>
		</linearGradient>
		
			<circle clip-path="url(#SVGID_6_)" fill-rule="evenodd" clip-rule="evenodd" fill="url(#SVGID_7_)" cx="49.999" cy="49.999" r="38.591"/>
	</g>
	<g>
		<defs>
			<path id="SVGID_8_" d="M60.688,26.048v-0.394c0.07-0.186-0.009-0.383,0.056-0.566c0.045-0.288,0.09-0.577,0.134-0.865
				c-0.056-0.108,0.003-0.188,0.065-0.263c0.059-0.077,0.114-0.154,0.076-0.258c0.03-0.122,0.01-0.259,0.139-0.338
				c0.277-0.341,0.379-0.78,0.662-1.122c0.18-0.213,0.324-0.46,0.538-0.645c0.055-0.254,0.227-0.402,0.462-0.492
				c0.064-0.066,0.134-0.132,0.199-0.199c0.027-0.147,0.179-0.132,0.269-0.198c0.262-0.153,0.527-0.307,0.789-0.462
				c0.049-0.062,0.106-0.104,0.195-0.082c1.352-0.591,2.743-0.749,4.184-0.403c0.209-0.079,0.396-0.066,0.532,0.138
				c0.072,0.073,0.167,0.077,0.259,0.096c0.127-0.061,0.209-0.004,0.273,0.107c0.804,0.418,1.557,0.908,2.153,1.601
				c0.813,0.943,1.338,2.021,1.5,3.264c0.024,0.173,0.05,0.346,0.077,0.521c0.034,0.241,0.034,0.485,0,0.728
				c-0.177,1.956-1.022,3.532-2.606,4.716c-0.379,0.284-0.815,0.45-1.196,0.723c-0.05,0.08-0.124,0.075-0.201,0.054
				c-0.967,0.394-1.986,0.516-3.004,0.401c-1.336-0.153-2.529-0.688-3.526-1.638c-0.48-0.462-0.886-0.97-1.237-1.53
				c-0.159-0.064-0.184-0.202-0.188-0.35c-0.184-0.495-0.388-0.979-0.502-1.498c-0.037-0.163,0.039-0.327-0.045-0.479
				C60.679,26.431,60.758,26.231,60.688,26.048z"/>
		</defs>
		<clipPath id="SVGID_9_">
			<use xlink:href="#SVGID_8_"  overflow="visible"/>
		</clipPath>
		<linearGradient id="SVGID_10_" gradientUnits="userSpaceOnUse" x1="22.7119" y1="77.2881" x2="77.288" y2="22.712">
			<stop  offset="0" style="stop-color:#45C4BD"/>
			<stop  offset="0.4384" style="stop-color:#3762FC"/>
			<stop  offset="0.4806" style="stop-color:#4358F9"/>
			<stop  offset="0.6427" style="stop-color:#6E37F0"/>
			<stop  offset="0.789" style="stop-color:#8D1FE9"/>
			<stop  offset="0.913" style="stop-color:#9F10E5"/>
			<stop  offset="1" style="stop-color:#A60BE3"/>
		</linearGradient>
		
			<circle clip-path="url(#SVGID_9_)" fill-rule="evenodd" clip-rule="evenodd" fill="url(#SVGID_10_)" cx="49.999" cy="49.999" r="38.591"/>
	</g>
	<g>
		<defs>
			<path id="SVGID_11_" d="M26.428,68.75c-1.029,0.885-2.051,1.777-3.074,2.662c-0.833,0.723-1.669,1.438-2.544,2.189
				c-0.104-0.594-0.202-1.152-0.298-1.709c-0.097-0.578-0.174-1.16-0.293-1.736c-0.116-0.553-0.19-1.117-0.298-1.672
				c-0.146-0.742-0.244-1.496-0.393-2.238c-0.138-0.684-0.225-1.373-0.338-2.055c-0.091-0.551-0.188-1.094-0.283-1.639
				c-0.062-0.08-0.09-0.168-0.079-0.268c0.003-0.047,0.007-0.086,0.011-0.133c-0.054-0.082-0.094-0.164-0.072-0.268
				c0.019-0.352-0.113-0.684-0.146-1.035c-0.018-0.207-0.073-0.416-0.113-0.623c-0.059-0.08-0.089-0.166-0.08-0.266
				c0.005-0.043,0.008-0.088,0.014-0.133c-0.056-0.082-0.096-0.164-0.071-0.266c0.101-0.174-0.105-0.303-0.071-0.469
				c-0.023-0.189,0.127-0.162,0.237-0.186c0.105-0.111,0.213-0.223,0.318-0.338c0.019-0.102,0.092-0.131,0.185-0.131
				c0.093-0.088,0.185-0.178,0.278-0.264c0.021-0.109,0.095-0.131,0.188-0.131c0.58-0.514,1.204-0.975,1.737-1.531
				c0.022-0.104,0.096-0.135,0.188-0.135c0.094-0.09,0.187-0.176,0.278-0.266c0.021-0.102,0.095-0.131,0.188-0.131
				c0.732-0.645,1.517-1.232,2.204-1.926c0.021-0.104,0.096-0.135,0.188-0.135c0.093-0.09,0.186-0.176,0.278-0.266
				c0.021-0.105,0.092-0.133,0.188-0.133c0.573-0.514,1.208-0.961,1.736-1.525c0.021-0.107,0.097-0.135,0.188-0.135
				c0.093-0.088,0.185-0.18,0.275-0.266c0.021-0.105,0.095-0.133,0.19-0.133c0.577-0.513,1.207-0.961,1.737-1.528
				c0.021-0.104,0.093-0.133,0.188-0.133c0.094-0.089,0.186-0.176,0.276-0.266c0.021-0.104,0.095-0.133,0.19-0.133
				c0.577-0.514,1.206-0.963,1.737-1.526c0.021-0.104,0.093-0.133,0.188-0.133c0.093-0.089,0.185-0.181,0.274-0.268
				c0.021-0.103,0.096-0.132,0.19-0.132c0.577-0.514,1.206-0.964,1.739-1.53c0.021-0.103,0.092-0.131,0.188-0.131
				c0.092-0.088,0.185-0.178,0.274-0.267c0.021-0.103,0.095-0.132,0.19-0.131c0.579-0.51,1.201-0.97,1.738-1.528
				c0.021-0.103,0.092-0.132,0.188-0.132c0.093-0.091,0.183-0.178,0.275-0.267c0.021-0.104,0.096-0.133,0.19-0.133
				c0.73-0.646,1.516-1.23,2.2-1.925c0.021-0.106,0.096-0.131,0.19-0.131c0.091-0.091,0.183-0.178,0.276-0.268
				c0.02-0.103,0.095-0.133,0.188-0.133c0.576-0.493,1.15-0.983,1.725-1.476c0.026-0.135,0.116-0.19,0.246-0.193
				c0.074-0.068,0.146-0.138,0.219-0.207c0.026-0.133,0.115-0.19,0.244-0.193c0.561-0.49,1.122-0.976,1.683-1.466
				c0.025-0.135,0.115-0.19,0.246-0.196c0.071-0.068,0.146-0.134,0.22-0.202c0.025-0.136,0.113-0.191,0.243-0.197
				c0.561-0.486,1.121-0.976,1.682-1.462c0.026-0.138,0.117-0.192,0.246-0.196c0.071-0.069,0.146-0.137,0.22-0.203
				c0.027-0.136,0.114-0.192,0.243-0.197c0.561-0.489,1.122-0.976,1.683-1.465c0.026-0.136,0.116-0.191,0.246-0.196
				c0.072-0.066,0.146-0.134,0.218-0.204c0.031-0.1,0.078-0.184,0.203-0.181c0.579-0.511,1.203-0.971,1.74-1.53
				c0.019-0.103,0.092-0.131,0.186-0.131c0.092-0.091,0.185-0.178,0.278-0.268c0.021-0.103,0.095-0.131,0.187-0.131
				c0.733-0.645,1.516-1.231,2.204-1.93c0.021-0.103,0.095-0.13,0.188-0.13c0.091-0.089,0.187-0.179,0.275-0.267
				c0.025-0.103,0.095-0.132,0.189-0.132c0.575-0.514,1.211-0.962,1.74-1.528c0.021-0.104,0.095-0.133,0.186-0.133
				c0.094-0.087,0.188-0.177,0.278-0.267c0.021-0.104,0.094-0.13,0.188-0.13c0.202-0.24,0.398-0.246,0.587,0.01
				c0.135,0,0.085,0.131,0.137,0.189c0.09,0.092,0.177,0.182,0.265,0.275c0.13,0.002,0.084,0.131,0.135,0.19
				c0.374,0.426,0.705,0.886,1.123,1.272c0.135,0,0.087,0.133,0.142,0.187c0.087,0.094,0.175,0.186,0.259,0.275
				c0.131,0.004,0.088,0.133,0.137,0.191c0.376,0.425,0.706,0.888,1.124,1.275c0.133-0.002,0.087,0.129,0.141,0.188
				c0.086,0.09,0.172,0.183,0.26,0.272c0.129,0.002,0.084,0.132,0.137,0.192c0.373,0.425,0.704,0.888,1.124,1.274
				c0.132,0,0.086,0.13,0.137,0.188c0.091,0.09,0.177,0.183,0.264,0.275c0.13,0.002,0.085,0.13,0.138,0.187
				c0.373,0.427,0.704,0.889,1.124,1.276c0.131,0,0.083,0.129,0.139,0.186c0.087,0.093,0.172,0.187,0.259,0.279
				c0.132-0.003,0.087,0.129,0.14,0.188c0.251,0.335,0.571,0.613,0.793,0.974c-0.035,0.09-0.053,0.197-0.191,0.15
				c-0.122,0.051-0.197,0.15-0.273,0.249c-0.035,0.091-0.053,0.195-0.194,0.15c-0.588,0.493-1.182,0.977-1.731,1.508
				c-0.034,0.089-0.055,0.199-0.193,0.15c-0.123,0.054-0.196,0.152-0.274,0.249c-0.03,0.09-0.051,0.199-0.189,0.155
				c-0.591,0.486-1.182,0.975-1.735,1.504c-0.034,0.093-0.051,0.199-0.193,0.154c-0.119,0.05-0.196,0.148-0.271,0.249
				c-0.035,0.09-0.053,0.195-0.194,0.15c-0.59,0.489-1.18,0.976-1.73,1.508c-0.035,0.09-0.056,0.198-0.194,0.149
				c-0.119,0.054-0.2,0.149-0.273,0.25c-0.033,0.09-0.053,0.195-0.192,0.15c-0.589,0.489-1.184,0.977-1.732,1.507
				c-0.035,0.093-0.053,0.199-0.194,0.155c-0.117,0.05-0.193,0.147-0.271,0.246c-0.031,0.092-0.054,0.197-0.193,0.153
				c-0.587,0.493-1.184,0.969-1.734,1.507c-0.032,0.091-0.051,0.199-0.191,0.152c-0.118,0.051-0.195,0.147-0.272,0.249
				c-0.035,0.089-0.053,0.195-0.194,0.15c-0.857,0.735-1.721,1.471-2.58,2.209c-1.215,1.038-2.429,2.073-3.641,3.115
				c-1.019,0.881-2.03,1.766-3.05,2.643c-1.219,1.047-2.444,2.09-3.663,3.143c-1.026,0.883-2.045,1.775-3.075,2.66
				c-1.358,1.172-2.727,2.336-4.089,3.506c-1.02,0.879-2.032,1.768-3.051,2.639C28.52,66.961,27.47,67.85,26.428,68.75z"/>
		</defs>
		<clipPath id="SVGID_12_">
			<use xlink:href="#SVGID_11_"  overflow="visible"/>
		</clipPath>
		<linearGradient id="SVGID_13_" gradientUnits="userSpaceOnUse" x1="22.7119" y1="77.2881" x2="77.288" y2="22.712">
			<stop  offset="0" style="stop-color:#45C4BD"/>
			<stop  offset="0.4384" style="stop-color:#3762FC"/>
			<stop  offset="0.4806" style="stop-color:#4358F9"/>
			<stop  offset="0.6427" style="stop-color:#6E37F0"/>
			<stop  offset="0.789" style="stop-color:#8D1FE9"/>
			<stop  offset="0.913" style="stop-color:#9F10E5"/>
			<stop  offset="1" style="stop-color:#A60BE3"/>
		</linearGradient>
		
			<circle clip-path="url(#SVGID_12_)" fill-rule="evenodd" clip-rule="evenodd" fill="url(#SVGID_13_)" cx="49.999" cy="49.999" r="38.591"/>
	</g>
	<g>
		<defs>
			<path id="SVGID_14_" d="M38.91,73.576c0.035,0.33,0.035,0.666-0.002,0.996c-0.188,1.602-0.822,2.977-2.011,4.088
				c-0.899,0.84-1.977,1.328-3.156,1.611c-0.115,0.027-0.237,0.018-0.356,0.027c-0.144,0.051-0.296-0.012-0.437,0.049h-0.59
				c-0.138-0.059-0.295,0-0.434-0.049c-1.561-0.15-2.855-0.848-3.919-1.977c-0.776-0.826-1.255-1.814-1.521-2.916
				c-0.053-0.211-0.039-0.428-0.087-0.637c-0.061-0.205,0.021-0.426-0.051-0.631v-0.197c0.069-0.182-0.005-0.377,0.051-0.561
				c0.139-1.434,0.732-2.672,1.714-3.699c0.971-1.02,2.175-1.639,3.59-1.818c0.228-0.029,0.458-0.051,0.688-0.078
				c0.178-0.033,0.353-0.033,0.529,0C36.12,67.988,38.579,70.365,38.91,73.576z"/>
		</defs>
		<clipPath id="SVGID_15_">
			<use xlink:href="#SVGID_14_"  overflow="visible"/>
		</clipPath>
		<linearGradient id="SVGID_16_" gradientUnits="userSpaceOnUse" x1="22.7119" y1="77.2881" x2="77.288" y2="22.712">
			<stop  offset="0" style="stop-color:#45C4BD"/>
			<stop  offset="0.4384" style="stop-color:#3762FC"/>
			<stop  offset="0.4806" style="stop-color:#4358F9"/>
			<stop  offset="0.6427" style="stop-color:#6E37F0"/>
			<stop  offset="0.789" style="stop-color:#8D1FE9"/>
			<stop  offset="0.913" style="stop-color:#9F10E5"/>
			<stop  offset="1" style="stop-color:#A60BE3"/>
		</linearGradient>
		
			<circle clip-path="url(#SVGID_15_)" fill-rule="evenodd" clip-rule="evenodd" fill="url(#SVGID_16_)" cx="49.999" cy="49.999" r="38.591"/>
	</g>
	<g>
		<defs>
			<path id="SVGID_17_" d="M81.179,41.009C73.81,47.342,66.445,53.68,59.081,60.021c-5.476,4.717-10.954,9.432-16.424,14.154
				c-0.215,0.184-0.331,0.164-0.504-0.037c-1.081-1.271-2.174-2.535-3.264-3.803c-0.812-0.941-1.622-1.887-2.434-2.83
				c-0.699-0.809-1.394-1.621-2.096-2.428c-0.172-0.195-0.192-0.332,0.038-0.521c0.631-0.512,1.229-1.07,1.862-1.582
				c0.735-0.594,1.422-1.24,2.154-1.836c0.522-0.42,1.014-0.883,1.525-1.322c0.6-0.518,1.208-1.027,1.809-1.545
				c0.503-0.43,0.997-0.875,1.505-1.303c0.944-0.801,1.865-1.629,2.817-2.418c0.526-0.432,1.033-0.896,1.545-1.344
				c0.582-0.51,1.175-1,1.757-1.5c0.378-0.328,0.751-0.67,1.136-0.99c0.914-0.764,1.776-1.596,2.726-2.323
				c0.137-0.104,0.24-0.254,0.358-0.383c0.021-0.103,0.092-0.132,0.188-0.132c0.091-0.091,0.186-0.178,0.275-0.269
				c0.021-0.102,0.094-0.132,0.189-0.132c0.579-0.507,1.201-0.967,1.738-1.526c0.021-0.105,0.092-0.136,0.188-0.133
				c0.093-0.09,0.182-0.179,0.272-0.267c0.023-0.106,0.099-0.132,0.192-0.132c0.729-0.646,1.516-1.23,2.201-1.929
				c0.021-0.104,0.094-0.131,0.192-0.131c0.089-0.087,0.181-0.178,0.273-0.266c0.022-0.105,0.094-0.132,0.189-0.132
				c0.573-0.513,1.207-0.964,1.74-1.529c0.018-0.103,0.091-0.132,0.187-0.132c0.089-0.091,0.182-0.177,0.276-0.268
				c0.019-0.103,0.095-0.131,0.186-0.131c0.576-0.514,1.209-0.964,1.74-1.527c0.021-0.103,0.094-0.135,0.188-0.132
				c0.093-0.091,0.184-0.181,0.275-0.267c0.022-0.103,0.098-0.133,0.189-0.133c0.709-0.61,1.415-1.225,2.126-1.83
				c0.869-0.735,1.768-1.439,2.606-2.206c0.707-0.648,1.453-1.251,2.164-1.895c0.778-0.703,1.592-1.377,2.388-2.064
				c0.8-0.688,1.596-1.374,2.395-2.063c0.799-0.686,1.602-1.368,2.391-2.063c0.211-0.184,0.29-0.106,0.333,0.11
				c0.335,1.738,0.669,3.479,1.005,5.216c0.343,1.773,0.69,3.543,1.036,5.315c0.209,1.06,0.416,2.121,0.619,3.184
				C81.369,40.73,81.339,40.871,81.179,41.009z"/>
		</defs>
		<clipPath id="SVGID_18_">
			<use xlink:href="#SVGID_17_"  overflow="visible"/>
		</clipPath>
		<linearGradient id="SVGID_19_" gradientUnits="userSpaceOnUse" x1="22.7119" y1="77.2881" x2="77.288" y2="22.712">
			<stop  offset="0" style="stop-color:#45C4BD"/>
			<stop  offset="0.4384" style="stop-color:#3762FC"/>
			<stop  offset="0.4806" style="stop-color:#4358F9"/>
			<stop  offset="0.6427" style="stop-color:#6E37F0"/>
			<stop  offset="0.789" style="stop-color:#8D1FE9"/>
			<stop  offset="0.913" style="stop-color:#9F10E5"/>
			<stop  offset="1" style="stop-color:#A60BE3"/>
		</linearGradient>
		
			<circle clip-path="url(#SVGID_18_)" fill-rule="evenodd" clip-rule="evenodd" fill="url(#SVGID_19_)" cx="49.999" cy="49.999" r="38.591"/>
	</g>
</g>
</svg>
