<svg width="100" height="100" viewBox="0 0 100 100" fill="none" xmlns="http://www.w3.org/2000/svg">
<path fill-rule="evenodd" clip-rule="evenodd" d="M24.2569 25.6533L30.4658 22.0873L31.3021 23.5232L54.1892 10.3243L52.5167 9.36176L50.8362 8.38347L50 7.90222L12.7147 29.4403V30.4028L23.4206 24.2096L24.2569 25.6533Z" fill="#001C3A"/>
<path fill-rule="evenodd" clip-rule="evenodd" d="M24.2569 39.2152L42.1974 28.8486L43.0336 30.3081L65.9208 17.1013L64.2482 16.123L62.5678 15.1605L61.7315 14.6871L12.7147 42.9864V43.9489L23.4206 37.7557L24.2569 39.2152Z" fill="#001C3A"/>
<path fill-rule="evenodd" clip-rule="evenodd" d="M24.2569 45.9922L48.0592 32.2488L48.9033 33.6926L71.7826 20.47L70.11 19.5233L68.4375 18.545L67.5933 18.0637L12.7147 49.7475V50.7258L23.4206 44.5405L24.2569 45.9922Z" fill="#001C3A"/>
<path fill-rule="evenodd" clip-rule="evenodd" d="M24.2569 52.7613L54.0946 35.5388L54.9387 36.9826L77.6523 23.8704L75.9797 22.8921L74.2993 21.9296L73.463 21.4484L12.7147 56.5325V57.495L23.4206 51.3018L24.2569 52.7613Z" fill="#001C3A"/>
<path fill-rule="evenodd" clip-rule="evenodd" d="M24.2569 59.5225L59.9643 38.9154L60.8005 40.375L83.5141 27.247L81.8415 26.2924L80.169 25.3141L79.3248 24.8329L12.7147 63.2937V64.2562L23.4206 58.0788L24.2569 59.5225Z" fill="#001C3A"/>
<path fill-rule="evenodd" clip-rule="evenodd" d="M86.0308 28.7065L85.1945 28.2174L12.7147 70.0785V71.041L23.4206 64.8636L24.2569 66.3074L59.9643 45.7003L60.8005 47.1441L87.2852 31.8623V29.9215V29.4403L86.0308 28.7065Z" fill="#001C3A"/>
<path fill-rule="evenodd" clip-rule="evenodd" d="M17.3064 75.1514L23.3102 71.6879L24.1465 73.1317L59.7908 52.5562L60.627 54.0157L87.2853 38.6235V36.6827V34.7419V33.7794L16.4859 74.6701L17.3064 75.1514Z" fill="#001C3A"/>
<path fill-rule="evenodd" clip-rule="evenodd" d="M59.7908 59.3411L60.627 60.8006L87.2853 45.4084V43.4676V41.5268V40.5643L22.3477 78.0547L23.1919 78.536L29.2825 75.0094L30.1267 76.4689" fill="#001C3A"/>
<path fill-rule="evenodd" clip-rule="evenodd" d="M29.0537 81.9283L35.1522 78.3939L35.9884 79.8534L59.7907 66.1022L60.627 67.5618L87.2852 52.1696V50.2288V48.3038V47.3334L28.2016 81.4313L29.0537 81.9283Z" fill="#001C3A"/>
<path fill-rule="evenodd" clip-rule="evenodd" d="M34.9155 85.3129L41.014 81.7942L41.8582 83.238L59.7907 72.8871L60.627 74.3309L87.2853 58.9387V57.0136V55.0729V54.1104L34.0792 84.8316L34.9155 85.3129Z" fill="#001C3A"/>
<path fill-rule="evenodd" clip-rule="evenodd" d="M39.9489 88.2162L40.7852 88.6975L46.8995 85.1709L47.72 86.6304L59.7907 79.6483L60.627 81.1079L87.2852 65.7157V63.7749V61.8341V60.8716L39.9489 88.2162Z" fill="#001C3A"/>
<path fill-rule="evenodd" clip-rule="evenodd" d="M46.647 92.0978L52.7455 88.5555L53.5818 90.015L59.7907 86.4175L60.627 87.877L87.2852 72.5006V70.5598V68.619V67.6565L45.8107 91.6166L46.647 92.0978Z" fill="#001C3A"/>
<path fill-rule="evenodd" clip-rule="evenodd" d="M60.0589 13.7089L58.3785 12.7464L56.7059 11.7839L55.8697 11.2869L12.7147 36.2015V37.1641L23.4206 30.9946L24.2569 32.4304L36.3277 25.4641L37.1876 26.9236L60.0589 13.7089Z" fill="#001C3A"/>
</svg>
