<svg xmlns="http://www.w3.org/2000/svg" viewBox="0 0 100 100"><path fill="#b5fed9" d="M0 0h100v100H0z"/><path d="M17.9 52.4H14v9.3h-4V36.9h10.3c5.4 0 8.5 3.2 8.5 7.9 0 4.1-2.3 6.7-6.3 7.5l7.4 9.5H25l-7.1-9.4zM14 48.9h5.8c3.3 0 4.8-1.7 4.8-4.1 0-2.4-1.6-4.1-4.8-4.1H14v8.2zm76 5.7c0 5.4-4.8 7.6-9.3 7.6-7 0-10-3.8-10.7-8.1h4.1c.7 2.9 2.7 4.4 6.6 4.4 3.3 0 5.3-1.3 5.3-3.6s-2-2.7-6.6-3.7c-4.8-1.1-8.6-2.4-8.6-7.1 0-4.9 4.4-7.5 9.1-7.5 6.3 0 9.1 3.2 9.8 7.2h-4.1c-.7-2.1-2.4-3.4-5.7-3.4s-5.2 1.5-5.2 3.7c0 1.8 1.4 2.3 5.5 3.2 6.3 1.2 9.8 2.5 9.8 7.3zM50.1 42.3h15.2v-8.5H47.9L38.8 43l-3.7-3.5v12.3h12.3l-3.2-3.5 5.9-6zm1.9-1.9l4.7-4.7h6.7v4.7H52zM35.1 64h17.3l9.1-9.1 3.7 3.5V46.1H53l3.2 3.5-6 6H35.1V64zm8.5-1.9H37v-4.7h11.4l-4.8 4.7z" fill="#1d1d1b"/></svg>
