<?xml version="1.0" encoding="utf-8"?>
<!-- Generator: Adobe Illustrator 25.2.1, SVG Export Plug-In . SVG Version: 6.00 Build 0)  -->
<svg version="1.1" id="Layer_1" xmlns="http://www.w3.org/2000/svg" xmlns:xlink="http://www.w3.org/1999/xlink" x="0px" y="0px"
	 viewBox="0 0 100 100" style="enable-background:new 0 0 100 100;" xml:space="preserve">
<style type="text/css">
	.st0{fill:#231F20;stroke:#000000;stroke-miterlimit:10;}
	.st1{fill:url(#SVGID_1_);}
	.st2{fill:#0CF2A8;}
	.st3{fill:#649ACD;}
</style>
<g>
	<circle class="st0" cx="50" cy="50" r="48.7"/>
	
		<linearGradient id="SVGID_1_" gradientUnits="userSpaceOnUse" x1="6.6935" y1="509.0031" x2="93.3065" y2="458.9969" gradientTransform="matrix(1 0 0 1 0 -434)">
		<stop  offset="0" style="stop-color:#649ACD"/>
		<stop  offset="1" style="stop-color:#0CF2A8"/>
	</linearGradient>
	<path class="st1" d="M50,5.3c24.7,0,44.7,20.1,44.7,44.8c0,18-10.8,34.2-27.3,41.2c-22.8,9.6-49-1-58.6-23.8s1-49,23.8-58.6l0,0
		C38.1,6.5,44,5.3,50,5.3 M50,0C22.4,0,0,22.4,0,50s22.4,50,50,50s50-22.4,50-50S77.6,0,50,0z"/>
	<path class="st2" d="M55.4,26.5L58,17c0.7-2.7-0.9-5.4-3.6-6.1c-2.7-0.7-5.4,0.9-6.1,3.5l-2.6,9.5C49.1,23.8,52.5,24.7,55.4,26.5z"
		/>
	<path class="st3" d="M44.7,73.5L42.1,83c-0.7,2.7,0.8,5.4,3.5,6.2c2.7,0.7,5.4-0.8,6.2-3.5c0,0,0-0.1,0-0.1l2.6-9.5
		C51,76.1,47.6,75.2,44.7,73.5z"/>
	<path class="st2" d="M68.9,48.2c-1.1-1.9-2.6-3.5-4.4-4.8l-3.3,15.1l0,0c-0.7,3.8-4.4,6.3-8.2,5.5s-6.3-4.4-5.5-8.2c0,0,0,0,0-0.1
		l3.1-11.5c0.7-2.7-0.9-5.4-3.5-6.2c0,0-0.1,0-0.1,0c-2.7-0.7-5.4,1-6.1,3.7l0,0l-3.6,16c0.4,9.4,8.4,16.7,17.8,16.3
		s16.7-8.4,16.3-17.8C71.3,53.5,70.5,50.7,68.9,48.2z"/>
	<path class="st3" d="M38.8,41.6c0.7-3.8,4.3-6.4,8.1-5.7s6.4,4.3,5.7,8.1c0,0.1,0,0.1,0,0.2l-3.1,11.5c-0.7,2.7,0.9,5.4,3.5,6.2
		c0,0,0,0,0.1,0c2.7,0.7,5.4-1,6.1-3.7l3.5-16c-0.4-9.4-8.3-16.7-17.7-16.4s-16.7,8.3-16.4,17.7c0.2,5.1,2.7,9.9,6.8,13L38.8,41.6z"
		/>
</g>
</svg>
