<svg width="100" height="100" viewBox="0 0 100 100" fill="none" xmlns="http://www.w3.org/2000/svg">
<path d="M45.613 59.5098C45.4143 59.5344 45.2126 59.5144 45.0226 59.451C44.8327 59.3877 44.6593 59.2828 44.5151 59.1438L38.6597 53.2885C38.5208 53.1443 38.4158 52.9709 38.3525 52.7809C38.2892 52.591 38.2691 52.3893 38.2938 52.1906C38.2691 51.9919 38.2892 51.7902 38.3525 51.6002C38.4158 51.4103 38.5208 51.2369 38.6597 51.0927L53.2981 36.8203C53.4423 36.6813 53.6157 36.5764 53.8057 36.5131C53.9956 36.4497 54.1973 36.4297 54.396 36.4543C54.5947 36.4297 54.7964 36.4497 54.9864 36.5131C55.1763 36.5764 55.3497 36.6813 55.4939 36.8203L61.7152 42.6756C62.0812 42.6756 62.0812 43.4075 62.0812 43.7735C62.1058 43.9722 62.0857 44.1739 62.0224 44.3639C61.9591 44.5538 61.8541 44.7272 61.7152 44.8714L46.7109 59.1438C46.5667 59.2828 46.3933 59.3877 46.2033 59.451C46.0134 59.5144 45.8117 59.5344 45.613 59.5098V59.5098Z" fill="url(#paint0_radial)"/>
<path d="M61.7153 30.9649L49.6386 19.2542C47.804 17.6662 45.4768 16.7612 43.0513 16.6925C40.4402 16.7229 37.9446 17.7737 36.0981 19.6202C35.3662 19.9861 35.3662 20.3521 35.3662 20.7181C35.3415 20.9168 35.3616 21.1185 35.4249 21.3084C35.4882 21.4984 35.5932 21.6718 35.7321 21.8159L52.2003 37.5522C52.5663 37.9182 52.9322 37.9182 52.9322 38.2841C54.7111 40.124 55.7649 42.5448 55.8994 45.1005C56.034 47.6561 55.2401 50.1742 53.6642 52.1906L61.7153 44.5054C62.6525 43.686 63.3999 42.6722 63.9055 41.5346C64.4111 40.397 64.6627 39.1629 64.643 37.9182C64.6125 35.307 63.5618 32.8114 61.7153 30.9649V30.9649Z" fill="url(#paint1_linear)"/>
<path d="M47.4429 57.3141C45.6308 55.4741 44.585 53.0146 44.5171 50.433C44.4491 47.8514 45.3641 45.3403 47.0769 43.4076L39.0258 51.0927C38.0992 51.9982 37.3628 53.0797 36.8601 54.2738C36.3574 55.4679 36.0984 56.7504 36.0984 58.046C36.0984 59.3416 36.3574 60.6241 36.8601 61.8182C37.3628 63.0122 38.0992 64.0938 39.0258 64.9992L56.5919 82.9312C56.7361 83.0702 56.9095 83.1751 57.0994 83.2385C57.2894 83.3018 57.4911 83.3219 57.6898 83.2972C57.8885 83.3219 58.0902 83.3018 58.2801 83.2385C58.4701 83.1751 58.6435 83.0702 58.7877 82.9312C59.7143 82.0258 60.4507 80.9443 60.9534 79.7502C61.4561 78.5561 61.7151 77.2736 61.7151 75.978C61.7151 74.6824 61.4561 73.3999 60.9534 72.2058C60.4507 71.0118 59.7143 69.9302 58.7877 69.0248L47.8089 58.046C47.8089 57.68 47.4429 57.68 47.4429 57.3141Z" fill="url(#paint2_linear)"/>
<defs>
<radialGradient id="paint0_radial" cx="0" cy="0" r="1" gradientUnits="userSpaceOnUse" gradientTransform="translate(49.8283 47.9359) scale(11.7656 11.7687)">
<stop stop-color="#BE4650"/>
<stop offset="1" stop-color="#9B375A"/>
</radialGradient>
<linearGradient id="paint1_linear" x1="35.356" y1="34.5835" x2="64.644" y2="34.5835" gradientUnits="userSpaceOnUse">
<stop stop-color="#FF3C55"/>
<stop offset="0.514" stop-color="#FF3D56"/>
<stop offset="1" stop-color="#FF8B65"/>
</linearGradient>
<linearGradient id="paint2_linear" x1="35.8166" y1="63.3575" x2="61.6639" y2="63.3575" gradientUnits="userSpaceOnUse">
<stop stop-color="#FF3C55"/>
<stop offset="0.514" stop-color="#FF3C55"/>
<stop offset="1" stop-color="#FF8B65"/>
</linearGradient>
</defs>
</svg>
