<?xml version="1.0" encoding="utf-8"?>
<!-- Generator: Adobe Illustrator 25.4.1, SVG Export Plug-In . SVG Version: 6.00 Build 0)  -->
<svg version="1.1" id="Layer_1" xmlns="http://www.w3.org/2000/svg" xmlns:xlink="http://www.w3.org/1999/xlink" x="0px" y="0px"
	 viewBox="0 0 32 32" style="enable-background:new 0 0 32 32;" xml:space="preserve">
<style type="text/css">
	.st0{fill:#FF00A2;}
</style>
<path class="st0" d="M16,0C7.2,0,0,7.2,0,16s7.2,16,16,16c8.8,0,16-7.2,16-16S24.8,0,16,0z M31.1,15.6h-8.9
	c0.1-3.8,1.7-7.4,4.6-10.2C29.3,8,31,11.6,31.1,15.6z M16.4,15.6V0.9c3.7,0.1,7.1,1.6,9.7,3.9c-3,2.9-4.7,6.7-4.8,10.8H16.4z
	 M15.5,15.6h-4.9c-0.1-4.1-1.8-7.8-4.8-10.7c2.6-2.3,6-3.8,9.7-3.9V15.6z M15.5,16.4v14.7c-3.7-0.1-7.1-1.6-9.7-3.9
	c3-2.9,4.7-6.7,4.8-10.8H15.5z M16.4,16.4h4.9c0.1,4.1,1.8,7.9,4.8,10.8c-2.6,2.3-6,3.8-9.7,3.9V16.4z M5.2,5.4
	c2.8,2.7,4.5,6.3,4.6,10.1H0.9C1,11.6,2.6,8.1,5.2,5.4z M0.9,16.4h8.9c-0.1,3.8-1.7,7.4-4.6,10.2C2.6,24,1,20.4,0.9,16.4z
	 M26.8,26.6c-2.9-2.7-4.5-6.3-4.6-10.1h8.9C31,20.4,29.4,23.9,26.8,26.6z"/>
</svg>
