<svg width="100" height="100" viewBox="0 0 100 100" fill="none" xmlns="http://www.w3.org/2000/svg">
<path d="M17.948 45.9236C17.4764 45.7665 17.0284 45.688 16.6044 45.688C15.9285 45.688 15.3942 45.8727 15.0019 46.2418C14.6088 46.6113 14.3651 47.0784 14.2707 47.6441V55.8937H12.3854V44.1083H13.7054L14.0591 45.546H14.1535C14.4517 45.0121 14.809 44.5999 15.2257 44.3089C15.642 44.0184 16.1726 43.8727 16.8168 43.8727C17.2725 43.8727 17.7832 43.9512 18.3493 44.1083L17.948 45.9236Z" fill="black"/>
<path d="M22.4377 43.9903H23.7341L24.0877 45.4048H24.1817C24.5431 44.8546 25.0107 44.4347 25.584 44.1433C26.1574 43.8528 26.8133 43.7075 27.5523 43.7075C29.123 43.7075 30.2942 44.1714 31.0645 45.098C31.834 46.0258 32.2189 47.542 32.2189 49.647C32.2189 50.6375 32.0899 51.5294 31.8303 52.3225C31.5711 53.1169 31.2057 53.7883 30.7341 54.338C30.2632 54.8886 29.6931 55.3126 29.0254 55.6109C28.3572 55.9092 27.615 56.0593 26.7983 56.0593C26.2168 56.0593 25.757 56.0235 25.4192 55.9531C25.0811 55.8823 24.7156 55.7606 24.3229 55.5877V60.4912H22.4373V43.9903H22.4377ZM27.1991 45.358C26.3979 45.358 25.7651 45.5664 25.3016 45.9826C24.8381 46.3989 24.5122 47.0317 24.3234 47.8797V53.7256C24.6062 53.9458 24.9285 54.1146 25.2898 54.2322C25.6512 54.3494 26.1305 54.4092 26.7279 54.4092C27.8123 54.4092 28.6726 54.0044 29.309 53.1954C29.945 52.3864 30.2637 51.1966 30.2637 49.625C30.2637 48.9801 30.2083 48.3953 30.0984 47.8687C29.9882 47.3422 29.8116 46.8946 29.5682 46.5251C29.3241 46.1556 29.0099 45.8691 28.6254 45.6644C28.24 45.4601 27.7647 45.358 27.1991 45.358Z" fill="black"/>
<path d="M43.2274 54.9981C42.7562 55.3444 42.1983 55.6077 41.5537 55.788C40.9096 55.9686 40.2337 56.0594 39.5268 56.0594C38.6153 56.0594 37.845 55.9133 37.2167 55.6236C36.5876 55.3326 36.0737 54.9167 35.6728 54.3743C35.272 53.8319 34.9811 53.1796 34.8008 52.4174C34.6201 51.6552 34.5298 50.8108 34.5298 49.8831C34.5298 47.8879 34.9693 46.3595 35.8494 45.2986C36.7296 44.2378 37.9948 43.7072 39.6448 43.7072C40.3989 43.7072 41.0386 43.7662 41.5655 43.8842C42.0921 44.0022 42.5674 44.1715 42.9918 44.3912L42.4494 46.0177C42.088 45.8134 41.6872 45.6523 41.2473 45.5342C40.8074 45.4166 40.3354 45.3576 39.8328 45.3576C37.6017 45.3576 36.4859 46.8665 36.4859 49.8831C36.4859 50.4812 36.5449 51.0501 36.6625 51.5921C36.7805 52.1342 36.977 52.6139 37.2517 53.0294C37.5268 53.4465 37.8881 53.7802 38.3362 54.0317C38.7846 54.2823 39.338 54.4089 39.998 54.4089C40.5637 54.4089 41.0703 54.3226 41.5183 54.1501C41.9663 53.9767 42.3318 53.7802 42.6142 53.5608L43.2274 54.9981Z" fill="black"/>
<path d="M51.423 43.9903H52.7198L53.0726 45.4048H53.1671C53.5284 44.8546 53.9956 44.4347 54.5697 44.1433C55.1427 43.8528 55.799 43.7075 56.5376 43.7075C58.1088 43.7075 59.2795 44.1714 60.0502 45.098C60.8201 46.0258 61.2046 47.542 61.2046 49.647C61.2046 50.6375 61.0761 51.5294 60.8164 52.3225C60.5564 53.1169 60.1918 53.7883 59.7202 54.338C59.249 54.8886 58.6789 55.3126 58.0111 55.6109C57.3433 55.9092 56.6007 56.0593 55.7836 56.0593C55.2017 56.0593 54.7427 56.0235 54.4049 55.9531C54.0664 55.8823 53.7013 55.7606 53.3087 55.5877V60.4912H51.423V43.9903V43.9903ZM56.184 45.358C55.3828 45.358 54.75 45.5664 54.2869 45.9826C53.823 46.3989 53.4975 47.0317 53.3087 47.8797V53.7256C53.5911 53.9458 53.9134 54.1146 54.2751 54.2322C54.6365 54.3494 55.1154 54.4092 55.7128 54.4092C56.7972 54.4092 57.6571 54.0044 58.2943 53.1954C58.9303 52.3864 59.249 51.1966 59.249 49.625C59.249 48.9801 59.1936 48.3953 59.0842 47.8687C58.9739 47.3422 58.7973 46.8946 58.5539 46.5251C58.3098 46.1556 57.9956 45.8691 57.6111 45.6644C57.2249 45.4601 56.7504 45.358 56.184 45.358Z" fill="black"/>
<path d="M63.5148 49.8834C63.5148 47.8883 63.9587 46.3599 64.8458 45.299C65.7341 44.2381 67.0107 43.7075 68.6766 43.7075C69.5564 43.7075 70.3226 43.8528 70.9749 44.1433C71.6268 44.4343 72.1652 44.8506 72.5892 45.393C73.0132 45.935 73.3278 46.5869 73.5321 47.3487C73.7363 48.1113 73.8389 48.9556 73.8389 49.883C73.8389 51.8786 73.3941 53.4066 72.507 54.4678C71.6187 55.5287 70.3422 56.0593 68.6766 56.0593C67.796 56.0593 67.0302 55.9132 66.3787 55.6235C65.726 55.3326 65.1876 54.9167 64.764 54.3743C64.3396 53.8318 64.0247 53.1795 63.8212 52.4173C63.6165 51.6552 63.5148 50.8108 63.5148 49.8834ZM65.4709 49.8834C65.4709 50.4816 65.5299 51.0541 65.6479 51.6043C65.7659 52.1545 65.9502 52.6334 66.2013 53.0424C66.4528 53.4509 66.7828 53.7805 67.1913 54.0324C67.6003 54.2831 68.0951 54.4097 68.6766 54.4097C70.8134 54.4259 71.882 52.9166 71.882 49.8838C71.882 49.2706 71.823 48.6895 71.705 48.1393C71.5874 47.5896 71.4022 47.1106 71.1515 46.7017C70.9001 46.2931 70.5696 45.9676 70.1615 45.7234C69.7521 45.4805 69.2577 45.3584 68.6766 45.3584C66.539 45.3421 65.4709 46.8506 65.4709 49.8834Z" fill="black"/>
<path d="M76.1489 49.8834C76.1489 47.8883 76.5925 46.3599 77.4804 45.299C78.3687 44.2381 79.6448 43.7075 81.3104 43.7075C82.1901 43.7075 82.9564 43.8528 83.6087 44.1433C84.261 44.4343 84.7989 44.8506 85.2238 45.393C85.6478 45.935 85.9611 46.5869 86.1662 47.3487C86.3701 48.1113 86.473 48.9556 86.473 49.883C86.473 51.8786 86.0279 53.4066 85.1408 54.4678C84.2537 55.5291 82.9755 56.0593 81.3104 56.0593C80.431 56.0593 79.6648 55.9132 79.0125 55.6235C78.3602 55.3326 77.8222 54.9167 77.3974 54.3743C76.9738 53.8318 76.6592 53.1795 76.4549 52.4173C76.2507 51.6552 76.1489 50.8108 76.1489 49.8834ZM78.1046 49.8834C78.1046 50.4816 78.1632 51.0541 78.2816 51.6043C78.4004 52.1545 78.5844 52.6334 78.8359 53.0424C79.0865 53.4509 79.4169 53.7805 79.8263 54.0324C80.234 54.2831 80.7289 54.4097 81.3104 54.4097C83.4475 54.4259 84.5169 52.9166 84.5169 49.8838C84.5169 49.2706 84.4579 48.6895 84.3395 48.1393C84.2219 47.5896 84.0368 47.1106 83.7853 46.7017C83.5346 46.2931 83.2046 45.9676 82.7948 45.7234C82.3867 45.4805 81.8915 45.3584 81.3104 45.3584C79.174 45.3421 78.1046 46.8506 78.1046 49.8834Z" fill="black"/>
<path d="M91.5409 52.8764C91.5409 53.4278 91.6345 53.8204 91.8241 54.0552C92.0121 54.2908 92.2791 54.4089 92.6246 54.4089C92.8288 54.4089 93.049 54.393 93.285 54.3617C93.521 54.3303 93.7876 54.2599 94.0862 54.1501L94.2982 55.6341C94.0464 55.7607 93.6972 55.8624 93.25 55.9405C92.8016 56.0195 92.4126 56.0589 92.0829 56.0589C91.3761 56.0589 90.7946 55.8583 90.3385 55.4575C89.8831 55.0567 89.6556 54.3771 89.6556 53.4176V39.2761H91.5409V52.8764Z" fill="black"/>
<path d="M27.4083 28.2932C15.4699 28.2932 5.70166 38.0615 5.70166 50.0002C5.70166 61.9386 15.4699 71.7068 27.4083 71.7068C39.3471 71.7068 49.1153 61.9386 49.1153 50.0002C49.1153 38.0615 39.3471 28.2932 27.4083 28.2932ZM27.604 69.8207C16.945 69.8207 8.27261 60.9473 8.27261 50.0409C8.27261 39.1345 16.945 30.2615 27.604 30.2615C38.263 30.2615 46.9354 39.1349 46.9354 50.0409C46.9354 60.9473 38.263 69.8207 27.604 69.8207Z" fill="black"/>
</svg>
