<?xml version="1.0" encoding="utf-8"?>
<!-- Generator: Adobe Illustrator 25.3.1, SVG Export Plug-In . SVG Version: 6.00 Build 0)  -->
<svg version="1.1" id="Layer_1" xmlns="http://www.w3.org/2000/svg" xmlns:xlink="http://www.w3.org/1999/xlink" x="0px" y="0px"
	 viewBox="0 0 83.5 83.4" style="enable-background:new 0 0 83.5 83.4;" xml:space="preserve">
<style type="text/css">
	.st0{fill:none;stroke:url(#SVGID_1_);stroke-width:2;stroke-linecap:round;stroke-linejoin:round;}
	.st1{fill:url(#SVGID_2_);}
	.st2{fill:url(#SVGID_3_);}
	.st3{fill:url(#SVGID_4_);}
</style>
<linearGradient id="SVGID_1_" gradientUnits="userSpaceOnUse" x1="71.2571" y1="702.1429" x2="12.1071" y2="761.2929" gradientTransform="matrix(1 0 0 1 0 -690)">
	<stop  offset="0" style="stop-color:#FF159E"/>
	<stop  offset="1" style="stop-color:#856FFF"/>
</linearGradient>
<path class="st0" d="M72.3,47.8h10.2v-12H72.3c-0.8-4.1-2.4-8-4.7-11.4l7.2-7.2l-8.4-8.5l-7.2,7.2c-3.4-2.3-7.3-3.9-11.4-4.7V1h-12
	v10.2c-4.1,0.8-8,2.4-11.4,4.7l-7.2-7.2L8.7,17l7.2,7.2c-2.3,3.4-3.9,7.3-4.7,11.4H1v12h10.2c0.8,4.1,2.4,8,4.7,11.4l-7.2,7.2
	l8.5,8.5l7.2-7.2c3.4,2.3,7.3,3.9,11.4,4.7v10.2h12V72.2c4.1-0.8,8-2.4,11.4-4.7l7.2,7.2l8.5-8.5L67.7,59
	C70,55.6,71.5,51.8,72.3,47.8z"/>
<linearGradient id="SVGID_2_" gradientUnits="userSpaceOnUse" x1="24.4122" y1="716.7001" x2="24.4122" y2="747.2987" gradientTransform="matrix(1 0 0 1 0 -690)">
	<stop  offset="0" style="stop-color:#FF159E"/>
	<stop  offset="1" style="stop-color:#9F50C7"/>
</linearGradient>
<path class="st1" d="M26.8,56.9c-0.4-1.2-0.5-2.4-0.4-3.7v-4.7c0-2.8-0.9-3.8-3-3.8h-1.7V57H17V26.7h7.1c5,0,7,2.3,7,7v2.4
	c0,3-1,5.1-3,6.1c2.4,1,3.2,3.3,3.2,6.5v4.7c-0.1,1.2,0.1,2.5,0.5,3.7h-5V56.9z M21.7,31v9.3h1.8c1.8,0,2.8-0.8,2.8-3.2v-2.9
	c0-2.2-0.8-3-2.4-3h-2.2V31z"/>
<linearGradient id="SVGID_3_" gradientUnits="userSpaceOnUse" x1="41.0447" y1="716.7001" x2="41.0447" y2="747.2987" gradientTransform="matrix(1 0 0 1 0 -690)">
	<stop  offset="0" style="stop-color:#FF159E"/>
	<stop  offset="1" style="stop-color:#9F50C7"/>
</linearGradient>
<path class="st2" d="M38.9,26.7v23.4c0,2.2,0.9,2.9,2.4,2.9s2.4-0.8,2.4-2.9V26.7h4.4v23c0,4.8-2.4,7.6-7.1,7.6s-7.1-2.8-7.1-7.6
	v-23H38.9z"/>
<linearGradient id="SVGID_4_" gradientUnits="userSpaceOnUse" x1="58.9467" y1="716.7001" x2="58.9467" y2="747.2987" gradientTransform="matrix(1 0 0 1 0 -690)">
	<stop  offset="0" style="stop-color:#FF159E"/>
	<stop  offset="1" style="stop-color:#9F50C7"/>
</linearGradient>
<path class="st3" d="M55.8,35v21.8h-4.3V26.7h6l4.8,18v-18h4.2v30.2h-4.8L55.8,35z"/>
</svg>
