<svg width="100" height="100" viewBox="0 0 100 100" fill="none" xmlns="http://www.w3.org/2000/svg">
<circle cx="50" cy="50" r="46.52" fill="black" stroke="#6764FB" stroke-width="6.96"/>
<path fill-rule="evenodd" clip-rule="evenodd" d="M70.0001 32C70.0001 30.8955 69.1047 30 68.0001 30L37.9262 30C36.612 30 35.4621 30.1906 34.4765 30.5718C33.4909 30.9824 32.6695 31.5249 32.0124 32.1994C31.328 32.9032 30.8215 33.695 30.4929 34.5748C30.1644 35.4839 30.0001 36.4223 30.0001 37.39V41.1544C30.0001 43.8306 32.1695 46 34.8457 46H58.0001L46.0001 38H68.0001C69.1047 38 70.0001 37.1046 70.0001 36V32ZM29.999 68C29.999 69.1045 30.8945 70 31.999 70L62.073 70C63.3871 70 64.537 69.8094 65.5226 69.4282C66.5083 69.0176 67.3296 68.4751 67.9867 67.8006C68.6712 67.0968 69.1777 66.305 69.5062 65.4252C69.8347 64.5161 69.999 63.5777 69.999 62.61V58.8456C69.999 56.1694 67.8296 54 65.1535 54H41.999L53.999 62H31.999C30.8945 62 29.999 62.8954 29.999 64V68Z" fill="#6764FB"/>
</svg>
