<?xml version="1.0" standalone="no"?>
<!DOCTYPE svg PUBLIC "-//W3C//DTD SVG 20010904//EN"
 "http://www.w3.org/TR/2001/REC-SVG-20010904/DTD/svg10.dtd">
<svg version="1.0" xmlns="http://www.w3.org/2000/svg"
 width="3000.000000pt" height="3000.000000pt" viewBox="0 0 3000.000000 3000.000000"
 preserveAspectRatio="xMidYMid meet">

<g transform="translate(0.000000,3000.000000) scale(0.100000,-0.100000)"
fill="#000000" stroke="none">
<path d="M14400 28274 c-1040 -37 -1867 -138 -2844 -349 -146 -32 -554 -131
-616 -150 -25 -7 -106 -30 -180 -50 -391 -107 -960 -296 -1380 -459 -615 -239
-1287 -558 -1876 -889 -696 -390 -1339 -825 -1964 -1326 -1461 -1172 -2660
-2600 -3549 -4223 -274 -501 -594 -1198 -772 -1683 -112 -303 -221 -623 -274
-800 -88 -298 -112 -383 -161 -574 -483 -1880 -554 -3821 -207 -5731 162 -894
408 -1743 755 -2605 99 -246 130 -317 258 -595 743 -1609 1787 -3050 3115
-4299 274 -258 368 -341 383 -341 6 0 21 19 34 43 14 23 76 132 140 242 319
554 870 1596 1028 1946 110 241 186 451 231 636 12 48 26 93 31 99 6 9 23 8
66 -4 80 -22 191 -19 293 6 48 12 101 22 119 22 28 0 31 2 19 16 -7 8 -30 24
-50 35 -21 10 -64 40 -96 67 -77 63 -131 100 -228 151 -44 23 -94 58 -112 77
-23 24 -41 34 -63 34 -19 0 -72 24 -143 64 -162 92 -218 118 -352 165 -182 65
-310 130 -385 195 -131 115 -382 395 -570 636 -181 231 -224 306 -284 495 -58
182 -141 551 -201 890 -71 401 -87 487 -111 575 -34 132 -64 191 -189 375
-115 169 -167 270 -233 450 -76 207 -156 540 -167 690 -10 135 11 373 55 635
60 356 57 452 -26 755 -46 165 -64 276 -64 390 0 81 19 286 35 382 92 545 307
1257 684 2261 116 309 122 322 131 322 14 0 42 -83 41 -125 0 -22 -7 -60 -16
-85 -43 -121 -58 -205 -59 -325 0 -147 15 -213 84 -350 82 -165 170 -245 269
-245 46 0 95 21 104 44 15 40 -7 126 -63 246 -79 169 -93 222 -88 329 4 72 13
105 52 203 41 103 46 125 46 193 0 119 -69 308 -181 496 -24 40 -32 67 -33
104 -1 48 -2 50 -36 61 -39 13 -76 71 -155 245 -116 257 -178 503 -221 879
-23 196 -26 784 -6 955 47 385 106 653 267 1190 46 154 109 372 139 485 68
249 102 322 169 367 80 53 305 130 537 183 490 113 533 120 823 140 312 22
417 30 517 40 506 49 699 51 975 9 202 -30 467 -87 605 -131 215 -67 214 -66
502 -108 324 -47 500 -92 793 -202 172 -65 307 -128 376 -176 24 -16 79 -67
121 -112 42 -45 83 -80 90 -78 8 3 13 22 13 54 -1 104 -98 247 -226 335 -131
89 -452 232 -657 293 -167 50 -217 61 -507 111 -268 46 -460 98 -460 125 0 22
422 264 723 414 224 112 412 188 622 251 166 49 220 62 545 130 446 93 773
192 1135 343 433 180 790 308 1310 468 641 198 1121 307 1605 363 480 56 962
78 995 45 9 -9 6 -31 -9 -86 -47 -168 -7 -275 118 -317 87 -29 295 1 695 100
424 105 576 124 996 124 462 0 525 -13 695 -140 192 -144 265 -169 480 -168
77 0 185 6 240 12 552 63 938 54 1610 -35 183 -25 268 -38 640 -103 94 -16
224 -36 290 -46 470 -64 735 -118 735 -150 0 -7 -46 -37 -102 -66 -366 -187
-622 -346 -1063 -659 -251 -178 -376 -263 -700 -473 -218 -141 -311 -210 -362
-267 -32 -36 -55 -88 -48 -109 12 -38 36 -33 92 19 31 28 99 76 152 107 332
192 623 372 924 572 623 412 886 554 1497 803 338 138 405 167 565 243 491
235 637 280 940 291 88 3 214 1 280 -5 66 -6 224 -17 350 -26 305 -20 372 -29
403 -52 14 -10 73 -95 132 -188 58 -94 165 -258 236 -365 425 -635 566 -968
639 -1520 13 -96 26 -206 29 -245 19 -224 39 -431 57 -585 34 -299 48 -453 74
-815 33 -470 41 -552 75 -750 16 -93 36 -227 45 -297 9 -70 23 -165 31 -210
35 -188 34 -611 -1 -981 -22 -233 -20 -320 9 -383 24 -51 24 -56 18 -259 -3
-121 0 -282 7 -384 6 -97 16 -237 21 -311 5 -74 14 -247 20 -385 15 -364 27
-505 75 -950 44 -393 68 -647 80 -815 3 -47 10 -141 16 -210 40 -523 28 -752
-56 -1078 -76 -291 -159 -473 -406 -897 -278 -476 -335 -584 -521 -995 -68
-148 -334 -760 -385 -884 -78 -188 -221 -441 -363 -641 -344 -483 -578 -730
-1130 -1195 -280 -235 -397 -370 -519 -600 -80 -151 -138 -226 -267 -349 -151
-145 -276 -235 -570 -411 -142 -85 -284 -174 -315 -197 -69 -50 -155 -137
-215 -215 -50 -64 -147 -218 -142 -223 2 -2 26 11 53 30 57 39 135 67 250 90
129 25 230 62 385 139 245 122 414 232 576 374 46 39 90 72 97 72 16 0 211
-250 347 -444 242 -345 451 -760 600 -1191 99 -288 227 -770 316 -1192 l48
-232 26 16 c27 18 71 55 310 263 751 654 1428 1377 2006 2140 509 673 976
1424 1344 2160 77 155 274 580 333 720 63 149 138 333 157 385 10 28 35 93 55
145 240 625 461 1390 599 2080 30 148 83 438 90 495 3 22 15 96 26 165 69 439
127 1106 140 1625 27 1094 -84 2248 -315 3260 -39 172 -98 416 -115 475 -10
36 -35 126 -55 200 -263 955 -679 1973 -1170 2860 -114 207 -122 221 -262 455
-594 992 -1306 1893 -2164 2740 -382 377 -689 651 -1094 976 -1259 1012 -2697
1813 -4235 2361 -236 84 -384 134 -510 173 -41 12 -127 38 -190 58 -1103 336
-2360 555 -3555 617 -202 11 -1040 20 -1215 14z"/>
<path d="M24015 21855 c-87 -20 -170 -50 -445 -163 -407 -166 -536 -229 -890
-430 -424 -241 -550 -329 -550 -385 0 -27 23 -57 43 -57 7 0 91 41 187 90 657
340 1012 499 1380 618 206 67 241 75 345 79 97 5 101 4 146 -25 80 -52 184
-217 373 -592 153 -306 234 -527 271 -744 16 -92 32 -266 60 -621 24 -305 37
-351 138 -486 l52 -69 37 42 c116 133 134 255 108 738 -25 470 -96 745 -290
1125 -133 259 -325 567 -436 699 -70 83 -177 159 -254 180 -68 19 -192 19
-275 1z"/>
<path d="M7370 20665 c-206 -30 -434 -120 -625 -248 -109 -73 -391 -285 -498
-376 -131 -110 -237 -245 -280 -359 -21 -55 -22 -71 -22 -442 1 -225 6 -443
13 -525 26 -287 53 -554 67 -670 27 -222 46 -389 55 -480 13 -142 30 -185 71
-185 70 0 74 176 19 680 -62 563 -83 893 -76 1180 6 249 14 316 42 377 26 57
175 198 303 288 63 44 203 144 310 222 286 208 478 300 676 325 77 10 118 9
246 -5 200 -22 289 -42 609 -131 549 -155 686 -178 955 -166 52 2 88 -1 103
-9 33 -18 39 -6 15 27 -54 73 -209 171 -333 211 -131 42 -789 212 -935 242
-150 31 -428 59 -560 58 -38 -1 -108 -7 -155 -14z"/>
<path d="M18120 18266 c-123 -33 -219 -149 -289 -350 -111 -318 -61 -570 155
-777 237 -227 701 -408 1156 -450 358 -33 1371 48 1695 136 194 53 384 154
466 247 41 46 62 61 106 75 71 22 106 54 91 83 -29 53 -93 68 -385 90 -416 31
-703 86 -1046 200 -399 133 -809 302 -1254 517 -481 233 -572 263 -695 229z"/>
<path d="M12866 17583 c-4 -4 -37 -8 -74 -8 -40 -1 -79 -8 -97 -17 -59 -31
-235 -201 -468 -451 -407 -436 -687 -701 -968 -912 -310 -233 -522 -351 -996
-554 -259 -110 -270 -116 -278 -141 -9 -28 11 -59 43 -66 15 -4 41 -17 58 -29
67 -50 324 -122 539 -150 392 -52 781 -35 1138 49 458 108 967 374 1264 659
196 188 301 377 368 662 32 136 38 217 25 315 -34 245 -219 539 -397 629 -42
21 -141 30 -157 14z"/>
<path d="M19189 16161 c-80 -22 -168 -61 -212 -95 -19 -14 -40 -26 -47 -26 -7
0 -11 -3 -7 -6 3 -4 21 -1 38 5 19 7 36 8 42 2 5 -5 -2 -11 -17 -15 -42 -10
-236 -107 -330 -163 -250 -152 -453 -361 -560 -577 -79 -162 -106 -283 -106
-482 0 -233 42 -405 155 -639 165 -340 451 -664 716 -809 140 -76 272 -108
459 -109 362 -2 702 139 969 403 189 186 311 388 413 685 78 224 93 310 93
530 0 167 -3 200 -23 275 -50 186 -156 353 -328 520 -109 106 -175 157 -296
231 -45 27 -97 65 -116 83 -46 47 -200 109 -427 173 -123 34 -319 41 -416 14z"/>
<path d="M12220 15120 c-131 -11 -207 -36 -383 -122 -316 -155 -518 -321 -688
-565 -220 -317 -271 -692 -144 -1070 72 -216 183 -393 355 -563 270 -270 576
-426 897 -459 463 -48 923 237 1243 769 119 197 248 492 297 680 37 139 43
351 14 472 -52 219 -191 412 -399 551 -105 70 -277 150 -447 206 -178 59 -310
88 -472 101 -129 11 -147 11 -273 0z"/>
<path d="M15790 13694 c-55 -9 -110 -31 -205 -78 -90 -45 -162 -73 -232 -91
-114 -28 -323 -96 -455 -148 -258 -102 -417 -253 -558 -530 -40 -78 -83 -156
-96 -173 -32 -44 -111 -94 -234 -149 -138 -62 -222 -117 -321 -212 -202 -192
-523 -633 -517 -708 4 -41 39 -46 65 -10 123 177 330 432 443 545 143 144 220
193 404 257 229 79 298 139 400 348 76 155 108 207 180 283 62 66 128 115 205
152 103 50 348 115 552 145 120 18 163 36 244 99 90 71 148 95 256 107 122 14
324 5 421 -20 105 -27 185 -70 401 -214 252 -169 250 -168 522 -178 247 -8
275 -11 394 -45 167 -47 256 -100 371 -220 256 -267 286 -296 337 -320 58 -29
109 -33 238 -20 76 8 83 7 135 -19 37 -19 102 -74 200 -169 84 -83 162 -149
185 -160 22 -10 58 -26 80 -37 52 -25 60 -15 60 74 0 93 -26 138 -144 256
-109 109 -201 175 -299 214 -71 28 -87 31 -207 31 -104 1 -136 5 -163 19 -18
10 -101 87 -185 171 -83 84 -179 171 -212 193 -206 139 -433 193 -810 193 -90
0 -166 5 -186 12 -43 15 -163 87 -304 184 -127 87 -284 167 -370 189 -162 42
-446 56 -595 29z"/>
<path d="M16375 12741 c-159 -57 -309 -185 -463 -393 -40 -53 -76 -99 -81
-102 -4 -3 -32 10 -62 29 -127 82 -279 99 -460 52 -193 -50 -351 -158 -415
-285 -28 -55 -29 -62 -29 -197 0 -132 2 -145 33 -235 65 -187 160 -333 342
-523 237 -248 455 -424 571 -462 30 -10 58 -21 62 -25 5 -4 -1 -75 -12 -156
-12 -82 -28 -216 -36 -299 -18 -182 -25 -233 -36 -261 -4 -12 -61 -63 -126
-112 -391 -299 -636 -605 -867 -1083 -92 -191 -209 -475 -251 -611 -33 -107
-33 -209 1 -255 34 -46 82 -73 131 -73 60 0 101 19 145 68 50 55 78 115 183
382 157 397 319 696 497 913 119 146 349 353 498 450 30 20 73 52 95 71 47 42
92 51 209 42 298 -24 539 -98 871 -266 336 -169 492 -295 579 -469 52 -104 86
-209 116 -354 24 -120 41 -156 90 -201 91 -82 223 -53 290 65 49 87 28 273
-60 524 -112 319 -310 518 -705 710 -367 178 -683 269 -975 281 -110 5 -167 3
-235 -9 -69 -12 -91 -13 -98 -4 -4 7 -5 55 -3 107 3 52 8 192 12 310 8 321 6
312 109 423 177 193 306 382 424 627 164 341 219 572 193 811 -30 266 -135
451 -289 509 -69 26 -179 26 -248 1z m158 -330 c61 -73 79 -302 37 -461 -72
-269 -264 -622 -462 -849 -137 -157 -173 -172 -269 -110 -134 85 -459 378
-559 504 -136 171 -199 384 -141 478 29 47 103 94 199 124 66 21 92 24 177 21
89 -3 106 -7 150 -32 28 -16 77 -56 111 -88 71 -68 96 -73 175 -33 55 28 84
56 271 257 123 131 230 218 268 218 10 0 29 -13 43 -29z"/>
<path d="M11904 11971 c-38 -23 -69 -85 -188 -378 -192 -472 -310 -843 -368
-1152 -39 -211 -35 -461 9 -636 50 -203 171 -378 300 -437 75 -34 199 -32 275
5 150 73 263 272 330 577 20 94 22 132 22 350 0 297 -10 362 -119 840 -83 359
-98 412 -147 500 l-32 59 17 83 c26 128 20 175 -30 197 -31 14 -33 14 -69 -8z
m-59 -813 c3 -18 17 -96 30 -173 14 -77 37 -205 51 -285 46 -265 50 -544 10
-730 -36 -166 -104 -314 -151 -326 -98 -25 -205 229 -205 487 0 207 58 496
175 875 58 186 78 220 90 152z"/>
<path d="M7283 7289 c-18 -5 -40 -21 -49 -35 -16 -23 -15 -26 1 -44 10 -11 24
-20 31 -20 22 0 414 -150 509 -195 100 -47 175 -90 380 -222 352 -226 694
-411 1080 -583 294 -132 708 -327 959 -452 290 -145 291 -145 1041 -268 751
-122 836 -131 1216 -133 272 -2 302 0 397 21 57 12 146 25 198 29 52 3 94 9
94 13 0 9 -254 135 -330 164 -105 39 -196 53 -530 86 -791 76 -845 83 -1295
160 -165 29 -341 65 -391 81 -57 18 -257 112 -535 252 -244 123 -570 279 -724
347 -154 68 -521 244 -815 391 -294 147 -578 283 -630 302 -214 80 -520 133
-607 106z"/>
<path d="M13430 5500 c-24 -24 -24 -29 -4 -58 47 -67 283 -137 714 -211 285
-49 470 -70 830 -96 118 -8 276 -20 350 -26 74 -6 317 -15 540 -19 223 -5 425
-13 450 -19 25 -5 102 -14 171 -21 176 -17 298 -5 702 70 167 30 255 40 472
50 263 13 482 52 610 110 33 14 106 54 162 88 56 34 107 62 113 62 5 0 10 6
10 13 0 10 -24 17 -72 25 -40 6 -107 18 -148 27 -88 19 -219 17 -545 -9 -115
-9 -275 -21 -355 -27 -80 -6 -215 -22 -300 -35 -406 -64 -417 -66 -585 -60
-88 2 -196 10 -240 17 -53 7 -202 11 -440 10 -417 -2 -1013 13 -1330 35 -210
13 -281 20 -510 43 -582 60 -567 59 -595 31z"/>
</g>
</svg>
