<svg width="100" height="100" viewBox="0 0 100 100" fill="none" xmlns="http://www.w3.org/2000/svg">
<g clip-path="url(#clip0)">
<path d="M66.4445 21.2222C66.4445 27.3889 59.0816 33.5556 50.0001 33.5556C40.9187 33.5556 33.5557 27.3889 33.5557 21.2222C33.5557 12.1408 45.889 13 50.0001 13C54.1112 13 66.4445 12.1408 66.4445 21.2222Z" fill="#66757F"/>
<path d="M62.9625 37.6667H37.0379C35.0275 37.6667 33.3132 39.12 32.9823 41.1015L26.1311 82.2126C25.7138 84.7184 27.646 87 30.1867 87H69.8137C72.3544 87 74.2866 84.7184 73.8693 82.2126L67.0181 41.1015C66.6872 39.12 64.9708 37.6667 62.9625 37.6667V37.6667Z" fill="#CCD6DD"/>
<path d="M52.7627 41.7778H38.7808C37.7756 41.7778 36.9184 42.5034 36.754 43.4962L30.5873 80.4962C30.3756 81.748 31.3417 82.8889 32.612 82.8889H54.0453L52.7627 41.7778ZM63.248 43.4962C63.0836 42.5034 62.2244 41.7778 61.2213 41.7778H56.2612L58.1297 82.8889H67.39C68.6603 82.8889 69.6264 81.748 69.4168 80.4962L63.248 43.4962V43.4962Z" fill="#F5F8FA"/>
<path d="M43.8334 17.3167C45.1957 17.3167 46.3 16.7645 46.3 16.0834C46.3 15.4022 45.1957 14.85 43.8334 14.85C42.4711 14.85 41.3667 15.4022 41.3667 16.0834C41.3667 16.7645 42.4711 17.3167 43.8334 17.3167Z" fill="#CCD6DD"/>
<path d="M56.1664 17.3167C57.5287 17.3167 58.633 16.7645 58.633 16.0834C58.633 15.4022 57.5287 14.85 56.1664 14.85C54.8041 14.85 53.6997 15.4022 53.6997 16.0834C53.6997 16.7645 54.8041 17.3167 56.1664 17.3167Z" fill="#CCD6DD"/>
<path d="M49.9999 21.4278C51.3622 21.4278 52.4665 20.8756 52.4665 20.1945C52.4665 19.5133 51.3622 18.9611 49.9999 18.9611C48.6376 18.9611 47.5332 19.5133 47.5332 20.1945C47.5332 20.8756 48.6376 21.4278 49.9999 21.4278Z" fill="#CCD6DD"/>
<path d="M64.3891 37.6667H35.6113V32.5853C35.6113 30.8504 37.0173 29.9912 38.7522 29.9912H61.2482C62.9831 29.9912 64.3891 30.8504 64.3891 32.5853V37.6667Z" fill="#66757F"/>
<path d="M61.2482 29.4445H38.7522C37.4017 29.4445 36.2588 30.3016 35.8148 31.5H64.1835C63.7416 30.3016 62.6008 29.4445 61.2482 29.4445V29.4445ZM35.6113 33.5556H64.3891V35.6111H35.6113V33.5556ZM35.6113 37.6667H64.3891V38.6945H35.6113V37.6667Z" fill="#CCD6DD"/>
</g>
<defs>
<clipPath id="clip0">
<rect width="74" height="74" fill="white" transform="translate(13 13)"/>
</clipPath>
</defs>
</svg>
