<svg id="Layer_1" data-name="Layer 1" xmlns="http://www.w3.org/2000/svg" width="100" height="100" viewBox="0 0 100 100">
  <defs>
    <style>
      .cls-1 {
        fill: #cb304d;
      }

      .cls-2 {
        fill: #fff;
      }

      .cls-3 {
        fill: #0fa511;
      }

      .cls-4 {
        fill: #8b5830;
      }

      .cls-5 {
        fill: #f5e61d;
      }

      .cls-6 {
        fill: #496389;
      }

      .cls-7 {
        fill: #17c376;
      }
    </style>
  </defs>
  <g>
    <g>
      <rect class="cls-1" x="58.01" y="17.54" width="34.72" height="11.08" transform="translate(9.19 -19.75) rotate(15.88)"/>
      <g>
        <path class="cls-2" d="M67.45,20.65a3,3,0,0,1,.27.32,2.46,2.46,0,0,1,.21.43,1.66,1.66,0,0,1,.1.52,2,2,0,0,1-.08.62,2.68,2.68,0,0,1-.54,1.07,2,2,0,0,1-.78.54,2.46,2.46,0,0,1-.95.14,4.74,4.74,0,0,1-1-.18l-3.31-.94a.28.28,0,0,1-.16-.12.28.28,0,0,1,0-.2l2-7.15a.23.23,0,0,1,.13-.16.21.21,0,0,1,.19,0l3.16.9a3.86,3.86,0,0,1,.93.38,2.31,2.31,0,0,1,.71.59,2,2,0,0,1,.38.81,2.14,2.14,0,0,1-.07,1.05,1.43,1.43,0,0,1-.46.75,2.28,2.28,0,0,1-.67.4C67.34,20.46,67.33,20.54,67.45,20.65ZM64.76,19l1,.28a.4.4,0,0,0,.38-.07.57.57,0,0,0,.23-.32.41.41,0,0,0-.06-.37.51.51,0,0,0-.25-.22L65,18a.25.25,0,0,0-.32.18l-.14.48a.25.25,0,0,0,.18.32Zm.61,2-1.1-.31a.27.27,0,0,0-.2,0,.24.24,0,0,0-.12.16l-.17.59a.23.23,0,0,0,0,.2.27.27,0,0,0,.15.13l1.18.33a.54.54,0,0,0,.4-.06.5.5,0,0,0,.27-.32.6.6,0,0,0-.06-.42A.54.54,0,0,0,65.37,21.05Z"/>
        <path class="cls-2" d="M72,20.29l-.12.44a.25.25,0,0,0,.18.32l2.83.81a.28.28,0,0,1,.16.12.28.28,0,0,1,0,.2l-.41,1.44a.25.25,0,0,1-.12.16.23.23,0,0,1-.2,0L71.54,23a.27.27,0,0,0-.2,0,.26.26,0,0,0-.13.16l-.11.39a.27.27,0,0,0,0,.2.26.26,0,0,0,.16.13l3.25.92a.26.26,0,0,1,.16.13.25.25,0,0,1,0,.19l-.41,1.45a.23.23,0,0,1-.12.15.24.24,0,0,1-.2,0l-5.32-1.52a.25.25,0,0,1-.16-.12.23.23,0,0,1,0-.2l2-7.15a.26.26,0,0,1,.13-.16.25.25,0,0,1,.19,0l5.33,1.51a.22.22,0,0,1,.15.13.24.24,0,0,1,0,.2l-.41,1.42a.23.23,0,0,1-.12.15.24.24,0,0,1-.2,0l-3.25-.93a.27.27,0,0,0-.2,0A.29.29,0,0,0,72,20.29Z"/>
        <path class="cls-2" d="M82.2,22.91l-1.47-.42a.24.24,0,0,0-.2,0,.23.23,0,0,0-.12.15L78.92,27.9a.28.28,0,0,1-.12.16.23.23,0,0,1-.2,0L77,27.64a.29.29,0,0,1-.16-.13.27.27,0,0,1,0-.2l1.49-5.22a.27.27,0,0,0,0-.2.24.24,0,0,0-.16-.13l-1.48-.42a.25.25,0,0,1-.16-.12.24.24,0,0,1,0-.2l.4-1.42a.25.25,0,0,1,.12-.16.24.24,0,0,1,.2,0L82.74,21a.27.27,0,0,1,.17.12.27.27,0,0,1,0,.2l-.4,1.42a.28.28,0,0,1-.12.16A.23.23,0,0,1,82.2,22.91Z"/>
        <path class="cls-2" d="M85.17,21.94a.35.35,0,0,1,.19-.12.37.37,0,0,1,.23,0l1.47.42a.36.36,0,0,1,.18.12.38.38,0,0,1,.1.2l1,8a.26.26,0,0,1-.07.2.25.25,0,0,1-.26,0l-1.79-.51a.41.41,0,0,1-.19-.13.56.56,0,0,1-.11-.2l-.1-.71a.47.47,0,0,0-.11-.21.36.36,0,0,0-.18-.12l-2.21-.63a.37.37,0,0,0-.23,0,.35.35,0,0,0-.19.12l-.47.54a.31.31,0,0,1-.19.12.34.34,0,0,1-.22,0l-1.8-.51-.1-.05a.18.18,0,0,1-.08-.09.37.37,0,0,1,0-.12.29.29,0,0,1,.08-.14Zm-.67,4.72.93.27a.17.17,0,0,0,.17,0,.14.14,0,0,0,0-.16c0-.19,0-.42-.08-.68s-.06-.51-.08-.73,0-.12-.07-.13-.08,0-.12.07l-.88,1.12a.15.15,0,0,0,0,.16C84.37,26.6,84.42,26.64,84.5,26.66Z"/>
      </g>
    </g>
    <g>
      <polygon class="cls-3" points="21.94 24.62 27.53 17.91 43.57 16.41 50.66 17.53 49.17 26.86 43.57 32.08 34.25 33.95 27.53 33.95 20.82 25.37 21.94 24.62"/>
      <polygon class="cls-4" points="12.98 22.38 18.58 21.26 27.53 33.2 27.61 36.96 24.92 38.42 20.44 37.68 10.37 28.72 12.98 22.38"/>
      <path class="cls-5" d="M57.69,26.49H46.22a13.83,13.83,0,0,1-6.41,5.57,13.3,13.3,0,0,1-5.33,1.08H29.3a15.68,15.68,0,0,0-1.47-1.85c-.55-.59-1.12-1.17-1.72-1.74s-1.19-1.13-1.79-1.67-1-.93-1.46-1.39H19.63l.19.19,3.23,3.23,3.22,3.23c.36.36.68.69.94,1a1.9,1.9,0,0,1,.4,1.29,2.29,2.29,0,0,1-2.29,2.29,2.75,2.75,0,0,1-.73-.11,1.7,1.7,0,0,1-.64-.34q-.86-.8-1.65-1.65c-.53-.57-1.07-1.13-1.62-1.69l-3.06-3-1.28-1.27V67.83l18,18,.89.32H71A14,14,0,0,0,73.87,84a15,15,0,0,0,1.41-1.67V44.08Z"/>
      <path d="M52,24.58a31.76,31.76,0,0,1,7.13,2.29,33.39,33.39,0,0,1,6.25,3.77A32.38,32.38,0,0,1,74.5,41.73,31.39,31.39,0,0,1,77.89,56V74.29a13.26,13.26,0,0,1-1.08,5.33,13.77,13.77,0,0,1-7.3,7.3A13.26,13.26,0,0,1,64.18,88H45.9a31.49,31.49,0,0,1-8.51-1.14A32.09,32.09,0,0,1,15.05,64.51,31.09,31.09,0,0,1,13.9,56V37.72a13,13,0,0,1,.48-3.53l-.6-.57c-.56-.51-1.1-1-1.63-1.56a12.87,12.87,0,0,1-1.41-1.67,8.83,8.83,0,0,1-1-1.89,6.18,6.18,0,0,1-.4-2.23,6.64,6.64,0,0,1,.54-2.67,6.81,6.81,0,0,1,1.48-2.16A7.1,7.1,0,0,1,13.52,20a6.64,6.64,0,0,1,2.67-.54,7.18,7.18,0,0,1,2.42.43,6.61,6.61,0,0,1,2.1,1.26,18.45,18.45,0,0,1,6.2-4.63,17.93,17.93,0,0,1,7.57-1.64H52.77c0,.55,0,1.1,0,1.64s0,1.09,0,1.64c0,1.08-.06,2.16-.16,3.24A17.06,17.06,0,0,1,52,24.58ZM25.32,37.72a2.29,2.29,0,0,0,2.29-2.29,1.9,1.9,0,0,0-.4-1.29c-.26-.31-.58-.64-.94-1l-3.22-3.23-3.23-3.23q-.32-.32-.72-.78c-.26-.3-.54-.6-.84-.89a5.87,5.87,0,0,0-1-.73,2,2,0,0,0-1-.3,2.42,2.42,0,0,0-1.69.65,2.18,2.18,0,0,0-.7,1.64,2.21,2.21,0,0,0,.67,1.62q1.53,1.53,3.05,3l3.06,3c.55.56,1.09,1.12,1.62,1.69s1.08,1.12,1.65,1.65a1.7,1.7,0,0,0,.64.34A2.75,2.75,0,0,0,25.32,37.72Zm48,36.57V56a26.61,26.61,0,0,0-.91-7,27.51,27.51,0,0,0-2.56-6.35,27,27,0,0,0-4-5.45A27.53,27.53,0,0,0,54.48,30a26.85,26.85,0,0,0-6.93-1.34A14.25,14.25,0,0,1,45,31.49a16.11,16.11,0,0,1-3.18,2.14A16.6,16.6,0,0,1,38.26,35a15.64,15.64,0,0,1-3.78.46H29.9a4.38,4.38,0,0,1-1.34,3.21,4.09,4.09,0,0,1-1.48,1,4.61,4.61,0,0,1-1.76.35,4.2,4.2,0,0,1-1.91-.46,8.85,8.85,0,0,1-1.68-1.16,17.69,17.69,0,0,1-1.5-1.5c-.47-.53-.92-1-1.37-1.46a3.76,3.76,0,0,0-.33,1.13,9.17,9.17,0,0,0-.08,1.16V56a26.6,26.6,0,0,0,1,7.28,28.13,28.13,0,0,0,2.76,6.55,26.61,26.61,0,0,0,4.3,5.55,27.83,27.83,0,0,0,5.56,4.28,28.13,28.13,0,0,0,6.55,2.76,26.67,26.67,0,0,0,7.29,1H64.18a8.86,8.86,0,0,0,3.57-.72,9.1,9.1,0,0,0,2.89-2,9.22,9.22,0,0,0,2-2.9A9,9,0,0,0,73.31,74.29Zm-44-41.15h5.18a13.3,13.3,0,0,0,5.33-1.08,13.92,13.92,0,0,0,4.35-2.94,14.17,14.17,0,0,0,3-4.36,13.3,13.3,0,0,0,1.08-5.33H34.48a13.45,13.45,0,0,0-11.86,6.81c.53.55,1.09,1.1,1.7,1.64s1.2,1.09,1.79,1.67,1.17,1.15,1.72,1.74A15.68,15.68,0,0,1,29.3,33.14Z"/>
      <polygon class="cls-6" points="45.81 66.4 28.65 67.15 24.17 46.26 53.64 46.26 45.81 66.4"/>
      <polygon class="cls-6" points="87.59 66.4 70.43 67.15 65.95 46.26 90.2 46.26 87.59 66.4"/>
      <path d="M13.94,44.39v5.15h7.2l.34,4.59a17.31,17.31,0,0,0,17.26,16h0c5.94,0,11.11-3.42,12.52-8.28l4.28-12.31h7.4l4.28,12.31c1.41,4.86,6.58,8.28,12.52,8.28h.75a10.86,10.86,0,0,0,10.83-10l.8-10.54h2.56V44.39ZM48,57.08A10.87,10.87,0,0,1,37.49,65h0a10.87,10.87,0,0,1-10.83-9.92l-.48-5.52h23.9Zm38.64-2C86.1,60.67,86.62,65,81,65h0a10.87,10.87,0,0,1-10.46-7.9L68.4,49.54H87.07Z"/>
      <rect class="cls-7" x="28.28" y="49.99" width="1.72" height="8.95"/>
      <rect class="cls-1" x="30.64" y="49.99" width="1.72" height="2.16"/>
      <rect class="cls-1" x="33.01" y="52.23" width="1.72" height="9.33"/>
      <rect class="cls-7" x="35.37" y="57.82" width="1.72" height="3.73"/>
      <rect class="cls-7" x="37.74" y="49.61" width="1.72" height="8.21"/>
      <rect class="cls-1" x="40.1" y="57.82" width="1.72" height="3.36"/>
      <rect class="cls-7" x="42.47" y="55.57" width="1.72" height="5.61"/>
      <rect class="cls-7" x="44.84" y="51.11" width="1.72" height="4.48"/>
      <rect class="cls-1" x="47.07" y="51.11" width="1.72" height="1.49"/>
      <rect class="cls-7" x="84" y="49.99" width="1.72" height="8.95" transform="translate(169.73 108.93) rotate(180)"/>
      <rect class="cls-1" x="81.64" y="49.99" width="1.72" height="2.16" transform="translate(165 102.13) rotate(180)"/>
      <rect class="cls-1" x="79.27" y="52.23" width="1.72" height="11.19" transform="translate(160.27 115.64) rotate(180)"/>
      <rect class="cls-7" x="76.91" y="57.07" width="1.72" height="6.34" transform="translate(155.54 120.49) rotate(180)"/>
      <rect class="cls-7" x="74.54" y="49.61" width="1.72" height="7.46" transform="translate(150.8 106.69) rotate(180)"/>
      <rect class="cls-1" x="72.18" y="57.07" width="1.72" height="2.98" transform="translate(146.07 117.13) rotate(180)"/>
    </g>
    <path d="M48.38,48.65a1.5,1.5,0,0,0,0-3,1.5,1.5,0,0,0,0,3Z"/>
  </g>
</svg>
