<?xml version="1.0" encoding="utf-8"?>
<!-- Generator: Adobe Illustrator 25.4.1, SVG Export Plug-In . SVG Version: 6.00 Build 0)  -->
<svg version="1.1" id="layer1" xmlns="http://www.w3.org/2000/svg" xmlns:xlink="http://www.w3.org/1999/xlink" x="0px" y="0px"
	 viewBox="0 0 500 500" style="enable-background:new 0 0 500 500;" xml:space="preserve">
<style type="text/css">
	.st0{fill:#AFBAFF;stroke:#000000;stroke-width:1.5;stroke-linejoin:round;stroke-miterlimit:10;}
	.st1{fill:#ABE6CF;stroke:#000000;stroke-width:1.5;stroke-linejoin:round;stroke-miterlimit:10;}
	.st2{fill:#D8B171;stroke:#000000;stroke-width:1.5;stroke-linejoin:round;stroke-miterlimit:10;}
	.st3{fill:url(#SVGID_1_);stroke:#000000;stroke-width:2;stroke-linejoin:round;stroke-miterlimit:10;}
	.st4{fill:#ADADAF;stroke:#000000;stroke-width:1.5;stroke-linejoin:round;stroke-miterlimit:10;}
	
		.st5{fill:url(#SVGID_00000106858007726071341890000007576794696925626794_);stroke:#000000;stroke-width:2;stroke-linejoin:round;stroke-miterlimit:10;}
	
		.st6{fill:url(#SVGID_00000097496209384940346900000014531490427267573679_);stroke:#000000;stroke-width:2;stroke-linejoin:round;stroke-miterlimit:10;}
	
		.st7{fill:url(#SVGID_00000103264740058571064400000002406918737254169749_);stroke:#000000;stroke-width:2;stroke-linejoin:round;stroke-miterlimit:10;}
	.st8{opacity:0.4;fill:#91A9A9;}
	.st9{display:none;fill:#C7D3D3;stroke:#000000;stroke-width:1.5;stroke-linejoin:round;stroke-miterlimit:10;}
	.st10{fill:none;stroke:#000000;stroke-linejoin:round;stroke-miterlimit:10;}
	
		.st11{fill:url(#SVGID_00000041290191259423011070000016506438107733218456_);stroke:#000000;stroke-width:2;stroke-linejoin:round;stroke-miterlimit:10;}
	.st12{fill:none;stroke:#000000;stroke-width:1.5;stroke-linejoin:round;stroke-miterlimit:10;}
	.st13{fill:#8650FF;stroke:#000000;stroke-width:1.5;stroke-linejoin:round;stroke-miterlimit:10;}
	.st14{fill:#666FFF;stroke:#000000;stroke-width:1.5;stroke-linejoin:round;stroke-miterlimit:10;}
	.st15{fill:#00CD75;stroke:#000000;stroke-width:1.5;stroke-linejoin:round;stroke-miterlimit:10;}
	.st16{display:none;fill:url(#SVGID_00000071524351298616792740000005119848722845222572_);}
	
		.st17{fill:url(#SVGID_00000035493891734193571550000002606486339294008987_);stroke:#000000;stroke-width:1.5;stroke-linejoin:round;stroke-miterlimit:10;}
	.st18{fill:#E54B46;stroke:#000000;stroke-width:1.5;stroke-linejoin:round;stroke-miterlimit:10;}
	.st19{fill:#D8B171;stroke:#000000;stroke-width:2;stroke-linejoin:round;stroke-miterlimit:10;}
	.st20{fill:#CCCCCC;stroke:#000000;stroke-width:2;stroke-linejoin:round;stroke-miterlimit:10;}
	.st21{fill:#A87966;stroke:#000000;stroke-width:2;stroke-linejoin:round;stroke-miterlimit:10;}
	.st22{fill:#914B46;stroke:#000000;stroke-width:2;stroke-linejoin:round;stroke-miterlimit:10;}
	
		.st23{fill:url(#SVGID_00000009584025825754288510000009474513085752326790_);stroke:#000000;stroke-width:2;stroke-linejoin:round;stroke-miterlimit:10;}
	.st24{fill:#ADADAF;stroke:#000000;stroke-width:2;stroke-linejoin:round;stroke-miterlimit:10;}
</style>
<path class="st0" d="M102.24,83.77l2.66-9.8c-1.15-1.84-2.42-3.75-3.78-5.67c-2.42,4.36-5.11,9.39-5.11,9.39s1.7-6.38,3.15-12.12
	c-2.15-2.94-4.41-5.86-6.62-8.61l-5.14,7.35c0.73-1.62,1.66-6.97,2.27-10.87c-0.28-0.34-0.56-0.68-0.84-1.02l-5.53,12.42
	c0.54-1.32,1.95-9.14,3.02-15.41c-4.11-4.83-7.08-8.08-7.08-8.08c0.33,4.68-6.17,20.96-6.17,20.96l-21.71,2.34
	c0.37,0.47,1.35,1.57,2.74,3.09l17.42,4.65c-2.37,0.24-8.45,0.19-12.98,0.12c2.73,2.91,5.92,6.27,9.03,9.54l12.29-1.05
	c0,0-4.89,2.1-9.83,3.63c2.27,2.38,4.41,4.62,6.2,6.49l14.49,2.6h-12c1.52,1.59,2.45,2.55,2.45,2.55c1.35,0.41,2.87,0.73,4.46,0.98
	l10.39-1.41l-4.5,2.05c5.63,0.38,10.61,0.18,10.61,0.18l5-20.3c-0.28-0.52-0.58-1.05-0.9-1.58L102.24,83.77z"/>
<path class="st1" d="M407.63,91.52l10.01,1.74c1.73-1.31,0.17-0.08,1.96-1.6c-4.57-2-5.5-2.38-5.5-2.38s2.19-0.73,8.04,0.18
	c2.72-2.41,6.15-4.6,8.68-7.05l-7.79-4.44c1.68,0.58,7.1,1.01,11.04,1.25c0.32-0.31,3.25-3.65,3.55-3.96l-12.88-4.36
	c1.36,0.42,9.29,1.09,15.62,1.58c4.43-4.54,7.4-7.8,7.4-7.8c-5.17-1.27-21.44-4.21-21.44-4.21l-4.33-21.4
	c-0.43,0.41-1.44,1.49-2.82,3.02l-3.02,17.78c-0.45-2.34-0.97-8.39-1.31-12.91c-2.64,2.99-1.71,1.81-4.68,5.21l2.18,12.14
	c0,0-2.55-4.67-4.52-9.45c-2.16,2.48-8.17,9.48-9.86,11.44l-1.25,14.66l-1.11-11.95c-1.44,1.66-2.32,2.67-2.32,2.67
	c-0.28,1.38-0.46,2.92-0.57,4.53l2.37,10.21l-4.08-7.57c0.14,5.64,2.42,13.87,2.42,13.87l20.67,3.1c0.49-0.33,0.99-0.68,1.49-1.04
	L407.63,91.52z"/>
<path class="st2" d="M228.99,238.48L72.21,57.14c-0.95-1.1-2.63-1.33-3.84-0.53l-0.08,0.05c-1.29,0.85-1.55,2.55-0.57,3.75
	l151.34,185.38L228.99,238.48z"/>
<path class="st2" d="M269.13,238.48L425.91,57.14c0.95-1.1,2.63-1.33,3.84-0.53l0.08,0.05c1.29,0.85,1.55,2.55,0.57,3.75
	L279.05,245.79L269.13,238.48z"/>
<g>
	
		<linearGradient id="SVGID_1_" gradientUnits="userSpaceOnUse" x1="127.1769" y1="50.7357" x2="155.1444" y2="26.1928" gradientTransform="matrix(0.9725 0.0652 0.0464 -1.0252 250.7376 464.88)">
		<stop  offset="0" style="stop-color:#DCE4E4"/>
		<stop  offset="1" style="stop-color:#95ABAB"/>
	</linearGradient>
	<path class="st3" d="M406.44,457.97c1.19,0.24,2.19-0.89,1.87-2.09c-1.6-5.93-4.63-26.06-26.62-61.01
		c-1.27-2.02-3.59-3.08-5.92-2.89l-14.3,1.15c2.81,2.6-12.64,13.85-12.64,13.85l-0.74,12.74c-0.14,2.46,0.98,4.81,2.96,6.16
		C358.6,431.02,385.85,452.03,406.44,457.97z"/>
	<path class="st4" d="M366.37,407.03c0.38,2.58,0.51,4.45,0.51,4.45c-1.3,0.05-2.56,0.02-3.77-0.09"/>
	<path class="st4" d="M363.12,411.4c0,0,5.06,10.36,18.25,15.72c0,0-4.37-12.61-14.99-20.08"/>
	<path class="st2" d="M344.26,377.07l13.81,16.14l3.4-0.07c2.81,2.6,4.23,9.35,4.9,13.9c0.38,2.58,0.51,4.45,0.51,4.45
		c-10.15,0.4-18.05-4.5-18.05-4.5l0.22-3.84l-14.47-17.17c-2-2.37-1.76-5.98,0.52-8.05l1.5-1.36
		C338.86,374.52,342.27,374.74,344.26,377.07z"/>
</g>
<g>
	
		<linearGradient id="SVGID_00000170962398090771211110000005024250390986501273_" gradientUnits="userSpaceOnUse" x1="-226.4136" y1="28.2483" x2="-198.4461" y2="3.7054" gradientTransform="matrix(-0.9725 0.0652 -0.0464 -1.0252 -99.5012 464.88)">
		<stop  offset="0" style="stop-color:#DCE4E4"/>
		<stop  offset="1" style="stop-color:#95ABAB"/>
	</linearGradient>
	
		<path style="fill:url(#SVGID_00000170962398090771211110000005024250390986501273_);stroke:#000000;stroke-width:2;stroke-linejoin:round;stroke-miterlimit:10;" d="
		M89.71,457.97c-1.19,0.24-2.19-0.89-1.87-2.09c1.6-5.93,4.63-26.06,26.62-61.01c1.27-2.02,3.59-3.08,5.92-2.89l14.3,1.15
		c-2.81,2.6,12.64,13.85,12.64,13.85l0.74,12.74c0.14,2.46-0.98,4.81-2.96,6.16C137.55,431.02,110.3,452.03,89.71,457.97z"/>
	<path class="st4" d="M129.77,407.03c-0.38,2.58-0.51,4.45-0.51,4.45c1.3,0.05,2.56,0.02,3.77-0.09"/>
	<path class="st4" d="M133.03,411.4c0,0-5.06,10.36-18.25,15.72c0,0,4.37-12.61,14.99-20.08"/>
	<path class="st2" d="M151.89,377.07l-13.81,16.14l-3.4-0.07c-2.81,2.6-4.23,9.35-4.9,13.9c-0.38,2.58-0.51,4.45-0.51,4.45
		c10.15,0.4,18.05-4.5,18.05-4.5l-0.22-3.84l14.47-17.17c2-2.37,1.76-5.98-0.52-8.05l-1.5-1.36
		C157.29,374.52,153.88,374.74,151.89,377.07z"/>
</g>
<g>
	
		<linearGradient id="SVGID_00000095320297999361173720000002433492774729457035_" gradientUnits="userSpaceOnUse" x1="126.5525" y1="308.0819" x2="372.4537" y2="223.3826">
		<stop  offset="0" style="stop-color:#A659FF"/>
		<stop  offset="1" style="stop-color:#00FFB2"/>
	</linearGradient>
	
		<path style="fill:url(#SVGID_00000095320297999361173720000002433492774729457035_);stroke:#000000;stroke-width:2;stroke-linejoin:round;stroke-miterlimit:10;" d="
		M247.71,85.43v384.74c0,0-161.94-67.47-165.45-338.5c-0.07-5.61,3.13-10.77,8.2-13.17C111.15,108.7,169.21,85.08,247.71,85.43z"/>
	
		<linearGradient id="SVGID_00000039092177273212596810000016382886060592730284_" gradientUnits="userSpaceOnUse" x1="130.0788" y1="318.3198" x2="375.9806" y2="233.6203">
		<stop  offset="0" style="stop-color:#A659FF"/>
		<stop  offset="1" style="stop-color:#00FFB2"/>
	</linearGradient>
	
		<path style="fill:url(#SVGID_00000039092177273212596810000016382886060592730284_);stroke:#000000;stroke-width:2;stroke-linejoin:round;stroke-miterlimit:10;" d="
		M404.61,118.84c-47.68-20.6-92.82-29.96-133.4-32.59c-0.01,0-0.01,0-0.01,0c-8.01-0.53-15.84-0.79-23.48-0.82v384.74
		c152.78-78.3,164.76-290.35,165.51-337.93C413.32,126.45,409.93,121.14,404.61,118.84z"/>
	<path class="st8" d="M413.23,132.24c-0.75,47.58-12.73,259.63-165.51,337.93c130.33-107.01,117.06-168.38,127.85-223.99
		C395.76,142.06,272.45,86.95,271.21,86.25c40.58,2.63,85.72,11.99,133.4,32.59C409.93,121.14,413.32,126.45,413.23,132.24z"/>
</g>
<path class="st9" d="M228.7,444.23c-93.62-78.64-118.19-176.71-118.19-176.71c-0.03,0.01-0.05,0.03-0.08,0.04
	c-3.43,1.99-14.69,8.76-17.72,10.11c0,0,38.2,114.62,141.79,171.33c-0.98-0.79-1.95-1.58-2.92-2.38
	C230.61,445.82,229.65,445.02,228.7,444.23z"/>
<path class="st9" d="M368.72,263.99c-20.18,94.28-130.1,181.75-134.11,184.92c-0.03,0.01-0.04,0.03-0.06,0.05l-0.03,0.03
	c2.12-1.19,131.91-74.58,152.08-178.39C383.14,269.8,372.43,265.48,368.72,263.99z"/>
<path class="st10" d="M161.16,203.1C161.16,203.09,161.16,203.09,161.16,203.1"/>
<linearGradient id="SVGID_00000109019011631728333790000006947593362379170964_" gradientUnits="userSpaceOnUse" x1="88.9366" y1="144.0152" x2="398.3037" y2="144.0152">
	<stop  offset="0" style="stop-color:#F2F2F2"/>
	<stop  offset="1" style="stop-color:#75FFA5"/>
</linearGradient>
<path style="fill:url(#SVGID_00000109019011631728333790000006947593362379170964_);stroke:#000000;stroke-width:2;stroke-linejoin:round;stroke-miterlimit:10;" d="
	M397.79,244.86c-0.58-11.38-15.01-48.73-15.01-48.73c5.53,2.84,15.53,11.36,15.53,11.36c-21.97-42.69-66.94-83.82-72.32-87.23
	c-3.94-2.49,18.96,5.44,18.96,5.44c-19.59-20.16-48.57-36.49-48.57-36.49l15.48,2.43c-2.12-2.06-14.95-15.9-35.3-33.33
	c-17.59-15.06-28.83-28.48-28.83-28.48s-11.06,15.25-24.04,28.68c-12.95,13.4-49.95,43.58-49.95,43.58c7.3-5.04,19.65-3.4,19.65-3.4
	c-17.66,6.24-64.88,51.11-64.88,51.11c6.11-3.17,15.27-4.8,15.27-4.8C108.27,167.79,96,197.84,96,197.84
	c4.71-5.31,15.2-9.86,15.2-9.86c-24.09,22.55-22.23,64.52-22.23,64.52l4.39,5.7l5.37-5.83l94.57-67.22l103.51,0.1l78.76,60.93
	l19.58,8.59L397.79,244.86z"/>
<path class="st12" d="M68.3,56.66"/>
<g>
	<circle class="st13" cx="131.64" cy="293.1" r="8.7"/>
	<circle class="st13" cx="150.06" cy="335.06" r="8.7"/>
	
		<ellipse transform="matrix(0.923 -0.3847 0.3847 0.923 -132.3065 96.7643)" class="st13" cx="175.69" cy="379.05" rx="8.7" ry="8.7"/>
	<circle class="st13" cx="202.73" cy="415.27" r="8.7"/>
</g>
<circle class="st14" cx="248.07" cy="445.93" r="8.7"/>
<circle class="st15" cx="390.98" cy="140.86" r="8.7"/>
<circle class="st13" cx="105.13" cy="140.86" r="8.7"/>
<g>
	<circle class="st15" cx="364.78" cy="293.1" r="8.7"/>
	<circle class="st15" cx="346.36" cy="335.06" r="8.7"/>
	
		<ellipse transform="matrix(0.9735 -0.2289 0.2289 0.9735 -78.249 83.4797)" class="st15" cx="320.73" cy="379.05" rx="8.7" ry="8.7"/>
	<circle class="st15" cx="293.69" cy="415.27" r="8.7"/>
</g>
<linearGradient id="SVGID_00000136409444439421871340000007892991105019735487_" gradientUnits="userSpaceOnUse" x1="243.6202" y1="34.7795" x2="243.6202" y2="148.2346">
	<stop  offset="0" style="stop-color:#3281FF"/>
	<stop  offset="1" style="stop-color:#3281FF;stop-opacity:0"/>
</linearGradient>
<path style="display:none;fill:url(#SVGID_00000136409444439421871340000007892991105019735487_);" d="M397.79,244.86
	c-0.58-11.38-15.01-48.73-15.01-48.73c5.53,2.84,15.53,11.36,15.53,11.36c-21.97-42.69-66.94-83.82-72.32-87.23
	c-3.94-2.49,18.96,5.44,18.96,5.44c-19.59-20.16-48.57-36.49-48.57-36.49l15.48,2.43c-2.12-2.06-14.95-15.9-35.3-33.33
	c-17.59-15.06-28.83-28.48-28.83-28.48s-11.06,15.25-24.04,28.68c-12.95,13.4-49.95,43.58-49.95,43.58c7.3-5.04,19.65-3.4,19.65-3.4
	c-17.66,6.24-64.88,51.11-64.88,51.11c6.11-3.17,15.27-4.8,15.27-4.8C108.27,167.79,96,197.84,96,197.84
	c4.71-5.31,15.2-9.86,15.2-9.86c-24.09,22.55-22.23,64.52-22.23,64.52l4.39,5.7l5.37-5.83l94.57-67.22l103.51,0.1l78.76,60.93
	l19.58,8.59L397.79,244.86z"/>
<g>
	<g>
		
			<linearGradient id="SVGID_00000110472545779673884610000009675474358992732054_" gradientUnits="userSpaceOnUse" x1="179.3153" y1="338.7677" x2="129.4969" y2="383.3025" gradientTransform="matrix(0.7039 -0.6742 0.6936 0.7563 -117.7792 179.4849)">
			<stop  offset="0" style="stop-color:#E6E6E6"/>
			<stop  offset="0.9995" style="stop-color:#B3B3B3"/>
		</linearGradient>
		
			<path style="fill:url(#SVGID_00000110472545779673884610000009675474358992732054_);stroke:#000000;stroke-width:1.5;stroke-linejoin:round;stroke-miterlimit:10;" d="
			M247.96,267.12c-10.67,5.89-29.98,21.51-37.85,31.84c7.03-5.44,22.72-14.04,29.83-15.53c0,0-22.1,11.2-29.56,20.51
			c-3.3,14.04-1.78,28.86-1.57,32.34c8.66-6.25,23.4-16.67,23.4-16.67c-5.29,4.75-6.12,6.24-23.09,22.32
			c0.3,2.73,0.67,5.59,1.1,8.55c9.11-10.77,18.75-17.37,18.75-17.37l-16.92,22.05c2,15.66,8.16,34.71,8.16,34.71
			c7.42-13.74,12.55-19.75,12.55-19.75l-11.68,25.25c0.1,0.44,0.2,0.88,0.31,1.31l6.08-9.22c0,0-0.12,3.39-4.82,14.54
			c0.36,1.46,0.7,2.87,1.03,4.23c0,0,14.07-24.43,25.52-37.01l21.02,22.58c-0.01-1.03,0.53-5.49,0.53-6.55l-9.08-10.94l9.83,7.44
			c0,0,0.64-8.72,0.65-9.72l-10.74-9.58c0,0,6.32,2.98,10.99,6.44c1.17-5.87,1.28-13.14,1.28-13.14l-13.38-15.57
			c0,0,5.5,3.54,13.85,11.94c0,0,1.24-4.79,1.3-6.15l-18.19-19.5c0,0,12.59,8.03,19.2,15.21c0.26-4.7,1.19-13.49,0.73-18.92
			c-5.74-5.22-13.1-11.03-13.1-11.03s7.05,4.46,12.07,7.95l-13.9-14.05c0,0,9.99,4.83,14.65,9.36c-0.39-8.37-0.54-13.29-0.54-13.29
			c-3.16-3.55-19.84-15.39-21.29-16.36c0,0,16.39,8.98,20.02,12C267.41,283.73,255.26,274.15,247.96,267.12z"/>
		<g>
			<path class="st18" d="M270.22,391.8c0.06,4.79-2.93,22.51-2.93,22.51l-19.66-17.2c0,0-10.89,10.86-19.6,27.88
				c0,0-0.31-2.93-1.95-9.28l10.55-19.81c-3.03,3.52-6.03,9.03-11.26,17.07c-0.52-2.04-1.09-4.29-1.69-6.73
				c0,0,14.07-24.43,25.52-37.01C249.19,369.22,265.3,385.33,270.22,391.8z"/>
		</g>
	</g>
	<path class="st19" d="M239.02,191.24l6.04,214.12c0.04,1.49,1.22,2.77,2.7,2.93l0.09,0.01c1.58,0.17,2.9-1.01,2.91-2.61
		l0.92-213.77L239.02,191.24z"/>
	<g>
		<path class="st20" d="M369.48,226.78c-0.19,1.96-1.09,4.23-3.32,6.66c-2.71,2.96-5.23,4.37-7.34,4.95
			c-3.88,1.08-6.42-0.65-6.42-0.65c-12.88-11.27-25.55-19.67-37.46-25.93c-0.03-0.02-0.06-0.03-0.09-0.05
			c-6.11-3.22-12.01-5.87-17.64-8.05c-31.94-12.4-54.89-9.75-54.89-9.75s-18.6-0.27-50.45,13.95l-0.01,0
			c-5.02,2.25-10.38,4.85-16.05,7.89c-0.84,0.44-1.28,0.68-1.28,0.68c-10.55,5.71-22.14,12.85-34.64,21.81c0,0-2.64,1.84-6,1.01
			c-1.46-0.35-3.05-1.21-4.63-2.93c-2.72-2.98-3.53-5.44-3.54-7.32c-0.02-2.68,1.62-4.14,1.62-4.14
			c8.57-7.87,16.03-14.9,22.76-21.15c3.82-3.55,7.42-6.84,10.85-9.9c24.91-22.16,41.31-31.53,77.34-32.68
			c45.85-1.47,62.81,1.01,93.52,26.44l0.01,0.01c3.56,2.95,7.32,6.21,11.32,9.82c6.97,6.27,14.71,13.57,23.57,22.05
			C366.72,219.52,369.89,222.41,369.48,226.78z"/>
		<path class="st21" d="M451.51,236.51c-1.95,7.51-6.77,11.58-11.98,13.75c0.7-2.59,1.04-6.96-3.58-9.26
			c-4.99-2.49-4.79,16.35-26.07,9.36c-7.39-3.25-15.74-8.12-25.06-15.24c0,0-1.68-1.5-4.36-1.55c-2.34-0.05-5.43,1.01-8.84,5.12
			c-2.78,3.35-3.09,6.35-2.56,8.65c0.67,2.95,2.71,4.77,2.71,4.77c5.05,3.07,9.91,5.5,14.57,7.38c3.92,1.6,7.72,2.81,11.36,3.7
			c33.43,8.12,54.11-11.19,55.11-12.15l0.02-0.02c0.32-0.39,5.02-6.29,3.48-15.14C456.3,235.87,453.61,228.44,451.51,236.51z
			 M450.62,252.45l2.14-1.39C452.54,251.25,451.83,251.79,450.62,252.45z"/>
		<path class="st21" d="M124.06,240.19c1.99,2.16,2.33,4.25,1.98,6c-0.52,2.73-2.67,4.62-2.67,4.62c-5.1,4.07-9.95,7.4-14.56,10.12
			c-3.23,1.9-6.33,3.5-9.31,4.83c-32.25,14.42-49.92-2.43-49.92-2.43s-5.86-5.19-6.2-14.08c0,0,1.01-7.38,4.54,0.1
			c2.45,5.2,5.99,8.4,9.81,10.32c-1.21-2.2-3.11-6.96,1.11-9.94c3.57-2.52,6.71,10.64,19.4,8.47c9.24-3.77,20.58-10.03,33.83-20.31
			c0,0,2.07-1.84,5.21-1.56C119.2,236.5,121.54,237.48,124.06,240.19z"/>
		<path class="st18" d="M129.27,236.38c1.57,1.73,3.17,2.58,4.63,2.93c0.09,3.34-2.72,5.37-2.72,5.37c-1.38,1.1-3.16,1.78-5.14,1.51
			c-1.85-0.26-3.87-1.33-5.85-3.68c-2.02-2.39-2.9-4.37-2.91-6.18c-0.03-1.85,0.85-3.49,2.33-5.09c2.91-3.15,6.13-2.19,6.13-2.19
			C125.74,230.93,126.55,233.4,129.27,236.38z"/>
		<path class="st18" d="M380.46,233.57c0.49,2.47-0.07,5.64-3.71,9.02c-3.08,2.85-5.6,4.26-7.69,4.75
			c-3.38,0.81-5.68-0.78-7.49-2.56c-2.94-2.91-2.74-6.38-2.74-6.38c2.11-0.58,4.63-1.99,7.34-4.95c2.23-2.43,3.13-4.7,3.32-6.66
			c5.26-1.87,8.27,1.86,8.27,1.86S379.87,230.59,380.46,233.57z"/>
		<g>
			<path class="st21" d="M193.18,208.25L193.18,208.25c-8.72,3.27-14.85,6.27-17.37,7.57c-0.84,0.44-1.28,0.68-1.28,0.68
				s-11.41-2.21-24.42-12.73c-1.21-0.97-2.42-2.01-3.65-3.13c-0.96-0.88-0.81-2.42,0.29-3c2.56-1.32,6.96-3.7,11.5-6.61
				c0,0,0,0,0.01,0.01c0.08,0.11,0.85,1.2,2.69,2.84c3.97,3.54,12.96,9.64,30.9,14.06l0.01,0
				C192.3,208.03,192.74,208.14,193.18,208.25z"/>
			<path class="st21" d="M299.54,204.57c0,0,0,0,0.01,0C299.55,204.58,299.55,204.58,299.54,204.57L299.54,204.57z"/>
			<path class="st21" d="M346.03,195.3c-0.93,0.74-1.89,1.47-2.88,2.17c-12.14,8.65-28.2,14.36-28.2,14.36
				c-0.03-0.02-0.06-0.03-0.09-0.05c-5.06-2.85-10.17-5.23-15.3-7.2c0.27-0.1,6.01-2.21,12.67-5.17c7.57-3.37,16.34-7.86,19.6-11.77
				c0.42-0.5,0.75-1,0.97-1.48l0.01,0.01c6.11,3.8,10.27,5.65,12.7,6.54C346.62,193.11,346.93,194.58,346.03,195.3z"/>
			<path class="st22" d="M332.8,186.16L332.8,186.16c-0.22,0.48-0.55,0.98-0.97,1.49c-3.26,3.92-12.03,8.4-19.61,11.77
				c-6.65,2.97-12.4,5.07-12.67,5.17c-0.01,0.01-0.01,0.01-0.01,0.01l-0.01-0.01c-0.78-0.3-1.55-0.58-2.33-0.85
				c-16.27-5.84-32.67-7.6-47.94-7.08c-1.47,0.05-2.93,0.12-4.39,0.21c-20.64,1.31-38.95,6.62-51.7,11.4l-0.01-0.01l-0.01,0.01
				c-0.44-0.1-0.88-0.21-1.3-0.32l-0.01,0c-17.94-4.42-26.93-10.52-30.9-14.06c-1.85-1.63-2.61-2.72-2.69-2.84
				c3.19-2.04,6.45-4.36,9.17-6.75c17.34-15.17,40.15-30.06,80.22-27.26c0,0,43.45-2.6,67.67,16.64
				C322.36,179.24,328.15,183.27,332.8,186.16z"/>
		</g>
	</g>
	<g>
		
			<linearGradient id="SVGID_00000149377301330933593890000016140923554234457005_" gradientUnits="userSpaceOnUse" x1="332.1712" y1="190.8014" x2="360.936" y2="165.5589" gradientTransform="matrix(0.7039 -0.6742 0.6936 0.7563 -117.7792 179.4849)">
			<stop  offset="0" style="stop-color:#DCE4E4"/>
			<stop  offset="1" style="stop-color:#95ABAB"/>
		</linearGradient>
		
			<path style="fill:url(#SVGID_00000149377301330933593890000016140923554234457005_);stroke:#000000;stroke-width:2;stroke-linejoin:round;stroke-miterlimit:10;" d="
			M247.47,51.22c0.77-0.97,2.32-0.75,2.86,0.42c2.65,5.73,13.55,23.6,19.27,65.68c0.33,2.44-0.8,4.8-2.76,6.19l-12.03,8.53
			c0.5-3.91-19.11-2.58-19.11-2.58l-8.99-9.56c-1.73-1.84-2.4-4.45-1.73-6.82C227.53,104.06,235.15,69.5,247.47,51.22z"/>
		<path class="st24" d="M249.5,117.84c-1.41-2.29-2.54-3.85-2.54-3.85c-1.06,0.82-2.03,1.68-2.91,2.56"/>
		<path class="st4" d="M244.05,116.55c0,0-2.85-11.51,4.02-24.44c0,0,4.88,12.83,1.43,25.74"/>
		<path class="st19" d="M251.84,156.07l0.24-21.85l2.73-2.19c0.5-3.91-2.84-10.17-5.31-14.2c-1.41-2.29-2.54-3.85-2.54-3.85
			c-8.27,6.38-11.27,15.46-11.27,15.46l2.71,2.88l-0.08,23.09c-0.01,3.18,2.56,5.88,5.72,6.01l2.08,0.08
			C249.26,161.64,251.8,159.22,251.84,156.07z"/>
	</g>
</g>
</svg>
