<svg width="100" height="100" viewBox="0 0 100 100" fill="none" xmlns="http://www.w3.org/2000/svg">
<path d="M64.4853 41.8158C63.1789 41.8158 61.8726 41.9695 60.6432 42.2V23.6811C60.6432 16.6116 48.8863 13 37.36 13C25.7568 13 14 16.6884 14 23.6811V63.7926C14 70.8621 25.7568 74.5505 37.2832 74.5505C39.8189 74.5505 42.3547 74.32 44.8137 73.9358C48.5021 81.0821 55.8789 86 64.4853 86C76.6263 86 86.5389 76.0874 86.5389 63.9463C86.5389 51.7284 76.6263 41.8158 64.4853 41.8158ZM37.2832 17.6105C48.5021 17.6105 55.9558 21.2221 55.9558 23.6811C55.9558 26.14 48.5021 29.7516 37.2832 29.7516C26.0642 29.7516 18.6105 26.0632 18.6105 23.6811C18.6105 21.2989 26.0642 17.6105 37.2832 17.6105ZM18.6105 30.3663C23.0674 33.0558 30.2137 34.4389 37.2832 34.4389C44.3526 34.4389 51.4989 33.0558 55.9558 30.3663V33.7474C55.9558 36.1295 48.5021 39.8179 37.2832 39.8179C26.0642 39.8179 18.6105 36.1295 18.6105 33.7474V30.3663V30.3663ZM18.6105 40.4326C23.0674 43.1221 30.2137 44.5053 37.2832 44.5053C44.3526 44.5053 51.4989 43.1221 55.9558 40.4326V43.5832C53.2663 44.7358 50.8074 46.3495 48.8095 48.4242C45.7358 49.2695 41.8168 49.8842 37.2832 49.8842C26.0642 49.8842 18.6105 46.1958 18.6105 43.8137V40.4326V40.4326ZM18.6105 50.4221C23.0674 53.1116 30.2137 54.4947 37.2832 54.4947C39.8189 54.4947 42.3547 54.2642 44.8137 53.88C43.8916 55.6474 43.2 57.4916 42.8158 59.4895C41.1253 59.72 39.2811 59.8737 37.2832 59.8737C26.0642 59.8737 18.6105 56.1853 18.6105 53.8032V50.4221ZM37.2832 69.94C26.0642 69.94 18.6105 66.2516 18.6105 63.8695V60.4884C23.0674 63.1779 30.2137 64.5611 37.2832 64.5611C38.9737 64.5611 40.6642 64.4074 42.3547 64.2537C42.3547 66.0979 42.6621 67.8653 43.1232 69.5558C41.3558 69.7095 39.4347 69.94 37.2832 69.94ZM64.4853 81.3895C54.88 81.3895 47.0421 73.5516 47.0421 63.9463C47.0421 54.3411 54.88 46.5032 64.4853 46.5032C74.0905 46.5032 81.9284 54.3411 81.9284 63.9463C81.9284 73.5516 74.0905 81.3895 64.4853 81.3895Z" fill="#193650"/>
<path d="M73.3983 57.2611C73.3983 56.6463 73.1678 56.1084 72.7068 55.6474C72.2457 55.1863 71.7078 54.9558 71.0931 54.9558C70.4783 54.9558 69.9405 55.1863 69.4794 55.6474L56.1857 69.0179C55.7247 69.479 55.4941 70.0169 55.4941 70.6316C55.4941 71.2463 55.7247 71.7842 56.1857 72.2453C56.6468 72.7063 57.1847 72.9369 57.7994 72.9369C58.4141 72.9369 58.952 72.7063 59.4131 72.2453L72.7836 58.8748C73.1678 58.4137 73.3983 57.8758 73.3983 57.2611Z" fill="#193650"/>
<path d="M58.261 61.3336C60.2556 61.3336 61.8726 59.7167 61.8726 57.7221C61.8726 55.7274 60.2556 54.1105 58.261 54.1105C56.2664 54.1105 54.6494 55.7274 54.6494 57.7221C54.6494 59.7167 56.2664 61.3336 58.261 61.3336Z" fill="#193650"/>
<path d="M70.6321 73.7052C72.6267 73.7052 74.2437 72.0883 74.2437 70.0936C74.2437 68.099 72.6267 66.4821 70.6321 66.4821C68.6375 66.4821 67.0205 68.099 67.0205 70.0936C67.0205 72.0883 68.6375 73.7052 70.6321 73.7052Z" fill="#193650"/>
</svg>
