<svg width="100" height="100" viewBox="0 0 100 100" fill="none" xmlns="http://www.w3.org/2000/svg">
<path d="M50.074 73C38.9882 73 30 63.9565 30 52.8028C30 41.9508 48.1265 22.8086 48.8755 22.0551L49.7743 21L50.6732 22.0551C51.4222 22.8086 69.9982 41.9508 69.9982 52.8028C70.148 63.9565 61.1596 73 50.074 73ZM49.9242 24.9188C48.2763 26.7276 44.9805 30.3448 41.6848 34.8667C35.8423 42.7044 32.6964 48.884 32.6964 52.8028C32.6964 62.4493 40.4864 70.287 50.074 70.287C59.6616 70.287 67.4514 62.4493 67.4514 52.8028C67.4514 48.884 64.3055 42.7044 58.3132 34.8667C55.0175 30.4957 51.572 26.7276 49.9242 24.9188Z" fill="url(#paint0_linear)"/>
<path d="M49.4253 80C34.7944 80 23 68.0361 23 53.1948C23 38.8077 42.8564 18.6658 43.752 17.7573C44.3493 17.3029 45.0957 17.3029 45.6929 17.7573C46.1408 18.3629 46.1408 19.1202 45.6929 19.726C45.3943 19.8775 25.6873 39.8679 25.6873 53.1948C25.6873 66.5218 36.2873 77.2742 49.4253 77.2742C62.5634 77.2742 73.1633 66.5218 73.1633 53.1948C73.1633 47.7428 69.7295 40.1708 63.1606 31.3871C58.0845 24.5722 53.0085 19.4231 53.0085 19.4231C52.4112 18.9687 52.4112 18.0602 53.0085 17.4544C53.4563 16.8485 54.3521 16.8485 54.9492 17.4544C55.845 18.3629 76 38.8077 76 53.1948C75.8506 68.0361 64.0562 80 49.4253 80Z" fill="url(#paint1_linear)"/>
<path d="M49.9999 86C32.4372 86 18 71.4673 18 53.7886C18 46.4475 21.7209 37.4582 28.8652 26.9707C34.2232 19.33 39.4325 13.7866 39.7302 13.487C40.1767 12.8876 41.0698 12.8876 41.6651 13.487C42.2605 13.9364 42.2605 14.8354 41.6651 15.4346C41.6651 15.4346 36.307 20.978 31.0976 28.6187C24.2512 38.507 20.6791 47.1965 20.6791 53.9384C20.6791 70.2689 33.9255 83.453 49.9999 83.453C66.0743 83.453 79.3209 69.9693 79.3209 53.7886C79.3209 47.0467 75.7488 38.3572 68.9022 28.4689C63.693 20.978 58.3349 15.4346 58.3349 15.2848C57.8883 14.6856 57.8883 13.9364 58.3349 13.3372C58.9302 12.8876 59.6744 12.8876 60.2697 13.3372C61.0139 14.3858 82 36.2596 82 53.7886C82 71.4673 67.7115 86 49.9999 86Z" fill="url(#paint2_linear)"/>
<defs>
<linearGradient id="paint0_linear" x1="50.103" y1="73.0191" x2="50.103" y2="21.0756" gradientUnits="userSpaceOnUse">
<stop stop-color="#05AAC5"/>
<stop offset="1" stop-color="#71E0EC"/>
</linearGradient>
<linearGradient id="paint1_linear" x1="49.4543" y1="79.9867" x2="49.4543" y2="17.094" gradientUnits="userSpaceOnUse">
<stop stop-color="#05AAC5"/>
<stop offset="1" stop-color="#71E0EC"/>
</linearGradient>
<linearGradient id="paint2_linear" x1="50.029" y1="85.9638" x2="50.029" y2="13.0376" gradientUnits="userSpaceOnUse">
<stop stop-color="#05AAC5"/>
<stop offset="1" stop-color="#71E0EC"/>
</linearGradient>
</defs>
</svg>
