<svg width="100" height="100" viewBox="0 0 100 100" fill="none" xmlns="http://www.w3.org/2000/svg">
  <path d="M50 100C77.6142 100 100 77.6142 100 50C100 22.3858 77.6142 0 50 0C22.3858 0 0 22.3858 0 50C0 77.6142 22.3858 100 50 100Z" fill="#0073BE"></path>
  <path d="M46.26 50.02C41.7 45.42 41.7 37.96 46.3 33.38C50.88 28.8 58.34 28.78 62.94 33.34L73.56 22.72C63.1 12.3 46.12 12.3 35.68 22.76C25.24 33.2 25.22 50.18 35.64 60.64L46.26 50.02Z" fill="white"></path>
  <path d="M53.74 49.98C58.3 54.58 58.3 62.04 53.7 66.62C49.12 71.2 41.66 71.22 37.06 66.66L26.44 77.28C36.9 87.7 53.88 87.7 64.32 77.24C74.76 66.8 74.78 49.82 64.36 39.36L53.74 49.98Z" fill="white"></path>
</svg>
