<?xml version="1.0" encoding="UTF-8"?>
<svg xmlns="http://www.w3.org/2000/svg" xmlns:xlink="http://www.w3.org/1999/xlink" width="100px" height="100px" viewBox="0 0 100 100" version="1.1">
<g id="surface1">
<path style=" stroke:none;fill-rule:nonzero;fill:rgb(83.137255%,14.901961%,98.823529%);fill-opacity:1;" d="M 20.78125 45.078125 C 19.773438 44.640625 19.328125 43.539062 19.789062 42.597656 C 20.246094 41.65625 21.433594 41.242188 22.4375 41.671875 L 89.328125 70.125 C 90.328125 70.550781 90.777344 71.660156 90.316406 72.597656 C 89.859375 73.539062 88.671875 73.953125 87.671875 73.527344 Z M 20.78125 45.078125 "/>
<path style=" stroke:none;fill-rule:nonzero;fill:rgb(22.745098%,76.862745%,72.941176%);fill-opacity:1;" d="M 53.925781 8.101562 C 53.925781 7.070312 54.820312 6.230469 55.925781 6.230469 C 57.027344 6.230469 57.925781 7.070312 57.925781 8.101562 L 57.925781 76.777344 C 57.925781 77.8125 57.027344 78.648438 55.925781 78.648438 C 54.820312 78.648438 53.925781 77.8125 53.925781 76.777344 Z M 53.925781 8.101562 "/>
<path style=" stroke:none;fill-rule:nonzero;fill:rgb(30.980392%,69.019608%,75.686275%);fill-opacity:1;" d="M 43.59375 23.320312 C 43.59375 22.292969 44.488281 21.453125 45.59375 21.453125 C 46.691406 21.453125 47.59375 22.292969 47.59375 23.320312 L 47.59375 92.003906 C 47.59375 93.03125 46.691406 93.871094 45.59375 93.871094 C 44.488281 93.871094 43.59375 93.03125 43.59375 92.003906 Z M 43.59375 23.320312 "/>
<path style=" stroke:none;fill-rule:nonzero;fill:rgb(61.176471%,37.647059%,88.627451%);fill-opacity:1;" d="M 10.234375 29.976562 C 9.234375 29.550781 8.785156 28.441406 9.242188 27.5 C 9.703125 26.566406 10.890625 26.148438 11.894531 26.578125 L 78.78125 55.03125 C 79.78125 55.457031 80.226562 56.566406 79.769531 57.507812 C 79.316406 58.441406 78.128906 58.855469 77.125 58.429688 Z M 10.234375 29.976562 "/>
<path style=" stroke:none;fill-rule:nonzero;fill:rgb(37.647059%,61.568627%,78.823529%);fill-opacity:1;" d="M 89.640625 30.816406 C 90.574219 30.261719 91.808594 30.519531 92.40625 31.390625 C 92.996094 32.261719 92.71875 33.414062 91.789062 33.976562 L 29.789062 70.84375 C 28.855469 71.40625 27.625 71.144531 27.03125 70.273438 C 26.429688 69.402344 26.707031 68.25 27.640625 67.695312 Z M 89.640625 30.816406 "/>
<path style=" stroke:none;fill-rule:nonzero;fill:rgb(47.058824%,51.764706%,83.921569%);fill-opacity:1;" d="M 70.351562 30.839844 C 71.285156 30.285156 72.519531 30.546875 73.113281 31.414062 C 73.707031 32.285156 73.429688 33.4375 72.5 34 L 10.5 70.871094 C 9.566406 71.421875 8.332031 71.164062 7.738281 70.292969 C 7.148438 69.421875 7.421875 68.269531 8.351562 67.714844 Z M 70.351562 30.839844 "/>
</g>
</svg>
