<?xml version="1.0" standalone="no"?>
<!DOCTYPE svg PUBLIC "-//W3C//DTD SVG 20010904//EN"
 "http://www.w3.org/TR/2001/REC-SVG-20010904/DTD/svg10.dtd">
<svg version="1.0" xmlns="http://www.w3.org/2000/svg"
 width="640.000000pt" height="640.000000pt" viewBox="0 0 640.000000 640.000000"
 preserveAspectRatio="xMidYMid meet">

<g transform="translate(0.000000,640.000000) scale(0.100000,-0.100000)"
fill="#000000" stroke="none">
<path d="M0 3200 l0 -3200 3200 0 3200 0 0 3200 0 3200 -3200 0 -3200 0 0
-3200z m4055 2500 c130 -14 233 -43 373 -107 133 -60 405 -200 462 -237 19
-13 74 -47 122 -75 186 -111 347 -243 436 -359 24 -32 38 -102 20 -102 -4 0
-8 -14 -8 -30 0 -17 -4 -38 -9 -48 -5 -9 -21 -71 -36 -137 -15 -66 -33 -138
-42 -160 -8 -22 -17 -51 -20 -64 -3 -13 -21 -51 -39 -84 -19 -32 -34 -63 -34
-68 0 -5 -19 -29 -42 -52 -112 -113 -153 -182 -87 -147 10 6 19 18 19 28 0 9
8 26 17 37 15 19 15 19 8 -5 -3 -14 -9 -35 -12 -47 -3 -13 -12 -23 -19 -23 -8
0 -14 -4 -14 -10 0 -5 7 -10 15 -10 12 0 15 -15 15 -72 0 -67 -3 -76 -30 -107
-22 -25 -27 -37 -20 -50 7 -13 2 -24 -21 -45 -16 -16 -33 -25 -36 -22 -4 4 6
18 22 32 22 19 26 27 17 36 -9 9 -12 8 -12 -5 0 -9 -6 -17 -13 -17 -7 0 -20
-13 -30 -29 -21 -37 -21 -42 1 -35 9 4 5 -2 -9 -12 -29 -21 -52 -41 -78 -67
-11 -11 -25 -15 -37 -11 -16 5 -17 4 -4 -6 13 -10 13 -12 1 -17 -8 -3 -26 -17
-40 -31 -15 -15 -36 -25 -53 -24 -15 0 -30 -3 -33 -8 -3 -4 4 -6 15 -3 35 9
22 -4 -62 -68 -46 -35 -85 -65 -88 -68 -9 -10 -164 -127 -181 -137 -9 -5 -40
-30 -70 -56 -30 -25 -97 -82 -149 -126 -52 -44 -115 -99 -140 -123 -49 -47
-160 -181 -160 -193 0 -4 -11 -22 -25 -40 -14 -18 -25 -38 -25 -44 0 -7 -3
-12 -8 -12 -4 0 -16 -17 -27 -38 -11 -20 -25 -43 -32 -49 -6 -7 -19 -31 -29
-53 -10 -22 -21 -40 -26 -40 -4 0 -8 -4 -8 -9 0 -6 -25 -50 -55 -100 -30 -50
-55 -93 -55 -96 0 -3 -5 -11 -11 -18 -6 -7 -38 -55 -71 -107 -34 -52 -64 -97
-67 -100 -3 -3 -10 -12 -16 -21 -22 -36 -94 -135 -112 -154 -10 -11 -30 -36
-43 -55 -75 -107 -258 -295 -389 -400 -24 -19 -49 -41 -56 -47 -8 -7 -18 -13
-24 -13 -6 0 -11 -4 -11 -8 0 -8 -153 -88 -252 -131 -73 -32 -311 -90 -412
-101 -102 -11 -333 -12 -416 -2 -75 9 -100 5 -100 -18 0 -13 8 -20 28 -22 23
-3 27 -8 30 -40 3 -34 1 -37 -20 -33 -13 3 -43 7 -68 10 -105 12 -126 18 -115
35 3 5 -11 7 -31 4 -21 -2 -43 1 -51 8 -9 7 -25 17 -37 23 -13 7 -20 19 -18
31 2 14 1 16 -6 5 -8 -11 -14 -10 -36 4 -14 9 -23 21 -20 26 3 5 -2 9 -10 9
-21 0 -147 120 -139 133 3 5 1 7 -5 3 -14 -9 -150 142 -223 248 -120 176 -226
423 -266 626 -25 122 -25 411 0 540 62 320 218 656 490 1050 89 129 213 300
259 355 9 11 62 79 119 150 57 72 106 132 109 135 3 3 41 47 85 99 163 193
408 449 580 604 133 119 346 281 475 362 203 125 460 230 625 254 83 12 490
13 600 1z m1445 -861 c0 -6 -4 -7 -10 -4 -5 3 -10 11 -10 16 0 6 5 7 10 4 6
-3 10 -11 10 -16z m10 -33 c0 -3 -4 -8 -10 -11 -5 -3 -10 -1 -10 4 0 6 5 11
10 11 6 0 10 -2 10 -4z m26 -82 c-8 -21 -26 -7 -25 19 0 21 1 21 9 2 8 -17 9
-16 11 10 1 25 2 26 6 7 3 -13 2 -30 -1 -38z m-43 16 c-3 -11 -9 -20 -13 -20
-5 0 -6 9 -3 20 3 11 9 20 13 20 5 0 6 -9 3 -20z m54 -77 c-3 -10 -5 -2 -5 17
0 19 2 27 5 18 2 -10 2 -26 0 -35z m-117 -125 c0 -19 -2 -20 -10 -8 -13 19
-13 30 0 30 6 0 10 -10 10 -22z m117 -50 c-3 -7 -5 -2 -5 12 0 14 2 19 5 13 2
-7 2 -19 0 -25z m-110 -75 c-3 -10 -5 -4 -5 12 0 17 2 24 5 18 2 -7 2 -21 0
-30z m100 0 c-3 -10 -5 -4 -5 12 0 17 2 24 5 18 2 -7 2 -21 0 -30z m-10 -55
c-3 -8 -6 -5 -6 6 -1 11 2 17 5 13 3 -3 4 -12 1 -19z m-50 -75 c-3 -10 -5 -4
-5 12 0 17 2 24 5 18 2 -7 2 -21 0 -30z m-127 8 c0 -6 -4 -13 -10 -16 -5 -3
-10 1 -10 9 0 9 5 16 10 16 6 0 10 -4 10 -9z m-20 -41 c0 -5 -4 -10 -10 -10
-5 0 -10 5 -10 10 0 6 5 10 10 10 6 0 10 -4 10 -10z m131 -17 c-12 -20 -14
-14 -5 12 4 9 9 14 11 11 3 -2 0 -13 -6 -23z m10 -46 c-8 -8 -11 -7 -11 4 0
20 13 34 18 19 3 -7 -1 -17 -7 -23z m-20 -54 c-12 -20 -14 -14 -5 12 4 9 9 14
11 11 3 -2 0 -13 -6 -23z m-47 -94 c-16 -33 -44 -66 -44 -54 0 10 31 67 44 81
18 20 19 8 0 -27z m-74 -93 c0 -7 -11 -23 -24 -35 -20 -19 -24 -20 -29 -7 -4
9 -3 15 1 15 18 -3 32 2 32 11 0 6 -7 10 -15 10 -26 0 -16 15 10 16 14 1 25
-4 25 -10z m-90 -101 c-23 -24 -36 -31 -41 -23 -10 17 -1 28 16 21 8 -3 15 0
15 5 0 14 31 44 38 37 3 -3 -10 -21 -28 -40z m-63 -62 c-9 -9 -19 -14 -22 -11
-3 3 2 13 11 22 9 9 19 14 22 11 3 -3 -2 -13 -11 -22z m283 -368 c0 -8 -153
-190 -224 -265 -39 -41 -143 -149 -231 -240 -290 -298 -424 -459 -580 -696
-319 -485 -448 -666 -635 -888 -108 -128 -351 -342 -470 -413 -51 -31 -161
-85 -165 -81 -2 2 33 35 77 73 121 106 417 412 528 545 91 110 284 361 322
420 8 14 25 36 37 49 20 23 69 95 235 346 36 55 73 111 83 124 17 24 17 24 -4
13 -12 -7 -65 -55 -119 -107 -54 -52 -99 -95 -101 -95 -8 0 -2 18 12 35 97
130 167 209 329 371 219 218 287 282 496 459 58 50 126 106 150 125 78 62 114
93 185 162 70 68 75 72 75 63z m-3675 -2331 c13 -5 14 -8 3 -15 -19 -13 -28
-11 -28 6 0 17 2 18 25 9z m119 -249 c25 -19 17 -19 -25 0 -24 10 -28 14 -14
14 11 0 29 -6 39 -14z m56 -25 c0 -5 -2 -10 -4 -10 -3 0 -8 5 -11 10 -3 6 -1
10 4 10 6 0 11 -4 11 -10z m84 -19 c4 -5 -3 -7 -14 -4 -23 6 -26 13 -6 13 8 0
17 -4 20 -9z m83 3 c-3 -3 -12 -4 -19 -1 -8 3 -5 6 6 6 11 1 17 -2 13 -5z
m-24 -21 c-7 -2 -19 -2 -25 0 -7 3 -2 5 12 5 14 0 19 -2 13 -5z m94 -19 c-3
-3 -12 -4 -19 -1 -8 3 -5 6 6 6 11 1 17 -2 13 -5z"/>
<path d="M3155 4911 c-325 -55 -634 -229 -841 -476 -49 -57 -123 -163 -137
-195 -4 -8 -16 -28 -26 -45 -31 -48 -73 -136 -69 -141 3 -2 17 20 33 48 120
226 245 385 390 500 47 37 195 133 242 157 200 100 433 150 614 131 188 -19
321 -81 444 -205 94 -95 130 -159 160 -284 42 -172 30 -349 -34 -516 -22 -57
-90 -197 -100 -205 -3 -3 -19 -25 -36 -50 -16 -25 -36 -52 -45 -61 -8 -9 -35
-41 -60 -70 -37 -46 -85 -91 -209 -200 -10 -9 -40 -31 -67 -49 -27 -19 -50
-37 -52 -42 -2 -4 -8 -8 -13 -8 -5 0 -45 -20 -88 -45 -294 -166 -605 -214
-867 -134 -144 44 -298 174 -359 302 -21 43 -34 63 -35 50 0 -12 3 -23 8 -25
4 -1 20 -29 36 -62 55 -109 205 -235 335 -281 235 -82 522 -52 815 85 87 40
223 125 308 192 80 63 241 223 278 278 13 19 27 37 31 40 26 20 127 214 161
310 67 191 64 425 -6 584 -87 197 -265 344 -486 401 -74 19 -252 28 -325 16z"/>
<path d="M3748 4503 c7 -3 16 -2 19 1 4 3 -2 6 -13 5 -11 0 -14 -3 -6 -6z"/>
<path d="M2791 4478 c-53 -15 -132 -70 -195 -136 -56 -59 -116 -143 -116 -163
0 -5 -6 -20 -14 -32 -8 -12 -17 -33 -20 -47 -3 -14 9 5 28 42 74 146 181 251
302 294 79 29 128 30 196 4 55 -21 68 -20 49 4 -32 38 -154 56 -230 34z"/>
<path d="M3908 4453 c7 -3 16 -2 19 1 4 3 -2 6 -13 5 -11 0 -14 -3 -6 -6z"/>
<path d="M3145 4221 c-38 -10 -100 -42 -144 -75 -19 -14 -40 -26 -46 -26 -6 0
-22 -11 -35 -25 -12 -13 -27 -22 -31 -19 -5 3 -9 1 -9 -5 0 -12 -83 -71 -100
-71 -6 0 -18 -7 -26 -15 -21 -21 -102 -20 -126 2 -28 25 -32 9 -6 -22 39 -45
116 -33 203 30 267 195 377 232 481 163 27 -18 64 -55 83 -83 21 -31 31 -41
26 -25 -9 31 -48 90 -78 118 -58 53 -120 70 -192 53z"/>
<path d="M3190 4046 c0 -3 15 -15 33 -27 23 -17 28 -18 18 -6 -14 18 -51 42
-51 33z"/>
<path d="M2053 3994 c-19 -45 -36 -99 -63 -199 -15 -52 -24 -284 -13 -312 5
-14 8 28 9 115 2 128 5 154 42 294 5 20 20 57 32 82 12 25 20 51 18 58 -2 6
-13 -11 -25 -38z"/>
<path d="M3080 4020 c-9 -6 -10 -10 -3 -10 6 0 15 5 18 10 8 12 4 12 -15 0z"/>
<path d="M5096 4022 c-3 -6 -1 -14 5 -17 15 -10 25 3 12 16 -7 7 -13 7 -17 1z"/>
<path d="M5058 3982 c-9 -10 -28 -25 -43 -35 -34 -24 -24 -35 10 -13 l26 17
-7 -35 c-6 -33 -4 -36 18 -36 13 0 29 -5 36 -12 6 -6 15 -9 18 -5 8 7 11 114
4 120 -15 14 -47 13 -62 -1z m43 -35 c-1 -12 -15 -9 -19 4 -3 6 1 10 8 8 6 -3
11 -8 11 -12z"/>
<path d="M3256 3875 c-18 -72 -94 -158 -176 -200 -53 -27 -91 -29 -165 -10
-15 4 -30 -8 -64 -50 -24 -31 -41 -58 -39 -61 3 -3 26 16 51 41 39 41 48 45
65 36 61 -33 166 2 245 81 50 50 101 145 95 176 -3 11 -6 8 -12 -13z"/>
<path d="M4940 3875 c-8 -9 -8 -15 -2 -15 12 0 26 19 19 26 -2 2 -10 -2 -17
-11z"/>
<path d="M3396 3843 c-6 -14 -5 -15 5 -6 7 7 10 15 7 18 -3 3 -9 -2 -12 -12z"/>
<path d="M3664 3821 c-18 -11 -35 -25 -40 -32 -4 -7 6 -3 23 9 17 12 41 26 54
31 13 5 17 10 9 10 -8 1 -29 -8 -46 -18z"/>
<path d="M5120 3830 c0 -5 5 -10 10 -10 6 0 10 5 10 10 0 6 -4 10 -10 10 -5 0
-10 -4 -10 -10z"/>
<path d="M4865 3811 c-3 -5 -1 -12 5 -16 5 -3 10 1 10 9 0 18 -6 21 -15 7z"/>
<path d="M3745 3779 c-4 -6 -5 -12 -2 -15 2 -3 7 2 10 11 7 17 1 20 -8 4z"/>
<path d="M4830 3780 c0 -5 5 -10 10 -10 6 0 10 5 10 10 0 6 -4 10 -10 10 -5 0
-10 -4 -10 -10z"/>
<path d="M3310 3708 c-15 -21 -17 -28 -6 -19 16 13 41 51 33 51 -2 0 -14 -15
-27 -32z"/>
<path d="M4772 3724 c9 -3 19 -13 22 -22 3 -12 4 -12 3 3 -1 12 -10 21 -22 22
-15 1 -15 0 -3 -3z"/>
<path d="M4717 3696 c-4 -10 -1 -13 9 -9 15 6 19 23 5 23 -5 0 -11 -7 -14 -14z"/>
<path d="M3700 3669 c-7 -11 -10 -23 -7 -25 2 -2 9 7 15 21 14 30 7 33 -8 4z"/>
<path d="M4978 3666 c-10 -7 -18 -19 -18 -27 0 -12 2 -12 9 0 5 8 22 20 38 27
22 10 24 12 8 13 -11 0 -28 -6 -37 -13z"/>
<path d="M3259 3643 c-13 -16 -12 -17 4 -4 16 13 21 21 13 21 -2 0 -10 -8 -17
-17z"/>
<path d="M4636 3641 c-4 -5 3 -7 14 -4 23 6 26 13 6 13 -8 0 -17 -4 -20 -9z"/>
<path d="M3666 3613 c-6 -14 -5 -15 5 -6 7 7 10 15 7 18 -3 3 -9 -2 -12 -12z"/>
<path d="M4605 3620 c-3 -5 -1 -10 4 -10 6 0 11 5 11 10 0 6 -2 10 -4 10 -3 0
-8 -4 -11 -10z"/>
<path d="M3635 3564 c-9 -15 -12 -23 -6 -20 11 7 35 46 28 46 -3 0 -12 -12
-22 -26z"/>
<path d="M3405 3569 c-4 -6 -5 -12 -2 -15 2 -3 7 2 10 11 7 17 1 20 -8 4z"/>
<path d="M4755 3490 c-26 -28 -15 -31 14 -3 13 13 20 23 14 23 -5 0 -18 -9
-28 -20z"/>
<path d="M3569 3483 c-13 -16 -12 -17 4 -4 16 13 21 21 13 21 -2 0 -10 -8 -17
-17z"/>
<path d="M1986 3442 c-2 -4 -1 -14 5 -22 7 -12 9 -10 9 8 0 23 -5 28 -14 14z"/>
<path d="M3515 3429 c-4 -6 -5 -12 -2 -15 2 -3 7 2 10 11 7 17 1 20 -8 4z"/>
<path d="M4660 3409 c0 -5 5 -7 10 -4 6 3 10 8 10 11 0 2 -4 4 -10 4 -5 0 -10
-5 -10 -11z"/>
<path d="M4594 3344 c-18 -14 -18 -15 4 -4 12 6 22 13 22 15 0 8 -5 6 -26 -11z"/>
<path d="M1325 1160 c3 -5 8 -10 11 -10 2 0 4 5 4 10 0 6 -5 10 -11 10 -5 0
-7 -4 -4 -10z"/>
<path d="M1608 1123 c6 -2 18 -2 25 0 6 3 1 5 -13 5 -14 0 -19 -2 -12 -5z"/>
<path d="M1496 1106 c10 -8 21 -12 24 -10 5 6 -21 24 -34 24 -6 0 -1 -6 10
-14z"/>
<path d="M1450 1080 c19 -13 30 -13 30 0 0 6 -10 10 -22 10 -19 0 -20 -2 -8
-10z"/>
<path d="M1640 1070 c0 -5 5 -10 10 -10 6 0 10 5 10 10 0 6 -4 10 -10 10 -5 0
-10 -4 -10 -10z"/>
</g>
</svg>
