<?xml version="1.0" encoding="utf-8"?>
<!-- Generator: Adobe Illustrator 25.2.0, SVG Export Plug-In . SVG Version: 6.00 Build 0)  -->
<svg version="1.1" id="Layer_1" xmlns="http://www.w3.org/2000/svg" xmlns:xlink="http://www.w3.org/1999/xlink" x="0px" y="0px"
	 viewBox="0 0 550.18 313.31" style="enable-background:new 0 0 550.18 313.31;" xml:space="preserve">
<style type="text/css">
	.st0{fill:#B547F3;}
	.st1{fill:#00F09C;}
	.st2{fill:#1C9CD4;}
	.st3{fill:#FFFFFF;}
</style>
<g>
	<path class="st0" d="M519.67,77.11c-28.8-44.15-81.95-72.49-139.88-72.53C281.16,4.51,182.53,4.44,83.9,4.36
		C73.95,28.61,64,52.86,54.04,77.11H519.67z"/>
	<g>
		<path class="st1" d="M537.65,194.32c1.72-6.05,3-11.98,3.72-17.51c2.44-18.71,0.23-38.37,0.23-38.38c0,0-0.6-5.36-1.5-10.32
			c-0.42-2.32-1-5-1.78-7.96H109.73c-9.58,24.72-19.15,49.44-28.73,74.16H537.65z"/>
	</g>
	<path class="st2" d="M36.57,237.36c-9.64,23.86-19.27,47.72-28.91,71.59c124.04-0.04,248.09-0.09,372.13-0.13
		c57.45-0.04,110.21-27.93,139.17-71.46H36.57z"/>
</g>
</svg>
