<svg width="100" height="100" xmlns="http://www.w3.org/2000/svg" version="1.1">

 <g>
  <title>Layer 1</title>
  <g stroke="null" id="svgg">
   <path stroke="null" fill-rule="evenodd" fill="#abaaab" d="m3.99435,1.95555l-0.6828,0.06428l-0.03073,0.86268l-0.03073,0.86268l-0.7109,0l-0.71117,0l-0.0021,0.52596c-0.00263,0.60276 -0.10216,0.66788 -1.05047,0.68736c-0.39287,0.00807 -0.55806,0.06011 -0.60507,0.19007c-0.12343,0.3409 -0.06749,19.32768 0.05751,19.48713c0.08588,0.10992 0.4903,0.14777 1.57334,0.14777l1.45778,0l0,3.44405c0,2.54964 0.03256,3.46547 0.12553,3.52642c0.177,0.11604 1.4998,0.26743 2.93421,0.33589c1.43415,0.06846 1.52423,0.14248 1.30153,1.07c-0.14812,0.61751 0.01287,0.71185 0.50921,0.29804c0.32958,-0.27467 0.38289,-1.09227 0.12238,-1.8748c-0.26262,-0.78838 -0.35768,-0.8368 -1.78133,-0.90582c-1.81599,-0.08822 -1.63584,0.24851 -1.63584,-3.05723l0,-2.81679l-0.3414,-0.28969c-0.5037,-0.42772 -0.52891,-0.4536 -0.80623,-0.8215c-0.21193,-0.28162 -0.35532,-0.35064 -0.8556,-0.41214c-0.45984,-0.05649 -0.66284,-0.14359 -0.86506,-0.3704l-0.26419,-0.29665l-0.03572,-7.86654l-0.03572,-7.86654l0.26235,-0.29582c0.23425,-0.26409 0.32617,-0.29192 0.85823,-0.25936c0.84825,0.05176 1.45306,-0.60193 1.45306,-1.57008c0,-0.21205 0.11503,-0.47253 0.31514,-0.71408c0.26025,-0.3139 0.31514,-0.47726 0.31514,-0.93615c0,-0.74719 -0.75765,-0.69488 10.08211,-0.69488l9.4253,0l0.05909,1.26925c0.07117,1.53279 0.18304,1.77295 0.9357,2.00977c0.28599,0.09016 0.60428,0.27411 0.70749,0.40908c0.16072,0.21038 0.27864,0.24211 0.82409,0.22124l0.63658,-0.02421l0.12422,0.39878c0.07458,0.2396 0.09612,0.61529 0.0541,0.9406c-0.20983,1.61572 1.73458,3.10064 3.21154,2.45224c0.17228,-0.07542 0.6463,-0.13719 1.05309,-0.13664l0.74005,0.00056l-0.03178,-0.79255c-0.04044,-1.00628 -0.07353,-1.03661 -1.14369,-1.05498l-0.88896,-0.01531l-0.21009,0.35426c-0.66127,1.11564 -1.43809,0.44414 -1.5581,-1.34634c-0.10216,-1.52639 -0.20825,-1.81914 -0.7524,-2.07572c-0.43069,-0.20343 -0.44986,-0.2332 -0.44303,-0.68653c0.00394,-0.26075 -0.01313,-0.4934 -0.03782,-0.51705c-0.09874,-0.09489 -1.25294,-0.13803 -1.25294,-0.04703c0,0.23292 -0.5318,0.64423 -0.83302,0.64423c-0.42728,0 -0.63763,-0.43997 -0.63763,-1.33409c0,-0.43607 -0.0604,-0.77502 -0.16965,-0.95173l-0.16965,-0.27439l-9.94108,0.0192c-5.46767,0.01057 -10.24834,0.04814 -10.62389,0.08349m71.16906,0.10324c-0.67834,0.29637 -0.6828,0.30389 -0.6828,1.12288c0,1.63882 -0.40784,2.12192 -1.79131,2.12192c-1.30179,0 -1.90896,0.25519 -2.11879,0.89079c-0.03966,0.11994 -0.18908,0.1614 -0.52838,0.14666c-0.53206,-0.02338 -0.60008,0.12662 -0.6027,1.32797l-0.00105,0.52874l-0.57776,0l-0.57776,0l-0.00053,0.52874c-0.00026,0.40073 -0.07642,0.65007 -0.31461,1.02965c-0.29991,0.47809 -0.31435,0.55518 -0.31461,1.69531c-0.00053,1.36304 -0.0478,1.42509 -0.92231,1.21694c-0.44172,-0.10519 -0.44198,-0.10491 -0.37633,0.18868c0.1665,0.74441 1.20777,0.96203 1.82335,0.38153c0.02889,-0.02727 0.07616,-0.73439 0.10505,-1.57119l0.05252,-1.52166l0.57776,-0.02783c0.80597,-0.03868 1.23115,-0.12523 1.38845,-0.28274c0.07406,-0.07402 0.30989,-0.27328 0.52418,-0.44303c0.44802,-0.35426 0.60691,-0.81704 0.60796,-1.76961c0.00079,-1.01323 -0.03913,-0.98318 1.31728,-0.98318l1.18913,0l0.40154,-0.54126c0.22086,-0.29776 0.49582,-0.58579 0.61111,-0.64005c0.33431,-0.15751 0.48663,-0.64868 0.54992,-1.77518c0.03519,-0.62503 0.11161,-1.09672 0.18882,-1.16462c0.08693,-0.07653 3.40246,-0.10408 10.07344,-0.08349l9.94397,0.03033l-0.03073,-0.27828l-0.03073,-0.27828l-10.03195,-0.0167c-9.10255,-0.01503 -10.07082,0.00056 -10.45213,0.16697m20.11931,1.69893c-1.01659,0.42995 -0.37922,2.67264 0.80045,2.81707c1.43073,0.17504 1.34985,-0.12801 1.30021,4.8683c-0.02337,2.3515 -0.0063,2.66902 0.15993,2.96707c0.17543,0.31474 0.17595,0.35648 0.00945,0.72827c-0.15626,0.34897 -0.17595,0.87854 -0.16939,4.57694c0.00394,2.30002 -0.02153,4.23131 -0.05646,4.29114c-0.03493,0.06011 -0.01786,0.10909 0.03782,0.10909c0.05567,0 0.07668,0.10018 0.04648,0.22263c-0.0302,0.12245 -0.12028,0.22263 -0.20038,0.22263c-0.07984,0 -0.14523,0.05343 -0.14523,0.11883c0,0.07959 0.43069,0.10742 1.30494,0.0846c0.71773,-0.01865 1.25005,-0.06985 1.18282,-0.1141c-0.09165,-0.05983 -0.0885,-0.11604 0.01234,-0.22291c0.10347,-0.10964 0.15284,-0.11187 0.21246,-0.00974c0.04281,0.07319 0.07616,-3.86759 0.07432,-8.75761c-0.00158,-4.89001 -0.03703,-8.9268 -0.07852,-8.97077c-0.04149,-0.04397 -0.26524,-0.08682 -0.49713,-0.09545c-0.28415,-0.0103 -0.47323,-0.0871 -0.57959,-0.23543c-0.08693,-0.12078 -0.24239,-0.33645 -0.3456,-0.47893c-0.17989,-0.24823 -1.70622,-0.68235 -2.41161,-0.68597c-0.41887,-0.00195 -0.51473,-0.47253 -0.27759,-1.36471c0.05804,-0.21817 -0.00394,-0.22986 -0.37974,-0.07096m-72.4325,4.14059c-0.11555,0.07291 -0.24134,0.17838 -0.27969,0.23459c-0.04097,0.06011 -3.05659,0.10575 -7.32253,0.11131c-8.28135,0.01057 -7.49429,-0.09851 -7.63032,1.05665c-0.04727,0.40073 -0.14103,0.66315 -0.27916,0.7817c-0.32775,0.28107 -0.31146,13.49512 0.01707,13.86551c0.11555,0.13079 0.21036,0.32309 0.21036,0.42744c0,0.10463 0.13,0.25129 0.28888,0.32615c0.15888,0.07458 0.37397,0.21734 0.47796,0.31724c0.17175,0.16447 1.05677,0.18172 1.22406,0.02393c0.13052,-0.123 0.3028,0.96092 0.24949,1.56897c-0.06408,0.7291 0.24476,1.28846 0.71117,1.28846c0.13472,0 0.22532,0.13219 0.30464,0.44442c0.13183,0.51872 0.50685,0.7792 1.12426,0.78142c1.18992,0.00473 1.62244,1.06694 1.21197,2.97625c-0.06592,0.30639 -0.06565,0.63978 0.00105,0.94617c0.05646,0.2602 0.12527,0.78838 0.15258,1.1738l0.0499,0.70072l-2.95444,-0.03284c-2.90322,-0.03228 -2.95391,-0.02894 -2.92423,0.18979c0.02889,0.21261 0.1208,0.22402 2.02609,0.25157c3.89828,0.05649 4.56349,0.20843 5.07953,1.15905c0.22244,0.40936 0.25342,0.42605 0.78759,0.42605c0.71274,0 0.97326,-0.45611 1.11953,-1.95968c0.07458,-0.76528 0.15258,-1.05219 0.38027,-1.4006c0.54073,-0.82706 -2.31365,-0.75832 31.551,-0.75832l30.54098,0l0.36215,0.26047c1.00293,0.72103 1.18598,1.02409 1.28892,2.13277c0.03966,0.42856 0.14418,0.98513 0.23189,1.23697l0.15993,0.45778l1.01528,0.07124c1.41261,0.09907 1.98328,-0.07347 2.69156,-0.81482l0.53653,-0.56158l2.62301,-0.01252c1.44255,-0.00668 3.07182,-0.04425 3.62069,-0.08349l0.99794,-0.07096l0.03125,-0.82372c0.02153,-0.57132 -0.02442,-0.98735 -0.15048,-1.35831c-0.32354,-0.95368 -0.20537,-1.05414 1.34433,-1.14542c2.04079,-0.12022 1.97881,-0.09573 1.97855,-0.77586l-0.00026,-0.57187l-1.66919,0c-1.72618,0 -2.11196,0.10241 -2.11196,0.56019c0,0.07486 -0.07091,0.19842 -0.15757,0.27467c-0.08666,0.07625 -0.15757,0.30778 -0.15757,0.51455c0,0.20677 -0.04333,0.37596 -0.09638,0.37596c-0.05305,0 -0.12107,0.33812 -0.15127,0.75137c-0.0302,0.41325 -0.0864,0.96425 -0.12474,1.22445l-0.06986,0.47308l-2.74644,0.00111c-3.48702,0.00167 -3.94161,0.09489 -4.07423,0.83541c-0.05646,0.3153 -0.82567,0.39266 -0.82567,0.08293c0,-0.11382 -0.05226,-0.26242 -0.11581,-0.32977c-0.07852,-0.08321 -0.09297,-0.45806 -0.04464,-1.16323c0.03913,-0.57243 0.06539,-1.39114 0.0583,-1.8197c-0.07117,-4.30227 0.15258,-6.61092 0.65024,-6.71249c0.13604,-0.02783 0.18383,0.09601 0.23635,0.61167c0.24738,2.42692 0.46746,2.68906 2.2803,2.71745c2.27347,0.03534 2.50273,-0.15111 2.50273,-2.03398c0,-1.89846 0.28389,-2.34566 1.48168,-2.33592c0.39996,0.00334 0.60481,0.06345 0.75345,0.22096c0.17805,0.18868 0.22638,0.19647 0.37633,0.059c0.0948,-0.08682 0.30385,-0.2691 0.46483,-0.40518l0.29255,-0.24739l0.00236,-7.41878c0.00263,-7.71794 -0.04701,-8.64574 -0.46352,-8.67468c-0.06828,-0.00473 -2.68447,-0.01725 -5.81407,-0.02783l-5.69011,-0.0192l-0.27023,-0.26882l-0.27023,-0.26882l-0.20379,0.24906c-0.25342,0.30973 -1.22694,0.35453 -1.60537,0.07402c-0.29308,-0.21762 -0.34376,-0.21762 -0.54887,0c-0.26971,0.28552 -1.28157,0.23682 -1.59697,-0.07736l-0.25316,-0.25213l-0.15179,0.22958c-0.08325,0.12606 -0.30385,0.26159 -0.48978,0.3011c-0.97299,0.20621 -1.07384,0.61028 -1.11323,4.46591c-0.04097,3.99115 -0.06802,4.08967 -1.00845,3.67335c-0.31356,-0.13886 -1.09117,-0.16753 -4.60866,-0.17087c-4.73944,-0.00445 -5.09791,-0.0512 -4.23364,-0.55128c0.59456,-0.34452 0.78417,-0.87326 0.84116,-2.34816c0.01103,-0.28079 0.05384,-0.56881 0.09559,-0.64005c0.05462,-0.09406 -0.11319,-0.12996 -0.60481,-0.12996c-0.92651,0 -0.96748,0.02588 -0.92835,0.58579c0.0541,0.77447 -0.22034,1.81803 -0.46273,1.75876c-0.10951,-0.02699 -6.04569,-0.06595 -13.19122,-0.08682l-12.9919,-0.03812l-0.06854,-0.3306c-0.04543,-0.21957 -0.1363,-0.33478 -0.27023,-0.34285c-0.11082,-0.00696 -0.30805,-0.0167 -0.43804,-0.02171c-0.32381,-0.0128 -0.39051,-0.15139 -0.39235,-0.81676c-0.00184,-0.67818 -0.04727,-0.70907 -1.03445,-0.70406c-0.63868,0.00306 -0.68254,0.01781 -0.49661,0.16697c0.14628,0.11716 0.16125,0.16391 0.05252,0.16502c-0.12737,0.00139 -0.12842,0.01725 -0.00551,0.09963c0.09323,0.06234 0.12527,0.2101 0.08929,0.40936c-0.04386,0.24406 0.00919,0.37624 0.24502,0.60972c0.19617,0.19424 0.32538,0.45917 0.37081,0.76111c0.07406,0.49117 0.3892,0.84988 0.8556,0.97372c0.19749,0.0526 0.24082,0.1205 0.1946,0.30389c-0.03309,0.12968 -0.06066,0.29164 -0.06145,0.35982c-0.00263,0.23654 -1.14291,0.29192 -1.50926,0.07319c-0.29886,-0.1781 -0.74872,-0.20009 -4.71607,-0.22958c-2.41213,-0.01781 -4.38648,-0.0679 -4.38727,-0.11131c-0.00079,-0.04313 -0.02022,-1.66748 -0.04281,-3.60935c-0.04911,-4.16369 -0.04097,-4.13141 -1.05467,-4.26554c-0.35453,-0.04703 -0.63763,-0.155 -0.74951,-0.28608c-0.2051,-0.24016 -0.32302,-0.2524 -0.62004,-0.06484m1.77555,1.91348c0.20116,0.4063 0.22322,0.66204 0.25395,2.9231c0.05042,3.73402 -0.02679,3.96472 -1.36062,4.06545c-0.83092,0.06289 -1.45673,0.30806 -1.45673,0.57104c0,0.08321 -0.07064,0.2947 -0.15704,0.47002c-0.08614,0.17532 -0.15704,0.40407 -0.15757,0.50815c-0.00026,0.10436 -0.06592,0.45499 -0.14549,0.7792c-0.40102,1.62963 -0.65575,1.83501 -2.41056,1.94103c-1.54681,0.09378 -1.51241,0.05677 -1.55837,1.67305c-0.04202,1.47602 -0.17569,1.70004 -1.02315,1.71562c-0.63317,0.01169 -1.70044,0.33589 -1.80286,0.54766c-0.2768,0.57243 -0.41336,1.03104 -0.41336,1.38725c0,0.86658 -0.47271,1.61572 -1.03182,1.63575c-2.04184,0.07347 -2.36171,-0.19536 -2.47017,-2.07544c-0.08824,-1.52778 -0.17411,-1.60654 -1.75165,-1.61266c-1.27842,-0.00501 -1.24139,0.22291 -1.25137,-7.71487l-0.00788,-6.20964l0.26472,-0.55351l0.26472,-0.55351l7.99746,0.02866l7.99746,0.02838l0.22034,0.44525m66.63577,-0.43412c0.77341,0.16391 0.77498,0.18228 0.74032,7.69428c-0.03677,7.92554 0.15678,7.0879 -1.6642,7.20283c-2.27531,0.14387 -2.23749,0.11354 -2.30604,1.86089c-0.06539,1.66804 -0.2143,1.87452 -1.35353,1.87536c-1.43861,0.00111 -1.72486,-0.26214 -1.83359,-1.68668c-0.11319,-1.48548 -0.38237,-1.87424 -1.29916,-1.87591c-1.64897,-0.00334 -1.86143,-0.19675 -1.96306,-1.78631c-0.10347,-1.61767 -0.09034,-1.60626 -1.8785,-1.61238c-2.00193,-0.0064 -2.1335,-0.11465 -2.22778,-1.83306c-0.07695,-1.40283 -0.31934,-2.32423 -0.6287,-2.38963c-0.11713,-0.02477 -0.52523,-0.06679 -0.90629,-0.09323c-1.42916,-0.09879 -1.43021,-0.10213 -1.44859,-4.30617c-0.01077,-2.47562 -0.01418,-2.4592 0.60113,-2.82236l0.49004,-0.28914l7.68153,-0.0025c4.22497,-0.00167 7.82334,0.02727 7.99641,0.06401m-17.30616,9.89495c0,0.21706 -0.28599,0.75332 -0.34613,0.64924c-0.09612,-0.16669 -0.12159,-0.64618 -0.04123,-0.78281c0.09638,-0.16391 0.38736,-0.06345 0.38736,0.13358m3.09677,5.31746c0.10373,0.26047 -0.13315,0.5741 -0.31356,0.41548c-0.09297,-0.08182 -0.11739,-0.40963 -0.08535,-1.14236c0.06776,-1.53891 0.16886,-1.7518 0.25054,-0.52679c0.0386,0.58161 0.10531,1.1457 0.14838,1.25367m3.04057,4.05071c-0.05016,0.35426 -0.09979,0.46334 -0.15941,0.35036c-0.12185,-0.23098 -0.15205,-0.90359 -0.04832,-1.08169c0.15836,-0.27133 0.28599,0.1781 0.20773,0.73133m-0.00184,2.20012c-0.05095,0.41325 -0.09113,0.50258 -0.16387,0.36455c-0.12343,-0.23376 -0.13945,-1.0341 -0.03073,-1.53001l0.0843,-0.38375l0.08903,0.50091c0.04885,0.2755 0.05856,0.74719 0.02127,1.0483m0.00263,1.31712c0.06513,0.47447 0.05174,0.52874 -0.13,0.52874c-0.18173,0 -0.19355,-0.04842 -0.11608,-0.47308c0.04753,-0.2602 0.0885,-0.519 0.09113,-0.57521c0.01024,-0.23265 0.08719,0.02532 0.15494,0.51956m-33.17686,6.70916c-0.66731,0.19424 -0.79074,0.33895 -0.86637,1.01685l-0.06277,0.56046l0.56436,0.0718c0.71957,0.09156 4.01042,0.09323 4.52961,0.00223l0.39392,-0.06901l0,-0.59275c0,-0.58189 -0.00867,-0.59831 -0.45564,-0.87604c-0.5381,-0.33422 -3.10097,-0.4049 -4.10312,-0.11354m38.21778,6.24275c-0.09796,0.43579 -0.32013,0.68514 -0.68648,0.77029c-0.51342,0.11938 -0.75844,0.85545 -0.68175,2.04622c0.33746,5.23703 0.39392,8.00401 0.1686,8.27757c-0.76605,0.9303 -0.8472,0.98791 -1.35563,0.95925c-0.4454,-0.02505 -1.16549,0.25686 -1.16549,0.45639c0,0.03423 -0.15731,0.15194 -0.34981,0.26159c-0.48059,0.27439 -1.12032,1.32463 -1.12216,1.84252c-0.00499,1.36248 0.25684,1.31072 -6.93176,1.37194c-3.3221,0.02838 -6.1644,0.02198 -6.31645,-0.01391c-0.50475,-0.11994 -0.82645,-0.46919 -0.82855,-0.89914c-0.00289,-0.57438 -0.27969,-2.33981 -0.43069,-2.74472c-0.13078,-0.35092 -0.39498,-0.34646 -0.63711,0.01057c-0.03939,0.05816 -1.12662,0.13886 -2.41607,0.17894c-2.06784,0.06456 -2.40136,0.10074 -2.82785,0.30695l-0.48348,0.23376l-0.05751,1.10757c-0.08824,1.69531 -0.39681,2.10466 -1.6017,2.12359c-0.8929,0.01391 -1.10299,0.37568 -1.10299,1.8979c0,0.84988 -1.09721,1.76766 -2.1419,1.79187c-1.14973,0.02699 -1.82597,0.81509 -1.92078,2.23852c-0.10216,1.53223 -0.58038,1.75848 -3.71077,1.75597c-3.75069,-0.00306 -3.88541,-0.07319 -3.8862,-2.02201c-0.00026,-0.65452 -0.04412,-1.21861 -0.09743,-1.25367c-0.05331,-0.03479 -0.12816,-0.21317 -0.16597,-0.39628l-0.06907,-0.33255l-1.11139,0l-1.11166,0l-0.29387,-0.34897c-0.30726,-0.36455 -0.33063,-0.47475 -0.48111,-2.2669l-0.08404,-1.00182l-1.05047,-0.06957c-2.28555,-0.15166 -2.62354,-0.38932 -2.70679,-1.90319c-0.06355,-1.15794 -0.30437,-1.75542 -0.77472,-1.92322c-0.17149,-0.06122 -0.42754,-0.19202 -0.56856,-0.29053c-0.2529,-0.17615 -0.5536,-0.11104 -0.74137,0.16113c-0.12894,0.18673 -1.00556,0.11382 -1.3144,-0.10937c-0.29282,-0.2115 -0.77472,-0.15027 -0.77472,0.09823c0,0.04675 -0.09612,0.08488 -0.21377,0.08488c-0.69488,0 -1.04679,0.66955 -1.04679,1.99252l0,1.00155l-0.38605,0.31196l-0.38631,0.31168l-6.67807,-0.04146c-6.97903,-0.04341 -6.95172,-0.04146 -7.40368,-0.52039c-0.09559,-0.1013 -0.16755,-0.3626 -0.16755,-0.60833c0,-0.23682 -0.04727,-0.46167 -0.10505,-0.49952c-0.05778,-0.03785 -0.10505,-0.36205 -0.10505,-0.7202l0,-0.65146l-0.45328,-0.23237c-0.26892,-0.13803 -0.66074,-0.23265 -0.96301,-0.23265c-0.47455,0 -0.54073,-0.03646 -0.96118,-0.52874c-0.71668,-0.83931 -0.77393,-1.18549 -0.77393,-4.68853c0,-3.22977 0.03493,-2.96929 -0.58957,-4.41136c-0.13236,-0.30611 -0.26524,-0.64423 -0.29518,-0.75137c-0.04937,-0.17782 -0.25027,-0.19452 -2.28949,-0.19313c-2.5093,0.00195 -2.529,0.00696 -2.48566,0.64311c0.02547,0.37262 -0.02153,0.50787 -0.26577,0.76667c-0.16335,0.17254 -0.33851,0.42995 -0.38946,0.5716c-0.052,0.14471 -0.0927,7.54818 -0.0927,16.89046l0,16.63277l0.44645,0.29637c0.24555,0.1628 0.47875,0.34869 0.51814,0.41297c0.03939,0.06428 0.38237,0.13775 0.76264,0.16335c0.79389,0.05371 0.90603,0.21539 0.71222,1.0252c-0.09638,0.40212 -0.08745,0.44247 0.09769,0.44247c0.62923,0 0.91338,-1.05915 0.56489,-2.1055c-0.22953,-0.68959 -0.40443,-0.81983 -1.19622,-0.8919l-0.69777,-0.06373l-0.07117,-14.41513c-0.03913,-7.92832 -0.07878,-14.5654 -0.08798,-14.74907c-0.00919,-0.18367 0.0176,-1.04412 0.05935,-1.91181l0.07616,-1.57787l0.48453,-0.06456c0.60481,-0.08042 3.46601,0.00083 3.71471,0.10547c0.14969,0.06317 0.18567,0.22541 0.19407,0.8727c0.00551,0.43718 0.0281,2.21013 0.05016,3.93995c0.03755,2.96512 0.05305,3.17188 0.26839,3.6177c0.20038,0.41437 0.22559,0.62642 0.20353,1.71618c-0.03283,1.62073 0.15284,1.7813 2.1138,1.82694c0.52681,0.01224 1.15157,0.07347 1.38819,0.13636c0.26445,0.07013 2.08911,0.1077 4.73708,0.09712c2.3688,-0.00918 4.49599,0.02059 4.7271,0.06679l0.42019,0.08349l0.03046,0.97149c0.04202,1.34829 0.01339,1.38669 -1.0699,1.43483c-0.78654,0.03479 -0.93728,0.07736 -1.34144,0.37874l-0.45538,0.33951l0,4.00451l0,4.00451l0.27706,0.31669c0.25736,0.29387 0.34744,0.32058 1.26056,0.37318c1.19385,0.06874 1.24612,0.10658 1.24612,0.90609c0,0.76973 0.25369,1.31712 0.74609,1.6096c0.96932,0.57577 1.1106,0.62948 1.6684,0.6331c0.58747,0.00417 0.79652,0.08655 1.29339,0.5101c0.25815,0.21984 0.34088,0.44359 0.59246,1.60097c0.20642,0.94895 0.51946,1.30237 1.24927,1.40923c0.56883,0.08321 0.98166,0.26298 1.28787,0.56019c0.25316,0.246 0.38184,0.2691 1.86037,0.33338c1.88979,0.08209 2.05025,0.17504 2.17368,1.25924c0.12894,1.13401 -0.27023,1.49133 -1.42443,1.2751c-0.29439,-0.0551 -0.42912,-0.01948 -0.63028,0.16725c-0.1405,0.13079 -0.46693,0.34813 -0.72508,0.4831c-0.55281,0.28858 -0.7348,0.61306 -0.7369,1.31378c-0.00079,0.28162 -0.05541,0.67567 -0.12107,0.8752l-0.11923,0.36288l-1.37769,-0.06762c-0.75765,-0.03701 -1.72854,-0.10658 -2.15766,-0.15417c-0.62897,-0.06957 -0.88187,-0.04842 -1.30547,0.10964c-0.37239,0.13886 -0.68201,0.17643 -1.06465,0.12885c-0.80833,-0.10074 -0.89395,0.03673 -0.89395,1.43344c0,0.6189 -0.04412,1.27899 -0.09796,1.46711c-0.05384,0.18784 -0.15416,0.54933 -0.22322,0.80285c-0.18436,0.67929 -0.24397,0.75248 -0.49582,0.60972c-0.11739,-0.06679 -0.56069,-0.15027 -0.98507,-0.18562c-1.06255,-0.08877 -1.18519,-0.12328 -1.53132,-0.4319c-0.49214,-0.43885 -1.50164,-0.51483 -1.78422,-0.13413c-0.53968,0.72716 -1.9347,0.71964 -2.50431,-0.01391c-0.24555,-0.31585 -0.62161,-0.27522 -0.72771,0.07903c-0.15153,0.50564 -0.76842,0.37401 -0.99768,-0.21261c-0.14076,-0.35982 -0.8212,-0.54238 -2.20782,-0.59247l-0.6828,-0.02449l-0.06198,-1.16879c-0.11371,-2.15086 -0.10846,-2.14668 -2.8268,-2.19121c-1.12662,-0.01837 -2.1075,-0.05733 -2.17972,-0.08655c-0.1447,-0.05816 -0.18409,0.46307 -0.05095,0.67567c0.04963,0.07931 0.62109,0.13052 1.60038,0.14276c2.31181,0.02922 2.9413,0.46501 2.9413,2.03565c0,0.54905 0.2269,1.42064 0.45118,1.73343c0.06881,0.09601 0.44671,0.13942 1.21618,0.1397c1.29391,0.00056 1.79919,0.28886 1.79919,1.02659c0,0.24489 0.09087,0.43301 0.30621,0.63449l0.30647,0.28635l-0.09586,2.17062c-0.05252,1.19384 -0.0927,2.22071 -0.08929,2.28193c0.00341,0.06122 0.03099,0.69988 0.06093,1.41925l0.05489,1.30794l31.13712,0l31.13738,0l0.01103,-1.02965c0.00578,-0.56631 0.0281,-2.48118 0.04937,-4.25497l0.03834,-3.22559l-0.27916,-0.30862c-0.23741,-0.2627 -0.36372,-0.3089 -0.84405,-0.3089c-0.59378,0 -0.87372,-0.10547 -1.25452,-0.4728c-0.24292,-0.23432 -0.42518,-0.22931 -1.24007,0.03339c-0.59877,0.19285 -1.73169,0.26298 -1.87088,0.11549c-0.13262,-0.14053 -0.45879,-0.16224 -0.51026,-0.03395c-0.12212,0.30528 -2.02582,0.78977 -2.38771,0.60777c-0.39419,-0.19842 -1.15184,-0.21428 -1.47459,-0.03117c-0.30201,0.17114 -0.42701,-0.369 -0.42701,-1.84419c0,-1.37361 -0.10899,-1.7941 -0.49083,-1.89567c-0.13446,-0.0359 -0.2445,-0.10964 -0.2445,-0.16419c0,-0.05566 -1.2427,-0.09935 -2.82995,-0.09935c-1.61614,0 -2.85595,-0.04397 -2.89009,-0.10269c-0.03283,-0.05649 -0.19749,-0.13497 -0.36582,-0.17393c-0.37659,-0.08766 -0.53206,-0.49451 -0.53206,-1.39309c0,-0.84181 -0.1644,-1.31935 -0.48321,-1.40422c-0.13866,-0.03673 -0.25211,-0.11159 -0.25211,-0.16614c0,-0.05482 -0.29544,-0.10102 -0.65654,-0.10297c-0.40994,-0.00223 -0.73323,-0.06484 -0.86033,-0.16697c-0.1124,-0.08989 -0.31146,-0.16335 -0.44277,-0.16335c-0.40679,0 -0.9231,-1.62073 -0.60533,-1.89985c0.22191,-0.19536 1.4134,-0.46056 1.98722,-0.44247c2.49748,0.07931 3.6354,0.0025 3.90563,-0.26298c0.35768,-0.35147 0.58826,-1.27899 0.43437,-1.74707c-0.13131,-0.39934 -0.06119,-1.40756 0.14234,-2.04817l0.14155,-0.44525l1.64345,0.03451c2.10461,0.04425 2.399,-0.19842 2.399,-1.97721c0,-1.04746 0.05961,-1.11815 0.94017,-1.11898c1.31518,-0.00111 1.80129,-0.32615 2.06627,-1.38085c0.23872,-0.94951 0.20563,-7.39234 -0.03887,-7.59883c-0.35138,-0.29637 -0.71537,-0.3896 -1.81205,-0.46307l-1.10299,-0.07402l-0.02968,-1.18104l-0.02968,-1.18104l2.44575,-0.07625c1.34512,-0.04202 3.62752,-0.06957 5.07191,-0.06122c3.37147,0.01948 4.76439,-0.11577 5.89416,-0.5716l0.85219,-0.34368l0.06697,-0.84181c0.03703,-0.46307 0.06723,-1.19913 0.06723,-1.63631c0,-0.57466 0.05804,-0.91528 0.21009,-1.23113c0.2789,-0.57967 0.32197,-6.93651 0.05436,-8.02516c-0.14785,-0.60193 -0.14444,-0.65981 0.06933,-1.14653l0.22532,-0.5126l0.07642,0.58356c0.1883,1.43372 0.13577,1.40422 2.62091,1.47685l1.94336,0.05677l0.35663,0.36483c0.40811,0.41743 0.58406,1.71423 0.56515,4.16759l-0.00919,1.19495l0.38395,0.10213c0.21141,0.05621 0.60953,0.12606 0.88475,0.155l0.50055,0.05287l-0.02784,-3.07532l-0.02784,-3.0756l-0.43463,-0.01503c-0.42649,-0.01475 -1.14396,-0.21317 -1.35116,-0.37374c-0.19381,-0.15 -0.93491,-0.24628 -2.45993,-0.31919c-1.06438,-0.05093 -1.52764,-0.11354 -1.55837,-0.21094c-0.0239,-0.07625 -0.10216,-0.13859 -0.17411,-0.13859c-0.24082,0 -0.57854,-0.50202 -0.75082,-1.1162c-0.09402,-0.33505 -0.21088,-0.69126 -0.25973,-0.79144c-0.04911,-0.10046 -0.0864,-0.39238 -0.08299,-0.64924c0.00762,-0.58718 -0.1862,-0.84209 -0.28993,-0.38125m-38.25665,1.37111c-0.83302,0.44971 -0.85193,0.48561 -0.8732,1.63937c-0.02731,1.4852 -0.3653,1.74902 -2.37405,1.85393c-1.64555,0.08571 -1.60931,0.0526 -1.60931,1.46878c0,1.08726 0.01497,1.16991 0.23635,1.30404c0.30227,0.18283 13.53079,0.32142 13.65448,0.14304c0.04254,-0.06122 0.07721,-0.66232 0.07721,-1.33576c0,-1.54865 0.08719,-1.45654 -1.4675,-1.54865c-2.01427,-0.11938 -2.57548,-0.55017 -2.77848,-2.13333c-0.14943,-1.16406 -0.64,-1.45821 -2.53294,-1.51832c-0.80518,-0.0256 -1.53499,-0.07486 -1.62166,-0.10937c-0.08666,-0.03423 -0.40653,0.0718 -0.7109,0.23626m4.31531,25.46746c0.91285,0.11298 1.85801,1.33354 1.85801,2.39909l0,0.62976l0.39392,0.10436c0.21666,0.0576 0.83092,0.13413 1.36508,0.17003c1.58437,0.10714 1.70753,0.29665 1.70753,2.62589l0,1.57815l-0.29597,0.31363c-0.34324,0.36344 -1.55469,0.53598 -2.86173,0.40713c-1.28341,-0.12634 -1.3593,-0.25018 -1.3593,-2.21848c0,-2.09325 -0.229,-2.44668 -1.13976,-1.75959c-0.24738,0.18673 -0.51709,0.21706 -2.23355,0.25129c-2.29133,0.04564 -2.29921,0.04898 -2.29921,0.96175c0,2.35735 -0.63186,2.92282 -3.09677,2.7706c-1.69414,-0.10436 -1.79919,-0.20593 -1.9087,-1.84169c-0.16571,-2.47283 0.32538,-3.12318 2.36775,-3.13543c0.83381,-0.00501 0.95697,-0.13775 0.95697,-1.0316c0,-0.40296 0.04727,-0.76361 0.10505,-0.80146c0.05778,-0.03785 0.10636,-0.15361 0.10794,-0.25713c0.00394,-0.25908 0.55044,-0.80897 1.08014,-1.0867c0.44277,-0.23237 3.62962,-0.28051 5.25259,-0.07959m40.83029,9.68763c-0.25999,0.01503 -0.87451,0.0999 -1.36561,0.18896c-0.49109,0.08877 -1.22379,0.21177 -1.62822,0.273c-0.50344,0.07625 -0.76842,0.1717 -0.84037,0.30222c-0.05778,0.10519 -0.18121,0.27634 -0.27443,0.38041c-0.42019,0.46919 -0.30043,1.44485 0.24082,1.96302c0.21324,0.20398 0.21377,0.20231 0.17622,-0.39767l-0.03755,-0.60276l0.42019,-0.13859c0.2311,-0.07653 0.79835,-0.22513 1.26056,-0.3306c0.63107,-0.14387 0.8971,-0.26159 1.0678,-0.47308c0.17989,-0.22263 0.35191,-0.29248 0.82278,-0.33394c0.6203,-0.05427 0.72377,-0.14749 0.66468,-0.59803c-0.03073,-0.23348 -0.08246,-0.25713 -0.50685,-0.23292m-6.14522,4.72332c-0.33431,0.21177 -0.47271,0.39405 -0.47271,0.62252c0,0.11716 -0.11398,0.26771 -0.25316,0.33505c-0.49687,0.23988 -0.86059,2.89527 -0.42097,3.07393c0.39498,0.16085 0.4622,0.08989 0.30122,-0.31836c-0.38132,-0.96704 -0.03939,-1.75987 0.79336,-1.84029l0.57749,-0.05566l0.03204,-0.52985c0.03834,-0.63477 0.39261,-0.86157 1.34643,-0.86157c0.49477,0 0.56489,-0.02755 0.56489,-0.22263c0,-0.2037 -0.07012,-0.22263 -0.82724,-0.22263c-0.45485,0 -0.96301,-0.0256 -1.12925,-0.05677c-0.16597,-0.03145 -0.39655,0.00306 -0.5121,0.07625m-0.8929,4.58696c0,0.08488 -0.09454,0.18033 -0.21009,0.21233c-0.11555,0.032 -0.21009,0.00668 -0.21009,-0.05621c0,-0.0679 -0.06434,-0.05816 -0.15757,0.02393c-0.08666,0.07625 -0.15757,0.0974 -0.15757,0.04703c0,-0.05037 -0.05331,-0.03506 -0.11818,0.03367c-0.15048,0.15946 -0.02416,0.95869 0.13525,0.85433c0.06119,-0.04007 0.15284,-0.0039 0.20327,0.08042c0.0562,0.09434 0.09218,0.1038 0.09323,0.02449c0.00079,-0.07347 0.09139,-0.1038 0.21167,-0.07041c0.11555,0.032 0.21009,0.10241 0.21009,0.15667c0,0.05399 0.04727,0.09823 0.10505,0.09823c0.06014,0 0.10505,-0.33394 0.10505,-0.7792c0,-0.44525 -0.04491,-0.7792 -0.10505,-0.7792c-0.05778,0 -0.10505,0.06929 -0.10505,0.15389m-21.47546,1.41118l0.33168,0.34062l-0.24371,0.52206c-0.13393,0.28719 -0.26813,0.61083 -0.29807,0.71936c-0.11345,0.41186 -0.44907,-0.01865 -0.52103,-0.66872c-0.11529,-1.03939 0.21114,-1.44736 0.73112,-0.91333m-3.36806,4.34207c0,0.96036 -0.17438,1.43511 -0.75213,2.04734l-0.38473,0.40769l-0.21928,-0.23237c-0.33956,-0.35899 -0.39182,-2.81791 -0.06933,-3.25231l0.21876,-0.2947l0.60323,0.24851l0.60349,0.24879l0,0.82706" id="path0"/>
   <path stroke="null" fill-rule="evenodd" fill="#a3361c" d="m8.36744,10.22922c-0.08588,0.33923 -0.06565,12.35109 0.0218,13.05153l0.06959,0.55657l1.14448,0.03172c1.71305,0.04759 1.95439,0.33478 1.95439,2.32813l0,0.99793l0.59509,0.11437c0.90156,0.17309 1.18913,-0.03423 1.18992,-0.85795c0.00053,-0.4152 0.07012,-0.73968 0.21456,-1.00182c0.11739,-0.21344 0.26813,-0.5215 0.33484,-0.68486c0.18672,-0.4575 0.87451,-0.75638 2.04841,-0.88995c0.56489,-0.06428 1.03628,-0.12578 1.04758,-0.13636c0.01156,-0.0103 0.05384,-0.60666 0.09428,-1.32491c0.08588,-1.52221 0.2332,-1.79326 1.04364,-1.92211c0.25132,-0.03979 0.5381,-0.16753 0.63737,-0.28357c0.13525,-0.15834 0.32669,-0.21177 0.76789,-0.21372c0.66022,-0.00334 0.76054,-0.1358 1.04942,-1.38864c0.07038,-0.30611 0.20353,-0.70684 0.29544,-0.89051c0.09192,-0.18367 0.26209,-0.52735 0.37817,-0.76389c0.34665,-0.70489 0.68228,-0.84932 1.9775,-0.84988c1.06964,-0.00028 1.1198,-0.01085 1.18046,-0.25073c0.08299,-0.3281 0.08509,-5.46717 0.00236,-5.69564c-0.05725,-0.15862 -0.86217,-0.17615 -8.02372,-0.17615l-7.96017,0l-0.06329,0.25046m67.03259,-0.04536l-0.28888,0.1845l0.00368,1.72536c0.00394,1.94131 0.20248,3.75461 0.42754,3.90572c0.08036,0.05399 0.49057,0.09907 0.91128,0.0999c1.17889,0.0025 1.80864,0.94561 1.80864,2.70743c0,1.61043 0.14496,1.74679 1.8567,1.74679c1.53237,0 2.01033,0.38876 2.01584,1.64049c0.00709,1.55143 0.15022,1.69475 1.69493,1.69781c0.91995,0.00195 1.51477,0.53542 1.46671,1.31601c-0.00998,0.16447 -0.01339,0.65647 -0.00709,1.0931l0.01103,0.79367l0.47717,0.16641c0.38893,0.1358 0.58826,0.14332 1.07673,0.04119l0.59955,-0.12551l0.05252,-1.30599c0.07773,-1.93352 0.24555,-2.04595 3.10413,-2.08017c1.08303,-0.01308 0.99269,0.61529 0.99269,-6.90952l0,-6.63346l-0.47429,-0.13441c-0.82645,-0.23432 -15.35413,-0.1692 -15.72889,0.07068m-57.59599,28.07638c-0.25684,0.52651 -0.22795,17.69916 0.0302,17.93793c0.28336,0.26187 10.84133,0.27188 12.02783,0.01113l0.81411,-0.17894l0.00105,-0.79088c0.00341,-2.21848 0.46273,-2.48146 3.99939,-2.28777c1.89399,0.1038 2.16002,0.09629 2.57495,-0.07152l0.46273,-0.18729l0,-1.16824c0,-1.91293 0.5599,-2.52905 2.41607,-2.65789c1.39738,-0.09712 1.28971,0.3345 1.28288,-5.13824c-0.00525,-4.01787 -0.0386,-5.0222 -0.1862,-5.58739c-0.0386,-0.14693 -1.43126,-0.16864 -11.65649,-0.18144l-11.61264,-0.01447l-0.15389,0.31502m38.86408,0.08321c-0.12264,0.31057 -0.15048,1.2559 -0.15048,5.08954c0,5.60492 -0.052,5.33666 1.04758,5.41986c1.31545,0.09963 1.92971,0.76194 2.0534,2.21403c0.11082,1.30126 0.2206,1.64299 0.55307,1.72174c0.15678,0.03701 0.45065,0.11243 0.65286,0.16753c0.20221,0.05482 1.353,0.10018 2.55736,0.10046c2.51665,0.00056 2.65426,0.04397 2.89745,0.91249c0.0738,0.26381 0.18094,0.54015 0.23819,0.61445c0.05699,0.0743 0.12973,0.43691 0.16125,0.80619c0.05594,0.65452 0.0667,0.674 0.43673,0.79979c0.43647,0.14833 11.98713,0.2307 11.98713,0.08543c0,-0.04731 0.09008,-0.11632 0.20038,-0.15333c0.19512,-0.06568 0.19933,-0.28496 0.16203,-8.55084c-0.0365,-8.13536 -0.07563,-9.1703 -0.35742,-9.4689c-0.08351,-0.08849 -3.24253,-0.12551 -11.20269,-0.13163l-11.08662,-0.00835l-0.15022,0.38153m-15.01457,15.4598c-0.2311,0.10157 -0.44566,0.22402 -0.47665,0.27216c-0.03125,0.04814 -0.17306,0.08015 -0.31514,0.07096c-1.08198,-0.07013 -1.46671,0.2396 -1.46671,1.18076c0,0.52484 -0.04464,0.66232 -0.31908,0.979c-0.44408,0.51343 -0.46982,0.71185 -0.32827,2.53155c0.1489,1.91487 0.00184,1.71868 1.32805,1.77072c0.99952,0.03924 1.11612,0.06734 1.42942,0.34452l0.34114,0.30166l0.0478,1.27232c0.06539,1.74957 -0.01261,1.66164 1.47669,1.66164c1.39922,0 1.70044,0.16335 1.84829,1.00182c0.16807,0.95424 0.60796,2.86688 0.69278,3.01243c0.09901,0.17031 3.96236,0.30806 4.67352,0.16669c0.4299,-0.08543 0.57881,-0.43134 0.64919,-1.50941c0.03414,-0.52123 0.12921,-0.97316 0.2529,-1.20302c0.10899,-0.20231 0.19801,-0.43273 0.19801,-0.51176c0,-0.53514 0.77629,-0.91611 1.99956,-0.98123c1.39371,-0.07402 1.42075,-0.09629 1.50059,-1.22278c0.12947,-1.82777 0.57749,-2.31282 2.13954,-2.31644c1.08802,-0.0025 1.02079,0.2037 0.94621,-2.90974c-0.0864,-3.58514 -0.10662,-3.65081 -1.10877,-3.55592c-0.1363,0.0128 -0.34245,-0.06707 -0.45827,-0.17755c-0.2789,-0.2666 -0.09454,-0.25936 -7.85512,-0.31446c-6.13393,-0.04369 -6.81542,-0.03089 -7.19569,0.13608" id="path1"/>
   <path stroke="null" fill-rule="evenodd" fill="#0e0ab2" d="m11.34761,35.77238c-0.33983,0.06456 -0.38132,0.11855 -0.46168,0.59887l-0.06723,0.40101l0.78102,-0.05315c0.45275,-0.03089 0.92599,0.00028 1.12557,0.07402c0.45932,0.16975 0.67177,-0.03228 0.56673,-0.53876c-0.1061,-0.5126 -0.83407,-0.69293 -1.94441,-0.48199m73.66391,0.76723c-0.38762,0.64395 -0.34061,0.70128 0.52523,0.6395l0.76159,-0.05454l0.27864,0.49757c0.21981,0.39294 0.29361,0.70517 0.35033,1.48242c0.03966,0.54154 0.1103,1.15989 0.15731,1.37417c0.04701,0.21428 0.11476,0.52735 0.15074,0.69571c0.05699,0.2691 0.11398,0.30611 0.47035,0.30611c0.67755,0 0.7868,-0.45138 0.42728,-1.76516c-0.11293,-0.4127 -0.10688,-0.5716 0.04044,-1.06722c0.51315,-1.72453 -0.08299,-2.5143 -1.89136,-2.50595l-1.03418,0.00473l-0.23635,0.39266m-71.03775,1.11648c-0.13682,0.03924 -0.15337,0.5229 -0.12579,3.66834c0.0365,4.19625 -0.05462,4.60867 -1.01921,4.60867c-0.24791,0 -0.13761,1.10952 0.1208,1.21527c0.26708,0.10937 0.61347,0.48672 0.82593,0.89969c0.10951,0.21317 0.15573,1.17158 0.19749,4.08855l0.05436,3.81027l0.34744,0.33617c0.38421,0.37179 1.58647,0.48282 2.31444,0.214l0.3309,-0.12217l0,-9.13162l0,-9.13162l-0.22611,-0.20788c-0.18935,-0.17393 -0.40259,-0.20788 -1.30442,-0.20788c-0.59325,0 -1.14133,-0.0192 -1.21828,-0.0423c-0.07695,-0.02338 -0.21088,-0.02226 -0.29754,0.0025m67.02996,0.13024c-0.66547,0.14248 -0.6526,-0.04508 -0.65575,9.647c-0.00158,4.85968 -0.04412,8.76122 -0.09638,8.86502c-0.28678,0.5677 -1.02184,0.80981 -2.56708,0.84543c-2.71913,0.06261 -3.24804,0.05621 -5.49945,-0.06651c-1.90213,-0.1038 -2.35698,-0.09712 -2.99383,0.04369c-0.41283,0.09128 -0.99164,0.16586 -1.2863,0.16614c-0.61242,0 -1.15683,0.24433 -1.25189,0.56186c-0.03572,0.11938 -0.10426,0.21734 -0.15179,0.21734c-0.15704,0 -0.30464,1.2584 -0.20931,1.78269c0.0499,0.27467 0.09297,0.53458 0.09559,0.57772c0.00236,0.04313 0.17044,0.11131 0.37318,0.15166c0.203,0.04035 0.39471,0.11771 0.42649,0.17198c0.0323,0.05566 2.60174,0.09879 5.86528,0.09879c7.14185,0 6.59509,0.13747 6.58905,-1.65635l-0.00368,-1.09115l0.41283,-0.49062c0.2269,-0.26994 0.43883,-0.57271 0.47087,-0.67233c0.06723,-0.21038 0.48847,-0.31947 1.23456,-0.31947c1.99772,0 2.01164,-0.04146 2.01689,-6.01901l0.0042,-4.62759l0.32354,-0.3434c0.17805,-0.18868 0.49923,-0.44303 0.71405,-0.5652l0.39051,-0.22179l-0.51525,-0.07514c-0.92152,-0.13413 -1.00713,-0.44052 -0.99637,-3.56204c0.00499,-1.50635 0.05436,-2.68572 0.11923,-2.86048c0.08377,-0.22541 0.07695,-0.32698 -0.02784,-0.4191c-0.16387,-0.14415 -2.26717,-0.24934 -2.78137,-0.13914m-38.44547,0.14109c-0.25369,0.05287 -0.48925,0.12606 -0.52392,0.1628c-0.12816,0.1358 -0.15232,7.63946 -0.03073,9.5663l0.07012,1.11119l0.57776,0.30249c1.53079,0.80174 2.47122,0.07235 2.54659,-1.97526c0.02968,-0.79784 0.08299,-1.07752 0.25474,-1.33576c0.36294,-0.54572 0.37685,-0.75332 0.09008,-1.35803c-0.33352,-0.70378 -0.35427,-1.56897 -0.05515,-2.30837c0.27391,-0.67734 0.26498,-0.89301 -0.05252,-1.2559c-0.24765,-0.28302 -0.26262,-0.37123 -0.26262,-1.54837l0,-1.2481l-0.39392,-0.11604c-0.46037,-0.13552 -1.56204,-0.13385 -2.22042,0.00306m10.02013,-0.02282l-0.31514,0.07096l-0.05252,1.33521c-0.03204,0.81621 -0.10741,1.43706 -0.19407,1.59819c-0.15074,0.28051 -0.08955,1.10841 0.11109,1.5058c0.07511,0.14888 0.05174,0.57132 -0.07931,1.43456c-0.1728,1.1379 -0.17411,1.27566 -0.01707,1.95996c0.0927,0.4049 0.19828,1.10674 0.23452,1.55978c0.11214,1.40394 0.66127,1.83334 2.66713,2.0863c1.35221,0.17059 1.36849,0.16614 1.16392,-0.32615c-0.11975,-0.28775 -0.15573,-1.39643 -0.18462,-5.67227l-0.03624,-5.31439l-0.2831,-0.06568c-0.15599,-0.0359 -0.42045,-0.11131 -0.588,-0.16753c-0.33694,-0.11298 -1.93259,-0.11604 -2.42658,-0.00473m3.73257,13.27499c0.0042,1.89595 0.02521,1.93324 1.09301,1.93324c1.13372,0 1.2146,-0.10436 1.2146,-1.56563c0,-1.4276 -0.20904,-1.71701 -1.24244,-1.71952c-0.32775,-0.00083 -0.70224,-0.03172 -0.83223,-0.06874l-0.23635,-0.06707l0.00341,1.48771m-16.54825,-1.27092c-0.11555,0.0295 -0.36372,0.12968 -0.55149,0.22235l-0.3414,0.16864l0,1.19106l0,1.19133l0.39392,0.20287c0.61295,0.31557 1.79919,0.36511 2.12142,0.08849c0.35217,-0.30249 0.42623,-2.58749 0.09507,-2.9384c-0.19145,-0.20287 -1.14396,-0.273 -1.71751,-0.12634m-7.58962,3.65888l-0.3414,0.15807l0,1.27732c0,1.7621 0.21718,1.85977 3.72233,1.67416c2.05602,-0.10881 2.10224,-0.14888 2.03055,-1.75709c-0.02679,-0.59775 -0.08299,-1.12343 -0.12474,-1.16796c-0.23583,-0.24962 -4.8022,-0.40908 -5.28673,-0.1845m27.52325,0.18534c-0.25185,0.33951 -0.33142,2.11134 -0.10741,2.39714c0.34298,0.43802 0.71931,0.51204 2.75879,0.54321c2.73804,0.04202 3.18265,-0.01085 3.28323,-0.39127c0.11345,-0.42772 0.07038,-2.02396 -0.06408,-2.38211l-0.11503,-0.30611l-2.82602,0c-2.1356,0 -2.85123,0.03395 -2.92949,0.13914m-41.00625,3.40787c-1.02762,0.091 -1.08855,0.15361 -1.22773,1.26675c-0.32039,2.56411 -0.72114,2.41606 6.55044,2.41913c6.76868,0.00278 6.99847,-0.0192 7.12295,-0.67957c0.3955,-2.09465 -0.42518,-3.27012 -2.0878,-2.991c-0.30253,0.05093 -0.75292,0.04063 -1.06281,-0.02393c-0.37528,-0.07848 -0.70197,-0.07514 -1.08224,0.01141c-0.40285,0.09156 -0.66836,0.09072 -1.01869,-0.00278c-0.3133,-0.08349 -0.80098,-0.09712 -1.43888,-0.03979c-1.05729,0.09462 -1.91211,0.09963 -3.74859,0.02087c-0.66442,-0.02838 -1.56729,-0.01976 -2.00665,0.01892" id="path2"/>
   <path stroke="null" fill-rule="evenodd" fill="#c4c4c4" d="m5.07108,2.48791c-0.20799,0.04258 -0.23635,0.11604 -0.23635,0.61028c0,0.46557 -0.0541,0.62725 -0.31514,0.94227c-0.20011,0.24155 -0.31514,0.50202 -0.31514,0.71408c0,0.96815 -0.60481,1.62184 -1.45306,1.57008c-0.53206,-0.03256 -0.62398,-0.00473 -0.85823,0.25936l-0.26235,0.29582l0.03572,7.86654l0.03572,7.86654l0.26419,0.29665c0.20221,0.2268 0.40522,0.3139 0.86506,0.3704c0.50028,0.0615 0.64367,0.13052 0.8556,0.41214c0.27732,0.36789 0.30253,0.39377 0.80623,0.8215l0.3414,0.28969l0,2.81679c0,3.30574 -0.18015,2.96901 1.63584,3.05723c1.42364,0.06901 1.51871,0.11744 1.78133,0.90582c0.36582,1.09867 0.08141,2.1055 -0.59509,2.1055c-0.26524,0 -0.29229,1.05024 -0.02968,1.15683c0.09139,0.03729 1.41892,0.06762 2.95023,0.06762l2.784,0l-0.04963,-0.69571c-0.02731,-0.38264 -0.09586,-0.9086 -0.15232,-1.16879c-0.0667,-0.30639 -0.06697,-0.63978 -0.00105,-0.94617c0.41047,-1.90931 -0.02206,-2.97152 -1.21197,-2.97625c-0.61741,-0.00223 -0.99243,-0.2627 -1.12426,-0.78142c-0.07931,-0.31223 -0.16991,-0.44442 -0.30464,-0.44442c-0.46641,0 -0.77524,-0.55935 -0.71117,-1.28846c0.05331,-0.60805 -0.11897,-1.69197 -0.24949,-1.56897c-0.16729,0.15779 -1.0523,0.14053 -1.22406,-0.02393c-0.104,-0.0999 -0.31908,-0.24266 -0.47796,-0.31724c-0.15888,-0.07486 -0.28888,-0.22151 -0.28888,-0.32615c0,-0.10436 -0.0948,-0.29665 -0.21036,-0.42744c-0.32853,-0.3704 -0.34482,-13.58445 -0.01707,-13.86551c0.13814,-0.11855 0.23189,-0.38097 0.27916,-0.7817c0.13604,-1.15516 -0.65103,-1.04607 7.63032,-1.05665c4.27513,-0.00557 7.28157,-0.0512 7.32253,-0.11159c0.22506,-0.3306 0.64604,-0.42021 0.88397,-0.18812c0.14076,0.13719 0.45879,0.26131 0.78732,0.30778c0.9898,0.13942 0.98376,0.11465 1.03261,4.26248c0.02259,1.94187 0.04202,3.56621 0.04281,3.60935c0.00079,0.04341 1.97514,0.0935 4.38727,0.11131c3.96735,0.0295 4.41721,0.05148 4.71607,0.22958c0.36635,0.21873 1.50663,0.16335 1.50926,-0.07319c0.00079,-0.06818 0.02836,-0.23014 0.06145,-0.35982c0.04622,-0.18339 0.00289,-0.25129 -0.1946,-0.30389c-0.46641,-0.12384 -0.78155,-0.48254 -0.8556,-0.97372c-0.04543,-0.30194 -0.17464,-0.56687 -0.37081,-0.76111c-0.23583,-0.23348 -0.28888,-0.36567 -0.24502,-0.60972c0.03598,-0.19925 0.00394,-0.34702 -0.08929,-0.40936c-0.1229,-0.08237 -0.12185,-0.09823 0.00551,-0.09963c0.10872,-0.00111 0.09375,-0.04786 -0.05252,-0.16502c-0.12711,-0.10213 -0.45039,-0.16474 -0.86033,-0.16697l-0.65654,-0.00362l0,-1.28011l0,-1.28011l-0.28888,-0.01698c-0.60087,-0.03479 -1.24428,0.02505 -1.51792,0.14137c-1.46094,0.62141 -3.38907,-0.87465 -3.18186,-2.46922c0.04202,-0.32531 0.02048,-0.701 -0.0541,-0.9406l-0.12422,-0.39878l-0.63658,0.02421c-0.54545,0.02087 -0.66337,-0.01085 -0.82409,-0.22124c-0.10321,-0.13497 -0.4215,-0.31891 -0.70749,-0.40908c-0.75266,-0.23682 -0.86453,-0.47698 -0.9357,-2.00977l-0.05909,-1.26925l-9.51722,0.01503c-5.23473,0.00835 -9.62384,0.03701 -9.75384,0.06345m70.59288,0.05955c-0.05751,0.07708 -0.13157,0.60221 -0.1644,1.16712c-0.06408,1.10562 -0.21508,1.58733 -0.54677,1.74345c-0.11529,0.05427 -0.39025,0.34229 -0.61111,0.64005l-0.40154,0.54126l-1.18913,0c-1.35641,0 -1.3165,-0.03005 -1.31728,0.98318c-0.00105,0.95257 -0.15993,1.41535 -0.60796,1.76961c-0.2143,0.16975 -0.45012,0.369 -0.52418,0.44303c-0.15731,0.15751 -0.58248,0.24406 -1.38845,0.28274l-0.57776,0.02783l-0.05252,1.52166c-0.02889,0.8368 -0.07616,1.54392 -0.10505,1.57119c-0.62083,0.58551 -1.65658,0.3626 -1.82623,-0.39349c-0.06434,-0.28747 -0.10347,-0.30611 -0.63816,-0.30611c-0.65155,0 -0.71353,0.06428 -0.74084,0.77001c-0.05699,1.47491 -0.2466,2.00365 -0.84116,2.34816c-0.86427,0.50008 -0.5058,0.54683 4.23364,0.55128c3.51748,0.00334 4.29509,0.032 4.60866,0.17087c0.94043,0.41631 0.96748,0.3178 1.00845,-3.67335c0.03939,-3.85563 0.14024,-4.2597 1.11323,-4.46591c0.18593,-0.03952 0.40653,-0.17504 0.48978,-0.3011l0.15179,-0.22958l0.25316,0.25213c0.3154,0.31418 1.32726,0.36288 1.59697,0.07736c0.2051,-0.21762 0.25579,-0.21762 0.54887,0c0.37843,0.28051 1.35195,0.23571 1.60537,-0.07402l0.20379,-0.24906l0.27023,0.26882l0.27023,0.26882l5.69011,0.0192c3.1296,0.01057 5.74579,0.0231 5.81407,0.02783c0.41651,0.02894 0.46614,0.95674 0.46352,8.67468l-0.00236,7.41878l-0.29255,0.24739c-0.16098,0.13608 -0.37003,0.31836 -0.46483,0.40518c-0.14995,0.13747 -0.19828,0.12968 -0.37633,-0.059c-0.14864,-0.15751 -0.35348,-0.21762 -0.75345,-0.22096c-1.19779,-0.00974 -1.48168,0.43746 -1.48168,2.33592c0,1.88287 -0.22926,2.06932 -2.50273,2.03398c-1.81284,-0.02838 -2.03291,-0.29053 -2.2803,-2.71745c-0.05252,-0.51566 -0.10032,-0.6395 -0.23635,-0.61167c-0.49766,0.10157 -0.72141,2.41022 -0.65024,6.71249c0.00709,0.42856 -0.01917,1.24727 -0.0583,1.8197c-0.04832,0.70517 -0.03388,1.08002 0.04464,1.16323c0.06355,0.06734 0.11581,0.21595 0.11581,0.32977c0,0.30973 0.7692,0.23237 0.82567,-0.08293c0.13262,-0.74051 0.58721,-0.83374 4.07423,-0.83541l2.74644,-0.00111l0.06986,-0.47308c0.03834,-0.2602 0.09454,-0.8112 0.12474,-1.22445c0.0302,-0.41325 0.09822,-0.75137 0.15127,-0.75137c0.05305,0 0.09638,-0.1653 0.09638,-0.36734c0,-0.20203 0.05279,-0.42327 0.11713,-0.49145c0.0646,-0.06846 0.17175,-0.24016 0.23846,-0.38181c0.22559,-0.47976 0.52838,-0.55295 1.96463,-0.47447c1.97645,0.1077 1.7766,0.44748 1.7766,-3.02328l0,-2.9423l0.6828,0c0.38526,0 0.6828,-0.04842 0.6828,-0.11131c0,-0.06122 0.06539,-0.11131 0.14523,-0.11131c0.0801,0 0.17018,-0.10018 0.20038,-0.22263c0.0302,-0.12245 0.00919,-0.22263 -0.04648,-0.22263c-0.05567,0 -0.07274,-0.04898 -0.03782,-0.10909c0.03493,-0.05983 0.0604,-1.99112 0.05646,-4.29114c-0.00657,-3.6984 0.01313,-4.22797 0.16939,-4.57694c0.1665,-0.37179 0.16597,-0.41353 -0.00945,-0.72827c-0.16624,-0.29804 -0.18331,-0.61556 -0.15993,-2.96707c0.04963,-4.99632 0.13052,-4.69326 -1.30021,-4.8683c-0.80728,-0.09879 -1.22353,-0.68708 -1.22353,-1.72926c0,-0.83096 0.05357,-0.95368 0.4819,-1.10368c0.40706,-0.1422 0.55937,-1.11564 0.19775,-1.26258c-0.35558,-0.14471 -19.76635,-0.07792 -19.87534,0.06818m-1.91868,9.8802c0,3.09202 -0.02075,3.56204 -0.15757,3.56204c-0.13656,0 -0.15757,-0.44609 -0.15757,-3.34665c0,-3.03135 0.05252,-3.77743 0.26629,-3.77743c0.02679,0 0.04885,1.60292 0.04885,3.56204m-41.25704,-2.1272c0.04333,0.00668 0.07878,0.53431 0.07878,1.17213l0,1.15989l-0.28888,0.059c-0.79573,0.16168 -0.81096,0.14053 -0.84379,-1.17325c-0.03388,-1.35274 -0.0084,-1.38224 1.05388,-1.21777m41.07978,8.83859c-0.08036,0.13664 -0.05489,0.61612 0.04123,0.78281c0.06014,0.10408 0.34613,-0.43218 0.34613,-0.64924c0,-0.19703 -0.29098,-0.29749 -0.38736,-0.13358m3.19788,3.41817c-0.14234,0.58718 -0.16177,2.33007 -0.02731,2.44834c0.18042,0.15862 0.4173,-0.155 0.31356,-0.41548c-0.04307,-0.10797 -0.10977,-0.67206 -0.14838,-1.25367c-0.04386,-0.65592 -0.09612,-0.95173 -0.13787,-0.7792m7.68678,6.79014c0.21771,0.43496 0.44356,0.66788 0.64682,0.66788c0.10268,0 0.21745,0.10269 0.255,0.22791c0.07301,0.24378 -0.1019,0.55128 -0.3133,0.55128c-0.69252,0 -0.61977,1.15655 0.09087,1.44263c0.53337,0.21511 0.46536,1.56841 -0.09533,1.89706c-0.1728,0.10102 -0.36162,0.28413 -0.41992,0.40657c-0.14654,0.30917 -0.43384,0.59831 -0.51184,0.51538c-0.09375,-0.09907 -0.08062,-7.98815 0.01366,-8.23193c0.0457,-0.11827 0.10321,0.31084 0.13682,1.02047c0.0323,0.68235 0.11975,1.34773 0.19722,1.50274m-4.56769,-1.43789c-0.10373,0.1781 -0.07353,0.85072 0.04832,1.08169c0.05961,0.11298 0.10925,0.0039 0.15941,-0.35036c0.07826,-0.55323 -0.04937,-1.00266 -0.20773,-0.73133m0.01129,1.76599c-0.10872,0.4959 -0.0927,1.29625 0.03073,1.53001c0.1447,0.27411 0.25237,-0.79311 0.1426,-1.41285l-0.08903,-0.50091l-0.0843,0.38375m0.04228,1.96302c-0.00263,0.05621 -0.04359,0.31502 -0.09113,0.57521c-0.07747,0.42466 -0.06565,0.47308 0.11608,0.47308c0.18173,0 0.19512,-0.05427 0.13,-0.52874c-0.06776,-0.49423 -0.1447,-0.7522 -0.15494,-0.51956m5.06535,15.97602c-0.21377,0.48672 -0.21718,0.5446 -0.06933,1.14653c0.26761,1.08865 0.22454,7.4455 -0.05436,8.02516c-0.15205,0.31585 -0.21009,0.65647 -0.21009,1.23113c0,0.43718 -0.0302,1.17325 -0.06723,1.63631l-0.06697,0.84181l-0.85219,0.34368c-1.12978,0.45583 -2.52269,0.59108 -5.89416,0.5716c-1.44439,-0.00835 -3.72679,0.0192 -5.07191,0.06122l-2.44575,0.07625l0.02968,1.18104l0.02968,1.18104l1.10299,0.07402c1.09669,0.07347 1.46067,0.16669 1.81205,0.46307c0.2445,0.20649 0.27759,6.64932 0.03887,7.59883c-0.26498,1.0547 -0.75108,1.37973 -2.06627,1.38085c-0.88055,0.00083 -0.94017,0.07152 -0.94017,1.11898c0,1.77879 -0.29439,2.02146 -2.399,1.97721l-1.64345,-0.03451l-0.14155,0.44525c-0.20353,0.64061 -0.27365,1.64883 -0.14234,2.04817c0.15389,0.46807 -0.07668,1.3956 -0.43437,1.74707c-0.27023,0.26548 -1.40815,0.34229 -3.90563,0.26298c-0.57382,-0.01809 -1.76531,0.24712 -1.98722,0.44247c-0.31777,0.27912 0.19854,1.89985 0.60533,1.89985c0.13131,0 0.33037,0.07347 0.44277,0.16335c0.12711,0.10213 0.45039,0.16474 0.86033,0.16697c0.3611,0.00195 0.65654,0.04814 0.65654,0.10297c0,0.05454 0.11345,0.1294 0.25211,0.16614c0.31882,0.08488 0.48321,0.56241 0.48321,1.40422c0,0.89858 0.15547,1.30543 0.53206,1.39309c0.16834,0.03896 0.333,0.11744 0.36582,0.17393c0.03414,0.05872 1.27395,0.10269 2.89009,0.10269c1.58725,0 2.82995,0.04369 2.82995,0.09935c0,0.05454 0.11004,0.12829 0.2445,0.16419c0.38184,0.10157 0.49083,0.52206 0.49083,1.89567c0,1.47518 0.12501,2.01533 0.42701,1.84419c0.32276,-0.18311 1.0804,-0.16725 1.47459,0.03117c0.36189,0.182 2.26559,-0.30249 2.38771,-0.60777c0.05147,-0.12829 0.37764,-0.10658 0.51026,0.03395c0.13919,0.14749 1.27211,0.07736 1.87088,-0.11549c0.8149,-0.2627 0.99715,-0.26771 1.24007,-0.03339c0.38079,0.36734 0.66074,0.4728 1.25452,0.4728c0.48269,0 0.60638,0.04564 0.8493,0.31446l0.28415,0.31418l-0.05462,4.24968c-0.05384,4.19514 -0.052,4.2494 0.15573,4.2494c0.20563,0 0.21009,-0.07347 0.21009,-3.5125c0,-4.65041 0.22532,-5.68256 1.3593,-6.22438c0.48321,-0.23098 0.63658,-0.54683 0.63658,-1.31016c0,-0.60388 0.34534,-1.31016 0.75397,-1.54197c0.18357,-0.10408 0.19145,-0.63922 0.19145,-12.9494c0,-13.69019 -0.01156,-13.36683 0.45853,-12.8687c0.12816,0.1358 0.16597,27.82147 0.03834,28.30541c-0.05751,0.21845 -0.14864,0.30611 -0.31803,0.30611c-0.333,0 -0.74032,0.31919 -0.61636,0.4831c0.05357,0.07096 0.12159,0.30444 0.15127,0.51872c0.02968,0.21428 0.12842,0.66399 0.21955,0.9996c0.12632,0.46585 0.16492,1.13651 0.16335,2.8385c-0.00105,1.22556 0.00026,2.84212 0.00315,3.59209l0.00525,1.36359l0.63028,0l0.63028,0l0,-3.73708c0,-2.84184 -0.03151,-3.76964 -0.13131,-3.87427c-0.20642,-0.21595 -0.49871,-0.30305 -0.50055,-0.14916c-0.00105,0.0935 -0.0302,0.08794 -0.09323,-0.01781c-0.05042,-0.08432 -0.14208,-0.1205 -0.20327,-0.08042c-0.15941,0.10436 -0.28573,-0.69488 -0.13525,-0.85433c0.06487,-0.06874 0.11818,-0.08404 0.11818,-0.03367c0,0.05037 0.07091,0.02922 0.15757,-0.04703c0.09323,-0.08209 0.15757,-0.09183 0.15757,-0.02393c0,0.06289 0.09454,0.08822 0.21009,0.05621c0.11555,-0.032 0.21009,-0.12745 0.21009,-0.21233c0,-0.0846 0.04727,-0.15389 0.10505,-0.15389c0.25132,0 0.07537,-0.31251 -0.21009,-0.3729l-0.31514,-0.06679l0,-0.84821c0,-1.10451 0.2466,-2.02313 0.58721,-2.18759c0.14286,-0.06901 0.25316,-0.2179 0.25316,-0.34173c0,-0.55657 0.33379,-0.67428 1.81205,-0.63838c0.64866,0.01558 1.12925,-0.01725 1.12925,-0.07708c0,-0.05705 -0.14208,-0.08182 -0.31593,-0.05482c-0.17359,0.02699 -0.57329,0.01503 -0.88817,-0.02672l-0.5725,-0.07569l0.06145,-0.74413c0.03388,-0.40908 0.10268,-0.79144 0.15284,-0.8496c0.05042,-0.05816 0.09323,-0.18339 0.09533,-0.27828c0.0021,-0.09489 0.11371,-0.31474 0.24765,-0.48839l0.24371,-0.31557l0.05883,0.46334c0.05567,0.44025 0.18803,0.62725 0.64183,0.90526c0.14103,0.08655 0.11109,0.00083 -0.10505,-0.29971c-0.36582,-0.50815 -0.40312,-1.3263 -0.07721,-1.68807c0.10715,-0.11883 0.24187,-0.30194 0.29965,-0.40713c0.07196,-0.13052 0.33694,-0.22597 0.84037,-0.30222c0.40443,-0.06122 1.13713,-0.18422 1.62822,-0.273c0.49109,-0.08905 1.10562,-0.17393 1.36561,-0.18896c0.45485,-0.02588 0.47402,-0.04119 0.50685,-0.4049c0.03099,-0.34424 0.01917,-0.36233 -0.13183,-0.20231c-0.25027,0.2652 -1.36062,0.14053 -1.87193,-0.2101l-0.39392,-0.27021l0,-12.28597l0,-12.28569l0.24423,-0.16975c0.28389,-0.19703 1.7141,-0.32003 1.98801,-0.17087c0.14418,0.07875 0.18383,0.05399 0.18383,-0.11437c0,-0.24739 -0.19381,-0.34953 -0.66521,-0.35036c-0.18304,-0.00028 -0.50554,-0.05148 -0.71694,-0.11382l-0.38395,-0.11298l0.00919,-1.19412c0.01891,-2.4528 -0.15704,-3.7496 -0.56515,-4.16675l-0.35663,-0.36483l-1.94336,-0.05677c-2.48514,-0.07263 -2.43262,-0.04313 -2.62091,-1.47685l-0.07642,-0.58356l-0.22532,0.5126m-76.29428,1.51331l-0.27443,0.04508l-0.0759,1.58038c-0.04202,0.86936 -0.06881,1.73065 -0.05961,1.91432c0.00919,0.18367 0.04885,6.82075 0.08798,14.74907l0.07117,14.41513l0.69777,0.06373c0.79179,0.07208 0.96669,0.20231 1.19622,0.8919c0.35138,1.05498 0.06382,2.1055 -0.57618,2.1055c-0.18803,0 -0.21482,0.07013 -0.21482,0.56019c0,0.70155 -0.14024,0.65926 2.31102,0.69933c2.71834,0.04453 2.71309,0.04035 2.8268,2.19121l0.06198,1.16879l0.6828,0.02449c1.38661,0.05009 2.06705,0.23265 2.20782,0.59247c0.22926,0.58662 0.84615,0.71825 0.99768,0.21261c0.1061,-0.35426 0.48216,-0.39489 0.72771,-0.07903c0.56962,0.73356 1.96463,0.74107 2.50431,0.01391c0.28258,-0.38069 1.29207,-0.30472 1.78422,0.13413c0.34613,0.30862 0.46877,0.34312 1.53132,0.4319c0.42439,0.03534 0.86768,0.11883 0.98507,0.18562c0.25185,0.14276 0.31146,0.06957 0.49582,-0.60972c0.06907,-0.25352 0.16939,-0.61501 0.22322,-0.80285c0.05384,-0.18812 0.09796,-0.84821 0.09796,-1.46711c0,-1.39671 0.08561,-1.53418 0.89395,-1.43344c0.38263,0.04759 0.69226,0.01002 1.06465,-0.12885c0.4236,-0.15807 0.6765,-0.17922 1.30547,-0.10964c0.42912,0.04759 1.40001,0.11716 2.15766,0.15417l1.37769,0.06762l0.11923,-0.36288c0.06565,-0.19953 0.12028,-0.59358 0.12107,-0.8752c0.0021,-0.70072 0.18409,-1.0252 0.7369,-1.31378c0.25815,-0.13497 0.58458,-0.35231 0.72508,-0.4831c0.20116,-0.18673 0.33589,-0.22235 0.63028,-0.16725c1.1542,0.21623 1.55338,-0.14109 1.42443,-1.2751c-0.12343,-1.0842 -0.28389,-1.17714 -2.17368,-1.25924c-1.47853,-0.06428 -1.60721,-0.08738 -1.86037,-0.33338c-0.30621,-0.29721 -0.71904,-0.47698 -1.28787,-0.56019c-0.72981,-0.10686 -1.04285,-0.46028 -1.24927,-1.40923c-0.25159,-1.15738 -0.33431,-1.38112 -0.59246,-1.60097c-0.49687,-0.42355 -0.70591,-0.50592 -1.29339,-0.5101c-0.5578,-0.00362 -0.69908,-0.05733 -1.6684,-0.6331c-0.49241,-0.29248 -0.74609,-0.83986 -0.74609,-1.6096c0,-0.79951 -0.05226,-0.83736 -1.24612,-0.90609c-0.91312,-0.0526 -1.00319,-0.07931 -1.26056,-0.37318l-0.27706,-0.31669l0,-4.00451l0,-4.00451l0.45538,-0.33951c0.40417,-0.30138 0.55491,-0.34396 1.34144,-0.37874c1.08329,-0.04814 1.11192,-0.08655 1.0699,-1.43483l-0.03046,-0.97149l-0.42019,-0.08349c-0.2311,-0.0462 -2.3583,-0.07597 -4.7271,-0.06679c-2.64796,0.01057 -4.47262,-0.02699 -4.73708,-0.09712c-0.23662,-0.06289 -0.86138,-0.12411 -1.38819,-0.13636c-1.96096,-0.04564 -2.14663,-0.20621 -2.1138,-1.82694c0.02206,-1.08976 -0.00315,-1.30181 -0.20353,-1.71618c-0.21535,-0.44581 -0.23084,-0.65258 -0.26839,-3.6177c-0.02206,-1.72982 -0.04464,-3.50276 -0.05016,-3.93995c-0.0084,-0.64729 -0.04438,-0.80953 -0.19407,-0.87242c-0.20458,-0.08571 -3.49359,-0.16252 -3.9248,-0.09128m57.89248,29.1436c0,0.18896 -0.29019,0.29971 -0.34376,0.13135c-0.08693,-0.27328 0.04412,-0.53625 0.19906,-0.39989c0.07957,0.06985 0.1447,0.1909 0.1447,0.26854m-3.70814,14.072c-0.24161,0.43329 -0.14759,1.46322 0.15127,1.66108c0.1665,0.1102 0.20931,0.09935 0.25448,-0.06484c0.02994,-0.10853 0.16414,-0.43218 0.29807,-0.71936l0.24371,-0.52206l-0.33168,-0.34062c-0.40495,-0.41576 -0.39235,-0.41548 -0.61584,-0.01419m-4.1777,3.32661c-0.32249,0.4344 -0.27023,2.89332 0.06933,3.25231l0.21928,0.23237l0.38473,-0.40769c0.57776,-0.61223 0.75213,-1.08698 0.75213,-2.04734l0,-0.82706l-0.60349,-0.24879l-0.60323,-0.24851l-0.21876,0.2947m0.42754,1.35357c0,1.00683 -0.05489,1.33827 -0.22139,1.33827c-0.10557,0 -0.13105,-2.26106 -0.02652,-2.37154c0.17333,-0.18367 0.24791,0.12718 0.24791,1.03327" id="path3"/>
   <path stroke="null" fill-rule="evenodd" fill="#121024" d="m17.80377,33.98913c-0.22191,0.35899 -0.42045,3.05194 -0.24975,3.38978c0.19959,0.39544 0.43647,0.40296 12.12842,0.39127l11.66437,-0.01141l0.32827,0.24767c0.18042,0.13608 0.34403,0.19814 0.36346,0.13775c0.05961,-0.18645 1.14291,-0.34925 2.13612,-0.32086c0.51998,0.01475 1.34591,-0.03284 1.83569,-0.10575c1.14133,-0.17059 4.68193,-0.17059 5.57009,-0.00056c0.37554,0.07208 1.18939,0.11716 1.80838,0.10046c0.77945,-0.02143 1.33672,0.02532 1.81205,0.15166c0.63684,0.1692 0.713,0.1692 1.05099,-0.00083c0.3309,-0.16641 1.40342,-0.18506 11.56458,-0.20009l11.1998,-0.0167l0.20878,-0.27328c0.27654,-0.36205 0.24161,-2.69379 -0.05042,-3.37225l-0.17989,-0.41743l-30.50238,0l-30.50264,0l-0.18593,0.30055m-6.91469,2.87245c-0.16545,0.09156 -0.5318,0.16641 -0.81411,0.16641l-0.51315,0l0,4.45255l0,4.45255l1.69125,0c2.7538,0 2.61566,0.2307 2.61566,-4.36517l0,-3.43013l-0.31593,-0.5933c-0.43516,-0.81676 -1.79183,-1.16462 -2.66372,-0.68291m77.56272,0.76946c0,0.33144 -0.04464,0.61946 -0.09901,0.64005c-0.2332,0.0871 -0.35926,1.03299 -0.20615,1.54587l0.14759,0.49479l0.55149,0.03367l0.55149,0.03367l-0.0176,-1.70338c-0.01287,-1.24059 -0.03677,-1.52194 -0.08745,-1.0355l-0.06986,0.66788l-0.0176,-0.64005c-0.0239,-0.87186 -0.30358,-0.91528 -0.36031,-0.05566l-0.0386,0.5844l-0.01943,-0.5844c-0.02836,-0.85461 -0.33457,-0.83764 -0.33457,0.01865m-3.35676,-0.41047c-0.0843,0.03506 -0.31593,0.23153 -0.51525,0.43663c-0.19906,0.20482 -0.42701,0.37262 -0.50606,0.37262c-0.29728,0 -0.37134,0.61807 -0.38001,3.17522c-0.01261,3.6394 -0.03125,3.61102 2.37458,3.6138c0.6245,0.00056 1.11192,0.04119 1.08356,0.08989c-0.02836,0.04898 -0.0084,0.16168 0.04464,0.25046c0.16177,0.27105 0.11897,-3.63161 -0.04832,-4.40218c-0.07957,-0.36734 -0.17805,-1.11091 -0.21876,-1.65245c-0.12527,-1.67193 -0.76579,-2.32952 -1.83438,-1.88398m-39.14928,4.22018c-0.82934,0.19229 -0.84169,3.03469 -0.01523,3.50332c0.20931,0.11855 5.78518,0.10408 5.89758,-0.01531c0.15389,-0.16363 0.39839,-2.24993 0.29702,-2.53433c-0.05909,-0.16586 -0.13577,-0.43941 -0.17044,-0.60777l-0.06303,-0.30611l-2.39953,0c-1.31965,0 -2.60673,-0.02059 -2.86042,-0.04592c-0.25369,-0.02532 -0.56226,-0.02254 -0.68595,0.00612m0.67125,32.17968c-0.38316,0.16669 -0.39392,0.18701 -0.39392,0.74385l0,0.57243l0.70906,0.19257c0.76737,0.20843 3.63908,0.27912 3.7478,0.09211c0.03178,-0.05399 0.27312,-0.13274 0.53653,-0.17448l0.47901,-0.07625l-0.03125,-0.6228c-0.0302,-0.60054 -0.04464,-0.62809 -0.39891,-0.76333c-0.56515,-0.21539 -4.13358,-0.18784 -4.64831,0.0359m-3.78352,3.2576c-0.81884,0.68235 -0.16676,2.33787 0.921,2.33787c0.49267,0 0.57277,-0.03145 0.63737,-0.25046c0.04044,-0.13775 0.12658,-0.28635 0.19092,-0.33032c0.18908,-0.12857 0.09927,-1.48882 -0.11581,-1.75514c-0.25605,-0.31669 -1.25452,-0.3178 -1.63347,-0.00195m10.51516,-0.03228c-0.71668,0.47114 -0.15494,2.56105 0.60586,2.25466c0.14628,-0.059 0.39261,-0.10742 0.54782,-0.10797c0.67099,-0.00167 0.98691,-1.47157 0.45722,-2.1272c-0.22165,-0.27439 -1.20488,-0.28635 -1.61089,-0.01948" id="path4"/>
   <path stroke="null" fill-rule="evenodd" fill="#f0f0f5" d="m84.17745,88.84453c0.00053,0.36734 0.02022,0.50425 0.04359,0.30416c0.02337,-0.20009 0.02285,-0.50063 -0.00105,-0.66788c-0.0239,-0.16725 -0.04307,-0.00362 -0.04254,0.36372m-2.21937,2.86967c-0.38605,0.49284 -0.43279,0.90637 -0.43174,3.82502c0.00053,1.58316 0.02863,3.21641 0.06277,3.62966l0.06171,0.75137l0.94095,0l0.94095,0l-0.05725,-1.30794c-0.03151,-0.71936 -0.0541,-1.3956 -0.05042,-1.50274c0.00919,-0.2538 0.00289,-2.85659 -0.00867,-3.64552c-0.01733,-1.17158 -0.1925,-1.63715 -0.64499,-1.71367c-0.21666,-0.03673 -0.46142,-0.09434 -0.54388,-0.12773c-0.08246,-0.03367 -0.20379,0.00779 -0.26944,0.09156" id="path5"/>
   <path stroke="null" fill-rule="evenodd" fill="#706568" d="m3.32914,0.36878c-0.0386,0.04063 -0.07012,0.43023 -0.07012,0.86546l0,0.79144l0.81411,-0.07848c0.44776,-0.04313 5.24025,-0.08209 10.65015,-0.08655l9.83604,-0.00779l0.16965,0.27439c0.10925,0.17671 0.16965,0.51566 0.16965,0.95173c0,0.89413 0.21036,1.33409 0.63763,1.33409c0.74032,0 0.98534,-0.79589 0.76631,-2.48897l-0.06697,-0.5165l-0.45827,0c-0.4299,0 -0.45853,-0.0192 -0.45984,-0.30611c-0.00079,-0.16836 -0.02994,-0.41882 -0.06487,-0.55657l-0.06329,-0.25046l-10.89517,0c-5.99238,0 -10.92668,0.03339 -10.96502,0.0743m70.36387,0.06484c-0.02495,0.07653 -0.05883,0.33951 -0.07537,0.5844c-0.02836,0.42021 -0.04753,0.44386 -0.34508,0.4191c-0.25841,-0.02115 -0.27732,-0.00863 -0.10505,0.06985c0.19644,0.08933 0.19276,0.09823 -0.05252,0.13719c-0.18541,0.0295 -0.27417,0.12356 -0.30201,0.32003c-0.03677,0.25992 -0.04517,0.26381 -0.12947,0.05566c-0.08167,-0.20092 -0.08929,-0.19563 -0.08036,0.05566c0.00551,0.15306 0.00473,0.56492 -0.00184,0.91528l-0.01156,0.63727l-1.54944,0.03061l-1.54944,0.03089l-0.01208,1.61405c-0.00657,0.88773 0.00814,1.47964 0.03256,1.31517c0.04149,-0.27773 0.07878,-0.29749 0.52445,-0.27801c0.34508,0.01503 0.49503,-0.02588 0.53469,-0.14638c0.20983,-0.6356 0.817,-0.89079 2.11879,-0.89079c1.38163,0 1.79131,-0.48366 1.79131,-2.11496c0,-1.42649 -0.71064,-1.34356 11.22003,-1.30905l9.99938,0.02894l-0.00105,-0.3896c-0.00079,-0.21428 -0.03046,-0.57744 -0.06644,-0.80702l-0.06513,-0.41743l-10.91434,0c-8.63719,0 -10.92379,0.02894 -10.96003,0.13914m-73.49137,3.25008c-0.0063,0.00334 -0.02574,0.35648 -0.04386,0.78504c-0.01786,0.42856 -0.00893,0.71658 0.01996,0.64005c0.03178,-0.08404 0.26761,-0.14359 0.59509,-0.15027c0.93465,-0.0192 1.04364,-0.0871 1.05572,-0.65898l0.0105,-0.49869l0.73611,-0.06707c0.50475,-0.0462 0.24896,-0.0654 -0.81306,-0.0615c-0.85219,0.00334 -1.55443,0.00835 -1.56047,0.01141m26.87669,0.03228c0.58669,0.04341 0.58826,0.04564 0.56962,0.75276c-0.00762,0.29025 0.05095,0.36205 0.44829,0.5485c0.55176,0.25908 0.65654,0.54627 0.75922,2.07795c0.1166,1.74011 0.80965,2.4041 1.51608,1.45264c0.30884,-0.41603 0.27076,-4.39105 -0.04438,-4.6351c-0.18514,-0.14332 -0.18514,-0.14972 0,-0.20064c0.10531,-0.02866 -0.7067,-0.04898 -1.80444,-0.0448c-1.09774,0.00445 -1.74771,0.02616 -1.44439,0.0487m68.58412,0.11271c-0.23714,0.89218 -0.14129,1.36276 0.27759,1.36471c0.70539,0.00362 2.23171,0.43774 2.41161,0.68597c0.10321,0.14248 0.25868,0.35815 0.3456,0.47893c0.10741,0.14944 0.29544,0.22513 0.58774,0.23571c0.23662,0.00891 0.47113,0.08515 0.52182,0.16975c0.05673,0.09489 0.09192,-0.20843 0.09192,-0.79228c0,-0.87298 -0.07642,-1.25784 -0.24502,-1.23391c-0.66678,0.09462 -0.78102,0.02143 -0.85482,-0.54711l-0.07222,-0.55657l-1.50637,0c-1.3446,0 -1.51162,0.02087 -1.55784,0.1948m-29.32874,4.40023c-0.02836,0.07848 -0.0386,1.0906 -0.02285,2.24937l0.02863,2.10661l0.42019,0.09295c0.85035,0.18812 0.8929,0.12968 0.89342,-1.2264c0.00026,-1.14013 0.01471,-1.21722 0.31461,-1.69531c0.23714,-0.37791 0.31435,-0.62948 0.31461,-1.02409l0.00053,-0.52317l0.60402,-0.04007c0.33221,-0.02226 -0.0948,-0.04981 -0.94883,-0.06122c-1.17967,-0.01614 -1.56493,0.01308 -1.60432,0.12133m33.49988,1.52722c0,0.52039 0.01812,0.73328 0.04018,0.47308c0.02206,-0.2602 0.02206,-0.68597 0,-0.94617c-0.02206,-0.2602 -0.04018,-0.04731 -0.04018,0.47308m-91.68781,0.10686l-0.26472,0.55351l0.00788,6.20964c0.00998,7.93778 -0.02705,7.70987 1.25137,7.71487c1.57754,0.00612 1.66341,0.08488 1.75165,1.61266c0.10846,1.88009 0.42833,2.14891 2.47017,2.07544c0.55911,-0.02004 1.03182,-0.76918 1.03182,-1.63575c0,-0.3562 0.13656,-0.81482 0.41336,-1.38725c0.10242,-0.21177 1.16969,-0.53598 1.80286,-0.54766c0.84746,-0.01558 0.98114,-0.2396 1.02315,-1.71562c0.04596,-1.61628 0.01156,-1.57926 1.55837,-1.67305c1.7548,-0.10603 2.00954,-0.3114 2.41056,-1.94103c0.07957,-0.3242 0.14523,-0.67484 0.14549,-0.7792c0.00053,-0.10408 0.07143,-0.33283 0.15757,-0.50815c0.0864,-0.17532 0.15704,-0.38682 0.15704,-0.47002c0,-0.26298 0.62581,-0.50815 1.45673,-0.57104c1.33383,-0.10074 1.41104,-0.33144 1.36062,-4.06545c-0.03073,-2.26106 -0.05279,-2.5168 -0.25395,-2.9231l-0.22034,-0.44525l-7.99746,-0.02838l-7.99746,-0.02866l-0.26472,0.55351m66.94776,-0.25769c-0.61531,0.36316 -0.6119,0.34674 -0.60113,2.82236c0.01838,4.20404 0.01943,4.20738 1.44859,4.30617c0.38106,0.02644 0.78916,0.06846 0.90629,0.09323c0.30936,0.0654 0.55176,0.9868 0.6287,2.38963c0.09428,1.71841 0.22585,1.82666 2.22778,1.83306c1.78816,0.00612 1.77502,-0.00529 1.8785,1.61238c0.10163,1.58956 0.31409,1.78297 1.96306,1.78631c0.91679,0.00167 1.18598,0.39043 1.29916,1.87591c0.10872,1.42454 0.39498,1.68779 1.83359,1.68668c1.13923,-0.00083 1.28813,-0.20732 1.35353,-1.87536c0.06854,-1.74735 0.03073,-1.71701 2.30604,-1.86089c1.82098,-0.11493 1.62743,0.7227 1.6642,-7.20283c0.03073,-6.64432 0.0302,-6.66046 -0.19722,-7.14356c-0.30857,-0.65452 0.19985,-0.61779 -8.5395,-0.61473l-7.68153,0.0025l-0.49004,0.28914m-50.67893,0.54961c0.08272,0.22847 0.08062,5.36755 -0.00236,5.69564c-0.06066,0.23988 -0.11082,0.25046 -1.18046,0.25073c-1.29522,0.00056 -1.63085,0.14499 -1.9775,0.84988c-0.11608,0.23654 -0.28625,0.58022 -0.37817,0.76389c-0.09192,0.18367 -0.22506,0.5844 -0.29544,0.89051c-0.28888,1.25284 -0.3892,1.3853 -1.04942,1.38864c-0.4412,0.00195 -0.63264,0.05538 -0.76789,0.21372c-0.09927,0.11604 -0.38605,0.24378 -0.63737,0.28357c-0.81043,0.12885 -0.95776,0.39989 -1.04364,1.92211c-0.04044,0.71825 -0.08272,1.31461 -0.09428,1.32491c-0.01129,0.01057 -0.48269,0.07208 -1.04758,0.13636c-1.1739,0.13358 -1.86169,0.43245 -2.04841,0.88995c-0.0667,0.16335 -0.21745,0.47141 -0.33484,0.68486c-0.14444,0.26214 -0.21403,0.58662 -0.21456,1.00182c-0.00079,0.82372 -0.28835,1.03104 -1.18992,0.85795l-0.59509,-0.11437l0,-0.99793c0,-1.99335 -0.24134,-2.28054 -1.95439,-2.32813l-1.14448,-0.03172l-0.06959,-0.55657c-0.08745,-0.70044 -0.10767,-12.7123 -0.0218,-13.05153l0.06329,-0.25046l7.96017,0c7.16155,0 7.96647,0.01753 8.02372,0.17615m66.71429,-0.04174l0.47429,0.13441l0,6.63346c0,7.52481 0.09034,6.89644 -0.99269,6.90952c-2.85858,0.03423 -3.02639,0.14666 -3.10413,2.08017l-0.05252,1.30599l-0.59955,0.12551c-0.48847,0.10213 -0.68779,0.09462 -1.07673,-0.04119l-0.47717,-0.16641l-0.01103,-0.79367c-0.0063,-0.43663 -0.00289,-0.92863 0.00709,-1.0931c0.04806,-0.78059 -0.54677,-1.31406 -1.46671,-1.31601c-1.54471,-0.00306 -1.68784,-0.14638 -1.69493,-1.69781c-0.00551,-1.25172 -0.48348,-1.64049 -2.01584,-1.64049c-1.71173,0 -1.8567,-0.13636 -1.8567,-1.74679c0,-1.76182 -0.62975,-2.70492 -1.80864,-2.70743c-0.42071,-0.00083 -0.83092,-0.04592 -0.91128,-0.0999c-0.22506,-0.15111 -0.4236,-1.96441 -0.42754,-3.90572l-0.00368,-1.72536l0.28888,-0.1845c0.37475,-0.23988 14.90243,-0.305 15.72889,-0.07068m8.70915,3.53894c0,0.8265 0.01654,1.16462 0.03677,0.75137c0.02022,-0.41325 0.02022,-1.08948 0,-1.50274c-0.02022,-0.41325 -0.03677,-0.07514 -0.03677,0.75137m-64.25095,-1.03744c0.08115,0.03367 0.13183,0.27355 0.13288,0.6292c0.00184,0.66816 0.06828,0.80675 0.39235,0.81955c0.13,0.00501 0.32748,0.01475 0.43883,0.02171c0.11135,0.00668 0.22585,0.0999 0.255,0.20704c0.02889,0.10714 0.04412,-0.22931 0.03388,-0.74747l-0.01865,-0.94255l-0.6828,-0.02059c-0.37554,-0.01141 -0.62371,0.00362 -0.55149,0.03312m26.55971,0.02477c-0.07826,0.14526 -0.06854,2.10828 0.01103,2.15921c0.04675,0.03005 0.31724,0.07235 0.60113,0.09406l0.51657,0.03952l0.14628,-0.66788c0.08036,-0.36734 0.13131,-0.88077 0.11293,-1.14069c-0.01812,-0.2602 0.01471,-0.49562 0.07274,-0.52345c0.0583,-0.02783 -0.23846,-0.04536 -0.65943,-0.03896c-0.42097,0.0064 -0.78155,0.04174 -0.80124,0.0782m37.67443,4.35209c0,0.21428 0.02153,0.30194 0.04806,0.1948c0.02626,-0.10714 0.02626,-0.28246 0,-0.3896c-0.02652,-0.10714 -0.04806,-0.01948 -0.04806,0.1948m0.01234,3.89598c0,0.52039 0.01812,0.73328 0.04018,0.47308c0.02206,-0.2602 0.02206,-0.68597 0,-0.94617c-0.02206,-0.2602 -0.04018,-0.04731 -0.04018,0.47308m-0.2726,3.55981l-0.28835,0.32086l0.27785,-0.03145c0.21377,-0.02421 0.28441,-0.09935 0.30726,-0.32615c0.01654,-0.16224 0.02127,-0.29248 0.01077,-0.28969c-0.0105,0.00306 -0.1489,0.14972 -0.30752,0.32643m-96.30198,8.16931l0,0.9445l0.55149,0.07013c0.30332,0.0384 1.26056,0.05454 2.12719,0.03562l1.5757,-0.03395l0.11529,-0.50091c0.2072,-0.89914 0.11293,-0.97427 -1.30993,-1.04217c-1.43441,-0.06846 -2.75721,-0.21984 -2.93421,-0.33589c-0.09349,-0.06122 -0.12553,0.15862 -0.12553,0.86268m90.60477,-0.55239c-1.69545,0.14053 -1.83621,0.24712 -1.50033,1.13846l0.1623,0.43023l1.56073,0l1.56099,0l0.0344,-0.86268c0.03125,-0.77975 0.01602,-0.86101 -0.15757,-0.84515c-0.10557,0.00974 -0.85272,0.07235 -1.66052,0.13914m-76.37753,0.90164c-0.5683,0.26437 -0.88397,0.89941 -0.99033,1.99112c-0.14628,1.50357 -0.40679,1.95968 -1.11953,1.95968c-0.53416,0 -0.56515,-0.0167 -0.78759,-0.42605c-0.51683,-0.95173 -1.16996,-1.10006 -5.10316,-1.15822l-2.01952,-0.02978l0.00867,0.63922c0.00473,0.35147 0.05095,0.61167 0.10242,0.57772c0.05147,-0.03367 0.09375,-0.00529 0.09375,0.06317c0,0.06846 0.04832,0.09267 0.10767,0.05399c0.05909,-0.03868 0.09454,-0.00417 0.07878,0.07681c-0.02259,0.11549 0.25185,0.15027 1.26765,0.16057c0.71904,0.00724 1.2343,-0.02811 1.15656,-0.07903c-0.11187,-0.07291 -0.11371,-0.11994 -0.00998,-0.22986c0.16282,-0.17254 0.17175,-0.35648 0.01208,-0.25213c-0.08588,0.05649 -0.08824,0.02059 -0.0084,-0.13024c0.18725,-0.35481 2.07703,-0.63031 2.67396,-0.38988c0.16807,0.06762 0.29282,0.25213 0.38053,0.56297c0.0738,0.26047 0.31278,0.65508 0.54808,0.90442l0.4173,0.44219l1.28367,-0.03117l1.28367,-0.03117l0.20799,-0.44525c0.14208,-0.30389 0.21823,-0.72799 0.24003,-1.33576c0.03572,-1.00015 0.28126,-2.04455 0.52996,-2.2541c0.30096,-0.25352 61.07487,-0.19842 61.28733,0.05566c0.33431,0.39962 0.50002,1.22556 0.50344,2.50845c0.00394,1.47713 0.09559,1.69308 0.70644,1.66414c0.21613,-0.01002 1.1542,-0.03618 2.08465,-0.05788l1.69125,-0.03896l0.32459,-0.38208c0.17832,-0.2101 0.43358,-0.56853 0.56699,-0.79645l0.24266,-0.41437l1.03418,-0.00306c0.84011,-0.0025 1.08671,0.03562 1.31308,0.20343c0.15337,0.11354 0.5037,0.23765 0.77866,0.27606c0.27496,0.03868 0.61373,0.14916 0.75292,0.24573c0.20825,0.14471 0.52917,0.16975 1.81127,0.14109l1.5581,-0.03451l0.03361,-0.7792l0.03335,-0.7792l-1.03129,0.07235c-0.56751,0.03979 -2.21176,0.07736 -3.65431,0.08349l-2.62301,0.01113l-0.53653,0.56158c-0.70828,0.74135 -1.27894,0.91389 -2.69156,0.81482l-1.01528,-0.07124l-0.15993,-0.45778c-0.08771,-0.25185 -0.19224,-0.80842 -0.23189,-1.23697c-0.10295,-1.10868 -0.28599,-1.41174 -1.28892,-2.13277l-0.36215,-0.26047l-30.58011,0.00918c-25.37295,0.00751 -30.635,0.03451 -30.90181,0.15862m29.26204,4.7979c-1.37821,0.16753 -1.5757,0.38125 -1.5757,1.70366c0,1.78046 0.2311,1.87146 4.4784,1.76544c2.61225,-0.06512 2.56209,-0.03005 2.55631,-1.78909c-0.00525,-1.61461 -0.09349,-1.6647 -2.99041,-1.69948c-1.15551,-0.01391 -2.26638,-0.00501 -2.46859,0.01948m4.27146,1.21694c0.44697,0.27773 0.45564,0.29415 0.45564,0.87604l0,0.59275l-0.39392,0.06901c-0.51919,0.091 -3.81004,0.08933 -4.52961,-0.00223l-0.56436,-0.0718l0.06277,-0.56046c0.10899,-0.97483 0.57618,-1.16128 2.94734,-1.17631c1.49665,-0.00946 1.58673,0.0025 2.02215,0.273m34.3392,5.96085c0.03913,0.06707 0.06828,0.32309 0.06513,0.56909c-0.00315,0.246 0.03414,0.5293 0.08325,0.62976c0.04885,0.10018 0.16571,0.45639 0.25973,0.79144c0.17228,0.61417 0.51,1.1162 0.75082,1.1162c0.07196,0 0.15022,0.06234 0.17411,0.13859c0.03073,0.0974 0.49398,0.16001 1.55837,0.21094c1.52501,0.07291 2.26612,0.1692 2.45993,0.31919c0.2072,0.16057 0.90235,0.35119 1.37742,0.37763l0.48374,0.02727l-0.04806,-0.83207c-0.03572,-0.61723 -0.0948,-0.86825 -0.229,-0.97233c-0.17044,-0.13191 -0.16965,-0.14332 0.01024,-0.19285c0.10531,-0.02866 -0.97851,-0.05816 -2.40846,-0.0654l-2.5999,-0.0128l-0.01313,-0.55657c-0.01156,-0.48922 -0.02994,-0.74552 -0.07878,-1.09616c-0.05462,-0.3921 -0.4215,-0.57354 -1.16103,-0.57354c-0.51972,0 -0.73323,0.03785 -0.68438,0.12161m-0.68884,0.18923c-0.59115,0.42271 -0.86033,0.80146 -0.90865,1.2776l-0.0478,0.47086l0.21482,-0.4639c0.15704,-0.33951 0.29676,-0.48338 0.51972,-0.53514c0.3456,-0.08042 0.58563,-0.3306 0.66993,-0.69849c0.06854,-0.2986 -0.07852,-0.3153 -0.44802,-0.05093m-38.62957,0.28441c-0.65076,0.18756 -0.79809,0.48171 -0.84247,1.68195c-0.0759,2.05819 -0.98455,2.76308 -2.5353,1.96719c-0.70644,-0.3626 -0.72561,-0.35509 -1.00792,0.39433c-0.12002,0.31836 -0.14444,0.52818 -0.07721,0.66788c0.11608,0.24155 0.09087,2.44807 -0.03178,2.75334c-0.05331,0.1333 -0.02968,0.31223 0.06382,0.48088l0.1489,0.26882l6.36267,-0.0103c3.78798,-0.00612 6.66626,0.03506 7.1127,0.10241c0.99322,0.14916 1.28367,0.03868 1.28367,-0.48811c0,-0.21233 -0.04727,-0.41687 -0.10505,-0.45472c-0.06145,-0.04035 -0.10505,-0.68541 -0.10505,-1.55839c0,-1.73343 0.12317,-1.5762 -1.3832,-1.76599c-2.019,-0.25491 -2.55211,-0.68347 -2.66582,-2.14502c-0.08666,-1.11202 -0.2311,-1.71924 -0.4517,-1.89706c-0.23137,-0.18645 -5.11761,-0.18395 -5.76627,0.00278m3.16978,0.93893c1.89294,0.06011 2.38351,0.35426 2.53294,1.51832c0.203,1.58316 0.76421,2.01394 2.77848,2.13333c1.55469,0.09211 1.4675,0 1.4675,1.54865c0,0.67345 -0.03467,1.27454 -0.07721,1.33576c-0.12369,0.17838 -13.35221,0.03979 -13.65448,-0.14304c-0.22139,-0.13413 -0.23635,-0.21678 -0.23635,-1.30404c0,-1.41619 -0.03624,-1.38307 1.60931,-1.46878c2.00875,-0.10491 2.34674,-0.36873 2.37405,-1.85393c0.01313,-0.71296 0.06382,-1.06666 0.16912,-1.17937c0.25605,-0.27383 1.24874,-0.76222 1.41498,-0.69627c0.08666,0.03451 0.81647,0.08376 1.62166,0.10937m-42.73111,0.79144c-0.01681,0.03701 -0.04359,0.26799 -0.05988,0.51288c-0.03755,0.57048 -0.05252,0.59052 -0.40023,0.54015c-0.24266,-0.03534 -0.25631,-0.0256 -0.08141,0.05677c0.19696,0.09267 0.19381,0.10157 -0.05252,0.14053c-0.18541,0.0295 -0.27417,0.12356 -0.30201,0.32003c-0.0365,0.25797 -0.04543,0.26214 -0.12343,0.05566c-0.04648,-0.12245 -0.08745,7.35644 -0.09139,16.61969c-0.00473,11.12803 0.02836,16.81922 0.09743,16.77386c0.05725,-0.03757 0.10426,-0.01224 0.10426,0.05621c0,0.06846 0.04832,0.09267 0.10767,0.05399c0.05909,-0.03868 0.09454,-0.00417 0.07878,0.07681c-0.01602,0.08126 0.06565,0.1525 0.18121,0.1589c0.11555,0.00612 0.26918,0.01865 0.3414,0.02783c0.09507,0.01197 0.13131,0.32031 0.13131,1.12149l0,1.10507l0.55149,0.07068c0.30332,0.03868 1.02263,0.05482 1.59828,0.0359l1.04679,-0.03479l0.09323,-0.41937c0.17543,-0.78754 0.06487,-0.93949 -0.7222,-0.99264c-0.38027,-0.0256 -0.72325,-0.09907 -0.76264,-0.16335c-0.03939,-0.06428 -0.2726,-0.25018 -0.51814,-0.41297l-0.44645,-0.29637l0,-16.63277c0,-9.34228 0.04071,-16.74576 0.0927,-16.89046c0.05095,-0.14165 0.22611,-0.39906 0.38946,-0.5716c0.24423,-0.2588 0.29124,-0.39405 0.26577,-0.76667c-0.01943,-0.28608 0.02101,-0.48895 0.10951,-0.55072c0.08588,-0.06011 -0.19722,-0.09128 -0.72902,-0.08042c-0.47849,0.00974 -0.88344,0.04842 -0.89999,0.08571m6.33851,0.23265c0.04937,0.182 0.18121,0.52011 0.29334,0.75109c0.55622,1.14625 0.54756,1.07779 0.54756,4.27445c0,3.50304 0.05725,3.84923 0.77393,4.68853c0.42045,0.49228 0.48663,0.52874 0.96118,0.52874c0.30227,0 0.6941,0.09462 0.96301,0.23265l0.45328,0.23237l0,0.65146c0,0.35815 0.04727,0.68235 0.10505,0.7202c0.05778,0.03785 0.10505,0.2627 0.10505,0.49952c0,0.24573 0.07196,0.50703 0.16755,0.60833c0.45196,0.47893 0.42465,0.47698 7.40368,0.52039l6.67807,0.04146l0.38631,-0.31168l0.38605,-0.31196l0,-1.00155c0,-1.32296 0.35191,-1.99252 1.04679,-1.99252c0.11765,0 0.21377,-0.03812 0.21377,-0.08488c0,-0.24851 0.4819,-0.30973 0.77472,-0.09823c0.30884,0.22318 1.18545,0.29609 1.3144,0.10937c0.18777,-0.27216 0.48847,-0.33728 0.74137,-0.16113c0.14103,0.09851 0.39708,0.22931 0.56856,0.29053c0.47035,0.16781 0.71117,0.76528 0.77472,1.92322c0.08325,1.51387 0.42124,1.75152 2.70679,1.90319l1.05047,0.06957l0.08404,1.00182c0.15048,1.79215 0.17385,1.90235 0.48111,2.2669l0.29387,0.34897l1.11166,0l1.11139,0l0.06907,0.33255c0.03782,0.18311 0.11266,0.36149 0.16597,0.39628c0.05331,0.03506 0.09717,0.59915 0.09743,1.25367c0.00079,1.94882 0.13551,2.01895 3.8862,2.02201c3.13039,0.0025 3.60861,-0.22374 3.71077,-1.75597c0.0948,-1.42342 0.77104,-2.21153 1.92078,-2.23852c1.04469,-0.02421 2.1419,-0.94199 2.1419,-1.79187c0,-1.52221 0.21009,-1.88398 1.10299,-1.8979c1.20488,-0.01892 1.51346,-0.42828 1.6017,-2.12359l0.05751,-1.10757l0.48348,-0.23376c0.42649,-0.20621 0.76001,-0.24239 2.82785,-0.30695c1.28945,-0.04007 2.37668,-0.12078 2.41607,-0.17894c0.24213,-0.35704 0.50632,-0.36149 0.63711,-0.01057c0.151,0.4049 0.4278,2.17034 0.43069,2.74472c0.0021,0.42995 0.32381,0.7792 0.82855,0.89914c0.15205,0.0359 2.99435,0.0423 6.31645,0.01391c7.1886,-0.06122 6.92677,-0.00946 6.93176,-1.37194c0.00184,-0.51789 0.64157,-1.56813 1.12216,-1.84252c0.1925,-0.10964 0.34981,-0.22736 0.34981,-0.26159c0,-0.19953 0.72009,-0.48143 1.16549,-0.45639c0.50843,0.02866 0.58957,-0.02894 1.35563,-0.95925c0.18436,-0.22402 0.19224,-1.38085 0.03414,-5.12043c-0.14601,-3.45685 -0.28258,-3.0436 -0.21272,0.64395c0.08614,4.53297 -0.06066,4.89168 -2.00009,4.89168c-0.74609,0 -1.16733,0.10909 -1.23456,0.31947c-0.03204,0.09963 -0.24397,0.4024 -0.47087,0.67233l-0.41283,0.49062l0.00368,1.09115c0.00604,1.79382 0.55281,1.65635 -6.58905,1.65635c-3.26353,0 -5.83297,-0.04313 -5.86528,-0.09879c-0.03178,-0.05427 -0.22349,-0.13163 -0.42649,-0.17198c-0.20274,-0.04035 -0.37081,-0.10853 -0.37318,-0.15166c-0.00263,-0.04313 -0.04596,-0.30389 -0.09638,-0.57939c-0.08903,-0.48728 0.03755,-1.65997 0.19224,-1.78102c0.2592,-0.20315 0.4257,-0.67623 0.33063,-0.94088c-0.18199,-0.50759 -1.17206,-0.96036 -1.28866,-0.58968c-0.0864,0.27467 -5.09108,0.19062 -5.54436,-0.09323c-0.20379,-0.12773 -0.49923,-0.26632 -0.65654,-0.30806l-0.28573,-0.07597l0,-1.16685c0,-0.64145 -0.04071,-1.16657 -0.09034,-1.16657c-0.10531,0 -0.2227,0.91472 -0.22401,1.74568c-0.00053,0.47865 -0.0365,0.58885 -0.21088,0.64757c-0.20064,0.06734 -0.21009,0.16836 -0.21009,2.22182c0,2.45725 0.0759,2.28638 -1.01317,2.28638c-1.52186,0 -1.97593,0.49952 -2.10461,2.31477c-0.07984,1.12649 -0.10688,1.14876 -1.50059,1.22278c-1.22327,0.06512 -1.99956,0.44609 -1.99956,0.98123c0,0.07903 -0.08903,0.30945 -0.19801,0.51176c-0.12369,0.22986 -0.21876,0.6818 -0.2529,1.20302c-0.07038,1.07807 -0.21928,1.42398 -0.64919,1.50941c-0.71117,0.14137 -4.57452,0.00362 -4.67352,-0.16669c-0.08483,-0.14554 -0.52471,-2.05819 -0.69278,-3.01243c-0.14785,-0.83847 -0.44907,-1.00182 -1.84829,-1.00182c-1.4893,0 -1.4113,0.08794 -1.47669,-1.66164l-0.0478,-1.27232l-0.34114,-0.30166c-0.3133,-0.27717 -0.4299,-0.30528 -1.42942,-0.34452c-0.5985,-0.02338 -1.11087,-0.06651 -1.13844,-0.09601c-0.09454,-0.10018 -0.30148,-2.81262 -0.25421,-3.33412l0.04727,-0.52123l-0.61242,-0.14387c-0.49976,-0.11771 -0.67256,-0.11771 -0.93885,-0.00083c-0.46457,0.2037 -4.67457,0.21984 -5.00652,0.0192c-0.84773,-0.51288 -1.61483,0.42772 -1.14081,1.39894c0.17517,0.35843 0.2311,1.56368 0.104,2.23657c-0.12448,0.66037 -0.35427,0.68235 -7.12295,0.67957c-5.64205,-0.00223 -6.00945,-0.01447 -6.24423,-0.20565c-0.32643,-0.26604 -0.46719,-1.15794 -0.32696,-2.07377c0.23714,-1.54949 -0.04543,-2.33147 -0.74819,-2.07155c-0.73191,0.27021 -1.93364,0.16001 -2.31864,-0.21261l-0.34744,-0.33617l-0.05515,-3.81027c-0.06303,-4.36489 -0.08115,-4.4531 -1.01528,-4.96459c-0.21745,-0.11883 -0.22454,-0.10881 -0.13919,0.20621m33.12276,24.64986c-0.5297,0.27773 -1.0762,0.82762 -1.08014,1.0867c-0.00158,0.10352 -0.05016,0.21929 -0.10794,0.25713c-0.05778,0.03785 -0.10505,0.3985 -0.10505,0.80146c0,0.89385 -0.12317,1.02659 -0.95697,1.0316c-2.04237,0.01224 -2.53346,0.66259 -2.36775,3.13543c0.10951,1.63575 0.21456,1.73733 1.9087,1.84169c2.46492,0.15222 3.09677,-0.41325 3.09677,-2.7706c0,-0.91277 0.00788,-0.91611 2.29921,-0.96175c1.71646,-0.03423 1.98617,-0.06456 2.23355,-0.25129c0.91075,-0.68708 1.13976,-0.33366 1.13976,1.75959c0,1.9683 0.0759,2.09214 1.3593,2.21848c1.30704,0.12885 2.51849,-0.04369 2.86173,-0.40713l0.29597,-0.31363l0,-1.57815c0,-2.32924 -0.12317,-2.51875 -1.70753,-2.62589c-0.53416,-0.0359 -1.14842,-0.11243 -1.36508,-0.17003l-0.39392,-0.10436l0,-0.62976c0,-1.06555 -0.94516,-2.28611 -1.85801,-2.39909c-1.62297,-0.20092 -4.80982,-0.15278 -5.25259,0.07959m5.33374,1.20803c0.75817,0.27995 1.08356,1.53056 0.49004,1.88204c-1.02972,0.60972 -4.90226,0.58468 -5.84295,-0.03785c-0.56541,-0.37429 -0.25815,-1.45515 0.51499,-1.81052c0.47901,-0.22012 4.26174,-0.24656 4.83792,-0.03367m-6.63028,3.24869c0.40811,0.44637 0.61899,1.44736 0.41099,1.95189c-0.47166,1.14514 -0.51709,1.17464 -1.66945,1.08726c-0.76448,-0.05788 -0.91075,-0.14693 -1.19307,-0.72549c-0.20615,-0.42244 -0.23215,-1.68557 -0.03992,-1.93992c0.63711,-0.8432 1.89005,-1.03104 2.49144,-0.37374m10.5992,0.0448c0.7046,0.74664 0.6765,2.00086 -0.06224,2.78256c-0.25342,0.26827 -1.91264,0.26131 -2.16737,-0.00891c-0.48925,-0.51844 -0.68123,-2.16561 -0.30385,-2.60502c0.66783,-0.7778 1.88243,-0.85851 2.53346,-0.16864m36.63657,5.92885c-0.47691,0.05427 -0.66678,0.13274 -0.84037,0.34702c-0.16676,0.20621 -0.43883,0.32615 -1.06438,0.46863c-1.18703,0.27077 -1.68232,0.44832 -1.67024,0.59831c0.00578,0.07152 0.0176,0.33338 0.02626,0.58189l0.01576,0.45193l1.54944,-0.03451c1.14317,-0.02532 1.55285,-0.07096 1.56257,-0.17365c0.00735,-0.07653 0.01917,-0.31446 0.02626,-0.52874c0.01313,-0.38598 0.0176,-0.3896 0.48925,-0.3896c0.55071,0 0.59982,-0.07514 0.55412,-0.84821l-0.0323,-0.54321l-0.61636,0.07013m-82.30399,4.88333c0.02626,0.91305 -0.0239,0.88689 1.69309,0.88884l1.44439,0.00167l0,1.59958l0,1.59986l0.52523,0.07375l0.52523,0.07402l0,0.48227c0,0.58468 0.11161,0.62002 1.96962,0.62197l1.18177,0.00111l0,3.6177l0,3.6177l0.63921,0l0.63947,0l-0.05489,-1.30794c-0.02994,-0.71936 -0.05751,-1.35803 -0.06093,-1.41925c-0.00341,-0.06122 0.03677,-1.08809 0.08929,-2.28193l0.09586,-2.17062l-0.30647,-0.28635c-0.21535,-0.20148 -0.30621,-0.3896 -0.30621,-0.63449c0,-0.73773 -0.50527,-1.02603 -1.79919,-1.02659c-0.76947,-0.00028 -1.14737,-0.04369 -1.21618,-0.1397c-0.22427,-0.31279 -0.45118,-1.18438 -0.45118,-1.73343c0,-1.57064 -0.62949,-2.00643 -2.9413,-2.03565c-0.97562,-0.01224 -1.55259,-0.06373 -1.60537,-0.14276c-0.04517,-0.06762 -0.07274,0.20231 -0.06145,0.60026m77.24784,-0.3921c-0.27811,0.1294 -0.32171,0.21428 -0.37134,0.72215l-0.05594,0.57549l0.94883,-0.03534l0.9491,-0.03534l0.03467,-0.69571l0.03467,-0.69571l-0.61242,0.00891c-0.33694,0.00501 -0.75423,0.07514 -0.92756,0.15556m-1.56756,1.3661c-0.69094,0.72771 -0.3913,2.18537 0.43647,2.12192l0.50081,-0.0384l0.03388,-1.08336l0.03388,-1.08364l-0.46273,0c-0.25474,0 -0.49871,0.03757 -0.5423,0.08349" id="path6"/>
   <path stroke="null" fill-rule="evenodd" fill="#641454" d="m72.70532,1.8807c0.00945,0.32921 0.01681,0.337 0.08246,0.08766c0.04228,-0.16001 0.18015,-0.30611 0.33116,-0.35092c0.2353,-0.06957 0.22795,-0.07736 -0.08272,-0.08738c-0.31934,-0.0103 -0.34061,0.01224 -0.3309,0.35064m-42.42306,1.98472c0.10111,0.06234 0.18383,0.19452 0.18383,0.29359c0,0.09879 0.02784,0.15027 0.06224,0.1141c0.11765,-0.12495 -0.07668,-0.52791 -0.25316,-0.52457c-0.16125,0.00306 -0.16072,0.01336 0.00709,0.11688m-12.43988,29.73968c-0.25947,0.22124 -0.50711,1.22696 -0.50711,2.06042c0,0.86129 -0.23793,1.73789 -0.53075,1.95523c-0.18908,0.14026 -0.18882,0.14916 0.01024,0.30138c0.2009,0.15333 0.20537,0.35565 0.20537,9.29831l0,9.14164l0.26262,0.32337c0.14418,0.17782 0.26235,0.43718 0.26262,0.57633c0,0.24211 0.01103,0.24545 0.25448,0.07653c0.24949,-0.17337 1.7942,-0.22124 4.84028,-0.15055c0.4622,0.01085 1.27448,-0.0192 1.80523,-0.06679c0.6379,-0.05733 1.12557,-0.04369 1.43888,0.03979c0.35033,0.0935 0.61584,0.09434 1.01869,0.00278c0.38027,-0.08655 0.70696,-0.08989 1.08224,-0.01141c0.31199,0.06512 0.75817,0.07486 1.06281,0.0231c0.40207,-0.06818 0.66022,-0.04146 1.10036,0.11382c0.57382,0.20259 0.80072,0.19563 0.67466,-0.02031c-0.13787,-0.23654 0.19276,-0.62976 0.62765,-0.74552l0.43358,-0.11549l-0.0323,-1.33716l-0.03256,-1.33716l0.40023,-0.18255c0.41231,-0.18784 4.86103,-0.03423 5.1872,0.17922c0.18725,0.12245 0.26997,2.16811 0.09664,2.38907c-0.1623,0.20732 -0.17254,0.19869 0.44881,0.36567c0.99138,0.26632 1.44281,-0.09712 1.44281,-1.16212c0,-0.93615 0.38657,-1.24644 1.46671,-1.17631c0.14208,0.00918 0.28389,-0.02031 0.31514,-0.0654c0.03099,-0.04536 0.18199,-0.14053 0.33536,-0.21177c0.27785,-0.12912 0.27811,-0.13135 0.10505,-0.51343c-0.14733,-0.32504 -0.20432,-0.3665 -0.37475,-0.27161c-0.28967,0.16085 -1.51687,0.03673 -1.97881,-0.20009l-0.39392,-0.20203l0,-1.19133l0,-1.19106l0.39392,-0.20565c0.29019,-0.15166 0.63317,-0.20649 1.3031,-0.2076l0.90918,-0.00167l0.28625,-0.66065c0.27916,-0.64367 0.28468,-0.69655 0.21692,-2.0593c-0.06618,-1.33048 -0.08089,-4.75421 -0.03283,-7.61664l0.02232,-1.32018l-0.31094,-0.23459l-0.31094,-0.23459l-11.66437,0.01141c-11.69195,0.01169 -11.92883,0.00417 -12.12842,-0.39127c-0.1707,-0.33784 0.02784,-3.03079 0.24975,-3.38978l0.18593,-0.30055l30.50264,0l30.50238,0l0.17989,0.41743c0.29203,0.67846 0.32696,3.0102 0.05042,3.37225l-0.20878,0.27328l-11.1998,0.0167c-10.16142,0.01503 -11.23368,0.03367 -11.56458,0.20009l-0.36451,0.18339l0.00446,4.976c0.00289,2.95454 0.04806,5.17943 0.11161,5.47691c0.05883,0.2755 0.13236,0.63337 0.16335,0.79534c0.06408,0.33505 0.33772,0.42911 1.24874,0.42911c0.98875,0 1.20305,0.30611 1.20305,1.71813c0,1.47324 -0.07458,1.56563 -1.26397,1.56563c-0.81437,0 -0.8212,0.0025 -0.86296,0.305c-0.05226,0.37708 0.30779,0.77586 0.66941,0.74163c0.87766,-0.08349 1.0355,0.15278 1.03681,1.54949c0.00053,0.6395 0.01549,0.68764 0.16571,0.52874c0.0906,-0.09629 0.20878,-0.17504 0.26262,-0.17504c0.05357,0 0.09796,-0.26298 0.09822,-0.5844c0.00131,-0.83764 0.11844,-1.75319 0.22401,-1.75319c0.04963,0 0.09034,0.52067 0.09034,1.15683c0,0.95229 0.02941,1.16879 0.16624,1.22445c0.29229,0.11883 0.30989,0.07931 0.25526,-0.57243c-0.05121,-0.60889 0.03703,-1.33493 0.20615,-1.69753c0.06592,-0.14109 0.51867,-0.17142 2.93106,-0.19647l2.85307,-0.02978l0.12002,0.30806c0.06592,0.1692 0.12343,0.79617 0.12816,1.39309c0.00683,0.88995 0.03677,1.08531 0.16702,1.08559c0.30017,0.00083 0.85403,0.45026 0.96301,0.78142c0.11161,0.33951 0.23609,0.41743 0.35112,0.22012c0.03572,-0.06122 0.33405,-0.11131 0.66284,-0.11131c0.3288,-0.00028 0.9357,-0.07486 1.34854,-0.16614c0.63684,-0.14081 1.0917,-0.14749 2.99383,-0.04369c2.25141,0.12272 2.78032,0.12912 5.49945,0.06651c1.54524,-0.03562 2.2803,-0.27773 2.56708,-0.84543c0.05226,-0.1038 0.09402,-4.00117 0.09454,-8.86502c0.00079,-5.92634 0.03703,-8.77931 0.11398,-8.99331c0.16256,-0.45054 0.1489,-0.48616 -0.21692,-0.56353c-0.53416,-0.11326 -0.60822,-0.32003 -0.6119,-1.70727c-0.00341,-1.28289 -0.16912,-2.10884 -0.50344,-2.50845c-0.21246,-0.25407 -60.98794,-0.30917 -61.28549,-0.05566m-7.55206,2.54574c-0.08377,0.16586 -0.08483,0.21372 -0.00368,0.16057c0.15731,-0.10324 0.14654,0.08265 -0.01497,0.2538c-0.10373,0.10992 -0.1019,0.15695 0.00998,0.22986c0.07773,0.05093 -0.43752,0.08627 -1.15656,0.07903c-1.0158,-0.0103 -1.29023,-0.04508 -1.26765,-0.16057c0.01576,-0.08098 -0.01549,-0.11827 -0.06986,-0.08265c-0.05436,0.03534 -0.12264,0.00167 -0.15179,-0.07542c-0.03283,-0.08571 -0.05646,-0.06595 -0.06145,0.0512c-0.01444,0.33199 0.35978,0.42132 1.76426,0.42132c1.48772,0 1.44492,0.01809 1.54602,-0.65063c0.08141,-0.53987 -0.35243,-0.70517 -0.5943,-0.22652m2.97597,0.55824c-0.18383,0.1948 0.34954,1.0892 0.60717,1.01769c0.22926,-0.06345 0.38841,-0.25352 0.21219,-0.25352c-0.06066,0 -0.24581,-0.19758 -0.41099,-0.43941c-0.20589,-0.30138 -0.33431,-0.40323 -0.40837,-0.32476m74.76533,-0.04286c0,0.0615 0.06854,0.17226 0.15258,0.246c0.09008,0.07931 0.16807,0.3921 0.19013,0.765l0.03782,0.63087l0.0197,-0.64005c0.02705,-0.87159 0.30595,-0.91444 0.36267,-0.05566l0.0386,0.5844l0.01943,-0.5844c0.02863,-0.8599 0.31041,-0.81649 0.36189,0.05566l0.03808,0.64005l0.0197,-0.669c0.01654,-0.55713 -0.01444,-0.69154 -0.18567,-0.8048c-0.28205,-0.18673 -1.05493,-0.31001 -1.05493,-0.16808m-3.60178,0.68792c-0.14917,0.18784 -0.37292,0.34173 -0.49713,0.34173c-0.25868,0 -0.23215,0.2588 0.0323,0.31335c0.18199,0.03729 0.76842,-0.37123 0.84799,-0.5908c0.12658,-0.3498 -0.12317,-0.39182 -0.38316,-0.06428m-38.57127,0.35787c-0.6224,0.0846 -1.21854,0.3178 -0.81201,0.3178c0.06933,0 0.12606,0.08293 0.12606,0.18422c0,0.16391 0.02022,0.16614 0.18383,0.01976c0.79809,-0.7138 6.19565,-0.71213 6.7067,0.00223c0.09533,0.1333 0.12606,0.11604 0.17963,-0.1013c0.03545,-0.14415 0.05357,-0.27383 0.03992,-0.2883c-0.23005,-0.24406 -4.89832,-0.34145 -6.42412,-0.13441m-4.6315,0.42911c0.14759,0.5652 0.18094,1.56952 0.1862,5.58739c0.00683,5.47274 0.1145,5.04112 -1.28288,5.13824c-1.85617,0.12885 -2.41607,0.74497 -2.41607,2.65789l0,1.16824l-0.46273,0.18729c-0.41493,0.16781 -0.68096,0.17532 -2.57495,0.07152c-3.53666,-0.19369 -3.99597,0.06929 -3.99939,2.28777l-0.00105,0.79088l-0.81411,0.17894c-1.1865,0.26075 -11.74447,0.25073 -12.02783,-0.01113c-0.25815,-0.23877 -0.28704,-17.41141 -0.0302,-17.93793l0.15389,-0.31502l11.61264,0.01447c10.22523,0.0128 11.61789,0.03451 11.65649,0.18144m37.88058,-0.03924c0.28179,0.2986 0.32092,1.33354 0.35742,9.4689c0.03729,8.26588 0.03309,8.48517 -0.16203,8.55084c-0.1103,0.03701 -0.20038,0.10603 -0.20038,0.15333c0,0.14526 -11.55066,0.06289 -11.98713,-0.08543c-0.37003,-0.12578 -0.38079,-0.14526 -0.43673,-0.79979c-0.03151,-0.36928 -0.10426,-0.73189 -0.16125,-0.80619c-0.05725,-0.0743 -0.1644,-0.35064 -0.23819,-0.61445c-0.24318,-0.86853 -0.38079,-0.91194 -2.89745,-0.91249c-1.20436,-0.00028 -2.35514,-0.04564 -2.55736,-0.10046c-0.20221,-0.0551 -0.49608,-0.13052 -0.65286,-0.16753c-0.33247,-0.07875 -0.44225,-0.42049 -0.55307,-1.72174c-0.12369,-1.45209 -0.73795,-2.1144 -2.0534,-2.21403c-1.09958,-0.08321 -1.04758,0.18506 -1.04758,-5.41986c0,-3.83364 0.02784,-4.77898 0.15048,-5.08954l0.15022,-0.38153l11.08662,0.00835c7.96017,0.00612 11.11918,0.04313 11.20269,0.13163m-27.73729,3.06335c-0.25999,0.05816 -1.64267,0.0871 -3.07261,0.06401c-1.90554,-0.03061 -2.5999,-0.00779 -2.5999,0.08543c0,0.09239 0.85613,0.13497 3.09887,0.15389c3.0692,0.02616 3.09887,0.02421 3.09887,-0.20343c0,-0.12634 -0.01182,-0.2243 -0.02626,-0.21762c-0.01444,0.00668 -0.23898,0.05983 -0.49897,0.11771m35.50916,3.73819c-0.00184,0.07653 0.0365,0.13914 0.08561,0.13914c0.04885,0 0.14024,0.11271 0.203,0.25046c0.06277,0.13775 0.11713,0.19341 0.12107,0.12356c0.00394,-0.06957 -0.08588,-0.24489 -0.19959,-0.3896c-0.11345,-0.14443 -0.20799,-0.20009 -0.21009,-0.12356m-41.13992,0.28663c-0.08798,0.29331 -0.00657,0.32865 0.44724,0.19508c0.58563,-0.17226 5.4183,-0.16057 5.5827,0.01364c0.09796,0.1038 0.12606,0.07291 0.12606,-0.13914l0,-0.27272l-3.0474,0c-2.85805,0 -3.05134,0.01252 -3.10859,0.20315m46.52014,2.08769c0.10111,0.06234 0.18383,0.19452 0.18383,0.29359c0,0.09879 0.02784,0.15027 0.06224,0.1141c0.11765,-0.12495 -0.07668,-0.52791 -0.25316,-0.52457c-0.16125,0.00306 -0.16072,0.01336 0.00709,0.11688m-86.78423,1.35469c0.00945,0.32921 0.01681,0.337 0.08246,0.08766c0.04228,-0.16001 0.18015,-0.30611 0.33116,-0.35092c0.2353,-0.06957 0.22795,-0.07736 -0.08272,-0.08738c-0.31934,-0.0103 -0.34061,0.01224 -0.3309,0.35064m40.96081,24.63734c-0.77314,0.35537 -1.0804,1.43623 -0.51499,1.81052c0.94069,0.62252 4.81323,0.64757 5.84295,0.03785c0.30437,-0.18033 0.34692,-1.25562 0.06145,-1.55784c-0.45984,-0.48755 -4.48838,-0.70462 -5.38941,-0.29053m4.82899,0.31474c0.35427,0.13525 0.36871,0.1628 0.39891,0.76333l0.03125,0.6228l-0.47901,0.07625c-0.2634,0.04174 -0.50475,0.1205 -0.53653,0.17448c-0.10872,0.18701 -2.98043,0.11632 -3.7478,-0.09211l-0.70906,-0.19257l0,-0.57243c0,-0.55685 0.01077,-0.57716 0.39392,-0.74385c0.51473,-0.22374 4.08316,-0.25129 4.64831,-0.0359m-8.56313,2.80733c-0.61295,0.42911 -0.68096,0.56353 -0.68096,1.34801c0,1.25339 0.34665,1.707 1.36429,1.78408c1.15236,0.08738 1.19779,0.05788 1.66945,-1.08726c0.62345,-1.51303 -1.04338,-2.9615 -2.35278,-2.04483m10.45397,-0.09434c-0.53784,0.38208 -0.63028,0.57688 -0.63028,1.32491c0,1.46767 0.34009,1.87174 1.57544,1.87174c1.01239,0 1.09511,-0.04564 1.47433,-0.81704c0.7784,-1.58232 -1.03392,-3.36474 -2.41949,-2.37961m-8.68919,0.58245c0.21508,0.26632 0.3049,1.62657 0.11581,1.75514c-0.06434,0.04397 -0.15048,0.19257 -0.19092,0.33032c-0.0646,0.21901 -0.1447,0.25046 -0.63737,0.25046c-1.08776,0 -1.73983,-1.65551 -0.921,-2.33787c0.37896,-0.31585 1.37742,-0.31474 1.63347,0.00195m10.49258,-0.01475c0.5297,0.65564 0.21377,2.12554 -0.45722,2.1272c-0.15521,0.00056 -0.40154,0.04898 -0.54782,0.10797c-0.7608,0.30639 -1.32254,-1.78352 -0.60586,-2.25466c0.40601,-0.26687 1.38924,-0.25491 1.61089,0.01948m-49.48613,5.38007c-0.01024,0.23237 0.29728,0.42132 0.6849,0.42132c0.36793,0 0.23294,-0.15361 -0.14575,-0.16614c-0.17385,-0.00557 -0.27365,-0.06512 -0.25605,-0.1525c0.01576,-0.07875 -0.01549,-0.1141 -0.06986,-0.07848c-0.05436,0.03534 -0.12264,0.00167 -0.15179,-0.07542c-0.03283,-0.08571 -0.05646,-0.06595 -0.06145,0.0512" id="path7"/>
   <path stroke="null" fill-rule="evenodd" fill="#cccccc" d="m73.53886,9.08102c-0.19118,0.37847 -0.14496,6.90869 0.04885,6.90869c0.13682,0 0.15757,-0.47002 0.15757,-3.56204c0,-1.95912 -0.02206,-3.56204 -0.04885,-3.56204c-0.02679,0 -0.09769,0.09684 -0.15757,0.21539m-41.94694,1.20525c-0.16781,0.03952 -0.18436,0.16836 -0.15757,1.23196c0.03283,1.31378 0.04806,1.33493 0.84379,1.17325l0.28888,-0.059l0,-1.15989c0,-0.63783 -0.03545,-1.16545 -0.07878,-1.17213c-0.28783,-0.04453 -0.73795,-0.05176 -0.89631,-0.01419m52.5267,16.53788c-0.09428,0.24378 -0.10741,8.13286 -0.01366,8.23193c0.078,0.08293 0.3653,-0.20621 0.51184,-0.51538c0.0583,-0.12245 0.24712,-0.30556 0.41992,-0.40657c0.56069,-0.32865 0.6287,-1.68195 0.09533,-1.89706c-0.71064,-0.28608 -0.78338,-1.44263 -0.09087,-1.44263c0.21141,0 0.38631,-0.3075 0.3133,-0.55128c-0.03755,-0.12523 -0.15232,-0.22791 -0.255,-0.22791c-0.49004,0 -0.77603,-0.73578 -0.84405,-2.17062c-0.03361,-0.70962 -0.09113,-1.13874 -0.13682,-1.02047m7.02473,28.77014c-0.28179,0.02004 -0.6245,0.11437 -0.76159,0.20955l-0.24922,0.17309l0,12.28569l0,12.28597l0.39392,0.27021c0.50186,0.34424 1.62166,0.47531 1.86405,0.21817c0.20694,-0.21901 0.24371,-25.23899 0.03729,-25.37424c-0.14418,-0.09462 -0.58747,-0.11827 -1.28446,-0.06846m-7.1823,5.88571c-0.104,0.04397 -0.13131,2.7283 -0.13131,12.89903c0,12.31297 -0.00788,12.84811 -0.19145,12.95218c-0.40863,0.23181 -0.75397,0.9381 -0.75397,1.54197c0,0.76333 -0.15337,1.07919 -0.63658,1.31016c-1.13398,0.54182 -1.3593,1.57398 -1.3593,6.22438l0,3.5125l0.34429,0l0.34455,0l-0.03309,-3.58987c-0.04228,-4.56553 0.02495,-4.85077 1.08855,-4.61674c0.76185,0.16781 0.78759,0.28914 0.79599,3.78188c0.00184,0.78059 0.00026,1.50691 -0.00368,1.61405c-0.04517,1.27426 0.12264,2.81067 0.307,2.81067c0.27496,0 0.29833,-6.81296 0.02679,-7.81116c-0.08876,-0.32615 -0.18567,-0.76834 -0.21535,-0.98262c-0.02968,-0.21428 -0.09769,-0.44776 -0.15127,-0.51872c-0.12238,-0.16168 0.28152,-0.4831 0.60717,-0.4831c0.3934,0 0.39603,-0.09267 0.40233,-14.08118c0.00709,-15.38578 0.026,-14.76131 -0.44067,-14.56345m-17.69667,16.5927c-0.07064,0.28858 0.01444,0.47169 0.18698,0.40156c0.19092,-0.07764 0.19381,-0.30639 0.00604,-0.47141c-0.11293,-0.09935 -0.15547,-0.08376 -0.19302,0.06985m20.84807,5.69314c-0.13,0.18645 -0.23635,0.40602 -0.23635,0.48811c0,0.08209 -0.04123,0.19675 -0.09165,0.25491c-0.05016,0.05816 -0.11897,0.44052 -0.15284,0.8496l-0.06145,0.74413l0.54992,0.07263c1.07069,0.14192 1.16969,0.08989 1.20541,-0.6331c0.026,-0.52568 -0.00026,-0.64228 -0.15757,-0.69877c-0.39077,-0.14081 -0.67151,-0.50091 -0.74478,-0.95563l-0.07432,-0.46056l-0.23635,0.33867m-2.89141,5.38285c-0.02337,0.20009 -0.04307,0.06317 -0.04359,-0.30416c-0.00053,-0.36734 0.01865,-0.53097 0.04254,-0.36372c0.0239,0.16725 0.02442,0.4678 0.00105,0.66788m-25.32515,6.84162c-0.10452,0.11048 -0.07905,2.37154 0.02652,2.37154c0.1665,0 0.22139,-0.33144 0.22139,-1.33827c0,-0.90609 -0.07458,-1.21694 -0.24791,-1.03327" id="path8"/>
  </g>
 </g>
</svg>