<?xml version="1.0" encoding="utf-8"?>
<!-- Generator: Adobe Illustrator 24.1.2, SVG Export Plug-In . SVG Version: 6.00 Build 0)  -->
<svg version="1.1" id="Capa_1" xmlns="http://www.w3.org/2000/svg" xmlns:xlink="http://www.w3.org/1999/xlink" x="0px" y="0px"
	 viewBox="0 0 300 300" style="enable-background:new 0 0 300 300;" xml:space="preserve">
<style type="text/css">
	.st0{fill:url(#SVGID_1_);}
	.st1{fill:url(#SVGID_2_);}
	.st2{fill:url(#SVGID_3_);}
	.st3{fill:url(#SVGID_4_);}
	.st4{display:none;}
	.st5{opacity:0.18;}
</style>
<g id="SAIL">
	
		<linearGradient id="SVGID_1_" gradientUnits="userSpaceOnUse" x1="106.887" y1="74.7702" x2="200.9224" y2="296.3037" gradientTransform="matrix(1 0 0 -1 0 300.49)">
		<stop  offset="8.317282e-02" style="stop-color:#00CAEC"/>
		<stop  offset="0.1026" style="stop-color:#00B7DD"/>
		<stop  offset="0.1457" style="stop-color:#0091C2"/>
		<stop  offset="0.1939" style="stop-color:#0070A9"/>
		<stop  offset="0.2469" style="stop-color:#005594"/>
		<stop  offset="0.3064" style="stop-color:#003E84"/>
		<stop  offset="0.3753" style="stop-color:#002D77"/>
		<stop  offset="0.4595" style="stop-color:#00216E"/>
		<stop  offset="0.5755" style="stop-color:#001A68"/>
		<stop  offset="0.874" style="stop-color:#001867"/>
	</linearGradient>
	<path class="st0" d="M191.1,0C139.5,47.7,73.6,139.2,67.6,209c29.7,5,60.9,15.8,88.5,31.1C91.3,101.3,191.1,0,191.1,0z"/>
	
		<radialGradient id="SVGID_2_" cx="219.5867" cy="146.7787" r="76.2569" gradientTransform="matrix(1 0 0 -1 0 300.49)" gradientUnits="userSpaceOnUse">
		<stop  offset="0.3723" style="stop-color:#FFF1D2"/>
		<stop  offset="0.4953" style="stop-color:#FFF0CF"/>
		<stop  offset="0.585" style="stop-color:#FFECC6"/>
		<stop  offset="0.6641" style="stop-color:#FFE5B6"/>
		<stop  offset="0.7371" style="stop-color:#FFDC9F"/>
		<stop  offset="0.806" style="stop-color:#FFD082"/>
		<stop  offset="0.8717" style="stop-color:#FFC25F"/>
		<stop  offset="0.9349" style="stop-color:#FFB034"/>
		<stop  offset="0.9947" style="stop-color:#FF9D05"/>
		<stop  offset="1" style="stop-color:#FF9B00"/>
	</radialGradient>
	<path class="st1" d="M187.6,34.5c-23.4,23-74.5,85.5-22.6,209c29.8,17.8,66.5,22.1,66.5,22.1S111,130.7,187.6,34.5z"/>
	
		<radialGradient id="SVGID_3_" cx="70.878" cy="43.9576" r="57.7715" fx="63.5132" fy="44.1827" gradientTransform="matrix(1 0 0 -1 0 300.49)" gradientUnits="userSpaceOnUse">
		<stop  offset="8.317282e-02" style="stop-color:#00CAEC"/>
		<stop  offset="0.4864" style="stop-color:#0076AD"/>
		<stop  offset="0.8367" style="stop-color:#00327B"/>
		<stop  offset="1" style="stop-color:#001867"/>
	</radialGradient>
	<path class="st2" d="M36.3,267.1c-2.9-15.9-1.7-43.7,29.7-40.5c41.2,4.2,133.5,53.6,165.8,52.4c32.3-1.3,40.9-25.5,40.9-25.5
		s-1.3,43.5-53.6,40.9C159.4,292.1,43.6,219.3,36.3,267.1z"/>
	
		<linearGradient id="SVGID_4_" gradientUnits="userSpaceOnUse" x1="18.9736" y1="20.1418" x2="180.4402" y2="20.1418" gradientTransform="matrix(1 0 0 -1 0 300.49)">
		<stop  offset="8.317282e-02" style="stop-color:#00CAEC"/>
		<stop  offset="0.1026" style="stop-color:#00B7DD"/>
		<stop  offset="0.1457" style="stop-color:#0091C2"/>
		<stop  offset="0.1939" style="stop-color:#0070A9"/>
		<stop  offset="0.2469" style="stop-color:#005594"/>
		<stop  offset="0.3064" style="stop-color:#003E84"/>
		<stop  offset="0.3753" style="stop-color:#002D77"/>
		<stop  offset="0.4595" style="stop-color:#00216E"/>
		<stop  offset="0.5755" style="stop-color:#001A68"/>
		<stop  offset="0.874" style="stop-color:#001867"/>
	</linearGradient>
	<path class="st3" d="M47.8,286.9c-9.6-21.2-2.5-29.9,21.5-24.8c18.2,3.9,40.5,12.5,135.8,37.9c-15-1.1-125.7-27.1-135.8-28.7
		C42.2,267.2,47.8,286.9,47.8,286.9z"/>
</g>
<g id="Capa_6" class="st4">
</g>
<g id="g-SAIL">
</g>
<g id="d-SAIL">
</g>
<g id="n-SAIL">
</g>
<g id="v-SAIL">
</g>
<g id="Compass" class="st5">
</g>
<g id="g-SAIL_copia">
</g>
<g id="d-SAIL_copia">
</g>
<g id="v-SAIL_copia">
</g>
<g id="n-SAIL_copia">
</g>
<g id="SAIL_copia">
</g>
</svg>
