<svg version="1.1" viewBox="0.0 0.0 100.0 100.0" fill="none" stroke="none" stroke-linecap="square" stroke-miterlimit="10" xmlns:xlink="http://www.w3.org/1999/xlink" xmlns="http://www.w3.org/2000/svg"><clipPath id="p.0"><path d="m0 0l100.0 0l0 100.0l-100.0 0l0 -100.0z" clip-rule="nonzero"/></clipPath><g clip-path="url(#p.0)"><path fill="#000000" fill-opacity="0.0" d="m0 0l100.0 0l0 100.0l-100.0 0z" fill-rule="evenodd"/><path fill="#000000" fill-opacity="0.0" d="m13.071984 31.717342l73.85827 0l0 36.56693l-73.85827 0z" fill-rule="evenodd"/><path fill="#3c78d8" d="m15.337609 53.15984l2.499999 -0.21875q0.171875 1.5 0.8125 2.46875q0.65625 0.953125 2.015625 1.5625q1.375 0.59375 3.09375 0.59375q1.515625 0 2.671875 -0.453125q1.15625 -0.453125 1.71875 -1.234375q0.578125 -0.796875 0.578125 -1.71875q0 -0.953125 -0.546875 -1.65625q-0.546875 -0.703125 -1.796875 -1.171875q-0.8125 -0.328125 -3.578125 -0.984375q-2.765625 -0.65625 -3.859375 -1.25q-1.4375 -0.75 -2.140625 -1.859375q-0.703125 -1.125 -0.703125 -2.5q0 -1.515625 0.859375 -2.828125q0.859375 -1.328125 2.515625 -2.015625q1.65625 -0.6875 3.671875 -0.6875q2.234375 0 3.9375 0.71875q1.703125 0.71875 2.609375 2.125q0.921875 1.390625 0.984375 3.15625l-2.546875 0.1875q-0.203125 -1.90625 -1.390625 -2.875q-1.171875 -0.96875 -3.484375 -0.96875q-2.40625 0 -3.515625 0.890625q-1.09375 0.875 -1.09375 2.109375q0 1.09375 0.78125 1.78125q0.765625 0.703125 4.0 1.4375q3.234375 0.71875 4.4375 1.265625q1.75 0.8125 2.578125 2.046875q0.84375 1.234375 0.84375 2.859375q0 1.59375 -0.921875 3.015625q-0.921875 1.40625 -2.640625 2.203125q-1.703125 0.78125 -3.859375 0.78125q-2.71875 0 -4.5625 -0.796875q-1.828125 -0.796875 -2.875 -2.390625q-1.046874 -1.59375 -1.093749 -3.59375zm18.347656 -0.828125q0 -4.03125 2.234375 -5.96875q1.875 -1.609375 4.5625 -1.609375q3.0 0 4.890625 1.96875q1.90625 1.953125 1.90625 5.40625q0 2.8125 -0.84375 4.421875q-0.828125 1.59375 -2.4375 2.484375q-1.609375 0.890625 -3.515625 0.890625q-3.046875 0 -4.921875 -1.953125q-1.875 -1.953125 -1.875 -5.640625zm2.515625 0q0 2.796875 1.21875 4.1875q1.21875 1.375 3.0625 1.375q1.84375 0 3.046875 -1.390625q1.21875 -1.390625 1.21875 -4.25q0 -2.6875 -1.21875 -4.078125q-1.21875 -1.390625 -3.046875 -1.390625q-1.84375 0 -3.0625 1.390625q-1.21875 1.375 -1.21875 4.15625zm13.916016 7.265625l0 -20.046875l2.453125 0l0 20.046875l-2.453125 0z" fill-rule="nonzero"/><path fill="#ff0000" d="m65.86886 57.800465q-1.375 1.171875 -2.640625 1.65625q-1.265625 0.46875 -2.71875 0.46875q-2.390625 0 -3.671875 -1.171875q-1.28125 -1.171875 -1.28125 -2.984375q0 -1.0625 0.484375 -1.9375q0.484375 -0.890625 1.265625 -1.421875q0.796875 -0.53125 1.78125 -0.8125q0.71875 -0.1875 2.1875 -0.375q2.96875 -0.34375 4.375 -0.84375q0.015625 -0.5 0.015625 -0.640625q0 -1.5 -0.6875 -2.125q-0.953125 -0.828125 -2.8125 -0.828125q-1.734375 0 -2.5625 0.609375q-0.828125 0.609375 -1.21875 2.15625l-2.40625 -0.328125q0.328125 -1.546875 1.078125 -2.5q0.75 -0.953125 2.171875 -1.453125q1.421875 -0.515625 3.296875 -0.515625q1.859375 0 3.015625 0.4375q1.171875 0.4375 1.71875 1.109375q0.546875 0.65625 0.765625 1.65625q0.125 0.640625 0.125 2.28125l0 3.28125q0 3.421875 0.15625 4.34375q0.15625 0.90625 0.625 1.734375l-2.578125 0q-0.375 -0.765625 -0.484375 -1.796875zm-0.21875 -5.484375q-1.328125 0.546875 -4.015625 0.921875q-1.515625 0.21875 -2.140625 0.5q-0.625 0.265625 -0.96875 0.796875q-0.34375 0.515625 -0.34375 1.171875q0 0.984375 0.734375 1.640625q0.75 0.65625 2.1875 0.65625q1.421875 0 2.53125 -0.625q1.109375 -0.625 1.625 -1.703125q0.390625 -0.84375 0.390625 -2.46875l0 -0.890625zm6.2753906 7.28125l0 -14.515625l2.21875 0l0 2.203125q0.84375 -1.546875 1.5625 -2.03125q0.71875 -0.5 1.578125 -0.5q1.25 0 2.53125 0.78125l-0.84375 2.296875q-0.90625 -0.546875 -1.796875 -0.546875q-0.8125 0 -1.453125 0.5q-0.640625 0.484375 -0.921875 1.34375q-0.40625 1.3125 -0.40625 2.859375l0 7.609375l-2.46875 0z" fill-rule="nonzero"/><path fill="#000000" fill-opacity="0.0" d="m62.69307 21.860893l25.574799 0l0 15.559055l-25.574799 0z" fill-rule="evenodd"/><path fill="#cc0000" d="m64.489944 33.10089l0 -7.624998l1.5 0l3.109375 5.09375l0 -5.09375l1.4375 0l0 7.624998l-1.546875 0l-3.078125 -4.968748l0 4.968748l-1.421875 0zm7.6799774 0l0 -7.624998l5.234375 0l0 1.28125l-3.6875 0l0 1.8125l3.1875 0l0 1.296875l-3.1875 0l0 3.234373l-1.546875 0zm8.228012 0l0 -6.343748l-2.265625 0l0 -1.28125l6.0625 0l0 1.28125l-2.265625 0l0 6.343748l-1.53125 0z" fill-rule="nonzero"/></g></svg>