<svg id="Layer_1" data-name="Layer 1" xmlns="http://www.w3.org/2000/svg" xmlns:xlink="http://www.w3.org/1999/xlink" viewBox="0 0 94 88.87"><defs><style>.cls-1,.cls-2,.cls-3,.cls-4{fill-rule:evenodd;}.cls-1{fill:url(#linear-gradient);}.cls-2{fill:url(#linear-gradient-2);}.cls-3{fill:url(#linear-gradient-3);}.cls-4{fill:url(#linear-gradient-4);}</style><linearGradient id="linear-gradient" x1="-12.44" y1="114.98" x2="-12.44" y2="113.8" gradientTransform="matrix(106, 0, 0, -68, 1369, 7817.11)" gradientUnits="userSpaceOnUse"><stop offset="0" stop-color="#f7c300"/><stop offset="1" stop-color="#fa006a"/></linearGradient><linearGradient id="linear-gradient-2" x1="-12.44" y1="118.69" x2="-12.44" y2="113.85" gradientTransform="matrix(110, 0, 0, -21, 1418, 2483)" xlink:href="#linear-gradient"/><linearGradient id="linear-gradient-3" x1="-12.28" y1="120.36" x2="-12.28" y2="115.52" gradientTransform="matrix(29, 0, 0, -3, 409, 437)" xlink:href="#linear-gradient"/><linearGradient id="linear-gradient-4" x1="-11.98" y1="120.65" x2="-11.98" y2="115.81" gradientTransform="matrix(13, 0, 0, -3, 207, 443)" xlink:href="#linear-gradient"/></defs><path id="Shape" class="cls-1" d="M50.85,5.56a45.3,45.3,0,0,1,45.3,45.29,55.11,55.11,0,0,1-.62,6.22,1.7,1.7,0,0,1-1.69,1.47H80.34a1.28,1.28,0,0,0-.13,2.55H93.62a1,1,0,0,1,1,1,1.49,1.49,0,0,1,0,.21h0a1.71,1.71,0,0,1-1.67,1.35H8.78a1.28,1.28,0,1,1,0-2.56H27.35a1.28,1.28,0,0,0,.13-2.56H7.68a1.52,1.52,0,0,1-1.5-1.28A1.12,1.12,0,0,1,7.11,56h7.43a1.28,1.28,0,0,0,.12-2.56H7.3a1.71,1.71,0,0,1-1.71-1.63c0-.39,0-.7,0-.94A45.29,45.29,0,0,1,50.85,5.56Zm38,47.86h-9.4A1.28,1.28,0,0,0,78.2,54.7,1.29,1.29,0,0,0,79.36,56h9.52A1.28,1.28,0,0,0,89,53.42Z" transform="translate(-3 -5.56)"/><path id="Combined-Shape" class="cls-2" d="M60.68,81.62a1.28,1.28,0,1,1,0,2.56H27.35a1.28,1.28,0,1,1,0-2.56Zm25.64-5.13a1.28,1.28,0,0,1,0,2.56H70.08a1.28,1.28,0,0,1,0-2.56Zm-28.2,0a1.28,1.28,0,0,1,0,2.56H13.68a1.28,1.28,0,1,1,0-2.56Zm-37.6-5.13a1.29,1.29,0,0,1,0,2.57H4.28a1.29,1.29,0,0,1,0-2.57Zm42.73,0a1.29,1.29,0,0,1,0,2.57H35.05a1.29,1.29,0,1,1,0-2.57Zm32.47,0a1.29,1.29,0,0,1,0,2.57H79.48a1.29,1.29,0,0,1,0-2.57Zm-65.8,0a1.29,1.29,0,0,1,0,2.57H25.65a1.29,1.29,0,1,1,0-2.57Zm43.58,0a1.29,1.29,0,0,1,0,2.57H69.23a1.29,1.29,0,0,1,0-2.57Zm18-5.12a1.28,1.28,0,0,1,0,2.56H8.55a1.28,1.28,0,1,1,0-2.56Z" transform="translate(-3 -5.56)"/><path id="Rectangle-Copy-10" class="cls-3" d="M41.88,86.75H64.1A1.28,1.28,0,0,1,65.38,88h0a1.28,1.28,0,0,1-1.28,1.28H41.88A1.28,1.28,0,0,1,40.6,88h0A1.28,1.28,0,0,1,41.88,86.75Z" transform="translate(-3 -5.56)"/><path id="Rectangle-Copy-11" class="cls-4" d="M47,91.87h8.54a1.29,1.29,0,0,1,1.29,1.28h0a1.29,1.29,0,0,1-1.29,1.29H47a1.28,1.28,0,0,1-1.28-1.29h0A1.28,1.28,0,0,1,47,91.87Z" transform="translate(-3 -5.56)"/></svg>