<svg width="100" height="100" viewBox="0 0 100 100" fill="none" xmlns="http://www.w3.org/2000/svg">
<path d="M82.0535 49.5331L59.4609 46.0186L64.3585 37.5552C64.449 37.3988 64.4853 37.2169 64.4618 37.0377C64.4383 36.8586 64.3563 36.6922 64.2285 36.5644C64.1007 36.4366 63.9344 36.3546 63.7552 36.3311C63.576 36.3076 63.3941 36.3439 63.2377 36.4344L54.7742 41.3321L51.2598 18.7395C51.2278 18.5335 51.1232 18.3458 50.9649 18.2102C50.8065 18.0745 50.6049 18 50.3965 18C50.188 18 49.9864 18.0745 49.8281 18.2102C49.6698 18.3458 49.5652 18.5335 49.5332 18.7395L46.0187 41.3321L37.5553 36.4344C37.3988 36.3439 37.2169 36.3076 37.0378 36.3311C36.8586 36.3546 36.6922 36.4366 36.5644 36.5644C36.4367 36.6922 36.3546 36.8586 36.3311 37.0377C36.3076 37.2169 36.3439 37.3988 36.4344 37.5552L41.332 46.0186L18.7395 49.5331C18.5335 49.5652 18.3457 49.6698 18.2101 49.8281C18.0745 49.9864 18 50.188 18 50.3964C18 50.6049 18.0745 50.8065 18.2101 50.9648C18.3457 51.1231 18.5335 51.2277 18.7395 51.2598L41.332 54.7743L36.4344 63.2377C36.3439 63.3941 36.3076 63.576 36.3311 63.7552C36.3546 63.9343 36.4366 64.1007 36.5644 64.2285C36.6922 64.3563 36.8586 64.4383 37.0378 64.4618C37.2169 64.4853 37.3988 64.449 37.5553 64.3585L46.0187 59.4608L49.5332 82.0536C49.5652 82.2595 49.6699 82.4472 49.8282 82.5828C49.9865 82.7184 50.188 82.7929 50.3965 82.7929C50.6049 82.7929 50.8065 82.7184 50.9648 82.5828C51.1231 82.4472 51.2277 82.2595 51.2598 82.0536L54.7742 59.4608L63.2377 64.3585C63.3941 64.449 63.5761 64.4853 63.7552 64.4618C63.9344 64.4383 64.1008 64.3563 64.2286 64.2285C64.3564 64.1007 64.4384 63.9343 64.4619 63.7551C64.4854 63.576 64.4491 63.3941 64.3585 63.2376L59.4609 54.7743L82.0535 51.2597C82.2595 51.2276 82.4471 51.123 82.5827 50.9647C82.7182 50.8064 82.7927 50.6048 82.7927 50.3964C82.7927 50.188 82.7182 49.9865 82.5827 49.8282C82.4471 49.6699 82.2595 49.5652 82.0535 49.5331V49.5331Z" fill="#FF47ED"/>
</svg>
