<svg width="100" height="100" viewBox="0 0 100 100" fill="none" xmlns="http://www.w3.org/2000/svg">
<rect x="8.5" y="10.5" width="79" height="79" rx="39.5" fill="url(#paint0_linear)"/>
<rect x="8.5" y="10.5" width="79" height="79" rx="39.5" fill="white" fill-opacity="0.48"/>
<rect x="8.5" y="10.5" width="79" height="79" rx="39.5" stroke="url(#paint1_linear)" stroke-width="5"/>
<path d="M41.5955 38.559C39.9854 35.7702 40.9409 32.2043 43.7296 30.5942L66.1997 17.6211C68.9884 16.0111 72.5543 16.9666 74.1644 19.7553L87.1375 42.2253C88.7476 45.0141 87.7921 48.58 85.0033 50.1901L62.5333 63.1631C59.7446 64.7732 56.1786 63.8177 54.5686 61.029L41.5955 38.559Z" fill="url(#paint2_linear)"/>
<path d="M41.5955 38.559C39.9854 35.7702 40.9409 32.2043 43.7296 30.5942L55.1414 24.0056L73.945 56.5746L62.5333 63.1631C59.7446 64.7732 56.1786 63.8177 54.5686 61.029L48.082 49.794L41.5955 38.559Z" fill="url(#paint3_linear)"/>
<path d="M54.5458 41.1896C54.0485 41.4766 53.5274 41.6522 52.9822 41.7163C52.4467 41.783 51.9176 41.7489 51.395 41.614C50.875 41.4695 50.395 41.2332 49.9549 40.9052C49.5149 40.5771 49.1513 40.1644 48.8643 39.6672C48.5772 39.17 48.4016 38.6488 48.3375 38.1037C48.2734 37.5585 48.3106 37.0277 48.449 36.5112C48.5899 35.9851 48.8231 35.5069 49.1487 35.0764C49.4767 34.6363 49.8894 34.2728 50.3866 33.9857C50.8839 33.6986 51.405 33.523 51.9502 33.4589C52.4918 33.3888 53.0226 33.4259 53.5426 33.5704C54.0652 33.7053 54.5435 33.9385 54.9774 34.2701C55.4175 34.5981 55.7811 35.0108 56.0681 35.508C56.3552 36.0053 56.5308 36.5265 56.5949 37.0716C56.6651 37.6132 56.6297 38.1471 56.4887 38.6731C56.3503 39.1896 56.1153 39.6649 55.7837 40.0989C55.4557 40.5389 55.043 40.9025 54.5458 41.1896ZM54.1834 40.562C54.5958 40.3239 54.9371 40.0258 55.2073 39.6676C55.4741 39.3034 55.6651 38.9061 55.7804 38.4757C55.8958 38.0452 55.9259 37.6074 55.871 37.1621C55.8221 36.7133 55.6786 36.2827 55.4405 35.8704C55.2025 35.458 54.9013 35.1185 54.5371 34.8518C54.1789 34.5815 53.7847 34.3887 53.3542 34.2734C52.9238 34.1581 52.486 34.1279 52.0407 34.1828C51.5919 34.2317 51.1613 34.3752 50.749 34.6133C50.3366 34.8514 49.9971 35.1525 49.7303 35.5167C49.4601 35.8749 49.2673 36.2692 49.152 36.6996C49.0366 37.13 49.0034 37.5696 49.0523 38.0184C49.1073 38.4637 49.2538 38.8925 49.4919 39.3049C49.7299 39.7172 50.028 40.0585 50.3862 40.3287C50.7504 40.5955 51.1477 40.7865 51.5782 40.9018C52.0086 41.0172 52.4482 41.0504 52.897 41.0015C53.3423 40.9465 53.7711 40.8 54.1834 40.562ZM53.9314 40.1254C53.5797 40.3284 53.2124 40.4555 52.8296 40.5068C52.4494 40.5484 52.0745 40.5223 51.705 40.4284C51.3381 40.3249 51.0003 40.1601 50.6919 39.9339C50.386 39.6982 50.1315 39.4045 49.9285 39.0528C49.7254 38.7011 49.6 38.3369 49.5523 37.9602C49.5072 37.5739 49.5333 37.199 49.6307 36.8355C49.7306 36.4625 49.8955 36.1248 50.1251 35.8224C50.3574 35.5105 50.6493 35.2529 51.001 35.0499C51.3527 34.8468 51.7217 34.7227 52.108 34.6776C52.4908 34.6264 52.8657 34.6525 53.2326 34.756C53.6022 34.8498 53.9399 35.0147 54.2458 35.2504C54.5542 35.4766 54.81 35.7655 55.013 36.1172C55.2161 36.4689 55.3402 36.8379 55.3853 37.2242C55.433 37.6009 55.4069 37.9758 55.307 38.3488C55.2096 38.7123 55.0448 39.05 54.8125 39.3619C54.5768 39.6678 54.2831 39.9223 53.9314 40.1254ZM53.569 39.4977C53.9268 39.2912 54.1991 39.0207 54.3861 38.6864C54.5792 38.3486 54.6766 37.9851 54.6783 37.596C54.6861 37.2034 54.5885 36.8313 54.3854 36.4796C54.1789 36.1218 53.9054 35.8512 53.565 35.6677C53.2271 35.4747 52.8637 35.3773 52.4746 35.3755C52.0916 35.3703 51.7212 35.4709 51.3634 35.6775C51.0117 35.8806 50.7393 36.151 50.5463 36.4888C50.3532 36.8267 50.2558 37.1901 50.2541 37.5792C50.2489 37.9623 50.3495 38.3327 50.5561 38.6904C50.7591 39.0421 51.0296 39.3145 51.3674 39.5075C51.7053 39.7006 52.0687 39.798 52.4578 39.7997C52.8469 39.8015 53.2173 39.7008 53.569 39.4977Z" fill="#00FFB7"/>
<path d="M78.5096 46.2039C78.0124 46.491 77.4912 46.6665 76.9461 46.7306C76.4105 46.7973 75.8815 46.7632 75.3589 46.6283C74.8389 46.4838 74.3589 46.2475 73.9188 45.9195C73.4788 45.5914 73.1152 45.1788 72.8281 44.6815C72.541 44.1843 72.3655 43.6631 72.3014 43.118C72.2373 42.5728 72.2744 42.042 72.4128 41.5255C72.5538 40.9995 72.787 40.5212 73.1125 40.0907C73.4406 39.6506 73.8532 39.2871 74.3505 39C74.8477 38.7129 75.3689 38.5373 75.914 38.4732C76.4557 38.4031 76.9865 38.4402 77.5065 38.5847C78.029 38.7196 78.5073 38.9528 78.9413 39.2844C79.3814 39.6125 79.7449 40.0251 80.032 40.5224C80.3191 41.0196 80.4947 41.5408 80.5588 42.0859C80.6289 42.6275 80.5935 43.1614 80.4526 43.6874C80.3142 44.204 80.0792 44.6792 79.7476 45.1132C79.4195 45.5532 79.0069 45.9168 78.5096 46.2039ZM78.1473 45.5763C78.5596 45.3382 78.9009 45.0401 79.1712 44.6819C79.4379 44.3177 79.629 43.9204 79.7443 43.49C79.8596 43.0596 79.8898 42.6217 79.8348 42.1764C79.7859 41.7276 79.6425 41.297 79.4044 40.8847C79.1663 40.4724 78.8652 40.1328 78.501 39.8661C78.1428 39.5958 77.7485 39.403 77.3181 39.2877C76.8877 39.1724 76.4498 39.1422 76.0045 39.1972C75.5557 39.2461 75.1252 39.3895 74.7128 39.6276C74.3005 39.8657 73.9609 40.1668 73.6942 40.531C73.424 40.8892 73.2312 41.2835 73.1158 41.7139C73.0005 42.1443 72.9673 42.5839 73.0162 43.0327C73.0712 43.478 73.2177 43.9068 73.4557 44.3192C73.6938 44.7315 73.9919 45.0728 74.3501 45.3431C74.7143 45.6098 75.1116 45.8008 75.542 45.9162C75.9724 46.0315 76.412 46.0647 76.8608 46.0158C77.3061 45.9609 77.735 45.8143 78.1473 45.5763ZM77.8952 45.1397C77.5435 45.3427 77.1763 45.4699 76.7935 45.5211C76.4133 45.5627 76.0384 45.5366 75.6689 45.4427C75.3019 45.3392 74.9642 45.1744 74.6558 44.9483C74.3499 44.7125 74.0954 44.4188 73.8923 44.0671C73.6893 43.7154 73.5639 43.3512 73.5162 42.9745C73.471 42.5882 73.4972 42.2133 73.5946 41.8499C73.6945 41.4768 73.8593 41.1391 74.089 40.8367C74.3212 40.5248 74.6132 40.2673 74.9649 40.0642C75.3166 39.8611 75.6856 39.737 76.0719 39.6919C76.4547 39.6407 76.8295 39.6668 77.1965 39.7703C77.566 39.8642 77.9037 40.029 78.2096 40.2647C78.5181 40.4909 78.7738 40.7798 78.9769 41.1315C79.18 41.4832 79.3041 41.8522 79.3492 42.2385C79.3969 42.6152 79.3708 42.9901 79.2708 43.3631C79.1734 43.7266 79.0086 44.0643 78.7764 44.3762C78.5407 44.6821 78.2469 44.9366 77.8952 45.1397ZM77.5329 44.5121C77.8906 44.3055 78.163 44.0351 78.35 43.7007C78.543 43.3629 78.6404 42.9994 78.6422 42.6103C78.65 42.2177 78.5523 41.8456 78.3493 41.4939C78.1427 41.1361 77.8692 40.8655 77.5288 40.682C77.191 40.489 76.8275 40.3916 76.4385 40.3898C76.0554 40.3846 75.685 40.4853 75.3273 40.6918C74.9755 40.8949 74.7032 41.1653 74.5101 41.5032C74.3171 41.841 74.2197 42.2045 74.218 42.5935C74.2127 42.9766 74.3134 43.347 74.5199 43.7047C74.723 44.0565 74.9934 44.3288 75.3313 44.5219C75.6691 44.7149 76.0326 44.8123 76.4217 44.814C76.8108 44.8158 77.1812 44.7151 77.5329 44.5121Z" fill="#00FFB7"/>
<path d="M24.8884 37.0696C26.4985 34.2809 30.0644 33.3254 32.8532 34.9355L55.3232 47.9086C58.1119 49.5186 59.0674 53.0846 57.4573 55.8733L44.4843 78.3434C42.8742 81.1321 39.3082 82.0876 36.5195 80.4775L14.0495 67.5044C11.2607 65.8943 10.3053 62.3284 11.9153 59.5397L24.8884 37.0696Z" fill="#202020"/>
<path d="M24.8884 37.0696C26.4985 34.2809 30.0644 33.3254 32.8532 34.9355L55.3232 47.9086C58.1119 49.5186 59.0674 53.0846 57.4573 55.8733L44.4843 78.3434C42.8742 81.1321 39.3082 82.0876 36.5195 80.4775L14.0495 67.5044C11.2607 65.8943 10.3053 62.3284 11.9153 59.5397L24.8884 37.0696Z" fill="url(#paint4_linear)"/>
<path d="M24.9783 36.9195C26.5883 34.1307 30.1543 33.1752 32.943 34.7853L44.3547 41.3739L25.5511 73.9428L14.1393 67.3542C11.3506 65.7442 10.3951 62.1782 12.0052 59.3895L18.4917 48.1545L24.9783 36.9195Z" fill="url(#paint5_linear)"/>
<path d="M32.05 62.3042C31.4118 61.9357 30.8821 61.4691 30.4611 60.9043C30.0433 60.3518 29.7417 59.7418 29.5563 59.0744C29.3831 58.4037 29.3377 57.7185 29.42 57.0189C29.5022 56.3192 29.7276 55.6503 30.096 55.0121C30.4645 54.3739 30.9311 53.8443 31.4959 53.4232C32.0607 53.0021 32.6746 52.7028 33.3375 52.5251C34.0127 52.3442 34.694 52.2965 35.3814 52.3821C36.081 52.4643 36.7499 52.6897 37.3881 53.0582C38.0263 53.4266 38.556 53.8933 38.977 54.4581C39.4026 55.0151 39.7019 55.6289 39.8751 56.2996C40.0605 56.967 40.1082 57.6483 40.0181 58.3435C39.9359 59.0431 39.7105 59.7121 39.3421 60.3503C38.9736 60.9885 38.507 61.5181 37.9422 61.9392C37.3852 62.3647 36.7691 62.668 36.0939 62.8489C35.4309 63.0265 34.7519 63.0703 34.0567 62.9803C33.3571 62.898 32.6881 62.6726 32.05 62.3042ZM32.515 61.4987C33.0443 61.8042 33.5946 61.9923 34.1662 62.0628C34.7422 62.1256 35.3064 62.0829 35.8588 61.9349C36.4113 61.7869 36.9173 61.5394 37.377 61.1926C37.8445 60.8502 38.231 60.4144 38.5365 59.8852C38.8421 59.356 39.0262 58.8033 39.089 58.2273C39.1595 57.6558 39.1208 57.0938 38.9728 56.5414C38.8247 55.989 38.5773 55.4829 38.2305 55.0232C37.8881 54.5558 37.4523 54.1692 36.9231 53.8637C36.3938 53.5581 35.8412 53.374 35.2652 53.3112C34.6937 53.2407 34.1317 53.2794 33.5793 53.4275C33.0268 53.5755 32.5169 53.8207 32.0494 54.163C31.5897 54.5099 31.2071 54.9479 30.9016 55.4772C30.596 56.0064 30.408 56.5568 30.3374 57.1283C30.2747 57.7043 30.3173 58.2685 30.4653 58.821C30.6133 59.3734 30.8585 59.8833 31.2009 60.3508C31.5477 60.8105 31.9858 61.1931 32.515 61.4987ZM32.8386 60.9383C32.3871 60.6777 32.0102 60.3511 31.7076 59.9585C31.4173 59.5626 31.2058 59.1291 31.073 58.6581C30.9525 58.1839 30.919 57.7027 30.9724 57.2147C31.0381 56.7234 31.2013 56.2521 31.4619 55.8007C31.7225 55.3493 32.0469 54.9762 32.435 54.6814C32.8354 54.3833 33.2689 54.1718 33.7354 54.0468C34.2141 53.9185 34.6953 53.885 35.1788 53.9462C35.6745 54.0042 36.1481 54.1634 36.5995 54.4241C37.051 54.6847 37.4257 55.0152 37.7238 55.4156C38.0263 55.8082 38.2379 56.2416 38.3584 56.7159C38.4911 57.1869 38.5247 57.668 38.4589 58.1593C38.4055 58.6473 38.2485 59.117 37.9878 59.5684C37.7272 60.0198 37.3967 60.3946 36.9963 60.6926C36.6082 60.9874 36.1748 61.1989 35.696 61.3272C35.2295 61.4522 34.7484 61.4858 34.2526 61.4278C33.7613 61.3621 33.29 61.1989 32.8386 60.9383ZM33.3036 60.1328C33.7628 60.3979 34.2382 60.5271 34.7298 60.5203C35.2292 60.5181 35.6957 60.3931 36.1293 60.1454C36.5707 59.9021 36.9217 59.5547 37.1823 59.1033C37.4474 58.6442 37.5727 58.1665 37.5582 57.6704C37.556 57.171 37.431 56.7045 37.1832 56.2709C36.9432 55.8418 36.5937 55.4947 36.1345 55.2296C35.6831 54.969 35.2077 54.8398 34.7083 54.842C34.2089 54.8442 33.7424 54.9692 33.3088 55.217C32.8797 55.457 32.5326 55.8066 32.2675 56.2657C32.0068 56.7172 31.8776 57.1926 31.8799 57.6919C31.8821 58.1913 32.0071 58.6578 32.2549 59.0914C32.5026 59.525 32.8522 59.8722 33.3036 60.1328Z" fill="#00FFB7"/>
<defs>
<linearGradient id="paint0_linear" x1="61.0284" y1="-7.29862" x2="2.36792" y2="80.7517" gradientUnits="userSpaceOnUse">
<stop stop-color="#00FFA3"/>
<stop offset="1" stop-color="#DC1FFF"/>
</linearGradient>
<linearGradient id="paint1_linear" x1="48" y1="13" x2="48" y2="87" gradientUnits="userSpaceOnUse">
<stop stop-color="#DADADA"/>
<stop offset="1" stop-color="#DADADA"/>
</linearGradient>
<linearGradient id="paint2_linear" x1="54.9646" y1="24.1077" x2="73.7683" y2="56.6766" gradientUnits="userSpaceOnUse">
<stop stop-color="#202020"/>
<stop offset="1" stop-color="#636363"/>
</linearGradient>
<linearGradient id="paint3_linear" x1="46.9108" y1="28.7576" x2="65.7145" y2="61.3265" gradientUnits="userSpaceOnUse">
<stop/>
<stop offset="1" stop-color="#232323"/>
</linearGradient>
<linearGradient id="paint4_linear" x1="44.0882" y1="41.422" x2="25.2845" y2="73.991" gradientUnits="userSpaceOnUse">
<stop stop-color="#202020"/>
<stop offset="1" stop-color="#636363"/>
</linearGradient>
<linearGradient id="paint5_linear" x1="36.1242" y1="36.622" x2="17.3205" y2="69.1909" gradientUnits="userSpaceOnUse">
<stop/>
<stop offset="1" stop-color="#232323"/>
</linearGradient>
</defs>
</svg>
