<svg width="100" height="100" viewBox="0 0 100 100" fill="none" xmlns="http://www.w3.org/2000/svg">
<path d="M34.829 68C32.8936 68 30.7295 67.9299 28.3367 67.7898C25.9791 67.6496 23.8854 67.4744 22.0556 67.2642V63.1122C26.6301 63.5677 30.448 63.7955 33.5094 63.7955C35.4096 63.7955 36.9051 63.7254 37.9959 63.5852C39.1219 63.41 40.072 63.1122 40.8462 62.6918C41.5499 62.2713 42.0074 61.6581 42.2185 60.8523C42.4296 60.0114 42.5352 58.9077 42.5352 57.5412C42.5352 55.8944 42.4472 54.7382 42.2713 54.0724C42.0954 53.3717 41.6731 52.8636 41.0045 52.5483C40.3711 52.233 39.2627 52.0052 37.6792 51.8651L28.7062 50.8665C26.5246 50.6212 24.8707 50.1132 23.7447 49.3423C22.6538 48.5365 21.9149 47.5028 21.5278 46.2415C21.1759 44.9451 21 43.2633 21 41.196C21 38.3229 21.4926 36.1506 22.4779 34.679C23.4984 33.2074 24.9059 32.2263 26.7005 31.7358C28.5303 31.2453 30.9759 31 34.0372 31C36.0782 31 38.1543 31.0876 40.2656 31.2628C42.3769 31.438 44.0483 31.6482 45.2799 31.8935V35.8878C43.9427 35.6776 42.2889 35.5199 40.3183 35.4148C38.3478 35.2746 36.518 35.2045 34.829 35.2045C32.8584 35.2045 31.275 35.2921 30.0786 35.4673C28.8822 35.6425 27.9497 35.9403 27.2811 36.3608C26.5421 36.7813 26.0671 37.3419 25.856 38.0426C25.6448 38.7434 25.5393 39.742 25.5393 41.0384C25.5393 42.4749 25.6448 43.526 25.856 44.1918C26.0671 44.8224 26.4718 45.2955 27.07 45.6108C27.6682 45.8911 28.6534 46.1013 30.0258 46.2415L38.8932 47.2401C41.0045 47.4503 42.6408 47.8182 43.802 48.3438C44.9632 48.8693 45.8077 49.8153 46.3355 51.1818C46.8282 52.4432 47.0745 54.4579 47.0745 57.2259C47.0745 60.4143 46.5819 62.7969 45.5966 64.3736C44.6113 65.9152 43.2918 66.9138 41.6379 67.3693C39.9841 67.7898 37.7144 68 34.829 68Z" fill="black"/>
<path d="M78 67.3168C76.9092 67.527 75.5368 67.6847 73.883 67.7898C72.2643 67.9299 70.7512 68 69.3437 68C64.9804 68 61.7958 67.527 59.7901 66.581C57.7844 65.6349 56.4296 63.9181 55.7258 61.4304C55.0573 58.9077 54.723 54.9309 54.723 49.5C54.723 44.1042 55.0573 40.1449 55.7258 37.6222C56.4296 35.0994 57.7844 33.3651 59.7901 32.419C61.7958 31.473 64.9804 31 69.3437 31C70.7864 31 72.2995 31.0701 73.883 31.2102C75.4665 31.3504 76.7684 31.5431 77.7889 31.7883V35.7301C75.1498 35.3797 72.7218 35.2045 70.5049 35.2045C66.8101 35.2045 64.2238 35.4848 62.7459 36.0455C61.3032 36.6061 60.3531 37.8149 59.8957 39.6719C59.4382 41.5289 59.2095 44.8049 59.2095 49.5C59.2095 54.1951 59.4382 57.4711 59.8957 59.3281C60.3531 61.1851 61.3032 62.3939 62.7459 62.9545C64.2238 63.5152 66.8101 63.7955 70.5049 63.7955C73.2144 63.7955 75.7128 63.6203 78 63.2699V67.3168Z" fill="black"/>
</svg>
