<?xml version="1.0" standalone="no"?>
<!DOCTYPE svg PUBLIC "-//W3C//DTD SVG 20010904//EN"
 "http://www.w3.org/TR/2001/REC-SVG-20010904/DTD/svg10.dtd">
<svg version="1.0" xmlns="http://www.w3.org/2000/svg"
 width="111.000000pt" height="111.000000pt" viewBox="0 0 111.000000 111.000000"
 preserveAspectRatio="xMidYMid meet">

<g transform="translate(0.000000,111.000000) scale(0.100000,-0.100000)"
fill="#000000" stroke="none">
<path d="M340 1057 c-119 -49 -222 -146 -278 -260 -43 -90 -55 -151 -50 -266
6 -139 35 -186 88 -143 23 18 23 20 10 98 -10 62 -10 94 -2 144 26 146 127
283 252 342 36 16 72 33 80 38 8 4 15 20 15 36 0 25 -4 29 -30 32 -16 1 -55
-8 -85 -21z"/>
<path d="M704 1046 c-12 -31 3 -52 56 -80 113 -61 206 -187 231 -314 39 -202
-58 -402 -244 -503 -54 -28 -58 -33 -55 -62 4 -44 27 -45 105 -7 145 72 252
211 289 377 32 146 -10 320 -107 440 -88 108 -256 199 -275 149z"/>
<path d="M443 876 c-119 -38 -212 -152 -228 -281 -13 -101 40 -247 108 -299
50 -38 177 -69 259 -64 165 12 292 139 306 304 5 71 -11 151 -42 208 l-21 39
-5 -33 c-3 -19 -14 -38 -25 -44 -11 -6 -22 -12 -24 -13 -2 -1 6 -23 18 -48 53
-113 -1 -251 -124 -310 -55 -26 -153 -32 -193 -11 -17 9 -53 16 -81 16 -27 0
-61 4 -75 10 -33 12 -44 54 -23 89 12 21 13 35 4 78 -19 90 1 146 80 229 l66
69 172 0 c95 0 171 3 169 7 -2 4 -40 20 -84 37 -89 35 -181 40 -257 17z"/>
<path d="M166 237 c-42 -30 24 -99 154 -161 81 -39 134 -46 144 -20 12 32 -5
51 -70 79 -37 16 -92 48 -124 72 -62 46 -76 50 -104 30z"/>
</g>
</svg>
