<?xml version="1.0" encoding="utf-8"?>
<!-- Generator: Adobe Illustrator 25.3.1, SVG Export Plug-In . SVG Version: 6.00 Build 0)  -->
<svg version="1.1" id="layer1" xmlns="http://www.w3.org/2000/svg" xmlns:xlink="http://www.w3.org/1999/xlink" x="0px" y="0px"
	 viewBox="0 0 100 100" style="enable-background:new 0 0 100 100;" xml:space="preserve">
<style type="text/css">
	.st0{fill:none;}
	.st1{clip-path:url(#SVGID_2_);}
	.st2{fill:url(#SVGID_3_);}
	.st3{fill:url(#SVGID_4_);}
	.st4{fill:url(#SVGID_5_);}
	.st5{fill:url(#SVGID_6_);}
	.st6{fill:url(#SVGID_7_);}
	.st7{fill:url(#SVGID_8_);}
	.st8{fill:url(#SVGID_9_);}
	.st9{fill:url(#SVGID_10_);}
	.st10{fill:url(#SVGID_11_);}
	.st11{fill:url(#SVGID_12_);}
	.st12{fill:url(#SVGID_13_);}
	.st13{fill:url(#SVGID_14_);}
	.st14{fill:url(#SVGID_15_);}
	.st15{fill:url(#SVGID_16_);}
	.st16{fill:url(#SVGID_17_);}
	.st17{fill:url(#SVGID_18_);}
	.st18{fill:url(#SVGID_19_);}
	.st19{fill:url(#SVGID_20_);}
	.st20{fill:url(#SVGID_21_);}
	.st21{fill:url(#SVGID_22_);}
	.st22{fill:url(#SVGID_23_);}
	.st23{fill:url(#SVGID_24_);}
	.st24{clip-path:url(#SVGID_26_);}
	.st25{fill:url(#SVGID_27_);}
	.st26{fill:url(#SVGID_28_);}
	.st27{fill:url(#SVGID_29_);}
	.st28{fill:url(#SVGID_30_);}
	.st29{fill:url(#SVGID_31_);}
	.st30{fill:url(#SVGID_32_);}
	.st31{fill:url(#SVGID_33_);}
	.st32{fill:url(#SVGID_34_);}
	.st33{fill:url(#SVGID_35_);}
	.st34{fill:url(#SVGID_36_);}
	.st35{fill:url(#SVGID_37_);}
	.st36{fill:url(#SVGID_38_);}
	.st37{fill:url(#SVGID_39_);}
	.st38{fill:url(#SVGID_40_);}
	.st39{fill:url(#SVGID_41_);}
	.st40{fill:url(#SVGID_42_);}
	.st41{fill:url(#SVGID_43_);}
	.st42{fill:url(#SVGID_44_);}
	.st43{fill:url(#SVGID_45_);}
	.st44{fill:url(#SVGID_46_);}
	.st45{fill:url(#SVGID_47_);}
	.st46{fill:url(#SVGID_48_);}
</style>
<g>
	<g>
		<g>
			<path class="st0" d="M38.56,19.97c-7.95-1.6-14.43-0.02-19.46,2.67c-4,5.94-6.34,13.09-6.34,20.8C12.76,64,29.43,80.68,50,80.68
				S87.24,64,87.24,43.43c0-6.2-1.52-12.05-4.2-17.2C64.99,36.44,58.2,23.92,38.56,19.97z"/>
		</g>
		<g>
			<defs>
				<path id="SVGID_1_" d="M83.04,26.23c-18.05,10.21-24.84-2.31-44.48-6.27c-7.95-1.6-14.43-0.02-19.46,2.67
					c-4,5.94-6.34,13.09-6.34,20.8c0,13.48,7.17,25.3,17.9,31.83c4.22-3.96,10.95-8.67,19.19-8.78c7.77-0.1,17.82,7.81,28.04,1.65
					c5.83-6.57,9.36-15.22,9.36-24.69C87.24,37.23,85.73,31.38,83.04,26.23z M50,56.53c-7.23,0-13.09-5.86-13.09-13.09
					S42.77,30.34,50,30.34s13.09,5.86,13.09,13.09S57.23,56.53,50,56.53z"/>
			</defs>
			<clipPath id="SVGID_2_">
				<use xlink:href="#SVGID_1_"  style="overflow:visible;"/>
			</clipPath>
			<g class="st1">
				<g>
					<linearGradient id="SVGID_3_" gradientUnits="userSpaceOnUse" x1="14.5044" y1="32.4904" x2="14.5044" y2="80.919">
						<stop  offset="0" style="stop-color:#00FFA1"/>
						<stop  offset="0.9996" style="stop-color:#0083FF"/>
					</linearGradient>
					<rect x="14.14" y="-7.85" class="st2" width="0.74" height="90.92"/>
				</g>
				<g>
					<linearGradient id="SVGID_4_" gradientUnits="userSpaceOnUse" x1="18.0014" y1="32.4904" x2="18.0014" y2="80.919">
						<stop  offset="0" style="stop-color:#00FFA1"/>
						<stop  offset="0.9996" style="stop-color:#0083FF"/>
					</linearGradient>
					<rect x="17.63" y="-7.85" class="st3" width="0.74" height="90.92"/>
				</g>
				<g>
					<linearGradient id="SVGID_5_" gradientUnits="userSpaceOnUse" x1="21.4984" y1="32.4904" x2="21.4984" y2="80.919">
						<stop  offset="0" style="stop-color:#00FFA1"/>
						<stop  offset="0.9996" style="stop-color:#0083FF"/>
					</linearGradient>
					<rect x="21.13" y="-7.85" class="st4" width="0.74" height="90.92"/>
				</g>
				<g>
					<linearGradient id="SVGID_6_" gradientUnits="userSpaceOnUse" x1="24.9954" y1="32.4904" x2="24.9954" y2="80.919">
						<stop  offset="0" style="stop-color:#00FFA1"/>
						<stop  offset="0.9996" style="stop-color:#0083FF"/>
					</linearGradient>
					<rect x="24.63" y="-7.85" class="st5" width="0.74" height="90.92"/>
				</g>
				<g>
					<linearGradient id="SVGID_7_" gradientUnits="userSpaceOnUse" x1="28.4924" y1="32.4904" x2="28.4924" y2="80.919">
						<stop  offset="0" style="stop-color:#00FFA1"/>
						<stop  offset="0.9996" style="stop-color:#0083FF"/>
					</linearGradient>
					<rect x="28.12" y="-7.85" class="st6" width="0.74" height="90.92"/>
				</g>
				<g>
					<linearGradient id="SVGID_8_" gradientUnits="userSpaceOnUse" x1="31.9894" y1="32.4904" x2="31.9894" y2="80.919">
						<stop  offset="0" style="stop-color:#00FFA1"/>
						<stop  offset="0.9996" style="stop-color:#0083FF"/>
					</linearGradient>
					<rect x="31.62" y="-7.85" class="st7" width="0.74" height="90.92"/>
				</g>
				<g>
					<linearGradient id="SVGID_9_" gradientUnits="userSpaceOnUse" x1="35.4864" y1="32.4904" x2="35.4864" y2="80.919">
						<stop  offset="0" style="stop-color:#00FFA1"/>
						<stop  offset="0.9996" style="stop-color:#0083FF"/>
					</linearGradient>
					<rect x="35.12" y="-7.85" class="st8" width="0.74" height="90.92"/>
				</g>
				<g>
					<linearGradient id="SVGID_10_" gradientUnits="userSpaceOnUse" x1="38.9835" y1="32.4904" x2="38.9835" y2="80.919">
						<stop  offset="0" style="stop-color:#00FFA1"/>
						<stop  offset="0.9996" style="stop-color:#0083FF"/>
					</linearGradient>
					<rect x="38.62" y="-7.85" class="st9" width="0.74" height="90.92"/>
				</g>
				<g>
					<linearGradient id="SVGID_11_" gradientUnits="userSpaceOnUse" x1="42.4805" y1="32.4904" x2="42.4805" y2="80.919">
						<stop  offset="0" style="stop-color:#00FFA1"/>
						<stop  offset="0.9996" style="stop-color:#0083FF"/>
					</linearGradient>
					<rect x="42.11" y="-7.85" class="st10" width="0.74" height="90.92"/>
				</g>
				<g>
					<linearGradient id="SVGID_12_" gradientUnits="userSpaceOnUse" x1="45.9775" y1="32.4904" x2="45.9775" y2="80.919">
						<stop  offset="0" style="stop-color:#00FFA1"/>
						<stop  offset="0.9996" style="stop-color:#0083FF"/>
					</linearGradient>
					<rect x="45.61" y="-7.85" class="st11" width="0.74" height="90.92"/>
				</g>
				<g>
					<linearGradient id="SVGID_13_" gradientUnits="userSpaceOnUse" x1="49.4745" y1="32.4904" x2="49.4745" y2="80.919">
						<stop  offset="0" style="stop-color:#00FFA1"/>
						<stop  offset="0.9996" style="stop-color:#0083FF"/>
					</linearGradient>
					<rect x="49.11" y="-7.85" class="st12" width="0.74" height="90.92"/>
				</g>
				<g>
					<linearGradient id="SVGID_14_" gradientUnits="userSpaceOnUse" x1="52.9714" y1="32.4904" x2="52.9714" y2="80.919">
						<stop  offset="0" style="stop-color:#00FFA1"/>
						<stop  offset="0.9996" style="stop-color:#0083FF"/>
					</linearGradient>
					<rect x="52.6" y="-7.85" class="st13" width="0.74" height="90.92"/>
				</g>
				<g>
					<linearGradient id="SVGID_15_" gradientUnits="userSpaceOnUse" x1="56.4685" y1="32.4904" x2="56.4685" y2="80.919">
						<stop  offset="0" style="stop-color:#00FFA1"/>
						<stop  offset="0.9996" style="stop-color:#0083FF"/>
					</linearGradient>
					<rect x="56.1" y="-7.85" class="st14" width="0.74" height="90.92"/>
				</g>
				<g>
					<linearGradient id="SVGID_16_" gradientUnits="userSpaceOnUse" x1="59.9655" y1="32.4904" x2="59.9655" y2="80.919">
						<stop  offset="0" style="stop-color:#00FFA1"/>
						<stop  offset="0.9996" style="stop-color:#0083FF"/>
					</linearGradient>
					<rect x="59.6" y="-7.85" class="st15" width="0.74" height="90.92"/>
				</g>
				<g>
					<linearGradient id="SVGID_17_" gradientUnits="userSpaceOnUse" x1="63.4625" y1="32.4904" x2="63.4625" y2="80.919">
						<stop  offset="0" style="stop-color:#00FFA1"/>
						<stop  offset="0.9996" style="stop-color:#0083FF"/>
					</linearGradient>
					<rect x="63.09" y="-7.85" class="st16" width="0.74" height="90.92"/>
				</g>
				<g>
					<linearGradient id="SVGID_18_" gradientUnits="userSpaceOnUse" x1="66.9595" y1="32.4904" x2="66.9595" y2="80.919">
						<stop  offset="0" style="stop-color:#00FFA1"/>
						<stop  offset="0.9996" style="stop-color:#0083FF"/>
					</linearGradient>
					<rect x="66.59" y="-7.85" class="st17" width="0.74" height="90.92"/>
				</g>
				<g>
					<linearGradient id="SVGID_19_" gradientUnits="userSpaceOnUse" x1="70.4565" y1="32.4904" x2="70.4565" y2="80.919">
						<stop  offset="0" style="stop-color:#00FFA1"/>
						<stop  offset="0.9996" style="stop-color:#0083FF"/>
					</linearGradient>
					<rect x="70.09" y="-7.85" class="st18" width="0.74" height="90.92"/>
				</g>
				<g>
					<linearGradient id="SVGID_20_" gradientUnits="userSpaceOnUse" x1="73.9535" y1="32.4904" x2="73.9535" y2="80.919">
						<stop  offset="0" style="stop-color:#00FFA1"/>
						<stop  offset="0.9996" style="stop-color:#0083FF"/>
					</linearGradient>
					<rect x="73.59" y="-7.85" class="st19" width="0.74" height="90.92"/>
				</g>
				<g>
					<linearGradient id="SVGID_21_" gradientUnits="userSpaceOnUse" x1="77.4506" y1="32.4904" x2="77.4506" y2="80.919">
						<stop  offset="0" style="stop-color:#00FFA1"/>
						<stop  offset="0.9996" style="stop-color:#0083FF"/>
					</linearGradient>
					<rect x="77.08" y="-7.85" class="st20" width="0.74" height="90.92"/>
				</g>
				<g>
					<linearGradient id="SVGID_22_" gradientUnits="userSpaceOnUse" x1="80.9475" y1="32.4904" x2="80.9475" y2="80.919">
						<stop  offset="0" style="stop-color:#00FFA1"/>
						<stop  offset="0.9996" style="stop-color:#0083FF"/>
					</linearGradient>
					<rect x="80.58" y="-7.85" class="st21" width="0.74" height="90.92"/>
				</g>
				<g>
					<linearGradient id="SVGID_23_" gradientUnits="userSpaceOnUse" x1="84.4446" y1="32.4904" x2="84.4446" y2="80.919">
						<stop  offset="0" style="stop-color:#00FFA1"/>
						<stop  offset="0.9996" style="stop-color:#0083FF"/>
					</linearGradient>
					<rect x="84.08" y="-7.85" class="st22" width="0.74" height="90.92"/>
				</g>
				<g>
					<linearGradient id="SVGID_24_" gradientUnits="userSpaceOnUse" x1="87.9415" y1="32.4904" x2="87.9415" y2="80.919">
						<stop  offset="0" style="stop-color:#00FFA1"/>
						<stop  offset="0.9996" style="stop-color:#0083FF"/>
					</linearGradient>
					<rect x="87.57" y="-7.85" class="st23" width="0.74" height="90.92"/>
				</g>
			</g>
		</g>
		<g>
			<defs>
				<path id="SVGID_25_" d="M78.99,20.05c-4.54,4.83-12.62,9.11-23.52,11.48c4.5,2.07,7.63,6.62,7.63,11.9
					c0,7.23-5.86,13.09-13.09,13.09s-13.09-5.86-13.09-13.09c0-4.05,1.84-7.67,4.73-10.07c-0.73,0.04-1.48,0.07-2.23,0.1
					c-10.98,0.36-20.03,4.52-26.64,8.94c-0.01,0.34-0.01,0.69-0.01,1.03C12.76,64,29.43,80.68,50,80.68S87.24,64,87.24,43.43
					C87.24,34.57,84.15,26.44,78.99,20.05z"/>
			</defs>
			<clipPath id="SVGID_26_">
				<use xlink:href="#SVGID_25_"  style="overflow:visible;"/>
			</clipPath>
			<g class="st24">
				<g>
					<linearGradient id="SVGID_27_" gradientUnits="userSpaceOnUse" x1="13.2109" y1="76.0857" x2="13.2109" y2="30.9167">
						<stop  offset="0" style="stop-color:#FF00FF"/>
						<stop  offset="1" style="stop-color:#00FFA1"/>
					</linearGradient>
					<rect x="12.27" y="0.55" class="st25" width="1.89" height="85.23"/>
				</g>
				<g>
					<linearGradient id="SVGID_28_" gradientUnits="userSpaceOnUse" x1="16.7079" y1="76.0857" x2="16.7079" y2="30.9167">
						<stop  offset="0" style="stop-color:#FF00FF"/>
						<stop  offset="1" style="stop-color:#00FFA1"/>
					</linearGradient>
					<rect x="15.76" y="0.55" class="st26" width="1.89" height="85.23"/>
				</g>
				<g>
					<linearGradient id="SVGID_29_" gradientUnits="userSpaceOnUse" x1="20.2049" y1="76.0857" x2="20.2049" y2="30.9167">
						<stop  offset="0" style="stop-color:#FF00FF"/>
						<stop  offset="1" style="stop-color:#00FFA1"/>
					</linearGradient>
					<rect x="19.26" y="0.55" class="st27" width="1.89" height="85.23"/>
				</g>
				<g>
					<linearGradient id="SVGID_30_" gradientUnits="userSpaceOnUse" x1="23.7019" y1="76.0857" x2="23.7019" y2="30.9167">
						<stop  offset="0" style="stop-color:#FF00FF"/>
						<stop  offset="1" style="stop-color:#00FFA1"/>
					</linearGradient>
					<rect x="22.76" y="0.55" class="st28" width="1.89" height="85.23"/>
				</g>
				<g>
					<linearGradient id="SVGID_31_" gradientUnits="userSpaceOnUse" x1="27.1989" y1="76.0857" x2="27.1989" y2="30.9167">
						<stop  offset="0" style="stop-color:#FF00FF"/>
						<stop  offset="1" style="stop-color:#00FFA1"/>
					</linearGradient>
					<rect x="26.25" y="0.55" class="st29" width="1.89" height="85.23"/>
				</g>
				<g>
					<linearGradient id="SVGID_32_" gradientUnits="userSpaceOnUse" x1="30.6959" y1="76.0857" x2="30.6959" y2="30.9167">
						<stop  offset="0" style="stop-color:#FF00FF"/>
						<stop  offset="1" style="stop-color:#00FFA1"/>
					</linearGradient>
					<rect x="29.75" y="0.55" class="st30" width="1.89" height="85.23"/>
				</g>
				<g>
					<linearGradient id="SVGID_33_" gradientUnits="userSpaceOnUse" x1="34.193" y1="76.0857" x2="34.193" y2="30.9167">
						<stop  offset="0" style="stop-color:#FF00FF"/>
						<stop  offset="1" style="stop-color:#00FFA1"/>
					</linearGradient>
					<rect x="33.25" y="0.55" class="st31" width="1.89" height="85.23"/>
				</g>
				<g>
					<linearGradient id="SVGID_34_" gradientUnits="userSpaceOnUse" x1="37.69" y1="76.0857" x2="37.69" y2="30.9167">
						<stop  offset="0" style="stop-color:#FF00FF"/>
						<stop  offset="1" style="stop-color:#00FFA1"/>
					</linearGradient>
					<rect x="36.74" y="0.55" class="st32" width="1.89" height="85.23"/>
				</g>
				<g>
					<linearGradient id="SVGID_35_" gradientUnits="userSpaceOnUse" x1="41.187" y1="76.0857" x2="41.187" y2="30.9167">
						<stop  offset="0" style="stop-color:#FF00FF"/>
						<stop  offset="1" style="stop-color:#00FFA1"/>
					</linearGradient>
					<rect x="40.24" y="0.55" class="st33" width="1.89" height="85.23"/>
				</g>
				<g>
					<linearGradient id="SVGID_36_" gradientUnits="userSpaceOnUse" x1="44.684" y1="76.0857" x2="44.684" y2="30.9167">
						<stop  offset="0" style="stop-color:#FF00FF"/>
						<stop  offset="1" style="stop-color:#00FFA1"/>
					</linearGradient>
					<rect x="43.74" y="0.55" class="st34" width="1.89" height="85.23"/>
				</g>
				<g>
					<linearGradient id="SVGID_37_" gradientUnits="userSpaceOnUse" x1="48.181" y1="76.0857" x2="48.181" y2="30.9167">
						<stop  offset="0" style="stop-color:#FF00FF"/>
						<stop  offset="1" style="stop-color:#00FFA1"/>
					</linearGradient>
					<rect x="47.24" y="0.55" class="st35" width="1.89" height="85.23"/>
				</g>
				<g>
					<linearGradient id="SVGID_38_" gradientUnits="userSpaceOnUse" x1="51.678" y1="76.0857" x2="51.678" y2="30.9167">
						<stop  offset="0" style="stop-color:#FF00FF"/>
						<stop  offset="1" style="stop-color:#00FFA1"/>
					</linearGradient>
					<rect x="50.73" y="0.55" class="st36" width="1.89" height="85.23"/>
				</g>
				<g>
					<linearGradient id="SVGID_39_" gradientUnits="userSpaceOnUse" x1="55.175" y1="76.0857" x2="55.175" y2="30.9167">
						<stop  offset="0" style="stop-color:#FF00FF"/>
						<stop  offset="1" style="stop-color:#00FFA1"/>
					</linearGradient>
					<rect x="54.23" y="0.55" class="st37" width="1.89" height="85.23"/>
				</g>
				<g>
					<linearGradient id="SVGID_40_" gradientUnits="userSpaceOnUse" x1="58.672" y1="76.0857" x2="58.672" y2="30.9167">
						<stop  offset="0" style="stop-color:#FF00FF"/>
						<stop  offset="1" style="stop-color:#00FFA1"/>
					</linearGradient>
					<rect x="57.73" y="0.55" class="st38" width="1.89" height="85.23"/>
				</g>
				<g>
					<linearGradient id="SVGID_41_" gradientUnits="userSpaceOnUse" x1="62.169" y1="76.0857" x2="62.169" y2="30.9167">
						<stop  offset="0" style="stop-color:#FF00FF"/>
						<stop  offset="1" style="stop-color:#00FFA1"/>
					</linearGradient>
					<rect x="61.22" y="0.55" class="st39" width="1.89" height="85.23"/>
				</g>
				<g>
					<linearGradient id="SVGID_42_" gradientUnits="userSpaceOnUse" x1="65.666" y1="76.0857" x2="65.666" y2="30.9167">
						<stop  offset="0" style="stop-color:#FF00FF"/>
						<stop  offset="1" style="stop-color:#00FFA1"/>
					</linearGradient>
					<rect x="64.72" y="0.55" class="st40" width="1.89" height="85.23"/>
				</g>
				<g>
					<linearGradient id="SVGID_43_" gradientUnits="userSpaceOnUse" x1="69.163" y1="76.0857" x2="69.163" y2="30.9167">
						<stop  offset="0" style="stop-color:#FF00FF"/>
						<stop  offset="1" style="stop-color:#00FFA1"/>
					</linearGradient>
					<rect x="68.22" y="0.55" class="st41" width="1.89" height="85.23"/>
				</g>
				<g>
					<linearGradient id="SVGID_44_" gradientUnits="userSpaceOnUse" x1="72.6601" y1="76.0857" x2="72.6601" y2="30.9167">
						<stop  offset="0" style="stop-color:#FF00FF"/>
						<stop  offset="1" style="stop-color:#00FFA1"/>
					</linearGradient>
					<rect x="71.71" y="0.55" class="st42" width="1.89" height="85.23"/>
				</g>
				<g>
					<linearGradient id="SVGID_45_" gradientUnits="userSpaceOnUse" x1="76.157" y1="76.0857" x2="76.157" y2="30.9167">
						<stop  offset="0" style="stop-color:#FF00FF"/>
						<stop  offset="1" style="stop-color:#00FFA1"/>
					</linearGradient>
					<rect x="75.21" y="0.55" class="st43" width="1.89" height="85.23"/>
				</g>
				<g>
					<linearGradient id="SVGID_46_" gradientUnits="userSpaceOnUse" x1="79.6541" y1="76.0857" x2="79.6541" y2="30.9167">
						<stop  offset="0" style="stop-color:#FF00FF"/>
						<stop  offset="1" style="stop-color:#00FFA1"/>
					</linearGradient>
					<rect x="78.71" y="0.55" class="st44" width="1.89" height="85.23"/>
				</g>
				<g>
					<linearGradient id="SVGID_47_" gradientUnits="userSpaceOnUse" x1="83.151" y1="76.0857" x2="83.151" y2="30.9167">
						<stop  offset="0" style="stop-color:#FF00FF"/>
						<stop  offset="1" style="stop-color:#00FFA1"/>
					</linearGradient>
					<rect x="82.21" y="0.55" class="st45" width="1.89" height="85.23"/>
				</g>
				<g>
					<linearGradient id="SVGID_48_" gradientUnits="userSpaceOnUse" x1="86.6481" y1="76.0857" x2="86.6481" y2="30.9167">
						<stop  offset="0" style="stop-color:#FF00FF"/>
						<stop  offset="1" style="stop-color:#00FFA1"/>
					</linearGradient>
					<rect x="85.7" y="0.55" class="st46" width="1.89" height="85.23"/>
				</g>
			</g>
		</g>
	</g>
</g>
</svg>
