<svg viewBox="0 0 60 83" height="100pt" width="100pt" version="1.1" xmlns:xlink="http://www.w3.org/1999/xlink" xmlns="http://www.w3.org/2000/svg">
<g>
<clipPath id="cp0">
<path fill-rule="evenodd" d="M 57.996 29.62133 C 59.03333 29.62133 59.88667 28.82667 59.99067 27.80933 L 59.99867 27.64667 L 59.98267 27.21467 C 58.728 12.14 45.78533 .288 30.004 .288 C 14.38267 .288 1.542667 11.90133 .06666667 26.75867 L .005333333 27.444 L .001333333 27.64533 L .008 27.796 C .1053333 28.82 .9626667 29.62133 2.004 29.62133 L 57.996 29.62133 Z" transform="matrix(1,0,0,-1,0,83)"></path>
</clipPath>
<g clip-path="url(#cp0)">
<clipPath id="cp1">
<path d="M -158 -378 L 217 -378 L 217 289 L -158 289 Z" transform="matrix(1,0,0,-1,0,83)"></path>
</clipPath>
<g clip-path="url(#cp1)">
<path fill="#afd8f7" d="M -4.998667 34.62133 L 64.99867 34.62133 L 64.99867 -4.712 L -4.998667 -4.712 Z" transform="matrix(1,0,0,-1,0,83)"></path>
</g>
</g>
<clipPath id="cp2">
<path fill-rule="evenodd" d="M 1.124 83 C 15.31067 83 26.69067 71.99067 26.69067 58.39067 L 26.69067 34.34667 C 26.68933 33.24267 25.79467 32.34667 24.69067 32.34533 L 2.001333 32.33333 C .896 32.33067 0 33.22667 0 34.33067 L .001333333 81.87733 C .001333333 82.45067 .4293333 82.92267 .9826667 82.99067 L 1.124 83 Z" transform="matrix(1,0,0,-1,0,83)"></path>
</clipPath>
<g clip-path="url(#cp2)">
<clipPath id="cp3">
<path d="M -158 -378 L 217 -378 L 217 289 L -158 289 Z" transform="matrix(1,0,0,-1,0,83)"></path>
</clipPath>
<g clip-path="url(#cp3)">
<path fill="#182a71" d="M -5 88 L 31.69067 88 L 31.69067 27.33332 L -5 27.33332 Z" transform="matrix(1,0,0,-1,0,83)"></path>
</g>
</g>
<clipPath id="cp4">
<path fill-rule="evenodd" d="M 58.776 40.46933 L 58.92133 39.984 L 58.81333 40.304 C 59.41867 38.588 59.812 37.36399 59.99467 35.22799 C 60.12 33.75999 59.032 32.46933 57.56533 32.34399 L 57.452 32.33599 L 45.912 32.33333 C 38.02267 32.33333 31.60267 37.912 31.39733 45.73867 L 31.392 46.12533 L 31.392 59.24133 C 31.392 60.004 32.02667 60.64 32.79333 60.604 C 45.15467 60.01867 55.25867 51.74267 58.776 40.46933 Z" transform="matrix(1,0,0,-1,0,83)"></path>
</clipPath>
<g clip-path="url(#cp4)">
<clipPath id="cp5">
<path d="M -158 -378 L 217 -378 L 217 289 L -158 289 Z" transform="matrix(1,0,0,-1,0,83)"></path>
</clipPath>
<g clip-path="url(#cp5)">
<path fill="#3485c4" d="M 26.392 65.60546 L 65.00449 65.60546 L 65.00449 27.33333 L 26.392 27.33333 Z" transform="matrix(1,0,0,-1,0,83)"></path>
</g>
</g>
</g>
</svg>