<?xml version="1.0" encoding="UTF-8"?>
<svg width="512px" height="512px" viewBox="0 0 512 512" version="1.1" xmlns="http://www.w3.org/2000/svg" xmlns:xlink="http://www.w3.org/1999/xlink">
    <title>Group-6-Copy-3 Copy 2</title>
    <defs>
        <radialGradient cx="50%" cy="50%" fx="50%" fy="50%" r="50.0000078%" id="radialGradient-1">
            <stop stop-color="#712D87" offset="0%"></stop>
            <stop stop-color="#490D64" offset="100%"></stop>
        </radialGradient>
        <linearGradient x1="111.791679%" y1="90.8990307%" x2="44.7419908%" y2="6.08536386%" id="linearGradient-2">
            <stop stop-color="#9CF9FF" offset="0%"></stop>
            <stop stop-color="#02CCFC" offset="48.3128688%"></stop>
            <stop stop-color="#004194" offset="100%"></stop>
        </linearGradient>
        <linearGradient x1="100%" y1="44.0491766%" x2="0%" y2="55.9508234%" id="linearGradient-3">
            <stop stop-color="#9CF9FF" offset="0%"></stop>
            <stop stop-color="#02CCFC" offset="48.3128688%"></stop>
            <stop stop-color="#446C9F" offset="100%"></stop>
        </linearGradient>
        <linearGradient x1="-34.3893323%" y1="57.773198%" x2="158.809663%" y2="43.6981866%" id="linearGradient-4">
            <stop stop-color="#9CF9FF" offset="0%"></stop>
            <stop stop-color="#02CCFC" offset="48.3128688%"></stop>
            <stop stop-color="#004194" offset="100%"></stop>
        </linearGradient>
        <linearGradient x1="100%" y1="24.8757978%" x2="0%" y2="75.1242022%" id="linearGradient-5">
            <stop stop-color="#EBFFFA" offset="0%"></stop>
            <stop stop-color="#02CCFC" offset="56.861541%"></stop>
            <stop stop-color="#446C9F" offset="100%"></stop>
        </linearGradient>
        <linearGradient x1="100%" y1="17.6085361%" x2="0%" y2="82.3914639%" id="linearGradient-6">
            <stop stop-color="#EBFFFA" offset="0%"></stop>
            <stop stop-color="#02CCFC" offset="56.861541%"></stop>
            <stop stop-color="#446C9F" offset="100%"></stop>
        </linearGradient>
    </defs>
    <g id="Page-1" stroke="none" stroke-width="1" fill="none" fill-rule="evenodd">
        <g id="Group-6-Copy-3-Copy-2" fill-rule="nonzero">
            <ellipse id="Oval" fill="url(#radialGradient-1)" cx="255.99988" cy="256" rx="255.99988" ry="256"></ellipse>
            <path d="M439.705495,324.228298 C451.68626,308.761541 476.533694,269.646391 498.229258,265.865089 C504.527236,264.767429 508.945413,265.083989 511.814148,266.521686 C511.923915,263.448025 512,260.366337 512,257.266775 C512.053024,218.585169 503.279506,180.398981 486.343959,145.602591 C451.554331,157.037222 398.82767,155.146041 378.603699,180.851317 C363.985375,199.43157 366.453783,222.969849 351.131331,242.495996 C332.799122,265.855396 306.014652,274.901892 281.1701,289.032736 C267.795779,296.64002 211.349148,321.258087 212.171996,338.058183 C213.649327,368.204538 273.878799,350.33662 288.233235,342.354462 C318.703367,325.412293 394.805278,207.839797 429.457847,218.465913 C495.762233,238.798909 376.54506,326.594168 357.261702,337.886574 C306.58474,367.566419 250.803052,394.306952 191.842027,386.141371 C140.730549,379.062999 91.2216664,382.830366 62.5343221,425.767561 C86.1959271,452.734808 115.256259,474.459117 147.843935,489.541521 C155.621487,486.217739 163.16438,482.372042 170.420797,478.030854 C230.385636,441.175854 303.722519,435.903389 363.969738,396.354141 C393.748146,376.805124 418.392603,351.74251 439.705495,324.228298 Z" id="Path" fill="#9F4493" opacity="0.5"></path>
            <path d="M316.335433,381.891247 C336.055314,381.891247 352.98587,379.945205 367.127101,376.053122 C381.268331,372.161038 392.879709,366.582385 401.961233,359.317162 C411.042757,352.051939 417.659297,343.100147 421.81085,332.461785 C425.962404,321.823423 428.038181,309.8877 428.038181,296.654615 C428.038181,272.783169 419.735073,254.944453 403.128857,243.138465 C386.522642,231.332478 362.261998,225.429485 330.346927,225.429485 L188.675149,225.429485 C179.334153,225.429485 172.393273,224.067256 167.852511,221.342797 C163.311749,218.618338 161.041368,213.88297 161.041368,207.136692 C161.041368,200.390413 163.311749,195.719913 167.852511,193.125191 C172.393273,190.530468 179.334153,189.233107 188.675149,189.233107 L369.267746,189.233107 L421.032434,121.510851 L194.90248,121.510851 C175.182598,121.510851 158.252043,123.456893 144.110812,127.348977 C129.969581,131.241061 118.423072,136.689977 109.471284,143.695728 C100.519495,150.701479 93.9029562,159.199195 89.6216664,169.188876 C85.3403762,179.178558 83.1997311,190.270996 83.1997311,202.466191 C83.1997311,213.623498 85.1457719,223.807783 89.037854,233.019048 C92.9299356,242.230313 98.8977948,250.079348 106.94143,256.566154 C114.985066,263.05296 125.104479,268.112669 137.299669,271.74528 C149.494858,275.377891 164.025297,277.194197 180.890985,277.194197 L322.562764,277.194197 C332.163232,277.194197 339.16898,278.621295 343.580006,281.475489 C347.991032,284.329684 350.196545,289.129921 350.196545,295.876199 C350.196545,302.622477 347.991032,307.487582 343.580006,310.471512 C339.16898,313.455443 332.163232,314.947408 322.562764,314.947408 L125.623423,314.947408 L73.8587348,381.891247 L316.335433,381.891247 Z" id="Path" fill="url(#linearGradient-2)"></path>
            <path d="M421.032434,121.510851 L369.267746,189.233107 L188.675149,189.233107 C179.334153,189.233107 172.393273,190.530468 167.852511,193.125191 C166.789396,193.732685 165.850733,194.453964 165.036522,195.289028 L165.095995,195.285297 C133.422675,198.161404 108.905516,212.474302 91.5445195,238.223992 C90.6278444,236.545371 89.7937056,234.807898 89.037854,233.019048 C85.1457719,223.807783 83.1997311,213.623498 83.1997311,202.466191 C83.1997311,190.270996 85.3403762,179.178558 89.6216664,169.188876 C93.9029562,159.199195 100.519495,150.701479 109.471284,143.695728 C118.423072,136.689977 129.969581,131.241061 144.110812,127.348977 C158.252043,123.456893 175.182598,121.510851 194.90248,121.510851 L194.90248,121.510851 L421.032434,121.510851 Z" id="Combined-Shape" fill="url(#linearGradient-3)"></path>
            <path d="M334.536622,277.739089 C371.129927,277.739089 402.252002,285.936566 427.902849,302.33152 C427.39164,313.326342 425.359623,323.36805 421.81085,332.461785 C417.659297,343.100147 411.042757,352.051939 401.961233,359.317162 C392.879709,366.582385 381.268331,372.161038 367.127101,376.053122 C352.98587,379.945205 336.055314,381.891247 316.335433,381.891247 L316.335433,381.891247 L73.8587348,381.891247 L125.623423,314.947408 L322.562764,314.947408 C332.163232,314.947408 339.16898,313.455443 343.580006,310.471512 C347.991032,307.487582 350.196545,302.622477 350.196545,295.876199 C350.196545,289.129921 347.991032,284.329684 343.580006,281.475489 C340.951696,279.774818 337.402164,278.580818 332.931408,277.893491 L334.536622,277.739089 Z" id="Combined-Shape" fill="url(#linearGradient-4)"></path>
            <path d="M200.891509,506.335661 C270.728434,521.15309 343.653051,506.603059 402.210566,466.168166 C460.768082,425.733273 499.688012,363.052876 509.654722,293.129771 C379.114327,336.122137 492.457785,429.923664 200.891509,506.335661 Z" id="Path" fill="url(#linearGradient-5)" opacity="0.400000006"></path>
            <path d="M11.2341128,244.666474 C29.8465886,216.999184 93.801483,54.7175571 254.045683,62.5343511 C291.890959,64.3804628 299.404009,26.8099834 320.4884,8.25781841 C243.796159,-11.7295528 162.198188,5.01633032 99.4981885,53.6103707 C36.7981886,102.204411 0.0596823185,177.172205 9.87476767e-10,256.644203 C9.87476767e-10,257.081881 0.0148444305,257.516521 0.0169650632,257.954198 C4.18323634,253.906287 7.9405365,249.455426 11.2341128,244.666474 Z" id="Path" fill="url(#linearGradient-6)" opacity="0.100000001"></path>
            <path d="M509.895033,288.38866 C526.298467,160.54521 445.278611,40.4019122 320.688541,7.8167939 C319.124313,17.3688269 320.590048,28.7700221 326.112652,41.9900455 C346.671724,91.2027556 389.622135,130.868134 411.248118,179.46112 C456.602389,281.365852 444.807874,400.822459 321.801972,433.204941 C271.955185,446.327137 208.487068,440.841673 169.865947,407.490636 C78.1679023,328.305343 229.377901,132.429306 202.048234,80.9873171 C179.786175,39.0839694 128.607791,37.4281114 97.8211569,54.31476 C12.0270195,121.806567 -21.5924395,236.315225 14.0808189,339.536296 C49.7540773,442.757369 146.876988,511.999998 255.997425,511.999998 C384.77045,511.984419 493.491598,416.232111 509.895033,288.38866 Z" id="Path" fill="#608EFF" opacity="0.3"></path>
        </g>
    </g>
</svg>