<svg width="100" height="99" viewBox="0 0 100 99" fill="none" xmlns="http://www.w3.org/2000/svg">
<path fill-rule="evenodd" clip-rule="evenodd" d="M49.9295 40.1041L55.5974 34.4137L49.8346 28.694L44.0687 34.4357L60.7547 50.9633L73.8206 63.9051L53.044 84.6424H46.4469L26.0001 63.9051L40.8254 49.3212L49.8346 58.073L44.0687 63.7028L49.9103 69.3515L55.5974 63.7028L26.0001 34.7816L46.4469 14H53.044L73.8206 34.7816L59.0827 49.1704L49.9295 40.1041Z" fill="url(#paint0_linear)"/>
<path fill-rule="evenodd" clip-rule="evenodd" d="M46.4468 14L67.2131 34.6379H73.8204L53.0439 14H46.4468Z" fill="url(#paint1_linear)"/>
<path fill-rule="evenodd" clip-rule="evenodd" d="M73.8205 34.6379H67.452L55.7893 45.8899L59.0826 49.1704L73.8205 34.6379Z" fill="url(#paint2_linear)"/>
<path fill-rule="evenodd" clip-rule="evenodd" d="M49.8345 28.694L45.7844 24.7617L35.4961 34.6379H44.3862L49.8345 28.694Z" fill="url(#paint3_linear)"/>
<path fill-rule="evenodd" clip-rule="evenodd" d="M54.5767 73.7702L64.7575 63.7028H73.8204L53.0439 84.6424L32.8875 63.9051H44.2205L54.5767 73.7702Z" fill="url(#paint4_linear)"/>
<path fill-rule="evenodd" clip-rule="evenodd" d="M32.8875 63.9051L44.3417 52.9399L49.8345 58.073L44.2205 63.9051H32.8875Z" fill="url(#paint5_linear)"/>
<path fill-rule="evenodd" clip-rule="evenodd" d="M35.4961 34.6379L64.7575 63.7028H73.8204L44.4492 34.6847L35.4961 34.6379Z" fill="url(#paint6_linear)"/>
<path fill-rule="evenodd" clip-rule="evenodd" d="M59.0826 49.1704L66.0797 42.8118L55.3083 34.6379L50 40.1727L59.0826 49.1704Z" fill="url(#paint7_linear)"/>
<path fill-rule="evenodd" clip-rule="evenodd" d="M40.8593 49.3136L30.1864 60.0595L44.2204 63.9051L49.8345 58.073L40.8593 49.3136Z" fill="url(#paint8_linear)"/>
<defs>
<linearGradient id="paint0_linear" x1="43.5697" y1="76.0497" x2="67.7203" y2="36.473" gradientUnits="userSpaceOnUse">
<stop stop-color="#C20FF6"/>
<stop offset="0.485747" stop-color="#749CCE"/>
<stop offset="1" stop-color="#47C1C1"/>
</linearGradient>
<linearGradient id="paint1_linear" x1="51.6164" y1="15.9548" x2="70.5807" y2="37.8216" gradientUnits="userSpaceOnUse">
<stop stop-color="#4AF3FF"/>
<stop offset="1" stop-color="#087792"/>
</linearGradient>
<linearGradient id="paint2_linear" x1="76.1885" y1="37.1236" x2="62.0368" y2="49.5892" gradientUnits="userSpaceOnUse">
<stop stop-color="#004957"/>
<stop offset="1" stop-color="#7A97D0"/>
</linearGradient>
<linearGradient id="paint3_linear" x1="48.525" y1="27.3268" x2="44.9581" y2="33.4159" gradientUnits="userSpaceOnUse">
<stop stop-color="#4ADAE8"/>
<stop offset="1" stop-color="#5E92C9"/>
</linearGradient>
<linearGradient id="paint4_linear" x1="37.7578" y1="70.9181" x2="54.7849" y2="83.8753" gradientUnits="userSpaceOnUse">
<stop stop-color="#D29BFF"/>
<stop offset="1" stop-color="#B661E2"/>
</linearGradient>
<linearGradient id="paint5_linear" x1="41.361" y1="52.9399" x2="41.361" y2="63.9051" gradientUnits="userSpaceOnUse">
<stop stop-color="#7599CE"/>
<stop offset="1" stop-color="#69039C"/>
</linearGradient>
<linearGradient id="paint6_linear" x1="43.0911" y1="40.7045" x2="70.262" y2="64.6703" gradientUnits="userSpaceOnUse">
<stop stop-color="#1EB8F1"/>
<stop offset="1" stop-color="#9F76DB"/>
</linearGradient>
<linearGradient id="paint7_linear" x1="58.5008" y1="40.5493" x2="50.9401" y2="49.881" gradientUnits="userSpaceOnUse">
<stop stop-color="#313131" stop-opacity="0"/>
<stop offset="1"/>
</linearGradient>
<linearGradient id="paint8_linear" x1="39.4472" y1="57.5279" x2="47.4724" y2="49.3888" gradientUnits="userSpaceOnUse">
<stop stop-color="#313131" stop-opacity="0"/>
<stop offset="1"/>
</linearGradient>
</defs>
</svg>
