<svg width="100" height="100" viewBox="0 0 100 100" fill="none" xmlns="http://www.w3.org/2000/svg">
<path d="M24.9839 74.72C19.8959 74.72 15.5759 74.024 12.0239 72.632C8.5199 71.24 5.8799 69.392 4.1039 67.088C2.3279 64.736 1.3919 62.168 1.2959 59.384C1.2959 58.952 1.4399 58.592 1.7279 58.304C2.0639 57.968 2.4479 57.8 2.8799 57.8H16.5599C17.2319 57.8 17.7599 57.896 18.1439 58.088C18.5759 58.232 19.0799 58.544 19.6559 59.024C21.0479 60.128 22.8239 60.68 24.9839 60.68C26.6159 60.68 27.9119 60.512 28.8719 60.176C29.8799 59.792 30.3839 59.288 30.3839 58.664C30.3839 57.8 29.7359 57.152 28.4399 56.72C27.1439 56.24 24.6959 55.76 21.0959 55.28C8.7119 53.648 2.5199 48.368 2.5199 39.44C2.5199 36.224 3.4319 33.368 5.2559 30.872C7.1279 28.328 9.7199 26.36 13.0319 24.968C16.3439 23.576 20.1599 22.88 24.4799 22.88C28.9919 22.88 32.9519 23.648 36.3599 25.184C39.7679 26.72 42.3839 28.664 44.2079 31.016C46.0319 33.32 46.9919 35.576 47.0879 37.784C47.0879 38.216 46.9199 38.6 46.5839 38.936C46.2959 39.224 45.9599 39.368 45.5759 39.368H31.1759C30.5039 39.368 29.9759 39.296 29.5919 39.152C29.2079 38.96 28.7759 38.648 28.2959 38.216C27.2879 37.352 26.0159 36.92 24.4799 36.92C22.1759 36.92 21.0239 37.592 21.0239 38.936C21.0239 39.656 21.5759 40.256 22.6799 40.736C23.8319 41.216 25.9439 41.648 29.0159 42.032C33.8159 42.656 37.6559 43.592 40.5359 44.84C43.4639 46.088 45.5759 47.768 46.8719 49.88C48.2159 51.944 48.8879 54.56 48.8879 57.728C48.8879 61.136 47.8559 64.136 45.7919 66.728C43.7279 69.272 40.8719 71.24 37.2239 72.632C33.6239 74.024 29.5439 74.72 24.9839 74.72Z" fill="#25DAB3"/>
<path d="M56.107 74C55.579 74 55.123 73.808 54.739 73.424C54.355 73.04 54.163 72.584 54.163 72.056V25.544C54.163 25.016 54.355 24.56 54.739 24.176C55.123 23.792 55.579 23.6 56.107 23.6H77.923C84.643 23.6 89.923 25.088 93.763 28.064C97.651 31.04 99.595 35.432 99.595 41.24C99.595 47 97.675 51.296 93.835 54.128C89.995 56.912 84.691 58.304 77.923 58.304H72.883V72.056C72.883 72.584 72.691 73.04 72.307 73.424C71.923 73.808 71.467 74 70.939 74H56.107ZM77.563 44.984C78.427 44.984 79.195 44.672 79.867 44.048C80.539 43.376 80.875 42.392 80.875 41.096C80.875 39.992 80.611 39.032 80.083 38.216C79.555 37.4 78.715 36.992 77.563 36.992H72.523V44.984H77.563Z" fill="#25DAB3"/>
</svg>
