<svg xmlns="http://www.w3.org/2000/svg" xmlns:xlink="http://www.w3.org/1999/xlink" viewBox="0 0 569.25 569.25"><defs><style>.cls-1{fill:url(#radial-gradient);}.cls-2,.cls-3{fill:#03e1ff;}.cls-2{fill-rule:evenodd;}.cls-3{font-size:80.75px;font-family:GrandRoyal, Grand Royal;}.cls-4{letter-spacing:0.02em;}.cls-5{letter-spacing:0.04em;}</style><radialGradient id="radial-gradient" cx="284.62" cy="284.62" r="284.62" gradientUnits="userSpaceOnUse"><stop offset="0.53" stop-color="#03e1ff"/><stop offset="0.68" stop-color="#05dfff"/><stop offset="0.76" stop-color="#0dd8ff"/><stop offset="0.82" stop-color="#1bcbff"/><stop offset="0.88" stop-color="#2fb9ff"/><stop offset="0.93" stop-color="#48a2ff"/><stop offset="0.98" stop-color="#6786ff"/><stop offset="1" stop-color="#7877ff"/></radialGradient></defs><g id="Layer_2" data-name="Layer 2"><g id="Layer_1-2" data-name="Layer 1"><path class="cls-1" d="M468.58,360.72a200.29,200.29,0,0,0,15-76.1h53.93a256.39,256.39,0,0,1-19.18,96.48Zm-87.48,157L360.72,468c24-10.19,46.14-24.57,64.12-43.14l38.35,37.75A238.86,238.86,0,0,1,381.1,517.71Zm-193,0L208.52,468a200.32,200.32,0,0,0,76.1,15v53.93A247.37,247.37,0,0,1,188.15,517.71ZM51.53,381.1l49.74-20.38a197.49,197.49,0,0,0,43.14,64.72l-38.35,37.75A246.19,246.19,0,0,1,51.53,381.1Zm0-193,49.74,20.37a200.32,200.32,0,0,0-15,76.1H32.36C32.36,250.47,39,217.51,51.53,188.15ZM188.15,51.53l20.37,49.74a203.91,203.91,0,0,0-64.71,43.14l-38.35-37.75A253.31,253.31,0,0,1,188.15,51.53Zm193,0-20.38,49.74a200.29,200.29,0,0,0-76.1-15V32.36C318.78,32.36,351.73,39,381.1,51.53ZM284.62,451.2C192.94,451.2,118,376.3,118,284.62S192.94,118,284.62,118,451.2,192.94,451.2,284.62,376.9,451.2,284.62,451.2Zm233.09-263L468,208.52a197.76,197.76,0,0,0-43.14-64.71l38.35-37.75A245.91,245.91,0,0,1,517.71,188.15ZM284.62,0C127.63,0,0,127.63,0,284.62S127.63,569.25,284.62,569.25,569.25,441.62,569.25,284.62,441.62,0,284.62,0Z"/><path class="cls-2" d="M174.53,214A14.51,14.51,0,0,0,160,228.49v.61a14.51,14.51,0,0,0,14.51,14.51,14.29,14.29,0,0,0,4.69-.78L200.12,287l6.15,14.65.71-.16.5,1.06a342.51,342.51,0,0,1,73-8.77H281l2.15,0,1.26,0h6.66l1.27,0,2.14,0h.57a342.44,342.44,0,0,1,73,8.77l.51-1.06.7.16L375.38,287l20.91-44.18a14.29,14.29,0,0,0,4.69.78,14.51,14.51,0,0,0,14.51-14.51v-.61a14.51,14.51,0,0,0-29,0v.61a14.46,14.46,0,0,0,1.3,6l-23.23,13.6-12,5.95-2-35.56a14.5,14.5,0,0,0,14.14-14.5V204a14.51,14.51,0,0,0-29,0v.3c0,.1,0,.21,0,.31a14.48,14.48,0,0,0,4.59,10.58L314,237.5l-21.67-48.89a14.52,14.52,0,0,0-4.07-28.45h-.91a14.52,14.52,0,0,0-4.06,28.45L261.56,237.5l-26.31-22.31a14.48,14.48,0,0,0,4.59-10.58c0-.1,0-.21,0-.31s0-.2,0-.3a14.52,14.52,0,0,0-29,0c0,.11,0,.23,0,.34a2.44,2.44,0,0,0,0,.27A14.5,14.5,0,0,0,225,219.11l-2,35.56-12-5.95-23.23-13.6a14.47,14.47,0,0,0,1.31-6c0-.1,0-.2,0-.29v-.32A14.51,14.51,0,0,0,174.53,214ZM354.42,331.59H220.79l-8.47-18.14s23.28-7.56,73.16-7.56H290c49.88,0,73.16,7.56,73.16,7.56l-8.46,18.14Z"/><text class="cls-3" transform="translate(209.07 396.65)"><tspan class="cls-4">B</tspan><tspan class="cls-5" x="57.21" y="0">E</tspan><tspan x="105.71" y="0">T</tspan></text></g></g></svg>