<svg width="100" height="100" viewBox="0 0 100 100" fill="none" xmlns="http://www.w3.org/2000/svg">
<path d="M72.7705 35.0065C84.8665 47.1025 84.8665 66.7156 72.7705 78.8135C60.6726 90.9094 41.0595 90.9094 28.9616 78.8135C16.8657 66.7156 16.8657 47.1025 28.9616 35.0045L50.868 13.1021L72.7725 35.0065H72.7705Z" fill="#2146C7"/>
<mask id="mask0" mask-type="alpha" maskUnits="userSpaceOnUse" x="21" y="34" width="53" height="46">
<path d="M28.4847 57.2217C28.4847 69.6105 38.5287 79.6545 50.9175 79.6545C63.3063 79.6545 73.3503 69.6105 73.3503 57.2217C73.3503 44.8349 63.3063 34.7909 50.9175 34.7909C38.5287 34.7909 28.4847 44.8329 28.4847 57.2217V57.2217Z" fill="#C4C4C4"/>
<path d="M40.094 42.4645H21.401V57.2218H40.094V42.4665V42.4645Z" fill="#C4C4C4"/>
</mask>
<g mask="url(#mask0)">
<path d="M50.425 56.7072C44.0832 66.2823 30.7485 67.9246 30.7485 67.9246C30.7485 67.9246 45.1141 90.7729 66.1677 75.9167C72.2107 71.6525 77.2347 53.8856 70.509 45.5769C57.679 29.7234 50.1242 42.9452 50.1242 42.9452C50.1242 42.9452 58.7989 44.0652 50.425 56.7072V56.7072Z" fill="white"/>
<path opacity="0.8" d="M52.5362 61.8777C44.9121 70.4654 30.6812 67.8278 30.6812 67.8278C30.6812 67.8278 38.4318 91.7703 62.5287 82.6385C69.4424 80.0167 69.664 76.362 71.5794 68.9299C74.0389 58.2052 73.3503 57.2218 73.3503 57.2218C73.3503 57.2218 64.1315 48.8122 52.5342 61.8777H52.5362Z" fill="url(#paint0_linear)"/>
<path opacity="0.8" d="M56.1791 43.1114C55.5266 43.1114 54.9978 42.5825 54.9978 41.9301C54.9978 41.2777 55.5266 40.7488 56.1791 40.7488C56.8315 40.7488 57.3604 41.2777 57.3604 41.9301C57.3604 42.5825 56.8315 43.1114 56.1791 43.1114Z" fill="url(#paint1_linear)"/>
</g>
<defs>
<linearGradient id="paint0_linear" x1="80.8279" y1="56.5688" x2="32.6797" y2="78.6059" gradientUnits="userSpaceOnUse">
<stop stop-color="#06BAED"/>
<stop offset="1" stop-color="#056FFF"/>
</linearGradient>
<linearGradient id="paint1_linear" x1="53.4722" y1="41.8311" x2="56.2206" y2="43.7109" gradientUnits="userSpaceOnUse">
<stop stop-color="#06BAED"/>
<stop offset="1" stop-color="#056FFF"/>
</linearGradient>
</defs>
</svg>
