<svg width="100" height="100" viewBox="0 0 100 100" fill="none" xmlns="http://www.w3.org/2000/svg">
<path d="M69.4429 33.115V22.8638L86.8312 40.1073L81.0965 56.6445L69.4429 33.115ZM69.4429 77.2847V63.8383L65.9137 54.6787L74.096 51.5791L80.7902 65.0955L69.4429 77.2847ZM65.4229 84.5491L49.9994 92.3909L34.5771 84.5491V69.3619L38.384 73.7858L41.9427 82.917H58.0579L61.6155 73.7858L65.4231 69.3619L65.4229 84.5491ZM30.5553 63.839V77.2855L19.2083 65.0965L25.9031 51.5801L34.0873 54.6797L30.5553 63.839ZM13.1691 40.1081L30.5553 22.8646V33.1159L18.9021 56.6455L13.1691 40.1081ZM57.9189 72.1933L55.314 78.8755H44.6872L42.0815 72.1933L49.8703 67.4942H50.1304L57.9189 72.1933ZM33.5117 36.2195L41.8253 39.3695L41.79 48.349L45.6727 49.7805L45.6753 36.5074L34.5767 32.302V16.2589L42.1099 12.0227V31.4279L45.6923 32.8232V10.0084L49.9989 7.58643L54.3077 10.0084V32.8232L57.8882 31.4279V12.0227L65.4226 16.2589V32.302L54.3262 36.5074V49.7805L58.2084 48.349L58.1753 39.3695L66.4884 36.2195L72.2945 47.9434L60.6959 52.3368L65.0471 63.6193L60.4256 68.9901L52.1537 64.0007V59.9111L58.2385 57.5967L56.8169 53.8162L50.0664 56.3833H49.9331L43.1849 53.8162L41.7607 57.5967L47.8469 59.9111V64.0007L39.5748 68.9901L34.9541 63.6193L39.3046 52.3368L27.7049 47.9434L33.5117 36.2195ZM91.4651 39.0251L69.4436 17.1846V13.8896L51.0692 3.53894H48.9311L30.5556 13.8896V17.1846L8.53516 39.0251L16.3973 61.7053L14.3195 65.8995L30.5556 82.988V86.9196L48.9804 96.4625H51.019L69.4428 86.9196V82.988L85.68 65.8995L83.6021 61.7053L91.4649 39.0251" fill="#F0B90B"/>
</svg>
