<?xml version="1.0" encoding="utf-8"?>
<!-- Generator: Adobe Illustrator 25.2.3, SVG Export Plug-In . SVG Version: 6.00 Build 0)  -->
<svg version="1.1" id="Layer_1" xmlns="http://www.w3.org/2000/svg" xmlns:xlink="http://www.w3.org/1999/xlink" x="0px" y="0px"
	 viewBox="0 0 100 100" style="enable-background:new 0 0 100 100;" xml:space="preserve">
<style type="text/css">
	.st0{fill:#CBCBCB;}
	.st1{fill:#D9D9D9;}
	.st2{fill:#B3B3B3;}
	.st3{fill:#9F9F9F;}
	.st4{fill:#A9ABAA;}
	.st5{fill:#DCDCDC;}
	.st6{fill:#A5A9A8;}
	.st7{fill:#D6D1D1;}
	.st8{fill:#E8E6E7;}
	.st9{fill:#DEC5C1;}
	.st10{fill:url(#SVGID_1_);}
	.st11{fill:#B45E58;}
	.st12{fill:url(#SVGID_2_);}
	.st13{fill:#FFFFFF;}
</style>
<g>
	<g>
		<g>
			<g>
				<path class="st0" d="M91.49,71.67c-0.48-0.09-0.98-0.15-1.49-0.19c-0.49-0.05-0.98-0.04-1.46,0c-0.97,0.09-1.91,0.37-2.73,0.85
					c-0.41,0.24-0.79,0.53-1.14,0.85c-0.34,0.33-0.65,0.71-0.94,1.11c-0.56,0.81-1.01,1.73-1.48,2.66
					c-0.46,0.94-0.99,1.91-1.64,2.77c-0.31,0.44-0.66,0.86-1.04,1.25c-0.37,0.4-0.79,0.76-1.24,1.08c-0.45,0.32-0.95,0.59-1.49,0.76
					c-0.53,0.17-1.11,0.24-1.65,0.16l0-0.32c1.01-0.12,1.87-0.63,2.6-1.28c0.34-0.3,0.65-0.63,0.95-0.98
					c-0.26-1.64-0.2-3.27-0.1-4.86c0.11-1.62,0.27-3.19,0.33-4.78c0.07-1.58,0.08-3.17,0.04-4.76c-0.02-0.8-0.06-1.58-0.1-2.38
					c-0.04-0.8-0.08-1.59-0.14-2.38c-0.03-0.51-0.08-1.01-0.12-1.51c-0.09-1.07-0.22-2.14-0.39-3.2c-0.16-1.03-0.38-2.06-0.62-3.08
					c-0.13-0.51-0.26-1.02-0.39-1.53c-0.11-0.4-0.22-0.8-0.34-1.19c-0.8-2.62-1.84-5.17-3.16-7.56c-1.53-2.73-3.47-5.26-5.92-7.16
					c-0.61-0.47-1.25-0.92-1.92-1.3c-0.66-0.4-1.36-0.74-2.07-1.04c-0.33-0.14-0.67-0.26-1.01-0.38c-1.12-0.39-2.28-0.66-3.47-0.8
					c-1.82-0.22-3.67-0.17-5.48,0.16c-1.25,0.22-2.48,0.58-3.65,1.06c-0.54,0.22-1.06,0.47-1.57,0.76c-2.2,1.22-4.1,3.01-5.36,5.26
					l-0.36-0.18c0.65-1.49,1.61-2.86,2.8-4c0.55-0.53,1.15-1.02,1.79-1.45c-0.66-0.11-1.37-0.15-2.06-0.17
					c-1.08-0.02-2.17,0.08-3.23,0.29c-0.22,0.04-0.44,0.09-0.66,0.15c-0.84,0.21-1.67,0.49-2.47,0.82
					c-1.01,0.42-1.98,0.96-2.83,1.66l-0.11-0.12c0.81-0.78,1.76-1.4,2.77-1.91c0.75-0.37,1.52-0.71,2.32-0.98
					c-1.07-1.53-1.57-3.47-1.4-5.5c0.07-0.86,0.29-1.57,0.65-2.13c0.1-0.21,0.23-0.41,0.38-0.58c0.4-0.49,0.93-0.86,1.5-1.12
					c0.28-0.14,0.57-0.24,0.87-0.33c0.29-0.1,0.6-0.16,0.9-0.22c0.6-0.1,1.2-0.19,1.81-0.21c1.21-0.06,2.42,0.03,3.6,0.21
					c0.27,0.04,0.54,0.09,0.81,0.15c1.35,0.04,2.7,0.45,3.84,1.18c0.08,0.05,0.15,0.1,0.24,0.11c0.17,0.03,0.32-0.09,0.46-0.19
					c0.62-0.43,1.35-0.6,2.12-0.65c0.75-0.15,1.51-0.26,2.27-0.35c1.17-0.13,2.36-0.19,3.55-0.15c0.59,0.01,1.19,0.08,1.78,0.16
					c0.6,0.07,1.22,0.26,1.77,0.57c0.27,0.16,0.53,0.35,0.75,0.57c0.22,0.23,0.41,0.48,0.56,0.76c0.19,0.35,0.31,0.73,0.36,1.11
					c0.01,0.03,0.02,0.06,0.02,0.09c0.26,1.22,0.18,2.43-0.23,3.52c-0.18,0.46-0.41,0.9-0.7,1.29c0.85,0.16,1.68,0.41,2.46,0.78
					c0.53,0.25,1.04,0.54,1.52,0.86c0.48,0.32,0.94,0.66,1.39,1.02c0.89,0.73,1.71,1.55,2.34,2.51l-0.13,0.09
					c-0.68-0.9-1.54-1.64-2.46-2.28c-0.93-0.63-1.89-1.23-2.92-1.61c-1.03-0.4-2.11-0.59-3.21-0.64c-0.34-0.01-0.69,0.01-1.06,0.06
					c0.48,0.23,0.96,0.47,1.41,0.74c0.72,0.41,1.4,0.88,2.06,1.38c2.63,2.01,4.67,4.66,6.28,7.49c1.06,1.87,1.92,3.84,2.63,5.86
					c0.04-0.27,0.07-0.54,0.1-0.81c0.26-2.47,0.11-4.98-0.42-7.41L77,39.53l-0.17-0.64c-0.11-0.41-0.26-0.81-0.41-1.22
					c-0.32-0.81-0.71-1.61-1.12-2.41c-0.41-0.79-0.84-1.57-1.29-2.35c-0.44-0.78-0.91-1.54-1.37-2.33c-0.23-0.39-0.46-0.8-0.68-1.21
					c-0.22-0.41-0.43-0.83-0.61-1.26c-0.38-0.88-0.65-1.75-0.93-2.63c-0.53-1.75-0.99-3.47-1.62-5.14c-0.61-1.67-1.33-3.3-2.18-4.85
					c-0.43-0.78-0.9-1.55-1.42-2.28c-0.5-0.71-1.03-1.38-1.62-2.01c-1.18-1.27-2.56-2.36-4.12-3.06c-0.78-0.35-1.59-0.61-2.43-0.76
					l-0.31-0.06l-0.3-0.03c-0.2-0.03-0.41-0.02-0.61-0.03c-0.41,0.01-0.83,0.04-1.26,0.11c-0.85,0.13-1.73,0.34-2.65,0.5
					c-0.46,0.08-0.94,0.13-1.43,0.16c-0.49,0.01-0.99,0-1.49-0.11c-0.13-0.02-0.24-0.04-0.35-0.07L48.3,7.78
					c-0.22-0.05-0.43-0.09-0.65-0.13c-0.43-0.09-0.87-0.16-1.31-0.23c-0.87-0.13-1.75-0.22-2.62-0.23
					c-0.87-0.01-1.74,0.04-2.57,0.21c-0.83,0.18-1.67,0.44-2.46,0.78c-1.59,0.69-3.02,1.71-4.22,2.97c-0.2,0.21-0.39,0.42-0.57,0.64
					c-0.95,1.11-1.73,2.36-2.39,3.67c-0.8,1.57-1.42,3.24-1.96,4.96l-0.39-0.08c0.31-3.21,1.55-6.38,3.61-8.96
					c-2.76-0.63-5.95-0.76-8-0.66c-3.91,0.19-8.75,2.04-12.33,4.72c-2.98,2.23-4.94,5.58-5.36,9.18c-0.42,3.58,1.03,6.52,2.58,9.63
					l0.18,0.35c1.2,2.42,2.28,4.92,3.33,7.34l0.25,0.58c0.48,1.09,0.85,2.23,1.22,3.33c0.49,1.49,1,3.03,1.75,4.42
					c0.69,1.27,1.9,2.99,3.76,3.92c0.77,0.39,1.57,0.61,2.36,0.68c1.7,0.15,3.33-0.41,4.49-1.6c-0.21-0.32-0.4-0.65-0.59-0.98
					c-0.44-0.81-0.81-1.66-1.11-2.54c-0.01-0.03-0.02-0.05-0.03-0.08c-0.04,0.15-0.1,0.29-0.18,0.43c-0.88,1.62-3.39,1.41-4.84,0.27
					c-1.68-1.32-2.54-3.4-3.34-5.38c-1.63-4.04-3.26-8.08-4.89-12.12c-1.27-1.93-1.89-4.25-1.84-6.57
					c-0.02-0.38,0.25-0.79,0.29-1.17c0.06-0.66,0.1-1.18,0.32-1.81c0-0.01,0.1-0.1,0.11-0.11c0.23-0.78,0.28-1.54,0.67-2.26
					c0.5-0.93,1.13-1.78,1.86-2.54c0.73-0.76,1.55-1.42,2.41-2c0.21-0.15,0.44-0.28,0.66-0.42l0.67-0.39
					c0.45-0.25,0.9-0.49,1.37-0.72c0.93-0.46,1.89-0.86,2.93-1.13c1.02-0.25,2.06-0.4,3.12-0.44c0.53-0.02,1.07,0,1.6,0.08
					c0.54,0.08,1.1,0.23,1.62,0.53c0.52,0.3,0.99,0.86,1.1,1.5c0.07,0.31,0.07,0.61,0.04,0.91c-0.04,0.31-0.13,0.61-0.24,0.87
					c-0.12,0.26-0.25,0.51-0.39,0.73l-0.39,0.65c-0.26,0.43-0.51,0.87-0.74,1.31c-0.46,0.88-0.85,1.78-1.08,2.73
					c-0.23,0.94-0.36,1.92-0.41,2.9c-0.06,0.98-0.02,1.98,0.14,2.97c0,0.01,0,0.01,0,0.02c0,0.01,0.01,0.03,0.01,0.04
					c0.22,0.82,0.5,1.63,0.77,2.44c0,0.01,0.01,0.01,0.01,0.02l0.07,0.15l0.04,0.09l0.02,0.04l0,0.01h0
					c0.02,0.01,0.04,0.01,0.03,0.01c-0.01,0-0.01,0.01-0.02,0c0,0.01,0,0.01,0,0.01l-0.04,0.02c0.43,1.33,0.8,2.67,0.74,4.02
					c0.26-0.42,0.54-0.82,0.83-1.22l0.3,0.19c-0.75,1.61-1.42,3.23-1.93,4.89c-0.24,0.83-0.48,1.67-0.63,2.52
					c-0.17,0.85-0.28,1.7-0.32,2.56c-0.04,0.94,0,1.88,0.14,2.8c3.02,4.71,8.18,7.98,13.73,8.71c-0.15-0.1-0.3-0.2-0.45-0.31
					c-0.14-0.1-0.26-0.21-0.38-0.31c-0.12-0.11-0.24-0.22-0.35-0.34c-0.46-0.46-0.9-0.98-1.1-1.61l0.15-0.06
					c0.29,0.54,0.77,0.94,1.27,1.28c0.25,0.17,0.53,0.34,0.78,0.5c0.25,0.15,0.52,0.29,0.8,0.39c0.83,0.33,1.74,0.47,2.62,0.43
					c-0.65-1.11-0.86-2.37-0.55-3.57c0.44-1.75,1.76-3.06,3.37-3.33c0.49-0.08,0.95-0.07,1.41,0.04c0.16,0.04,0.33,0.09,0.48,0.15
					c-0.02-0.48-0.13-0.97-0.34-1.42c-0.35-0.78-0.99-1.46-1.79-1.88l0.06-0.15c0.9,0.29,1.71,0.89,2.28,1.72
					c0.45,0.66,0.73,1.46,0.79,2.3c0.39,0.27,0.76,0.6,1.12,0.91l0.03,0.02c0.66,0.58,1.4,1.18,2.26,1.82
					c1.9,1.43,3.57,2.34,5.26,2.87c2.66,0.83,6.09,1.12,8.6,1.33c0.18,0.01,0.36,0.03,0.52,0.04c0.62,0.05,1.14,0.1,1.58,0.15
					c0.38-0.11,0.76-0.2,1.15-0.26c0.74-0.13,1.49-0.16,2.25-0.13c0.75,0.04,1.5,0.15,2.22,0.36c0.72,0.2,1.42,0.48,2.06,0.87
					c-0.72-0.18-1.44-0.33-2.15-0.45c-0.72-0.11-1.44-0.19-2.16-0.23c-0.72-0.04-1.45-0.03-2.17,0.01c-0.02,0-0.04,0-0.05,0
					c0.57,0.12,0.88,0.27,1.06,0.51c0.13,0.18,0.17,0.39,0.13,0.6c-0.18,0.81-1.31,1.69-3.03,2.41c-1.72,0.72-4.03,1.28-6.61,1.47
					c2.07,3.51,3.28,8.78,4.18,13.56l0.15,0.78c0.77,4.1,1.64,8.74,3.97,12.1c1.39,2.01,3.76,3.45,5.9,3.59
					c1.45,0.09,2.69-0.4,3.66-1.47c1.4-1.54,2.07-3.47,2.78-5.5c0.39-1.12,0.8-2.28,1.34-3.36c-0.18-0.48-0.22-1.06-0.1-1.76
					c0.24-1.43,0.92-2.87,2.03-4.29c1.19-1.53,2.53-2.59,3.98-3.17c1.11-0.44,2.14-0.68,3.08-0.73
					C91.61,71.69,91.55,71.68,91.49,71.67z M63.49,20c0.73,0.62,1.37,1.34,1.87,2.14c-0.76-0.57-1.49-1.13-2.25-1.62
					c-0.76-0.48-1.56-0.9-2.39-1.15c-0.83-0.25-1.69-0.31-2.53-0.1c-0.82,0.19-1.56,0.78-2.34,1.31c0.27-0.39,0.56-0.76,0.91-1.1
					c0.34-0.33,0.75-0.64,1.24-0.82c0.93-0.39,2.02-0.37,2.97-0.08C61.91,18.86,62.76,19.38,63.49,20z M42.73,19.94
					c0.39-0.4,0.83-0.74,1.3-1.04c0.48-0.3,0.99-0.54,1.53-0.71c1.09-0.36,2.32-0.33,3.38,0.09c1.06,0.4,1.95,1.14,2.57,2.02
					c-0.86-0.65-1.79-1.16-2.76-1.4c-0.98-0.25-1.99-0.21-2.93,0.09c-0.48,0.14-0.94,0.35-1.38,0.6c-0.45,0.24-0.86,0.54-1.27,0.85
					c-0.81,0.64-1.53,1.4-2.19,2.26C41.33,21.66,41.94,20.72,42.73,19.94z M54.56,37.77c-1.33,0.46-2.61,1.1-3.81,1.89
					c1.06-0.98,2.31-1.74,3.66-2.29c1.34-0.56,2.78-0.89,4.23-1.02c1.45-0.12,2.92-0.03,4.34,0.3c1.42,0.32,2.78,0.87,3.99,1.66
					c-1.31-0.58-2.68-1-4.07-1.23c-1.39-0.23-2.81-0.29-4.21-0.17C57.28,37.01,55.9,37.31,54.56,37.77z M54.83,46.1
					c0.65-0.69,1.42-1.28,2.25-1.77c0.41-0.24,0.83-0.45,1.26-0.63c1.32-0.57,2.74-0.89,4.16-1.03c1.43-0.13,2.86-0.09,4.27,0.09
					c1.41,0.18,2.8,0.48,4.15,0.92c-1.4-0.21-2.79-0.39-4.19-0.49c-1.4-0.09-2.8-0.1-4.18,0.04c-1.38,0.13-2.75,0.41-4.06,0.88
					c-0.36,0.13-0.72,0.28-1.08,0.44C56.51,44.95,55.64,45.48,54.83,46.1z M69.99,49.59c-1.28-0.14-2.57-0.13-3.84,0.06
					c-0.81,0.11-1.62,0.29-2.4,0.53c-0.44,0.14-0.88,0.29-1.31,0.46c-1.19,0.48-2.33,1.12-3.39,1.89c0.91-0.95,2.02-1.71,3.21-2.29
					c0.38-0.18,0.77-0.35,1.17-0.49c0.85-0.31,1.74-0.53,2.64-0.65c1.32-0.18,2.67-0.17,3.98,0.06c1.31,0.23,2.58,0.67,3.7,1.35
					C72.53,50.04,71.27,49.74,69.99,49.59z M68.68,64.79c0.04-0.01,0.09-0.03,0.14-0.04c0.86-0.25,1.76-0.37,2.65-0.41
					c0.94-0.03,1.88,0.01,2.81,0.17c0.75,0.12,1.49,0.3,2.18,0.61c0.17,0.07,0.33,0.15,0.49,0.24c-0.18-0.05-0.36-0.09-0.54-0.13
					c-0.73-0.15-1.46-0.24-2.19-0.29c-0.91-0.06-1.82-0.08-2.74-0.04c-0.82,0.03-1.64,0.11-2.44,0.26
					c-0.09,0.02-0.18,0.03-0.26,0.05c-0.89,0.19-1.76,0.45-2.56,0.94C66.88,65.47,67.78,65.06,68.68,64.79z M67.96,72.48
					c0.56-0.56,1.33-0.89,2.1-1.1c0.77-0.21,1.57-0.29,2.36-0.3c0.8,0,1.59,0.07,2.36,0.24c0.77,0.16,1.55,0.41,2.21,0.83
					c-0.76-0.21-1.52-0.32-2.28-0.4c-0.76-0.08-1.53-0.12-2.29-0.11c-0.76,0-1.53,0.05-2.28,0.17
					C69.4,71.93,68.65,72.12,67.96,72.48z M74.81,78.43c-0.6,0-1.19,0.02-1.78,0.08c-0.59,0.05-1.18,0.14-1.75,0.27
					c-0.57,0.14-1.13,0.31-1.67,0.63c0.38-0.49,0.96-0.82,1.54-1.04c0.59-0.23,1.21-0.35,1.82-0.41c0.62-0.05,1.25-0.05,1.86,0.04
					c0.61,0.08,1.23,0.24,1.77,0.55C76,78.45,75.41,78.44,74.81,78.43z"/>
				<path class="st1" d="M68.88,38.88c1.26,1.5,2.31,3.21,3.17,4.87c2.18,4.2,3.78,8.88,4.61,13.53c0.56,3.16,1.02,6.82-1.21,9.48
					c-1.07,1.28-3.16,1.28-4.56,0.38c-1.4-0.9-2.24-2.47-2.8-4.03c-1.09-3.03-1.42-6.29-2.47-9.34c-1.58-4.58-5.35-7.58-9.53-10.04
					c-2.02-1.19-6.71-2.03-6.95-4.73c-0.22-2.41,4.07-4.39,6.09-4.82c3.4-0.72,7.11-0.18,10.11,1.6
					C66.67,36.58,67.85,37.66,68.88,38.88z"/>
				<path class="st2" d="M72.93,16.99c0.48-0.38,1.46-0.08,1.99,0.02c0.74,0.14,1.48,0.33,2.19,0.57c2.25,0.77,4.48,2.09,6.14,3.84
					c0.14,0.22,0.27,0.44,0.38,0.67c0.17,0.35,0.33,0.71,0.44,1.08c0.12,0.37,0.2,0.75,0.27,1.14c0.13,0.78,0.19,1.58,0.16,2.37
					c-0.02,0.8-0.11,1.6-0.27,2.39c-0.16,0.79-0.39,1.56-0.69,2.32l0.16,0.08c-0.65,1.33-1.43,2.57-2.17,3.89
					c-0.38,0.68-0.68,1.4-0.99,2.11c-0.63,1.49-1.25,2.98-1.88,4.46c-0.08-0.68-0.19-1.35-0.33-2.02l-0.15-0.68l-0.17-0.67
					c-0.12-0.46-0.28-0.92-0.45-1.35c-0.34-0.87-0.73-1.7-1.15-2.52c-0.41-0.82-0.85-1.62-1.3-2.41c-0.44-0.8-0.92-1.58-1.37-2.35
					c-0.21-0.35-0.41-0.7-0.6-1.06c0.21-0.55,0.37-1.12,0.49-1.7c0.09-0.13,0.17-0.24,0.21-0.32c0.14-0.32,0.23-0.66,0.29-1.01
					c0.14-0.73,0.14-1.49,0.11-2.23c-0.03-0.72-0.04-1.47-0.15-2.19c-0.08-0.58-0.23-1.15-0.48-1.68
					C73.31,19.15,72.13,17.63,72.93,16.99z"/>
				<path class="st3" d="M71.94,15.72c0.24-0.19,0.59-0.26,0.95-0.28c0.37-0.01,0.75,0.03,1.13,0.11c0.77,0.16,1.53,0.42,2.28,0.72
					c0.75,0.31,1.48,0.66,2.19,1.04c0.71,0.38,1.42,0.78,2.06,1.25c1.07,0.79,2.02,1.75,2.71,2.87c-1.67-1.75-3.9-3.07-6.14-3.84
					c-0.71-0.24-1.45-0.43-2.19-0.57c-0.53-0.1-1.52-0.4-1.99-0.02c-0.8,0.63,0.38,2.16,0.68,2.76c0.26,0.53,0.4,1.1,0.48,1.68
					c0.1,0.73,0.11,1.47,0.15,2.19c0.03,0.74,0.03,1.5-0.11,2.23c-0.06,0.34-0.16,0.69-0.29,1.01c-0.03,0.08-0.12,0.2-0.21,0.32
					c0.17-0.84,0.24-1.7,0.22-2.56c-0.02-0.85-0.16-1.7-0.39-2.51c-0.23-0.81-0.54-1.59-0.87-2.35c-0.35-0.79-0.79-1.48-1.02-2.2
					c-0.11-0.36-0.16-0.72-0.1-1.04C71.53,16.19,71.69,15.89,71.94,15.72z"/>
				<path class="st0" d="M67.76,14.87c-0.38-0.69-0.79-1.37-1.24-2.03c1.72-0.15,3.67,0.02,5.3,0.16c0.31,0.03,0.61,0.05,0.9,0.08
					c3.46,0.27,7.56,1.93,10.45,4.23c2.35,1.87,3.97,3.78,4.25,7.01c0.25,2.84-1.33,5.75-2.73,8.31c-0.17,0.31-0.34,0.62-0.5,0.92
					c-0.31,0.59-0.62,1.09-0.92,1.57c-0.8,1.3-1.55,2.53-2.16,4.98c-0.68,2.71-1.27,3.69-2.16,5.18c-0.03,0.05-0.06,0.1-0.09,0.15
					c0.02-1.17-0.05-2.33-0.19-3.48c0.63-1.49,1.25-2.98,1.88-4.46c0.3-0.71,0.61-1.44,0.99-2.11c0.75-1.32,1.53-2.56,2.17-3.89
					l0.09,0.04c0.87-1.44,1.35-3.1,1.47-4.79c0.07-0.85,0.03-1.7-0.1-2.55c-0.12-0.84-0.39-1.7-0.78-2.46
					c-0.79-1.54-1.98-2.82-3.35-3.82c-0.69-0.51-1.43-0.92-2.16-1.31c-0.74-0.39-1.49-0.75-2.27-1.07c-0.78-0.31-1.58-0.6-2.43-0.75
					c-0.43-0.08-0.86-0.13-1.32-0.1c-0.45,0.03-0.95,0.13-1.37,0.44c-0.1,0.08-0.2,0.16-0.28,0.27c-0.09,0.09-0.16,0.2-0.22,0.31
					c-0.13,0.22-0.2,0.46-0.25,0.7c-0.08,0.49,0.01,0.97,0.14,1.39c0.28,0.85,0.75,1.55,1.08,2.26c0.67,1.48,1.25,3,1.32,4.61
					c0.07,1.22-0.08,2.46-0.42,3.64c-0.11-0.23-0.22-0.46-0.32-0.69c-0.34-0.78-0.61-1.64-0.88-2.49c-0.52-1.71-0.99-3.48-1.63-5.21
					C69.39,18.18,68.65,16.49,67.76,14.87z"/>
				<path class="st4" d="M58.9,65.78c-0.45,0.57-0.92,1.09-1.47,1.48c-0.64,0.46-1.37,0.7-2.14,0.71c-0.79,0.03-1.52-0.18-2.22-0.57
					c-0.7-0.39-1.35-0.94-2-1.53l-1-0.9l-1-0.88c-0.56-0.5-1.12-1.02-1.69-1.54c-0.09-0.09-0.18-0.17-0.28-0.26
					c-0.33-0.3-0.66-0.61-0.99-0.9c-0.33-0.3-0.68-0.59-1.06-0.86c-0.75-0.55-1.62-0.98-2.52-1.16l-0.11,0.27
					c0.74,0.52,1.4,1.03,2.02,1.64c0.31,0.29,0.61,0.61,0.93,0.92l0.26,0.26c-2.94-0.45-5.82-1.11-8.42-2.49
					c-0.6-0.29-1.18-0.6-1.76-0.92c-0.95-0.53-1.87-1.1-2.75-1.73c-1.41-1.01-2.69-2.18-3.77-3.51c-0.14-0.18-0.29-0.36-0.42-0.55
					c-0.37-0.5-0.71-1.02-1.02-1.57c-0.41-0.75-0.77-1.53-1.05-2.33c-0.26-0.72-0.44-1.47-0.56-2.23c3.02,4.71,8.18,7.98,13.73,8.71
					c0.13,0.08,0.27,0.16,0.4,0.23c1.13,0.58,2.41,0.84,3.71,0.78c0.08,0.09,0.17,0.18,0.26,0.27c1.08,1.02,2.51,1.79,4,2.46
					c0.24,0.29,0.44,0.58,0.63,0.86c0.18,0.27,0.36,0.54,0.58,0.81c0.92,1.13,1.86,2.29,3.01,3.27c0.47,0.4,1.1,0.88,1.89,1.13
					c0.34,0.11,0.67,0.16,1,0.16c0.51,0,0.98-0.13,1.39-0.37c0.75-0.45,1.17-1.24,1.41-1.98C58.23,64.21,58.58,64.99,58.9,65.78z"/>
				<path class="st2" d="M12.05,32.91l0.35-0.22c-0.29-0.49-0.54-1-0.76-1.52c-0.08-0.57-0.13-1.19-0.15-1.34
					c-0.08-0.84-0.09-1.69-0.01-2.54c0.06-0.62,0.16-1.24,0.29-1.85c1.19-5.14,5.69-8.44,10.52-9.91c1-0.3,4.43-1.19,4.04,0.93
					c-0.11,0.58-0.5,1.03-0.83,1.5c-1.36,1.91-1.37,4.43-0.68,6.69v0c-0.01,0.29-0.02,0.57-0.01,0.86c0.05,1.05,0.22,2.09,0.51,3.1
					c0.14,0.5,0.31,0.99,0.5,1.47c0.1,0.24,0.19,0.48,0.3,0.72c0.05,0.12,0.1,0.24,0.16,0.35l0.09,0.18l0.04,0.09l0.02,0.03
					c-0.01,0.04-0.01,0.06,0,0.06c0.01-0.01,0.01-0.01,0.02-0.01c0.01,0,0.01,0.01,0.01,0.01l0.29-0.15
					c0.43,1.33,0.8,2.67,0.74,4.02c-1.67,2.64-2.7,5.71-2.89,8.89c-0.11,1.81,0.08,3.67,0.67,5.41c-0.04,0.15-0.1,0.29-0.18,0.43
					c-0.88,1.62-3.39,1.41-4.84,0.27c-1.68-1.32-2.54-3.4-3.34-5.38c-1.63-4.04-3.26-8.08-4.89-12.12
					C12.03,32.89,12.04,32.9,12.05,32.91z"/>
				<path class="st3" d="M11.21,29.95c-0.26-0.96-0.41-1.95-0.43-2.94c-0.01-0.99,0.1-1.98,0.34-2.94c0.25-0.96,0.6-1.89,1.08-2.75
					c0.48-0.86,1.08-1.64,1.77-2.34c0.69-0.7,1.48-1.31,2.31-1.85c0.83-0.54,1.73-1,2.63-1.44c0.9-0.42,1.83-0.8,2.77-1.04
					c0.95-0.23,1.94-0.37,2.92-0.4c0.49-0.01,0.97,0.01,1.44,0.08c0.46,0.07,0.91,0.2,1.27,0.41c0.18,0.1,0.32,0.24,0.43,0.38
					c0.11,0.15,0.19,0.31,0.23,0.51c0.04,0.18,0.04,0.4,0.03,0.6c-0.02,0.19-0.08,0.39-0.17,0.59c-0.09,0.2-0.21,0.41-0.33,0.62
					l-0.4,0.66c-0.26,0.44-0.52,0.89-0.76,1.35c-0.49,0.92-0.92,1.9-1.18,2.93c-0.19,0.75-0.31,1.52-0.34,2.28
					c-0.69-2.26-0.68-4.79,0.68-6.69c0.33-0.47,0.72-0.92,0.83-1.5c0.39-2.12-3.03-1.23-4.04-0.93c-4.82,1.47-9.33,4.77-10.52,9.91
					c-0.14,0.61-0.24,1.23-0.29,1.85c-0.08,0.84-0.07,1.69,0.01,2.54c0.01,0.15,0.06,0.77,0.15,1.34
					C11.47,30.77,11.33,30.36,11.21,29.95z"/>
				
					<ellipse transform="matrix(0.3713 -0.9285 0.9285 0.3713 27.2683 60.696)" class="st5" cx="58.46" cy="10.21" rx="1.44" ry="4"/>
				
					<ellipse transform="matrix(0.9991 -0.0427 0.0427 0.9991 -0.8094 2.0402)" class="st5" cx="47.37" cy="19.97" rx="2.02" ry="0.73"/>
				
					<ellipse transform="matrix(0.1071 -0.9943 0.9943 0.1071 33.0623 77.8721)" class="st5" cx="59.88" cy="20.53" rx="0.73" ry="2.02"/>
				<path class="st6" d="M65.69,25.12c-0.08-0.01-0.16-0.02-0.24-0.03c-2.98-0.31-6.56,0.01-8.99,0.28
					c-0.38,0.04-0.68,0.23-0.88,0.56c-0.74,1.2,0.24,3.87,0.26,3.9c0.19,0.52,0.44,0.96,0.75,1.39c-0.82,0.03-1.64,0.11-2.45,0.24
					c0.3-0.9,0.48-1.85,0.59-2.54c0.16-0.99,0.26-2.39-0.79-3.17c-0.92-0.68-2.19-0.68-3.21-0.69l-0.31,0
					c-0.95-0.01-1.9-0.03-2.85-0.04c-1.28-0.02-2.6-0.04-3.9-0.05c-0.29,0-0.61,0-0.94,0.03c1.02-0.39,2.13-0.57,3.24-0.66
					c1.17-0.09,2.34-0.07,3.52,0.02c1.18,0.09,2.35,0.24,3.52,0.47c-0.86-0.31-1.76-0.55-2.66-0.73c1.35,0.04,2.7,0.45,3.84,1.18
					c0.08,0.05,0.15,0.1,0.24,0.11c0.17,0.03,0.32-0.09,0.46-0.19c0.62-0.43,1.35-0.6,2.12-0.65c-0.41,0.08-0.81,0.17-1.21,0.28
					c1.17-0.11,2.34-0.18,3.51-0.22c1.17-0.04,2.33-0.04,3.48,0.04c0.58,0.04,1.15,0.1,1.72,0.19
					C64.93,24.89,65.32,24.98,65.69,25.12z"/>
			</g>
		</g>
		<g>
			<path class="st7" d="M84.07,58.41c-1.31,0.19-2.74,0.28-4.26,0.21c-0.03-0.29-0.06-0.57-0.1-0.86
				C81.13,58.13,82.59,58.34,84.07,58.41z"/>
			<path class="st8" d="M91.75,55.13c-0.62,0.98-3.51,2.67-7.68,3.28c-1.47-0.07-2.94-0.28-4.36-0.65c-0.06-0.48-0.13-0.96-0.2-1.44
				c-0.13-0.84-0.29-1.67-0.48-2.49c0.16,0.04,0.31,0.08,0.45,0.12l0.04,0.01c2.81,0.73,6.33,0.86,8.9,0.95
				C89.71,54.94,91.14,54.99,91.75,55.13z"/>
			<path class="st8" d="M69.12,58.1c-0.72,0.92-4,2.46-8.5,2.77c-0.15,0.01-0.3,0.02-0.45,0.03c-1.33,0.07-2.75,0.03-4.24-0.16
				c-2.06-0.26-4.1-0.8-6.06-1.59c-0.36-0.14-0.71-0.29-1.07-0.44c-1.53-0.66-3-1.42-4.07-2.42c-0.28-0.26-0.52-0.55-0.72-0.84
				c-0.6-0.91-0.8-1.94-0.55-2.94c0.01-0.04,0.02-0.08,0.03-0.12c0.36-1.26,1.31-2.19,2.44-2.38c0.15-0.03,0.3-0.04,0.44-0.04
				c0.18,0,0.36,0.02,0.53,0.06c0.2,0.05,0.39,0.12,0.57,0.21c0.53,0.27,1.03,0.71,1.55,1.16l0.03,0.02
				c0.68,0.6,1.44,1.22,2.32,1.88c2.01,1.51,3.78,2.48,5.59,3.04c2.78,0.87,6.28,1.16,8.84,1.37c0.38,0.03,0.76,0.06,1.14,0.1
				C67.86,57.9,68.7,57.99,69.12,58.1z"/>
			<path class="st7" d="M60.62,60.87c-0.15,0.01-0.3,0.02-0.45,0.03c-1.33,0.07-2.75,0.03-4.24-0.16c-2.06-0.26-4.1-0.8-6.06-1.59
				c-0.36-0.14-0.71-0.29-1.07-0.44c-1.53-0.66-3-1.42-4.07-2.42c-0.28-0.26-0.52-0.55-0.72-0.84c-0.6-0.91-0.8-1.94-0.55-2.94
				c0.01-0.04,0.02-0.08,0.03-0.12c-0.02,0.07,0.4,0.5,0.46,0.58c1.09,1.38,2.44,2.55,3.91,3.51c1.5,0.97,3.1,1.6,4.75,2.25
				c1.86,0.72,3.79,1.27,5.74,1.71c0.38,0.09,0.76,0.17,1.15,0.24C59.85,60.74,60.28,60.9,60.62,60.87z"/>
			<path class="st9" d="M90.3,77.98c0.06,0.52,0.23,1.03,0.48,1.49c0.07,0.13,0.69,1.11,0.8,0.76c0.12-0.39-0.06-0.84-0.14-1.22
				c-0.08-0.43-0.14-0.87-0.17-1.31c-0.03-0.42-0.03-0.84,0.01-1.26c0.04-0.45,0.13-0.9,0.28-1.33c0.03-0.08,0.25-0.6,0.01-0.53
				c-0.05,0.02-0.09,0.05-0.13,0.08c-0.07,0.06-0.14,0.13-0.2,0.2C90.51,75.69,90.17,76.89,90.3,77.98z M85.82,80.45
				c0.34,0.33,0.71-0.04,0.86-0.35c0.35-0.73,0.36-1.52,0.67-2.26c0.63-1.53,1.04-2.21,1.86-3.01c0.06-0.06,0.23-0.16,0.14-0.25
				c-0.08-0.08-0.23,0.01-0.31,0.04c-0.25,0.11-0.48,0.27-0.69,0.44c-1.46,1.13-3.27,2.99-2.71,5.03
				C85.68,80.22,85.73,80.36,85.82,80.45z M94.14,73.35c0.08,0.19,0.11,0.38,0.09,0.52c-0.01,0.06-0.02,0.12-0.05,0.16
				c-0.03,0.06-0.08,0.13-0.15,0.21c-0.13,0.15-0.34,0.35-0.52,0.56c-0.37,0.41-0.72,0.86-1,1.38c-0.28,0.51-0.5,1.09-0.55,1.73
				c-0.03,0.31,0,0.64,0.06,0.95c0.06,0.31,0.19,0.62,0.31,0.88c0.26,0.52,0.5,0.92,0.58,1.29c0.06,0.29,0.05,0.58-0.03,0.87
				c-0.88-0.39-1.89-0.7-3-0.53c-0.59,0.09-1.14,0.28-1.67,0.47c-0.48,0.17-0.92,0.33-1.38,0.41c-1,0.18-2.38-0.01-2.94-0.71
				c-0.25-0.3-0.32-0.78-0.2-1.46c0.2-1.24,0.81-2.51,1.81-3.79c1.07-1.37,2.25-2.32,3.51-2.81C91.13,72.64,92.85,72.59,94.14,73.35
				z"/>
			<path class="st8" d="M83.23,82.46c0.71,0.68,1.84,0.96,2.87,0.96c0.32,0,0.63-0.03,0.92-0.08c0.55-0.09,1.07-0.28,1.56-0.45
				c0.5-0.18,0.98-0.35,1.47-0.42c0.76-0.11,1.47,0.06,2.29,0.42c-0.1,0.12-0.21,0.23-0.33,0.34c-0.17,0.16-0.34,0.29-0.54,0.43
				c-0.2,0.14-0.41,0.28-0.64,0.43c-0.45,0.3-0.95,0.66-1.33,1.22c-0.13,0.19-0.24,0.39-0.33,0.58l-0.53-0.24
				c-0.39-0.32-0.86-0.53-1.34-0.68c-0.48-0.16-0.98-0.25-1.48-0.3c-0.5-0.04-1.02-0.04-1.52,0.06c-0.5,0.09-1,0.26-1.39,0.6
				l-0.77-0.03C82.47,84.35,82.81,83.37,83.23,82.46z"/>
			<linearGradient id="SVGID_1_" gradientUnits="userSpaceOnUse" x1="61.6889" y1="27.1222" x2="61.6889" y2="84.0545">
				<stop  offset="0" style="stop-color:#FFFFFF"/>
				<stop  offset="1" style="stop-color:#000000"/>
			</linearGradient>
			<path class="st10" d="M56.55,26.2c2.03-0.22,4.87-0.48,7.46-0.37c-0.62,0.46-1.06,1.22-1.13,2.1c-0.13,1.53,0.89,2.86,2.27,2.98
				c0.81,0.07,1.57-0.31,2.08-0.94c-0.04,0.19-0.1,0.38-0.17,0.56c-0.2,0.53-0.49,1.02-0.86,1.45c-0.62-0.07-1.21-0.02-1.78,0.03
				c-0.46,0.04-0.92,0.09-1.36,0.12c-1.16-0.38-2.36-0.65-3.58-0.78c-0.61-0.07-1.23-0.11-1.84-0.13c-0.44-0.54-0.79-1.06-1.02-1.68
				c-0.36-0.96-0.67-2.6-0.32-3.17C56.36,26.26,56.43,26.21,56.55,26.2z"/>
			<path class="st8" d="M84.89,88.15c0.39,0.03,0.78,0.08,1.17,0.14c0.39,0.06,0.78,0.12,1.17,0.22c-0.33-0.25-0.71-0.42-1.1-0.54
				c-0.39-0.12-0.8-0.19-1.2-0.24c-0.41-0.04-0.81-0.05-1.22-0.01c-0.41,0.03-0.81,0.1-1.2,0.23
				C83.33,88.02,84.11,88.06,84.89,88.15z M82.97,90.64c0.35,0.03,0.7,0.08,1.05,0.13c0.34,0.06,0.69,0.12,1.04,0.23
				c-0.3-0.21-0.64-0.34-0.99-0.44c-0.35-0.1-0.71-0.16-1.07-0.2c-0.72-0.07-1.45-0.05-2.15,0.14
				C81.56,90.54,82.27,90.57,82.97,90.64z M80.3,92.69c0.28,0.03,0.55,0.06,0.83,0.1c0.28,0.04,0.55,0.09,0.83,0.16
				c-0.23-0.18-0.5-0.29-0.78-0.37c-0.28-0.08-0.56-0.13-0.85-0.16c-0.29-0.03-0.57-0.03-0.86-0.01c-0.29,0.02-0.57,0.06-0.85,0.16
				C79.19,92.6,79.75,92.64,80.3,92.69z M60.26,66.01c-0.56-1.35-1.16-2.67-1.78-3.98c0.13,0,0.25,0,0.38,0
				c0.31,0,0.61-0.01,0.91-0.02c2.45,3.86,3.7,10.44,4.31,13.66l0.15,0.78c0.78,4.18,1.67,8.92,4.1,12.42
				c1.53,2.21,4.16,3.79,6.53,3.95c0.13,0.01,0.26,0.01,0.39,0.01c1.54,0,2.9-0.6,3.94-1.76c1.52-1.67,2.25-3.76,2.95-5.79
				l0.77,0.03c0.47-0.18,0.95-0.24,1.42-0.27c0.48-0.02,0.96-0.01,1.44,0.04c0.48,0.04,0.96,0.11,1.44,0.2
				c0.48,0.09,0.95,0.2,1.42,0.36l0.53,0.24c-0.16,0.33-0.29,0.65-0.41,0.97c-0.18,0.51-0.34,0.99-0.53,1.42
				c-0.1,0.22-0.2,0.41-0.33,0.61c-0.14,0.2-0.27,0.41-0.42,0.6c-0.29,0.4-0.62,0.76-0.96,1.12c-0.69,0.71-1.48,1.32-2.32,1.85
				c-0.64,0.39-1.3,0.73-2,1.02c-0.23,0.09-0.46,0.18-0.7,0.27c-0.95,0.33-1.92,0.56-2.91,0.69c-0.99,0.13-1.99,0.14-2.98,0.06
				c-0.99-0.1-1.97-0.3-2.9-0.63c-0.93-0.34-1.81-0.79-2.61-1.36c-0.8-0.58-1.52-1.27-2.15-2.03c-1.27-1.54-2.22-3.36-2.94-5.26
				c-0.73-1.91-1.31-3.9-1.69-5.91c-0.38-1.98-0.41-4.1-0.83-6.21c-0.41-2.1-1.06-4.14-1.82-6.1
				C60.52,66.65,60.39,66.33,60.26,66.01z"/>
			<path class="st11" d="M50.05,60.52c-0.04-0.05-0.08-0.1-0.12-0.15c1.91,0.73,3.87,1.22,5.86,1.47c0.43,0.06,0.85,0.1,1.27,0.13
				c-0.11,0.95-0.46,2.07-1.17,2.49c-0.39,0.23-0.93,0.27-1.47,0.1c-0.46-0.15-0.93-0.43-1.5-0.92
				C51.85,62.74,50.94,61.61,50.05,60.52z"/>
			<linearGradient id="SVGID_2_" gradientUnits="userSpaceOnUse" x1="47.1359" y1="27.1222" x2="47.1359" y2="84.0545">
				<stop  offset="0" style="stop-color:#FFFFFF"/>
				<stop  offset="1" style="stop-color:#000000"/>
			</linearGradient>
			<path class="st12" d="M41.47,26.31c0.53-0.52,1.46-0.52,2.21-0.51c1.3,0.01,2.61,0.03,3.89,0.05c0.95,0.02,1.9,0.03,2.85,0.04
				l0.17,0c-0.58,0.46-0.98,1.19-1.05,2.04c-0.13,1.53,0.89,2.86,2.27,2.98c0.69,0.06,1.33-0.2,1.82-0.66
				c-0.11,0.47-0.25,0.95-0.43,1.4c-1.16,0.26-2.29,0.63-3.38,1.12c-0.33,0.15-0.65,0.31-0.96,0.48c-1.17-0.29-2.31-0.27-3.42-0.22
				c-1.14,0.06-2.26,0.25-3.35,0.55c-1.07-1.4-1.56-3.23-1.41-5.18C40.75,27.46,41.02,26.76,41.47,26.31z"/>
		</g>
	</g>
	<path class="st13" d="M65.96,27.9c-0.46-0.04-0.8-0.44-0.76-0.9c0.04-0.46,0.44-0.8,0.9-0.76c0.46,0.04,0.8,0.44,0.76,0.9
		C66.82,27.59,66.42,27.94,65.96,27.9z"/>
	<path class="st13" d="M52.61,27.9c-0.46-0.04-0.8-0.44-0.76-0.9c0.04-0.46,0.44-0.8,0.9-0.76c0.46,0.04,0.8,0.44,0.76,0.9
		C53.47,27.59,53.07,27.94,52.61,27.9z"/>
</g>
<g>
	<path d="M95.28,72.95c-0.07-0.19-0.16-0.37-0.26-0.53c-0.06-0.11-0.14-0.21-0.21-0.31c-0.4-0.5-0.92-0.86-1.45-1.11
		c-0.54-0.25-1.09-0.4-1.64-0.5c-2.16-0.41-4.54-0.32-6.49,0.82c-0.49,0.28-0.94,0.64-1.35,1.03c-0.41,0.39-0.76,0.83-1.08,1.28
		c-0.63,0.91-1.09,1.89-1.55,2.81c-0.46,0.94-0.94,1.81-1.52,2.64c0,0,0,0,0,0.01c-0.08-1.14-0.02-2.32,0.06-3.49
		c0.12-1.57,0.29-3.18,0.37-4.8c0.08-1.61,0.11-3.23,0.09-4.84c-0.03-1.62-0.11-3.22-0.22-4.83c-0.02-0.32-0.04-0.64-0.07-0.96
		c0-0.07-0.02-0.14-0.03-0.22c-0.01-0.18,0.17-0.2,0.31-0.2c1.24,0.04,2.51-0.06,3.74-0.23c1.11-0.15,2.22-0.38,3.29-0.7
		c0.93-0.28,1.84-0.62,2.71-1.05c0.69-0.34,1.36-0.73,1.94-1.23c0.4-0.34,0.8-0.76,0.98-1.27c0.03-0.08,0.05-0.15,0.06-0.23
		c0.04-0.21-0.02-0.42-0.15-0.59c-0.41-0.51-1.44-0.57-4.35-0.67c-2.52-0.09-5.96-0.21-8.66-0.91l-0.04-0.01
		c-0.29-0.08-0.67-0.18-1.03-0.28c-0.08-0.34-0.18-0.68-0.27-1.03c-0.09-0.31-0.18-0.63-0.27-0.94c0.24-0.97,0.41-1.95,0.52-2.93
		c0.18-0.38,0.36-0.73,0.54-1.04c0.18-0.32,0.36-0.61,0.52-0.88c0.9-1.51,1.55-2.59,2.26-5.43c0.58-2.31,1.26-3.43,2.05-4.72
		c0.3-0.5,0.61-1.01,0.94-1.62c0.16-0.3,0.33-0.6,0.49-0.92c1.46-2.68,3.12-5.73,2.84-8.85c-0.33-3.78-2.41-5.92-4.6-7.67
		c-3.03-2.41-7.33-4.15-10.97-4.43c-0.29-0.02-0.59-0.05-0.9-0.07c-1.83-0.16-4.08-0.35-6.01-0.1c-0.42-0.56-0.87-1.1-1.35-1.62
		c-1.27-1.38-2.8-2.56-4.55-3.34c-0.87-0.39-1.79-0.67-2.73-0.84l-0.35-0.06l-0.37-0.04c-0.25-0.03-0.49-0.02-0.74-0.03
		c-0.49,0.02-0.97,0.06-1.44,0.13c-0.93,0.14-1.81,0.37-2.67,0.51c-0.43,0.08-0.85,0.13-1.27,0.15c-0.41,0.01-0.82,0-1.21-0.09
		C49.11,6.71,49,6.68,48.89,6.66l-0.34-0.07c-0.23-0.05-0.45-0.09-0.68-0.14c-0.45-0.09-0.91-0.16-1.37-0.23
		C45.6,6.1,44.67,6.01,43.73,6c-0.93-0.01-1.89,0.06-2.82,0.25c-0.93,0.21-1.82,0.49-2.69,0.87c-1.73,0.76-3.28,1.89-4.57,3.26
		c-0.02,0.02-0.04,0.04-0.06,0.06c-2.99-0.78-6.61-0.94-8.87-0.83c-4.11,0.19-9.19,2.13-12.94,4.94c-3.23,2.41-5.34,6.04-5.8,9.94
		c-0.46,3.91,1.07,6.99,2.69,10.26l0.18,0.36c1.18,2.39,2.26,4.88,3.31,7.28l0.25,0.58c0.45,1.04,0.82,2.16,1.18,3.23
		c0.51,1.54,1.03,3.12,1.83,4.6c1.26,2.33,3.22,4.3,5.84,4.98c0.59,0.15,1.19,0.24,1.8,0.24c1.72,0,3.35-0.63,4.59-1.82
		c0.1,0.14,0.2,0.27,0.3,0.4c1.82,2.3,4.22,4.02,6.75,5.46c1.63,0.93,3.34,1.75,5.12,2.33c1.14,0.37,2.31,0.64,3.49,0.86
		c0.61,0.11,1.22,0.21,1.83,0.3c0.51,0.07,1.02,0.11,1.53,0.15c0.34,0.03,0.47,0.23,0.7,0.46c0.29,0.29,0.58,0.56,0.88,0.84
		c0.32,0.31,0.68,0.62,0.99,0.9l0.97,0.91c0.66,0.62,1.37,1.24,2.23,1.72c0.43,0.24,0.9,0.44,1.39,0.56
		c0.25,0.06,0.5,0.11,0.75,0.13c0.25,0.01,0.5,0.04,0.75,0.02c0.51-0.02,1.02-0.1,1.5-0.28c0.48-0.18,0.93-0.43,1.33-0.73
		c0.48-0.37,0.89-0.79,1.24-1.23c0.05,0.13,0.1,0.26,0.15,0.39c0.74,1.93,1.35,3.9,1.72,5.91c0.39,1.99,0.41,4.09,0.8,6.21
		c0.39,2.1,0.96,4.15,1.72,6.14c0.76,1.99,1.76,3.94,3.15,5.63c0.7,0.84,1.5,1.61,2.39,2.26c0.9,0.65,1.89,1.16,2.93,1.53
		c1.04,0.37,2.12,0.6,3.21,0.71c1.09,0.1,2.19,0.08,3.27-0.06c1.03-0.14,2.04-0.37,3.02-0.7c0.04-0.02,0.08-0.03,0.12-0.05
		c0.11-0.06,0.22-0.1,0.32-0.12c0.03,0,0.07-0.01,0.1-0.02c0.02-0.01,0.03-0.01,0.05-0.02c0.21-0.1,0.42-0.21,0.65-0.28
		c0.01,0,0.03-0.01,0.04-0.01c0.63-0.28,1.24-0.6,1.84-0.96c0.93-0.58,1.8-1.26,2.57-2.05c0.38-0.4,0.75-0.81,1.07-1.26
		c0.17-0.22,0.32-0.45,0.47-0.68c0.16-0.24,0.3-0.51,0.41-0.77c0.52-1.18,0.7-2.52,1.75-3.38c0.55-0.45,1.2-0.79,1.72-1.28
		c0.21-0.2,0.42-0.42,0.6-0.67c0.18-0.24,0.34-0.51,0.46-0.8c0.12-0.29,0.21-0.61,0.25-0.94c0.04-0.33,0.01-0.66-0.06-0.98
		c-0.14-0.66-0.48-1.15-0.68-1.57c-0.1-0.21-0.18-0.39-0.22-0.59c-0.04-0.2-0.06-0.4-0.04-0.6c0.06-0.83,0.58-1.67,1.23-2.39
		c0.16-0.18,0.33-0.34,0.54-0.59c0.1-0.12,0.21-0.26,0.29-0.43c0.1-0.19,0.15-0.39,0.18-0.59C95.47,73.61,95.39,73.26,95.28,72.95z
		 M79.48,53.94l0.04,0.01c2.81,0.73,6.33,0.86,8.9,0.95c1.29,0.04,2.72,0.09,3.33,0.23c-0.81,1.29-5.55,3.79-11.95,3.49
		c-0.08-0.77-0.18-1.54-0.3-2.3c-0.13-0.84-0.29-1.67-0.48-2.49C79.18,53.87,79.34,53.9,79.48,53.94z M71.82,13
		c0.31,0.03,0.61,0.05,0.9,0.08c3.46,0.27,7.56,1.93,10.45,4.23c2.35,1.87,3.97,3.78,4.25,7.01c0.25,2.84-1.33,5.75-2.73,8.31
		c-0.17,0.31-0.34,0.62-0.5,0.92c-0.31,0.59-0.62,1.09-0.92,1.57c-0.8,1.3-1.55,2.53-2.16,4.98c-0.68,2.71-1.27,3.69-2.16,5.18
		c-0.03,0.05-0.06,0.1-0.09,0.15c0.02-1.17-0.05-2.33-0.19-3.48c-0.08-0.68-0.19-1.35-0.33-2.02l-0.15-0.68l-0.17-0.67
		c-0.12-0.46-0.28-0.92-0.45-1.35c-0.34-0.87-0.73-1.7-1.15-2.52c-0.41-0.82-0.85-1.62-1.3-2.41c-0.44-0.8-0.92-1.58-1.37-2.35
		c-0.21-0.35-0.41-0.7-0.6-1.06c0.21-0.55,0.37-1.12,0.49-1.7c0.17-0.84,0.24-1.7,0.22-2.56c-0.02-0.85-0.16-1.7-0.39-2.51
		c-0.23-0.81-0.54-1.59-0.87-2.35c-0.35-0.79-0.79-1.48-1.02-2.2c-0.11-0.36-0.16-0.72-0.1-1.04c0.06-0.33,0.23-0.62,0.47-0.79
		c0.24-0.19,0.59-0.26,0.95-0.28c0.37-0.01,0.75,0.03,1.13,0.11c0.77,0.16,1.53,0.42,2.28,0.72c0.75,0.31,1.48,0.66,2.19,1.04
		c0.71,0.38,1.42,0.78,2.06,1.25c1.07,0.79,2.02,1.75,2.71,2.87c0.14,0.22,0.27,0.44,0.38,0.67c0.17,0.35,0.33,0.71,0.44,1.08
		c0.12,0.37,0.2,0.75,0.27,1.14c0.13,0.78,0.19,1.58,0.16,2.37c-0.02,0.8-0.11,1.6-0.27,2.39c-0.16,0.79-0.39,1.56-0.69,2.32
		l0.16,0.08l0.09,0.04c0.87-1.44,1.35-3.1,1.47-4.79c0.07-0.85,0.03-1.7-0.1-2.55c-0.12-0.84-0.39-1.7-0.78-2.46
		c-0.79-1.54-1.98-2.82-3.35-3.82c-0.69-0.51-1.43-0.92-2.16-1.31c-0.74-0.39-1.49-0.75-2.27-1.07c-0.78-0.31-1.58-0.6-2.43-0.75
		c-0.43-0.08-0.86-0.13-1.32-0.1c-0.45,0.03-0.95,0.13-1.37,0.44c-0.1,0.08-0.2,0.16-0.28,0.27c-0.09,0.09-0.16,0.2-0.22,0.31
		c-0.13,0.22-0.2,0.46-0.25,0.7c-0.08,0.49,0.01,0.97,0.14,1.39c0.28,0.85,0.75,1.55,1.08,2.26c0.67,1.48,1.25,3,1.32,4.61
		c0.07,1.22-0.08,2.46-0.42,3.64c-0.11-0.23-0.22-0.46-0.32-0.69c-0.34-0.78-0.61-1.64-0.88-2.49c-0.52-1.71-0.99-3.48-1.63-5.21
		c-0.63-1.72-1.37-3.42-2.26-5.03c-0.38-0.69-0.79-1.37-1.24-2.03C68.23,12.7,70.19,12.86,71.82,13z M57.43,67.25
		c-0.64,0.46-1.37,0.7-2.14,0.71c-0.79,0.03-1.52-0.18-2.22-0.57c-0.7-0.39-1.35-0.94-2-1.53l-1-0.9l-1-0.88
		c-0.56-0.5-1.12-1.02-1.69-1.54c-0.09-0.09-0.18-0.17-0.28-0.26c-0.33-0.3-0.66-0.61-0.99-0.9c-0.33-0.3-0.68-0.59-1.06-0.86
		c-0.75-0.55-1.62-0.98-2.52-1.16l-0.11,0.27c0.74,0.52,1.4,1.03,2.02,1.64c0.31,0.29,0.61,0.61,0.93,0.92l0.26,0.26
		c-2.94-0.45-5.82-1.11-8.42-2.49c-0.6-0.29-1.18-0.6-1.76-0.92c-0.95-0.53-1.87-1.1-2.75-1.73c-1.41-1.01-2.69-2.18-3.77-3.51
		c-0.14-0.18-0.29-0.36-0.42-0.55c-0.37-0.5-0.71-1.02-1.02-1.57c-0.41-0.75-0.77-1.53-1.05-2.33c-0.57-1.6-0.78-3.32-0.7-5.03
		c0.04-0.86,0.15-1.72,0.32-2.56c0.16-0.85,0.39-1.69,0.63-2.52c0.51-1.67,1.18-3.29,1.93-4.89l-0.3-0.19
		c-0.29,0.39-0.57,0.8-0.83,1.22c-1.67,2.64-2.7,5.71-2.89,8.89c-0.11,1.81,0.08,3.67,0.67,5.41c0.01,0.03,0.02,0.05,0.03,0.08
		c0.3,0.88,0.67,1.73,1.11,2.54c0.18,0.33,0.38,0.66,0.59,0.98c-1.16,1.19-2.8,1.75-4.49,1.6c-0.78-0.07-1.59-0.29-2.36-0.68
		c-1.86-0.93-3.07-2.65-3.76-3.92c-0.75-1.39-1.26-2.93-1.75-4.42c-0.36-1.1-0.74-2.24-1.22-3.33l-0.25-0.58
		c-1.05-2.42-2.14-4.92-3.33-7.34l-0.18-0.35c-1.55-3.11-3-6.06-2.58-9.63c0.43-3.6,2.38-6.95,5.36-9.18
		c3.58-2.68,8.42-4.53,12.33-4.72c2.05-0.09,5.25,0.03,8,0.66c-2.06,2.58-3.31,5.75-3.61,8.96l0.39,0.08
		c0.54-1.72,1.16-3.38,1.96-4.96c0.66-1.31,1.45-2.56,2.39-3.67c0.18-0.22,0.37-0.43,0.57-0.64c1.2-1.26,2.63-2.29,4.22-2.97
		c0.79-0.34,1.63-0.6,2.46-0.78c0.83-0.17,1.7-0.23,2.57-0.21c0.87,0.01,1.75,0.1,2.62,0.23c0.44,0.06,0.88,0.14,1.31,0.23
		c0.22,0.04,0.44,0.08,0.65,0.13l0.33,0.07c0.11,0.03,0.22,0.05,0.35,0.07c0.5,0.11,1,0.12,1.49,0.11c0.49-0.02,0.97-0.08,1.43-0.16
		c0.92-0.16,1.8-0.37,2.65-0.5c0.43-0.07,0.85-0.1,1.26-0.11c0.21,0.01,0.41,0,0.61,0.03l0.3,0.03l0.31,0.06
		c0.84,0.15,1.66,0.41,2.43,0.76c1.56,0.7,2.94,1.78,4.12,3.06c0.58,0.63,1.12,1.3,1.62,2.01c0.51,0.73,0.98,1.49,1.42,2.28
		c0.85,1.55,1.57,3.18,2.18,4.85c0.62,1.67,1.08,3.39,1.62,5.14c0.27,0.87,0.55,1.75,0.93,2.63c0.19,0.43,0.4,0.85,0.61,1.26
		c0.22,0.41,0.44,0.81,0.68,1.21c0.46,0.79,0.93,1.55,1.37,2.33c0.45,0.78,0.88,1.56,1.29,2.35c0.41,0.79,0.79,1.59,1.12,2.41
		c0.16,0.41,0.3,0.81,0.41,1.22L77,39.53l0.15,0.64c0.53,2.43,0.67,4.94,0.42,7.41c-0.03,0.27-0.06,0.54-0.1,0.81
		c-0.71-2.02-1.58-3.99-2.63-5.86c-1.61-2.83-3.66-5.48-6.28-7.49c-0.66-0.5-1.34-0.97-2.06-1.38c-0.46-0.27-0.93-0.51-1.41-0.74
		c0.36-0.05,0.72-0.08,1.06-0.06c1.1,0.05,2.18,0.24,3.21,0.64c1.03,0.39,1.99,0.98,2.92,1.61c0.92,0.64,1.77,1.39,2.46,2.28
		l0.13-0.09c-0.63-0.96-1.45-1.79-2.34-2.51c-0.45-0.36-0.91-0.7-1.39-1.02c-0.48-0.32-0.99-0.62-1.52-0.86
		c-0.78-0.37-1.61-0.62-2.46-0.78c0.29-0.4,0.52-0.83,0.7-1.29c0.41-1.08,0.49-2.3,0.23-3.52c-0.01-0.03-0.01-0.06-0.02-0.09
		c-0.05-0.38-0.17-0.76-0.36-1.11c-0.15-0.28-0.34-0.53-0.56-0.76c-0.22-0.22-0.48-0.41-0.75-0.57c-0.55-0.31-1.16-0.5-1.77-0.57
		c-0.59-0.08-1.19-0.15-1.78-0.16c-1.19-0.04-2.37,0.01-3.55,0.15c-0.76,0.09-1.52,0.2-2.27,0.35c0,0,0,0,0,0h0c0,0,0,0,0,0
		c-0.41,0.08-0.81,0.17-1.21,0.28c1.17-0.11,2.34-0.18,3.51-0.22c1.17-0.04,2.33-0.04,3.48,0.04c0.58,0.04,1.15,0.1,1.72,0.19
		c0.41,0.06,0.8,0.16,1.17,0.3c-0.08-0.01-0.16-0.02-0.24-0.03c-2.98-0.31-6.56,0.01-8.99,0.28c-0.38,0.04-0.68,0.23-0.88,0.56
		c-0.74,1.2,0.24,3.87,0.26,3.9c0.19,0.52,0.44,0.96,0.75,1.39c0.17-0.01,0.33-0.01,0.5-0.01c-0.16,0-0.33,0-0.5,0.01l0,0
		c-0.82,0.03-1.64,0.11-2.45,0.24v0c-0.25,0.04-0.51,0.09-0.76,0.14c0.25-0.05,0.5-0.1,0.76-0.14c0.3-0.9,0.48-1.85,0.59-2.54
		c0.16-0.99,0.26-2.39-0.79-3.17c-0.92-0.68-2.19-0.68-3.21-0.69l-0.31,0c-0.95-0.01-1.9-0.03-2.85-0.04
		c-1.28-0.02-2.6-0.04-3.9-0.05c-0.29,0-0.61,0-0.94,0.03c-0.03,0.01-0.05,0.02-0.07,0.03c0.02-0.01,0.05-0.02,0.07-0.03h0
		c1.02-0.39,2.13-0.57,3.24-0.66c1.17-0.09,2.34-0.07,3.52,0.02c1.18,0.09,2.35,0.24,3.52,0.47c-0.86-0.31-1.76-0.55-2.66-0.73
		c-0.27-0.06-0.54-0.1-0.81-0.15c-1.19-0.18-2.39-0.27-3.6-0.21c-0.61,0.02-1.21,0.1-1.81,0.21c-0.3,0.05-0.6,0.12-0.9,0.22
		c-0.3,0.09-0.59,0.19-0.87,0.33c-0.56,0.27-1.09,0.63-1.5,1.12c-0.15,0.18-0.28,0.38-0.38,0.58c0.04-0.06,0.08-0.11,0.12-0.17
		c-0.04,0.05-0.08,0.11-0.12,0.17c-0.18,0.35-0.28,0.74-0.26,1.12c0.16-0.58,0.52-1.05,0.94-1.42c0.05-0.05,0.11-0.09,0.16-0.14
		c-0.05,0.04-0.11,0.09-0.16,0.14c-0.42,0.37-0.78,0.84-0.94,1.42c-0.02-0.38,0.08-0.77,0.26-1.12c-0.36,0.55-0.58,1.27-0.65,2.13
		c-0.17,2.04,0.33,3.97,1.4,5.5c0.09-0.03,0.18-0.06,0.26-0.09c-0.09,0.03-0.18,0.06-0.26,0.09c-0.8,0.27-1.57,0.61-2.32,0.98
		c-1,0.5-1.96,1.12-2.77,1.91l0.11,0.12c0.84-0.71,1.81-1.24,2.83-1.66c0.8-0.33,1.63-0.61,2.47-0.82c0.22-0.06,0.44-0.11,0.66-0.15
		c1.07-0.21,2.15-0.31,3.23-0.29c0.7,0.02,1.4,0.06,2.06,0.17c-0.63,0.43-1.23,0.92-1.79,1.45c-1.19,1.14-2.15,2.51-2.8,4l0.36,0.18
		c1.26-2.25,3.16-4.03,5.36-5.26c0.51-0.28,1.03-0.53,1.57-0.76c1.17-0.48,2.4-0.84,3.65-1.06l-0.06-0.3c0.04-0.1,0.09-0.2,0.13-0.3
		c-0.04,0.1-0.08,0.2-0.13,0.3l0.06,0.3c1.81-0.33,3.66-0.38,5.48-0.16c1.18,0.14,2.34,0.41,3.47,0.8l0.01-0.02l-0.07-1.11
		c0.1,0,0.21-0.01,0.31-0.02c-1.16-0.38-2.36-0.65-3.58-0.78c-0.61-0.07-1.23-0.11-1.84-0.13c0.07,0.08,0.14,0.17,0.21,0.25
		l-0.63,0.54v0l0.63-0.54c-0.07-0.09-0.14-0.17-0.21-0.25c0,0,0,0,0,0c-0.44-0.54-0.79-1.06-1.02-1.68
		c-0.36-0.96-0.67-2.6-0.32-3.17c0.06-0.1,0.14-0.15,0.26-0.16c2.03-0.22,4.87-0.48,7.46-0.37c0.45-0.34,1.01-0.52,1.59-0.47
		c0.65,0.06,1.22,0.38,1.63,0.87l0.01-0.01v0c-0.01-0.01-0.01-0.01-0.02-0.02c0.01,0.01,0.01,0.01,0.02,0.02v0l-0.01,0.01
		c-0.41-0.49-0.98-0.81-1.63-0.87c-0.58-0.05-1.14,0.13-1.59,0.47c-0.62,0.46-1.06,1.22-1.13,2.1c-0.13,1.53,0.89,2.86,2.27,2.98
		c0.81,0.07,1.57-0.31,2.08-0.94c-0.04,0.19-0.1,0.38-0.17,0.56c-0.2,0.53-0.49,1.02-0.86,1.45c-0.62-0.07-1.21-0.02-1.78,0.03
		c-0.46,0.04-0.92,0.09-1.36,0.12c-0.1,0.01-0.21,0.01-0.31,0.02l0.07,1.11l-0.01,0.02c0.34,0.11,0.68,0.24,1.01,0.38
		c0.71,0.3,1.41,0.64,2.07,1.04c0.67,0.38,1.3,0.83,1.92,1.3c2.45,1.91,4.39,4.43,5.92,7.16c1.32,2.39,2.36,4.93,3.16,7.56
		c0.12,0.39,0.24,0.79,0.34,1.19c0.14,0.51,0.27,1.02,0.39,1.53c0.24,1.02,0.46,2.05,0.62,3.08c0.17,1.06,0.29,2.13,0.39,3.2
		c0.04,0.5,0.09,1.01,0.12,1.51c0.06,0.79,0.1,1.59,0.14,2.38c0.04,0.8,0.08,1.59,0.1,2.38c0.04,1.59,0.03,3.17-0.04,4.76
		c-0.06,1.59-0.22,3.16-0.33,4.78c-0.1,1.59-0.16,3.22,0.1,4.86c-0.29,0.35-0.61,0.68-0.95,0.98c-0.73,0.65-1.59,1.16-2.6,1.28
		l0,0.32c0.55,0.08,1.12,0.01,1.65-0.16c0.54-0.17,1.03-0.44,1.49-0.76c0.45-0.32,0.87-0.68,1.24-1.08
		c0.38-0.39,0.72-0.81,1.04-1.25c0.65-0.86,1.17-1.83,1.64-2.77c0.47-0.94,0.92-1.86,1.48-2.66c0.28-0.4,0.59-0.78,0.94-1.11
		c0.35-0.32,0.73-0.62,1.14-0.85c0.82-0.48,1.77-0.76,2.73-0.85c0.48-0.04,0.97-0.05,1.46,0c0.51,0.04,1.01,0.1,1.49,0.19
		c0.06,0.01,0.13,0.03,0.19,0.04c-0.94,0.05-1.97,0.29-3.08,0.73c-1.45,0.57-2.79,1.64-3.98,3.17c-1.11,1.42-1.79,2.86-2.03,4.29
		c-0.11,0.7-0.08,1.28,0.1,1.76c-0.54,1.08-0.95,2.24-1.34,3.36c-0.71,2.04-1.38,3.96-2.78,5.5c-0.97,1.07-2.21,1.57-3.66,1.47
		c-2.14-0.14-4.51-1.59-5.9-3.59c-2.33-3.35-3.2-8-3.97-12.1l-0.15-0.78c-0.91-4.78-2.11-10.05-4.18-13.56
		c5.16-0.38,9.27-2.27,9.64-3.88c0.05-0.21,0-0.42-0.13-0.6c-0.18-0.24-0.49-0.39-1.06-0.51c0.02,0,0.04,0,0.05,0
		c0.73-0.04,1.45-0.04,2.17-0.01c0.72,0.03,1.44,0.11,2.16,0.23c0.72,0.12,1.43,0.28,2.15,0.45c-0.64-0.39-1.34-0.67-2.06-0.87
		c-0.72-0.2-1.47-0.31-2.22-0.36c-0.75-0.03-1.51,0-2.25,0.13c-0.39,0.06-0.77,0.15-1.15,0.26c-0.56-0.06-1.25-0.12-2.11-0.19
		c-2.51-0.21-5.94-0.5-8.6-1.33c-1.68-0.53-3.35-1.44-5.26-2.87c-0.85-0.64-1.59-1.24-2.26-1.82l-0.03-0.02
		c-0.36-0.32-0.72-0.64-1.12-0.91c-0.06-0.84-0.34-1.64-0.79-2.3c-0.56-0.82-1.38-1.42-2.28-1.72l-0.06,0.15
		c0.8,0.42,1.44,1.1,1.79,1.88c0.21,0.45,0.32,0.94,0.34,1.42c-0.15-0.06-0.31-0.11-0.48-0.15c-0.46-0.11-0.92-0.12-1.41-0.04
		c-1.61,0.27-2.93,1.58-3.37,3.33c-0.3,1.21-0.09,2.47,0.55,3.57c-0.88,0.04-1.79-0.11-2.62-0.43c-0.28-0.11-0.54-0.24-0.8-0.39
		c-0.24-0.16-0.53-0.32-0.78-0.5c-0.5-0.35-0.98-0.74-1.27-1.28l-0.15,0.06c0.2,0.63,0.64,1.15,1.1,1.61
		c0.12,0.12,0.23,0.23,0.35,0.34c0.12,0.11,0.24,0.21,0.38,0.31c0.15,0.11,0.3,0.21,0.45,0.31l0,0c0,0,0,0,0,0
		c0.13,0.08,0.26,0.16,0.4,0.22c1.13,0.58,2.41,0.84,3.71,0.78c0.08,0.09,0.17,0.18,0.26,0.27c1.08,1.02,2.51,1.79,4,2.46
		c0.24,0.29,0.44,0.58,0.63,0.86c0.18,0.27,0.36,0.54,0.58,0.81c0.92,1.13,1.86,2.29,3.01,3.27c0.47,0.4,1.1,0.88,1.89,1.13
		c0.34,0.11,0.67,0.16,1,0.16c0.51,0,0.98-0.13,1.39-0.37c0.75-0.45,1.17-1.24,1.41-1.98c0.35,0.78,0.69,1.55,1.02,2.34
		C58.45,66.35,57.97,66.87,57.43,67.25z M66.26,25.39c-0.05-0.03-0.11-0.06-0.16-0.08c-0.07-0.03-0.13-0.06-0.2-0.09
		c0.07,0.03,0.13,0.06,0.2,0.09C66.15,25.33,66.2,25.36,66.26,25.39z M40.68,28.39c0.08-0.93,0.34-1.63,0.8-2.08
		c0.53-0.52,1.46-0.52,2.21-0.51c1.3,0.01,2.61,0.03,3.89,0.05c0.95,0.02,1.9,0.03,2.85,0.04l0.17,0c0.47-0.38,1.05-0.58,1.67-0.53
		c0.17,0.01,0.33,0.05,0.49,0.1c-0.16-0.05-0.32-0.08-0.49-0.1c-0.62-0.05-1.2,0.15-1.67,0.53c-0.58,0.46-0.98,1.19-1.05,2.04
		c-0.13,1.53,0.89,2.86,2.27,2.98c0.69,0.06,1.33-0.2,1.82-0.66l0,0c-0.11,0.47-0.25,0.95-0.43,1.4l0,0
		c-1.16,0.26-2.29,0.63-3.38,1.12c-0.33,0.15-0.65,0.31-0.96,0.48c-1.17-0.29-2.31-0.27-3.42-0.22c-1.14,0.06-2.26,0.25-3.35,0.55
		c0,0,0,0-0.01,0c0,0,0,0,0.01,0C41.02,32.16,40.52,30.33,40.68,28.39z M53.51,27.14c-0.04,0.46-0.44,0.8-0.9,0.76
		c-0.46-0.04-0.8-0.44-0.76-0.9c0.04-0.46,0.44-0.8,0.9-0.76C53.2,26.27,53.54,26.68,53.51,27.14z M54.28,26.87
		c0.19,0.44,0.29,0.94,0.24,1.46C54.56,27.8,54.47,27.3,54.28,26.87z M66.85,27.14c-0.04,0.46-0.44,0.8-0.9,0.76
		c-0.46-0.04-0.8-0.44-0.76-0.9c0.04-0.46,0.44-0.8,0.9-0.76C66.55,26.27,66.89,26.68,66.85,27.14z M55.93,60.74
		c-2.06-0.26-4.1-0.8-6.06-1.59c-0.36-0.14-0.71-0.29-1.07-0.44c-1.53-0.66-3-1.42-4.07-2.42c-0.28-0.26-0.52-0.55-0.72-0.84
		c-0.6-0.91-0.8-1.94-0.55-2.94c0.33-1.32,1.3-2.31,2.48-2.51c0.15-0.03,0.3-0.04,0.44-0.04c0.18,0,0.36,0.02,0.53,0.06
		c0.2,0.05,0.39,0.12,0.57,0.21c0.53,0.27,1.03,0.71,1.55,1.16l0.03,0.02c0.68,0.6,1.44,1.22,2.32,1.88
		c2.01,1.51,3.78,2.48,5.59,3.04c2.78,0.87,6.28,1.16,8.84,1.37c0.38,0.03,0.76,0.06,1.14,0.1c0.9,0.08,1.74,0.17,2.16,0.28
		c-0.75,0.95-4.22,2.56-8.95,2.8C58.85,60.97,57.42,60.93,55.93,60.74z M57.06,61.97c-0.11,0.95-0.46,2.07-1.17,2.49
		c-0.39,0.23-0.93,0.27-1.47,0.1c-0.46-0.15-0.93-0.43-1.5-0.92c-1.07-0.91-1.98-2.04-2.86-3.12c-0.04-0.05-0.08-0.1-0.12-0.15
		c1.91,0.73,3.87,1.22,5.86,1.47C56.22,61.9,56.64,61.94,57.06,61.97z M92.01,83.22c-0.17,0.16-0.34,0.29-0.54,0.43
		c-0.2,0.14-0.41,0.28-0.64,0.43c-0.45,0.3-0.95,0.66-1.33,1.22c-0.13,0.19-0.24,0.39-0.33,0.58c-0.16,0.33-0.29,0.65-0.41,0.97
		c-0.18,0.51-0.34,0.99-0.53,1.42c-0.1,0.22-0.2,0.41-0.33,0.61c-0.14,0.2-0.27,0.41-0.42,0.6c-0.29,0.4-0.62,0.76-0.96,1.12
		c-0.69,0.71-1.48,1.32-2.32,1.85c-0.64,0.39-1.3,0.73-2,1.02c-0.23,0.09-0.46,0.18-0.7,0.27c-0.95,0.33-1.92,0.56-2.91,0.69
		c-0.99,0.13-1.99,0.14-2.98,0.06c-0.99-0.1-1.97-0.3-2.9-0.63c-0.93-0.34-1.81-0.79-2.61-1.36c-0.8-0.58-1.52-1.27-2.15-2.03
		c-1.27-1.54-2.22-3.36-2.94-5.26c-0.73-1.91-1.31-3.9-1.69-5.91c-0.38-1.98-0.41-4.1-0.83-6.21c-0.41-2.1-1.06-4.14-1.82-6.1
		c-0.13-0.32-0.26-0.64-0.39-0.96c-0.56-1.35-1.16-2.67-1.78-3.98c0.13,0,0.25,0,0.38,0c0.31,0,0.61-0.01,0.91-0.02
		c2.45,3.86,3.7,10.44,4.31,13.66l0.15,0.78c0.78,4.18,1.67,8.92,4.1,12.42c1.53,2.21,4.16,3.79,6.53,3.95
		c0.13,0.01,0.26,0.01,0.39,0.01c1.54,0,2.9-0.6,3.94-1.76c1.52-1.67,2.25-3.76,2.95-5.79c0.33-0.95,0.67-1.92,1.09-2.84
		c0.71,0.68,1.84,0.96,2.87,0.96c0.32,0,0.63-0.03,0.92-0.08c0.55-0.09,1.07-0.28,1.56-0.45c0.5-0.18,0.98-0.35,1.47-0.42
		c0.76-0.11,1.47,0.06,2.29,0.42C92.24,83,92.13,83.12,92.01,83.22z M94.23,73.87c-0.01,0.06-0.02,0.12-0.05,0.16
		c-0.03,0.06-0.08,0.13-0.15,0.21c-0.13,0.15-0.34,0.35-0.52,0.56c-0.37,0.41-0.72,0.86-1,1.38c-0.28,0.51-0.5,1.09-0.55,1.73
		c-0.03,0.31,0,0.64,0.06,0.95c0.06,0.31,0.19,0.62,0.31,0.88c0.26,0.52,0.5,0.92,0.58,1.29c0.06,0.29,0.05,0.58-0.03,0.87
		c-0.88-0.39-1.89-0.7-3-0.53c-0.59,0.09-1.14,0.28-1.67,0.47c-0.48,0.17-0.92,0.33-1.38,0.41c-1,0.18-2.38-0.01-2.94-0.71
		c-0.25-0.3-0.32-0.78-0.2-1.46c0.2-1.24,0.81-2.51,1.81-3.79c1.07-1.37,2.25-2.32,3.51-2.81c2.12-0.84,3.85-0.88,5.13-0.13
		C94.21,73.54,94.25,73.73,94.23,73.87z"/>
	<path d="M53.37,25.76c0.03,0.02,0.05,0.04,0.08,0.06C53.42,25.79,53.4,25.78,53.37,25.76z"/>
	<path d="M57.12,31.21c0,0,0.01,0,0.01,0C57.13,31.21,57.12,31.21,57.12,31.21z"/>
	<path d="M91.56,75.1c0.03-0.08,0.25-0.6,0.01-0.53c-0.05,0.02-0.09,0.05-0.13,0.08c-0.07,0.06-0.14,0.13-0.2,0.2
		c-0.72,0.84-1.07,2.03-0.94,3.13c0.06,0.52,0.23,1.03,0.48,1.49c0.07,0.13,0.69,1.11,0.8,0.76c0.12-0.39-0.06-0.84-0.14-1.22
		c-0.08-0.43-0.14-0.87-0.17-1.31c-0.03-0.42-0.03-0.84,0.01-1.26C91.32,75.98,91.41,75.53,91.56,75.1z"/>
	<path d="M89.04,74.63c-0.25,0.11-0.48,0.27-0.69,0.44c-1.46,1.13-3.27,2.99-2.71,5.03c0.04,0.13,0.09,0.27,0.18,0.36
		c0.34,0.33,0.71-0.04,0.86-0.35c0.35-0.73,0.36-1.52,0.67-2.26c0.63-1.53,1.04-2.21,1.86-3.01c0.06-0.06,0.23-0.16,0.14-0.25
		C89.27,74.5,89.12,74.59,89.04,74.63z"/>
	<path d="M85.81,84.67c-0.5-0.04-1.02-0.04-1.52,0.06c-0.5,0.09-1,0.26-1.39,0.6c0.47-0.18,0.95-0.24,1.42-0.27
		c0.48-0.02,0.96-0.01,1.44,0.04c0.48,0.04,0.96,0.11,1.44,0.2c0.48,0.09,0.95,0.2,1.42,0.36c-0.39-0.32-0.86-0.53-1.34-0.68
		C86.81,84.82,86.31,84.72,85.81,84.67z"/>
	<path d="M84.94,87.73c-0.41-0.04-0.81-0.05-1.22-0.01c-0.41,0.03-0.81,0.1-1.2,0.23c0.81,0.07,1.6,0.12,2.38,0.2
		c0.39,0.03,0.78,0.08,1.17,0.14c0.39,0.06,0.78,0.12,1.17,0.22c-0.33-0.25-0.71-0.42-1.1-0.54C85.75,87.84,85.34,87.77,84.94,87.73
		z"/>
	<path d="M83,90.37c-0.72-0.07-1.45-0.05-2.15,0.14c0.72,0.03,1.42,0.06,2.12,0.13c0.35,0.03,0.7,0.08,1.05,0.13
		c0.34,0.06,0.69,0.12,1.04,0.23c-0.3-0.21-0.64-0.34-0.99-0.44C83.71,90.46,83.36,90.4,83,90.37z"/>
	<path d="M80.33,92.42c-0.29-0.03-0.57-0.03-0.86-0.01c-0.29,0.02-0.57,0.06-0.85,0.16c0.57,0.04,1.13,0.08,1.68,0.13
		c0.28,0.03,0.55,0.06,0.83,0.1c0.28,0.04,0.55,0.09,0.83,0.16c-0.23-0.18-0.5-0.29-0.78-0.37C80.9,92.5,80.61,92.45,80.33,92.42z"
		/>
	<path d="M72.98,77.96c-0.62,0.06-1.24,0.18-1.82,0.41c-0.58,0.22-1.16,0.55-1.54,1.04c0.53-0.31,1.1-0.49,1.67-0.63
		c0.58-0.13,1.16-0.22,1.75-0.27c0.59-0.06,1.18-0.08,1.78-0.08c0.6,0,1.19,0.02,1.8,0.11c-0.54-0.31-1.16-0.46-1.77-0.55
		C74.22,77.91,73.6,77.91,72.98,77.96z"/>
	<path d="M72.42,71.08c-0.79,0.01-1.59,0.09-2.36,0.3c-0.77,0.21-1.54,0.54-2.1,1.1c0.7-0.37,1.44-0.55,2.19-0.68
		c0.75-0.11,1.52-0.17,2.28-0.17c0.76-0.01,1.53,0.04,2.29,0.11c0.76,0.08,1.52,0.19,2.28,0.4c-0.67-0.43-1.44-0.67-2.21-0.83
		C74.01,71.16,73.22,71.09,72.42,71.08z"/>
	<path d="M71.47,64.35c-0.94,0.04-1.88,0.17-2.79,0.44c-0.9,0.27-1.8,0.68-2.46,1.36c0.8-0.48,1.68-0.75,2.56-0.94
		c0.89-0.18,1.8-0.28,2.71-0.31c0.91-0.04,1.82-0.02,2.74,0.04c0.91,0.07,1.82,0.18,2.73,0.42c-0.82-0.45-1.75-0.7-2.67-0.85
		C73.35,64.36,72.41,64.31,71.47,64.35z"/>
	<path d="M60.71,19.37c0.83,0.25,1.62,0.67,2.39,1.15c0.76,0.49,1.5,1.05,2.25,1.62c-0.5-0.8-1.13-1.52-1.87-2.14
		c-0.73-0.62-1.58-1.14-2.53-1.42c-0.95-0.29-2.04-0.31-2.97,0.08c-0.48,0.18-0.89,0.49-1.24,0.82c-0.34,0.34-0.64,0.71-0.91,1.1
		c0.78-0.53,1.52-1.12,2.34-1.31C59.02,19.06,59.89,19.13,60.71,19.37z"/>
	<path d="M43.16,20.43c0.41-0.31,0.82-0.61,1.27-0.85c0.44-0.24,0.9-0.45,1.38-0.6c0.94-0.3,1.95-0.34,2.93-0.09
		c0.98,0.25,1.9,0.76,2.76,1.4c-0.61-0.89-1.5-1.62-2.57-2.02c-1.06-0.41-2.28-0.44-3.38-0.09c-0.54,0.18-1.05,0.42-1.53,0.71
		c-0.47,0.3-0.92,0.65-1.3,1.04c-0.78,0.78-1.4,1.72-1.76,2.74C41.63,21.83,42.35,21.07,43.16,20.43z"/>
	<path d="M24.61,14.25c0.49-0.01,0.97,0.01,1.44,0.08c0.46,0.07,0.91,0.2,1.27,0.41c0.18,0.1,0.32,0.24,0.43,0.38
		c0.11,0.15,0.19,0.31,0.23,0.51c0.04,0.18,0.04,0.4,0.03,0.6c-0.02,0.19-0.08,0.39-0.17,0.59c-0.09,0.2-0.21,0.41-0.33,0.62
		l-0.4,0.66c-0.26,0.44-0.52,0.89-0.76,1.35c-0.49,0.92-0.92,1.9-1.18,2.93c-0.19,0.75-0.31,1.52-0.34,2.28v0
		c-0.01,0.29-0.02,0.57-0.01,0.86c0.05,1.05,0.22,2.09,0.51,3.1c0.14,0.5,0.31,0.99,0.5,1.47c0.1,0.24,0.19,0.48,0.3,0.72
		c0.05,0.12,0.1,0.24,0.16,0.35l0.09,0.18l0.04,0.09l0.02,0.03c-0.01,0.04-0.01,0.06,0,0.06c0.01-0.01,0.01-0.01,0.02-0.01
		c0.01,0,0.01,0.01,0.01,0.01l0.29-0.15l0.04-0.02c0,0,0-0.01,0-0.01c0.01,0,0.01,0,0.02,0c0.01,0-0.01-0.01-0.03-0.01h0l0-0.01
		l-0.02-0.04l-0.04-0.09l-0.07-0.15c0-0.01-0.01-0.01-0.01-0.02c-0.27-0.81-0.55-1.62-0.77-2.44c0-0.01-0.01-0.03-0.01-0.04
		c0-0.01,0-0.01,0-0.02c-0.16-0.99-0.2-1.98-0.14-2.97c0.06-0.98,0.18-1.96,0.41-2.9c0.24-0.94,0.62-1.85,1.08-2.73
		c0.23-0.44,0.48-0.87,0.74-1.31l0.39-0.65c0.13-0.23,0.27-0.47,0.39-0.73c0.11-0.26,0.21-0.56,0.24-0.87
		c0.02-0.3,0.03-0.6-0.04-0.91c-0.11-0.63-0.58-1.2-1.1-1.5c-0.52-0.31-1.08-0.45-1.62-0.53c-0.54-0.08-1.08-0.1-1.6-0.08
		c-1.06,0.04-2.09,0.19-3.12,0.44c-1.04,0.27-1.99,0.68-2.93,1.13c-0.47,0.23-0.92,0.47-1.37,0.72L16.5,16
		c-0.22,0.14-0.45,0.27-0.66,0.42c-0.86,0.58-1.69,1.24-2.41,2c-0.73,0.76-1.36,1.61-1.86,2.54c-0.39,0.72-0.7,1.48-0.92,2.26
		c0,0.01,0,0.01-0.01,0.02c-0.28,1-0.43,2.03-0.45,3.06c-0.04,2.32,0.58,4.64,1.84,6.57c0.01,0.01,0.01,0.02,0.02,0.03l0.35-0.22
		c-0.29-0.49-0.54-1-0.76-1.52c-0.16-0.4-0.31-0.81-0.43-1.22c-0.26-0.96-0.41-1.95-0.43-2.94c-0.01-0.99,0.1-1.98,0.34-2.94
		c0.25-0.96,0.6-1.89,1.08-2.75c0.48-0.86,1.08-1.64,1.77-2.34c0.69-0.7,1.48-1.31,2.31-1.85c0.83-0.54,1.73-1,2.63-1.44
		c0.9-0.42,1.83-0.8,2.77-1.04C22.64,14.41,23.63,14.27,24.61,14.25z"/>
	<path d="M66.08,49.1c-1.32,0.19-2.61,0.56-3.81,1.14c-1.2,0.57-2.3,1.34-3.21,2.29c1.06-0.77,2.19-1.41,3.39-1.89
		c1.19-0.48,2.44-0.82,3.71-0.99c1.27-0.18,2.56-0.19,3.84-0.06c1.28,0.14,2.54,0.45,3.77,0.92c-1.13-0.67-2.4-1.12-3.7-1.35
		C68.74,48.93,67.4,48.92,66.08,49.1z"/>
	<path d="M62.5,42.66c-1.42,0.14-2.84,0.46-4.16,1.03c-1.32,0.56-2.53,1.37-3.51,2.4c1.13-0.86,2.36-1.53,3.67-2
		c1.31-0.47,2.67-0.75,4.06-0.88c1.38-0.14,2.78-0.13,4.18-0.04c1.4,0.09,2.79,0.28,4.19,0.49c-1.35-0.43-2.74-0.74-4.15-0.92
		C65.36,42.57,63.93,42.53,62.5,42.66z"/>
	<path d="M58.69,36.9c1.4-0.12,2.82-0.06,4.21,0.17c1.39,0.23,2.76,0.65,4.07,1.23c-1.2-0.79-2.57-1.33-3.99-1.66
		c-1.42-0.33-2.89-0.42-4.34-0.3c-1.45,0.13-2.89,0.46-4.23,1.02c-1.34,0.55-2.6,1.32-3.66,2.29c1.2-0.79,2.48-1.43,3.81-1.89
		C55.9,37.31,57.28,37.01,58.69,36.9z"/>
</g>
</svg>
