<svg width="100" height="100" viewBox="0 0 100 100" fill="none" xmlns="http://www.w3.org/2000/svg">
<path d="M62.9366 60.0608L72.7601 71.7652L60.627 62.5044C57.8065 60.3609 53.7408 62.1829 53.4427 65.7305L51.5059 89L48.3979 66.256C47.9083 62.644 43.5981 61.0789 40.9267 63.5334L15 87.3922L37.7443 60.8647C40.139 58.0779 38.3829 53.7261 34.7323 53.4155L15.149 51.5076L35.2432 48.3351C38.7447 47.8524 40.3414 43.6618 38.0637 40.9392L28.24 29.235L40.3624 38.4956C43.1829 40.6391 47.2484 38.8171 47.5468 35.2695L49.4941 12L52.5913 34.744C53.0917 38.356 57.4019 39.9211 60.0628 37.4666L86 13.6078L63.2452 40.1353C60.8504 42.9221 62.6171 47.2739 66.2677 47.5845L85.851 49.4924L65.7462 52.6649C62.2447 53.1476 60.659 57.3382 62.9366 60.0608Z" fill="url(#paint0_linear)"/>
<defs>
<linearGradient id="paint0_linear" x1="37.791" y1="39.3705" x2="56.2616" y2="55.3192" gradientUnits="userSpaceOnUse">
<stop stop-color="#FFC10B"/>
<stop offset="1" stop-color="#FB3F2E"/>
</linearGradient>
</defs>
</svg>
