<svg width="100" height="100" viewBox="0 0 100 100" fill="none" xmlns="http://www.w3.org/2000/svg">
<g clip-path="url(#clip0)">
<path d="M60.367 66.306C58.5251 66.306 56.9114 64.7923 56.9114 63.0642V50.1925C56.9114 49.6056 56.4327 49.1269 55.8458 49.1269H53.2859L53.272 66.2198L39.7138 65.9944V36.736C39.7138 35.2084 40.9602 33.9647 42.4906 33.9647H50.4955C52.0259 33.9647 53.2724 35.2084 53.2724 36.736C53.2724 36.736 53.2724 36.8556 53.2724 37.0672C53.2724 38.8591 53.2642 47.3012 53.0722 47.3126C53.0861 47.3126 55.8156 47.3126 55.8156 47.3126C57.3847 47.3126 58.659 48.5869 58.659 50.1562L58.6422 63.0642C58.6422 63.9158 59.5689 64.5751 60.3674 64.5751C61.2299 64.5751 62.3233 63.8628 62.2734 62.6664L60.9073 55.301L60.6039 52.805L60.8207 45.5257L60.2114 45.5175C58.8538 45.5175 57.7547 44.4212 57.7547 43.0689L57.8217 39.2597C57.8217 39.2597 55.5652 37.0198 55.5652 36.7053C55.5652 36.7053 56.4335 35.8399 56.7476 35.8399L61.2941 40.3642C62.0063 41.0822 62.3514 41.9363 62.3514 42.988V52.8046C62.3514 52.8046 62.6324 54.9305 62.6324 54.9473C62.6324 54.9473 64.0235 62.6354 64.0541 63.0639C64.0538 64.923 62.106 66.306 60.367 66.306ZM66.9417 27.9184H33.456C30.5542 27.9184 28.1973 30.2752 28.1973 33.18V66.6622C28.1973 69.5671 30.5538 71.9238 33.456 71.9238H66.9414C69.8432 71.9238 72.2001 69.5671 72.2001 66.6622V33.18C72.2005 30.2752 69.8435 27.9184 66.9417 27.9184Z" fill="#231F20"/>
<path d="M33.4558 28.8089C31.0462 28.8089 29.0874 30.7706 29.0874 33.18V66.6622C29.0874 69.0745 31.0462 71.0362 33.4558 71.0362H66.9411C69.3533 71.0362 71.3096 69.0745 71.3096 66.6622V33.18C71.3096 30.7702 69.3536 28.8089 66.9411 28.8089H33.4558V28.8089Z" fill="white"/>
<path d="M51.2606 43.4867C51.2606 43.9123 50.9241 44.2435 50.4956 44.2435H42.4907C42.0594 44.2435 41.7257 43.9123 41.7257 43.4867V36.736C41.7257 36.3103 42.0598 35.9791 42.4907 35.9791H50.4956C50.9241 35.9791 51.2606 36.3103 51.2606 36.736V43.4867V43.4867ZM60.5926 44.3489C59.5797 44.1263 59.2125 43.606 59.2125 43.1273V41.3828C59.2125 41.3828 59.886 41.5331 60.0473 41.5748C60.3757 41.661 60.5844 42.1646 60.5926 42.6045C60.6036 43.044 60.5926 44.3489 60.5926 44.3489ZM62.6318 54.9476C62.6318 54.9309 62.3508 52.805 62.3508 52.805V42.9884C62.3508 41.9366 62.0057 41.0822 61.2934 40.3645L56.7473 35.8402C56.4328 35.8402 55.5649 36.7057 55.5649 36.7057C55.5649 37.0202 57.8214 39.2601 57.8214 39.2601L57.7545 43.0692C57.7545 44.4216 58.8535 45.5179 60.2111 45.5179L60.8205 45.5261L60.6036 52.8053L60.907 55.3013L62.2732 62.6667C62.3234 63.8631 61.2297 64.5754 60.3671 64.5754C59.5687 64.5754 58.642 63.9158 58.642 63.0646L58.6587 50.1565C58.6587 48.5873 57.3845 47.3129 55.8153 47.3129C55.8153 47.3129 53.0858 47.3129 53.072 47.3129C53.2639 47.3019 53.2721 38.8598 53.2721 37.0675C53.2721 36.856 53.2721 36.7363 53.2721 36.7363C53.2721 35.2087 52.0256 33.965 50.4953 33.965H42.4907C40.9604 33.965 39.7139 35.2087 39.7139 36.7363V65.9944L53.2721 66.2198L53.286 49.1269H55.8459C56.4328 49.1269 56.9115 49.6055 56.9115 50.1925V63.0646C56.9115 64.7927 58.5252 66.3064 60.3671 66.3064C62.1062 66.3064 64.0539 64.9234 64.0539 63.0646C64.0233 62.6358 62.6318 54.9476 62.6318 54.9476Z" fill="#231F20"/>
</g>
<defs>
<clipPath id="clip0">
<rect width="44" height="44" fill="white" transform="translate(28 28)"/>
</clipPath>
</defs>
</svg>
