<svg width="100" height="100" viewBox="0 0 100 100" fill="none" xmlns="http://www.w3.org/2000/svg">
<path d="M50.074 73C38.9883 73 30 64.1304 30 53.1913C30 42.5478 48.1265 23.7739 48.8755 23.0348L49.7744 22L50.6732 23.0348C51.4222 23.7739 69.9982 42.5478 69.9982 53.1913C70.148 64.1304 61.1596 73 50.074 73V73ZM49.9242 25.8435C48.2763 27.6174 44.9806 31.1652 41.6849 35.6C35.8424 43.287 32.6965 49.3478 32.6965 53.1913C32.6965 62.6522 40.4864 70.3391 50.074 70.3391C59.6616 70.3391 67.4515 62.6522 67.4515 53.1913C67.4515 49.3478 64.3055 43.287 58.3133 35.6C55.0176 31.313 51.572 27.6174 49.9242 25.8435Z" fill="url(#paint0_linear)"/>
<path d="M49.9268 80C35.5718 80 24 68.226 24 53.6202C24 39.4615 43.4817 19.6394 44.3606 18.7452C44.9465 18.2981 45.6789 18.2981 46.2648 18.7452C46.7042 19.3413 46.7042 20.0865 46.2648 20.6827C45.9718 20.8317 26.6366 40.5048 26.6366 53.6202C26.6366 66.7356 37.0366 77.3173 49.9268 77.3173C62.8169 77.3173 73.2169 66.7356 73.2169 53.6202C73.2169 48.2548 69.8479 40.8029 63.4028 32.1587C58.4225 25.4519 53.4423 20.3846 53.4423 20.3846C52.8563 19.9375 52.8563 19.0433 53.4423 18.4471C53.8817 17.851 54.7606 17.851 55.3465 18.4471C56.2254 19.3413 76 39.4615 76 53.6202C75.8535 68.226 64.2817 80 49.9268 80V80Z" fill="url(#paint1_radial)"/>
<path d="M50 86C32.4372 86 18 71.6665 18 54.2299C18 46.9892 21.7209 38.1231 28.8651 27.7794C34.2233 20.2432 39.4326 14.7758 39.7302 14.4802C40.1767 13.8892 41.0698 13.8892 41.6651 14.4802C42.2605 14.9236 42.2605 15.8102 41.6651 16.4012C41.6651 16.4012 36.307 21.8686 31.0977 29.4048C24.2512 39.1575 20.6791 47.7281 20.6791 54.3776C20.6791 70.4843 33.9256 83.4879 50 83.4879C66.0744 83.4879 79.3209 70.1888 79.3209 54.2299C79.3209 47.5803 75.7488 39.0097 68.9023 29.2571C63.693 21.8686 58.3349 16.4012 58.3349 16.2535C57.8884 15.6624 57.8884 14.9236 58.3349 14.3325C58.9302 13.8892 59.6744 13.8892 60.2698 14.3325C61.014 15.3669 82 36.941 82 54.2299C82 71.6665 67.7116 86 50 86Z" fill="url(#paint2_angular)"/>
<defs>
<linearGradient id="paint0_linear" x1="50.103" y1="73.0188" x2="50.103" y2="22.0741" gradientUnits="userSpaceOnUse">
<stop stop-color="#05AAC5"/>
<stop offset="1" stop-color="#C571EC"/>
</linearGradient>
<radialGradient id="paint1_radial" cx="0" cy="0" r="1" gradientUnits="userSpaceOnUse" gradientTransform="translate(49.9553 49.0397) rotate(-90) scale(30.9472 30.4157)">
<stop stop-color="#BD2222"/>
<stop offset="1" stop-color="#5200FF" stop-opacity="0.62"/>
</radialGradient>
<radialGradient id="paint2_angular" cx="0" cy="0" r="1" gradientUnits="userSpaceOnUse" gradientTransform="translate(49 52.5) rotate(-88.4675) scale(38.4768 38.7552)">
<stop offset="0.329817" stop-color="#B50000"/>
<stop offset="0.727839" stop-color="#FF9900"/>
<stop offset="1" stop-color="#ECFF75"/>
</radialGradient>
</defs>
</svg>
