<?xml version="1.0" encoding="UTF-8"?>
<svg xmlns="http://www.w3.org/2000/svg" xmlns:xlink="http://www.w3.org/1999/xlink" width="100pt" height="100pt" viewBox="0 0 100 100" version="1.1">
<g id="surface1">
<path style=" stroke:none;fill-rule:nonzero;fill:rgb(0%,0%,0%);fill-opacity:1;" d="M 0 50 L 0 100 L 100 100 L 100 0 L 0 0 Z M 36.488281 26.449219 C 36.488281 30.296875 36.476562 32.671875 36.460938 32.9375 C 36.386719 33.996094 36.167969 34.878906 35.804688 35.609375 C 34.84375 37.539062 33.082031 38.574219 30.28125 38.84375 C 29.609375 38.910156 28.265625 38.910156 27.597656 38.84375 C 24.796875 38.566406 23.007812 37.515625 22.085938 35.609375 C 21.683594 34.785156 21.476562 33.90625 21.421875 32.78125 C 21.40625 32.496094 21.390625 32.207031 21.390625 32.136719 L 21.390625 32.015625 L 26.875 32.015625 L 26.875 32.230469 C 26.875 33.03125 27.050781 33.675781 27.359375 34.007812 C 27.550781 34.21875 27.722656 34.328125 28.015625 34.429688 C 28.234375 34.507812 28.273438 34.511719 28.753906 34.511719 C 29.164062 34.511719 29.289062 34.5 29.429688 34.460938 C 29.984375 34.285156 30.335938 33.9375 30.496094 33.402344 C 30.632812 32.949219 30.628906 33.113281 30.628906 26.550781 L 30.628906 20.382812 L 36.488281 20.382812 Z M 51.640625 20.617188 C 51.6875 20.75 53.175781 24.828125 54.949219 29.6875 C 56.71875 34.542969 58.167969 38.535156 58.167969 38.554688 C 58.167969 38.589844 57.664062 38.597656 55.097656 38.597656 C 53.121094 38.597656 52.019531 38.589844 52.007812 38.566406 C 51.996094 38.554688 51.820312 37.980469 51.613281 37.292969 C 51.410156 36.605469 51.230469 36.035156 51.21875 36.023438 C 51.203125 36.007812 49.769531 36 48.027344 36.003906 L 44.855469 36.011719 L 44.511719 37.152344 C 44.320312 37.78125 44.148438 38.363281 44.121094 38.445312 L 44.078125 38.597656 L 41.089844 38.597656 C 38.257812 38.597656 38.101562 38.59375 38.113281 38.546875 C 38.121094 38.519531 39.605469 34.453125 41.410156 29.519531 C 43.214844 24.578125 44.707031 20.503906 44.722656 20.460938 L 44.75 20.382812 L 51.554688 20.382812 Z M 63.609375 20.429688 C 64.855469 24.574219 67.234375 32.511719 67.234375 32.523438 C 67.234375 32.53125 67.261719 32.535156 67.296875 32.527344 C 67.351562 32.519531 67.527344 31.972656 69.195312 26.453125 L 71.03125 20.382812 L 74.011719 20.382812 C 75.648438 20.382812 76.992188 20.386719 76.992188 20.394531 C 76.992188 20.402344 71.636719 35.59375 70.648438 38.386719 L 70.574219 38.597656 L 63.824219 38.597656 L 63.789062 38.5 C 63.734375 38.382812 57.363281 20.414062 57.363281 20.394531 C 57.363281 20.386719 58.765625 20.382812 60.476562 20.382812 C 63.421875 20.382812 63.59375 20.382812 63.609375 20.429688 Z M 79.359375 50.1875 L 79.359375 60.449219 L 57.558594 60.449219 C 35.851562 60.449219 35.753906 60.445312 36.023438 60.390625 C 36.71875 60.242188 37.355469 59.859375 37.898438 59.253906 C 38.46875 58.621094 38.996094 57.582031 39.316406 56.445312 C 39.796875 54.75 40.011719 52.839844 40.011719 50.316406 C 40.011719 46.335938 39.402344 43.480469 38.183594 41.773438 C 37.960938 41.460938 37.496094 40.996094 37.203125 40.796875 C 36.339844 40.203125 35.214844 40.050781 34.195312 40.390625 C 33.734375 40.542969 33.355469 40.785156 32.925781 41.195312 C 31.574219 42.496094 30.804688 45.035156 30.625 48.800781 C 30.589844 49.609375 30.605469 51.859375 30.65625 52.527344 C 30.894531 55.679688 31.5 57.75 32.566406 59.097656 C 33.132812 59.808594 33.902344 60.28125 34.714844 60.417969 C 34.796875 60.433594 32.960938 60.445312 30.515625 60.445312 C 26.707031 60.445312 26.191406 60.4375 26.355469 60.402344 C 27.792969 60.09375 28.707031 58.992188 29.210938 56.96875 C 29.628906 55.28125 29.667969 52.769531 29.296875 51.285156 C 28.972656 49.972656 28.46875 49.144531 27.605469 48.507812 C 27.167969 48.179688 26.964844 48.070312 25.765625 47.503906 C 25.28125 47.273438 25.035156 47.117188 24.828125 46.890625 C 24.511719 46.554688 24.40625 46.234375 24.429688 45.699219 C 24.441406 45.460938 24.457031 45.359375 24.515625 45.214844 C 24.625 44.957031 24.753906 44.785156 24.925781 44.671875 C 25.121094 44.550781 25.25 44.515625 25.542969 44.515625 C 25.742188 44.515625 25.8125 44.53125 25.9375 44.589844 C 26.382812 44.796875 26.675781 45.5 26.675781 46.355469 L 26.675781 46.59375 L 29.300781 46.59375 L 29.304688 46.484375 C 29.375 43.953125 28.644531 41.800781 27.402344 40.863281 C 26.320312 40.042969 24.804688 39.996094 23.644531 40.746094 C 23.378906 40.914062 22.992188 41.289062 22.761719 41.597656 C 22.285156 42.230469 21.917969 43.148438 21.722656 44.210938 C 21.484375 45.503906 21.488281 47.523438 21.726562 48.714844 C 22.042969 50.289062 22.628906 51.3125 23.613281 52.039062 C 24.054688 52.363281 24.363281 52.535156 25.042969 52.839844 C 26 53.273438 26.433594 53.621094 26.597656 54.113281 C 26.664062 54.308594 26.691406 54.8125 26.648438 55.070312 C 26.566406 55.527344 26.300781 55.832031 25.902344 55.914062 C 25.703125 55.957031 25.300781 55.957031 25.070312 55.914062 C 24.71875 55.855469 24.445312 55.617188 24.292969 55.234375 C 24.1875 54.96875 24.101562 54.503906 24.085938 54.097656 C 24.078125 53.898438 24.066406 53.683594 24.058594 53.613281 L 24.042969 53.492188 L 21.390625 53.492188 L 21.390625 53.644531 C 21.390625 53.980469 21.453125 55.0625 21.492188 55.46875 C 21.71875 57.714844 22.449219 59.285156 23.585938 59.960938 C 23.925781 60.164062 24.484375 60.347656 24.949219 60.417969 C 25.066406 60.433594 24.363281 60.445312 23.003906 60.449219 L 20.871094 60.449219 L 20.871094 39.925781 L 79.359375 39.925781 Z M 35.75 45.015625 C 35.847656 45.058594 35.980469 45.140625 36.050781 45.199219 C 36.535156 45.597656 36.890625 46.523438 37.050781 47.808594 C 37.183594 48.855469 37.183594 51.738281 37.050781 52.859375 C 36.929688 53.929688 36.65625 54.757812 36.269531 55.242188 C 35.976562 55.613281 35.695312 55.757812 35.277344 55.753906 C 34.644531 55.746094 34.1875 55.28125 33.859375 54.296875 C 33.539062 53.339844 33.4375 52.167969 33.46875 49.8125 C 33.488281 48.480469 33.503906 48.152344 33.601562 47.503906 C 33.753906 46.457031 34.019531 45.765625 34.429688 45.324219 C 34.710938 45.019531 34.949219 44.917969 35.335938 44.929688 C 35.53125 44.933594 35.613281 44.949219 35.75 45.015625 Z M 35.75 45.015625 "/>
<path style=" stroke:none;fill-rule:nonzero;fill:rgb(0%,0%,0%);fill-opacity:1;" d="M 47.042969 28.660156 C 46.519531 30.417969 46.089844 31.875 46.082031 31.890625 C 46.070312 31.917969 46.476562 31.929688 48.035156 31.929688 C 49.117188 31.929688 50 31.917969 50 31.910156 C 50 31.898438 49.578125 30.449219 49.0625 28.6875 C 48.546875 26.929688 48.125 25.480469 48.125 25.476562 C 48.125 25.46875 48.09375 25.460938 48.058594 25.460938 C 47.996094 25.460938 47.9375 25.648438 47.042969 28.660156 Z M 47.042969 28.660156 "/>
<path style=" stroke:none;fill-rule:nonzero;fill:rgb(0%,0%,0%);fill-opacity:1;" d="M 41.507812 45.761719 C 41.5 48.625 41.5 53.027344 41.507812 55.550781 L 41.511719 60.132812 L 45.144531 60.128906 L 48.773438 60.117188 L 48.773438 55.125 L 44.3125 55.109375 L 44.3125 40.558594 L 41.511719 40.558594 Z M 41.507812 45.761719 "/>
<path style=" stroke:none;fill-rule:nonzero;fill:rgb(0%,0%,0%);fill-opacity:1;" d="M 52.324219 40.59375 C 52.316406 40.613281 52.273438 40.886719 52.222656 41.195312 C 52.128906 41.796875 51.734375 44.199219 50.160156 53.882812 C 49.609375 57.25 49.164062 60.03125 49.164062 60.066406 L 49.164062 60.132812 L 50.59375 60.132812 C 51.378906 60.132812 52.019531 60.125 52.019531 60.113281 C 52.019531 60.074219 52.371094 57.488281 52.382812 57.425781 L 52.394531 57.363281 L 55.421875 57.363281 L 55.4375 57.46875 C 55.449219 57.527344 55.527344 58.109375 55.613281 58.761719 C 55.703125 59.410156 55.78125 59.988281 55.789062 60.039062 L 55.804688 60.132812 L 58.78125 60.132812 L 58.765625 60.050781 C 58.753906 60.007812 58.6875 59.617188 58.617188 59.179688 C 58.546875 58.746094 58.449219 58.148438 58.402344 57.851562 C 58.042969 55.640625 56.207031 44.339844 56.105469 43.707031 C 56.035156 43.269531 55.890625 42.394531 55.789062 41.761719 C 55.683594 41.128906 55.601562 40.601562 55.601562 40.585938 C 55.601562 40.570312 54.882812 40.558594 53.96875 40.558594 C 52.6875 40.558594 52.332031 40.570312 52.324219 40.59375 Z M 54.386719 49.453125 C 54.625 51.316406 54.828125 52.871094 54.839844 52.90625 L 54.851562 52.972656 L 52.96875 52.972656 L 52.980469 52.878906 C 52.992188 52.828125 53.195312 51.289062 53.433594 49.464844 C 53.675781 47.636719 53.878906 46.113281 53.886719 46.078125 C 53.894531 46.039062 53.910156 46.019531 53.921875 46.035156 C 53.933594 46.046875 54.144531 47.585938 54.386719 49.453125 Z M 54.386719 49.453125 "/>
<path style=" stroke:none;fill-rule:nonzero;fill:rgb(0%,0%,0%);fill-opacity:1;" d="M 59.785156 50.347656 L 59.785156 60.132812 L 62.355469 60.132812 L 62.355469 55.402344 C 62.355469 52.730469 62.367188 50.699219 62.382812 50.722656 C 62.394531 50.746094 62.789062 51.753906 63.253906 52.960938 C 63.71875 54.164062 64.53125 56.269531 65.054688 57.636719 L 66.011719 60.117188 L 67.246094 60.128906 L 68.476562 60.132812 L 68.476562 40.558594 L 65.878906 40.558594 L 65.871094 45.328125 L 65.863281 50.09375 L 64.054688 45.332031 L 62.25 40.574219 L 61.015625 40.566406 L 59.785156 40.558594 Z M 59.785156 50.347656 "/>
<path style=" stroke:none;fill-rule:nonzero;fill:rgb(0%,0%,0%);fill-opacity:1;" d="M 72.335938 42.128906 C 72.195312 42.988281 71.964844 44.40625 71.820312 45.28125 C 71.578125 46.777344 71.308594 48.421875 70.0625 56.078125 C 69.515625 59.449219 69.4375 59.925781 69.410156 60.050781 L 69.394531 60.132812 L 72.285156 60.132812 L 72.300781 59.980469 C 72.3125 59.898438 72.394531 59.277344 72.484375 58.601562 L 72.648438 57.375 L 74.171875 57.367188 C 75.007812 57.363281 75.691406 57.367188 75.691406 57.375 C 75.691406 57.414062 76.042969 60.011719 76.054688 60.066406 L 76.066406 60.132812 L 79.042969 60.132812 L 79.027344 60.066406 C 79.019531 60.03125 78.851562 58.996094 78.652344 57.765625 C 78.453125 56.535156 78.25 55.289062 78.203125 54.996094 C 78.152344 54.699219 77.925781 53.3125 77.699219 51.90625 C 76.972656 47.4375 76.445312 44.183594 76.285156 43.203125 C 76.199219 42.675781 76.066406 41.867188 75.992188 41.402344 L 75.855469 40.558594 L 72.589844 40.558594 Z M 74.652344 49.503906 L 75.105469 52.960938 L 74.183594 52.96875 C 73.675781 52.96875 73.253906 52.96875 73.246094 52.960938 C 73.242188 52.957031 73.300781 52.460938 73.378906 51.859375 C 73.621094 50.0625 73.925781 47.757812 74.03125 46.925781 C 74.144531 46.074219 74.15625 46 74.183594 46.027344 C 74.195312 46.035156 74.40625 47.601562 74.652344 49.503906 Z M 74.652344 49.503906 "/>
</g>
</svg>
