<svg width="100" height="100" viewBox="0 0 100 100" fill="none" xmlns="http://www.w3.org/2000/svg">
<circle cx="50" cy="50" r="50" fill="#F7D8FB"/>
<mask id="mask0" mask-type="alpha" maskUnits="userSpaceOnUse" x="0" y="0" width="100" height="100">
<circle cx="50" cy="50" r="50" fill="#C4C4C4"/>
</mask>
<g mask="url(#mask0)">
<rect x="41.4352" y="46.9905" width="3.24074" height="3.24074" fill="white" fill-opacity="0.56"/>
<rect x="38.1943" y="50.2312" width="3.24074" height="3.24074" fill="white" fill-opacity="0.56"/>
<path fill-rule="evenodd" clip-rule="evenodd" d="M41.435 14.5833H38.1943V17.8239H34.9536V43.7498H41.4351V17.8239H41.435V14.5833ZM31.7128 30.7865H28.4721V34.0273H31.7128V30.7865ZM25.2314 34.0274H31.7128H31.7129H34.9536V98.8423H31.7129H25.2314V34.0274ZM-20.139 102.083H-3.93534V150.694H-3.93517V157.176H-3.93534V157.176H-7.17608V166.898H-10.4167V176.62H-16.8981V166.898H-20.139V157.176V157.176L-20.139 157.176H-23.3797V105.324H-20.139V102.083ZM-0.694434 176.62V166.898H2.54622L2.54618 160.416H5.78692L5.78688 157.176V153.935H-0.694599V157.176L-3.93526 157.176V166.898H-7.17592V176.62H-0.694434ZM38.1944 166.898V157.176H25.2314V166.898H28.4721V176.62H34.9536V166.898H38.1944ZM38.1944 166.898L38.1943 176.62H44.6758V166.898H47.9167L47.9166 160.416H51.1574L51.1573 157.176V153.935H44.6759V157.176L41.4352 157.176V166.898H38.1944ZM-23.3797 111.805H-26.6205V150.694H-23.3797V111.805ZM21.9906 95.6017H25.2314V98.8423H34.9536V63.1941H41.4351V98.8423H41.4352V66.435H44.6759V69.6757H47.9166H51.1574V72.9166H54.398V85.8795L54.3981 79.3981V79.3979V72.9166H57.6387H57.6388H60.8795V76.1573H57.6388V79.3979V79.3981V98.8423H60.8795H64.1203V134.49H64.1203V137.731H60.8795L60.8795 134.49V144.213H57.6387L57.6388 147.453H54.3981V150.694H44.6759V134.49H41.4351V140.972H41.4351V157.176H21.9906V140.972H18.75V134.49V102.083V98.8423H21.9906V95.6017ZM-0.694599 102.083H-3.93526V137.731H-0.694599V150.694H18.7498V102.083H-0.694516H-0.694599ZM41.4352 30.7865H44.6759H44.6759H47.9166V43.7495H44.6759V40.5088H41.4352V30.7865ZM47.9166 30.7865H64.1203V40.5088H47.9166V30.7865ZM44.6759 24.3056V27.546H47.9166V24.3056V24.3052V21.0648H44.6759V24.3052V24.3056ZM51.1574 17.8239H47.9166V27.5461H51.1574V17.8239Z" fill="#D83AEB"/>
<rect x="47.9167" y="72.9165" width="3.24074" height="3.24074" fill="black" fill-opacity="0.24"/>
<rect x="51.1573" y="76.1567" width="3.24074" height="3.24074" fill="black" fill-opacity="0.24"/>
<rect x="54.3981" y="76.1567" width="3.24074" height="3.24074" fill="black" fill-opacity="0.24"/>
<rect x="38.1943" y="63.1941" width="3.24074" height="3.24074" fill="black" fill-opacity="0.24"/>
<rect x="47.9167" y="21.0647" width="3.24074" height="3.24074" fill="black" fill-opacity="0.4"/>
<rect x="47.9167" y="17.8237" width="3.24074" height="3.24074" fill="black" fill-opacity="0.4"/>
<rect x="44.6759" y="21.0647" width="3.24074" height="3.24074" fill="black" fill-opacity="0.4"/>
<rect x="44.6759" y="24.3052" width="3.24074" height="3.24074" fill="black" fill-opacity="0.4"/>
<rect x="47.9167" y="24.3052" width="3.24074" height="3.24074" fill="black" fill-opacity="0.4"/>
<rect x="38.1943" y="14.5833" width="3.24074" height="3.24074" fill="white" fill-opacity="0.28"/>
<rect x="34.9537" y="17.8237" width="3.24074" height="3.24074" fill="white" fill-opacity="0.28"/>
<rect x="57.6388" y="98.8423" width="3.24074" height="3.24074" fill="white" fill-opacity="0.28"/>
<rect x="57.6388" y="92.3606" width="3.24074" height="3.24074" fill="black"/>
<rect x="57.6388" y="89.1196" width="3.24074" height="3.24074" fill="black"/>
<rect x="57.6388" y="85.8794" width="3.24074" height="3.24074" fill="black"/>
<rect x="57.6388" y="82.6384" width="3.24074" height="3.24074" fill="black"/>
<rect x="57.6388" y="79.3977" width="3.24074" height="3.24074" fill="black"/>
<rect x="57.6388" y="72.9165" width="3.24074" height="3.24074" fill="black"/>
<rect x="54.3982" y="72.9165" width="3.24074" height="3.24074" fill="black"/>
<rect x="44.6759" y="69.6755" width="3.24074" height="3.24074" fill="black"/>
<rect x="57.6388" y="76.1567" width="3.24074" height="3.24074" fill="black"/>
<rect x="47.9167" y="69.6755" width="3.24074" height="3.24074" fill="black"/>
<rect x="41.4353" y="66.4351" width="3.24074" height="3.24074" fill="black"/>
<rect x="38.1943" y="63.1941" width="3.24074" height="3.24074" fill="black"/>
<rect x="34.9537" y="59.9531" width="3.24074" height="3.24074" fill="black"/>
<rect x="31.7129" y="56.7126" width="3.24074" height="3.24074" fill="black"/>
<rect x="31.7129" y="53.4719" width="3.24074" height="3.24074" fill="black"/>
<rect x="31.7129" y="50.2312" width="3.24074" height="3.24074" fill="black"/>
<rect x="31.7129" y="46.9902" width="3.24074" height="3.24074" fill="black"/>
<rect x="34.9537" y="43.7498" width="3.24074" height="3.24074" fill="black"/>
<rect x="38.1943" y="40.509" width="3.24074" height="3.24074" fill="black"/>
<rect x="41.4353" y="40.509" width="3.24074" height="3.24074" fill="black"/>
<rect x="44.6759" y="40.509" width="3.24074" height="3.24074" fill="black"/>
<rect x="47.9167" y="40.509" width="3.24074" height="3.24074" fill="black"/>
<rect x="51.1573" y="40.509" width="3.24074" height="3.24074" fill="black"/>
<rect x="54.3982" y="40.509" width="3.24074" height="3.24074" fill="black"/>
<rect x="57.6388" y="40.509" width="3.24074" height="3.24074" fill="black"/>
<rect x="64.1202" y="37.2683" width="3.24074" height="3.24074" fill="black"/>
<rect x="64.1202" y="34.0273" width="3.24074" height="3.24074" fill="black"/>
<rect x="60.8796" y="30.7864" width="3.24074" height="3.24074" fill="black"/>
<rect x="57.6388" y="27.5461" width="3.24074" height="3.24074" fill="black"/>
<rect x="54.3982" y="27.5461" width="3.24074" height="3.24074" fill="black"/>
<rect x="47.9167" y="27.5461" width="3.24074" height="3.24074" fill="black"/>
<rect x="44.6759" y="27.5461" width="3.24074" height="3.24074" fill="black"/>
<rect x="51.1573" y="27.5461" width="3.24074" height="3.24074" fill="black"/>
<rect x="51.1573" y="14.5833" width="3.24074" height="3.24074" fill="black"/>
<rect x="51.1573" y="21.0647" width="3.24074" height="3.24074" fill="black"/>
<rect x="51.1573" y="17.8237" width="3.24074" height="3.24074" fill="black"/>
<rect x="51.1573" y="24.3052" width="3.24074" height="3.24074" fill="black"/>
<rect x="41.4353" y="24.3052" width="3.24074" height="3.24074" fill="black"/>
<rect x="41.4353" y="27.5461" width="3.24074" height="3.24074" fill="black"/>
<rect x="41.4353" y="30.7864" width="3.24074" height="3.24074" fill="black"/>
<rect x="41.4353" y="21.0647" width="3.24074" height="3.24074" fill="black"/>
<rect x="41.4353" y="14.5833" width="3.24074" height="3.24074" fill="black"/>
<rect x="41.4353" y="11.3423" width="3.24074" height="3.24074" fill="black"/>
<rect x="38.1943" y="11.3423" width="3.24074" height="3.24074" fill="black"/>
<rect x="34.9537" y="14.5833" width="3.24074" height="3.24074" fill="black"/>
<rect x="31.7129" y="17.8237" width="3.24074" height="3.24074" fill="black"/>
<rect x="31.7129" y="21.0647" width="3.24074" height="3.24074" fill="black"/>
<rect x="31.7129" y="27.5461" width="3.24074" height="3.24074" fill="black"/>
<rect x="31.7129" y="24.3052" width="3.24074" height="3.24074" fill="black"/>
<rect x="31.7129" y="30.7864" width="3.24074" height="3.24074" fill="black"/>
<rect x="31.7129" y="34.0273" width="3.24074" height="3.24074" fill="black"/>
<rect x="41.4353" y="17.8237" width="3.24074" height="3.24074" fill="black"/>
<rect x="44.6759" y="17.8237" width="3.24074" height="3.24074" fill="black"/>
<rect x="47.9167" y="14.5833" width="3.24074" height="3.24074" fill="black"/>
<rect x="60.8796" y="40.509" width="3.24074" height="3.24074" fill="black"/>
<rect x="64.1202" y="40.509" width="3.24074" height="3.24074" fill="black"/>
<rect x="67.361" y="43.7498" width="3.24074" height="3.24074" fill="black"/>
<rect x="67.361" y="46.9902" width="3.24074" height="3.24074" fill="black"/>
<rect x="73.8425" y="53.4719" width="3.24074" height="3.24074" fill="black"/>
<rect x="70.6019" y="50.2312" width="3.24074" height="3.24074" fill="black"/>
<rect x="77.0834" y="59.9531" width="3.24074" height="3.24074" fill="black"/>
<rect x="77.0834" y="63.1941" width="3.24074" height="3.24074" fill="black"/>
<rect x="77.0834" y="56.7126" width="3.24074" height="3.24074" fill="black"/>
<rect x="73.8425" y="69.6755" width="3.24074" height="3.24074" fill="black"/>
<rect x="77.0834" y="66.4351" width="3.24074" height="3.24074" fill="black"/>
<rect x="70.6019" y="72.9165" width="3.24074" height="3.24074" fill="black"/>
<rect x="67.361" y="72.9165" width="3.24074" height="3.24074" fill="black"/>
<rect x="64.1202" y="72.9165" width="3.24074" height="3.24074" fill="black"/>
<rect x="60.8796" y="72.9165" width="3.24074" height="3.24074" fill="black"/>
<rect x="51.1573" y="72.9165" width="3.24074" height="3.24074" fill="black"/>
<rect x="57.6388" y="95.6016" width="3.24074" height="3.24074" fill="black"/>
<rect x="60.8795" y="98.8423" width="3.24074" height="3.24074" fill="black"/>
<rect x="-0.69458" y="98.8423" width="3.24074" height="3.24074" fill="black"/>
<rect x="2.54626" y="98.8423" width="3.24074" height="3.24074" fill="black"/>
<rect x="5.78699" y="98.8423" width="3.24074" height="3.24074" fill="black"/>
<rect x="9.02771" y="98.8423" width="3.24074" height="3.24074" fill="black"/>
<rect x="12.2686" y="98.8423" width="3.24074" height="3.24074" fill="black"/>
<rect x="15.5093" y="98.8423" width="3.24074" height="3.24074" fill="black"/>
<rect x="18.75" y="95.6016" width="3.24074" height="3.24074" fill="black"/>
<rect x="28.4722" y="27.5461" width="3.24074" height="3.24074" fill="black"/>
<rect x="25.2314" y="30.7864" width="3.24074" height="3.24074" fill="black"/>
<rect x="21.9907" y="34.0273" width="3.24074" height="3.24074" fill="black"/>
<rect x="21.9906" y="85.8794" width="3.24074" height="3.24074" fill="black"/>
<rect x="21.9906" y="76.1567" width="3.24074" height="3.24074" fill="black"/>
<rect x="21.9907" y="72.9165" width="3.24074" height="3.24074" fill="black"/>
<rect x="21.9906" y="79.3977" width="3.24074" height="3.24074" fill="black"/>
<rect x="21.9906" y="82.6384" width="3.24074" height="3.24074" fill="black"/>
<rect x="21.9907" y="66.4351" width="3.24074" height="3.24074" fill="black"/>
<rect x="21.9907" y="63.1941" width="3.24074" height="3.24074" fill="black"/>
<rect x="21.9907" y="59.9531" width="3.24074" height="3.24074" fill="black"/>
<rect x="21.9907" y="69.6755" width="3.24074" height="3.24074" fill="black"/>
<rect x="21.9907" y="56.7126" width="3.24074" height="3.24074" fill="black"/>
<rect x="21.9907" y="37.2683" width="3.24074" height="3.24074" fill="black"/>
<rect x="21.9907" y="50.2312" width="3.24074" height="3.24074" fill="black"/>
<rect x="21.9907" y="53.4719" width="3.24074" height="3.24074" fill="black"/>
<rect x="21.9907" y="46.9902" width="3.24074" height="3.24074" fill="black"/>
<rect x="21.9907" y="43.7498" width="3.24074" height="3.24074" fill="black"/>
<rect x="21.9907" y="40.509" width="3.24074" height="3.24074" fill="black"/>
<rect x="21.9906" y="92.3606" width="3.24074" height="3.24074" fill="black"/>
<rect x="21.9906" y="89.1196" width="3.24074" height="3.24074" fill="black"/>
<path fill-rule="evenodd" clip-rule="evenodd" d="M41.4351 43.75H38.1944V46.9904V46.9907V50.2312H41.4351V46.9907V46.9904V43.75ZM34.9536 46.9904H38.1944V50.2312H34.9536V46.9904ZM34.9536 50.2313H38.1944V53.472V53.4721V56.7127H34.9536V53.4721V53.472V50.2313ZM41.4351 50.2313H38.1944V53.472V53.4721V56.7127H41.4351V53.4721V53.472V50.2313ZM41.4353 53.4721V56.7127H44.676H44.676H47.9167V53.4721V53.472V50.2313H44.676H44.676H41.4353V53.472V53.4721ZM41.4353 56.7129H44.676H44.676H47.9167V59.9533V59.9536V63.194H44.676H44.676H41.4353V59.9536V59.9533V56.7129ZM47.9167 63.1942H44.676H44.676H41.4353V66.4349H44.676H44.676H47.9167V63.1942ZM38.1944 56.7129H41.4351V59.9533V59.9536V63.194H38.1944V59.9536V59.9533V56.7129ZM34.9536 56.7129H38.1944V59.9536H34.9536V56.7129ZM47.9167 56.7129H51.1574H51.1575H54.3981V59.9533V59.9536V63.194H51.1575H51.1574H47.9167V59.9536V59.9533V56.7129ZM47.9167 63.1942H51.1574H51.1575H54.3981V66.4349H51.1575H51.1574H47.9167V63.1942ZM51.1575 66.4351H54.3981V69.6758V69.6758V72.9165H51.1574V69.6758H47.9167V66.4351H51.1574H51.1575ZM44.676 66.4351H47.9167V69.6758H44.676V66.4351ZM57.6388 63.1942H54.3982V66.4349H57.6388H57.6389H60.8796V63.1942H57.6389H57.6388ZM60.8796 56.7129H57.6389H57.6388H54.3982V59.9533V59.9536V63.194H57.6388H57.6389H60.8796V59.9536V59.9533V56.7129ZM67.361 53.4721V56.7127H64.1204H64.1203H60.8796V53.4721V53.472V50.2313H64.1203H64.1204H67.361V53.472V53.4721ZM60.8796 56.7129H64.1203H64.1204H67.361V59.9533V59.9536V63.194H64.1204H64.1203H60.8796V59.9536V59.9533V56.7129ZM70.6018 63.194V59.9536V59.9533V56.7129H67.3611V59.9533V59.9536V63.194H70.6018ZM67.3611 63.1942H70.6018V66.4349H67.3611V63.1942ZM67.361 63.1942H64.1204H64.1203H60.8796V66.4349H64.1203H64.1204H67.361V63.1942ZM60.8796 66.4351H64.1203H64.1204H67.361V69.6758V69.6758V72.9165H64.1204H64.1203H60.8796V69.6758V69.6758V66.4351ZM70.6018 72.9165V69.6758V69.6758V66.4351H67.3611V69.6758V69.6758V72.9165H70.6018ZM60.8796 66.4351H57.6389H57.6388H54.3982V69.6758V69.6758V72.9165H57.6388H57.6389H60.8796V69.6758V69.6758V66.4351ZM67.361 50.2312V46.9907V46.9904V43.75H64.1204H64.1203H60.8796V46.9904V46.9907V50.2312H64.1203H64.1204H67.361ZM60.8796 46.9907V50.2312H57.6389H57.6388H54.3982V46.9907V46.9904V43.75H57.6388H57.6389H60.8796V46.9904V46.9907ZM54.3982 53.4721V56.7127H57.6388H57.6389H60.8796V53.4721V53.472V50.2313H57.6389H57.6388H54.3982V53.472V53.4721ZM54.3981 56.7127V53.4721V53.472V50.2313H51.1575H51.1574H47.9167V53.472V53.4721V56.7127H51.1574H51.1575H54.3981ZM47.9167 46.9907V46.9904V43.75H51.1574H51.1575H54.3981V46.9904V46.9907V50.2312H51.1575H51.1574H47.9167V46.9907ZM47.9167 46.9907V50.2312H44.676H44.676H41.4353V46.9907V46.9904V43.75H44.676H44.676H47.9167V46.9904V46.9907ZM67.3611 53.4721V56.7127H70.6018V53.4721V53.472V50.2313H67.3611V53.472V53.4721ZM73.8426 56.7129H70.602V59.9533V59.9536V63.194H73.8426H73.8427H77.0834V59.9536V59.9533V56.7129H73.8427H73.8426ZM70.602 53.472H73.8427V56.7127H70.602V53.472ZM70.602 63.1942H73.8426H73.8427H77.0834V66.4349H73.8427H73.8426H70.602V63.1942ZM70.602 66.4351H73.8426H73.8427H77.0834V69.6758H73.8427V72.9165H70.602V69.6758V69.6758V66.4351Z" fill="#F6D4FB"/>
<path fill-rule="evenodd" clip-rule="evenodd" d="M64.1206 66.4348H67.3613V69.6756H64.1206V66.4348ZM60.8796 66.4349H64.1204V69.6756H60.8796V66.4349ZM70.6021 66.4348H67.3614V69.6756H70.6021V66.4348Z" fill="black"/>
<rect x="47.9167" y="53.4722" width="3.24074" height="3.24074" fill="black"/>
<rect x="51.1575" y="53.4722" width="3.24074" height="3.24074" fill="white"/>
<rect x="64.1204" y="53.4722" width="3.24074" height="3.24074" fill="black"/>
<rect x="67.3611" y="53.4722" width="3.24074" height="3.24074" fill="white"/>
<rect x="47.9167" y="50.2314" width="6.48148" height="3.24074" fill="black" fill-opacity="0.24"/>
<rect x="64.1204" y="50.2314" width="6.48148" height="3.24074" fill="black" fill-opacity="0.24"/>
</g>
</svg>
