<svg width="100" height="100" viewBox="0 0 100 100" fill="none" xmlns="http://www.w3.org/2000/svg">
<rect x="17" y="17" width="65" height="65" fill="#0075FF"/>
<path d="M49.1875 52.8438C44.0417 51.3646 40.2917 49.5521 37.9375 47.4062C35.6042 45.2396 34.4375 42.5729 34.4375 39.4062C34.4375 35.8229 35.8646 32.8646 38.7188 30.5312C41.5938 28.1771 45.3229 27 49.9062 27C53.0312 27 55.8125 27.6042 58.25 28.8125C60.7083 30.0208 62.6042 31.6875 63.9375 33.8125C65.2917 35.9375 65.9688 38.2604 65.9688 40.7812H59.9375C59.9375 38.0312 59.0625 35.875 57.3125 34.3125C55.5625 32.7292 53.0938 31.9375 49.9062 31.9375C46.9479 31.9375 44.6354 32.5938 42.9688 33.9062C41.3229 35.1979 40.5 37 40.5 39.3125C40.5 41.1667 41.2812 42.7396 42.8438 44.0312C44.4271 45.3021 47.1042 46.4688 50.875 47.5312C54.6667 48.5938 57.625 49.7708 59.75 51.0625C61.8958 52.3333 63.4792 53.8229 64.5 55.5312C65.5417 57.2396 66.0625 59.25 66.0625 61.5625C66.0625 65.25 64.625 68.2083 61.75 70.4375C58.875 72.6458 55.0312 73.75 50.2188 73.75C47.0938 73.75 44.1771 73.1562 41.4688 71.9688C38.7604 70.7604 36.6667 69.1146 35.1875 67.0312C33.7292 64.9479 33 62.5833 33 59.9375H39.0312C39.0312 62.6875 40.0417 64.8646 42.0625 66.4688C44.1042 68.0521 46.8229 68.8438 50.2188 68.8438C53.3854 68.8438 55.8125 68.1979 57.5 66.9062C59.1875 65.6146 60.0312 63.8542 60.0312 61.625C60.0312 59.3958 59.25 57.6771 57.6875 56.4688C56.125 55.2396 53.2917 54.0312 49.1875 52.8438Z" fill="white"/>
</svg>
