<svg width="100" height="100" viewBox="0 0 100 100" fill="none" xmlns="http://www.w3.org/2000/svg">
<path d="M80.8403 65.74C79.5004 64.85 77.8403 64.68 76.3604 65.27L63.2903 68.49C62.2703 69.41 60.9203 69.97 59.4304 69.97H46.6104C46.0604 69.97 45.6104 69.52 45.6104 68.97C45.6104 68.42 46.0604 67.97 46.6104 67.97H59.4904C62.6104 67.92 63.6804 63.73 61.0803 61.99C60.2504 61.44 59.2603 61.11 58.1904 61.11C55.5803 61.09 52.1403 61.08 50.6104 61.14C48.2103 61.23 47.2504 60.93 41.6503 57.2C36.0103 53.44 31.0504 55.32 28.5703 56.81V77.28L46.1003 82.05C48.4103 82.68 50.8104 82.99 53.2003 82.99C56.7003 82.99 60.2003 82.32 63.4503 80.99L79.9803 74.25C81.8104 73.5 83.0004 71.74 83.0004 69.77C83.0004 68.14 82.1904 66.63 80.8403 65.74Z" fill="black"/>
<path d="M18 80.26H25.5699C26.12 80.26 26.5699 79.81 26.5699 79.26V53.96C26.5699 53.41 26.12 52.96 25.5699 52.96H18C17.45 52.96 17 53.41 17 53.96V79.26C17 79.81 17.45 80.26 18 80.26ZM21.04 74.62H22.53C23.08 74.62 23.53 75.07 23.53 75.62C23.53 76.18 23.08 76.62 22.53 76.62H21.04C20.49 76.62 20.04 76.18 20.04 75.62C20.04 75.07 20.49 74.62 21.04 74.62Z" fill="black"/>
<path d="M66 17C56.62 17 49 24.63 49 34C49 43.37 56.62 51 66 51C75.37 51 83 43.37 83 34C83 24.63 75.37 17 66 17ZM66.2796 33.0405C70.3065 34.2261 71.1517 36.4756 71.1517 38.1538C71.1517 40.6533 69.3622 42.7393 66.9974 43.2065V45.125C66.9974 45.6772 66.5496 46.125 65.9974 46.125C65.4451 46.125 64.9974 45.6772 64.9974 45.125V43.2065C62.633 42.7392 60.8436 40.6532 60.8436 38.1538C60.8436 37.6016 61.2913 37.1538 61.8436 37.1538C62.3958 37.1538 62.8436 37.6016 62.8436 38.1538C62.8436 39.8926 64.2586 41.3076 65.9974 41.3076C67.7366 41.3076 69.1517 39.8926 69.1517 38.1538C69.1517 37.6138 69.1517 35.9712 65.7151 34.9595C61.6888 33.7739 60.8436 31.5244 60.8436 29.8462C60.8436 27.3468 62.633 25.2608 64.9974 24.7935V22.875C64.9974 22.3228 65.4451 21.875 65.9974 21.875C66.5496 21.875 66.9974 22.3228 66.9974 22.875V24.7935C69.3622 25.2607 71.1517 27.3467 71.1517 29.8462C71.1517 30.3984 70.7039 30.8462 70.1517 30.8462C69.5994 30.8462 69.1517 30.3984 69.1517 29.8462C69.1517 28.1074 67.7366 26.6924 65.9974 26.6924C64.2586 26.6924 62.8436 28.1074 62.8436 29.8462C62.8436 30.3862 62.8436 32.0288 66.2796 33.0405Z" fill="black"/>
</svg>
