<?xml version="1.0" encoding="UTF-8"?>
<!DOCTYPE svg PUBLIC "-//W3C//DTD SVG 1.1//EN" "http://www.w3.org/Graphics/SVG/1.1/DTD/svg11.dtd">
<svg xmlns="http://www.w3.org/2000/svg" version="1.1" width="559px" height="559px" style="shape-rendering:geometricPrecision; text-rendering:geometricPrecision; image-rendering:optimizeQuality; fill-rule:evenodd; clip-rule:evenodd" xmlns:xlink="http://www.w3.org/1999/xlink">
<g><path style="opacity:0.996" fill="#000001" d="M 261.5,-0.5 C 273.167,-0.5 284.833,-0.5 296.5,-0.5C 389.174,7.73844 461.674,50.0718 514,126.5C 539.316,166.284 554.15,209.617 558.5,256.5C 558.5,271.5 558.5,286.5 558.5,301.5C 548.033,397.319 502.033,470.485 420.5,521C 383.433,542.08 343.766,554.58 301.5,558.5C 286.5,558.5 271.5,558.5 256.5,558.5C 163.78,548.239 91.9463,504.239 41,426.5C 16.7938,386.385 2.9605,343.052 -0.5,296.5C -0.5,284.833 -0.5,273.167 -0.5,261.5C 6.93469,175.639 44.6014,106.472 112.5,54C 156.99,21.7583 206.657,3.59164 261.5,-0.5 Z"/></g>
<g><path style="opacity:1" fill="#2cf3d5" d="M 302.5,62.5 C 304.346,62.2222 305.68,62.8888 306.5,64.5C 305.68,66.1112 304.346,66.7778 302.5,66.5C 302.5,65.1667 302.5,63.8333 302.5,62.5 Z"/></g>
<g><path style="opacity:1" fill="#27dac8" d="M 279.5,62.5 C 283.161,62.3501 284.161,63.8501 282.5,67C 278.707,67.4866 277.707,65.9866 279.5,62.5 Z"/></g>
<g><path style="opacity:1" fill="#27d7bc" d="M 325.5,65.5 C 329.161,65.4257 329.828,66.4257 327.5,68.5C 326.081,67.9953 325.415,66.9953 325.5,65.5 Z"/></g>
<g><path style="opacity:1" fill="#28dcd3" d="M 255.5,66.5 C 257.167,66.5 258.833,66.5 260.5,66.5C 261.169,70.6759 259.669,72.0093 256,70.5C 255.51,69.2068 255.343,67.8734 255.5,66.5 Z"/></g>
<g><path style="opacity:1" fill="#26d0b5" d="M 348.5,70.5 C 351.548,70.494 352.048,71.494 350,73.5C 348.961,72.7562 348.461,71.7562 348.5,70.5 Z"/></g>
<g><path style="opacity:1" fill="#26d2d5" d="M 234.5,71.5 C 237.966,72.109 238.966,73.9423 237.5,77C 232.289,77.5464 231.289,75.713 234.5,71.5 Z"/></g>
<g><path style="opacity:1" fill="#28ddcc" d="M 289.5,77.5 C 293.677,76.8416 295.177,78.5082 294,82.5C 292.333,85.1667 290.667,85.1667 289,82.5C 288.36,80.735 288.527,79.0683 289.5,77.5 Z"/></g>
<g><path style="opacity:1" fill="#2df5d6" d="M 371.5,78.5 C 373.337,78.6395 373.67,79.3061 372.5,80.5C 371.702,80.0431 371.369,79.3764 371.5,78.5 Z"/></g>
<g><path style="opacity:1" fill="#2ae6cc" d="M 313.5,78.5 C 316.966,79.109 317.966,80.9423 316.5,84C 311.289,84.5464 310.289,82.713 313.5,78.5 Z"/></g>
<g><path style="opacity:1" fill="#26d7d0" d="M 266.5,79.5 C 272.016,79.4734 273.349,81.64 270.5,86C 265.57,86.427 264.237,84.2604 266.5,79.5 Z"/></g>
<g><path style="opacity:1" fill="#27deef" d="M 211.5,81.5 C 215.138,80.7366 216.638,82.0699 216,85.5C 211.415,87.4126 209.915,86.0793 211.5,81.5 Z"/></g>
<g><path style="opacity:1" fill="#2ae3c6" d="M 335.5,83.5 C 336.833,83.5 338.167,83.5 339.5,83.5C 339.365,88.9873 337.698,89.654 334.5,85.5C 334.863,84.8165 335.196,84.1499 335.5,83.5 Z"/></g>
<g><path style="opacity:1" fill="#28e0e4" d="M 244.5,84.5 C 248.935,84.7521 250.268,86.9188 248.5,91C 242.339,91.878 241.006,89.7113 244.5,84.5 Z"/></g>
<g><path style="opacity:1" fill="#2bedd0" d="M 357.5,90.5 C 358.833,90.5 360.167,90.5 361.5,90.5C 361.5,91.8333 361.5,93.1667 361.5,94.5C 360.167,94.5 358.833,94.5 357.5,94.5C 357.5,93.1667 357.5,91.8333 357.5,90.5 Z"/></g>
<g><path style="opacity:1" fill="#1c9481" d="M 392.5,89.5 C 394.337,89.6395 394.67,90.3061 393.5,91.5C 392.702,91.0431 392.369,90.3764 392.5,89.5 Z"/></g>
<g><path style="opacity:1" fill="#22c3df" d="M 190.5,92.5 C 196.016,92.4734 197.349,94.64 194.5,99C 189.791,99.082 188.458,96.9154 190.5,92.5 Z"/></g>
<g><path style="opacity:1" fill="#25d4e5" d="M 222.5,92.5 C 228.488,92.664 229.821,95.164 226.5,100C 220.403,100.147 219.07,97.6475 222.5,92.5 Z"/></g>
<g><path style="opacity:1" fill="#28dcce" d="M 299.5,94.5 C 305.488,94.664 306.821,97.164 303.5,102C 300.099,103.135 298.099,101.968 297.5,98.5C 297.803,96.8857 298.47,95.5523 299.5,94.5 Z"/></g>
<g><path style="opacity:1" fill="#27dad5" d="M 277.5,94.5 C 283.238,95.3805 284.571,98.2139 281.5,103C 276,104.167 273.833,102 275,96.5C 275.995,95.9341 276.828,95.2674 277.5,94.5 Z"/></g>
<g><path style="opacity:1" fill="#2ae5cf" d="M 321.5,97.5 C 327.016,97.4734 328.349,99.64 325.5,104C 319.738,104.418 318.404,102.251 321.5,97.5 Z"/></g>
<g><path style="opacity:1" fill="#26d6db" d="M 254.5,98.5 C 259.665,98.1619 261.831,100.495 261,105.5C 256.907,109.546 253.741,108.879 251.5,103.5C 252.092,101.577 253.092,99.9108 254.5,98.5 Z"/></g>
<g><path style="opacity:1" fill="#29e3c6" d="M 379.5,100.5 C 380.5,100.5 381.5,100.5 382.5,100.5C 382.5,101.5 382.5,102.5 382.5,103.5C 381.5,103.5 380.5,103.5 379.5,103.5C 379.5,102.5 379.5,101.5 379.5,100.5 Z"/></g>
<g><path style="opacity:1" fill="#2cf2d4" d="M 343.5,103.5 C 348.159,103.015 349.492,104.848 347.5,109C 342.728,109.81 341.395,107.977 343.5,103.5 Z"/></g>
<g><path style="opacity:1" fill="#23cae7" d="M 201.5,103.5 C 207.662,103.45 209.329,105.95 206.5,111C 199.369,112.211 197.702,109.711 201.5,103.5 Z"/></g>
<g><path style="opacity:1" fill="#25d6e8" d="M 232.5,105.5 C 237.835,105.005 240.335,107.338 240,112.5C 237.294,115.978 234.294,116.311 231,113.5C 230.109,110.502 230.609,107.836 232.5,105.5 Z"/></g>
<g><path style="opacity:1" fill="#1eb0d7" d="M 172.5,106.5 C 176.392,107.742 177.392,110.242 175.5,114C 171,114.833 169.167,113 170,108.5C 170.995,107.934 171.828,107.267 172.5,106.5 Z"/></g>
<g><path style="opacity:1" fill="#29dec2" d="M 364.5,112.5 C 368.485,112.629 369.818,114.463 368.5,118C 363.728,118.81 362.395,116.977 364.5,112.5 Z"/></g>
<g><path style="opacity:1" fill="#26d5d4" d="M 287.5,113.5 C 294.603,114.867 295.937,118.367 291.5,124C 285.667,124.833 283.167,122.333 284,116.5C 285.145,115.364 286.312,114.364 287.5,113.5 Z"/></g>
<g><path style="opacity:1" fill="#2aeae0" d="M 307.5,115.5 C 314.486,115.331 316.153,118.164 312.5,124C 305.416,124.475 303.749,121.642 307.5,115.5 Z"/></g>
<g><path style="opacity:1" fill="#25c8af" d="M 399.5,113.5 C 400.5,113.5 401.5,113.5 402.5,113.5C 402.5,114.5 402.5,115.5 402.5,116.5C 401.5,116.5 400.5,116.5 399.5,116.5C 399.5,115.5 399.5,114.5 399.5,113.5 Z"/></g>
<g><path style="opacity:1" fill="#23cbea" d="M 212.5,115.5 C 220.774,115.929 222.44,119.429 217.5,126C 211.171,126.668 208.671,123.834 210,117.5C 210.995,116.934 211.828,116.267 212.5,115.5 Z"/></g>
<g><path style="opacity:1" fill="#26d8e1" d="M 264.5,116.5 C 270.83,115.666 273.663,118.333 273,124.5C 270.029,128.092 266.696,128.425 263,125.5C 262.068,122.177 262.568,119.177 264.5,116.5 Z"/></g>
<g><path style="opacity:1" fill="#21c1ec" d="M 182.5,117.5 C 188.53,117.815 190.197,120.481 187.5,125.5C 183.319,127.575 180.652,126.408 179.5,122C 180.315,120.357 181.315,118.857 182.5,117.5 Z"/></g>
<g><path style="opacity:1" fill="#28dacb" d="M 329.5,119.5 C 335.335,120.333 336.668,123.166 333.5,128C 326.4,127.752 325.067,124.919 329.5,119.5 Z"/></g>
<g><path style="opacity:1" fill="#24cfe3" d="M 244.5,121.5 C 249.42,120.784 252.42,122.784 253.5,127.5C 252.349,133.091 249.016,134.925 243.5,133C 239.376,128.695 239.709,124.862 244.5,121.5 Z"/></g>
<g><path style="opacity:1" fill="#2ab6f4" d="M 153.5,124.5 C 159.158,123.679 160.825,125.846 158.5,131C 152.741,132.139 151.074,129.972 153.5,124.5 Z"/></g>
<g><path style="opacity:1" fill="#2ae4c7" d="M 384.5,125.5 C 388.161,125.35 389.161,126.85 387.5,130C 383.707,130.487 382.707,128.987 384.5,125.5 Z"/></g>
<g><path style="opacity:1" fill="#21c4f1" d="M 193.5,128.5 C 199.82,128.32 202.32,131.32 201,137.5C 197.619,141.485 194.286,141.485 191,137.5C 189.927,133.9 190.76,130.9 193.5,128.5 Z"/></g>
<g><path style="opacity:1" fill="#29e3ce" d="M 348.5,128.5 C 353.006,127.527 355.172,129.194 355,133.5C 351.507,136.502 349.007,135.835 347.5,131.5C 347.685,130.416 348.018,129.416 348.5,128.5 Z"/></g>
<g><path style="opacity:1" fill="#23ccec" d="M 224.5,130.5 C 230.641,129.816 233.808,132.483 234,138.5C 232.287,143.038 229.12,144.538 224.5,143C 219.217,138.886 219.217,134.719 224.5,130.5 Z"/></g>
<g><path style="opacity:1" fill="#23bda5" d="M 418.5,129.5 C 420.465,129.948 420.798,130.948 419.5,132.5C 418.614,131.675 418.281,130.675 418.5,129.5 Z"/></g>
<g><path style="opacity:1" fill="#26dbe8" d="M 274.5,132.5 C 283.482,134.597 285.148,139.097 279.5,146C 271.667,147.5 268.5,144.333 270,136.5C 271.397,134.93 272.897,133.596 274.5,132.5 Z"/></g>
<g><path style="opacity:1" fill="#27dce0" d="M 293.5,132.5 C 301.543,133.02 303.876,136.854 300.5,144C 292.95,146.984 289.45,144.484 290,136.5C 291.376,135.295 292.542,133.962 293.5,132.5 Z"/></g>
<g><path style="opacity:1" fill="#2ab4f2" d="M 164.5,134.5 C 170.989,134.156 172.989,136.99 170.5,143C 164.148,145.399 161.648,143.232 163,136.5C 163.717,135.956 164.217,135.289 164.5,134.5 Z"/></g>
<g><path style="opacity:1" fill="#29e3e0" d="M 312.5,136.5 C 320.489,135.317 323.156,138.484 320.5,146C 310.837,148.834 308.17,145.668 312.5,136.5 Z"/></g>
<g><path style="opacity:1" fill="#25d2e9" d="M 253.5,136.5 C 263.172,136.986 265.839,141.486 261.5,150C 252.961,153.451 248.794,150.618 249,141.5C 250.025,139.313 251.525,137.646 253.5,136.5 Z"/></g>
<g><path style="opacity:1" fill="#2ae6ce" d="M 368.5,139.5 C 373.159,139.015 374.492,140.848 372.5,145C 367.001,145.806 365.668,143.973 368.5,139.5 Z"/></g>
<g><path style="opacity:1" fill="#2ae6c9" d="M 402.5,141.5 C 403.5,141.5 404.5,141.5 405.5,141.5C 405.5,142.5 405.5,143.5 405.5,144.5C 404.5,144.5 403.5,144.5 402.5,144.5C 402.5,143.5 402.5,142.5 402.5,141.5 Z"/></g>
<g><path style="opacity:1" fill="#21c4f1" d="M 206.5,142.5 C 213.657,142.155 216.824,145.488 216,152.5C 212.011,157.356 207.678,157.689 203,153.5C 201.518,148.774 202.685,145.107 206.5,142.5 Z"/></g>
<g><path style="opacity:1" fill="#3e9aec" d="M 138.5,143.5 C 144.704,143.314 146.037,145.814 142.5,151C 136.95,150.635 135.617,148.135 138.5,143.5 Z"/></g>
<g><path style="opacity:1" fill="#29e8e0" d="M 332.5,143.5 C 340.219,142.87 342.219,145.87 338.5,152.5C 330.415,153.86 328.415,150.86 332.5,143.5 Z"/></g>
<g><path style="opacity:1" fill="#2bb7f6" d="M 175.5,145.5 C 182.282,144.125 185.448,146.791 185,153.5C 181.992,157.902 178.325,158.569 174,155.5C 171.729,151.697 172.229,148.363 175.5,145.5 Z"/></g>
<g><path style="opacity:1" fill="#23ccef" d="M 233.5,144.5 C 237.257,144.071 240.757,144.737 244,146.5C 247.544,155.941 244.377,160.441 234.5,160C 228.362,155.063 228.029,149.897 233.5,144.5 Z"/></g>
<g><path style="opacity:1" fill="#26d8e5" d="M 292.5,151.5 C 302.033,151.241 305.199,155.574 302,164.5C 296.162,169.041 291.495,168.041 288,161.5C 287.438,157.232 288.938,153.898 292.5,151.5 Z"/></g>
<g><path style="opacity:1" fill="#3f9ef1" d="M 149.5,153.5 C 157.486,152.998 159.486,156.165 155.5,163C 147.942,163.282 145.942,160.115 149.5,153.5 Z"/></g>
<g><path style="opacity:1" fill="#24d1e8" d="M 270.5,152.5 C 279.658,150.835 283.825,154.501 283,163.5C 277.333,171.5 271.667,171.5 266,163.5C 265.319,158.871 266.819,155.205 270.5,152.5 Z"/></g>
<g><path style="opacity:1" fill="#28dfd4" d="M 351.5,153.5 C 357.75,153.882 359.417,156.715 356.5,162C 348.208,162.89 346.542,160.057 351.5,153.5 Z"/></g>
<g><path style="opacity:1" fill="#21c1ee" d="M 218.5,154.5 C 226.439,154.747 229.939,158.747 229,166.5C 226.647,171.426 222.814,173.26 217.5,172C 211.632,168.96 210.132,164.46 213,158.5C 214.812,157.023 216.645,155.69 218.5,154.5 Z"/></g>
<g><path style="opacity:1" fill="#29e4cb" d="M 385.5,154.5 C 389.138,153.737 390.638,155.07 390,158.5C 385.415,160.413 383.915,159.079 385.5,154.5 Z"/></g>
<g><path style="opacity:1" fill="#27dde2" d="M 314.5,155.5 C 323.892,156.647 325.892,161.147 320.5,169C 313.001,170.822 309.501,167.989 310,160.5C 311.025,158.313 312.525,156.646 314.5,155.5 Z"/></g>
<g><path style="opacity:1" fill="#2bb9f8" d="M 189.5,158.5 C 197.161,157.663 200.661,160.996 200,168.5C 195.829,174.729 191.163,175.062 186,169.5C 184.663,164.872 185.83,161.205 189.5,158.5 Z"/></g>
<g><path style="opacity:1" fill="#23ccee" d="M 250.5,157.5 C 261.358,157.186 265.191,162.186 262,172.5C 256.667,177.833 251.333,177.833 246,172.5C 243.064,166.058 244.564,161.058 250.5,157.5 Z"/></g>
<g><path style="opacity:1" fill="#5389f0" d="M 126.5,163.5 C 133.004,163.138 134.671,165.638 131.5,171C 124.745,171.756 123.078,169.256 126.5,163.5 Z"/></g>
<g><path style="opacity:1" fill="#28e2e3" d="M 332.5,165.5 C 341.299,164.768 343.965,168.268 340.5,176C 332.735,178.575 329.568,175.742 331,167.5C 331.717,166.956 332.217,166.289 332.5,165.5 Z"/></g>
<g><path style="opacity:1" fill="#41a1f6" d="M 162.5,163.5 C 171.369,163.517 173.703,167.35 169.5,175C 161.95,177.984 158.45,175.484 159,167.5C 159.69,165.65 160.856,164.316 162.5,163.5 Z"/></g>
<g><path style="opacity:1" fill="#21c4f2" d="M 232.5,167.5 C 241.872,167.699 246.039,172.365 245,181.5C 241.578,188.296 236.411,190.129 229.5,187C 222.285,179.24 223.285,172.74 232.5,167.5 Z"/></g>
<g><path style="opacity:1" fill="#29e2d6" d="M 367.5,167.5 C 372.984,167.481 374.65,169.981 372.5,175C 365.745,175.756 364.078,173.256 367.5,167.5 Z"/></g>
<g><path style="opacity:1" fill="#2befd9" d="M 390.5,167.5 C 397.88,167.043 400.713,170.376 399,177.5C 394.601,181.654 390.601,181.321 387,176.5C 385.98,172.553 387.147,169.553 390.5,167.5 Z"/></g>
<g><path style="opacity:1" fill="#538af1" d="M 138.5,173.5 C 145,172.499 147.5,175.165 146,181.5C 142.255,185.566 138.922,185.233 136,180.5C 135.333,179.167 135.333,177.833 136,176.5C 137.045,175.627 137.878,174.627 138.5,173.5 Z"/></g>
<g><path style="opacity:1" fill="#27dcdc" d="M 351.5,179.5 C 358.241,179.39 360.408,182.39 358,188.5C 354.729,191.197 351.729,190.864 349,187.5C 348.023,184.183 348.856,181.516 351.5,179.5 Z"/></g>
<g><path style="opacity:1" fill="#548cf4" d="M 150.5,183.5 C 156.651,181.844 160.317,184.01 161.5,190C 159.438,197.621 155.271,199.121 149,194.5C 146.842,190.461 147.342,186.794 150.5,183.5 Z"/></g>
<g><path style="opacity:1" fill="#6775f1" d="M 117.5,184.5 C 124.02,184.717 125.687,187.551 122.5,193C 115.416,193.475 113.749,190.642 117.5,184.5 Z"/></g>
<g><path style="opacity:1" fill="#0d151b" d="M 199.5,186.5 C 203.184,187.653 206.851,187.82 210.5,187C 208.887,189.228 208.22,191.728 208.5,194.5C 208.317,196.936 208.984,199.103 210.5,201C 207.439,201.535 204.439,201.868 201.5,202C 204.561,196.322 203.895,191.155 199.5,186.5 Z"/></g>
<g><path style="opacity:1" fill="#2db8f9" d="M 221.5,204.5 C 220.448,204.649 219.448,204.483 218.5,204C 215.297,200.629 211.964,197.462 208.5,194.5C 208.22,191.728 208.887,189.228 210.5,187C 206.851,187.82 203.184,187.653 199.5,186.5C 194.956,180.35 195.623,174.85 201.5,170C 212.733,168.606 216.9,173.439 214,184.5C 221.615,181.641 226.948,183.974 230,191.5C 231.023,198.317 228.19,202.65 221.5,204.5 Z"/></g>
<g><path style="opacity:1" fill="#2cf2dd" d="M 406.5,186.5 C 415.057,185.554 417.724,189.054 414.5,197C 406.758,200.248 403.258,197.748 404,189.5C 405.045,188.627 405.878,187.627 406.5,186.5 Z"/></g>
<g><path style="opacity:1" fill="#2ae7e4" d="M 369.5,214.5 C 366.369,211.871 363.369,209.038 360.5,206C 361.444,203.281 361.777,200.448 361.5,197.5C 364.337,191.728 368.837,190.061 375,192.5C 372.334,182.327 376.167,178.16 386.5,180C 391.833,184.667 391.833,189.333 386.5,194C 383.833,194.333 381.167,194.667 378.5,195C 382.497,204.167 379.497,209.667 369.5,211.5C 369.5,212.5 369.5,213.5 369.5,214.5 Z"/></g>
<g><path style="opacity:1" fill="#667af5" d="M 130.5,194.5 C 138.241,194.738 140.241,198.238 136.5,205C 129,206.833 126.167,204 128,196.5C 128.995,195.934 129.828,195.267 130.5,194.5 Z"/></g>
<g><path style="opacity:1" fill="#2ae9de" d="M 395.5,197.5 C 402.503,197.339 406.003,200.672 406,207.5C 403.565,212.224 399.731,213.724 394.5,212C 389.003,206.683 389.336,201.85 395.5,197.5 Z"/></g>
<g><path style="opacity:1" fill="#3da6f7" d="M 199.5,186.5 C 203.895,191.155 204.561,196.322 201.5,202C 204.439,201.868 207.439,201.535 210.5,201C 208.984,199.103 208.317,196.936 208.5,194.5C 211.964,197.462 215.297,200.629 218.5,204C 219.448,204.483 220.448,204.649 221.5,204.5C 220.391,205.29 219.058,205.79 217.5,206C 220.426,211.679 219.76,216.845 215.5,221.5C 210.931,215.424 205.764,209.758 200,204.5C 199.617,205.056 199.117,205.389 198.5,205.5C 196.691,204.709 194.691,204.709 192.5,205.5C 190.999,204.248 189.332,203.248 187.5,202.5C 184.177,199.856 183.177,196.522 184.5,192.5C 174.748,193.254 170.915,188.92 173,179.5C 177.667,174.167 182.333,174.167 187,179.5C 187.895,181.804 188.729,184.138 189.5,186.5C 192.83,185.261 196.163,185.261 199.5,186.5 Z"/></g>
<g><path style="opacity:1" fill="#499dfb" d="M 187.5,202.5 C 189.332,203.248 190.999,204.248 192.5,205.5C 193.836,207.01 195.003,208.677 196,210.5C 196.366,208.548 197.199,206.882 198.5,205.5C 199.117,205.389 199.617,205.056 200,204.5C 205.764,209.758 210.931,215.424 215.5,221.5C 214.019,222.421 212.686,223.588 211.5,225C 213.261,228.225 213.928,231.725 213.5,235.5C 208.5,230.833 203.5,226.167 198.5,221.5C 198.205,219.577 197.372,217.91 196,216.5C 195.777,218.881 194.61,220.547 192.5,221.5C 184.167,212.833 175.833,204.167 167.5,195.5C 175.137,193.933 179.303,197.266 180,205.5C 182.48,204.188 184.98,203.188 187.5,202.5 Z"/></g>
<g><path style="opacity:1" fill="#121c29" d="M 198.5,205.5 C 197.199,206.882 196.366,208.548 196,210.5C 195.003,208.677 193.836,207.01 192.5,205.5C 194.691,204.709 196.691,204.709 198.5,205.5 Z"/></g>
<g><path style="opacity:1" fill="#28e1e9" d="M 361.5,197.5 C 361.777,200.448 361.444,203.281 360.5,206C 363.369,209.038 366.369,211.871 369.5,214.5C 369.324,217.448 369.324,220.114 369.5,222.5C 371.702,221.22 373.868,221.22 376,222.5C 375.778,213.051 380.278,208.884 389.5,210C 395.169,212.815 397.002,217.315 395,223.5C 391.949,226.912 388.115,228.912 383.5,229.5C 385.322,234.064 384.322,237.897 380.5,241C 383.426,241.218 386.26,241.718 389,242.5C 388.452,232.711 392.952,228.544 402.5,230C 407.665,233.721 408.832,238.554 406,244.5C 405.097,245.701 403.931,246.535 402.5,247C 399.333,247.252 396.333,247.418 393.5,247.5C 394.562,250.103 394.728,252.77 394,255.5C 393.777,257.881 392.61,259.547 390.5,260.5C 385.167,255.833 380.167,250.833 375.5,245.5C 375.158,244.662 374.492,244.328 373.5,244.5C 369.833,240.167 365.833,236.167 361.5,232.5C 361.421,231.07 361.754,229.736 362.5,228.5C 361.311,227.571 359.978,227.238 358.5,227.5C 354.227,224.566 350.227,221.233 346.5,217.5C 346.651,208.35 351.317,204.017 360.5,204.5C 360.198,201.941 360.532,199.607 361.5,197.5 Z"/></g>
<g><path style="opacity:1" fill="#2becda" d="M 420.5,206.5 C 428.744,206.228 431.078,209.728 427.5,217C 419.735,219.575 416.568,216.742 418,208.5C 418.995,207.934 419.828,207.267 420.5,206.5 Z"/></g>
<g><path style="opacity:1" fill="#7560ea" d="M 111.5,206.5 C 118.821,207.319 120.154,210.486 115.5,216C 108.075,215.484 106.742,212.318 111.5,206.5 Z"/></g>
<g><path style="opacity:1" fill="#667af4" d="M 145.5,203.5 C 152.685,203.848 155.519,207.515 154,214.5C 148.833,220.092 144.167,219.759 140,213.5C 139.333,211.833 139.333,210.167 140,208.5C 141.73,206.598 143.563,204.931 145.5,203.5 Z"/></g>
<g><path style="opacity:1" fill="#5491fa" d="M 167.5,195.5 C 175.833,204.167 184.167,212.833 192.5,221.5C 191.517,222.85 190.184,223.85 188.5,224.5C 189,224.833 189.5,225.167 190,225.5C 192.382,223.226 195.215,221.893 198.5,221.5C 203.5,226.167 208.5,230.833 213.5,235.5C 212.86,238.774 211.193,241.441 208.5,243.5C 213.286,247.704 214.619,252.704 212.5,258.5C 212.657,257.127 212.49,255.793 212,254.5C 201.298,243.631 190.465,232.965 179.5,222.5C 176.234,219.242 174.734,215.242 175,210.5C 165.135,212.635 161.135,208.635 163,198.5C 164.129,196.859 165.629,195.859 167.5,195.5 Z"/></g>
<g><path style="opacity:1" fill="#111825" d="M 198.5,221.5 C 195.215,221.893 192.382,223.226 190,225.5C 189.5,225.167 189,224.833 188.5,224.5C 190.184,223.85 191.517,222.85 192.5,221.5C 194.61,220.547 195.777,218.881 196,216.5C 197.372,217.91 198.205,219.577 198.5,221.5 Z"/></g>
<g><path style="opacity:1" fill="#7865f2" d="M 124.5,216.5 C 133.818,216.655 135.818,220.488 130.5,228C 125.289,229.232 122.289,227.232 121.5,222C 121.863,219.808 122.863,217.974 124.5,216.5 Z"/></g>
<g><path style="opacity:1" fill="#29e5dd" d="M 408.5,217.5 C 416.201,217.362 419.367,221.029 418,228.5C 412.837,234.062 408.171,233.729 404,227.5C 403.077,223.017 404.577,219.683 408.5,217.5 Z"/></g>
<g><path style="opacity:1" fill="#5e88fb" d="M 179.5,222.5 C 190.465,232.965 201.298,243.631 212,254.5C 212.49,255.793 212.657,257.127 212.5,258.5C 212.489,260.017 211.823,261.184 210.5,262C 213.848,264.501 216.182,267.668 217.5,271.5C 207.526,262.861 197.86,253.861 188.5,244.5C 192.299,244.119 192.965,242.786 190.5,240.5C 189.378,241.63 188.044,242.297 186.5,242.5C 178.113,233.111 169.113,224.445 159.5,216.5C 168.109,212.901 172.943,215.901 174,225.5C 175.488,223.84 177.321,222.84 179.5,222.5 Z"/></g>
<g><path style="opacity:1" fill="#26d9f1" d="M 346.5,217.5 C 350.227,221.233 354.227,224.566 358.5,227.5C 358.5,230.167 358.5,232.833 358.5,235.5C 359.5,235.5 360.5,235.5 361.5,235.5C 361.5,234.5 361.5,233.5 361.5,232.5C 365.833,236.167 369.833,240.167 373.5,244.5C 372.252,245.334 371.585,246.667 371.5,248.5C 370.956,250.674 370.956,252.674 371.5,254.5C 372.099,251.045 373.432,248.045 375.5,245.5C 380.167,250.833 385.167,255.833 390.5,260.5C 393.747,261.098 396.747,262.432 399.5,264.5C 401.417,268.238 401.917,272.238 401,276.5C 399.833,279 398,280.833 395.5,282C 404.828,284.156 407.661,289.656 404,298.5C 402.871,300.141 401.371,301.141 399.5,301.5C 375.918,279.42 352.751,256.753 330,233.5C 329.536,232.906 329.369,232.239 329.5,231.5C 332.183,223.145 337.85,218.479 346.5,217.5 Z"/></g>
<g><path style="opacity:1" fill="#776bf8" d="M 139.5,225.5 C 149.942,225.235 152.942,229.735 148.5,239C 139.406,242.235 135.239,239.068 136,229.5C 137.376,228.295 138.542,226.962 139.5,225.5 Z"/></g>
<g><path style="opacity:1" fill="#0f1e1f" d="M 358.5,227.5 C 359.978,227.238 361.311,227.571 362.5,228.5C 361.754,229.736 361.421,231.07 361.5,232.5C 361.5,233.5 361.5,234.5 361.5,235.5C 360.5,235.5 359.5,235.5 358.5,235.5C 358.5,232.833 358.5,230.167 358.5,227.5 Z"/></g>
<g><path style="opacity:1" fill="#2aecde" d="M 431.5,227.5 C 437.82,227.32 440.32,230.32 439,236.5C 435.667,240.5 432.333,240.5 429,236.5C 427.927,232.9 428.76,229.9 431.5,227.5 Z"/></g>
<g><path style="opacity:1" fill="#8951ef" d="M 107.5,229.5 C 113.989,229.156 115.989,231.99 113.5,238C 107.086,240.593 104.586,238.426 106,231.5C 106.717,230.956 107.217,230.289 107.5,229.5 Z"/></g>
<g><path style="opacity:1" fill="#667ffa" d="M 159.5,216.5 C 169.113,224.445 178.113,233.111 186.5,242.5C 186.833,243.5 187.5,244.167 188.5,244.5C 197.86,253.861 207.526,262.861 217.5,271.5C 217.183,274.572 217.516,277.572 218.5,280.5C 224.407,283.744 227.407,288.744 227.5,295.5C 211.452,277.949 194.785,260.782 177.5,244C 176.552,243.517 175.552,243.351 174.5,243.5C 171.732,239.7 170.232,235.367 170,230.5C 165.038,233.649 160.705,232.982 157,228.5C 154.517,223.713 155.35,219.713 159.5,216.5 Z"/></g>
<g><path style="opacity:1" fill="#24d2f6" d="M 329.5,231.5 C 329.369,232.239 329.536,232.906 330,233.5C 352.751,256.753 375.918,279.42 399.5,301.5C 395.691,302.549 392.024,302.549 388.5,301.5C 389.154,303.115 389.654,304.782 390,306.5C 401.769,301.931 406.769,305.931 405,318.5C 403.549,320.464 401.716,321.797 399.5,322.5C 372.5,295.167 345.5,267.833 318.5,240.5C 320.671,235.662 324.337,232.662 329.5,231.5 Z"/></g>
<g><path style="opacity:1" fill="#8757f3" d="M 123.5,238.5 C 130.369,238.538 132.869,241.871 131,248.5C 127.254,252.393 123.588,252.393 120,248.5C 118.581,244.082 119.748,240.749 123.5,238.5 Z"/></g>
<g><path style="opacity:1" fill="#10111c" d="M 188.5,244.5 C 187.5,244.167 186.833,243.5 186.5,242.5C 188.044,242.297 189.378,241.63 190.5,240.5C 192.965,242.786 192.299,244.119 188.5,244.5 Z"/></g>
<g><path style="opacity:1" fill="#23cdf6" d="M 318.5,240.5 C 345.5,267.833 372.5,295.167 399.5,322.5C 392.417,323.985 387.917,320.985 386,313.5C 385.075,314.047 384.242,314.713 383.5,315.5C 384.952,316.94 385.952,318.606 386.5,320.5C 386.631,321.239 386.464,321.906 386,322.5C 371.299,307.631 356.465,292.965 341.5,278.5C 334.51,275.5 331.177,270.166 331.5,262.5C 318.845,259.838 314.512,252.504 318.5,240.5 Z"/></g>
<g><path style="opacity:1" fill="#29e4e1" d="M 417.5,239.5 C 423.651,237.844 427.317,240.01 428.5,246C 426.261,253.792 421.928,255.292 415.5,250.5C 413.762,246.31 414.429,242.643 417.5,239.5 Z"/></g>
<g><path style="opacity:1" fill="#6e79fd" d="M 174.5,243.5 C 175.552,243.351 176.552,243.517 177.5,244C 194.785,260.782 211.452,277.949 227.5,295.5C 239.782,299.069 243.782,306.735 239.5,318.5C 212.368,291.868 185.368,265.035 158.5,238C 157.906,237.536 157.239,237.369 156.5,237.5C 165.017,233.126 170.184,235.792 172,245.5C 172.708,244.619 173.542,243.953 174.5,243.5 Z"/></g>
<g><path style="opacity:1" fill="#0b1718" d="M 373.5,244.5 C 374.492,244.328 375.158,244.662 375.5,245.5C 373.432,248.045 372.099,251.045 371.5,254.5C 370.956,252.674 370.956,250.674 371.5,248.5C 371.585,246.667 372.252,245.334 373.5,244.5 Z"/></g>
<g><path style="opacity:1" fill="#29e3db" d="M 439.5,249.5 C 447.365,249.838 449.365,253.338 445.5,260C 438.724,262.232 435.891,259.732 437,252.5C 438.045,251.627 438.878,250.627 439.5,249.5 Z"/></g>
<g><path style="opacity:1" fill="#9744f0" d="M 107.5,251.5 C 114.978,252.75 116.311,256.25 111.5,262C 106.201,263.033 103.701,260.866 104,255.5C 105.376,254.295 106.542,252.962 107.5,251.5 Z"/></g>
<g><path style="opacity:1" fill="#875bf7" d="M 138.5,247.5 C 150.133,247.267 153.133,252.1 147.5,262C 137.899,265.07 133.733,261.57 135,251.5C 136.376,250.295 137.542,248.962 138.5,247.5 Z"/></g>
<g><path style="opacity:1" fill="#27dbe4" d="M 399.5,264.5 C 397.149,255.022 400.816,250.522 410.5,251C 417.705,255.442 418.372,260.775 412.5,267C 407.626,269.192 403.293,268.359 399.5,264.5 Z"/></g>
<g><path style="opacity:1" fill="#964af6" d="M 122.5,261.5 C 131.805,260.951 134.472,264.785 130.5,273C 124.557,275.911 120.89,274.078 119.5,267.5C 119.984,265.199 120.984,263.199 122.5,261.5 Z"/></g>
<g><path style="opacity:1" fill="#28e3e6" d="M 424.5,261.5 C 434.027,261.018 436.693,265.018 432.5,273.5C 424.206,276.037 420.706,273.037 422,264.5C 423.045,263.627 423.878,262.627 424.5,261.5 Z"/></g>
<g><path style="opacity:1" fill="#796ffd" d="M 156.5,237.5 C 157.239,237.369 157.906,237.536 158.5,238C 185.368,265.035 212.368,291.868 239.5,318.5C 237.686,322.973 234.353,325.64 229.5,326.5C 206.5,302.833 183.167,279.5 159.5,256.5C 162.52,255.161 165.52,255.494 168.5,257.5C 169.647,255.235 169.814,252.902 169,250.5C 165.743,253.428 161.909,254.262 157.5,253C 152.845,250.103 151.345,245.937 153,240.5C 153.759,238.937 154.926,237.937 156.5,237.5 Z"/></g>
<g><path style="opacity:1" fill="#1a172f" d="M 172.5,261.5 C 176.276,262.665 176.443,264.332 173,266.5C 172.506,264.866 172.34,263.199 172.5,261.5 Z"/></g>
<g><path style="opacity:1" fill="#155058" d="M 380.5,262.5 C 382.527,262.338 384.527,262.505 386.5,263C 384.333,263.833 382.833,265.333 382,267.5C 381.667,270.167 381.333,272.833 381,275.5C 380.25,274.874 379.416,274.374 378.5,274C 380.29,270.417 380.957,266.584 380.5,262.5 Z"/></g>
<g><path style="opacity:1" fill="#9251f9" d="M 140.5,269.5 C 147.939,267.431 152.272,270.098 153.5,277.5C 153.096,282.737 150.263,285.403 145,285.5C 137.875,284.602 135.208,280.602 137,273.5C 138.376,272.295 139.542,270.962 140.5,269.5 Z"/></g>
<g><path style="opacity:1" fill="#26d9e7" d="M 409.5,272.5 C 421.635,272.456 424.635,277.623 418.5,288C 409.547,291.039 405.047,287.872 405,278.5C 406.332,276.34 407.832,274.34 409.5,272.5 Z"/></g>
<g><path style="opacity:1" fill="#27dcdb" d="M 444.5,272.5 C 452.818,272.987 454.485,276.487 449.5,283C 443.333,284.167 440.833,281.667 442,275.5C 443.045,274.627 443.878,273.627 444.5,272.5 Z"/></g>
<g><path style="opacity:1" fill="#a236ee" d="M 109.5,274.5 C 115.546,274.573 117.713,277.573 116,283.5C 109.826,287.263 106.493,285.597 106,278.5C 106.69,276.65 107.856,275.316 109.5,274.5 Z"/></g>
<g><path style="opacity:1" fill="#22c9fa" d="M 341.5,278.5 C 356.465,292.965 371.299,307.631 386,322.5C 386.464,321.906 386.631,321.239 386.5,320.5C 387.165,322.698 387.832,325.031 388.5,327.5C 393.804,324.36 398.304,325.36 402,330.5C 403.597,341.572 399.097,345.405 388.5,342C 385.819,339.806 384.319,336.973 384,333.5C 382.67,334.582 381.17,335.249 379.5,335.5C 378.504,335.414 377.671,335.748 377,336.5C 366.667,326.167 356.333,315.833 346,305.5C 345.51,304.207 345.343,302.873 345.5,301.5C 345.383,299.516 346.05,297.85 347.5,296.5C 345.144,293.978 342.977,291.312 341,288.5C 340.253,285.076 340.42,281.743 341.5,278.5 Z"/></g>
<g><path style="opacity:1" fill="#102428" d="M 386.5,281.5 C 388.414,282.185 390.414,282.685 392.5,283C 390.376,284.122 388.543,285.622 387,287.5C 386.505,285.527 386.338,283.527 386.5,281.5 Z"/></g>
<g><path style="opacity:1" fill="#27dce7" d="M 430.5,283.5 C 438.9,285.171 440.567,289.337 435.5,296C 428.17,297.666 425.003,294.833 426,287.5C 427.397,285.93 428.897,284.596 430.5,283.5 Z"/></g>
<g><path style="opacity:1" fill="#8463fd" d="M 159.5,256.5 C 183.167,279.5 206.5,302.833 229.5,326.5C 227.535,329.984 225.201,333.318 222.5,336.5C 208.219,320.551 193.219,305.218 177.5,290.5C 177.672,289.508 177.338,288.842 176.5,288.5C 172.167,284.833 168.167,280.833 164.5,276.5C 166.833,276.5 169.167,276.5 171.5,276.5C 172.188,271.758 171.188,270.925 168.5,274C 161.884,277.067 156.717,275.567 153,269.5C 151.471,263.224 153.638,258.891 159.5,256.5 Z"/></g>
<g><path style="opacity:1" fill="#1b152f" d="M 177.5,283.5 C 179.973,283.947 180.14,284.947 178,286.5C 177.517,285.552 177.351,284.552 177.5,283.5 Z"/></g>
<g><path style="opacity:1" fill="#a03bf0" d="M 126.5,283.5 C 132.34,282.579 136.007,284.913 137.5,290.5C 134.452,298.342 129.952,299.342 124,293.5C 122.861,289.579 123.695,286.246 126.5,283.5 Z"/></g>
<g><path style="opacity:1" fill="#9b46f7" d="M 158.5,293.5 C 161.37,304.13 157.37,308.63 146.5,307C 139.833,301.667 139.833,296.333 146.5,291C 150.981,289.888 154.981,290.721 158.5,293.5 Z"/></g>
<g><path style="opacity:1" fill="#181123" d="M 176.5,288.5 C 177.338,288.842 177.672,289.508 177.5,290.5C 177.5,292.167 177.5,293.833 177.5,295.5C 175.801,295.66 174.134,295.494 172.5,295C 175.222,293.728 176.556,291.561 176.5,288.5 Z"/></g>
<g><path style="opacity:1" fill="#0e2024" d="M 384.5,292.5 C 387.661,297.376 386.995,298.209 382.5,295C 383.381,294.292 384.047,293.458 384.5,292.5 Z"/></g>
<g><path style="opacity:1" fill="#25d0d7" d="M 447.5,295.5 C 454.978,296.75 456.311,300.25 451.5,306C 446.16,306.989 443.66,304.822 444,299.5C 444.69,297.65 445.856,296.316 447.5,295.5 Z"/></g>
<g><path style="opacity:1" fill="#b22cf4" d="M 113.5,297.5 C 121.244,297.048 123.577,300.215 120.5,307C 115.117,309.961 111.784,308.461 110.5,302.5C 111.092,300.577 112.092,298.911 113.5,297.5 Z"/></g>
<g><path style="opacity:1" fill="#25d6ed" d="M 411.5,295.5 C 423.818,294.658 426.818,299.491 420.5,310C 411.889,312.371 407.722,309.204 408,300.5C 408.997,298.677 410.164,297.01 411.5,295.5 Z"/></g>
<g><path style="opacity:1" fill="#9450fa" d="M 184.5,310.5 C 184.443,311.609 184.11,312.609 183.5,313.5C 183.899,314.521 185.233,314.854 187.5,314.5C 187.34,312.801 187.506,311.134 188,309.5C 192.37,313.702 196.537,318.036 200.5,322.5C 206.559,327.557 211.893,333.224 216.5,339.5C 215.167,339.5 213.833,339.5 212.5,339.5C 212.722,343.842 211.389,347.509 208.5,350.5C 198.167,339.5 187.5,328.833 176.5,318.5C 173.98,317.812 171.48,316.812 169,315.5C 169.611,317.962 169.445,320.296 168.5,322.5C 167.681,318.147 165.348,314.647 161.5,312C 159.866,311.506 158.199,311.34 156.5,311.5C 159.044,310.519 161.71,310.353 164.5,311C 162.373,305.366 163.707,300.699 168.5,297C 164.695,296.987 161.362,295.821 158.5,293.5C 157.071,290.692 156.405,287.692 156.5,284.5C 157.117,284.389 157.617,284.056 158,283.5C 167.036,292.368 175.869,301.368 184.5,310.5 Z"/></g>
<g><path style="opacity:1" fill="#8a5afa" d="M 164.5,276.5 C 168.167,280.833 172.167,284.833 176.5,288.5C 176.556,291.561 175.222,293.728 172.5,295C 174.134,295.494 175.801,295.66 177.5,295.5C 177.5,293.833 177.5,292.167 177.5,290.5C 193.219,305.218 208.219,320.551 222.5,336.5C 220.819,338.008 218.819,339.008 216.5,339.5C 211.893,333.224 206.559,327.557 200.5,322.5C 196.537,318.036 192.37,313.702 188,309.5C 187.506,311.134 187.34,312.801 187.5,314.5C 185.233,314.854 183.899,314.521 183.5,313.5C 184.5,313.5 185.5,313.5 186.5,313.5C 186.223,310.552 186.556,307.719 187.5,305C 187.167,304.833 186.833,304.667 186.5,304.5C 185.831,306.631 185.165,308.631 184.5,310.5C 175.869,301.368 167.036,292.368 158,283.5C 157.617,284.056 157.117,284.389 156.5,284.5C 157.5,280.167 160.167,277.5 164.5,276.5 Z"/></g>
<g><path style="opacity:1" fill="#aa33f3" d="M 133.5,305.5 C 140.996,304.174 144.496,307.174 144,314.5C 140.455,320.209 136.121,320.875 131,316.5C 128.584,312.078 129.417,308.411 133.5,305.5 Z"/></g>
<g><path style="opacity:1" fill="#040208" d="M 183.5,313.5 C 184.11,312.609 184.443,311.609 184.5,310.5C 185.165,308.631 185.831,306.631 186.5,304.5C 186.833,304.667 187.167,304.833 187.5,305C 186.556,307.719 186.223,310.552 186.5,313.5C 185.5,313.5 184.5,313.5 183.5,313.5 Z"/></g>
<g><path style="opacity:1" fill="#25d4e8" d="M 429.5,307.5 C 438.24,306.717 440.907,310.217 437.5,318C 431.648,320.905 427.981,319.239 426.5,313C 426.863,310.808 427.863,308.974 429.5,307.5 Z"/></g>
<g><path style="opacity:1" fill="#0b181d" d="M 367.5,313.5 C 372.399,314.207 372.566,315.874 368,318.5C 367.167,317.667 366.333,316.833 365.5,316C 366.381,315.292 367.047,314.458 367.5,313.5 Z"/></g>
<g><path style="opacity:1" fill="#a63df9" d="M 156.5,311.5 C 158.199,311.34 159.866,311.506 161.5,312C 165.348,314.647 167.681,318.147 168.5,322.5C 167.797,324.716 166.464,326.549 164.5,328C 154.398,330.549 149.898,326.716 151,316.5C 152.076,313.921 153.909,312.254 156.5,311.5 Z"/></g>
<g><path style="opacity:1" fill="#24d1f2" d="M 411.5,317.5 C 421.616,317.431 424.616,321.931 420.5,331C 411.406,334.235 407.239,331.068 408,321.5C 409.376,320.295 410.542,318.962 411.5,317.5 Z"/></g>
<g><path style="opacity:1" fill="#25d6e8" d="M 445.5,319.5 C 452.997,318.804 454.997,321.637 451.5,328C 443.749,329.091 441.749,326.258 445.5,319.5 Z"/></g>
<g><path style="opacity:1" fill="#ba22f2" d="M 122.5,318.5 C 128.133,318.961 130.633,321.961 130,327.5C 126.333,331.5 122.667,331.5 119,327.5C 117.98,323.553 119.147,320.553 122.5,318.5 Z"/></g>
<g><path style="opacity:1" fill="#010002" d="M 198.5,330.5 C 197.167,330.5 196.5,329.833 196.5,328.5C 197.163,326.958 197.83,325.291 198.5,323.5C 199.714,325.859 199.714,328.192 198.5,330.5 Z"/></g>
<g><path style="opacity:1" fill="#573498" d="M 200.5,322.5 C 201.036,325.698 200.369,328.365 198.5,330.5C 199.714,328.192 199.714,325.859 198.5,323.5C 197.83,325.291 197.163,326.958 196.5,328.5C 196.5,326.5 196.5,324.5 196.5,322.5C 197.833,322.5 199.167,322.5 200.5,322.5 Z"/></g>
<g><path style="opacity:1" fill="#33b2fa" d="M 345.5,320.5 C 349.833,326.833 355.167,332.167 361.5,336.5C 361.082,337.222 360.416,337.722 359.5,338C 360.701,338.903 361.535,340.069 362,341.5C 362.278,340.584 362.778,339.918 363.5,339.5C 367.833,344.167 372.167,348.833 376.5,353.5C 374.708,354.309 372.708,354.809 370.5,355C 374.309,358.246 375.309,362.079 373.5,366.5C 373.649,365.448 373.483,364.448 373,363.5C 369.629,360.297 366.462,356.964 363.5,353.5C 364.552,353.649 365.552,353.483 366.5,353C 364.981,351.649 363.648,350.149 362.5,348.5C 361.638,349.766 360.971,351.099 360.5,352.5C 359.542,352.953 358.708,353.619 358,354.5C 352.631,348.964 347.131,343.63 341.5,338.5C 343.059,336.376 345.059,334.709 347.5,333.5C 344.495,329.42 343.828,325.086 345.5,320.5 Z"/></g>
<g><path style="opacity:1" fill="#b22cf4" d="M 144.5,325.5 C 152.149,325.314 155.315,328.981 154,336.5C 148.833,342.092 144.167,341.759 140,335.5C 139.077,331.017 140.577,327.683 144.5,325.5 Z"/></g>
<g><path style="opacity:1" fill="#23ceed" d="M 427.5,330.5 C 436.437,329.603 438.771,333.103 434.5,341C 424.918,341.949 422.584,338.449 427.5,330.5 Z"/></g>
<g><path style="opacity:1" fill="#a142f9" d="M 176.5,318.5 C 187.5,328.833 198.167,339.5 208.5,350.5C 207.942,351.79 206.942,352.623 205.5,353C 202.854,353.497 200.187,353.664 197.5,353.5C 197.802,356.059 197.468,358.393 196.5,360.5C 193.772,356.263 190.439,352.429 186.5,349C 185.552,348.517 184.552,348.351 183.5,348.5C 185.292,347.691 187.292,347.191 189.5,347C 188.167,343.667 188.167,340.333 189.5,337C 186.854,336.503 184.187,336.336 181.5,336.5C 182.17,346.655 177.504,350.489 167.5,348C 161.772,343.24 161.105,337.907 165.5,332C 168.206,330.092 171.206,329.259 174.5,329.5C 174.335,326.482 174.502,323.482 175,320.5C 175.278,319.584 175.778,318.918 176.5,318.5 Z"/></g>
<g><path style="opacity:1" fill="#0e181e" d="M 363.5,339.5 C 362.778,339.918 362.278,340.584 362,341.5C 361.535,340.069 360.701,338.903 359.5,338C 360.416,337.722 361.082,337.222 361.5,336.5C 364.267,335.949 366.6,334.616 368.5,332.5C 371.076,333.883 370.742,334.717 367.5,335C 365.959,336.371 364.625,337.871 363.5,339.5 Z"/></g>
<g><path style="opacity:1" fill="#29bdfa" d="M 345.5,301.5 C 345.343,302.873 345.51,304.207 346,305.5C 356.333,315.833 366.667,326.167 377,336.5C 377.671,335.748 378.504,335.414 379.5,335.5C 382,339.372 383.167,343.706 383,348.5C 390.287,345.061 394.787,347.394 396.5,355.5C 394.795,362.347 390.461,364.847 383.5,363C 380.288,360.269 378.788,356.769 379,352.5C 378.329,353.252 377.496,353.586 376.5,353.5C 372.167,348.833 367.833,344.167 363.5,339.5C 364.625,337.871 365.959,336.371 367.5,335C 370.742,334.717 371.076,333.883 368.5,332.5C 366.6,334.616 364.267,335.949 361.5,336.5C 355.167,332.167 349.833,326.833 345.5,320.5C 346.389,318.264 347.722,316.264 349.5,314.5C 345.676,310.711 344.343,306.378 345.5,301.5 Z"/></g>
<g><path style="opacity:1" fill="#c11cf2" d="M 132.5,339.5 C 138.653,339.484 141.486,342.484 141,348.5C 135.613,354.153 131.447,353.32 128.5,346C 129.25,343.429 130.583,341.262 132.5,339.5 Z"/></g>
<g><path style="opacity:1" fill="#21c3ee" d="M 408.5,339.5 C 415.706,339.202 418.873,342.535 418,349.5C 413.333,356.167 408.667,356.167 404,349.5C 403.077,345.017 404.577,341.683 408.5,339.5 Z"/></g>
<g><path style="opacity:1" fill="#24d3f0" d="M 442.5,342.5 C 449.486,342.331 451.153,345.164 447.5,351C 440.416,351.475 438.749,348.642 442.5,342.5 Z"/></g>
<g><path style="opacity:1" fill="#ba28f9" d="M 156.5,345.5 C 166.554,345.379 169.554,349.879 165.5,359C 156.406,362.235 152.239,359.068 153,349.5C 154.376,348.295 155.542,346.962 156.5,345.5 Z"/></g>
<g><path style="opacity:1" fill="#b032f7" d="M 183.5,348.5 C 184.552,348.351 185.552,348.517 186.5,349C 190.439,352.429 193.772,356.263 196.5,360.5C 196.089,364.079 194.089,366.246 190.5,367C 188.231,367.758 186.064,367.591 184,366.5C 185.699,371.757 184.199,375.923 179.5,379C 170.783,379.949 167.283,376.116 169,367.5C 171.619,364.111 175.119,362.611 179.5,363C 175.94,356.663 177.273,351.829 183.5,348.5 Z"/></g>
<g><path style="opacity:1" fill="#101e29" d="M 363.5,353.5 C 362.209,353.737 361.209,353.404 360.5,352.5C 360.971,351.099 361.638,349.766 362.5,348.5C 363.648,350.149 364.981,351.649 366.5,353C 365.552,353.483 364.552,353.649 363.5,353.5 Z"/></g>
<g><path style="opacity:1" fill="#21c5ee" d="M 422.5,352.5 C 427.42,351.784 430.42,353.784 431.5,358.5C 430.132,363.078 427.132,364.578 422.5,363C 418.565,359.504 418.565,356.004 422.5,352.5 Z"/></g>
<g><path style="opacity:1" fill="#3da7f9" d="M 341.5,338.5 C 347.131,343.63 352.631,348.964 358,354.5C 358.708,353.619 359.542,352.953 360.5,352.5C 361.209,353.404 362.209,353.737 363.5,353.5C 366.462,356.964 369.629,360.297 373,363.5C 373.483,364.448 373.649,365.448 373.5,366.5C 376.7,366.093 380.033,366.593 383.5,368C 387.5,372.333 387.5,376.667 383.5,381C 374.765,384.123 370.099,380.956 369.5,371.5C 360.879,374.361 355.879,371.361 354.5,362.5C 354.556,359.889 355.556,357.722 357.5,356C 354.77,357.122 351.77,357.622 348.5,357.5C 346.126,354.126 343.126,351.459 339.5,349.5C 337.907,345.387 338.574,341.72 341.5,338.5 Z"/></g>
<g><path style="opacity:1" fill="#c219f0" d="M 145.5,359.5 C 151.679,358.858 154.846,361.525 155,367.5C 152.391,372.568 148.724,373.568 144,370.5C 141.689,366.374 142.189,362.707 145.5,359.5 Z"/></g>
<g><path style="opacity:1" fill="#26bef7" d="M 400.5,361.5 C 408.328,360.493 411.494,363.826 410,371.5C 405.246,376.951 400.913,376.617 397,370.5C 396.333,368.833 396.333,367.167 397,365.5C 398.376,364.295 399.542,362.962 400.5,361.5 Z"/></g>
<g><path style="opacity:1" fill="#22c6ee" d="M 436.5,364.5 C 442.263,364.783 443.93,367.616 441.5,373C 437.777,374.312 435.444,373.145 434.5,369.5C 434.437,367.486 435.103,365.819 436.5,364.5 Z"/></g>
<g><path style="opacity:1" fill="#ac38fa" d="M 201.5,368.5 C 209.486,367.998 211.486,371.165 207.5,378C 199.424,378.805 197.424,375.638 201.5,368.5 Z"/></g>
<g><path style="opacity:1" fill="#627ff5" d="M 320.5,369.5 C 329.854,369.681 334.02,374.348 333,383.5C 329.578,390.296 324.411,392.129 317.5,389C 310.295,381.196 311.295,374.696 320.5,369.5 Z"/></g>
<g><path style="opacity:1" fill="#4e92f4" d="M 339.5,349.5 C 343.126,351.459 346.126,354.126 348.5,357.5C 349.851,359.423 350.518,361.59 350.5,364C 350.075,366.622 349.575,369.122 349,371.5C 359.589,369.756 363.589,374.089 361,384.5C 354.402,391.513 348.736,390.846 344,382.5C 343.289,380.101 343.456,377.768 344.5,375.5C 332.805,376.637 327.638,371.304 329,359.5C 331.765,354.754 335.932,352.587 341.5,353C 340.695,351.887 340.028,350.721 339.5,349.5 Z"/></g>
<g><path style="opacity:1" fill="#24baf2" d="M 414.5,374.5 C 420.85,373.525 423.35,376.192 422,382.5C 418.667,386.5 415.333,386.5 412,382.5C 411.018,379.225 411.851,376.559 414.5,374.5 Z"/></g>
<g><path style="opacity:1" fill="#c918f6" d="M 162.5,377.5 C 169.88,377.043 172.713,380.376 171,387.5C 168.441,390.349 165.274,391.183 161.5,390C 157.309,385.46 157.642,381.293 162.5,377.5 Z"/></g>
<g><path style="opacity:1" fill="#a038ed" d="M 219.5,380.5 C 225.653,380.484 228.486,383.484 228,389.5C 224,394.833 220,394.833 216,389.5C 215.333,387.833 215.333,386.167 216,384.5C 217.376,383.295 218.542,381.962 219.5,380.5 Z"/></g>
<g><path style="opacity:1" fill="#39a8f4" d="M 390.5,381.5 C 399.515,381.623 401.848,385.623 397.5,393.5C 389.715,396.202 386.215,393.536 387,385.5C 388.376,384.295 389.542,382.962 390.5,381.5 Z"/></g>
<g><path style="opacity:1" fill="#bd24f7" d="M 186.5,382.5 C 192.488,382.664 193.821,385.164 190.5,390C 184.403,390.147 183.07,387.647 186.5,382.5 Z"/></g>
<g><path style="opacity:1" fill="#756df7" d="M 299.5,382.5 C 310.157,380.658 314.657,384.991 313,395.5C 307.755,401.778 302.088,402.111 296,396.5C 293.432,390.909 294.599,386.243 299.5,382.5 Z"/></g>
<g><path style="opacity:1" fill="#23bcf2" d="M 427.5,386.5 C 432.494,386.329 434.328,388.662 433,393.5C 429.102,396.645 426.602,395.812 425.5,391C 425.519,389.167 426.185,387.667 427.5,386.5 Z"/></g>
<g><path style="opacity:1" fill="#6283fa" d="M 333.5,386.5 C 342.658,384.835 346.825,388.501 346,397.5C 342.086,404.096 337.086,405.096 331,400.5C 328.418,395.12 329.251,390.453 333.5,386.5 Z"/></g>
<g><path style="opacity:1" fill="#4e91f3" d="M 361.5,385.5 C 372.818,384.99 375.485,389.49 369.5,399C 364.758,401.229 360.925,400.062 358,395.5C 357.333,393.5 357.333,391.5 358,389.5C 359.376,388.295 360.542,386.962 361.5,385.5 Z"/></g>
<g><path style="opacity:1" fill="#9f41f5" d="M 238.5,388.5 C 247.872,388.414 250.539,392.581 246.5,401C 238.398,403.895 234.565,401.062 235,392.5C 236.376,391.295 237.542,389.962 238.5,388.5 Z"/></g>
<g><path style="opacity:1" fill="#865cf8" d="M 279.5,389.5 C 288.658,387.835 292.825,391.501 292,400.5C 288.086,407.096 283.086,408.096 277,403.5C 274.418,398.12 275.251,393.453 279.5,389.5 Z"/></g>
<g><path style="opacity:1" fill="#944df6" d="M 258.5,391.5 C 266.712,390.226 270.546,393.559 270,401.5C 267.565,406.224 263.731,407.724 258.5,406C 253.232,401.171 253.232,396.337 258.5,391.5 Z"/></g>
<g><path style="opacity:1" fill="#b927f6" d="M 202.5,395.5 C 209.486,395.331 211.153,398.164 207.5,404C 200.416,404.475 198.749,401.642 202.5,395.5 Z"/></g>
<g><path style="opacity:1" fill="#38a8f4" d="M 402.5,395.5 C 409.488,394.648 411.822,397.481 409.5,404C 403.24,406.412 400.407,404.245 401,397.5C 401.717,396.956 402.217,396.289 402.5,395.5 Z"/></g>
<g><path style="opacity:1" fill="#bc16e2" d="M 169.5,398.5 C 173.35,398.701 174.35,400.534 172.5,404C 168.537,404.118 167.537,402.284 169.5,398.5 Z"/></g>
<g><path style="opacity:1" fill="#736ff7" d="M 316.5,398.5 C 325.158,397.327 328.992,400.994 328,409.5C 323.049,416.154 318.049,416.154 313,409.5C 311.662,404.96 312.829,401.293 316.5,398.5 Z"/></g>
<g><path style="opacity:1" fill="#4c92f2" d="M 377.5,400.5 C 384.088,400.657 386.588,403.99 385,410.5C 381.254,414.393 377.588,414.393 374,410.5C 372.581,406.082 373.748,402.749 377.5,400.5 Z"/></g>
<g><path style="opacity:1" fill="#637ef6" d="M 346.5,401.5 C 353.655,401.153 356.821,404.486 356,411.5C 351.965,416.364 347.632,416.698 343,412.5C 341.518,407.774 342.685,404.107 346.5,401.5 Z"/></g>
<g><path style="opacity:1" fill="#a92ae7" d="M 220.5,404.5 C 228.818,404.987 230.485,408.487 225.5,415C 220.617,416.13 217.95,414.13 217.5,409C 218.315,407.357 219.315,405.857 220.5,404.5 Z"/></g>
<g><path style="opacity:1" fill="#37a6f1" d="M 414.5,407.5 C 421.004,407.138 422.671,409.638 419.5,415C 413.785,415.401 412.119,412.901 414.5,407.5 Z"/></g>
<g><path style="opacity:1" fill="#a733ef" d="M 239.5,410.5 C 245.806,409.707 248.639,412.374 248,418.5C 244.283,423.815 240.617,423.815 237,418.5C 236.018,415.225 236.851,412.559 239.5,410.5 Z"/></g>
<g><path style="opacity:1" fill="#924cf4" d="M 279.5,411.5 C 286.655,411.153 289.821,414.486 289,421.5C 284.585,426.726 280.251,426.726 276,421.5C 274.756,417.191 275.923,413.858 279.5,411.5 Z"/></g>
<g><path style="opacity:1" fill="#875cf8" d="M 298.5,406.5 C 309.132,406.593 311.799,411.093 306.5,420C 297.894,422.732 294.061,419.566 295,410.5C 296.376,409.295 297.542,407.962 298.5,406.5 Z"/></g>
<g><path style="opacity:1" fill="#bd16e4" d="M 186.5,412.5 C 191.159,412.015 192.492,413.848 190.5,418C 184.546,419.227 183.212,417.394 186.5,412.5 Z"/></g>
<g><path style="opacity:1" fill="#9e3ff2" d="M 259.5,412.5 C 268.369,412.517 270.703,416.35 266.5,424C 259.884,426.704 256.384,424.537 256,417.5C 256.997,415.677 258.164,414.01 259.5,412.5 Z"/></g>
<g><path style="opacity:1" fill="#cf1fed" d="M 152.5,413.5 C 153.5,413.5 154.5,413.5 155.5,413.5C 155.5,414.5 155.5,415.5 155.5,416.5C 154.5,416.5 153.5,416.5 152.5,416.5C 152.5,415.5 152.5,414.5 152.5,413.5 Z"/></g>
<g><path style="opacity:1" fill="#756bf5" d="M 328.5,414.5 C 335.771,414.036 338.604,417.369 337,424.5C 333,428.5 329,428.5 325,424.5C 323.756,420.191 324.923,416.858 328.5,414.5 Z"/></g>
<g><path style="opacity:1" fill="#4e92f5" d="M 388.5,414.5 C 395.602,414.073 397.602,416.907 394.5,423C 386.749,424.091 384.749,421.258 388.5,414.5 Z"/></g>
<g><path style="opacity:1" fill="#647df6" d="M 359.5,418.5 C 366.163,417.333 368.997,419.999 368,426.5C 364.333,430.5 360.667,430.5 357,426.5C 356.018,423.225 356.851,420.559 359.5,418.5 Z"/></g>
<g><path style="opacity:1" fill="#c316ef" d="M 205.5,422.5 C 210.668,423.339 211.668,425.839 208.5,430C 206.567,430.783 205.067,430.283 204,428.5C 203.252,426.16 203.752,424.16 205.5,422.5 Z"/></g>
<g><path style="opacity:1" fill="#8959f7" d="M 308.5,424.5 C 317.823,424.741 319.823,428.574 314.5,436C 307.333,437.5 304.5,434.667 306,427.5C 307.045,426.627 307.878,425.627 308.5,424.5 Z"/></g>
<g><path style="opacity:1" fill="#8e199d" d="M 137.5,426.5 C 138.675,426.281 139.675,426.614 140.5,427.5C 138.948,428.798 137.948,428.465 137.5,426.5 Z"/></g>
<g><path style="opacity:1" fill="#c41de2" d="M 170.5,428.5 C 171.833,428.5 173.167,428.5 174.5,428.5C 174.465,434.024 172.799,434.691 169.5,430.5C 169.863,429.817 170.196,429.15 170.5,428.5 Z"/></g>
<g><path style="opacity:1" fill="#4887e2" d="M 400.5,426.5 C 406.488,426.664 407.821,429.164 404.5,434C 398.403,434.147 397.07,431.647 400.5,426.5 Z"/></g>
<g><path style="opacity:1" fill="#b41de7" d="M 225.5,429.5 C 231.293,430.421 232.626,433.255 229.5,438C 222.344,437.856 221.011,435.023 225.5,429.5 Z"/></g>
<g><path style="opacity:1" fill="#9645f0" d="M 288.5,430.5 C 294.765,430.363 297.265,433.363 296,439.5C 292.582,443.367 289.249,443.367 286,439.5C 284.927,435.9 285.76,432.9 288.5,430.5 Z"/></g>
<g><path style="opacity:1" fill="#637cf4" d="M 371.5,431.5 C 378.02,431.717 379.687,434.551 376.5,440C 369.416,440.475 367.749,437.642 371.5,431.5 Z"/></g>
<g><path style="opacity:1" fill="#b128ef" d="M 246.5,433.5 C 251.989,433.504 253.822,436.171 252,441.5C 247.791,444.596 244.958,443.596 243.5,438.5C 243.757,436.308 244.757,434.641 246.5,433.5 Z"/></g>
<g><path style="opacity:1" fill="#7968f7" d="M 340.5,432.5 C 346.337,431.518 349.17,433.851 349,439.5C 345.952,443.01 342.619,443.343 339,440.5C 338.109,437.502 338.609,434.836 340.5,432.5 Z"/></g>
<g><path style="opacity:1" fill="#a535f0" d="M 268.5,433.5 C 274.04,434.369 275.707,437.369 273.5,442.5C 271.004,444.953 268.338,445.12 265.5,443C 263.603,438.828 264.603,435.662 268.5,433.5 Z"/></g>
<g><path style="opacity:1" fill="#cf1df1" d="M 190.5,439.5 C 194.35,439.701 195.35,441.534 193.5,445C 189.537,445.118 188.537,443.284 190.5,439.5 Z"/></g>
<g><path style="opacity:1" fill="#cb23e0" d="M 156.5,441.5 C 158.465,441.948 158.798,442.948 157.5,444.5C 156.614,443.675 156.281,442.675 156.5,441.5 Z"/></g>
<g><path style="opacity:1" fill="#627af0" d="M 382.5,444.5 C 388.555,443.942 389.888,446.109 386.5,451C 381.791,451.082 380.458,448.915 382.5,444.5 Z"/></g>
<g><path style="opacity:1" fill="#8c53f4" d="M 321.5,442.5 C 328.297,443.107 329.964,446.274 326.5,452C 320,453.5 317.5,451 319,444.5C 319.995,443.934 320.828,443.267 321.5,442.5 Z"/></g>
<g><path style="opacity:1" fill="#7765f1" d="M 352.5,446.5 C 358.62,446.259 360.287,448.759 357.5,454C 350.683,454.861 349.016,452.361 352.5,446.5 Z"/></g>
<g><path style="opacity:1" fill="#bd18e0" d="M 210.5,448.5 C 214.73,447.831 216.563,449.498 216,453.5C 210.42,455.752 208.587,454.085 210.5,448.5 Z"/></g>
<g><path style="opacity:1" fill="#9a3fee" d="M 299.5,450.5 C 306.486,450.331 308.153,453.164 304.5,459C 300.26,460.539 297.593,459.206 296.5,455C 297.315,453.357 298.315,451.857 299.5,450.5 Z"/></g>
<g><path style="opacity:1" fill="#81198a" d="M 143.5,453.5 C 145.337,453.639 145.67,454.306 144.5,455.5C 143.702,455.043 143.369,454.376 143.5,453.5 Z"/></g>
<g><path style="opacity:1" fill="#c616f1" d="M 233.5,453.5 C 237.976,453.8 239.31,455.967 237.5,460C 231.339,460.878 230.006,458.711 233.5,453.5 Z"/></g>
<g><path style="opacity:1" fill="#b91ece" d="M 175.5,454.5 C 177.346,454.222 178.68,454.889 179.5,456.5C 177.167,457.941 175.834,457.275 175.5,454.5 Z"/></g>
<g><path style="opacity:1" fill="#b921ef" d="M 255.5,455.5 C 261.02,456.044 262.354,458.544 259.5,463C 253.202,463.495 251.868,460.995 255.5,455.5 Z"/></g>
<g><path style="opacity:1" fill="#a92eec" d="M 277.5,454.5 C 284.358,455.127 285.691,457.96 281.5,463C 276.504,463.664 274.67,461.498 276,456.5C 276.717,455.956 277.217,455.289 277.5,454.5 Z"/></g>
<g><path style="opacity:1" fill="#854de6" d="M 332.5,457.5 C 337.805,458.241 339.139,460.741 336.5,465C 329.193,465.541 327.86,463.041 332.5,457.5 Z"/></g>
<g><path style="opacity:1" fill="#7d68fb" d="M 363.5,459.5 C 368.159,459.015 369.492,460.848 367.5,465C 362.728,465.81 361.395,463.977 363.5,459.5 Z"/></g>
<g><path style="opacity:1" fill="#ba1dd3" d="M 197.5,463.5 C 201.161,463.35 202.161,464.85 200.5,468C 196.707,468.487 195.707,466.987 197.5,463.5 Z"/></g>
<g><path style="opacity:1" fill="#983ce9" d="M 309.5,466.5 C 314.006,465.527 316.172,467.194 316,471.5C 309.645,475.201 307.478,473.534 309.5,466.5 Z"/></g>
<g><path style="opacity:1" fill="#a31eaf" d="M 163.5,467.5 C 165.337,467.639 165.67,468.306 164.5,469.5C 163.702,469.043 163.369,468.376 163.5,467.5 Z"/></g>
<g><path style="opacity:1" fill="#ce1df0" d="M 219.5,470.5 C 223.161,470.35 224.161,471.85 222.5,475C 218.707,475.487 217.707,473.987 219.5,470.5 Z"/></g>
<g><path style="opacity:1" fill="#8b4fee" d="M 342.5,471.5 C 347.159,471.015 348.492,472.848 346.5,477C 341.728,477.81 340.395,475.977 342.5,471.5 Z"/></g>
<g><path style="opacity:1" fill="#a82ae7" d="M 287.5,471.5 C 293.016,471.473 294.349,473.64 291.5,478C 289.888,478.72 288.388,478.554 287,477.5C 286.51,475.455 286.677,473.455 287.5,471.5 Z"/></g>
<g><path style="opacity:1" fill="#bb17e0" d="M 242.5,473.5 C 246.35,473.701 247.35,475.534 245.5,479C 240.289,479.546 239.289,477.713 242.5,473.5 Z"/></g>
<g><path style="opacity:1" fill="#b61ae5" d="M 264.5,474.5 C 268.029,473.889 269.862,475.223 270,478.5C 264.648,481.877 262.815,480.544 264.5,474.5 Z"/></g>
<g><path style="opacity:1" fill="#d425e8" d="M 184.5,477.5 C 186.337,477.639 186.67,478.306 185.5,479.5C 184.702,479.043 184.369,478.376 184.5,477.5 Z"/></g>
<g><path style="opacity:1" fill="#9e3bef" d="M 321.5,480.5 C 325.35,480.701 326.35,482.534 324.5,486C 320.537,486.118 319.537,484.284 321.5,480.5 Z"/></g>
<g><path style="opacity:1" fill="#c220d8" d="M 206.5,485.5 C 209.548,485.494 210.048,486.494 208,488.5C 206.961,487.756 206.461,486.756 206.5,485.5 Z"/></g>
<g><path style="opacity:1" fill="#9d25d5" d="M 298.5,487.5 C 302.138,486.737 303.638,488.07 303,491.5C 298.415,493.413 296.915,492.079 298.5,487.5 Z"/></g>
<g><path style="opacity:1" fill="#c11cdd" d="M 230.5,489.5 C 233.14,490.794 233.14,492.127 230.5,493.5C 229.374,492.192 229.374,490.858 230.5,489.5 Z"/></g>
<g><path style="opacity:1" fill="#a315c1" d="M 252.5,491.5 C 256.161,491.35 257.161,492.85 255.5,496C 251.707,496.487 250.707,494.987 252.5,491.5 Z"/></g>
<g><path style="opacity:1" fill="#a915d1" d="M 276.5,490.5 C 279.084,491.048 280.084,492.715 279.5,495.5C 274.503,495.779 273.503,494.113 276.5,490.5 Z"/></g>
</svg>
