<svg id="svg" version="1.1" xmlns="http://www.w3.org/2000/svg" xmlns:xlink="http://www.w3.org/1999/xlink" width="400" height="400" viewBox="0, 0, 400,400"><g id="svgg"><path id="path0" d="M112.044 38.147 C 111.797 38.445,111.165 38.606,110.639 38.505 C 110.114 38.405,109.080 38.607,108.342 38.954 C 107.604 39.301,106.640 39.650,106.200 39.731 C 105.760 39.812,104.890 40.087,104.266 40.342 C 103.643 40.597,102.968 40.704,102.766 40.579 C 102.565 40.455,102.400 40.633,102.400 40.976 C 102.400 41.369,102.042 41.600,101.432 41.600 C 100.454 41.600,97.912 42.747,97.667 43.300 C 97.593 43.465,97.113 43.600,96.600 43.600 C 96.087 43.600,95.599 43.803,95.517 44.050 C 95.434 44.298,94.887 44.500,94.300 44.500 C 93.713 44.500,93.271 44.703,93.317 44.950 C 93.362 45.198,93.204 45.365,92.965 45.322 C 92.726 45.279,91.950 45.774,91.241 46.422 C 90.531 47.070,89.757 47.600,89.521 47.600 C 89.285 47.600,88.675 48.050,88.165 48.600 C 87.655 49.150,86.969 49.600,86.639 49.600 C 86.309 49.600,85.863 49.915,85.648 50.300 C 85.433 50.685,85.109 50.973,84.928 50.940 C 84.748 50.907,84.645 51.042,84.700 51.240 C 84.755 51.438,84.549 51.600,84.243 51.600 C 83.936 51.600,83.578 51.881,83.446 52.225 C 83.314 52.569,83.020 52.736,82.793 52.596 C 82.566 52.455,82.430 52.579,82.490 52.870 C 82.556 53.187,82.309 53.351,81.877 53.277 C 81.369 53.191,81.191 53.369,81.277 53.877 C 81.347 54.289,81.185 54.557,80.900 54.500 C 80.625 54.445,80.444 54.535,80.497 54.700 C 80.633 55.121,79.247 57.021,78.892 56.900 C 78.732 56.845,78.587 56.935,78.571 57.100 C 78.498 57.867,77.424 59.600,77.021 59.600 C 76.773 59.600,76.543 59.962,76.510 60.404 C 76.443 61.286,75.505 62.400,74.829 62.400 C 74.593 62.400,74.400 62.850,74.400 63.400 C 74.400 63.950,74.220 64.400,74.000 64.400 C 73.780 64.400,73.600 64.918,73.600 65.551 C 73.600 66.184,73.330 66.926,73.000 67.200 C 72.670 67.474,72.400 68.047,72.400 68.473 C 72.400 68.899,72.257 69.159,72.083 69.051 C 71.909 68.944,71.725 69.395,71.675 70.055 C 71.624 70.714,71.320 71.655,70.999 72.146 C 70.678 72.636,70.493 73.442,70.588 73.937 C 70.789 74.982,70.453 76.080,70.014 75.809 C 69.847 75.706,69.843 76.341,70.004 77.219 C 70.164 78.098,70.139 78.914,69.948 79.032 C 69.462 79.333,69.512 83.888,70.012 84.822 C 70.238 85.245,70.456 86.939,70.496 88.585 C 70.545 90.604,70.737 91.644,71.084 91.777 C 71.368 91.886,71.600 92.343,71.600 92.793 C 71.600 93.243,71.780 93.968,72.000 94.405 C 72.220 94.842,72.593 95.579,72.830 96.042 C 73.129 96.629,73.131 96.804,72.834 96.621 C 72.574 96.461,72.502 96.600,72.647 96.979 C 72.778 97.321,73.007 97.600,73.156 97.600 C 73.304 97.600,73.463 98.054,73.509 98.608 C 73.555 99.163,73.880 100.055,74.231 100.591 C 74.582 101.126,74.753 101.753,74.611 101.982 C 74.469 102.212,74.633 102.400,74.976 102.400 C 75.319 102.400,75.600 102.593,75.600 102.829 C 75.600 103.064,75.879 103.536,76.220 103.877 C 76.561 104.218,76.786 104.776,76.720 105.118 C 76.654 105.459,77.113 106.251,77.739 106.878 C 78.371 107.509,78.781 108.272,78.660 108.588 C 78.528 108.932,78.636 109.085,78.930 108.972 C 79.384 108.797,80.583 110.983,80.442 111.730 C 80.408 111.911,80.566 111.945,80.793 111.804 C 81.020 111.664,81.322 111.876,81.465 112.275 C 81.607 112.674,82.911 114.184,84.362 115.630 C 85.813 117.077,87.290 118.607,87.644 119.030 C 87.998 119.454,88.845 120.272,89.527 120.850 C 90.209 121.427,90.685 122.012,90.584 122.150 C 90.483 122.287,90.518 122.312,90.663 122.203 C 90.808 122.095,91.168 122.207,91.463 122.452 C 91.758 122.697,92.000 122.777,92.000 122.628 C 92.000 122.480,92.426 122.818,92.946 123.379 C 93.466 123.941,94.107 124.400,94.369 124.400 C 94.632 124.400,94.737 124.578,94.603 124.795 C 94.465 125.019,94.618 125.091,94.955 124.962 C 95.306 124.827,95.766 125.076,96.072 125.567 C 96.358 126.025,96.920 126.400,97.320 126.400 C 97.720 126.400,97.945 126.565,97.820 126.767 C 97.695 126.970,98.135 127.254,98.797 127.399 C 99.458 127.545,100.000 127.829,100.000 128.032 C 100.000 128.234,100.222 128.400,100.494 128.400 C 100.765 128.400,101.890 128.840,102.994 129.377 C 106.459 131.065,107.889 131.600,108.937 131.600 C 109.496 131.600,110.064 131.780,110.200 132.000 C 110.336 132.220,110.977 132.400,111.624 132.400 C 112.271 132.400,112.755 132.595,112.700 132.833 C 112.616 133.196,113.948 133.515,116.300 133.695 C 116.575 133.716,116.800 133.888,116.800 134.077 C 116.800 134.266,117.763 134.389,118.940 134.350 C 121.061 134.281,121.080 134.269,121.040 133.040 C 121.018 132.358,120.775 131.778,120.500 131.750 C 120.225 131.722,119.550 131.678,119.000 131.650 C 118.382 131.619,118.000 131.362,118.000 130.976 C 118.000 130.633,117.835 130.455,117.632 130.580 C 117.430 130.705,116.993 130.536,116.661 130.204 C 116.329 129.872,115.873 129.600,115.648 129.600 C 115.424 129.600,115.080 129.314,114.884 128.964 C 114.688 128.614,114.364 128.299,114.164 128.264 C 113.964 128.229,113.849 128.052,113.910 127.870 C 113.970 127.689,113.840 127.652,113.621 127.787 C 113.401 127.923,112.902 127.647,112.511 127.174 C 112.120 126.700,111.305 125.807,110.700 125.187 C 110.095 124.568,109.600 123.967,109.600 123.851 C 109.600 123.527,107.089 119.833,106.675 119.548 C 106.474 119.410,106.555 119.208,106.855 119.098 C 107.292 118.939,107.301 118.795,106.900 118.370 C 106.625 118.079,106.400 117.462,106.400 117.000 C 106.400 116.538,106.226 115.986,106.013 115.773 C 105.799 115.559,105.514 114.668,105.379 113.793 C 105.244 112.917,104.968 112.029,104.766 111.820 C 104.290 111.326,104.288 106.508,104.764 106.333 C 104.964 106.260,105.250 105.210,105.400 104.000 C 105.550 102.790,105.836 101.740,106.036 101.667 C 106.236 101.593,106.400 101.224,106.400 100.847 C 106.400 100.469,106.616 99.944,106.880 99.680 C 107.253 99.307,107.253 99.200,106.880 99.200 C 106.616 99.200,106.400 99.020,106.400 98.800 C 106.400 98.580,106.670 98.400,107.000 98.400 C 107.373 98.400,107.600 98.022,107.600 97.400 C 107.600 96.850,107.780 96.400,108.000 96.400 C 108.220 96.400,108.400 96.130,108.400 95.800 C 108.400 95.470,108.535 95.245,108.700 95.300 C 108.865 95.355,109.008 95.310,109.018 95.200 C 109.109 94.212,110.675 92.433,111.284 92.627 C 111.770 92.781,111.930 92.683,111.789 92.316 C 111.528 91.636,114.638 88.362,115.614 88.289 C 116.016 88.259,116.256 88.091,116.149 87.917 C 115.985 87.652,116.984 87.441,117.300 87.674 C 117.355 87.714,117.921 87.264,118.558 86.674 C 119.196 86.083,120.038 85.600,120.430 85.600 C 120.822 85.600,121.458 85.285,121.843 84.900 C 122.505 84.238,127.157 84.200,208.233 84.200 C 255.363 84.200,293.848 84.078,293.756 83.929 C 293.664 83.780,293.932 83.549,294.351 83.416 C 294.770 83.282,295.221 82.774,295.351 82.287 C 295.666 81.114,295.671 39.050,295.357 38.231 C 295.015 37.340,112.783 37.257,112.044 38.147 M58.158 76.165 C 57.995 76.591,57.610 76.791,57.175 76.678 C 56.723 76.559,56.529 76.671,56.648 76.981 C 56.752 77.251,56.558 77.703,56.218 77.985 C 55.878 78.267,55.600 78.656,55.600 78.849 C 55.600 79.273,54.128 80.794,53.919 80.586 C 53.838 80.504,53.732 80.914,53.684 81.497 C 53.636 82.079,53.449 82.655,53.269 82.778 C 53.089 82.900,52.813 83.270,52.655 83.600 C 51.874 85.236,51.297 85.967,51.000 85.698 C 50.820 85.534,50.785 85.598,50.923 85.841 C 51.061 86.083,50.820 86.976,50.387 87.825 C 49.954 88.674,49.600 89.852,49.600 90.442 C 49.600 91.032,49.330 91.618,49.000 91.745 C 48.670 91.871,48.400 92.330,48.400 92.764 C 48.400 93.198,48.220 93.664,48.000 93.800 C 47.780 93.936,47.600 94.487,47.600 95.024 C 47.600 95.561,47.375 96.001,47.100 96.002 C 46.767 96.003,46.574 96.771,46.523 98.294 C 46.481 99.554,46.256 100.648,46.023 100.726 C 45.791 100.803,45.600 101.626,45.600 102.553 C 45.600 103.481,45.417 104.423,45.193 104.647 C 44.101 105.739,42.974 126.964,43.946 128.135 C 44.164 128.398,44.401 129.720,44.471 131.072 C 44.542 132.425,44.780 133.502,45.000 133.466 C 45.220 133.430,45.457 134.207,45.528 135.193 C 45.598 136.180,45.814 137.085,46.008 137.205 C 46.202 137.325,46.414 138.450,46.479 139.707 C 46.551 141.069,46.801 142.068,47.099 142.183 C 47.375 142.288,47.600 142.705,47.600 143.107 C 47.600 143.510,47.779 144.019,47.998 144.238 C 48.216 144.456,48.434 145.102,48.481 145.673 C 48.536 146.335,48.754 146.639,49.084 146.513 C 49.534 146.340,49.844 147.652,49.647 148.900 C 49.621 149.065,49.791 149.200,50.024 149.200 C 50.257 149.200,50.349 149.359,50.229 149.553 C 50.109 149.747,50.331 150.332,50.721 150.853 C 51.445 151.817,52.520 153.945,52.571 154.515 C 52.587 154.688,52.870 155.000,53.200 155.208 C 53.530 155.417,53.643 155.591,53.451 155.594 C 53.259 155.597,53.326 155.870,53.600 156.200 C 53.874 156.530,53.992 156.800,53.862 156.800 C 53.733 156.800,54.161 157.346,54.813 158.014 C 55.466 158.681,56.000 159.491,56.000 159.814 C 56.000 160.136,56.199 160.400,56.443 160.400 C 56.686 160.400,56.782 160.670,56.655 161.000 C 56.515 161.365,56.655 161.600,57.013 161.600 C 57.336 161.600,57.600 161.827,57.600 162.104 C 57.600 162.381,58.050 163.093,58.600 163.687 C 59.150 164.280,59.600 164.923,59.600 165.115 C 59.600 165.307,60.047 165.704,60.593 165.996 C 61.140 166.289,61.689 166.850,61.814 167.244 C 61.939 167.637,62.392 168.070,62.820 168.206 C 63.249 168.343,63.600 168.712,63.600 169.027 C 63.600 169.687,65.724 171.886,68.595 174.200 C 69.687 175.080,71.077 176.298,71.684 176.908 C 72.291 177.517,73.251 178.191,73.818 178.407 C 74.385 178.622,74.737 178.979,74.600 179.199 C 74.464 179.420,74.636 179.600,74.982 179.600 C 75.768 179.600,77.296 180.437,77.720 181.100 C 77.896 181.375,78.391 181.600,78.820 181.600 C 79.249 181.600,79.600 181.780,79.600 182.000 C 79.600 182.220,79.771 182.400,79.979 182.400 C 80.188 182.400,80.844 182.850,81.438 183.400 C 82.031 183.950,82.861 184.400,83.282 184.400 C 83.703 184.400,83.937 184.578,83.803 184.795 C 83.663 185.022,83.823 185.089,84.179 184.953 C 84.522 184.821,84.800 184.924,84.800 185.181 C 84.800 185.437,84.965 185.545,85.168 185.420 C 85.370 185.295,85.775 185.419,86.068 185.696 C 86.360 185.973,87.050 186.264,87.600 186.341 C 88.150 186.419,88.690 186.612,88.800 186.770 C 88.995 187.051,90.335 187.697,90.867 187.765 C 91.013 187.784,91.268 187.935,91.433 188.100 C 91.598 188.265,92.423 188.400,93.267 188.400 C 94.110 188.400,94.800 188.578,94.800 188.795 C 94.800 189.013,95.520 189.306,96.400 189.446 C 97.280 189.587,98.000 189.859,98.000 190.051 C 98.000 190.243,98.504 190.400,99.120 190.400 C 99.736 190.400,100.443 190.603,100.691 190.851 C 100.940 191.100,102.011 191.349,103.071 191.407 C 104.132 191.464,105.090 191.547,105.200 191.592 C 105.310 191.636,106.428 191.663,107.685 191.651 C 108.942 191.639,110.078 191.803,110.209 192.015 C 110.361 192.260,142.904 192.400,199.747 192.400 C 277.646 192.400,289.146 192.475,289.824 192.987 C 290.251 193.310,291.365 193.580,292.300 193.587 C 293.235 193.594,294.000 193.780,294.000 194.000 C 294.000 194.220,294.780 194.400,295.733 194.400 C 296.687 194.400,297.592 194.525,297.745 194.678 C 298.054 194.988,298.406 195.093,300.300 195.448 C 301.015 195.581,301.600 195.812,301.600 195.960 C 301.600 196.108,301.993 196.259,302.473 196.296 C 302.954 196.332,303.503 196.640,303.693 196.981 C 303.884 197.321,304.380 197.600,304.796 197.600 C 305.212 197.600,305.664 197.780,305.800 198.000 C 305.936 198.220,306.686 198.400,307.466 198.400 C 308.585 198.400,308.835 198.532,308.647 199.021 C 308.514 199.370,308.579 199.537,308.796 199.402 C 309.252 199.121,310.451 199.708,311.440 200.697 C 311.827 201.084,312.291 201.422,312.471 201.450 C 312.652 201.477,313.010 201.523,313.267 201.550 C 313.523 201.578,313.616 201.717,313.474 201.860 C 313.331 202.003,314.024 202.510,315.013 202.987 C 316.003 203.464,316.690 203.977,316.540 204.127 C 316.390 204.277,316.637 204.400,317.091 204.400 C 317.544 204.400,318.018 204.670,318.145 205.000 C 318.271 205.330,318.651 205.600,318.987 205.600 C 319.324 205.600,319.600 205.780,319.600 206.000 C 319.600 206.220,319.792 206.400,320.026 206.400 C 320.566 206.400,322.637 208.846,322.490 209.311 C 322.430 209.503,322.538 209.562,322.732 209.442 C 323.216 209.143,324.881 210.978,324.504 211.394 C 324.337 211.578,324.426 211.598,324.703 211.439 C 324.997 211.270,325.305 211.409,325.446 211.775 C 325.578 212.119,325.966 212.400,326.309 212.400 C 326.653 212.400,326.824 212.510,326.690 212.644 C 326.556 212.778,327.011 213.403,327.700 214.033 C 328.390 214.663,328.841 215.292,328.702 215.431 C 328.563 215.570,328.888 216.091,329.425 216.588 C 329.961 217.085,330.400 217.786,330.400 218.146 C 330.400 218.506,330.625 218.806,330.900 218.813 C 331.395 218.825,333.600 222.102,333.600 222.825 C 333.600 223.031,333.802 223.200,334.049 223.200 C 334.352 223.200,334.330 223.402,333.981 223.823 C 333.556 224.335,333.561 224.424,334.014 224.323 C 334.316 224.255,334.572 224.470,334.582 224.800 C 334.598 225.326,337.779 225.413,360.290 225.508 L 385.981 225.616 386.228 224.631 C 386.364 224.089,386.329 223.410,386.149 223.123 C 385.970 222.835,385.759 222.240,385.680 221.800 C 385.601 221.360,385.494 220.761,385.440 220.468 C 385.387 220.175,385.158 219.815,384.931 219.668 C 384.705 219.521,384.412 218.950,384.281 218.400 C 383.455 214.931,383.025 213.600,382.733 213.600 C 382.550 213.600,382.400 213.172,382.400 212.649 C 382.400 212.126,382.132 211.476,381.804 211.204 C 381.477 210.932,381.301 210.561,381.413 210.379 C 381.525 210.198,381.367 209.903,381.062 209.725 C 380.589 209.448,380.166 208.097,379.927 206.100 C 379.894 205.825,379.717 205.600,379.533 205.600 C 379.350 205.600,379.245 205.375,379.300 205.100 C 379.355 204.825,379.175 204.645,378.900 204.700 C 378.452 204.790,378.173 203.653,378.386 202.600 C 378.430 202.380,378.347 202.320,378.200 202.467 C 377.884 202.782,376.400 201.389,376.400 200.776 C 376.400 200.542,376.624 200.489,376.900 200.656 C 377.324 200.914,375.469 198.186,374.821 197.600 C 374.700 197.490,374.081 196.410,373.447 195.200 C 372.812 193.990,371.867 192.604,371.347 192.119 C 370.826 191.635,370.400 191.037,370.400 190.791 C 370.400 190.544,370.128 190.071,369.796 189.739 C 369.464 189.407,369.312 188.942,369.458 188.706 C 369.604 188.470,369.548 188.385,369.333 188.518 C 368.825 188.832,367.075 186.689,366.542 185.100 C 366.412 184.715,366.124 184.400,365.900 184.400 C 365.483 184.400,363.641 182.440,363.550 181.900 C 363.523 181.735,363.469 181.375,363.432 181.100 C 363.394 180.825,363.192 180.619,362.982 180.643 C 362.606 180.685,361.200 179.389,361.200 179.000 C 361.200 178.890,361.155 178.830,361.100 178.866 C 361.045 178.902,359.320 177.282,357.267 175.266 C 355.214 173.250,353.350 171.600,353.124 171.600 C 352.899 171.600,352.822 171.321,352.953 170.979 C 353.084 170.638,353.031 170.457,352.835 170.578 C 352.491 170.791,351.520 170.055,348.464 167.263 C 347.659 166.527,346.584 165.763,346.076 165.564 C 345.523 165.347,345.267 165.016,345.438 164.739 C 345.597 164.481,345.550 164.384,345.330 164.519 C 345.114 164.653,344.389 164.276,343.720 163.681 C 343.051 163.087,342.255 162.541,341.951 162.470 C 341.648 162.398,341.340 162.173,341.267 161.970 C 341.193 161.766,340.780 161.600,340.348 161.600 C 339.917 161.600,339.114 161.150,338.564 160.600 C 338.014 160.050,337.379 159.600,337.153 159.600 C 336.928 159.600,336.471 159.328,336.139 158.996 C 335.807 158.664,335.390 158.482,335.213 158.592 C 335.036 158.702,334.668 158.523,334.396 158.196 C 334.124 157.868,333.685 157.600,333.421 157.600 C 333.156 157.600,332.517 157.150,332.000 156.600 C 331.483 156.050,330.835 155.600,330.559 155.600 C 330.283 155.600,329.819 155.375,329.529 155.100 C 329.238 154.825,328.460 154.542,327.800 154.472 C 327.140 154.402,326.540 154.177,326.467 153.972 C 326.393 153.767,325.898 153.600,325.367 153.600 C 324.835 153.600,324.400 153.432,324.400 153.227 C 324.400 153.022,324.037 152.739,323.594 152.598 C 323.151 152.457,322.909 152.148,323.056 151.909 C 323.213 151.655,323.137 151.591,322.871 151.756 C 322.278 152.123,319.200 151.288,319.200 150.761 C 319.200 150.536,319.052 150.444,318.871 150.556 C 318.691 150.668,318.040 150.498,317.426 150.180 C 316.811 149.861,315.877 149.600,315.349 149.600 C 314.373 149.600,313.163 149.052,311.900 148.038 C 311.407 147.642,311.200 147.617,311.200 147.952 C 311.200 148.313,310.995 148.319,310.352 147.974 C 309.700 147.626,309.572 147.632,309.800 148.000 C 310.026 148.366,309.901 148.375,309.275 148.040 C 308.822 147.798,308.068 147.600,307.598 147.600 C 307.128 147.600,306.473 147.330,306.143 147.000 C 305.813 146.670,304.846 146.400,303.995 146.400 C 303.144 146.400,302.336 146.220,302.200 146.000 C 302.064 145.780,300.982 145.600,299.796 145.600 C 298.220 145.600,297.542 145.425,297.275 144.949 C 297.046 144.539,296.814 144.454,296.650 144.719 C 296.479 144.997,295.961 145.018,295.138 144.782 C 294.418 144.576,255.641 144.416,203.664 144.406 C 139.983 144.394,113.362 144.262,113.175 143.960 C 113.030 143.724,112.796 143.547,112.655 143.566 C 110.799 143.814,107.218 143.515,107.300 143.118 C 107.360 142.831,106.875 142.609,106.100 142.568 C 103.763 142.446,103.551 142.404,103.736 142.100 C 103.838 141.935,102.903 141.745,101.660 141.677 C 100.417 141.610,99.340 141.385,99.267 141.177 C 99.193 140.970,98.958 140.800,98.745 140.800 C 98.016 140.800,94.800 139.181,94.800 138.815 C 94.800 138.614,94.305 138.483,93.700 138.525 C 93.004 138.572,92.637 138.416,92.700 138.100 C 92.762 137.789,92.347 137.600,91.600 137.600 C 90.940 137.600,90.400 137.440,90.400 137.243 C 90.400 137.047,89.950 136.774,89.400 136.636 C 88.850 136.498,88.400 136.208,88.400 135.992 C 88.400 135.777,88.083 135.600,87.696 135.600 C 87.309 135.600,86.507 135.150,85.913 134.600 C 85.320 134.050,84.557 133.600,84.217 133.600 C 83.878 133.600,83.600 133.432,83.600 133.227 C 83.600 133.022,83.237 132.739,82.794 132.598 C 82.351 132.457,82.092 132.175,82.218 131.971 C 82.344 131.767,82.102 131.600,81.680 131.600 C 81.257 131.600,80.574 131.150,80.161 130.600 C 79.748 130.050,79.183 129.600,78.905 129.600 C 78.627 129.600,78.400 129.330,78.400 129.000 C 78.400 128.670,78.213 128.400,77.985 128.400 C 77.353 128.400,71.581 122.354,71.830 121.952 C 71.949 121.758,71.677 121.600,71.224 121.600 C 70.742 121.600,70.400 121.339,70.400 120.971 C 70.400 120.626,70.128 120.071,69.796 119.739 C 69.464 119.407,69.312 118.942,69.458 118.706 C 69.617 118.449,69.535 118.393,69.253 118.567 C 68.955 118.751,68.576 118.361,68.215 117.497 C 67.902 116.749,67.366 115.904,67.023 115.619 C 66.680 115.335,66.400 114.764,66.400 114.351 C 66.400 113.938,66.220 113.600,66.000 113.600 C 65.780 113.600,65.600 113.240,65.600 112.800 C 65.600 112.360,65.374 112.000,65.098 112.000 C 64.821 112.000,64.364 111.415,64.080 110.700 C 63.797 109.985,63.303 108.890,62.983 108.268 C 62.662 107.645,62.400 106.790,62.400 106.368 C 62.400 105.945,62.220 105.600,62.000 105.600 C 61.780 105.600,61.600 105.163,61.600 104.629 C 61.600 104.094,61.352 103.409,61.049 103.107 C 60.747 102.804,60.402 101.846,60.284 100.978 C 60.166 100.110,59.939 98.680,59.780 97.800 C 59.620 96.920,59.470 95.480,59.445 94.600 C 59.420 93.720,59.175 92.762,58.900 92.471 C 58.150 91.678,58.198 80.266,58.955 79.638 C 59.320 79.335,59.444 78.670,59.317 77.689 C 59.087 75.905,58.536 75.181,58.158 76.165 M50.286 225.080 C 50.460 225.532,47.450 225.912,45.870 225.637 C 45.689 225.606,45.655 225.765,45.794 225.990 C 45.941 226.229,45.578 226.425,44.924 226.461 C 42.811 226.575,42.600 226.638,42.700 227.119 C 42.784 227.525,41.119 227.840,39.900 227.647 C 39.735 227.621,39.645 227.815,39.700 228.077 C 39.756 228.342,39.355 228.565,38.800 228.577 C 38.250 228.590,37.610 228.842,37.378 229.137 C 37.146 229.433,36.488 229.703,35.916 229.737 C 35.345 229.772,34.952 229.922,35.044 230.071 C 35.136 230.220,34.849 230.457,34.406 230.598 C 33.963 230.739,33.600 231.022,33.600 231.227 C 33.600 231.432,33.150 231.600,32.600 231.600 C 32.050 231.600,31.600 231.760,31.600 231.957 C 31.600 232.153,31.150 232.426,30.600 232.564 C 30.050 232.702,29.600 232.992,29.600 233.208 C 29.600 233.423,29.407 233.600,29.171 233.600 C 28.936 233.600,28.481 233.862,28.160 234.183 C 27.839 234.504,27.312 234.664,26.988 234.540 C 26.616 234.397,26.400 234.559,26.400 234.981 C 26.400 235.347,26.220 235.536,26.000 235.400 C 25.780 235.264,25.600 235.343,25.600 235.576 C 25.600 235.809,25.319 236.000,24.976 236.000 C 24.602 236.000,24.468 236.187,24.642 236.468 C 24.835 236.780,24.716 236.853,24.286 236.688 C 23.833 236.514,23.707 236.613,23.863 237.020 C 23.986 237.339,23.883 237.600,23.636 237.600 C 23.388 237.600,22.556 238.248,21.787 239.040 C 20.902 239.952,20.160 240.394,19.768 240.243 C 19.294 240.061,19.207 240.193,19.401 240.803 C 19.639 241.554,19.096 241.850,17.870 241.637 C 17.689 241.606,17.655 241.765,17.794 241.990 C 17.933 242.216,17.862 242.400,17.636 242.400 C 17.410 242.400,17.341 242.701,17.482 243.069 C 17.676 243.575,17.576 243.677,17.074 243.484 C 16.663 243.326,16.446 243.414,16.505 243.714 C 16.557 243.981,16.273 244.173,15.873 244.140 C 15.387 244.100,15.220 244.274,15.369 244.663 C 15.500 245.004,15.012 245.845,14.196 246.685 C 13.428 247.476,12.800 248.248,12.800 248.400 C 12.800 248.957,11.100 250.596,10.656 250.467 C 10.405 250.393,10.328 250.461,10.484 250.617 C 10.836 250.970,9.688 253.285,8.946 253.720 C 8.646 253.896,8.400 254.391,8.400 254.820 C 8.400 255.249,8.220 255.600,8.000 255.600 C 7.780 255.600,7.600 255.870,7.600 256.200 C 7.600 256.530,7.375 256.755,7.100 256.700 C 6.790 256.638,6.648 256.946,6.727 257.509 C 6.804 258.066,6.368 259.030,5.599 260.002 C 4.909 260.873,4.448 261.754,4.576 261.961 C 4.703 262.167,4.536 262.607,4.204 262.939 C 3.872 263.271,3.600 263.903,3.600 264.343 C 3.600 264.783,3.375 265.381,3.100 265.671 C 2.825 265.962,2.541 266.738,2.470 267.395 C 2.398 268.052,2.158 268.702,1.936 268.840 C 1.714 268.977,1.547 269.204,1.566 269.345 C 1.759 270.790,1.528 272.058,1.100 271.895 C 0.429 271.639,0.340 273.322,0.133 290.100 C 0.033 298.177,0.112 304.000,0.321 304.000 C 0.518 304.000,0.662 304.585,0.640 305.300 C 0.618 306.015,0.823 306.780,1.096 307.000 C 1.369 307.220,1.639 308.057,1.696 308.861 C 1.753 309.665,1.916 310.251,2.057 310.164 C 2.199 310.077,2.438 310.497,2.589 311.099 C 2.740 311.700,3.019 312.288,3.210 312.406 C 3.401 312.524,3.603 313.393,3.658 314.336 C 3.714 315.279,3.899 316.137,4.069 316.243 C 4.503 316.511,5.733 319.174,5.733 319.844 C 5.733 320.150,5.822 320.311,5.930 320.203 C 6.038 320.095,6.645 321.033,7.277 322.287 C 7.910 323.541,8.691 324.859,9.014 325.215 C 9.336 325.572,9.600 326.169,9.600 326.544 C 9.600 326.919,9.878 327.332,10.217 327.462 C 10.567 327.596,10.783 328.067,10.717 328.549 C 10.646 329.062,10.799 329.360,11.100 329.300 C 11.375 329.245,11.600 329.470,11.600 329.800 C 11.600 330.130,11.836 330.400,12.125 330.400 C 12.414 330.400,12.901 331.039,13.208 331.819 C 13.514 332.600,14.346 333.735,15.057 334.342 C 15.767 334.949,16.405 335.685,16.474 335.977 C 16.647 336.709,18.201 338.400,18.700 338.400 C 18.924 338.400,19.421 338.878,19.804 339.462 C 20.685 340.807,22.447 342.371,23.100 342.387 C 23.546 342.399,23.797 343.213,23.637 344.130 C 23.606 344.311,23.738 344.362,23.930 344.243 C 24.378 343.966,26.877 345.790,26.528 346.139 C 26.384 346.282,26.580 346.400,26.962 346.400 C 27.344 346.400,27.908 346.625,28.215 346.900 C 29.523 348.073,29.988 348.400,30.350 348.400 C 30.561 348.400,30.793 348.535,30.867 348.700 C 31.053 349.120,34.543 351.392,34.862 351.301 C 35.006 351.259,35.343 351.490,35.611 351.813 C 35.879 352.136,36.436 352.400,36.849 352.400 C 37.262 352.400,37.600 352.670,37.600 353.000 C 37.600 353.352,37.972 353.605,38.500 353.613 C 39.468 353.626,40.930 354.537,40.567 354.900 C 40.445 355.021,41.077 355.244,41.971 355.395 C 42.865 355.546,43.697 355.834,43.822 356.035 C 43.946 356.236,44.375 356.400,44.775 356.400 C 45.175 356.400,45.726 356.670,46.000 357.000 C 46.274 357.330,46.836 357.600,47.249 357.600 C 47.662 357.600,48.000 357.742,48.000 357.915 C 48.000 358.215,48.859 358.414,50.600 358.515 C 51.040 358.541,51.638 358.795,51.929 359.081 C 52.219 359.366,52.995 359.600,53.652 359.600 C 54.366 359.600,54.745 359.765,54.594 360.010 C 54.455 360.235,54.489 360.394,54.670 360.363 C 56.007 360.130,58.400 360.475,58.402 360.900 C 58.404 361.388,59.744 361.609,63.500 361.740 C 64.435 361.773,65.200 361.934,65.200 362.098 C 65.200 362.535,291.379 362.464,292.527 362.028 C 293.051 361.829,294.451 361.622,295.640 361.569 C 296.828 361.516,298.060 361.276,298.377 361.036 C 298.812 360.707,298.881 360.722,298.656 361.095 C 298.454 361.432,298.557 361.515,298.977 361.354 C 299.317 361.223,299.496 360.955,299.374 360.758 C 299.252 360.561,300.207 360.400,301.496 360.400 C 302.785 360.400,304.011 360.233,304.220 360.029 C 304.429 359.825,305.196 359.592,305.926 359.511 C 306.655 359.431,307.375 359.164,307.527 358.919 C 307.678 358.673,308.702 358.422,309.801 358.360 C 310.901 358.298,311.890 358.120,312.000 357.963 C 312.110 357.807,312.827 357.580,313.593 357.460 C 314.360 357.339,315.050 357.051,315.127 356.820 C 315.204 356.589,315.603 356.400,316.015 356.400 C 316.426 356.400,317.176 356.232,317.681 356.027 C 318.187 355.822,319.635 355.347,320.900 354.972 C 322.165 354.597,323.200 354.135,323.200 353.945 C 323.200 353.755,323.656 353.600,324.213 353.600 C 324.769 353.600,325.329 353.330,325.455 353.000 C 325.582 352.670,326.011 352.400,326.409 352.400 C 326.808 352.400,327.193 352.234,327.267 352.031 C 327.340 351.827,327.956 351.599,328.636 351.523 C 329.316 351.447,330.185 351.072,330.567 350.690 C 331.550 349.707,332.749 349.121,333.204 349.402 C 333.421 349.537,333.486 349.370,333.353 349.021 C 333.177 348.562,333.374 348.400,334.108 348.400 C 334.655 348.400,335.328 348.128,335.604 347.795 C 335.881 347.462,336.313 347.237,336.565 347.295 C 336.817 347.353,337.052 347.242,337.087 347.049 C 337.154 346.676,338.542 345.778,339.700 345.360 C 340.085 345.221,340.400 344.948,340.400 344.753 C 340.400 344.559,340.729 344.400,341.130 344.400 C 341.532 344.400,342.271 343.963,342.773 343.429 C 343.275 342.895,343.918 342.547,344.202 342.656 C 344.486 342.765,344.855 342.634,345.021 342.365 C 345.215 342.053,345.157 341.979,344.862 342.162 C 344.608 342.319,344.400 342.260,344.400 342.031 C 344.400 341.802,344.850 341.502,345.400 341.364 C 345.950 341.226,346.400 340.941,346.400 340.730 C 346.400 340.519,346.783 340.468,347.250 340.616 C 347.806 340.792,348.009 340.738,347.837 340.459 C 347.477 339.877,348.451 338.401,349.196 338.397 C 349.528 338.395,350.752 337.502,351.915 336.412 C 353.078 335.323,354.113 334.424,354.215 334.416 C 354.317 334.407,354.439 334.265,354.487 334.100 C 354.591 333.744,356.000 332.432,357.143 331.627 C 357.591 331.312,357.896 330.952,357.821 330.827 C 357.745 330.702,357.935 330.368,358.242 330.084 C 358.549 329.801,358.800 329.693,358.800 329.845 C 358.800 329.998,359.115 329.733,359.500 329.257 C 359.885 328.782,360.560 327.946,361.000 327.400 C 361.440 326.855,362.055 326.406,362.367 326.404 C 362.678 326.402,362.835 326.301,362.714 326.181 C 362.593 326.060,363.372 325.025,364.444 323.881 C 365.516 322.736,366.395 321.603,366.397 321.362 C 366.402 320.653,367.909 319.496,368.418 319.811 C 368.746 320.014,368.805 319.846,368.616 319.250 C 368.468 318.783,368.509 318.400,368.709 318.400 C 368.908 318.400,369.281 317.940,369.537 317.377 C 369.803 316.796,370.194 316.472,370.445 316.628 C 370.741 316.811,370.796 316.619,370.613 316.040 C 370.463 315.567,370.488 315.229,370.670 315.290 C 370.851 315.350,371.029 315.236,371.064 315.036 C 371.099 314.836,371.414 314.512,371.764 314.316 C 372.114 314.120,372.400 313.609,372.400 313.180 C 372.400 312.751,372.577 312.400,372.792 312.400 C 373.008 312.400,373.298 311.950,373.436 311.400 C 373.574 310.850,373.847 310.400,374.043 310.400 C 374.240 310.400,374.400 310.130,374.400 309.800 C 374.400 309.470,374.539 309.200,374.709 309.200 C 374.879 309.200,375.349 308.525,375.753 307.700 C 376.157 306.875,376.643 305.930,376.833 305.600 C 377.023 305.270,377.473 304.415,377.835 303.700 C 378.196 302.985,378.651 302.400,378.846 302.400 C 379.041 302.400,379.176 302.265,379.146 302.100 C 379.028 301.434,379.723 299.200,380.050 299.200 C 380.243 299.200,380.400 298.862,380.400 298.449 C 380.400 298.036,380.670 297.474,381.000 297.200 C 381.330 296.926,381.600 296.364,381.600 295.951 C 381.600 295.538,381.780 295.200,382.000 295.200 C 382.220 295.200,382.400 294.861,382.400 294.446 C 382.400 294.031,382.669 293.176,382.998 292.546 C 383.326 291.916,383.596 290.995,383.598 290.500 C 383.599 290.005,383.780 289.600,384.000 289.600 C 384.220 289.600,384.400 289.060,384.400 288.400 C 384.400 287.740,384.577 287.200,384.792 287.200 C 385.335 287.200,385.728 285.434,385.409 284.429 C 385.147 283.602,385.091 283.600,359.643 283.600 L 334.139 283.600 333.170 284.632 C 332.636 285.200,332.263 285.756,332.341 285.868 C 332.419 285.980,332.104 286.507,331.641 287.039 C 331.178 287.571,330.800 288.185,330.800 288.403 C 330.800 288.621,330.616 288.800,330.390 288.800 C 330.165 288.800,329.805 289.261,329.591 289.824 C 329.354 290.447,329.020 290.736,328.739 290.562 C 328.451 290.384,328.385 290.452,328.564 290.741 C 328.724 291.001,328.575 291.311,328.225 291.446 C 327.881 291.578,327.600 291.894,327.600 292.148 C 327.600 292.402,327.150 292.948,326.600 293.361 C 326.050 293.774,325.600 294.312,325.600 294.557 C 325.600 294.802,324.679 295.812,323.553 296.801 C 322.427 297.791,321.017 299.060,320.419 299.622 C 319.821 300.184,319.094 300.565,318.802 300.467 C 318.449 300.350,318.356 300.509,318.524 300.945 C 318.705 301.417,318.551 301.600,317.975 301.600 C 317.535 301.600,317.071 301.870,316.945 302.200 C 316.818 302.530,316.555 302.800,316.360 302.800 C 316.165 302.800,315.540 303.205,314.971 303.700 C 314.402 304.195,313.764 304.600,313.553 304.600 C 313.343 304.600,313.018 304.848,312.830 305.151 C 312.643 305.454,312.289 305.579,312.045 305.428 C 311.800 305.276,311.600 305.363,311.600 305.619 C 311.600 305.876,311.332 305.983,311.005 305.857 C 310.661 305.725,310.450 305.834,310.505 306.114 C 310.557 306.381,310.375 306.555,310.100 306.500 C 309.825 306.445,309.600 306.670,309.600 307.000 C 309.600 307.330,309.328 307.600,308.995 307.600 C 308.384 307.600,308.095 307.716,305.668 308.932 C 304.935 309.300,304.005 309.600,303.601 309.600 C 303.197 309.600,302.807 309.775,302.733 309.988 C 302.612 310.342,301.414 310.694,300.076 310.770 C 299.788 310.787,299.664 310.980,299.800 311.200 C 300.012 311.544,298.472 311.781,296.500 311.707 C 296.225 311.697,296.000 311.871,296.000 312.093 C 296.000 312.316,295.695 312.251,295.323 311.949 C 294.951 311.647,294.769 311.605,294.919 311.855 C 295.099 312.156,294.582 312.402,293.396 312.580 C 292.408 312.728,291.600 313.018,291.600 313.225 C 291.600 313.439,289.383 313.600,286.424 313.600 C 283.404 313.600,281.144 313.767,281.000 314.000 C 280.667 314.539,113.343 314.555,113.010 314.016 C 112.698 313.512,95.107 313.504,94.795 314.008 C 94.414 314.625,56.956 314.715,56.340 314.100 C 56.065 313.825,55.162 313.600,54.332 313.600 C 53.503 313.600,52.098 313.221,51.210 312.758 C 50.321 312.295,49.326 312.020,48.997 312.146 C 48.669 312.272,48.400 312.201,48.400 311.987 C 48.400 311.774,47.860 311.600,47.200 311.600 C 46.540 311.600,45.999 311.465,45.997 311.300 C 45.994 310.898,43.681 309.600,42.968 309.600 C 42.655 309.600,42.400 309.420,42.400 309.200 C 42.400 308.980,42.158 308.800,41.861 308.800 C 41.191 308.800,39.366 307.235,39.495 306.771 C 39.548 306.583,39.323 306.532,38.995 306.657 C 38.620 306.801,38.400 306.648,38.400 306.243 C 38.400 305.867,38.068 305.600,37.600 305.600 C 37.160 305.600,36.800 305.336,36.800 305.014 C 36.800 304.692,36.442 304.236,36.004 304.002 C 35.566 303.768,35.251 303.446,35.304 303.288 C 35.357 303.130,35.251 302.967,35.070 302.926 C 34.484 302.795,33.210 301.108,33.429 300.753 C 33.546 300.564,33.386 300.507,33.073 300.627 C 32.575 300.819,32.071 300.009,31.854 298.668 C 31.824 298.485,31.485 298.105,31.100 297.824 C 30.715 297.542,30.400 297.193,30.400 297.048 C 30.400 296.903,29.950 296.071,29.400 295.200 C 28.850 294.329,28.400 293.357,28.400 293.041 C 28.400 292.725,28.265 292.407,28.100 292.333 C 27.554 292.090,26.400 289.551,26.400 288.591 C 26.400 288.072,26.220 287.536,26.000 287.400 C 25.780 287.264,25.600 286.568,25.600 285.853 C 25.600 285.138,25.336 284.204,25.013 283.776 C 24.647 283.293,24.421 282.064,24.413 280.524 C 24.406 279.162,24.220 277.936,24.000 277.800 C 23.479 277.478,23.479 272.522,24.000 272.200 C 24.220 272.064,24.400 270.763,24.400 269.308 C 24.400 267.360,24.585 266.452,25.100 265.863 C 25.599 265.293,25.628 265.162,25.200 265.408 C 24.721 265.684,24.690 265.637,25.047 265.177 C 25.292 264.860,25.466 264.109,25.434 263.509 C 25.401 262.909,25.595 262.334,25.864 262.231 C 26.134 262.127,26.410 261.178,26.477 260.121 C 26.545 259.065,26.788 258.233,27.017 258.272 C 27.246 258.312,27.463 257.955,27.499 257.478 C 27.535 257.002,27.752 256.549,27.982 256.473 C 28.212 256.396,28.400 255.898,28.400 255.367 C 28.400 254.835,28.535 254.399,28.700 254.397 C 29.158 254.394,30.400 252.035,30.400 251.168 C 30.400 250.745,30.605 250.400,30.856 250.400 C 31.471 250.400,32.372 249.165,32.387 248.300 C 32.394 247.915,32.617 247.645,32.882 247.700 C 33.147 247.755,33.376 247.530,33.391 247.200 C 33.407 246.847,33.717 246.652,34.144 246.726 C 34.709 246.823,34.813 246.673,34.615 246.048 C 34.429 245.461,34.635 245.065,35.380 244.576 C 35.941 244.209,36.400 243.569,36.400 243.154 C 36.400 242.739,36.651 242.400,36.959 242.400 C 37.266 242.400,38.070 241.770,38.746 241.000 C 39.422 240.230,40.079 239.600,40.205 239.600 C 40.332 239.600,40.920 239.150,41.513 238.600 C 42.107 238.050,42.819 237.600,43.096 237.600 C 43.373 237.600,43.600 237.350,43.600 237.043 C 43.600 236.737,44.050 236.374,44.600 236.236 C 45.150 236.098,45.600 235.798,45.600 235.569 C 45.600 235.340,45.780 235.264,46.000 235.400 C 46.220 235.536,46.400 235.367,46.400 235.024 C 46.400 234.681,46.734 234.400,47.142 234.400 C 47.549 234.400,48.369 233.950,48.962 233.400 C 49.556 232.850,50.174 232.400,50.336 232.400 C 50.498 232.400,51.326 232.046,52.175 231.613 C 53.024 231.180,53.872 230.921,54.059 231.037 C 54.247 231.152,54.400 231.057,54.400 230.824 C 54.400 230.591,54.850 230.400,55.400 230.400 C 55.950 230.400,56.400 230.220,56.400 230.000 C 56.400 229.780,56.828 229.600,57.351 229.600 C 57.874 229.600,58.526 229.330,58.800 229.000 C 59.089 228.652,59.961 228.400,60.875 228.400 C 61.743 228.400,62.797 228.216,63.218 227.990 C 63.639 227.765,64.974 227.519,66.186 227.444 C 68.750 227.285,69.559 226.767,69.306 225.444 L 69.125 224.493 59.606 224.527 C 51.971 224.554,50.126 224.663,50.286 225.080 " stroke="none" fill="#1394d4" fill-rule="evenodd"></path><path id="path1" d="M106.368 192.042 C 106.900 192.252,107.475 192.284,107.646 192.112 C 107.817 191.940,107.382 191.768,106.679 191.730 C 105.478 191.664,105.459 191.683,106.368 192.042 M111.728 219.044 C 111.610 219.350,111.084 219.600,110.557 219.600 C 110.031 219.600,109.600 219.780,109.600 220.000 C 109.600 220.220,109.150 220.400,108.600 220.400 C 107.978 220.400,107.600 220.627,107.600 221.000 C 107.600 221.330,107.249 221.600,106.820 221.600 C 106.391 221.600,105.863 221.915,105.648 222.300 C 105.433 222.685,105.109 223.000,104.928 223.000 C 104.748 223.000,104.645 223.135,104.700 223.300 C 104.755 223.465,104.530 223.600,104.200 223.600 C 103.834 223.600,103.600 223.973,103.600 224.557 C 103.600 225.084,103.330 225.618,103.000 225.745 C 102.589 225.902,102.400 226.545,102.400 227.787 C 102.400 228.784,102.220 229.600,102.000 229.600 C 101.780 229.600,101.600 230.500,101.600 231.600 C 101.600 232.700,101.780 233.600,102.000 233.600 C 102.220 233.600,102.400 234.230,102.400 235.000 C 102.400 235.978,102.581 236.400,103.000 236.400 C 103.419 236.400,103.600 236.822,103.600 237.800 C 103.600 238.570,103.780 239.200,104.000 239.200 C 104.220 239.200,104.400 239.470,104.400 239.800 C 104.400 240.130,104.670 240.400,105.000 240.400 C 105.330 240.400,105.600 240.670,105.600 241.000 C 105.600 241.330,105.870 241.600,106.200 241.600 C 106.530 241.600,106.800 241.780,106.800 242.000 C 106.800 242.220,107.430 242.400,108.200 242.400 C 109.178 242.400,109.600 242.581,109.600 243.000 C 109.600 243.373,109.978 243.600,110.600 243.600 C 111.150 243.600,111.600 243.780,111.600 244.000 C 111.600 244.222,112.667 244.400,114.000 244.400 C 115.333 244.400,116.400 244.222,116.400 244.000 C 116.400 243.780,117.120 243.600,118.000 243.600 C 119.156 243.600,119.600 243.433,119.600 243.000 C 119.600 242.627,119.978 242.400,120.600 242.400 C 121.150 242.400,121.600 242.241,121.600 242.047 C 121.600 241.852,121.973 241.596,122.430 241.476 C 122.886 241.357,123.360 240.876,123.482 240.407 C 123.622 239.874,123.920 239.637,124.279 239.775 C 124.702 239.937,124.786 239.785,124.599 239.197 C 124.420 238.632,124.529 238.400,124.973 238.400 C 125.318 238.400,125.600 238.130,125.600 237.800 C 125.600 237.470,125.780 237.200,126.000 237.200 C 126.220 237.200,126.400 236.581,126.400 235.824 C 126.400 235.067,126.580 234.336,126.800 234.200 C 127.020 234.064,127.200 232.714,127.200 231.200 C 127.200 229.686,127.020 228.336,126.800 228.200 C 126.580 228.064,126.400 227.423,126.400 226.776 C 126.400 226.129,126.220 225.600,126.000 225.600 C 125.780 225.600,125.600 225.330,125.600 225.000 C 125.600 224.670,125.407 224.400,125.171 224.400 C 124.561 224.400,123.753 223.511,123.426 222.481 C 123.265 221.973,122.819 221.600,122.373 221.600 C 121.948 221.600,121.600 221.330,121.600 221.000 C 121.600 220.627,121.222 220.400,120.600 220.400 C 120.050 220.400,119.600 220.220,119.600 220.000 C 119.600 219.780,119.169 219.600,118.643 219.600 C 118.116 219.600,117.590 219.350,117.472 219.044 C 117.320 218.647,116.500 218.489,114.600 218.489 C 112.700 218.489,111.880 218.647,111.728 219.044 M143.600 222.000 C 143.600 222.220,143.330 222.400,143.000 222.400 C 142.670 222.400,142.400 222.670,142.400 223.000 C 142.400 223.330,142.175 223.606,141.900 223.613 C 141.147 223.633,139.600 225.047,139.600 225.715 C 139.600 226.038,139.330 226.526,139.000 226.800 C 138.670 227.074,138.400 227.816,138.400 228.449 C 138.400 229.082,138.220 229.600,138.000 229.600 C 137.482 229.600,137.469 235.488,137.987 235.667 C 138.200 235.740,138.419 236.385,138.472 237.100 C 138.528 237.843,138.791 238.400,139.085 238.400 C 139.368 238.400,139.606 238.715,139.613 239.100 C 139.639 240.524,141.907 242.400,143.603 242.400 C 143.994 242.400,144.418 242.670,144.545 243.000 C 144.748 243.530,153.234 243.600,217.587 243.600 C 282.043 243.600,290.400 243.531,290.400 243.000 C 290.400 242.592,290.817 242.396,291.700 242.387 C 293.072 242.374,294.400 241.621,294.400 240.856 C 294.400 240.605,294.605 240.400,294.856 240.400 C 295.479 240.400,296.372 239.160,296.387 238.271 C 296.394 237.871,296.670 237.273,297.000 236.943 C 298.021 235.921,297.790 227.188,296.758 227.826 C 296.561 227.948,296.400 227.559,296.400 226.962 C 296.400 225.777,294.008 223.261,291.863 222.192 C 290.408 221.466,143.600 221.276,143.600 222.000 M329.600 230.000 C 329.600 230.220,328.880 230.400,328.000 230.400 C 326.844 230.400,326.400 230.567,326.400 231.000 C 326.400 231.359,326.031 231.600,325.480 231.600 C 324.394 231.600,322.408 232.458,322.403 232.929 C 322.397 233.521,321.225 234.448,320.404 234.510 C 319.962 234.543,319.600 234.802,319.600 235.085 C 319.600 235.368,319.319 235.600,318.976 235.600 C 318.633 235.600,318.464 235.780,318.600 236.000 C 318.736 236.220,318.567 236.400,318.224 236.400 C 317.881 236.400,317.600 236.670,317.600 237.000 C 317.600 237.330,317.440 237.600,317.243 237.600 C 317.047 237.600,316.774 238.050,316.636 238.600 C 316.498 239.150,316.208 239.600,315.992 239.600 C 315.777 239.600,315.600 240.050,315.600 240.600 C 315.600 241.150,315.433 241.600,315.229 241.600 C 314.698 241.600,313.600 243.949,313.600 245.085 C 313.600 245.614,313.443 245.950,313.251 245.832 C 312.225 245.197,311.995 261.414,313.002 263.346 C 313.331 263.976,313.600 264.705,313.600 264.966 C 313.600 265.847,314.596 267.594,315.100 267.597 C 315.375 267.599,315.600 268.050,315.600 268.600 C 315.600 269.150,315.780 269.600,316.000 269.600 C 316.220 269.600,316.400 269.827,316.400 270.104 C 316.400 270.381,316.850 271.093,317.400 271.687 C 317.950 272.280,318.400 272.953,318.400 273.183 C 318.400 273.412,318.604 273.600,318.854 273.600 C 319.104 273.600,319.725 274.050,320.235 274.600 C 320.745 275.150,321.460 275.600,321.824 275.600 C 322.260 275.600,322.404 275.813,322.245 276.226 C 322.061 276.707,322.190 276.794,322.803 276.599 C 323.323 276.434,323.601 276.529,323.603 276.873 C 323.608 277.677,325.539 278.400,327.680 278.400 C 329.120 278.400,329.600 278.550,329.600 279.000 C 329.600 279.529,333.778 279.600,364.800 279.600 L 400.000 279.600 400.000 254.600 L 400.000 229.600 364.800 229.600 C 341.600 229.600,329.600 229.736,329.600 230.000 M338.400 246.000 C 338.400 246.220,338.571 246.400,338.779 246.400 C 338.988 246.400,339.644 246.850,340.238 247.400 C 340.831 247.950,341.561 248.400,341.858 248.400 C 342.202 248.400,342.401 248.875,342.402 249.700 C 342.404 250.415,342.674 251.516,343.002 252.146 C 343.678 253.441,343.777 254.644,343.235 254.978 C 343.034 255.103,342.748 255.923,342.600 256.802 C 342.451 257.681,342.166 258.400,341.965 258.400 C 341.764 258.400,341.600 258.670,341.600 259.000 C 341.600 259.330,341.407 259.600,341.171 259.600 C 340.618 259.600,339.600 260.618,339.600 261.171 C 339.600 261.899,332.537 261.734,332.255 261.000 C 332.129 260.670,331.659 260.400,331.213 260.400 C 330.667 260.400,330.400 260.137,330.400 259.600 C 330.400 259.160,330.220 258.800,330.000 258.800 C 329.780 258.800,329.600 258.530,329.600 258.200 C 329.600 257.870,329.330 257.600,329.000 257.600 C 328.599 257.600,328.400 257.199,328.400 256.395 C 328.400 255.732,328.180 254.836,327.910 254.405 C 327.523 253.785,327.523 253.517,327.910 253.130 C 328.180 252.860,328.400 252.155,328.400 251.563 C 328.400 250.970,328.670 250.382,329.000 250.255 C 329.330 250.129,329.600 249.737,329.600 249.384 C 329.600 248.655,330.529 247.600,331.171 247.600 C 331.407 247.600,331.600 247.330,331.600 247.000 C 331.600 246.627,331.978 246.400,332.600 246.400 C 333.150 246.400,333.600 246.220,333.600 246.000 C 333.600 245.778,334.667 245.600,336.000 245.600 C 337.333 245.600,338.400 245.778,338.400 246.000 M76.333 263.987 C 76.260 264.200,75.615 264.419,74.900 264.472 C 74.157 264.528,73.600 264.791,73.600 265.085 C 73.600 265.368,73.407 265.600,73.171 265.600 C 72.936 265.600,72.506 265.825,72.216 266.100 C 71.926 266.375,71.219 266.940,70.644 267.356 C 70.070 267.772,69.600 268.447,69.600 268.856 C 69.600 269.265,69.368 269.600,69.085 269.600 C 68.802 269.600,68.540 270.002,68.503 270.494 C 68.466 270.986,68.248 271.451,68.018 271.527 C 67.466 271.711,67.449 280.400,68.000 280.400 C 68.220 280.400,68.400 280.850,68.400 281.400 C 68.400 282.022,68.627 282.400,69.000 282.400 C 69.330 282.400,69.600 282.676,69.600 283.014 C 69.600 284.031,70.841 285.600,71.646 285.600 C 72.061 285.600,72.400 285.780,72.400 286.000 C 72.400 286.220,72.670 286.400,73.000 286.400 C 73.330 286.400,73.600 286.670,73.600 287.000 C 73.600 287.373,73.978 287.600,74.600 287.600 C 75.150 287.600,75.600 287.780,75.600 288.000 C 75.600 288.242,77.307 288.400,79.920 288.400 C 84.254 288.400,86.391 287.905,86.397 286.900 C 86.399 286.625,86.670 286.400,87.000 286.400 C 87.330 286.400,87.600 286.220,87.600 286.000 C 87.600 285.780,87.920 285.600,88.311 285.600 C 89.214 285.600,90.400 284.235,90.400 283.195 C 90.400 282.755,90.668 282.400,91.000 282.400 C 91.373 282.400,91.600 282.022,91.600 281.400 C 91.600 280.850,91.780 280.400,92.000 280.400 C 92.242 280.400,92.400 278.667,92.400 276.000 C 92.400 273.333,92.242 271.600,92.000 271.600 C 91.780 271.600,91.600 271.150,91.600 270.600 C 91.600 269.978,91.373 269.600,91.000 269.600 C 90.663 269.600,90.400 269.243,90.400 268.783 C 90.400 267.993,88.812 265.867,88.788 266.625 C 88.781 266.831,88.592 266.685,88.368 266.300 C 88.144 265.915,87.609 265.600,87.180 265.600 C 86.751 265.600,86.400 265.368,86.400 265.085 C 86.400 264.791,85.843 264.528,85.100 264.472 C 84.385 264.419,83.740 264.200,83.667 263.987 C 83.593 263.774,81.943 263.600,80.000 263.600 C 78.057 263.600,76.407 263.774,76.333 263.987 M110.800 265.200 C 110.800 265.420,110.080 265.600,109.200 265.600 C 108.320 265.600,107.600 265.780,107.600 266.000 C 107.600 266.220,107.330 266.400,107.000 266.400 C 106.670 266.400,106.400 266.593,106.400 266.829 C 106.400 267.382,105.382 268.400,104.829 268.400 C 104.593 268.400,104.400 268.670,104.400 269.000 C 104.400 269.330,104.220 269.600,104.000 269.600 C 103.780 269.600,103.600 270.151,103.600 270.824 C 103.600 271.497,103.443 271.950,103.251 271.832 C 102.329 271.262,102.114 278.443,103.002 280.146 C 103.331 280.776,103.600 281.541,103.600 281.846 C 103.600 282.151,103.780 282.400,104.000 282.400 C 104.220 282.400,104.400 282.670,104.400 283.000 C 104.400 283.330,104.593 283.600,104.829 283.600 C 105.382 283.600,106.400 284.618,106.400 285.171 C 106.400 285.407,106.850 285.600,107.400 285.600 C 107.950 285.600,108.400 285.780,108.400 286.000 C 108.400 286.266,139.200 286.400,200.000 286.400 C 256.455 286.400,291.600 286.257,291.600 286.027 C 291.600 285.821,292.095 285.596,292.700 285.527 C 293.380 285.448,293.951 285.056,294.195 284.500 C 294.412 284.005,294.817 283.600,295.095 283.600 C 295.373 283.600,295.600 283.330,295.600 283.000 C 295.600 282.670,295.738 282.400,295.906 282.400 C 297.357 282.400,298.289 273.463,297.013 271.776 C 296.690 271.349,296.420 270.685,296.413 270.300 C 296.406 269.915,296.220 269.600,296.000 269.600 C 295.780 269.600,295.600 269.330,295.600 269.000 C 295.600 268.670,295.336 268.400,295.013 268.400 C 294.628 268.400,294.514 268.169,294.682 267.731 C 294.877 267.223,294.777 267.123,294.269 267.318 C 293.831 267.486,293.600 267.372,293.600 266.987 C 293.600 266.664,293.330 266.400,293.000 266.400 C 292.670 266.400,292.400 266.220,292.400 266.000 C 292.400 265.780,291.871 265.600,291.224 265.600 C 290.577 265.600,289.936 265.420,289.800 265.200 C 289.636 264.935,259.329 264.800,200.176 264.800 C 140.859 264.800,110.800 264.935,110.800 265.200 " stroke="none" fill="#1c3474" fill-rule="evenodd"></path><path id="path2" d="M110.800 38.062 C 110.800 38.640,111.519 38.780,111.933 38.281 C 112.251 37.898,112.163 37.771,111.578 37.771 C 111.150 37.771,110.800 37.902,110.800 38.062 M101.000 41.200 C 100.864 41.420,101.123 41.600,101.576 41.600 C 102.029 41.600,102.400 41.420,102.400 41.200 C 102.400 40.980,102.141 40.800,101.824 40.800 C 101.507 40.800,101.136 40.980,101.000 41.200 M98.224 42.213 C 97.637 42.656,97.594 42.800,98.047 42.800 C 98.377 42.800,98.996 42.536,99.424 42.213 C 100.010 41.769,100.053 41.625,99.600 41.625 C 99.270 41.625,98.651 41.890,98.224 42.213 M87.384 48.603 C 86.733 49.136,86.425 49.578,86.700 49.586 C 87.226 49.601,88.974 48.041,88.718 47.784 C 88.636 47.702,88.036 48.071,87.384 48.603 M77.916 57.814 C 77.632 58.152,77.162 58.692,76.871 59.014 C 76.433 59.500,76.433 59.600,76.871 59.597 C 77.162 59.596,77.707 59.056,78.081 58.397 C 78.819 57.102,78.742 56.831,77.916 57.814 M76.080 60.480 C 75.516 61.044,75.453 61.600,75.953 61.600 C 76.148 61.600,76.401 61.240,76.516 60.800 C 76.760 59.866,76.722 59.838,76.080 60.480 M72.985 66.200 C 72.815 66.640,72.589 67.180,72.482 67.400 C 72.375 67.620,72.604 67.503,72.990 67.139 C 73.377 66.776,73.603 66.236,73.493 65.939 C 73.352 65.559,73.202 65.636,72.985 66.200 M70.135 74.900 C 69.535 75.860,69.613 76.651,70.225 75.824 C 70.788 75.063,70.974 74.400,70.624 74.400 C 70.527 74.400,70.307 74.625,70.135 74.900 M56.727 76.600 C 56.477 77.150,56.120 77.600,55.936 77.600 C 55.751 77.600,55.606 77.825,55.613 78.100 C 55.621 78.375,55.964 78.195,56.377 77.700 C 56.790 77.205,57.305 76.800,57.521 76.800 C 57.738 76.800,58.018 76.530,58.145 76.200 C 58.545 75.156,57.214 75.532,56.727 76.600 M59.152 76.887 C 59.337 77.998,59.393 78.055,59.519 77.254 C 59.601 76.733,59.503 76.143,59.301 75.941 C 59.079 75.719,59.021 76.093,59.152 76.887 M69.600 78.024 C 69.600 78.697,69.756 79.151,69.946 79.033 C 70.269 78.834,70.093 76.800,69.753 76.800 C 69.669 76.800,69.600 77.351,69.600 78.024 M295.246 82.457 C 295.155 83.758,292.678 83.803,210.400 84.003 L 127.000 84.206 210.629 84.299 C 299.578 84.399,295.974 84.472,295.490 82.574 C 295.341 81.991,295.281 81.962,295.246 82.457 M69.671 85.900 C 69.704 86.835,69.882 87.600,70.066 87.600 C 70.525 87.600,70.476 85.537,69.999 84.800 C 69.719 84.366,69.628 84.671,69.671 85.900 M121.643 85.060 C 121.144 85.622,121.229 85.658,122.443 85.402 C 124.284 85.013,124.871 84.396,123.380 84.415 C 122.731 84.424,121.949 84.714,121.643 85.060 M58.643 92.167 C 58.776 92.515,59.061 92.800,59.276 92.800 C 59.802 92.800,59.473 91.891,58.875 91.692 C 58.582 91.594,58.493 91.777,58.643 92.167 M59.810 98.454 C 60.059 99.747,60.400 99.870,60.400 98.667 C 60.400 98.080,60.230 97.600,60.023 97.600 C 59.816 97.600,59.720 97.984,59.810 98.454 M62.492 107.275 C 62.579 107.536,62.864 107.821,63.125 107.908 C 63.418 108.006,63.507 107.823,63.357 107.433 C 63.078 106.706,62.252 106.555,62.492 107.275 M78.406 108.271 C 78.418 108.884,79.155 109.778,79.426 109.507 C 79.574 109.359,79.404 108.947,79.048 108.590 C 78.691 108.234,78.403 108.091,78.406 108.271 M43.900 108.631 C 43.735 108.797,43.605 109.398,43.612 109.967 C 43.623 110.873,43.675 110.913,44.039 110.287 C 44.495 109.505,44.381 108.146,43.900 108.631 M106.958 119.106 C 106.655 119.308,106.732 119.624,107.206 120.114 C 107.864 120.797,107.886 120.783,107.701 119.814 C 107.594 119.257,107.483 118.803,107.453 118.806 C 107.424 118.809,107.201 118.944,106.958 119.106 M94.652 124.991 C 94.780 125.326,95.136 125.600,95.443 125.600 C 96.224 125.600,96.136 125.301,95.209 124.805 C 94.564 124.459,94.461 124.494,94.652 124.991 M105.600 130.850 C 105.600 131.295,106.605 131.734,107.174 131.538 C 107.394 131.462,107.130 131.192,106.587 130.938 C 106.035 130.679,105.600 130.641,105.600 130.850 M48.574 146.706 C 48.627 147.064,48.879 147.426,49.135 147.512 C 49.804 147.735,49.711 146.528,49.039 146.270 C 48.683 146.134,48.514 146.293,48.574 146.706 M308.948 147.881 C 309.263 148.196,311.186 148.302,310.996 147.994 C 310.896 147.832,310.354 147.700,309.791 147.700 C 309.227 147.700,308.848 147.782,308.948 147.881 M324.190 153.048 C 324.547 153.404,324.959 153.574,325.107 153.426 C 325.256 153.278,325.112 152.989,324.788 152.784 C 323.843 152.187,323.487 152.344,324.190 153.048 M338.943 161.000 C 339.273 161.330,339.781 161.594,340.071 161.587 C 340.403 161.579,340.311 161.356,339.824 160.987 C 338.809 160.220,338.172 160.229,338.943 161.000 M60.663 166.620 C 60.786 166.939,61.046 167.200,61.243 167.200 C 61.439 167.200,61.600 167.470,61.600 167.800 C 61.600 168.130,61.883 168.400,62.229 168.400 C 62.800 168.400,62.800 168.343,62.229 167.771 C 61.883 167.426,61.600 166.995,61.600 166.814 C 61.600 166.633,61.339 166.386,61.020 166.263 C 60.633 166.115,60.515 166.233,60.663 166.620 M351.600 169.677 C 351.600 169.938,352.765 171.195,353.903 172.162 C 354.972 173.070,355.086 172.832,354.097 171.761 C 353.119 170.703,351.600 169.435,351.600 169.677 M107.007 191.940 C 107.333 192.266,110.381 192.292,110.180 191.968 C 110.070 191.789,109.272 191.671,108.407 191.706 C 107.543 191.740,106.913 191.846,107.007 191.940 M297.159 194.950 C 297.410 195.253,298.081 195.500,298.650 195.500 C 299.342 195.500,299.512 195.393,299.162 195.176 C 298.874 194.998,298.507 194.934,298.347 195.033 C 298.186 195.132,297.942 195.030,297.804 194.807 C 297.666 194.583,297.361 194.400,297.127 194.400 C 296.842 194.400,296.852 194.581,297.159 194.950 M382.400 213.200 C 382.400 213.420,382.580 213.600,382.800 213.600 C 383.020 213.600,383.200 213.990,383.200 214.467 C 383.200 214.943,383.312 215.222,383.448 215.085 C 383.808 214.725,383.256 212.800,382.792 212.800 C 382.577 212.800,382.400 212.980,382.400 213.200 M331.030 219.548 C 331.918 220.411,332.123 220.386,331.767 219.457 C 331.628 219.096,331.232 218.800,330.887 218.800 C 330.369 218.800,330.393 218.929,331.030 219.548 M385.757 222.188 C 385.902 223.175,386.400 223.390,386.400 222.467 C 386.400 221.990,386.236 221.600,386.035 221.600 C 385.835 221.600,385.710 221.865,385.757 222.188 M38.561 228.278 C 37.855 228.794,37.863 228.816,38.713 228.686 C 39.207 228.611,39.794 228.366,40.019 228.141 C 40.643 227.517,39.447 227.630,38.561 228.278 M30.426 232.169 C 30.039 232.635,30.102 232.698,30.777 232.522 C 31.230 232.404,31.600 232.148,31.600 231.953 C 31.600 231.414,30.954 231.532,30.426 232.169 M38.661 241.029 C 37.474 242.457,37.520 242.917,38.729 241.700 C 39.865 240.556,40.522 239.598,40.149 239.629 C 39.957 239.645,39.287 240.275,38.661 241.029 M6.446 257.900 C 6.421 258.395,6.220 258.800,6.000 258.800 C 5.780 258.800,5.600 259.019,5.600 259.286 C 5.600 259.603,5.822 259.550,6.238 259.133 C 6.590 258.782,6.790 258.158,6.685 257.747 C 6.525 257.127,6.485 257.152,6.446 257.900 M26.880 258.080 C 26.331 258.629,26.217 260.560,26.754 260.229 C 27.026 260.060,27.641 257.600,27.411 257.600 C 27.383 257.600,27.144 257.816,26.880 258.080 M0.000 276.200 C 0.000 276.750,0.069 277.200,0.153 277.200 C 0.238 277.200,0.393 276.750,0.498 276.200 C 0.603 275.650,0.534 275.200,0.345 275.200 C 0.155 275.200,0.000 275.650,0.000 276.200 M26.425 289.200 C 26.425 289.530,26.690 290.149,27.013 290.576 C 27.456 291.163,27.600 291.206,27.600 290.753 C 27.600 290.423,27.336 289.804,27.013 289.376 C 26.569 288.790,26.425 288.747,26.425 289.200 M382.938 292.613 C 382.679 293.165,382.641 293.600,382.850 293.600 C 383.295 293.600,383.734 292.595,383.538 292.026 C 383.462 291.806,383.192 292.070,382.938 292.613 M32.138 299.793 C 32.392 300.339,32.834 300.877,33.120 300.988 C 33.471 301.124,33.411 300.803,32.933 299.995 C 32.081 298.551,31.490 298.401,32.138 299.793 M376.800 305.400 C 376.517 305.741,376.376 306.109,376.486 306.219 C 376.596 306.329,376.917 306.141,377.200 305.800 C 377.483 305.459,377.624 305.091,377.514 304.981 C 377.404 304.871,377.083 305.059,376.800 305.400 M41.700 308.676 C 42.085 308.776,42.400 309.025,42.400 309.229 C 42.400 309.433,42.602 309.600,42.849 309.600 C 43.159 309.600,43.144 309.415,42.800 309.000 C 42.526 308.670,42.009 308.421,41.651 308.446 C 41.102 308.486,41.109 308.521,41.700 308.676 M2.615 312.400 C 2.763 313.170,3.045 313.971,3.242 314.180 C 3.842 314.817,3.653 313.388,2.973 312.146 L 2.346 311.000 2.615 312.400 M372.900 312.223 C 372.311 312.863,372.262 313.200,372.757 313.200 C 373.098 313.200,373.737 311.996,373.509 311.783 C 373.449 311.727,373.175 311.925,372.900 312.223 M65.100 314.697 C 66.695 314.773,69.305 314.773,70.900 314.697 C 72.495 314.621,71.190 314.559,68.000 314.559 C 64.810 314.559,63.505 314.621,65.100 314.697 M366.800 320.600 C 366.517 320.941,366.376 321.309,366.486 321.419 C 366.596 321.529,366.917 321.341,367.200 321.000 C 367.483 320.659,367.624 320.291,367.514 320.181 C 367.404 320.071,367.083 320.259,366.800 320.600 M360.384 328.030 C 359.977 328.790,360.010 328.823,360.770 328.416 C 361.623 327.959,361.901 327.200,361.214 327.200 C 361.002 327.200,360.628 327.574,360.384 328.030 M359.200 329.624 C 359.200 329.857,359.065 329.965,358.900 329.866 C 358.735 329.766,358.368 329.935,358.084 330.242 C 357.801 330.549,357.711 330.803,357.884 330.806 C 358.058 330.809,357.935 330.980,357.612 331.184 C 357.288 331.389,357.112 331.646,357.222 331.755 C 357.331 331.864,358.026 331.334,358.766 330.577 C 359.507 329.820,359.907 329.200,359.656 329.200 C 359.405 329.200,359.200 329.391,359.200 329.624 M355.829 332.629 C 355.104 333.353,355.042 333.600,355.586 333.600 C 355.798 333.600,356.165 333.240,356.400 332.800 C 356.914 331.839,356.686 331.771,355.829 332.629 M19.200 339.400 C 19.717 339.950,20.202 340.400,20.279 340.400 C 20.356 340.400,20.124 339.950,19.763 339.400 C 19.403 338.850,18.917 338.400,18.684 338.400 C 18.451 338.400,18.683 338.850,19.200 339.400 M348.255 339.000 C 348.129 339.330,348.122 339.600,348.241 339.600 C 348.360 339.600,348.727 339.330,349.057 339.000 C 349.578 338.480,349.579 338.400,349.071 338.400 C 348.749 338.400,348.382 338.670,348.255 339.000 M27.600 346.683 C 27.600 347.272,29.158 348.392,29.410 347.984 C 29.540 347.773,29.469 347.600,29.252 347.600 C 29.035 347.600,28.574 347.317,28.229 346.971 C 27.883 346.626,27.600 346.496,27.600 346.683 M333.200 348.732 C 333.200 348.915,332.750 349.306,332.201 349.600 C 331.651 349.894,331.268 350.202,331.350 350.284 C 331.514 350.448,334.400 348.818,334.400 348.560 C 334.400 348.472,334.130 348.400,333.800 348.400 C 333.470 348.400,333.200 348.550,333.200 348.732 M38.600 354.000 C 38.736 354.220,39.117 354.400,39.447 354.400 C 39.777 354.400,39.936 354.220,39.800 354.000 C 39.664 353.780,39.283 353.600,38.953 353.600 C 38.623 353.600,38.464 353.780,38.600 354.000 M50.628 358.755 C 50.508 358.950,50.754 359.199,51.175 359.309 C 51.711 359.449,51.876 359.343,51.727 358.955 C 51.486 358.325,50.954 358.228,50.628 358.755 M307.455 359.000 C 307.315 359.365,307.455 359.600,307.813 359.600 C 308.136 359.600,308.400 359.437,308.400 359.237 C 308.400 359.038,308.740 358.964,309.155 359.072 C 309.570 359.181,310.031 359.074,310.178 358.835 C 310.352 358.554,309.959 358.400,309.066 358.400 C 308.208 358.400,307.598 358.627,307.455 359.000 M63.200 362.100 C 63.200 362.265,63.650 362.400,64.200 362.400 C 64.750 362.400,65.200 362.265,65.200 362.100 C 65.200 361.935,64.750 361.800,64.200 361.800 C 63.650 361.800,63.200 361.935,63.200 362.100 " stroke="none" fill="#147cd8" fill-rule="evenodd"></path><path id="path3" d="M110.800 38.062 C 110.800 38.640,111.519 38.780,111.933 38.281 C 112.251 37.898,112.163 37.771,111.578 37.771 C 111.150 37.771,110.800 37.902,110.800 38.062 M101.000 41.200 C 100.864 41.420,101.123 41.600,101.576 41.600 C 102.029 41.600,102.400 41.420,102.400 41.200 C 102.400 40.980,102.141 40.800,101.824 40.800 C 101.507 40.800,101.136 40.980,101.000 41.200 M98.224 42.213 C 97.637 42.656,97.594 42.800,98.047 42.800 C 98.377 42.800,98.996 42.536,99.424 42.213 C 100.010 41.769,100.053 41.625,99.600 41.625 C 99.270 41.625,98.651 41.890,98.224 42.213 M87.384 48.603 C 86.733 49.136,86.425 49.578,86.700 49.586 C 87.226 49.601,88.974 48.041,88.718 47.784 C 88.636 47.702,88.036 48.071,87.384 48.603 M77.916 57.814 C 77.632 58.152,77.162 58.692,76.871 59.014 C 76.433 59.500,76.433 59.600,76.871 59.597 C 77.162 59.596,77.707 59.056,78.081 58.397 C 78.819 57.102,78.742 56.831,77.916 57.814 M76.080 60.480 C 75.516 61.044,75.453 61.600,75.953 61.600 C 76.148 61.600,76.401 61.240,76.516 60.800 C 76.760 59.866,76.722 59.838,76.080 60.480 M72.985 66.200 C 72.815 66.640,72.589 67.180,72.482 67.400 C 72.375 67.620,72.604 67.503,72.990 67.139 C 73.377 66.776,73.603 66.236,73.493 65.939 C 73.352 65.559,73.202 65.636,72.985 66.200 M70.135 74.900 C 69.535 75.860,69.613 76.651,70.225 75.824 C 70.788 75.063,70.974 74.400,70.624 74.400 C 70.527 74.400,70.307 74.625,70.135 74.900 M56.727 76.600 C 56.477 77.150,56.120 77.600,55.936 77.600 C 55.751 77.600,55.606 77.825,55.613 78.100 C 55.621 78.375,55.964 78.195,56.377 77.700 C 56.790 77.205,57.305 76.800,57.521 76.800 C 57.738 76.800,58.018 76.530,58.145 76.200 C 58.545 75.156,57.214 75.532,56.727 76.600 M59.152 76.887 C 59.337 77.998,59.393 78.055,59.519 77.254 C 59.601 76.733,59.503 76.143,59.301 75.941 C 59.079 75.719,59.021 76.093,59.152 76.887 M69.600 78.024 C 69.600 78.697,69.756 79.151,69.946 79.033 C 70.269 78.834,70.093 76.800,69.753 76.800 C 69.669 76.800,69.600 77.351,69.600 78.024 M295.246 82.457 C 295.155 83.758,292.678 83.803,210.400 84.003 L 127.000 84.206 210.629 84.299 C 299.578 84.399,295.974 84.472,295.490 82.574 C 295.341 81.991,295.281 81.962,295.246 82.457 M69.671 85.900 C 69.704 86.835,69.882 87.600,70.066 87.600 C 70.525 87.600,70.476 85.537,69.999 84.800 C 69.719 84.366,69.628 84.671,69.671 85.900 M121.643 85.060 C 121.144 85.622,121.229 85.658,122.443 85.402 C 124.284 85.013,124.871 84.396,123.380 84.415 C 122.731 84.424,121.949 84.714,121.643 85.060 M58.643 92.167 C 58.776 92.515,59.061 92.800,59.276 92.800 C 59.802 92.800,59.473 91.891,58.875 91.692 C 58.582 91.594,58.493 91.777,58.643 92.167 M59.810 98.454 C 60.059 99.747,60.400 99.870,60.400 98.667 C 60.400 98.080,60.230 97.600,60.023 97.600 C 59.816 97.600,59.720 97.984,59.810 98.454 M62.492 107.275 C 62.579 107.536,62.864 107.821,63.125 107.908 C 63.418 108.006,63.507 107.823,63.357 107.433 C 63.078 106.706,62.252 106.555,62.492 107.275 M78.406 108.271 C 78.418 108.884,79.155 109.778,79.426 109.507 C 79.574 109.359,79.404 108.947,79.048 108.590 C 78.691 108.234,78.403 108.091,78.406 108.271 M43.900 108.631 C 43.735 108.797,43.605 109.398,43.612 109.967 C 43.623 110.873,43.675 110.913,44.039 110.287 C 44.495 109.505,44.381 108.146,43.900 108.631 M106.958 119.106 C 106.655 119.308,106.732 119.624,107.206 120.114 C 107.864 120.797,107.886 120.783,107.701 119.814 C 107.594 119.257,107.483 118.803,107.453 118.806 C 107.424 118.809,107.201 118.944,106.958 119.106 M94.652 124.991 C 94.780 125.326,95.136 125.600,95.443 125.600 C 96.224 125.600,96.136 125.301,95.209 124.805 C 94.564 124.459,94.461 124.494,94.652 124.991 M105.600 130.850 C 105.600 131.295,106.605 131.734,107.174 131.538 C 107.394 131.462,107.130 131.192,106.587 130.938 C 106.035 130.679,105.600 130.641,105.600 130.850 M48.574 146.706 C 48.627 147.064,48.879 147.426,49.135 147.512 C 49.804 147.735,49.711 146.528,49.039 146.270 C 48.683 146.134,48.514 146.293,48.574 146.706 M308.948 147.881 C 309.263 148.196,311.186 148.302,310.996 147.994 C 310.896 147.832,310.354 147.700,309.791 147.700 C 309.227 147.700,308.848 147.782,308.948 147.881 M324.190 153.048 C 324.547 153.404,324.959 153.574,325.107 153.426 C 325.256 153.278,325.112 152.989,324.788 152.784 C 323.843 152.187,323.487 152.344,324.190 153.048 M338.943 161.000 C 339.273 161.330,339.781 161.594,340.071 161.587 C 340.403 161.579,340.311 161.356,339.824 160.987 C 338.809 160.220,338.172 160.229,338.943 161.000 M60.663 166.620 C 60.786 166.939,61.046 167.200,61.243 167.200 C 61.439 167.200,61.600 167.470,61.600 167.800 C 61.600 168.130,61.883 168.400,62.229 168.400 C 62.800 168.400,62.800 168.343,62.229 167.771 C 61.883 167.426,61.600 166.995,61.600 166.814 C 61.600 166.633,61.339 166.386,61.020 166.263 C 60.633 166.115,60.515 166.233,60.663 166.620 M351.600 169.677 C 351.600 169.938,352.765 171.195,353.903 172.162 C 354.972 173.070,355.086 172.832,354.097 171.761 C 353.119 170.703,351.600 169.435,351.600 169.677 M107.007 191.940 C 107.333 192.266,110.381 192.292,110.180 191.968 C 110.070 191.789,109.272 191.671,108.407 191.706 C 107.543 191.740,106.913 191.846,107.007 191.940 M297.159 194.950 C 297.410 195.253,298.081 195.500,298.650 195.500 C 299.342 195.500,299.512 195.393,299.162 195.176 C 298.874 194.998,298.507 194.934,298.347 195.033 C 298.186 195.132,297.942 195.030,297.804 194.807 C 297.666 194.583,297.361 194.400,297.127 194.400 C 296.842 194.400,296.852 194.581,297.159 194.950 M382.400 213.200 C 382.400 213.420,382.580 213.600,382.800 213.600 C 383.020 213.600,383.200 213.990,383.200 214.467 C 383.200 214.943,383.312 215.222,383.448 215.085 C 383.808 214.725,383.256 212.800,382.792 212.800 C 382.577 212.800,382.400 212.980,382.400 213.200 M331.030 219.548 C 331.918 220.411,332.123 220.386,331.767 219.457 C 331.628 219.096,331.232 218.800,330.887 218.800 C 330.369 218.800,330.393 218.929,331.030 219.548 M385.757 222.188 C 385.902 223.175,386.400 223.390,386.400 222.467 C 386.400 221.990,386.236 221.600,386.035 221.600 C 385.835 221.600,385.710 221.865,385.757 222.188 M38.561 228.278 C 37.855 228.794,37.863 228.816,38.713 228.686 C 39.207 228.611,39.794 228.366,40.019 228.141 C 40.643 227.517,39.447 227.630,38.561 228.278 M30.426 232.169 C 30.039 232.635,30.102 232.698,30.777 232.522 C 31.230 232.404,31.600 232.148,31.600 231.953 C 31.600 231.414,30.954 231.532,30.426 232.169 M38.661 241.029 C 37.474 242.457,37.520 242.917,38.729 241.700 C 39.865 240.556,40.522 239.598,40.149 239.629 C 39.957 239.645,39.287 240.275,38.661 241.029 M6.446 257.900 C 6.421 258.395,6.220 258.800,6.000 258.800 C 5.780 258.800,5.600 259.019,5.600 259.286 C 5.600 259.603,5.822 259.550,6.238 259.133 C 6.590 258.782,6.790 258.158,6.685 257.747 C 6.525 257.127,6.485 257.152,6.446 257.900 M26.880 258.080 C 26.331 258.629,26.217 260.560,26.754 260.229 C 27.026 260.060,27.641 257.600,27.411 257.600 C 27.383 257.600,27.144 257.816,26.880 258.080 M0.000 276.200 C 0.000 276.750,0.069 277.200,0.153 277.200 C 0.238 277.200,0.393 276.750,0.498 276.200 C 0.603 275.650,0.534 275.200,0.345 275.200 C 0.155 275.200,0.000 275.650,0.000 276.200 M26.425 289.200 C 26.425 289.530,26.690 290.149,27.013 290.576 C 27.456 291.163,27.600 291.206,27.600 290.753 C 27.600 290.423,27.336 289.804,27.013 289.376 C 26.569 288.790,26.425 288.747,26.425 289.200 M382.938 292.613 C 382.679 293.165,382.641 293.600,382.850 293.600 C 383.295 293.600,383.734 292.595,383.538 292.026 C 383.462 291.806,383.192 292.070,382.938 292.613 M32.138 299.793 C 32.392 300.339,32.834 300.877,33.120 300.988 C 33.471 301.124,33.411 300.803,32.933 299.995 C 32.081 298.551,31.490 298.401,32.138 299.793 M376.800 305.400 C 376.517 305.741,376.376 306.109,376.486 306.219 C 376.596 306.329,376.917 306.141,377.200 305.800 C 377.483 305.459,377.624 305.091,377.514 304.981 C 377.404 304.871,377.083 305.059,376.800 305.400 M41.700 308.676 C 42.085 308.776,42.400 309.025,42.400 309.229 C 42.400 309.433,42.602 309.600,42.849 309.600 C 43.159 309.600,43.144 309.415,42.800 309.000 C 42.526 308.670,42.009 308.421,41.651 308.446 C 41.102 308.486,41.109 308.521,41.700 308.676 M2.615 312.400 C 2.763 313.170,3.045 313.971,3.242 314.180 C 3.842 314.817,3.653 313.388,2.973 312.146 L 2.346 311.000 2.615 312.400 M372.900 312.223 C 372.311 312.863,372.262 313.200,372.757 313.200 C 373.098 313.200,373.737 311.996,373.509 311.783 C 373.449 311.727,373.175 311.925,372.900 312.223 M65.100 314.697 C 66.695 314.773,69.305 314.773,70.900 314.697 C 72.495 314.621,71.190 314.559,68.000 314.559 C 64.810 314.559,63.505 314.621,65.100 314.697 M366.800 320.600 C 366.517 320.941,366.376 321.309,366.486 321.419 C 366.596 321.529,366.917 321.341,367.200 321.000 C 367.483 320.659,367.624 320.291,367.514 320.181 C 367.404 320.071,367.083 320.259,366.800 320.600 M360.384 328.030 C 359.977 328.790,360.010 328.823,360.770 328.416 C 361.623 327.959,361.901 327.200,361.214 327.200 C 361.002 327.200,360.628 327.574,360.384 328.030 M359.200 329.624 C 359.200 329.857,359.065 329.965,358.900 329.866 C 358.735 329.766,358.368 329.935,358.084 330.242 C 357.801 330.549,357.711 330.803,357.884 330.806 C 358.058 330.809,357.935 330.980,357.612 331.184 C 357.288 331.389,357.112 331.646,357.222 331.755 C 357.331 331.864,358.026 331.334,358.766 330.577 C 359.507 329.820,359.907 329.200,359.656 329.200 C 359.405 329.200,359.200 329.391,359.200 329.624 M355.829 332.629 C 355.104 333.353,355.042 333.600,355.586 333.600 C 355.798 333.600,356.165 333.240,356.400 332.800 C 356.914 331.839,356.686 331.771,355.829 332.629 M19.200 339.400 C 19.717 339.950,20.202 340.400,20.279 340.400 C 20.356 340.400,20.124 339.950,19.763 339.400 C 19.403 338.850,18.917 338.400,18.684 338.400 C 18.451 338.400,18.683 338.850,19.200 339.400 M348.255 339.000 C 348.129 339.330,348.122 339.600,348.241 339.600 C 348.360 339.600,348.727 339.330,349.057 339.000 C 349.578 338.480,349.579 338.400,349.071 338.400 C 348.749 338.400,348.382 338.670,348.255 339.000 M27.600 346.683 C 27.600 347.272,29.158 348.392,29.410 347.984 C 29.540 347.773,29.469 347.600,29.252 347.600 C 29.035 347.600,28.574 347.317,28.229 346.971 C 27.883 346.626,27.600 346.496,27.600 346.683 M333.200 348.732 C 333.200 348.915,332.750 349.306,332.201 349.600 C 331.651 349.894,331.268 350.202,331.350 350.284 C 331.514 350.448,334.400 348.818,334.400 348.560 C 334.400 348.472,334.130 348.400,333.800 348.400 C 333.470 348.400,333.200 348.550,333.200 348.732 M38.600 354.000 C 38.736 354.220,39.117 354.400,39.447 354.400 C 39.777 354.400,39.936 354.220,39.800 354.000 C 39.664 353.780,39.283 353.600,38.953 353.600 C 38.623 353.600,38.464 353.780,38.600 354.000 M50.628 358.755 C 50.508 358.950,50.754 359.199,51.175 359.309 C 51.711 359.449,51.876 359.343,51.727 358.955 C 51.486 358.325,50.954 358.228,50.628 358.755 M307.455 359.000 C 307.315 359.365,307.455 359.600,307.813 359.600 C 308.136 359.600,308.400 359.437,308.400 359.237 C 308.400 359.038,308.740 358.964,309.155 359.072 C 309.570 359.181,310.031 359.074,310.178 358.835 C 310.352 358.554,309.959 358.400,309.066 358.400 C 308.208 358.400,307.598 358.627,307.455 359.000 M63.200 362.100 C 63.200 362.265,63.650 362.400,64.200 362.400 C 64.750 362.400,65.200 362.265,65.200 362.100 C 65.200 361.935,64.750 361.800,64.200 361.800 C 63.650 361.800,63.200 361.935,63.200 362.100 " stroke="none" fill="#147cd8" fill-rule="evenodd"></path><path id="path4" d="M110.800 38.062 C 110.800 38.640,111.519 38.780,111.933 38.281 C 112.251 37.898,112.163 37.771,111.578 37.771 C 111.150 37.771,110.800 37.902,110.800 38.062 M101.000 41.200 C 100.864 41.420,101.123 41.600,101.576 41.600 C 102.029 41.600,102.400 41.420,102.400 41.200 C 102.400 40.980,102.141 40.800,101.824 40.800 C 101.507 40.800,101.136 40.980,101.000 41.200 M98.224 42.213 C 97.637 42.656,97.594 42.800,98.047 42.800 C 98.377 42.800,98.996 42.536,99.424 42.213 C 100.010 41.769,100.053 41.625,99.600 41.625 C 99.270 41.625,98.651 41.890,98.224 42.213 M87.384 48.603 C 86.733 49.136,86.425 49.578,86.700 49.586 C 87.226 49.601,88.974 48.041,88.718 47.784 C 88.636 47.702,88.036 48.071,87.384 48.603 M77.916 57.814 C 77.632 58.152,77.162 58.692,76.871 59.014 C 76.433 59.500,76.433 59.600,76.871 59.597 C 77.162 59.596,77.707 59.056,78.081 58.397 C 78.819 57.102,78.742 56.831,77.916 57.814 M76.080 60.480 C 75.516 61.044,75.453 61.600,75.953 61.600 C 76.148 61.600,76.401 61.240,76.516 60.800 C 76.760 59.866,76.722 59.838,76.080 60.480 M72.985 66.200 C 72.815 66.640,72.589 67.180,72.482 67.400 C 72.375 67.620,72.604 67.503,72.990 67.139 C 73.377 66.776,73.603 66.236,73.493 65.939 C 73.352 65.559,73.202 65.636,72.985 66.200 M70.135 74.900 C 69.535 75.860,69.613 76.651,70.225 75.824 C 70.788 75.063,70.974 74.400,70.624 74.400 C 70.527 74.400,70.307 74.625,70.135 74.900 M56.727 76.600 C 56.477 77.150,56.120 77.600,55.936 77.600 C 55.751 77.600,55.606 77.825,55.613 78.100 C 55.621 78.375,55.964 78.195,56.377 77.700 C 56.790 77.205,57.305 76.800,57.521 76.800 C 57.738 76.800,58.018 76.530,58.145 76.200 C 58.545 75.156,57.214 75.532,56.727 76.600 M59.152 76.887 C 59.337 77.998,59.393 78.055,59.519 77.254 C 59.601 76.733,59.503 76.143,59.301 75.941 C 59.079 75.719,59.021 76.093,59.152 76.887 M69.600 78.024 C 69.600 78.697,69.756 79.151,69.946 79.033 C 70.269 78.834,70.093 76.800,69.753 76.800 C 69.669 76.800,69.600 77.351,69.600 78.024 M295.246 82.457 C 295.155 83.758,292.678 83.803,210.400 84.003 L 127.000 84.206 210.629 84.299 C 299.578 84.399,295.974 84.472,295.490 82.574 C 295.341 81.991,295.281 81.962,295.246 82.457 M69.671 85.900 C 69.704 86.835,69.882 87.600,70.066 87.600 C 70.525 87.600,70.476 85.537,69.999 84.800 C 69.719 84.366,69.628 84.671,69.671 85.900 M121.643 85.060 C 121.144 85.622,121.229 85.658,122.443 85.402 C 124.284 85.013,124.871 84.396,123.380 84.415 C 122.731 84.424,121.949 84.714,121.643 85.060 M58.643 92.167 C 58.776 92.515,59.061 92.800,59.276 92.800 C 59.802 92.800,59.473 91.891,58.875 91.692 C 58.582 91.594,58.493 91.777,58.643 92.167 M59.810 98.454 C 60.059 99.747,60.400 99.870,60.400 98.667 C 60.400 98.080,60.230 97.600,60.023 97.600 C 59.816 97.600,59.720 97.984,59.810 98.454 M62.492 107.275 C 62.579 107.536,62.864 107.821,63.125 107.908 C 63.418 108.006,63.507 107.823,63.357 107.433 C 63.078 106.706,62.252 106.555,62.492 107.275 M78.406 108.271 C 78.418 108.884,79.155 109.778,79.426 109.507 C 79.574 109.359,79.404 108.947,79.048 108.590 C 78.691 108.234,78.403 108.091,78.406 108.271 M43.900 108.631 C 43.735 108.797,43.605 109.398,43.612 109.967 C 43.623 110.873,43.675 110.913,44.039 110.287 C 44.495 109.505,44.381 108.146,43.900 108.631 M106.958 119.106 C 106.655 119.308,106.732 119.624,107.206 120.114 C 107.864 120.797,107.886 120.783,107.701 119.814 C 107.594 119.257,107.483 118.803,107.453 118.806 C 107.424 118.809,107.201 118.944,106.958 119.106 M94.652 124.991 C 94.780 125.326,95.136 125.600,95.443 125.600 C 96.224 125.600,96.136 125.301,95.209 124.805 C 94.564 124.459,94.461 124.494,94.652 124.991 M105.600 130.850 C 105.600 131.295,106.605 131.734,107.174 131.538 C 107.394 131.462,107.130 131.192,106.587 130.938 C 106.035 130.679,105.600 130.641,105.600 130.850 M48.574 146.706 C 48.627 147.064,48.879 147.426,49.135 147.512 C 49.804 147.735,49.711 146.528,49.039 146.270 C 48.683 146.134,48.514 146.293,48.574 146.706 M308.948 147.881 C 309.263 148.196,311.186 148.302,310.996 147.994 C 310.896 147.832,310.354 147.700,309.791 147.700 C 309.227 147.700,308.848 147.782,308.948 147.881 M324.190 153.048 C 324.547 153.404,324.959 153.574,325.107 153.426 C 325.256 153.278,325.112 152.989,324.788 152.784 C 323.843 152.187,323.487 152.344,324.190 153.048 M338.943 161.000 C 339.273 161.330,339.781 161.594,340.071 161.587 C 340.403 161.579,340.311 161.356,339.824 160.987 C 338.809 160.220,338.172 160.229,338.943 161.000 M60.663 166.620 C 60.786 166.939,61.046 167.200,61.243 167.200 C 61.439 167.200,61.600 167.470,61.600 167.800 C 61.600 168.130,61.883 168.400,62.229 168.400 C 62.800 168.400,62.800 168.343,62.229 167.771 C 61.883 167.426,61.600 166.995,61.600 166.814 C 61.600 166.633,61.339 166.386,61.020 166.263 C 60.633 166.115,60.515 166.233,60.663 166.620 M351.600 169.677 C 351.600 169.938,352.765 171.195,353.903 172.162 C 354.972 173.070,355.086 172.832,354.097 171.761 C 353.119 170.703,351.600 169.435,351.600 169.677 M107.007 191.940 C 107.333 192.266,110.381 192.292,110.180 191.968 C 110.070 191.789,109.272 191.671,108.407 191.706 C 107.543 191.740,106.913 191.846,107.007 191.940 M297.159 194.950 C 297.410 195.253,298.081 195.500,298.650 195.500 C 299.342 195.500,299.512 195.393,299.162 195.176 C 298.874 194.998,298.507 194.934,298.347 195.033 C 298.186 195.132,297.942 195.030,297.804 194.807 C 297.666 194.583,297.361 194.400,297.127 194.400 C 296.842 194.400,296.852 194.581,297.159 194.950 M382.400 213.200 C 382.400 213.420,382.580 213.600,382.800 213.600 C 383.020 213.600,383.200 213.990,383.200 214.467 C 383.200 214.943,383.312 215.222,383.448 215.085 C 383.808 214.725,383.256 212.800,382.792 212.800 C 382.577 212.800,382.400 212.980,382.400 213.200 M331.030 219.548 C 331.918 220.411,332.123 220.386,331.767 219.457 C 331.628 219.096,331.232 218.800,330.887 218.800 C 330.369 218.800,330.393 218.929,331.030 219.548 M385.757 222.188 C 385.902 223.175,386.400 223.390,386.400 222.467 C 386.400 221.990,386.236 221.600,386.035 221.600 C 385.835 221.600,385.710 221.865,385.757 222.188 M38.561 228.278 C 37.855 228.794,37.863 228.816,38.713 228.686 C 39.207 228.611,39.794 228.366,40.019 228.141 C 40.643 227.517,39.447 227.630,38.561 228.278 M30.426 232.169 C 30.039 232.635,30.102 232.698,30.777 232.522 C 31.230 232.404,31.600 232.148,31.600 231.953 C 31.600 231.414,30.954 231.532,30.426 232.169 M38.661 241.029 C 37.474 242.457,37.520 242.917,38.729 241.700 C 39.865 240.556,40.522 239.598,40.149 239.629 C 39.957 239.645,39.287 240.275,38.661 241.029 M6.446 257.900 C 6.421 258.395,6.220 258.800,6.000 258.800 C 5.780 258.800,5.600 259.019,5.600 259.286 C 5.600 259.603,5.822 259.550,6.238 259.133 C 6.590 258.782,6.790 258.158,6.685 257.747 C 6.525 257.127,6.485 257.152,6.446 257.900 M26.880 258.080 C 26.331 258.629,26.217 260.560,26.754 260.229 C 27.026 260.060,27.641 257.600,27.411 257.600 C 27.383 257.600,27.144 257.816,26.880 258.080 M0.000 276.200 C 0.000 276.750,0.069 277.200,0.153 277.200 C 0.238 277.200,0.393 276.750,0.498 276.200 C 0.603 275.650,0.534 275.200,0.345 275.200 C 0.155 275.200,0.000 275.650,0.000 276.200 M26.425 289.200 C 26.425 289.530,26.690 290.149,27.013 290.576 C 27.456 291.163,27.600 291.206,27.600 290.753 C 27.600 290.423,27.336 289.804,27.013 289.376 C 26.569 288.790,26.425 288.747,26.425 289.200 M382.938 292.613 C 382.679 293.165,382.641 293.600,382.850 293.600 C 383.295 293.600,383.734 292.595,383.538 292.026 C 383.462 291.806,383.192 292.070,382.938 292.613 M32.138 299.793 C 32.392 300.339,32.834 300.877,33.120 300.988 C 33.471 301.124,33.411 300.803,32.933 299.995 C 32.081 298.551,31.490 298.401,32.138 299.793 M376.800 305.400 C 376.517 305.741,376.376 306.109,376.486 306.219 C 376.596 306.329,376.917 306.141,377.200 305.800 C 377.483 305.459,377.624 305.091,377.514 304.981 C 377.404 304.871,377.083 305.059,376.800 305.400 M41.700 308.676 C 42.085 308.776,42.400 309.025,42.400 309.229 C 42.400 309.433,42.602 309.600,42.849 309.600 C 43.159 309.600,43.144 309.415,42.800 309.000 C 42.526 308.670,42.009 308.421,41.651 308.446 C 41.102 308.486,41.109 308.521,41.700 308.676 M2.615 312.400 C 2.763 313.170,3.045 313.971,3.242 314.180 C 3.842 314.817,3.653 313.388,2.973 312.146 L 2.346 311.000 2.615 312.400 M372.900 312.223 C 372.311 312.863,372.262 313.200,372.757 313.200 C 373.098 313.200,373.737 311.996,373.509 311.783 C 373.449 311.727,373.175 311.925,372.900 312.223 M65.100 314.697 C 66.695 314.773,69.305 314.773,70.900 314.697 C 72.495 314.621,71.190 314.559,68.000 314.559 C 64.810 314.559,63.505 314.621,65.100 314.697 M366.800 320.600 C 366.517 320.941,366.376 321.309,366.486 321.419 C 366.596 321.529,366.917 321.341,367.200 321.000 C 367.483 320.659,367.624 320.291,367.514 320.181 C 367.404 320.071,367.083 320.259,366.800 320.600 M360.384 328.030 C 359.977 328.790,360.010 328.823,360.770 328.416 C 361.623 327.959,361.901 327.200,361.214 327.200 C 361.002 327.200,360.628 327.574,360.384 328.030 M359.200 329.624 C 359.200 329.857,359.065 329.965,358.900 329.866 C 358.735 329.766,358.368 329.935,358.084 330.242 C 357.801 330.549,357.711 330.803,357.884 330.806 C 358.058 330.809,357.935 330.980,357.612 331.184 C 357.288 331.389,357.112 331.646,357.222 331.755 C 357.331 331.864,358.026 331.334,358.766 330.577 C 359.507 329.820,359.907 329.200,359.656 329.200 C 359.405 329.200,359.200 329.391,359.200 329.624 M355.829 332.629 C 355.104 333.353,355.042 333.600,355.586 333.600 C 355.798 333.600,356.165 333.240,356.400 332.800 C 356.914 331.839,356.686 331.771,355.829 332.629 M19.200 339.400 C 19.717 339.950,20.202 340.400,20.279 340.400 C 20.356 340.400,20.124 339.950,19.763 339.400 C 19.403 338.850,18.917 338.400,18.684 338.400 C 18.451 338.400,18.683 338.850,19.200 339.400 M348.255 339.000 C 348.129 339.330,348.122 339.600,348.241 339.600 C 348.360 339.600,348.727 339.330,349.057 339.000 C 349.578 338.480,349.579 338.400,349.071 338.400 C 348.749 338.400,348.382 338.670,348.255 339.000 M27.600 346.683 C 27.600 347.272,29.158 348.392,29.410 347.984 C 29.540 347.773,29.469 347.600,29.252 347.600 C 29.035 347.600,28.574 347.317,28.229 346.971 C 27.883 346.626,27.600 346.496,27.600 346.683 M333.200 348.732 C 333.200 348.915,332.750 349.306,332.201 349.600 C 331.651 349.894,331.268 350.202,331.350 350.284 C 331.514 350.448,334.400 348.818,334.400 348.560 C 334.400 348.472,334.130 348.400,333.800 348.400 C 333.470 348.400,333.200 348.550,333.200 348.732 M38.600 354.000 C 38.736 354.220,39.117 354.400,39.447 354.400 C 39.777 354.400,39.936 354.220,39.800 354.000 C 39.664 353.780,39.283 353.600,38.953 353.600 C 38.623 353.600,38.464 353.780,38.600 354.000 M50.628 358.755 C 50.508 358.950,50.754 359.199,51.175 359.309 C 51.711 359.449,51.876 359.343,51.727 358.955 C 51.486 358.325,50.954 358.228,50.628 358.755 M307.455 359.000 C 307.315 359.365,307.455 359.600,307.813 359.600 C 308.136 359.600,308.400 359.437,308.400 359.237 C 308.400 359.038,308.740 358.964,309.155 359.072 C 309.570 359.181,310.031 359.074,310.178 358.835 C 310.352 358.554,309.959 358.400,309.066 358.400 C 308.208 358.400,307.598 358.627,307.455 359.000 M63.200 362.100 C 63.200 362.265,63.650 362.400,64.200 362.400 C 64.750 362.400,65.200 362.265,65.200 362.100 C 65.200 361.935,64.750 361.800,64.200 361.800 C 63.650 361.800,63.200 361.935,63.200 362.100 " stroke="none" fill="#147cd8" fill-rule="evenodd"></path></g></svg>