<?xml version="1.0" standalone="no"?>
<!DOCTYPE svg PUBLIC "-//W3C//DTD SVG 20010904//EN"
 "http://www.w3.org/TR/2001/REC-SVG-20010904/DTD/svg10.dtd">
<svg version="1.0" xmlns="http://www.w3.org/2000/svg"
 width="2500.000000pt" height="2500.000000pt" viewBox="0 0 2500.000000 2500.000000"
 preserveAspectRatio="xMidYMid meet">
<metadata>
Created by potrace 1.16, written by Peter Selinger 2001-2019
</metadata>
<g transform="translate(0.000000,2500.000000) scale(0.100000,-0.100000)"
fill="#000000" stroke="none">
<path d="M4418 18321 c-111 -5 -129 -9 -146 -27 -16 -16 -37 -22 -98 -27 -55
-5 -84 -12 -98 -26 -26 -24 -80 -51 -101 -51 -8 0 -20 -11 -25 -24 -7 -18 -19
-25 -54 -30 -25 -4 -58 -17 -73 -30 -29 -23 -67 -40 -116 -51 -26 -5 -62 -33
-126 -96 -15 -15 -42 -29 -64 -32 -23 -4 -48 -16 -62 -31 -13 -14 -35 -28 -48
-31 -27 -7 -37 -29 -37 -83 0 -20 -6 -35 -16 -39 -14 -5 -45 -64 -57 -108 -3
-11 -16 -47 -28 -80 -18 -47 -24 -90 -28 -195 -6 -130 -7 -135 -28 -138 -44
-6 -46 -108 -2 -129 l26 -13 1 -224 c1 -124 6 -236 11 -250 6 -13 19 -27 30
-31 13 -4 21 -15 21 -29 0 -23 28 -56 47 -56 13 0 23 -33 23 -76 0 -23 6 -34
25 -42 15 -7 33 -31 46 -61 12 -27 30 -52 41 -54 13 -4 18 -14 18 -37 0 -24 5
-33 20 -37 12 -3 31 -28 48 -61 15 -30 35 -57 44 -60 13 -3 18 -14 18 -37 0
-37 28 -95 46 -95 13 0 24 -23 24 -49 0 -29 24 -70 48 -80 12 -6 22 -17 22
-25 0 -8 14 -24 30 -36 17 -12 30 -29 30 -39 0 -22 19 -41 41 -41 12 0 18 -13
22 -52 4 -36 13 -58 27 -69 11 -10 24 -28 29 -42 6 -14 23 -31 38 -39 25 -12
28 -19 31 -65 2 -29 9 -56 17 -63 8 -7 15 -19 15 -27 0 -7 7 -16 15 -19 8 -4
15 -14 15 -23 0 -25 29 -61 49 -61 12 0 21 -10 25 -24 4 -15 15 -26 28 -28 17
-2 25 -15 38 -61 9 -33 25 -66 37 -75 13 -11 23 -34 28 -65 6 -46 56 -137 76
-137 5 0 11 -11 15 -24 3 -14 12 -27 20 -30 11 -4 14 -27 14 -95 0 -85 1 -92
27 -116 15 -14 24 -25 19 -25 -5 0 -2 -8 7 -17 8 -10 17 -31 19 -48 2 -22 12
-34 41 -49 22 -11 33 -22 26 -26 -7 -5 -5 -9 5 -13 9 -4 16 -12 16 -19 0 -7 6
-25 14 -39 7 -14 16 -37 20 -52 3 -15 11 -27 16 -27 6 0 10 -9 10 -20 0 -11 9
-28 20 -37 11 -10 20 -27 20 -39 0 -30 27 -91 43 -97 8 -3 20 -49 31 -126 14
-87 24 -124 35 -131 12 -7 18 -32 23 -112 9 -145 17 -190 37 -213 13 -14 21
-45 26 -110 12 -150 14 -485 4 -775 -8 -233 -12 -276 -25 -283 -21 -12 -44
-68 -44 -107 0 -20 -5 -30 -15 -30 -8 0 -22 -12 -32 -27 -22 -35 -33 -43 -60
-43 -12 0 -33 -10 -45 -23 -15 -15 -46 -28 -85 -36 -45 -8 -67 -18 -80 -36
-15 -19 -32 -26 -97 -35 -44 -5 -87 -16 -95 -24 -25 -21 -74 -26 -173 -19 -73
5 -92 9 -95 23 -4 14 -22 18 -101 23 -53 4 -125 7 -160 7 -48 0 -64 4 -69 16
-7 19 -84 54 -118 54 -14 0 -40 14 -58 30 -19 17 -42 30 -51 30 -10 0 -22 13
-28 30 -7 22 -18 33 -39 37 -22 4 -29 11 -29 28 0 18 -7 25 -31 30 -18 4 -35
16 -41 31 -6 14 -22 27 -34 30 -13 3 -27 18 -33 35 -7 20 -17 29 -31 29 -14 0
-24 9 -32 30 -6 19 -19 32 -34 36 -22 6 -24 11 -24 69 0 35 -4 75 -9 89 -6 13
-11 52 -12 87 -2 46 -7 66 -21 78 -10 8 -18 22 -18 31 0 35 -29 94 -49 102
-15 5 -21 16 -21 37 0 20 -7 34 -20 41 -11 6 -20 17 -20 24 0 8 -7 19 -15 26
-8 7 -15 24 -15 37 0 14 -13 41 -30 60 -17 19 -30 45 -30 61 0 51 -13 102 -25
102 -29 0 -52 150 -58 363 -2 70 -6 91 -19 101 -10 7 -20 33 -24 57 -5 29 -17
53 -36 71 -15 14 -28 33 -28 42 0 9 -11 21 -24 27 -13 6 -30 22 -37 35 -11 22
-18 24 -90 24 -89 0 -104 -9 -114 -70 -4 -25 -15 -46 -31 -57 -20 -15 -25 -30
-30 -84 -7 -74 0 -119 19 -119 21 0 36 -76 47 -229 9 -121 14 -148 29 -163 21
-19 27 -40 36 -136 5 -40 15 -74 30 -96 13 -19 27 -56 30 -83 5 -34 14 -54 33
-70 23 -19 26 -31 32 -117 7 -91 26 -146 49 -146 5 0 12 -21 15 -47 10 -69 16
-83 32 -83 18 0 34 -40 34 -84 0 -22 10 -45 34 -72 18 -22 35 -48 37 -59 3
-11 16 -25 30 -32 22 -11 28 -22 33 -63 6 -42 11 -52 32 -60 13 -5 29 -21 34
-35 5 -14 21 -30 35 -35 19 -7 25 -17 25 -39 0 -24 5 -29 30 -35 19 -3 34 -14
39 -28 5 -13 21 -36 35 -53 14 -16 29 -44 32 -62 4 -21 14 -35 27 -39 11 -4
43 -24 70 -45 27 -22 58 -39 69 -39 12 0 22 -8 25 -21 3 -12 17 -22 33 -26 21
-4 29 -13 34 -33 5 -26 10 -29 61 -35 46 -6 59 -12 67 -31 7 -15 20 -24 34
-24 14 0 29 -11 42 -33 11 -19 26 -35 33 -36 8 -1 44 -5 81 -9 49 -5 73 -13
87 -29 23 -24 44 -29 158 -38 73 -6 82 -9 85 -28 3 -22 18 -27 120 -41 26 -4
54 -13 61 -20 29 -29 147 -31 147 -1 0 8 20 15 53 19 78 10 129 28 134 46 3
10 25 21 64 29 32 8 59 16 60 20 6 45 12 67 20 69 5 2 7 8 3 13 -3 5 -2 9 3 8
19 -5 101 42 106 61 3 12 14 20 27 20 14 0 25 10 35 33 7 18 25 38 39 45 17 8
27 22 32 48 5 27 15 41 40 56 19 11 37 30 40 43 3 13 16 26 29 29 18 5 25 14
27 38 2 25 9 34 28 38 22 5 26 14 34 63 9 53 12 59 38 64 21 4 28 11 28 28 0
13 11 30 25 39 19 13 24 22 19 38 -9 31 -7 137 4 151 5 6 12 74 14 150 5 131
7 139 34 179 l29 41 0 361 0 361 -23 10 c-28 12 -35 33 -37 120 -3 122 -4 129
-35 164 -22 25 -30 44 -30 71 0 58 -11 100 -26 100 -21 0 -30 34 -38 135 -7
100 -25 172 -46 185 -9 6 -15 33 -17 77 -5 96 -10 112 -38 125 -14 6 -25 19
-25 28 0 25 -38 108 -52 112 -6 2 -13 30 -16 62 -3 44 -9 60 -22 63 -21 6 -46
63 -55 128 -4 34 -13 55 -28 67 -18 13 -22 30 -27 100 -4 73 -8 84 -27 92 -14
7 -27 29 -38 67 -14 44 -23 59 -39 61 -14 2 -22 11 -24 29 -2 20 -10 28 -31
32 -23 5 -30 13 -35 42 -4 19 -11 35 -16 35 -5 0 -12 11 -16 24 -3 14 -12 27
-20 30 -8 3 -14 19 -14 39 0 25 -9 45 -35 73 -19 21 -35 48 -35 60 0 16 -9 25
-30 33 -28 9 -30 13 -30 60 0 48 -2 51 -35 65 -23 10 -35 22 -35 34 0 35 -22
81 -41 87 -14 5 -19 16 -19 39 0 23 -11 45 -35 73 -19 23 -35 48 -35 56 0 19
-27 72 -45 87 -8 7 -15 25 -15 40 0 23 -5 30 -29 35 -21 4 -31 14 -38 38 -6
21 -16 33 -30 35 -16 2 -24 15 -33 50 -7 29 -23 57 -41 74 -16 15 -29 34 -29
42 0 9 -11 18 -25 22 -30 7 -33 19 -38 142 -3 86 -5 95 -29 115 -19 16 -28 36
-33 72 -7 57 -26 128 -36 135 -18 14 -29 55 -29 111 0 58 -23 119 -52 140 -5
3 -9 62 -9 130 -1 128 11 179 46 193 9 3 15 19 15 41 0 30 3 35 23 35 16 0 28
9 35 25 7 14 23 30 36 37 14 6 28 22 31 38 8 37 137 160 167 160 27 0 78 21
78 32 0 4 18 12 39 18 30 8 42 17 49 39 9 26 16 30 68 37 36 4 64 14 74 24 8
10 32 21 52 24 30 6 41 3 59 -15 19 -19 36 -22 133 -27 l112 -5 12 27 c8 18
19 26 38 26 16 0 28 6 31 18 9 36 38 43 86 23 25 -11 48 -24 51 -30 4 -6 18
-11 32 -11 17 0 27 -8 34 -25 12 -32 55 -35 65 -5 8 25 30 26 47 1 9 -12 32
-20 71 -25 49 -7 59 -11 72 -36 8 -16 25 -30 37 -32 14 -2 24 -12 28 -28 4
-18 14 -26 35 -30 24 -4 31 -11 35 -35 3 -20 14 -34 33 -43 16 -8 27 -21 27
-33 0 -11 7 -22 15 -25 8 -4 15 -10 15 -16 0 -5 14 -21 30 -35 17 -13 30 -33
30 -43 0 -10 9 -20 19 -23 14 -3 21 -15 23 -38 2 -25 10 -37 31 -47 24 -12 27
-18 27 -63 0 -44 4 -53 36 -84 33 -32 41 -35 96 -35 50 0 61 3 65 19 3 14 20
22 64 30 32 7 59 13 60 14 0 1 2 53 5 116 l5 113 -34 52 c-19 29 -37 61 -39
72 -2 10 -16 25 -31 32 -19 9 -27 21 -27 38 0 19 -6 26 -30 31 -19 3 -30 12
-30 22 0 24 -20 41 -47 41 -17 0 -23 7 -29 35 -3 19 -10 35 -15 35 -5 0 -9 6
-9 13 0 8 -9 22 -19 31 -11 10 -22 28 -25 42 -4 14 -16 26 -31 30 -16 4 -25
13 -25 25 0 12 -11 24 -27 31 -16 7 -45 29 -65 50 -21 21 -46 38 -55 38 -10 0
-26 13 -35 30 -9 16 -28 32 -41 35 -14 4 -29 17 -36 31 -7 17 -19 24 -38 25
-16 0 -67 4 -115 8 -71 6 -90 12 -105 29 -17 21 -26 22 -268 26 -137 2 -307 1
-377 -3z"/>
<path d="M10112 17343 c-12 -2 -30 -15 -38 -29 -10 -15 -26 -24 -41 -24 -18 0
-28 -8 -35 -28 -6 -16 -21 -33 -32 -38 -19 -8 -21 -17 -20 -99 0 -49 1 -103 3
-120 1 -16 -1 -73 -5 -126 -6 -89 -5 -98 14 -117 36 -36 42 -58 42 -151 0 -79
2 -92 20 -104 32 -22 38 -60 38 -253 1 -98 4 -227 8 -286 6 -94 9 -109 29
-126 33 -29 38 -131 32 -613 -4 -362 -6 -404 -21 -415 -35 -25 -30 -215 7
-276 8 -12 7 -21 -4 -34 -23 -28 -28 -175 -33 -979 -6 -929 -10 -1074 -33
-1157 -9 -35 -22 -70 -30 -79 -16 -19 -17 -114 -3 -156 6 -17 22 -35 35 -41
13 -6 25 -21 27 -34 2 -15 11 -24 26 -26 13 -2 32 -12 43 -23 22 -22 76 -25
104 -5 11 7 31 16 45 19 22 5 28 15 38 66 9 43 18 62 31 66 24 7 31 44 31 161
0 81 2 95 19 103 29 16 40 104 46 381 6 269 9 303 31 335 16 22 20 180 6 189
-28 17 -37 481 -11 528 17 29 17 29 -15 193 -17 87 -21 212 -7 233 4 8 19 19
32 26 13 6 26 20 28 31 2 11 8 23 15 27 6 4 120 8 254 8 133 0 250 4 260 9 9
4 31 16 49 25 17 9 47 16 67 16 56 0 169 30 186 50 9 9 37 20 63 24 31 5 52
14 62 29 9 12 36 26 67 34 36 9 61 23 78 43 22 27 31 30 79 30 45 0 56 4 73
25 11 14 25 25 32 25 8 0 16 14 20 30 4 23 14 34 36 41 19 7 30 18 30 30 0 11
8 22 18 25 9 3 24 10 32 15 8 5 22 12 32 15 9 3 18 14 21 25 3 10 14 22 25 26
31 12 122 121 122 146 0 13 8 34 17 47 17 24 27 37 84 103 19 22 29 47 33 86
5 40 16 68 36 95 24 31 30 50 30 88 0 54 13 88 34 88 19 0 26 46 26 174 0 118
-16 192 -43 208 -13 7 -17 23 -17 71 0 58 -3 66 -35 100 -19 20 -35 47 -35 60
0 14 -12 32 -30 45 -20 16 -30 31 -30 50 0 35 -9 49 -43 61 -20 8 -27 17 -27
36 0 18 -7 28 -24 34 -28 11 -36 29 -36 81 0 33 -4 39 -30 49 -19 6 -30 17
-30 29 0 10 -5 33 -11 51 -9 26 -19 34 -57 44 -36 10 -48 18 -58 43 -7 18 -27
45 -43 61 -16 16 -31 41 -33 54 -2 15 -14 29 -34 37 -16 8 -34 24 -40 35 -5
12 -19 23 -30 25 -15 2 -24 12 -27 31 -4 20 -15 32 -36 39 -28 10 -56 32 -138
110 -19 18 -44 32 -58 32 -20 0 -25 5 -25 25 0 20 -6 27 -28 31 -19 4 -32 15
-39 34 -10 27 -14 28 -97 35 -78 7 -87 10 -92 30 -5 22 -7 22 -259 28 -200 4
-260 8 -287 21 -90 42 -116 46 -307 45 -102 -1 -196 -4 -209 -6z m491 -395
c12 -8 38 -15 57 -17 19 -2 43 -9 54 -17 11 -8 43 -14 71 -14 62 0 113 -14
129 -35 10 -14 104 -33 168 -35 9 0 19 -9 23 -20 7 -22 60 -40 122 -40 57 0
73 -8 73 -36 0 -20 5 -24 30 -24 23 0 33 -6 40 -25 5 -14 20 -29 33 -34 30
-12 83 -64 102 -101 8 -16 24 -31 35 -35 14 -4 20 -15 20 -34 0 -23 5 -30 29
-34 22 -5 31 -13 36 -36 4 -21 15 -32 36 -40 26 -9 29 -14 29 -53 0 -50 7 -63
38 -72 12 -4 22 -15 22 -24 1 -31 39 -102 55 -102 13 0 15 -26 15 -195 0 -184
-1 -196 -20 -207 -11 -7 -20 -20 -20 -30 0 -9 -4 -20 -10 -23 -5 -3 -10 -19
-10 -35 0 -16 -6 -33 -13 -37 -38 -24 -51 -68 -55 -178 -4 -105 -5 -111 -32
-136 -19 -18 -29 -40 -34 -73 -6 -41 -12 -49 -37 -58 -23 -8 -29 -16 -29 -39
0 -22 -6 -32 -23 -38 -16 -7 -27 -23 -37 -61 -11 -40 -20 -54 -40 -62 -14 -5
-32 -18 -41 -30 -9 -11 -38 -26 -65 -33 -41 -10 -49 -16 -52 -38 -3 -20 -10
-26 -38 -32 -24 -4 -38 -13 -44 -29 -7 -19 -18 -24 -62 -29 -29 -4 -67 -7 -83
-7 -22 0 -33 -6 -40 -22 -13 -30 -45 -34 -307 -44 l-208 -7 -6 31 c-4 17 -13
37 -20 43 -19 16 -18 60 4 111 15 38 17 84 17 421 0 301 -3 379 -13 386 -28
17 -42 64 -42 137 0 113 -30 439 -40 442 -6 2 -10 28 -10 57 0 30 -4 57 -10
60 -6 4 -10 117 -10 307 l0 301 96 -6 c53 -3 105 -11 117 -19z m972 -2210 c28
-12 33 -28 10 -28 -9 0 -18 -7 -21 -15 -4 -8 -15 -15 -25 -15 -11 0 -23 -10
-28 -24 -8 -19 -19 -24 -63 -29 -111 -13 -154 25 -70 61 30 13 52 29 55 42 4
17 13 20 61 20 30 0 67 -5 81 -12z"/>
<path d="M9105 17239 c-11 -4 -32 -10 -46 -13 -26 -6 -26 -8 -33 -108 -4 -58
-2 -155 5 -223 6 -66 12 -162 14 -214 3 -81 7 -95 24 -108 20 -13 21 -24 21
-196 1 -173 2 -184 25 -232 28 -56 26 -34 51 -540 13 -271 17 -312 32 -323 15
-11 18 -41 23 -230 6 -216 17 -300 45 -367 19 -47 25 -247 14 -490 -9 -188
-14 -449 -13 -680 0 -66 0 -140 0 -165 -1 -25 1 -114 3 -198 2 -99 0 -156 -7
-163 -7 -7 -7 -24 3 -56 10 -31 14 -100 14 -214 0 -140 -3 -173 -17 -201 -10
-18 -21 -36 -26 -39 -4 -3 -6 -34 -5 -70 1 -35 -1 -90 -6 -121 -6 -51 -5 -59
13 -75 22 -18 27 -42 13 -58 -31 -35 -44 -191 -17 -201 8 -4 15 -12 15 -19 0
-6 9 -20 19 -29 11 -10 21 -30 23 -44 2 -20 10 -28 30 -32 15 -3 37 -13 49
-23 25 -22 80 -33 106 -22 10 5 20 9 23 9 16 3 49 45 55 69 4 16 13 31 21 34
27 10 34 69 34 289 0 195 2 225 17 239 13 14 14 21 5 36 -14 22 -16 89 -3 89
24 0 35 79 33 228 -3 146 -11 199 -34 213 -6 4 -10 58 -9 145 1 77 1 146 0
154 -1 8 -3 237 -5 507 l-4 492 21 12 c21 11 21 16 16 168 -3 86 -11 172 -17
191 -9 24 -15 146 -19 378 l-6 342 -28 23 -27 22 -6 175 c-5 147 -11 193 -35
290 -27 105 -29 129 -29 295 0 171 -1 184 -24 231 -23 47 -31 115 -41 339 -4
82 -16 123 -41 140 -22 14 -24 22 -24 98 0 78 -2 85 -32 122 -71 85 -92 102
-138 110 -25 4 -47 11 -50 15 -3 4 -14 4 -25 -1z"/>
<path d="M19495 16341 c-4 -14 -19 -20 -58 -25 -58 -8 -77 -20 -77 -47 0 -14
-9 -21 -30 -26 -17 -3 -39 -16 -49 -29 -10 -13 -23 -24 -29 -24 -6 0 -28 -17
-50 -39 -21 -21 -53 -42 -70 -46 -22 -4 -32 -13 -32 -25 0 -12 -10 -20 -35
-24 -21 -4 -35 -13 -35 -21 0 -8 -13 -24 -30 -37 -20 -15 -30 -30 -30 -49 0
-17 -6 -28 -18 -31 -10 -3 -31 -30 -46 -61 -16 -30 -37 -58 -47 -60 -14 -4
-19 -14 -19 -40 0 -28 -4 -36 -21 -39 -21 -3 -49 -60 -49 -101 0 -10 -7 -20
-15 -23 -20 -8 -45 -61 -45 -96 0 -21 -6 -31 -25 -38 -14 -5 -25 -16 -25 -24
0 -8 -11 -31 -24 -51 -24 -35 -26 -35 -43 -18 -10 10 -30 23 -45 30 -15 7 -30
23 -34 37 -3 15 -17 29 -35 35 -19 6 -29 17 -29 30 0 29 -43 35 -258 35 -179
1 -183 1 -200 -22 -22 -28 -67 -52 -98 -52 -19 0 -24 -5 -24 -25 0 -19 -7 -26
-32 -33 -28 -7 -34 -13 -36 -40 -2 -23 -8 -32 -21 -32 -16 0 -39 -39 -56 -97
-3 -12 -16 -23 -28 -25 -15 -2 -23 -11 -25 -28 -2 -18 -12 -29 -32 -37 -18 -7
-30 -19 -30 -29 0 -31 -33 -92 -52 -97 -13 -4 -18 -15 -18 -44 0 -57 -10 -82
-33 -85 -13 -2 -24 -15 -32 -38 -7 -21 -20 -36 -31 -39 -25 -4 -34 -19 -34
-58 0 -33 -22 -63 -45 -63 -8 0 -20 -10 -26 -22 -7 -13 -23 -33 -36 -45 -18
-18 -23 -32 -23 -73 0 -45 -3 -52 -25 -60 -14 -5 -30 -21 -35 -34 -8 -23 -14
-24 -109 -28 -118 -4 -134 -13 -135 -80 l-1 -43 65 -3 c118 -4 110 6 110 -137
0 -114 -2 -125 -20 -135 -11 -6 -20 -19 -20 -28 0 -10 -5 -23 -11 -29 -19 -19
5 -368 26 -393 8 -8 14 -19 14 -25 1 -5 3 -23 6 -40 3 -16 6 -95 8 -176 3
-124 6 -152 25 -190 18 -37 21 -63 22 -159 1 -164 1 -179 3 -292 1 -57 0 -125
-2 -153 -2 -27 2 -88 8 -135 7 -47 15 -107 19 -135 5 -38 11 -51 27 -54 10 -2
31 -16 46 -32 21 -23 36 -29 67 -29 34 0 41 4 46 25 4 15 14 25 24 25 23 0 42
19 42 41 0 10 13 21 30 28 23 7 30 16 30 35 0 19 5 26 20 26 16 0 52 27 105
80 6 6 22 22 38 38 26 26 27 30 27 142 -1 176 -16 312 -37 328 -17 12 -18 39
-18 333 0 230 3 322 11 327 24 15 35 95 33 240 -3 172 15 512 30 560 6 19 14
39 19 45 18 24 32 108 32 199 0 97 4 110 32 121 18 6 38 64 38 110 0 15 5 27
10 27 6 0 10 7 10 15 0 8 9 20 20 27 12 8 20 24 20 41 0 22 6 30 30 38 22 8
30 17 30 34 0 18 8 26 35 35 27 9 35 17 35 35 0 41 62 44 75 4 4 -11 20 -26
37 -35 47 -24 88 -74 88 -106 0 -24 5 -30 30 -34 29 -6 30 -9 30 -60 0 -49 3
-55 29 -68 25 -13 29 -22 34 -73 3 -32 11 -59 17 -61 5 -2 10 -8 10 -14 0 -5
9 -17 20 -26 16 -14 21 -35 26 -112 4 -59 11 -99 19 -106 16 -12 22 -103 29
-431 3 -137 9 -251 15 -261 6 -11 22 -23 36 -26 18 -5 25 -13 25 -30 0 -21 6
-24 53 -30 63 -8 116 10 141 49 10 15 26 25 40 25 21 0 24 6 30 57 4 31 14 65
23 75 14 16 15 24 6 51 -17 48 -23 164 -29 550 -5 338 -4 349 16 381 11 18 27
65 36 105 11 46 23 75 34 81 27 15 40 64 40 156 0 83 0 84 30 99 28 14 30 20
30 71 0 38 4 56 14 60 8 3 17 16 20 30 4 13 13 24 21 24 8 0 15 9 15 19 0 11
13 29 29 40 17 13 32 35 36 54 11 47 33 87 50 87 9 0 15 10 15 26 0 19 7 28
30 35 16 6 35 23 42 37 9 18 25 29 55 37 23 5 53 22 67 38 14 15 34 27 46 27
11 0 20 5 20 10 0 17 36 11 53 -8 10 -10 17 -28 17 -40 0 -12 8 -23 21 -27 11
-4 24 -16 28 -28 10 -26 24 -186 22 -239 -1 -26 4 -42 19 -56 38 -36 42 -129
36 -902 -7 -872 -9 -961 -21 -980 -33 -51 -37 -90 -42 -430 -5 -316 -7 -347
-25 -370 -27 -37 -36 -139 -43 -505 -7 -327 -13 -388 -41 -399 -13 -5 -15 -22
-15 -94 1 -48 -1 -264 -5 -480 -6 -371 -7 -393 -25 -403 -23 -12 -24 -26 -3
-68 19 -37 15 -98 -11 -181 -34 -107 -40 -315 -14 -485 5 -33 9 -80 9 -104 0
-26 6 -52 16 -62 8 -9 18 -42 21 -72 5 -52 8 -57 34 -62 20 -5 29 -13 29 -26
0 -12 9 -21 26 -25 29 -8 152 0 162 10 13 14 21 155 15 281 l-6 131 26 17 c20
13 27 28 32 64 8 62 33 130 49 136 10 4 15 59 21 228 7 221 12 257 39 284 15
15 31 142 22 172 -3 10 -8 33 -11 52 -3 19 -15 41 -27 50 -21 14 -21 18 -15
249 6 231 7 236 31 261 22 24 24 31 18 106 -3 45 -11 90 -20 102 -9 14 -11 30
-6 40 10 24 21 140 33 349 5 94 13 180 19 190 5 11 19 64 30 119 19 91 21 149
26 635 4 294 9 546 12 560 4 14 14 31 23 38 14 11 16 52 19 335 5 544 16 801
35 831 22 33 23 122 2 142 -17 17 -20 60 -5 69 12 8 13 58 1 70 -11 13 -31
272 -31 403 0 78 -3 102 -16 112 -27 23 -38 53 -43 125 -6 64 -8 70 -31 75
-15 3 -26 14 -28 25 -2 11 -18 38 -37 60 -22 25 -35 50 -35 68 0 21 -6 30 -20
34 -12 3 -27 18 -35 33 -14 28 -57 40 -140 40 -18 0 -44 9 -58 20 -35 28 -123
28 -132 1z"/>
<path d="M21830 15640 c-9 -6 -37 -8 -66 -4 -39 5 -54 3 -60 -8 -9 -14 -63
-31 -135 -43 -20 -3 -44 -14 -54 -25 -12 -13 -31 -20 -56 -20 -73 0 -139 -20
-149 -44 -7 -19 -19 -24 -62 -29 -29 -4 -67 -7 -84 -7 -23 0 -34 -6 -42 -24
-8 -19 -21 -25 -66 -30 -48 -6 -58 -12 -71 -35 -9 -18 -25 -31 -43 -34 -15 -3
-40 -18 -55 -33 -15 -14 -41 -29 -59 -33 -24 -5 -34 -13 -36 -29 -3 -21 -50
-42 -95 -42 -11 0 -22 -12 -28 -30 -6 -16 -18 -32 -28 -35 -20 -6 -51 -65 -51
-96 0 -33 -28 -89 -44 -89 -11 0 -16 -10 -16 -31 0 -22 -6 -32 -19 -36 -21 -5
-41 -42 -41 -76 0 -29 -12 -46 -41 -61 -20 -10 -24 -20 -27 -68 -2 -46 -7 -58
-22 -63 -27 -9 -41 -70 -38 -162 3 -73 4 -77 28 -83 16 -4 26 -14 28 -28 5
-30 27 -40 106 -48 57 -6 69 -11 78 -29 5 -12 24 -28 41 -36 20 -9 33 -23 35
-36 2 -15 13 -24 33 -28 18 -4 35 -16 41 -30 8 -18 21 -24 65 -30 44 -5 56
-11 63 -30 7 -18 20 -25 73 -34 35 -6 87 -11 116 -11 45 0 53 -3 60 -23 8 -20
19 -25 71 -30 49 -6 70 -14 107 -42 25 -19 56 -35 68 -35 13 0 30 -11 39 -25
9 -14 30 -27 49 -30 22 -4 39 -17 55 -41 15 -23 30 -34 46 -34 18 0 26 -6 28
-22 2 -16 12 -24 33 -29 17 -3 48 -22 69 -42 26 -24 50 -37 67 -37 19 0 30 -6
34 -20 6 -18 24 -25 95 -32 19 -2 26 -10 28 -32 3 -22 12 -31 42 -44 22 -8 37
-19 34 -23 -3 -5 1 -9 8 -9 7 0 29 -17 47 -39 20 -23 50 -44 75 -52 51 -16 52
-19 55 -77 1 -25 6 -51 11 -56 6 -6 10 -29 10 -53 0 -48 -26 -83 -60 -83 -12
0 -31 -11 -43 -24 -21 -24 -27 -24 -192 -27 -93 -2 -216 -2 -272 -1 -99 2
-103 3 -109 26 -5 23 -11 24 -107 32 -56 4 -106 7 -110 6 -5 -1 -20 4 -35 12
-25 14 -168 42 -275 53 -39 5 -50 10 -58 29 -8 22 -14 24 -86 24 -50 0 -88 -6
-107 -15 -15 -8 -35 -15 -42 -15 -8 0 -14 -4 -14 -10 0 -5 -16 -10 -35 -10
-29 0 -37 5 -45 25 -13 34 -55 35 -64 1 -5 -19 -14 -24 -52 -30 -66 -9 -74
-18 -74 -91 0 -80 5 -93 45 -109 18 -8 36 -23 39 -34 5 -15 18 -21 61 -24 43
-4 64 -12 94 -36 22 -18 51 -32 64 -32 54 0 86 -12 89 -34 3 -18 11 -21 62
-24 44 -2 64 -8 76 -22 24 -28 75 -47 148 -55 34 -4 62 -11 62 -16 0 -5 5 -9
12 -9 6 0 19 -7 28 -15 14 -13 77 -16 391 -21 206 -3 461 -2 568 3 178 9 194
11 210 30 14 19 31 22 134 28 79 5 123 12 132 21 7 8 16 14 19 14 3 0 15 9 26
20 11 11 31 20 44 20 13 0 27 7 30 16 3 9 6 87 6 175 0 146 -2 161 -20 179
-11 11 -24 20 -29 20 -5 0 -12 39 -16 87 -7 73 -12 93 -36 126 -16 23 -29 53
-29 69 0 19 -13 45 -35 72 -19 24 -35 52 -35 62 0 13 -11 24 -30 31 -23 9 -30
17 -30 40 -1 27 -39 83 -58 83 -17 0 -63 58 -73 93 -7 27 -15 37 -31 37 -11 0
-42 18 -68 40 -26 22 -57 40 -69 40 -13 0 -23 8 -27 24 -5 20 -14 25 -55 30
-39 5 -54 13 -71 36 -12 17 -30 30 -40 30 -12 0 -23 11 -29 29 -9 27 -16 30
-70 36 -54 6 -59 9 -59 31 0 24 -2 26 -85 42 -31 6 -41 13 -43 30 -3 18 -10
22 -42 22 -52 0 -142 21 -158 37 -7 7 -22 13 -32 13 -10 0 -21 4 -24 9 -3 4
-35 11 -71 13 -55 5 -69 10 -88 32 -19 21 -36 28 -94 35 -47 6 -83 17 -103 31
-17 12 -46 26 -65 31 -24 7 -37 17 -41 33 -4 16 -15 26 -35 30 -25 5 -29 10
-29 41 0 19 -4 35 -9 35 -11 0 -31 54 -31 82 0 11 9 31 20 45 14 18 20 41 20
75 0 46 2 49 30 55 21 4 32 13 36 29 4 17 13 24 29 24 13 0 27 5 30 10 3 6 14
10 23 10 9 0 25 14 34 30 10 18 25 30 38 30 14 0 24 10 31 30 7 19 18 30 30
30 11 0 31 11 45 25 14 14 31 25 39 25 8 0 17 5 20 10 3 6 19 10 36 10 16 0
39 5 52 12 12 6 30 15 40 20 10 5 68 15 130 23 80 11 128 23 167 42 50 25 65
28 167 28 101 0 114 -2 135 -22 32 -30 146 -50 191 -33 105 42 137 60 137 80
0 12 10 25 25 32 22 10 25 17 25 68 0 49 -4 61 -30 90 -16 18 -30 37 -30 42 0
4 -13 8 -29 8 -22 0 -30 6 -35 24 -6 23 -10 24 -123 31 -65 4 -131 13 -148 20
-16 8 -48 16 -70 19 -22 3 -53 8 -70 11 -16 3 -37 1 -45 -5z"/>
<path d="M15470 15204 c-59 -4 -131 -23 -141 -37 -3 -4 -32 -11 -64 -14 -64
-7 -67 -8 -163 -103 -75 -72 -102 -110 -102 -139 0 -12 -11 -23 -30 -30 -24
-8 -30 -16 -30 -40 0 -26 -4 -31 -24 -31 -18 0 -27 -8 -34 -29 -6 -16 -19 -32
-30 -35 -24 -8 -42 -54 -42 -105 0 -50 -10 -81 -26 -81 -18 0 -34 -32 -34 -67
0 -45 -11 -71 -31 -76 -30 -8 -39 -50 -39 -181 0 -120 0 -123 -24 -134 -34
-15 -41 -66 -41 -282 0 -298 6 -647 12 -668 3 -11 16 -23 29 -26 22 -6 24 -12
24 -62 0 -45 6 -64 29 -99 18 -26 32 -63 36 -96 5 -35 17 -68 36 -93 17 -24
29 -53 29 -71 0 -21 11 -42 39 -72 21 -22 42 -50 46 -62 3 -12 15 -21 25 -21
10 0 21 -8 24 -17 8 -24 70 -63 100 -63 19 0 25 -6 28 -27 2 -19 10 -29 28
-33 14 -3 26 -14 29 -25 5 -28 21 -45 42 -45 12 0 21 -10 25 -25 4 -18 13 -25
30 -25 39 0 95 -28 101 -50 5 -17 14 -20 67 -20 33 0 91 -3 128 -6 58 -6 67
-10 70 -28 2 -17 13 -22 57 -29 30 -4 74 -14 98 -22 24 -8 67 -15 96 -15 29 0
88 -7 132 -15 102 -18 173 -19 207 -1 20 11 36 12 60 5 27 -7 38 -5 60 11 29
21 124 40 206 40 48 0 52 2 52 23 0 17 9 27 33 38 30 13 32 17 32 69 0 49 -2
55 -22 58 -13 2 -25 14 -31 32 -9 25 -16 28 -72 35 -52 6 -63 11 -70 31 -7 16
-17 24 -34 24 -17 0 -26 7 -30 24 -9 37 -53 46 -224 47 -118 1 -157 -2 -170
-13 -63 -51 -252 -55 -252 -4 0 16 -83 26 -217 26 -91 0 -94 1 -103 25 -7 17
-17 25 -34 25 -14 0 -36 10 -49 23 -120 110 -117 107 -117 148 0 21 -4 39 -10
39 -5 0 -10 6 -10 14 0 8 -9 21 -20 29 -14 9 -24 33 -30 68 -18 107 -23 124
-39 137 -13 10 -17 41 -21 164 -3 97 -9 153 -16 155 -6 2 -19 10 -29 17 -16
12 -17 20 -5 99 l12 86 46 7 c25 4 186 3 357 -1 170 -4 315 -7 320 -6 6 1 132
4 281 7 264 6 270 7 280 28 5 11 18 22 29 24 11 2 35 22 53 46 27 37 32 51 32
99 0 43 -4 59 -18 69 -30 21 -42 53 -42 111 0 40 -5 60 -20 77 -11 13 -20 31
-20 41 0 10 -4 21 -10 24 -6 4 -10 55 -10 118 -1 62 -5 157 -10 212 -7 85 -12
102 -31 118 -17 13 -24 32 -27 71 -3 42 -9 56 -24 63 -20 8 -48 70 -48 105 0
10 -10 20 -25 24 -17 4 -28 16 -33 37 -6 22 -16 33 -33 37 -15 4 -25 14 -27
28 -2 16 -12 25 -32 28 -20 5 -30 14 -37 38 -6 21 -16 32 -31 34 -13 2 -24 13
-28 27 -3 13 -21 33 -40 44 -19 11 -34 27 -34 35 0 8 -14 16 -35 20 -25 5 -35
12 -35 26 0 10 -4 21 -8 24 -11 7 -237 14 -302 10z m152 -354 c23 -22 46 -40
50 -40 4 0 8 -9 8 -20 0 -11 7 -20 16 -20 8 0 21 -15 29 -33 7 -18 25 -38 39
-45 13 -6 26 -21 28 -34 2 -14 12 -24 28 -28 19 -4 26 -13 28 -38 3 -27 8 -34
33 -39 16 -3 29 -9 29 -14 0 -4 5 -43 11 -86 8 -62 16 -83 35 -101 24 -23 24
-26 22 -165 l-3 -142 -45 -8 c-72 -13 -122 -30 -127 -43 -4 -12 -128 -22 -382
-29 -80 -2 -149 -9 -155 -15 -15 -15 -55 -12 -72 5 -10 10 -32 14 -65 13 -46
-2 -52 0 -84 37 -39 45 -45 82 -16 107 10 9 22 35 26 59 6 37 4 45 -15 61 -18
15 -21 25 -17 53 3 19 15 48 26 64 12 16 21 40 21 54 0 17 7 28 19 32 19 6 41
52 41 86 0 29 32 88 50 94 9 3 23 17 31 31 7 14 21 30 32 35 10 6 22 22 28 36
5 14 18 27 29 30 12 3 27 17 34 31 9 18 29 30 67 41 41 13 55 22 57 38 3 23
20 29 85 32 31 1 45 -6 79 -39z"/>
<path d="M7146 14845 c-18 -19 -34 -25 -67 -26 -82 -1 -124 -12 -127 -35 -2
-17 -12 -22 -51 -27 -26 -3 -81 -3 -122 -1 -41 3 -92 2 -114 -3 -33 -7 -41
-13 -43 -36 -2 -19 -11 -29 -28 -33 -13 -3 -24 -12 -24 -19 0 -21 -29 -45 -56
-45 -17 0 -24 -6 -24 -19 0 -27 -19 -39 -75 -48 -41 -7 -51 -12 -53 -31 -2
-14 -13 -24 -30 -29 -15 -3 -47 -21 -73 -40 -26 -18 -56 -33 -68 -33 -16 0
-21 -6 -21 -24 0 -17 -10 -31 -30 -43 -17 -9 -33 -26 -36 -38 -4 -11 -15 -26
-25 -33 -11 -7 -19 -18 -19 -23 0 -6 -7 -17 -15 -25 -8 -9 -15 -26 -15 -40 0
-17 -7 -25 -24 -30 -24 -6 -36 -29 -36 -72 0 -15 -11 -29 -35 -43 -21 -13 -35
-29 -35 -41 0 -12 -10 -23 -30 -29 l-30 -11 0 -83 c0 -78 -2 -84 -26 -102 -31
-23 -44 -79 -37 -163 6 -70 -2 -110 -22 -110 -18 0 -30 -39 -16 -53 6 -6 11
-23 11 -37 0 -14 4 -30 9 -35 6 -6 13 -75 16 -155 8 -200 13 -231 35 -237 18
-5 30 -41 30 -94 0 -25 5 -30 29 -35 27 -6 30 -11 36 -58 8 -60 29 -112 49
-119 8 -3 16 -21 18 -39 2 -24 10 -36 31 -46 15 -7 27 -19 27 -27 0 -29 34
-85 52 -85 10 0 18 -4 18 -10 0 -5 9 -10 19 -10 11 0 22 -8 26 -19 3 -10 26
-40 50 -66 25 -26 45 -56 45 -66 0 -11 10 -23 24 -29 15 -5 27 -20 31 -39 5
-24 12 -31 30 -31 16 0 28 -9 37 -27 12 -25 19 -28 70 -31 49 -3 61 -7 93 -39
32 -31 46 -37 94 -41 40 -3 60 -10 71 -23 13 -17 37 -21 165 -30 83 -5 242 -9
355 -8 113 1 227 1 255 1 27 -1 54 3 59 8 6 6 18 10 28 10 10 0 23 9 30 20 9
13 24 20 45 20 18 0 33 4 33 9 0 4 26 16 58 26 31 10 62 22 69 27 7 5 55 12
108 15 85 5 98 9 114 29 11 13 24 24 30 24 6 0 11 6 11 14 0 18 60 56 88 56
11 0 33 13 49 28 15 15 43 34 61 41 48 20 62 46 62 118 0 58 2 63 27 75 25 12
29 21 40 93 6 44 12 81 12 83 1 1 12 7 26 12 20 7 25 17 25 42 0 22 7 37 19
45 13 8 21 28 24 60 26 220 36 265 78 324 8 11 9 51 4 132 -6 99 -10 117 -25
122 -18 6 -30 44 -30 96 0 15 -4 31 -10 34 -5 3 -10 17 -10 31 0 17 -6 24 -19
24 -26 0 -31 19 -31 111 0 69 -3 80 -21 91 -29 18 -49 72 -49 132 0 71 -16
123 -40 129 -17 4 -20 14 -20 66 0 44 -5 66 -17 80 -40 44 -48 56 -53 80 -3
16 -14 27 -30 31 -16 4 -26 14 -28 29 -2 14 -14 26 -33 33 -18 6 -29 17 -29
28 0 32 -12 50 -32 50 -13 0 -24 11 -31 30 -6 17 -19 33 -29 36 -10 3 -18 10
-18 15 0 6 -35 45 -78 88 -60 59 -88 80 -115 85 -20 4 -40 12 -44 19 -14 22
-57 35 -147 46 -50 6 -94 15 -100 21 -5 5 -34 10 -62 10 -29 0 -56 5 -59 10
-4 6 -55 10 -121 10 -110 0 -116 -1 -138 -25z m324 -370 c9 -8 32 -15 51 -15
45 0 193 -38 197 -50 7 -19 33 -40 51 -40 9 0 36 -18 59 -40 22 -22 45 -40 49
-40 12 0 39 -48 47 -83 4 -16 16 -31 30 -37 21 -8 25 -18 31 -67 3 -32 10 -66
15 -75 6 -10 10 -25 10 -33 0 -8 9 -15 20 -15 15 0 20 7 20 25 0 22 4 25 35
25 30 0 35 -3 35 -24 0 -21 -6 -25 -32 -28 l-33 -3 -3 -75 c-4 -95 2 -118 33
-126 23 -6 25 -10 24 -68 -1 -33 4 -108 9 -166 7 -68 8 -163 2 -270 -5 -91 -9
-169 -10 -173 0 -4 -11 -18 -24 -30 -20 -19 -25 -35 -30 -102 -3 -44 -5 -101
-6 -127 0 -38 -6 -54 -30 -81 -16 -19 -30 -41 -30 -50 0 -41 -93 -144 -152
-167 -18 -7 -40 -22 -48 -32 -12 -14 -39 -21 -109 -30 -59 -7 -95 -16 -98 -25
-6 -16 -45 -17 -60 -2 -6 6 -74 15 -158 19 -80 5 -178 14 -218 20 -40 6 -87
14 -104 16 -18 3 -33 11 -33 18 0 9 -18 16 -49 20 -36 5 -55 13 -69 31 -10 13
-31 27 -45 30 -15 4 -43 22 -62 41 -20 19 -43 34 -50 34 -15 0 -44 50 -54 95
-5 20 -14 31 -31 35 -23 5 -26 12 -31 70 -6 76 -14 97 -39 105 -20 6 -30 33
-30 85 0 27 -7 42 -30 62 -25 22 -30 34 -30 71 0 27 -6 49 -15 57 -8 7 -15 17
-15 23 0 6 -8 19 -17 30 -16 17 -18 48 -21 265 -2 154 -7 251 -14 259 -6 7
-19 13 -29 13 -15 0 -19 7 -19 34 0 54 11 96 26 96 8 0 14 9 14 19 0 11 5 23
10 26 6 3 10 32 10 63 0 59 15 131 28 133 102 10 132 19 154 49 12 17 29 30
38 30 9 0 30 11 46 25 16 14 34 25 39 25 6 0 21 9 35 20 14 11 36 20 49 20 14
0 32 7 41 15 19 18 97 37 158 39 32 1 48 7 60 23 15 20 28 23 117 26 161 6
265 0 285 -18z"/>
<path d="M12834 14553 c-30 -3 -44 -10 -54 -27 -7 -13 -25 -27 -41 -30 -26 -5
-41 -17 -77 -60 -7 -9 -24 -16 -37 -16 -20 0 -25 -5 -25 -25 0 -20 -6 -25 -35
-31 -19 -3 -39 -12 -46 -20 -6 -8 -20 -14 -30 -14 -11 0 -19 -4 -19 -9 0 -5
-27 -14 -60 -22 -51 -11 -61 -17 -69 -41 -7 -20 -17 -28 -34 -28 -15 0 -31
-10 -41 -24 -8 -14 -25 -27 -36 -31 -13 -4 -20 -15 -20 -31 0 -15 -7 -27 -17
-30 -36 -11 -48 -22 -51 -43 -2 -14 -14 -26 -32 -33 -20 -7 -30 -17 -32 -36
-2 -18 -10 -28 -28 -32 -22 -5 -26 -13 -33 -67 -7 -48 -13 -62 -28 -66 -22 -6
-39 -45 -39 -89 0 -21 -6 -31 -19 -35 -11 -3 -23 -12 -27 -21 -9 -21 -14 -425
-6 -540 4 -64 9 -85 21 -90 26 -9 31 -23 31 -90 0 -74 10 -97 45 -106 18 -5
25 -13 25 -31 0 -18 6 -24 28 -27 22 -2 28 -8 30 -35 3 -30 24 -59 102 -142
14 -14 33 -38 43 -53 14 -23 25 -28 56 -28 31 0 49 -9 87 -40 31 -25 59 -40
76 -40 23 0 28 -4 28 -24 0 -21 5 -24 60 -30 51 -6 62 -11 70 -30 9 -25 -2
-23 211 -44 86 -8 604 2 661 13 23 4 38 14 41 25 6 23 63 40 134 40 43 0 55 4
71 25 11 14 24 25 28 25 33 0 84 23 89 41 4 11 19 22 35 25 21 5 29 13 34 35
4 22 11 29 29 29 14 0 39 16 62 40 21 22 47 40 57 40 10 0 24 13 33 29 10 20
24 31 42 33 27 3 28 6 31 61 3 50 6 57 23 57 15 0 25 12 36 40 12 30 22 40 38
40 26 0 35 22 35 86 0 27 5 44 14 47 8 3 22 22 31 42 23 48 18 309 -7 347 -8
13 -15 35 -14 48 1 14 -2 36 -8 50 -5 14 -12 54 -15 90 -5 54 -9 65 -26 69
-27 5 -33 17 -40 81 -10 89 -14 99 -40 106 -18 4 -25 14 -27 37 -2 26 -8 33
-30 35 -19 2 -28 10 -30 25 -2 15 -13 25 -35 31 -21 7 -33 17 -35 30 -2 12
-15 27 -30 34 -19 9 -28 21 -28 36 0 14 -9 28 -24 36 -24 13 -39 39 -50 93 -5
21 -12 27 -31 27 -17 0 -29 8 -37 25 -13 28 -59 55 -94 55 -16 0 -24 7 -26 22
-2 19 -12 24 -53 31 -33 5 -57 16 -72 32 -17 20 -37 26 -108 36 -68 9 -91 16
-110 35 -23 23 -29 24 -168 24 -79 0 -184 2 -233 4 -49 2 -107 2 -130 -1z
m519 -384 c51 -8 77 -17 88 -31 10 -13 33 -22 69 -26 46 -6 56 -11 70 -37 9
-16 26 -31 38 -33 17 -3 22 -10 22 -32 0 -20 6 -31 21 -35 11 -4 27 -22 35
-41 10 -23 21 -34 35 -34 14 0 24 -10 32 -30 6 -17 19 -32 28 -35 19 -6 43
-60 59 -132 8 -36 18 -54 31 -58 16 -5 19 -16 19 -60 0 -42 7 -68 32 -112 28
-52 32 -68 36 -165 2 -58 1 -136 -3 -172 -5 -54 -10 -66 -25 -66 -22 0 -37
-18 -42 -50 -2 -19 -10 -26 -30 -28 -22 -3 -28 -9 -28 -27 0 -19 -7 -26 -32
-33 -25 -6 -34 -14 -36 -34 -3 -23 -9 -26 -65 -34 -52 -8 -62 -12 -65 -30 -2
-17 -14 -23 -65 -32 -34 -7 -63 -16 -65 -22 -7 -21 -70 -37 -165 -45 -72 -5
-97 -10 -97 -21 0 -28 -41 -34 -248 -34 l-209 0 -11 25 c-10 21 -18 25 -55 25
-35 0 -54 7 -91 36 -31 24 -63 38 -94 42 -49 8 -64 25 -77 85 -3 16 -16 32
-29 38 -19 9 -25 22 -30 62 -8 58 -20 77 -47 77 -16 0 -19 8 -19 52 0 57 -17
117 -39 134 -10 8 -12 24 -7 61 3 28 3 61 -2 74 -12 34 -5 55 23 67 23 10 25
18 25 72 0 44 4 60 14 60 13 0 46 72 46 102 0 8 7 21 15 28 8 7 15 18 15 24 0
6 9 17 20 24 13 8 20 23 20 42 0 41 22 72 75 106 25 15 47 36 51 46 4 14 16
18 54 18 46 0 73 13 82 40 2 6 26 13 53 16 90 11 118 19 129 39 17 32 27 35
103 35 84 0 103 6 103 31 0 12 9 21 28 25 15 3 32 7 37 9 21 7 100 4 168 -6z"/>
<path d="M14275 10412 c-11 -9 -32 -35 -45 -57 -23 -37 -25 -49 -25 -168 0
-112 2 -130 18 -138 12 -7 17 -22 17 -49 0 -27 7 -47 20 -60 11 -11 20 -24 20
-30 0 -5 7 -10 15 -10 9 0 18 -12 21 -29 4 -17 15 -38 25 -47 11 -9 19 -23 19
-31 0 -7 6 -13 14 -13 8 0 18 -9 21 -20 3 -11 13 -20 21 -20 8 0 18 -8 21 -17
4 -10 24 -35 45 -55 32 -31 38 -43 38 -78 0 -26 5 -43 14 -46 8 -3 17 -21 21
-41 3 -20 13 -42 21 -50 8 -8 14 -29 14 -46 0 -18 9 -57 21 -87 26 -69 24
-215 -4 -269 -9 -19 -17 -42 -17 -53 0 -10 -9 -27 -20 -38 -11 -11 -20 -27
-20 -35 0 -8 -6 -15 -14 -15 -8 0 -18 -9 -21 -21 -4 -12 -14 -19 -23 -17 -15
3 -18 24 -23 158 -4 110 -10 167 -22 195 -9 22 -16 57 -17 78 0 23 -7 44 -20
57 -11 11 -20 29 -20 40 0 11 -6 20 -14 20 -16 0 -26 21 -26 59 0 14 -7 36
-15 48 -8 11 -17 40 -21 64 -8 50 -49 98 -67 80 -6 -6 -25 -11 -43 -11 -36 0
-44 13 -44 66 0 34 -29 62 -38 36 -6 -19 -21 -14 -52 18 -34 34 -38 64 -13 78
12 8 18 27 21 77 4 61 3 67 -17 72 -11 3 -21 13 -21 21 0 9 -19 36 -42 59 -32
32 -50 43 -73 43 -45 0 -75 -11 -75 -26 0 -8 -10 -14 -23 -14 -12 0 -38 -8
-57 -18 -19 -11 -52 -22 -72 -25 -46 -7 -82 -41 -74 -70 3 -12 18 -36 34 -52
16 -17 32 -47 36 -67 3 -20 13 -39 21 -42 8 -3 15 -12 15 -21 0 -8 7 -15 16
-15 9 0 18 -9 21 -20 3 -11 12 -20 19 -20 8 0 14 -4 14 -10 0 -12 56 -70 69
-70 11 0 21 -24 21 -50 0 -10 6 -20 14 -23 8 -3 17 -19 21 -36 4 -17 12 -37
18 -44 23 -25 97 -136 97 -146 0 -5 9 -13 20 -16 11 -3 20 -13 20 -20 0 -8 9
-19 20 -25 11 -6 20 -20 20 -30 0 -11 9 -28 20 -37 16 -14 20 -30 20 -84 0
-40 -6 -78 -16 -97 -11 -23 -17 -75 -21 -179 -4 -104 -9 -151 -18 -159 -8 -5
-17 -25 -22 -44 -8 -30 -15 -36 -58 -48 -28 -8 -74 -17 -104 -19 -59 -5 -52
-10 -147 99 -18 20 -42 42 -55 48 -13 7 -28 19 -32 26 -5 9 -27 14 -58 14 -56
0 -113 -32 -159 -89 -14 -17 -30 -31 -37 -31 -7 0 -16 -6 -20 -13 -8 -14 -76
-40 -148 -59 -22 -5 -60 -16 -85 -23 -25 -8 -70 -17 -100 -20 -30 -4 -69 -16
-86 -26 -17 -10 -42 -19 -55 -19 -13 0 -37 -7 -53 -15 -15 -8 -41 -15 -57 -15
-16 0 -37 -8 -48 -19 -13 -13 -23 -16 -35 -9 -10 5 -25 6 -34 2 -20 -8 -25 -9
-161 -24 -56 -6 -113 -15 -125 -20 -11 -5 -42 -12 -68 -15 -27 -3 -48 -10 -48
-15 0 -11 -89 -30 -140 -30 -22 0 -54 -6 -72 -14 -18 -8 -71 -19 -118 -25
-102 -12 -201 -38 -215 -55 -6 -7 -45 -15 -92 -19 -45 -3 -90 -11 -100 -16
-68 -36 -163 -54 -308 -59 -120 -3 -157 -8 -187 -23 -21 -11 -50 -19 -66 -19
-16 0 -35 -6 -41 -14 -6 -7 -26 -16 -43 -20 -17 -3 -39 -12 -47 -20 -10 -9
-60 -18 -131 -24 -68 -5 -116 -14 -118 -21 -11 -32 -224 7 -245 45 -11 20
-143 20 -154 0 -6 -10 -39 -16 -118 -22 -60 -3 -122 -13 -137 -20 -15 -8 -46
-14 -70 -14 -81 0 -148 -12 -148 -26 0 -8 -11 -16 -25 -20 -13 -3 -29 -12 -36
-20 -6 -8 -22 -14 -35 -14 -24 0 -115 -44 -142 -67 -7 -7 -25 -13 -39 -13 -28
0 -39 -8 -109 -80 -25 -25 -44 -54 -44 -66 0 -32 -10 -54 -25 -54 -11 0 -21
-52 -26 -135 -2 -39 22 -249 29 -258 6 -7 13 -43 17 -80 5 -48 12 -70 23 -75
23 -8 49 -37 57 -61 3 -12 12 -21 18 -21 7 0 17 -8 22 -18 33 -60 54 -84 82
-94 17 -6 34 -20 36 -30 3 -10 13 -18 24 -18 10 0 26 -7 36 -15 11 -7 36 -17
58 -20 24 -4 39 -12 39 -21 0 -9 11 -14 30 -14 18 0 37 -8 47 -20 11 -12 30
-20 50 -20 20 0 36 -6 42 -17 9 -17 39 -18 426 -17 314 1 419 4 424 13 5 7 45
15 101 18 79 5 93 9 98 25 3 15 14 18 58 18 34 0 56 5 61 14 5 8 35 15 80 19
39 3 82 12 95 20 13 8 38 18 56 22 18 4 36 13 38 20 3 7 26 16 52 20 26 4 55
14 64 22 9 8 39 18 65 21 26 3 53 11 58 17 6 7 23 16 39 19 17 4 35 14 41 23
6 8 33 17 61 20 27 3 52 12 57 19 4 7 29 16 55 20 26 3 54 12 62 19 8 7 35 16
60 20 25 4 52 13 60 20 9 8 56 15 115 18 61 4 112 12 130 21 17 9 48 16 70 16
22 0 57 9 78 20 32 17 56 20 175 20 118 0 142 3 175 20 20 11 48 20 62 20 14
0 48 9 77 20 29 11 67 20 83 20 17 0 44 9 60 20 17 11 47 20 70 20 22 0 54 7
70 16 43 23 136 30 174 13 17 -8 31 -17 31 -20 0 -4 15 -9 33 -12 17 -2 47
-11 65 -18 27 -11 36 -11 54 0 11 7 59 16 106 21 62 5 87 12 94 24 5 9 18 16
28 16 11 0 20 4 20 10 0 5 14 17 31 26 17 8 44 29 60 45 16 16 35 29 43 29 8
0 28 11 44 25 17 14 35 25 41 25 6 0 11 7 11 15 0 8 7 15 16 15 9 0 18 9 21
20 3 11 12 20 19 20 8 0 19 9 26 20 7 11 18 20 25 20 7 0 13 9 13 20 0 13 7
20 20 20 13 0 20 7 20 19 0 10 9 21 20 24 11 3 20 14 20 25 0 10 9 31 20 45
13 16 20 40 20 69 0 24 5 49 12 56 8 8 14 65 18 162 l6 149 49 47 c66 61 77
70 98 77 9 4 17 13 17 21 0 7 9 16 20 19 11 3 20 12 20 21 0 9 5 16 11 16 14
0 59 47 59 61 0 5 4 9 8 9 13 0 72 56 72 68 0 6 9 14 20 17 11 3 20 15 20 26
0 10 6 19 13 19 7 0 21 16 30 35 9 19 21 35 27 35 5 0 10 9 10 20 0 11 9 29
20 40 12 12 20 33 20 53 0 18 5 38 11 44 6 6 15 43 20 83 5 40 16 81 24 90 19
21 21 170 3 189 -8 7 -13 44 -14 99 -2 120 -14 205 -30 215 -8 4 -14 14 -14
21 0 8 -9 16 -20 19 -16 4 -20 14 -20 50 0 25 -6 52 -14 59 -7 8 -19 26 -27
40 -15 29 -85 88 -103 88 -11 0 -19 12 -51 78 -8 17 -19 32 -24 32 -5 0 -12
18 -16 40 -4 25 -12 40 -21 40 -8 0 -14 7 -14 15 0 9 -8 19 -17 22 -32 12 -73
61 -73 86 0 14 -7 30 -15 37 -11 9 -15 34 -15 98 0 75 -3 87 -22 106 -13 12
-27 30 -33 39 -9 15 -12 15 -30 -1z m-785 -2068 c0 -9 9 -18 20 -21 11 -3 20
-14 20 -24 0 -11 6 -19 14 -19 16 0 26 -21 26 -54 0 -13 8 -34 19 -47 10 -13
22 -38 25 -56 4 -17 14 -34 22 -37 8 -3 14 -16 14 -29 0 -14 9 -36 20 -50 11
-14 20 -37 20 -51 0 -16 6 -26 15 -26 9 0 17 -14 21 -39 4 -22 12 -42 19 -45
7 -2 16 -17 19 -32 4 -16 16 -34 27 -42 14 -10 19 -25 19 -59 0 -53 -30 -90
-82 -100 -16 -3 -32 -12 -35 -19 -3 -9 -23 -14 -57 -14 -33 0 -62 -7 -84 -20
-42 -26 -96 -26 -122 0 -11 11 -20 26 -20 34 0 18 -72 56 -106 56 -14 0 -35 5
-46 11 -14 8 -23 8 -31 0 -6 -6 -25 -11 -43 -11 -17 0 -37 -7 -44 -15 -7 -8
-17 -15 -22 -15 -6 0 -22 -8 -36 -19 -21 -15 -50 -20 -132 -23 -86 -3 -111 -8
-140 -26 -23 -15 -51 -22 -83 -22 -26 0 -60 -6 -75 -14 -29 -14 -164 -29 -252
-27 -43 2 -61 -3 -79 -19 -13 -11 -28 -20 -33 -20 -6 0 -22 -8 -36 -19 -21
-14 -50 -20 -132 -23 -72 -3 -114 -10 -135 -21 -18 -10 -53 -17 -85 -17 -30 0
-68 -7 -84 -15 -15 -8 -33 -15 -40 -15 -6 0 -28 -9 -49 -20 -20 -11 -45 -20
-55 -20 -9 0 -23 -9 -30 -20 -8 -14 -23 -20 -47 -20 -21 0 -43 -8 -54 -19 -10
-10 -39 -20 -65 -23 -26 -3 -55 -13 -64 -21 -9 -9 -30 -19 -45 -23 -16 -3 -31
-13 -34 -20 -3 -8 -13 -14 -22 -14 -9 0 -22 -5 -29 -12 -21 -21 -26 0 -27 107
-1 81 -5 109 -18 122 -12 14 -18 49 -23 136 -5 83 -11 117 -19 117 -14 0 -25
22 -25 51 0 11 -6 22 -14 25 -8 3 -17 23 -21 44 -4 26 -13 40 -26 43 -16 4
-20 12 -17 39 l3 33 75 10 c41 6 82 15 90 20 8 6 61 12 118 15 72 4 106 10
111 19 5 8 33 16 62 19 30 3 63 10 74 17 11 7 45 15 75 19 30 3 60 12 66 20 6
8 35 18 65 22 30 3 65 13 78 21 13 8 58 19 100 23 99 9 247 38 288 55 17 8 60
17 95 21 34 3 68 12 73 19 6 7 55 17 118 23 60 6 114 15 121 22 8 6 44 13 82
17 37 3 79 12 94 20 14 7 41 13 60 13 19 0 49 7 65 16 17 8 53 18 80 21 28 4
55 12 60 19 6 7 55 17 113 23 66 7 109 16 118 26 22 22 114 21 114 -1z m-2741
-610 c19 -4 31 -13 31 -23 0 -9 9 -27 20 -41 13 -16 20 -41 20 -71 0 -25 6
-59 14 -75 8 -16 18 -46 21 -66 6 -31 3 -41 -19 -62 -32 -33 -85 -36 -93 -6
-3 11 -10 20 -17 20 -6 0 -22 14 -36 31 -14 18 -33 39 -42 48 -10 8 -18 30
-18 48 0 59 -14 80 -60 86 -47 6 -71 30 -67 67 2 24 6 25 81 32 43 4 84 9 90
12 17 7 40 7 75 0z m-578 -111 c28 -27 28 -27 9 -48 -14 -15 -21 -42 -26 -93
-5 -51 -11 -72 -20 -72 -8 0 -14 -7 -14 -15 0 -22 -38 -18 -45 5 -3 11 -13 20
-21 20 -8 0 -14 8 -14 18 -1 27 -25 52 -52 52 -32 0 -51 22 -46 52 3 21 9 23
61 26 53 3 59 6 68 30 11 30 35 52 57 52 8 0 27 -12 43 -27z m-381 -32 c5 -11
10 -63 10 -116 0 -82 3 -101 20 -122 14 -18 20 -41 20 -77 1 -29 9 -68 20 -91
11 -22 19 -56 20 -77 0 -35 -2 -37 -40 -43 -44 -7 -80 1 -80 18 0 7 -9 23 -20
37 -24 31 -29 160 -6 179 28 23 25 61 -7 107 -17 24 -34 44 -39 44 -4 0 -8 25
-8 55 0 44 4 57 20 67 11 7 20 18 20 25 0 21 58 16 70 -6z m367 -309 c4 -9 13
-22 20 -27 10 -7 13 -28 11 -65 -3 -53 -4 -55 -30 -54 -68 2 -78 5 -78 18 0 7
-9 20 -19 27 -14 10 -20 27 -21 54 -3 59 -1 65 14 65 7 0 19 7 26 15 11 13 16
13 42 -1 16 -8 32 -23 35 -32z m743 -214 c-1 -41 -37 -84 -76 -91 -16 -4 -47
-3 -69 1 -38 7 -40 9 -40 42 0 30 3 35 26 38 15 2 35 12 45 23 12 14 30 19 66
19 48 0 48 0 48 -32z"/>
</g>
</svg>
