<?xml version="1.0" standalone="no"?>
<!DOCTYPE svg PUBLIC "-//W3C//DTD SVG 20010904//EN"
 "http://www.w3.org/TR/2001/REC-SVG-20010904/DTD/svg10.dtd">
<svg version="1.0" xmlns="http://www.w3.org/2000/svg"
 width="1697.000000pt" height="2400.000000pt" viewBox="0 0 1697.000000 2400.000000"
 preserveAspectRatio="xMidYMid meet">

<g transform="translate(0.000000,2400.000000) scale(0.100000,-0.100000)"
fill="#000000" stroke="none">
<path d="M4008 22290 c-336 -70 -577 -249 -658 -489 -12 -35 -25 -105 -29
-155 -8 -79 -15 -105 -56 -191 -26 -55 -114 -244 -195 -421 -81 -177 -188
-393 -237 -480 -220 -387 -316 -636 -343 -886 -28 -265 -43 -318 -195 -698
-109 -273 -152 -405 -174 -535 -7 -37 -13 -412 -16 -990 -4 -779 -8 -937 -20
-975 -25 -77 -43 -177 -85 -481 -84 -596 -129 -784 -218 -903 -59 -79 -134
-238 -167 -351 -48 -165 -116 -627 -170 -1150 -28 -274 -45 -352 -185 -849
-38 -137 -81 -303 -96 -370 -14 -67 -34 -145 -45 -174 -33 -92 -49 -219 -59
-462 -13 -314 -37 -417 -124 -523 -19 -23 -39 -62 -46 -87 -19 -70 -107 -249
-215 -435 -170 -293 -239 -455 -270 -629 -37 -212 0 -341 134 -468 36 -35 64
-70 62 -78 -1 -8 -21 -60 -42 -114 -92 -229 -112 -393 -107 -876 l4 -335 47
-141 c76 -223 225 -512 370 -714 22 -30 73 -86 114 -124 208 -193 357 -463
467 -846 45 -158 131 -550 166 -759 48 -279 80 -404 173 -671 66 -189 131
-332 347 -775 67 -137 139 -286 160 -330 66 -138 195 -257 379 -350 108 -54
277 -107 531 -165 271 -63 374 -96 489 -155 103 -53 182 -120 249 -214 63 -86
271 -295 382 -385 199 -159 416 -282 610 -344 166 -54 239 -65 435 -68 164 -2
198 -6 385 -42 356 -70 779 -137 1650 -262 843 -120 1232 -181 1535 -241 154
-30 173 -32 515 -39 195 -5 885 -9 1534 -9 l1178 -1 36 -31 c72 -63 208 -108
393 -130 204 -23 604 -3 901 47 l97 16 93 -27 c51 -15 121 -36 155 -47 141
-46 291 -2 434 126 269 244 588 402 952 472 73 14 186 38 252 54 66 16 244 58
395 94 152 35 339 82 416 104 147 42 321 106 341 126 6 6 18 54 27 106 47 293
29 481 -100 1060 -49 218 -78 328 -114 420 -118 308 -133 387 -250 1320 -27
215 -58 398 -120 705 -112 554 -113 570 -83 895 20 225 23 591 5 670 -7 30
-14 118 -17 195 -10 353 -24 540 -45 610 -38 130 -69 450 -70 717 0 138 -27
374 -60 533 -19 88 -23 153 -31 535 -5 239 -8 640 -7 890 2 396 0 469 -15 563
-26 157 -60 268 -117 382 -85 169 -206 293 -374 381 -180 95 -327 322 -380
589 -39 199 -44 378 -20 833 9 169 14 389 12 490 -3 128 -1 203 9 250 21 105
28 325 14 438 -31 256 -116 479 -265 703 -39 59 -83 126 -98 151 -14 25 -43
63 -64 85 -20 22 -56 78 -80 125 -128 253 -315 372 -764 485 -58 14 -112 33
-120 41 -8 8 -20 40 -26 72 -17 83 -68 200 -126 290 -68 103 -154 204 -344
402 -274 286 -315 330 -473 515 -85 99 -187 216 -226 260 -58 66 -75 93 -94
150 -35 107 -104 243 -183 362 -71 106 -347 467 -449 588 -58 69 -185 258
-314 471 -171 280 -317 454 -475 566 -75 52 -103 67 -261 141 -64 30 -206 112
-315 183 -295 190 -427 255 -592 289 -58 12 -74 12 -185 -10 -320 -63 -450
-57 -543 25 -23 20 -45 30 -67 30 -18 0 -88 7 -157 17 -115 15 -137 22 -285
86 -224 97 -460 192 -591 237 -61 21 -137 55 -170 76 -91 58 -266 138 -404
184 -69 23 -264 78 -434 121 -581 149 -779 234 -979 422 l-69 63 -136 18 c-75
10 -308 47 -518 82 -430 72 -639 100 -834 113 -83 5 -136 13 -138 20 -5 14 -6
13 -114 -9z"/>
</g>
</svg>
