<svg width="100" height="100" viewBox="0 0 100 100" fill="none" xmlns="http://www.w3.org/2000/svg">
<circle cx="50" cy="50" r="49.6094" fill="#253F50"/>
<path d="M48.2245 16.6045C48.9472 14.9834 51.2482 14.9834 51.9708 16.6045L60.0433 34.7144C60.3413 35.383 60.9731 35.842 61.7011 35.9189L81.4192 38C83.1842 38.1863 83.8953 40.3747 82.5768 41.5629L67.8478 54.8365C67.304 55.3266 67.0627 56.0694 67.2146 56.7855L71.3285 76.1815C71.6968 77.9178 69.8352 79.2703 68.2978 78.3835L51.1223 68.4772C50.4882 68.1115 49.7072 68.1115 49.073 68.4772L31.8976 78.3835C30.3601 79.2703 28.4985 77.9178 28.8668 76.1815L32.9807 56.7855C33.1326 56.0694 32.8913 55.3266 32.3475 54.8365L17.6185 41.5629C16.3 40.3747 17.0111 38.1863 18.7762 38L38.4942 35.9189C39.2222 35.842 39.854 35.383 40.1521 34.7144L48.2245 16.6045Z" fill="url(#paint0_linear)"/>
<defs>
<linearGradient id="paint0_linear" x1="46.5088" y1="27.832" x2="50.0977" y2="87.8906" gradientUnits="userSpaceOnUse">
<stop offset="0.11429" stop-color="#C98C31"/>
<stop offset="0.267677" stop-color="#CB742E"/>
<stop offset="0.566486" stop-color="#CC542D"/>
<stop offset="0.88731" stop-color="#CC3F2D"/>
</linearGradient>
</defs>
</svg>
