<svg width="1280" height="1280" viewBox="0 0 1280 1280" fill="none" xmlns="http://www.w3.org/2000/svg">
<path d="M626.72 0L0 250.405V401.78L499.396 196.646L879.955 42.4416L984.644 0H626.72Z" fill="url(#paint0_linear)"/>
<path d="M588.523 311.238L0 558.814V718.677L343.777 578.62L773.851 401.78L1107.72 250.405L1280 180.375V20.5114L1080.85 103.274L588.523 311.238Z" fill="url(#paint1_linear)"/>
<path d="M301.335 0L0 110.348V0H301.335Z" fill="url(#paint2_linear)"/>
<path d="M415.927 710.189L0 891.273V1076.6L911.079 673.406L1280 512.883V330.385L415.927 710.189Z" fill="url(#paint3_linear)"/>
<path d="M816.293 891.273L0 1260.51V1280H34.2857H413.43L911.079 1046.89L1280 875.082V681.266L816.293 891.273Z" fill="url(#paint4_linear)"/>
<path d="M1280 1055.4L822.857 1280H1280V1055.4Z" fill="url(#paint5_linear)"/>
<path d="M626.72 0L0 250.405V401.78L499.396 196.646L879.955 42.4416L984.644 0H626.72Z" stroke="url(#paint6_linear)"/>
<path d="M588.523 311.238L0 558.814V718.677L343.777 578.62L773.851 401.78L1107.72 250.405L1280 180.375V20.5114L1080.85 103.274L588.523 311.238Z" stroke="url(#paint7_linear)"/>
<path d="M301.335 0L0 110.348V0H301.335Z" stroke="url(#paint8_linear)"/>
<path d="M415.927 710.189L0 891.273V1076.6L911.079 673.406L1280 512.883V330.385L415.927 710.189Z" stroke="url(#paint9_linear)"/>
<path d="M816.293 891.273L0 1260.51V1280H34.2857H413.43L911.079 1046.89L1280 875.082V681.266L816.293 891.273Z" stroke="url(#paint10_linear)"/>
<path d="M1280 1055.4L822.857 1280H1280V1055.4Z" stroke="url(#paint11_linear)"/>
<defs>
<linearGradient id="paint0_linear" x1="1327.16" y1="259.368" x2="3.20967" y2="430.06" gradientUnits="userSpaceOnUse">
<stop stop-color="#26F57C"/>
<stop offset="1" stop-color="#2192D1"/>
</linearGradient>
<linearGradient id="paint1_linear" x1="1327.16" y1="259.368" x2="3.20967" y2="430.06" gradientUnits="userSpaceOnUse">
<stop stop-color="#26F57C"/>
<stop offset="1" stop-color="#2192D1"/>
</linearGradient>
<linearGradient id="paint2_linear" x1="1327.16" y1="259.368" x2="3.20967" y2="430.06" gradientUnits="userSpaceOnUse">
<stop stop-color="#26F57C"/>
<stop offset="1" stop-color="#2192D1"/>
</linearGradient>
<linearGradient id="paint3_linear" x1="1327.16" y1="259.368" x2="3.20967" y2="430.06" gradientUnits="userSpaceOnUse">
<stop stop-color="#26F57C"/>
<stop offset="1" stop-color="#2192D1"/>
</linearGradient>
<linearGradient id="paint4_linear" x1="1327.16" y1="259.368" x2="3.20967" y2="430.06" gradientUnits="userSpaceOnUse">
<stop stop-color="#26F57C"/>
<stop offset="1" stop-color="#2192D1"/>
</linearGradient>
<linearGradient id="paint5_linear" x1="1327.16" y1="259.368" x2="3.20967" y2="430.06" gradientUnits="userSpaceOnUse">
<stop stop-color="#26F57C"/>
<stop offset="1" stop-color="#2192D1"/>
</linearGradient>
<linearGradient id="paint6_linear" x1="1327.16" y1="259.368" x2="3.20967" y2="430.06" gradientUnits="userSpaceOnUse">
<stop stop-color="#26F57C"/>
<stop offset="1" stop-color="#2192D1"/>
</linearGradient>
<linearGradient id="paint7_linear" x1="1327.16" y1="259.368" x2="3.20967" y2="430.06" gradientUnits="userSpaceOnUse">
<stop stop-color="#26F57C"/>
<stop offset="1" stop-color="#2192D1"/>
</linearGradient>
<linearGradient id="paint8_linear" x1="1327.16" y1="259.368" x2="3.20967" y2="430.06" gradientUnits="userSpaceOnUse">
<stop stop-color="#26F57C"/>
<stop offset="1" stop-color="#2192D1"/>
</linearGradient>
<linearGradient id="paint9_linear" x1="1327.16" y1="259.368" x2="3.20967" y2="430.06" gradientUnits="userSpaceOnUse">
<stop stop-color="#26F57C"/>
<stop offset="1" stop-color="#2192D1"/>
</linearGradient>
<linearGradient id="paint10_linear" x1="1327.16" y1="259.368" x2="3.20967" y2="430.06" gradientUnits="userSpaceOnUse">
<stop stop-color="#26F57C"/>
<stop offset="1" stop-color="#2192D1"/>
</linearGradient>
<linearGradient id="paint11_linear" x1="1327.16" y1="259.368" x2="3.20967" y2="430.06" gradientUnits="userSpaceOnUse">
<stop stop-color="#26F57C"/>
<stop offset="1" stop-color="#2192D1"/>
</linearGradient>
</defs>
</svg>
