<svg width="100" height="100" viewBox="0 0 100 100" fill="none" xmlns="http://www.w3.org/2000/svg">
<path d="M22.6689 63.5754C20.6353 59.4843 19.4895 54.8756 19.4895 49.9921C19.4895 33.1263 33.1914 19.3976 50.0244 19.3976C54.8984 19.3976 59.498 20.5457 63.5811 22.5832L71.1984 17.6027C65.098 13.6086 57.8194 11.2639 50.0081 11.2639C28.6887 11.2639 11.3555 28.6309 11.3555 49.9921C11.3555 57.8186 13.6956 65.1112 17.6981 71.2075L22.6689 63.5754Z" fill="black"/>
<path d="M82.3182 28.7764L77.3473 36.4088C79.3809 40.4999 80.5268 45.1085 80.5268 49.992C80.5268 66.8578 66.8247 80.5865 49.992 80.5865C45.118 80.5865 40.5184 79.4383 36.4352 77.4009L28.8176 82.3813C34.902 86.3916 42.1807 88.7361 49.992 88.7361C71.3114 88.7361 88.6446 71.3692 88.6446 50.008C88.6609 42.1655 86.3205 34.8726 82.3182 28.7764Z" fill="black"/>
<path d="M42.084 73.1804C44.5693 74.0377 47.2323 74.5066 50.008 74.5066C63.5165 74.5066 74.4747 63.5268 74.4747 49.9921C74.4747 47.2109 74.0069 44.5427 73.1515 42.0525L42.084 73.1804Z" fill="black"/>
<path d="M25.5576 49.9921C25.5576 52.7733 26.0256 55.4417 26.881 57.9317L57.9483 26.8037C55.4628 25.9467 52.8001 25.4778 50.0242 25.4778C36.4998 25.494 25.5576 36.4575 25.5576 49.9921Z" fill="black"/>
<path d="M37.1614 70.8521L37.3228 70.7549L70.7305 37.2822L70.8273 37.1205L74.4101 31.6225L79.0582 24.4914L85.7882 14.1423L75.4751 20.8854L68.3419 25.5425L62.8547 29.1323L62.6933 29.2455L29.3018 62.7021L29.1888 62.8639L25.606 68.3618L20.9579 75.509L14.228 85.8418L24.5569 79.099L31.6742 74.4417L37.1614 70.8521Z" fill="black"/>
</svg>
