<svg width="100" height="100" viewBox="0 0 100 100" fill="none" xmlns="http://www.w3.org/2000/svg">
<path d="M47.5084 95C47.5084 95 52.1772 85.5976 47.0672 76.6834C41.9572 67.7691 32.154 63.1225 31.1271 62.2344C31.1271 62.2344 26.2009 70.4104 31.9877 76.6834C34.4152 79.3149 39.2665 81.5821 43.0848 85.2212C46.0369 88.0348 47.5824 92.9987 47.5084 95ZM73.9906 68.3269C74.0876 70.9618 73.4214 73.761 72.0195 77.0349C70.1358 81.4327 67.5861 85.0963 64.2529 88.7224C65.6653 80.6412 63.5815 74.3016 59.8502 68.5787V68.5783C54.1739 60.9599 47.1387 55.7627 40.4557 49.9356C40.2348 49.7429 39.7321 49.2674 39.0947 48.6483C36.2405 46.4229 30.3873 41.7384 28.0466 35.8498C25.0316 28.2644 29.4896 21.8754 29.4896 21.8754C29.1707 22.9694 30.4799 25.1196 32.3755 27.6548C34.1428 22.5323 37.1546 18.47 40.6716 14.3994C40.339 18.0973 40.1787 21.2227 40.8026 24.3324C41.937 29.9849 44.8612 34.0925 47.9451 38.0665L48.0899 38.2242C54.2269 44.8893 61.1983 49.9788 67.6743 56.0038C68.3373 56.6204 69.0132 57.2283 69.5891 57.984C70.4891 58.9006 71.3285 60.0111 72.0429 61.2783C73.4052 63.6953 74.0516 66.2195 73.9906 68.3269V68.3269ZM70.5242 37.6045C70.5518 37.6536 70.5724 37.6945 70.5852 37.7272C70.5852 37.7272 73.9458 35.6531 73.9996 31.8046C74.0533 27.956 68.7133 18.3667 70.166 16.3079C70.166 16.3079 68.3419 17.1626 66.8602 19.0748C62.5083 13.9564 57.3538 8.5083 58.0219 6C58.0219 6 51.293 12.9913 55.0249 21.979C58.7567 30.9665 69.4977 36.7272 70.4185 37.7508C70.4185 37.7508 70.457 37.7006 70.5242 37.6045V37.6045Z" fill="#45758F"/>
</svg>
