<?xml version="1.0" encoding="UTF-8"?>
<!DOCTYPE svg PUBLIC "-//W3C//DTD SVG 1.1//EN" "http://www.w3.org/Graphics/SVG/1.1/DTD/svg11.dtd">
<!-- Creator: CorelDRAW 2020 (64-Bit) -->
<svg xmlns="http://www.w3.org/2000/svg" xml:space="preserve" width="8.4666mm" height="8.4666mm" version="1.1" style="shape-rendering:geometricPrecision; text-rendering:geometricPrecision; image-rendering:optimizeQuality; fill-rule:evenodd; clip-rule:evenodd"
viewBox="0 0 846.66 846.66"
 xmlns:xlink="http://www.w3.org/1999/xlink"
 xmlns:xodm="http://www.corel.com/coreldraw/odm/2003">
 <defs>
  <style type="text/css">
   <![CDATA[
    .fil1 {fill:black}
    .fil126 {fill:#002323}
    .fil77 {fill:#002A2A}
    .fil40 {fill:#002E2E}
    .fil90 {fill:#003737}
    .fil111 {fill:#003B3B}
    .fil144 {fill:#004242}
    .fil86 {fill:#004747}
    .fil157 {fill:#005454}
    .fil66 {fill:#005B5B}
    .fil135 {fill:#006E6E}
    .fil84 {fill:#007373}
    .fil83 {fill:#007676}
    .fil81 {fill:#007C7C}
    .fil49 {fill:#008181}
    .fil158 {fill:darkcyan}
    .fil120 {fill:#008D8D}
    .fil145 {fill:#009292}
    .fil89 {fill:#009797}
    .fil105 {fill:#00A4A4}
    .fil75 {fill:#00ABAB}
    .fil133 {fill:#00BBBB}
    .fil130 {fill:#00C6C6}
    .fil29 {fill:#00CDCD}
    .fil28 {fill:#00D6D6}
    .fil156 {fill:#00DBDB}
    .fil91 {fill:#00E6E6}
    .fil2 {fill:#00FDFD}
    .fil92 {fill:#0B1616}
    .fil15 {fill:#0D0D0D}
    .fil74 {fill:#131313}
    .fil146 {fill:#157171}
    .fil73 {fill:#181818}
    .fil42 {fill:#1C1B1B}
    .fil12 {fill:#1C1C1C}
    .fil16 {fill:#1F1E1E}
    .fil76 {fill:#201E1E}
    .fil97 {fill:#202001}
    .fil21 {fill:#212121}
    .fil95 {fill:#222201}
    .fil60 {fill:#232323}
    .fil125 {fill:#252525}
    .fil96 {fill:#272701}
    .fil98 {fill:#272727}
    .fil72 {fill:#292929}
    .fil134 {fill:#2B2B01}
    .fil140 {fill:#2C2B2B}
    .fil17 {fill:#2D2C2C}
    .fil55 {fill:#2D2D01}
    .fil149 {fill:#306262}
    .fil32 {fill:#323131}
    .fil93 {fill:#353434}
    .fil25 {fill:#363636}
    .fil44 {fill:#373701}
    .fil54 {fill:#3A3A02}
    .fil37 {fill:#3D3B3B}
    .fil43 {fill:#3D3D02}
    .fil65 {fill:#3F3E3E}
    .fil36 {fill:#403F3F}
    .fil131 {fill:#414102}
    .fil10 {fill:#424141}
    .fil80 {fill:#444242}
    .fil57 {fill:#444343}
    .fil99 {fill:#464444}
    .fil61 {fill:#464545}
    .fil147 {fill:#464602}
    .fil13 {fill:#484646}
    .fil8 {fill:#4A4949}
    .fil117 {fill:#4B4949}
    .fil152 {fill:#4B4B02}
    .fil137 {fill:#4C4B4B}
    .fil52 {fill:#4F4D4D}
    .fil128 {fill:#504F4F}
    .fil151 {fill:#517070}
    .fil123 {fill:#525151}
    .fil85 {fill:#535151}
    .fil30 {fill:#545353}
    .fil106 {fill:#545403}
    .fil88 {fill:#565454}
    .fil118 {fill:#585656}
    .fil159 {fill:#5C5C03}
    .fil141 {fill:#5D5B5B}
    .fil82 {fill:#5D5C5C}
    .fil19 {fill:#615F5F}
    .fil59 {fill:#616103}
    .fil5 {fill:#626060}
    .fil20 {fill:#656363}
    .fil67 {fill:#666565}
    .fil139 {fill:#686565}
    .fil102 {fill:#6A6A04}
    .fil142 {fill:#6B6969}
    .fil53 {fill:#6D6B6B}
    .fil109 {fill:#6F6C6C}
    .fil107 {fill:#6F6F04}
    .fil35 {fill:#716E6E}
    .fil138 {fill:#737171}
    .fil150 {fill:#738484}
    .fil33 {fill:#747272}
    .fil160 {fill:#757504}
    .fil112 {fill:#767373}
    .fil155 {fill:#777575}
    .fil101 {fill:#787676}
    .fil27 {fill:#7A7777}
    .fil62 {fill:#7B7B05}
    .fil24 {fill:#7C7A7A}
    .fil18 {fill:#7D7B7B}
    .fil4 {fill:#817E7E}
    .fil108 {fill:#828205}
    .fil63 {fill:#848282}
    .fil116 {fill:#858505}
    .fil64 {fill:#878484}
    .fil46 {fill:#888585}
    .fil104 {fill:#888805}
    .fil31 {fill:#898686}
    .fil14 {fill:#8B8989}
    .fil79 {fill:#8D8B8B}
    .fil136 {fill:#8E8C8C}
    .fil103 {fill:#8F8F05}
    .fil34 {fill:#908D8D}
    .fil154 {fill:#909005}
    .fil7 {fill:#928F8F}
    .fil87 {fill:#949191}
    .fil47 {fill:#969494}
    .fil70 {fill:#9A9797}
    .fil153 {fill:#9C9C05}
    .fil48 {fill:#9D9A9A}
    .fil56 {fill:#9E9B9B}
    .fil148 {fill:#9F9C9C}
    .fil50 {fill:#A09D9D}
    .fil115 {fill:#A3A306}
    .fil132 {fill:#A5A2A2}
    .fil22 {fill:#A9A6A6}
    .fil45 {fill:#AEABAB}
    .fil113 {fill:#AFAF07}
    .fil127 {fill:#B1AEAE}
    .fil69 {fill:#B3B0B0}
    .fil38 {fill:#B6B3B3}
    .fil23 {fill:#B7B4B4}
    .fil100 {fill:#B8B5B5}
    .fil121 {fill:#B8B807}
    .fil71 {fill:#B9B6B6}
    .fil68 {fill:#BAB7B7}
    .fil143 {fill:#BCB9B9}
    .fil114 {fill:#BDB9B9}
    .fil9 {fill:#BDBABA}
    .fil122 {fill:#BEBE07}
    .fil119 {fill:#C1BEBE}
    .fil58 {fill:#C2BEBE}
    .fil6 {fill:#C5C2C2}
    .fil78 {fill:#C8C4C4}
    .fil11 {fill:#C9C5C5}
    .fil26 {fill:#CACA08}
    .fil94 {fill:#CECACA}
    .fil39 {fill:#CFCF08}
    .fil129 {fill:#D1CECE}
    .fil124 {fill:#D2CFCF}
    .fil41 {fill:#D4D409}
    .fil51 {fill:#D5D1D1}
    .fil110 {fill:#D7D709}
    .fil0 {fill:#E6E2E2}
    .fil3 {fill:#FBFB0B}
   ]]>
  </style>
 </defs>
 <g id="Layer_x0020_1">
  <metadata id="CorelCorpID_0Corel-Layer"/>
  <g id="_2297895503616">
   <path class="fil0" d="M464.38 306.09l0 0.68 -26.85 0 0 -0.68 -0.78 0 0 -23.86 0.78 0 0 -0.68 26.07 0 0 -21.8 0.78 0 0 -1.38 82.91 0 0 23.86 -0.79 0 0 1.38 -80.55 0 0 22.48 -1.57 0zm-163.46 -46.34l0 -0.71 0.78 0 0 -0.67 81.34 0 0 1.38 0.79 0 0 21.8 26.07 0 0 1.35 0.78 0 0 23.19 -0.78 0 0 0.68 -26.86 0 0 -0.68 -1.56 0 0 -22.48 -80.56 0 0 -1.38 -0.78 0 0 -22.48 0.78 0zm27.64 -212.02l0 0.68 -53.71 0 0 22.51 -0.78 0 0 0.67 -0.78 0 0 0.68 -52.92 0 0 21.83 -0.79 0 0 1.35 -26.07 0 0 22.48 -0.78 0 0 1.39 -26.03 0 0 45.66 -1.6 0 0 0.67 -26.07 0 0 186.81 26.07 0 0 0.68 1.6 0 0 45.66 24.46 0 0 -22.48 0.79 0 0 -1.38 26.07 0 0 -67.46 -26.07 0 0 -1.39 -0.79 0 0 -46.34 0.79 0 0 -0.71 0.78 0 0 -0.67 26.85 0 0 0.67 0.79 0 0 46.37 26.85 0 0 0.68 0.78 0 0 69.53 25.29 0 0 -22.48 0.78 0 0 -0.68 135.04 0 0 -23.18 0.79 0 0 -0.68 28.41 0 0 23.86 135.83 0 0 23.16 25.28 0 0 -69.53 0.79 0 0 -0.68 26.85 0 0 -47.04 27.63 0 0 0.67 0.79 0 0 0.71 0.78 0 0 46.34 -0.78 0 0 0.68 -26.85 0 0 68.85 26.85 0 0 0.7 0.78 0 0 23.16 25.29 0 0 -46.34 0.78 0 0 -0.68 26.07 0 0 -186.81 -26.07 0 0 -0.67 -0.78 0 0 -46.34 -26.07 0 0 -0.71 -1.57 0 0 -22.48 -25.28 0 0 -0.67 -1.57 0 0 -22.51 -52.92 0 0 -0.68 -1.57 0 0 -0.67 -0.78 0 0 -21.84 -52.14 0 0 -0.67 -0.78 0 0 -0.68 -0.78 0 0 -22.51 -187.97 0 0 22.51 -1.56 0z"/>
   <path class="fil1" d="M518.87 705.56l0 -1.35 27.63 0 0 1.35 0.79 0 0 47.05 -0.79 0 0 0.68 -27.63 0 0 -0.68 -0.78 0 0 -47.05 0.78 0zm-81.34 -0.67l0 -0.68 54.49 0 0 1.35 0.78 0 0 47.05 -0.78 0 0 0.68 -54.49 0 0 -0.68 -0.78 0 0 -47.72 0.78 0zm-82.12 0.67l0 -1.35 54.49 0 0 0.68 0.78 0 0 0.67 0.78 0 0 47.05 -1.56 0 0 0.68 -54.49 0 0 -0.68 -0.78 0 0 -47.05 0.78 0zm-54.49 0l0 -0.67 0.78 0 0 -0.68 26.86 0 0 0.68 0.78 0 0 47.72 -0.78 0 0 0.68 -26.86 0 0 -0.68 -1.56 0 0 -47.05 0.78 0zm245.58 -23.86l0 1.39 -27.63 0 0 -1.39 -0.78 0 0 -47.01 0.78 0 0 -0.68 27.63 0 0 0.68 0.79 0 0 47.01 -0.79 0zm-108.97 0.71l-0.78 0 0 -47.72 0.78 0 0 -0.68 54.49 0 0 0.68 0.78 0 0 47.01 -0.78 0 0 1.39 -54.49 0 0 -0.68zm-27.63 -47.72l0.78 0 0 47.72 -0.78 0 0 0.68 -54.49 0 0 -1.39 -0.78 0 0 -47.01 0.78 0 0 -0.68 54.49 0 0 0.68zm-108.2 0l0 -0.68 26.86 0 0 0.68 0.78 0 0 47.72 -0.78 0 0 0.68 -27.64 0 0 -1.39 -0.78 0 0 -47.01 1.56 0zm-82.9 94.74l0 -117.93 0.78 0 0 -0.68 26.85 0 0 0.68 1.57 0 0 116.57 26.85 0 0 24.54 -1.56 0 0 0.68 -26.86 0 0 46.37 26.07 0 0 0.68 0.79 0 0 -25.22 300.85 0 0 0.68 0.78 0 0 23.86 26.07 0 0 -46.37 -27.63 0 0 -0.68 -0.79 0 0 -23.86 0.79 0 0 -1.35 26.06 0 0 -115.9 0.79 0 0 -0.68 28.42 0 0 118.61 26.06 0 0 -0.68 0.79 0 0 -1.35 0.78 0 0 -114.55 -0.78 0 0 -1.35 -0.79 0 0 -0.68 -25.28 0 0 -0.67 -0.78 0 0 -21.16 -28.42 0 0 -1.35 -0.79 0 0 -22.51 -25.28 0 0 23.18 -0.78 0 0 0.68 -26.07 0 0 22.51 -0.79 0 0 0.68 -245.58 0 0 -0.68 -0.78 0 0 -22.51 -25.29 0 0 -0.68 -1.56 0 0 -23.18 -25.29 0 0 22.51 -0.78 0 0 1.35 -27.64 0 0 -0.68 -0.78 0 0 -23.18 -26.85 0 0 -23.16 -26.85 0 0 -0.67 -0.79 0 0 -94.77 -26.07 0 0 0.67 -0.78 0 0 94.1 26.07 0 0 0.67 0.78 0 0 21.81 0.79 0 0 0.67 0.78 0 0 0.68 25.28 0 0 0.71 0.79 0 0 22.47 26.07 0 0 0.68 0.78 0 0 21.83 -26.07 0 0 0.68 -0.78 0 0 117.25 0.78 0 0 0.68 26.07 0z"/>
   <path class="fil0" d="M409.9 564.45l0 0.68 -26.86 0 0 -0.68 -0.78 0 0 -94.74 26.85 0 0 -22.51 0.79 0 0 -1.35 27.63 0 0 1.35 0.78 0 0 22.51 26.86 0 0 1.35 0.78 0 0 93.39 -1.57 0 0 0.68 -26.85 0 0 -0.68 -0.78 0 0 -22.48 -26.07 0 0 22.48 -0.78 0zm-26.07 -187.45l0 70.2 -0.79 0 0 0.68 -26.07 0 0 23.18 -54.48 0 0 21.84 52.92 0 0 0.67 0.78 0 0 0.68 0.78 0 0 23.86 -54.48 0 0 45.67 -0.79 0 0 2.06 -26.06 0 0 21.12 26.06 0 0 0.68 0.79 0 0 23.18 242.45 0 0 -23.18 1.56 0 0 -0.68 25.29 0 0 -21.12 -25.29 0 0 -1.39 -0.78 0 0 -0.67 -0.78 0 0 -45.67 -53.71 0 0 -24.54 0.79 0 0 -0.67 52.92 0 0 -21.84 -53.71 0 0 -23.18 -26.85 0 0 -0.68 -0.78 0 0 -70.2 -26.07 0 0 -0.68 -0.78 0 0 -22.51 -26.07 0 0 23.19 -26.85 0z"/>
   <polygon class="fil0" points="518.09,821.46 518.09,798.95 518.87,798.95 518.87,798.27 572.57,798.27 572.57,776.47 274.85,776.47 274.85,798.27 329.34,798.27 329.34,798.95 330.12,798.95 330.12,821.46 "/>
   <polygon class="fil0" points="165.88,447.88 165.88,539.91 192.73,539.91 192.73,540.59 193.51,540.59 193.51,563.78 220.37,563.78 220.37,586.96 245.65,586.96 245.65,563.78 246.43,563.78 246.43,563.1 272.5,563.1 272.5,541.97 218.8,541.97 218.8,540.59 218.02,540.59 218.02,518.79 192.73,518.79 192.73,518.11 191.95,518.11 191.95,493.57 218.8,493.57 218.8,400.86 193.51,400.86 193.51,447.2 192.73,447.2 192.73,447.88 "/>
   <polygon class="fil0" points="655.48,494.25 656.26,494.25 656.26,518.11 655.48,518.11 655.48,518.79 629.41,518.79 629.41,541.3 627.84,541.3 627.84,541.97 574.92,541.97 574.92,563.1 600.99,563.1 600.99,563.78 601.77,563.78 601.77,586.96 627.06,586.96 627.06,563.78 653.91,563.78 653.91,540.59 654.69,540.59 654.69,539.91 681.55,539.91 681.55,447.88 655.48,447.88 655.48,447.2 653.91,447.2 653.91,400.86 628.63,400.86 628.63,492.9 655.48,492.9 "/>
   <polygon class="fil1" points="709.96,164.98 710.75,164.98 710.75,353.14 709.96,353.14 709.96,353.81 683.11,353.81 683.11,400.86 708.4,400.86 708.4,400.19 709.96,400.19 709.96,354.49 710.75,354.49 710.75,353.81 736.03,353.81 736.03,353.14 736.82,353.14 736.82,164.98 736.03,164.98 736.03,164.3 710.75,164.3 710.75,163.63 709.96,163.63 709.96,117.93 709.18,117.93 709.18,117.25 683.11,117.25 683.11,164.3 709.96,164.3 "/>
   <polygon class="fil1" points="409.9,470.39 409.9,471.06 383.83,471.06 383.83,563.78 409.11,563.78 409.11,540.59 409.9,540.59 409.9,539.91 437.53,539.91 437.53,540.59 438.31,540.59 438.31,563.78 463.6,563.78 463.6,471.06 437.53,471.06 437.53,470.39 436.75,470.39 436.75,447.88 410.68,447.88 410.68,470.39 "/>
   <polygon class="fil1" points="327.77,823.52 327.77,846 328.56,846 328.56,846.67 518.87,846.67 518.87,846 519.65,846 519.65,824.2 520.44,824.2 520.44,823.52 573.36,823.52 573.36,822.81 574.14,822.81 574.14,800.34 519.65,800.34 519.65,823.52 "/>
   <polygon class="fil1" points="137.46,353.81 137.46,164.3 111.39,164.3 111.39,164.98 110.61,164.98 110.61,165.65 109.83,165.65 109.83,352.46 110.61,352.46 110.61,353.14 111.39,353.14 111.39,353.81 "/>
   <polygon class="fil1" points="355.41,376.32 356.97,376.32 356.97,446.53 382.26,446.53 382.26,376.32 383.04,376.32 383.04,375.62 409.11,375.62 409.11,353.81 274.85,353.81 274.85,375.62 355.41,375.62 "/>
   <polygon class="fil1" points="464.38,376.32 465.95,376.32 465.95,446.53 491.23,446.53 491.23,376.32 492.02,376.32 492.02,374.94 571.79,374.94 571.79,354.49 438.31,354.49 438.31,375.62 464.38,375.62 "/>
   <polygon class="fil1" points="327.77,23.19 519.65,23.19 519.65,0.68 518.87,0.68 518.87,0 328.56,0 328.56,0.68 327.77,0.68 "/>
   <polygon class="fil1" points="600.99,469.71 600.99,471.06 547.29,471.06 547.29,493.57 627.06,493.57 627.06,400.86 601.77,400.86 601.77,469.71 "/>
   <polygon class="fil2" points="518.87,423.34 518.09,423.34 518.09,400.19 518.87,400.19 518.87,399.48 572.57,399.48 572.57,377 492.8,377 492.8,445.85 544.94,445.85 544.94,424.72 518.87,424.72 "/>
   <polygon class="fil2" points="327.77,424.02 327.77,424.72 302.49,424.72 302.49,445.85 354.63,445.85 354.63,377 274.85,377 274.85,399.48 329.34,399.48 329.34,424.02 "/>
   <polygon class="fil1" points="300.14,471.06 246.43,471.06 246.43,470.39 245.65,470.39 245.65,400.86 221.19,400.86 221.19,492.9 300.14,492.9 "/>
   <polygon class="fil0" points="627.06,728.07 627.06,612.18 601.77,612.18 601.77,728.07 "/>
   <polygon class="fil0" points="221.19,727.4 245.65,727.4 245.65,612.85 221.19,612.85 "/>
   <polygon class="fil1" points="683.11,446.53 683.11,541.97 683.9,541.97 683.9,541.3 709.96,541.3 709.96,447.2 709.18,447.2 709.18,446.53 "/>
   <polygon class="fil3" points="491.23,751.26 491.23,706.24 438.31,706.24 438.31,751.26 "/>
   <polygon class="fil3" points="491.23,681.02 491.23,636.04 438.31,636.04 438.31,681.02 "/>
   <polygon class="fil3" points="409.11,681.02 409.11,636.04 356.97,636.04 356.97,681.02 "/>
   <polygon class="fil3" points="409.11,706.24 356.97,706.24 356.97,751.26 409.11,751.26 "/>
   <polygon class="fil1" points="573.36,540.59 573.36,539.91 627.06,539.91 627.06,518.11 547.29,518.11 547.29,563.78 572.57,563.78 572.57,540.59 "/>
   <polygon class="fil2" points="547.29,447.88 547.29,469.71 599.42,469.71 599.42,400.86 574.14,400.86 574.14,447.88 "/>
   <polygon class="fil2" points="300.14,447.88 273.29,447.88 273.29,400.86 248,400.86 248,469.04 300.14,469.04 "/>
   <polygon class="fil1" points="274.85,541.3 275.64,541.3 275.64,563.1 300.14,563.1 300.14,518.79 221.19,518.79 221.19,539.91 274.07,539.91 274.07,540.59 274.85,540.59 "/>
   <polygon class="fil1" points="627.84,70.92 628.63,70.92 628.63,93.39 656.26,93.39 656.26,72.27 655.48,72.27 655.48,70.92 653.91,70.92 653.91,70.24 628.63,70.24 628.63,47.73 627.84,47.73 627.84,47.05 574.14,47.05 574.14,70.24 627.84,70.24 "/>
   <polygon class="fil1" points="545.72,281.55 545.72,259.75 465.17,259.75 465.17,281.55 "/>
   <polygon class="fil1" points="301.7,423.34 301.7,422.66 327.77,422.66 327.77,400.86 274.85,400.86 274.85,445.85 300.14,445.85 300.14,423.34 "/>
   <polygon class="fil0" points="627.06,494.93 547.29,494.93 547.29,516.73 627.06,516.73 "/>
   <polygon class="fil1" points="245.65,375.62 245.65,306.77 220.37,306.77 220.37,375.62 "/>
   <polygon class="fil1" points="601.77,375.62 627.06,375.62 627.06,306.77 601.77,306.77 "/>
   <polygon class="fil1" points="572.57,445.85 572.57,400.86 520.44,400.86 520.44,422.66 546.5,422.66 546.5,423.34 547.29,423.34 547.29,445.85 "/>
   <polygon class="fil1" points="302.49,281.55 381.48,281.55 381.48,260.43 302.49,260.43 "/>
   <polygon class="fil0" points="221.19,516.05 300.14,516.05 300.14,494.93 221.19,494.93 "/>
   <polygon class="fil1" points="574.14,47.05 574.14,24.54 573.36,24.54 573.36,23.87 572.57,23.87 572.57,23.19 520.44,23.19 520.44,47.05 "/>
   <polygon class="fil1" points="218.8,70.24 273.29,70.24 273.29,47.05 219.58,47.05 219.58,47.73 218.8,47.73 "/>
   <polygon class="fil1" points="137.46,164.3 164.31,164.3 164.31,117.25 138.24,117.25 138.24,117.93 137.46,117.93 "/>
   <polygon class="fil1" points="327.77,823.52 327.77,800.34 273.29,800.34 273.29,822.81 274.85,822.81 274.85,823.52 "/>
   <polygon class="fil1" points="164.31,400.86 164.31,353.81 137.46,353.81 137.46,400.19 139.03,400.19 139.03,400.86 "/>
   <polygon class="fil1" points="273.29,46.38 326.99,46.38 326.99,23.19 274.85,23.19 274.85,23.87 274.07,23.87 274.07,24.54 273.29,24.54 "/>
   <polygon class="fil1" points="164.31,400.86 164.31,445.85 191.16,445.85 191.16,400.86 "/>
   <polygon class="fil1" points="683.11,445.85 683.11,400.86 656.26,400.86 656.26,445.85 "/>
   <polygon class="fil1" points="218.8,259.75 193.51,259.75 193.51,305.41 218.8,305.41 "/>
   <polygon class="fil1" points="354.63,469.71 354.63,447.88 302.49,447.88 302.49,469.71 "/>
   <polygon class="fil1" points="354.63,516.73 354.63,494.93 302.49,494.93 302.49,516.73 "/>
   <polygon class="fil3" points="327.77,751.26 327.77,706.24 302.49,706.24 302.49,751.26 "/>
   <polygon class="fil3" points="327.77,681.02 327.77,636.04 302.49,636.04 302.49,681.02 "/>
   <polygon class="fil3" points="520.44,751.26 544.94,751.26 544.94,706.24 520.44,706.24 "/>
   <polygon class="fil3" points="520.44,681.02 544.94,681.02 544.94,636.04 520.44,636.04 "/>
   <polygon class="fil1" points="492.8,516.05 544.94,516.05 544.94,494.93 492.8,494.93 "/>
   <polygon class="fil1" points="544.94,447.88 492.8,447.88 492.8,469.04 544.94,469.04 "/>
   <polygon class="fil1" points="629.41,304.74 653.91,304.74 653.91,260.43 629.41,260.43 "/>
   <polygon class="fil1" points="683.11,117.25 683.11,94.78 682.33,94.78 682.33,94.1 656.26,94.1 656.26,117.25 "/>
   <polygon class="fil1" points="164.31,117.25 191.16,117.25 191.16,94.1 165.1,94.1 165.1,94.78 164.31,94.78 "/>
   <polygon class="fil1" points="191.95,93.39 218.8,93.39 218.8,70.24 193.51,70.24 193.51,70.92 191.95,70.92 "/>
   <polygon class="fil1" points="656.26,565.13 629.41,565.13 629.41,588.31 655.48,588.31 655.48,586.29 656.26,586.29 "/>
   <polygon class="fil1" points="683.11,541.97 656.26,541.97 656.26,565.13 681.55,565.13 681.55,564.45 682.33,564.45 682.33,563.78 683.11,563.78 "/>
   <polygon class="fil1" points="245.65,752.61 245.65,730.1 218.8,730.1 218.8,751.94 219.58,751.94 219.58,752.61 "/>
   <polygon class="fil1" points="628.63,730.1 601.77,730.1 601.77,752.61 627.84,752.61 627.84,751.94 628.63,751.94 "/>
   <polygon class="fil1" points="599.42,399.48 599.42,377 574.14,377 574.14,399.48 "/>
   <polygon class="fil1" points="218.8,399.48 218.8,377 193.51,377 193.51,399.48 "/>
   <polygon class="fil1" points="653.91,399.48 653.91,377 628.63,377 628.63,399.48 "/>
   <polygon class="fil0" points="627.06,377 601.77,377 601.77,399.48 627.06,399.48 "/>
   <polygon class="fil1" points="218.8,494.93 193.51,494.93 193.51,516.73 218.8,516.73 "/>
   <polygon class="fil1" points="409.11,305.41 409.11,283.61 383.83,283.61 383.83,305.41 "/>
   <polygon class="fil1" points="463.6,305.41 463.6,283.61 438.31,283.61 438.31,305.41 "/>
   <polygon class="fil0" points="599.42,729.43 574.14,729.43 574.14,751.26 599.42,751.26 "/>
   <polygon class="fil1" points="436.75,351.79 436.75,330.63 411.46,330.63 411.46,351.79 "/>
   <polygon class="fil1" points="248,398.8 272.5,398.8 272.5,377.68 248,377.68 "/>
   <polygon class="fil0" points="221.19,398.8 245.65,398.8 245.65,377.68 221.19,377.68 "/>
   <polygon class="fil0" points="248,751.26 272.5,751.26 272.5,730.1 248,730.1 "/>
   <polygon class="fil1" points="653.91,494.93 629.41,494.93 629.41,516.05 653.91,516.05 "/>
   <polygon class="fil4" points="654.69,377 654.69,399.48 627.84,399.48 627.84,377 627.06,377 627.06,399.48 600.99,399.48 600.99,400.19 627.84,400.19 627.84,493.57 546.5,493.57 546.5,470.39 492.8,470.39 492.8,469.71 492.02,469.71 492.02,471.06 545.72,471.06 545.72,493.57 492.02,493.57 492.02,494.25 545.72,494.25 545.72,517.44 492.8,517.44 492.8,516.73 492.02,516.73 492.02,518.11 545.72,518.11 545.72,563.78 546.5,563.78 546.5,517.44 547.29,517.44 547.29,516.73 546.5,516.73 546.5,494.25 654.69,494.25 654.69,493.57 628.63,493.57 628.63,400.19 654.69,400.19 654.69,446.53 655.48,446.53 655.48,400.19 682.33,400.19 682.33,353.81 683.11,353.81 683.11,353.14 709.18,353.14 709.18,352.46 682.33,352.46 682.33,353.14 681.55,353.14 681.55,399.48 655.48,399.48 655.48,377 "/>
   <polygon class="fil5" points="193.51,493.57 193.51,494.25 300.92,494.25 300.92,563.78 301.7,563.78 301.7,517.44 354.63,517.44 354.63,516.73 301.7,516.73 301.7,494.25 354.63,494.25 354.63,493.57 301.7,493.57 301.7,470.39 300.92,470.39 300.92,493.57 220.37,493.57 220.37,400.19 219.58,400.19 219.58,493.57 "/>
   <path class="fil6" d="M221.19 612.85l24.46 0 0 114.55 -24.46 0 0 -114.55zm25.24 115.22l0 -115.89 -26.06 0 0 115.89 26.06 0z"/>
   <polygon class="fil7" points="572.57,776.47 572.57,775.8 274.85,775.8 274.85,776.47 "/>
   <polygon class="fil8" points="572.57,775.8 572.57,775.12 274.85,775.12 274.85,775.8 "/>
   <polygon class="fil9" points="572.57,48.41 572.57,47.73 519.65,47.73 519.65,47.05 518.87,47.05 518.87,24.54 329.34,24.54 329.34,47.73 330.12,47.73 330.12,25.22 518.09,25.22 518.09,47.73 518.87,47.73 518.87,48.41 "/>
   <polygon class="fil10" points="545.72,610.82 545.72,611.5 301.7,611.5 301.7,612.18 546.5,612.18 546.5,611.5 547.29,611.5 547.29,588.99 546.5,588.99 546.5,610.82 "/>
   <polygon class="fil11" points="328.56,799.66 329.34,799.66 329.34,822.14 518.09,822.14 518.09,821.46 330.12,821.46 330.12,798.95 329.34,798.95 329.34,798.27 274.85,798.27 274.85,798.95 328.56,798.95 "/>
   <polygon class="fil10" points="546.5,563.78 547.29,563.78 547.29,518.11 627.06,518.11 627.06,539.91 573.36,539.91 573.36,541.3 574.14,541.3 574.14,540.59 627.84,540.59 627.84,518.11 628.63,518.11 628.63,517.44 654.69,517.44 654.69,516.73 628.63,516.73 628.63,494.25 627.84,494.25 627.84,517.44 546.5,517.44 "/>
   <path class="fil12" d="M274.85 541.3l0 -0.71 -0.78 0 0 -0.68 -52.88 0 0 -21.12 78.95 0 0 44.31 -24.5 0 0 -21.8 -0.79 0zm-1.56 0l1.56 0 0 22.48 26.07 0 0 -45.67 -80.55 0 0 22.48 52.92 0 0 0.71z"/>
   <polygon class="fil13" points="520.44,800.34 520.44,799.66 518.87,799.66 518.87,822.81 329.34,822.81 329.34,822.14 328.56,822.14 328.56,799.66 327.77,799.66 327.77,823.52 519.65,823.52 519.65,800.34 "/>
   <polygon class="fil14" points="545.72,610.82 301.7,610.82 301.7,611.5 545.72,611.5 "/>
   <polygon class="fil15" points="492.02,375.62 572.57,375.62 572.57,353.81 438.31,353.81 438.31,354.49 571.79,354.49 571.79,374.94 492.02,374.94 "/>
   <polygon class="fil16" points="300.92,471.06 300.14,471.06 300.14,492.9 221.19,492.9 221.19,400.86 245.65,400.86 245.65,400.19 220.37,400.19 220.37,493.57 300.92,493.57 "/>
   <polygon class="fil17" points="328.56,24.54 328.56,23.87 518.87,23.87 518.87,24.54 519.65,24.54 519.65,47.05 520.44,47.05 520.44,23.19 327.77,23.19 327.77,24.54 "/>
   <polygon class="fil18" points="327.77,47.05 327.77,47.73 329.34,47.73 329.34,24.54 518.87,24.54 518.87,23.87 328.56,23.87 328.56,47.05 "/>
   <polygon class="fil19" points="138.24,353.14 138.24,164.98 137.46,164.98 137.46,353.14 "/>
   <polygon class="fil20" points="709.96,353.14 709.96,164.98 709.18,164.98 709.18,353.14 "/>
   <polygon class="fil21" points="709.96,164.98 709.96,353.14 710.75,353.14 710.75,164.98 "/>
   <polygon class="fil22" points="139.03,352.46 139.03,165.65 138.24,165.65 138.24,352.46 "/>
   <polygon class="fil23" points="709.18,352.46 709.18,165.65 708.4,165.65 708.4,352.46 "/>
   <polygon class="fil22" points="191.95,446.53 191.95,447.2 165.88,447.2 165.88,447.88 192.73,447.88 192.73,447.2 193.51,447.2 193.51,400.86 218.8,400.86 218.8,493.57 219.58,493.57 219.58,400.19 192.73,400.19 192.73,446.53 "/>
   <polygon class="fil24" points="247.22,751.94 247.22,729.43 273.29,729.43 273.29,751.94 274.07,751.94 274.07,728.75 247.22,728.75 247.22,612.18 246.43,612.18 246.43,751.94 "/>
   <path class="fil25" d="M601.77 306.77l25.29 0 0 68.85 -25.29 0 0 -68.85zm26.07 69.55l0 -70.23 -26.85 0 0 70.23 26.85 0z"/>
   <path class="fil26" d="M409.11 681.02l-52.14 0 0 -44.98 52.14 0 0 44.98zm0 0.68l0 -0.68 0.79 0 0 -45.66 -53.71 0 0 46.34 52.92 0z"/>
   <path class="fil11" d="M221.19 494.93l78.95 0 0 21.12 -78.95 0 0 -21.12zm79.73 21.8l0 -22.48 -80.55 0 0 22.48 80.55 0z"/>
   <path class="fil16" d="M302.49 281.55l0 -21.12 78.99 0 0 21.12 -78.99 0zm0 0l0 0.68 79.77 0 0 -22.48 -80.56 0 0 21.8 0.79 0z"/>
   <polygon class="fil14" points="518.87,822.14 329.34,822.14 329.34,822.81 518.87,822.81 "/>
   <polygon class="fil27" points="574.14,729.43 600.21,729.43 600.21,751.94 600.99,751.94 600.99,612.18 600.21,612.18 600.21,728.75 574.14,728.75 "/>
   <polygon class="fil28" points="545.72,424.02 519.65,424.02 519.65,423.34 518.87,423.34 518.87,424.72 544.94,424.72 544.94,445.85 492.8,445.85 492.8,377 492.02,377 492.02,446.53 545.72,446.53 "/>
   <polygon class="fil29" points="327.77,424.02 301.7,424.02 301.7,446.53 355.41,446.53 355.41,377 354.63,377 354.63,445.85 302.49,445.85 302.49,424.72 327.77,424.72 "/>
   <polygon class="fil13" points="246.43,729.43 246.43,728.75 220.37,728.75 220.37,728.07 219.58,728.07 219.58,611.5 218.8,611.5 218.8,728.75 219.58,728.75 219.58,729.43 "/>
   <polygon class="fil30" points="627.84,728.75 628.63,728.75 628.63,610.82 600.99,610.82 600.99,611.5 627.84,611.5 "/>
   <polygon class="fil31" points="273.29,375.62 274.07,375.62 274.07,353.81 274.85,353.81 274.85,353.14 409.9,353.14 409.9,352.46 274.07,352.46 274.07,353.14 273.29,353.14 "/>
   <polygon class="fil32" points="655.48,446.53 682.33,446.53 682.33,447.2 683.11,447.2 683.11,445.85 656.26,445.85 656.26,400.86 683.11,400.86 683.11,353.81 682.33,353.81 682.33,400.19 655.48,400.19 "/>
   <polygon class="fil32" points="273.29,728.75 273.29,728.07 248,728.07 248,611.5 246.43,611.5 246.43,612.18 247.22,612.18 247.22,728.75 "/>
   <polygon class="fil33" points="437.53,282.23 437.53,282.9 464.38,282.9 464.38,305.41 465.17,305.41 465.17,282.9 545.72,282.9 545.72,282.23 465.17,282.23 465.17,259.04 464.38,259.04 464.38,282.23 "/>
   <polygon class="fil16" points="573.36,728.07 600.21,728.07 600.21,611.5 599.42,611.5 599.42,727.4 573.36,727.4 "/>
   <polygon class="fil34" points="220.37,728.07 220.37,612.18 246.43,612.18 246.43,611.5 219.58,611.5 219.58,728.07 "/>
   <polygon class="fil35" points="574.14,376.32 574.14,377 600.21,377 600.21,399.48 600.99,399.48 600.99,377 627.84,377 627.84,376.32 600.99,376.32 600.99,306.09 600.21,306.09 600.21,376.32 "/>
   <polygon class="fil14" points="572.57,353.14 572.57,352.46 438.31,352.46 438.31,329.95 437.53,329.95 437.53,353.14 "/>
   <polygon class="fil36" points="438.31,375.62 438.31,353.81 572.57,353.81 572.57,353.14 437.53,353.14 437.53,375.62 "/>
   <polygon class="fil37" points="409.11,375.62 409.9,375.62 409.9,353.14 274.85,353.14 274.85,353.81 409.11,353.81 "/>
   <polygon class="fil38" points="601.77,728.07 601.77,612.18 627.06,612.18 627.06,611.5 600.99,611.5 600.99,728.07 "/>
   <polygon class="fil33" points="301.7,282.23 301.7,282.9 382.26,282.9 382.26,305.41 383.04,305.41 383.04,282.9 409.9,282.9 409.9,282.23 383.04,282.23 383.04,259.75 382.26,259.75 382.26,282.23 "/>
   <polygon class="fil39" points="409.9,751.94 409.9,706.24 409.11,706.24 409.11,751.26 356.97,751.26 356.97,706.24 356.19,706.24 356.19,751.94 "/>
   <polygon class="fil40" points="545.72,424.02 546.5,424.02 546.5,446.53 572.57,446.53 572.57,445.85 547.29,445.85 547.29,423.34 546.5,423.34 546.5,422.66 520.44,422.66 520.44,400.86 572.57,400.86 572.57,400.19 519.65,400.19 519.65,423.34 545.72,423.34 "/>
   <path class="fil12" d="M492.8 494.93l52.14 0 0 21.12 -52.14 0 0 -21.12zm52.92 21.8l0 -22.48 -53.7 0 0 22.48 53.7 0z"/>
   <path class="fil41" d="M520.44 706.24l24.5 0 0 45.02 -24.5 0 0 -45.02zm25.28 45.7l0 -46.38 -26.07 0 0 46.38 26.07 0z"/>
   <path class="fil41" d="M520.44 636.04l24.5 0 0 44.98 -24.5 0 0 -44.98zm25.28 45.66l0 -46.34 -26.07 0 0 46.34 26.07 0z"/>
   <path class="fil42" d="M629.41 260.43l24.5 0 0 44.31 -24.5 0 0 -44.31zm25.28 44.98l0 -45.66 -26.06 0 0 45.66 26.06 0z"/>
   <polygon class="fil43" points="518.87,681.7 518.87,635.36 519.65,635.36 519.65,634.69 545.72,634.69 545.72,635.36 546.5,635.36 546.5,681.7 547.29,681.7 547.29,634.69 546.5,634.69 546.5,634.01 518.87,634.01 518.87,634.69 518.09,634.69 518.09,681.7 "/>
   <polygon class="fil44" points="546.5,705.56 546.5,751.94 545.72,751.94 545.72,752.61 519.65,752.61 519.65,751.94 518.87,751.94 518.87,705.56 518.09,705.56 518.09,752.61 518.87,752.61 518.87,753.29 546.5,753.29 546.5,752.61 547.29,752.61 547.29,705.56 "/>
   <polygon class="fil45" points="382.26,446.53 382.26,447.2 356.19,447.2 356.19,469.71 355.41,469.71 355.41,471.06 356.97,471.06 356.97,447.88 383.04,447.88 383.04,447.2 383.83,447.2 383.83,377 383.04,377 383.04,446.53 "/>
   <polygon class="fil46" points="191.95,541.3 191.95,540.59 165.88,540.59 165.88,447.2 165.1,447.2 165.1,541.3 "/>
   <polygon class="fil47" points="681.55,540.59 682.33,540.59 682.33,447.2 655.48,447.2 655.48,447.88 681.55,447.88 "/>
   <polygon class="fil10" points="627.06,493.57 627.84,493.57 627.84,400.19 600.99,400.19 600.99,400.86 627.06,400.86 "/>
   <polygon class="fil6" points="245.65,586.96 246.43,586.96 246.43,564.45 247.22,564.45 247.22,563.78 273.29,563.78 273.29,541.3 219.58,541.3 219.58,540.59 218.8,540.59 218.8,541.97 272.5,541.97 272.5,563.1 246.43,563.1 246.43,563.78 245.65,563.78 "/>
   <polygon class="fil48" points="627.84,728.07 627.84,612.18 627.06,612.18 627.06,728.07 "/>
   <polygon class="fil49" points="274.07,446.53 274.07,447.2 300.92,447.2 300.92,470.39 301.7,470.39 301.7,447.2 355.41,447.2 355.41,446.53 301.7,446.53 301.7,424.02 300.92,424.02 300.92,446.53 "/>
   <polygon class="fil49" points="492.02,446.53 492.02,447.2 545.72,447.2 545.72,470.39 546.5,470.39 546.5,447.2 573.36,447.2 573.36,446.53 546.5,446.53 546.5,424.02 545.72,424.02 545.72,446.53 "/>
   <polygon class="fil47" points="654.69,376.32 654.69,375.62 628.63,375.62 628.63,306.77 654.69,306.77 654.69,306.09 627.84,306.09 627.84,376.32 "/>
   <polygon class="fil50" points="192.73,376.32 219.58,376.32 219.58,306.09 192.73,306.09 192.73,306.77 218.8,306.77 218.8,375.62 192.73,375.62 "/>
   <polygon class="fil51" points="191.95,376.32 192.73,376.32 192.73,375.62 218.8,375.62 218.8,306.77 192.73,306.77 192.73,306.09 191.95,306.09 191.95,307.48 218.02,307.48 218.02,374.94 191.95,374.94 "/>
   <polygon class="fil52" points="246.43,376.32 246.43,375.62 220.37,375.62 220.37,306.77 246.43,306.77 246.43,306.09 219.58,306.09 219.58,376.32 "/>
   <polygon class="fil53" points="247.22,399.48 247.22,377 273.29,377 273.29,376.32 247.22,376.32 247.22,306.77 246.43,306.77 246.43,399.48 "/>
   <polygon class="fil35" points="165.88,399.48 165.88,400.19 191.95,400.19 191.95,446.53 192.73,446.53 192.73,400.19 219.58,400.19 219.58,399.48 192.73,399.48 192.73,377 191.95,377 191.95,399.48 "/>
   <polygon class="fil6" points="600.21,564.45 600.99,564.45 600.99,586.96 601.77,586.96 601.77,563.78 600.99,563.78 600.99,563.1 574.92,563.1 574.92,541.97 627.84,541.97 627.84,541.3 574.14,541.3 574.14,563.78 600.21,563.78 "/>
   <polygon class="fil37" points="219.58,306.09 219.58,259.75 218.8,259.75 218.8,305.41 193.51,305.41 193.51,259.75 192.73,259.75 192.73,306.09 "/>
   <polygon class="fil54" points="355.41,681.7 355.41,635.36 356.19,635.36 356.19,634.69 409.9,634.69 409.9,634.01 355.41,634.01 355.41,634.69 354.63,634.69 354.63,681.7 "/>
   <polygon class="fil43" points="491.23,635.36 492.02,635.36 492.02,681.7 492.8,681.7 492.8,634.69 492.02,634.69 492.02,634.01 437.53,634.01 437.53,634.69 491.23,634.69 "/>
   <polygon class="fil55" points="409.9,752.61 356.19,752.61 356.19,751.94 355.41,751.94 355.41,705.56 354.63,705.56 354.63,752.61 355.41,752.61 355.41,753.29 409.9,753.29 "/>
   <polygon class="fil55" points="491.23,751.94 491.23,752.61 437.53,752.61 437.53,753.29 492.02,753.29 492.02,752.61 492.8,752.61 492.8,705.56 492.02,705.56 492.02,751.94 "/>
   <polygon class="fil56" points="545.72,259.75 546.5,259.75 546.5,282.23 547.29,282.23 547.29,258.37 465.17,258.37 465.17,259.04 545.72,259.04 "/>
   <polygon class="fil22" points="491.23,447.88 491.23,447.2 465.17,447.2 465.17,446.53 464.38,446.53 464.38,377 463.6,377 463.6,447.2 464.38,447.2 464.38,447.88 "/>
   <polygon class="fil6" points="383.04,306.09 383.04,305.41 382.26,305.41 382.26,282.9 301.7,282.9 301.7,282.23 300.92,282.23 300.92,283.61 381.48,283.61 381.48,306.09 "/>
   <polygon class="fil57" points="165.1,541.3 165.1,447.2 164.31,447.2 164.31,541.3 "/>
   <polygon class="fil6" points="464.38,563.78 464.38,564.45 465.95,564.45 465.95,471.06 465.17,471.06 465.17,563.78 "/>
   <polygon class="fil58" points="464.38,305.41 464.38,306.09 465.95,306.09 465.95,283.61 546.5,283.61 546.5,282.23 545.72,282.23 545.72,282.9 465.17,282.9 465.17,305.41 "/>
   <polygon class="fil59" points="437.53,682.41 491.23,682.41 491.23,681.7 438.31,681.7 438.31,681.02 437.53,681.02 437.53,635.36 436.75,635.36 436.75,681.7 437.53,681.7 "/>
   <polygon class="fil60" points="164.31,445.85 164.31,447.2 165.1,447.2 165.1,446.53 191.95,446.53 191.95,400.19 164.31,400.19 164.31,400.86 191.16,400.86 191.16,445.85 "/>
   <polygon class="fil61" points="683.11,540.59 683.11,447.2 682.33,447.2 682.33,540.59 "/>
   <polygon class="fil34" points="218.8,259.75 219.58,259.75 219.58,306.09 246.43,306.09 246.43,305.41 220.37,305.41 220.37,259.04 219.58,259.04 219.58,258.37 192.73,258.37 192.73,259.04 218.8,259.04 "/>
   <polygon class="fil62" points="355.41,705.56 355.41,751.94 356.19,751.94 356.19,706.24 356.97,706.24 356.97,705.56 409.9,705.56 409.9,704.89 356.19,704.89 356.19,705.56 "/>
   <polygon class="fil63" points="465.17,471.06 464.38,471.06 464.38,563.78 465.17,563.78 "/>
   <polygon class="fil64" points="383.04,563.78 383.04,471.06 382.26,471.06 382.26,563.78 "/>
   <polygon class="fil65" points="383.83,563.78 383.83,471.06 383.04,471.06 383.04,563.78 "/>
   <polygon class="fil37" points="464.38,563.78 464.38,471.06 463.6,471.06 463.6,563.78 "/>
   <polygon class="fil66" points="247.22,399.48 247.22,400.19 274.07,400.19 274.07,446.53 274.85,446.53 274.85,399.48 274.07,399.48 274.07,377 273.29,377 273.29,399.48 "/>
   <polygon class="fil66" points="572.57,399.48 572.57,446.53 573.36,446.53 573.36,400.19 600.21,400.19 600.21,399.48 574.14,399.48 574.14,377 573.36,377 573.36,399.48 "/>
   <polygon class="fil67" points="409.11,375.62 409.11,376.32 410.68,376.32 410.68,353.14 437.53,353.14 437.53,329.95 436.75,329.95 436.75,352.46 410.68,352.46 410.68,329.95 409.9,329.95 409.9,375.62 "/>
   <polygon class="fil45" points="518.09,822.14 518.87,822.14 518.87,799.66 519.65,799.66 519.65,798.95 573.36,798.95 573.36,776.47 572.57,776.47 572.57,798.27 518.87,798.27 518.87,798.95 518.09,798.95 "/>
   <polygon class="fil30" points="220.37,540.59 220.37,518.11 300.92,518.11 300.92,517.44 219.58,517.44 219.58,540.59 "/>
   <polygon class="fil47" points="300.92,517.44 300.92,516.73 220.37,516.73 220.37,494.25 219.58,494.25 219.58,517.44 "/>
   <polygon class="fil68" points="574.14,375.62 574.14,376.32 600.21,376.32 600.21,306.09 599.42,306.09 599.42,375.62 "/>
   <polygon class="fil69" points="273.29,376.32 273.29,375.62 248,375.62 248,306.09 247.22,306.09 247.22,376.32 "/>
   <polygon class="fil52" points="273.29,563.78 273.29,564.45 247.22,564.45 247.22,565.13 273.29,565.13 273.29,587.64 274.07,587.64 274.07,564.45 300.92,564.45 300.92,563.78 274.85,563.78 274.85,541.3 274.07,541.3 274.07,563.78 "/>
   <polygon class="fil70" points="547.29,516.73 547.29,517.44 627.84,517.44 627.84,494.25 627.06,494.25 627.06,516.73 "/>
   <polygon class="fil29" points="248,469.71 248,400.86 273.29,400.86 273.29,400.19 247.22,400.19 247.22,469.71 "/>
   <polygon class="fil28" points="599.42,469.71 600.21,469.71 600.21,400.19 574.14,400.19 574.14,400.86 599.42,400.86 "/>
   <polygon class="fil71" points="547.29,516.73 547.29,494.93 627.06,494.93 627.06,494.25 546.5,494.25 546.5,516.73 "/>
   <polygon class="fil11" points="191.95,376.32 191.16,376.32 191.16,398.8 166.7,398.8 166.7,353.14 165.88,353.14 165.88,399.48 191.95,399.48 "/>
   <polygon class="fil72" points="302.49,516.73 302.49,494.93 354.63,494.93 354.63,516.73 355.41,516.73 355.41,494.25 301.7,494.25 301.7,516.73 "/>
   <polygon class="fil26" points="327.77,681.7 327.77,681.02 302.49,681.02 302.49,636.04 327.77,636.04 327.77,635.36 301.7,635.36 301.7,681.7 "/>
   <path class="fil73" d="M248 377.68l24.5 0 0 21.12 -24.5 0 0 -21.12zm25.29 -0.68l-26.07 0 0 22.48 26.07 0 0 -22.48z"/>
   <path class="fil6" d="M221.19 377.68l24.46 0 0 21.12 -24.46 0 0 -21.12zm25.24 21.8l0 -22.48 -26.06 0 0 22.48 26.06 0z"/>
   <path class="fil12" d="M653.91 494.93l0 21.12 -24.5 0 0 -21.12 24.5 0zm0.78 21.8l0 -21.8 -0.78 0 0 -0.68 -25.28 0 0 22.48 26.06 0z"/>
   <path class="fil11" d="M248 751.26l0 -21.16 24.5 0 0 21.16 -24.5 0zm0 0l0 0.68 25.29 0 0 -22.51 -26.07 0 0 21.83 0.78 0z"/>
   <polygon class="fil16" points="573.36,776.47 574.14,776.47 574.14,798.95 573.36,798.95 573.36,799.66 520.44,799.66 520.44,800.34 574.92,800.34 574.92,775.8 574.14,775.8 574.14,775.12 572.57,775.12 572.57,775.8 573.36,775.8 "/>
   <polygon class="fil32" points="655.48,541.3 655.48,563.78 654.69,563.78 654.69,564.45 628.63,564.45 628.63,565.13 656.26,565.13 656.26,541.97 683.11,541.97 683.11,540.59 682.33,540.59 682.33,541.3 "/>
   <polygon class="fil21" points="600.99,729.43 600.99,752.61 573.36,752.61 573.36,753.29 601.77,753.29 601.77,730.1 628.63,730.1 628.63,728.75 627.84,728.75 627.84,729.43 "/>
   <polygon class="fil74" points="273.29,46.38 273.29,47.73 274.07,47.73 274.07,47.05 327.77,47.05 327.77,23.19 326.99,23.19 326.99,46.38 "/>
   <polygon class="fil75" points="300.92,447.88 300.92,447.2 274.07,447.2 274.07,400.19 273.29,400.19 273.29,447.88 "/>
   <polygon class="fil76" points="465.17,446.53 465.95,446.53 465.95,376.32 464.38,376.32 464.38,377 465.17,377 "/>
   <polygon class="fil77" points="356.19,446.53 356.97,446.53 356.97,376.32 355.41,376.32 355.41,377 356.19,377 "/>
   <polygon class="fil78" points="654.69,517.44 654.69,518.11 628.63,518.11 628.63,540.59 627.84,540.59 627.84,541.3 629.41,541.3 629.41,518.79 655.48,518.79 655.48,518.11 656.26,518.11 656.26,494.25 655.48,494.25 655.48,517.44 "/>
   <polygon class="fil10" points="165.88,118.64 165.88,117.93 191.95,117.93 191.95,117.25 164.31,117.25 164.31,164.3 165.1,164.3 165.1,118.64 "/>
   <polygon class="fil25" points="219.58,94.1 219.58,71.59 220.37,71.59 220.37,70.92 273.29,70.92 273.29,70.24 218.8,70.24 218.8,94.1 "/>
   <polygon class="fil21" points="273.29,752.61 246.43,752.61 246.43,729.43 219.58,729.43 219.58,728.75 218.8,728.75 218.8,730.1 245.65,730.1 245.65,753.29 273.29,753.29 "/>
   <polygon class="fil47" points="382.26,259.75 383.04,259.75 383.04,258.37 301.7,258.37 301.7,259.04 382.26,259.04 "/>
   <polygon class="fil14" points="164.31,164.3 164.31,164.98 138.24,164.98 138.24,165.65 165.1,165.65 165.1,164.98 165.88,164.98 165.88,118.64 165.1,118.64 165.1,164.3 "/>
   <polygon class="fil79" points="709.18,165.65 709.18,164.98 683.11,164.98 683.11,164.3 682.33,164.3 682.33,118.64 681.55,118.64 681.55,164.98 682.33,164.98 682.33,165.65 "/>
   <polygon class="fil80" points="681.55,118.64 682.33,118.64 682.33,164.3 683.11,164.3 683.11,117.25 656.26,117.25 656.26,117.93 681.55,117.93 "/>
   <polygon class="fil14" points="164.31,353.81 165.1,353.81 165.1,399.48 165.88,399.48 165.88,353.14 165.1,353.14 165.1,352.46 138.24,352.46 138.24,353.14 164.31,353.14 "/>
   <polygon class="fil63" points="218.8,565.13 219.58,565.13 219.58,587.64 220.37,587.64 220.37,564.45 219.58,564.45 219.58,563.78 192.73,563.78 192.73,541.3 191.95,541.3 191.95,564.45 218.8,564.45 "/>
   <polygon class="fil19" points="465.17,446.53 465.17,377 464.38,377 464.38,446.53 "/>
   <polygon class="fil52" points="382.26,259.75 382.26,259.04 301.7,259.04 301.7,259.75 "/>
   <polygon class="fil52" points="545.72,259.75 545.72,259.04 465.17,259.04 465.17,259.75 "/>
   <polygon class="fil23" points="655.48,447.2 655.48,446.53 654.69,446.53 654.69,400.19 628.63,400.19 628.63,400.86 653.91,400.86 653.91,447.2 "/>
   <polygon class="fil81" points="600.99,469.71 600.99,400.19 600.21,400.19 600.21,469.71 "/>
   <polygon class="fil81" points="247.22,469.71 247.22,400.19 246.43,400.19 246.43,469.71 "/>
   <polygon class="fil82" points="383.04,377 382.26,377 382.26,446.53 383.04,446.53 "/>
   <polygon class="fil83" points="356.19,446.53 356.19,377 355.41,377 355.41,446.53 "/>
   <polygon class="fil40" points="246.43,470.39 246.43,400.86 245.65,400.86 245.65,470.39 "/>
   <polygon class="fil84" points="492.02,446.53 492.02,377 491.23,377 491.23,446.53 "/>
   <polygon class="fil11" points="165.88,118.64 165.88,164.98 166.7,164.98 166.7,119.32 192.73,119.32 192.73,117.93 191.95,117.93 191.95,118.64 "/>
   <polygon class="fil50" points="328.56,47.73 274.07,47.73 274.07,70.92 274.85,70.92 274.85,48.41 328.56,48.41 "/>
   <polygon class="fil85" points="573.36,70.24 574.14,70.24 574.14,47.05 519.65,47.05 519.65,47.73 573.36,47.73 "/>
   <polygon class="fil86" points="572.57,376.32 572.57,375.62 492.02,375.62 492.02,376.32 "/>
   <polygon class="fil86" points="355.41,376.32 355.41,375.62 274.85,375.62 274.85,376.32 "/>
   <polygon class="fil32" points="545.72,282.23 545.72,281.55 465.17,281.55 465.17,282.23 "/>
   <polygon class="fil87" points="463.6,377 463.6,376.32 438.31,376.32 438.31,375.62 437.53,375.62 437.53,353.14 410.68,353.14 410.68,353.81 436.75,353.81 436.75,376.32 437.53,376.32 437.53,377 "/>
   <polygon class="fil40" points="601.77,400.86 600.99,400.86 600.99,469.71 601.77,469.71 "/>
   <polygon class="fil72" points="246.43,375.62 246.43,306.77 245.65,306.77 245.65,375.62 "/>
   <polygon class="fil88" points="654.69,306.09 654.69,305.41 628.63,305.41 628.63,259.75 627.84,259.75 627.84,306.09 "/>
   <polygon class="fil70" points="600.99,305.41 600.99,306.09 627.84,306.09 627.84,259.75 627.06,259.75 627.06,305.41 "/>
   <polygon class="fil64" points="246.43,400.19 246.43,399.48 220.37,399.48 220.37,377 246.43,377 246.43,376.32 219.58,376.32 219.58,400.19 "/>
   <polygon class="fil89" points="572.57,377 572.57,376.32 492.8,376.32 492.8,377 "/>
   <polygon class="fil89" points="354.63,377 354.63,376.32 274.85,376.32 274.85,377 "/>
   <polygon class="fil75" points="600.21,470.39 600.21,469.71 547.29,469.71 547.29,447.88 546.5,447.88 546.5,470.39 "/>
   <polygon class="fil6" points="492.02,493.57 545.72,493.57 545.72,471.06 544.94,471.06 544.94,492.9 492.02,492.9 "/>
   <polygon class="fil58" points="355.41,493.57 355.41,492.9 302.49,492.9 302.49,471.06 301.7,471.06 301.7,493.57 "/>
   <polygon class="fil90" points="302.49,469.71 302.49,447.88 354.63,447.88 354.63,447.2 301.7,447.2 301.7,469.71 "/>
   <polygon class="fil39" points="327.77,751.94 327.77,751.26 302.49,751.26 302.49,706.24 301.7,706.24 301.7,751.94 "/>
   <polygon class="fil51" points="572.57,70.92 572.57,48.41 519.65,48.41 519.65,49.08 571.79,49.08 571.79,70.92 "/>
   <polygon class="fil91" points="248,469.04 248,469.71 300.92,469.71 300.92,447.88 300.14,447.88 300.14,469.04 "/>
   <polygon class="fil92" points="492.8,469.04 492.8,469.71 545.72,469.71 545.72,447.88 544.94,447.88 544.94,469.04 "/>
   <polygon class="fil32" points="383.83,305.41 383.83,283.61 409.11,283.61 409.11,305.41 409.9,305.41 409.9,282.9 383.04,282.9 383.04,305.41 "/>
   <polygon class="fil93" points="438.31,305.41 438.31,283.61 463.6,283.61 463.6,305.41 464.38,305.41 464.38,282.9 437.53,282.9 437.53,305.41 "/>
   <polygon class="fil16" points="436.75,351.79 411.46,351.79 411.46,330.63 436.75,330.63 436.75,329.95 410.68,329.95 410.68,352.46 436.75,352.46 "/>
   <polygon class="fil94" points="546.5,587.64 572.57,587.64 572.57,565.13 546.5,565.13 546.5,565.84 571.79,565.84 571.79,586.96 546.5,586.96 "/>
   <polygon class="fil12" points="627.84,587.64 627.84,588.31 600.99,588.31 600.99,587.64 600.21,587.64 600.21,588.99 629.41,588.99 629.41,565.13 628.63,565.13 628.63,587.64 "/>
   <polygon class="fil69" points="409.11,352.46 409.9,352.46 409.9,329.95 410.68,329.95 410.68,329.28 436.75,329.28 436.75,329.95 438.31,329.95 438.31,328.6 409.9,328.6 409.9,329.28 409.11,329.28 "/>
   <polygon class="fil17" points="409.11,563.78 409.9,563.78 409.9,541.3 410.68,541.3 410.68,540.59 436.75,540.59 436.75,541.3 437.53,541.3 437.53,539.91 409.9,539.91 409.9,540.59 409.11,540.59 "/>
   <polygon class="fil95" points="491.23,705.56 492.02,705.56 492.02,704.21 437.53,704.21 437.53,704.89 491.23,704.89 "/>
   <polygon class="fil95" points="409.9,704.89 409.9,704.21 355.41,704.21 355.41,705.56 356.19,705.56 356.19,704.89 "/>
   <polygon class="fil60" points="654.69,94.78 655.48,94.78 655.48,117.25 656.26,117.25 656.26,93.39 628.63,93.39 628.63,94.1 654.69,94.1 "/>
   <polygon class="fil96" points="300.92,681.7 300.92,635.36 301.7,635.36 301.7,634.69 300.14,634.69 300.14,681.7 "/>
   <polygon class="fil96" points="301.7,752.61 301.7,751.94 300.92,751.94 300.92,705.56 300.14,705.56 300.14,752.61 "/>
   <polygon class="fil97" points="409.9,751.94 409.9,752.61 411.46,752.61 411.46,705.56 410.68,705.56 410.68,751.94 "/>
   <polygon class="fil95" points="409.9,682.41 356.19,682.41 356.19,681.7 355.41,681.7 355.41,683.09 409.9,683.09 "/>
   <polygon class="fil95" points="437.53,682.41 437.53,683.09 492.02,683.09 492.02,681.7 491.23,681.7 491.23,682.41 "/>
   <polygon class="fil98" points="327.77,800.34 327.77,799.66 274.07,799.66 274.07,798.95 273.29,798.95 273.29,800.34 "/>
   <polygon class="fil12" points="191.95,117.25 191.95,94.1 218.8,94.1 218.8,93.39 191.16,93.39 191.16,117.25 "/>
   <polygon class="fil99" points="165.88,400.19 165.88,399.48 165.1,399.48 165.1,353.81 164.31,353.81 164.31,400.19 "/>
   <polygon class="fil38" points="654.69,305.41 654.69,306.09 656.26,306.09 656.26,259.75 655.48,259.75 655.48,305.41 "/>
   <polygon class="fil8" points="572.57,751.94 573.36,751.94 573.36,729.43 574.14,729.43 574.14,728.75 600.21,728.75 600.21,728.07 573.36,728.07 573.36,728.75 572.57,728.75 "/>
   <polygon class="fil68" points="300.92,588.31 301.7,588.31 301.7,610.82 302.49,610.82 302.49,587.64 301.7,587.64 301.7,586.96 274.85,586.96 274.85,587.64 300.92,587.64 "/>
   <polygon class="fil100" points="191.95,541.3 192.73,541.3 192.73,563.78 193.51,563.78 193.51,540.59 192.73,540.59 192.73,539.91 165.88,539.91 165.88,540.59 191.95,540.59 "/>
   <polygon class="fil71" points="653.91,563.78 654.69,563.78 654.69,541.3 655.48,541.3 655.48,540.59 681.55,540.59 681.55,539.91 654.69,539.91 654.69,540.59 653.91,540.59 "/>
   <polygon class="fil101" points="627.84,71.59 627.84,70.92 574.14,70.92 574.14,71.59 "/>
   <polygon class="fil102" points="409.9,682.41 409.9,681.7 356.19,681.7 356.19,682.41 "/>
   <polygon class="fil103" points="409.9,635.36 409.9,634.69 356.19,634.69 356.19,635.36 "/>
   <polygon class="fil35" points="627.84,587.64 601.77,587.64 601.77,586.96 600.99,586.96 600.99,565.13 600.21,565.13 600.21,587.64 600.99,587.64 600.99,588.31 627.84,588.31 "/>
   <polygon class="fil104" points="546.5,705.56 545.72,705.56 545.72,751.94 546.5,751.94 "/>
   <polygon class="fil104" points="492.02,705.56 491.23,705.56 491.23,751.94 492.02,751.94 "/>
   <polygon class="fil62" points="301.7,751.94 301.7,705.56 300.92,705.56 300.92,751.94 "/>
   <polygon class="fil105" points="574.14,446.53 574.14,400.19 573.36,400.19 573.36,446.53 "/>
   <polygon class="fil106" points="329.34,751.94 329.34,705.56 328.56,705.56 328.56,751.94 "/>
   <polygon class="fil107" points="410.68,705.56 409.9,705.56 409.9,751.94 410.68,751.94 "/>
   <polygon class="fil59" points="437.53,751.94 437.53,705.56 436.75,705.56 436.75,751.94 "/>
   <polygon class="fil106" points="329.34,681.7 329.34,635.36 328.56,635.36 328.56,681.7 "/>
   <polygon class="fil107" points="410.68,681.7 410.68,635.36 409.9,635.36 409.9,681.7 "/>
   <polygon class="fil6" points="191.95,306.09 191.95,259.75 191.16,259.75 191.16,306.09 "/>
   <polygon class="fil66" points="600.21,471.06 600.21,470.39 546.5,470.39 546.5,471.06 "/>
   <polygon class="fil66" points="300.92,471.06 300.92,470.39 247.22,470.39 247.22,471.06 "/>
   <polygon class="fil32" points="627.84,70.92 627.84,70.24 574.14,70.24 574.14,70.92 "/>
   <polygon class="fil7" points="355.41,471.06 355.41,470.39 301.7,470.39 301.7,471.06 "/>
   <polygon class="fil108" points="409.9,752.61 409.9,751.94 356.19,751.94 356.19,752.61 "/>
   <polygon class="fil109" points="327.77,799.66 327.77,798.95 274.07,798.95 274.07,799.66 "/>
   <polygon class="fil109" points="573.36,798.95 519.65,798.95 519.65,799.66 573.36,799.66 "/>
   <polygon class="fil7" points="355.41,518.11 355.41,517.44 301.7,517.44 301.7,518.11 "/>
   <polygon class="fil30" points="327.77,47.73 327.77,47.05 274.07,47.05 274.07,47.73 "/>
   <polygon class="fil101" points="273.29,71.59 273.29,70.92 220.37,70.92 220.37,71.59 "/>
   <polygon class="fil103" points="491.23,635.36 491.23,634.69 438.31,634.69 438.31,635.36 "/>
   <polygon class="fil33" points="627.06,541.3 627.06,540.59 574.14,540.59 574.14,541.3 "/>
   <polygon class="fil90" points="327.77,400.86 327.77,400.19 274.85,400.19 274.85,400.86 "/>
   <polygon class="fil110" points="491.23,751.94 491.23,751.26 438.31,751.26 438.31,751.94 "/>
   <polygon class="fil111" points="545.72,447.88 545.72,447.2 492.8,447.2 492.8,447.88 "/>
   <polygon class="fil112" points="273.29,541.3 273.29,540.59 220.37,540.59 220.37,541.3 "/>
   <polygon class="fil112" points="545.72,610.82 546.5,610.82 546.5,588.99 547.29,588.99 547.29,588.31 572.57,588.31 572.57,587.64 546.5,587.64 546.5,588.31 545.72,588.31 "/>
   <polygon class="fil103" points="519.65,751.94 519.65,706.24 518.87,706.24 518.87,751.94 "/>
   <polygon class="fil113" points="438.31,751.94 438.31,706.24 437.53,706.24 437.53,751.94 "/>
   <polygon class="fil114" points="302.49,518.11 301.7,518.11 301.7,563.78 302.49,563.78 "/>
   <polygon class="fil6" points="545.72,563.78 545.72,518.11 544.94,518.11 544.94,563.78 "/>
   <polygon class="fil115" points="328.56,751.94 328.56,706.24 327.77,706.24 327.77,751.94 "/>
   <polygon class="fil35" points="655.48,259.75 654.69,259.75 654.69,305.41 655.48,305.41 "/>
   <polygon class="fil62" points="301.7,681.02 301.7,635.36 300.92,635.36 300.92,681.02 "/>
   <polygon class="fil113" points="438.31,681.02 438.31,635.36 437.53,635.36 437.53,681.02 "/>
   <polygon class="fil33" points="192.73,305.41 192.73,259.75 191.95,259.75 191.95,305.41 "/>
   <polygon class="fil116" points="356.19,681.02 356.19,635.36 355.41,635.36 355.41,681.02 "/>
   <polygon class="fil115" points="328.56,681.02 328.56,635.36 327.77,635.36 327.77,681.02 "/>
   <polygon class="fil103" points="519.65,681.02 519.65,635.36 518.87,635.36 518.87,681.02 "/>
   <polygon class="fil104" points="546.5,681.02 546.5,635.36 545.72,635.36 545.72,681.02 "/>
   <polygon class="fil104" points="492.02,681.02 492.02,635.36 491.23,635.36 491.23,681.02 "/>
   <polygon class="fil79" points="600.21,564.45 600.21,563.78 574.14,563.78 574.14,541.3 573.36,541.3 573.36,564.45 "/>
   <polygon class="fil117" points="574.14,587.64 574.14,565.13 600.21,565.13 600.21,564.45 573.36,564.45 573.36,587.64 "/>
   <polygon class="fil13" points="192.73,516.73 192.73,517.44 219.58,517.44 219.58,494.25 218.8,494.25 218.8,516.73 "/>
   <polygon class="fil70" points="274.85,587.64 274.85,565.13 300.92,565.13 300.92,564.45 274.07,564.45 274.07,587.64 "/>
   <polygon class="fil118" points="628.63,399.48 628.63,377 654.69,377 654.69,376.32 627.84,376.32 627.84,399.48 "/>
   <polygon class="fil47" points="218.8,540.59 219.58,540.59 219.58,517.44 192.73,517.44 192.73,518.11 218.8,518.11 "/>
   <polygon class="fil45" points="219.58,94.78 192.73,94.78 192.73,117.93 193.51,117.93 193.51,95.45 219.58,95.45 "/>
   <polygon class="fil5" points="192.73,117.25 192.73,94.78 218.8,94.78 218.8,94.1 191.95,94.1 191.95,117.25 "/>
   <polygon class="fil30" points="463.6,471.06 463.6,470.39 438.31,470.39 438.31,469.71 437.53,469.71 437.53,447.88 436.75,447.88 436.75,470.39 437.53,470.39 437.53,471.06 "/>
   <polygon class="fil75" points="300.92,470.39 300.92,469.71 248,469.71 248,470.39 "/>
   <polygon class="fil119" points="273.29,71.59 220.37,71.59 220.37,72.27 273.29,72.27 "/>
   <polygon class="fil119" points="627.06,72.27 627.06,71.59 574.14,71.59 574.14,72.27 "/>
   <polygon class="fil8" points="354.63,470.39 354.63,469.71 301.7,469.71 301.7,470.39 "/>
   <polygon class="fil120" points="327.77,400.19 327.77,399.48 274.85,399.48 274.85,400.19 "/>
   <polygon class="fil121" points="491.23,681.7 491.23,681.02 438.31,681.02 438.31,681.7 "/>
   <polygon class="fil108" points="491.23,751.94 438.31,751.94 438.31,752.61 491.23,752.61 "/>
   <polygon class="fil8" points="545.72,516.73 492.8,516.73 492.8,517.44 545.72,517.44 "/>
   <polygon class="fil120" points="572.57,400.19 572.57,399.48 519.65,399.48 519.65,400.19 "/>
   <polygon class="fil8" points="545.72,470.39 545.72,469.71 492.8,469.71 492.8,470.39 "/>
   <polygon class="fil107" points="491.23,705.56 491.23,704.89 438.31,704.89 438.31,705.56 "/>
   <polygon class="fil122" points="491.23,706.24 491.23,705.56 438.31,705.56 438.31,706.24 "/>
   <polygon class="fil110" points="491.23,636.04 491.23,635.36 438.31,635.36 438.31,636.04 "/>
   <polygon class="fil123" points="547.29,563.78 547.29,564.45 573.36,564.45 573.36,541.3 572.57,541.3 572.57,563.78 "/>
   <polygon class="fil124" points="274.85,586.96 275.64,586.96 275.64,565.84 301.7,565.84 301.7,564.45 300.92,564.45 300.92,565.13 274.85,565.13 "/>
   <polygon class="fil125" points="300.92,611.5 300.92,588.31 274.85,588.31 274.85,588.99 300.14,588.99 300.14,611.5 "/>
   <polygon class="fil126" points="274.85,445.85 274.85,446.53 300.92,446.53 300.92,423.34 300.14,423.34 300.14,445.85 "/>
   <polygon class="fil48" points="572.57,586.96 573.36,586.96 573.36,564.45 546.5,564.45 546.5,565.13 572.57,565.13 "/>
   <polygon class="fil127" points="654.69,117.93 654.69,94.78 628.63,94.78 628.63,95.45 653.91,95.45 653.91,117.93 "/>
   <polygon class="fil128" points="218.8,399.48 219.58,399.48 219.58,376.32 193.51,376.32 193.51,377 218.8,377 "/>
   <polygon class="fil45" points="409.9,282.23 409.9,281.55 383.83,281.55 383.83,259.75 383.04,259.75 383.04,282.23 "/>
   <polygon class="fil45" points="437.53,282.23 464.38,282.23 464.38,259.75 463.6,259.75 463.6,281.55 437.53,281.55 "/>
   <polygon class="fil45" points="601.77,586.96 601.77,587.64 627.84,587.64 627.84,564.45 627.06,564.45 627.06,586.96 "/>
   <polygon class="fil122" points="409.11,706.24 409.11,705.56 356.97,705.56 356.97,706.24 "/>
   <polygon class="fil58" points="574.14,751.26 574.14,751.94 600.21,751.94 600.21,729.43 599.42,729.43 599.42,751.26 "/>
   <polygon class="fil129" points="218.8,540.59 218.8,518.11 192.73,518.11 192.73,518.79 218.02,518.79 218.02,540.59 "/>
   <polygon class="fil72" points="193.51,516.73 193.51,494.93 218.8,494.93 218.8,494.25 192.73,494.25 192.73,516.73 "/>
   <polygon class="fil95" points="519.65,705.56 519.65,704.89 545.72,704.89 545.72,705.56 546.5,705.56 546.5,704.21 518.87,704.21 518.87,705.56 "/>
   <polygon class="fil95" points="546.5,681.7 545.72,681.7 545.72,682.41 519.65,682.41 519.65,681.7 518.87,681.7 518.87,683.09 546.5,683.09 "/>
   <polygon class="fil9" points="355.41,517.44 355.41,518.11 356.97,518.11 356.97,494.25 356.19,494.25 356.19,517.44 "/>
   <polygon class="fil97" points="328.56,682.41 301.7,682.41 301.7,681.7 300.92,681.7 300.92,683.09 328.56,683.09 "/>
   <polygon class="fil98" points="219.58,588.31 219.58,588.99 247.22,588.99 247.22,587.64 246.43,587.64 246.43,588.31 "/>
   <polygon class="fil6" points="410.68,447.2 410.68,446.53 437.53,446.53 437.53,445.85 409.9,445.85 409.9,447.2 "/>
   <polygon class="fil130" points="547.29,447.2 547.29,447.88 574.14,447.88 574.14,446.53 573.36,446.53 573.36,447.2 "/>
   <polygon class="fil6" points="545.72,610.82 545.72,588.31 546.5,588.31 546.5,587.64 544.94,587.64 544.94,610.82 "/>
   <polygon class="fil38" points="656.26,399.48 656.26,376.32 654.69,376.32 654.69,377 655.48,377 655.48,399.48 "/>
   <polygon class="fil56" points="628.63,94.78 628.63,94.1 627.84,94.1 627.84,71.59 627.06,71.59 627.06,94.78 "/>
   <polygon class="fil6" points="654.69,494.25 655.48,494.25 655.48,492.9 628.63,492.9 628.63,493.57 654.69,493.57 "/>
   <polygon class="fil131" points="327.77,635.36 328.56,635.36 328.56,634.01 301.7,634.01 301.7,634.69 327.77,634.69 "/>
   <polygon class="fil50" points="464.38,564.45 438.31,564.45 438.31,563.78 437.53,563.78 437.53,565.13 464.38,565.13 "/>
   <polygon class="fil109" points="682.33,540.59 655.48,540.59 655.48,541.3 682.33,541.3 "/>
   <polygon class="fil132" points="464.38,306.09 437.53,306.09 437.53,306.77 464.38,306.77 "/>
   <polygon class="fil132" points="409.9,306.09 383.04,306.09 383.04,306.77 409.9,306.77 "/>
   <polygon class="fil85" points="627.84,728.75 600.99,728.75 600.99,729.43 627.84,729.43 "/>
   <polygon class="fil65" points="709.96,353.14 683.11,353.14 683.11,353.81 709.96,353.81 "/>
   <polygon class="fil53" points="246.43,587.64 219.58,587.64 219.58,588.31 246.43,588.31 "/>
   <polygon class="fil95" points="328.56,704.89 328.56,704.21 301.7,704.21 301.7,704.89 "/>
   <polygon class="fil65" points="164.31,353.81 164.31,353.14 137.46,353.14 137.46,353.81 "/>
   <polygon class="fil7" points="573.36,375.62 574.14,375.62 574.14,353.14 572.57,353.14 572.57,353.81 573.36,353.81 "/>
   <polygon class="fil75" points="329.34,423.34 329.34,400.19 328.56,400.19 328.56,423.34 "/>
   <polygon class="fil133" points="518.87,423.34 518.87,400.19 518.09,400.19 518.09,423.34 "/>
   <polygon class="fil30" points="628.63,94.1 628.63,70.92 627.84,70.92 627.84,94.1 "/>
   <polygon class="fil57" points="219.58,588.31 219.58,565.13 218.8,565.13 218.8,588.31 "/>
   <polygon class="fil20" points="682.33,447.2 682.33,446.53 655.48,446.53 655.48,447.2 "/>
   <polygon class="fil80" points="218.8,565.13 218.8,564.45 191.95,564.45 191.95,565.13 "/>
   <polygon class="fil98" points="191.95,541.97 191.95,541.3 165.1,541.3 165.1,541.97 "/>
   <polygon class="fil20" points="191.95,446.53 165.1,446.53 165.1,447.2 191.95,447.2 "/>
   <polygon class="fil134" points="328.56,752.61 301.7,752.61 301.7,753.29 328.56,753.29 "/>
   <polygon class="fil65" points="709.96,164.98 709.96,164.3 683.11,164.3 683.11,164.98 "/>
   <polygon class="fil50" points="409.9,564.45 383.04,564.45 383.04,565.13 409.9,565.13 "/>
   <polygon class="fil65" points="164.31,164.3 137.46,164.3 137.46,164.98 164.31,164.98 "/>
   <polygon class="fil70" points="383.83,471.06 383.83,470.39 409.11,470.39 409.11,469.71 383.04,469.71 383.04,471.06 "/>
   <polygon class="fil88" points="246.43,611.5 246.43,610.82 219.58,610.82 219.58,611.5 "/>
   <polygon class="fil25" points="436.75,447.88 436.75,447.2 410.68,447.2 410.68,447.88 "/>
   <polygon class="fil109" points="300.92,588.31 300.92,587.64 274.85,587.64 274.85,588.31 "/>
   <polygon class="fil33" points="436.75,541.3 436.75,540.59 410.68,540.59 410.68,541.3 "/>
   <polygon class="fil46" points="681.55,118.64 681.55,117.93 655.48,117.93 655.48,118.64 "/>
   <polygon class="fil52" points="654.69,259.75 654.69,259.04 628.63,259.04 628.63,259.75 "/>
   <polygon class="fil52" points="218.8,259.75 218.8,259.04 192.73,259.04 192.73,259.75 "/>
   <polygon class="fil46" points="191.95,117.93 165.88,117.93 165.88,118.64 191.95,118.64 "/>
   <polygon class="fil102" points="545.72,681.7 519.65,681.7 519.65,682.41 545.72,682.41 "/>
   <polygon class="fil103" points="327.77,635.36 327.77,634.69 301.7,634.69 301.7,635.36 "/>
   <polygon class="fil103" points="545.72,635.36 545.72,634.69 519.65,634.69 519.65,635.36 "/>
   <polygon class="fil102" points="327.77,682.41 327.77,681.7 301.7,681.7 301.7,682.41 "/>
   <polygon class="fil50" points="438.31,469.71 438.31,447.2 437.53,447.2 437.53,469.71 "/>
   <polygon class="fil24" points="492.02,469.71 492.02,447.2 491.23,447.2 491.23,469.71 "/>
   <polygon class="fil69" points="409.9,469.71 409.9,447.2 409.11,447.2 409.11,469.71 "/>
   <polygon class="fil67" points="410.68,469.71 410.68,447.2 409.9,447.2 409.9,469.71 "/>
   <polygon class="fil135" points="519.65,422.66 519.65,400.19 518.87,400.19 518.87,422.66 "/>
   <polygon class="fil27" points="356.19,447.2 355.41,447.2 355.41,469.71 356.19,469.71 "/>
   <polygon class="fil52" points="274.07,70.24 274.07,47.73 273.29,47.73 273.29,70.24 "/>
   <polygon class="fil7" points="574.14,751.94 574.14,729.43 573.36,729.43 573.36,751.94 "/>
   <polygon class="fil70" points="573.36,70.92 573.36,48.41 572.57,48.41 572.57,70.92 "/>
   <polygon class="fil136" points="628.63,518.11 627.84,518.11 627.84,540.59 628.63,540.59 "/>
   <polygon class="fil137" points="274.85,376.32 274.85,353.81 274.07,353.81 274.07,376.32 "/>
   <polygon class="fil8" points="573.36,376.32 573.36,353.81 572.57,353.81 572.57,376.32 "/>
   <polygon class="fil138" points="655.48,117.25 655.48,94.78 654.69,94.78 654.69,117.25 "/>
   <polygon class="fil18" points="410.68,563.78 410.68,541.3 409.9,541.3 409.9,563.78 "/>
   <polygon class="fil138" points="655.48,541.3 654.69,541.3 654.69,563.78 655.48,563.78 "/>
   <polygon class="fil87" points="274.07,541.3 273.29,541.3 273.29,563.78 274.07,563.78 "/>
   <polygon class="fil14" points="437.53,305.41 437.53,282.9 436.75,282.9 436.75,305.41 "/>
   <polygon class="fil14" points="437.53,563.78 437.53,541.3 436.75,541.3 436.75,563.78 "/>
   <polygon class="fil10" points="438.31,563.78 438.31,541.3 437.53,541.3 437.53,563.78 "/>
   <polygon class="fil137" points="274.85,751.94 274.85,729.43 274.07,729.43 274.07,751.94 "/>
   <polygon class="fil14" points="220.37,71.59 219.58,71.59 219.58,94.1 220.37,94.1 "/>
   <polygon class="fil139" points="546.5,282.23 546.5,259.75 545.72,259.75 545.72,282.23 "/>
   <polygon class="fil119" points="300.92,282.23 300.92,259.75 300.14,259.75 300.14,282.23 "/>
   <polygon class="fil112" points="301.7,282.23 301.7,259.75 300.92,259.75 300.92,282.23 "/>
   <polygon class="fil18" points="410.68,305.41 410.68,282.9 409.9,282.9 409.9,305.41 "/>
   <polygon class="fil138" points="247.22,587.64 247.22,565.13 246.43,565.13 246.43,587.64 "/>
   <polygon class="fil140" points="248,565.13 247.22,565.13 247.22,587.64 248,587.64 "/>
   <polygon class="fil72" points="654.69,377 653.91,377 653.91,399.48 654.69,399.48 "/>
   <polygon class="fil21" points="600.21,587.64 600.21,565.13 599.42,565.13 599.42,587.64 "/>
   <polygon class="fil60" points="600.21,399.48 600.21,377 599.42,377 599.42,399.48 "/>
   <polygon class="fil30" points="628.63,565.13 627.84,565.13 627.84,587.64 628.63,587.64 "/>
   <polygon class="fil75" points="573.36,377 572.57,377 572.57,399.48 573.36,399.48 "/>
   <polygon class="fil93" points="547.29,493.57 547.29,471.06 546.5,471.06 546.5,493.57 "/>
   <polygon class="fil105" points="274.85,399.48 274.85,377 274.07,377 274.07,399.48 "/>
   <polygon class="fil140" points="193.51,399.48 193.51,377 192.73,377 192.73,399.48 "/>
   <polygon class="fil71" points="601.77,399.48 601.77,377 600.99,377 600.99,399.48 "/>
   <polygon class="fil35" points="301.7,610.82 301.7,588.31 300.92,588.31 300.92,610.82 "/>
   <polygon class="fil19" points="519.65,47.05 519.65,24.54 518.87,24.54 518.87,47.05 "/>
   <polygon class="fil52" points="274.07,798.95 274.07,776.47 273.29,776.47 273.29,798.95 "/>
   <polygon class="fil47" points="274.85,798.95 274.85,776.47 274.07,776.47 274.07,798.95 "/>
   <polygon class="fil128" points="573.36,776.47 573.36,798.95 574.14,798.95 574.14,776.47 "/>
   <polygon class="fil27" points="356.19,516.73 356.19,494.25 355.41,494.25 355.41,516.73 "/>
   <polygon class="fil18" points="492.02,516.73 492.02,494.25 491.23,494.25 491.23,516.73 "/>
   <polygon class="fil47" points="329.34,822.14 329.34,799.66 328.56,799.66 328.56,822.14 "/>
   <polygon class="fil35" points="655.48,516.73 655.48,494.25 654.69,494.25 654.69,516.73 "/>
   <polygon class="fil33" points="192.73,516.73 192.73,494.25 191.95,494.25 191.95,516.73 "/>
   <polygon class="fil52" points="328.56,24.54 327.77,24.54 327.77,47.05 328.56,47.05 "/>
   <polygon class="fil141" points="654.69,94.78 654.69,94.1 628.63,94.1 628.63,94.78 "/>
   <polygon class="fil14" points="273.29,563.78 247.22,563.78 247.22,564.45 273.29,564.45 "/>
   <polygon class="fil18" points="436.75,447.2 436.75,446.53 410.68,446.53 410.68,447.2 "/>
   <polygon class="fil7" points="654.69,517.44 628.63,517.44 628.63,518.11 654.69,518.11 "/>
   <polygon class="fil14" points="654.69,563.78 628.63,563.78 628.63,564.45 654.69,564.45 "/>
   <polygon class="fil142" points="436.75,329.95 436.75,329.28 410.68,329.28 410.68,329.95 "/>
   <polygon class="fil98" points="573.36,588.31 547.29,588.31 547.29,588.99 573.36,588.99 "/>
   <polygon class="fil67" points="382.26,446.53 356.19,446.53 356.19,447.2 382.26,447.2 "/>
   <polygon class="fil47" points="654.69,259.04 654.69,258.37 628.63,258.37 628.63,259.04 "/>
   <polygon class="fil112" points="273.29,752.61 273.29,751.94 247.22,751.94 247.22,752.61 "/>
   <polygon class="fil143" points="436.75,541.97 436.75,541.3 410.68,541.3 410.68,541.97 "/>
   <polygon class="fil112" points="600.21,752.61 600.21,751.94 574.14,751.94 574.14,752.61 "/>
   <polygon class="fil70" points="627.06,728.75 627.06,728.07 600.99,728.07 600.99,728.75 "/>
   <polygon class="fil123" points="409.9,470.39 383.83,470.39 383.83,471.06 409.9,471.06 "/>
   <polygon class="fil67" points="491.23,447.2 491.23,446.53 465.17,446.53 465.17,447.2 "/>
   <polygon class="fil144" points="327.77,423.34 327.77,422.66 301.7,422.66 301.7,423.34 "/>
   <polygon class="fil88" points="409.9,306.09 409.9,305.41 383.83,305.41 383.83,306.09 "/>
   <polygon class="fil107" points="327.77,705.56 327.77,704.89 301.7,704.89 301.7,705.56 "/>
   <polygon class="fil46" points="409.9,377 409.9,376.32 383.83,376.32 383.83,377 "/>
   <polygon class="fil65" points="409.11,376.32 409.11,375.62 383.04,375.62 383.04,376.32 "/>
   <polygon class="fil65" points="464.38,376.32 464.38,375.62 438.31,375.62 438.31,376.32 "/>
   <polygon class="fil145" points="327.77,424.02 327.77,423.34 301.7,423.34 301.7,424.02 "/>
   <polygon class="fil145" points="545.72,424.02 545.72,423.34 519.65,423.34 519.65,424.02 "/>
   <polygon class="fil70" points="246.43,728.75 246.43,728.07 220.37,728.07 220.37,728.75 "/>
   <polygon class="fil108" points="327.77,752.61 327.77,751.94 301.7,751.94 301.7,752.61 "/>
   <polygon class="fil108" points="545.72,751.94 519.65,751.94 519.65,752.61 545.72,752.61 "/>
   <polygon class="fil70" points="464.38,470.39 464.38,469.71 438.31,469.71 438.31,470.39 "/>
   <polygon class="fil118" points="409.9,564.45 409.9,563.78 383.83,563.78 383.83,564.45 "/>
   <polygon class="fil107" points="545.72,705.56 545.72,704.89 519.65,704.89 519.65,705.56 "/>
   <polygon class="fil66" points="328.56,422.66 328.56,400.86 327.77,400.86 327.77,422.66 "/>
   <polygon class="fil32" points="355.41,469.71 355.41,447.88 354.63,447.88 354.63,469.71 "/>
   <polygon class="fil93" points="492.8,469.71 492.8,447.88 492.02,447.88 492.02,469.71 "/>
   <polygon class="fil118" points="463.6,564.45 463.6,563.78 438.31,563.78 438.31,564.45 "/>
   <polygon class="fil88" points="463.6,306.09 463.6,305.41 438.31,305.41 438.31,306.09 "/>
   <polygon class="fil122" points="327.77,706.24 327.77,705.56 302.49,705.56 302.49,706.24 "/>
   <polygon class="fil38" points="245.65,587.64 245.65,586.96 220.37,586.96 220.37,587.64 "/>
   <polygon class="fil125" points="274.07,729.43 274.85,729.43 274.85,728.07 273.29,728.07 273.29,728.75 274.07,728.75 "/>
   <polygon class="fil125" points="274.07,776.47 274.07,775.8 274.85,775.8 274.85,775.12 273.29,775.12 273.29,776.47 "/>
   <polygon class="fil9" points="627.84,259.75 627.84,259.04 628.63,259.04 628.63,258.37 627.06,258.37 627.06,259.75 "/>
   <polygon class="fil71" points="465.17,471.06 465.17,469.71 464.38,469.71 464.38,471.06 "/>
   <polygon class="fil9" points="628.63,564.45 628.63,563.78 627.06,563.78 627.06,564.45 "/>
   <polygon class="fil100" points="574.14,353.14 574.14,352.46 572.57,352.46 572.57,353.14 "/>
   <polygon class="fil146" points="574.14,377 574.14,376.32 572.57,376.32 572.57,377 "/>
   <polygon class="fil68" points="383.04,471.06 383.04,469.71 382.26,469.71 382.26,471.06 "/>
   <polygon class="fil146" points="274.85,377 274.85,376.32 273.29,376.32 273.29,377 "/>
   <polygon class="fil43" points="410.68,635.36 410.68,634.69 409.9,634.69 409.9,635.36 "/>
   <polygon class="fil44" points="437.53,635.36 437.53,634.69 436.75,634.69 436.75,635.36 "/>
   <polygon class="fil59" points="438.31,635.36 438.31,634.69 437.53,634.69 437.53,635.36 "/>
   <polygon class="fil8" points="274.85,588.31 274.85,587.64 274.07,587.64 274.07,588.31 "/>
   <polygon class="fil6" points="655.48,306.09 654.69,306.09 654.69,306.77 655.48,306.77 "/>
   <polygon class="fil7" points="247.22,306.77 247.22,306.09 246.43,306.09 246.43,306.77 "/>
   <polygon class="fil147" points="328.56,682.41 328.56,681.7 327.77,681.7 327.77,682.41 "/>
   <polygon class="fil95" points="329.34,681.7 328.56,681.7 328.56,682.41 329.34,682.41 "/>
   <polygon class="fil55" points="410.68,681.7 409.9,681.7 409.9,682.41 410.68,682.41 "/>
   <polygon class="fil96" points="437.53,682.41 437.53,681.7 436.75,681.7 436.75,682.41 "/>
   <polygon class="fil70" points="655.48,259.75 655.48,259.04 654.69,259.04 654.69,259.75 "/>
   <polygon class="fil46" points="628.63,259.75 628.63,259.04 627.84,259.04 627.84,259.75 "/>
   <polygon class="fil70" points="301.7,259.75 301.7,259.04 300.92,259.04 300.92,259.75 "/>
   <polygon class="fil70" points="192.73,259.75 192.73,259.04 191.95,259.04 191.95,259.75 "/>
   <polygon class="fil50" points="574.14,71.59 574.14,70.92 573.36,70.92 573.36,71.59 "/>
   <polygon class="fil58" points="573.36,71.59 573.36,70.92 572.57,70.92 572.57,71.59 "/>
   <polygon class="fil148" points="274.07,70.92 273.29,70.92 273.29,71.59 274.07,71.59 "/>
   <polygon class="fil132" points="248,751.94 248,751.26 247.22,751.26 247.22,751.94 "/>
   <polygon class="fil21" points="438.31,541.3 438.31,540.59 437.53,540.59 437.53,541.3 "/>
   <polygon class="fil105" points="547.29,447.88 547.29,447.2 546.5,447.2 546.5,447.88 "/>
   <polygon class="fil45" points="192.73,494.25 192.73,493.57 191.95,493.57 191.95,494.25 "/>
   <polygon class="fil79" points="193.51,494.25 193.51,493.57 192.73,493.57 192.73,494.25 "/>
   <polygon class="fil149" points="492.8,447.88 492.8,447.2 492.02,447.2 492.02,447.88 "/>
   <polygon class="fil34" points="355.41,494.25 355.41,493.57 354.63,493.57 354.63,494.25 "/>
   <polygon class="fil19" points="274.85,776.47 274.85,775.8 274.07,775.8 274.07,776.47 "/>
   <polygon class="fil69" points="356.19,494.25 356.19,493.57 355.41,493.57 355.41,494.25 "/>
   <polygon class="fil5" points="573.36,776.47 573.36,775.8 572.57,775.8 572.57,776.47 "/>
   <polygon class="fil27" points="437.53,447.88 437.53,447.2 436.75,447.2 436.75,447.88 "/>
   <polygon class="fil148" points="220.37,541.3 220.37,540.59 219.58,540.59 219.58,541.3 "/>
   <polygon class="fil149" points="355.41,447.88 355.41,447.2 354.63,447.2 354.63,447.88 "/>
   <polygon class="fil69" points="492.02,494.25 492.02,493.57 491.23,493.57 491.23,494.25 "/>
   <polygon class="fil125" points="573.36,541.3 573.36,540.59 572.57,540.59 572.57,541.3 "/>
   <polygon class="fil47" points="627.84,541.3 627.84,540.59 627.06,540.59 627.06,541.3 "/>
   <polygon class="fil81" points="328.56,400.86 328.56,400.19 327.77,400.19 327.77,400.86 "/>
   <polygon class="fil36" points="246.43,400.86 246.43,400.19 245.65,400.19 245.65,400.86 "/>
   <polygon class="fil125" points="274.07,588.31 274.07,587.64 273.29,587.64 273.29,588.31 "/>
   <polygon class="fil8" points="573.36,588.31 573.36,587.64 572.57,587.64 572.57,588.31 "/>
   <polygon class="fil98" points="574.14,587.64 573.36,587.64 573.36,588.31 574.14,588.31 "/>
   <polygon class="fil55" points="329.34,635.36 329.34,634.69 328.56,634.69 328.56,635.36 "/>
   <polygon class="fil23" points="465.17,259.04 465.17,258.37 464.38,258.37 464.38,259.04 "/>
   <polygon class="fil150" points="574.14,376.32 574.14,375.62 573.36,375.62 573.36,376.32 "/>
   <polygon class="fil47" points="246.43,587.64 246.43,586.96 245.65,586.96 245.65,587.64 "/>
   <polygon class="fil18" points="383.83,306.09 383.83,305.41 383.04,305.41 383.04,306.09 "/>
   <polygon class="fil71" points="247.22,306.09 247.22,305.41 246.43,305.41 246.43,306.09 "/>
   <polygon class="fil151" points="247.22,400.19 247.22,399.48 246.43,399.48 246.43,400.19 "/>
   <polygon class="fil44" points="301.7,705.56 301.7,704.89 300.92,704.89 300.92,705.56 "/>
   <polygon class="fil133" points="328.56,400.19 328.56,399.48 327.77,399.48 327.77,400.19 "/>
   <polygon class="fil147" points="328.56,705.56 328.56,704.89 327.77,704.89 327.77,705.56 "/>
   <polygon class="fil96" points="329.34,705.56 329.34,704.89 328.56,704.89 328.56,705.56 "/>
   <polygon class="fil55" points="410.68,705.56 410.68,704.89 409.9,704.89 409.9,705.56 "/>
   <polygon class="fil134" points="437.53,705.56 437.53,704.89 436.75,704.89 436.75,705.56 "/>
   <polygon class="fil152" points="438.31,705.56 438.31,704.89 437.53,704.89 437.53,705.56 "/>
   <polygon class="fil148" points="192.73,306.09 192.73,305.41 191.95,305.41 191.95,306.09 "/>
   <polygon class="fil28" points="329.34,400.19 329.34,399.48 328.56,399.48 328.56,400.19 "/>
   <polygon class="fil153" points="302.49,706.24 302.49,705.56 301.7,705.56 301.7,706.24 "/>
   <polygon class="fil133" points="519.65,400.19 519.65,399.48 518.87,399.48 518.87,400.19 "/>
   <polygon class="fil62" points="328.56,706.24 328.56,705.56 327.77,705.56 327.77,706.24 "/>
   <polygon class="fil151" points="600.99,400.19 600.99,399.48 600.21,399.48 600.21,400.19 "/>
   <polygon class="fil154" points="409.9,706.24 409.9,705.56 409.11,705.56 409.11,706.24 "/>
   <polygon class="fil116" points="438.31,706.24 438.31,705.56 437.53,705.56 437.53,706.24 "/>
   <polygon class="fil4" points="628.63,565.13 628.63,564.45 627.84,564.45 627.84,565.13 "/>
   <polygon class="fil107" points="519.65,706.24 519.65,705.56 518.87,705.56 518.87,706.24 "/>
   <polygon class="fil47" points="600.99,565.13 600.99,564.45 600.21,564.45 600.21,565.13 "/>
   <polygon class="fil38" points="437.53,282.9 437.53,282.23 436.75,282.23 436.75,282.9 "/>
   <polygon class="fil128" points="302.49,282.23 302.49,281.55 301.7,281.55 301.7,282.23 "/>
   <polygon class="fil47" points="247.22,565.13 247.22,564.45 246.43,564.45 246.43,565.13 "/>
   <polygon class="fil27" points="547.29,564.45 547.29,563.78 546.5,563.78 546.5,564.45 "/>
   <polygon class="fil132" points="546.5,564.45 546.5,563.78 545.72,563.78 545.72,564.45 "/>
   <polygon class="fil5" points="383.83,377 383.83,376.32 383.04,376.32 383.04,377 "/>
   <polygon class="fil18" points="464.38,564.45 464.38,563.78 463.6,563.78 463.6,564.45 "/>
   <polygon class="fil45" points="437.53,564.45 437.53,563.78 436.75,563.78 436.75,564.45 "/>
   <polygon class="fil27" points="627.84,612.18 627.84,611.5 627.06,611.5 627.06,612.18 "/>
   <polygon class="fil132" points="410.68,563.78 409.9,563.78 409.9,564.45 410.68,564.45 "/>
   <polygon class="fil18" points="383.83,564.45 383.83,563.78 383.04,563.78 383.04,564.45 "/>
   <polygon class="fil155" points="627.84,728.75 627.84,728.07 627.06,728.07 627.06,728.75 "/>
   <polygon class="fil45" points="383.04,564.45 383.04,563.78 382.26,563.78 382.26,564.45 "/>
   <polygon class="fil56" points="301.7,564.45 301.7,563.78 300.92,563.78 300.92,564.45 "/>
   <polygon class="fil123" points="600.99,612.18 600.99,611.5 600.21,611.5 600.21,612.18 "/>
   <polygon class="fil58" points="220.37,564.45 220.37,563.78 219.58,563.78 219.58,564.45 "/>
   <polygon class="fil68" points="410.68,376.32 409.9,376.32 409.9,377 410.68,377 "/>
   <polygon class="fil49" points="328.56,423.34 328.56,422.66 327.77,422.66 327.77,423.34 "/>
   <polygon class="fil145" points="519.65,423.34 519.65,422.66 518.87,422.66 518.87,423.34 "/>
   <polygon class="fil86" points="301.7,424.02 301.7,423.34 300.92,423.34 300.92,424.02 "/>
   <polygon class="fil133" points="328.56,424.02 328.56,423.34 327.77,423.34 327.77,424.02 "/>
   <polygon class="fil156" points="329.34,423.34 328.56,423.34 328.56,424.02 329.34,424.02 "/>
   <polygon class="fil151" points="356.19,447.2 356.19,446.53 355.41,446.53 355.41,447.2 "/>
   <polygon class="fil19" points="656.26,117.93 656.26,117.25 655.48,117.25 655.48,117.93 "/>
   <polygon class="fil7" points="655.48,117.93 655.48,117.25 654.69,117.25 654.69,117.93 "/>
   <polygon class="fil7" points="192.73,117.93 192.73,117.25 191.95,117.25 191.95,117.93 "/>
   <polygon class="fil132" points="437.53,447.2 437.53,446.53 436.75,446.53 436.75,447.2 "/>
   <polygon class="fil151" points="492.02,447.2 492.02,446.53 491.23,446.53 491.23,447.2 "/>
   <polygon class="fil64" points="219.58,94.78 219.58,94.1 218.8,94.1 218.8,94.78 "/>
   <polygon class="fil9" points="492.02,518.11 492.02,517.44 491.23,517.44 491.23,518.11 "/>
   <polygon class="fil143" points="192.73,518.11 192.73,517.44 191.95,517.44 191.95,518.11 "/>
   <polygon class="fil47" points="655.48,516.73 654.69,516.73 654.69,517.44 655.48,517.44 "/>
   <polygon class="fil6" points="655.48,376.32 655.48,375.62 654.69,375.62 654.69,376.32 "/>
   <polygon class="fil21" points="301.7,612.18 301.7,611.5 300.92,611.5 300.92,612.18 "/>
   <polygon class="fil20" points="464.38,377 464.38,376.32 463.6,376.32 463.6,377 "/>
   <polygon class="fil138" points="574.14,70.92 574.14,70.24 573.36,70.24 573.36,70.92 "/>
   <polygon class="fil35" points="274.07,70.92 274.07,70.24 273.29,70.24 273.29,70.92 "/>
   <polygon class="fil148" points="492.02,517.44 492.02,516.73 491.23,516.73 491.23,517.44 "/>
   <polygon class="fil48" points="356.19,516.73 355.41,516.73 355.41,517.44 356.19,517.44 "/>
   <polygon class="fil142" points="355.41,517.44 355.41,516.73 354.63,516.73 354.63,517.44 "/>
   <polygon class="fil27" points="573.36,48.41 573.36,47.73 572.57,47.73 572.57,48.41 "/>
   <polygon class="fil50" points="192.73,377 192.73,376.32 191.95,376.32 191.95,377 "/>
   <polygon class="fil70" points="192.73,517.44 192.73,516.73 191.95,516.73 191.95,517.44 "/>
   <polygon class="fil157" points="247.22,470.39 247.22,469.71 246.43,469.71 246.43,470.39 "/>
   <polygon class="fil158" points="248,470.39 248,469.71 247.22,469.71 247.22,470.39 "/>
   <polygon class="fil137" points="247.22,752.61 247.22,751.94 246.43,751.94 246.43,752.61 "/>
   <polygon class="fil142" points="355.41,470.39 355.41,469.71 354.63,469.71 354.63,470.39 "/>
   <polygon class="fil137" points="274.07,752.61 274.07,751.94 273.29,751.94 273.29,752.61 "/>
   <polygon class="fil98" points="274.85,751.94 274.07,751.94 274.07,752.61 274.85,752.61 "/>
   <polygon class="fil101" points="409.9,470.39 409.9,469.71 409.11,469.71 409.11,470.39 "/>
   <polygon class="fil40" points="247.22,471.06 247.22,470.39 246.43,470.39 246.43,471.06 "/>
   <polygon class="fil55" points="329.34,751.94 328.56,751.94 328.56,752.61 329.34,752.61 "/>
   <polygon class="fil40" points="600.99,470.39 600.21,470.39 600.21,471.06 600.99,471.06 "/>
   <polygon class="fil55" points="437.53,752.61 437.53,751.94 436.75,751.94 436.75,752.61 "/>
   <polygon class="fil159" points="438.31,752.61 438.31,751.94 437.53,751.94 437.53,752.61 "/>
   <polygon class="fil9" points="492.02,471.06 492.02,470.39 491.23,470.39 491.23,471.06 "/>
   <polygon class="fil57" points="410.68,469.71 409.9,469.71 409.9,470.39 410.68,470.39 "/>
   <polygon class="fil98" points="573.36,752.61 573.36,751.94 572.57,751.94 572.57,752.61 "/>
   <polygon class="fil137" points="574.14,752.61 574.14,751.94 573.36,751.94 573.36,752.61 "/>
   <polygon class="fil148" points="492.02,470.39 492.02,469.71 491.23,469.71 491.23,470.39 "/>
   <polygon class="fil137" points="600.99,751.94 600.21,751.94 600.21,752.61 600.99,752.61 "/>
   <polygon class="fil157" points="600.99,470.39 600.99,469.71 600.21,469.71 600.21,470.39 "/>
   <polygon class="fil100" points="600.99,306.09 600.99,305.41 600.21,305.41 600.21,306.09 "/>
   <polygon class="fil27" points="464.38,306.09 464.38,305.41 463.6,305.41 463.6,306.09 "/>
   <polygon class="fil17" points="600.99,611.5 600.99,610.82 600.21,610.82 600.21,611.5 "/>
   <polygon class="fil159" points="301.7,681.7 301.7,681.02 300.92,681.02 300.92,681.7 "/>
   <polygon class="fil160" points="328.56,681.7 328.56,681.02 327.77,681.02 327.77,681.7 "/>
   <polygon class="fil59" points="356.19,681.7 356.19,681.02 355.41,681.02 355.41,681.7 "/>
   <polygon class="fil103" points="409.9,681.7 409.9,681.02 409.11,681.02 409.11,681.7 "/>
   <polygon class="fil4" points="438.31,306.09 438.31,305.41 437.53,305.41 437.53,306.09 "/>
   <polygon class="fil59" points="492.02,681.7 492.02,681.02 491.23,681.02 491.23,681.7 "/>
   <polygon class="fil102" points="519.65,681.7 519.65,681.02 518.87,681.02 518.87,681.7 "/>
   <polygon class="fil59" points="546.5,681.7 546.5,681.02 545.72,681.02 545.72,681.7 "/>
   <polygon class="fil144" points="492.02,377 492.02,376.32 491.23,376.32 491.23,377 "/>
   <polygon class="fil150" points="274.07,376.32 274.07,375.62 273.29,375.62 273.29,376.32 "/>
   <polygon class="fil27" points="464.38,471.06 464.38,470.39 463.6,470.39 463.6,471.06 "/>
   <polygon class="fil70" points="328.56,799.66 328.56,798.95 327.77,798.95 327.77,799.66 "/>
   <polygon class="fil8" points="654.69,494.93 654.69,494.25 653.91,494.25 653.91,494.93 "/>
   <polygon class="fil155" points="193.51,377 193.51,376.32 192.73,376.32 192.73,377 "/>
   <polygon class="fil45" points="437.53,306.09 437.53,305.41 436.75,305.41 436.75,306.09 "/>
   <polygon class="fil83" points="355.41,377 355.41,376.32 354.63,376.32 354.63,377 "/>
   <polygon class="fil25" points="383.04,377 383.04,376.32 382.26,376.32 382.26,377 "/>
   <polygon class="fil57" points="301.7,611.5 301.7,610.82 300.92,610.82 300.92,611.5 "/>
   <polygon class="fil84" points="492.8,377 492.8,376.32 492.02,376.32 492.02,377 "/>
   <polygon class="fil132" points="410.68,305.41 409.9,305.41 409.9,306.09 410.68,306.09 "/>
   <polygon class="fil27" points="573.36,587.64 573.36,586.96 572.57,586.96 572.57,587.64 "/>
   <polygon class="fil106" points="328.56,752.61 328.56,751.94 327.77,751.94 327.77,752.61 "/>
  </g>
 </g>
</svg>
