<?xml version="1.0" encoding="utf-8"?>
<!-- Generator: Adobe Illustrator 16.0.0, SVG Export Plug-In . SVG Version: 6.00 Build 0)  -->
<!DOCTYPE svg PUBLIC "-//W3C//DTD SVG 1.1//EN" "http://www.w3.org/Graphics/SVG/1.1/DTD/svg11.dtd">
<svg version="1.1" id="Layer_1" xmlns="http://www.w3.org/2000/svg" xmlns:xlink="http://www.w3.org/1999/xlink" x="0px" y="0px"
	 width="621.903px" height="620.291px" viewBox="0 0 621.903 620.291" enable-background="new 0 0 621.903 620.291"
	 xml:space="preserve">
<g>
	<linearGradient id="SVGID_1_" gradientUnits="userSpaceOnUse" x1="223.0137" y1="124.915" x2="407.3407" y2="372.4397">
		<stop  offset="0" style="stop-color:#1DE8B5"/>
		<stop  offset="1" style="stop-color:#C553E6"/>
	</linearGradient>
	<path fill-rule="evenodd" clip-rule="evenodd" fill="url(#SVGID_1_)" d="M330.463,304.081c0-15.689,0-30.422,0-45.736
		c-2.421-0.164-4.583-0.416-6.75-0.451c-10.33-0.15-20.664-0.205-30.992-0.361c-17.521-0.268-27.19-9.717-27.369-27.084
		c-0.166-15.801,0.04-31.607,0.036-47.41c0-12.814,5.03-22.615,17.724-28.879c-10.429-15.158-20.78-30.201-32.021-46.541
		c-11.286,16.357-21.888,31.727-32.856,47.617c2.194,1.229,3.941,2.135,5.607,3.158c7.962,4.875,12.822,11.656,12.84,21.307
		c0.05,21.07,0.156,42.139,0.027,63.213c-0.054,8.543-6.045,14.391-14.002,14.324c-7.666-0.063-13.6-5.729-13.716-14.078
		c-0.259-17.822-0.21-35.66,0-53.486c0.054-4.486-1.202-6.729-5.683-8.391c-14.533-5.402-20.725-22.039-12.336-34.979
		c13.113-20.211,26.803-40.084,41-59.549c9.643-13.215,27.924-13.1,38.219-0.072c7.771,9.838,14.71,20.355,21.641,30.824
		c7.693,11.605,14.854,23.566,22.521,35.191c0.928,1.416,3.547,2.377,5.414,2.42c10.531,0.232,21.066,0.064,31.599,0.152
		c17.746,0.145,27.428,9.811,27.57,27.486c0.063,7.295,0.162,14.592-0.018,21.881c-0.223,8.994-6.182,15.012-14.297,14.775
		c-7.957-0.232-13.328-6.08-13.5-14.863c-0.104-5.469-0.107-10.945,0.004-16.41c0.076-3.637-1.512-5.029-5.111-5.008
		c-16.004,0.1-32.01-0.045-48.013,0.205c-1.494,0.027-4.21,2.186-4.236,3.396c-0.305,13.939-0.192,27.881-0.192,42.334
		c2.976,0.246,5.345,0.582,7.716,0.613c10.941,0.139,21.883,0.129,32.824,0.303c13.082,0.215,24,9.357,24.498,22.254
		c0.74,19.211,0.615,38.484,0.047,57.709c-0.32,10.785-7.236,17.639-18.199,21.959c10.908,15.855,21.457,31.193,32.814,47.697
		c11.25-16.316,21.82-31.645,32.436-47.035c-4.109-2.785-8.391-4.357-10.5-7.426c-3.301-4.803-7.037-10.549-7.256-16.021
		c-0.836-21.445-0.465-42.939-0.324-64.41c0.053-8.439,6.146-14.588,13.84-14.637c7.658-0.053,13.773,6,13.904,14.637
		c0.262,17.424,0.254,34.852,0.084,52.271c-0.045,4.768,0.895,7.363,6.084,9.244c14.141,5.115,20.221,22.543,11.938,35.281
		c-13.139,20.197-26.805,40.08-41.008,59.541c-9.26,12.688-28.543,13.076-38.02,0.393c-14.654-19.617-28.053-40.182-41.916-60.385
		c-0.895-1.305-1.502-2.918-1.832-4.473c-0.729-3.414-2.738-4.414-6.076-4.369c-11.143,0.139-22.289,0.102-33.432,0.014
		c-17.313-0.139-26.9-9.855-27.017-27.307c-0.036-5.879-0.138-11.76,0.086-17.629c0.325-8.547,6.308-14.525,14.091-14.4
		c7.59,0.121,13.317,5.889,13.764,14.104c0.232,4.246-0.191,8.543,0.327,12.742c0.187,1.564,2.207,4.143,3.422,4.16
		C293.856,304.171,311.847,304.081,330.463,304.081z"/>
	<g>
		<g>
			<path fill="#800000008000000080000000" d="M218.852,482.186l-6.205,1.756c-0.391-1.033-0.961-2.043-1.712-3.028
				s-1.771-1.8-3.058-2.444c-1.288-0.644-2.937-0.966-4.946-0.966c-2.751,0-5.039,0.63-6.863,1.888
				c-1.825,1.259-2.736,2.854-2.736,4.785c0,1.717,0.624,3.073,1.873,4.068c1.249,0.995,3.2,1.824,5.854,2.487l6.672,1.639
				c4.019,0.977,7.014,2.464,8.985,4.464s2.956,4.57,2.956,7.711c0,2.576-0.737,4.878-2.21,6.907s-3.526,3.629-6.16,4.8
				c-2.634,1.171-5.698,1.756-9.19,1.756c-4.585,0-8.38-0.995-11.384-2.985c-3.005-1.99-4.907-4.896-5.707-8.722l6.556-1.639
				c0.624,2.42,1.81,4.234,3.556,5.443c1.746,1.21,4.034,1.814,6.863,1.814c3.219,0,5.78-0.688,7.682-2.063
				c1.902-1.376,2.854-3.029,2.854-4.961c0-1.561-0.546-2.873-1.639-3.937c-1.093-1.063-2.771-1.858-5.034-2.385l-7.492-1.756
				c-4.117-0.976-7.136-2.492-9.058-4.552c-1.922-2.058-2.883-4.639-2.883-7.74c0-2.536,0.717-4.78,2.151-6.731
				s3.395-3.482,5.883-4.595c2.487-1.112,5.312-1.668,8.473-1.668c4.448,0,7.946,0.976,10.492,2.926
				C215.969,476.411,217.778,478.986,218.852,482.186z"/>
			<path fill="#800000008000000080000000" d="M248.352,518.008c-4.059,0-7.615-0.966-10.668-2.897
				c-3.054-1.932-5.434-4.634-7.141-8.106c-1.708-3.473-2.561-7.531-2.561-12.175c0-4.683,0.854-8.771,2.561-12.263
				c1.707-3.492,4.087-6.205,7.141-8.136c3.053-1.932,6.609-2.897,10.668-2.897c4.058,0,7.614,0.966,10.667,2.897
				c3.053,1.931,5.434,4.644,7.141,8.136c1.708,3.492,2.561,7.58,2.561,12.263c0,4.644-0.854,8.702-2.561,12.175
				c-1.707,3.473-4.087,6.175-7.141,8.106C255.966,517.042,252.41,518.008,248.352,518.008z M248.352,511.804
				c3.083,0,5.619-0.791,7.609-2.371c1.99-1.58,3.463-3.658,4.419-6.233c0.956-2.575,1.434-5.365,1.434-8.37
				s-0.479-5.805-1.434-8.399c-0.956-2.595-2.429-4.692-4.419-6.293c-1.99-1.6-4.526-2.399-7.609-2.399
				c-3.083,0-5.619,0.8-7.609,2.399c-1.99,1.601-3.463,3.698-4.419,6.293s-1.434,5.395-1.434,8.399s0.478,5.795,1.434,8.37
				s2.429,4.653,4.419,6.233S245.269,511.804,248.352,511.804z"/>
			<path fill="#800000008000000080000000" d="M286.164,457.134v59.938h-6.907v-59.938H286.164z"/>
			<path fill="#800000008000000080000000" d="M330.648,482.186l-6.204,1.756c-0.391-1.033-0.961-2.043-1.712-3.028
				s-1.771-1.8-3.058-2.444c-1.288-0.644-2.937-0.966-4.946-0.966c-2.751,0-5.039,0.63-6.863,1.888
				c-1.825,1.259-2.736,2.854-2.736,4.785c0,1.717,0.624,3.073,1.873,4.068c1.249,0.995,3.2,1.824,5.854,2.487l6.672,1.639
				c4.019,0.977,7.014,2.464,8.985,4.464c1.97,2,2.956,4.57,2.956,7.711c0,2.576-0.736,4.878-2.209,6.907s-3.526,3.629-6.16,4.8
				c-2.634,1.171-5.698,1.756-9.19,1.756c-4.585,0-8.38-0.995-11.384-2.985c-3.005-1.99-4.907-4.896-5.707-8.722l6.556-1.639
				c0.624,2.42,1.81,4.234,3.556,5.443c1.746,1.21,4.034,1.814,6.863,1.814c3.219,0,5.78-0.688,7.682-2.063
				c1.902-1.376,2.854-3.029,2.854-4.961c0-1.561-0.546-2.873-1.639-3.937c-1.093-1.063-2.771-1.858-5.034-2.385l-7.492-1.756
				c-4.117-0.976-7.136-2.492-9.058-4.552c-1.922-2.058-2.883-4.639-2.883-7.74c0-2.536,0.717-4.78,2.151-6.731
				s3.395-3.482,5.883-4.595c2.487-1.112,5.312-1.668,8.473-1.668c4.448,0,7.946,0.976,10.492,2.926
				C327.766,476.411,329.575,478.986,330.648,482.186z"/>
			<path fill="#800000008000000080000000" d="M361.436,472.118v5.854H338.14v-5.854H361.436z M344.929,461.348h6.907v42.847
				c0,1.951,0.287,3.409,0.863,4.375c0.575,0.966,1.317,1.609,2.225,1.932s1.867,0.482,2.883,0.482c0.761,0,1.385-0.043,1.873-0.131
				c0.487-0.088,0.878-0.161,1.17-0.22l1.405,6.204c-0.469,0.176-1.122,0.356-1.961,0.542c-0.839,0.185-1.902,0.277-3.19,0.277
				c-1.951,0-3.858-0.419-5.722-1.258s-3.404-2.117-4.624-3.834s-1.829-3.883-1.829-6.497V461.348z"/>
			<path fill="#800000008000000080000000" d="M390.234,518.008c-4.331,0-8.063-0.961-11.194-2.883
				c-3.132-1.922-5.542-4.614-7.229-8.077c-1.688-3.463-2.532-7.497-2.532-12.102s0.844-8.668,2.532-12.189
				c1.687-3.521,4.048-6.273,7.082-8.254c3.033-1.979,6.58-2.97,10.639-2.97c2.341,0,4.653,0.391,6.936,1.17
				c2.283,0.781,4.361,2.044,6.234,3.79c1.873,1.747,3.365,4.054,4.478,6.922s1.668,6.399,1.668,10.595v2.926h-34.651v-5.97h27.628
				c0-2.536-0.503-4.8-1.508-6.79s-2.429-3.561-4.272-4.712c-1.844-1.15-4.015-1.727-6.512-1.727c-2.751,0-5.127,0.678-7.127,2.034
				s-3.536,3.116-4.609,5.282s-1.609,4.488-1.609,6.966v3.979c0,3.396,0.59,6.269,1.771,8.619c1.181,2.352,2.824,4.137,4.932,5.356
				c2.106,1.219,4.556,1.829,7.346,1.829c1.814,0,3.458-0.259,4.932-0.776c1.473-0.517,2.746-1.297,3.819-2.341
				c1.072-1.044,1.902-2.346,2.487-3.907l6.673,1.873c-0.702,2.264-1.884,4.249-3.541,5.956c-1.659,1.707-3.708,3.034-6.146,3.98
				C396.018,517.534,393.278,518.008,390.234,518.008z"/>
			<path fill="#800000008000000080000000" d="M419.383,517.071v-44.953h6.672v6.79h0.469c0.819-2.225,2.302-4.029,4.448-5.414
				c2.146-1.386,4.565-2.078,7.258-2.078c0.508,0,1.142,0.01,1.902,0.029c0.762,0.02,1.337,0.049,1.728,0.088v7.023
				c-0.234-0.059-0.767-0.15-1.596-0.278c-0.829-0.126-1.702-0.189-2.619-0.189c-2.186,0-4.132,0.453-5.839,1.36
				s-3.054,2.156-4.038,3.746c-0.986,1.591-1.479,3.4-1.479,5.429v28.447H419.383z"/>
		</g>
		<g>
			<path d="M218.852,482.186l-6.205,1.756c-0.391-1.033-0.961-2.043-1.712-3.028s-1.771-1.8-3.058-2.444
				c-1.288-0.644-2.937-0.966-4.946-0.966c-2.751,0-5.039,0.63-6.863,1.888c-1.825,1.259-2.736,2.854-2.736,4.785
				c0,1.717,0.624,3.073,1.873,4.068c1.249,0.995,3.2,1.824,5.854,2.487l6.672,1.639c4.019,0.977,7.014,2.464,8.985,4.464
				s2.956,4.57,2.956,7.711c0,2.576-0.737,4.878-2.21,6.907s-3.526,3.629-6.16,4.8c-2.634,1.171-5.698,1.756-9.19,1.756
				c-4.585,0-8.38-0.995-11.384-2.985c-3.005-1.99-4.907-4.896-5.707-8.722l6.556-1.639c0.624,2.42,1.81,4.234,3.556,5.443
				c1.746,1.21,4.034,1.814,6.863,1.814c3.219,0,5.78-0.688,7.682-2.063c1.902-1.376,2.854-3.029,2.854-4.961
				c0-1.561-0.546-2.873-1.639-3.937c-1.093-1.063-2.771-1.858-5.034-2.385l-7.492-1.756c-4.117-0.976-7.136-2.492-9.058-4.552
				c-1.922-2.058-2.883-4.639-2.883-7.74c0-2.536,0.717-4.78,2.151-6.731s3.395-3.482,5.883-4.595
				c2.487-1.112,5.312-1.668,8.473-1.668c4.448,0,7.946,0.976,10.492,2.926C215.969,476.411,217.778,478.986,218.852,482.186z"/>
			<path d="M248.352,518.008c-4.059,0-7.615-0.966-10.668-2.897c-3.054-1.932-5.434-4.634-7.141-8.106
				c-1.708-3.473-2.561-7.531-2.561-12.175c0-4.683,0.854-8.771,2.561-12.263c1.707-3.492,4.087-6.205,7.141-8.136
				c3.053-1.932,6.609-2.897,10.668-2.897c4.058,0,7.614,0.966,10.667,2.897c3.053,1.931,5.434,4.644,7.141,8.136
				c1.708,3.492,2.561,7.58,2.561,12.263c0,4.644-0.854,8.702-2.561,12.175c-1.707,3.473-4.087,6.175-7.141,8.106
				C255.966,517.042,252.41,518.008,248.352,518.008z M248.352,511.804c3.083,0,5.619-0.791,7.609-2.371
				c1.99-1.58,3.463-3.658,4.419-6.233c0.956-2.575,1.434-5.365,1.434-8.37s-0.479-5.805-1.434-8.399
				c-0.956-2.595-2.429-4.692-4.419-6.293c-1.99-1.6-4.526-2.399-7.609-2.399c-3.083,0-5.619,0.8-7.609,2.399
				c-1.99,1.601-3.463,3.698-4.419,6.293s-1.434,5.395-1.434,8.399s0.478,5.795,1.434,8.37s2.429,4.653,4.419,6.233
				S245.269,511.804,248.352,511.804z"/>
			<path d="M286.164,457.134v59.938h-6.907v-59.938H286.164z"/>
			<path d="M330.648,482.186l-6.204,1.756c-0.391-1.033-0.961-2.043-1.712-3.028s-1.771-1.8-3.058-2.444
				c-1.288-0.644-2.937-0.966-4.946-0.966c-2.751,0-5.039,0.63-6.863,1.888c-1.825,1.259-2.736,2.854-2.736,4.785
				c0,1.717,0.624,3.073,1.873,4.068c1.249,0.995,3.2,1.824,5.854,2.487l6.672,1.639c4.019,0.977,7.014,2.464,8.985,4.464
				c1.97,2,2.956,4.57,2.956,7.711c0,2.576-0.736,4.878-2.209,6.907s-3.526,3.629-6.16,4.8c-2.634,1.171-5.698,1.756-9.19,1.756
				c-4.585,0-8.38-0.995-11.384-2.985c-3.005-1.99-4.907-4.896-5.707-8.722l6.556-1.639c0.624,2.42,1.81,4.234,3.556,5.443
				c1.746,1.21,4.034,1.814,6.863,1.814c3.219,0,5.78-0.688,7.682-2.063c1.902-1.376,2.854-3.029,2.854-4.961
				c0-1.561-0.546-2.873-1.639-3.937c-1.093-1.063-2.771-1.858-5.034-2.385l-7.492-1.756c-4.117-0.976-7.136-2.492-9.058-4.552
				c-1.922-2.058-2.883-4.639-2.883-7.74c0-2.536,0.717-4.78,2.151-6.731s3.395-3.482,5.883-4.595
				c2.487-1.112,5.312-1.668,8.473-1.668c4.448,0,7.946,0.976,10.492,2.926C327.766,476.411,329.575,478.986,330.648,482.186z"/>
			<path d="M361.436,472.118v5.854H338.14v-5.854H361.436z M344.929,461.348h6.907v42.847c0,1.951,0.287,3.409,0.863,4.375
				c0.575,0.966,1.317,1.609,2.225,1.932s1.867,0.482,2.883,0.482c0.761,0,1.385-0.043,1.873-0.131
				c0.487-0.088,0.878-0.161,1.17-0.22l1.405,6.204c-0.469,0.176-1.122,0.356-1.961,0.542c-0.839,0.185-1.902,0.277-3.19,0.277
				c-1.951,0-3.858-0.419-5.722-1.258s-3.404-2.117-4.624-3.834s-1.829-3.883-1.829-6.497V461.348z"/>
			<path d="M390.234,518.008c-4.331,0-8.063-0.961-11.194-2.883c-3.132-1.922-5.542-4.614-7.229-8.077
				c-1.688-3.463-2.532-7.497-2.532-12.102s0.844-8.668,2.532-12.189c1.687-3.521,4.048-6.273,7.082-8.254
				c3.033-1.979,6.58-2.97,10.639-2.97c2.341,0,4.653,0.391,6.936,1.17c2.283,0.781,4.361,2.044,6.234,3.79
				c1.873,1.747,3.365,4.054,4.478,6.922s1.668,6.399,1.668,10.595v2.926h-34.651v-5.97h27.628c0-2.536-0.503-4.8-1.508-6.79
				s-2.429-3.561-4.272-4.712c-1.844-1.15-4.015-1.727-6.512-1.727c-2.751,0-5.127,0.678-7.127,2.034s-3.536,3.116-4.609,5.282
				s-1.609,4.488-1.609,6.966v3.979c0,3.396,0.59,6.269,1.771,8.619c1.181,2.352,2.824,4.137,4.932,5.356
				c2.106,1.219,4.556,1.829,7.346,1.829c1.814,0,3.458-0.259,4.932-0.776c1.473-0.517,2.746-1.297,3.819-2.341
				c1.072-1.044,1.902-2.346,2.487-3.907l6.673,1.873c-0.702,2.264-1.884,4.249-3.541,5.956c-1.659,1.707-3.708,3.034-6.146,3.98
				C396.018,517.534,393.278,518.008,390.234,518.008z"/>
			<path d="M419.383,517.071v-44.953h6.672v6.79h0.469c0.819-2.225,2.302-4.029,4.448-5.414c2.146-1.386,4.565-2.078,7.258-2.078
				c0.508,0,1.142,0.01,1.902,0.029c0.762,0.02,1.337,0.049,1.728,0.088v7.023c-0.234-0.059-0.767-0.15-1.596-0.278
				c-0.829-0.126-1.702-0.189-2.619-0.189c-2.186,0-4.132,0.453-5.839,1.36s-3.054,2.156-4.038,3.746
				c-0.986,1.591-1.479,3.4-1.479,5.429v28.447H419.383z"/>
		</g>
	</g>
</g>
</svg>
