<svg width="100" height="99" viewBox="0 0 100 99" fill="none" xmlns="http://www.w3.org/2000/svg">
<g clip-path="url(#clip0)">
<path d="M79.9061 17.4583L73.9418 23.4535C80.033 29.6189 83.84 38.1228 83.84 47.5196C83.84 56.5413 80.2746 65.1931 73.9285 71.5724C67.5821 77.9515 58.975 81.5353 50 81.5353C41.0249 81.5353 32.4178 77.9515 26.0714 71.5724C19.7252 65.1931 16.16 56.5413 16.16 47.5196C16.16 30.1716 29.0615 15.885 45.77 13.8016V22.3905C33.7568 24.4315 24.62 34.8913 24.62 47.5196C24.62 54.2857 27.2939 60.7749 32.0535 65.5593C36.8132 70.3436 43.2689 73.0314 50 73.0314C56.7311 73.0314 63.1868 70.3436 67.9464 65.5593C72.7061 60.7749 75.38 54.2857 75.38 47.5196C75.38 40.4614 72.5459 34.0834 67.9352 29.4913L61.9709 35.4866C65.0165 38.5905 66.92 42.8425 66.92 47.5196C66.92 52.0303 65.1373 56.3565 61.9641 59.5459C58.7912 62.7355 54.4874 64.5275 50 64.5275C45.5126 64.5275 41.2088 62.7355 38.0358 59.5459C34.8626 56.3565 33.08 52.0303 33.08 47.5196C33.08 39.611 38.4944 33.0204 45.77 31.1071V40.2063C43.232 41.6944 41.54 44.3732 41.54 47.5196C41.54 49.775 42.4312 51.9381 44.0179 53.5328C45.6044 55.1277 47.7563 56.0236 50 56.0236C52.2437 56.0236 54.3956 55.1277 55.982 53.5328C57.5687 51.9381 58.46 49.775 58.46 47.5196C58.46 44.3732 56.768 41.6519 54.23 40.2063V5H50C44.4449 5 38.9446 6.0998 33.8126 8.2366C28.6803 10.3734 24.0172 13.5054 20.0893 17.4537C12.1565 25.4277 7.69995 36.2427 7.69995 47.5196C7.69995 58.7966 12.1565 69.6115 20.0893 77.5855C24.0172 81.5337 28.6803 84.6657 33.8126 86.8026C38.9446 88.9394 44.4449 90.0393 50 90.0393C61.2187 90.0393 71.9777 85.5595 79.9106 77.5855C87.8434 69.6115 92.3 58.7966 92.3 47.5196C92.3 35.7842 87.5624 25.1543 79.9061 17.4583Z" fill="url(#paint0_linear)"/>
</g>
<defs>
<linearGradient id="paint0_linear" x1="78.1049" y1="5.08948" x2="2.55687" y2="80.7994" gradientUnits="userSpaceOnUse">
<stop offset="0.0416667" stop-color="#00F299"/>
<stop offset="0.947917" stop-color="#D119FF"/>
</linearGradient>
<clipPath id="clip0">
<rect width="99.6581" height="98.4269" fill="white"/>
</clipPath>
</defs>
</svg>
