<?xml version="1.0" encoding="utf-8"?>
<!-- Generator: Adobe Illustrator 23.0.0, SVG Export Plug-In . SVG Version: 6.00 Build 0)  -->
<svg version="1.1" id="Layer_1" xmlns="http://www.w3.org/2000/svg" xmlns:xlink="http://www.w3.org/1999/xlink" x="0px" y="0px"
	 viewBox="0 0 2000 2000" style="enable-background:new 0 0 2000 2000;" xml:space="preserve">
<style type="text/css">
	.st0{fill:#F6C13D;}
</style>
<g>
	<path class="st0" d="M312.93,1000c0,379.45,307.62,687.07,687.07,687.07c379.48,0,687.08-307.62,687.08-687.07
		c0-379.46-307.6-687.07-687.08-687.07C620.54,312.93,312.93,620.54,312.93,1000"/>
	<path d="M1160.32,1000l241.82-45.06c20.39-33.28,18.54-162.97-50.61-240.89c31.38,133.57,13.84,194.22,13.84,194.22l-211.18,47.64
		l159.83-108.3C1313,728.83,1276.15,648.99,1191,597.41l17.75-31.19l-109.45-8.44l62.75,90.53l17.88-31.44
		c73.24,79.33,79.77,183.05,79.77,183.05l-182.59,158.39c17.07-18.63,27.57-43.35,27.57-70.61c0-57.81-46.87-104.68-104.68-104.68
		c-57.81,0-104.67,46.87-104.67,104.68c0,27.25,10.51,51.99,27.56,70.61L740.3,799.93c0,0,10.74-171.58,160.4-242.14
		c-151.12,46.05-213.4,134.82-214.72,289.84l159.84,108.3l-211.19-47.64c0,0-17.55-60.66,13.83-194.22
		c-69.14,77.92-70.98,207.61-50.6,240.89L839.67,1000l-241.81,45.06c-20.39,33.28-18.55,162.97,50.6,240.89
		c-31.38-133.58-13.83-194.22-13.83-194.22l208.03-52.63l-156.68,113.28c1.02,118.8,37.89,198.65,123.02,250.22l-17.74,31.19
		l109.44,8.43l-62.75-90.53l-17.88,31.45c-73.24-79.33-79.77-183.05-79.77-183.05l102.23-109.22c-1.84,9.74-2.86,19.77-2.86,30.06
		c0,88.54,71.79,160.32,160.33,160.32c88.54,0,160.32-71.78,160.32-160.32c0-10.28-0.99-20.32-2.85-30.06l102.23,109.22
		c0,0-10.74,171.58-160.4,242.13c151.12-46.03,213.4-134.81,214.72-289.84l-156.68-113.28l208.03,52.63
		c0,0,17.54,60.64-13.84,194.22c69.16-77.92,71-207.61,50.61-240.89L1160.32,1000z"/>
</g>
</svg>
