<svg width="100" height="100" viewBox="0 0 100 100" fill="none" xmlns="http://www.w3.org/2000/svg">
<path d="M26.8241 51.4786C23.7011 50.5927 21.4253 49.5071 19.9966 48.2219C18.5805 46.9242 17.8724 45.3271 17.8724 43.4305C17.8724 41.2843 18.7385 39.5125 20.4707 38.115C22.2155 36.705 24.4787 36 27.2603 36C29.1569 36 30.8448 36.3619 32.3241 37.0856C33.8161 37.8093 34.9667 38.8075 35.7759 40.0802C36.5977 41.3529 37.0086 42.7442 37.0086 44.254H33.3483C33.3483 42.607 32.8172 41.3155 31.7552 40.3797C30.6931 39.4314 29.1948 38.9572 27.2603 38.9572C25.4649 38.9572 24.0615 39.3503 23.05 40.1364C22.0511 40.91 21.5517 41.9893 21.5517 43.3743C21.5517 44.4848 22.0259 45.4269 22.9741 46.2005C23.9351 46.9617 25.5598 47.6604 27.8483 48.2968C30.1494 48.9332 31.9448 49.6381 33.2345 50.4118C34.5368 51.1729 35.4977 52.0651 36.1172 53.0882C36.7494 54.1114 37.0655 55.3155 37.0655 56.7005C37.0655 58.9091 36.1931 60.6809 34.4483 62.016C32.7034 63.3387 30.3707 64 27.45 64C25.5534 64 23.7833 63.6444 22.1397 62.9332C20.496 62.2094 19.2253 61.2237 18.3276 59.9759C17.4425 58.7282 17 57.3119 17 55.7273H20.6603C20.6603 57.3743 21.2736 58.6783 22.5 59.639C23.7391 60.5873 25.3891 61.0615 27.45 61.0615C29.3718 61.0615 30.8448 60.6747 31.869 59.9011C32.8931 59.1275 33.4052 58.0731 33.4052 56.738C33.4052 55.4029 32.931 54.3734 31.9828 53.6497C31.0345 52.9135 29.3149 52.1898 26.8241 51.4786Z" fill="black"/>
<path d="M45.3914 52.9572V63.6257H41.75V36.3743H51.9345C54.9563 36.3743 57.3207 37.1355 59.0276 38.6578C60.7471 40.18 61.6069 42.1952 61.6069 44.7032C61.6069 47.3485 60.7661 49.3886 59.0845 50.8235C57.4155 52.246 55.0195 52.9572 51.8966 52.9572H45.3914ZM45.3914 50.0187H51.9345C53.8816 50.0187 55.3736 49.5695 56.4103 48.6711C57.4471 47.7602 57.9655 46.4501 57.9655 44.7406C57.9655 43.1185 57.4471 41.8209 56.4103 40.8476C55.3736 39.8743 53.9511 39.369 52.1431 39.3316H45.3914V50.0187Z" fill="black"/>
<path d="M69.9138 60.6872H83V63.6257H66.2534V36.3743H69.9138V60.6872Z" fill="black"/>
</svg>
