<?xml version="1.0" ?>
<svg
  xmlns="http://www.w3.org/2000/svg"
  xmlns:xlink="http://www.w3.org/1999/xlink"
  xmlns:svgjs="http://svgjs.com/svgjs"
  version="1.1"
  width="100"
  height="100"
  x="0"
  y="0"
  viewBox="0 0 510.003 510.003"
  style="enable-background:new 0 0 512 512"
  xml:space="preserve"
  class=""
><g transform="matrix(-1,0,0,1,510.00390434265137,0)"><g
      xmlns="http://www.w3.org/2000/svg"
    ><path
        d="m495.003 70h-328c-8.28 0-15 6.72-15 15v49h358v-49c0-8.28-6.72-15-15-15z"
        fill="#19226d"
        data-original="#000000"
        style=""
        class=""
      /><path
        d="m335.992 278.712c-3.535.163-7.111-.543-10.282-2.128-14.031-7.015-30.857-7.278-45.414 0-5.751 2.875-12.835 2.875-18.586 0-14.031-7.015-30.857-7.278-45.414 0-5.751 2.875-12.835 2.875-18.586 0-14.031-7.015-30.857-7.278-45.414 0-5.751 2.875-12.835 2.875-18.586 0-14.031-7.015-30.857-7.278-45.414 0-5.751 2.875-12.842 2.872-18.579.003-14.223-7.118-31.206-7.118-45.422-.002l-16 8c-7.41 3.704-10.413 12.715-6.708 20.124 3.712 7.423 12.731 10.407 20.125 6.708l16.006-8.002c5.815-2.912 12.757-2.911 18.579.003 14.031 7.015 30.857 7.278 45.414 0 5.751-2.875 12.835-2.875 18.586 0 14.031 7.015 30.857 7.278 45.414 0 5.751-2.875 12.835-2.875 18.586 0 14.031 7.015 30.857 7.278 45.414 0 5.751-2.875 12.835-2.875 18.586 0 14.031 7.015 30.857 7.278 45.414 0 5.751-2.875 12.835-2.875 18.586 0 7.031 3.515 15.086 5.498 23.707 5.334v33.96c-3.538.165-7.119-.542-10.293-2.128-14.031-7.015-30.857-7.278-45.414 0-5.751 2.875-12.835 2.875-18.586 0-14.031-7.015-30.857-7.278-45.414 0-5.751 2.875-12.835 2.875-18.586 0-14.031-7.015-30.857-7.278-45.414 0-5.751 2.875-12.835 2.875-18.586 0-14.031-7.015-30.857-7.278-45.414 0-5.751 2.875-12.842 2.872-18.579.003-14.223-7.118-31.206-7.118-45.422-.002l-16 8c-14.087 7.042-9.08 28.419 6.72 28.419 4.691 0 5.976-1.227 22.702-9.589 5.815-2.912 12.757-2.911 18.579.003 14.031 7.015 30.857 7.278 45.414 0 5.751-2.875 12.835-2.875 18.586 0 14.031 7.015 30.857 7.278 45.414 0 5.751-2.875 12.835-2.875 18.586 0 14.031 7.015 30.857 7.278 45.414 0 5.751-2.875 12.835-2.875 18.586 0 14.031 7.015 30.857 7.278 45.414 0 5.751-2.875 12.835-2.875 18.586 0 7.031 3.515 15.086 5.498 23.707 5.334v33.248c-3.311 0-6.25-.396-10.293-2.417-14.031-7.015-30.857-7.278-45.414 0-5.751 2.875-12.835 2.875-18.586 0-14.031-7.015-30.857-7.278-45.414 0-5.751 2.875-12.835 2.875-18.586 0-14.031-7.015-30.857-7.278-45.414 0-5.751 2.875-12.835 2.875-18.586 0-14.031-7.015-30.857-7.278-45.414 0-5.751 2.875-12.842 2.872-18.579.003-14.223-7.118-31.206-7.118-45.422-.002l-16 8c-14.087 7.042-9.08 28.419 6.72 28.419 4.691 0 5.976-1.227 22.702-9.589 5.814-2.911 12.757-2.91 18.579.003 14.031 7.015 30.857 7.278 45.414 0 5.751-2.875 12.835-2.875 18.586 0 14.031 7.015 30.857 7.278 45.414 0 5.751-2.875 12.835-2.875 18.586 0 14.031 7.015 30.857 7.278 45.414 0 5.751-2.875 12.835-2.875 18.586 0 14.031 7.015 30.857 7.278 45.414 0 5.751-2.875 12.835-2.875 18.586 0 14.218 7.108 22.368 5.583 53.154 5.583h129.553c8.28 0 15-6.72 15-15v-257h-289.6c63.442 0 115.108 51.38 115.588 114.712z"
        fill="#19226d"
        data-original="#000000"
        style=""
        class=""
      /></g></g></svg>
