<?xml version="1.0" encoding="utf-8"?>
<!-- Generator: Adobe Illustrator 25.2.1, SVG Export Plug-In . SVG Version: 6.00 Build 0)  -->
<svg version="1.1" id="Capa_1" xmlns="http://www.w3.org/2000/svg" xmlns:xlink="http://www.w3.org/1999/xlink" x="0px" y="0px"
	 viewBox="0 0 100 100" style="enable-background:new 0 0 100 100;" xml:space="preserve">
<style type="text/css">
	.st0{fill:url(#SVGID_1_);}
	.st1{fill:url(#SVGID_2_);}
	.st2{fill:url(#SVGID_3_);}
	.st3{fill:#0057BF;}
	.st4{fill:#28DD8B;}
	.st5{fill:none;}
</style>
<g>
	<linearGradient id="SVGID_1_" gradientUnits="userSpaceOnUse" x1="9.4929" y1="23.781" x2="89.5072" y2="23.781">
		<stop  offset="0" style="stop-color:#2FFC93"/>
		<stop  offset="0.642" style="stop-color:#108FB0"/>
		<stop  offset="1" style="stop-color:#0057BF"/>
	</linearGradient>
	<path class="st0" d="M11,20.7l70.5,26.2c5.5,2.1,11.7-0.8,13.7-6.3c2.1-5.5-0.8-11.7-6.3-13.7L18.5,0.7C12.9-1.4,6.8,1.4,4.8,7
		C2.7,12.5,5.5,18.6,11,20.7z"/>
	<linearGradient id="SVGID_2_" gradientUnits="userSpaceOnUse" x1="4.0824" y1="50.0003" x2="95.9175" y2="50.0003">
		<stop  offset="0" style="stop-color:#2FFC93"/>
		<stop  offset="0.642" style="stop-color:#108FB0"/>
		<stop  offset="1" style="stop-color:#0057BF"/>
	</linearGradient>
	<path class="st1" d="M11,46.9l70.5,26.2c5.5,2.1,11.7-0.8,13.7-6.3c2.1-5.5-0.8-11.7-6.3-13.7L18.5,26.9
		c-5.5-2.1-11.7,0.8-13.7,6.3C2.7,38.7,5.5,44.8,11,46.9z"/>
	<linearGradient id="SVGID_3_" gradientUnits="userSpaceOnUse" x1="4.0824" y1="76.2205" x2="95.9175" y2="76.2205">
		<stop  offset="0" style="stop-color:#2FFC93"/>
		<stop  offset="0.642" style="stop-color:#108FB0"/>
		<stop  offset="1" style="stop-color:#0057BF"/>
	</linearGradient>
	<path class="st2" d="M11,73.1l70.5,26.2c5.5,2.1,11.7-0.8,13.7-6.3c2.1-5.5-0.8-11.7-6.3-13.7L18.5,53.1
		c-5.5-2.1-11.7,0.8-13.7,6.3C2.7,64.9,5.5,71.1,11,73.1z"/>
	<circle class="st3" cx="85.2" cy="10.7" r="10.7"/>
	<circle class="st4" cx="14.8" cy="89.3" r="10.7"/>
</g>
<rect x="0" y="0" class="st5" width="100" height="100"/>
</svg>
