<svg id="Слой_2" data-name="Слой 2" xmlns="http://www.w3.org/2000/svg" xmlns:xlink="http://www.w3.org/1999/xlink" viewBox="0 0 561.95 616.61"><defs><style>.cls-1{fill:#e2e1de;}.cls-2,.cls-6,.cls-9{fill:#2b388f;}.cls-3{fill:#f1f1f2;}.cls-3,.cls-9{opacity:0.08;}.cls-4{fill:url(#Безымянный_градиент_141);}.cls-5{fill:#1b75bb;}.cls-6{opacity:0.15;}.cls-7{fill:url(#Безымянный_градиент_143);}.cls-8{fill:#26a9e0;}.cls-10{fill:url(#Безымянный_градиент_143-2);}</style><linearGradient id="Безымянный_градиент_141" x1="172.38" y1="303.55" x2="218.2" y2="303.55" gradientUnits="userSpaceOnUse"><stop offset="0" stop-color="#1b75bb"/><stop offset="0.18" stop-color="#1c6eb3"/><stop offset="0.45" stop-color="#1f5a9e"/><stop offset="0.79" stop-color="#233a7b"/><stop offset="1" stop-color="#262261"/></linearGradient><linearGradient id="Безымянный_градиент_143" x1="4997.97" y1="-3718.18" x2="5043.79" y2="-3718.18" gradientTransform="translate(6090.26 2804.56) rotate(-120)" gradientUnits="userSpaceOnUse"><stop offset="0" stop-color="#26a9e0"/><stop offset="0.13" stop-color="#26a1d9"/><stop offset="0.34" stop-color="#268cc5"/><stop offset="0.59" stop-color="#2669a4"/><stop offset="0.88" stop-color="#263976"/><stop offset="1" stop-color="#262261"/></linearGradient><linearGradient id="Безымянный_градиент_143-2" x1="6509.54" y1="2475.61" x2="6555.36" y2="2475.61" gradientTransform="matrix(-0.5, 0.87, -0.87, -0.5, 5698.14, -4252.22)" xlink:href="#Безымянный_градиент_143"/></defs><rect id="background" class="cls-1" width="561.95" height="616.61"/><g id="text"><path d="M145.12,443a31.91,31.91,0,0,0,6,2.32,70.52,70.52,0,0,1,8.05,3.11,14.75,14.75,0,0,1,5.52,4.72,13.81,13.81,0,0,1,2.36,8.37q0,16.54-21.54,16.55a74.81,74.81,0,0,1-8.68-.62,89.34,89.34,0,0,1-9.3-1.6c.12-1.25.37-3.07.76-5.48a43.59,43.59,0,0,1,1.11-5.38q3.12.44,9.39,1.07t9.48.62a5,5,0,0,0,2.22-.27,2.34,2.34,0,0,0,.85-1.2,4.26,4.26,0,0,0,.31-1.47A2.94,2.94,0,0,0,150,461a36.39,36.39,0,0,0-5.79-2.27,54.43,54.43,0,0,1-8.1-3.12,15.38,15.38,0,0,1-5.6-5,15.07,15.07,0,0,1-2.41-8.9,18,18,0,0,1,1.78-7.7,13.23,13.23,0,0,1,3.65-5.12q1.42-1,5.88-1.87a42.91,42.91,0,0,1,8.36-.89A59,59,0,0,1,164,428a48.7,48.7,0,0,1-.58,4.9c-.32,2.08-.67,4-1,5.69l-2.05-.09q-11.56-.79-14.77-.8a6.32,6.32,0,0,0-1.52.09,1.58,1.58,0,0,0-.62.8,3.58,3.58,0,0,0-.27,1.43A3.25,3.25,0,0,0,145.12,443Z"/><path d="M212.56,485.23l-6.34-7.64a43.57,43.57,0,0,1-7,.62q-13.27,0-19.9-6.28t-6.63-20.15q0-13.62,7.3-19.85t19.31-6.23q25.29,0,25.28,25.19,0,13.78-6.94,20.82L226,485.23ZM203,466.86a5.88,5.88,0,0,0,2.67-3q1.88-3.64,1.87-11.93,0-8.08-1.87-11.74c-1.24-2.5-3.53-3.8-6.85-3.92a19.42,19.42,0,0,0-3.87.4,4.35,4.35,0,0,0-2.54,1.11q-1.06,1.24-1.64,5.3a62.13,62.13,0,0,0-.58,8.85q0,7.49,1.42,10.95a7.1,7.1,0,0,0,2.76,3.69,8.19,8.19,0,0,0,4.45,1.12A9.21,9.21,0,0,0,203,466.86Z"/><path d="M279.46,426.32v28.39q0,8.82-1.91,13.75a12.87,12.87,0,0,1-7.17,7.26q-5.25,2.31-15.3,2.31a42.85,42.85,0,0,1-12.46-1.56,14.7,14.7,0,0,1-8.06-5.92q-3-4.35-3-12.28V426.32h16v28.57a39,39,0,0,0,.49,7.17,5.81,5.81,0,0,0,2.27,3.73,9.29,9.29,0,0,0,5.43,1.29,18.61,18.61,0,0,0,4.18-.44,4.63,4.63,0,0,0,2.67-1.34c.54-.71.8-3.29.8-7.74V426.32Z"/><path d="M316.4,465.93H301.62L299,477.05H282.58L299,426.32h20.92l15.66,50.73H319.07Zm-7.48-28.66-5.25,18.78h10.59l-5-18.78Z"/><path d="M374.82,428.28a18.37,18.37,0,0,1,10.33,7.39q3.69,5.43,3.69,15.57,0,10.86-3.91,16.51a18.45,18.45,0,0,1-10.51,7.48,63.86,63.86,0,0,1-16.64,1.82H340V426.32h17.8A61.73,61.73,0,0,1,374.82,428.28Zm-3.6,31.15a81.77,81.77,0,0,0,.44-8.19,34.17,34.17,0,0,0-.66-7.52,9.18,9.18,0,0,0-2.36-4.49q-2.67-2.94-9.17-2.94c-.77,0-1.93.06-3.47.18V466a44.86,44.86,0,0,0,4.72.17,48,48,0,0,0,5.83-.31,6.23,6.23,0,0,0,3.16-.93Q370.78,463.89,371.22,459.43Z"/><path d="M412.47,443a32.19,32.19,0,0,0,6,2.32,69.79,69.79,0,0,1,8,3.11,14.75,14.75,0,0,1,5.52,4.72,13.81,13.81,0,0,1,2.36,8.37q0,16.54-21.54,16.55a75,75,0,0,1-8.68-.62,89.34,89.34,0,0,1-9.3-1.6c.12-1.25.37-3.07.76-5.48a47.73,47.73,0,0,1,1.11-5.38q3.12.44,9.39,1.07c4.19.41,7.34.62,9.48.62a5.07,5.07,0,0,0,2.23-.27,2.39,2.39,0,0,0,.84-1.2,4.26,4.26,0,0,0,.31-1.47,2.94,2.94,0,0,0-1.69-2.71,36.18,36.18,0,0,0-5.78-2.27,53.57,53.57,0,0,1-8.1-3.12,15.33,15.33,0,0,1-5.61-5,15.07,15.07,0,0,1-2.4-8.9,17.86,17.86,0,0,1,1.78-7.7,13,13,0,0,1,3.65-5.12c.95-.65,2.9-1.27,5.87-1.87a43.09,43.09,0,0,1,8.37-.89A59,59,0,0,1,431.38,428c-.06,1.19-.25,2.82-.57,4.9s-.67,4-1,5.69l-2-.09q-11.58-.79-14.78-.8a6.2,6.2,0,0,0-1.51.09,1.54,1.54,0,0,0-.63.8,3.76,3.76,0,0,0-.26,1.43A3.24,3.24,0,0,0,412.47,443Z"/></g><g id="cube"><g id="left"><path id="side_part" data-name="side part" class="cls-2" d="M292.67,228.54c-3.65,2.11-8.35,3.2-13,3.65-8.66.88-13.71,3.62-13.71,3.62-8.45,4.88-8.45,12.8,0,17.68l-47.35-27.34c8.45,4.89,22.17,4.89,30.63,0,0,0,4.73-2.91,6.27-7.91a12.82,12.82,0,0,1,6.32-7.5c.31-.18.64-.36,1-.53,8.61-4.41,21.71-4.29,29.85.42l.2.11a18,18,0,0,1,2.44,1.68C301.21,217.31,300.31,224.13,292.67,228.54Z"/><path id="shadow" class="cls-3" d="M292.67,228.54c-3.65,2.11-8.35,3.2-13,3.65-8.66.88-13.71,3.62-13.71,3.62-8.45,4.88-8.45,12.8,0,17.68l-47.35-27.34c8.45,4.89,22.17,4.89,30.63,0,0,0,4.73-2.91,6.27-7.91a12.82,12.82,0,0,1,6.32-7.5c.31-.18.64-.36,1-.53,8.61-4.41,21.71-4.29,29.85.42l.2.11a18,18,0,0,1,2.44,1.68C301.21,217.31,300.31,224.13,292.67,228.54Z"/><path id="hole" class="cls-4" d="M218.2,311.91v.22a18.2,18.2,0,0,1-.23,2.95c-1.28,7.56-7.64,10.19-15.28,5.78-3.65-2.11-6.95-5.64-9.65-9.43-5.1-7.05-10-10.06-10-10.06-4.15-2.39-7.91-2.66-10.67-1.16l27.89-16.11a16.56,16.56,0,0,1,2.42,1.16l.95.58C211.76,291.09,218.2,302.5,218.2,311.91Z"/><path id="left_side" data-name="left side" class="cls-2" d="M230.51,277.56v.22c0,9.41,6.44,20.82,14.57,26.07.31.2.62.39.94.57a12.82,12.82,0,0,0,9.66,1.72c5.09-1.16,10,1.48,10,1.48,8.45,4.88,15.31,16.76,15.31,26.53v58.77l-35.9-20.73-77.35-44.66V310.22c0-4.85,1.69-8.27,4.43-9.89l.22-.12c2.76-1.5,6.52-1.23,10.67,1.16,0,0,4.89,3,10,10.06,2.7,3.79,6,7.32,9.65,9.43,7.64,4.41,14,1.78,15.28-5.78a18.2,18.2,0,0,0,.23-2.95v-.22c0-9.41-6.44-20.82-14.56-26.07l-.95-.58a16.56,16.56,0,0,0-2.42-1.16,12.07,12.07,0,0,0-7.23-.56c-5.1,1.17-10-1.47-10-1.47-8.46-4.88-15.32-16.76-15.32-26.53V196.77l35.9,20.72,15,8.66L266,253.49l15,8.66v17.32c0,9.77-6.86,13.73-15.31,8.85,0,0-4.9-3-10-10.06-2.71-3.79-6-7.32-9.66-9.43-7.64-4.41-14-1.78-15.27,5.77A17.14,17.14,0,0,0,230.51,277.56Z"/></g><g id="right"><path id="side_part-2" data-name="side part" class="cls-5" d="M281,279.47v54.68c0-9.77-6.86-21.65-15.31-26.53,0,0-4.9-2.64-10-1.48a12.82,12.82,0,0,1-9.66-1.72c-.32-.18-.63-.37-.94-.57-8.13-5.25-14.57-16.66-14.57-26.07v-.22a17.14,17.14,0,0,1,.24-3c1.28-7.55,7.63-10.18,15.27-5.77,3.65,2.11,7,5.64,9.66,9.43,5.09,7.05,10,10.06,10,10.06C274.11,293.2,281,289.24,281,279.47Z"/><path id="shadow-2" data-name="shadow" class="cls-6" d="M281,279.47v54.68c0-9.77-6.86-21.65-15.31-26.53,0,0-4.9-2.64-10-1.48a12.82,12.82,0,0,1-9.66-1.72c-.32-.18-.63-.37-.94-.57-8.13-5.25-14.57-16.66-14.57-26.07v-.22a17.14,17.14,0,0,1,.24-3c1.28-7.55,7.63-10.18,15.27-5.77,3.65,2.11,7,5.64,9.66,9.43,5.09,7.05,10,10.06,10,10.06C274.11,293.2,281,289.24,281,279.47Z"/><path id="hole-2" data-name="hole" class="cls-7" d="M355.46,291.64l.19-.11a18.42,18.42,0,0,1,2.67-1.28c7.19-2.67,12.65,1.52,12.65,10.35,0,4.21-1.41,8.83-3.34,13.07-3.56,7.94-3.72,13.68-3.72,13.68,0,4.79,1.65,8.18,4.33,9.82l-27.9-16.1a17.16,17.16,0,0,1-.2-2.67c0-.37,0-.74,0-1.12C340.65,307.63,347.31,296.34,355.46,291.64Z"/><path id="right_side" data-name="right side" class="cls-5" d="M319.56,298.16l.19-.11c8.15-4.71,14.81-16,15.29-25.66,0-.37,0-.73,0-1.1a12.76,12.76,0,0,0-3.34-9.22c-3.55-3.83-3.71-9.39-3.71-9.39,0-9.76,6.86-21.64,15.32-26.53l50.9-29.39V327.54l-15,8.65c-4.2,2.43-8,2.67-10.78,1.11l-.22-.13c-2.68-1.64-4.32-5-4.33-9.82,0,0,.16-5.74,3.72-13.68,1.93-4.24,3.34-8.86,3.34-13.07,0-8.83-5.46-13-12.65-10.35a18.42,18.42,0,0,0-2.67,1.28l-.19.11c-8.15,4.7-14.81,16-15.29,25.64,0,.38,0,.75,0,1.12a17.16,17.16,0,0,0,.2,2.67,12.15,12.15,0,0,0,3.13,6.54c3.57,3.84,3.73,9.39,3.73,9.39,0,9.77-6.86,21.65-15.32,26.53L281,392.92V262.15l15-8.66c8.46-4.88,15.32-.92,15.32,8.84,0,0-.16,5.74-3.72,13.68a33.07,33.07,0,0,0-3.34,13.08c0,8.82,5.46,13,12.64,10.34A17.88,17.88,0,0,0,319.56,298.16Z"/></g><g id="top"><path id="side_part-3" data-name="side part" class="cls-8" d="M328,252.68s.15,5.56,3.71,9.38a12.87,12.87,0,0,1,3.34,9.23c0,.37,0,.73,0,1.11-.48,9.66-7.14,20.94-15.28,25.64l-.2.12a18.41,18.41,0,0,1-2.68,1.27c-7.18,2.66-12.64-1.52-12.64-10.34,0-4.22,1.41-8.84,3.34-13.08,3.56-7.94,3.72-13.68,3.72-13.68,0-9.77-6.86-13.73-15.32-8.84l47.33-27.33C334.86,231.05,328,242.92,328,252.68Z"/><path id="shadow-3" data-name="shadow" class="cls-9" d="M328,252.68s.15,5.56,3.71,9.38a12.87,12.87,0,0,1,3.34,9.23c0,.37,0,.73,0,1.11-.48,9.66-7.14,20.94-15.28,25.64l-.2.12a18.41,18.41,0,0,1-2.68,1.27c-7.18,2.66-12.64-1.52-12.64-10.34,0-4.22,1.41-8.84,3.34-13.08,3.56-7.94,3.72-13.68,3.72-13.68,0-9.77-6.86-13.73-15.32-8.84l47.33-27.33C334.86,231.05,328,242.92,328,252.68Z"/><path id="hole-3" data-name="hole" class="cls-10" d="M269.28,182.9l-.2-.11a19.32,19.32,0,0,1-2.44-1.68c-5.9-4.88-5-11.71,2.64-16.12a32.89,32.89,0,0,1,13-3.64c8.66-.89,13.71-3.62,13.71-3.62,4.14-2.4,6.26-5.52,6.34-8.66v32.21a16.73,16.73,0,0,1-2.21,1.51c-.32.18-.64.36-1,.53C290.53,187.73,277.42,187.6,269.28,182.9Z"/><path id="top_side" data-name="top side" class="cls-8" d="M394.22,196.77l-35.9,20.72-15,8.67L296,253.49l-15,8.66-15-8.66c-8.46-4.88-8.46-12.8,0-17.68,0,0,5-2.74,13.71-3.62,4.64-.45,9.34-1.54,13-3.65,7.64-4.41,8.54-11.23,2.64-16.12a18,18,0,0,0-2.44-1.68l-.2-.11c-8.14-4.71-21.24-4.83-29.85-.42-.33.17-.66.35-1,.53a12.82,12.82,0,0,0-6.32,7.5c-1.54,5-6.27,7.91-6.27,7.91-8.46,4.89-22.18,4.89-30.63,0l-15-8.66-35.9-20.72L203.63,176,281,131.38,296,140c8.46,4.89,8.46,12.8,0,17.69,0,0-5,2.73-13.7,3.62-4.64.45-9.34,1.54-13,3.65-7.64,4.41-8.54,11.22-2.64,16.11a16.57,16.57,0,0,0,2.44,1.68l.2.12c8.14,4.7,21.24,4.83,29.85.41.33-.17.65-.34,1-.53a12.8,12.8,0,0,0,6.32-7.5c1.54-5,6.27-7.91,6.27-7.91,8.46-4.88,22.18-4.88,30.63,0l15,8.66Z"/></g></g></svg>