<svg width="100" height="100" viewBox="0 0 100 100" fill="none" xmlns="http://www.w3.org/2000/svg">
<path fill-rule="evenodd" clip-rule="evenodd" d="M76.8571 21.4286C76.8571 19.5351 75.3221 18 73.4286 18H18.5714C16.6779 18 15.1428 19.5351 15.1428 21.4286V58C15.1428 59.8935 16.6779 61.4286 18.5714 61.4286C20.4649 61.4286 22 59.8935 22 58V24.8571H70V30.5714C70 32.4649 71.5351 34 73.4286 34C75.3221 34 76.8571 32.4649 76.8571 30.5714V21.4286Z" fill="#4A4AE2"/>
<path fill-rule="evenodd" clip-rule="evenodd" d="M71.0041 43.0041C72.3431 41.6653 74.514 41.6653 75.853 43.0041L83.8533 51.0045C85.1922 52.3433 85.1922 54.5142 83.8533 55.8532C82.5143 57.1922 80.3433 57.1922 79.0046 55.8532L76.8571 53.7058V78.5714C76.8571 80.4649 75.3221 82 73.4286 82C71.5351 82 70 80.4649 70 78.5714V53.7058L67.8526 55.8532C66.5138 57.1922 64.3428 57.1922 63.0039 55.8532C61.6649 54.5142 61.6649 52.3433 63.0039 51.0045L71.0041 43.0041ZM51.7143 60.2857C51.7143 58.3922 53.2494 56.8571 55.1428 56.8571C57.0363 56.8571 58.5714 58.3922 58.5714 60.2857V78.5714C58.5714 80.4649 57.0363 82 55.1428 82C53.2494 82 51.7143 80.4649 51.7143 78.5714V60.2857ZM36.8571 63.7142C34.9636 63.7142 33.4285 65.2493 33.4285 67.1428V78.5714C33.4285 80.4649 34.9636 82 36.8571 82C38.7506 82 40.2857 80.4649 40.2857 78.5714V67.1428C40.2857 65.2493 38.7506 63.7142 36.8571 63.7142ZM18.5714 68.2857C16.6779 68.2857 15.1428 69.8208 15.1428 71.7142V78.5714C15.1428 80.4649 16.6779 82 18.5714 82C20.4649 82 22 80.4649 22 78.5714V71.7142C22 69.8208 20.4649 68.2857 18.5714 68.2857Z" fill="#7CB7F3"/>
</svg>
