<svg width="100" height="100" viewBox="0 0 100 100" fill="none" xmlns="http://www.w3.org/2000/svg">
<g clip-path="url(#clip0)">
<path fill-rule="evenodd" clip-rule="evenodd" d="M251.159 71.6749C251.378 71.6749 251.484 71.5167 251.484 71.3303V71.0305C251.484 70.8275 251.369 70.7048 251.159 70.7048H250.32V71.6749H251.159ZM250.322 72.1327V73.235H249.749V70.2374H251.126C251.734 70.2374 252.079 70.582 252.079 71.191C252.079 71.7197 251.786 72.01 251.423 72.1068L252.086 73.235H251.451L250.834 72.1327H250.322V72.1327ZM250.643 74.2806C251.015 74.3164 251.391 74.2693 251.743 74.1427C252.095 74.0161 252.415 73.8132 252.68 73.5484C252.945 73.2837 253.148 72.9636 253.274 72.6111C253.401 72.2587 253.448 71.8825 253.413 71.5096C253.355 70.9137 253.091 70.3566 252.668 69.9335C252.245 69.5103 251.688 69.2473 251.093 69.1895C250.72 69.1537 250.344 69.2009 249.992 69.3276C249.639 69.4543 249.319 69.6574 249.054 69.9223C248.789 70.1873 248.586 70.5077 248.459 70.8604C248.333 71.2131 248.285 71.5896 248.321 71.9628C248.42 73.1665 249.436 74.1815 250.643 74.283V74.2806ZM131.978 55.8894L131.511 56.031C127.914 57.1068 124.079 57.0961 120.487 56.0003L120.02 55.854L125.594 37.6279C125.73 37.1842 126.36 37.1866 126.492 37.6279L131.98 55.8894H131.978ZM119.223 29.5794L103.795 74.8636H114.206L117.575 63.8553L118.047 63.9969C123.163 65.5688 128.798 65.583 133.914 64.037L134.385 63.8954L137.686 74.8636H148.078L132.73 29.5889C132.257 28.1944 131.359 26.9835 130.162 26.1262C128.966 25.2689 127.532 24.8084 126.06 24.8093H125.886C124.417 24.8092 122.985 25.269 121.79 26.1244C120.596 26.9798 119.698 28.1879 119.223 29.5794V29.5794ZM226.317 37.314H215.272L204.488 51.8203V24.8093H195.169V74.8659H204.488V56.85L217.099 74.8659H227.489L213.704 55.4126C213.469 55.0814 213.348 54.6829 213.358 54.2769C213.369 53.8709 213.511 53.4793 213.763 53.1609L226.317 37.314V37.314ZM177.447 37.3117H162.476C161.379 37.3107 160.293 37.5261 159.279 37.9455C158.265 38.3649 157.344 38.9801 156.567 39.756C155.791 40.5318 155.175 41.4532 154.754 42.4674C154.334 43.4816 154.117 44.5689 154.116 45.667V74.8636H163.438V47.8149C163.438 47.2452 163.664 46.6989 164.066 46.2961C164.468 45.8933 165.014 45.667 165.583 45.667H175.301C175.87 45.667 176.416 45.8933 176.818 46.2961C177.221 46.6989 177.447 47.2452 177.447 47.8149V74.8636H186.766V45.667C186.764 43.4496 185.883 41.3237 184.315 39.7568C182.748 38.1899 180.623 37.3104 178.408 37.3117H177.447V37.3117ZM254 37.3117H241.321C240.224 37.3107 239.138 37.5261 238.124 37.9455C237.11 38.3649 236.189 38.9801 235.412 39.756C234.636 40.5318 234.02 41.4532 233.599 42.4674C233.179 43.4816 232.962 44.5689 232.961 45.667V74.8636H242.28V47.8149C242.28 47.2452 242.506 46.6989 242.909 46.2961C243.311 45.8933 243.857 45.667 244.426 45.667H254V37.3117V37.3117ZM54.7432 11.2519L80.9219 24.6819C82.7856 25.6313 84.3499 27.0793 85.4412 28.8651C86.5324 30.6509 87.1078 32.7045 87.1036 34.798V40.9205H77.4468V34.798C77.4472 34.4814 77.3599 34.1708 77.1947 33.9009C77.0295 33.6309 76.7928 33.412 76.5109 33.2685L50.3345 19.8386C50.0914 19.7143 49.8224 19.6495 49.5494 19.6495C49.2765 19.6495 49.0074 19.7143 48.7644 19.8386L22.5856 33.2685C22.3041 33.4123 22.0679 33.6313 21.9031 33.9013C21.7384 34.1713 21.6514 34.4816 21.652 34.798V40.9205H12V34.798C11.9955 32.7048 12.5706 30.6513 13.6614 28.8655C14.7522 27.0798 16.3161 25.6316 18.1793 24.6819L44.3604 11.2519C45.9675 10.4291 47.7467 10 49.5518 10C51.3569 10 53.1361 10.4291 54.7432 11.2519V11.2519ZM57.8104 49.5922C57.8104 45.0368 54.1043 41.3312 49.5494 41.3312C47.3601 41.3318 45.2604 42.202 43.7112 43.7508C42.162 45.2995 41.2898 47.4003 41.2861 49.5922C41.2861 54.1475 44.9922 57.8531 49.5494 57.8531C51.7382 57.8512 53.8369 56.9806 55.3855 55.432C56.934 53.8835 57.8061 51.7834 57.8104 49.5922ZM76.5156 66.7324C76.7972 66.5889 77.0336 66.3699 77.1984 66.0999C77.3632 65.8299 77.45 65.5194 77.4492 65.203V59.0804H87.1036V65.2054C87.1078 67.2979 86.5329 69.3507 85.4425 71.136C84.3522 72.9213 82.7891 74.3692 80.9267 75.3191L54.7432 88.749C53.1355 89.57 51.3566 89.9987 49.5518 90C47.747 89.9986 45.9681 89.5699 44.3604 88.749L18.1769 75.3191C16.3143 74.3694 14.7511 72.9216 13.6607 71.1362C12.5703 69.3509 11.9955 67.298 12 65.2054V59.0804H21.652V65.2054C21.652 65.8521 22.0104 66.4374 22.5856 66.7324L44.7234 78.0877V66.8363C37.1815 64.7262 31.6317 57.7965 31.6317 49.5922C31.6317 39.7144 39.6711 31.6777 49.5494 31.6777C59.4278 31.6777 67.4671 39.7144 67.4671 49.5922C67.4671 57.7965 61.9174 64.7262 54.3754 66.8363V78.0901L76.5132 66.7324H76.5156Z" fill="black"/>
</g>
<defs>
<clipPath id="clip0">
<rect width="100" height="100" fill="white"/>
</clipPath>
</defs>
</svg>
