<svg width="100" height="100" viewBox="0 0 100 100" fill="none" xmlns="http://www.w3.org/2000/svg">
<path d="M50.238 34.0717L33.6064 71.7869C33.0572 72.9971 32.7718 73.9784 31.5629 73.9784L20.5778 73.9821C19.0026 73.9821 18.1342 73.55 18.8991 71.7924L45.7597 10.0382C46.309 9.01114 46.6495 8.25684 47.8597 8.25684H52.6162C53.8246 8.25684 54.1651 9.01114 54.7144 10.0382L81.5764 71.7924C82.3399 73.55 81.4721 73.9821 79.8976 73.9821L68.9125 73.9784C67.7023 73.9784 67.4186 72.9971 66.8693 71.7869L50.238 34.0717Z" fill="black"/>
<path d="M51.1494 91.2148L40.1644 69.2446H61.7656L51.1494 91.2148Z" fill="#32FEFF"/>
</svg>
