<svg width="100" height="100" viewBox="0 0 100 100" fill="none" xmlns="http://www.w3.org/2000/svg">
<g clip-path="url(#clip0)">
<path d="M37.3127 47.0855C37.3127 41.1222 42.0834 36.272 48.0467 36.272C54.01 36.272 58.8602 41.1222 58.7806 47.0855C58.7806 53.0488 54.01 57.7399 48.1262 57.8195C42.0834 57.8195 37.3127 53.1283 37.3127 47.0855Z" fill="#7E0A9B"/>
<path d="M19.9819 87C20.3795 85.8869 20.6975 85.0917 21.0156 84.2171C23.2419 78.1743 25.5477 72.052 27.774 66.0092C28.1715 64.896 28.7281 64.4189 29.8413 64.3394C33.2602 63.9419 36.5997 63.4648 40.0186 62.9082C40.8137 62.7492 41.2908 62.9877 41.6884 63.7033C42.563 65.4526 43.4376 67.2813 44.3917 69.0306C44.7893 69.7462 44.7098 70.1437 43.9942 70.6208C36.2816 75.948 28.5691 81.3547 20.777 86.6819C20.6975 86.7615 20.5385 86.7615 19.9819 87Z" fill="#7E0A9B"/>
<path d="M77.2271 86.8409C72.218 83.1834 67.3678 79.4464 62.2791 75.8684C60.3709 74.5168 59.4962 73.2446 59.9733 70.7798C60.6094 67.5993 60.8479 64.3394 61.166 61.0794C61.2455 60.1253 61.643 59.6483 62.5972 59.6483C63.3923 59.6483 64.1874 59.4892 64.9825 59.3302C67.8449 58.8531 67.3678 58.8531 68.2424 61.318C71.1843 69.269 74.0467 77.2201 76.9886 85.1712C77.1476 85.6483 77.3066 86.2048 77.4657 86.6819C77.4657 86.7614 77.3862 86.8409 77.2271 86.8409Z" fill="#7E0A9B"/>
<path d="M93.6878 35.8744C92.9722 36.431 92.6542 36.749 92.3361 36.9876C88.2811 39.8499 84.226 42.6328 80.1709 45.4952C79.3758 46.0518 78.7398 46.1313 77.8651 45.6542C73.6511 43.4279 69.5165 41.2016 65.2229 39.0548C63.7122 38.3392 64.1098 37.2261 64.2688 36.1924C64.4278 35.0793 65.382 35.4768 66.0976 35.4768C74.6847 35.5563 83.1924 35.6359 91.7795 35.7949C92.2566 35.7154 92.7336 35.7949 93.6878 35.8744Z" fill="#7E0A9B"/>
<path d="M7.02075 34.7614C8.05439 34.7614 8.92901 34.7614 9.80363 34.7614C15.1308 34.8409 20.4581 34.9204 25.8648 34.9204C26.8984 34.9204 27.5345 35.159 27.9321 36.1926C28.8067 38.1009 29.7608 40.0091 30.7945 41.9174C31.192 42.7125 31.1125 43.269 30.4764 43.8256C28.9657 45.0978 27.614 46.529 26.1033 47.8012C25.7853 48.0397 24.9902 48.1987 24.6721 47.9602C18.8679 43.7461 13.2226 39.532 7.49781 35.2385C7.25928 35.2385 7.17977 35.0794 7.02075 34.7614Z" fill="#7E0A9B"/>
<path d="M49.0018 9C49.3198 9.63609 49.4788 9.95413 49.6379 10.3517C50.91 13.8502 52.1822 17.4281 53.5339 20.9266C53.8519 21.8012 53.7724 22.3578 53.0568 22.9939C51.0691 24.7431 49.1608 26.4924 47.2525 28.3211C46.5369 29.0367 45.9009 29.0367 45.0262 28.5596C41.7663 26.7309 42.0843 27.685 43.277 24.2661C44.9467 19.7339 46.6165 15.2813 48.2862 10.7492C48.5247 10.2722 48.6837 9.79511 49.0018 9Z" fill="#7E0A9B"/>
<path d="M5.1928 59.5689C7.26008 59.5689 8.69127 61.0796 8.69127 63.1469C8.69127 65.2142 7.26009 66.6454 5.27232 66.6454C3.20504 66.6454 1.77385 65.2142 1.69434 63.1469C1.69434 61.0796 3.12552 59.5689 5.1928 59.5689Z" fill="#7E0A9B"/>
<path d="M98.2987 62.0338C97.3446 62.6699 96.788 63.3855 96.3904 63.306C95.8339 63.2265 95.1183 62.5109 95.0387 62.0338C94.9592 61.6363 95.7543 60.8412 96.2314 60.7617C96.7085 60.7617 97.265 61.3977 98.2987 62.0338Z" fill="#7E0A9B"/>
<path d="M-0.692037 49.1526C-1.01008 48.5961 -1.32812 48.278 -1.32812 48.0395C-1.32812 47.8009 -0.930569 47.5624 -0.692037 47.3239C-0.453504 47.5624 -0.0559604 47.8009 -0.0559604 48.119C0.0235504 48.3575 -0.294483 48.5961 -0.692037 49.1526Z" fill="#7E0A9B"/>
<path d="M81.2032 20.6084C80.8852 19.9724 80.5671 19.6543 80.6466 19.4158C80.6466 19.1772 81.0442 18.9387 81.2827 18.7797C81.5213 19.0182 81.9188 19.2568 81.9983 19.4953C81.9188 19.7338 81.6008 20.0519 81.2032 20.6084Z" fill="#7E0A9B"/>
</g>
<defs>
<clipPath id="clip0">
<rect width="100" height="100" fill="white"/>
</clipPath>
</defs>
</svg>
