<svg width="100" height="100" viewBox="0 0 100 100" fill="none" xmlns="http://www.w3.org/2000/svg">
<path d="M99.7408 49.703L93.3045 41.3905C93.1367 41.1674 92.8004 41 92.5211 41H62.8572V59.5715H92.8568C93.1367 59.5715 93.3602 59.4599 93.528 59.2367L99.7965 51.2093C100.076 50.763 100.076 50.1493 99.7408 49.703ZM76.9052 56.2861H66.8308V44.1799H76.6817V47.2483H70.8608V48.643H76.0098V51.5998H70.8608V53.1619H76.9052V56.2861ZM86.6439 56.2861L84.5732 53.0504L82.5025 56.2861H77.857L82.2226 50.2051L77.9691 44.2357H82.5582L84.6289 47.3041L86.6439 44.2357H91.0659L86.8681 50.0935L91.3452 56.3418H86.6439V56.2861Z" fill="black"/>
<path fill-rule="evenodd" clip-rule="evenodd" d="M66.8148 56.2865H76.8892V53.1623H70.8442V51.6002H75.9938V48.6434H70.8442V47.2487H76.665V44.1803H66.8148V56.2865ZM84.5572 53.0507L86.6279 56.2865V56.3423H91.3292L86.8515 50.0939L91.0493 44.2361H86.6279L84.6129 47.3045L82.5422 44.2361H77.9524L82.2059 50.2055L77.8403 56.2865H82.4858L84.5572 53.0507Z" fill="white"/>
<path opacity="0.95" fill-rule="evenodd" clip-rule="evenodd" d="M2.65669 52.4529C2.74103 53.0614 2.90669 53.5162 3.15367 53.8174C3.6055 54.3656 4.37959 54.6397 5.47598 54.6397C6.13262 54.6397 6.66577 54.5674 7.0754 54.4229C7.85255 54.1458 8.24116 53.6307 8.24116 52.8777C8.24116 52.4379 8.04835 52.0975 7.66279 51.8566C7.27724 51.6216 6.67181 51.4138 5.84649 51.233L4.43683 50.9168C3.05125 50.6035 2.09342 50.2631 1.56328 49.8956C0.665662 49.2812 0.216853 48.3203 0.216853 47.0131C0.216853 45.8203 0.650597 44.8293 1.51809 44.0401C2.38558 43.251 3.65968 42.8564 5.34045 42.8564C6.7441 42.8564 7.94143 43.2284 8.93216 43.9724C9.92321 44.7164 10.4429 45.7962 10.4912 47.2119H7.81641C7.76819 46.4107 7.41878 45.8414 6.76818 45.504C6.33445 45.2811 5.7953 45.1697 5.1507 45.1697C4.4338 45.1697 3.8615 45.3143 3.4338 45.6034C3.00605 45.8926 2.79222 46.2962 2.79222 46.8143C2.79222 47.2902 3.00308 47.6456 3.42474 47.8805C3.69585 48.0372 4.27415 48.2209 5.15972 48.4318L7.45499 48.983C8.46084 49.224 9.22008 49.5462 9.73199 49.9499C10.5275 50.5764 10.925 51.483 10.925 52.6698C10.925 53.8867 10.4597 54.8973 9.5287 55.7015C8.59807 56.5057 7.28327 56.9078 5.58445 56.9078C3.84946 56.9078 2.48499 56.5117 1.49099 55.7196C0.49698 54.9274 0 53.8385 0 52.4529H2.65669ZM11.7654 48.6396V46.8053H13.1389V44.0582H15.6872V46.8053H17.2864V48.6396H15.6872V53.8445C15.6872 54.2481 15.7381 54.4996 15.8404 54.599C15.9432 54.6985 16.2561 54.7482 16.7805 54.7482C16.8587 54.7482 16.9415 54.7467 17.0287 54.7436C17.1163 54.7406 17.2022 54.7361 17.2864 54.7301V56.6548L16.0666 56.7C14.8498 56.7422 14.0186 56.5313 13.5726 56.0675C13.2835 55.7722 13.1389 55.3174 13.1389 54.703V48.6396H11.7654ZM22.8256 48.5764C22.2295 48.5764 21.7668 48.7632 21.4387 49.1366C21.1102 49.5101 20.9039 50.0161 20.8198 50.6547H24.8227C24.7804 49.974 24.5741 49.4574 24.2038 49.105C23.8334 48.7525 23.3737 48.5764 22.8256 48.5764ZM22.8256 46.4528C23.6448 46.4528 24.3828 46.6064 25.0394 46.9137C25.6963 47.2209 26.2385 47.7058 26.6662 48.3685C27.0516 48.9529 27.3015 49.6306 27.416 50.4017C27.4824 50.8535 27.5096 51.5041 27.4975 52.3536H20.7563C20.7926 53.3415 21.1029 54.0343 21.6873 54.4319C22.0426 54.6789 22.4703 54.8024 22.9701 54.8024C23.5006 54.8024 23.931 54.6518 24.2625 54.3506C24.4433 54.1879 24.603 53.962 24.7415 53.6729H27.3711C27.3046 54.2572 27.0003 54.8506 26.4581 55.453C25.6147 56.4108 24.4342 56.8898 22.9162 56.8898C21.6632 56.8898 20.5578 56.4861 19.5996 55.6789C18.6417 54.8717 18.163 53.5584 18.163 51.739C18.163 50.0342 18.5951 48.7269 19.4597 47.8173C20.3242 46.9076 21.446 46.4528 22.8256 46.4528ZM34.663 51.7753C34.5007 51.8776 34.3363 51.9604 34.171 52.0237C34.0053 52.0869 33.7778 52.1457 33.4886 52.1999L32.9102 52.3083C32.368 52.4048 31.9796 52.5222 31.7444 52.6608C31.3468 52.8957 31.1482 53.2602 31.1482 53.7542C31.1482 54.1939 31.27 54.5117 31.5143 54.7075C31.7582 54.9033 32.0547 55.0012 32.4043 55.0012C32.9586 55.0012 33.4691 54.8385 33.9357 54.5132C34.4028 54.1879 34.6454 53.5945 34.663 52.7331V51.7753ZM33.1001 50.5734C33.5758 50.5131 33.9163 50.4378 34.1209 50.3475C34.4886 50.1908 34.6721 49.9469 34.6721 49.6155C34.6721 49.2119 34.5322 48.9333 34.2521 48.7797C33.972 48.6261 33.5607 48.5493 33.0185 48.5493C32.4104 48.5493 31.9796 48.6999 31.7267 49.0011C31.5458 49.224 31.4253 49.5252 31.3649 49.9047H28.8801C28.9344 49.0432 29.1753 48.3354 29.603 47.7812C30.2837 46.9137 31.4521 46.4799 33.1092 46.4799C34.1874 46.4799 35.1451 46.6938 35.9825 47.1215C36.8199 47.5493 37.2385 48.3565 37.2385 49.5433V54.0614C37.2385 54.3747 37.2447 54.7542 37.2567 55.2C37.2748 55.5373 37.3258 55.7663 37.4103 55.8867C37.4945 56.0072 37.621 56.1066 37.7898 56.1849V56.5644H34.9885C34.9103 56.3657 34.856 56.1789 34.8258 56.0042C34.796 55.8295 34.7718 55.6307 34.7537 55.4078C34.398 55.7934 33.9884 56.1216 33.5248 56.3928C32.9706 56.7121 32.3439 56.8717 31.6451 56.8717C30.7537 56.8717 30.017 56.6172 29.4355 56.1081C28.8546 55.5991 28.5637 54.8777 28.5637 53.9439C28.5637 52.7331 29.0307 51.8566 29.9643 51.3143C30.4767 51.0192 31.2294 50.8083 32.2235 50.6818L33.1001 50.5734ZM42.1544 56.5644H39.5789V43.2449H42.1544V56.5644ZM43.6543 48.6396V46.8053H45.0278V44.0582H47.5762V46.8053H49.1754V48.6396H47.5762V53.8445C47.5762 54.2481 47.6275 54.4996 47.7298 54.599C47.8321 54.6985 48.1455 54.7482 48.6695 54.7482C48.748 54.7482 48.8305 54.7467 48.9181 54.7436C49.0053 54.7406 49.0912 54.7361 49.1754 54.7301V56.6548L47.9556 56.7C46.7388 56.7422 45.9075 56.5313 45.4616 56.0675C45.1724 55.7722 45.0278 55.3174 45.0278 54.703V48.6396H43.6543ZM56.2601 46.4619C56.8683 46.4619 57.4212 46.5673 57.918 46.7781C58.4153 46.989 58.8232 47.3113 59.1426 47.745C59.4136 48.1125 59.5794 48.4905 59.6394 48.8791C59.6998 49.2676 59.73 49.9017 59.73 50.7812V56.5644H57.1006V50.5734C57.1006 50.0433 57.0099 49.6156 56.8295 49.2903C56.5942 48.8324 56.1484 48.6034 55.4919 48.6034C54.8112 48.6034 54.2945 48.8309 53.9423 49.2857C53.5897 49.7405 53.4135 50.3896 53.4135 51.233V56.5644H50.8471V43.2901H53.4135V47.998C53.7869 47.4257 54.2194 47.0266 54.7101 46.8007C55.2014 46.5748 55.718 46.4619 56.2601 46.4619Z" fill="black"/>
</svg>
