<svg width="100" height="99" viewBox="0 0 100 99" fill="none" xmlns="http://www.w3.org/2000/svg">
<g clip-path="url(#clip0)">
<path fill-rule="evenodd" clip-rule="evenodd" d="M85.6367 68.5379L85.6352 28.3504L51.0668 8.23553L51.0682 48.4389L16.5089 68.5449L51.0788 88.6572L85.6148 68.5647L85.6367 68.5775V68.552L85.6489 68.5449L85.6367 68.5379Z" fill="#64C557"/>
<path d="M16.5195 28.3482L51.088 8.23334L51.0865 48.4604L16.5179 68.5753L16.5195 28.3482Z" fill="#118AB2"/>
<path d="M51.0909 8.19577L85.6609 28.308L74.1375 35.0121L39.5675 14.8999L51.0909 8.19577Z" fill="#00F8B7"/>
<path d="M74.1121 35L74.1127 48.409L39.5443 28.2942L39.5437 14.8852L74.1121 35Z" fill="#09BD8E"/>
<path d="M39.5209 28.3141L74.0908 48.4262L62.5676 55.1304L27.9976 35.0181L39.5209 28.3141Z" fill="#FFE3A3"/>
<path d="M62.7047 55.2L62.7052 68.6089L28.1368 48.4941L28.1362 35.0851L62.7047 55.2Z" fill="#FFBB1D"/>
<path d="M28.0317 48.4319L62.6017 68.5441L51.0783 75.2481L16.5083 55.136L28.0317 48.4319Z" fill="#FF965E"/>
<path d="M51.0529 75.2365L51.0534 88.6456L16.4849 68.5307L16.4844 55.1217L51.0529 75.2365Z" fill="#D94C00"/>
<path d="M74.1286 35.0035L85.6513 28.2986L85.6499 68.5256L74.1271 75.2305L74.1286 35.0035Z" fill="#06D6A0"/>
<path d="M62.5806 55.1223L74.1035 48.4174L74.1025 75.2354L62.5796 81.9404L62.5806 55.1223Z" fill="#FFD166"/>
<path d="M51.0335 75.2402L62.5564 68.5353L62.5558 81.9443L51.0331 88.6493L51.0335 75.2402Z" fill="#F3722C"/>
</g>
<defs>
<clipPath id="clip0">
<rect width="99.6581" height="98.4269" fill="white"/>
</clipPath>
</defs>
</svg>
