<svg width="100" height="100" viewBox="0 0 100 100" fill="none" xmlns="http://www.w3.org/2000/svg">
<path d="M27 42H72V58H27V42Z" fill="#B391B5"/>
<path fill-rule="evenodd" clip-rule="evenodd" d="M27 42H72V58H27V42ZM27.4289 42.4226V57.5774H71.5711V42.4226H27.4289Z" fill="#333333"/>
<path d="M27 61H72V77H27V61Z" fill="#5E5E5E"/>
<path fill-rule="evenodd" clip-rule="evenodd" d="M27 61H72V77H27V61ZM27.4289 61.4226V76.5774H71.5711V61.4226H27.4289Z" fill="#333333"/>
<path d="M27 23H72V39H27V23Z" fill="#FFDBA9"/>
<path fill-rule="evenodd" clip-rule="evenodd" d="M27 23H72V39H27V23ZM27.4289 23.4226V38.5774H71.5711V23.4226H27.4289Z" fill="#333333"/>
<path fill-rule="evenodd" clip-rule="evenodd" d="M73.0442 31.8703L73 31.8669L73.0508 31L73.1213 31.0053L73.3579 31.042L73.5807 31.0951L73.8001 31.1599L74.0141 31.2402L74.2236 31.3355L74.4332 31.4427L74.6456 31.5707L74.8508 31.7135L75.0612 31.8762L75.2687 32.064L75.4737 32.2738L75.684 32.506L75.8963 32.7708L76.1113 33.0734L76.3287 33.42L76.5439 33.8088L76.7651 34.2547L76.9796 34.7674L77.1901 35.3478L77.3923 36.0104L77.5778 36.76L77.7412 37.5969L77.8707 38.5165L77.9609 39.5038L78 40.5338L77.9922 41.575L77.9295 42.5906L77.8236 43.5535L77.6782 44.4429L77.5048 45.2448L77.3112 45.9594L77.1048 46.5912L76.8918 47.1412L76.6776 47.6237L76.4846 48L75.8245 47.5622L76.0059 47.2087L76.2005 46.7701L76.3963 46.2645L76.5873 45.6799L76.7681 45.013L76.9309 44.2596L77.0682 43.42L77.1687 42.5062L77.2283 41.5408L77.2357 40.5488L77.1984 39.5674L77.1129 38.6302L76.9902 37.7599L76.8365 36.972L76.6629 36.2707L76.4753 35.6561L76.2809 35.1199L76.0865 34.6552L75.8874 34.2539L75.6938 33.9042L75.5025 33.5991L75.3162 33.337L75.135 33.1109L74.9518 32.9086L74.7747 32.7275L74.6078 32.5764L74.4362 32.4437L74.2669 32.3258L74.0972 32.2236L73.9248 32.1353L73.7522 32.0569L73.5841 31.9938L73.4062 31.9413L73.2278 31.8988L73.0442 31.8703Z" fill="#333333"/>
<path d="M73 31.0148L72.9524 32L72 31.9852V31L73 31.0148Z" fill="#333333"/>
<path d="M73 49L74.9835 47L76 48.3635L73 49Z" fill="#333333"/>
<path fill-rule="evenodd" clip-rule="evenodd" d="M75.3058 46L77 48.727L72 50L75.3058 46ZM74.3655 48.4978L75.6379 48.1739L75.2068 47.4799L74.3655 48.4978Z" fill="#333333"/>
<path fill-rule="evenodd" clip-rule="evenodd" d="M23.1141 52.6419L23.2219 52.4555L22.6035 52L22.4824 52.2094L22.2725 52.6306L22.0639 53.1034L21.86 53.6463L21.6628 54.2619L21.4797 54.9549L21.3143 55.7317L21.1777 56.588L21.0756 57.5124L21.0151 58.4847L21 59.4833L21.0378 60.4744L21.123 61.4263L21.2441 62.3168L21.3959 63.1352L21.5712 63.8703L21.7623 64.5238L21.9634 65.101L22.1694 65.6115L22.3785 66.0595L22.5883 66.454L22.7958 66.8008L23.0035 67.1061L23.207 67.378L23.4112 67.6174L23.6108 67.8314L23.8128 68.0206L24.0137 68.1883L24.2141 68.3376L24.4127 68.4703L24.6134 68.5858L24.8164 68.6866L25.02 68.774L25.2288 68.8479L25.437 68.9072L25.6532 68.9573L25.8811 68.9948L25.9509 69L26 68.1685L25.959 68.1654L25.7808 68.1362L25.6019 68.0946L25.4298 68.0456L25.262 67.9862L25.0964 67.9152L24.9302 67.8327L24.7689 67.7398L24.6057 67.6308L24.437 67.5051L24.2686 67.3645L24.1014 67.2079L23.9317 67.026L23.7557 66.8196L23.5788 66.5832L23.3952 66.3134L23.2113 66.0061L23.0223 65.6506L22.8326 65.2444L22.6436 64.7757L22.457 64.2404L22.2789 63.6313L22.1144 62.9414L21.9709 62.1681L21.8558 61.3212L21.7747 60.4146L21.7387 59.4724L21.7531 58.521L21.8108 57.5932L21.908 56.7135L22.0373 55.903L22.1931 55.1715L22.3645 54.5228L22.5476 53.9508L22.735 53.4521L22.9253 53.0207L23.1141 52.6419Z" fill="#333333"/>
<path d="M27 68.0123V69L26 68.9877L26.0476 68L27 68.0123Z" fill="#333333"/>
<path d="M26 50L23.9863 53L23 50.9077L26 50Z" fill="#333333"/>
<path fill-rule="evenodd" clip-rule="evenodd" d="M27 49L23.6438 53L22 50.2102L27 49ZM23.347 50.7912L23.7659 51.5022L24.6212 50.4829L23.347 50.7912Z" fill="#333333"/>
</svg>
