<?xml version="1.0" standalone="no"?>
<!DOCTYPE svg PUBLIC "-//W3C//DTD SVG 20010904//EN"
 "http://www.w3.org/TR/2001/REC-SVG-20010904/DTD/svg10.dtd">
<svg version="1.0" xmlns="http://www.w3.org/2000/svg"
 width="400.000000pt" height="400.000000pt" viewBox="0 0 400.000000 400.000000"
 preserveAspectRatio="xMidYMid meet">

<g transform="translate(0.000000,400.000000) scale(0.100000,-0.100000)"
fill="#000000" stroke="none">
<path d="M0 2000 l0 -2000 2000 0 2000 0 0 2000 0 2000 -2000 0 -2000 0 0
-2000z m1560 1180 c0 -5 -2 -10 -4 -10 -3 0 -8 5 -11 10 -3 6 -1 10 4 10 6 0
11 -4 11 -10z m32 -2 c-8 -8 -9 -15 -1 -25 7 -8 8 -13 1 -13 -15 0 -22 26 -9
39 6 6 13 11 16 11 3 0 0 -5 -7 -12z m53 -67 c-3 -5 7 -19 21 -30 15 -12 22
-21 17 -21 -14 0 -54 45 -46 53 9 10 15 9 8 -2z m69 -77 c3 -8 2 -12 -4 -9 -6
3 -10 10 -10 16 0 14 7 11 14 -7z m65 -58 c17 -19 20 -26 9 -32 -7 -4 -10 -3
-5 1 4 5 -3 19 -15 32 -12 13 -19 23 -16 23 2 0 15 -11 27 -24z m701 -55 c0
-6 -4 -13 -10 -16 -5 -3 -10 1 -10 9 0 9 5 16 10 16 6 0 10 -4 10 -9z m-4 -40
c-4 -5 7 -23 24 -39 16 -17 30 -37 30 -44 0 -8 16 -29 35 -48 19 -19 35 -42
35 -52 0 -11 11 -23 26 -28 14 -6 22 -14 19 -20 -3 -5 -1 -10 4 -10 6 0 11 -5
11 -11 0 -5 -4 -8 -8 -5 -5 3 -8 -8 -8 -25 0 -33 2 -35 22 -15 19 19 18 32 -1
16 -10 -9 -15 -9 -15 -1 0 11 13 15 39 12 7 -2 11 1 8 6 -3 5 3 9 13 9 14 0
16 -3 8 -13 -13 -17 4 -17 21 0 8 6 11 7 8 2 -12 -22 -116 -87 -128 -79 -7 4
-9 3 -6 -4 4 -6 -14 -23 -40 -40 -27 -16 -106 -66 -177 -111 l-129 -82 5 83
c5 97 26 150 96 247 57 77 92 158 92 211 0 20 3 40 7 43 9 10 15 8 9 -2z
m-616 -51 c0 -5 -2 -10 -4 -10 -3 0 -8 5 -11 10 -3 6 -1 10 4 10 6 0 11 -4 11
-10z m7 -35 c0 -8 -4 -12 -9 -9 -4 3 -8 9 -8 15 0 5 4 9 8 9 5 0 9 -7 9 -15z
m20 -17 c-3 -8 -6 -5 -6 6 -1 11 2 17 5 13 3 -3 4 -12 1 -19z m-778 -46 c-14
-37 -11 -49 19 -61 50 -20 112 -70 112 -91 0 -6 7 -13 16 -17 13 -5 13 -7 2
-14 -9 -6 -4 -9 15 -9 15 0 30 -7 33 -15 3 -8 15 -17 25 -20 21 -7 22 -42 1
-38 -18 4 -14 -15 6 -26 36 -21 2 -10 -64 22 l-69 32 -200 -2 -200 -3 89 89
c49 50 93 88 98 85 5 -3 7 0 6 8 -2 7 5 12 14 12 10 -1 15 2 12 7 -3 5 4 21
15 34 10 14 22 21 25 16 3 -5 0 -11 -6 -14 -7 -2 -1 -4 14 -3 16 0 28 7 28 14
0 7 -4 10 -10 7 -5 -3 -10 -2 -10 4 0 5 9 9 19 8 16 -1 17 -5 10 -25z m758 6
c-3 -8 -6 -5 -6 6 -1 11 2 17 5 13 3 -3 4 -12 1 -19z m33 2 c0 -5 -2 -10 -4
-10 -3 0 -8 5 -11 10 -3 6 -1 10 4 10 6 0 11 -4 11 -10z m0 -55 c2 26 4 32 7
18 2 -13 10 -23 18 -23 14 0 25 -21 25 -49 0 -10 11 -24 25 -31 14 -7 25 -20
25 -27 0 -8 5 -11 10 -8 6 3 10 1 10 -6 0 -8 9 -5 23 7 12 10 16 12 10 4 -7
-8 -13 -24 -13 -37 0 -14 -6 -23 -15 -23 -17 0 -21 -16 -5 -22 6 -2 5 -19 -3
-46 l-13 -42 -32 33 c-18 18 -32 38 -32 44 0 6 -5 13 -10 15 -15 5 -60 119
-60 153 0 17 4 41 7 55 7 23 8 21 14 -15 l6 -40 3 40z m-520 -242 c0 -8 4 -12
9 -9 4 3 6 -6 3 -19 -4 -21 -7 -23 -24 -14 -11 6 -17 17 -14 24 3 8 1 17 -5
20 -5 4 -7 10 -4 15 8 13 35 0 35 -17z m40 -58 c-11 -13 -10 -14 4 -9 9 3 16
10 16 15 0 4 7 6 15 3 8 -3 14 -9 13 -12 -2 -22 3 -42 13 -42 5 0 7 5 4 10
-10 16 11 12 25 -5 9 -11 9 -15 1 -15 -7 0 -9 -5 -6 -10 4 -6 10 -8 14 -6 4 3
13 1 21 -4 8 -5 21 -5 31 1 14 7 16 5 12 -11 -3 -11 -8 -18 -12 -16 -12 6 -46
19 -57 21 -21 5 -64 37 -59 45 6 9 -25 23 -33 15 -3 -3 1 -5 8 -5 7 0 11 -3 8
-6 -3 -3 -15 0 -26 7 -22 14 -19 39 5 39 13 0 13 -3 3 -15z m1407 -201 c-3 -3
-12 -4 -19 -1 -8 3 -5 6 6 6 11 1 17 -2 13 -5z m-2002 -23 c-4 -15 2 -25 22
-38 33 -21 44 -34 37 -45 -3 -5 24 -37 59 -71 36 -34 68 -72 71 -83 4 -13 18
-24 34 -28 42 -9 56 -21 47 -42 -16 -37 -14 -45 8 -42 12 1 28 -1 35 -6 7 -4
11 -4 10 1 -2 4 2 10 7 11 6 2 15 7 20 11 6 4 21 4 35 0 23 -6 23 -7 -8 -8
-24 -1 -31 -5 -26 -13 4 -7 4 -10 -1 -6 -4 4 -17 1 -28 -7 -16 -11 -24 -12
-34 -3 -10 8 -17 8 -26 -1 -9 -10 -8 -11 6 -6 30 12 19 -2 -30 -38 -27 -20
-95 -87 -153 -151 l-105 -116 -6 178 c-11 294 -10 514 1 507 6 -3 10 -1 10 4
0 6 5 11 11 11 6 0 8 -8 4 -19z m1951 10 c-16 -6 -17 -9 -5 -17 8 -4 19 -9 24
-10 6 0 16 -2 23 -2 6 -1 12 -9 12 -17 0 -22 30 -65 45 -65 16 0 125 -104 125
-119 0 -7 6 -14 13 -17 8 -3 14 -11 14 -18 0 -8 -6 -12 -14 -9 -7 3 -10 10 -6
16 3 6 1 7 -6 3 -9 -6 -9 -11 0 -22 12 -15 9 -15 -38 2 -10 4 -34 9 -53 11
-19 2 -96 19 -170 37 -74 19 -170 41 -212 51 -43 9 -80 21 -84 27 -11 17 57
77 125 110 56 27 128 43 206 46 19 1 19 0 1 -7z m297 -288 c-3 -7 -9 -13 -13
-13 -16 0 -22 21 -9 36 14 17 31 0 22 -23z m32 -13 c3 -5 2 -10 -4 -10 -5 0
-13 5 -16 10 -3 6 -2 10 4 10 5 0 13 -4 16 -10z m70 -20 c3 -6 -1 -7 -9 -4
-18 7 -21 14 -7 14 6 0 13 -4 16 -10z m-2035 -18 c0 -5 -7 -9 -15 -9 -8 0 -12
4 -9 9 3 4 9 8 15 8 5 0 9 -4 9 -8z m1230 -131 c0 -10 -26 -9 -36 2 -4 4 2 7
14 7 12 0 22 -4 22 -9z m60 5 c0 -7 -40 -14 -44 -7 -3 4 6 8 20 9 13 1 24 0
24 -2z m-56 -38 c-3 -12 -1 -17 8 -15 7 2 10 2 6 0 -5 -3 -8 -9 -8 -14 0 -5 3
-8 8 -8 4 1 18 1 32 0 22 -1 23 -3 7 -12 -9 -6 -15 -15 -12 -20 4 -5 11 -6 17
-3 6 4 8 3 5 -3 -3 -5 -2 -23 3 -39 8 -28 8 -28 9 -4 2 25 2 25 18 5 15 -19
15 -19 9 10 -5 27 -4 28 6 8 11 -23 4 -58 -10 -49 -4 2 -8 -4 -9 -14 -2 -19
-1 -19 20 0 28 27 36 25 50 -8 7 -16 18 -27 25 -25 6 3 9 10 6 15 -4 7 -2 8 4
4 7 -4 12 -13 12 -20 0 -14 53 -64 72 -68 22 -5 44 -33 40 -51 -6 -24 17 -50
33 -37 15 12 28 -2 45 -44 8 -21 15 -27 30 -23 11 3 23 1 26 -4 3 -5 10 -7 15
-4 5 4 9 -1 9 -9 0 -9 5 -16 11 -16 8 0 8 -4 0 -14 -10 -12 -7 -14 17 -12 17
1 38 8 49 16 17 14 17 14 -1 -7 -10 -12 -23 -21 -28 -20 -6 1 -12 -7 -14 -17
-4 -26 -29 -50 -43 -41 -6 3 -8 11 -5 17 4 7 2 8 -5 4 -9 -6 -9 -11 -1 -21 9
-11 2 -25 -32 -65 -23 -27 -46 -50 -50 -50 -4 0 -23 28 -43 63 -19 34 -40 69
-45 77 -26 42 -74 126 -75 130 0 3 -15 26 -33 53 -18 26 -29 47 -25 47 4 0 3
4 -3 8 -20 12 -129 202 -117 202 4 0 3 4 -2 8 -15 10 -55 68 -55 79 0 5 7 10
15 10 10 0 13 -6 9 -19z m-1102 -278 c4 -3 -3 -12 -15 -19 -15 -9 -18 -10 -10
-1 6 7 9 20 6 29 -4 10 -3 12 3 6 5 -5 12 -12 16 -15z m-39 -20 c-3 -11 -12
-19 -21 -18 -8 2 -17 -3 -20 -11 -3 -9 0 -11 8 -6 14 9 90 -69 90 -92 0 -7 5
-13 10 -13 6 0 18 -16 27 -35 9 -19 20 -35 25 -35 4 0 8 -6 8 -14 0 -7 7 -19
15 -26 16 -13 21 -35 6 -25 -12 7 -25 -31 -16 -45 3 -5 17 -10 30 -10 19 0 23
4 18 18 -3 9 -3 14 2 10 4 -4 9 -18 10 -30 1 -13 3 -29 4 -36 2 -21 26 -8 33
18 6 19 6 17 4 -10 -3 -19 -7 -44 -11 -55 -6 -16 -5 -17 4 -5 9 12 11 11 12
-10 1 -14 5 -6 9 20 7 44 7 44 10 10 3 -30 4 -26 10 20 l7 55 1 -77 c1 -42 5
-84 9 -94 5 -13 3 -15 -8 -9 -11 6 -12 5 -1 -6 15 -16 17 -83 1 -74 -6 4 -8
14 -5 22 4 8 1 11 -5 7 -13 -8 -60 36 -52 49 3 6 1 7 -6 3 -14 -9 -153 123
-144 137 3 6 1 7 -5 3 -6 -3 -73 53 -151 126 l-141 132 53 29 c144 80 157 86
157 74 0 -6 5 -4 11 6 13 23 18 22 12 -3z m750 -45 c-3 -9 -2 -15 3 -14 5 1
12 0 17 -1 4 -1 13 -3 20 -4 7 -1 11 -13 9 -32 -3 -29 -1 -31 23 -27 21 5 25
2 25 -19 0 -24 32 -68 50 -68 6 0 10 -9 10 -20 0 -11 5 -20 10 -20 6 0 10 7
10 15 0 20 16 19 24 -1 3 -9 2 -12 -5 -9 -6 4 -9 -9 -7 -39 3 -40 5 -44 16
-29 6 9 12 21 12 26 0 5 6 4 13 -2 8 -6 16 -9 18 -6 3 2 10 -4 16 -14 9 -15 8
-18 -5 -17 -9 0 -18 -2 -19 -6 -6 -18 -2 -28 13 -28 11 0 13 -6 9 -19 -3 -11
-1 -22 5 -26 14 -8 32 4 24 17 -4 6 -10 5 -15 -3 -5 -8 -9 -9 -9 -3 0 5 6 18
13 29 11 14 16 15 22 5 5 -9 4 -11 -3 -6 -18 11 -14 -10 5 -25 9 -8 18 -13 20
-11 8 6 23 1 23 -9 0 -6 -5 -7 -12 -2 -23 14 -39 12 -36 -5 4 -20 48 -29 58
-12 5 8 9 7 13 -3 3 -9 -2 -21 -11 -29 -13 -11 -14 -11 -7 1 5 10 4 12 -4 7
-6 -4 -9 -11 -6 -16 3 -5 1 -19 -5 -30 -9 -16 -8 -22 5 -26 9 -4 21 -2 27 4
14 14 39 -4 32 -22 -3 -8 2 -16 10 -19 11 -4 13 0 10 21 -3 18 -1 22 4 14 5
-8 12 -13 16 -12 4 0 13 -6 22 -14 13 -14 12 -16 -8 -21 -22 -5 -611 -35 -615
-31 -2 1 9 45 23 97 15 52 40 149 58 217 18 70 35 120 40 115 5 -4 6 -3 2 4
-8 15 3 65 14 58 4 -2 6 7 4 20 -1 14 2 22 7 19 6 -3 7 5 3 20 -4 16 -2 26 5
26 6 0 8 -7 4 -15z m208 -162 c13 -17 13 -17 -6 -3 -11 8 -22 16 -24 17 -2 2
0 3 6 3 6 0 17 -8 24 -17z m234 -279 c14 -9 25 -21 25 -26 0 -5 -7 -2 -16 6
-8 9 -20 13 -26 10 -6 -4 -8 -2 -4 4 3 5 0 13 -6 15 -7 3 -9 6 -5 6 4 1 19 -6
32 -15z"/>
<path d="M2869 1185 c-1 -3 -2 -8 -3 -12 -1 -5 -5 -15 -10 -23 -7 -12 -6 -13
4 -3 13 12 23 43 14 43 -2 0 -5 -2 -5 -5z"/>
<path d="M2826 1172 c-3 -5 1 -9 9 -9 8 0 12 4 9 9 -3 4 -7 8 -9 8 -2 0 -6 -4
-9 -8z"/>
<path d="M1155 1290 c-3 -6 1 -7 9 -4 18 7 21 14 7 14 -6 0 -13 -4 -16 -10z"/>
<path d="M1416 938 c3 -5 10 -6 15 -3 13 9 11 12 -6 12 -8 0 -12 -4 -9 -9z"/>
<path d="M2200 1060 c0 -5 5 -10 10 -10 6 0 10 5 10 10 0 6 -4 10 -10 10 -5 0
-10 -4 -10 -10z"/>
<path d="M2416 822 c-3 -6 -1 -14 5 -17 14 -9 20 -2 10 14 -6 8 -11 9 -15 3z"/>
</g>
</svg>
