<svg width="100" height="100" viewBox="0 0 100 100" fill="none" xmlns="http://www.w3.org/2000/svg">
<rect width="100" height="100" fill="#CCFF00"/>
<path d="M30.5357 41.2536C28.7258 42.9829 28.7258 45.8732 30.5357 47.6026L31.7756 48.7873C33.4727 50.4088 36.1449 50.4088 37.8419 48.7873L46.9666 40.0689C48.6636 38.4474 51.3359 38.4474 53.0329 40.0689L62.1576 48.7873C63.8546 50.4088 66.5268 50.4088 68.2239 48.7873L69.4638 47.6026C71.2737 45.8732 71.2737 42.9829 69.4637 41.2536L53.0329 25.5544C51.3359 23.9329 48.6636 23.9329 46.9666 25.5544L30.5357 41.2536Z" fill="black"/>
<path d="M30.5357 66.912C28.7258 68.6413 28.7258 71.5316 30.5357 73.261L31.7756 74.4456C33.4727 76.0671 36.1449 76.0671 37.8419 74.4456L46.9666 65.7273C48.6636 64.1058 51.3359 64.1058 53.0329 65.7273L62.1576 74.4456C63.8546 76.0671 66.5268 76.0671 68.2239 74.4456L69.4638 73.261C71.2737 71.5316 71.2737 68.6413 69.4637 66.912L53.0329 51.2127C51.3359 49.5912 48.6636 49.5912 46.9666 51.2127L30.5357 66.912Z" fill="black"/>
</svg>
