<?xml version="1.0" encoding="utf-8"?>
<!-- Generator: Adobe Illustrator 25.2.0, SVG Export Plug-In . SVG Version: 6.00 Build 0)  -->
<svg version="1.1" id="Слой_1" xmlns="http://www.w3.org/2000/svg" xmlns:xlink="http://www.w3.org/1999/xlink" x="0px" y="0px"
	 viewBox="0 0 100 100" style="enable-background:new 0 0 100 100;" xml:space="preserve">
<style type="text/css">
	.st0{fill:#AEFBA5;}
	.st1{fill:#4994EA;}
	.st2{font-family:'BaiJamjuree-Bold';}
	.st3{font-size:9.2195px;}
	.st4{fill:url(#SVGID_1_);}
	.st5{fill:url(#SVGID_2_);}
</style>
<g>
	<g>
		
			<image style="overflow:visible;opacity:0.82;enable-background:new    ;" width="405" height="405" xlink:href="F9F09662.png"  transform="matrix(4.927674e-02 0 0 4.927674e-02 11.046 48.893)">
		</image>
		<g>
			<path class="st0" d="M23.7,61.5L23.7,61.5c-1.5,1.5-3.8,1.5-5.3,0l0,0c-1.5-1.5-1.5-3.8,0-5.3l0,0c1.5-1.5,3.8-1.5,5.3,0l0,0
				C25.1,57.7,25.1,60.1,23.7,61.5z"/>
		</g>
	</g>
	<text transform="matrix(1 0 0 1 26.2792 43.199)" class="st1 st2 st3">SUPER</text>
	<text transform="matrix(1 0 0 1 42.3129 56.5184)" class="st0 st2 st3">BONDS</text>
	
		<linearGradient id="SVGID_1_" gradientUnits="userSpaceOnUse" x1="85.6717" y1="-2145.5361" x2="13.6094" y2="-2145.5361" gradientTransform="matrix(1 0 0 -1 0 -2100)">
		<stop  offset="0" style="stop-color:#4994EA"/>
		<stop  offset="1" style="stop-color:#4994EA;stop-opacity:0"/>
	</linearGradient>
	<rect x="13.6" y="44.6" class="st4" width="72.1" height="1.9"/>
	
		<linearGradient id="SVGID_2_" gradientUnits="userSpaceOnUse" x1="18.4444" y1="-2158.9873" x2="90.5067" y2="-2158.9873" gradientTransform="matrix(1 0 0 -1 0 -2100)">
		<stop  offset="0" style="stop-color:#AEFBA5"/>
		<stop  offset="1" style="stop-color:#AEFBA5;stop-opacity:0"/>
	</linearGradient>
	<polygon class="st5" points="18.4,60 90.5,60 90.5,58 18.4,58 	"/>
	<path class="st0" d="M25.4,59.8l-3.5,3.5c-0.5,0.5-1.3,0.5-1.8,0l-3.5-3.5c-0.5-0.5-0.5-1.3,0-1.8l3.5-3.5c0.5-0.5,1.3-0.5,1.8,0
		l3.5,3.5C25.9,58.4,25.9,59.3,25.4,59.8z"/>
	<g>
		
			<image style="overflow:visible;opacity:0.82;enable-background:new    ;" width="407" height="408" xlink:href="F9F09666.png"  transform="matrix(4.927674e-02 0 0 4.927674e-02 71.41 35.2433)">
		</image>
		<g>
			<path class="st1" d="M84.1,48L84.1,48c-1.5,1.5-3.9,1.5-5.4,0l0,0c-1.5-1.5-1.5-3.9,0-5.4l0,0c1.5-1.5,3.9-1.5,5.4,0l0,0
				C85.6,44.1,85.6,46.5,84.1,48z"/>
		</g>
	</g>
	<path class="st1" d="M85.7,46.4l-3.2,3.2c-0.6,0.6-1.6,0.6-2.2,0l-3.2-3.2c-0.6-0.6-0.6-1.6,0-2.2l3.2-3.2c0.6-0.6,1.6-0.6,2.2,0
		l3.2,3.2C86.3,44.8,86.3,45.8,85.7,46.4z"/>
</g>
</svg>
