<svg width="500" height="500" viewBox="0 0 500 500" fill="none" xmlns="http://www.w3.org/2000/svg">
<path d="M500 123.27C500 55.394 444.186 0 375.794 0C340.419 0 308.188 14.8232 286.177 38.2293L5.53271 213.772C0.0299101 216.893 -1.54157 224.696 1.6027 230.157C3.96123 234.058 7.89123 235.617 11.8226 235.617C14.1798 235.617 15.7526 234.837 18.1111 234.058L257.877 83.4807C253.16 95.9636 250.801 109.227 250.801 124.05C250.801 155.258 262.593 183.345 281.46 205.191L92.7917 391.656C88.0747 396.337 88.0747 403.359 92.7917 408.04C95.1502 410.38 98.2945 411.16 101.439 411.16C104.584 411.16 107.729 410.38 110.087 408.04L298.755 221.575C319.979 237.958 346.707 248.1 375.008 248.1C391.517 248.1 407.238 244.98 421.389 239.519L271.241 481.378C268.095 486.839 269.668 493.861 275.171 497.762C276.744 499.322 279.101 499.322 281.46 499.322C285.391 499.322 289.321 496.981 291.679 493.861L472.486 201.289C489.781 179.444 500 152.917 500 123.27ZM316.049 204.41L371.077 150.577C375.794 145.895 375.794 138.873 371.077 134.193C366.36 129.511 359.286 129.511 354.569 134.193L298.755 188.806C283.818 171.642 274.385 149.016 274.385 124.05C275.171 68.6562 319.979 23.4062 375.794 23.4062C431.608 23.4062 476.417 68.6562 476.417 123.27C476.417 178.664 430.822 223.135 375.794 223.135C353.783 223.915 332.558 216.113 316.049 204.41Z" fill="#25B7EB"/>
<path d="M375.791 42.1326C330.198 42.1326 293.25 78.8009 293.25 124.052C293.25 130.294 298.752 135.755 305.042 135.755C311.331 135.755 316.833 130.294 316.833 124.052C316.833 92.0643 342.775 65.5374 375.791 65.5374C382.081 65.5374 387.584 60.0765 387.584 53.835C387.584 47.5935 382.081 42.1326 375.791 42.1326Z" fill="#25B7EB"/>
</svg>
