<svg width="400" height="400" viewBox="0 0 400 400" fill="none" xmlns="http://www.w3.org/2000/svg">
<rect width="400" height="400" fill="black"/>
<path d="M95.563 263.299C87.6956 267.069 78.4399 269 68.166 269C48.8216 268.816 35.0305 264.218 26.8855 255.299C21.3321 249.322 18.2777 241.69 18 232.494L39.4733 232.678C39.751 237.092 41.3244 240.954 44.1937 244.08C48.9141 249.23 56.2261 251.713 66.5 251.713C74.3674 251.713 80.3836 250.701 84.271 248.586C90.2872 245.828 93.3416 241.23 93.3416 235.069C93.3416 231.299 91.9532 228.356 89.1765 226.057C86.6775 223.851 80.8464 221.644 70.2023 219.069L66.2223 218.149C59.8359 216.586 53.2643 214.839 47.2481 213.184C39.1956 211.161 34.0124 209.046 30.7729 206.563C26.9781 203.897 24.479 200.586 22.9055 195.989C20.9618 190.655 20.1288 186.609 20.1288 182.931C20.1288 174.471 22.9055 167.207 28.3664 161.138C35.9561 153.046 48.0811 149 64.2786 149H65.3893C81.8645 149.184 93.7118 153.506 101.579 162.333C107.41 168.678 110.557 176.126 110.835 184.402L89.3616 184.218C88.7137 180.08 87.2328 176.678 84.9189 174.011C80.8464 168.862 73.6269 166.287 63.6307 166.287C57.5219 166.287 52.5239 167.299 48.8216 169.414C43.6384 171.989 40.9542 175.943 40.7691 181.552C40.7691 186.149 42.4351 189.46 45.7672 191.943C47.896 193.322 50.9504 194.517 54.7452 195.253L84.3635 202.333C93.6193 204.54 101.024 207.759 105.744 211.437C112.038 216.31 115 223.023 115 232.402C114.722 247.207 108.428 257.23 95.563 263.299Z" fill="black"/>
<path d="M115 232.402C114.815 247.115 108.515 257.23 95.6371 263.299C87.7622 267.069 78.4976 269 68.2139 269C48.851 268.816 35.0468 264.218 26.894 255.299C21.3352 249.322 18.2779 241.69 18 232.494L39.4938 232.678C39.7717 237.092 41.3467 240.954 44.2187 244.08C48.9437 249.23 56.2627 251.713 66.5463 251.713C74.4212 251.713 80.4432 250.701 84.3343 248.586C90.3563 245.828 93.4136 241.23 93.4136 235.069C93.4136 231.299 92.0239 228.356 89.2445 226.057C86.7431 223.851 80.9064 221.644 70.2521 219.069L66.2684 218.149C59.8758 216.586 53.298 214.839 47.276 213.184C39.2159 211.161 34.0277 209.046 30.7851 206.563C26.9866 203.897 24.4852 200.586 22.9102 195.989C20.9647 190.655 20.1309 186.609 20.1309 182.931C20.1309 174.471 22.9102 167.207 28.3763 161.138C35.9733 153.046 48.1098 149 64.3228 149H65.4346C81.9255 149.184 93.7841 153.506 101.659 162.333C107.496 168.678 110.646 176.126 110.924 184.402L89.4298 184.218C88.7813 180.08 87.299 176.678 84.9828 174.011C80.9064 168.862 73.68 166.287 63.6743 166.287C57.5597 166.287 52.5568 167.299 48.851 169.414C43.6628 171.989 40.9761 175.943 40.7908 181.552C40.7908 186.149 42.4585 189.46 45.7937 191.943C47.9245 193.322 50.9818 194.517 54.7803 195.253L84.4269 202.333C93.6915 204.54 101.103 207.759 105.828 211.437C112.035 216.402 115 223.023 115 232.402Z" fill="white"/>
<path d="M382.992 186.731C382.992 194.941 380.765 202.506 376.219 209.24C369.724 219.018 359.517 224 345.785 224H298V205.919H340.403C348.661 205.919 354.229 203.52 357.383 198.723C359.61 195.587 360.631 191.066 360.631 185.439C360.631 179.074 358.589 174.185 354.878 171.232C350.981 168.373 344.95 166.897 336.97 166.897H298V149H346.991C358.404 149 367.033 152.229 373.528 158.871C380.023 165.513 383.178 174.83 382.992 186.731Z" fill="white"/>
<path d="M164 269H140.824L108 149H129.946L164 269Z" fill="white"/>
<path d="M163.553 269H141L173.949 149H195L163.553 269Z" fill="white"/>
<path d="M229 269H206.238L174 149H195.554L229 269Z" fill="white"/>
<path d="M229.893 269H207L240.689 149H262L229.893 269Z" fill="black"/>
<path d="M344 224H244L295.389 131L344 224Z" fill="url(#paint0_linear)"/>
<path d="M320 149H298V269H320V149Z" fill="white"/>
<circle cx="237.5" cy="205.5" r="46.5" fill="url(#paint1_radial)" fill-opacity="0.9"/>
<path d="M262 149L229.893 269H207L240.689 149H262Z" fill="white"/>
<defs>
<linearGradient id="paint0_linear" x1="344" y1="224" x2="293.659" y2="131.185" gradientUnits="userSpaceOnUse">
<stop stop-color="#811D1D"/>
<stop offset="0.677083" stop-color="#C22E2D"/>
<stop offset="1" stop-color="#F09EA3"/>
</linearGradient>
<radialGradient id="paint1_radial" cx="0" cy="0" r="1" gradientUnits="userSpaceOnUse" gradientTransform="translate(198.827 159) rotate(54.1735) scale(106.185 102.123)">
<stop stop-color="#D9EDFF"/>
<stop offset="0.494792" stop-color="#609DD8"/>
<stop offset="0.744792" stop-color="#396AB3"/>
<stop offset="1" stop-color="#2D4072"/>
</radialGradient>
</defs>
</svg>
