<svg width="100" height="100" viewBox="0 0 100 100" fill="none" xmlns="http://www.w3.org/2000/svg">
<path d="M50.0157 12.2874C49.2861 12.2896 48.5571 12.3345 47.8327 12.422C44.3345 12.8373 41.3496 14.2783 38.8488 16.7287C37.0634 18.4787 35.3156 20.2668 33.5463 22.0334C32.6389 22.9387 31.7268 23.8394 30.8101 24.7353C29.8498 25.6767 28.8763 26.6054 27.9221 27.5524C27.0361 28.4301 26.1727 29.3322 25.2883 30.2122C23.9144 31.5794 22.5211 32.9273 21.1555 34.3018C20.0917 35.3728 19.0578 36.4743 18.0078 37.5586C17.3926 38.1943 16.7302 38.7891 16.1582 39.4608C13.6689 42.382 12.4894 45.7894 12.4528 50.3221C12.341 52.0521 13.0614 54.3032 14.1125 56.4419C14.6724 57.5833 15.4355 58.6327 16.177 59.6738C16.6854 60.3871 17.057 60.3821 17.7381 59.8305C17.8655 59.7281 17.9768 59.6057 18.0909 59.4877C18.7532 58.8016 19.4116 58.1116 20.0762 57.4293C21.0392 56.4419 22.0111 55.4651 22.968 54.4727C23.9704 53.4344 24.955 52.3789 25.9562 51.3383C26.433 50.8432 26.9419 50.3775 27.4176 49.8813C28.4421 48.8142 29.4423 47.7238 30.4734 46.6655C31.4796 45.6305 32.5202 44.6309 33.5297 43.602C34.6583 42.4512 35.7587 41.2734 36.8906 40.127C37.93 39.0765 39.0121 38.067 40.0488 37.0131C41.41 35.6314 42.7363 34.2171 44.0936 32.831C44.921 31.9848 45.7821 31.1724 46.6172 30.3334C47.753 29.1927 48.8672 28.0319 50.0085 26.8961C50.9848 25.9231 51.9966 24.9845 52.974 24.0126C55.1637 21.8373 57.3439 19.6516 59.5247 17.4686C59.6637 17.329 59.7944 17.1795 59.9184 17.0267C60.4462 16.3721 60.4905 16.2204 59.8348 15.7485C58.7987 15.0026 57.747 14.2334 56.5974 13.699C54.5163 12.731 52.3427 12.293 50.1005 12.2874H50.0157ZM66.8135 25.8905C64.7784 25.9674 63.0152 26.5971 61.69 28.218C61.5864 28.3437 61.4574 28.45 61.3389 28.5636C60.1565 29.7027 58.9665 30.8335 57.7936 31.982C56.5741 33.1777 55.373 34.3915 54.1591 35.5938C53.1551 36.5889 52.1384 37.5713 51.1399 38.5726C50.0944 39.6187 49.0765 40.6913 48.0254 41.7302C46.9273 42.8151 45.7959 43.8656 44.6928 44.946C43.3582 46.2557 42.0391 47.5809 40.7128 48.8995C38.2617 51.335 35.8096 53.7694 33.3591 56.2055C30.1162 59.4301 26.8749 62.657 23.6281 65.8784C23.0123 66.4903 22.9902 66.5733 23.6342 67.2207C25.1887 68.7846 26.7581 70.3335 28.317 71.8935C29.2728 72.8521 30.3992 73.5072 31.7355 73.7404C33.0097 73.9635 34.2961 73.9752 35.551 73.6152C36.4725 73.3511 37.3497 72.9734 38.0585 72.2933C39.3405 71.0651 40.6197 69.8357 41.9034 68.6101C42.8066 67.7479 43.7281 66.9045 44.6197 66.0301C46.4012 64.2824 48.16 62.5103 49.9454 60.7664C51.4035 59.3426 52.8893 57.9471 54.3557 56.5328C56.3665 54.5929 58.3723 52.6474 60.3792 50.7037C62.2692 48.874 64.1554 47.0399 66.0493 45.2141C66.8783 44.4138 67.6525 44.4986 68.25 45.4489C69.331 47.1695 69.9368 49.0335 69.6865 51.0758C69.4767 52.8008 68.8686 54.4151 67.6591 55.6966C66.2625 57.1768 64.78 58.5762 63.3269 60.0027C62.2952 61.0162 61.2425 62.008 60.2136 63.0242C58.8817 64.3377 57.5632 65.6635 56.2419 66.9876C56.0342 67.1969 55.8443 67.4262 55.6394 67.6388C55.2057 68.0879 54.7727 68.5365 54.3297 68.9773C53.3506 69.947 52.356 70.9022 51.3841 71.8808C50.3436 72.9285 49.3235 73.9957 48.2929 75.0528C48.201 75.147 48.093 75.2245 47.9983 75.3153C46.8891 76.3874 45.7788 77.4579 44.674 78.5344C44.1567 79.0362 43.6539 79.5528 43.1444 80.0618C42.2623 80.9439 41.3618 81.8078 40.5062 82.7155C39.9912 83.2593 39.9962 83.5927 40.6053 84.0202C41.652 84.7539 42.702 85.5231 43.8533 86.0598C45.9643 87.0438 48.17 87.4603 50.4394 87.4636H50.487C51.2663 87.4609 52.0448 87.4147 52.819 87.3251C55.939 86.9668 58.6442 85.686 60.9656 83.6586C62.6729 82.17 64.2063 80.4815 65.8134 78.8783C67.0013 77.6932 68.183 76.5015 69.3692 75.3153C70.484 74.2 71.6021 73.0875 72.7179 71.9727C73.7402 70.9515 74.7542 69.9221 75.7859 68.9108C76.9344 67.7861 78.1134 66.6902 79.2559 65.5594C80.4232 64.4042 81.5867 63.2418 82.7087 62.0429C84.0959 60.556 84.766 59.7901 85.2655 59.0519C85.7589 58.3259 87.4579 55.6877 87.8954 51.8184C88.1158 49.8658 87.9281 48.3678 87.8716 47.9542C87.7724 47.2331 87.3466 44.5185 85.4244 41.5586C84.7123 40.4599 84.3445 39.9963 82.1793 37.8599C78.969 34.6945 75.7648 31.5196 72.626 28.2845C71.0848 26.6957 69.3089 25.8838 67.1491 25.8838C67.0384 25.8838 66.9265 25.886 66.8135 25.8905V25.8905Z" fill="url(#paint0_linear)"/>
<defs>
<linearGradient id="paint0_linear" x1="50.2207" y1="12.2874" x2="50.2207" y2="87.4636" gradientUnits="userSpaceOnUse">
<stop stop-color="#FF4920"/>
<stop offset="1" stop-color="#FF4920"/>
</linearGradient>
</defs>
</svg>
