<svg id="Layer_1" data-name="Layer 1" xmlns="http://www.w3.org/2000/svg" xmlns:xlink="http://www.w3.org/1999/xlink" viewBox="0 0 359.09 363.34"><defs><style>.cls-1{fill:none;}.cls-2{stroke:#000;stroke-miterlimit:10;}.cls-3{clip-path:url(#clip-path);}.cls-4{fill:url(#linear-gradient);}.cls-5{font-size:48px;fill:#fff;font-family:NasalizationRg-Regular, Nasalization;letter-spacing:-0.02em;}.cls-6{letter-spacing:-0.05em;}.cls-7{letter-spacing:0em;}</style><clipPath id="clip-path" transform="translate(-7020.91 -7016.66)"><path class="cls-1" d="M7069.36,7216l10.88-5.48,2.6-1.3h0l6.13-3.09.65-.32V7195.2l-.65-.32-9.26-4.66-.65-.33-.65.33-21.65,10.89V7204l2.6,1.31v-2.93l19.7-9.91,8,4v8l-6.14,3.09-.65.33-16.06,8.08h-4.82v-2.88l-2.6-1.3v6.44h8.11Zm10.88-28.15V7185h-4.82l-16.06,8.08-.65.33-6.15,3.09v8l8,4,19.7-9.92v-2.93l2.6,1.31v2.92l-2.6,1.31-19.06,9.58-.64.33-.65-.33-9.27-4.66-.64-.32V7195.2l.64-.32,6.14-3.09,2.6-1.3,10.89-5.48,4.49-2.27h8.1v6.45Z"/></clipPath><linearGradient id="linear-gradient" x1="36.71" y1="202.7" x2="60.98" y2="165.14" gradientUnits="userSpaceOnUse"><stop offset="0" stop-color="#8d21cb"/><stop offset="1" stop-color="#4dafc4"/></linearGradient></defs><rect class="cls-2" x="0.5" y="0.5" width="358.09" height="362.34"/><g class="cls-3"><rect class="cls-4" x="29.07" y="166.08" width="39.64" height="35.54"/></g><text class="cls-5" transform="translate(77.63 198.38)">S<tspan class="cls-6" x="32.74" y="0">Y</tspan><tspan class="cls-7" x="63.46" y="0">NCLINE</tspan></text></svg>