<svg width="100" height="100" viewBox="0 0 100 100" fill="none" xmlns="http://www.w3.org/2000/svg">
<path fill-rule="evenodd" clip-rule="evenodd" d="M88.4429 59.5078C87.3425 60.7215 86.1612 61.6924 84.8666 62.4692C81.3497 64.5837 76.9265 65.2688 70.6424 65.3335H69.0457H69.0511H34.3541L11.5576 80H66.408C75.3137 79.9676 83.243 74.0989 86.2529 65.7164C87.0674 63.4509 87.801 61.3688 88.4429 59.5078ZM33.9463 41.3297H76.592C79.1866 41.319 81.6247 42.565 83.1351 44.6741C84.64 46.7832 85.0338 49.491 84.187 51.9453C83.1405 54.9822 80.287 57.2045 77.0721 57.2153H26.606C24.5935 57.1506 22.718 56.1581 21.5329 54.5183C20.302 52.8191 19.967 50.6292 20.6332 48.6334L25.0752 35.353C27.2814 39.458 31.724 41.2812 33.9463 41.3297ZM71.705 33.4166L86.4039 20.6865H39.0653C36.9508 20.6919 35.0694 22.2131 34.3779 24.2143C33.6426 26.3396 33.9836 28.686 35.2911 30.5146C36.6002 32.3432 38.7147 33.4274 40.9587 33.4166C54.0609 33.368 60.4691 33.4112 71.705 33.4166Z" fill="#00F9BB"/>
</svg>
