<svg width="100" height="100" viewBox="0 0 100 100" fill="none" xmlns="http://www.w3.org/2000/svg">
<path d="M37.5028 46.7395L35.8778 47.6244L31.3056 50.1136C24.4499 53.8218 21.8983 62.3856 25.6065 69.2413C29.3147 76.097 37.8786 78.6486 44.7343 74.9404C44.7567 74.9283 44.779 74.9162 44.8013 74.904L70.4769 60.9262C79.7729 55.879 83.2172 44.2515 78.17 34.9555C73.1228 25.6595 61.4953 22.2152 52.1993 27.2624C47.3426 29.8994 43.8617 34.5055 42.6508 39.8976C42.019 42.8218 40.1375 45.3223 37.5028 46.7395Z" fill="white"/>
<path d="M46.7078 41.0139C48.0774 36.7893 50.032 33.0325 54.0898 30.8236C62.8038 26.0498 74.1592 30.7562 76.2928 41.4773C77.558 47.8343 74.3123 54.2473 68.6195 57.3464L68.5494 57.3845L42.8731 71.3623C37.0427 74.56 29.4348 71.3891 28.0513 64.1837C27.2424 59.9707 29.4102 55.7362 33.1781 53.685L33.2332 53.655L32.7907 52.4984L40.8499 48.0357C41.6587 47.5877 42.3771 46.9934 42.9687 46.2829L46.7078 41.0139Z" fill="#EA5A47"/>
<path d="M61.3186 49.1444C64.1023 49.1444 66.3589 46.8878 66.3589 44.1041C66.3589 41.3205 64.1023 39.0638 61.3186 39.0638C58.5349 39.0638 56.2783 41.3205 56.2783 44.1041C56.2783 46.8878 58.5349 49.1444 61.3186 49.1444Z" fill="white"/>
<path d="M45.3888 62.7274C45.3888 62.7274 42.3085 59.808 39.4603 56.9598C37.3242 54.8237 36.6316 52.8334 37.0189 51.3715L16.4952 30.8888C15.6982 30.0919 15.6982 28.7999 16.4952 28.003C17.2921 27.206 18.5841 27.206 19.381 28.003L39.2945 49.0863C40.7574 48.6923 42.7528 49.383 44.8943 51.5248C47.7425 54.373 50.6618 57.4533 50.6618 57.4533" fill="#D0CFCE"/>
<path d="M44.1373 47.0787C45.1574 45.6173 45.8995 43.9804 46.326 42.25C47.7195 37.5291 49.64 33.2455 54.0899 30.8233C61.4138 26.8108 70.6039 29.4952 74.6164 36.8191C78.6289 44.143 75.9445 53.3332 68.6206 57.3457C68.597 57.3586 68.5734 57.3715 68.5498 57.3843L42.8734 71.3623C37.9919 74.0396 31.8644 72.2526 29.1873 67.3711C26.51 62.4896 28.297 56.3621 33.1785 53.685C33.1969 53.675 33.2152 53.665 33.2337 53.655" stroke="black" stroke-width="2" stroke-linecap="round" stroke-linejoin="round"/>
<path d="M31.3056 50.1136C24.4499 53.8218 21.8983 62.3856 25.6065 69.2413C29.3147 76.097 37.8786 78.6486 44.7343 74.9404C44.7567 74.9283 44.779 74.9162 44.8012 74.904L70.4769 60.9262C79.7729 55.879 83.2172 44.2515 78.17 34.9555C73.1228 25.6595 61.4953 22.2152 52.1993 27.2624C47.3426 29.8994 43.8617 34.5055 42.6508 39.8976C42.2197 41.9291 41.1714 43.7777 39.6493 45.1906" stroke="black" stroke-width="2" stroke-linecap="round" stroke-linejoin="round"/>
<path d="M61.3186 49.1444C64.1023 49.1444 66.3589 46.8878 66.3589 44.1041C66.3589 41.3205 64.1023 39.0638 61.3186 39.0638C58.5349 39.0638 56.2783 41.3205 56.2783 44.1041C56.2783 46.8878 58.5349 49.1444 61.3186 49.1444Z" stroke="black" stroke-width="2" stroke-linecap="round" stroke-linejoin="round"/>
<path d="M16.3565 31.0277C15.5596 30.2308 15.5596 28.9388 16.3565 28.1419C17.1534 27.345 18.4454 27.345 19.2423 28.1419L39.1558 49.2252C40.6187 48.8312 42.6141 49.5219 44.7557 51.6637C47.6039 54.5119 50.5232 57.5922 50.5232 57.5922" stroke="black" stroke-width="1.8" stroke-linecap="round" stroke-linejoin="round"/>
<path d="M36.8802 51.5103L16.3564 31.0277" stroke="black" stroke-width="1.8" stroke-linecap="round" stroke-linejoin="round"/>
<path d="M45.2504 62.8663C45.2504 62.8663 42.1701 59.9469 39.3219 57.0987C37.1858 54.9626 36.4932 52.9723 36.8805 51.5104" stroke="black" stroke-width="1.8" stroke-linecap="round" stroke-linejoin="round"/>
<path d="M47.8868 60.2294L40.9717 53.3142" stroke="black" stroke-width="1.8" stroke-linecap="round" stroke-linejoin="round"/>
</svg>
