<svg width="100" height="100" viewBox="0 0 100 100" fill="none" xmlns="http://www.w3.org/2000/svg">
<path d="M45.3282 72.5365C47.3427 80.3083 54.5852 86.2421 58.24 85.9924C58.3647 85.9824 72.1014 83.3152 79.6221 70.2289C85.4736 60.0495 83.4783 50.2198 75.526 50C72.6578 50.2298 41.4816 57.7319 45.3282 72.5365Z" fill="#2845AD"/>
<path d="M75.6892 22.7713C75.679 22.7713 75.679 22.7713 75.6892 22.7713V22.7612C69.216 17.2905 60.8293 14 51.6691 14C46.3154 14 41.2264 15.1406 36.6259 17.1694C35.8015 17.5126 35.0178 17.8961 34.2748 18.3099C33.7557 18.5825 33.2367 18.855 32.7278 19.1578L32.8499 19.1982C31.3232 20.2378 30.0102 21.4591 28.9415 22.8722C18.3055 36.8013 53.9591 46.9352 73.0225 46.9655C81.796 53.2134 84.2591 29.3926 75.6892 22.7713Z" fill="#2845AD"/>
<path d="M39.3428 22.9276C34.5556 30.1155 18.6015 35.1857 15.974 34.3904C15.9641 34.3804 15.9641 34.3705 15.9541 34.3606C16.0636 34.1418 16.1731 33.9331 16.2825 33.7143C17.1882 31.9646 18.2333 30.2944 19.3878 28.7137C20.5423 27.133 21.8262 25.6517 23.2096 24.2698C24.593 22.8879 26.0759 21.6153 27.6584 20.4522C28.6437 19.7364 29.6589 19.0603 30.7039 18.434C32.9333 17.1416 35.2224 17.0621 35.9788 17.0322C43.095 17.1714 39.3826 22.868 39.3428 22.9276Z" fill="#5096F8"/>
<path d="M35.4119 73.7396C35.7603 75.9964 35.402 84.924 34.9441 85.6795C34.546 85.6994 33.72 85.7591 31.3114 84.407C30.0474 83.6912 28.8332 82.8959 27.6588 82.0409C26.0763 80.8877 24.5934 79.6052 23.21 78.2233C21.8265 76.8414 20.5526 75.3601 19.3882 73.7794C18.2237 72.1986 17.1886 70.5284 16.2829 68.7787C15.3772 67.029 14.6009 65.1997 13.964 63.3008C13.3369 61.402 12.8493 59.4435 12.5208 57.4253C12.1924 55.4072 12.0232 53.3393 12.0232 51.2316C12.0232 49.124 12.1924 47.0561 12.5208 45.038C12.8493 43.0198 13.3369 41.0613 13.964 39.1625C14.0933 38.7747 14.2227 38.3969 14.3621 38.0192C17.1189 41.6777 20.3038 44.9883 23.0109 48.6866C25.5886 52.2059 29.1417 57.9423 29.8583 59.1651C34.3569 66.7904 35.0735 71.4928 35.4119 73.7396Z" fill="#5096F8"/>
<path d="M88.4195 51.2515C88.4195 56.2024 87.474 60.9247 85.7621 65.2692C81.2635 70.1009 50.9278 58.2106 50.6293 58.0814C46.479 56.2621 33.8491 50.7345 32.7145 42.0554C31.0723 29.5587 56.4416 20.8598 67.5786 20.5317C68.9123 20.5516 72.9829 20.5914 75.3517 22.52C83.3635 29.509 88.4195 39.7887 88.4195 51.2515Z" fill="#5494F8"/>
<path d="M67.8876 85.0929C64.5833 86.6339 60.9407 85.5105 61.8862 82.2993C63.6975 76.1255 79.5621 69.7927 83.0654 69.4447C83.4934 69.4049 83.6825 69.6932 83.4934 70.0313C79.8308 76.4138 74.4265 81.673 67.8876 85.0929Z" fill="#5096F8"/>
</svg>
