<svg width="100" height="100" viewBox="0 0 100 100" fill="none" xmlns="http://www.w3.org/2000/svg">
<path fill-rule="evenodd" clip-rule="evenodd" d="M46.1588 53.7301C37.9186 53.7301 31.2382 47.0501 31.2382 38.8094C31.2382 30.5687 37.9186 23.8887 46.1588 23.8887C54.3996 23.8887 61.0795 30.5687 61.0795 38.8094C61.0795 47.0501 54.3996 53.7301 46.1588 53.7301ZM46.1588 16.4284C58.5195 16.4284 68.5398 26.4488 68.5398 38.8094C68.5398 51.17 58.5195 61.1904 46.1588 61.1904C33.7982 61.1904 23.7778 51.17 23.7778 38.8094C23.7778 26.4488 33.7982 16.4284 46.1588 16.4284ZM67.4474 62.2828C68.9042 63.7396 68.9042 66.1011 67.4474 67.5579L52.5263 82.479C51.0695 83.9358 48.708 83.9358 47.2512 82.479C45.7944 81.0222 45.7944 78.6607 47.2512 77.2039L62.1723 62.2828C63.6291 60.826 65.9906 60.826 67.4474 62.2828ZM76.0001 20.1586C76.0001 22.219 74.3304 23.8887 72.2704 23.8887C70.21 23.8887 68.5403 22.219 68.5403 20.1586C68.5403 18.0982 70.21 16.4284 72.2704 16.4284C74.3304 16.4284 76.0001 18.0982 76.0001 20.1586Z" fill="#5D41D3"/>
</svg>
