<?xml version="1.0" standalone="no"?>
<!DOCTYPE svg PUBLIC "-//W3C//DTD SVG 20010904//EN"
 "http://www.w3.org/TR/2001/REC-SVG-20010904/DTD/svg10.dtd">
<svg version="1.0" xmlns="http://www.w3.org/2000/svg"
 width="100.000000pt" height="100.000000pt" viewBox="0 0 100.000000 100.000000"
 preserveAspectRatio="xMidYMid meet">
<metadata>
Created by potrace 1.16, written by Peter Selinger 2001-2019
</metadata>
<g transform="translate(0.000000,100.000000) scale(0.008929,-0.009259)"
fill="#000000" stroke="none">
<path d="M8625 9694 c-150 -35 -241 -89 -314 -187 -136 -181 -145 -352 -34
-593 18 -40 33 -76 33 -81 0 -8 -248 -255 -869 -865 -139 -137 -259 -248 -268
-248 -9 0 -30 10 -47 23 -163 123 -451 265 -676 335 -267 83 -436 107 -755
107 -245 -1 -336 -9 -495 -46 -47 -11 -105 -25 -130 -31 -69 -16 -234 -69
-245 -79 -5 -5 -16 -9 -24 -9 -42 0 -421 -205 -528 -286 -22 -17 -38 -22 -48
-17 -8 5 -126 119 -261 253 -136 135 -253 247 -260 250 -20 8 -564 548 -564
561 0 6 9 28 19 48 64 122 85 203 86 331 0 89 -6 117 -38 190 -34 76 -144 196
-214 235 -80 44 -152 60 -273 60 -134 0 -187 -15 -280 -77 -109 -72 -200 -243
-200 -376 0 -73 -10 -82 -89 -82 -144 0 -287 -95 -361 -241 -31 -59 -60 -184
-60 -251 2 -243 188 -434 473 -486 69 -13 179 4 290 44 20 8 44 14 52 14 12 0
274 -248 495 -470 36 -36 149 -144 250 -240 383 -362 382 -361 366 -384 -76
-109 -202 -356 -260 -510 l-42 -109 -44 -12 c-25 -7 -67 -17 -95 -23 -588
-133 -1006 -274 -1355 -455 -96 -50 -205 -107 -242 -126 -44 -23 -63 -38 -55
-42 7 -4 53 -15 102 -24 50 -9 133 -25 185 -35 264 -52 312 -61 400 -74 52 -8
183 -29 290 -46 247 -39 466 -68 578 -76 48 -4 93 -11 100 -17 7 -5 12 -33 12
-67 0 -32 9 -116 20 -186 39 -253 112 -487 222 -709 l59 -120 -88 -83 c-48
-46 -165 -159 -258 -250 -487 -476 -714 -696 -728 -703 -10 -6 -46 0 -104 16
-119 35 -229 42 -313 21 -138 -35 -268 -120 -332 -218 -58 -87 -78 -155 -78
-262 0 -146 48 -270 140 -364 80 -81 147 -111 275 -121 l80 -6 6 -70 c17 -182
106 -333 242 -408 74 -42 142 -57 245 -57 198 1 344 80 451 243 52 80 73 152
74 247 0 110 -38 240 -111 374 -3 5 83 95 191 200 108 105 279 272 379 371
101 99 244 240 320 314 l136 134 84 -64 c83 -65 134 -99 259 -177 82 -50 285
-152 305 -152 23 0 16 -27 -20 -74 -90 -118 -179 -380 -193 -571 -10 -142 42
-373 117 -513 83 -157 274 -356 424 -444 218 -128 462 -177 816 -165 359 13
549 91 772 317 99 101 110 118 167 232 65 133 79 172 118 318 23 83 26 117 27
265 1 147 -2 182 -22 260 -13 50 -27 99 -31 110 -25 59 -97 194 -119 223 -14
19 -21 36 -16 41 5 5 52 30 104 57 119 60 217 121 344 212 l99 71 375 -372
c207 -205 420 -416 474 -469 54 -54 98 -104 98 -111 0 -7 -13 -37 -28 -67 -55
-107 -76 -195 -76 -312 0 -58 5 -117 11 -130 45 -98 64 -126 111 -174 30 -30
58 -54 63 -54 5 0 37 -13 71 -29 196 -89 211 -93 313 -93 90 1 101 3 171 38
154 76 250 228 273 434 l6 55 87 7 c114 8 200 49 270 129 65 74 95 127 118
216 72 266 -65 511 -338 605 -99 34 -256 32 -367 -5 -44 -15 -86 -27 -92 -27
-7 0 -196 182 -420 403 -225 222 -445 439 -490 482 -79 74 -94 99 -74 120 14
17 66 117 111 216 93 205 144 371 189 609 5 30 14 79 20 108 6 30 11 84 11
120 0 37 4 73 9 81 5 8 50 18 122 26 168 20 416 52 490 65 35 6 124 20 197 30
73 11 150 24 170 29 41 11 262 58 332 70 51 10 320 68 363 79 16 4 29 11 30
16 1 4 -65 35 -148 68 -82 33 -249 100 -370 150 -375 154 -734 264 -1200 367
-55 13 -105 24 -111 26 -6 2 -18 25 -28 52 -10 26 -24 62 -31 78 -7 17 -21 50
-31 75 -25 66 -116 237 -174 330 -27 44 -50 84 -50 90 0 5 71 78 157 162 87
84 248 241 358 349 110 108 216 211 235 229 19 18 117 113 217 212 l183 178
37 -15 c62 -26 194 -55 253 -55 122 0 292 70 383 158 105 102 139 184 138 327
-1 127 -16 195 -59 270 -85 147 -217 227 -397 238 l-40 2 -6 80 c-4 52 -16
103 -33 145 -60 147 -131 218 -281 280 -30 12 -232 23 -270 14z m225 -151 c31
-10 72 -34 101 -61 85 -76 114 -154 125 -329 l7 -123 106 0 c214 0 302 -57
371 -238 7 -18 13 -70 13 -115 1 -99 -23 -158 -93 -227 -74 -73 -203 -130
-295 -130 -62 0 -177 35 -268 82 -37 19 -37 19 -65 0 -15 -11 -48 -42 -74 -69
-25 -26 -99 -100 -164 -163 -66 -64 -280 -273 -478 -465 -405 -396 -467 -455
-477 -455 -4 0 -39 38 -79 85 -40 47 -119 129 -176 184 -57 55 -104 101 -104
103 0 8 755 752 1061 1047 l139 134 -24 41 c-91 156 -136 278 -136 371 0 118
91 253 207 306 90 42 214 51 303 22z m-6024 -47 c208 -55 320 -238 270 -436
-19 -73 -63 -172 -107 -241 -16 -25 -29 -53 -29 -61 0 -9 120 -132 267 -274
938 -908 905 -875 873 -886 -18 -6 -220 -209 -281 -284 -34 -41 -66 -73 -70
-72 -8 3 -119 110 -399 382 -85 83 -200 194 -255 246 -55 52 -191 184 -303
293 -115 111 -211 197 -222 197 -10 0 -38 -10 -62 -21 -160 -80 -294 -87 -424
-23 -163 80 -240 224 -203 381 28 119 89 206 174 248 32 16 68 21 175 25 l135
5 6 122 c6 120 11 143 50 230 64 145 232 215 405 169z m3199 -1464 c28 -6 82
-16 120 -22 79 -13 345 -88 360 -101 5 -5 15 -9 23 -9 22 0 242 -103 321 -150
41 -25 87 -52 103 -62 227 -129 536 -434 699 -688 62 -97 69 -109 61 -113 -4
-3 -34 -1 -67 4 -147 22 -205 30 -285 39 -47 5 -123 15 -170 20 -179 23 -503
51 -735 65 -60 3 -128 8 -150 11 -46 5 -1172 5 -1225 0 -38 -3 -173 -13 -315
-22 -49 -3 -137 -10 -195 -15 -58 -6 -148 -14 -200 -19 -52 -5 -131 -14 -175
-20 -44 -6 -111 -15 -150 -20 -66 -9 -104 -14 -269 -40 -38 -6 -71 -8 -74 -6
-6 6 38 81 97 166 161 233 380 448 621 610 93 63 280 166 351 194 24 10 58 24
74 31 164 71 364 120 650 159 57 8 480 -2 530 -12z m582 -1497 c123 -8 240
-17 260 -20 21 -2 70 -7 108 -10 87 -6 245 -22 345 -36 41 -5 109 -14 150 -19
41 -5 104 -14 140 -20 36 -6 90 -15 120 -19 75 -12 219 -38 310 -57 257 -55
268 -57 455 -106 146 -37 357 -101 480 -144 39 -14 96 -34 127 -45 32 -11 124
-47 205 -79 172 -67 173 -65 -27 -100 -69 -12 -147 -25 -175 -30 -27 -5 -80
-14 -118 -19 -87 -14 -193 -29 -237 -36 -19 -3 -91 -12 -160 -20 -69 -9 -145
-20 -170 -25 -25 -5 -85 -10 -135 -12 l-90 -3 -7 71 c-9 88 -43 168 -97 227
-72 78 -168 112 -381 136 -239 27 -285 31 -435 41 -88 5 -177 12 -198 15 -293
41 -2212 40 -2552 0 -22 -3 -105 -10 -185 -15 -177 -12 -299 -25 -495 -52
-299 -40 -401 -77 -505 -179 -70 -69 -105 -136 -115 -221 -7 -57 -8 -58 -39
-58 -17 0 -87 7 -156 16 -69 8 -161 19 -205 24 -44 5 -96 12 -115 15 -19 4
-80 13 -135 22 -130 20 -135 20 -305 50 -80 14 -167 29 -195 33 -27 4 -60 11
-73 16 -21 9 -20 11 28 37 227 123 814 308 1295 408 28 6 66 15 85 19 31 8
133 27 275 52 28 5 77 13 110 17 33 5 92 14 130 20 65 11 107 17 285 41 63 9
223 26 325 35 28 2 97 9 155 14 135 13 443 31 585 35 261 8 1124 -5 1332 -19z
m13 -429 c25 -3 115 -8 200 -11 320 -11 816 -53 1004 -84 114 -20 181 -69 210
-155 41 -121 4 -510 -78 -811 -49 -180 -130 -364 -243 -555 -308 -521 -891
-932 -1524 -1073 -493 -111 -1021 -39 -1524 208 -259 127 -442 254 -634 440
-348 338 -550 725 -639 1230 -17 95 -35 337 -30 406 13 185 134 268 453 310
320 41 414 51 690 70 260 17 467 26 690 28 115 1 211 4 214 7 7 6 1144 -4
1211 -10z m-2975 -1818 c42 -64 141 -183 222 -269 40 -42 73 -80 73 -84 0 -8
-82 -90 -421 -419 -279 -271 -669 -659 -669 -665 0 -3 9 -20 20 -38 95 -157
132 -258 133 -363 1 -67 -3 -82 -34 -140 -57 -108 -130 -165 -249 -196 -186
-47 -348 28 -415 193 -24 58 -29 87 -34 198 l-6 130 -135 5 c-111 4 -143 9
-180 27 -111 53 -180 178 -180 326 0 127 78 236 217 303 68 33 80 35 166 35
97 -1 181 -22 276 -71 l44 -22 76 75 c163 160 502 489 611 594 63 61 187 181
275 267 88 85 165 156 171 156 6 0 24 -19 39 -42z m4121 -26 c17 -10 554 -533
643 -626 42 -43 148 -147 236 -231 l161 -153 75 33 c146 64 238 77 337 49 124
-36 222 -116 268 -220 63 -142 -11 -360 -146 -432 -53 -28 -92 -34 -222 -36
l-103 -1 -6 -115 c-4 -63 -11 -133 -16 -155 -23 -96 -94 -190 -177 -233 -46
-23 -62 -26 -156 -26 -127 0 -189 20 -267 89 -155 136 -153 368 7 605 9 14 19
32 23 41 4 12 -134 154 -504 519 -280 277 -509 507 -509 512 0 5 41 50 90 101
50 51 125 136 168 189 42 53 79 97 82 97 3 1 10 -3 16 -7z m-2709 -945 c10 -6
10 -15 -1 -40 -12 -30 -58 -129 -61 -134 -3 -4 -124 46 -178 74 l-48 24 19 30
c10 17 33 48 50 68 l32 38 87 -26 c49 -14 94 -30 100 -34z m1589 -6 c23 -38
39 -73 35 -78 -14 -23 -244 -118 -265 -110 -13 5 -30 46 -61 143 l-13 41 91
28 c51 15 103 31 117 36 47 14 55 9 96 -60z m-1294 -55 c70 -12 129 -24 133
-27 7 -7 -15 -161 -24 -172 -8 -8 -165 6 -246 22 -27 6 -65 13 -82 16 -43 8
-43 26 2 122 33 72 36 75 62 68 16 -4 85 -17 155 -29z m923 -69 c23 -60 29
-89 22 -94 -31 -19 -266 -47 -282 -33 -11 9 -24 78 -28 150 -2 23 2 25 93 41
52 9 104 19 115 22 40 10 48 1 80 -86z m-395 22 c11 -21 33 -159 26 -166 -6
-6 -335 -7 -341 -1 -5 5 19 161 27 173 3 6 62 10 143 9 106 -1 139 -4 145 -15z
m-1108 -132 c29 -13 79 -32 111 -42 65 -20 68 -29 38 -97 -11 -24 -38 -92 -62
-151 l-42 -108 -31 7 c-81 17 -130 40 -137 65 -25 87 5 272 54 337 12 15 7 16
69 -11z m1980 -12 c33 -112 48 -295 26 -312 -24 -19 -128 -53 -170 -55 -40 -3
-43 -1 -54 32 -7 19 -28 80 -48 135 -50 139 -50 137 37 165 39 13 95 34 122
46 62 29 76 27 87 -11z m-1582 -104 c52 -10 127 -22 165 -26 39 -4 75 -11 81
-16 10 -9 9 -27 -17 -179 -6 -36 -13 -79 -16 -97 -9 -55 -3 -55 -233 -24 -158
22 -222 35 -227 47 -3 7 6 41 20 76 14 35 40 102 58 150 39 101 29 97 169 69z
m1167 7 c5 -7 31 -78 57 -157 46 -137 47 -145 30 -158 -10 -7 -29 -13 -43 -13
-24 0 -104 -13 -184 -30 -42 -9 -47 -5 -58 49 -4 20 -18 77 -32 126 -14 50
-27 103 -29 120 -3 28 0 30 37 37 22 4 72 14 110 22 93 18 101 18 112 4z
m-358 -87 c53 -201 69 -277 60 -286 -6 -6 -118 -11 -284 -13 l-275 -3 0 41 c0
23 4 60 9 83 5 23 15 71 21 107 6 36 13 75 16 87 4 22 6 23 212 25 114 2 213
1 219 -1 7 -1 17 -19 22 -40z m-1249 -284 c186 -62 353 -93 650 -119 232 -21
763 -13 860 12 19 5 73 17 120 26 98 19 139 28 195 44 22 6 56 15 75 19 19 5
55 16 80 25 25 8 48 16 53 16 16 0 6 -72 -22 -156 -96 -289 -307 -504 -590
-601 -53 -17 -110 -32 -128 -33 -17 0 -44 -5 -60 -11 -36 -14 -336 -14 -407 0
-31 6 -82 16 -113 22 -262 51 -510 214 -645 423 -33 51 -108 198 -108 212 0 2
-13 32 -30 66 -16 34 -30 67 -30 74 0 13 9 11 100 -19z"/>
<path d="M5279 7275 c-37 -36 -63 -68 -58 -71 14 -8 409 -2 442 7 18 5 27 4
27 -4 0 -12 20 12 20 25 0 8 -21 5 -40 -7 -9 -5 -8 0 4 13 20 23 32 29 21 12
-4 -6 -1 -9 7 -8 8 2 12 -6 11 -22 -1 -14 1 -19 4 -12 4 9 8 10 18 2 9 -8 15
-8 20 0 3 6 11 8 16 4 5 -3 8 -1 7 4 -2 6 2 10 7 10 6 0 9 -3 8 -7 -1 -4 4 -8
11 -8 7 0 13 6 13 13 0 7 -4 11 -8 8 -4 -2 -10 0 -13 5 -4 5 -17 8 -31 6 -15
-1 -29 4 -35 14 -6 11 -9 12 -10 3 0 -7 -5 -10 -10 -7 -8 5 -7 12 2 23 11 15
11 15 -3 5 -20 -16 -33 -5 -16 15 10 13 9 14 -3 7 -24 -15 -42 -15 -36 0 3 8
1 17 -5 20 -5 4 -9 3 -8 -2 1 -4 1 -15 0 -23 -1 -13 -2 -13 -12 0 -9 13 -10
13 -6 0 2 -8 9 -14 15 -13 7 2 9 -5 6 -15 -5 -14 -4 -15 5 -2 9 13 11 13 11 0
0 -12 2 -12 9 -1 5 7 11 9 14 5 3 -5 -6 -17 -19 -27 -14 -10 -24 -15 -23 -10
4 15 -13 43 -23 37 -5 -3 -4 -13 4 -22 12 -15 11 -16 -4 -4 -10 8 -16 17 -15
20 1 4 -2 7 -8 7 -5 0 -9 -4 -7 -8 1 -5 -3 -5 -9 -2 -8 5 -8 10 0 18 22 22 13
47 -16 48 -16 0 -71 2 -123 5 l-95 4 -66 -65z"/>
<path d="M4545 5704 c-262 -38 -481 -201 -598 -446 -50 -102 -61 -160 -61
-323 0 -158 13 -222 67 -330 149 -298 470 -471 789 -426 50 7 116 22 147 32
350 118 562 456 516 822 -22 180 -90 320 -215 446 -139 141 -311 217 -505 225
-60 2 -123 2 -140 0z"/>
<path d="M6660 5701 c-203 -27 -421 -170 -536 -352 -168 -266 -147 -632 49
-884 233 -299 665 -380 992 -187 157 92 280 241 338 407 23 69 47 199 47 261
0 53 -30 204 -52 264 -48 129 -156 270 -273 357 -50 37 -146 85 -205 102 -25
7 -55 17 -67 21 -31 12 -228 20 -293 11z"/>
<path d="M5635 4311 c-78 -20 -170 -97 -201 -168 -27 -60 -24 -195 5 -255 57
-118 206 -195 323 -168 141 32 236 138 246 271 9 127 -51 237 -162 295 -54 27
-156 40 -211 25z"/>
</g>
</svg>
