<?xml version="1.0" encoding="utf-8"?>
<!-- Generator: Adobe Illustrator 24.2.2, SVG Export Plug-In . SVG Version: 6.00 Build 0)  -->
<svg version="1.1" id="Layer_1" xmlns="http://www.w3.org/2000/svg" xmlns:xlink="http://www.w3.org/1999/xlink" x="0px" y="0px"
	 viewBox="0 0 500 500" style="enable-background:new 0 0 500 500;" xml:space="preserve">
<style type="text/css">
	.st0{fill:none;}
	.st1{fill:none;stroke:#FFFFFF;stroke-width:0.3;stroke-miterlimit:10;}
	.st2{display:none;}
	.st3{display:inline;fill:url(#SVGID_1_);}
	.st4{display:inline;opacity:0.4;fill:url(#SVGID_2_);}
	.st5{fill:url(#SVGID_3_);}
	.st6{display:none;fill:#D2E9F7;}
	.st7{display:inline;}
	.st8{opacity:0.1;fill:#FFFFFF;stroke:#4C4C4C;stroke-miterlimit:10;}
	.st9{fill:none;stroke:#4C4C4C;stroke-width:0.5;stroke-linejoin:round;stroke-miterlimit:10;}
	
		.st10{fill:none;stroke:#4C4C4C;stroke-width:0.25;stroke-linecap:round;stroke-linejoin:round;stroke-miterlimit:10;stroke-dasharray:1;}
	.st11{fill:none;stroke:#4C4C4C;stroke-width:0.25;stroke-linecap:round;stroke-linejoin:round;}
	.st12{fill:none;stroke:#4C4C4C;stroke-width:0.25;stroke-linecap:round;stroke-linejoin:round;stroke-dasharray:0.9221,0.9221;}
	.st13{fill:none;stroke:#4C4C4C;stroke-width:0.25;stroke-linecap:round;stroke-linejoin:round;stroke-dasharray:0.9912,0.9912;}
	.st14{fill:none;stroke:#4C4C4C;stroke-width:0.25;stroke-linecap:round;stroke-linejoin:round;stroke-dasharray:0.9268,0.9268;}
	.st15{fill:#01FCFE;stroke:#4C4C4C;stroke-miterlimit:10;}
	.st16{enable-background:new    ;}
	.st17{fill:none;stroke:#4C4C4C;stroke-width:0.3;stroke-linejoin:round;stroke-miterlimit:10;}
	.st18{fill:none;stroke:#4C4C4C;stroke-width:0.5;stroke-linecap:round;stroke-linejoin:round;stroke-miterlimit:10;}
	.st19{fill:url(#SVGID_4_);stroke:#4C4C4C;stroke-miterlimit:10;}
	.st20{fill:url(#SVGID_5_);stroke:#4C4C4C;stroke-miterlimit:10;}
	.st21{fill:url(#SVGID_6_);stroke:#4C4C4C;stroke-miterlimit:10;}
	.st22{fill:url(#SVGID_7_);stroke:#4C4C4C;stroke-miterlimit:10;}
	.st23{fill:url(#SVGID_8_);stroke:#4C4C4C;stroke-miterlimit:10;}
	.st24{fill:url(#SVGID_9_);stroke:#4C4C4C;stroke-miterlimit:10;}
	.st25{fill:url(#SVGID_10_);stroke:#4C4C4C;stroke-miterlimit:10;}
	.st26{fill:#1F4F00;}
</style>
<pattern  y="500" width="23.5" height="23.5" patternUnits="userSpaceOnUse" id="New_Pattern" viewBox="0 -23.5 23.5 23.5" style="overflow:visible;">
	<g>
		<rect y="-23.5" class="st0" width="23.5" height="23.5"/>
		<line class="st1" x1="11.7" y1="-13.4" x2="11.7" y2="-10.1"/>
		<line class="st1" x1="13.4" y1="-11.7" x2="10.1" y2="-11.7"/>
	</g>
</pattern>
<g>
	<g class="st2">
		<radialGradient id="SVGID_1_" cx="984.4444" cy="-195.6231" r="1090.2158" gradientUnits="userSpaceOnUse">
			<stop  offset="0" style="stop-color:#018BBD"/>
			<stop  offset="1" style="stop-color:#030D42"/>
		</radialGradient>
		<rect x="-67.1" y="37.3" class="st3" width="750" height="500"/>
		<pattern  id="SVGID_2_" xlink:href="#New_Pattern" patternTransform="matrix(1 0 0 1 140.9506 24.9735)">
		</pattern>
		<rect x="-67.1" y="37.3" class="st4" width="750" height="500"/>
	</g>
	<g>
		<linearGradient id="SVGID_3_" gradientUnits="userSpaceOnUse" x1="0" y1="249.8764" x2="488.4894" y2="249.8764">
			<stop  offset="2.267342e-03" style="stop-color:#EFF7C3"/>
			<stop  offset="0.4164" style="stop-color:#DEF0C2"/>
			<stop  offset="1" style="stop-color:#BFE2C1"/>
		</linearGradient>
		<rect x="0" y="-0.1" class="st5" width="500" height="500"/>
		<rect x="-34.1" y="-0.3" class="st6" width="550.2" height="500"/>
		<g class="st2">
			<g class="st7">
				<polygon class="st8" points="251.3,255.7 341.9,203.4 255.5,153.4 164.9,205.7 164.9,205.5 237.6,247.7 				"/>
				<polygon class="st8" points="251.3,212.6 341.9,160.3 255.5,110.3 164.9,162.6 164.9,162.4 237.6,204.7 				"/>
				<polygon class="st8" points="251.3,317.1 341.9,264.8 255.5,214.8 164.9,267.1 164.9,266.9 237.6,309.1 				"/>
				<polyline class="st9" points="251.3,212.8 251.3,317.5 237.6,309.5 				"/>
				<polyline class="st10" points="164.9,167.9 164.9,157.9 251.3,208.1 251.3,212.8 				"/>
				<line class="st9" x1="164.9" y1="195.2" x2="164.9" y2="167.9"/>
				<polyline class="st10" points="237.6,309.5 164.9,267.3 164.9,195.2 				"/>
				<polyline class="st9" points="341.9,156.5 341.9,265.2 251.3,317.5 251.3,212.8 				"/>
				<polyline class="st10" points="255.5,106.5 255.5,215.2 164.9,267.5 				"/>
				<polyline class="st10" points="251.3,208.1 296.5,135.7 341.9,155.8 341.9,156.5 				"/>
				<g>
					<polyline class="st9" points="179.2,306.9 179.2,343.2 107.2,301.4 107.2,265 					"/>
					<g>
						<g>
							<line class="st11" x1="107.2" y1="265" x2="107.2" y2="264.5"/>
							<line class="st12" x1="107.2" y1="263.6" x2="107.2" y2="254.9"/>
							<polyline class="st11" points="107.2,254.4 107.2,253.9 107.7,254.1 							"/>
							<line class="st13" x1="108.5" y1="254.6" x2="178.4" y2="295.2"/>
							<polyline class="st11" points="178.8,295.5 179.2,295.7 179.2,296.2 							"/>
							<line class="st14" x1="179.2" y1="297.2" x2="179.2" y2="306"/>
							<line class="st11" x1="179.2" y1="306.4" x2="179.2" y2="306.9"/>
						</g>
					</g>
				</g>
				<polygon class="st9" points="175.6,341.1 175.6,313.1 110.8,275.4 110.8,303.4 				"/>
				<g>
					<polygon class="st15" points="110.8,294.5 175.6,332.2 175.6,331.9 110.8,294.2 					"/>
					<polygon class="st15" points="175.6,336.9 110.8,299.2 110.8,299.5 175.6,337.1 					"/>
					<polygon class="st15" points="110.8,289.5 175.6,327.2 175.6,326.9 110.8,289.3 					"/>
					<polygon class="st15" points="110.8,284.5 175.6,322.2 175.6,322 110.8,284.3 					"/>
					<polygon class="st15" points="110.8,279.3 110.8,279.6 175.6,317.2 175.6,317 					"/>
				</g>
				<g>
					<polyline class="st9" points="237.7,280.4 237.7,309.4 179.2,343.2 179.2,306.9 					"/>
					<line class="st9" x1="237.7" y1="251.4" x2="237.7" y2="275"/>
					<polyline class="st10" points="179.2,295.7 237.6,239.5 237.7,251.4 					"/>
				</g>
				<g>
					<g class="st16">
						<g>
							<polygon class="st9" points="181.3,313 179.2,311.8 179.2,308.8 181.3,310 							"/>
						</g>
						<g>
							<polygon class="st9" points="181.3,310 179.2,308.8 237.7,275 239.8,276.2 							"/>
						</g>
						<g>
							<polygon class="st9" points="239.8,276.2 239.8,279.2 181.3,313 181.3,310 							"/>
						</g>
					</g>
				</g>
				<g>
					<path class="st9" d="M293.1,160.3c4.8-2.8,8.8-0.5,8.8,5c0,5.5-3.9,12.3-8.7,15.1c-4.8,2.8-8.8,0.6-8.8-5
						C284.4,169.8,288.3,163,293.1,160.3z M292.4,169.9l0-7.1c-3.2,2.3-5.8,6.7-6.1,10.6L292.4,169.9 M293.9,161.9l0,7.1l6.1-3.5
						C299.7,161.9,297.1,160.5,293.9,161.9 M294,177.8c3.2-2.3,5.8-6.7,6.1-10.6l-6.1,3.5L294,177.8 M292.4,178.7l0-7l-6.1,3.5
						C286.6,178.7,289.2,180.1,292.4,178.7"/>
				</g>
				<polyline class="st17" points="307.7,223.4 307.7,189.1 324.6,179.3 324.6,213.6 				"/>
				<polyline class="st17" points="289.5,233.9 289.5,199.6 306.4,189.8 306.4,224.1 				"/>
				<polyline class="st17" points="271.3,244.4 271.3,210.1 288.2,200.3 288.2,234.6 				"/>
				<polyline class="st17" points="325.9,212.9 325.9,177 270,209.3 270,245.1 				"/>
				<g>
					<polyline class="st9" points="314.1,250.2 314.1,281.3 282.1,299.8 282,262.7 					"/>
					<polyline class="st10" points="282,262.7 282,250.5 314.1,232 314.1,250.2 					"/>
				</g>
				<g>
					<polygon class="st17" points="319.7,249.6 319.7,256.2 315.4,258.7 315.4,252.1 					"/>
				</g>
				<polygon class="st9" points="257.2,104 206.3,81.5 298.5,135 349.3,157.5 				"/>
				<polyline class="st9" points="185.9,114.2 155.7,162.5 247.9,216.1 298.5,135 206.3,81.5 194.7,100.1 				"/>
				<polygon class="st9" points="298.5,135 247.9,216.1 248.9,216.8 298.5,137.3 348.3,159.3 349.3,157.5 				"/>
				<polygon class="st9" points="179.7,307.2 99.1,260.3 98.6,259 179.2,305.9 				"/>
				<polygon class="st9" points="179.2,305.9 98.6,259 165.1,195.1 245.6,241.9 				"/>
				<g>
					<polygon class="st15" points="201.1,216 200.7,215.8 134.3,279.7 134.7,279.9 					"/>
					<polygon class="st15" points="107.4,264.1 107.8,264.3 174.2,200.4 173.8,200.1 					"/>
					<polygon class="st15" points="192.1,210.8 191.7,210.6 125.3,274.5 125.7,274.7 					"/>
					<polygon class="st15" points="183.2,205.6 182.8,205.4 116.4,269.3 116.8,269.5 					"/>
					<polygon class="st15" points="227.9,231.6 227.5,231.4 161.1,295.3 161.5,295.6 					"/>
					<polygon class="st15" points="210,221.2 209.6,221 143.2,284.9 143.6,285.2 					"/>
					<polygon class="st15" points="236.9,236.8 236.5,236.6 170.1,300.6 170.5,300.8 					"/>
					<polygon class="st15" points="219,226.4 218.6,226.2 152.2,290.1 152.6,290.4 					"/>
				</g>
				<g>
					<polygon class="st15" points="240,101.1 239.6,100.9 189.1,181.9 189.5,182.1 					"/>
					<g>
						<polygon class="st15" points="214.3,105.7 223.3,91.3 222.9,91.1 213.9,105.5 						"/>
						<polygon class="st15" points="192.8,139.4 172.3,172.2 172.7,172.4 193.1,139.6 						"/>
					</g>
					<g>
						<polygon class="st15" points="205.9,100.8 214.9,86.5 214.5,86.3 205.5,100.6 						"/>
						<polygon class="st15" points="185.9,132.1 163.9,167.3 164.3,167.5 185.9,132.9 						"/>
					</g>
					<polygon class="st15" points="248.4,106 248,105.7 197.5,186.8 197.8,187 					"/>
					<polygon class="st15" points="231.6,96.2 231.3,96 180.7,177 181.1,177.2 					"/>
					<polygon class="st15" points="281.9,125.4 281.5,125.2 231,206.2 231.4,206.5 					"/>
					<polygon class="st15" points="290.3,130.3 289.9,130.1 239.4,211.1 239.7,211.3 					"/>
					<polygon class="st15" points="256.8,110.8 256.4,110.6 205.8,191.6 206.2,191.9 					"/>
					<polygon class="st15" points="273.5,120.6 273.2,120.3 222.6,201.4 223,201.6 					"/>
					<polygon class="st15" points="265.2,115.7 264.8,115.5 214.2,196.5 214.6,196.7 					"/>
				</g>
				<polygon class="st9" points="245.6,241.9 179.2,305.9 179.7,307.2 245.6,243.7 				"/>
				<g class="st16">
					<polygon class="st9" points="287.2,264 262.3,249.6 332.3,209.2 357.2,223.6 					"/>
					<g>
						<polygon class="st9" points="287.2,265.7 262.3,251.3 262.3,249.6 287.2,264 						"/>
						<polygon class="st9" points="357.2,223.6 357.2,225.3 287.2,265.7 287.2,264 						"/>
					</g>
					<g>
						<polyline class="st9" points="262.5,249.4 262.5,240.6 287.2,255 356.3,215.1 332.1,201 332.1,209.3 						"/>
						<polyline class="st9" points="262.5,243.9 287.2,258.2 356.3,218.3 332.1,204.2 						"/>
						<polyline class="st9" points="262.5,247.1 287.2,261.4 356.3,221.5 332.1,207.4 						"/>
					</g>
					<line class="st18" x1="356.3" y1="215" x2="356.3" y2="223.1"/>
					<line class="st18" x1="287.2" y1="255" x2="287.2" y2="264"/>
				</g>
				<g>
					<g>
						<polyline class="st9" points="185.9,110.9 185.9,135.5 199.8,143.5 199.8,118.9 						"/>
						<polyline class="st9" points="213.5,110.9 213.5,121.4 199.8,143.5 199.8,118.9 						"/>
					</g>
					<g>
						<polygon class="st9" points="199.7,97.2 184,106.3 199.8,115.4 215.4,106.3 						"/>
						<polygon class="st9" points="188.9,106.3 199.7,100.1 210.5,106.3 199.8,112.6 						"/>
						<polygon class="st9" points="199.7,112.5 199.7,100.1 188.9,106.3 						"/>
						<polygon class="st9" points="184,106.3 184,109.8 199.8,118.9 199.8,115.4 						"/>
						<polygon class="st9" points="215.4,106.3 215.4,109.8 199.8,118.9 199.8,115.4 						"/>
					</g>
				</g>
				<line class="st10" x1="107.2" y1="301.4" x2="164.9" y2="267.3"/>
				<line class="st10" x1="255.5" y1="215.2" x2="341.9" y2="265.2"/>
				<line class="st10" x1="255.5" y1="211.6" x2="341.9" y2="261.6"/>
				<polygon class="st10" points="251.3,257.6 341.9,205.3 255.5,155.3 164.9,207.6 164.9,207.4 237.6,249.7 				"/>
				<polygon class="st10" points="251.3,255.7 341.9,203.4 255.5,153.4 164.9,205.7 164.9,205.5 237.6,247.7 				"/>
				<polygon class="st10" points="251.3,212.6 341.9,160.3 255.5,110.3 164.9,162.6 164.9,162.4 237.6,204.7 				"/>
				<line class="st9" x1="314.1" y1="277.6" x2="341.9" y2="261.6"/>
				<line class="st9" x1="251.3" y1="313.9" x2="282.1" y2="296.1"/>
				<line class="st9" x1="237.7" y1="305.9" x2="179.2" y2="339.6"/>
				<line class="st9" x1="251.3" y1="313.9" x2="237.6" y2="305.9"/>
				<line class="st10" x1="255.5" y1="211.6" x2="164.9" y2="263.9"/>
			</g>
			<g>
				
					<image style="display:inline;overflow:visible;" width="332" height="335" xlink:href="33C4BEC776093C28.png"  transform="matrix(1 0 0 1 61.887 45.0045)">
				</image>
			</g>
			<g class="st7">
				<g>
					<linearGradient id="SVGID_4_" gradientUnits="userSpaceOnUse" x1="107.2327" y1="299.8307" x2="107.2327" y2="318.4017">
						<stop  offset="0" style="stop-color:#01FCFE"/>
						<stop  offset="1" style="stop-color:#01FCFE;stop-opacity:0"/>
					</linearGradient>
					<rect x="107" y="301.1" class="st19" width="0.5" height="23.5"/>
				</g>
				<g>
					<linearGradient id="SVGID_5_" gradientUnits="userSpaceOnUse" x1="179.2249" y1="341.5778" x2="179.2249" y2="360.1488">
						<stop  offset="0" style="stop-color:#01FCFE"/>
						<stop  offset="1" style="stop-color:#01FCFE;stop-opacity:0"/>
					</linearGradient>
					<rect x="179" y="342.8" class="st20" width="0.5" height="23.5"/>
				</g>
				<g>
					<linearGradient id="SVGID_6_" gradientUnits="userSpaceOnUse" x1="237.7072" y1="308.2409" x2="237.7072" y2="326.8119">
						<stop  offset="0" style="stop-color:#01FCFE"/>
						<stop  offset="1" style="stop-color:#01FCFE;stop-opacity:0"/>
					</linearGradient>
					<rect x="237.5" y="309.5" class="st21" width="0.5" height="23.5"/>
				</g>
				<g>
					<linearGradient id="SVGID_7_" gradientUnits="userSpaceOnUse" x1="251.3362" y1="316.0534" x2="251.3362" y2="334.6244">
						<stop  offset="0" style="stop-color:#01FCFE"/>
						<stop  offset="1" style="stop-color:#01FCFE;stop-opacity:0"/>
					</linearGradient>
					<rect x="251.1" y="317.3" class="st22" width="0.5" height="23.5"/>
				</g>
				<g>
					<linearGradient id="SVGID_8_" gradientUnits="userSpaceOnUse" x1="282.0529" y1="298.3542" x2="282.0529" y2="316.9252">
						<stop  offset="0" style="stop-color:#01FCFE"/>
						<stop  offset="1" style="stop-color:#01FCFE;stop-opacity:0"/>
					</linearGradient>
					<rect x="281.8" y="299.6" class="st23" width="0.5" height="23.5"/>
				</g>
				<g>
					<linearGradient id="SVGID_9_" gradientUnits="userSpaceOnUse" x1="314.1203" y1="279.7477" x2="314.1203" y2="298.3187">
						<stop  offset="0" style="stop-color:#01FCFE"/>
						<stop  offset="1" style="stop-color:#01FCFE;stop-opacity:0"/>
					</linearGradient>
					<rect x="313.9" y="281" class="st24" width="0.5" height="23.5"/>
				</g>
				<g>
					<linearGradient id="SVGID_10_" gradientUnits="userSpaceOnUse" x1="341.9344" y1="263.8112" x2="341.9344" y2="282.3822">
						<stop  offset="0" style="stop-color:#01FCFE"/>
						<stop  offset="1" style="stop-color:#01FCFE;stop-opacity:0"/>
					</linearGradient>
					<rect x="341.7" y="265.1" class="st25" width="0.5" height="23.5"/>
				</g>
			</g>
		</g>
	</g>
</g>
<g>
	<path class="st26" d="M159,166.4c10.7-7.3,19.9-13.4,29.1-19.7c5.9-4,11.4-8.6,17.6-11.9c4.7-2.5,10.2-4.4,15.4-4.6
		c17.7-0.5,35.4,0,53.1-0.3c7.1-0.1,13,2,18.7,5.9c40.7,27.6,81.4,55.1,122.1,82.6c11.8,8,12.8,11.8,5.3,23.8
		c-4.5,7.2-6.8,15.5-17.1,15.5c-4.2,0-3.5,0-3.7,6.4c-0.2,22.8-0.1,45.5-0.1,68.3c0,16.7,0.2,0.7,0,17.4c-0.1,4.7,1.5,6.7,6.3,6.5
		c5.9-0.2,11.8,0,17.7,0c4.5,0,8.5,1.5,8.4,6.6c-0.1,4.8-3.9,6.2-8.2,6.2c-1.4,0-2.8,0-4.3,0c-115.7,0-231.4,0-347.1,0
		c-2,0-4.1,0-6.1-0.1c-4.2-0.2-7.4-2.1-7.3-6.5c0.1-4.4,3.5-6.2,7.5-6.3c7.7-0.1,15.5,0,23.2,0c8.9,0,8.9,0,8.9-8.9
		c0-38.4-0.1-44.2,0-82.6c0-4.2,0-7.2-5.8-7.6c-3.1-0.2-6.5-3.2-8.8-5.7c-3.3-3.8-5.8-8.3-8.6-12.6c-4.2-6.6-3-12.9,3.4-17.4
		c10-7,20-14,30.2-20.6c4.4-2.8,6.3-5.9,6.1-11.4c-0.5-11-0.2-21.9-0.1-32.9c0.1-9.8,4.8-14.6,14.6-14.8c5.3-0.1,10.6-0.2,15.9,0.1
		c8.6,0.5,13.2,5.3,13.5,14.1C159.1,159,159,161.9,159,166.4z M262.1,356.3c19.5-0.2,39-0.2,58.6,0c5,0,6.7-1.5,6.7-6.7
		c-0.3-21.3-0.1-10.1-0.1-31.4c0-20.9-0.2-41.9,0.1-62.8c0.1-5-1.6-7.8-5.5-10.4c-33.1-22.1-66.1-44.3-99-66.6c-3-2-5.2-2.2-8.2-0.1
		c-7.7,5.6-15.7,10.8-23.6,16.2c-25,17-50.1,34-74.9,51.2c-2.4,1.6-4.6,5.5-4.6,8.3c-0.3,42.9-0.1,53.1-0.2,96
		c0,4.9,1.6,6.3,6.3,6.3c19.5-0.2,39-0.2,58.6,0 M386.7,323.7C386.6,323.7,386.6,323.7,386.7,323.7c0-19.7-0.1-39.4,0.1-59.1
		c0.1-4.9-1.2-6.9-6.5-6.7c-11.6,0.3-23.2,0.2-34.8,0c-4-0.1-5.4,1.1-5.4,5.1c0.1,40.2,0.1,47.9,0.1,88.1c0,3.8,1.1,5.4,5.3,5.4
		c11.6-0.2,23.2-0.3,34.8,0c5.2,0.1,6.6-1.9,6.5-6.8C386.5,330.1,386.7,343.2,386.7,323.7z M86.3,232c2.1,3.3,3.8,5.8,5.3,8.3
		c1.9,3.1,4.1,3.7,7,1.5c1.6-1.2,3.4-2.2,5.1-3.4c35.9-24.5,71.7-49,107.5-73.6c5-3.4,9.2-3.8,14.4-0.2c20.9,14.4,42,28.5,63,42.7
		c17,11.5,34.1,22.8,51,34.4c3.7,2.5,5.8,1.8,7.7-1.8c0.8-1.4,1.6-2.8,2.7-4.1c2.2-2.7,1.8-4.5-1.2-6.4c-5-3.1-9.8-6.5-14.7-9.8
		c-36.2-24.4-72.5-48.6-108.5-73.2c-5.5-3.7-9.7-3.3-14.8,0.3c-33.8,23.2-67.7,46.3-101.5,69.5C101.7,221.2,94.1,226.6,86.3,232z
		 M252,148.6c33.1,22.4,66.3,44.8,99.5,67.1c4.2,2.8,8.3,7.2,12.9,7.6c10.6,1.1,24,0.6,34.7,0.6c-1.3-0.9-1-0.6-2.3-1.7
		c-1.9-1.4-2.8-2.3-4.3-3.3c-32-21.6-64.4-42.5-95.7-64.9c-12.3-8.8-22.5-11.6-37.3-11.3c-2.2,0-14.3-0.2-16.5,0"/>
</g>
<g>
	<g>
		<path class="st26" d="M160.9,237.2c0.2,5,0.5,9.9,0.7,14.9c-3.4,1.3-6.7,2.8-9.9,4.3c0.6,13.6,1.2,27.1,1.8,40.7
			c-4,0-8,0.1-12.1,0.1c-0.4-11.6-0.7-23.1-1.1-34.7c-3.1,1.8-6.1,3.8-9,5.9c0-3.2,0-6.4,0-9.6C140.3,249.9,150.3,242.7,160.9,237.2
			z"/>
		<path class="st26" d="M193.9,229c3.3,2.5,5.9,6.6,7.9,12c2,5.5,3,11.9,3.1,19c0.1,7.2-0.7,13.6-2.4,19.4c-1.7,5.7-4,10.2-7,13.4
			c-3,3.2-6.2,4.7-9.8,4.7c-3.6,0-7-1.5-10.2-4.3c-3.2-2.8-5.7-6.6-7.7-11.2c-2-4.7-3.1-9.8-3.4-15.8c-0.3-6,0.4-11.6,1.9-17.1
			c1.6-5.5,3.8-10.3,6.8-14.4c3-4,6.4-6.8,10.2-7.9C187.1,225.8,190.7,226.5,193.9,229z M178.4,252.2c-1.2,3-1.7,6.7-1.6,11.3
			c0.2,4.5,1,7.9,2.4,10.5c1.4,2.5,3.4,3.7,5.8,3.5c2.4-0.2,4.3-1.7,5.5-4.7c1.2-2.9,1.8-6.8,1.7-11.6c-0.1-4.9-0.9-8.6-2.4-11.2
			c-1.4-2.6-3.4-3.6-5.9-3.1C181.5,247.4,179.6,249.3,178.4,252.2z"/>
		<path class="st26" d="M268.1,233c-3.9,20.1-7.8,41.5-11.6,63.9c-5,0-10,0-15,0c-1.2-13.5-2.4-27.2-3.6-41.1
			c-1.8,13.5-3.6,27.3-5.3,41.1c-5,0-10,0-15,0c-3-24.6-6.2-49.2-9.7-73.4c4.7-0.4,9.4-0.6,14.1-0.4c1.2,15.5,2.4,31.1,3.4,46.6
			c1.9-15.4,3.9-30.8,6-46c4.7,0.5,9.5,1.2,14.1,2.2c1.5,15.3,2.8,30.4,4.1,45.3c1.6-14.5,3.3-28.8,5-42.9
			C259.2,229.5,263.7,231.1,268.1,233z"/>
		<path class="st26" d="M306.6,297.2c-4,0-8-0.1-12.1-0.1c-4-8-7.8-17.5-11.5-28.1c-0.4,9.3-0.9,18.7-1.3,28c-4,0-8,0-12.1-0.1
			c0.9-20.7,1.9-41.3,2.8-62c4,1.9,8,4,11.8,6.4c3.6,12,7.2,23,11,32.5c0.3-8.1,0.6-16.2,0.8-24.3c3.6,2.8,7.1,5.9,10.4,9.2
			C306.6,271.5,306.6,284.4,306.6,297.2z"/>
	</g>
</g>
<g>
	<path class="st26" d="M156.8,308.9c2.6,1.3,4.8,3,6.4,5.3c1.6,2.3,2.7,4.9,3.3,8h-12.7c-0.6-1.3-1.4-2.3-2.5-3
		c-1.1-0.7-2.3-1.1-3.7-1.1c-2,0-3.6,0.8-4.8,2.3c-1.2,1.5-1.8,3.6-1.8,6.1c0,2.6,0.6,4.6,1.8,6.1c1.2,1.5,2.8,2.3,4.8,2.3
		c1.4,0,2.6-0.4,3.7-1.1c1.1-0.7,1.9-1.7,2.5-3h12.7c-0.5,3-1.6,5.7-3.3,8c-1.7,2.3-3.8,4.1-6.4,5.3c-2.6,1.3-5.6,1.9-8.9,1.9
		c-3.9,0-7.3-0.8-10.1-2.5s-5.1-4-6.6-6.9c-1.5-3-2.3-6.4-2.3-10.2c0-3.8,0.8-7.2,2.3-10.2c1.5-3,3.7-5.3,6.6-6.9
		c2.9-1.6,6.2-2.5,10.1-2.5C151.2,307,154.2,307.6,156.8,308.9z"/>
	<path class="st26" d="M190.2,345.9l-7.3-13.8v13.8h-12.1v-38.5h17.9c3.1,0,5.8,0.6,8,1.7c2.2,1.1,3.9,2.6,5,4.5
		c1.1,1.9,1.7,4.1,1.7,6.4c0,2.6-0.7,4.9-2.1,6.9c-1.4,2-3.5,3.4-6.2,4.3l8.4,14.7H190.2z M182.9,324h4.8c1.2,0,2-0.3,2.6-0.8
		c0.6-0.5,0.9-1.3,0.9-2.5c0-1-0.3-1.8-0.9-2.4c-0.6-0.6-1.5-0.9-2.6-0.9h-4.8V324z"/>
	<path class="st26" d="M232,340.1h-12.8l-1.9,5.8h-12.7l14.1-38.5h13.9l14,38.5h-12.7L232,340.1z M229,331l-3.5-10.7l-3.5,10.7H229z
		"/>
	<path class="st26" d="M276.5,307.4v9.6h-15.1v5.3h10.9v9.1h-10.9v14.5h-12.1v-38.5H276.5z"/>
	<path class="st26" d="M310.8,307.4v9.6h-10.2v28.9h-12.1V317h-10.1v-9.6H310.8z"/>
</g>
</svg>
