<svg width="100" height="100" viewBox="0 0 100 100" fill="none" xmlns="http://www.w3.org/2000/svg">
<path d="M46.4551 81.7144C47.6192 81.8434 48.802 81.9094 50.0005 81.9094C51.1991 81.9094 52.3819 81.8434 53.546 81.7144V88.8407C52.378 88.9461 51.1952 88.9993 50.0005 88.9993C48.8049 88.9993 47.6231 88.9451 46.4551 88.8407V81.7144Z" fill="#3F8BFE"/>
<path d="M39.3636 80.093C41.6219 80.8908 43.9964 81.4423 46.4545 81.7141V88.8405C44.019 88.6208 41.6485 88.1777 39.3636 87.5316V80.093ZM74.8182 80.0851C72.6407 81.8835 70.2642 83.4504 67.7273 84.7474V76.5358C70.3992 74.7473 72.7864 72.5648 74.8054 70.0732L74.8182 80.0851ZM18.0899 72.4279C13.6236 66.0845 11 58.3486 11 50C11 28.4614 28.4614 11 50 11C71.5386 11 89 28.4614 89 50C89 58.3486 86.3764 66.0845 81.9091 72.4289V50C81.9091 32.3771 67.6229 18.0909 50 18.0909C32.3771 18.0909 18.0909 32.3771 18.0909 50L18.0899 72.4279ZM25.1936 70.0732C27.2126 72.5648 29.5998 74.7473 32.2717 76.5358V84.7474C29.7367 83.4514 27.3613 81.8855 25.1848 80.0891L25.1936 70.0732ZM60.6364 87.5316C58.3515 88.1777 55.981 88.6208 53.5455 88.8405V81.7141C56.0036 81.4423 58.3781 80.8908 60.6364 80.093V87.5316Z" fill="#3F8BFE"/>
<path d="M60.6358 29.1216H53.5449V83.4852H60.6358V29.1216Z" fill="#3F8BFE"/>
<path d="M46.4532 29.1216H39.3623V82.6973H46.4532V29.1216Z" fill="#3F8BFE"/>
<path d="M46.4553 32.6276C38.3638 34.2703 32.2735 41.4242 32.2735 50.0003H25.1826C25.1826 37.4977 34.4284 27.1538 46.4553 25.4333V32.6276ZM53.5463 25.4333C65.5732 27.1538 74.819 37.4977 74.819 50.0003H71.5325H67.7281C67.7281 41.4341 61.6516 34.2861 53.5738 32.6335L53.5463 25.4333Z" fill="#3F8BFE"/>
<path d="M74.8184 49.6064H67.7275V78.7579H74.8184V49.6064Z" fill="#3F8BFE"/>
<path d="M32.2735 49.6064H25.1826V78.7579H32.2735V49.6064Z" fill="#3F8BFE"/>
</svg>
