<?xml version="1.0" encoding="utf-8"?>
<!-- Generator: Adobe Illustrator 25.3.0, SVG Export Plug-In . SVG Version: 6.00 Build 0)  -->
<svg version="1.1" id="Layer_1" xmlns="http://www.w3.org/2000/svg" xmlns:xlink="http://www.w3.org/1999/xlink" x="0px" y="0px"
	 width="100px" height="100px" viewBox="0 0 100 100" enable-background="new 0 0 100 100" xml:space="preserve">
<g id="shield">
	<path fill="#FCF9FF" d="M83.163,23.395c-0.031-1.065-0.783-1.973-1.847-2.114c-4.932-0.673-9.802-1.863-14.577-3.601
		c-4.744-1.754-10.005-4.181-15.673-7.375c-0.72-0.407-1.394-0.407-2.114,0C43.315,13.5,38.101,15.927,33.31,17.68
		c-4.775,1.738-9.645,2.928-14.546,3.601c-1.065,0.141-1.801,1.049-1.926,2.114c-0.47,20.104,3.93,36.56,13.168,49.352
		c5.026,6.967,11.336,12.62,18.93,16.941c0.595,0.438,1.503,0.391,2.192,0c7.547-4.384,13.841-10.005,18.851-16.941
		C79.249,59.955,83.617,43.499,83.163,23.395z"/>
	<path opacity="0.3" fill="#F3E5FF" enable-background="new    " d="M62.527,29.658c-3.241,3.131-14.514,14.185-14.514,14.185
		s-0.877,25.24-1.675,29.185L58.22,84.912c4.486-3.484,8.411-7.529,11.76-12.165c6.502-8.973,10.588-19.751,12.295-32.323
		C75.692,36.836,69.11,33.248,62.527,29.658z"/>
	<g>
		<path fill="#C23A76" d="M54.369,42.826l-7.218-0.172l13.794-12.463c0.705-0.705,1.863-0.658,2.505,0.11l2.912,3.445
			c0.282,0.579,0.219,1.253-0.157,1.769l-4.525,6.138C59.975,43.969,57.235,42.873,54.369,42.826z"/>
		<path fill="#F24B93" d="M53.524,67.987l-5.402,4.744c-1.096,0.971-2.834,0.188-2.834-1.284V42.325l7.938,4.901
			c0.501,0.313,0.798,0.861,0.814,1.441l0.063,18.021C54.103,67.204,53.9,67.674,53.524,67.987z"/>
		<path fill="#C23A76" d="M54.041,58.749V48.666c0-0.579-0.298-1.112-0.783-1.425l-15.266-9.864l-4.18,5.621
			c-0.579,0.783-0.391,1.895,0.423,2.427L54.041,58.749z"/>
		<path fill="#F24B93" d="M59.207,43.969H34.234c-0.642,0-0.861-0.423-0.485-0.939l5.073-7.155c0.313-0.454,0.846-0.72,1.394-0.72
			h25.788c0.172,0,0.47,0,0.36,0.141l-5.778,7.97C60.256,43.718,59.755,43.969,59.207,43.969z"/>
	</g>
</g>
</svg>
