<svg width="100" height="100" viewBox="0 0 100 100" fill="none" xmlns="http://www.w3.org/2000/svg">
<path fill-rule="evenodd" clip-rule="evenodd" d="M47.6759 12.8443C49.0105 11.7185 50.9513 11.7185 52.2858 12.8445C62.1724 21.1855 73.4456 21.1209 77.8042 21.0959C78.0218 21.0947 78.2221 21.0934 78.404 21.0934C79.3672 21.0934 80.29 21.4838 80.9658 22.1769C81.6417 22.87 82.0141 23.808 81.9996 24.7807C81.7934 38.5895 81.2455 48.4431 80.1708 55.6638C79.0967 62.8801 77.4504 67.8209 74.8005 71.5412C72.1318 75.2879 68.7017 77.4159 65.0431 79.4584C64.4094 79.8123 63.763 80.1664 63.1014 80.5289C59.8892 82.2891 56.3167 84.2467 52.0767 87.3191C50.824 88.227 49.1376 88.227 47.8849 87.3191C43.6491 84.2496 40.0811 82.293 36.8739 80.534C36.2091 80.1695 35.5599 79.8134 34.9234 79.4577C31.2676 77.4147 27.842 75.286 25.1784 71.5381C22.5342 67.8175 20.8935 62.877 19.8233 55.6621C18.7523 48.4421 18.2068 38.5891 18.0004 24.7808C17.9859 23.808 18.3583 22.87 19.0341 22.1769C19.71 21.4838 20.6328 21.0934 21.596 21.0934C21.7759 21.0934 21.9742 21.0946 22.1898 21.0959C26.5133 21.1209 37.7878 21.1861 47.6759 12.8443ZM25.2562 28.3366C25.4999 40.1263 26.0306 48.4845 26.9356 54.5855C27.9324 61.3057 29.3374 64.9331 31.0205 67.3013C32.6844 69.6425 34.8677 71.124 38.4047 73.1007C38.981 73.4228 39.5886 73.7556 40.2267 74.1052C42.9517 75.5979 46.231 77.3944 49.9809 79.9445C53.7358 77.3912 57.0202 75.5935 59.7497 74.0996C60.3849 73.7518 60.9903 73.4206 61.5644 73.1C65.106 71.1227 67.2944 69.6406 68.9628 67.2982C70.6498 64.9297 72.059 61.3027 73.059 54.5836C73.967 48.4835 74.4998 40.1262 74.7438 28.3374C69.1562 28.159 59.2816 27.0011 49.9808 20.2285C40.6906 26.993 30.8299 28.1562 25.2562 28.3366Z" fill="#3375BB"/>
</svg>
