<?xml version="1.0" standalone="no"?>
<!DOCTYPE svg PUBLIC "-//W3C//DTD SVG 20010904//EN"
 "http://www.w3.org/TR/2001/REC-SVG-20010904/DTD/svg10.dtd">
<svg version="1.0" xmlns="http://www.w3.org/2000/svg"
 width="400.000000pt" height="400.000000pt" viewBox="0 0 400.000000 400.000000"
 preserveAspectRatio="xMidYMid meet">

<g transform="translate(0.000000,400.000000) scale(0.100000,-0.100000)"
fill="#000000" stroke="none">
<path d="M0 2000 l0 -2000 2000 0 2000 0 0 2000 0 2000 -2000 0 -2000 0 0
-2000z m990 330 c16 -33 30 -62 30 -65 0 -3 -36 -5 -80 -5 l-80 0 0 -325 0
-325 -60 0 -60 0 0 325 0 325 -95 0 -95 0 0 65 0 65 205 0 205 0 30 -60z
m1430 -135 l0 -65 30 0 c27 0 34 -6 55 -52 l25 -53 -55 -3 -55 -3 0 -204 0
-205 -60 0 -60 0 0 205 0 205 -25 0 c-24 0 -25 3 -25 55 0 52 1 55 25 55 24 0
25 2 25 65 l0 65 60 0 60 0 0 -65z m710 -25 l0 -89 46 24 c94 50 209 21 252
-65 21 -41 22 -57 22 -237 l0 -193 -60 0 -60 0 0 179 c0 165 -2 180 -21 205
-17 22 -28 26 -67 26 -93 -1 -106 -29 -110 -242 l-4 -168 -59 0 -59 0 0 325 0
325 60 0 60 0 0 -90z m-2022 -102 c15 -35 41 -92 58 -128 l30 -65 70 128 c38
70 72 127 76 127 3 0 36 -54 73 -120 37 -66 70 -120 74 -120 5 0 33 54 62 120
l54 119 68 1 c37 0 67 -2 67 -4 0 -2 -57 -121 -126 -263 l-125 -258 -64 150
c-36 83 -68 158 -72 168 -6 13 -26 -23 -78 -143 -39 -89 -72 -163 -75 -165 -4
-2 -229 452 -246 498 -5 15 1 17 60 17 l67 0 27 -62z m935 51 c84 -23 146
-110 155 -216 l5 -63 -177 0 -176 0 0 -25 c0 -35 55 -93 96 -101 51 -9 85 3
127 49 l38 41 44 -24 c25 -14 45 -29 45 -34 0 -5 -24 -33 -52 -61 -73 -73
-159 -93 -262 -63 -54 16 -128 90 -144 144 -18 63 -15 182 7 229 50 107 171
159 294 124z m860 -7 c26 -11 27 -14 27 -89 l0 -77 -34 33 c-78 76 -200 52
-242 -46 -40 -94 10 -202 101 -219 50 -9 93 4 136 43 l39 35 0 -76 c0 -74 -1
-77 -27 -88 -51 -21 -159 -22 -210 -3 -56 21 -118 76 -143 125 -70 137 1 312
147 366 43 16 163 14 206 -4z"/>
<path d="M1924 2016 c-29 -13 -64 -50 -64 -68 0 -5 50 -8 110 -8 l111 0 -16
30 c-25 48 -88 69 -141 46z"/>
</g>
</svg>
