<?xml version="1.0" standalone="no"?>
<!DOCTYPE svg PUBLIC "-//W3C//DTD SVG 20010904//EN"
 "http://www.w3.org/TR/2001/REC-SVG-20010904/DTD/svg10.dtd">
<svg version="1.0" xmlns="http://www.w3.org/2000/svg"
 width="300.000000pt" height="300.000000pt" viewBox="0 0 300.000000 300.000000"
 preserveAspectRatio="xMidYMid meet">
<metadata>
Created by potrace 1.10, written by Peter Selinger 2001-2011
</metadata>
<g transform="translate(0.000000,300.000000) scale(0.100000,-0.100000)"
fill="#000000" stroke="none">
<path d="M2190 2565 c-16 -19 0 -19 26 0 16 12 16 14 3 15 -9 0 -22 -7 -29
-15z"/>
<path d="M2243 2573 c4 -6 21 -16 39 -24 18 -7 39 -19 46 -26 7 -7 20 -13 28
-13 8 0 14 -4 14 -8 0 -5 19 -16 43 -27 23 -10 44 -21 47 -25 3 -4 26 -17 53
-28 26 -11 47 -26 47 -31 0 -6 9 -11 19 -11 11 0 27 -7 35 -16 9 -8 16 -12 16
-7 0 4 4 3 8 -3 9 -14 72 -47 78 -41 7 6 -122 87 -139 87 -8 0 -18 7 -21 16
-3 8 -10 12 -16 9 -5 -3 -10 -2 -10 3 0 6 -11 13 -24 16 -14 3 -31 12 -38 19
-23 22 -67 47 -83 47 -8 0 -15 4 -15 9 0 5 -10 11 -22 13 -13 2 -23 10 -22 18
1 8 -8 16 -20 16 -12 1 -32 5 -45 9 -16 5 -22 5 -18 -2z"/>
<path d="M2222 2508 c3 -7 15 -18 27 -24 13 -7 28 -17 34 -23 6 -6 19 -11 30
-11 34 0 12 -25 -32 -35 -23 -6 -39 -14 -35 -18 4 -4 -4 -7 -17 -8 -37 -1 -94
-39 -76 -51 2 -1 25 8 129 56 63 29 79 31 95 15 13 -13 85 -53 126 -70 39 -16
34 -26 -25 -43 -29 -9 -75 -26 -102 -40 -44 -21 -51 -22 -76 -9 -15 7 -33 20
-40 28 -10 12 -9 15 6 15 11 0 35 8 54 19 19 10 52 24 73 30 40 13 50 31 17
31 -11 0 -20 -4 -20 -9 0 -5 -14 -13 -32 -16 -17 -4 -52 -18 -77 -30 -43 -22
-47 -22 -83 -8 -22 9 -42 13 -45 9 -4 -3 2 -6 13 -6 16 0 17 -2 4 -10 -13 -8
-12 -10 5 -11 11 -1 23 -1 28 0 4 0 7 -4 7 -10 0 -5 4 -8 9 -5 5 3 23 -8 41
-24 26 -25 29 -31 16 -36 -11 -4 -13 -10 -7 -18 5 -6 12 -27 16 -46 14 -66 52
-168 75 -200 l22 -32 -29 -31 c-25 -27 -41 -68 -92 -248 -49 -172 -60 -221
-52 -240 6 -13 44 -131 86 -262 42 -131 82 -240 89 -243 10 -4 5 -18 -19 -55
-35 -52 -65 -137 -71 -204 -2 -22 -1 -31 2 -20 4 11 9 22 13 25 8 6 35 94 30
97 -2 1 5 9 16 17 11 8 23 12 27 10 4 -3 5 2 2 11 -6 14 -8 14 -20 -2 -13 -16
-13 -15 -3 9 10 24 15 26 28 15 14 -11 15 -10 1 7 -12 15 -12 20 -2 23 6 3 10
9 6 14 -3 5 -1 9 5 9 5 0 13 10 16 22 6 15 1 26 -16 40 -13 11 -18 17 -11 13
9 -5 6 8 -7 34 l-21 40 27 18 c15 10 31 18 37 19 27 3 55 17 60 30 5 14 -26 4
-98 -32 -16 -8 -30 -13 -31 -12 -1 2 -12 40 -25 86 -13 45 -27 82 -32 82 -4 0
-8 7 -8 16 0 9 5 12 12 8 7 -5 8 -3 2 7 -5 8 -9 16 -10 19 0 3 -6 18 -12 33
-7 16 -12 33 -12 38 0 6 -4 8 -8 5 -4 -2 -8 3 -9 12 -2 44 -8 72 -14 72 -13 0
-17 41 -4 46 7 3 13 16 13 28 0 13 12 64 27 112 15 49 28 101 29 116 1 14 3
24 5 22 8 -8 31 97 24 108 -4 7 -1 8 6 4 8 -5 14 0 18 13 3 12 10 18 17 14 6
-3 8 -2 3 2 -4 5 -1 15 7 24 17 20 28 73 13 64 -7 -4 -8 0 -4 11 5 13 3 17 -7
13 -11 -4 -13 -1 -9 10 5 12 2 15 -8 11 -9 -4 -15 1 -16 11 0 9 -10 41 -22 71
-12 30 -19 61 -16 68 3 7 1 11 -4 8 -10 -7 -23 33 -15 46 9 13 34 9 62 -11 33
-23 92 -37 92 -22 0 6 -5 11 -12 11 -17 0 -87 34 -88 43 0 4 5 7 10 7 6 0 32
10 58 23 43 21 51 22 70 9 13 -8 32 -12 47 -8 31 8 32 22 3 30 -20 6 -21 8 -7
16 12 7 26 5 45 -5 16 -8 34 -15 40 -15 6 0 17 -7 24 -15 15 -18 30 -19 30 -2
0 7 -17 20 -37 30 -21 10 -62 31 -91 47 -30 17 -95 53 -145 80 -51 28 -99 55
-107 61 -8 5 -23 12 -32 15 -10 4 -18 10 -18 15 0 5 -5 9 -11 9 -6 0 -9 -6 -7
-12z"/>
<path d="M2153 2495 c5 -11 3 -22 -5 -27 -8 -5 -9 -8 -2 -8 23 0 33 24 16 40
-14 13 -15 12 -9 -5z"/>
<path d="M2000 2455 c0 -8 4 -15 10 -15 5 0 7 7 4 15 -4 8 -8 15 -10 15 -2 0
-4 -7 -4 -15z"/>
<path d="M1848 2433 c7 -3 16 -2 19 1 4 3 -2 6 -13 5 -11 0 -14 -3 -6 -6z"/>
<path d="M2285 2365 c-27 -13 -57 -25 -65 -25 -12 0 -13 -2 -1 -9 13 -9 61 6
131 41 32 16 33 17 10 18 -14 0 -47 -11 -75 -25z"/>
<path d="M1688 2353 c6 -2 18 -2 25 0 6 3 1 5 -13 5 -14 0 -19 -2 -12 -5z"/>
<path d="M1621 2329 c-13 -5 -21 -12 -18 -15 3 -3 18 1 34 10 31 17 21 20 -16
5z"/>
<path d="M2036 2332 c-3 -5 16 -18 42 -30 27 -12 58 -31 70 -42 11 -11 26 -20
32 -20 13 0 52 -22 63 -35 5 -6 7 -1 5 10 -2 12 -12 21 -26 23 -12 2 -22 8
-22 13 0 5 -9 9 -19 9 -11 0 -21 3 -23 8 -1 4 -20 16 -40 26 -21 10 -35 23
-32 27 3 5 1 9 -5 9 -5 0 -16 3 -24 6 -8 3 -18 1 -21 -4z"/>
<path d="M2421 2324 c-13 -9 -43 -22 -67 -28 -32 -8 -41 -14 -35 -24 6 -11 13
-11 27 -2 11 6 42 19 69 28 28 10 49 22 48 27 -3 16 -18 16 -42 -1z"/>
<path d="M1538 2283 c7 -3 16 -2 19 1 4 3 -2 6 -13 5 -11 0 -14 -3 -6 -6z"/>
<path d="M2696 2264 c-9 -22 -8 -24 8 -18 20 8 29 34 12 34 -8 0 -17 -7 -20
-16z"/>
<path d="M1465 2260 c-3 -5 -1 -10 4 -10 6 0 11 5 11 10 0 6 -2 10 -4 10 -3 0
-8 -4 -11 -10z"/>
<path d="M2583 2246 c-18 -6 -35 -15 -39 -19 -11 -10 -52 -8 -59 3 -9 15 -51
12 -64 -4 -9 -11 -6 -16 19 -24 16 -6 30 -7 30 -2 0 5 14 5 32 -1 41 -11 51
-11 44 0 -8 12 20 22 39 14 10 -3 15 0 13 8 -2 8 7 15 20 17 12 2 22 8 22 13
0 11 -16 10 -57 -5z"/>
<path d="M1950 2230 c8 -5 24 -10 34 -10 18 0 19 -1 1 -20 -10 -11 -15 -23
-12 -27 4 -3 7 0 8 8 0 8 9 -18 19 -57 22 -83 64 -172 86 -181 11 -4 13 -14 8
-35 -3 -17 4 -85 16 -157 25 -144 31 -166 37 -136 2 11 15 73 30 138 l27 118
-21 27 -20 27 29 35 c30 39 63 123 74 190 5 31 4 41 -4 36 -7 -4 -12 -17 -12
-29 0 -18 -2 -19 -11 -7 -8 12 -10 10 -8 -10 1 -14 0 -27 -1 -30 -1 -3 -3 -14
-5 -25 -2 -11 -13 -28 -25 -37 -12 -10 -16 -19 -10 -23 5 -3 10 -1 10 6 0 7 3
10 6 6 4 -3 -4 -19 -16 -34 -13 -15 -21 -21 -17 -12 3 9 1 22 -4 30 -6 9 -7
-1 -4 -28 4 -37 3 -42 -12 -36 -10 4 -14 2 -10 -4 4 -6 0 -13 -8 -16 -9 -4
-12 -1 -8 9 3 8 2 14 -3 13 -18 -4 -44 14 -44 31 0 31 -22 80 -32 73 -7 -4 -9
3 -4 20 3 14 2 29 -4 32 -6 4 -7 -1 -4 -12 5 -15 4 -16 -5 -3 -6 8 -11 24 -11
35 0 11 -7 31 -17 44 -16 24 -16 24 11 19 14 -3 29 -1 32 3 3 5 -1 9 -9 9 -8
0 -19 6 -25 13 -6 7 -26 14 -44 15 -25 2 -29 0 -18 -8z m215 -338 c0 -6 3 -14
8 -18 10 -10 9 -26 -2 -20 -11 7 -23 -22 -15 -35 3 -5 0 -17 -5 -26 -9 -15
-10 -13 -11 15 0 17 -4 32 -10 32 -5 0 -10 9 -10 21 0 11 4 18 9 15 5 -3 15 2
22 12 12 15 12 16 -2 5 -17 -14 -29 -8 -29 13 0 10 6 11 23 5 12 -5 22 -13 22
-19z"/>
<path d="M1823 2212 c-40 -6 -24 -17 27 -18 28 -1 50 3 50 8 0 5 -4 6 -10 3
-5 -3 -18 -2 -27 3 -10 4 -28 6 -40 4z"/>
<path d="M1436 2188 c-11 -16 -16 -18 -17 -8 -1 8 -5 -3 -8 -25 -4 -28 -11
-39 -21 -37 -8 2 -12 0 -8 -3 10 -11 -19 -63 -42 -75 -11 -6 -32 -8 -47 -5
-16 3 -22 2 -13 -2 26 -14 20 -30 -9 -25 -16 2 -32 -1 -36 -7 -5 -8 2 -10 22
-6 21 5 24 4 13 -4 -8 -6 -34 -13 -58 -17 -23 -3 -45 -10 -47 -15 -3 -4 -15
-6 -27 -4 -11 3 -18 2 -14 -2 3 -4 -1 -15 -11 -25 -15 -17 -15 -19 1 -31 13
-9 18 -29 20 -74 1 -34 -2 -59 -7 -56 -5 3 -6 -4 -3 -15 4 -11 2 -23 -4 -27
-6 -4 -8 -16 -5 -26 5 -16 0 -23 -24 -32 -28 -10 -42 -27 -23 -27 4 0 18 -3
32 -6 20 -4 22 -3 10 5 -13 9 -13 11 3 11 9 0 17 -6 17 -12 0 -8 7 -5 15 6 15
19 15 19 15 -1 0 -12 5 -25 10 -28 6 -3 10 -22 10 -40 0 -25 -4 -33 -14 -29
-8 3 -17 1 -21 -5 -3 -6 2 -11 12 -11 11 0 28 -6 39 -14 23 -17 43 -4 45 28 1
19 2 18 9 -4 l8 -25 2 25 c2 14 3 35 3 48 1 12 5 22 10 22 4 0 6 4 3 9 -3 5 5
19 18 32 13 13 22 30 20 38 -2 9 2 3 10 -14 8 -16 15 -56 16 -88 0 -54 -2 -58
-32 -78 l-33 -20 30 6 30 5 2 -90 c1 -53 -3 -90 -8 -90 -6 0 -8 -4 -5 -9 3 -5
8 -41 11 -80 4 -64 2 -71 -14 -71 -10 0 -28 9 -41 20 -20 18 -21 21 -6 35 21
21 20 24 -4 18 -27 -7 -45 -40 -31 -57 6 -7 30 -19 53 -26 57 -18 60 -21 43
-53 -8 -15 -10 -25 -6 -22 17 10 21 -28 6 -45 -16 -17 -20 -41 -7 -39 21 4 22
-3 3 -27 -12 -15 -21 -33 -21 -40 0 -8 -5 -14 -11 -14 -5 0 -7 6 -3 13 4 6 3
9 -1 4 -12 -10 -14 -67 -3 -73 5 -3 5 -10 2 -16 -5 -7 -2 -8 5 -4 8 5 14 0 18
-14 5 -18 11 -21 34 -16 17 3 29 1 29 -5 0 -16 -26 -39 -44 -39 -9 0 -16 -7
-16 -16 0 -12 5 -14 18 -9 27 12 65 11 69 -2 3 -7 -13 -17 -37 -24 -42 -13
-76 -49 -46 -49 8 0 22 7 31 16 8 9 22 14 30 11 7 -3 16 -1 19 6 3 9 7 8 15
-3 8 -12 0 -20 -45 -43 -40 -20 -54 -32 -50 -43 3 -9 6 -20 6 -25 0 -6 5 -7
11 -4 6 4 8 13 5 21 -3 9 1 14 14 14 10 0 24 8 29 18 6 9 11 12 11 5 0 -6 9
-9 22 -5 16 4 19 2 13 -9 -8 -12 -6 -12 8 -1 9 8 22 10 28 6 9 -5 10 -2 6 9
-3 10 -2 17 3 17 5 0 11 9 15 19 3 11 13 18 23 17 23 -4 72 14 72 26 0 5 5 6
10 3 6 -3 10 -1 10 6 0 6 8 9 18 7 12 -3 24 2 31 13 6 11 22 19 36 19 30 0 33
16 4 23 -12 3 -22 0 -25 -7 -3 -7 -24 -19 -47 -27 -23 -7 -52 -19 -64 -27 -12
-7 -24 -13 -27 -13 -3 0 -12 -2 -21 -5 -8 -3 -19 -4 -25 -2 -18 6 29 48 61 55
16 3 29 9 29 12 0 4 20 12 45 19 25 7 45 16 45 22 0 5 9 10 20 10 11 0 20 5
20 10 0 6 8 10 18 10 15 1 15 2 -2 11 -14 9 -20 8 -27 -2 -7 -12 -9 -11 -9 1
-1 12 -3 11 -11 -2 -5 -10 -15 -18 -22 -18 -7 0 -34 -11 -61 -25 -27 -14 -58
-25 -69 -25 -20 0 -19 1 3 25 13 14 29 25 37 25 7 0 50 18 94 40 45 22 85 38
89 35 4 -3 11 2 14 11 3 8 10 12 16 9 6 -3 13 1 16 9 3 9 10 14 14 11 4 -2 7
12 6 33 -1 33 2 38 31 47 45 15 49 22 15 27 -20 3 -28 0 -25 -8 2 -6 -3 -14
-11 -17 -10 -4 -13 -1 -9 9 3 7 0 14 -6 14 -6 0 -11 -6 -11 -14 0 -8 -10 -18
-22 -21 -21 -6 -53 -20 -146 -63 -19 -9 -40 -17 -47 -18 -22 -3 -26 25 -5 36
11 6 20 8 20 4 0 -3 20 6 44 20 25 14 51 26 58 27 25 1 108 45 101 53 -5 5 3
6 17 2 l25 -6 -23 12 c-18 9 -25 9 -31 0 -3 -6 -26 -14 -49 -18 -24 -4 -49
-13 -56 -20 -7 -7 -32 -18 -54 -25 -23 -7 -42 -16 -42 -20 0 -9 -27 -6 -37 5
-9 8 35 45 54 46 6 0 22 4 35 9 13 5 26 8 29 7 9 -1 49 35 49 45 0 4 -9 7 -20
6 -11 -1 -20 -5 -20 -9 0 -4 -9 -8 -19 -8 -11 0 -26 -6 -33 -13 -12 -11 -63
-37 -73 -37 -3 0 -5 9 -5 20 0 13 10 24 28 31 15 5 45 18 67 29 74 35 120 53
128 52 4 -1 7 3 7 9 0 6 -12 9 -27 7 -16 -2 -27 -8 -26 -15 2 -9 -4 -10 -22
-3 -20 7 -25 6 -25 -5 0 -8 -8 -15 -18 -15 -10 0 -35 -9 -57 -20 -28 -14 -42
-17 -50 -9 -7 7 -5 14 8 23 19 15 23 37 5 33 -20 -4 -14 35 7 47 11 6 23 15
27 20 3 5 14 2 23 -7 9 -10 21 -17 27 -17 6 0 16 -7 22 -15 10 -13 13 -13 24
5 11 18 10 20 -10 20 -13 0 -32 7 -42 15 -24 18 -56 20 -56 3 0 -10 -3 -9 -9
1 -7 11 -9 11 -14 0 -3 -8 -6 21 -6 63 -1 52 3 78 12 81 10 4 10 6 0 6 -9 1
-13 22 -13 72 0 44 4 68 10 64 6 -3 10 -1 10 4 0 6 -5 11 -11 11 -7 0 -10 19
-8 53 2 28 0 58 -4 65 -13 20 11 14 38 -10 14 -12 25 -29 25 -37 0 -13 2 -13
9 -3 11 18 24 -28 15 -55 -5 -15 -4 -15 5 -3 9 13 11 13 11 -3 0 -10 8 -29 17
-43 16 -25 17 -25 30 -8 7 10 13 27 13 37 0 17 2 18 17 6 12 -10 15 -11 9 -1
-10 17 24 112 41 112 7 0 13 -8 13 -17 0 -14 4 -13 23 6 27 25 87 26 99 1 6
-11 7 -10 5 5 -3 26 -83 40 -96 17 -9 -15 -31 -9 -31 9 0 6 5 7 10 4 6 -3 10
1 10 10 0 10 5 13 13 9 14 -9 -7 21 -35 49 -24 24 -23 37 5 38 21 1 21 1 -3 8
-29 9 -30 43 -3 73 9 10 13 21 10 25 -4 3 -7 2 -7 -4 0 -6 -7 -14 -16 -17 -15
-6 -15 -4 -3 11 20 25 48 53 53 53 2 0 3 -8 1 -17 -1 -10 7 -26 19 -36 11 -10
16 -16 9 -13 -6 4 -15 1 -19 -5 -4 -7 -3 -9 4 -5 23 14 44 -25 42 -79 0 -3 6
-18 15 -35 20 -39 20 -40 -17 -41 l-33 -1 31 -8 c41 -9 62 -30 56 -53 -2 -10
3 -26 13 -37 11 -12 15 -26 10 -42 -4 -15 -3 -19 3 -10 6 10 11 1 16 -29 4
-24 11 -48 17 -55 7 -8 6 -16 -4 -25 -11 -11 -10 -16 6 -32 11 -11 15 -22 10
-26 -5 -3 -17 -44 -27 -91 -10 -49 -25 -89 -34 -97 -14 -11 -15 -14 -3 -22 12
-8 12 -14 -2 -43 -13 -25 -17 -28 -18 -13 0 11 -3 14 -6 7 -2 -6 -9 -10 -14
-6 -5 3 -9 0 -9 -5 0 -6 3 -11 8 -11 4 0 13 -4 21 -9 12 -8 12 -12 -1 -25 -9
-9 -14 -24 -11 -36 3 -12 -2 -29 -12 -40 -14 -15 -15 -20 -4 -20 12 0 12 -2 0
-9 -8 -5 -10 -14 -6 -21 5 -9 4 -11 -3 -6 -11 7 -17 -6 -13 -27 1 -5 -3 -6 -8
-3 -5 3 -14 -1 -21 -9 -7 -8 -19 -15 -26 -15 -8 0 -14 -4 -14 -10 0 -5 6 -10
14 -10 23 0 79 -58 72 -75 -3 -8 -1 -15 4 -15 6 0 10 -7 10 -16 0 -9 5 -12 12
-8 7 5 8 3 3 -5 -4 -7 -1 -24 6 -38 9 -16 10 -26 3 -31 -13 -8 14 -63 34 -70
6 -2 20 14 29 35 10 21 25 44 33 51 8 8 9 11 3 7 -16 -8 -16 0 0 48 8 20 16
35 19 31 3 -3 9 8 13 25 4 17 11 34 17 37 7 5 8 2 4 -7 -4 -8 -1 -5 8 5 8 10
17 23 18 28 2 5 11 6 21 3 9 -4 14 -12 11 -17 -4 -6 8 -23 25 -39 28 -24 31
-30 21 -50 -7 -12 -8 -19 -3 -16 5 3 14 3 20 -1 17 -12 44 -72 37 -84 -4 -6
-3 -8 3 -5 6 4 10 -8 9 -30 -1 -22 4 -38 13 -41 11 -4 13 6 9 47 -6 58 -64
184 -101 219 -21 20 -24 30 -19 68 2 24 -3 97 -13 161 l-18 118 -24 -115 c-12
-63 -22 -135 -21 -160 2 -33 -3 -53 -18 -75 -45 -64 -83 -162 -84 -215 0 -20
-2 -22 -10 -10 -5 8 -10 27 -10 42 0 56 -38 150 -77 190 -21 22 -31 37 -23 33
36 -13 57 36 120 281 l62 241 -68 223 c-69 225 -93 276 -122 265 -9 -3 2 11
24 32 65 60 102 154 88 222 l-7 36 -13 -54 c-7 -30 -10 -59 -7 -65 4 -5 1 -6
-7 -1 -8 5 -11 3 -8 -6 3 -8 -1 -26 -9 -41 -7 -15 -13 -30 -13 -33 1 -18 -2
-18 -16 0 -16 20 -16 19 -9 -4 6 -20 4 -23 -9 -18 -9 4 -16 2 -16 -4 0 -5 -11
-14 -25 -21 -13 -6 -22 -15 -18 -21 3 -5 0 -7 -8 -5 -8 3 -13 10 -12 15 1 6
-11 10 -28 11 -16 0 -43 8 -61 16 -17 9 -39 16 -48 16 -10 0 -23 7 -30 15 -7
8 -16 13 -20 10 -4 -3 -7 3 -6 12 0 11 -6 18 -18 18 -12 0 -28 16 -43 43 -13
23 -21 42 -18 42 4 0 -1 7 -9 16 -9 8 -16 23 -16 32 0 15 2 15 11 2 7 -10 9
-11 7 -2 -2 8 -8 14 -13 14 -6 0 -18 4 -27 9 -12 7 -21 3 -32 -13z m55 -69
c48 -104 125 -161 251 -184 35 -7 36 -7 22 -33 -17 -34 -17 -125 0 -174 11
-30 11 -38 0 -42 -18 -7 -46 -62 -59 -121 l-12 -50 -13 63 c-11 52 -19 68 -48
92 l-34 28 12 50 c10 42 9 55 -4 80 -17 34 -36 44 -57 31 -12 -7 -14 -80 -14
-446 0 -420 1 -439 20 -472 18 -30 55 -52 55 -32 0 4 19 13 43 20 23 7 49 19
57 26 8 7 28 16 45 19 16 4 33 13 37 19 5 7 8 4 8 -10 0 -23 -33 -53 -60 -53
-8 -1 -42 -14 -75 -29 -37 -18 -62 -25 -66 -19 -4 6 -23 -5 -46 -25 -41 -37
-74 -100 -94 -177 l-12 -45 -12 52 c-17 75 -65 165 -100 188 l-31 20 26 22 25
21 3 444 c1 243 0 453 -3 466 -3 13 -13 22 -24 22 -38 0 -55 -51 -40 -122 10
-45 9 -50 -15 -79 -14 -16 -31 -49 -37 -72 -6 -23 -15 -51 -19 -62 -8 -18 -9
-18 -9 5 -2 48 -23 104 -51 132 -27 27 -28 30 -14 56 18 35 18 139 0 174 -14
26 -14 27 27 33 58 10 156 57 192 93 17 16 44 59 60 95 17 37 31 67 32 67 1 0
16 -32 34 -71z m98 -346 c1 -18 -3 -33 -9 -33 -5 0 -10 -7 -10 -15 0 -8 -3
-15 -7 -15 -11 0 -9 102 2 120 7 11 10 10 16 -6 4 -10 8 -34 8 -51z m-252 -17
c2 -37 -1 -56 -6 -47 -5 7 -6 23 -4 35 4 17 3 18 -6 6 -9 -13 -11 -13 -11 1 0
8 5 20 12 27 8 8 8 15 0 25 -9 10 -9 14 1 14 8 0 13 -21 14 -61z m468 -16 c3
-5 3 -15 -1 -21 -6 -11 -23 6 -24 24 0 10 18 9 25 -3z m329 -716 c2 -16 -2
-33 -8 -37 -8 -6 -8 -10 2 -14 11 -4 18 -43 8 -43 -2 0 -11 -3 -20 -6 -12 -5
-15 2 -13 40 1 25 5 46 10 46 4 0 7 12 7 27 0 34 10 24 14 -13z m-795 -193
c-12 -4 -51 34 -43 42 3 2 16 -5 29 -17 13 -11 19 -23 14 -25z m928 -213 c-3
-8 -6 -5 -6 6 -1 11 2 17 5 13 3 -3 4 -12 1 -19z"/>
<path d="M1440 2050 c8 -5 20 -10 25 -10 6 0 3 5 -5 10 -8 5 -19 10 -25 10 -5
0 -3 -5 5 -10z"/>
<path d="M1520 2006 c0 -2 7 -7 16 -10 8 -3 12 -2 9 4 -6 10 -25 14 -25 6z"/>
<path d="M1160 1716 c0 -2 8 -10 18 -17 15 -13 16 -12 3 4 -13 16 -21 21 -21
13z"/>
<path d="M1675 1711 c3 -3 17 -6 31 -7 13 0 22 2 19 5 -3 3 -17 6 -31 7 -13 0
-22 -2 -19 -5z"/>
<path d="M1670 1681 c0 -6 4 -13 10 -16 6 -3 7 1 4 9 -7 18 -14 21 -14 7z"/>
<path d="M1419 833 c-13 -16 -12 -17 4 -4 16 13 21 21 13 21 -2 0 -10 -8 -17
-17z"/>
<path d="M2883 2203 c15 -2 44 -15 64 -29 42 -28 53 -30 53 -8 0 8 -5 12 -11
9 -5 -4 -19 1 -29 10 -11 10 -38 19 -62 20 -24 1 -30 0 -15 -2z"/>
<path d="M646 2184 c-3 -8 -6 -29 -6 -45 0 -17 -4 -28 -9 -25 -5 3 -12 -1 -15
-10 -3 -8 -2 -12 4 -9 14 9 12 -1 -5 -34 -8 -16 -11 -32 -7 -36 4 -5 1 -5 -6
-1 -7 4 -15 0 -19 -11 -4 -10 -20 -36 -35 -57 -20 -28 -25 -42 -17 -47 8 -5 6
-9 -7 -12 -16 -4 -16 -5 3 -6 12 0 25 -6 29 -12 3 -6 -1 -10 -12 -9 -25 3 -64
-10 -64 -21 0 -5 -8 -9 -17 -9 -9 0 -36 -9 -60 -21 -24 -12 -54 -22 -67 -23
-13 0 -22 -4 -20 -7 2 -4 -8 -10 -22 -13 -28 -7 -60 -33 -52 -42 3 -2 18 2 34
10 16 8 49 24 74 35 25 10 76 33 114 50 70 33 105 33 107 3 5 -93 0 -137 -16
-140 -15 -4 -15 -5 2 -17 16 -11 18 -22 13 -85 -3 -39 -2 -74 2 -76 4 -3 3
-15 -2 -28 -5 -13 -6 -34 -3 -46 5 -20 4 -21 -15 -11 -15 8 -23 8 -28 -1 -4
-6 -3 -8 2 -5 6 3 16 2 24 -3 11 -7 16 -40 20 -135 5 -126 5 -126 -17 -120
-28 7 -40 -11 -13 -20 26 -8 46 -43 32 -57 -7 -7 -28 -1 -65 20 -50 28 -67 31
-67 12 0 -4 32 -22 70 -41 39 -18 70 -37 70 -41 0 -3 -7 -14 -16 -22 -14 -14
-11 -20 7 -18 4 1 5 -8 2 -18 -3 -11 -9 -20 -14 -20 -5 0 -14 -11 -19 -26
l-10 -25 -32 24 c-18 13 -51 32 -73 42 -22 10 -42 21 -45 25 -7 9 -123 70
-134 70 -9 0 55 -60 65 -60 12 0 204 -110 194 -111 -5 0 0 -4 13 -9 22 -9 31
-40 12 -40 -5 0 -10 4 -10 10 0 5 -8 7 -17 3 -10 -3 -15 -3 -11 1 3 4 -24 24
-60 43 -37 19 -74 41 -82 47 -8 7 -31 19 -50 26 -19 8 -38 18 -41 23 -4 5 -9
4 -13 -2 -4 -6 -2 -11 4 -11 6 0 9 -4 6 -9 -9 -15 -106 37 -115 62 -11 26 -33
46 -95 82 -43 25 -46 26 -46 8 0 -14 12 -24 40 -33 22 -7 40 -17 40 -21 0 -4
9 -11 20 -14 11 -4 19 -13 18 -22 -2 -8 6 -20 17 -27 11 -6 22 -13 25 -16 3
-3 22 -13 42 -22 21 -10 38 -22 38 -27 0 -15 -21 -25 -29 -14 -3 6 -25 21 -48
34 -22 13 -66 39 -97 56 -61 36 -66 38 -66 23 0 -5 26 -25 57 -44 151 -90 188
-101 200 -56 6 23 20 25 42 6 9 -7 48 -30 86 -51 39 -20 77 -43 85 -50 34 -29
97 -28 86 1 -11 28 25 0 39 -30 13 -30 13 -30 15 -6 l1 25 19 -24 c24 -28 26
-45 4 -37 -14 6 -15 4 -4 -9 11 -13 15 -13 21 -3 6 8 9 9 9 2 0 -6 -7 -17 -15
-24 -8 -7 -12 -16 -9 -21 8 -14 24 -11 24 5 0 9 7 12 20 9 11 -3 17 -9 14 -14
-3 -5 1 -9 8 -9 27 -1 53 -31 53 -60 0 -35 19 -41 23 -7 7 55 -123 201 -203
227 l-34 11 23 34 c18 26 24 53 29 126 9 146 6 779 -5 809 -5 15 -18 37 -28
48 -19 20 -19 20 6 37 29 18 76 112 95 186 7 27 16 49 20 49 4 0 10 -26 14
-57 8 -66 43 -150 74 -177 17 -16 19 -22 8 -34 -19 -23 -17 -952 2 -975 18
-22 37 -22 47 1 5 9 10 224 12 477 2 360 -1 465 -11 485 -11 22 -9 30 19 77
17 29 42 89 55 134 l23 81 18 -74 c12 -49 31 -92 58 -132 37 -53 39 -60 25
-76 -13 -14 -15 -77 -15 -481 0 -450 1 -465 21 -498 11 -18 19 -34 17 -35 -2
-2 -25 -11 -53 -21 -60 -21 -133 -92 -170 -164 -31 -62 -32 -81 -5 -74 12 3
20 0 20 -7 0 -7 6 -10 14 -7 8 3 16 1 18 -5 5 -14 71 7 110 33 14 11 35 19 46
19 11 0 25 7 32 15 7 8 19 15 27 15 8 0 29 6 46 14 18 8 47 20 65 27 17 8 32
20 32 26 0 7 5 13 10 13 6 0 10 5 10 12 0 9 -3 9 -12 0 -7 -7 -20 -12 -31 -12
-10 0 -15 -5 -12 -10 3 -6 -3 -10 -14 -10 -11 0 -23 -4 -26 -10 -3 -5 -17 -10
-31 -10 -13 0 -24 -4 -24 -8 0 -4 -17 -14 -37 -21 -40 -13 -85 -32 -145 -61
-21 -10 -38 -14 -38 -8 0 5 -6 8 -12 6 -15 -5 -43 20 -33 30 10 10 29 9 37 -3
5 -6 8 -5 8 3 0 9 7 11 20 7 11 -4 20 -2 20 4 0 6 6 11 13 11 6 0 35 11 62 25
28 13 58 25 67 25 9 0 23 6 30 12 7 7 39 22 71 32 56 19 75 31 64 43 -11 11
-67 -9 -67 -24 0 -10 -6 -13 -16 -9 -8 3 -33 -3 -55 -14 -21 -11 -39 -18 -39
-15 0 4 -10 -1 -22 -9 -12 -9 -32 -16 -44 -16 -12 0 -27 -7 -34 -15 -10 -13
-61 -32 -108 -41 -6 -1 0 11 15 27 16 16 35 29 44 29 9 0 19 3 23 7 4 5 13 8
19 8 7 1 11 7 9 13 -1 7 3 12 10 11 19 -4 78 12 78 20 0 18 -15 18 -56 1 -24
-11 -44 -17 -44 -13 0 3 -7 0 -15 -7 -8 -7 -12 -16 -9 -21 3 -5 -2 -6 -12 -2
-14 5 -12 10 14 34 29 28 133 80 185 93 15 3 27 11 27 16 0 5 16 12 35 16 19
3 35 10 35 15 0 5 7 9 15 9 8 0 15 7 15 16 0 18 -19 14 -96 -22 -58 -28 -89
-31 -81 -10 3 8 1 16 -6 19 -20 6 19 37 52 40 45 5 46 12 2 32 -42 19 -89 61
-78 71 6 6 89 -38 119 -63 9 -8 27 -13 40 -11 20 3 16 8 -27 29 -27 13 -56 30
-63 36 -7 7 -17 13 -22 13 -23 0 -38 31 -30 59 6 21 5 31 -3 35 -8 3 -8 5 1 5
10 1 10 6 2 21 -6 12 -10 66 -9 130 3 98 5 110 21 110 11 0 15 5 12 15 -4 8
-10 12 -15 9 -10 -6 -11 -4 -13 49 -1 25 3 41 14 47 13 8 13 9 0 10 -12 1 -12
3 3 14 17 13 16 14 -3 19 -18 5 -20 13 -20 95 0 73 3 92 18 105 10 10 26 17
35 17 9 0 17 5 17 11 0 8 -11 9 -31 5 -28 -5 -31 -4 -26 14 3 10 0 21 -7 24
-6 2 -4 5 5 5 34 2 40 26 15 56 -14 16 -22 33 -19 38 3 6 2 7 -4 4 -6 -4 -22
16 -37 43 -23 43 -25 49 -9 44 16 -5 16 -4 -1 10 -19 16 -24 29 -29 73 -1 12
-4 19 -6 17 -2 -2 -10 1 -17 7 -8 7 -14 7 -19 -1 -3 -5 -11 -10 -16 -10 -6 0
-7 5 -3 12 4 7 3 8 -4 4 -9 -5 -9 -13 -1 -28 6 -11 7 -18 1 -14 -5 3 -15 -21
-22 -54 -7 -33 -17 -60 -22 -60 -5 0 -7 -4 -3 -9 3 -5 1 -12 -4 -15 -5 -3 -11
1 -15 9 -3 8 -11 15 -18 15 -9 0 -10 -2 -1 -8 11 -7 16 -26 14 -50 -1 -15 -21
-6 -21 9 0 6 4 7 10 4 6 -4 7 1 3 11 -5 15 -7 15 -15 0 -5 -9 -5 -23 1 -35 9
-16 8 -19 -7 -16 -11 1 -16 10 -15 24 2 12 -1 20 -6 17 -11 -7 -23 22 -14 37
4 7 0 8 -11 4 -9 -4 -15 -3 -12 1 3 5 -2 34 -10 66 -8 31 -12 62 -8 68 5 7 3
8 -6 3 -9 -6 -12 -4 -8 6 4 11 -2 16 -22 17 -18 1 -30 -4 -34 -14z m161 -336
c-3 -7 -5 -2 -5 12 0 14 2 19 5 13 2 -7 2 -19 0 -25z m2 -132 c1 -63 -3 -117
-7 -120 -5 -3 -9 48 -9 114 0 66 4 120 8 120 3 0 7 -51 8 -114z m1 -151 c0 -8
-4 -15 -10 -15 -5 0 -7 7 -4 15 4 8 8 15 10 15 2 0 4 -7 4 -15z m5 -83 c-3 -8
-5 -41 -5 -74 0 -56 -1 -59 -17 -42 -12 11 -14 19 -6 21 6 2 9 12 8 21 -2 9
-6 38 -9 64 -5 46 -5 47 14 35 11 -6 18 -18 15 -25z m-5 -182 c0 -13 -1 -13
-10 0 -5 8 -10 22 -10 30 0 13 1 13 10 0 5 -8 10 -22 10 -30z m-1 -105 c-1
-33 1 -70 5 -81 4 -15 2 -23 -8 -27 -12 -5 -15 10 -18 81 -4 97 0 122 13 100
5 -7 8 -40 8 -73z m-5 -141 c9 -3 16 -12 16 -20 0 -17 -12 -18 -28 -2 -22 22
-16 33 12 22z m262 -34 c19 0 18 -16 -2 -24 -24 -9 -42 -6 -19 4 11 5 14 9 8
9 -7 1 -13 9 -12 19 0 10 3 12 6 5 2 -7 11 -13 19 -13z m-251 -30 c3 -6 -1 -7
-9 -4 -18 7 -21 14 -7 14 6 0 13 -4 16 -10z m-127 -210 c10 -17 10 -20 -3 -20
-8 0 -15 2 -15 4 0 2 -3 11 -6 20 -9 23 9 20 24 -4z"/>
<path d="M1751 2191 c-7 -5 -9 -11 -5 -14 5 -3 15 1 22 9 14 16 5 18 -17 5z"/>
<path d="M2578 2193 c7 -3 16 -2 19 1 4 3 -2 6 -13 5 -11 0 -14 -3 -6 -6z"/>
<path d="M2817 2163 c3 -7 9 -13 13 -13 5 0 43 -20 84 -45 84 -49 86 -50 86
-33 0 6 -3 8 -6 5 -4 -3 -15 4 -25 17 -10 13 -34 27 -54 30 -19 4 -35 12 -35
19 0 7 -15 17 -34 23 -27 8 -33 8 -29 -3z"/>
<path d="M1380 2156 c0 -9 5 -16 10 -16 6 0 10 4 10 9 0 6 -4 13 -10 16 -5 3
-10 -1 -10 -9z"/>
<path d="M2520 2140 c0 -5 5 -10 10 -10 6 0 10 5 10 10 0 6 -4 10 -10 10 -5 0
-10 -4 -10 -10z"/>
<path d="M2376 2131 c-3 -4 13 -14 34 -21 22 -7 45 -19 51 -27 6 -7 19 -13 28
-13 9 0 -6 13 -33 29 -30 18 -43 31 -35 34 8 3 2 6 -13 6 -15 1 -29 -3 -32 -8z"/>
<path d="M1748 2113 c7 -3 16 -2 19 1 4 3 -2 6 -13 5 -11 0 -14 -3 -6 -6z"/>
<path d="M2188 2113 c7 -3 16 -2 19 1 4 3 -2 6 -13 5 -11 0 -14 -3 -6 -6z"/>
<path d="M2568 2113 c6 -2 18 -2 25 0 6 3 1 5 -13 5 -14 0 -19 -2 -12 -5z"/>
<path d="M2625 2110 c-3 -5 -1 -10 4 -10 6 0 11 5 11 10 0 6 -2 10 -4 10 -3 0
-8 -4 -11 -10z"/>
<path d="M2596 2092 c-3 -4 8 -13 25 -19 16 -6 27 -7 24 -2 -10 15 -43 30 -49
21z"/>
<path d="M1550 2081 c0 -6 4 -13 10 -16 6 -3 7 1 4 9 -7 18 -14 21 -14 7z"/>
<path d="M2560 2070 c0 -11 2 -20 4 -20 2 0 11 -3 20 -6 9 -3 16 -1 16 5 0 6
-7 11 -16 11 -10 0 -14 6 -10 15 3 8 1 15 -4 15 -6 0 -10 -9 -10 -20z"/>
<path d="M1005 2060 c3 -5 8 -10 11 -10 2 0 4 5 4 10 0 6 -5 10 -11 10 -5 0
-7 -4 -4 -10z"/>
<path d="M2666 2056 c3 -8 13 -17 22 -21 13 -5 13 -2 -3 15 -21 24 -26 25 -19
6z"/>
<path d="M2905 2060 c3 -5 8 -10 11 -10 2 0 4 5 4 10 0 6 -5 10 -11 10 -5 0
-7 -4 -4 -10z"/>
<path d="M571 2044 c0 -11 3 -14 6 -6 3 7 2 16 -1 19 -3 4 -6 -2 -5 -13z"/>
<path d="M1030 2041 c0 -7 -4 -9 -10 -6 -5 3 -10 2 -10 -4 0 -5 4 -12 9 -15
10 -6 25 24 16 32 -3 3 -5 0 -5 -7z"/>
<path d="M2379 2042 c12 -8 11 -11 -3 -13 -15 -4 -15 -5 2 -15 16 -10 18 -9
17 9 -1 11 -8 23 -16 25 -12 3 -12 2 0 -6z"/>
<path d="M1740 2036 c0 -2 7 -6 15 -10 8 -3 15 -1 15 4 0 6 -7 10 -15 10 -8 0
-15 -2 -15 -4z"/>
<path d="M1847 2027 c3 -6 -3 -17 -13 -25 -10 -8 -13 -12 -5 -10 8 2 20 13 28
24 11 18 11 21 -1 21 -9 0 -12 -5 -9 -10z"/>
<path d="M2560 2028 c0 -5 4 -8 9 -8 5 0 17 -7 25 -15 13 -14 19 -14 42 -2 21
11 24 16 13 23 -18 11 -89 12 -89 2z"/>
<path d="M1650 2020 c-8 -5 -10 -10 -5 -10 6 0 17 5 25 10 8 5 11 10 5 10 -5
0 -17 -5 -25 -10z"/>
<path d="M2745 2010 c3 -5 13 -10 21 -10 8 0 12 5 9 10 -3 6 -13 10 -21 10 -8
0 -12 -4 -9 -10z"/>
<path d="M2825 1960 c3 -5 11 -10 16 -10 6 0 7 5 4 10 -3 6 -11 10 -16 10 -6
0 -7 -4 -4 -10z"/>
<path d="M2871 1944 c0 -11 3 -14 6 -6 3 7 2 16 -1 19 -3 4 -6 -2 -5 -13z"/>
<path d="M606 1941 c-3 -4 1 -17 10 -27 14 -18 15 -18 5 2 -6 12 -7 24 -4 28
3 3 4 6 0 6 -3 0 -8 -4 -11 -9z"/>
<path d="M964 1930 c0 -13 4 -16 10 -10 7 7 7 13 0 20 -6 6 -10 3 -10 -10z"/>
<path d="M2724 1939 c-5 -8 1 -10 20 -7 14 3 34 -1 43 -9 16 -12 15 -13 -12
-8 l-30 6 25 -15 c14 -8 33 -13 44 -9 11 3 16 1 12 -5 -4 -6 3 -8 16 -5 17 3
19 2 9 -5 -11 -8 -9 -11 8 -17 11 -3 21 -11 21 -17 0 -7 5 -7 14 1 10 9 16 8
26 -4 10 -12 10 -15 -1 -15 -10 0 -10 -3 -2 -11 13 -13 63 -4 63 10 0 12 -79
43 -91 36 -5 -4 -9 -1 -9 4 0 6 5 11 12 11 7 0 -18 16 -55 35 -70 36 -101 43
-113 24z"/>
<path d="M500 1930 c-9 -6 -10 -10 -3 -10 6 0 15 5 18 10 8 12 4 12 -15 0z"/>
<path d="M2215 1929 c-4 -6 -5 -12 -2 -15 2 -3 7 2 10 11 7 17 1 20 -8 4z"/>
<path d="M2947 1929 c-9 -5 -22 -7 -27 -4 -6 3 -10 2 -10 -3 0 -6 7 -12 15
-16 8 -3 15 -2 15 3 0 4 10 13 23 19 12 6 18 11 12 11 -5 0 -18 -4 -28 -10z"/>
<path d="M2476 1894 c-5 -14 -4 -15 9 -4 17 14 19 20 6 20 -5 0 -12 -7 -15
-16z"/>
<path d="M2543 1890 c-13 -5 -23 -12 -23 -15 0 -9 16 -5 36 10 22 16 19 18
-13 5z"/>
<path d="M2700 1866 c0 -2 7 -6 15 -10 8 -3 15 -1 15 4 0 6 -7 10 -15 10 -8 0
-15 -2 -15 -4z"/>
<path d="M2658 1773 c7 -3 16 -2 19 1 4 3 -2 6 -13 5 -11 0 -14 -3 -6 -6z"/>
<path d="M1835 1760 c3 -5 8 -10 11 -10 2 0 4 5 4 10 0 6 -5 10 -11 10 -5 0
-7 -4 -4 -10z"/>
<path d="M1876 1751 c-12 -5 -15 -10 -9 -14 6 -4 16 0 23 8 14 17 13 17 -14 6z"/>
<path d="M191 1730 c-13 -11 -17 -20 -10 -19 23 1 44 13 47 27 3 17 -9 15 -37
-8z"/>
<path d="M401 1732 c-1 -10 -10 -12 -30 -7 -16 3 -32 2 -35 -3 -8 -14 13 -20
58 -16 38 3 64 14 34 14 -9 0 -19 6 -21 13 -4 9 -6 9 -6 -1z"/>
<path d="M1986 1707 c3 -10 9 -15 12 -12 3 3 0 11 -7 18 -10 9 -11 8 -5 -6z"/>
<path d="M2668 1713 c6 -2 18 -2 25 0 6 3 1 5 -13 5 -14 0 -19 -2 -12 -5z"/>
<path d="M2818 1706 c-28 -21 -21 -26 12 -10 17 9 30 17 30 20 0 9 -26 3 -42
-10z"/>
<path d="M71 1703 c-1 -17 16 -25 25 -12 4 7 3 9 -4 5 -5 -3 -13 0 -15 6 -4 9
-6 10 -6 1z"/>
<path d="M287 1696 c-4 -9 3 -16 16 -20 43 -11 53 -6 27 14 -30 23 -36 24 -43
6z"/>
<path d="M2221 1684 c0 -11 3 -14 6 -6 3 7 2 16 -1 19 -3 4 -6 -2 -5 -13z"/>
<path d="M180 1680 c0 -5 7 -7 15 -4 8 4 15 8 15 10 0 2 -7 4 -15 4 -8 0 -15
-4 -15 -10z"/>
<path d="M22 1660 c-24 -22 -27 -30 -14 -30 11 0 52 35 52 44 0 12 -16 6 -38
-14z"/>
<path d="M220 1669 c0 -6 6 -9 14 -6 8 3 16 2 18 -2 2 -5 14 -11 28 -15 l25
-7 -24 20 c-25 23 -61 28 -61 10z"/>
<path d="M2715 1660 c-21 -14 -25 -20 -12 -20 9 0 17 5 17 10 0 6 6 10 14 10
8 0 18 5 21 10 10 16 -7 12 -40 -10z"/>
<path d="M135 1650 c10 -11 20 -18 23 -16 5 6 -23 36 -34 36 -4 0 1 -9 11 -20z"/>
<path d="M1580 1656 c0 -2 7 -7 16 -10 8 -3 12 -2 9 4 -6 10 -25 14 -25 6z"/>
<path d="M362 1635 c-18 -6 -29 -15 -25 -19 4 -4 -6 -5 -22 -2 -28 6 -28 5 -5
-4 19 -8 37 -6 74 9 34 13 43 19 30 22 -11 3 -34 0 -52 -6z"/>
<path d="M2305 1639 c-4 -6 -5 -12 -2 -15 2 -3 7 2 10 11 7 17 1 20 -8 4z"/>
<path d="M170 1630 c0 -5 5 -10 10 -10 6 0 10 5 10 10 0 6 -4 10 -10 10 -5 0
-10 -4 -10 -10z"/>
<path d="M2636 1629 c4 -7 44 0 44 7 0 2 -11 3 -24 2 -14 -1 -23 -5 -20 -9z"/>
<path d="M2795 1629 c-4 -6 -4 -13 -1 -16 3 -4 6 -1 6 5 0 6 8 13 18 15 15 4
15 5 0 6 -9 0 -20 -4 -23 -10z"/>
<path d="M2750 1610 c0 -5 7 -7 15 -4 8 4 15 8 15 10 0 2 -7 4 -15 4 -8 0 -15
-4 -15 -10z"/>
<path d="M1931 1605 c1 -19 18 -51 18 -35 0 8 -4 22 -9 30 -5 8 -9 11 -9 5z"/>
<path d="M2705 1600 c-3 -5 -1 -10 4 -10 6 0 11 5 11 10 0 6 -2 10 -4 10 -3 0
-8 -4 -11 -10z"/>
<path d="M93 1593 c-25 -9 -13 -23 15 -17 37 9 52 24 22 23 -14 0 -31 -3 -37
-6z"/>
<path d="M1080 1590 c-12 -8 -10 -10 8 -10 13 0 20 4 17 10 -7 12 -6 12 -25 0z"/>
<path d="M2292 1580 c0 -14 2 -19 5 -12 2 6 2 18 0 25 -3 6 -5 1 -5 -13z"/>
<path d="M2568 1593 c7 -3 16 -2 19 1 4 3 -2 6 -13 5 -11 0 -14 -3 -6 -6z"/>
<path d="M370 1580 c20 -13 43 -13 35 0 -3 6 -16 10 -28 10 -18 0 -19 -2 -7
-10z"/>
<path d="M10 1565 c7 -8 21 -15 32 -15 17 0 18 3 8 15 -7 8 -21 15 -32 15 -17
0 -18 -3 -8 -15z"/>
<path d="M210 1550 c0 -35 -23 -50 -65 -43 -17 3 -27 2 -23 -2 4 -5 3 -14 -3
-22 -9 -10 -7 -13 9 -13 11 0 35 -3 53 -7 30 -5 32 -4 22 9 -14 17 -8 28 16
28 12 0 16 11 17 40 0 27 -4 40 -13 40 -8 0 -13 -12 -13 -30z"/>
<path d="M1274 1564 c3 -21 13 -27 30 -17 12 7 11 10 -9 19 -18 9 -22 8 -21
-2z"/>
<path d="M2625 1560 c-13 -6 -15 -9 -5 -9 8 0 22 4 30 9 18 12 2 12 -25 0z"/>
<path d="M2770 1560 c-9 -6 -10 -10 -3 -10 6 0 15 5 18 10 8 12 4 12 -15 0z"/>
<path d="M305 1550 c4 -6 11 -8 16 -5 14 9 11 15 -7 15 -8 0 -12 -5 -9 -10z"/>
<path d="M406 1551 c-4 -5 3 -7 14 -4 23 6 26 13 6 13 -8 0 -17 -4 -20 -9z"/>
<path d="M450 1539 c-21 -6 -22 -7 -4 -8 11 -1 25 -6 31 -12 8 -8 13 -7 18 2
5 7 4 10 -3 5 -6 -3 -12 0 -14 7 -2 9 -11 11 -28 6z"/>
<path d="M2740 1540 c0 -5 5 -10 11 -10 5 0 7 5 4 10 -3 6 -8 10 -11 10 -2 0
-4 -4 -4 -10z"/>
<path d="M2872 1534 c-10 -12 -10 -14 2 -14 17 0 30 16 19 23 -5 3 -14 -1 -21
-9z"/>
<path d="M1727 1533 c-4 -3 -7 -16 -6 -27 0 -19 1 -19 10 3 10 24 8 36 -4 24z"/>
<path d="M1106 1521 c-6 -10 16 -21 42 -21 13 0 12 3 -4 15 -22 17 -31 18 -38
6z"/>
<path d="M2825 1510 c-3 -6 1 -7 9 -4 18 7 21 14 7 14 -6 0 -13 -4 -16 -10z"/>
<path d="M2666 1498 c3 -5 10 -6 15 -3 13 9 11 12 -6 12 -8 0 -12 -4 -9 -9z"/>
<path d="M520 1492 c0 -4 9 -8 20 -9 11 -1 20 2 20 8 0 5 -9 9 -20 9 -11 0
-20 -4 -20 -8z"/>
<path d="M1255 1490 c-3 -5 -1 -10 4 -10 6 0 11 5 11 10 0 6 -2 10 -4 10 -3 0
-8 -4 -11 -10z"/>
<path d="M7 1483 c-14 -13 -6 -29 22 -46 18 -10 32 -13 36 -8 3 6 -7 17 -22
25 -20 11 -23 15 -10 16 9 0 17 5 17 10 0 11 -33 14 -43 3z"/>
<path d="M1225 1480 c-3 -5 -1 -10 4 -10 6 0 11 5 11 10 0 6 -2 10 -4 10 -3 0
-8 -4 -11 -10z"/>
<path d="M1680 1474 c0 -8 9 -14 20 -14 11 0 20 4 20 9 0 5 -9 11 -20 14 -13
3 -20 0 -20 -9z"/>
<path d="M2755 1480 c-13 -5 -14 -9 -5 -9 8 0 24 4 35 9 13 5 14 9 5 9 -8 0
-24 -4 -35 -9z"/>
<path d="M438 1473 c6 -2 18 -2 25 0 6 3 1 5 -13 5 -14 0 -19 -2 -12 -5z"/>
<path d="M1092 1469 c3 -8 22 -15 49 -17 25 -2 47 -10 52 -18 4 -8 13 -14 18
-14 6 0 23 -8 37 -18 15 -11 37 -22 50 -25 35 -8 12 13 -45 43 -26 14 -50 28
-53 31 -3 4 -23 9 -46 11 -23 3 -47 9 -54 13 -8 5 -11 3 -8 -6z"/>
<path d="M2278 1473 c7 -3 16 -2 19 1 4 3 -2 6 -13 5 -11 0 -14 -3 -6 -6z"/>
<path d="M2716 1463 c-6 -14 -5 -15 5 -6 7 7 10 15 7 18 -3 3 -9 -2 -12 -12z"/>
<path d="M480 1460 c0 -6 7 -10 15 -10 8 0 15 2 15 4 0 2 -7 6 -15 10 -8 3
-15 1 -15 -4z"/>
<path d="M1760 1450 c0 -5 17 -10 38 -9 33 1 34 2 12 9 -36 11 -50 11 -50 0z"/>
<path d="M2835 1450 c-8 -13 5 -13 25 0 13 8 13 10 -2 10 -9 0 -20 -4 -23 -10z"/>
<path d="M2785 1430 c-19 -8 -19 -9 2 -9 12 -1 25 4 28 9 7 12 -2 12 -30 0z"/>
<path d="M1660 1415 c-24 -14 -24 -14 20 -13 25 0 37 2 27 5 -9 2 -15 9 -12
14 9 13 -6 11 -35 -6z"/>
<path d="M1945 1410 c-11 -5 -32 -11 -47 -14 -29 -7 -39 -26 -13 -26 8 0 15 5
15 12 0 6 3 9 6 5 8 -8 64 13 64 24 0 10 1 10 -25 -1z"/>
<path d="M7 1403 c7 -2 19 -2 26 0 6 3 1 5 -13 5 -14 0 -19 -2 -13 -5z"/>
<path d="M2716 1401 c-3 -4 6 -6 19 -3 14 2 25 6 25 8 0 8 -39 4 -44 -5z"/>
<path d="M2880 1400 c0 -5 5 -10 11 -10 5 0 7 5 4 10 -3 6 -8 10 -11 10 -2 0
-4 -4 -4 -10z"/>
<path d="M2548 1393 c7 -3 16 -2 19 1 4 3 -2 6 -13 5 -11 0 -14 -3 -6 -6z"/>
<path d="M1760 1379 c0 -5 5 -7 10 -4 6 3 10 8 10 11 0 2 -4 4 -10 4 -5 0 -10
-5 -10 -11z"/>
<path d="M1572 1350 c0 -19 2 -27 5 -17 2 9 2 25 0 35 -3 9 -5 1 -5 -18z"/>
<path d="M1824 1355 c-10 -8 -14 -14 -9 -14 6 0 19 6 29 14 11 8 15 15 10 15
-6 0 -19 -7 -30 -15z"/>
<path d="M1290 1350 c19 -13 30 -13 30 0 0 6 -10 10 -22 10 -19 0 -20 -2 -8
-10z"/>
<path d="M1250 1321 c-29 -8 -42 -51 -15 -51 9 0 19 9 22 21 3 11 9 17 12 12
3 -5 14 -1 24 9 16 17 16 18 0 17 -10 -1 -29 -4 -43 -8z"/>
<path d="M1671 1301 c-8 -5 -9 -11 -3 -15 5 -3 12 1 16 9 6 17 6 18 -13 6z"/>
<path d="M2805 1300 c-3 -5 1 -10 10 -10 9 0 13 5 10 10 -3 6 -8 10 -10 10 -2
0 -7 -4 -10 -10z"/>
<path d="M1931 1284 c0 -11 3 -14 6 -6 3 7 2 16 -1 19 -3 4 -6 -2 -5 -13z"/>
<path d="M2706 1255 c-3 -8 -1 -15 4 -15 6 0 10 7 10 15 0 8 -2 15 -4 15 -2 0
-6 -7 -10 -15z"/>
<path d="M2950 1251 c-13 -13 -12 -14 5 -7 11 5 26 9 33 9 6 0 12 4 12 8 0 13
-36 6 -50 -10z"/>
<path d="M76 1226 c3 -8 13 -17 22 -21 13 -5 13 -2 -3 15 -21 24 -26 25 -19 6z"/>
<path d="M178 1212 c-55 -24 -81 -50 -38 -39 10 3 20 1 22 -5 5 -14 70 -26 93
-17 17 6 10 11 -11 8 -4 0 -11 5 -16 13 -7 9 -11 10 -14 2 -6 -15 -46 -5 -41
10 2 6 16 11 30 11 18 -1 27 5 28 15 0 10 3 9 9 -5 8 -19 9 -19 9 2 1 32 -8
33 -71 5z"/>
<path d="M275 1232 c-5 -4 -11 -15 -11 -24 -1 -13 6 -18 23 -18 13 0 33 -5 44
-11 12 -6 28 -8 37 -4 13 5 7 10 -21 20 -21 7 -44 20 -50 29 -7 9 -16 12 -22
8z"/>
<path d="M1841 1233 c-1 -7 -10 -13 -21 -13 -11 0 -20 -5 -20 -11 0 -6 9 -8
23 -3 29 8 30 10 24 26 -4 10 -6 10 -6 1z"/>
<path d="M2630 1223 c0 -10 4 -14 8 -8 4 6 11 13 16 18 5 4 2 7 -7 7 -10 0
-17 -8 -17 -17z"/>
<path d="M2842 1227 c-12 -7 -20 -16 -16 -20 4 -3 16 -1 28 5 11 6 35 15 51
19 l30 7 -35 1 c-19 0 -45 -5 -58 -12z"/>
<path d="M0 1200 c0 -5 21 -21 48 -36 60 -35 83 -54 76 -65 -3 -5 0 -9 5 -9
19 0 12 35 -10 50 -12 8 -27 20 -33 26 -13 12 -71 44 -81 44 -3 0 -5 -4 -5
-10z"/>
<path d="M1613 1203 c-13 -2 -23 -9 -23 -15 0 -6 10 -8 23 -4 12 3 25 6 30 6
4 0 7 5 7 10 0 6 -3 9 -7 9 -5 -1 -18 -4 -30 -6z"/>
<path d="M1120 1165 c36 -19 72 -39 80 -45 8 -5 26 -15 40 -21 14 -6 33 -18
43 -26 9 -9 20 -13 23 -10 10 10 -16 37 -50 52 -17 8 -59 30 -94 49 -35 20
-73 36 -85 36 -14 0 1 -12 43 -35z"/>
<path d="M2713 1170 c-35 -16 -63 -27 -63 -24 0 2 -15 -3 -32 -12 -20 -11 -28
-19 -20 -22 8 -2 19 1 25 7 6 6 23 11 39 11 15 0 31 6 35 14 4 7 34 21 66 30
31 9 57 19 57 21 0 13 -52 1 -107 -25z"/>
<path d="M304 1172 c4 -7 2 -12 -3 -12 -6 0 -10 -6 -8 -12 1 -7 -8 -14 -21
-16 -13 -2 -21 -9 -19 -15 4 -13 39 -10 47 3 3 5 18 12 33 15 40 10 48 30 8
22 -18 -4 -30 -3 -26 2 3 5 0 13 -6 17 -8 4 -9 3 -5 -4z"/>
<path d="M1840 1173 c0 -4 -15 -14 -32 -21 -18 -8 -43 -18 -55 -23 -26 -10
-31 -29 -8 -29 8 0 15 5 15 10 0 6 6 10 13 10 22 0 90 47 78 54 -6 4 -11 4
-11 -1z"/>
<path d="M1925 1170 c-3 -5 -1 -10 4 -10 6 0 11 5 11 10 0 6 -2 10 -4 10 -3 0
-8 -4 -11 -10z"/>
<path d="M1856 1111 c-17 -6 -17 -8 -3 -14 8 -3 21 1 27 9 13 15 6 17 -24 5z"/>
<path d="M2560 1112 c0 -6 -11 -13 -25 -16 -27 -7 -34 -26 -10 -26 8 0 15 5
15 10 0 6 9 10 20 10 21 0 27 15 10 25 -5 3 -10 2 -10 -3z"/>
<path d="M305 1080 c3 -5 8 -10 11 -10 2 0 4 5 4 10 0 6 -5 10 -11 10 -5 0 -7
-4 -4 -10z"/>
<path d="M2257 1069 c4 -13 8 -18 11 -10 2 7 -1 18 -6 23 -8 8 -9 4 -5 -13z"/>
<path d="M360 1059 c0 -5 5 -7 10 -4 6 3 10 8 10 11 0 2 -4 4 -10 4 -5 0 -10
-5 -10 -11z"/>
<path d="M1197 1054 c6 -15 23 -19 23 -5 0 5 -7 11 -14 14 -10 4 -13 1 -9 -9z"/>
<path d="M390 1041 c0 -5 5 -13 10 -16 6 -3 10 -2 10 4 0 5 -4 13 -10 16 -5 3
-10 2 -10 -4z"/>
<path d="M1279 1033 c-13 -15 -12 -15 7 -5 12 6 24 8 28 5 3 -3 6 -1 6 5 0 18
-25 14 -41 -5z"/>
<path d="M1235 1020 c-3 -5 -1 -10 4 -10 6 0 11 5 11 10 0 6 -2 10 -4 10 -3 0
-8 -4 -11 -10z"/>
<path d="M448 1003 c7 -3 16 -2 19 1 4 3 -2 6 -13 5 -11 0 -14 -3 -6 -6z"/>
<path d="M480 995 c0 -10 3 -15 7 -12 3 4 15 0 25 -10 17 -15 18 -15 18 2 0
10 -3 15 -7 12 -3 -4 -15 0 -25 10 -17 15 -18 15 -18 -2z"/>
<path d="M1284 988 c-5 -7 -3 -8 6 -3 10 6 12 3 7 -14 -4 -18 -3 -20 9 -10 11
9 12 15 3 25 -14 17 -16 17 -25 2z"/>
<path d="M1845 970 c-16 -31 -16 -31 4 -21 27 15 35 31 23 43 -7 7 -15 0 -27
-22z"/>
<path d="M2375 990 c3 -5 8 -10 11 -10 2 0 4 5 4 10 0 6 -5 10 -11 10 -5 0 -7
-4 -4 -10z"/>
<path d="M626 976 c6 -15 4 -17 -6 -11 -9 6 -11 4 -5 -4 5 -9 10 -10 18 -2 8
8 7 14 -2 24 -10 10 -11 8 -5 -7z"/>
<path d="M857 937 c-3 -8 1 -14 8 -14 7 0 11 6 8 14 -3 7 -6 13 -8 13 -2 0 -5
-6 -8 -13z"/>
<path d="M270 915 c7 -8 30 -25 51 -37 22 -12 39 -25 39 -30 0 -4 5 -8 10 -8
21 0 10 38 -13 44 -13 3 -34 15 -47 26 -28 24 -59 28 -40 5z"/>
<path d="M968 923 c7 -3 16 -2 19 1 4 3 -2 6 -13 5 -11 0 -14 -3 -6 -6z"/>
<path d="M1230 923 c-8 -3 -22 -11 -30 -18 -8 -6 -33 -17 -55 -23 -54 -16
-108 -50 -99 -63 4 -8 9 -8 17 0 6 6 18 11 26 11 27 0 136 58 149 79 7 12 11
21 10 20 -2 0 -10 -3 -18 -6z"/>
<path d="M2006 912 c-3 -5 1 -9 9 -9 8 0 12 4 9 9 -3 4 -7 8 -9 8 -2 0 -6 -4
-9 -8z"/>
<path d="M54 895 c23 -17 50 -20 41 -5 -4 6 -10 8 -15 5 -5 -3 -11 -1 -15 5
-3 5 -12 10 -18 10 -7 0 -3 -7 7 -15z"/>
<path d="M953 895 c0 -8 4 -12 9 -9 5 3 6 10 3 15 -9 13 -12 11 -12 -6z"/>
<path d="M2205 879 c10 -10 22 -16 27 -13 12 8 -6 27 -28 30 -14 2 -14 0 1
-17z"/>
<path d="M175 880 c-3 -5 -17 -10 -31 -10 -23 0 -24 -3 -22 -57 1 -46 2 -50 5
-19 4 39 33 85 33 52 0 -9 6 -16 14 -16 8 0 17 -6 19 -12 4 -10 8 -10 15 1 8
12 13 12 25 2 9 -7 18 -8 21 -3 9 15 -5 22 -45 22 -30 0 -37 3 -33 15 4 8 17
15 30 15 13 0 24 5 24 10 0 6 -11 10 -24 10 -14 0 -28 -4 -31 -10z"/>
<path d="M240 880 c0 -5 5 -10 10 -10 6 0 10 5 10 10 0 6 -4 10 -10 10 -5 0
-10 -4 -10 -10z"/>
<path d="M0 871 c0 -11 86 -71 101 -71 28 0 -1 32 -58 63 -35 19 -43 21 -43 8z"/>
<path d="M1236 863 c-6 -14 -5 -15 5 -6 7 7 10 15 7 18 -3 3 -9 -2 -12 -12z"/>
<path d="M1755 869 c-4 -6 -5 -12 -2 -15 7 -7 37 7 37 17 0 13 -27 11 -35 -2z"/>
<path d="M270 862 c0 -14 48 -33 55 -22 4 6 -1 10 -9 10 -9 0 -16 5 -16 10 0
6 -7 10 -15 10 -8 0 -15 -4 -15 -8z"/>
<path d="M1841 841 c-8 -5 -9 -11 -3 -15 5 -3 12 1 16 9 6 17 6 18 -13 6z"/>
<path d="M355 829 c-16 -5 -41 -7 -55 -5 -14 3 -19 3 -12 0 21 -10 13 -21 -20
-29 -30 -7 -31 -8 -9 -12 13 -3 33 0 45 5 81 38 77 39 185 -27 55 -34 108 -61
116 -61 10 0 13 -5 9 -11 -4 -7 -1 -10 7 -7 7 2 22 -4 33 -14 11 -10 28 -18
38 -18 10 0 18 -3 18 -7 0 -5 13 -17 27 -27 l27 -20 -17 24 c-9 14 -17 32 -17
41 0 9 -7 19 -15 23 -8 3 -15 1 -15 -4 0 -21 -30 -9 -31 13 0 19 -1 20 -8 4
-6 -17 -8 -17 -25 1 -9 11 -31 26 -47 33 -17 6 -28 17 -25 24 3 9 -2 11 -15 8
-11 -3 -27 1 -37 9 -9 9 -34 23 -54 33 -21 9 -38 21 -38 26 0 11 -25 10 -65
-2z"/>
<path d="M0 810 c0 -5 5 -10 11 -10 5 0 7 5 4 10 -3 6 -8 10 -11 10 -2 0 -4
-4 -4 -10z"/>
<path d="M540 800 c0 -11 5 -20 10 -20 6 0 10 9 10 20 0 11 -4 20 -10 20 -5 0
-10 -9 -10 -20z"/>
<path d="M570 809 c0 -5 5 -7 10 -4 6 3 10 8 10 11 0 2 -4 4 -10 4 -5 0 -10
-5 -10 -11z"/>
<path d="M1790 810 c0 -5 5 -10 10 -10 6 0 10 5 10 10 0 6 -4 10 -10 10 -5 0
-10 -4 -10 -10z"/>
<path d="M2163 798 c1 -15 6 -23 11 -18 4 4 4 16 -2 26 -9 16 -10 14 -9 -8z"/>
<path d="M800 805 c0 -5 5 -17 10 -25 5 -8 10 -10 10 -5 0 6 -5 17 -10 25 -5
8 -10 11 -10 5z"/>
<path d="M30 786 c0 -9 -8 -16 -17 -17 -13 0 -11 -3 6 -10 13 -5 26 -7 29 -4
3 3 0 5 -7 5 -7 0 -9 4 -6 10 4 6 17 4 36 -6 46 -23 45 -11 -1 15 -33 19 -40
20 -40 7z"/>
<path d="M1287 781 c-3 -13 -1 -18 9 -14 7 2 10 11 7 19 -7 19 -10 18 -16 -5z"/>
<path d="M1740 789 c0 -5 5 -7 10 -4 6 3 10 8 10 11 0 2 -4 4 -10 4 -5 0 -10
-5 -10 -11z"/>
<path d="M587 776 c-6 -15 1 -26 15 -26 4 0 8 9 8 20 0 23 -15 27 -23 6z"/>
<path d="M1860 772 c0 -4 9 -8 19 -8 11 0 17 4 15 8 -7 10 -34 10 -34 0z"/>
<path d="M308 753 c6 -2 18 -2 25 0 6 3 1 5 -13 5 -14 0 -19 -2 -12 -5z"/>
<path d="M766 748 c3 -5 10 -6 15 -3 13 9 11 12 -6 12 -8 0 -12 -4 -9 -9z"/>
<path d="M249 727 c6 -8 8 -16 5 -19 -3 -3 11 -9 32 -12 20 -4 34 -10 30 -13
-3 -3 9 -13 27 -22 18 -10 67 -36 110 -59 89 -49 107 -52 107 -18 0 19 8 26
45 36 25 7 45 17 45 21 0 13 -19 11 -67 -7 -29 -12 -43 -23 -43 -35 0 -22 -13
-25 -28 -6 -6 6 -41 28 -79 47 -37 19 -83 45 -102 57 -19 13 -42 23 -52 23
-11 0 -19 5 -19 10 0 6 -5 10 -11 10 -8 0 -9 -4 0 -13z"/>
<path d="M340 731 c0 -5 12 -12 27 -16 15 -3 31 -12 35 -18 6 -9 8 -9 8 0 0 7
-13 19 -30 28 -34 17 -40 18 -40 6z"/>
<path d="M1235 730 c-3 -5 -1 -10 4 -10 6 0 11 5 11 10 0 6 -2 10 -4 10 -3 0
-8 -4 -11 -10z"/>
<path d="M2061 724 c0 -11 3 -14 6 -6 3 7 2 16 -1 19 -3 4 -6 -2 -5 -13z"/>
<path d="M1296 715 c-3 -8 -1 -15 4 -15 6 0 10 7 10 15 0 8 -2 15 -4 15 -2 0
-6 -7 -10 -15z"/>
<path d="M1190 703 c-8 -3 -18 -11 -22 -16 -3 -6 -19 -12 -34 -14 -15 -2 -46
-15 -69 -29 -23 -13 -48 -24 -57 -24 -8 0 -32 -9 -54 -19 -66 -32 -90 -35
-111 -14 -36 34 -61 44 -67 28 -3 -9 1 -15 9 -15 8 0 15 -4 15 -8 0 -5 12 -15
28 -23 15 -8 32 -21 39 -29 8 -9 12 -11 13 -3 0 6 24 19 53 29 28 9 54 20 57
23 8 10 93 41 113 41 10 0 16 4 13 9 -4 5 8 13 26 16 37 8 88 35 88 47 0 9
-18 9 -40 1z"/>
<path d="M153 690 c2 -8 12 -16 23 -17 13 -2 15 -1 4 4 -8 3 -19 11 -23 17 -6
7 -7 6 -4 -4z"/>
<path d="M240 680 c0 -5 5 -10 10 -10 6 0 10 5 10 10 0 6 -4 10 -10 10 -5 0
-10 -4 -10 -10z"/>
<path d="M556 673 c-6 -14 -5 -15 5 -6 7 7 10 15 7 18 -3 3 -9 -2 -12 -12z"/>
<path d="M465 660 c22 -10 47 -19 55 -19 8 0 -3 9 -25 19 -22 10 -47 19 -55
19 -8 0 3 -9 25 -19z"/>
<path d="M260 657 c0 -2 16 -12 35 -21 19 -9 35 -21 35 -26 0 -5 -16 -2 -35 6
-19 8 -35 10 -35 5 0 -5 14 -12 30 -16 17 -4 30 -12 30 -18 0 -7 5 -5 10 5 8
12 17 14 38 9 26 -7 34 -25 12 -27 -31 -4 -33 -6 -15 -13 11 -5 25 -4 32 1 9
7 27 2 59 -16 56 -31 65 -33 36 -6 -12 11 -28 20 -36 20 -8 0 -27 11 -43 24
-15 13 -38 26 -50 30 -13 4 -29 14 -37 21 -14 14 -66 31 -66 22z"/>
<path d="M1293 643 c9 -9 20 -13 24 -9 4 4 1 11 -7 16 -25 16 -35 11 -17 -7z"/>
<path d="M231 641 c-8 -6 -9 -11 -3 -15 6 -3 14 -1 17 5 9 14 2 20 -14 10z"/>
<path d="M1200 640 c0 -5 -16 -13 -35 -19 -57 -15 -114 -45 -115 -58 0 -7 1
-13 3 -13 4 0 89 35 134 56 42 19 58 44 28 44 -8 0 -15 -4 -15 -10z"/>
<path d="M608 599 c-10 -5 -18 -19 -18 -30 0 -11 -6 -19 -12 -18 -28 3 -40 -2
-35 -15 4 -9 -1 -16 -11 -18 -13 -3 -12 -5 6 -10 15 -4 22 -2 22 8 0 8 10 14
25 14 20 0 25 5 25 25 0 14 6 25 13 25 7 0 22 7 33 15 18 14 18 14 -6 14 -14
0 -33 -4 -42 -10z"/>
<path d="M1185 566 c-22 -7 -49 -18 -60 -24 -11 -7 -32 -16 -47 -22 -21 -7
-28 -16 -28 -36 l0 -26 30 30 c20 20 44 32 73 36 25 4 53 16 62 27 24 26 18
29 -30 15z"/>
<path d="M640 551 c0 -11 -9 -21 -24 -25 -27 -7 -41 -42 -20 -50 10 -4 14 3
14 21 0 21 2 24 15 13 12 -10 15 -10 15 0 0 8 2 11 5 9 2 -3 1 -18 -3 -34 -7
-25 -4 -33 19 -52 29 -25 39 -28 39 -14 0 5 -9 12 -19 16 -16 5 -20 15 -20 60
0 30 1 55 3 55 9 0 81 -42 87 -51 5 -8 13 -7 30 5 13 9 33 17 44 17 16 1 17 2
3 6 -9 2 -26 -1 -38 -7 -16 -9 -28 -8 -50 2 -17 7 -30 17 -30 21 0 5 -4 5 -10
2 -5 -3 -10 1 -10 9 0 10 -9 16 -25 16 -18 0 -25 -5 -25 -19z"/>
<path d="M1000 550 c0 -5 -3 -9 -7 -9 -21 4 -74 -15 -89 -32 -16 -18 -16 -19
2 -19 11 0 25 5 31 11 6 6 17 12 24 13 53 9 76 19 76 31 0 8 -9 15 -19 15 -10
0 -18 -4 -18 -10z"/>
<path d="M1259 540 c-13 -10 -19 -19 -12 -20 6 0 18 6 25 13 7 8 19 12 26 9 6
-2 12 1 12 7 0 17 -26 13 -51 -9z"/>
<path d="M410 535 c0 -16 16 -20 24 -6 3 5 -1 11 -9 15 -9 3 -15 0 -15 -9z"/>
<path d="M450 516 c0 -2 7 -6 15 -10 8 -3 15 -1 15 4 0 6 -7 10 -15 10 -8 0
-15 -2 -15 -4z"/>
<path d="M860 500 c-70 -40 -103 -51 -119 -38 -28 23 -59 37 -65 31 -11 -11
-6 -20 12 -27 9 -3 30 -14 47 -24 25 -16 33 -17 55 -6 14 7 40 19 58 26 19 8
32 20 32 30 0 20 0 20 -20 8z"/>
<path d="M555 469 c-4 -6 -5 -12 -2 -15 2 -3 7 2 10 11 7 17 1 20 -8 4z"/>
<path d="M995 452 c-16 -8 -32 -19 -33 -24 -2 -4 -8 -6 -13 -3 -4 3 -19 -1
-32 -9 -12 -9 -33 -17 -45 -19 -37 -5 -36 -16 1 -14 19 1 41 7 48 13 30 23
111 54 122 47 7 -4 7 0 -2 10 -7 9 -14 17 -15 16 0 -1 -14 -8 -31 -17z"/>
<path d="M860 433 c-8 -4 -21 -13 -29 -21 -13 -13 -12 -14 9 -7 14 4 32 13 40
21 15 14 7 17 -20 7z"/>
<path d="M720 395 c7 -8 17 -15 22 -15 6 0 5 7 -2 15 -7 8 -17 15 -22 15 -6 0
-5 -7 2 -15z"/>
<path d="M780 395 c-8 -9 -8 -15 -2 -15 12 0 26 19 19 26 -2 2 -10 -2 -17 -11z"/>
<path d="M665 390 c3 -5 13 -10 21 -10 8 0 12 5 9 10 -3 6 -13 10 -21 10 -8 0
-12 -4 -9 -10z"/>
<path d="M668 363 c7 -3 16 -2 19 1 4 3 -2 6 -13 5 -11 0 -14 -3 -6 -6z"/>
<path d="M770 360 l-35 -7 35 -1 c19 0 44 3 55 8 20 9 20 9 0 8 -11 0 -36 -4
-55 -8z"/>
</g>
</svg>
