<svg xmlns="http://www.w3.org/2000/svg" width="100" height="100" viewBox="0 0 100 100"><g transform="translate(5.359 30.994)"><g transform="translate(0 0)"><path d="M725.875-30.623a4.282,4.282,0,0,1-3.274-1.195,4.764,4.764,0,0,1-1.125-3.4,5.217,5.217,0,0,1,.343-1.952,4.2,4.2,0,0,1,.941-1.449,3.931,3.931,0,0,1,1.424-.9,5.15,5.15,0,0,1,1.793-.3,5.737,5.737,0,0,1,1.017.083,6.662,6.662,0,0,1,.8.19,3.983,3.983,0,0,1,.573.223c.152.076.263.136.33.178l-.572,1.6a4.809,4.809,0,0,0-.947-.369,4.54,4.54,0,0,0-1.227-.152,2.721,2.721,0,0,0-.9.152,2.031,2.031,0,0,0-.776.49,2.44,2.44,0,0,0-.54.871,3.656,3.656,0,0,0-.2,1.3,4.64,4.64,0,0,0,.133,1.138,2.416,2.416,0,0,0,.432.909,2.062,2.062,0,0,0,.782.6,2.775,2.775,0,0,0,1.17.222,5.343,5.343,0,0,0,.776-.05,5.825,5.825,0,0,0,.61-.121,3.244,3.244,0,0,0,.47-.159c.135-.06.258-.115.369-.166l.547,1.589a4.629,4.629,0,0,1-1.182.458A6.9,6.9,0,0,1,725.875-30.623Z" transform="translate(-721.475 39.816)"/><path d="M764.574-32.156v1.7h-5.887v-8.812h1.984v7.108Z" transform="translate(-744.98 39.467)"/><path d="M794.812-30.274a4.434,4.434,0,0,1-1.6-.261,2.98,2.98,0,0,1-1.113-.725,2.9,2.9,0,0,1-.648-1.107,4.537,4.537,0,0,1-.21-1.417v-5.48h1.984v5.315a2.985,2.985,0,0,0,.121.909,1.668,1.668,0,0,0,.33.61,1.176,1.176,0,0,0,.509.337,2.01,2.01,0,0,0,.655.1,1.6,1.6,0,0,0,1.176-.445,2.077,2.077,0,0,0,.451-1.513v-5.315h1.984v5.48a4.476,4.476,0,0,1-.216,1.424,2.912,2.912,0,0,1-.661,1.112,2.962,2.962,0,0,1-1.132.718A4.683,4.683,0,0,1,794.812-30.274Z" transform="translate(-765.541 39.467)"/><path d="M832.735-30.512q-.725,0-1.443-.044a10.283,10.283,0,0,1-1.494-.21v-8.545a12.746,12.746,0,0,1,1.335-.172q.725-.057,1.348-.057a9.163,9.163,0,0,1,1.545.121,3.673,3.673,0,0,1,1.214.413,2.167,2.167,0,0,1,.795.769,2.248,2.248,0,0,1,.286,1.176,1.867,1.867,0,0,1-1.017,1.666,2.083,2.083,0,0,1,1.144.865,2.486,2.486,0,0,1,.305,1.234,2.369,2.369,0,0,1-1.011,2.085A5.3,5.3,0,0,1,832.735-30.512Zm-1-5.467h.966a2.7,2.7,0,0,0,1.31-.235.814.814,0,0,0,.394-.757.778.778,0,0,0-.407-.751,2.617,2.617,0,0,0-1.2-.216q-.254,0-.547.007t-.521.032Zm0,1.513v2.276q.216.026.47.038t.559.013a3.439,3.439,0,0,0,1.437-.255.944.944,0,0,0,.547-.941.922.922,0,0,0-.458-.871,2.681,2.681,0,0,0-1.31-.261Z" transform="translate(-789.896 39.642)"/></g></g><path d="M752.041-109.1v-6.131h5.335c2.017,0,3.722,1.347,3.722,2.943v10.664l5.525,4.861v-15.525c0-4.669-4.148-8.468-9.247-8.468h-10.86v6.795Z" transform="translate(-731.933 121.933)"/><path d="M721.51-113.529v8.456h-5.335c-2.018,0-3.722-1.348-3.722-2.943V-119.1l-5.525-4.861v15.942c0,4.67,4.149,8.468,9.248,8.468h10.86v-9.12Z" transform="translate(-706.927 123.958)"/><g transform="translate(37.388 1.181)"><path d="M820.787-103.048h-3.113c-2.017,0-3.722-1.348-3.722-2.943v-9.236h5.335A4.119,4.119,0,0,1,822.279-114l6.256,5.5v-3.783c0-4.669-4.148-8.468-9.248-8.468h-10.86v14.761c0,4.67,4.148,8.468,9.247,8.468h9.393Z" transform="translate(-808.427 120.752)"/></g><path d="M848.015-94.033v7.359l7.671,6.749v-7.359Z" transform="translate(-796.044 105.056)"/></svg>