<?xml version="1.0" standalone="no"?>
<!DOCTYPE svg PUBLIC "-//W3C//DTD SVG 20010904//EN"
 "http://www.w3.org/TR/2001/REC-SVG-20010904/DTD/svg10.dtd">
<svg version="1.0" xmlns="http://www.w3.org/2000/svg"
 width="284.000000pt" height="170.000000pt" viewBox="0 0 284.000000 170.000000"
 preserveAspectRatio="xMidYMid meet">

<g transform="translate(0.000000,170.000000) scale(0.100000,-0.100000)"
fill="#000000" stroke="none">
<path d="M0 850 l0 -850 1420 0 1420 0 0 850 0 850 -1420 0 -1420 0 0 -850z
m1135 96 l60 -109 3 112 3 111 30 0 29 0 -2 -162 -3 -163 -34 0 c-33 0 -35 3
-102 125 l-69 125 0 -127 0 -128 -25 0 -25 0 0 166 0 165 37 -3 c37 -3 39 -6
98 -112z m356 104 c10 -6 19 -20 19 -32 0 -17 -4 -19 -27 -13 -53 13 -85 11
-97 -7 -16 -25 1 -48 60 -80 80 -44 98 -77 72 -133 -16 -35 -57 -55 -112 -55
-61 0 -96 15 -96 40 0 23 13 25 59 9 39 -14 77 -5 91 20 15 30 2 50 -51 76
-64 33 -89 61 -89 102 0 53 37 83 100 83 28 0 60 -5 71 -10z m240 0 c10 -6 19
-20 19 -32 0 -17 -4 -19 -27 -13 -53 13 -85 11 -97 -7 -16 -25 1 -48 60 -80
80 -44 98 -77 72 -133 -16 -35 -57 -55 -112 -55 -61 0 -96 15 -96 40 0 23 13
25 59 9 39 -14 77 -5 91 20 15 30 2 50 -51 76 -64 33 -89 61 -89 102 0 53 37
83 100 83 28 0 60 -5 71 -10z"/>
</g>
</svg>
