<svg width="100" height="100" viewBox="0 0 100 100" fill="none" xmlns="http://www.w3.org/2000/svg">
<circle cx="50" cy="50" r="50" fill="white"/>
<path d="M43.5509 51.5795C44.0655 52.5363 44.7732 53.3974 45.6738 54.0671C46.9604 55.0239 48.44 55.5022 50.0161 55.5022C51.5921 55.5022 53.1039 54.992 54.3583 54.0671C55.2268 53.3974 55.9666 52.5363 56.449 51.5795C56.9637 50.559 57.2532 49.4428 57.2532 48.3266C57.2532 46.3174 56.449 44.4676 54.9373 43.0644C52.2354 40.5449 47.7323 40.5449 45.0305 43.0644C43.5509 44.4358 42.7146 46.3174 42.7146 48.3266C42.7468 49.4747 43.0041 50.559 43.5509 51.5795ZM46.2849 44.4039C47.3142 43.4471 48.633 42.9368 49.9839 42.9368C51.367 42.9368 52.6857 43.4471 53.6829 44.4039C54.8086 45.4563 55.4198 46.8276 55.4198 48.3266C55.4198 49.1876 55.2268 49.9849 54.8086 50.7822C54.4227 51.5157 53.8758 52.1536 53.2325 52.6639C51.3026 54.099 48.6008 54.0671 46.7031 52.6639C46.0598 52.1855 45.4808 51.5157 45.127 50.7822C44.741 50.0168 44.548 49.1876 44.548 48.3266C44.548 46.8276 45.1591 45.4244 46.2849 44.4039Z" fill="url(#paint0_radial)"/>
<path d="M40.8169 41.1189C40.7204 41.2145 40.6561 41.3421 40.5596 41.4378C40.4952 41.5335 40.3988 41.661 40.3344 41.7567C40.1736 41.9799 40.0128 42.2351 39.8841 42.4583C39.8519 42.5221 39.7876 42.6178 39.7555 42.6816C39.5625 43.0005 39.4016 43.3194 39.273 43.6383C39.2408 43.734 39.2086 43.8297 39.1765 43.8935C39.08 44.1486 38.9835 44.4037 38.887 44.627C38.8548 44.7545 38.8227 44.8821 38.7905 45.0097C38.7262 45.2329 38.6618 45.4562 38.5975 45.7113C38.5654 45.8389 38.5332 45.9664 38.501 46.094C38.4689 46.3491 38.4045 46.6043 38.3724 46.8275C38.3724 46.9551 38.3402 47.0507 38.3402 47.1783C38.308 47.5291 38.2759 47.9118 38.2759 48.2945C38.2759 48.7091 38.308 49.1237 38.3402 49.5064C38.3402 49.6021 38.3724 49.6978 38.3724 49.8253C38.4367 50.208 38.4689 50.5589 38.5654 50.9097C38.5654 50.9416 38.5654 50.9735 38.5975 51.0053C38.6618 51.3243 38.7583 51.6432 38.8548 51.9302L17.626 46.3491C17.5616 46.9551 17.5295 47.561 17.4973 48.167L39.8519 54.0989C40.5274 55.2789 41.428 56.3313 42.4573 57.1924L44.548 81.1113C45.1592 81.207 45.7703 81.3027 46.3814 81.3664L44.355 58.5318C44.3872 58.5318 44.3872 58.5637 44.4194 58.5637C44.8053 58.7551 45.2235 58.9464 45.6095 59.1059C45.6416 59.1378 45.706 59.1378 45.7381 59.1697C47.0569 59.6799 48.4722 59.9351 49.9196 59.9351C51.367 59.9351 52.7501 59.6799 54.101 59.1697C54.1332 59.1378 54.1975 59.1378 54.2297 59.1059C54.6478 58.9464 55.0338 58.7551 55.4198 58.5637C55.4519 58.5637 55.4519 58.5318 55.4841 58.5318L53.4577 81.3664C54.0689 81.3027 54.68 81.207 55.2911 81.1113L57.414 57.1924C58.4433 56.3313 59.3439 55.2789 60.0194 54.0989L82.374 48.167C82.3418 47.561 82.3097 46.9551 82.2453 46.3491L60.9843 51.994C61.0808 51.6751 61.1773 51.388 61.2416 51.0691C61.2416 51.0372 61.2416 51.0053 61.2738 50.9416C61.3703 50.5908 61.4346 50.2399 61.4668 49.8572C61.4668 49.7616 61.499 49.6659 61.499 49.5383C61.5311 49.1237 61.5633 48.741 61.5633 48.3264C61.5633 47.9437 61.5311 47.5929 61.499 47.2102C61.499 47.0826 61.4668 46.987 61.4668 46.8594C61.4346 46.6043 61.4025 46.3491 61.3381 46.1259C61.306 45.9983 61.2738 45.8707 61.2416 45.7432C61.1773 45.5199 61.113 45.2648 61.0486 45.0416C61.0165 44.914 60.9843 44.7864 60.9522 44.6907C60.8557 44.4356 60.7592 44.1805 60.6627 43.9253C60.6305 43.8297 60.5983 43.7659 60.5662 43.6702C60.4053 43.3513 60.2445 43.0324 60.0837 42.7135C60.0515 42.6497 59.9872 42.5859 59.955 42.5221C59.8264 42.267 59.6656 42.0437 59.5047 41.7886C59.4404 41.6929 59.3439 41.5972 59.2796 41.4697C59.1831 41.3421 59.1187 41.2464 59.0223 41.1189L80.7014 39.2372C80.5084 38.6632 80.2833 38.0572 80.0581 37.4832L57.3497 39.4605C55.2268 37.7064 52.5893 36.7178 49.8231 36.7178C47.0569 36.7178 44.4194 37.7064 42.2965 39.4605L19.588 37.4832C19.3629 38.0572 19.1377 38.6313 18.9447 39.2372L40.8169 41.1189ZM43.2614 41.1826C45.0948 39.4605 47.5072 38.5356 50.0161 38.5356C52.5249 38.5356 54.9051 39.4924 56.7707 41.1826C58.7971 43.0643 59.9229 45.6156 59.9229 48.3583C59.9229 49.921 59.5691 51.4199 58.8293 52.7913C58.1538 54.1308 57.1567 55.2789 55.9666 56.1718C55.7414 56.3313 55.5163 56.4908 55.2911 56.6183C52.7823 58.181 49.6623 58.4999 46.8961 57.607C45.899 57.288 44.934 56.8097 44.0656 56.1399C42.8755 55.247 41.8783 54.067 41.2029 52.7594C40.4952 51.388 40.1093 49.8891 40.1093 48.3264C40.1093 47.6567 40.1736 46.987 40.3023 46.3172C40.7204 44.3718 41.7175 42.5859 43.2614 41.1826Z" fill="url(#paint1_linear)"/>
<path d="M88.8714 46.4765C88.8392 45.8705 88.7749 45.2646 88.6784 44.6586C88.421 42.6175 88.0029 40.6402 87.4561 38.6629C87.2953 38.057 87.1023 37.4829 86.9093 36.9089C86.1695 34.7402 85.2367 32.6673 84.1431 30.6581C83.2746 29.0954 81.3126 28.5532 79.7365 29.3824C78.1604 30.2435 77.6136 32.1889 78.4499 33.7516C79.1254 34.9635 79.7043 36.2073 80.219 37.4511C80.4441 38.0251 80.6693 38.5992 80.8623 39.2051C81.6342 41.5013 82.1167 43.8932 82.374 46.317C82.4384 46.9229 82.4705 47.5289 82.5027 48.1348C82.5027 48.5175 82.5349 48.9002 82.5349 49.2829C82.5349 65.2289 70.7946 78.4959 55.4198 81.0792C54.8087 81.1748 54.1975 81.2705 53.5864 81.3343C52.4285 81.4619 51.2384 81.5256 50.0161 81.5256C48.826 81.5256 47.6359 81.4619 46.4779 81.3343C45.8668 81.2705 45.2557 81.1748 44.6445 81.0792C29.2697 78.5278 17.5295 65.2289 17.5295 49.2829C17.5295 48.9002 17.5295 48.5175 17.5617 48.1348C17.5938 47.5289 17.626 46.9229 17.6903 46.317C17.9155 43.8932 18.4301 41.5013 19.2021 39.2051C19.3951 38.6311 19.6202 38.0251 19.8454 37.4511C20.36 36.1754 20.939 34.9316 21.6144 33.7516C22.4829 32.1889 21.9039 30.2435 20.3278 29.3824C18.7518 28.5213 16.7897 29.0954 15.9212 30.6581C14.7311 32.6673 13.7984 34.7402 13.0586 36.9089C12.8656 37.4829 12.6726 38.0889 12.5118 38.6629C11.9328 40.6084 11.5468 42.6175 11.2895 44.6586C11.2252 45.2646 11.1608 45.8705 11.0965 46.4765C11.0322 47.4332 11 48.39 11 49.3148C11 69.024 25.9567 85.3208 45.1913 87.6808C45.8025 87.7446 46.4136 87.8083 47.0247 87.8721C48.0219 87.9359 48.9868 87.9997 50.0161 87.9997C51.0132 87.9997 52.0103 87.9678 53.0074 87.8721C53.6186 87.8402 54.2297 87.7765 54.8408 87.6808C74.0755 85.3208 89.0322 69.024 89.0322 49.3148C89 48.3581 88.9678 47.4332 88.8714 46.4765Z" fill="url(#paint2_linear)"/>
<defs>
<radialGradient id="paint0_radial" cx="0" cy="0" r="1" gradientUnits="userSpaceOnUse" gradientTransform="translate(50.0012 48.3596) scale(7.24053 7.17905)">
<stop stop-color="#FFB500"/>
<stop offset="0.2901" stop-color="#FEB402"/>
<stop offset="0.807292" stop-color="#F0A229"/>
<stop offset="1" stop-color="#A33FFF"/>
</radialGradient>
<linearGradient id="paint1_linear" x1="25.5756" y1="27.3468" x2="74.1118" y2="70.1694" gradientUnits="userSpaceOnUse">
<stop stop-color="#FFB500"/>
<stop offset="0.2901" stop-color="#FEB402"/>
<stop offset="0.4277" stop-color="#FCB10A"/>
<stop offset="0.5332" stop-color="#F7AB17"/>
<stop offset="0.6224" stop-color="#F0A229"/>
<stop offset="0.7013" stop-color="#E89741"/>
<stop offset="0.7728" stop-color="#DD895E"/>
<stop offset="0.8389" stop-color="#D07982"/>
<stop offset="0.9007" stop-color="#C266AA"/>
<stop offset="0.9567" stop-color="#B151D7"/>
<stop offset="1" stop-color="#A33FFF"/>
</linearGradient>
<linearGradient id="paint2_linear" x1="13.5179" y1="23.4332" x2="87.0898" y2="80.3817" gradientUnits="userSpaceOnUse">
<stop stop-color="#FFB500"/>
<stop offset="0.1349" stop-color="#F5A81C"/>
<stop offset="0.4271" stop-color="#DB8764"/>
<stop offset="0.8507" stop-color="#B252D5"/>
<stop offset="1" stop-color="#A33FFF"/>
</linearGradient>
</defs>
</svg>
