<svg width="100" height="100" viewBox="0 0 100 100" fill="none" xmlns="http://www.w3.org/2000/svg">
<path d="M50 90C72.0914 90 90 72.0914 90 50C90 27.9086 72.0914 10 50 10C27.9086 10 10 27.9086 10 50C10 72.0914 27.9086 90 50 90Z" fill="#2775CA"/>
<path d="M42.5 77.8125C42.5 78.75 41.75 79.2812 40.875 79C28.75 75.125 20 63.8125 20 50.4062C20 37.0312 28.75 25.6875 40.875 21.8125C41.7813 21.5312 42.5 22.0625 42.5 23V25.3437C42.5 25.9687 42.0312 26.6875 41.4375 26.9062C31.8437 30.4375 25 39.6562 25 50.4062C25 61.1875 31.8437 70.375 41.4375 73.875C42.0312 74.0937 42.5 74.8125 42.5 75.4375V77.8125Z" fill="white"/>
<path d="M52.4999 69.1562C52.4999 69.8438 51.9374 70.4062 51.2499 70.4062H48.7499C48.0624 70.4062 47.4999 69.8438 47.4999 69.1562V65.2187C42.0311 64.4687 39.3749 61.4375 38.6561 57.25C38.5311 56.5312 39.0936 55.9062 39.8124 55.9062H42.6561C43.2499 55.9062 43.7499 56.3438 43.8749 56.9063C44.4061 59.375 45.8436 61.2813 50.2186 61.2813C53.4374 61.2813 55.7499 59.4687 55.7499 56.7812C55.7499 54.0937 54.4061 53.0625 49.6561 52.2812C42.6561 51.3438 39.3436 49.2187 39.3436 43.75C39.3436 39.5312 42.5624 36.2187 47.4999 35.5312V31.6562C47.4999 30.9687 48.0624 30.4062 48.7499 30.4062H51.2499C51.9374 30.4062 52.4999 30.9687 52.4999 31.6562V35.625C56.5311 36.3437 59.0936 38.625 59.9374 42.4375C60.0936 43.1562 59.5311 43.8125 58.7811 43.8125H56.1561C55.5936 43.8125 55.1249 43.4375 54.9686 42.9062C54.2499 40.5 52.5311 39.4375 49.5311 39.4375C46.2186 39.4375 44.4999 41.0312 44.4999 43.2812C44.4999 45.6562 45.4686 46.8437 50.5624 47.5625C57.4374 48.5 60.9999 50.4687 60.9999 56.3125C60.9999 60.75 57.6874 64.3437 52.5311 65.1562V69.1562H52.4999Z" fill="white"/>
<path d="M59.125 79C58.2187 79.2813 57.5 78.75 57.5 77.8125V75.4688C57.5 74.7813 57.9062 74.125 58.5625 73.9063C68.125 70.4063 75 61.1875 75 50.4375C75 39.6563 68.1562 30.4688 58.5625 26.9688C57.9687 26.75 57.5 26.0313 57.5 25.4063V23.0625C57.5 22.125 58.25 21.5938 59.125 21.875C71.25 25.6875 80 37.0313 80 50.4063C80 63.8125 71.25 75.125 59.125 79Z" fill="white"/>
</svg>
