<svg width="28" height="33" viewBox="0 0 28 33" fill="none" xmlns="http://www.w3.org/2000/svg">
<path d="M0 16.4825C0.0179949 9.34934 5.65039 3.44303 12.9383 2.89972V1.18217C12.8663 0.603803 13.2802 0.0780176 13.874 0.00791305C14.4679 -0.0621915 15.0077 0.340912 15.0797 0.919274C15.0977 1.0069 15.0977 1.09453 15.0797 1.18217V2.91725C22.3676 3.47809 27.982 9.38439 28 16.5C28 16.5351 28 16.5876 28 16.6402C28 16.6928 28 16.7278 28 16.7629C27.982 23.8785 22.3676 29.7848 15.0797 30.3456V32.0807C15.0077 32.6591 14.4679 33.0622 13.874 32.9921C13.3882 32.922 13.0103 32.5539 12.9383 32.0807V30.3632C5.65039 29.8199 0 23.896 0 16.7629C0 16.7278 0 16.6753 0 16.6402C0 16.6052 0 16.5351 0 16.4825ZM15.0977 15.501H25.8046C25.1928 10.0329 20.7121 5.75649 15.0977 5.24823V15.501ZM15.0977 17.8495V27.9796C20.6581 27.4714 25.1208 23.2476 25.7866 17.8495H15.0977V17.8495ZM25.8046 15.6938V17.534C25.8406 17.2361 25.8406 16.9206 25.8586 16.6227C25.8586 16.3072 25.8406 16.0093 25.8046 15.6938ZM12.9383 27.9796V5.2307C6.49615 5.72143 1.67352 11.2071 2.17738 17.4815C2.62725 23.1074 7.19795 27.5415 12.9383 27.9796Z" fill="url(#paint0_linear)"/>
<defs>
<linearGradient id="paint0_linear" x1="0.00359897" y1="16.4802" x2="28.0018" y2="16.4802" gradientUnits="userSpaceOnUse">
<stop stop-color="#C5E2BC"/>
<stop offset="0.35" stop-color="#B5DDC2"/>
<stop offset="1" stop-color="#8ED0D0"/>
</linearGradient>
</defs>
</svg>
