<svg width="70" height="70" viewBox="0 0 70 70" fill="none" xmlns="http://www.w3.org/2000/svg">
<path d="M69.7098 35.8672L35.7432 69.6978C35.3386 70.1007 34.6702 70.1007 34.2656 69.6978L0.299033 35.8672C0.105541 35.6745 0 35.4117 0 35.1314C0.0175902 35.0438 0.0175902 34.9562 0 34.8686C0 34.5883 0.105541 34.3255 0.299033 34.1328L34.2656 0.302219C34.6702 -0.100734 35.3386 -0.100734 35.7432 0.302219L69.7098 34.1328C70.0967 34.6408 70.0967 35.3592 69.7098 35.8672ZM67.3527 34.9912L35.0044 2.77249L2.65611 34.9912L35.0044 67.21L67.3527 34.9912Z" fill="url(#paint0_linear)"/>
<defs>
<linearGradient id="paint0_linear" x1="0" y1="34.9966" x2="70.0018" y2="34.9966" gradientUnits="userSpaceOnUse">
<stop stop-color="#C5E2BC"/>
<stop offset="0.35" stop-color="#B5DDC2"/>
<stop offset="1" stop-color="#8ED0D0"/>
</linearGradient>
</defs>
</svg>
