<?xml version="1.0" encoding="utf-8"?>
<!-- Generator: Adobe Illustrator 23.0.4, SVG Export Plug-In . SVG Version: 6.00 Build 0)  -->
<svg version="1.1" id="Layer_1" xmlns="http://www.w3.org/2000/svg" xmlns:xlink="http://www.w3.org/1999/xlink" x="0px" y="0px"
	 viewBox="0 0 3219.4 1194" style="enable-background:new 0 0 3219.4 1194;" xml:space="preserve">
<style type="text/css">
	.st0{enable-background:new    ;}
	.st1{fill:#1D1D1B;}
	.st2{fill:#F4C04D;}
</style>
<g class="st0">
	<path class="st1" d="M1575.2,465.2l-110.7,296.4H1413l-85.6-224.8l-86.7,224.8h-51.5l-110.2-296.4h50.9l86.1,236l89.5-236h45.3
		l87.8,237.1l88.4-237.1H1575.2z"/>
	<path class="st1" d="M1800.3,492.6c21.8,20.1,32.7,50.2,32.7,90v179h-50.9v-39.2c-8.9,13.8-21.7,24.3-38.3,31.6
		c-16.6,7.3-36.3,10.9-59,10.9c-33.2,0-59.8-8-79.7-24c-20-16-29.9-37.1-29.9-63.2c0-26.1,9.5-47.1,28.5-62.9
		c19-15.8,49.2-23.8,90.6-23.8h85v-10.6c0-23.1-6.7-40.8-20.1-53.1s-33.2-18.5-59.3-18.5c-17.5,0-34.7,2.9-51.5,8.7
		c-16.8,5.8-31,13.5-42.5,23.2l-22.4-40.3c15.3-12.3,33.6-21.7,54.8-28.2c21.3-6.5,43.8-9.8,67.7-9.8
		C1747.1,462.4,1778.5,472.5,1800.3,492.6z M1746.9,709.9c14.9-9.1,25.7-22.1,32.4-38.9v-41.4h-82.8c-45.5,0-68.2,15.3-68.2,45.9
		c0,14.9,5.8,26.7,17.3,35.2c11.6,8.6,27.6,12.9,48.1,12.9C1714.3,723.6,1732,719.1,1746.9,709.9z"/>
	<path class="st1" d="M2196,465.2v256.2c0,51.8-12.9,90.1-38.6,114.9c-25.7,24.8-64.1,37.2-115.2,37.2c-28,0-54.6-3.8-80-11.5
		c-25.4-7.6-45.9-18.6-61.5-32.7l25.7-41.4c13.8,11.9,30.8,21.3,51.2,28.2c20.3,6.9,41.3,10.3,62.9,10.3c34.7,0,60.3-8.2,76.9-24.6
		c16.6-16.4,24.9-41.4,24.9-74.9v-23.5c-12.7,15.3-28.2,26.8-46.7,34.4c-18.5,7.6-38.5,11.5-60.1,11.5c-28.3,0-54-6.1-76.9-18.2
		c-22.9-12.1-40.9-29.1-54-50.9c-13.1-21.8-19.6-46.7-19.6-74.7s6.5-52.9,19.6-74.7c13-21.8,31-38.7,54-50.6
		c22.9-11.9,48.6-17.9,76.9-17.9c22.4,0,43.2,4.1,62.4,12.3c19.2,8.2,35,20.3,47.3,36.4v-45.9H2196z M2093.9,690.1
		c15.5-8.2,27.6-19.7,36.4-34.4c8.8-14.7,13.1-31.4,13.1-50.1c0-28.7-9.5-51.9-28.5-69.6c-19-17.7-43.4-26.6-73.3-26.6
		c-30.2,0-54.8,8.9-73.8,26.6c-19,17.7-28.5,40.9-28.5,69.6c0,18.6,4.4,35.3,13.1,50.1c8.8,14.7,20.9,26.2,36.4,34.4
		c15.5,8.2,33.1,12.3,52.9,12.3C2061,702.4,2078.5,698.3,2093.9,690.1z"/>
	<path class="st1" d="M2560.1,465.2v256.2c0,51.8-12.9,90.1-38.6,114.9c-25.7,24.8-64.1,37.2-115.2,37.2c-28,0-54.6-3.8-80-11.5
		c-25.4-7.6-45.9-18.6-61.5-32.7l25.7-41.4c13.8,11.9,30.8,21.3,51.2,28.2c20.3,6.9,41.3,10.3,62.9,10.3c34.7,0,60.3-8.2,76.9-24.6
		c16.6-16.4,24.9-41.4,24.9-74.9v-23.5c-12.7,15.3-28.2,26.8-46.7,34.4c-18.5,7.6-38.5,11.5-60.1,11.5c-28.3,0-54-6.1-76.9-18.2
		c-22.9-12.1-40.9-29.1-54-50.9c-13.1-21.8-19.6-46.7-19.6-74.7s6.5-52.9,19.6-74.7c13-21.8,31-38.7,54-50.6
		c22.9-11.9,48.6-17.9,76.9-17.9c22.4,0,43.2,4.1,62.4,12.3c19.2,8.2,35,20.3,47.3,36.4v-45.9H2560.1z M2458,690.1
		c15.5-8.2,27.6-19.7,36.4-34.4c8.8-14.7,13.1-31.4,13.1-50.1c0-28.7-9.5-51.9-28.5-69.6c-19-17.7-43.4-26.6-73.3-26.6
		c-30.2,0-54.8,8.9-73.8,26.6c-19,17.7-28.5,40.9-28.5,69.6c0,18.6,4.4,35.3,13.1,50.1c8.8,14.7,20.9,26.2,36.4,34.4
		c15.5,8.2,33.1,12.3,52.9,12.3C2425.1,702.4,2442.6,698.3,2458,690.1z"/>
	<path class="st1" d="M2640.6,346.7h53.7v415h-53.7V346.7z"/>
	<path class="st1" d="M3041.6,631.4h-240.5c3.4,26.1,14.8,47.1,34.4,62.9c19.6,15.9,43.9,23.8,73,23.8c35.4,0,63.9-11.9,85.6-35.8
		l29.6,34.7c-13.4,15.7-30.1,27.6-50.1,35.8c-20,8.2-42.2,12.3-66.8,12.3c-31.3,0-59.1-6.4-83.3-19.3c-24.2-12.9-43-30.8-56.2-54
		c-13.2-23.1-19.9-49.2-19.9-78.3c0-28.7,6.4-54.6,19.3-77.7c12.9-23.1,30.6-41.1,53.1-54c22.6-12.9,48-19.3,76.3-19.3
		c28.3,0,53.6,6.4,75.8,19.3c22.2,12.9,39.5,30.9,52,54c12.5,23.1,18.7,49.6,18.7,79.4C3042.8,619.2,3042.4,624.6,3041.6,631.4z
		 M2831.6,531.2c-17.3,15.7-27.5,36.2-30.5,61.5h190.2c-3-25-13.1-45.4-30.5-61.2c-17.3-15.8-38.9-23.8-64.6-23.8
		C2870.5,507.7,2849,515.6,2831.6,531.2z"/>
</g>
<path class="st1" d="M577.2,552.9c-113.8,0-201.1,45.2-204.7,47.2l-14.9,7.8l2.3,16.6c5.7,40.9,40.6,98.3,106.8,175.3
	c36.5,42.4,71.6,78,86.5,92.8l23,80.3l24.9-80.3c14.4-14.6,48.7-50.4,84.8-93c27.5-32.4,50.2-62.1,67.4-88.1
	c23-34.7,36.4-62.7,41-85.6l3.5-17.5l-15.8-8.3C778.3,598.2,691,552.9,577.2,552.9z M577,848.7c-17.3-17.5-45.6-47-74.2-80.3
	c-4.2-4.9-8.2-9.7-12.1-14.3c18.4-6.7,49.2-15.2,86.5-15.2c36.6,0,66.6,8.5,84.5,15.1c-3.8,4.7-7.9,9.5-12,14.4
	C621.5,801.7,593.9,831.1,577,848.7z M692.4,714.9c-18.6-8.3-60.6-23.8-115.2-23.8c-55.1,0-98.7,15.8-117.5,24
	c-28.5-38.1-41.8-63.8-48-80.3c28.9-12,91.5-33.9,165.4-33.9c73.2,0,135.2,21.4,164.5,33.5C734.8,651.2,720.7,676.9,692.4,714.9z"/>
<path class="st2" d="M459.7,715c18.8-8.1,62.3-24,117.5-24c54.5,0,96.6,15.5,115.2,23.8c28.3-38,42.4-63.7,49.3-80.6
	c-29.2-12.1-91.3-33.5-164.5-33.5c-73.9,0-136.5,21.9-165.4,33.9C417.9,651.3,431.2,676.9,459.7,715z"/>
<path class="st1" d="M1000,425c-0.1-3.8-1.6-38.5-24.3-74c-21.2-33.1-65.4-72.6-154.8-72.6c-35.8,0-93,26.5-132.1,47.1l-0.6-23.7
	l0-0.2c0-1.3-1.2-31.1-14.5-61.2c-3.5-7.9-10.8-19.2-23.1-19.2c-38.6,0-109,1.5-150.7,1.5c-12.7,0-20,12.1-23.4,20.5
	c-12.8,31.1-12.8,50.9-12.8,52.2l46.5,25.4c0-0.2-1-9.5,4.1-31.4c2-8.6,1.7-15.9,20.2-16.2c22.6-0.4,58.7-1,81.8-0.8
	c17.8,0.2,19.5,6.7,21.6,17.9c3,16,3.4,45.8,3.4,45.8l1.7,70.8l35-20.5c60.3-35.3,119.1-60,143-60c53.6,0,91.7,16.5,113.5,49
	c16.2,24.3,17.7,49.5,17.8,51c0,1.5-0.3,36.8-26.9,64.1c-22.4,23-57.5,34.6-104.4,34.6c-32,0-104.5-35.2-193.8-94.2l-37.7-24.8
	c-4.9-3.5-45.8-32.8-95.6-62.5c-73.3-43.8-125.7-65-160.4-65c-89.4,0-133.5,39.5-154.8,72.6c-22.7,35.4-24.2,70.1-24.3,73.9
	c-0.1,2.3-1,56.3,40.4,98.8c31.7,32.5,78.3,49,138.6,49c22.2,0,51.3-8.6,89-26.3c26.9-12.6,91-48.6,125.3-69.9l-46.2-28.9
	c-98.1,64.8-155.4,77.3-168.2,77.3c-46.6,0-81.6-11.5-103.9-34.1c-26.6-26.9-27.3-62.2-27.3-64.6c0.1-2.1,1.8-27,17.8-50.9
	c21.8-32.5,59.9-49,113.5-49c14.3,0,50.8,7.5,135.6,58.1c50.2,29.9,92.4,60.4,92.8,60.6l0.4,0.3l38.5,25.4
	c26.8,17.7,67,43.1,107,63.9c49.5,25.7,86.5,38.3,113.1,38.3c60.3,0,106.9-16.5,138.6-49C1001,481.2,1000.1,427.2,1000,425z"/>
</svg>
