<svg width="71" height="70" version="1.1" xmlns="http://www.w3.org/2000/svg" desc="Created with imagetracer.js version 1.2.4" ><path fill="rgb(0,0,0)" stroke="rgb(0,0,0)" stroke-width="1" opacity="0" d="M 0 0 L 24 0.5 L 0 23.5 L 0 0 Z " /><path fill="rgb(0,0,0)" stroke="rgb(0,0,0)" stroke-width="1" opacity="0" d="M 25.5 0 L 46 0.5 L 35.5 11 L 25.5 0 Z " /><path fill="rgb(0,0,0)" stroke="rgb(0,0,0)" stroke-width="1" opacity="0" d="M 47.5 0 L 71 0 L 71 23.5 L 47.5 0 Z " /><path fill="rgb(0,0,0)" stroke="rgb(0,0,0)" stroke-width="1" opacity="0" d="M 24.5 5 L 33 13.5 L 22 24.5 L 29.5 32 L 41.5 22 L 54 35.5 L 51.5 38 L 41.5 28 L 40 29.5 L 40 31.5 L 49 40.5 L 46.5 43 L 37.5 34 L 34 35.5 L 43 46.5 L 40.5 48 L 30.5 39 L 29 42.5 L 38 51.5 L 35.5 54 L 6 23.5 L 24.5 5 Z " /><path fill="rgb(0,0,0)" stroke="rgb(0,0,0)" stroke-width="1" opacity="0" d="M 46.5 5 L 65 24.5 L 56.5 32 L 40.5 17 L 30.5 27 L 28 24.5 L 46.5 5 Z " /><path fill="rgb(0,0,0)" stroke="rgb(0,0,0)" stroke-width="1" opacity="0" d="M 0.5 25 L 34.5 59 L 36.5 59 L 71 25.5 L 71 69.5 L 70.5 70 L 60.5 70 L 57.5 69 L 54.5 70 L 53.5 69 L 41.5 69 L 38.5 70 L 37.5 69 L 26.5 69 L 23.5 70 L 20.5 69 L 18.5 70 L 15.5 69 L 13.5 69 L 0 70 L 0.5 25 Z " /><path fill="rgb(0,254,100)" stroke="rgb(0,254,100)" stroke-width="1" opacity="0.35294117647058826" d="M 24.5 0 L 34.5 11 L 24.5 1 L 1 24.5 L 34.5 59 L 0 24.5 L 24.5 0 Z " /><path fill="rgb(0,254,100)" stroke="rgb(0,254,100)" stroke-width="1" opacity="0.35294117647058826" d="M 46.5 0 L 71 24.5 L 36.5 59 L 70 24.5 L 46.5 1 L 36 10.5 L 46.5 0 Z " /><path fill="rgb(0,254,100)" stroke="rgb(0,254,100)" stroke-width="1" opacity="0.35294117647058826" d="M 24.5 4 L 32.5 13 L 24.5 5 L 6 23.5 L 35.5 54 L 38 51.5 L 29.5 42 L 39 51.5 L 35.5 55 L 5 23.5 L 24.5 4 Z " /><path fill="rgb(0,254,100)" stroke="rgb(0,254,100)" stroke-width="1" opacity="0.35294117647058826" d="M 46.5 4 L 66 24.5 L 56.5 33 L 40.5 18 L 30.5 28 L 27 24.5 L 46.5 4 Z M 47 5 L 28 25 L 31 27 L 41 17 L 57 32 L 65 25 L 47 5 Z " /><path fill="rgb(0,254,100)" stroke="rgb(0,254,100)" stroke-width="1" opacity="0.35294117647058826" d="M 32.5 14 L 23 24.5 L 29.5 31 L 41.5 21 L 55 35.5 L 51.5 39 L 41.5 29 L 40 29.5 L 41.5 28 L 51.5 38 L 54 35.5 L 41.5 22 L 29.5 32 L 22 24.5 L 32.5 14 Z " /><path fill="rgb(0,254,100)" stroke="rgb(0,254,100)" stroke-width="1" opacity="0.35294117647058826" d="M 40.5 31 L 50 40.5 L 46.5 44 L 37.5 35 L 35 35 L 44 46.5 L 40.5 49 L 30.5 40 L 29 40.5 L 31.5 39 L 41.5 48 L 43 45.5 L 34 35.5 L 37.5 34 L 46.5 43 L 49 40.5 L 40.5 31 Z " /><path fill="rgb(255,255,255)" stroke="rgb(255,255,255)" stroke-width="1" opacity="0.7529411764705882" d="M 10.5 69 L 14 69.5 L 10.5 70 L 10.5 69 Z " /><path fill="rgb(255,255,255)" stroke="rgb(255,255,255)" stroke-width="1" opacity="0.7529411764705882" d="M 15.5 69 L 18 69.5 L 15.5 70 L 15.5 69 Z " /><path fill="rgb(255,255,255)" stroke="rgb(255,255,255)" stroke-width="1" opacity="0.7529411764705882" d="M 20.5 69 L 23 69.5 L 20.5 70 L 20.5 69 Z " /><path fill="rgb(255,255,255)" stroke="rgb(255,255,255)" stroke-width="1" opacity="0.7529411764705882" d="M 26.5 69 L 38 69.5 L 26.5 70 L 26.5 69 Z " /><path fill="rgb(255,255,255)" stroke="rgb(255,255,255)" stroke-width="1" opacity="0.7529411764705882" d="M 41.5 69 L 54 69.5 L 41.5 70 L 41.5 69 Z " /><path fill="rgb(255,255,255)" stroke="rgb(255,255,255)" stroke-width="1" opacity="0.7529411764705882" d="M 57.5 69 L 60 69.5 L 57.5 70 L 57.5 69 Z " /><path fill="rgb(0,254,101)" stroke="rgb(0,254,101)" stroke-width="1" opacity="0.9686274509803922" d="M 24.5 1 L 34.5 11 L 36.5 11 L 46.5 1 L 70 24.5 L 35.5 59 L 1 24.5 L 24.5 1 Z M 25 4 L 5 24 L 36 55 L 39 52 L 29 42 L 31 40 L 41 49 L 44 47 L 35 35 L 38 35 L 47 44 L 50 41 L 40 31 L 42 29 L 52 39 L 55 36 L 42 21 L 30 31 L 23 25 L 33 15 L 33 13 L 25 4 Z M 47 4 L 27 25 L 31 28 L 41 18 L 57 33 L 66 25 L 47 4 Z " /></svg>