<svg width="87" height="87" viewBox="0 0 87 87" fill="none" xmlns="http://www.w3.org/2000/svg">
<path d="M37.2101 43.5001C37.2242 31.0136 32.3497 19.0177 23.6301 10.0801C23.4733 9.9212 23.2864 9.79516 23.0804 9.70931C22.8744 9.62346 22.6533 9.57953 22.4301 9.58008H11.2601C10.8162 9.58008 10.3904 9.7557 10.0757 10.0686C9.76089 10.3815 9.58272 10.8063 9.58008 11.2501V22.7401C9.5817 23.1655 9.74465 23.5745 10.036 23.8844C10.3274 24.1944 10.7256 24.3822 11.1501 24.4101C15.9517 24.7911 20.4334 26.9675 23.7018 30.5056C26.9702 34.0436 28.7854 38.6834 28.7854 43.5001C28.7854 48.3168 26.9702 52.9566 23.7018 56.4946C20.4334 60.0327 15.9517 62.2091 11.1501 62.5901C10.7256 62.6179 10.3274 62.8058 10.036 63.1158C9.74465 63.4257 9.5817 63.8347 9.58008 64.2601V75.7501C9.58272 76.1939 9.76089 76.6187 10.0757 76.9316C10.3904 77.2445 10.8162 77.4201 11.2601 77.4201H22.4301C22.6533 77.4206 22.8744 77.3767 23.0804 77.2909C23.2864 77.205 23.4733 77.079 23.6301 76.9201C32.3497 67.9825 37.2242 55.9866 37.2101 43.5001V43.5001Z" fill="#FF0000"/>
<path d="M77.42 64.2601C77.418 63.8298 77.2509 63.4166 76.9532 63.1059C76.6555 62.7952 76.2499 62.6106 75.82 62.5901C71.0185 62.2091 66.5368 60.0327 63.2683 56.4946C59.9999 52.9566 58.1848 48.3168 58.1848 43.5001C58.1848 38.6834 59.9999 34.0436 63.2683 30.5056C66.5368 26.9675 71.0185 24.7911 75.82 24.4101C76.2446 24.3822 76.6427 24.1944 76.9341 23.8844C77.2255 23.5745 77.3884 23.1655 77.39 22.7401V11.2501C77.39 11.0308 77.3469 10.8136 77.2629 10.611C77.179 10.4084 77.056 10.2243 76.9009 10.0692C76.7458 9.91414 76.5617 9.79112 76.3591 9.7072C76.1565 9.62327 75.9394 9.58008 75.7201 9.58008H64.57C64.1196 9.58118 63.688 9.76101 63.37 10.0801C54.6688 19.0289 49.8008 31.0184 49.8008 43.5001C49.8008 55.9818 54.6688 67.9713 63.37 76.9201C63.688 77.2391 64.1196 77.419 64.57 77.4201H75.75C76.193 77.4201 76.6177 77.2441 76.9309 76.9309C77.2441 76.6178 77.42 76.193 77.42 75.7501V64.2601Z" fill="#0073FF"/>
<path d="M34.9699 3.59998C34.6629 3.60076 34.3608 3.67671 34.0899 3.82119C33.8191 3.96566 33.5877 4.17427 33.4161 4.42878C33.2444 4.6833 33.1377 4.97597 33.1053 5.28123C33.0728 5.5865 33.1156 5.89506 33.2299 6.17998C37.8599 18.0775 40.2337 30.7333 40.2299 43.5C40.2337 56.2667 37.8599 68.9224 33.2299 80.82C33.1156 81.1049 33.0728 81.4134 33.1053 81.7187C33.1377 82.024 33.2444 82.3167 33.4161 82.5712C33.5877 82.8257 33.8191 83.0343 34.0899 83.1788C34.3608 83.3232 34.6629 83.3992 34.9699 83.4H51.9699C52.2769 83.3992 52.579 83.3232 52.8499 83.1788C53.1207 83.0343 53.3521 82.8257 53.5237 82.5712C53.6954 82.3167 53.8021 82.024 53.8346 81.7187C53.867 81.4134 53.8242 81.1049 53.7099 80.82C44.3095 56.8279 44.3095 30.172 53.7099 6.17998C53.8242 5.89506 53.867 5.5865 53.8346 5.28123C53.8021 4.97597 53.6954 4.6833 53.5237 4.42878C53.3521 4.17427 53.1207 3.96566 52.8499 3.82119C52.579 3.67671 52.2769 3.60076 51.9699 3.59998H34.9699Z" fill="#00F3D7"/>
</svg>
