<svg width="100" height="100" viewBox="0 0 100 100" fill="none" xmlns="http://www.w3.org/2000/svg">
<path d="M75.1548 60.7036L60.4695 52.7189C60.1641 52.5529 59.7804 52.6659 59.6137 52.9719C59.4471 53.278 59.5607 53.6611 59.8668 53.8277L73.5316 61.2578L50.1471 73.9746L26.7621 61.2584L40.4268 53.8284C40.7329 53.6611 40.8465 53.2787 40.6799 52.9726C40.5133 52.6665 40.1296 52.5535 39.8241 52.7195L25.1395 60.7036C24.9363 60.8147 24.8101 61.0274 24.8101 61.2584C24.8101 61.4894 24.9363 61.7021 25.1395 61.8131L49.8455 75.2481C49.9395 75.2993 50.043 75.3245 50.1471 75.3245C50.2513 75.3245 50.3548 75.2993 50.4488 75.2481L75.1548 61.8131C75.358 61.7021 75.4842 61.4894 75.4842 61.2584C75.4842 61.0274 75.358 60.8147 75.1548 60.7036Z" fill="black"/>
<path d="M25.1395 38.6212L42.6988 48.1692C42.8074 48.681 42.8831 49.184 42.8926 49.6561C42.866 51.0559 42.418 52.4513 41.8052 53.711C41.6733 53.911 41.571 54.1187 41.4852 54.3301C40.6086 55.9293 39.513 57.2496 38.7708 57.9665C38.7367 57.9993 38.7134 58.0385 38.6976 58.0801C37.8311 59.0381 37.3306 60.1148 37.3306 61.2577C37.3306 65.1801 43.08 68.371 50.1471 68.371C57.2143 68.371 62.9637 65.1794 62.9637 61.2577C62.9637 60.1148 62.4638 59.0375 61.5967 58.0801C61.5809 58.0385 61.5576 57.9993 61.5235 57.9665C60.7838 57.2515 59.692 55.9375 58.8173 54.3465C58.7258 54.1168 58.6153 53.8921 58.4708 53.6756C57.8668 52.4279 57.4282 51.049 57.4017 49.6681C57.4112 49.1866 57.4869 48.6817 57.5955 48.1686L75.1548 38.6206C75.358 38.5095 75.4842 38.2968 75.4842 38.0658C75.4842 37.8348 75.358 37.6221 75.1548 37.5111L50.4488 24.0767C50.2607 23.9744 50.0342 23.9744 49.8461 24.0767L25.1395 37.5117C24.9363 37.6228 24.8101 37.8355 24.8101 38.0664C24.8101 38.2974 24.9363 38.5101 25.1395 38.6212ZM58.2802 54.6993C58.3654 54.9473 58.4115 55.2016 58.4115 55.461C58.4115 55.5803 58.3957 55.6971 58.3774 55.8138C56.149 54.7744 53.2793 54.1458 50.1471 54.1458C47.0149 54.1458 44.1453 54.7744 41.9162 55.8138C41.8986 55.6971 41.8821 55.5803 41.8821 55.461C41.8821 55.2004 41.9289 54.9448 42.0153 54.6949C42.1377 54.4733 42.2551 54.2461 42.3675 54.0145C42.8193 53.3525 43.5704 52.7599 44.5391 52.284C45.8594 53.1859 47.8638 53.7514 50.1471 53.7514C52.4317 53.7514 54.438 53.1846 55.7583 52.2815C56.7163 52.7517 57.461 53.3367 57.9135 53.9912C58.0309 54.2323 58.1527 54.4689 58.2802 54.6993ZM59.0054 55.8895C59.0931 56.0202 59.1808 56.1458 59.2692 56.2701C59.1701 56.2146 59.0647 56.1628 58.9624 56.1085C58.9795 56.036 58.9946 55.9634 59.0054 55.8895ZM58.2076 56.4102C57.3815 58.3534 54.084 59.8106 50.1471 59.8106C46.2103 59.8106 42.9127 58.3534 42.0866 56.4102C44.2374 55.3973 47.0553 54.7763 50.1471 54.7763C53.2389 54.7763 56.0568 55.3973 58.2076 56.4102ZM41.3312 56.1085C41.229 56.1628 41.1236 56.2146 41.0238 56.2701C41.1122 56.1451 41.2006 56.0196 41.2883 55.8883C41.2996 55.9628 41.3148 56.036 41.3312 56.1085ZM43.0043 52.4734C43.1526 52.0322 43.2737 51.5816 43.3621 51.1241C43.5306 51.379 43.7408 51.6207 43.9913 51.8467C43.6309 52.0398 43.3015 52.2493 43.0043 52.4734ZM56.3061 51.8441C56.5541 51.6195 56.763 51.379 56.9303 51.1266C57.018 51.5803 57.1379 52.0272 57.2843 52.4645C56.9896 52.243 56.6639 52.0347 56.3061 51.8441ZM56.5226 48.753C56.6816 49.049 56.7706 49.3532 56.7706 49.6624C56.7706 50.3478 56.3616 50.9934 55.6712 51.5381C54.8583 51.1815 53.9268 50.9019 52.9044 50.7201L56.5226 48.753ZM51.9818 51.2219C53.1064 51.3576 54.1364 51.6157 55.0313 51.9647C53.8094 52.6684 52.06 53.1202 50.1471 53.1202C48.2355 53.1202 46.4873 52.669 45.2655 51.966C46.1598 51.6163 47.191 51.3588 48.3138 51.2225L49.8455 52.0556C49.9395 52.1067 50.043 52.1319 50.1471 52.1319C50.2513 52.1319 50.3548 52.1067 50.4488 52.0556L51.9818 51.2219ZM44.6268 51.5406C43.9345 50.9953 43.5243 50.3491 43.5243 49.6624C43.5243 49.3525 43.6133 49.049 43.7723 48.753L47.393 50.722C46.3712 50.9038 45.4397 51.1834 44.6268 51.5406ZM50.1471 67.7411C43.4284 67.7411 37.9617 64.8336 37.9617 61.259C37.9617 60.2404 38.418 59.2805 39.2081 58.4216C39.2088 58.4209 39.2094 58.4209 39.2094 58.4203C39.3249 58.3086 39.448 58.1824 39.5742 58.0492C40.1119 57.55 40.7632 57.0893 41.5218 56.6847C42.4741 58.8658 45.9168 60.4417 50.1471 60.4417C54.3774 60.4417 57.8201 58.8658 58.7718 56.6847C59.5304 57.0893 60.1817 57.55 60.7194 58.0492C60.8457 58.1824 60.9687 58.3086 61.0842 58.4203C61.0849 58.4209 61.0855 58.4209 61.0855 58.4216C61.8756 59.2799 62.3319 60.2404 62.3319 61.259C62.3326 64.833 56.8659 67.7411 50.1471 67.7411ZM50.1471 25.3503L73.5322 38.0664L50.1471 50.782L26.7621 38.0664L50.1471 25.3503Z" fill="black"/>
<path d="M50.1471 45.179C53.4017 45.179 56.3679 44.4968 58.6311 43.3829C58.6538 43.381 58.6765 43.3791 58.6986 43.3722C58.7541 43.3551 58.7971 43.3204 58.8337 43.2806C61.3663 41.9806 62.9636 40.127 62.9636 38.0658C62.9636 34.1435 57.2142 30.9526 50.1471 30.9526C43.08 30.9526 37.3306 34.1441 37.3306 38.0658C37.3306 40.127 38.9279 41.9806 41.4605 43.2806C41.4971 43.3204 41.5401 43.3551 41.5956 43.3722C41.6152 43.3785 41.6347 43.3759 41.6543 43.3778C43.9181 44.4949 46.8881 45.179 50.1471 45.179ZM42.0923 42.9171C42.9392 40.9607 46.315 39.5142 50.1471 39.5142C53.9792 39.5142 57.355 40.9607 58.2019 42.9171C56.0517 43.9288 53.2364 44.5479 50.1471 44.5479C47.0578 44.5479 44.2425 43.9288 42.0923 42.9171ZM37.9617 38.0664C37.9617 34.4918 43.4283 31.5843 50.1471 31.5843C56.8659 31.5843 62.3325 34.4918 62.3325 38.0664C62.3325 39.8499 60.9706 41.4675 58.7712 42.6407C57.7968 40.4444 54.2676 38.8831 50.1471 38.8831C46.0266 38.8831 42.4974 40.4444 41.523 42.6407C39.3236 41.4675 37.9617 39.8499 37.9617 38.0664Z" fill="black"/>
</svg>
