<svg width="100" height="100" viewBox="0 0 100 100" fill="none" xmlns="http://www.w3.org/2000/svg">
<path d="M50 93C73.7482 93 93 73.7482 93 50C93 26.2518 73.7482 7 50 7C26.2518 7 7 26.2518 7 50C7 73.7482 26.2518 93 50 93Z" fill="url(#paint0_linear)"/>
<path fill-rule="evenodd" clip-rule="evenodd" d="M28.756 39.6026C31.0306 38.2651 33.9588 39.0248 35.2963 41.2995L40.8759 50.7886L46.7054 41.2329C47.5852 39.7908 49.1612 38.9204 50.8503 38.9438C52.5395 38.9673 54.0907 39.8809 54.9302 41.3469L64.3018 57.7121C65.6131 60.0019 64.8198 62.9212 62.53 64.2325C60.2402 65.5437 57.3209 64.7505 56.0096 62.4607L50.654 53.1084L44.8791 62.5746C44.0044 64.0084 42.4411 64.8776 40.7616 64.864C39.0822 64.8504 37.5332 63.9559 36.6819 62.5081L27.0592 46.1429C25.7217 43.8683 26.4814 40.9401 28.756 39.6026Z" fill="white"/>
<path d="M67.7975 47.7906C70.046 47.7906 71.8687 45.9679 71.8687 43.7194C71.8687 41.4709 70.046 39.6482 67.7975 39.6482C65.5491 39.6482 63.7263 41.4709 63.7263 43.7194C63.7263 45.9679 65.5491 47.7906 67.7975 47.7906Z" fill="white"/>
<path fill-rule="evenodd" clip-rule="evenodd" d="M67.7975 40.0463C65.7689 40.0463 64.1244 41.6908 64.1244 43.7193C64.1244 45.7479 65.7689 47.3924 67.7975 47.3924C69.826 47.3924 71.4705 45.7479 71.4705 43.7193C71.4705 41.6908 69.826 40.0463 67.7975 40.0463ZM63.3281 43.7193C63.3281 41.251 65.3291 39.25 67.7975 39.25C70.2658 39.25 72.2668 41.251 72.2668 43.7193C72.2668 46.1877 70.2658 48.1887 67.7975 48.1887C65.3291 48.1887 63.3281 46.1877 63.3281 43.7193Z" fill="white"/>
<defs>
<linearGradient id="paint0_linear" x1="-52.3022" y1="50" x2="50" y2="-36.4214" gradientUnits="userSpaceOnUse">
<stop stop-color="#2323FF"/>
<stop offset="0.4183" stop-color="#4F51FF"/>
<stop offset="1" stop-color="#A53EF4"/>
</linearGradient>
</defs>
</svg>
