<?xml version="1.0" encoding="utf-8"?>
<!-- Generator: Adobe Illustrator 24.1.1, SVG Export Plug-In . SVG Version: 6.00 Build 0)  -->
<svg version="1.1" id="Layer_1" xmlns="http://www.w3.org/2000/svg" xmlns:xlink="http://www.w3.org/1999/xlink" x="0px" y="0px"
	 viewBox="0 0 1253 1080" style="enable-background:new 0 0 1253 1080;" xml:space="preserve">
<style type="text/css">
	.st0{fill:url(#SVGID_1_);}
	.st1{fill:url(#SVGID_2_);}
	.st2{fill:url(#SVGID_3_);}
	.st3{fill:url(#SVGID_4_);}
	.st4{fill:url(#SVGID_5_);}
	.st5{fill:url(#SVGID_6_);}
	.st6{fill:url(#SVGID_7_);}
	.st7{fill:url(#SVGID_8_);}
	.st8{fill:url(#SVGID_9_);}
	.st9{fill:url(#SVGID_10_);}
	.st10{fill:url(#SVGID_11_);}
</style>
<g>
	<linearGradient id="SVGID_1_" gradientUnits="userSpaceOnUse" x1="44.1232" y1="116.6194" x2="1189.957" y2="946.3611">
		<stop  offset="7.486631e-02" style="stop-color:#5891C2"/>
		<stop  offset="0.4656" style="stop-color:#B72A92"/>
		<stop  offset="0.91" style="stop-color:#EC9418"/>
	</linearGradient>
	<polygon class="st0" points="77,15.4 557.2,823.9 848.3,823.9 368,15.4 	"/>
	<linearGradient id="SVGID_2_" gradientUnits="userSpaceOnUse" x1="-159.8899" y1="398.3517" x2="985.9439" y2="1228.0935">
		<stop  offset="7.486631e-02" style="stop-color:#5891C2"/>
		<stop  offset="0.4656" style="stop-color:#B72A92"/>
		<stop  offset="0.91" style="stop-color:#EC9418"/>
	</linearGradient>
	<polygon class="st1" points="31.8,823.9 509.7,823.9 270.8,423.4 	"/>
	<linearGradient id="SVGID_3_" gradientUnits="userSpaceOnUse" x1="160.5999" y1="-44.2295" x2="1306.4337" y2="785.5123">
		<stop  offset="7.486631e-02" style="stop-color:#5891C2"/>
		<stop  offset="0.4656" style="stop-color:#B72A92"/>
		<stop  offset="0.91" style="stop-color:#EC9418"/>
	</linearGradient>
	<polygon class="st2" points="415.6,15.4 895.8,823.9 1186.9,823.9 706.6,15.4 	"/>
	<linearGradient id="SVGID_4_" gradientUnits="userSpaceOnUse" x1="364.6131" y1="-325.9619" x2="1510.4469" y2="503.7798">
		<stop  offset="7.486631e-02" style="stop-color:#5891C2"/>
		<stop  offset="0.4656" style="stop-color:#B72A92"/>
		<stop  offset="0.91" style="stop-color:#EC9418"/>
	</linearGradient>
	<polygon class="st3" points="1232,15.4 754.2,15.4 993.1,415.9 	"/>
</g>
<g>
	<linearGradient id="SVGID_5_" gradientUnits="userSpaceOnUse" x1="45.6999" y1="973.7618" x2="1213.3792" y2="973.7618">
		<stop  offset="0" style="stop-color:#5891C2"/>
		<stop  offset="0.38" style="stop-color:#B72A92"/>
		<stop  offset="0.9" style="stop-color:#EC9418"/>
	</linearGradient>
	<polygon class="st4" points="180.1,888.3 162.1,955.9 93.7,955.9 111.8,888.3 74.2,888.3 28.3,1059.2 65.9,1059.2 84.4,990.6 
		152.8,990.6 134.2,1059.2 171.8,1059.2 217.7,888.3 	"/>
	<linearGradient id="SVGID_6_" gradientUnits="userSpaceOnUse" x1="45.6999" y1="973.1403" x2="1213.3792" y2="973.1403">
		<stop  offset="0" style="stop-color:#5891C2"/>
		<stop  offset="0.38" style="stop-color:#B72A92"/>
		<stop  offset="0.9" style="stop-color:#EC9418"/>
	</linearGradient>
	<path class="st5" d="M315.4,887.1L196,1059.2h40.5l25.9-38.3h72.3l5.4,38.3h38.6l-27.1-172.1H315.4z M284.9,987.7l37.6-56.4
		l7.8,56.4H284.9z"/>
	<linearGradient id="SVGID_7_" gradientUnits="userSpaceOnUse" x1="45.6999" y1="973.7736" x2="1213.3792" y2="973.7736">
		<stop  offset="0" style="stop-color:#5891C2"/>
		<stop  offset="0.38" style="stop-color:#B72A92"/>
		<stop  offset="0.9" style="stop-color:#EC9418"/>
	</linearGradient>
	<path class="st6" d="M493.2,958.6c-23.2-9.5-30-13.4-30-22.5c0-8.5,9-17.3,24.9-17.3c16.6,0,28.1,6.4,41,18.3l25.9-25.9
		c-14.4-15.4-34.7-25.4-64-25.4c-36.6,0-67.9,21.5-67.9,56.4c0,25.1,19.8,37.1,42,46.2c23,9.3,29.1,14.2,29.1,22.5
		c0,10.7-11,17.8-26.1,17.8c-19.5,0-34.4-7.8-47.8-22.5l-28.3,23.9c16.1,20.8,41.5,31.5,74.5,31.5c35.9,0,67.9-21,67.9-56.9
		C534.2,979.8,516.6,968.1,493.2,958.6z"/>
	<linearGradient id="SVGID_8_" gradientUnits="userSpaceOnUse" x1="45.6999" y1="973.7618" x2="1213.3792" y2="973.7618">
		<stop  offset="0" style="stop-color:#5891C2"/>
		<stop  offset="0.38" style="stop-color:#B72A92"/>
		<stop  offset="0.9" style="stop-color:#EC9418"/>
	</linearGradient>
	<polygon class="st7" points="686.3,955.9 617.9,955.9 636,888.3 598.4,888.3 552.5,1059.2 590.1,1059.2 608.6,990.6 677,990.6 
		658.4,1059.2 696,1059.2 741.9,888.3 704.3,888.3 	"/>
	<linearGradient id="SVGID_9_" gradientUnits="userSpaceOnUse" x1="45.6999" y1="973.7618" x2="1213.3792" y2="973.7618">
		<stop  offset="0" style="stop-color:#5891C2"/>
		<stop  offset="0.38" style="stop-color:#B72A92"/>
		<stop  offset="0.9" style="stop-color:#EC9418"/>
	</linearGradient>
	<polygon class="st8" points="908.5,888.3 766.9,888.3 757.6,923 809.6,923 772.9,1059.2 810.5,1059.2 847.2,923 899.2,923 	"/>
	<linearGradient id="SVGID_10_" gradientUnits="userSpaceOnUse" x1="45.6999" y1="973.1403" x2="1213.3792" y2="973.1403">
		<stop  offset="0" style="stop-color:#5891C2"/>
		<stop  offset="0.38" style="stop-color:#B72A92"/>
		<stop  offset="0.9" style="stop-color:#EC9418"/>
	</linearGradient>
	<path class="st9" d="M971.5,887.1l-119.4,172.1h40.5l25.9-38.3h72.3l5.4,38.3h38.6l-27.1-172.1H971.5z M940.9,987.7l37.6-56.4
		l7.8,56.4H940.9z"/>
	<linearGradient id="SVGID_11_" gradientUnits="userSpaceOnUse" x1="45.6999" y1="973.7618" x2="1213.3792" y2="973.7618">
		<stop  offset="0" style="stop-color:#5891C2"/>
		<stop  offset="0.38" style="stop-color:#B72A92"/>
		<stop  offset="0.9" style="stop-color:#EC9418"/>
	</linearGradient>
	<path class="st10" d="M1138.9,993.3h37.9l-8.1,27.8c-7.6,3.4-17.3,6.6-30.5,6.6c-24.2,0-43.7-14.4-43.7-41
		c0-35.6,28.1-66.9,64.7-66.9c21.5,0,34.9,8.8,44.9,19.8l27.8-24.6c-12-15.6-33.7-29.6-69.8-29.6c-61.5,0-106.7,49.3-106.7,102.5
		c0,51,41.3,74.2,80.3,74.2c25.6,0,45.2-6.6,62-16.1l24.2-85.2h-74.2L1138.9,993.3z"/>
</g>
</svg>
