<?xml version="1.0" encoding="UTF-8"?>
<svg xmlns="http://www.w3.org/2000/svg" xmlns:xlink="http://www.w3.org/1999/xlink" width="100pt" height="100pt" viewBox="0 0 100 100" version="1.1">
<defs>
<linearGradient id="linear0" gradientUnits="userSpaceOnUse" x1="3079.16" y1="-1195.45" x2="3820.15" y2="-1732.03" gradientTransform="matrix(0.046,0,0,-0.046,-109.208,-17.462)">
<stop offset="0.08" style="stop-color:rgb(17.254902%,47.843137%,80.784314%);stop-opacity:1;"/>
<stop offset="0.47" style="stop-color:rgb(46.666667%,13.333333%,76.470588%);stop-opacity:1;"/>
<stop offset="0.91" style="stop-color:rgb(90.980392%,5.882353%,64.705882%);stop-opacity:1;"/>
</linearGradient>
<linearGradient id="linear1" gradientUnits="userSpaceOnUse" x1="2947.24" y1="-1377.62" x2="3688.23" y2="-1914.2" gradientTransform="matrix(0.046,0,0,-0.046,-109.208,-17.462)">
<stop offset="0.08" style="stop-color:rgb(17.254902%,47.843137%,80.784314%);stop-opacity:1;"/>
<stop offset="0.47" style="stop-color:rgb(46.666667%,13.333333%,76.470588%);stop-opacity:1;"/>
<stop offset="0.91" style="stop-color:rgb(90.980392%,5.882353%,64.705882%);stop-opacity:1;"/>
</linearGradient>
<linearGradient id="linear2" gradientUnits="userSpaceOnUse" x1="3154.48" y1="-1091.43" x2="3895.47" y2="-1628.01" gradientTransform="matrix(0.046,0,0,-0.046,-109.208,-17.462)">
<stop offset="0.08" style="stop-color:rgb(17.254902%,47.843137%,80.784314%);stop-opacity:1;"/>
<stop offset="0.47" style="stop-color:rgb(46.666667%,13.333333%,76.470588%);stop-opacity:1;"/>
<stop offset="0.91" style="stop-color:rgb(90.980392%,5.882353%,64.705882%);stop-opacity:1;"/>
</linearGradient>
<linearGradient id="linear3" gradientUnits="userSpaceOnUse" x1="3286.41" y1="-909.24" x2="4027.4" y2="-1445.82" gradientTransform="matrix(0.046,0,0,-0.046,-109.208,-17.462)">
<stop offset="0.08" style="stop-color:rgb(17.254902%,47.843137%,80.784314%);stop-opacity:1;"/>
<stop offset="0.47" style="stop-color:rgb(46.666667%,13.333333%,76.470588%);stop-opacity:1;"/>
<stop offset="0.91" style="stop-color:rgb(90.980392%,5.882353%,64.705882%);stop-opacity:1;"/>
</linearGradient>
<linearGradient id="linear4" gradientUnits="userSpaceOnUse" x1="3080.18" y1="-1749.74" x2="3835.3" y2="-1749.74" gradientTransform="matrix(0.046,0,0,-0.046,-109.208,-17.462)">
<stop offset="0" style="stop-color:rgb(17.254902%,47.843137%,80.784314%);stop-opacity:1;"/>
<stop offset="0.38" style="stop-color:rgb(46.666667%,13.333333%,76.470588%);stop-opacity:1;"/>
<stop offset="0.9" style="stop-color:rgb(90.980392%,5.882353%,64.705882%);stop-opacity:1;"/>
</linearGradient>
<linearGradient id="linear5" gradientUnits="userSpaceOnUse" x1="3080.18" y1="-1749.36" x2="3835.3" y2="-1749.36" gradientTransform="matrix(0.046,0,0,-0.046,-109.208,-17.462)">
<stop offset="0" style="stop-color:rgb(17.254902%,47.843137%,80.784314%);stop-opacity:1;"/>
<stop offset="0.38" style="stop-color:rgb(46.666667%,13.333333%,76.470588%);stop-opacity:1;"/>
<stop offset="0.9" style="stop-color:rgb(90.980392%,5.882353%,64.705882%);stop-opacity:1;"/>
</linearGradient>
<linearGradient id="linear6" gradientUnits="userSpaceOnUse" x1="3080.18" y1="-1749.71" x2="3835.3" y2="-1749.71" gradientTransform="matrix(0.046,0,0,-0.046,-109.208,-17.462)">
<stop offset="0" style="stop-color:rgb(17.254902%,47.843137%,80.784314%);stop-opacity:1;"/>
<stop offset="0.38" style="stop-color:rgb(46.666667%,13.333333%,76.470588%);stop-opacity:1;"/>
<stop offset="0.9" style="stop-color:rgb(90.980392%,5.882353%,64.705882%);stop-opacity:1;"/>
</linearGradient>
<linearGradient id="linear7" gradientUnits="userSpaceOnUse" x1="3080.18" y1="-1749.74" x2="3835.3" y2="-1749.74" gradientTransform="matrix(0.046,0,0,-0.046,-109.208,-17.462)">
<stop offset="0" style="stop-color:rgb(17.254902%,47.843137%,80.784314%);stop-opacity:1;"/>
<stop offset="0.38" style="stop-color:rgb(46.666667%,13.333333%,76.470588%);stop-opacity:1;"/>
<stop offset="0.9" style="stop-color:rgb(90.980392%,5.882353%,64.705882%);stop-opacity:1;"/>
</linearGradient>
<linearGradient id="linear8" gradientUnits="userSpaceOnUse" x1="3080.18" y1="-1749.74" x2="3835.3" y2="-1749.74" gradientTransform="matrix(0.046,0,0,-0.046,-109.208,-17.462)">
<stop offset="0" style="stop-color:rgb(17.254902%,47.843137%,80.784314%);stop-opacity:1;"/>
<stop offset="0.38" style="stop-color:rgb(46.666667%,13.333333%,76.470588%);stop-opacity:1;"/>
<stop offset="0.9" style="stop-color:rgb(90.980392%,5.882353%,64.705882%);stop-opacity:1;"/>
</linearGradient>
<linearGradient id="linear9" gradientUnits="userSpaceOnUse" x1="3080.18" y1="-1749.36" x2="3835.3" y2="-1749.36" gradientTransform="matrix(0.046,0,0,-0.046,-109.208,-17.462)">
<stop offset="0" style="stop-color:rgb(17.254902%,47.843137%,80.784314%);stop-opacity:1;"/>
<stop offset="0.38" style="stop-color:rgb(46.666667%,13.333333%,76.470588%);stop-opacity:1;"/>
<stop offset="0.9" style="stop-color:rgb(90.980392%,5.882353%,64.705882%);stop-opacity:1;"/>
</linearGradient>
<linearGradient id="linear10" gradientUnits="userSpaceOnUse" x1="3080.18" y1="-1749.74" x2="3835.3" y2="-1749.74" gradientTransform="matrix(0.046,0,0,-0.046,-109.208,-17.462)">
<stop offset="0" style="stop-color:rgb(17.254902%,47.843137%,80.784314%);stop-opacity:1;"/>
<stop offset="0.38" style="stop-color:rgb(46.666667%,13.333333%,76.470588%);stop-opacity:1;"/>
<stop offset="0.9" style="stop-color:rgb(90.980392%,5.882353%,64.705882%);stop-opacity:1;"/>
</linearGradient>
</defs>
<g id="surface1">
<path style=" stroke:none;fill-rule:nonzero;fill:url(#linear0);" d="M 33.316406 34.484375 L 47.59375 58.519531 L 56.246094 58.519531 L 41.96875 34.484375 Z M 33.316406 34.484375 "/>
<path style=" stroke:none;fill-rule:nonzero;fill:url(#linear1);" d="M 31.972656 58.519531 L 46.183594 58.519531 L 39.078125 46.613281 Z M 31.972656 58.519531 "/>
<path style=" stroke:none;fill-rule:nonzero;fill:url(#linear2);" d="M 43.382812 34.484375 L 57.65625 58.519531 L 66.3125 58.519531 L 52.035156 34.484375 Z M 43.382812 34.484375 "/>
<path style=" stroke:none;fill-rule:nonzero;fill:url(#linear3);" d="M 67.652344 34.484375 L 53.449219 34.484375 L 60.550781 46.390625 Z M 67.652344 34.484375 "/>
<path style=" stroke:none;fill-rule:nonzero;fill:url(#linear4);" d="M 36.382812 60.433594 L 35.847656 62.441406 L 33.8125 62.441406 L 34.351562 60.433594 L 33.234375 60.433594 L 31.871094 65.515625 L 32.988281 65.515625 L 33.539062 63.472656 L 35.570312 63.472656 L 35.019531 65.515625 L 36.136719 65.515625 L 37.5 60.433594 Z M 36.382812 60.433594 "/>
<path style=" stroke:none;fill-rule:nonzero;fill:url(#linear5);" d="M 40.398438 60.398438 L 36.851562 65.515625 L 38.050781 65.515625 L 38.820312 64.378906 L 40.96875 64.378906 L 41.132812 65.515625 L 42.277344 65.515625 L 41.476562 60.398438 Z M 39.492188 63.390625 L 40.613281 61.714844 L 40.84375 63.390625 Z M 39.492188 63.390625 "/>
<path style=" stroke:none;fill-rule:nonzero;fill:url(#linear6);" d="M 45.691406 62.523438 C 45 62.238281 44.796875 62.125 44.796875 61.855469 C 44.796875 61.585938 45.066406 61.339844 45.539062 61.339844 C 46.011719 61.339844 46.375 61.53125 46.757812 61.882812 L 47.527344 61.113281 C 47.035156 60.597656 46.339844 60.324219 45.625 60.359375 C 44.539062 60.359375 43.605469 60.996094 43.605469 62.035156 C 43.605469 62.78125 44.195312 63.136719 44.855469 63.410156 C 45.515625 63.683594 45.71875 63.832031 45.71875 64.078125 C 45.71875 64.394531 45.394531 64.609375 44.945312 64.609375 C 44.394531 64.609375 43.871094 64.363281 43.523438 63.9375 L 42.683594 64.648438 C 43.160156 65.269531 43.914062 65.585938 44.894531 65.585938 C 45.964844 65.585938 46.914062 64.960938 46.914062 63.894531 C 46.910156 63.152344 46.386719 62.800781 45.691406 62.523438 Z M 45.691406 62.523438 "/>
<path style=" stroke:none;fill-rule:nonzero;fill:url(#linear7);" d="M 51.429688 62.441406 L 49.398438 62.441406 L 49.9375 60.433594 L 48.816406 60.433594 L 47.453125 65.515625 L 48.570312 65.515625 L 49.121094 63.472656 L 51.152344 63.472656 L 50.601562 65.515625 L 51.71875 65.515625 L 53.085938 60.433594 L 51.964844 60.433594 Z M 51.429688 62.441406 "/>
<path style=" stroke:none;fill-rule:nonzero;fill:url(#linear8);" d="M 58.035156 60.433594 L 53.824219 60.433594 L 53.550781 61.464844 L 55.097656 61.464844 L 54.007812 65.515625 L 55.125 65.515625 L 56.214844 61.464844 L 57.761719 61.464844 Z M 58.035156 60.433594 "/>
<path style=" stroke:none;fill-rule:nonzero;fill:url(#linear9);" d="M 59.910156 60.398438 L 56.359375 65.515625 L 57.558594 65.515625 L 58.328125 64.375 L 60.480469 64.375 L 60.640625 65.515625 L 61.800781 65.515625 L 61 60.398438 Z M 59 63.386719 L 60.117188 61.710938 L 60.351562 63.386719 Z M 59 63.386719 "/>
<path style=" stroke:none;fill-rule:nonzero;fill:url(#linear10);" d="M 64.886719 63.554688 L 66.011719 63.554688 L 65.773438 64.382812 C 65.488281 64.515625 65.175781 64.582031 64.863281 64.582031 C 64.144531 64.582031 63.566406 64.152344 63.566406 63.363281 C 63.554688 62.285156 64.410156 61.398438 65.488281 61.375 C 66 61.359375 66.492188 61.574219 66.824219 61.960938 L 67.648438 61.230469 C 67.292969 60.769531 66.648438 60.351562 65.574219 60.351562 C 63.859375 60.324219 62.441406 61.683594 62.398438 63.398438 C 62.398438 64.914062 63.628906 65.601562 64.785156 65.601562 C 65.433594 65.609375 66.070312 65.441406 66.628906 65.121094 L 67.351562 62.589844 L 65.148438 62.589844 Z M 64.886719 63.554688 "/>
</g>
</svg>
