<svg id="Layer_1" data-name="Layer 1" xmlns="http://www.w3.org/2000/svg" xmlns:xlink="http://www.w3.org/1999/xlink" viewBox="0 0 500 500"><defs><style>.cls-1{fill:url(#linear-gradient);}.cls-2{fill:url(#linear-gradient-2);}.cls-3{fill:url(#linear-gradient-3);}.cls-4{fill:url(#linear-gradient-4);}.cls-5{fill:url(#linear-gradient-5);}.cls-6{fill:url(#linear-gradient-6);}.cls-7{fill:url(#linear-gradient-7);}</style><linearGradient id="linear-gradient" x1="3079.16" y1="-1195.45" x2="3820.15" y2="-1732.03" gradientTransform="matrix(0.23, 0, 0, -0.23, -546.04, -87.31)" gradientUnits="userSpaceOnUse"><stop offset="0.08" stop-color="#2c7ace"/><stop offset="0.47" stop-color="#7722c3"/><stop offset="0.91" stop-color="#e80fa5"/></linearGradient><linearGradient id="linear-gradient-2" x1="2947.24" y1="-1377.62" x2="3688.23" y2="-1914.2" xlink:href="#linear-gradient"/><linearGradient id="linear-gradient-3" x1="3154.48" y1="-1091.43" x2="3895.47" y2="-1628.01" xlink:href="#linear-gradient"/><linearGradient id="linear-gradient-4" x1="3286.41" y1="-909.24" x2="4027.4" y2="-1445.82" xlink:href="#linear-gradient"/><linearGradient id="linear-gradient-5" x1="3080.18" y1="-1749.74" x2="3835.3" y2="-1749.74" gradientTransform="matrix(0.23, 0, 0, -0.23, -546.04, -87.31)" gradientUnits="userSpaceOnUse"><stop offset="0" stop-color="#2c7ace"/><stop offset="0.38" stop-color="#7722c3"/><stop offset="0.9" stop-color="#e80fa5"/></linearGradient><linearGradient id="linear-gradient-6" x1="3080.18" y1="-1749.36" x2="3835.3" y2="-1749.36" xlink:href="#linear-gradient-5"/><linearGradient id="linear-gradient-7" x1="3080.18" y1="-1749.71" x2="3835.3" y2="-1749.71" xlink:href="#linear-gradient-5"/></defs><g id="SvgjsG1068"><polygon class="cls-1" points="166.59 172.42 237.97 292.59 281.23 292.59 209.84 172.42 166.59 172.42"/><polygon class="cls-2" points="159.87 292.59 230.91 292.59 195.4 233.06 159.87 292.59"/><polygon class="cls-3" points="216.92 172.42 288.29 292.59 331.56 292.59 260.17 172.42 216.92 172.42"/><polygon class="cls-4" points="338.27 172.42 267.25 172.42 302.76 231.95 338.27 172.42"/><polygon class="cls-5" points="181.91 302.17 179.24 312.21 169.07 312.21 171.76 302.17 166.17 302.17 159.35 327.57 164.94 327.57 167.69 317.37 177.86 317.37 175.09 327.57 180.68 327.57 187.5 302.17 181.91 302.17"/><path class="cls-6" d="M202,302l-17.74,25.58h6l3.85-5.69h10.74l.81,5.69h5.73l-4-25.58Zm-4.53,14.95,5.59-8.38,1.16,8.38Z"/><path class="cls-7" d="M228.45,312.62c-3.45-1.42-4.46-2-4.46-3.35s1.34-2.57,3.7-2.57,4.18.95,6.1,2.72l3.85-3.85a12.32,12.32,0,0,0-9.51-3.78c-5.44,0-10.1,3.2-10.1,8.39,0,3.73,2.95,5.51,6.25,6.87s4.32,2.11,4.32,3.34c0,1.59-1.63,2.65-3.88,2.65a9.12,9.12,0,0,1-7.1-3.35l-4.21,3.55c2.39,3.1,6.17,4.69,11.07,4.69,5.34,0,10.1-3.13,10.1-8.46C234.55,315.77,231.93,314,228.45,312.62Z"/><polygon class="cls-5" points="257.15 312.21 246.99 312.21 249.68 302.17 244.09 302.17 237.27 327.57 242.85 327.57 245.6 317.37 255.77 317.37 253.01 327.57 258.6 327.57 265.42 302.17 259.83 302.17 257.15 312.21"/><polygon class="cls-5" points="290.18 302.17 269.13 302.17 267.75 307.32 275.48 307.32 270.03 327.57 275.62 327.57 281.07 307.32 288.8 307.32 290.18 302.17"/><path class="cls-6" d="M299.55,302,281.8,327.57h6l3.85-5.69h10.75l.8,5.69H309l-4-25.58ZM295,316.94l5.59-8.38,1.16,8.38Z"/><path class="cls-5" d="M324.43,317.77h5.63l-1.2,4.14a10.78,10.78,0,0,1-4.54,1c-3.59,0-6.49-2.14-6.49-6.1a9.83,9.83,0,0,1,9.62-9.94,8.48,8.48,0,0,1,6.67,2.94l4.13-3.65c-1.78-2.32-5-4.4-10.37-4.4A15.63,15.63,0,0,0,312,317c0,7.58,6.14,11,11.93,11a18.08,18.08,0,0,0,9.22-2.39l3.6-12.67h-11Z"/></g></svg>