<?xml version="1.0" encoding="UTF-8" standalone="no"?>
<svg
   xmlns:dc="http://purl.org/dc/elements/1.1/"
   xmlns:cc="http://creativecommons.org/ns#"
   xmlns:rdf="http://www.w3.org/1999/02/22-rdf-syntax-ns#"
   xmlns:svg="http://www.w3.org/2000/svg"
   xmlns="http://www.w3.org/2000/svg"
   xmlns:xlink="http://www.w3.org/1999/xlink"
   id="Layer_1"
   data-name="Layer 1"
   viewBox="-59.3785 -106.3285 100 100"
   version="1.1"
   width="100"
   height="100">
  <metadata
     id="metadata66">
    <rdf:RDF>
      <cc:Work
         rdf:about="">
        <dc:format>image/svg+xml</dc:format>
        <dc:type
           rdf:resource="http://purl.org/dc/dcmitype/StillImage" />
        <dc:title></dc:title>
      </cc:Work>
    </rdf:RDF>
  </metadata>
  <defs
     id="defs35">
    <linearGradient
       id="linear-gradient"
       x1="356.07999"
       y1="587.71997"
       x2="79.980003"
       y2="587.71997"
       gradientTransform="translate(0.2,-426.32)"
       gradientUnits="userSpaceOnUse">
      <stop
         offset="0"
         stop-color="#4171f7"
         id="stop2" />
      <stop
         offset="1"
         stop-color="#f74bda"
         id="stop4" />
    </linearGradient>
    <linearGradient
       id="linear-gradient-2"
       x1="97.559998"
       y1="659.10999"
       x2="184.10001"
       y2="606.57001"
       gradientTransform="translate(0.2,-426.32)"
       gradientUnits="userSpaceOnUse">
      <stop
         offset="0"
         stop-color="#f14cdb"
         stop-opacity="0.03"
         id="stop7" />
      <stop
         offset="0"
         stop-color="#fff"
         stop-opacity="0"
         id="stop9" />
      <stop
         offset="1"
         stop-color="#fff"
         stop-opacity="0.4"
         id="stop11" />
    </linearGradient>
    <linearGradient
       id="linear-gradient-3"
       x1="230.55"
       y1="599.04999"
       x2="340.79001"
       y2="654.69"
       gradientTransform="translate(0.2,-426.32)"
       gradientUnits="userSpaceOnUse">
      <stop
         offset="0"
         stop-color="#231f20"
         stop-opacity="0.4"
         id="stop14" />
      <stop
         offset="1"
         stop-color="#231f20"
         stop-opacity="0"
         id="stop16" />
    </linearGradient>
    <linearGradient
       id="linear-gradient-4"
       x1="274.82001"
       y1="604.48999"
       x2="301.98001"
       y2="739.5"
       gradientTransform="translate(0.2,-426.32)"
       gradientUnits="userSpaceOnUse">
      <stop
         offset="0"
         stop-color="#eae8fc"
         id="stop19" />
      <stop
         offset="0.52"
         stop-color="#f7f7fe"
         id="stop21" />
      <stop
         offset="1"
         stop-color="#fff"
         id="stop23" />
    </linearGradient>
    <linearGradient
       id="linear-gradient-5"
       x1="401.92999"
       y1="629.20001"
       x2="375.48999"
       y2="739.85999"
       gradientTransform="translate(0.2,-426.32)"
       gradientUnits="userSpaceOnUse">
      <stop
         offset="0"
         stop-color="#dad4f4"
         id="stop26" />
      <stop
         offset="0.65"
         stop-color="#f1effb"
         id="stop28" />
      <stop
         offset="1"
         stop-color="#fff"
         id="stop30" />
    </linearGradient>
    <linearGradient
       id="linear-gradient-6"
       x1="32.220001"
       y1="604.48999"
       x2="59.380001"
       y2="739.5"
       xlink:href="#linear-gradient-4" />
    <linearGradient
       id="linear-gradient-7"
       x1="159.33"
       y1="629.20001"
       x2="132.89999"
       y2="739.85999"
       xlink:href="#linear-gradient-5" />
    <linearGradient
       xlink:href="#linear-gradient-5"
       id="linearGradient891"
       gradientUnits="userSpaceOnUse"
       gradientTransform="translate(0.2,-426.32)"
       x1="401.92999"
       y1="629.20001"
       x2="375.48999"
       y2="739.85999" />
    <linearGradient
       xlink:href="#linear-gradient-4"
       id="linearGradient893"
       gradientUnits="userSpaceOnUse"
       gradientTransform="translate(0.2,-426.32)"
       x1="274.82001"
       y1="604.48999"
       x2="301.98001"
       y2="739.5" />
  </defs>
  <circle
     style="fill:#01060d;stroke-width:0.179805"
     cx="-9.3785"
     cy="-56.328499"
     id="circle37"
     r="50" />
  <g
     id="g49"
     transform="matrix(0.17980501,0,0,0.17980501,-48.701856,-87.210011)">
    <polygon
       points="218.6,0.9 79.6,81.1 79.6,241.6 218.6,321.9 357.6,241.6 357.6,81.1 "
       fill="url(#linear-gradient)"
       id="polygon39"
       style="fill:url(#linear-gradient)" />
    <polygon
       points="218.5,161.7 79.6,81.5 79.6,241.6 218.5,321.8 "
       opacity="0.56"
       fill="url(#linear-gradient-2)"
       style="isolation:isolate;fill:url(#linear-gradient-2)"
       id="polygon41" />
    <polygon
       points="357.6,241.6 357.6,81.5 357.5,81.4 218.5,161.7 218.5,321.8 218.6,321.9 "
       opacity="0.56"
       fill="url(#linear-gradient-3)"
       style="isolation:isolate;fill:url(#linear-gradient-3)"
       id="polygon43" />
    <polygon
       points="242.6,287.2 340,343.5 437.4,287.2 437.4,174.8 340,118.6 242.6,174.8 "
       fill="#ffffff"
       id="polygon45" />
    <polygon
       points="0,287.2 97.4,343.5 194.8,287.2 194.8,174.8 97.4,118.6 0,174.8 "
       fill="#ffffff"
       id="polygon47" />
  </g>
  <polygon
     points="340,231 242.6,174.8 340,118.6 437.4,174.8 "
     fill="#ffffff"
     id="polygon51"
     transform="matrix(0.17980501,0,0,0.17980501,-48.701856,-87.210011)" />
  <polygon
     points="340,343.5 242.6,287.2 242.6,174.8 340,231 "
     fill="url(#linear-gradient-4)"
     id="polygon53"
     style="fill:url(#linearGradient893)"
     transform="matrix(0.17980501,0,0,0.17980501,-48.701856,-87.210011)" />
  <polygon
     points="437.4,287.2 340,343.5 340,231 437.4,174.8 "
     fill="url(#linear-gradient-5)"
     id="polygon55"
     style="fill:url(#linearGradient891)"
     transform="matrix(0.17980501,0,0,0.17980501,-48.701856,-87.210011)" />
  <polygon
     points="97.4,231 0,174.8 97.4,118.6 194.8,174.8 "
     fill="#ffffff"
     id="polygon57"
     transform="matrix(0.17980501,0,0,0.17980501,-48.701856,-87.210011)" />
  <polygon
     points="97.4,343.5 0,287.2 0,174.8 97.4,231 "
     fill="url(#linear-gradient-6)"
     id="polygon59"
     style="fill:url(#linear-gradient-6)"
     transform="matrix(0.17980501,0,0,0.17980501,-48.701856,-87.210011)" />
  <polygon
     points="194.8,287.2 97.4,343.5 97.4,231 194.8,174.8 "
     fill="url(#linear-gradient-7)"
     id="polygon61"
     style="fill:url(#linear-gradient-7)"
     transform="matrix(0.17980501,0,0,0.17980501,-48.701856,-87.210011)" />
</svg>
