<svg width="100" height="99" viewBox="0 0 100 99" fill="none" xmlns="http://www.w3.org/2000/svg">
<g clip-path="url(#clip0)">
<path d="M21.9673 70.2368C21.9636 70.8145 22.4313 71.2847 23.0088 71.2839L73.236 71.208C76.7122 71.2029 79.515 68.3622 79.4754 64.8847L79.4392 61.6998C79.4245 60.4092 78.3705 59.3722 77.0804 59.3791L23.0611 59.6699C22.4921 59.6729 22.0316 60.133 22.0281 60.7023L21.9673 70.2368Z" fill="url(#paint0_linear)"/>
<path d="M21.5567 26.3535C21.5617 27.6454 22.6098 28.6899 23.9011 28.6899H73.8437L80.0545 18.4364C80.4741 17.7434 79.9757 16.8579 79.1659 16.8579H27.7986C24.3351 16.8579 21.5308 19.6744 21.5442 23.1395L21.5567 26.3535Z" fill="url(#paint1_linear)"/>
<path d="M22.3163 71.0395C22.3163 71.0395 22.9416 70.247 23.5837 69.6238C24.0682 69.1536 25.7617 67.9766 25.7617 67.9766L79.1564 32.3485C79.8048 31.9158 80.1928 31.2014 80.193 30.4393L80.1984 17.6556C79.5733 18.7246 78.6829 19.1415 77.9572 19.6049C77.2887 20.0318 30.4013 51.9588 23.0193 56.9856C22.3873 57.416 22.0422 58.0926 22.0357 58.8405L21.9468 69.1409C21.9468 69.1409 21.947 69.9339 21.9468 70.2997C21.9466 70.8176 22.3163 71.0395 22.3163 71.0395Z" fill="url(#paint2_linear)"/>
<g filter="url(#filter0_d)">
<path d="M89.6349 42.2327C89.6349 42.2327 98.7916 47.8989 73.9283 62.8211C61.1779 70.4736 45.3956 75.6927 34.4703 77.0133C19.2755 78.85 11.9846 75.628 9.73685 71.5419C6.15573 65.0318 13.2677 57.2453 15.4142 54.904C16.7746 53.4201 18.9531 51.2575 21.5112 49.1503C24.4239 46.7512 28.7361 43.4818 28.7361 43.4818C28.7361 43.4818 24.3568 45.7718 21.0987 48.2363C18.2035 50.4265 16.6082 51.8881 14.4736 53.9122C12.9008 55.4036 4.1674 64.9669 7.55276 71.998C11.2876 79.7552 23.6516 80.4598 33.3683 79.3661C40.794 78.5301 60.3127 74.6292 75.4288 64.3596C101.159 49.0884 89.6349 42.2327 89.6349 42.2327Z" fill="white"/>
</g>
<g filter="url(#filter1_d)">
<path d="M89.3082 40.7458C89.3137 42.3572 87.8782 43.6634 86.1022 43.6634C84.3262 43.6634 82.882 42.3572 82.8767 40.7458C82.8714 39.1345 84.3068 37.8282 86.0829 37.8282C87.8589 37.8282 89.3029 39.1345 89.3082 40.7458Z" fill="#FE5E62"/>
<path d="M89.135 40.7459C89.1399 42.246 87.7983 43.4902 86.1016 43.4902C84.4047 43.4902 83.0548 42.246 83.0498 40.7459C83.0449 39.2457 84.3867 38.0015 86.0834 38.0015C87.7801 38.0015 89.13 39.2457 89.135 40.7459Z" stroke="white" stroke-opacity="0.5" stroke-width="1.96052"/>
</g>
</g>
<defs>
<filter id="filter0_d" x="-9.16146" y="26.2917" width="122.707" height="74.8175" filterUnits="userSpaceOnUse" color-interpolation-filters="sRGB">
<feFlood flood-opacity="0" result="BackgroundImageFix"/>
<feColorMatrix in="SourceAlpha" type="matrix" values="0 0 0 0 0 0 0 0 0 0 0 0 0 0 0 0 0 0 127 0"/>
<feOffset dx="2.69834" dy="2.69834"/>
<feGaussianBlur stdDeviation="9.31967"/>
<feColorMatrix type="matrix" values="0 0 0 0 0.996078 0 0 0 0 0.368627 0 0 0 0 0.388235 0 0 0 0.6 0"/>
<feBlend mode="normal" in2="BackgroundImageFix" result="effect1_dropShadow"/>
<feBlend mode="normal" in="SourceGraphic" in2="effect1_dropShadow" result="shape"/>
</filter>
<filter id="filter1_d" x="60.756" y="15.7077" width="57.7505" height="57.154" filterUnits="userSpaceOnUse" color-interpolation-filters="sRGB">
<feFlood flood-opacity="0" result="BackgroundImageFix"/>
<feColorMatrix in="SourceAlpha" type="matrix" values="0 0 0 0 0 0 0 0 0 0 0 0 0 0 0 0 0 0 127 0"/>
<feOffset dx="3.53884" dy="3.53884"/>
<feGaussianBlur stdDeviation="12.4262"/>
<feColorMatrix type="matrix" values="0 0 0 0 1 0 0 0 0 0.372549 0 0 0 0 0.372549 0 0 0 0.4 0"/>
<feBlend mode="normal" in2="BackgroundImageFix" result="effect1_dropShadow"/>
<feBlend mode="normal" in="SourceGraphic" in2="effect1_dropShadow" result="shape"/>
</filter>
<linearGradient id="paint0_linear" x1="25.3635" y1="69.4045" x2="78.9283" y2="61.5461" gradientUnits="userSpaceOnUse">
<stop offset="0.021112" stop-color="#C94C5A"/>
<stop offset="0.468096" stop-color="#E437E5"/>
<stop offset="0.919042" stop-color="#8C67FF"/>
</linearGradient>
<linearGradient id="paint1_linear" x1="21.515" y1="22.7004" x2="92.2702" y2="23.2878" gradientUnits="userSpaceOnUse">
<stop offset="0.125" stop-color="#F3607A"/>
<stop offset="0.465627" stop-color="#DC1BD8"/>
<stop offset="0.824839" stop-color="#542FAA"/>
</linearGradient>
<linearGradient id="paint2_linear" x1="79.0974" y1="26.6619" x2="21.0042" y2="61.0184" gradientUnits="userSpaceOnUse">
<stop stop-color="#8C67FF"/>
<stop offset="0.484375" stop-color="#E133F2"/>
<stop offset="1" stop-color="#FF5F5F"/>
</linearGradient>
<clipPath id="clip0">
<rect width="91" height="67" fill="white" transform="translate(4 16)"/>
</clipPath>
</defs>
</svg>
